<?xml version="1.0" encoding="UTF-8" standalone="no"?>
<!DOCTYPE svg PUBLIC "-//W3C//DTD SVG 1.1//EN"
 "http://www.w3.org/Graphics/SVG/1.1/DTD/svg11.dtd">
<!-- Generated by graphviz version 2.36.0 (20140111.2315)
 -->
<!-- Title: command.SetHeadingCommand.run Pages: 1 -->
<svg width="370pt" height="66pt"
 viewBox="0.00 0.00 370.00 66.00" xmlns="http://www.w3.org/2000/svg" xmlns:xlink="http://www.w3.org/1999/xlink">
<g id="graph0" class="graph" transform="scale(1 1) rotate(0) translate(4 62)">
<title>command.SetHeadingCommand.run</title>
<polygon fill="white" stroke="none" points="-4,4 -4,-62 366,-62 366,4 -4,4"/>
<!-- Node1 -->
<g id="node1" class="node"><title>Node1</title>
<polygon fill="#bfbfbf" stroke="black" points="0,-19.5 0,-38.5 194,-38.5 194,-19.5 0,-19.5"/>
<text text-anchor="middle" x="97" y="-26.5" font-family="Helvetica,sans-Serif" font-size="10.00">command.SetHeadingCommand.run</text>
</g>
<!-- Node2 -->
<g id="node2" class="node"><title>Node2</title>
<g id="a_node2"><a xlink:href="../../df/dcb/classturtle_1_1_turtle.html#aee0b52994c47376c03203bfdfc116c63" target="_top" xlink:title="turtle.Turtle.getDirection">
<polygon fill="white" stroke="black" points="230,-38.5 230,-57.5 362,-57.5 362,-38.5 230,-38.5"/>
<text text-anchor="middle" x="296" y="-45.5" font-family="Helvetica,sans-Serif" font-size="10.00">turtle.Turtle.getDirection</text>
</a>
</g>
</g>
<!-- Node1&#45;&gt;Node2 -->
<g id="edge1" class="edge"><title>Node1&#45;&gt;Node2</title>
<path fill="none" stroke="midnightblue" d="M194.192,-38.2774C202.802,-39.1078 211.436,-39.9405 219.83,-40.7501"/>
<polygon fill="midnightblue" stroke="midnightblue" points="219.642,-44.2481 229.932,-41.7244 220.314,-37.2804 219.642,-44.2481"/>
</g>
<!-- Node3 -->
<g id="node3" class="node"><title>Node3</title>
<g id="a_node3"><a xlink:href="../../df/dcb/classturtle_1_1_turtle.html#abfdf6ff527b415b5e0f813b7daee4216" target="_top" xlink:title="turtle.Turtle.setHeading">
<polygon fill="white" stroke="black" points="232,-0.5 232,-19.5 360,-19.5 360,-0.5 232,-0.5"/>
<text text-anchor="middle" x="296" y="-7.5" font-family="Helvetica,sans-Serif" font-size="10.00">turtle.Turtle.setHeading</text>
</a>
</g>
</g>
<!-- Node1&#45;&gt;Node3 -->
<g id="edge2" class="edge"><title>Node1&#45;&gt;Node3</title>
<path fill="none" stroke="midnightblue" d="M194.192,-19.7226C203.488,-18.826 212.812,-17.9268 221.831,-17.0569"/>
<polygon fill="midnightblue" stroke="midnightblue" points="222.25,-20.5328 231.868,-16.0889 221.578,-13.5652 222.25,-20.5328"/>
</g>
</g>
</svg>
