<?xml version="1.0" encoding="UTF-8" standalone="no"?>
<!DOCTYPE svg PUBLIC "-//W3C//DTD SVG 1.1//EN"
 "http://www.w3.org/Graphics/SVG/1.1/DTD/svg11.dtd">
<!-- Generated by graphviz version 2.36.0 (20140111.2315)
 -->
<!-- Title: command.RepeatCommand Pages: 1 -->
<svg width="294pt" height="222pt"
 viewBox="0.00 0.00 294.00 222.00" xmlns="http://www.w3.org/2000/svg" xmlns:xlink="http://www.w3.org/1999/xlink">
<g id="graph0" class="graph" transform="scale(1 1) rotate(0) translate(4 218)">
<title>command.RepeatCommand</title>
<polygon fill="white" stroke="none" points="-4,4 -4,-218 290,-218 290,4 -4,4"/>
<!-- Node1 -->
<g id="node1" class="node"><title>Node1</title>
<polygon fill="#bfbfbf" stroke="black" points="120,-0.5 120,-19.5 272,-19.5 272,-0.5 120,-0.5"/>
<text text-anchor="middle" x="196" y="-7.5" font-family="Helvetica,sans-Serif" font-size="10.00">command.RepeatCommand</text>
</g>
<!-- Node2 -->
<g id="node2" class="node"><title>Node2</title>
<g id="a_node2"><a xlink:href="../../d3/d0c/classcommand_1_1_loop_command.html" target="_top" xlink:title="command.LoopCommand">
<polygon fill="white" stroke="black" points="125,-58.5 125,-77.5 267,-77.5 267,-58.5 125,-58.5"/>
<text text-anchor="middle" x="196" y="-65.5" font-family="Helvetica,sans-Serif" font-size="10.00">command.LoopCommand</text>
</a>
</g>
</g>
<!-- Node2&#45;&gt;Node1 -->
<g id="edge1" class="edge"><title>Node2&#45;&gt;Node1</title>
<path fill="none" stroke="midnightblue" d="M196,-47.953C196,-38.2875 196,-27.0312 196,-19.5052"/>
<polygon fill="midnightblue" stroke="midnightblue" points="192.5,-48.25 196,-58.25 199.5,-48.25 192.5,-48.25"/>
</g>
<!-- Node3 -->
<g id="node3" class="node"><title>Node3</title>
<g id="a_node3"><a xlink:href="../../d7/d35/classcommand_1_1_command.html" target="_top" xlink:title="command.Command">
<polygon fill="white" stroke="black" points="46.5,-126.5 46.5,-145.5 165.5,-145.5 165.5,-126.5 46.5,-126.5"/>
<text text-anchor="middle" x="106" y="-133.5" font-family="Helvetica,sans-Serif" font-size="10.00">command.Command</text>
</a>
</g>
</g>
<!-- Node3&#45;&gt;Node2 -->
<g id="edge2" class="edge"><title>Node3&#45;&gt;Node2</title>
<path fill="none" stroke="midnightblue" d="M125.834,-120.455C143.714,-107.343 169.407,-88.5016 184.231,-77.6305"/>
<polygon fill="midnightblue" stroke="midnightblue" points="123.76,-117.636 117.766,-126.372 127.9,-123.28 123.76,-117.636"/>
</g>
<!-- Node4 -->
<g id="node4" class="node"><title>Node4</title>
<polygon fill="white" stroke="#bfbfbf" points="-0.5,-194.5 -0.5,-213.5 88.5,-213.5 88.5,-194.5 -0.5,-194.5"/>
<text text-anchor="middle" x="44" y="-201.5" font-family="Helvetica,sans-Serif" font-size="10.00">List&lt; Double &gt;</text>
</g>
<!-- Node4&#45;&gt;Node3 -->
<g id="edge3" class="edge"><title>Node4&#45;&gt;Node3</title>
<path fill="none" stroke="#9a32cd" stroke-dasharray="5,2" d="M58.9858,-187.047C71.138,-174.111 87.8164,-156.357 97.6947,-145.841"/>
<polygon fill="#9a32cd" stroke="#9a32cd" points="56.4012,-184.687 52.1054,-194.372 61.5032,-189.48 56.4012,-184.687"/>
<text text-anchor="middle" x="111" y="-167.5" font-family="Helvetica,sans-Serif" font-size="10.00"> parameters</text>
</g>
<!-- Node5 -->
<g id="node5" class="node"><title>Node5</title>
<polygon fill="white" stroke="#bfbfbf" points="107,-194.5 107,-213.5 229,-213.5 229,-194.5 107,-194.5"/>
<text text-anchor="middle" x="168" y="-201.5" font-family="Helvetica,sans-Serif" font-size="10.00">Map&lt; String, String &gt;</text>
</g>
<!-- Node5&#45;&gt;Node3 -->
<g id="edge4" class="edge"><title>Node5&#45;&gt;Node3</title>
<path fill="none" stroke="#9a32cd" stroke-dasharray="5,2" d="M159.425,-184.838C155.607,-177.86 150.682,-170.111 145,-164 138.271,-156.763 129.281,-150.378 121.628,-145.637"/>
<polygon fill="#9a32cd" stroke="#9a32cd" points="156.543,-186.893 164.187,-194.229 162.786,-183.727 156.543,-186.893"/>
<text text-anchor="middle" x="197" y="-167.5" font-family="Helvetica,sans-Serif" font-size="10.00"> commandValues</text>
</g>
<!-- Node6 -->
<g id="node6" class="node"><title>Node6</title>
<polygon fill="white" stroke="#bfbfbf" points="184,-126.5 184,-145.5 268,-145.5 268,-126.5 184,-126.5"/>
<text text-anchor="middle" x="226" y="-133.5" font-family="Helvetica,sans-Serif" font-size="10.00">List&lt; String &gt;</text>
</g>
<!-- Node6&#45;&gt;Node2 -->
<g id="edge5" class="edge"><title>Node6&#45;&gt;Node2</title>
<path fill="none" stroke="#9a32cd" stroke-dasharray="5,2" d="M217.903,-117.186C212.115,-104.452 204.573,-87.8607 200.019,-77.8411"/>
<polygon fill="#9a32cd" stroke="#9a32cd" points="214.754,-118.716 222.078,-126.372 221.126,-115.82 214.754,-118.716"/>
<text text-anchor="middle" x="250" y="-99.5" font-family="Helvetica,sans-Serif" font-size="10.00"> strParameters</text>
</g>
</g>
</svg>
