<?xml version="1.0" encoding="UTF-8" standalone="no"?>
<!DOCTYPE svg PUBLIC "-//W3C//DTD SVG 1.1//EN"
 "http://www.w3.org/Graphics/SVG/1.1/DTD/svg11.dtd">
<!-- Generated by graphviz version 2.36.0 (20140111.2315)
 -->
<!-- Title: command.BackwardCommand.run Pages: 1 -->
<svg width="476pt" height="28pt"
 viewBox="0.00 0.00 476.00 28.00" xmlns="http://www.w3.org/2000/svg" xmlns:xlink="http://www.w3.org/1999/xlink">
<g id="graph0" class="graph" transform="scale(1 1) rotate(0) translate(4 24)">
<title>command.BackwardCommand.run</title>
<polygon fill="white" stroke="none" points="-4,4 -4,-24 472,-24 472,4 -4,4"/>
<!-- Node1 -->
<g id="node1" class="node"><title>Node1</title>
<polygon fill="#bfbfbf" stroke="black" points="0.5,-0.5 0.5,-19.5 183.5,-19.5 183.5,-0.5 0.5,-0.5"/>
<text text-anchor="middle" x="92" y="-7.5" font-family="Helvetica,sans-Serif" font-size="10.00">command.BackwardCommand.run</text>
</g>
<!-- Node2 -->
<g id="node2" class="node"><title>Node2</title>
<g id="a_node2"><a xlink:href="../../df/dcb/classturtle_1_1_turtle.html#a5384ad2c4daaf999e4b91b90c5d3a8f0" target="_top" xlink:title="turtle.Turtle.move">
<polygon fill="white" stroke="black" points="220.5,-0.5 220.5,-19.5 321.5,-19.5 321.5,-0.5 220.5,-0.5"/>
<text text-anchor="middle" x="271" y="-7.5" font-family="Helvetica,sans-Serif" font-size="10.00">turtle.Turtle.move</text>
</a>
</g>
</g>
<!-- Node1&#45;&gt;Node2 -->
<g id="edge1" class="edge"><title>Node1&#45;&gt;Node2</title>
<path fill="none" stroke="midnightblue" d="M183.574,-10C192.523,-10 201.444,-10 209.971,-10"/>
<polygon fill="midnightblue" stroke="midnightblue" points="210.151,-13.5001 220.151,-10 210.151,-6.5001 210.151,-13.5001"/>
</g>
<!-- Node3 -->
<g id="node3" class="node"><title>Node3</title>
<g id="a_node3"><a xlink:href="../../df/dcb/classturtle_1_1_turtle.html#a837c1417ab4483a1c77103074a4d3f6a" target="_top" xlink:title="turtle.Turtle.radians">
<polygon fill="white" stroke="black" points="358.5,-0.5 358.5,-19.5 467.5,-19.5 467.5,-0.5 358.5,-0.5"/>
<text text-anchor="middle" x="413" y="-7.5" font-family="Helvetica,sans-Serif" font-size="10.00">turtle.Turtle.radians</text>
</a>
</g>
</g>
<!-- Node2&#45;&gt;Node3 -->
<g id="edge2" class="edge"><title>Node2&#45;&gt;Node3</title>
<path fill="none" stroke="midnightblue" d="M321.753,-10C330.226,-10 339.133,-10 347.914,-10"/>
<polygon fill="midnightblue" stroke="midnightblue" points="348.132,-13.5001 358.132,-10 348.132,-6.5001 348.132,-13.5001"/>
</g>
</g>
</svg>
