<?xml version="1.0" encoding="UTF-8" standalone="no"?>
<!DOCTYPE svg PUBLIC "-//W3C//DTD SVG 1.1//EN"
 "http://www.w3.org/Graphics/SVG/1.1/DTD/svg11.dtd">
<!-- Generated by graphviz version 2.36.0 (20140111.2315)
 -->
<!-- Title: command.Command.run Pages: 1 -->
<svg width="602pt" height="104pt"
 viewBox="0.00 0.00 602.00 104.00" xmlns="http://www.w3.org/2000/svg" xmlns:xlink="http://www.w3.org/1999/xlink">
<g id="graph0" class="graph" transform="scale(1 1) rotate(0) translate(4 100)">
<title>command.Command.run</title>
<polygon fill="white" stroke="none" points="-4,4 -4,-100 598,-100 598,4 -4,4"/>
<!-- Node1 -->
<g id="node1" class="node"><title>Node1</title>
<polygon fill="#bfbfbf" stroke="black" points="0.5,-57.5 0.5,-76.5 137.5,-76.5 137.5,-57.5 0.5,-57.5"/>
<text text-anchor="middle" x="69" y="-64.5" font-family="Helvetica,sans-Serif" font-size="10.00">command.Command.run</text>
</g>
<!-- Node2 -->
<g id="node2" class="node"><title>Node2</title>
<g id="a_node2"><a xlink:href="../../d7/d35/classcommand_1_1_command.html#ade84c695f2d6aa1e11511700aa6d89dd" target="_top" xlink:title="command.Command.doCommand">
<polygon fill="white" stroke="black" points="174,-76.5 174,-95.5 358,-95.5 358,-76.5 174,-76.5"/>
<text text-anchor="middle" x="266" y="-83.5" font-family="Helvetica,sans-Serif" font-size="10.00">command.Command.doCommand</text>
</a>
</g>
</g>
<!-- Node1&#45;&gt;Node2 -->
<g id="edge1" class="edge"><title>Node1&#45;&gt;Node2</title>
<path fill="none" stroke="midnightblue" d="M137.654,-73.592C146.126,-74.4174 154.931,-75.2753 163.776,-76.1372"/>
<polygon fill="midnightblue" stroke="midnightblue" points="163.472,-79.6241 173.765,-77.1104 164.151,-72.657 163.472,-79.6241"/>
</g>
<!-- Node3 -->
<g id="node3" class="node"><title>Node3</title>
<g id="a_node3"><a xlink:href="../../d7/d35/classcommand_1_1_command.html#ace2304395e13775995811b94446e8bbc" target="_top" xlink:title="command.Command.update">
<polygon fill="white" stroke="black" points="188.5,-38.5 188.5,-57.5 343.5,-57.5 343.5,-38.5 188.5,-38.5"/>
<text text-anchor="middle" x="266" y="-45.5" font-family="Helvetica,sans-Serif" font-size="10.00">command.Command.update</text>
</a>
</g>
</g>
<!-- Node1&#45;&gt;Node3 -->
<g id="edge2" class="edge"><title>Node1&#45;&gt;Node3</title>
<path fill="none" stroke="midnightblue" d="M137.654,-60.408C150.715,-59.1354 164.567,-57.7858 178.14,-56.4633"/>
<polygon fill="midnightblue" stroke="midnightblue" points="178.834,-59.9123 188.448,-55.4589 178.156,-52.9453 178.834,-59.9123"/>
</g>
<!-- Node4 -->
<g id="node4" class="node"><title>Node4</title>
<g id="a_node4"><a xlink:href="../../d7/d35/classcommand_1_1_command.html#ab9f5701138ce884edf93cd748febbe0d" target="_top" xlink:title="command.Command.updateVariables">
<polygon fill="white" stroke="black" points="394.5,-76.5 394.5,-95.5 593.5,-95.5 593.5,-76.5 394.5,-76.5"/>
<text text-anchor="middle" x="494" y="-83.5" font-family="Helvetica,sans-Serif" font-size="10.00">command.Command.updateVariables</text>
</a>
</g>
</g>
<!-- Node3&#45;&gt;Node4 -->
<g id="edge3" class="edge"><title>Node3&#45;&gt;Node4</title>
<path fill="none" stroke="midnightblue" d="M323.738,-57.54C354.902,-62.7799 393.731,-69.3088 426.336,-74.7909"/>
<polygon fill="midnightblue" stroke="midnightblue" points="425.797,-78.2494 436.239,-76.4561 426.958,-71.3463 425.797,-78.2494"/>
</g>
<!-- Node5 -->
<g id="node5" class="node"><title>Node5</title>
<g id="a_node5"><a xlink:href="../../d7/d35/classcommand_1_1_command.html#a92c3f31ef37574df9753a61e01c8daad" target="_top" xlink:title="command.Command.updateFunctions">
<polygon fill="white" stroke="black" points="394,-38.5 394,-57.5 594,-57.5 594,-38.5 394,-38.5"/>
<text text-anchor="middle" x="494" y="-45.5" font-family="Helvetica,sans-Serif" font-size="10.00">command.Command.updateFunctions</text>
</a>
</g>
</g>
<!-- Node3&#45;&gt;Node5 -->
<g id="edge4" class="edge"><title>Node3&#45;&gt;Node5</title>
<path fill="none" stroke="midnightblue" d="M343.513,-48C356.371,-48 369.934,-48 383.433,-48"/>
<polygon fill="midnightblue" stroke="midnightblue" points="383.729,-51.5001 393.729,-48 383.729,-44.5001 383.729,-51.5001"/>
</g>
<!-- Node6 -->
<g id="node6" class="node"><title>Node6</title>
<g id="a_node6"><a xlink:href="../../d7/d35/classcommand_1_1_command.html#ae8029b25ed3f430063671ae6584b1a0f" target="_top" xlink:title="command.Command.updateColors">
<polygon fill="white" stroke="black" points="401.5,-0.5 401.5,-19.5 586.5,-19.5 586.5,-0.5 401.5,-0.5"/>
<text text-anchor="middle" x="494" y="-7.5" font-family="Helvetica,sans-Serif" font-size="10.00">command.Command.updateColors</text>
</a>
</g>
</g>
<!-- Node3&#45;&gt;Node6 -->
<g id="edge5" class="edge"><title>Node3&#45;&gt;Node6</title>
<path fill="none" stroke="midnightblue" d="M323.738,-38.46C354.902,-33.2201 393.731,-26.6912 426.336,-21.2091"/>
<polygon fill="midnightblue" stroke="midnightblue" points="426.958,-24.6537 436.239,-19.5439 425.797,-17.7506 426.958,-24.6537"/>
</g>
</g>
</svg>
