<?xml version="1.0" encoding="UTF-8" standalone="no"?>
<!DOCTYPE svg PUBLIC "-//W3C//DTD SVG 1.1//EN"
 "http://www.w3.org/Graphics/SVG/1.1/DTD/svg11.dtd">
<!-- Generated by graphviz version 2.36.0 (20140111.2315)
 -->
<!-- Title: command.Command.update Pages: 1 -->
<svg width="400pt" height="104pt"
 viewBox="0.00 0.00 400.00 104.00" xmlns="http://www.w3.org/2000/svg" xmlns:xlink="http://www.w3.org/1999/xlink">
<g id="graph0" class="graph" transform="scale(1 1) rotate(0) translate(4 100)">
<title>command.Command.update</title>
<polygon fill="white" stroke="none" points="-4,4 -4,-100 396,-100 396,4 -4,4"/>
<!-- Node1 -->
<g id="node1" class="node"><title>Node1</title>
<polygon fill="#bfbfbf" stroke="black" points="0.5,-38.5 0.5,-57.5 155.5,-57.5 155.5,-38.5 0.5,-38.5"/>
<text text-anchor="middle" x="78" y="-45.5" font-family="Helvetica,sans-Serif" font-size="10.00">command.Command.update</text>
</g>
<!-- Node2 -->
<g id="node2" class="node"><title>Node2</title>
<g id="a_node2"><a xlink:href="../../d7/d35/classcommand_1_1_command.html#ae8029b25ed3f430063671ae6584b1a0f" target="_top" xlink:title="command.Command.updateColors">
<polygon fill="white" stroke="black" points="199.5,-76.5 199.5,-95.5 384.5,-95.5 384.5,-76.5 199.5,-76.5"/>
<text text-anchor="middle" x="292" y="-83.5" font-family="Helvetica,sans-Serif" font-size="10.00">command.Command.updateColors</text>
</a>
</g>
</g>
<!-- Node1&#45;&gt;Node2 -->
<g id="edge1" class="edge"><title>Node1&#45;&gt;Node2</title>
<path fill="none" stroke="midnightblue" d="M132.223,-57.54C161.205,-62.7348 197.253,-69.1963 227.673,-74.6489"/>
<polygon fill="midnightblue" stroke="midnightblue" points="227.295,-78.1368 237.755,-76.4561 228.53,-71.2466 227.295,-78.1368"/>
</g>
<!-- Node3 -->
<g id="node3" class="node"><title>Node3</title>
<g id="a_node3"><a xlink:href="../../d7/d35/classcommand_1_1_command.html#a92c3f31ef37574df9753a61e01c8daad" target="_top" xlink:title="command.Command.updateFunctions">
<polygon fill="white" stroke="black" points="192,-38.5 192,-57.5 392,-57.5 392,-38.5 192,-38.5"/>
<text text-anchor="middle" x="292" y="-45.5" font-family="Helvetica,sans-Serif" font-size="10.00">command.Command.updateFunctions</text>
</a>
</g>
</g>
<!-- Node1&#45;&gt;Node3 -->
<g id="edge2" class="edge"><title>Node1&#45;&gt;Node3</title>
<path fill="none" stroke="midnightblue" d="M155.537,-48C163.976,-48 172.686,-48 181.429,-48"/>
<polygon fill="midnightblue" stroke="midnightblue" points="181.692,-51.5001 191.692,-48 181.692,-44.5001 181.692,-51.5001"/>
</g>
<!-- Node4 -->
<g id="node4" class="node"><title>Node4</title>
<g id="a_node4"><a xlink:href="../../d7/d35/classcommand_1_1_command.html#ab9f5701138ce884edf93cd748febbe0d" target="_top" xlink:title="command.Command.updateVariables">
<polygon fill="white" stroke="black" points="192.5,-0.5 192.5,-19.5 391.5,-19.5 391.5,-0.5 192.5,-0.5"/>
<text text-anchor="middle" x="292" y="-7.5" font-family="Helvetica,sans-Serif" font-size="10.00">command.Command.updateVariables</text>
</a>
</g>
</g>
<!-- Node1&#45;&gt;Node4 -->
<g id="edge3" class="edge"><title>Node1&#45;&gt;Node4</title>
<path fill="none" stroke="midnightblue" d="M132.223,-38.46C161.205,-33.2652 197.253,-26.8037 227.673,-21.3511"/>
<polygon fill="midnightblue" stroke="midnightblue" points="228.53,-24.7534 237.755,-19.5439 227.295,-17.8632 228.53,-24.7534"/>
</g>
</g>
</svg>
