<?xml version="1.0" encoding="UTF-8" standalone="no"?>
<!DOCTYPE svg PUBLIC "-//W3C//DTD SVG 1.1//EN"
 "http://www.w3.org/Graphics/SVG/1.1/DTD/svg11.dtd">
<!-- Generated by graphviz version 2.36.0 (20140111.2315)
 -->
<!-- Title: command.Command.updateColors Pages: 1 -->
<svg width="776pt" height="66pt"
 viewBox="0.00 0.00 776.00 66.00" xmlns="http://www.w3.org/2000/svg" xmlns:xlink="http://www.w3.org/1999/xlink">
<g id="graph0" class="graph" transform="scale(1 1) rotate(0) translate(4 62)">
<title>command.Command.updateColors</title>
<polygon fill="white" stroke="none" points="-4,4 -4,-62 772,-62 772,4 -4,4"/>
<!-- Node1 -->
<g id="node1" class="node"><title>Node1</title>
<polygon fill="#bfbfbf" stroke="black" points="0.5,-19.5 0.5,-38.5 185.5,-38.5 185.5,-19.5 0.5,-19.5"/>
<text text-anchor="middle" x="93" y="-26.5" font-family="Helvetica,sans-Serif" font-size="10.00">command.Command.updateColors</text>
</g>
<!-- Node2 -->
<g id="node2" class="node"><title>Node2</title>
<g id="a_node2"><a xlink:href="../../d7/d35/classcommand_1_1_command.html#ace2304395e13775995811b94446e8bbc" target="_top" xlink:title="command.Command.update">
<polygon fill="white" stroke="black" points="222.5,-19.5 222.5,-38.5 377.5,-38.5 377.5,-19.5 222.5,-19.5"/>
<text text-anchor="middle" x="300" y="-26.5" font-family="Helvetica,sans-Serif" font-size="10.00">command.Command.update</text>
</a>
</g>
</g>
<!-- Node1&#45;&gt;Node2 -->
<g id="edge1" class="edge"><title>Node1&#45;&gt;Node2</title>
<path fill="none" stroke="midnightblue" d="M195.796,-29C204.748,-29 213.706,-29 222.399,-29"/>
<polygon fill="midnightblue" stroke="midnightblue" points="195.707,-25.5001 185.707,-29 195.707,-32.5001 195.707,-25.5001"/>
</g>
<!-- Node3 -->
<g id="node3" class="node"><title>Node3</title>
<g id="a_node3"><a xlink:href="../../d7/d35/classcommand_1_1_command.html#a66d04483ecf285dc068cdd6fa3dd0a39" target="_top" xlink:title="command.Command.run">
<polygon fill="white" stroke="black" points="414.5,-19.5 414.5,-38.5 551.5,-38.5 551.5,-19.5 414.5,-19.5"/>
<text text-anchor="middle" x="483" y="-26.5" font-family="Helvetica,sans-Serif" font-size="10.00">command.Command.run</text>
</a>
</g>
</g>
<!-- Node2&#45;&gt;Node3 -->
<g id="edge2" class="edge"><title>Node2&#45;&gt;Node3</title>
<path fill="none" stroke="midnightblue" d="M387.776,-29C396.682,-29 405.636,-29 414.293,-29"/>
<polygon fill="midnightblue" stroke="midnightblue" points="387.76,-25.5001 377.76,-29 387.76,-32.5001 387.76,-25.5001"/>
</g>
<!-- Node4 -->
<g id="node4" class="node"><title>Node4</title>
<g id="a_node4"><a xlink:href="../../df/dcb/classturtle_1_1_turtle.html#aa53d992fb81cd039a22a301af9b32aba" target="_top" xlink:title="turtle.Turtle.act">
<polygon fill="white" stroke="black" points="633.5,-38.5 633.5,-57.5 722.5,-57.5 722.5,-38.5 633.5,-38.5"/>
<text text-anchor="middle" x="678" y="-45.5" font-family="Helvetica,sans-Serif" font-size="10.00">turtle.Turtle.act</text>
</a>
</g>
</g>
<!-- Node3&#45;&gt;Node4 -->
<g id="edge3" class="edge"><title>Node3&#45;&gt;Node4</title>
<path fill="none" stroke="midnightblue" d="M561.506,-36.6301C585.985,-39.0399 612.161,-41.6169 633.394,-43.7072"/>
<polygon fill="midnightblue" stroke="midnightblue" points="561.797,-33.1419 551.502,-35.6453 561.111,-40.1082 561.797,-33.1419"/>
</g>
<!-- Node5 -->
<g id="node5" class="node"><title>Node5</title>
<g id="a_node5"><a xlink:href="../../d9/d1b/classcommand_1_1_command_factory.html#a29259fe3695c6c5ba28330705fe07a2f" target="_top" xlink:title="command.CommandFactory.main">
<polygon fill="white" stroke="black" points="588.5,-0.5 588.5,-19.5 767.5,-19.5 767.5,-0.5 588.5,-0.5"/>
<text text-anchor="middle" x="678" y="-7.5" font-family="Helvetica,sans-Serif" font-size="10.00">command.CommandFactory.main</text>
</a>
</g>
</g>
<!-- Node3&#45;&gt;Node5 -->
<g id="edge4" class="edge"><title>Node3&#45;&gt;Node5</title>
<path fill="none" stroke="midnightblue" d="M561.634,-21.3573C570.364,-20.4979 579.308,-19.6173 588.166,-18.7453"/>
<polygon fill="midnightblue" stroke="midnightblue" points="561.111,-17.8918 551.502,-22.3547 561.797,-24.8581 561.111,-17.8918"/>
</g>
</g>
</svg>
