<?xml version="1.0" encoding="UTF-8" standalone="no"?>
<!DOCTYPE svg PUBLIC "-//W3C//DTD SVG 1.1//EN"
 "http://www.w3.org/Graphics/SVG/1.1/DTD/svg11.dtd">
<!-- Generated by graphviz version 2.36.0 (20140111.2315)
 -->
<!-- Title: command.Command.run Pages: 1 -->
<svg width="1456pt" height="87pt"
 viewBox="0.00 0.00 1456.00 87.00" xmlns="http://www.w3.org/2000/svg" xmlns:xlink="http://www.w3.org/1999/xlink">
<g id="graph0" class="graph" transform="scale(1 1) rotate(0) translate(4 83)">
<title>command.Command.run</title>
<polygon fill="white" stroke="none" points="-4,4 -4,-83 1452,-83 1452,4 -4,4"/>
<!-- Node1 -->
<g id="node1" class="node"><title>Node1</title>
<polygon fill="#bfbfbf" stroke="black" points="0.5,-29.5 0.5,-48.5 137.5,-48.5 137.5,-29.5 0.5,-29.5"/>
<text text-anchor="middle" x="69" y="-36.5" font-family="Helvetica,sans-Serif" font-size="10.00">command.Command.run</text>
</g>
<!-- Node2 -->
<g id="node2" class="node"><title>Node2</title>
<g id="a_node2"><a xlink:href="../../df/dcb/classturtle_1_1_turtle.html#aa53d992fb81cd039a22a301af9b32aba" target="_top" xlink:title="turtle.Turtle.act">
<polygon fill="white" stroke="black" points="174.5,-29.5 174.5,-48.5 263.5,-48.5 263.5,-29.5 174.5,-29.5"/>
<text text-anchor="middle" x="219" y="-36.5" font-family="Helvetica,sans-Serif" font-size="10.00">turtle.Turtle.act</text>
</a>
</g>
</g>
<!-- Node1&#45;&gt;Node2 -->
<g id="edge1" class="edge"><title>Node1&#45;&gt;Node2</title>
<path fill="none" stroke="midnightblue" d="M147.786,-39C156.891,-39 165.919,-39 174.318,-39"/>
<polygon fill="midnightblue" stroke="midnightblue" points="147.504,-35.5001 137.504,-39 147.504,-42.5001 147.504,-35.5001"/>
</g>
<!-- Node3 -->
<g id="node3" class="node"><title>Node3</title>
<g id="a_node3"><a xlink:href="../../d9/dd0/classworld_1_1_world.html#ae370733f7784c42741a6ba66c7d2ecf5" target="_top" xlink:title="world.World.listen">
<polygon fill="white" stroke="black" points="300,-29.5 300,-48.5 398,-48.5 398,-29.5 300,-29.5"/>
<text text-anchor="middle" x="349" y="-36.5" font-family="Helvetica,sans-Serif" font-size="10.00">world.World.listen</text>
</a>
</g>
</g>
<!-- Node2&#45;&gt;Node3 -->
<g id="edge2" class="edge"><title>Node2&#45;&gt;Node3</title>
<path fill="none" stroke="midnightblue" d="M273.947,-39C282.488,-39 291.275,-39 299.677,-39"/>
<polygon fill="midnightblue" stroke="midnightblue" points="273.692,-35.5001 263.692,-39 273.692,-42.5001 273.692,-35.5001"/>
</g>
<!-- Node4 -->
<g id="node4" class="node"><title>Node4</title>
<g id="a_node4"><a xlink:href="../../d8/d08/classworld_controller_1_1_world_controller.html#a178425d68e3e669c386706153ce44999" target="_top" xlink:title="worldController.WorldController.update">
<polygon fill="white" stroke="black" points="434,-29.5 434,-48.5 632,-48.5 632,-29.5 434,-29.5"/>
<text text-anchor="middle" x="533" y="-36.5" font-family="Helvetica,sans-Serif" font-size="10.00">worldController.WorldController.update</text>
</a>
</g>
</g>
<!-- Node3&#45;&gt;Node4 -->
<g id="edge3" class="edge"><title>Node3&#45;&gt;Node4</title>
<path fill="none" stroke="midnightblue" d="M408.407,-39C416.579,-39 425.156,-39 433.82,-39"/>
<polygon fill="midnightblue" stroke="midnightblue" points="408.295,-35.5001 398.295,-39 408.295,-42.5001 408.295,-35.5001"/>
</g>
<!-- Node5 -->
<g id="node5" class="node"><title>Node5</title>
<g id="a_node5"><a xlink:href="../../dd/d8e/classuser_interface_1_1_user_interface.html#a95e324c85888faea808be269e44ed5b8" target="_top" xlink:title="userInterface.UserInterface.run\lCommand">
<polygon fill="white" stroke="black" points="668,-24 668,-54 834,-54 834,-24 668,-24"/>
<text text-anchor="start" x="676" y="-42" font-family="Helvetica,sans-Serif" font-size="10.00">userInterface.UserInterface.run</text>
<text text-anchor="middle" x="751" y="-31" font-family="Helvetica,sans-Serif" font-size="10.00">Command</text>
</a>
</g>
</g>
<!-- Node4&#45;&gt;Node5 -->
<g id="edge4" class="edge"><title>Node4&#45;&gt;Node5</title>
<path fill="none" stroke="midnightblue" d="M642.29,-39C650.892,-39 659.492,-39 667.871,-39"/>
<polygon fill="midnightblue" stroke="midnightblue" points="642.203,-35.5001 632.203,-39 642.203,-42.5001 642.203,-35.5001"/>
</g>
<!-- Node6 -->
<g id="node6" class="node"><title>Node6</title>
<g id="a_node6"><a xlink:href="../../dd/d8e/classuser_interface_1_1_user_interface.html#a560c36977fddeee87002333870c54ed6" target="_top" xlink:title="userInterface.UserInterface.set\lUpResponses">
<polygon fill="white" stroke="black" points="1090.5,-49 1090.5,-79 1255.5,-79 1255.5,-49 1090.5,-49"/>
<text text-anchor="start" x="1098.5" y="-67" font-family="Helvetica,sans-Serif" font-size="10.00">userInterface.UserInterface.set</text>
<text text-anchor="middle" x="1173" y="-56" font-family="Helvetica,sans-Serif" font-size="10.00">UpResponses</text>
</a>
</g>
</g>
<!-- Node5&#45;&gt;Node6 -->
<g id="edge5" class="edge"><title>Node5&#45;&gt;Node6</title>
<path fill="none" stroke="midnightblue" d="M844.405,-44.5003C917.911,-48.8757 1019.79,-54.9396 1090.33,-59.1386"/>
<polygon fill="midnightblue" stroke="midnightblue" points="844.418,-40.9949 834.227,-43.8945 844.002,-47.9826 844.418,-40.9949"/>
</g>
<!-- Node8 -->
<g id="node8" class="node"><title>Node8</title>
<g id="a_node8"><a xlink:href="../../dd/d8e/classuser_interface_1_1_user_interface.html#a4316649a1f81fcc1dcaf93c812bf6f3a" target="_top" xlink:title="userInterface.UserInterface.make\lRunButton">
<polygon fill="white" stroke="black" points="870.5,-2 870.5,-32 1047.5,-32 1047.5,-2 870.5,-2"/>
<text text-anchor="start" x="878.5" y="-20" font-family="Helvetica,sans-Serif" font-size="10.00">userInterface.UserInterface.make</text>
<text text-anchor="middle" x="959" y="-9" font-family="Helvetica,sans-Serif" font-size="10.00">RunButton</text>
</a>
</g>
</g>
<!-- Node5&#45;&gt;Node8 -->
<g id="edge7" class="edge"><title>Node5&#45;&gt;Node8</title>
<path fill="none" stroke="midnightblue" d="M844.121,-29.1618C852.789,-28.2361 861.561,-27.2994 870.187,-26.3781"/>
<polygon fill="midnightblue" stroke="midnightblue" points="843.58,-25.6996 834.009,-30.2418 844.324,-32.66 843.58,-25.6996"/>
</g>
<!-- Node7 -->
<g id="node7" class="node"><title>Node7</title>
<g id="a_node7"><a xlink:href="../../dd/d8e/classuser_interface_1_1_user_interface.html#af296b064499e62c4fbfbf73da6456532" target="_top" xlink:title="userInterface.UserInterface.\lUserInterface">
<polygon fill="white" stroke="black" points="1298,-24 1298,-54 1448,-54 1448,-24 1298,-24"/>
<text text-anchor="start" x="1306" y="-42" font-family="Helvetica,sans-Serif" font-size="10.00">userInterface.UserInterface.</text>
<text text-anchor="middle" x="1373" y="-31" font-family="Helvetica,sans-Serif" font-size="10.00">UserInterface</text>
</a>
</g>
</g>
<!-- Node6&#45;&gt;Node7 -->
<g id="edge6" class="edge"><title>Node6&#45;&gt;Node7</title>
<path fill="none" stroke="midnightblue" d="M1265.88,-52.3986C1276.58,-51.0478 1287.39,-49.683 1297.81,-48.3677"/>
<polygon fill="midnightblue" stroke="midnightblue" points="1265.16,-48.962 1255.68,-53.6872 1266.04,-55.9069 1265.16,-48.962"/>
</g>
<!-- Node9 -->
<g id="node9" class="node"><title>Node9</title>
<g id="a_node9"><a xlink:href="../../dd/d8e/classuser_interface_1_1_user_interface.html#a6d39ee7d7ae35fc0539bb714bce6221a" target="_top" xlink:title="userInterface.UserInterface.make\lFunctionButtons">
<polygon fill="white" stroke="black" points="1084.5,-0 1084.5,-30 1261.5,-30 1261.5,-0 1084.5,-0"/>
<text text-anchor="start" x="1092.5" y="-18" font-family="Helvetica,sans-Serif" font-size="10.00">userInterface.UserInterface.make</text>
<text text-anchor="middle" x="1173" y="-7" font-family="Helvetica,sans-Serif" font-size="10.00">FunctionButtons</text>
</a>
</g>
</g>
<!-- Node8&#45;&gt;Node9 -->
<g id="edge8" class="edge"><title>Node8&#45;&gt;Node9</title>
<path fill="none" stroke="midnightblue" d="M1058.01,-16.0754C1066.78,-15.9926 1075.63,-15.9092 1084.31,-15.8273"/>
<polygon fill="midnightblue" stroke="midnightblue" points="1057.73,-12.5778 1047.76,-16.1721 1057.79,-19.5775 1057.73,-12.5778"/>
</g>
<!-- Node9&#45;&gt;Node7 -->
<g id="edge9" class="edge"><title>Node9&#45;&gt;Node7</title>
<path fill="none" stroke="midnightblue" d="M1271.67,-26.8393C1280.52,-27.9113 1289.38,-28.985 1297.97,-30.0262"/>
<polygon fill="midnightblue" stroke="midnightblue" points="1272.06,-23.3604 1261.71,-25.6316 1271.22,-30.3095 1272.06,-23.3604"/>
</g>
</g>
</svg>
