<?xml version="1.0" encoding="UTF-8" standalone="no"?>
<!DOCTYPE svg PUBLIC "-//W3C//DTD SVG 1.1//EN"
 "http://www.w3.org/Graphics/SVG/1.1/DTD/svg11.dtd">
<!-- Generated by graphviz version 2.36.0 (20140111.2315)
 -->
<!-- Title: command.Command.Command Pages: 1 -->
<svg width="844pt" height="96pt"
 viewBox="0.00 0.00 844.00 96.00" xmlns="http://www.w3.org/2000/svg" xmlns:xlink="http://www.w3.org/1999/xlink">
<g id="graph0" class="graph" transform="scale(1 1) rotate(0) translate(4 92)">
<title>command.Command.Command</title>
<polygon fill="white" stroke="none" points="-4,4 -4,-92 840,-92 840,4 -4,4"/>
<!-- Node1 -->
<g id="node1" class="node"><title>Node1</title>
<polygon fill="#bfbfbf" stroke="black" points="0,-41.5 0,-60.5 172,-60.5 172,-41.5 0,-41.5"/>
<text text-anchor="middle" x="86" y="-48.5" font-family="Helvetica,sans-Serif" font-size="10.00">command.Command.Command</text>
</g>
<!-- Node2 -->
<g id="node2" class="node"><title>Node2</title>
<g id="a_node2"><a xlink:href="../../d7/d35/classcommand_1_1_command.html#a910d5e6b127de98cea429ca0a3a04cf3" target="_top" xlink:title="command.Command.createCommand\lValues">
<polygon fill="white" stroke="black" points="208.5,-58 208.5,-88 411.5,-88 411.5,-58 208.5,-58"/>
<text text-anchor="start" x="216.5" y="-76" font-family="Helvetica,sans-Serif" font-size="10.00">command.Command.createCommand</text>
<text text-anchor="middle" x="310" y="-65" font-family="Helvetica,sans-Serif" font-size="10.00">Values</text>
</a>
</g>
</g>
<!-- Node1&#45;&gt;Node2 -->
<g id="edge1" class="edge"><title>Node1&#45;&gt;Node2</title>
<path fill="none" stroke="midnightblue" d="M172.196,-59.4429C180.814,-60.2968 189.651,-61.1726 198.484,-62.048"/>
<polygon fill="midnightblue" stroke="midnightblue" points="198.147,-65.5316 208.443,-63.0349 198.837,-58.5657 198.147,-65.5316"/>
</g>
<!-- Node3 -->
<g id="node3" class="node"><title>Node3</title>
<g id="a_node3"><a xlink:href="../../d7/d35/classcommand_1_1_command.html#af452756139055289367f3449a20d8629" target="_top" xlink:title="command.Command.makeParameters">
<polygon fill="white" stroke="black" points="208,-19.5 208,-38.5 412,-38.5 412,-19.5 208,-19.5"/>
<text text-anchor="middle" x="310" y="-26.5" font-family="Helvetica,sans-Serif" font-size="10.00">command.Command.makeParameters</text>
</a>
</g>
</g>
<!-- Node1&#45;&gt;Node3 -->
<g id="edge2" class="edge"><title>Node1&#45;&gt;Node3</title>
<path fill="none" stroke="midnightblue" d="M172.196,-42.5571C182.192,-41.5665 192.484,-40.5467 202.722,-39.5321"/>
<polygon fill="midnightblue" stroke="midnightblue" points="203.323,-42.9898 212.929,-38.5206 202.632,-36.0239 203.323,-42.9898"/>
</g>
<!-- Node4 -->
<g id="node4" class="node"><title>Node4</title>
<g id="a_node4"><a xlink:href="../../d7/d35/classcommand_1_1_command.html#a7d884bb025a12aa876825a6ffd5cab07" target="_top" xlink:title="command.Command.addParam">
<polygon fill="white" stroke="black" points="448,-19.5 448,-38.5 618,-38.5 618,-19.5 448,-19.5"/>
<text text-anchor="middle" x="533" y="-26.5" font-family="Helvetica,sans-Serif" font-size="10.00">command.Command.addParam</text>
</a>
</g>
</g>
<!-- Node3&#45;&gt;Node4 -->
<g id="edge3" class="edge"><title>Node3&#45;&gt;Node4</title>
<path fill="none" stroke="midnightblue" d="M412.122,-29C420.606,-29 429.165,-29 437.595,-29"/>
<polygon fill="midnightblue" stroke="midnightblue" points="437.802,-32.5001 447.802,-29 437.802,-25.5001 437.802,-32.5001"/>
</g>
<!-- Node5 -->
<g id="node5" class="node"><title>Node5</title>
<g id="a_node5"><a xlink:href="../../d7/d35/classcommand_1_1_command.html#aac081da490ef373792fdfbf8e73bbd69" target="_top" xlink:title="command.Command.isVariable">
<polygon fill="white" stroke="black" points="661.5,-38.5 661.5,-57.5 828.5,-57.5 828.5,-38.5 661.5,-38.5"/>
<text text-anchor="middle" x="745" y="-45.5" font-family="Helvetica,sans-Serif" font-size="10.00">command.Command.isVariable</text>
</a>
</g>
</g>
<!-- Node4&#45;&gt;Node5 -->
<g id="edge4" class="edge"><title>Node4&#45;&gt;Node5</title>
<path fill="none" stroke="midnightblue" d="M618.205,-36.6185C629.126,-37.6066 640.359,-38.6229 651.406,-39.6225"/>
<polygon fill="midnightblue" stroke="midnightblue" points="651.21,-43.119 661.485,-40.5344 651.841,-36.1474 651.21,-43.119"/>
</g>
<!-- Node6 -->
<g id="node6" class="node"><title>Node6</title>
<g id="a_node6"><a xlink:href="../../d7/d35/classcommand_1_1_command.html#ac9104121cb402d05a6ac117df8b882f8" target="_top" xlink:title="command.Command.readVariable">
<polygon fill="white" stroke="black" points="654,-0.5 654,-19.5 836,-19.5 836,-0.5 654,-0.5"/>
<text text-anchor="middle" x="745" y="-7.5" font-family="Helvetica,sans-Serif" font-size="10.00">command.Command.readVariable</text>
</a>
</g>
</g>
<!-- Node4&#45;&gt;Node6 -->
<g id="edge5" class="edge"><title>Node4&#45;&gt;Node6</title>
<path fill="none" stroke="midnightblue" d="M618.205,-21.3815C626.653,-20.6171 635.287,-19.8359 643.878,-19.0586"/>
<polygon fill="midnightblue" stroke="midnightblue" points="644.286,-22.5362 653.93,-18.1492 643.655,-15.5646 644.286,-22.5362"/>
</g>
</g>
</svg>
