<?xml version="1.0" encoding="UTF-8" standalone="no"?>
<!DOCTYPE svg PUBLIC "-//W3C//DTD SVG 1.1//EN"
 "http://www.w3.org/Graphics/SVG/1.1/DTD/svg11.dtd">
<!-- Generated by graphviz version 2.36.0 (20140111.2315)
 -->
<!-- Title: command.Command.addParam Pages: 1 -->
<svg width="634pt" height="77pt"
 viewBox="0.00 0.00 634.00 77.00" xmlns="http://www.w3.org/2000/svg" xmlns:xlink="http://www.w3.org/1999/xlink">
<g id="graph0" class="graph" transform="scale(1 1) rotate(0) translate(4 73)">
<title>command.Command.addParam</title>
<polygon fill="white" stroke="none" points="-4,4 -4,-73 630,-73 630,4 -4,4"/>
<!-- Node1 -->
<g id="node1" class="node"><title>Node1</title>
<polygon fill="#bfbfbf" stroke="black" points="0,-22.5 0,-41.5 170,-41.5 170,-22.5 0,-22.5"/>
<text text-anchor="middle" x="85" y="-29.5" font-family="Helvetica,sans-Serif" font-size="10.00">command.Command.addParam</text>
</g>
<!-- Node2 -->
<g id="node2" class="node"><title>Node2</title>
<g id="a_node2"><a xlink:href="../../d4/d98/classcommand_1_1_make_variable_command.html#af3e7f5c596e039e2949dd2b4521af61b" target="_top" xlink:title="command.MakeVariableCommand.make\lParameters">
<polygon fill="white" stroke="black" points="206,-39 206,-69 418,-69 418,-39 206,-39"/>
<text text-anchor="start" x="214" y="-57" font-family="Helvetica,sans-Serif" font-size="10.00">command.MakeVariableCommand.make</text>
<text text-anchor="middle" x="312" y="-46" font-family="Helvetica,sans-Serif" font-size="10.00">Parameters</text>
</a>
</g>
</g>
<!-- Node1&#45;&gt;Node2 -->
<g id="edge1" class="edge"><title>Node1&#45;&gt;Node2</title>
<path fill="none" stroke="midnightblue" d="M180.263,-41.2169C188.661,-42.038 197.199,-42.8728 205.682,-43.7022"/>
<polygon fill="midnightblue" stroke="midnightblue" points="180.395,-37.7131 170.102,-40.2233 179.714,-44.6799 180.395,-37.7131"/>
</g>
<!-- Node3 -->
<g id="node3" class="node"><title>Node3</title>
<g id="a_node3"><a xlink:href="../../d7/d35/classcommand_1_1_command.html#af452756139055289367f3449a20d8629" target="_top" xlink:title="command.Command.makeParameters">
<polygon fill="white" stroke="black" points="210,-0.5 210,-19.5 414,-19.5 414,-0.5 210,-0.5"/>
<text text-anchor="middle" x="312" y="-7.5" font-family="Helvetica,sans-Serif" font-size="10.00">command.Command.makeParameters</text>
</a>
</g>
</g>
<!-- Node1&#45;&gt;Node3 -->
<g id="edge2" class="edge"><title>Node1&#45;&gt;Node3</title>
<path fill="none" stroke="midnightblue" d="M180.201,-22.7892C191.286,-21.7053 202.615,-20.5976 213.742,-19.5097"/>
<polygon fill="midnightblue" stroke="midnightblue" points="179.714,-19.3201 170.102,-23.7767 180.395,-26.2869 179.714,-19.3201"/>
</g>
<!-- Node4 -->
<g id="node4" class="node"><title>Node4</title>
<g id="a_node4"><a xlink:href="../../d7/d35/classcommand_1_1_command.html#a49b7d5a99b9a63b369547047bfb2850f" target="_top" xlink:title="command.Command.Command">
<polygon fill="white" stroke="black" points="454,-0.5 454,-19.5 626,-19.5 626,-0.5 454,-0.5"/>
<text text-anchor="middle" x="540" y="-7.5" font-family="Helvetica,sans-Serif" font-size="10.00">command.Command.Command</text>
</a>
</g>
</g>
<!-- Node3&#45;&gt;Node4 -->
<g id="edge3" class="edge"><title>Node3&#45;&gt;Node4</title>
<path fill="none" stroke="midnightblue" d="M424.405,-10C434.309,-10 444.231,-10 453.864,-10"/>
<polygon fill="midnightblue" stroke="midnightblue" points="424.102,-6.5001 414.102,-10 424.102,-13.5001 424.102,-6.5001"/>
</g>
</g>
</svg>
