<?xml version="1.0" encoding="UTF-8" standalone="no"?>
<!DOCTYPE svg PUBLIC "-//W3C//DTD SVG 1.1//EN"
 "http://www.w3.org/Graphics/SVG/1.1/DTD/svg11.dtd">
<!-- Generated by graphviz version 2.36.0 (20140111.2315)
 -->
<!-- Title: command.Command.run Pages: 1 -->
<svg width="1546pt" height="96pt"
 viewBox="0.00 0.00 1546.00 96.00" xmlns="http://www.w3.org/2000/svg" xmlns:xlink="http://www.w3.org/1999/xlink">
<g id="graph0" class="graph" transform="scale(1 1) rotate(0) translate(4 92)">
<title>command.Command.run</title>
<polygon fill="white" stroke="none" points="-4,4 -4,-92 1542,-92 1542,4 -4,4"/>
<!-- Node1 -->
<g id="node1" class="node"><title>Node1</title>
<polygon fill="#bfbfbf" stroke="black" points="0.5,-19.5 0.5,-38.5 137.5,-38.5 137.5,-19.5 0.5,-19.5"/>
<text text-anchor="middle" x="69" y="-26.5" font-family="Helvetica,sans-Serif" font-size="10.00">command.Command.run</text>
</g>
<!-- Node2 -->
<g id="node2" class="node"><title>Node2</title>
<g id="a_node2"><a xlink:href="../../df/dcb/classturtle_1_1_turtle.html#aa53d992fb81cd039a22a301af9b32aba" target="_top" xlink:title="turtle.Turtle.act">
<polygon fill="white" stroke="black" points="219.5,-38.5 219.5,-57.5 308.5,-57.5 308.5,-38.5 219.5,-38.5"/>
<text text-anchor="middle" x="264" y="-45.5" font-family="Helvetica,sans-Serif" font-size="10.00">turtle.Turtle.act</text>
</a>
</g>
</g>
<!-- Node1&#45;&gt;Node2 -->
<g id="edge1" class="edge"><title>Node1&#45;&gt;Node2</title>
<path fill="none" stroke="midnightblue" d="M147.506,-36.6301C171.985,-39.0399 198.161,-41.6169 219.394,-43.7072"/>
<polygon fill="midnightblue" stroke="midnightblue" points="147.797,-33.1419 137.502,-35.6453 147.111,-40.1082 147.797,-33.1419"/>
</g>
<!-- Node10 -->
<g id="node10" class="node"><title>Node10</title>
<g id="a_node10"><a xlink:href="../../d9/d1b/classcommand_1_1_command_factory.html#a29259fe3695c6c5ba28330705fe07a2f" target="_top" xlink:title="command.CommandFactory.main">
<polygon fill="white" stroke="black" points="174.5,-0.5 174.5,-19.5 353.5,-19.5 353.5,-0.5 174.5,-0.5"/>
<text text-anchor="middle" x="264" y="-7.5" font-family="Helvetica,sans-Serif" font-size="10.00">command.CommandFactory.main</text>
</a>
</g>
</g>
<!-- Node1&#45;&gt;Node10 -->
<g id="edge10" class="edge"><title>Node1&#45;&gt;Node10</title>
<path fill="none" stroke="midnightblue" d="M147.634,-21.3573C156.364,-20.4979 165.308,-19.6173 174.166,-18.7453"/>
<polygon fill="midnightblue" stroke="midnightblue" points="147.111,-17.8918 137.502,-22.3547 147.797,-24.8581 147.111,-17.8918"/>
</g>
<!-- Node3 -->
<g id="node3" class="node"><title>Node3</title>
<g id="a_node3"><a xlink:href="../../d9/dd0/classworld_1_1_world.html#ae370733f7784c42741a6ba66c7d2ecf5" target="_top" xlink:title="world.World.listen">
<polygon fill="white" stroke="black" points="390,-38.5 390,-57.5 488,-57.5 488,-38.5 390,-38.5"/>
<text text-anchor="middle" x="439" y="-45.5" font-family="Helvetica,sans-Serif" font-size="10.00">world.World.listen</text>
</a>
</g>
</g>
<!-- Node2&#45;&gt;Node3 -->
<g id="edge2" class="edge"><title>Node2&#45;&gt;Node3</title>
<path fill="none" stroke="midnightblue" d="M318.809,-48C341.508,-48 367.729,-48 389.788,-48"/>
<polygon fill="midnightblue" stroke="midnightblue" points="318.655,-44.5001 308.655,-48 318.655,-51.5001 318.655,-44.5001"/>
</g>
<!-- Node4 -->
<g id="node4" class="node"><title>Node4</title>
<g id="a_node4"><a xlink:href="../../d8/d08/classworld_controller_1_1_world_controller.html#a178425d68e3e669c386706153ce44999" target="_top" xlink:title="worldController.WorldController.update">
<polygon fill="white" stroke="black" points="524,-38.5 524,-57.5 722,-57.5 722,-38.5 524,-38.5"/>
<text text-anchor="middle" x="623" y="-45.5" font-family="Helvetica,sans-Serif" font-size="10.00">worldController.WorldController.update</text>
</a>
</g>
</g>
<!-- Node3&#45;&gt;Node4 -->
<g id="edge3" class="edge"><title>Node3&#45;&gt;Node4</title>
<path fill="none" stroke="midnightblue" d="M498.407,-48C506.579,-48 515.156,-48 523.82,-48"/>
<polygon fill="midnightblue" stroke="midnightblue" points="498.295,-44.5001 488.295,-48 498.295,-51.5001 498.295,-44.5001"/>
</g>
<!-- Node5 -->
<g id="node5" class="node"><title>Node5</title>
<g id="a_node5"><a xlink:href="../../dd/d8e/classuser_interface_1_1_user_interface.html#a95e324c85888faea808be269e44ed5b8" target="_top" xlink:title="userInterface.UserInterface.run\lCommand">
<polygon fill="white" stroke="black" points="758,-33 758,-63 924,-63 924,-33 758,-33"/>
<text text-anchor="start" x="766" y="-51" font-family="Helvetica,sans-Serif" font-size="10.00">userInterface.UserInterface.run</text>
<text text-anchor="middle" x="841" y="-40" font-family="Helvetica,sans-Serif" font-size="10.00">Command</text>
</a>
</g>
</g>
<!-- Node4&#45;&gt;Node5 -->
<g id="edge4" class="edge"><title>Node4&#45;&gt;Node5</title>
<path fill="none" stroke="midnightblue" d="M732.29,-48C740.892,-48 749.492,-48 757.871,-48"/>
<polygon fill="midnightblue" stroke="midnightblue" points="732.203,-44.5001 722.203,-48 732.203,-51.5001 732.203,-44.5001"/>
</g>
<!-- Node6 -->
<g id="node6" class="node"><title>Node6</title>
<g id="a_node6"><a xlink:href="../../dd/d8e/classuser_interface_1_1_user_interface.html#a560c36977fddeee87002333870c54ed6" target="_top" xlink:title="userInterface.UserInterface.set\lUpResponses">
<polygon fill="white" stroke="black" points="1180.5,-58 1180.5,-88 1345.5,-88 1345.5,-58 1180.5,-58"/>
<text text-anchor="start" x="1188.5" y="-76" font-family="Helvetica,sans-Serif" font-size="10.00">userInterface.UserInterface.set</text>
<text text-anchor="middle" x="1263" y="-65" font-family="Helvetica,sans-Serif" font-size="10.00">UpResponses</text>
</a>
</g>
</g>
<!-- Node5&#45;&gt;Node6 -->
<g id="edge5" class="edge"><title>Node5&#45;&gt;Node6</title>
<path fill="none" stroke="midnightblue" d="M934.405,-53.5003C1007.91,-57.8757 1109.79,-63.9396 1180.33,-68.1386"/>
<polygon fill="midnightblue" stroke="midnightblue" points="934.418,-49.9949 924.227,-52.8945 934.002,-56.9826 934.418,-49.9949"/>
</g>
<!-- Node8 -->
<g id="node8" class="node"><title>Node8</title>
<g id="a_node8"><a xlink:href="../../dd/d8e/classuser_interface_1_1_user_interface.html#a4316649a1f81fcc1dcaf93c812bf6f3a" target="_top" xlink:title="userInterface.UserInterface.make\lRunButton">
<polygon fill="white" stroke="black" points="960.5,-11 960.5,-41 1137.5,-41 1137.5,-11 960.5,-11"/>
<text text-anchor="start" x="968.5" y="-29" font-family="Helvetica,sans-Serif" font-size="10.00">userInterface.UserInterface.make</text>
<text text-anchor="middle" x="1049" y="-18" font-family="Helvetica,sans-Serif" font-size="10.00">RunButton</text>
</a>
</g>
</g>
<!-- Node5&#45;&gt;Node8 -->
<g id="edge7" class="edge"><title>Node5&#45;&gt;Node8</title>
<path fill="none" stroke="midnightblue" d="M934.121,-38.1618C942.789,-37.2361 951.561,-36.2994 960.187,-35.3781"/>
<polygon fill="midnightblue" stroke="midnightblue" points="933.58,-34.6996 924.009,-39.2418 934.324,-41.66 933.58,-34.6996"/>
</g>
<!-- Node7 -->
<g id="node7" class="node"><title>Node7</title>
<g id="a_node7"><a xlink:href="../../dd/d8e/classuser_interface_1_1_user_interface.html#af296b064499e62c4fbfbf73da6456532" target="_top" xlink:title="userInterface.UserInterface.\lUserInterface">
<polygon fill="white" stroke="black" points="1388,-33 1388,-63 1538,-63 1538,-33 1388,-33"/>
<text text-anchor="start" x="1396" y="-51" font-family="Helvetica,sans-Serif" font-size="10.00">userInterface.UserInterface.</text>
<text text-anchor="middle" x="1463" y="-40" font-family="Helvetica,sans-Serif" font-size="10.00">UserInterface</text>
</a>
</g>
</g>
<!-- Node6&#45;&gt;Node7 -->
<g id="edge6" class="edge"><title>Node6&#45;&gt;Node7</title>
<path fill="none" stroke="midnightblue" d="M1355.88,-61.3986C1366.58,-60.0478 1377.39,-58.683 1387.81,-57.3677"/>
<polygon fill="midnightblue" stroke="midnightblue" points="1355.16,-57.962 1345.68,-62.6872 1356.04,-64.9069 1355.16,-57.962"/>
</g>
<!-- Node9 -->
<g id="node9" class="node"><title>Node9</title>
<g id="a_node9"><a xlink:href="../../dd/d8e/classuser_interface_1_1_user_interface.html#a6d39ee7d7ae35fc0539bb714bce6221a" target="_top" xlink:title="userInterface.UserInterface.make\lFunctionButtons">
<polygon fill="white" stroke="black" points="1174.5,-9 1174.5,-39 1351.5,-39 1351.5,-9 1174.5,-9"/>
<text text-anchor="start" x="1182.5" y="-27" font-family="Helvetica,sans-Serif" font-size="10.00">userInterface.UserInterface.make</text>
<text text-anchor="middle" x="1263" y="-16" font-family="Helvetica,sans-Serif" font-size="10.00">FunctionButtons</text>
</a>
</g>
</g>
<!-- Node8&#45;&gt;Node9 -->
<g id="edge8" class="edge"><title>Node8&#45;&gt;Node9</title>
<path fill="none" stroke="midnightblue" d="M1148.01,-25.0754C1156.78,-24.9926 1165.63,-24.9092 1174.31,-24.8273"/>
<polygon fill="midnightblue" stroke="midnightblue" points="1147.73,-21.5778 1137.76,-25.1721 1147.79,-28.5775 1147.73,-21.5778"/>
</g>
<!-- Node9&#45;&gt;Node7 -->
<g id="edge9" class="edge"><title>Node9&#45;&gt;Node7</title>
<path fill="none" stroke="midnightblue" d="M1361.67,-35.8393C1370.52,-36.9113 1379.38,-37.985 1387.97,-39.0262"/>
<polygon fill="midnightblue" stroke="midnightblue" points="1362.06,-32.3604 1351.71,-34.6316 1361.22,-39.3095 1362.06,-32.3604"/>
</g>
</g>
</svg>
