<?xml version="1.0" encoding="UTF-8" standalone="no"?>
<!DOCTYPE svg PUBLIC "-//W3C//DTD SVG 1.1//EN"
 "http://www.w3.org/Graphics/SVG/1.1/DTD/svg11.dtd">
<!-- Generated by graphviz version 2.36.0 (20140111.2315)
 -->
<!-- Title: command.Command.isVariable Pages: 1 -->
<svg width="838pt" height="77pt"
 viewBox="0.00 0.00 838.00 77.00" xmlns="http://www.w3.org/2000/svg" xmlns:xlink="http://www.w3.org/1999/xlink">
<g id="graph0" class="graph" transform="scale(1 1) rotate(0) translate(4 73)">
<title>command.Command.isVariable</title>
<polygon fill="white" stroke="none" points="-4,4 -4,-73 834,-73 834,4 -4,4"/>
<!-- Node1 -->
<g id="node1" class="node"><title>Node1</title>
<polygon fill="#bfbfbf" stroke="black" points="0.5,-22.5 0.5,-41.5 167.5,-41.5 167.5,-22.5 0.5,-22.5"/>
<text text-anchor="middle" x="84" y="-29.5" font-family="Helvetica,sans-Serif" font-size="10.00">command.Command.isVariable</text>
</g>
<!-- Node2 -->
<g id="node2" class="node"><title>Node2</title>
<g id="a_node2"><a xlink:href="../../d7/d35/classcommand_1_1_command.html#a7d884bb025a12aa876825a6ffd5cab07" target="_top" xlink:title="command.Command.addParam">
<polygon fill="white" stroke="black" points="204,-22.5 204,-41.5 374,-41.5 374,-22.5 204,-22.5"/>
<text text-anchor="middle" x="289" y="-29.5" font-family="Helvetica,sans-Serif" font-size="10.00">command.Command.addParam</text>
</a>
</g>
</g>
<!-- Node1&#45;&gt;Node2 -->
<g id="edge1" class="edge"><title>Node1&#45;&gt;Node2</title>
<path fill="none" stroke="midnightblue" d="M177.734,-32C186.441,-32 195.235,-32 203.857,-32"/>
<polygon fill="midnightblue" stroke="midnightblue" points="177.568,-28.5001 167.568,-32 177.568,-35.5001 177.568,-28.5001"/>
</g>
<!-- Node3 -->
<g id="node3" class="node"><title>Node3</title>
<g id="a_node3"><a xlink:href="../../d4/d98/classcommand_1_1_make_variable_command.html#af3e7f5c596e039e2949dd2b4521af61b" target="_top" xlink:title="command.MakeVariableCommand.make\lParameters">
<polygon fill="white" stroke="black" points="410,-39 410,-69 622,-69 622,-39 410,-39"/>
<text text-anchor="start" x="418" y="-57" font-family="Helvetica,sans-Serif" font-size="10.00">command.MakeVariableCommand.make</text>
<text text-anchor="middle" x="516" y="-46" font-family="Helvetica,sans-Serif" font-size="10.00">Parameters</text>
</a>
</g>
</g>
<!-- Node2&#45;&gt;Node3 -->
<g id="edge2" class="edge"><title>Node2&#45;&gt;Node3</title>
<path fill="none" stroke="midnightblue" d="M384.263,-41.2169C392.661,-42.038 401.199,-42.8728 409.682,-43.7022"/>
<polygon fill="midnightblue" stroke="midnightblue" points="384.395,-37.7131 374.102,-40.2233 383.714,-44.6799 384.395,-37.7131"/>
</g>
<!-- Node4 -->
<g id="node4" class="node"><title>Node4</title>
<g id="a_node4"><a xlink:href="../../d7/d35/classcommand_1_1_command.html#af452756139055289367f3449a20d8629" target="_top" xlink:title="command.Command.makeParameters">
<polygon fill="white" stroke="black" points="414,-0.5 414,-19.5 618,-19.5 618,-0.5 414,-0.5"/>
<text text-anchor="middle" x="516" y="-7.5" font-family="Helvetica,sans-Serif" font-size="10.00">command.Command.makeParameters</text>
</a>
</g>
</g>
<!-- Node2&#45;&gt;Node4 -->
<g id="edge3" class="edge"><title>Node2&#45;&gt;Node4</title>
<path fill="none" stroke="midnightblue" d="M384.201,-22.7892C395.286,-21.7053 406.615,-20.5976 417.742,-19.5097"/>
<polygon fill="midnightblue" stroke="midnightblue" points="383.714,-19.3201 374.102,-23.7767 384.395,-26.2869 383.714,-19.3201"/>
</g>
<!-- Node5 -->
<g id="node5" class="node"><title>Node5</title>
<g id="a_node5"><a xlink:href="../../d7/d35/classcommand_1_1_command.html#a49b7d5a99b9a63b369547047bfb2850f" target="_top" xlink:title="command.Command.Command">
<polygon fill="white" stroke="black" points="658,-0.5 658,-19.5 830,-19.5 830,-0.5 658,-0.5"/>
<text text-anchor="middle" x="744" y="-7.5" font-family="Helvetica,sans-Serif" font-size="10.00">command.Command.Command</text>
</a>
</g>
</g>
<!-- Node4&#45;&gt;Node5 -->
<g id="edge4" class="edge"><title>Node4&#45;&gt;Node5</title>
<path fill="none" stroke="midnightblue" d="M628.405,-10C638.309,-10 648.231,-10 657.864,-10"/>
<polygon fill="midnightblue" stroke="midnightblue" points="628.102,-6.5001 618.102,-10 628.102,-13.5001 628.102,-6.5001"/>
</g>
</g>
</svg>
