<?xml version="1.0" encoding="UTF-8" standalone="no"?>
<!DOCTYPE svg PUBLIC "-//W3C//DTD SVG 1.1//EN"
 "http://www.w3.org/Graphics/SVG/1.1/DTD/svg11.dtd">
<!-- Generated by graphviz version 2.36.0 (20140111.2315)
 -->
<!-- Title: command.Command.makeParameters Pages: 1 -->
<svg width="636pt" height="66pt"
 viewBox="0.00 0.00 636.00 66.00" xmlns="http://www.w3.org/2000/svg" xmlns:xlink="http://www.w3.org/1999/xlink">
<g id="graph0" class="graph" transform="scale(1 1) rotate(0) translate(4 62)">
<title>command.Command.makeParameters</title>
<polygon fill="white" stroke="none" points="-4,4 -4,-62 632,-62 632,4 -4,4"/>
<!-- Node1 -->
<g id="node1" class="node"><title>Node1</title>
<polygon fill="#bfbfbf" stroke="black" points="0,-19.5 0,-38.5 204,-38.5 204,-19.5 0,-19.5"/>
<text text-anchor="middle" x="102" y="-26.5" font-family="Helvetica,sans-Serif" font-size="10.00">command.Command.makeParameters</text>
</g>
<!-- Node2 -->
<g id="node2" class="node"><title>Node2</title>
<g id="a_node2"><a xlink:href="../../d7/d35/classcommand_1_1_command.html#a7d884bb025a12aa876825a6ffd5cab07" target="_top" xlink:title="command.Command.addParam">
<polygon fill="white" stroke="black" points="240,-19.5 240,-38.5 410,-38.5 410,-19.5 240,-19.5"/>
<text text-anchor="middle" x="325" y="-26.5" font-family="Helvetica,sans-Serif" font-size="10.00">command.Command.addParam</text>
</a>
</g>
</g>
<!-- Node1&#45;&gt;Node2 -->
<g id="edge1" class="edge"><title>Node1&#45;&gt;Node2</title>
<path fill="none" stroke="midnightblue" d="M204.122,-29C212.606,-29 221.165,-29 229.595,-29"/>
<polygon fill="midnightblue" stroke="midnightblue" points="229.802,-32.5001 239.802,-29 229.802,-25.5001 229.802,-32.5001"/>
</g>
<!-- Node3 -->
<g id="node3" class="node"><title>Node3</title>
<g id="a_node3"><a xlink:href="../../d7/d35/classcommand_1_1_command.html#aac081da490ef373792fdfbf8e73bbd69" target="_top" xlink:title="command.Command.isVariable">
<polygon fill="white" stroke="black" points="453.5,-38.5 453.5,-57.5 620.5,-57.5 620.5,-38.5 453.5,-38.5"/>
<text text-anchor="middle" x="537" y="-45.5" font-family="Helvetica,sans-Serif" font-size="10.00">command.Command.isVariable</text>
</a>
</g>
</g>
<!-- Node2&#45;&gt;Node3 -->
<g id="edge2" class="edge"><title>Node2&#45;&gt;Node3</title>
<path fill="none" stroke="midnightblue" d="M410.205,-36.6185C421.126,-37.6066 432.359,-38.6229 443.406,-39.6225"/>
<polygon fill="midnightblue" stroke="midnightblue" points="443.21,-43.119 453.485,-40.5344 443.841,-36.1474 443.21,-43.119"/>
</g>
<!-- Node4 -->
<g id="node4" class="node"><title>Node4</title>
<g id="a_node4"><a xlink:href="../../d7/d35/classcommand_1_1_command.html#ac9104121cb402d05a6ac117df8b882f8" target="_top" xlink:title="command.Command.readVariable">
<polygon fill="white" stroke="black" points="446,-0.5 446,-19.5 628,-19.5 628,-0.5 446,-0.5"/>
<text text-anchor="middle" x="537" y="-7.5" font-family="Helvetica,sans-Serif" font-size="10.00">command.Command.readVariable</text>
</a>
</g>
</g>
<!-- Node2&#45;&gt;Node4 -->
<g id="edge3" class="edge"><title>Node2&#45;&gt;Node4</title>
<path fill="none" stroke="midnightblue" d="M410.205,-21.3815C418.653,-20.6171 427.287,-19.8359 435.878,-19.0586"/>
<polygon fill="midnightblue" stroke="midnightblue" points="436.286,-22.5362 445.93,-18.1492 435.655,-15.5646 436.286,-22.5362"/>
</g>
</g>
</svg>
