<?xml version="1.0" encoding="UTF-8" standalone="no"?>
<!DOCTYPE svg PUBLIC "-//W3C//DTD SVG 1.1//EN"
 "http://www.w3.org/Graphics/SVG/1.1/DTD/svg11.dtd">
<!-- Generated by graphviz version 2.36.0 (20140111.2315)
 -->
<!-- Title: command.Command.Command Pages: 1 -->
<!--zoomable 96 -->
<svg id="main" version="1.1" xmlns="http://www.w3.org/2000/svg" xmlns:xlink="http://www.w3.org/1999/xlink" xml:space="preserve" onload="init(evt)">
<style type="text/css"><![CDATA[
.edge:hover path { stroke: red; }
.edge:hover polygon { stroke: red; fill: red; }
]]></style>
<script type="text/javascript"><![CDATA[
var edges = document.getElementsByTagName('g');
if (edges && edges.length) {
  for (var i=0;i<edges.length;i++) {
    if (edges[i].id.substr(0,4)=='edge') {
      edges[i].setAttribute('class','edge');
    }
  }
}
]]></script>
        <defs>
                <circle id="rim" cx="0" cy="0" r="7"/>
                <circle id="rim2" cx="0" cy="0" r="3.5"/>
                <g id="zoomPlus">
                        <use xlink:href="#rim" fill="#404040">
                                <set attributeName="fill" to="#808080" begin="zoomplus.mouseover" end="zoomplus.mouseout"/>
                        </use>
                        <path d="M-4,0h8M0,-4v8" fill="none" stroke="white" stroke-width="1.5" pointer-events="none"/>
                </g>
                <g id="zoomMin">
                        <use xlink:href="#rim" fill="#404040">
                                <set attributeName="fill" to="#808080" begin="zoomminus.mouseover" end="zoomminus.mouseout"/>
                        </use>
                        <path d="M-4,0h8" fill="none" stroke="white" stroke-width="1.5" pointer-events="none"/>
                </g>
                <g id="dirArrow">
                        <path fill="none" stroke="white" stroke-width="1.5" d="M0,-3.0v7 M-2.5,-0.5L0,-3.0L2.5,-0.5"/>
                </g>
               <g id="resetDef">
                       <use xlink:href="#rim2" fill="#404040">
                               <set attributeName="fill" to="#808080" begin="reset.mouseover" end="reset.mouseout"/>
                       </use>
               </g>
        </defs>

<script type="text/javascript">
var viewWidth = 860;
var viewHeight = 96;
var sectionId = 'dynsection-2';
</script>
<script xlink:href="../../svgpan.js"/>
<svg id="graph" class="graph">
<g id="viewport">
<title>command.Command.Command</title>
<polygon fill="white" stroke="none" points="-4,4 -4,-92 856,-92 856,4 -4,4"/>
<!-- Node1 -->
<g id="node1" class="node"><title>Node1</title>
<polygon fill="#bfbfbf" stroke="black" points="0,-41.5 0,-60.5 172,-60.5 172,-41.5 0,-41.5"/>
<text text-anchor="middle" x="86" y="-48.5" font-family="Helvetica,sans-Serif" font-size="10.00">command.Command.Command</text>
</g>
<!-- Node2 -->
<g id="node2" class="node"><title>Node2</title>
<g id="a_node2"><a xlink:href="../../d7/d35/classcommand_1_1_command.html#a910d5e6b127de98cea429ca0a3a04cf3" target="_top" xlink:title="command.Command.createCommand\lValues">
<polygon fill="white" stroke="black" points="208.5,-58 208.5,-88 411.5,-88 411.5,-58 208.5,-58"/>
<text text-anchor="start" x="216.5" y="-76" font-family="Helvetica,sans-Serif" font-size="10.00">command.Command.createCommand</text>
<text text-anchor="middle" x="310" y="-65" font-family="Helvetica,sans-Serif" font-size="10.00">Values</text>
</a>
</g>
</g>
<!-- Node1&#45;&gt;Node2 -->
<g id="edge1" class="edge"><title>Node1&#45;&gt;Node2</title>
<path fill="none" stroke="midnightblue" d="M172.196,-59.4429C180.814,-60.2968 189.651,-61.1726 198.484,-62.048"/>
<polygon fill="midnightblue" stroke="midnightblue" points="198.147,-65.5316 208.443,-63.0349 198.837,-58.5657 198.147,-65.5316"/>
</g>
<!-- Node3 -->
<g id="node3" class="node"><title>Node3</title>
<g id="a_node3"><a xlink:href="../../d7/d35/classcommand_1_1_command.html#af452756139055289367f3449a20d8629" target="_top" xlink:title="command.Command.makeParameters">
<polygon fill="white" stroke="black" points="208,-19.5 208,-38.5 412,-38.5 412,-19.5 208,-19.5"/>
<text text-anchor="middle" x="310" y="-26.5" font-family="Helvetica,sans-Serif" font-size="10.00">command.Command.makeParameters</text>
</a>
</g>
</g>
<!-- Node1&#45;&gt;Node3 -->
<g id="edge2" class="edge"><title>Node1&#45;&gt;Node3</title>
<path fill="none" stroke="midnightblue" d="M172.196,-42.5571C182.192,-41.5665 192.484,-40.5467 202.722,-39.5321"/>
<polygon fill="midnightblue" stroke="midnightblue" points="203.323,-42.9898 212.929,-38.5206 202.632,-36.0239 203.323,-42.9898"/>
</g>
<!-- Node4 -->
<g id="node4" class="node"><title>Node4</title>
<g id="a_node4"><a xlink:href="../../d7/d35/classcommand_1_1_command.html#a7d884bb025a12aa876825a6ffd5cab07" target="_top" xlink:title="command.Command.addParam">
<polygon fill="white" stroke="black" points="456,-38.5 456,-57.5 626,-57.5 626,-38.5 456,-38.5"/>
<text text-anchor="middle" x="541" y="-45.5" font-family="Helvetica,sans-Serif" font-size="10.00">command.Command.addParam</text>
</a>
</g>
</g>
<!-- Node3&#45;&gt;Node4 -->
<g id="edge3" class="edge"><title>Node3&#45;&gt;Node4</title>
<path fill="none" stroke="midnightblue" d="M412.109,-37.389C423.301,-38.3175 434.666,-39.2605 445.768,-40.1816"/>
<polygon fill="midnightblue" stroke="midnightblue" points="445.622,-43.6814 455.877,-41.0204 446.201,-36.7054 445.622,-43.6814"/>
</g>
<!-- Node7 -->
<g id="node7" class="node"><title>Node7</title>
<g id="a_node7"><a xlink:href="../../d7/d35/classcommand_1_1_command.html#a4028748e1f92fe68c8bd2a4728259a59" target="_top" xlink:title="command.Command.checkParams">
<polygon fill="white" stroke="black" points="448.5,-0.5 448.5,-19.5 633.5,-19.5 633.5,-0.5 448.5,-0.5"/>
<text text-anchor="middle" x="541" y="-7.5" font-family="Helvetica,sans-Serif" font-size="10.00">command.Command.checkParams</text>
</a>
</g>
</g>
<!-- Node3&#45;&gt;Node7 -->
<g id="edge6" class="edge"><title>Node3&#45;&gt;Node7</title>
<path fill="none" stroke="midnightblue" d="M412.109,-20.611C420.807,-19.8894 429.61,-19.159 438.312,-18.437"/>
<polygon fill="midnightblue" stroke="midnightblue" points="438.794,-21.9092 448.47,-17.5942 438.215,-14.9331 438.794,-21.9092"/>
</g>
<!-- Node5 -->
<g id="node5" class="node"><title>Node5</title>
<g id="a_node5"><a xlink:href="../../d7/d35/classcommand_1_1_command.html#aac081da490ef373792fdfbf8e73bbd69" target="_top" xlink:title="command.Command.isVariable">
<polygon fill="white" stroke="black" points="677.5,-57.5 677.5,-76.5 844.5,-76.5 844.5,-57.5 677.5,-57.5"/>
<text text-anchor="middle" x="761" y="-64.5" font-family="Helvetica,sans-Serif" font-size="10.00">command.Command.isVariable</text>
</a>
</g>
</g>
<!-- Node4&#45;&gt;Node5 -->
<g id="edge4" class="edge"><title>Node4&#45;&gt;Node5</title>
<path fill="none" stroke="midnightblue" d="M626.284,-55.3459C639.651,-56.5109 653.542,-57.7215 667.093,-58.9026"/>
<polygon fill="midnightblue" stroke="midnightblue" points="667.109,-62.4171 677.375,-59.7987 667.716,-55.4436 667.109,-62.4171"/>
</g>
<!-- Node6 -->
<g id="node6" class="node"><title>Node6</title>
<g id="a_node6"><a xlink:href="../../d7/d35/classcommand_1_1_command.html#ac9104121cb402d05a6ac117df8b882f8" target="_top" xlink:title="command.Command.readVariable">
<polygon fill="white" stroke="black" points="670,-19.5 670,-38.5 852,-38.5 852,-19.5 670,-19.5"/>
<text text-anchor="middle" x="761" y="-26.5" font-family="Helvetica,sans-Serif" font-size="10.00">command.Command.readVariable</text>
</a>
</g>
</g>
<!-- Node4&#45;&gt;Node6 -->
<g id="edge5" class="edge"><title>Node4&#45;&gt;Node6</title>
<path fill="none" stroke="midnightblue" d="M626.284,-40.6541C637.201,-39.7027 648.466,-38.7208 659.611,-37.7495"/>
<polygon fill="midnightblue" stroke="midnightblue" points="660.14,-41.2168 669.798,-36.8616 659.532,-34.2432 660.14,-41.2168"/>
</g>
</g>
</svg>
        <g id="navigator" transform="translate(0 0)" fill="#404254">
                <rect fill="#f2f5e9" fill-opacity="0.5" stroke="#606060" stroke-width=".5" x="0" y="0" width="60" height="60"/>
                <use id="zoomplus" xlink:href="#zoomPlus" x="17" y="9" onmousedown="handleZoom(evt,'in')"/>
                <use id="zoomminus" xlink:href="#zoomMin" x="42" y="9" onmousedown="handleZoom(evt,'out')"/>
                <use id="reset" xlink:href="#resetDef" x="30" y="36" onmousedown="handleReset()"/>
                <g id="arrowUp" xlink:href="#dirArrow" transform="translate(30 24)" onmousedown="handlePan(0,-1)">
                  <use xlink:href="#rim" fill="#404040">
                        <set attributeName="fill" to="#808080" begin="arrowUp.mouseover" end="arrowUp.mouseout"/>
                  </use>
                  <path fill="none" stroke="white" stroke-width="1.5" d="M0,-3.0v7 M-2.5,-0.5L0,-3.0L2.5,-0.5"/>
                </g>
                <g id="arrowRight" xlink:href="#dirArrow" transform="rotate(90) translate(36 -43)" onmousedown="handlePan(1,0)">
                  <use xlink:href="#rim" fill="#404040">
                        <set attributeName="fill" to="#808080" begin="arrowRight.mouseover" end="arrowRight.mouseout"/>
                  </use>
                  <path fill="none" stroke="white" stroke-width="1.5" d="M0,-3.0v7 M-2.5,-0.5L0,-3.0L2.5,-0.5"/>
                </g>
                <g id="arrowDown" xlink:href="#dirArrow" transform="rotate(180) translate(-30 -48)" onmousedown="handlePan(0,1)">
                  <use xlink:href="#rim" fill="#404040">
                        <set attributeName="fill" to="#808080" begin="arrowDown.mouseover" end="arrowDown.mouseout"/>
                  </use>
                  <path fill="none" stroke="white" stroke-width="1.5" d="M0,-3.0v7 M-2.5,-0.5L0,-3.0L2.5,-0.5"/>
                </g>
                <g id="arrowLeft" xlink:href="#dirArrow" transform="rotate(270) translate(-36 17)" onmousedown="handlePan(-1,0)">
                  <use xlink:href="#rim" fill="#404040">
                        <set attributeName="fill" to="#808080" begin="arrowLeft.mouseover" end="arrowLeft.mouseout"/>
                  </use>
                  <path fill="none" stroke="white" stroke-width="1.5" d="M0,-3.0v7 M-2.5,-0.5L0,-3.0L2.5,-0.5"/>
                </g>
        </g>
        <svg viewBox="0 0 15 15" width="100%" height="30px" preserveAspectRatio="xMaxYMin meet">
         <g id="arrow_out" transform="scale(0.3 0.3)">
          <a xlink:href="classcommand_1_1_command_a9a6e06dc23a87f6df0e1aea0f1cb14ef_cgraph_org.svg" target="_base">
           <rect id="button" ry="5" rx="5" y="6" x="6" height="38" width="38"
                fill="#f2f5e9" fill-opacity="0.5" stroke="#606060" stroke-width="1.0"/>
           <path id="arrow"
             d="M 11.500037,31.436501 C 11.940474,20.09759 22.043105,11.32322 32.158766,21.979434 L 37.068811,17.246167 C 37.068811,17.246167 37.088388,32 37.088388,32 L 22.160133,31.978069 C 22.160133,31.978069 26.997745,27.140456 26.997745,27.140456 C 18.528582,18.264221 13.291696,25.230495 11.500037,31.436501 z"
             style="fill:#404040;"/>
          </a>
         </g>
        </svg>
</svg>
