<?xml version="1.0" encoding="UTF-8" standalone="no"?>
<!DOCTYPE svg PUBLIC "-//W3C//DTD SVG 1.1//EN"
 "http://www.w3.org/Graphics/SVG/1.1/DTD/svg11.dtd">
<!-- Generated by graphviz version 2.36.0 (20140111.2315)
 -->
<!-- Title: command.Command.addParam Pages: 1 -->
<svg width="396pt" height="66pt"
 viewBox="0.00 0.00 396.00 66.00" xmlns="http://www.w3.org/2000/svg" xmlns:xlink="http://www.w3.org/1999/xlink">
<g id="graph0" class="graph" transform="scale(1 1) rotate(0) translate(4 62)">
<title>command.Command.addParam</title>
<polygon fill="white" stroke="none" points="-4,4 -4,-62 392,-62 392,4 -4,4"/>
<!-- Node1 -->
<g id="node1" class="node"><title>Node1</title>
<polygon fill="#bfbfbf" stroke="black" points="0,-19.5 0,-38.5 170,-38.5 170,-19.5 0,-19.5"/>
<text text-anchor="middle" x="85" y="-26.5" font-family="Helvetica,sans-Serif" font-size="10.00">command.Command.addParam</text>
</g>
<!-- Node2 -->
<g id="node2" class="node"><title>Node2</title>
<g id="a_node2"><a xlink:href="../../d7/d35/classcommand_1_1_command.html#aac081da490ef373792fdfbf8e73bbd69" target="_top" xlink:title="command.Command.isVariable">
<polygon fill="white" stroke="black" points="213.5,-38.5 213.5,-57.5 380.5,-57.5 380.5,-38.5 213.5,-38.5"/>
<text text-anchor="middle" x="297" y="-45.5" font-family="Helvetica,sans-Serif" font-size="10.00">command.Command.isVariable</text>
</a>
</g>
</g>
<!-- Node1&#45;&gt;Node2 -->
<g id="edge1" class="edge"><title>Node1&#45;&gt;Node2</title>
<path fill="none" stroke="midnightblue" d="M170.205,-36.6185C181.126,-37.6066 192.359,-38.6229 203.406,-39.6225"/>
<polygon fill="midnightblue" stroke="midnightblue" points="203.21,-43.119 213.485,-40.5344 203.841,-36.1474 203.21,-43.119"/>
</g>
<!-- Node3 -->
<g id="node3" class="node"><title>Node3</title>
<g id="a_node3"><a xlink:href="../../d7/d35/classcommand_1_1_command.html#ac9104121cb402d05a6ac117df8b882f8" target="_top" xlink:title="command.Command.readVariable">
<polygon fill="white" stroke="black" points="206,-0.5 206,-19.5 388,-19.5 388,-0.5 206,-0.5"/>
<text text-anchor="middle" x="297" y="-7.5" font-family="Helvetica,sans-Serif" font-size="10.00">command.Command.readVariable</text>
</a>
</g>
</g>
<!-- Node1&#45;&gt;Node3 -->
<g id="edge2" class="edge"><title>Node1&#45;&gt;Node3</title>
<path fill="none" stroke="midnightblue" d="M170.205,-21.3815C178.653,-20.6171 187.287,-19.8359 195.878,-19.0586"/>
<polygon fill="midnightblue" stroke="midnightblue" points="196.286,-22.5362 205.93,-18.1492 195.655,-15.5646 196.286,-22.5362"/>
</g>
</g>
</svg>
