<?xml version="1.0" encoding="UTF-8" standalone="no"?>
<!DOCTYPE svg PUBLIC "-//W3C//DTD SVG 1.1//EN"
 "http://www.w3.org/Graphics/SVG/1.1/DTD/svg11.dtd">
<!-- Generated by graphviz version 2.36.0 (20140111.2315)
 -->
<!-- Title: command.Command.doCommand Pages: 1 -->
<svg width="492pt" height="28pt"
 viewBox="0.00 0.00 492.00 28.00" xmlns="http://www.w3.org/2000/svg" xmlns:xlink="http://www.w3.org/1999/xlink">
<g id="graph0" class="graph" transform="scale(1 1) rotate(0) translate(4 24)">
<title>command.Command.doCommand</title>
<polygon fill="white" stroke="none" points="-4,4 -4,-24 488,-24 488,4 -4,4"/>
<!-- Node1 -->
<g id="node1" class="node"><title>Node1</title>
<polygon fill="#bfbfbf" stroke="black" points="0,-0.5 0,-19.5 184,-19.5 184,-0.5 0,-0.5"/>
<text text-anchor="middle" x="92" y="-7.5" font-family="Helvetica,sans-Serif" font-size="10.00">command.Command.doCommand</text>
</g>
<!-- Node2 -->
<g id="node2" class="node"><title>Node2</title>
<g id="a_node2"><a xlink:href="../../d7/d35/classcommand_1_1_command.html#a66d04483ecf285dc068cdd6fa3dd0a39" target="_top" xlink:title="command.Command.run">
<polygon fill="white" stroke="black" points="220.5,-0.5 220.5,-19.5 357.5,-19.5 357.5,-0.5 220.5,-0.5"/>
<text text-anchor="middle" x="289" y="-7.5" font-family="Helvetica,sans-Serif" font-size="10.00">command.Command.run</text>
</a>
</g>
</g>
<!-- Node1&#45;&gt;Node2 -->
<g id="edge1" class="edge"><title>Node1&#45;&gt;Node2</title>
<path fill="none" stroke="midnightblue" d="M194.235,-10C203.104,-10 211.931,-10 220.424,-10"/>
<polygon fill="midnightblue" stroke="midnightblue" points="194.22,-6.5001 184.22,-10 194.22,-13.5001 194.22,-6.5001"/>
</g>
<!-- Node3 -->
<g id="node3" class="node"><title>Node3</title>
<g id="a_node3"><a xlink:href="../../df/dcb/classturtle_1_1_turtle.html#aa53d992fb81cd039a22a301af9b32aba" target="_top" xlink:title="turtle.Turtle.act">
<polygon fill="white" stroke="black" points="394.5,-0.5 394.5,-19.5 483.5,-19.5 483.5,-0.5 394.5,-0.5"/>
<text text-anchor="middle" x="439" y="-7.5" font-family="Helvetica,sans-Serif" font-size="10.00">turtle.Turtle.act</text>
</a>
</g>
</g>
<!-- Node2&#45;&gt;Node3 -->
<g id="edge2" class="edge"><title>Node2&#45;&gt;Node3</title>
<path fill="none" stroke="midnightblue" d="M367.786,-10C376.891,-10 385.919,-10 394.318,-10"/>
<polygon fill="midnightblue" stroke="midnightblue" points="367.504,-6.5001 357.504,-10 367.504,-13.5001 367.504,-6.5001"/>
</g>
</g>
</svg>
