<?xml version="1.0" encoding="UTF-8" standalone="no"?>
<!DOCTYPE svg PUBLIC "-//W3C//DTD SVG 1.1//EN"
 "http://www.w3.org/Graphics/SVG/1.1/DTD/svg11.dtd">
<!-- Generated by graphviz version 2.36.0 (20140111.2315)
 -->
<!-- Title: command.Command.Command Pages: 1 -->
<svg width="420pt" height="77pt"
 viewBox="0.00 0.00 420.00 77.00" xmlns="http://www.w3.org/2000/svg" xmlns:xlink="http://www.w3.org/1999/xlink">
<g id="graph0" class="graph" transform="scale(1 1) rotate(0) translate(4 73)">
<title>command.Command.Command</title>
<polygon fill="white" stroke="none" points="-4,4 -4,-73 416,-73 416,4 -4,4"/>
<!-- Node1 -->
<g id="node1" class="node"><title>Node1</title>
<polygon fill="#bfbfbf" stroke="black" points="0,-27.5 0,-46.5 172,-46.5 172,-27.5 0,-27.5"/>
<text text-anchor="middle" x="86" y="-34.5" font-family="Helvetica,sans-Serif" font-size="10.00">command.Command.Command</text>
</g>
<!-- Node2 -->
<g id="node2" class="node"><title>Node2</title>
<g id="a_node2"><a xlink:href="../../d7/d35/classcommand_1_1_command.html#a47069a7d6433c4013d516e35a1b7f2c8" target="_top" xlink:title="command.Command.checkParams">
<polygon fill="white" stroke="black" points="217.5,-49.5 217.5,-68.5 402.5,-68.5 402.5,-49.5 217.5,-49.5"/>
<text text-anchor="middle" x="310" y="-56.5" font-family="Helvetica,sans-Serif" font-size="10.00">command.Command.checkParams</text>
</a>
</g>
</g>
<!-- Node1&#45;&gt;Node2 -->
<g id="edge1" class="edge"><title>Node1&#45;&gt;Node2</title>
<path fill="none" stroke="midnightblue" d="M172.196,-45.4429C183.639,-46.5769 195.47,-47.7493 207.164,-48.9082"/>
<polygon fill="midnightblue" stroke="midnightblue" points="207.096,-52.4185 217.392,-49.9218 207.786,-45.4526 207.096,-52.4185"/>
</g>
<!-- Node3 -->
<g id="node3" class="node"><title>Node3</title>
<g id="a_node3"><a xlink:href="../../d7/d35/classcommand_1_1_command.html#a910d5e6b127de98cea429ca0a3a04cf3" target="_top" xlink:title="command.Command.createCommand\lValues">
<polygon fill="white" stroke="black" points="208.5,-0 208.5,-30 411.5,-30 411.5,-0 208.5,-0"/>
<text text-anchor="start" x="216.5" y="-18" font-family="Helvetica,sans-Serif" font-size="10.00">command.Command.createCommand</text>
<text text-anchor="middle" x="310" y="-7" font-family="Helvetica,sans-Serif" font-size="10.00">Values</text>
</a>
</g>
</g>
<!-- Node1&#45;&gt;Node3 -->
<g id="edge2" class="edge"><title>Node1&#45;&gt;Node3</title>
<path fill="none" stroke="midnightblue" d="M172.196,-28.5571C180.814,-27.7032 189.651,-26.8274 198.484,-25.952"/>
<polygon fill="midnightblue" stroke="midnightblue" points="198.837,-29.4343 208.443,-24.9651 198.147,-22.4684 198.837,-29.4343"/>
</g>
</g>
</svg>
