<?xml version="1.0" encoding="UTF-8" standalone="no"?>
<!DOCTYPE svg PUBLIC "-//W3C//DTD SVG 1.1//EN"
 "http://www.w3.org/Graphics/SVG/1.1/DTD/svg11.dtd">
<!-- Generated by graphviz version 2.36.0 (20140111.2315)
 -->
<!-- Title: command.Command.makeParameters Pages: 1 -->
<svg width="652pt" height="85pt"
 viewBox="0.00 0.00 652.00 85.00" xmlns="http://www.w3.org/2000/svg" xmlns:xlink="http://www.w3.org/1999/xlink">
<g id="graph0" class="graph" transform="scale(1 1) rotate(0) translate(4 81)">
<title>command.Command.makeParameters</title>
<polygon fill="white" stroke="none" points="-4,4 -4,-81 648,-81 648,4 -4,4"/>
<!-- Node1 -->
<g id="node1" class="node"><title>Node1</title>
<polygon fill="#bfbfbf" stroke="black" points="0,-19.5 0,-38.5 204,-38.5 204,-19.5 0,-19.5"/>
<text text-anchor="middle" x="102" y="-26.5" font-family="Helvetica,sans-Serif" font-size="10.00">command.Command.makeParameters</text>
</g>
<!-- Node2 -->
<g id="node2" class="node"><title>Node2</title>
<g id="a_node2"><a xlink:href="../../d7/d35/classcommand_1_1_command.html#a7d884bb025a12aa876825a6ffd5cab07" target="_top" xlink:title="command.Command.addParam">
<polygon fill="white" stroke="black" points="248,-38.5 248,-57.5 418,-57.5 418,-38.5 248,-38.5"/>
<text text-anchor="middle" x="333" y="-45.5" font-family="Helvetica,sans-Serif" font-size="10.00">command.Command.addParam</text>
</a>
</g>
</g>
<!-- Node1&#45;&gt;Node2 -->
<g id="edge1" class="edge"><title>Node1&#45;&gt;Node2</title>
<path fill="none" stroke="midnightblue" d="M204.109,-37.389C215.301,-38.3175 226.666,-39.2605 237.768,-40.1816"/>
<polygon fill="midnightblue" stroke="midnightblue" points="237.622,-43.6814 247.877,-41.0204 238.201,-36.7054 237.622,-43.6814"/>
</g>
<!-- Node5 -->
<g id="node5" class="node"><title>Node5</title>
<g id="a_node5"><a xlink:href="../../d7/d35/classcommand_1_1_command.html#a4028748e1f92fe68c8bd2a4728259a59" target="_top" xlink:title="command.Command.checkParams">
<polygon fill="white" stroke="black" points="240.5,-0.5 240.5,-19.5 425.5,-19.5 425.5,-0.5 240.5,-0.5"/>
<text text-anchor="middle" x="333" y="-7.5" font-family="Helvetica,sans-Serif" font-size="10.00">command.Command.checkParams</text>
</a>
</g>
</g>
<!-- Node1&#45;&gt;Node5 -->
<g id="edge4" class="edge"><title>Node1&#45;&gt;Node5</title>
<path fill="none" stroke="midnightblue" d="M204.109,-20.611C212.807,-19.8894 221.61,-19.159 230.312,-18.437"/>
<polygon fill="midnightblue" stroke="midnightblue" points="230.794,-21.9092 240.47,-17.5942 230.215,-14.9331 230.794,-21.9092"/>
</g>
<!-- Node3 -->
<g id="node3" class="node"><title>Node3</title>
<g id="a_node3"><a xlink:href="../../d7/d35/classcommand_1_1_command.html#aac081da490ef373792fdfbf8e73bbd69" target="_top" xlink:title="command.Command.isVariable">
<polygon fill="white" stroke="black" points="469.5,-57.5 469.5,-76.5 636.5,-76.5 636.5,-57.5 469.5,-57.5"/>
<text text-anchor="middle" x="553" y="-64.5" font-family="Helvetica,sans-Serif" font-size="10.00">command.Command.isVariable</text>
</a>
</g>
</g>
<!-- Node2&#45;&gt;Node3 -->
<g id="edge2" class="edge"><title>Node2&#45;&gt;Node3</title>
<path fill="none" stroke="midnightblue" d="M418.284,-55.3459C431.651,-56.5109 445.542,-57.7215 459.093,-58.9026"/>
<polygon fill="midnightblue" stroke="midnightblue" points="459.109,-62.4171 469.375,-59.7987 459.716,-55.4436 459.109,-62.4171"/>
</g>
<!-- Node4 -->
<g id="node4" class="node"><title>Node4</title>
<g id="a_node4"><a xlink:href="../../d7/d35/classcommand_1_1_command.html#ac9104121cb402d05a6ac117df8b882f8" target="_top" xlink:title="command.Command.readVariable">
<polygon fill="white" stroke="black" points="462,-19.5 462,-38.5 644,-38.5 644,-19.5 462,-19.5"/>
<text text-anchor="middle" x="553" y="-26.5" font-family="Helvetica,sans-Serif" font-size="10.00">command.Command.readVariable</text>
</a>
</g>
</g>
<!-- Node2&#45;&gt;Node4 -->
<g id="edge3" class="edge"><title>Node2&#45;&gt;Node4</title>
<path fill="none" stroke="midnightblue" d="M418.284,-40.6541C429.201,-39.7027 440.466,-38.7208 451.611,-37.7495"/>
<polygon fill="midnightblue" stroke="midnightblue" points="452.14,-41.2168 461.798,-36.8616 451.532,-34.2432 452.14,-41.2168"/>
</g>
</g>
</svg>
