<?xml version="1.0" encoding="UTF-8" standalone="no"?>
<!DOCTYPE svg PUBLIC "-//W3C//DTD SVG 1.1//EN"
 "http://www.w3.org/Graphics/SVG/1.1/DTD/svg11.dtd">
<!-- Generated by graphviz version 2.36.0 (20140111.2315)
 -->
<!-- Title: command.Command.readVariable Pages: 1 -->
<svg width="868pt" height="192pt"
 viewBox="0.00 0.00 868.00 192.00" xmlns="http://www.w3.org/2000/svg" xmlns:xlink="http://www.w3.org/1999/xlink">
<g id="graph0" class="graph" transform="scale(1 1) rotate(0) translate(4 188)">
<title>command.Command.readVariable</title>
<polygon fill="white" stroke="none" points="-4,4 -4,-188 864,-188 864,4 -4,4"/>
<!-- Node1 -->
<g id="node1" class="node"><title>Node1</title>
<polygon fill="#bfbfbf" stroke="black" points="0,-75.5 0,-94.5 182,-94.5 182,-75.5 0,-75.5"/>
<text text-anchor="middle" x="91" y="-82.5" font-family="Helvetica,sans-Serif" font-size="10.00">command.Command.readVariable</text>
</g>
<!-- Node2 -->
<g id="node2" class="node"><title>Node2</title>
<g id="a_node2"><a xlink:href="../../d3/d0c/classcommand_1_1_loop_command.html#ab2511ce9113e40b25b5204a25754e4c0" target="_top" xlink:title="command.LoopCommand.addInfo">
<polygon fill="white" stroke="black" points="218,-107.5 218,-126.5 398,-126.5 398,-107.5 218,-107.5"/>
<text text-anchor="middle" x="308" y="-114.5" font-family="Helvetica,sans-Serif" font-size="10.00">command.LoopCommand.addInfo</text>
</a>
</g>
</g>
<!-- Node1&#45;&gt;Node2 -->
<g id="edge1" class="edge"><title>Node1&#45;&gt;Node2</title>
<path fill="none" stroke="midnightblue" d="M166.093,-96.0278C191.1,-99.7498 218.786,-103.87 242.95,-107.467"/>
<polygon fill="midnightblue" stroke="midnightblue" points="166.331,-92.5248 155.925,-94.5144 165.301,-99.4485 166.331,-92.5248"/>
</g>
<!-- Node6 -->
<g id="node6" class="node"><title>Node6</title>
<g id="a_node6"><a xlink:href="../../d7/d35/classcommand_1_1_command.html#a7d884bb025a12aa876825a6ffd5cab07" target="_top" xlink:title="command.Command.addParam">
<polygon fill="white" stroke="black" points="223,-44.5 223,-63.5 393,-63.5 393,-44.5 223,-44.5"/>
<text text-anchor="middle" x="308" y="-51.5" font-family="Helvetica,sans-Serif" font-size="10.00">command.Command.addParam</text>
</a>
</g>
</g>
<!-- Node1&#45;&gt;Node6 -->
<g id="edge5" class="edge"><title>Node1&#45;&gt;Node6</title>
<path fill="none" stroke="midnightblue" d="M167.996,-74.0424C191.752,-70.6172 217.759,-66.8673 240.786,-63.5471"/>
<polygon fill="midnightblue" stroke="midnightblue" points="167.366,-70.5969 157.968,-75.4883 168.365,-77.5253 167.366,-70.5969"/>
</g>
<!-- Node3 -->
<g id="node3" class="node"><title>Node3</title>
<g id="a_node3"><a xlink:href="../../da/dfa/classcommand_1_1_do_times_command.html#a5cf80997d163b011e1e30e76e2ac0876" target="_top" xlink:title="command.DoTimesCommand.updateMap">
<polygon fill="white" stroke="black" points="434,-164.5 434,-183.5 652,-183.5 652,-164.5 434,-164.5"/>
<text text-anchor="middle" x="543" y="-171.5" font-family="Helvetica,sans-Serif" font-size="10.00">command.DoTimesCommand.updateMap</text>
</a>
</g>
</g>
<!-- Node2&#45;&gt;Node3 -->
<g id="edge2" class="edge"><title>Node2&#45;&gt;Node3</title>
<path fill="none" stroke="midnightblue" d="M346.708,-129.766C371.344,-137.782 404.335,-147.909 434,-155 448.906,-158.563 465.116,-161.764 480.337,-164.478"/>
<polygon fill="midnightblue" stroke="midnightblue" points="347.624,-126.383 337.031,-126.586 345.438,-133.033 347.624,-126.383"/>
</g>
<!-- Node4 -->
<g id="node4" class="node"><title>Node4</title>
<g id="a_node4"><a xlink:href="../../dc/d6b/classcommand_1_1_for_command.html#a669b3be425264f09a5bac53dbea64164" target="_top" xlink:title="command.ForCommand.updateMap">
<polygon fill="white" stroke="black" points="447.5,-126.5 447.5,-145.5 638.5,-145.5 638.5,-126.5 447.5,-126.5"/>
<text text-anchor="middle" x="543" y="-133.5" font-family="Helvetica,sans-Serif" font-size="10.00">command.ForCommand.updateMap</text>
</a>
</g>
</g>
<!-- Node2&#45;&gt;Node4 -->
<g id="edge3" class="edge"><title>Node2&#45;&gt;Node4</title>
<path fill="none" stroke="midnightblue" d="M408.333,-125.1C421.203,-126.15 434.359,-127.222 447.155,-128.266"/>
<polygon fill="midnightblue" stroke="midnightblue" points="408.336,-121.589 398.085,-124.264 407.767,-128.566 408.336,-121.589"/>
</g>
<!-- Node5 -->
<g id="node5" class="node"><title>Node5</title>
<g id="a_node5"><a xlink:href="../../d4/d11/classcommand_1_1_repeat_command.html#a6e558bc98a5fc926296fefae3379fde8" target="_top" xlink:title="command.RepeatCommand.updateMap">
<polygon fill="white" stroke="black" points="438.5,-88.5 438.5,-107.5 647.5,-107.5 647.5,-88.5 438.5,-88.5"/>
<text text-anchor="middle" x="543" y="-95.5" font-family="Helvetica,sans-Serif" font-size="10.00">command.RepeatCommand.updateMap</text>
</a>
</g>
</g>
<!-- Node2&#45;&gt;Node5 -->
<g id="edge4" class="edge"><title>Node2&#45;&gt;Node5</title>
<path fill="none" stroke="midnightblue" d="M408.305,-108.902C418.183,-108.097 428.23,-107.277 438.153,-106.468"/>
<polygon fill="midnightblue" stroke="midnightblue" points="407.767,-105.434 398.085,-109.736 408.336,-112.411 407.767,-105.434"/>
</g>
<!-- Node7 -->
<g id="node7" class="node"><title>Node7</title>
<g id="a_node7"><a xlink:href="../../d4/d98/classcommand_1_1_make_variable_command.html#a6c1ca6937f5daaf156fe5b4bab7bd1fe" target="_top" xlink:title="command.MakeVariableCommand.create\lParameters">
<polygon fill="white" stroke="black" points="435,-39 435,-69 651,-69 651,-39 435,-39"/>
<text text-anchor="start" x="443" y="-57" font-family="Helvetica,sans-Serif" font-size="10.00">command.MakeVariableCommand.create</text>
<text text-anchor="middle" x="543" y="-46" font-family="Helvetica,sans-Serif" font-size="10.00">Parameters</text>
</a>
</g>
</g>
<!-- Node6&#45;&gt;Node7 -->
<g id="edge6" class="edge"><title>Node6&#45;&gt;Node7</title>
<path fill="none" stroke="midnightblue" d="M403.392,-54C413.76,-54 424.369,-54 434.877,-54"/>
<polygon fill="midnightblue" stroke="midnightblue" points="403.118,-50.5001 393.118,-54 403.118,-57.5001 403.118,-50.5001"/>
</g>
<!-- Node8 -->
<g id="node8" class="node"><title>Node8</title>
<g id="a_node8"><a xlink:href="../../d7/d35/classcommand_1_1_command.html#af452756139055289367f3449a20d8629" target="_top" xlink:title="command.Command.makeParameters">
<polygon fill="white" stroke="black" points="441,-0.5 441,-19.5 645,-19.5 645,-0.5 441,-0.5"/>
<text text-anchor="middle" x="543" y="-7.5" font-family="Helvetica,sans-Serif" font-size="10.00">command.Command.makeParameters</text>
</a>
</g>
</g>
<!-- Node6&#45;&gt;Node8 -->
<g id="edge7" class="edge"><title>Node6&#45;&gt;Node8</title>
<path fill="none" stroke="midnightblue" d="M365.201,-42.4707C386.703,-38.1358 411.468,-33.2346 434,-29 451.026,-25.8001 469.595,-22.4743 486.457,-19.5165"/>
<polygon fill="midnightblue" stroke="midnightblue" points="364.361,-39.0698 355.253,-44.4828 365.748,-45.9309 364.361,-39.0698"/>
</g>
<!-- Node9 -->
<g id="node9" class="node"><title>Node9</title>
<g id="a_node9"><a xlink:href="../../d7/d35/classcommand_1_1_command.html#a49b7d5a99b9a63b369547047bfb2850f" target="_top" xlink:title="command.Command.Command">
<polygon fill="white" stroke="black" points="688,-0.5 688,-19.5 860,-19.5 860,-0.5 688,-0.5"/>
<text text-anchor="middle" x="774" y="-7.5" font-family="Helvetica,sans-Serif" font-size="10.00">command.Command.Command</text>
</a>
</g>
</g>
<!-- Node8&#45;&gt;Node9 -->
<g id="edge8" class="edge"><title>Node8&#45;&gt;Node9</title>
<path fill="none" stroke="midnightblue" d="M655.169,-10C666.149,-10 677.169,-10 687.825,-10"/>
<polygon fill="midnightblue" stroke="midnightblue" points="655.109,-6.5001 645.109,-10 655.109,-13.5001 655.109,-6.5001"/>
</g>
</g>
</svg>
