<?xml version="1.0" encoding="UTF-8" standalone="no"?>
<!DOCTYPE svg PUBLIC "-//W3C//DTD SVG 1.1//EN"
 "http://www.w3.org/Graphics/SVG/1.1/DTD/svg11.dtd">
<!-- Generated by graphviz version 2.36.0 (20140111.2315)
 -->
<!-- Title: turtle.Turtle Pages: 1 -->
<svg width="340pt" height="186pt"
 viewBox="0.00 0.00 340.00 186.00" xmlns="http://www.w3.org/2000/svg" xmlns:xlink="http://www.w3.org/1999/xlink">
<g id="graph0" class="graph" transform="scale(1 1) rotate(0) translate(4 182)">
<title>turtle.Turtle</title>
<polygon fill="white" stroke="none" points="-4,4 -4,-182 336,-182 336,4 -4,4"/>
<!-- Node1 -->
<g id="node1" class="node"><title>Node1</title>
<polygon fill="#bfbfbf" stroke="black" points="128.5,-0.5 128.5,-19.5 199.5,-19.5 199.5,-0.5 128.5,-0.5"/>
<text text-anchor="middle" x="164" y="-7.5" font-family="Helvetica,sans-Serif" font-size="10.00">turtle.Turtle</text>
</g>
<!-- Node2 -->
<g id="node2" class="node"><title>Node2</title>
<polygon fill="white" stroke="#bfbfbf" points="0,-90.5 0,-109.5 68,-109.5 68,-90.5 0,-90.5"/>
<text text-anchor="middle" x="34" y="-97.5" font-family="Helvetica,sans-Serif" font-size="10.00">ImageView</text>
</g>
<!-- Node2&#45;&gt;Node1 -->
<g id="edge1" class="edge"><title>Node2&#45;&gt;Node1</title>
<path fill="none" stroke="midnightblue" d="M53.5803,-83.9471C70.3649,-71.2471 95.35,-52.8212 118,-38 127.918,-31.5099 139.418,-24.7599 148.439,-19.6324"/>
<polygon fill="midnightblue" stroke="midnightblue" points="51.0016,-81.5114 45.166,-90.3543 55.2424,-87.0806 51.0016,-81.5114"/>
</g>
<!-- Node3 -->
<g id="node3" class="node"><title>Node3</title>
<g id="a_node3"><a xlink:href="../../de/d57/classturtle_1_1_pen.html" target="_top" xlink:title="turtle.Pen">
<polygon fill="white" stroke="black" points="86.5,-90.5 86.5,-109.5 149.5,-109.5 149.5,-90.5 86.5,-90.5"/>
<text text-anchor="middle" x="118" y="-97.5" font-family="Helvetica,sans-Serif" font-size="10.00">turtle.Pen</text>
</a>
</g>
</g>
<!-- Node3&#45;&gt;Node1 -->
<g id="edge2" class="edge"><title>Node3&#45;&gt;Node1</title>
<path fill="none" stroke="#9a32cd" stroke-dasharray="5,2" d="M120.131,-79.8155C122.204,-67.2045 126.236,-50.7417 134,-38 138.375,-30.8195 145.241,-24.4381 151.3,-19.6844"/>
<polygon fill="#9a32cd" stroke="#9a32cd" points="116.612,-79.7154 118.727,-90.0971 123.548,-80.6627 116.612,-79.7154"/>
<text text-anchor="middle" x="152.5" y="-52.5" font-family="Helvetica,sans-Serif" font-size="10.00"> myPen</text>
</g>
<!-- Node4 -->
<g id="node4" class="node"><title>Node4</title>
<polygon fill="white" stroke="#bfbfbf" points="98,-158.5 98,-177.5 138,-177.5 138,-158.5 98,-158.5"/>
<text text-anchor="middle" x="118" y="-165.5" font-family="Helvetica,sans-Serif" font-size="10.00">Paint</text>
</g>
<!-- Node4&#45;&gt;Node3 -->
<g id="edge3" class="edge"><title>Node4&#45;&gt;Node3</title>
<path fill="none" stroke="#9a32cd" stroke-dasharray="5,2" d="M118,-148.041C118,-135.472 118,-119.563 118,-109.841"/>
<polygon fill="#9a32cd" stroke="#9a32cd" points="114.5,-148.372 118,-158.372 121.5,-148.372 114.5,-148.372"/>
<text text-anchor="middle" x="148.5" y="-131.5" font-family="Helvetica,sans-Serif" font-size="10.00"> myPenColor</text>
</g>
<!-- Node5 -->
<g id="node5" class="node"><title>Node5</title>
<polygon fill="white" stroke="#bfbfbf" points="168,-90.5 168,-109.5 222,-109.5 222,-90.5 168,-90.5"/>
<text text-anchor="middle" x="195" y="-97.5" font-family="Helvetica,sans-Serif" font-size="10.00">Point2D</text>
</g>
<!-- Node5&#45;&gt;Node1 -->
<g id="edge4" class="edge"><title>Node5&#45;&gt;Node1</title>
<path fill="none" stroke="#9a32cd" stroke-dasharray="5,2" d="M188.576,-80.7655C181.999,-62.0946 172.055,-33.8669 167.073,-19.7241"/>
<polygon fill="#9a32cd" stroke="#9a32cd" points="185.29,-81.9715 191.914,-90.2405 191.893,-79.6457 185.29,-81.9715"/>
<text text-anchor="middle" x="202.5" y="-63.5" font-family="Helvetica,sans-Serif" font-size="10.00"> goal</text>
<text text-anchor="middle" x="202.5" y="-52.5" font-family="Helvetica,sans-Serif" font-size="10.00">next</text>
<text text-anchor="middle" x="202.5" y="-41.5" font-family="Helvetica,sans-Serif" font-size="10.00">current</text>
</g>
<!-- Node6 -->
<g id="node6" class="node"><title>Node6</title>
<polygon fill="white" stroke="#bfbfbf" points="240.5,-90.5 240.5,-109.5 287.5,-109.5 287.5,-90.5 240.5,-90.5"/>
<text text-anchor="middle" x="264" y="-97.5" font-family="Helvetica,sans-Serif" font-size="10.00">Image</text>
</g>
<!-- Node6&#45;&gt;Node1 -->
<g id="edge5" class="edge"><title>Node6&#45;&gt;Node1</title>
<path fill="none" stroke="#9a32cd" stroke-dasharray="5,2" d="M255.842,-81.2735C248.949,-67.9166 237.969,-49.9251 224,-38 214.617,-29.9902 202.473,-23.9333 191.566,-19.607"/>
<polygon fill="#9a32cd" stroke="#9a32cd" points="252.768,-82.955 260.3,-90.407 259.059,-79.885 252.768,-82.955"/>
<text text-anchor="middle" x="291.5" y="-52.5" font-family="Helvetica,sans-Serif" font-size="10.00"> DEFAULT_IMAGE</text>
</g>
</g>
</svg>
