<?xml version="1.0" encoding="UTF-8" standalone="no"?>
<!DOCTYPE svg PUBLIC "-//W3C//DTD SVG 1.1//EN"
 "http://www.w3.org/Graphics/SVG/1.1/DTD/svg11.dtd">
<!-- Generated by graphviz version 2.36.0 (20140111.2315)
 -->
<!-- Title: turtle.Turtle Pages: 1 -->
<svg width="497pt" height="186pt"
 viewBox="0.00 0.00 497.00 186.00" xmlns="http://www.w3.org/2000/svg" xmlns:xlink="http://www.w3.org/1999/xlink">
<g id="graph0" class="graph" transform="scale(1 1) rotate(0) translate(4 182)">
<title>turtle.Turtle</title>
<polygon fill="white" stroke="none" points="-4,4 -4,-182 493,-182 493,4 -4,4"/>
<!-- Node1 -->
<g id="node1" class="node"><title>Node1</title>
<polygon fill="#bfbfbf" stroke="black" points="240.5,-0.5 240.5,-19.5 311.5,-19.5 311.5,-0.5 240.5,-0.5"/>
<text text-anchor="middle" x="276" y="-7.5" font-family="Helvetica,sans-Serif" font-size="10.00">turtle.Turtle</text>
</g>
<!-- Node2 -->
<g id="node2" class="node"><title>Node2</title>
<polygon fill="white" stroke="#bfbfbf" points="0,-90.5 0,-109.5 68,-109.5 68,-90.5 0,-90.5"/>
<text text-anchor="middle" x="34" y="-97.5" font-family="Helvetica,sans-Serif" font-size="10.00">ImageView</text>
</g>
<!-- Node2&#45;&gt;Node1 -->
<g id="edge1" class="edge"><title>Node2&#45;&gt;Node1</title>
<path fill="none" stroke="midnightblue" d="M61.7498,-86.2155C90.8332,-73.0998 138.044,-52.6042 180,-38 200.275,-30.9425 223.432,-24.3873 241.922,-19.5035"/>
<polygon fill="midnightblue" stroke="midnightblue" points="60.2749,-83.0413 52.6154,-90.3614 63.168,-89.4155 60.2749,-83.0413"/>
</g>
<!-- Node3 -->
<g id="node3" class="node"><title>Node3</title>
<polygon fill="white" stroke="#bfbfbf" points="86,-90.5 86,-109.5 226,-109.5 226,-90.5 86,-90.5"/>
<text text-anchor="middle" x="156" y="-97.5" font-family="Helvetica,sans-Serif" font-size="10.00">ObjectProperty&lt; Image &gt;</text>
</g>
<!-- Node3&#45;&gt;Node1 -->
<g id="edge2" class="edge"><title>Node3&#45;&gt;Node1</title>
<path fill="none" stroke="#9a32cd" stroke-dasharray="5,2" d="M171.209,-82.9404C184.17,-69.8216 203.712,-51.334 223,-38 233.363,-30.8359 245.886,-24.3681 256.156,-19.5599"/>
<polygon fill="#9a32cd" stroke="#9a32cd" points="168.5,-80.7057 164.051,-90.3208 173.525,-85.5793 168.5,-80.7057"/>
<text text-anchor="middle" x="247.5" y="-52.5" font-family="Helvetica,sans-Serif" font-size="10.00"> myImage</text>
</g>
<!-- Node4 -->
<g id="node4" class="node"><title>Node4</title>
<g id="a_node4"><a xlink:href="../../de/d57/classturtle_1_1_pen.html" target="_top" xlink:title="turtle.Pen">
<polygon fill="white" stroke="black" points="244.5,-90.5 244.5,-109.5 307.5,-109.5 307.5,-90.5 244.5,-90.5"/>
<text text-anchor="middle" x="276" y="-97.5" font-family="Helvetica,sans-Serif" font-size="10.00">turtle.Pen</text>
</a>
</g>
</g>
<!-- Node4&#45;&gt;Node1 -->
<g id="edge3" class="edge"><title>Node4&#45;&gt;Node1</title>
<path fill="none" stroke="#9a32cd" stroke-dasharray="5,2" d="M276,-79.9784C276,-61.3096 276,-33.6696 276,-19.7241"/>
<polygon fill="#9a32cd" stroke="#9a32cd" points="272.5,-80.2405 276,-90.2405 279.5,-80.2405 272.5,-80.2405"/>
<text text-anchor="middle" x="294.5" y="-52.5" font-family="Helvetica,sans-Serif" font-size="10.00"> myPen</text>
</g>
<!-- Node5 -->
<g id="node5" class="node"><title>Node5</title>
<polygon fill="white" stroke="#bfbfbf" points="256,-158.5 256,-177.5 296,-177.5 296,-158.5 256,-158.5"/>
<text text-anchor="middle" x="276" y="-165.5" font-family="Helvetica,sans-Serif" font-size="10.00">Paint</text>
</g>
<!-- Node5&#45;&gt;Node4 -->
<g id="edge4" class="edge"><title>Node5&#45;&gt;Node4</title>
<path fill="none" stroke="#9a32cd" stroke-dasharray="5,2" d="M276,-148.041C276,-135.472 276,-119.563 276,-109.841"/>
<polygon fill="#9a32cd" stroke="#9a32cd" points="272.5,-148.372 276,-158.372 279.5,-148.372 272.5,-148.372"/>
<text text-anchor="middle" x="306.5" y="-131.5" font-family="Helvetica,sans-Serif" font-size="10.00"> myPenColor</text>
</g>
<!-- Node6 -->
<g id="node6" class="node"><title>Node6</title>
<polygon fill="white" stroke="#bfbfbf" points="326,-90.5 326,-109.5 380,-109.5 380,-90.5 326,-90.5"/>
<text text-anchor="middle" x="353" y="-97.5" font-family="Helvetica,sans-Serif" font-size="10.00">Point2D</text>
</g>
<!-- Node6&#45;&gt;Node1 -->
<g id="edge5" class="edge"><title>Node6&#45;&gt;Node1</title>
<path fill="none" stroke="#9a32cd" stroke-dasharray="5,2" d="M345.108,-81.0165C338.804,-68.04 329.043,-50.6501 317,-38 310.066,-30.7159 300.813,-24.4103 292.852,-19.7288"/>
<polygon fill="#9a32cd" stroke="#9a32cd" points="342.028,-82.6938 349.401,-90.3023 348.382,-79.7566 342.028,-82.6938"/>
<text text-anchor="middle" x="357.5" y="-63.5" font-family="Helvetica,sans-Serif" font-size="10.00"> goal</text>
<text text-anchor="middle" x="357.5" y="-52.5" font-family="Helvetica,sans-Serif" font-size="10.00">next</text>
<text text-anchor="middle" x="357.5" y="-41.5" font-family="Helvetica,sans-Serif" font-size="10.00">current</text>
</g>
<!-- Node7 -->
<g id="node7" class="node"><title>Node7</title>
<polygon fill="white" stroke="#bfbfbf" points="398.5,-90.5 398.5,-109.5 445.5,-109.5 445.5,-90.5 398.5,-90.5"/>
<text text-anchor="middle" x="422" y="-97.5" font-family="Helvetica,sans-Serif" font-size="10.00">Image</text>
</g>
<!-- Node7&#45;&gt;Node1 -->
<g id="edge6" class="edge"><title>Node7&#45;&gt;Node1</title>
<path fill="none" stroke="#9a32cd" stroke-dasharray="5,2" d="M413.92,-81.4445C406.676,-67.6272 394.762,-48.9362 379,-38 359.255,-24.3005 333.003,-17.5519 311.944,-14.2275"/>
<polygon fill="#9a32cd" stroke="#9a32cd" points="410.802,-83.0363 418.357,-90.4637 417.083,-79.9458 410.802,-83.0363"/>
<text text-anchor="middle" x="448.5" y="-52.5" font-family="Helvetica,sans-Serif" font-size="10.00"> DEFAULT_IMAGE</text>
</g>
</g>
</svg>
