<?xml version="1.0" encoding="UTF-8" standalone="no"?>
<!DOCTYPE svg PUBLIC "-//W3C//DTD SVG 1.1//EN"
 "http://www.w3.org/Graphics/SVG/1.1/DTD/svg11.dtd">
<!-- Generated by graphviz version 2.36.0 (20140111.2315)
 -->
<!-- Title: command.MakeUserInstructionCommand Pages: 1 -->
<svg width="602pt" height="234pt"
 viewBox="0.00 0.00 602.00 234.00" xmlns="http://www.w3.org/2000/svg" xmlns:xlink="http://www.w3.org/1999/xlink">
<g id="graph0" class="graph" transform="scale(1 1) rotate(0) translate(4 230)">
<title>command.MakeUserInstructionCommand</title>
<polygon fill="white" stroke="none" points="-4,4 -4,-230 598,-230 598,4 -4,4"/>
<!-- Node1 -->
<g id="node1" class="node"><title>Node1</title>
<polygon fill="#bfbfbf" stroke="black" points="389.5,-1 389.5,-31 556.5,-31 556.5,-1 389.5,-1"/>
<text text-anchor="start" x="397.5" y="-19" font-family="Helvetica,sans-Serif" font-size="10.00">command.MakeUserInstruction</text>
<text text-anchor="middle" x="473" y="-8" font-family="Helvetica,sans-Serif" font-size="10.00">Command</text>
</g>
<!-- Node2 -->
<g id="node2" class="node"><title>Node2</title>
<g id="a_node2"><a xlink:href="../../d3/d0c/classcommand_1_1_loop_command.html" target="_top" xlink:title="command.LoopCommand">
<polygon fill="white" stroke="black" points="402,-70.5 402,-89.5 544,-89.5 544,-70.5 402,-70.5"/>
<text text-anchor="middle" x="473" y="-77.5" font-family="Helvetica,sans-Serif" font-size="10.00">command.LoopCommand</text>
</a>
</g>
</g>
<!-- Node2&#45;&gt;Node1 -->
<g id="edge1" class="edge"><title>Node2&#45;&gt;Node1</title>
<path fill="none" stroke="midnightblue" d="M473,-60.1826C473,-50.8859 473,-39.8507 473,-31.263"/>
<polygon fill="midnightblue" stroke="midnightblue" points="469.5,-60.3791 473,-70.3792 476.5,-60.3792 469.5,-60.3791"/>
</g>
<!-- Node3 -->
<g id="node3" class="node"><title>Node3</title>
<g id="a_node3"><a xlink:href="../../d7/d35/classcommand_1_1_command.html" target="_top" xlink:title="command.Command">
<polygon fill="white" stroke="black" points="274.5,-128.5 274.5,-147.5 393.5,-147.5 393.5,-128.5 274.5,-128.5"/>
<text text-anchor="middle" x="334" y="-135.5" font-family="Helvetica,sans-Serif" font-size="10.00">command.Command</text>
</a>
</g>
</g>
<!-- Node3&#45;&gt;Node2 -->
<g id="edge2" class="edge"><title>Node3&#45;&gt;Node2</title>
<path fill="none" stroke="midnightblue" d="M364.634,-124.658C391.028,-114.025 428.443,-98.951 451.69,-89.5852"/>
<polygon fill="midnightblue" stroke="midnightblue" points="363.079,-121.511 355.111,-128.495 365.695,-128.004 363.079,-121.511"/>
</g>
<!-- Node4 -->
<g id="node4" class="node"><title>Node4</title>
<polygon fill="white" stroke="#bfbfbf" points="106.5,-206.5 106.5,-225.5 199.5,-225.5 199.5,-206.5 106.5,-206.5"/>
<text text-anchor="middle" x="153" y="-213.5" font-family="Helvetica,sans-Serif" font-size="10.00">ResourceBundle</text>
</g>
<!-- Node4&#45;&gt;Node3 -->
<g id="edge3" class="edge"><title>Node4&#45;&gt;Node3</title>
<path fill="none" stroke="#9a32cd" stroke-dasharray="5,2" d="M174.482,-200.819C191.444,-190.107 216.005,-175.652 239,-166 257.182,-158.369 278.199,-152.145 295.835,-147.604"/>
<polygon fill="#9a32cd" stroke="#9a32cd" points="172.422,-197.982 165.899,-206.33 176.205,-203.872 172.422,-197.982"/>
<text text-anchor="middle" x="256.5" y="-174.5" font-family="Helvetica,sans-Serif" font-size="10.00"> syntax</text>
</g>
<!-- Node5 -->
<g id="node5" class="node"><title>Node5</title>
<polygon fill="white" stroke="#bfbfbf" points="-0.5,-206.5 -0.5,-225.5 88.5,-225.5 88.5,-206.5 -0.5,-206.5"/>
<text text-anchor="middle" x="44" y="-213.5" font-family="Helvetica,sans-Serif" font-size="10.00">List&lt; Double &gt;</text>
</g>
<!-- Node5&#45;&gt;Node3 -->
<g id="edge4" class="edge"><title>Node5&#45;&gt;Node3</title>
<path fill="none" stroke="#9a32cd" stroke-dasharray="5,2" d="M64.9997,-200.684C82.6291,-189.391 108.892,-174.22 134,-166 179.619,-151.066 233.689,-144.383 274.101,-141.397"/>
<polygon fill="#9a32cd" stroke="#9a32cd" points="62.5949,-198.076 56.156,-206.489 66.4364,-203.927 62.5949,-198.076"/>
<text text-anchor="middle" x="164" y="-174.5" font-family="Helvetica,sans-Serif" font-size="10.00"> parameters</text>
</g>
<!-- Node6 -->
<g id="node6" class="node"><title>Node6</title>
<polygon fill="white" stroke="#bfbfbf" points="504,-206.5 504,-225.5 588,-225.5 588,-206.5 504,-206.5"/>
<text text-anchor="middle" x="546" y="-213.5" font-family="Helvetica,sans-Serif" font-size="10.00">List&lt; String &gt;</text>
</g>
<!-- Node6&#45;&gt;Node2 -->
<g id="edge8" class="edge"><title>Node6&#45;&gt;Node2</title>
<path fill="none" stroke="#9a32cd" stroke-dasharray="5,2" d="M542.237,-196.505C539.949,-187.102 536.575,-175.654 532,-166 517.692,-135.806 493.03,-104.617 480.612,-89.8178"/>
<polygon fill="#9a32cd" stroke="#9a32cd" points="538.844,-197.37 544.431,-206.372 545.677,-195.851 538.844,-197.37"/>
<text text-anchor="middle" x="558" y="-135.5" font-family="Helvetica,sans-Serif" font-size="10.00"> strParameters</text>
</g>
<!-- Node6&#45;&gt;Node3 -->
<g id="edge5" class="edge"><title>Node6&#45;&gt;Node3</title>
<path fill="none" stroke="#9a32cd" stroke-dasharray="5,2" d="M495.803,-203.478C483.615,-199.553 470.95,-194.47 460,-188 447.822,-180.804 449.347,-172.903 437,-166 421.752,-157.475 403.726,-151.565 387.051,-147.501"/>
<polygon fill="#9a32cd" stroke="#9a32cd" points="494.848,-206.846 505.433,-206.382 496.869,-200.144 494.848,-206.846"/>
<text text-anchor="middle" x="496" y="-174.5" font-family="Helvetica,sans-Serif" font-size="10.00"> strParameters</text>
</g>
<!-- Node7 -->
<g id="node7" class="node"><title>Node7</title>
<polygon fill="white" stroke="#bfbfbf" points="218,-206.5 218,-225.5 340,-225.5 340,-206.5 218,-206.5"/>
<text text-anchor="middle" x="279" y="-213.5" font-family="Helvetica,sans-Serif" font-size="10.00">Map&lt; String, String &gt;</text>
</g>
<!-- Node7&#45;&gt;Node3 -->
<g id="edge6" class="edge"><title>Node7&#45;&gt;Node3</title>
<path fill="none" stroke="#9a32cd" stroke-dasharray="5,2" d="M276.915,-195.955C276.796,-186.247 278.198,-174.69 284,-166 289.533,-157.713 298.482,-151.763 307.292,-147.594"/>
<polygon fill="#9a32cd" stroke="#9a32cd" points="273.441,-196.467 277.581,-206.219 280.426,-196.013 273.441,-196.467"/>
<text text-anchor="middle" x="326" y="-180" font-family="Helvetica,sans-Serif" font-size="10.00"> commandValues</text>
<text text-anchor="middle" x="326" y="-169" font-family="Helvetica,sans-Serif" font-size="10.00">functions</text>
</g>
<!-- Node8 -->
<g id="node8" class="node"><title>Node8</title>
<polygon fill="white" stroke="#bfbfbf" points="358,-206.5 358,-225.5 486,-225.5 486,-206.5 358,-206.5"/>
<text text-anchor="middle" x="422" y="-213.5" font-family="Helvetica,sans-Serif" font-size="10.00">Map&lt; String, Double &gt;</text>
</g>
<!-- Node8&#45;&gt;Node3 -->
<g id="edge7" class="edge"><title>Node8&#45;&gt;Node3</title>
<path fill="none" stroke="#9a32cd" stroke-dasharray="5,2" d="M404.042,-199.609C399.736,-195.85 395.176,-191.812 391,-188 380.553,-178.463 378.661,-175.297 368,-166 360.615,-159.56 351.963,-152.698 345.234,-147.503"/>
<polygon fill="#9a32cd" stroke="#9a32cd" points="401.992,-202.464 411.843,-206.362 406.573,-197.171 401.992,-202.464"/>
<text text-anchor="middle" x="414" y="-174.5" font-family="Helvetica,sans-Serif" font-size="10.00"> variables</text>
</g>
</g>
</svg>
