<?xml version="1.0" encoding="UTF-8" standalone="no"?>
<!DOCTYPE svg PUBLIC "-//W3C//DTD SVG 1.1//EN"
 "http://www.w3.org/Graphics/SVG/1.1/DTD/svg11.dtd">
<!-- Generated by graphviz version 2.36.0 (20140111.2315)
 -->
<!-- Title: command.Command Pages: 1 -->
<svg width="247pt" height="96pt"
 viewBox="0.00 0.00 247.00 96.00" xmlns="http://www.w3.org/2000/svg" xmlns:xlink="http://www.w3.org/1999/xlink">
<g id="graph0" class="graph" transform="scale(1 1) rotate(0) translate(4 92)">
<title>command.Command</title>
<polygon fill="white" stroke="none" points="-4,4 -4,-92 243,-92 243,4 -4,4"/>
<!-- Node1 -->
<g id="node1" class="node"><title>Node1</title>
<polygon fill="#bfbfbf" stroke="black" points="46.5,-0.5 46.5,-19.5 165.5,-19.5 165.5,-0.5 46.5,-0.5"/>
<text text-anchor="middle" x="106" y="-7.5" font-family="Helvetica,sans-Serif" font-size="10.00">command.Command</text>
</g>
<!-- Node2 -->
<g id="node2" class="node"><title>Node2</title>
<polygon fill="white" stroke="#bfbfbf" points="-0.5,-68.5 -0.5,-87.5 88.5,-87.5 88.5,-68.5 -0.5,-68.5"/>
<text text-anchor="middle" x="44" y="-75.5" font-family="Helvetica,sans-Serif" font-size="10.00">List&lt; Double &gt;</text>
</g>
<!-- Node2&#45;&gt;Node1 -->
<g id="edge1" class="edge"><title>Node2&#45;&gt;Node1</title>
<path fill="none" stroke="#9a32cd" stroke-dasharray="5,2" d="M58.9858,-61.0474C71.138,-48.1111 87.8164,-30.3567 97.6947,-19.8411"/>
<polygon fill="#9a32cd" stroke="#9a32cd" points="56.4012,-58.6868 52.1054,-68.3717 61.5032,-63.4795 56.4012,-58.6868"/>
<text text-anchor="middle" x="111" y="-41.5" font-family="Helvetica,sans-Serif" font-size="10.00"> parameters</text>
</g>
<!-- Node3 -->
<g id="node3" class="node"><title>Node3</title>
<polygon fill="white" stroke="#bfbfbf" points="107,-68.5 107,-87.5 229,-87.5 229,-68.5 107,-68.5"/>
<text text-anchor="middle" x="168" y="-75.5" font-family="Helvetica,sans-Serif" font-size="10.00">Map&lt; String, String &gt;</text>
</g>
<!-- Node3&#45;&gt;Node1 -->
<g id="edge2" class="edge"><title>Node3&#45;&gt;Node1</title>
<path fill="none" stroke="#9a32cd" stroke-dasharray="5,2" d="M159.425,-58.8378C155.607,-51.86 150.682,-44.111 145,-38 138.271,-30.763 129.281,-24.378 121.628,-19.6365"/>
<polygon fill="#9a32cd" stroke="#9a32cd" points="156.543,-60.8927 164.187,-68.2286 162.786,-57.7268 156.543,-60.8927"/>
<text text-anchor="middle" x="197" y="-41.5" font-family="Helvetica,sans-Serif" font-size="10.00"> commandValues</text>
</g>
</g>
</svg>
