<?xml version="1.0" encoding="UTF-8" standalone="no"?>
<!DOCTYPE svg PUBLIC "-//W3C//DTD SVG 1.1//EN"
 "http://www.w3.org/Graphics/SVG/1.1/DTD/svg11.dtd">
<!-- Generated by graphviz version 2.36.0 (20140111.2315)
 -->
<!-- Title: command.HomeCommand.run Pages: 1 -->
<svg width="404pt" height="66pt"
 viewBox="0.00 0.00 404.00 66.00" xmlns="http://www.w3.org/2000/svg" xmlns:xlink="http://www.w3.org/1999/xlink">
<g id="graph0" class="graph" transform="scale(1 1) rotate(0) translate(4 62)">
<title>command.HomeCommand.run</title>
<polygon fill="white" stroke="none" points="-4,4 -4,-62 400,-62 400,4 -4,4"/>
<!-- Node1 -->
<g id="node1" class="node"><title>Node1</title>
<polygon fill="#bfbfbf" stroke="black" points="0.5,-19.5 0.5,-38.5 167.5,-38.5 167.5,-19.5 0.5,-19.5"/>
<text text-anchor="middle" x="84" y="-26.5" font-family="Helvetica,sans-Serif" font-size="10.00">command.HomeCommand.run</text>
</g>
<!-- Node2 -->
<g id="node2" class="node"><title>Node2</title>
<g id="a_node2"><a xlink:href="../../d2/dda/classcommand_1_1_home_command.html#a0f4485e0766effe3ed62cc42a1ced43a" target="_top" xlink:title="command.HomeCommand.distance">
<polygon fill="white" stroke="black" points="204.5,-38.5 204.5,-57.5 395.5,-57.5 395.5,-38.5 204.5,-38.5"/>
<text text-anchor="middle" x="300" y="-45.5" font-family="Helvetica,sans-Serif" font-size="10.00">command.HomeCommand.distance</text>
</a>
</g>
</g>
<!-- Node1&#45;&gt;Node2 -->
<g id="edge1" class="edge"><title>Node1&#45;&gt;Node2</title>
<path fill="none" stroke="midnightblue" d="M167.738,-36.3459C176.454,-37.1198 185.398,-37.9138 194.319,-38.7059"/>
<polygon fill="midnightblue" stroke="midnightblue" points="194.1,-42.2001 204.37,-39.5983 194.719,-35.2275 194.1,-42.2001"/>
</g>
<!-- Node3 -->
<g id="node3" class="node"><title>Node3</title>
<g id="a_node3"><a xlink:href="../../df/dcb/classturtle_1_1_turtle.html#a5beb4f8b62b365363952d5ed4512435f" target="_top" xlink:title="turtle.Turtle.moveTo">
<polygon fill="white" stroke="black" points="245,-0.5 245,-19.5 355,-19.5 355,-0.5 245,-0.5"/>
<text text-anchor="middle" x="300" y="-7.5" font-family="Helvetica,sans-Serif" font-size="10.00">turtle.Turtle.moveTo</text>
</a>
</g>
</g>
<!-- Node1&#45;&gt;Node3 -->
<g id="edge2" class="edge"><title>Node1&#45;&gt;Node3</title>
<path fill="none" stroke="midnightblue" d="M167.738,-21.6541C189.975,-19.6798 213.687,-17.5745 234.754,-15.7041"/>
<polygon fill="midnightblue" stroke="midnightblue" points="235.214,-19.1771 244.865,-14.8064 234.594,-12.2046 235.214,-19.1771"/>
</g>
</g>
</svg>
