<?xml version="1.0" encoding="UTF-8" standalone="no"?>
<!DOCTYPE svg PUBLIC "-//W3C//DTD SVG 1.1//EN"
 "http://www.w3.org/Graphics/SVG/1.1/DTD/svg11.dtd">
<!-- Generated by graphviz version 2.36.0 (20140111.2315)
 -->
<!-- Title: command.HomeCommand.doCommand Pages: 1 -->
<svg width="450pt" height="104pt"
 viewBox="0.00 0.00 450.00 104.00" xmlns="http://www.w3.org/2000/svg" xmlns:xlink="http://www.w3.org/1999/xlink">
<g id="graph0" class="graph" transform="scale(1 1) rotate(0) translate(4 100)">
<title>command.HomeCommand.doCommand</title>
<polygon fill="white" stroke="none" points="-4,4 -4,-100 446,-100 446,4 -4,4"/>
<!-- Node1 -->
<g id="node1" class="node"><title>Node1</title>
<polygon fill="#bfbfbf" stroke="black" points="0.5,-38.5 0.5,-57.5 213.5,-57.5 213.5,-38.5 0.5,-38.5"/>
<text text-anchor="middle" x="107" y="-45.5" font-family="Helvetica,sans-Serif" font-size="10.00">command.HomeCommand.doCommand</text>
</g>
<!-- Node2 -->
<g id="node2" class="node"><title>Node2</title>
<g id="a_node2"><a xlink:href="../../d2/dda/classcommand_1_1_home_command.html#a0f4485e0766effe3ed62cc42a1ced43a" target="_top" xlink:title="command.HomeCommand.distance">
<polygon fill="white" stroke="black" points="250.5,-76.5 250.5,-95.5 441.5,-95.5 441.5,-76.5 250.5,-76.5"/>
<text text-anchor="middle" x="346" y="-83.5" font-family="Helvetica,sans-Serif" font-size="10.00">command.HomeCommand.distance</text>
</a>
</g>
</g>
<!-- Node1&#45;&gt;Node2 -->
<g id="edge1" class="edge"><title>Node1&#45;&gt;Node2</title>
<path fill="none" stroke="midnightblue" d="M167.499,-57.54C200.321,-62.8025 241.251,-69.3651 275.533,-74.8618"/>
<polygon fill="midnightblue" stroke="midnightblue" points="275.048,-78.3287 285.476,-76.4561 276.157,-71.417 275.048,-78.3287"/>
</g>
<!-- Node3 -->
<g id="node3" class="node"><title>Node3</title>
<g id="a_node3"><a xlink:href="../../df/dcb/classturtle_1_1_turtle.html#a5beb4f8b62b365363952d5ed4512435f" target="_top" xlink:title="turtle.Turtle.moveTo">
<polygon fill="white" stroke="black" points="291,-38.5 291,-57.5 401,-57.5 401,-38.5 291,-38.5"/>
<text text-anchor="middle" x="346" y="-45.5" font-family="Helvetica,sans-Serif" font-size="10.00">turtle.Turtle.moveTo</text>
</a>
</g>
</g>
<!-- Node1&#45;&gt;Node3 -->
<g id="edge2" class="edge"><title>Node1&#45;&gt;Node3</title>
<path fill="none" stroke="midnightblue" d="M213.677,-48C236.486,-48 259.936,-48 280.594,-48"/>
<polygon fill="midnightblue" stroke="midnightblue" points="280.809,-51.5001 290.808,-48 280.808,-44.5001 280.809,-51.5001"/>
</g>
<!-- Node4 -->
<g id="node4" class="node"><title>Node4</title>
<g id="a_node4"><a xlink:href="../../df/dcb/classturtle_1_1_turtle.html#abfdf6ff527b415b5e0f813b7daee4216" target="_top" xlink:title="turtle.Turtle.setHeading">
<polygon fill="white" stroke="black" points="282,-0.5 282,-19.5 410,-19.5 410,-0.5 282,-0.5"/>
<text text-anchor="middle" x="346" y="-7.5" font-family="Helvetica,sans-Serif" font-size="10.00">turtle.Turtle.setHeading</text>
</a>
</g>
</g>
<!-- Node1&#45;&gt;Node4 -->
<g id="edge3" class="edge"><title>Node1&#45;&gt;Node4</title>
<path fill="none" stroke="midnightblue" d="M167.499,-38.46C200.321,-33.1975 241.251,-26.6349 275.533,-21.1382"/>
<polygon fill="midnightblue" stroke="midnightblue" points="276.157,-24.583 285.476,-19.5439 275.048,-17.6713 276.157,-24.583"/>
</g>
</g>
</svg>
