<?xml version="1.0" encoding="UTF-8" standalone="no"?>
<!DOCTYPE svg PUBLIC "-//W3C//DTD SVG 1.1//EN"
 "http://www.w3.org/Graphics/SVG/1.1/DTD/svg11.dtd">
<!-- Generated by graphviz version 2.36.0 (20140111.2315)
 -->
<!-- Title: command.HomeCommand.run Pages: 1 -->
<svg width="404pt" height="104pt"
 viewBox="0.00 0.00 404.00 104.00" xmlns="http://www.w3.org/2000/svg" xmlns:xlink="http://www.w3.org/1999/xlink">
<g id="graph0" class="graph" transform="scale(1 1) rotate(0) translate(4 100)">
<title>command.HomeCommand.run</title>
<polygon fill="white" stroke="none" points="-4,4 -4,-100 400,-100 400,4 -4,4"/>
<!-- Node1 -->
<g id="node1" class="node"><title>Node1</title>
<polygon fill="#bfbfbf" stroke="black" points="0.5,-38.5 0.5,-57.5 167.5,-57.5 167.5,-38.5 0.5,-38.5"/>
<text text-anchor="middle" x="84" y="-45.5" font-family="Helvetica,sans-Serif" font-size="10.00">command.HomeCommand.run</text>
</g>
<!-- Node2 -->
<g id="node2" class="node"><title>Node2</title>
<g id="a_node2"><a xlink:href="../../d2/dda/classcommand_1_1_home_command.html#a0f4485e0766effe3ed62cc42a1ced43a" target="_top" xlink:title="command.HomeCommand.distance">
<polygon fill="white" stroke="black" points="204.5,-76.5 204.5,-95.5 395.5,-95.5 395.5,-76.5 204.5,-76.5"/>
<text text-anchor="middle" x="300" y="-83.5" font-family="Helvetica,sans-Serif" font-size="10.00">command.HomeCommand.distance</text>
</a>
</g>
</g>
<!-- Node1&#45;&gt;Node2 -->
<g id="edge1" class="edge"><title>Node1&#45;&gt;Node2</title>
<path fill="none" stroke="midnightblue" d="M138.725,-57.54C167.98,-62.7348 204.369,-69.1963 235.076,-74.6489"/>
<polygon fill="midnightblue" stroke="midnightblue" points="234.795,-78.1538 245.253,-76.4561 236.019,-71.2616 234.795,-78.1538"/>
</g>
<!-- Node3 -->
<g id="node3" class="node"><title>Node3</title>
<g id="a_node3"><a xlink:href="../../df/dcb/classturtle_1_1_turtle.html#a5beb4f8b62b365363952d5ed4512435f" target="_top" xlink:title="turtle.Turtle.moveTo">
<polygon fill="white" stroke="black" points="245,-38.5 245,-57.5 355,-57.5 355,-38.5 245,-38.5"/>
<text text-anchor="middle" x="300" y="-45.5" font-family="Helvetica,sans-Serif" font-size="10.00">turtle.Turtle.moveTo</text>
</a>
</g>
</g>
<!-- Node1&#45;&gt;Node3 -->
<g id="edge2" class="edge"><title>Node1&#45;&gt;Node3</title>
<path fill="none" stroke="midnightblue" d="M167.738,-48C189.975,-48 213.687,-48 234.754,-48"/>
<polygon fill="midnightblue" stroke="midnightblue" points="234.865,-51.5001 244.865,-48 234.865,-44.5001 234.865,-51.5001"/>
</g>
<!-- Node4 -->
<g id="node4" class="node"><title>Node4</title>
<g id="a_node4"><a xlink:href="../../df/dcb/classturtle_1_1_turtle.html#abfdf6ff527b415b5e0f813b7daee4216" target="_top" xlink:title="turtle.Turtle.setHeading">
<polygon fill="white" stroke="black" points="236,-0.5 236,-19.5 364,-19.5 364,-0.5 236,-0.5"/>
<text text-anchor="middle" x="300" y="-7.5" font-family="Helvetica,sans-Serif" font-size="10.00">turtle.Turtle.setHeading</text>
</a>
</g>
</g>
<!-- Node1&#45;&gt;Node4 -->
<g id="edge3" class="edge"><title>Node1&#45;&gt;Node4</title>
<path fill="none" stroke="midnightblue" d="M138.725,-38.46C167.98,-33.2652 204.369,-26.8037 235.076,-21.3511"/>
<polygon fill="midnightblue" stroke="midnightblue" points="236.019,-24.7384 245.253,-19.5439 234.795,-17.8462 236.019,-24.7384"/>
</g>
</g>
</svg>
