<?xml version="1.0" encoding="UTF-8" standalone="no"?>
<!DOCTYPE svg PUBLIC "-//W3C//DTD SVG 1.1//EN"
 "http://www.w3.org/Graphics/SVG/1.1/DTD/svg11.dtd">
<!-- Generated by graphviz version 2.36.0 (20140111.2315)
 -->
<!-- Title: parser.Node.getChild1 Pages: 1 -->
<svg width="1762pt" height="136pt"
 viewBox="0.00 0.00 1762.00 136.00" xmlns="http://www.w3.org/2000/svg" xmlns:xlink="http://www.w3.org/1999/xlink">
<g id="graph0" class="graph" transform="scale(1 1) rotate(0) translate(4 132)">
<title>parser.Node.getChild1</title>
<polygon fill="white" stroke="none" points="-4,4 -4,-132 1758,-132 1758,4 -4,4"/>
<!-- Node1 -->
<g id="node1" class="node"><title>Node1</title>
<polygon fill="#bfbfbf" stroke="black" points="0.5,-54.5 0.5,-73.5 123.5,-73.5 123.5,-54.5 0.5,-54.5"/>
<text text-anchor="middle" x="62" y="-61.5" font-family="Helvetica,sans-Serif" font-size="10.00">parser.Node.getChild1</text>
</g>
<!-- Node2 -->
<g id="node2" class="node"><title>Node2</title>
<g id="a_node2"><a xlink:href="../../d6/d95/classparser_1_1_parser.html#aac1cff62f68138c7e977a67d39671701" target="_top" xlink:title="parser.Parser.generateCommand\lInput">
<polygon fill="white" stroke="black" points="160,-98 160,-128 336,-128 336,-98 160,-98"/>
<text text-anchor="start" x="168" y="-116" font-family="Helvetica,sans-Serif" font-size="10.00">parser.Parser.generateCommand</text>
<text text-anchor="middle" x="248" y="-105" font-family="Helvetica,sans-Serif" font-size="10.00">Input</text>
</a>
</g>
</g>
<!-- Node1&#45;&gt;Node2 -->
<g id="edge1" class="edge"><title>Node1&#45;&gt;Node2</title>
<path fill="none" stroke="midnightblue" d="M108.773,-76.1896C133.524,-82.7808 164.306,-90.9782 190.535,-97.963"/>
<polygon fill="midnightblue" stroke="midnightblue" points="109.478,-72.7553 98.9139,-73.564 107.676,-79.5196 109.478,-72.7553"/>
</g>
<!-- Node12 -->
<g id="node12" class="node"><title>Node12</title>
<g id="a_node12"><a xlink:href="../../d6/d95/classparser_1_1_parser.html#a3efcd1192e76101919526b4a5e0046f4" target="_top" xlink:title="parser.Parser.getNodeBefore\lToReplace">
<polygon fill="white" stroke="black" points="170.5,-49 170.5,-79 325.5,-79 325.5,-49 170.5,-49"/>
<text text-anchor="start" x="178.5" y="-67" font-family="Helvetica,sans-Serif" font-size="10.00">parser.Parser.getNodeBefore</text>
<text text-anchor="middle" x="248" y="-56" font-family="Helvetica,sans-Serif" font-size="10.00">ToReplace</text>
</a>
</g>
</g>
<!-- Node1&#45;&gt;Node12 -->
<g id="edge11" class="edge"><title>Node1&#45;&gt;Node12</title>
<path fill="none" stroke="midnightblue" d="M133.857,-64C145.812,-64 158.269,-64 170.363,-64"/>
<polygon fill="midnightblue" stroke="midnightblue" points="133.503,-60.5001 123.503,-64 133.503,-67.5001 133.503,-60.5001"/>
</g>
<!-- Node13 -->
<g id="node13" class="node"><title>Node13</title>
<g id="a_node13"><a xlink:href="../../d6/d95/classparser_1_1_parser.html#a447c473b62ba23b7c144df9bb38a9a41" target="_top" xlink:title="parser.Parser.getNodeFor\lCommand">
<polygon fill="white" stroke="black" points="179,-0 179,-30 317,-30 317,-0 179,-0"/>
<text text-anchor="start" x="187" y="-18" font-family="Helvetica,sans-Serif" font-size="10.00">parser.Parser.getNodeFor</text>
<text text-anchor="middle" x="248" y="-7" font-family="Helvetica,sans-Serif" font-size="10.00">Command</text>
</a>
</g>
</g>
<!-- Node1&#45;&gt;Node13 -->
<g id="edge13" class="edge"><title>Node1&#45;&gt;Node13</title>
<path fill="none" stroke="midnightblue" d="M108.773,-51.8104C133.524,-45.2192 164.306,-37.0218 190.535,-30.037"/>
<polygon fill="midnightblue" stroke="midnightblue" points="107.676,-48.4804 98.9139,-54.436 109.478,-55.2447 107.676,-48.4804"/>
</g>
<!-- Node3 -->
<g id="node3" class="node"><title>Node3</title>
<g id="a_node3"><a xlink:href="../../d6/d95/classparser_1_1_parser.html#a4ecbffc246c3add017c4720eed4c6da9" target="_top" xlink:title="parser.Parser.parse">
<polygon fill="white" stroke="black" points="372.5,-54.5 372.5,-73.5 481.5,-73.5 481.5,-54.5 372.5,-54.5"/>
<text text-anchor="middle" x="427" y="-61.5" font-family="Helvetica,sans-Serif" font-size="10.00">parser.Parser.parse</text>
</a>
</g>
</g>
<!-- Node2&#45;&gt;Node3 -->
<g id="edge2" class="edge"><title>Node2&#45;&gt;Node3</title>
<path fill="none" stroke="midnightblue" d="M313.514,-95.1401C339.965,-87.8177 369.507,-79.6393 391.677,-73.5019"/>
<polygon fill="midnightblue" stroke="midnightblue" points="312.254,-91.8573 303.55,-97.8986 314.121,-98.6036 312.254,-91.8573"/>
</g>
<!-- Node4 -->
<g id="node4" class="node"><title>Node4</title>
<g id="a_node4"><a xlink:href="../../d6/d95/classparser_1_1_parser.html#a6b2d7b2b182d99537ce332ed0dfd3e03" target="_top" xlink:title="parser.Parser.main">
<polygon fill="white" stroke="black" points="518,-73.5 518,-92.5 624,-92.5 624,-73.5 518,-73.5"/>
<text text-anchor="middle" x="571" y="-80.5" font-family="Helvetica,sans-Serif" font-size="10.00">parser.Parser.main</text>
</a>
</g>
</g>
<!-- Node3&#45;&gt;Node4 -->
<g id="edge3" class="edge"><title>Node3&#45;&gt;Node4</title>
<path fill="none" stroke="midnightblue" d="M491.754,-72.5304C500.415,-73.6893 509.222,-74.8677 517.651,-75.9955"/>
<polygon fill="midnightblue" stroke="midnightblue" points="492.06,-69.0403 481.684,-71.1831 491.132,-75.9785 492.06,-69.0403"/>
</g>
<!-- Node5 -->
<g id="node5" class="node"><title>Node5</title>
<g id="a_node5"><a xlink:href="../../d9/dd0/classworld_1_1_world.html#ae370733f7784c42741a6ba66c7d2ecf5" target="_top" xlink:title="world.World.listen">
<polygon fill="white" stroke="black" points="522,-35.5 522,-54.5 620,-54.5 620,-35.5 522,-35.5"/>
<text text-anchor="middle" x="571" y="-42.5" font-family="Helvetica,sans-Serif" font-size="10.00">world.World.listen</text>
</a>
</g>
</g>
<!-- Node3&#45;&gt;Node5 -->
<g id="edge4" class="edge"><title>Node3&#45;&gt;Node5</title>
<path fill="none" stroke="midnightblue" d="M491.708,-55.4756C501.83,-54.1213 512.152,-52.7402 521.839,-51.4441"/>
<polygon fill="midnightblue" stroke="midnightblue" points="491.132,-52.0215 481.684,-56.8169 492.06,-58.9597 491.132,-52.0215"/>
</g>
<!-- Node6 -->
<g id="node6" class="node"><title>Node6</title>
<g id="a_node6"><a xlink:href="../../d8/d08/classworld_controller_1_1_world_controller.html#a178425d68e3e669c386706153ce44999" target="_top" xlink:title="worldController.WorldController.update">
<polygon fill="white" stroke="black" points="660,-35.5 660,-54.5 858,-54.5 858,-35.5 660,-35.5"/>
<text text-anchor="middle" x="759" y="-42.5" font-family="Helvetica,sans-Serif" font-size="10.00">worldController.WorldController.update</text>
</a>
</g>
</g>
<!-- Node5&#45;&gt;Node6 -->
<g id="edge5" class="edge"><title>Node5&#45;&gt;Node6</title>
<path fill="none" stroke="midnightblue" d="M630.637,-45C639.94,-45 649.777,-45 659.695,-45"/>
<polygon fill="midnightblue" stroke="midnightblue" points="630.384,-41.5001 620.384,-45 630.384,-48.5001 630.384,-41.5001"/>
</g>
<!-- Node7 -->
<g id="node7" class="node"><title>Node7</title>
<g id="a_node7"><a xlink:href="../../d0/d7c/classuser_interface_1_1_u_i.html#ab17592b00ba0b808f524b4fc223303ec" target="_top" xlink:title="userInterface.UI.runCommand">
<polygon fill="white" stroke="black" points="894.5,-35.5 894.5,-54.5 1055.5,-54.5 1055.5,-35.5 894.5,-35.5"/>
<text text-anchor="middle" x="975" y="-42.5" font-family="Helvetica,sans-Serif" font-size="10.00">userInterface.UI.runCommand</text>
</a>
</g>
</g>
<!-- Node6&#45;&gt;Node7 -->
<g id="edge6" class="edge"><title>Node6&#45;&gt;Node7</title>
<path fill="none" stroke="midnightblue" d="M868.451,-45C877.164,-45 885.863,-45 894.319,-45"/>
<polygon fill="midnightblue" stroke="midnightblue" points="868.231,-41.5001 858.231,-45 868.231,-48.5001 868.231,-41.5001"/>
</g>
<!-- Node8 -->
<g id="node8" class="node"><title>Node8</title>
<g id="a_node8"><a xlink:href="../../d0/d7c/classuser_interface_1_1_u_i.html#a02bd34909b5d6037ea8ebe812879b90a" target="_top" xlink:title="userInterface.UI.makeRun\lButton">
<polygon fill="white" stroke="black" points="1092,-30 1092,-60 1232,-60 1232,-30 1092,-30"/>
<text text-anchor="start" x="1100" y="-48" font-family="Helvetica,sans-Serif" font-size="10.00">userInterface.UI.makeRun</text>
<text text-anchor="middle" x="1162" y="-37" font-family="Helvetica,sans-Serif" font-size="10.00">Button</text>
</a>
</g>
</g>
<!-- Node7&#45;&gt;Node8 -->
<g id="edge7" class="edge"><title>Node7&#45;&gt;Node8</title>
<path fill="none" stroke="midnightblue" d="M1065.75,-45C1074.48,-45 1083.24,-45 1091.73,-45"/>
<polygon fill="midnightblue" stroke="midnightblue" points="1065.53,-41.5001 1055.53,-45 1065.53,-48.5001 1065.53,-41.5001"/>
</g>
<!-- Node9 -->
<g id="node9" class="node"><title>Node9</title>
<g id="a_node9"><a xlink:href="../../d0/d7c/classuser_interface_1_1_u_i.html#a9f7eaa121e1405b45e262f03859f9ff0" target="_top" xlink:title="userInterface.UI.setUpCommand\lField">
<polygon fill="white" stroke="black" points="1268,-30 1268,-60 1442,-60 1442,-30 1268,-30"/>
<text text-anchor="start" x="1276" y="-48" font-family="Helvetica,sans-Serif" font-size="10.00">userInterface.UI.setUpCommand</text>
<text text-anchor="middle" x="1355" y="-37" font-family="Helvetica,sans-Serif" font-size="10.00">Field</text>
</a>
</g>
</g>
<!-- Node8&#45;&gt;Node9 -->
<g id="edge8" class="edge"><title>Node8&#45;&gt;Node9</title>
<path fill="none" stroke="midnightblue" d="M1242.34,-45C1250.73,-45 1259.28,-45 1267.73,-45"/>
<polygon fill="midnightblue" stroke="midnightblue" points="1242.23,-41.5001 1232.23,-45 1242.23,-48.5001 1242.23,-41.5001"/>
</g>
<!-- Node10 -->
<g id="node10" class="node"><title>Node10</title>
<g id="a_node10"><a xlink:href="../../d0/d7c/classuser_interface_1_1_u_i.html#a3bbaba49b5a758cdab6fb4182e5dec4c" target="_top" xlink:title="userInterface.UI.initialize">
<polygon fill="white" stroke="black" points="1478,-35.5 1478,-54.5 1612,-54.5 1612,-35.5 1478,-35.5"/>
<text text-anchor="middle" x="1545" y="-42.5" font-family="Helvetica,sans-Serif" font-size="10.00">userInterface.UI.initialize</text>
</a>
</g>
</g>
<!-- Node9&#45;&gt;Node10 -->
<g id="edge9" class="edge"><title>Node9&#45;&gt;Node10</title>
<path fill="none" stroke="midnightblue" d="M1452.16,-45C1460.8,-45 1469.42,-45 1477.72,-45"/>
<polygon fill="midnightblue" stroke="midnightblue" points="1452.02,-41.5001 1442.02,-45 1452.02,-48.5001 1452.02,-41.5001"/>
</g>
<!-- Node11 -->
<g id="node11" class="node"><title>Node11</title>
<g id="a_node11"><a xlink:href="../../d0/d7c/classuser_interface_1_1_u_i.html#aad82f35446d97cd94d5003a2b995e264" target="_top" xlink:title="userInterface.UI.UI">
<polygon fill="white" stroke="black" points="1648.5,-35.5 1648.5,-54.5 1753.5,-54.5 1753.5,-35.5 1648.5,-35.5"/>
<text text-anchor="middle" x="1701" y="-42.5" font-family="Helvetica,sans-Serif" font-size="10.00">userInterface.UI.UI</text>
</a>
</g>
</g>
<!-- Node10&#45;&gt;Node11 -->
<g id="edge10" class="edge"><title>Node10&#45;&gt;Node11</title>
<path fill="none" stroke="midnightblue" d="M1622.44,-45C1631.19,-45 1639.95,-45 1648.27,-45"/>
<polygon fill="midnightblue" stroke="midnightblue" points="1622.2,-41.5001 1612.2,-45 1622.2,-48.5001 1622.2,-41.5001"/>
</g>
<!-- Node12&#45;&gt;Node3 -->
<g id="edge12" class="edge"><title>Node12&#45;&gt;Node3</title>
<path fill="none" stroke="midnightblue" d="M335.647,-64C348.205,-64 360.812,-64 372.458,-64"/>
<polygon fill="midnightblue" stroke="midnightblue" points="335.605,-60.5001 325.605,-64 335.605,-67.5001 335.605,-60.5001"/>
</g>
<!-- Node13&#45;&gt;Node3 -->
<g id="edge14" class="edge"><title>Node13&#45;&gt;Node3</title>
<path fill="none" stroke="midnightblue" d="M313.514,-32.8599C339.965,-40.1823 369.507,-48.3607 391.677,-54.4981"/>
<polygon fill="midnightblue" stroke="midnightblue" points="314.121,-29.3964 303.55,-30.1014 312.254,-36.1427 314.121,-29.3964"/>
</g>
</g>
</svg>
