<?xml version="1.0" encoding="UTF-8" standalone="no"?>
<!DOCTYPE svg PUBLIC "-//W3C//DTD SVG 1.1//EN"
 "http://www.w3.org/Graphics/SVG/1.1/DTD/svg11.dtd">
<!-- Generated by graphviz version 2.36.0 (20140111.2315)
 -->
<!-- Title: parser.Node.getValue Pages: 1 -->
<svg width="1758pt" height="126pt"
 viewBox="0.00 0.00 1758.00 126.00" xmlns="http://www.w3.org/2000/svg" xmlns:xlink="http://www.w3.org/1999/xlink">
<g id="graph0" class="graph" transform="scale(1 1) rotate(0) translate(4 122)">
<title>parser.Node.getValue</title>
<polygon fill="white" stroke="none" points="-4,4 -4,-122 1754,-122 1754,4 -4,4"/>
<!-- Node1 -->
<g id="node1" class="node"><title>Node1</title>
<polygon fill="#bfbfbf" stroke="black" points="0,-44.5 0,-63.5 120,-63.5 120,-44.5 0,-44.5"/>
<text text-anchor="middle" x="60" y="-51.5" font-family="Helvetica,sans-Serif" font-size="10.00">parser.Node.getValue</text>
</g>
<!-- Node2 -->
<g id="node2" class="node"><title>Node2</title>
<g id="a_node2"><a xlink:href="../../d6/d95/classparser_1_1_parser.html#aac1cff62f68138c7e977a67d39671701" target="_top" xlink:title="parser.Parser.generateCommand\lInput">
<polygon fill="white" stroke="black" points="156,-88 156,-118 332,-118 332,-88 156,-88"/>
<text text-anchor="start" x="164" y="-106" font-family="Helvetica,sans-Serif" font-size="10.00">parser.Parser.generateCommand</text>
<text text-anchor="middle" x="244" y="-95" font-family="Helvetica,sans-Serif" font-size="10.00">Input</text>
</a>
</g>
</g>
<!-- Node1&#45;&gt;Node2 -->
<g id="edge1" class="edge"><title>Node1&#45;&gt;Node2</title>
<path fill="none" stroke="midnightblue" d="M106.276,-66.1896C130.757,-72.7808 161.205,-80.9782 187.148,-87.963"/>
<polygon fill="midnightblue" stroke="midnightblue" points="107.09,-62.7842 96.5235,-63.564 105.27,-69.5435 107.09,-62.7842"/>
</g>
<!-- Node12 -->
<g id="node12" class="node"><title>Node12</title>
<g id="a_node12"><a xlink:href="../../d6/d95/classparser_1_1_parser.html#a3efcd1192e76101919526b4a5e0046f4" target="_top" xlink:title="parser.Parser.getNodeBefore\lToReplace">
<polygon fill="white" stroke="black" points="166.5,-39 166.5,-69 321.5,-69 321.5,-39 166.5,-39"/>
<text text-anchor="start" x="174.5" y="-57" font-family="Helvetica,sans-Serif" font-size="10.00">parser.Parser.getNodeBefore</text>
<text text-anchor="middle" x="244" y="-46" font-family="Helvetica,sans-Serif" font-size="10.00">ToReplace</text>
</a>
</g>
</g>
<!-- Node1&#45;&gt;Node12 -->
<g id="edge11" class="edge"><title>Node1&#45;&gt;Node12</title>
<path fill="none" stroke="midnightblue" d="M130.283,-54C142.058,-54 154.348,-54 166.3,-54"/>
<polygon fill="midnightblue" stroke="midnightblue" points="130.09,-50.5001 120.09,-54 130.09,-57.5001 130.09,-50.5001"/>
</g>
<!-- Node13 -->
<g id="node13" class="node"><title>Node13</title>
<g id="a_node13"><a xlink:href="../../d3/dcc/classparser_1_1_node.html#a066da2b478008f39a02440d7afceb9ee" target="_top" xlink:title="parser.Node.insertChild">
<polygon fill="white" stroke="black" points="180,-0.5 180,-19.5 308,-19.5 308,-0.5 180,-0.5"/>
<text text-anchor="middle" x="244" y="-7.5" font-family="Helvetica,sans-Serif" font-size="10.00">parser.Node.insertChild</text>
</a>
</g>
</g>
<!-- Node1&#45;&gt;Node13 -->
<g id="edge13" class="edge"><title>Node1&#45;&gt;Node13</title>
<path fill="none" stroke="midnightblue" d="M107.745,-41.9781C123.101,-38.0859 140.264,-33.7959 156,-30 170.463,-26.511 186.314,-22.8263 200.477,-19.5832"/>
<polygon fill="midnightblue" stroke="midnightblue" points="106.778,-38.6127 97.949,-44.4693 108.503,-45.3968 106.778,-38.6127"/>
</g>
<!-- Node3 -->
<g id="node3" class="node"><title>Node3</title>
<g id="a_node3"><a xlink:href="../../d6/d95/classparser_1_1_parser.html#a4ecbffc246c3add017c4720eed4c6da9" target="_top" xlink:title="parser.Parser.parse">
<polygon fill="white" stroke="black" points="368.5,-44.5 368.5,-63.5 477.5,-63.5 477.5,-44.5 368.5,-44.5"/>
<text text-anchor="middle" x="423" y="-51.5" font-family="Helvetica,sans-Serif" font-size="10.00">parser.Parser.parse</text>
</a>
</g>
</g>
<!-- Node2&#45;&gt;Node3 -->
<g id="edge2" class="edge"><title>Node2&#45;&gt;Node3</title>
<path fill="none" stroke="midnightblue" d="M309.514,-85.1401C335.965,-77.8177 365.507,-69.6393 387.677,-63.5019"/>
<polygon fill="midnightblue" stroke="midnightblue" points="308.254,-81.8573 299.55,-87.8986 310.121,-88.6036 308.254,-81.8573"/>
</g>
<!-- Node4 -->
<g id="node4" class="node"><title>Node4</title>
<g id="a_node4"><a xlink:href="../../d6/d95/classparser_1_1_parser.html#a6b2d7b2b182d99537ce332ed0dfd3e03" target="_top" xlink:title="parser.Parser.main">
<polygon fill="white" stroke="black" points="514,-63.5 514,-82.5 620,-82.5 620,-63.5 514,-63.5"/>
<text text-anchor="middle" x="567" y="-70.5" font-family="Helvetica,sans-Serif" font-size="10.00">parser.Parser.main</text>
</a>
</g>
</g>
<!-- Node3&#45;&gt;Node4 -->
<g id="edge3" class="edge"><title>Node3&#45;&gt;Node4</title>
<path fill="none" stroke="midnightblue" d="M487.754,-62.5304C496.415,-63.6893 505.222,-64.8677 513.651,-65.9955"/>
<polygon fill="midnightblue" stroke="midnightblue" points="488.06,-59.0403 477.684,-61.1831 487.132,-65.9785 488.06,-59.0403"/>
</g>
<!-- Node5 -->
<g id="node5" class="node"><title>Node5</title>
<g id="a_node5"><a xlink:href="../../d9/dd0/classworld_1_1_world.html#ae370733f7784c42741a6ba66c7d2ecf5" target="_top" xlink:title="world.World.listen">
<polygon fill="white" stroke="black" points="518,-25.5 518,-44.5 616,-44.5 616,-25.5 518,-25.5"/>
<text text-anchor="middle" x="567" y="-32.5" font-family="Helvetica,sans-Serif" font-size="10.00">world.World.listen</text>
</a>
</g>
</g>
<!-- Node3&#45;&gt;Node5 -->
<g id="edge4" class="edge"><title>Node3&#45;&gt;Node5</title>
<path fill="none" stroke="midnightblue" d="M487.708,-45.4756C497.83,-44.1213 508.152,-42.7402 517.839,-41.4441"/>
<polygon fill="midnightblue" stroke="midnightblue" points="487.132,-42.0215 477.684,-46.8169 488.06,-48.9597 487.132,-42.0215"/>
</g>
<!-- Node6 -->
<g id="node6" class="node"><title>Node6</title>
<g id="a_node6"><a xlink:href="../../d8/d08/classworld_controller_1_1_world_controller.html#a178425d68e3e669c386706153ce44999" target="_top" xlink:title="worldController.WorldController.update">
<polygon fill="white" stroke="black" points="656,-25.5 656,-44.5 854,-44.5 854,-25.5 656,-25.5"/>
<text text-anchor="middle" x="755" y="-32.5" font-family="Helvetica,sans-Serif" font-size="10.00">worldController.WorldController.update</text>
</a>
</g>
</g>
<!-- Node5&#45;&gt;Node6 -->
<g id="edge5" class="edge"><title>Node5&#45;&gt;Node6</title>
<path fill="none" stroke="midnightblue" d="M626.637,-35C635.94,-35 645.777,-35 655.695,-35"/>
<polygon fill="midnightblue" stroke="midnightblue" points="626.384,-31.5001 616.384,-35 626.384,-38.5001 626.384,-31.5001"/>
</g>
<!-- Node7 -->
<g id="node7" class="node"><title>Node7</title>
<g id="a_node7"><a xlink:href="../../d0/d7c/classuser_interface_1_1_u_i.html#ab17592b00ba0b808f524b4fc223303ec" target="_top" xlink:title="userInterface.UI.runCommand">
<polygon fill="white" stroke="black" points="890.5,-25.5 890.5,-44.5 1051.5,-44.5 1051.5,-25.5 890.5,-25.5"/>
<text text-anchor="middle" x="971" y="-32.5" font-family="Helvetica,sans-Serif" font-size="10.00">userInterface.UI.runCommand</text>
</a>
</g>
</g>
<!-- Node6&#45;&gt;Node7 -->
<g id="edge6" class="edge"><title>Node6&#45;&gt;Node7</title>
<path fill="none" stroke="midnightblue" d="M864.451,-35C873.164,-35 881.863,-35 890.319,-35"/>
<polygon fill="midnightblue" stroke="midnightblue" points="864.231,-31.5001 854.231,-35 864.231,-38.5001 864.231,-31.5001"/>
</g>
<!-- Node8 -->
<g id="node8" class="node"><title>Node8</title>
<g id="a_node8"><a xlink:href="../../d0/d7c/classuser_interface_1_1_u_i.html#a02bd34909b5d6037ea8ebe812879b90a" target="_top" xlink:title="userInterface.UI.makeRun\lButton">
<polygon fill="white" stroke="black" points="1088,-20 1088,-50 1228,-50 1228,-20 1088,-20"/>
<text text-anchor="start" x="1096" y="-38" font-family="Helvetica,sans-Serif" font-size="10.00">userInterface.UI.makeRun</text>
<text text-anchor="middle" x="1158" y="-27" font-family="Helvetica,sans-Serif" font-size="10.00">Button</text>
</a>
</g>
</g>
<!-- Node7&#45;&gt;Node8 -->
<g id="edge7" class="edge"><title>Node7&#45;&gt;Node8</title>
<path fill="none" stroke="midnightblue" d="M1061.75,-35C1070.48,-35 1079.24,-35 1087.73,-35"/>
<polygon fill="midnightblue" stroke="midnightblue" points="1061.53,-31.5001 1051.53,-35 1061.53,-38.5001 1061.53,-31.5001"/>
</g>
<!-- Node9 -->
<g id="node9" class="node"><title>Node9</title>
<g id="a_node9"><a xlink:href="../../d0/d7c/classuser_interface_1_1_u_i.html#a9f7eaa121e1405b45e262f03859f9ff0" target="_top" xlink:title="userInterface.UI.setUpCommand\lField">
<polygon fill="white" stroke="black" points="1264,-20 1264,-50 1438,-50 1438,-20 1264,-20"/>
<text text-anchor="start" x="1272" y="-38" font-family="Helvetica,sans-Serif" font-size="10.00">userInterface.UI.setUpCommand</text>
<text text-anchor="middle" x="1351" y="-27" font-family="Helvetica,sans-Serif" font-size="10.00">Field</text>
</a>
</g>
</g>
<!-- Node8&#45;&gt;Node9 -->
<g id="edge8" class="edge"><title>Node8&#45;&gt;Node9</title>
<path fill="none" stroke="midnightblue" d="M1238.34,-35C1246.73,-35 1255.28,-35 1263.73,-35"/>
<polygon fill="midnightblue" stroke="midnightblue" points="1238.23,-31.5001 1228.23,-35 1238.23,-38.5001 1238.23,-31.5001"/>
</g>
<!-- Node10 -->
<g id="node10" class="node"><title>Node10</title>
<g id="a_node10"><a xlink:href="../../d0/d7c/classuser_interface_1_1_u_i.html#a3bbaba49b5a758cdab6fb4182e5dec4c" target="_top" xlink:title="userInterface.UI.initialize">
<polygon fill="white" stroke="black" points="1474,-25.5 1474,-44.5 1608,-44.5 1608,-25.5 1474,-25.5"/>
<text text-anchor="middle" x="1541" y="-32.5" font-family="Helvetica,sans-Serif" font-size="10.00">userInterface.UI.initialize</text>
</a>
</g>
</g>
<!-- Node9&#45;&gt;Node10 -->
<g id="edge9" class="edge"><title>Node9&#45;&gt;Node10</title>
<path fill="none" stroke="midnightblue" d="M1448.16,-35C1456.8,-35 1465.42,-35 1473.72,-35"/>
<polygon fill="midnightblue" stroke="midnightblue" points="1448.02,-31.5001 1438.02,-35 1448.02,-38.5001 1448.02,-31.5001"/>
</g>
<!-- Node11 -->
<g id="node11" class="node"><title>Node11</title>
<g id="a_node11"><a xlink:href="../../d0/d7c/classuser_interface_1_1_u_i.html#aad82f35446d97cd94d5003a2b995e264" target="_top" xlink:title="userInterface.UI.UI">
<polygon fill="white" stroke="black" points="1644.5,-25.5 1644.5,-44.5 1749.5,-44.5 1749.5,-25.5 1644.5,-25.5"/>
<text text-anchor="middle" x="1697" y="-32.5" font-family="Helvetica,sans-Serif" font-size="10.00">userInterface.UI.UI</text>
</a>
</g>
</g>
<!-- Node10&#45;&gt;Node11 -->
<g id="edge10" class="edge"><title>Node10&#45;&gt;Node11</title>
<path fill="none" stroke="midnightblue" d="M1618.44,-35C1627.19,-35 1635.95,-35 1644.27,-35"/>
<polygon fill="midnightblue" stroke="midnightblue" points="1618.2,-31.5001 1608.2,-35 1618.2,-38.5001 1618.2,-31.5001"/>
</g>
<!-- Node12&#45;&gt;Node3 -->
<g id="edge12" class="edge"><title>Node12&#45;&gt;Node3</title>
<path fill="none" stroke="midnightblue" d="M331.647,-54C344.205,-54 356.812,-54 368.458,-54"/>
<polygon fill="midnightblue" stroke="midnightblue" points="331.605,-50.5001 321.605,-54 331.605,-57.5001 331.605,-50.5001"/>
</g>
<!-- Node13&#45;&gt;Node3 -->
<g id="edge14" class="edge"><title>Node13&#45;&gt;Node3</title>
<path fill="none" stroke="midnightblue" d="M297.758,-21.8197C309.073,-24.4408 320.948,-27.2569 332,-30 350.363,-34.5576 370.74,-39.9624 387.455,-44.4879"/>
<polygon fill="midnightblue" stroke="midnightblue" points="298.524,-18.4045 287.994,-19.5732 296.954,-25.2263 298.524,-18.4045"/>
</g>
</g>
</svg>
