<?xml version="1.0" encoding="UTF-8" standalone="no"?>
<!DOCTYPE svg PUBLIC "-//W3C//DTD SVG 1.1//EN"
 "http://www.w3.org/Graphics/SVG/1.1/DTD/svg11.dtd">
<!-- Generated by graphviz version 2.36.0 (20140111.2315)
 -->
<!-- Title: parser.Node.getValue Pages: 1 -->
<svg width="1688pt" height="141pt"
 viewBox="0.00 0.00 1688.00 141.00" xmlns="http://www.w3.org/2000/svg" xmlns:xlink="http://www.w3.org/1999/xlink">
<g id="graph0" class="graph" transform="scale(1 1) rotate(0) translate(4 137)">
<title>parser.Node.getValue</title>
<polygon fill="white" stroke="none" points="-4,4 -4,-137 1684,-137 1684,4 -4,4"/>
<!-- Node1 -->
<g id="node1" class="node"><title>Node1</title>
<polygon fill="#bfbfbf" stroke="black" points="0,-69.5 0,-88.5 120,-88.5 120,-69.5 0,-69.5"/>
<text text-anchor="middle" x="60" y="-76.5" font-family="Helvetica,sans-Serif" font-size="10.00">parser.Node.getValue</text>
</g>
<!-- Node2 -->
<g id="node2" class="node"><title>Node2</title>
<g id="a_node2"><a xlink:href="../../d6/d95/classparser_1_1_parser.html#aac1cff62f68138c7e977a67d39671701" target="_top" xlink:title="parser.Parser.generateCommand\lInput">
<polygon fill="white" stroke="black" points="156,-64 156,-94 332,-94 332,-64 156,-64"/>
<text text-anchor="start" x="164" y="-82" font-family="Helvetica,sans-Serif" font-size="10.00">parser.Parser.generateCommand</text>
<text text-anchor="middle" x="244" y="-71" font-family="Helvetica,sans-Serif" font-size="10.00">Input</text>
</a>
</g>
</g>
<!-- Node1&#45;&gt;Node2 -->
<g id="edge1" class="edge"><title>Node1&#45;&gt;Node2</title>
<path fill="none" stroke="midnightblue" d="M130.163,-79C138.544,-79 147.189,-79 155.788,-79"/>
<polygon fill="midnightblue" stroke="midnightblue" points="130.09,-75.5001 120.09,-79 130.09,-82.5001 130.09,-75.5001"/>
</g>
<!-- Node12 -->
<g id="node12" class="node"><title>Node12</title>
<g id="a_node12"><a xlink:href="../../d6/d95/classparser_1_1_parser.html#a240c75608624a9c67402a296855c4d1d" target="_top" xlink:title="parser.Parser.initialize\lCommands">
<polygon fill="white" stroke="black" points="368,-20 368,-50 488,-50 488,-20 368,-20"/>
<text text-anchor="start" x="376" y="-38" font-family="Helvetica,sans-Serif" font-size="10.00">parser.Parser.initialize</text>
<text text-anchor="middle" x="428" y="-27" font-family="Helvetica,sans-Serif" font-size="10.00">Commands</text>
</a>
</g>
</g>
<!-- Node1&#45;&gt;Node12 -->
<g id="edge12" class="edge"><title>Node1&#45;&gt;Node12</title>
<path fill="none" stroke="midnightblue" d="M101.481,-66.5585C118.205,-61.8881 137.885,-56.9915 156,-54 228.36,-42.0507 312.803,-37.6076 367.951,-35.9608"/>
<polygon fill="midnightblue" stroke="midnightblue" points="100.14,-63.3015 91.4895,-69.4182 102.067,-70.0313 100.14,-63.3015"/>
</g>
<!-- Node13 -->
<g id="node13" class="node"><title>Node13</title>
<g id="a_node13"><a xlink:href="../../d3/dcc/classparser_1_1_node.html#a066da2b478008f39a02440d7afceb9ee" target="_top" xlink:title="parser.Node.insertChild">
<polygon fill="white" stroke="black" points="180,-113.5 180,-132.5 308,-132.5 308,-113.5 180,-113.5"/>
<text text-anchor="middle" x="244" y="-120.5" font-family="Helvetica,sans-Serif" font-size="10.00">parser.Node.insertChild</text>
</a>
</g>
</g>
<!-- Node1&#45;&gt;Node13 -->
<g id="edge15" class="edge"><title>Node1&#45;&gt;Node13</title>
<path fill="none" stroke="midnightblue" d="M107.745,-91.0219C123.101,-94.9141 140.264,-99.2041 156,-103 170.463,-106.489 186.314,-110.174 200.477,-113.417"/>
<polygon fill="midnightblue" stroke="midnightblue" points="108.503,-87.6032 97.949,-88.5307 106.778,-94.3873 108.503,-87.6032"/>
</g>
<!-- Node3 -->
<g id="node3" class="node"><title>Node3</title>
<g id="a_node3"><a xlink:href="../../d6/d95/classparser_1_1_parser.html#a4ecbffc246c3add017c4720eed4c6da9" target="_top" xlink:title="parser.Parser.parse">
<polygon fill="white" stroke="black" points="373.5,-69.5 373.5,-88.5 482.5,-88.5 482.5,-69.5 373.5,-69.5"/>
<text text-anchor="middle" x="428" y="-76.5" font-family="Helvetica,sans-Serif" font-size="10.00">parser.Parser.parse</text>
</a>
</g>
</g>
<!-- Node2&#45;&gt;Node3 -->
<g id="edge2" class="edge"><title>Node2&#45;&gt;Node3</title>
<path fill="none" stroke="midnightblue" d="M342.231,-79C352.884,-79 363.422,-79 373.258,-79"/>
<polygon fill="midnightblue" stroke="midnightblue" points="342.002,-75.5001 332.002,-79 342.002,-82.5001 342.002,-75.5001"/>
</g>
<!-- Node4 -->
<g id="node4" class="node"><title>Node4</title>
<g id="a_node4"><a xlink:href="../../d6/d95/classparser_1_1_parser.html#a6b2d7b2b182d99537ce332ed0dfd3e03" target="_top" xlink:title="parser.Parser.main">
<polygon fill="white" stroke="black" points="524,-67.5 524,-86.5 630,-86.5 630,-67.5 524,-67.5"/>
<text text-anchor="middle" x="577" y="-74.5" font-family="Helvetica,sans-Serif" font-size="10.00">parser.Parser.main</text>
</a>
</g>
</g>
<!-- Node3&#45;&gt;Node4 -->
<g id="edge3" class="edge"><title>Node3&#45;&gt;Node4</title>
<path fill="none" stroke="midnightblue" d="M493.001,-78.1292C503.212,-77.9903 513.672,-77.848 523.575,-77.7133"/>
<polygon fill="midnightblue" stroke="midnightblue" points="492.854,-74.6308 482.903,-78.2666 492.949,-81.6302 492.854,-74.6308"/>
</g>
<!-- Node5 -->
<g id="node5" class="node"><title>Node5</title>
<g id="a_node5"><a xlink:href="../../d9/dd0/classworld_1_1_world.html#ae370733f7784c42741a6ba66c7d2ecf5" target="_top" xlink:title="world.World.listen">
<polygon fill="white" stroke="black" points="528,-28.5 528,-47.5 626,-47.5 626,-28.5 528,-28.5"/>
<text text-anchor="middle" x="577" y="-35.5" font-family="Helvetica,sans-Serif" font-size="10.00">world.World.listen</text>
</a>
</g>
</g>
<!-- Node3&#45;&gt;Node5 -->
<g id="edge4" class="edge"><title>Node3&#45;&gt;Node5</title>
<path fill="none" stroke="midnightblue" d="M472.896,-66.7569C494.962,-60.6024 521.303,-53.2557 541.836,-47.5286"/>
<polygon fill="midnightblue" stroke="midnightblue" points="471.786,-63.4327 463.094,-69.4907 473.667,-70.1754 471.786,-63.4327"/>
</g>
<!-- Node6 -->
<g id="node6" class="node"><title>Node6</title>
<g id="a_node6"><a xlink:href="../../d8/d08/classworld_controller_1_1_world_controller.html#a178425d68e3e669c386706153ce44999" target="_top" xlink:title="worldController.WorldController.update">
<polygon fill="white" stroke="black" points="666,-28.5 666,-47.5 864,-47.5 864,-28.5 666,-28.5"/>
<text text-anchor="middle" x="765" y="-35.5" font-family="Helvetica,sans-Serif" font-size="10.00">worldController.WorldController.update</text>
</a>
</g>
</g>
<!-- Node5&#45;&gt;Node6 -->
<g id="edge5" class="edge"><title>Node5&#45;&gt;Node6</title>
<path fill="none" stroke="midnightblue" d="M636.637,-38C645.94,-38 655.777,-38 665.695,-38"/>
<polygon fill="midnightblue" stroke="midnightblue" points="636.384,-34.5001 626.384,-38 636.384,-41.5001 636.384,-34.5001"/>
</g>
<!-- Node7 -->
<g id="node7" class="node"><title>Node7</title>
<g id="a_node7"><a xlink:href="../../dd/d8e/classuser_interface_1_1_user_interface.html#a95e324c85888faea808be269e44ed5b8" target="_top" xlink:title="userInterface.UserInterface.run\lCommand">
<polygon fill="white" stroke="black" points="900,-23 900,-53 1066,-53 1066,-23 900,-23"/>
<text text-anchor="start" x="908" y="-41" font-family="Helvetica,sans-Serif" font-size="10.00">userInterface.UserInterface.run</text>
<text text-anchor="middle" x="983" y="-30" font-family="Helvetica,sans-Serif" font-size="10.00">Command</text>
</a>
</g>
</g>
<!-- Node6&#45;&gt;Node7 -->
<g id="edge6" class="edge"><title>Node6&#45;&gt;Node7</title>
<path fill="none" stroke="midnightblue" d="M874.29,-38C882.892,-38 891.492,-38 899.871,-38"/>
<polygon fill="midnightblue" stroke="midnightblue" points="874.203,-34.5001 864.203,-38 874.203,-41.5001 874.203,-34.5001"/>
</g>
<!-- Node8 -->
<g id="node8" class="node"><title>Node8</title>
<g id="a_node8"><a xlink:href="../../dd/d8e/classuser_interface_1_1_user_interface.html#a560c36977fddeee87002333870c54ed6" target="_top" xlink:title="userInterface.UserInterface.set\lUpResponses">
<polygon fill="white" stroke="black" points="1322.5,-49 1322.5,-79 1487.5,-79 1487.5,-49 1322.5,-49"/>
<text text-anchor="start" x="1330.5" y="-67" font-family="Helvetica,sans-Serif" font-size="10.00">userInterface.UserInterface.set</text>
<text text-anchor="middle" x="1405" y="-56" font-family="Helvetica,sans-Serif" font-size="10.00">UpResponses</text>
</a>
</g>
</g>
<!-- Node7&#45;&gt;Node8 -->
<g id="edge7" class="edge"><title>Node7&#45;&gt;Node8</title>
<path fill="none" stroke="midnightblue" d="M1076.4,-43.7203C1149.91,-48.2707 1251.79,-54.5772 1322.33,-58.9441"/>
<polygon fill="midnightblue" stroke="midnightblue" points="1076.42,-40.2149 1066.23,-43.0903 1075.99,-47.2015 1076.42,-40.2149"/>
</g>
<!-- Node10 -->
<g id="node10" class="node"><title>Node10</title>
<g id="a_node10"><a xlink:href="../../dd/d8e/classuser_interface_1_1_user_interface.html#a4316649a1f81fcc1dcaf93c812bf6f3a" target="_top" xlink:title="userInterface.UserInterface.make\lRunButton">
<polygon fill="white" stroke="black" points="1102.5,-1 1102.5,-31 1279.5,-31 1279.5,-1 1102.5,-1"/>
<text text-anchor="start" x="1110.5" y="-19" font-family="Helvetica,sans-Serif" font-size="10.00">userInterface.UserInterface.make</text>
<text text-anchor="middle" x="1191" y="-8" font-family="Helvetica,sans-Serif" font-size="10.00">RunButton</text>
</a>
</g>
</g>
<!-- Node7&#45;&gt;Node10 -->
<g id="edge9" class="edge"><title>Node7&#45;&gt;Node10</title>
<path fill="none" stroke="midnightblue" d="M1076.12,-28.1618C1084.79,-27.2361 1093.56,-26.2994 1102.19,-25.3781"/>
<polygon fill="midnightblue" stroke="midnightblue" points="1075.58,-24.6996 1066.01,-29.2418 1076.32,-31.66 1075.58,-24.6996"/>
</g>
<!-- Node9 -->
<g id="node9" class="node"><title>Node9</title>
<g id="a_node9"><a xlink:href="../../dd/d8e/classuser_interface_1_1_user_interface.html#af296b064499e62c4fbfbf73da6456532" target="_top" xlink:title="userInterface.UserInterface.\lUserInterface">
<polygon fill="white" stroke="black" points="1530,-24 1530,-54 1680,-54 1680,-24 1530,-24"/>
<text text-anchor="start" x="1538" y="-42" font-family="Helvetica,sans-Serif" font-size="10.00">userInterface.UserInterface.</text>
<text text-anchor="middle" x="1605" y="-31" font-family="Helvetica,sans-Serif" font-size="10.00">UserInterface</text>
</a>
</g>
</g>
<!-- Node8&#45;&gt;Node9 -->
<g id="edge8" class="edge"><title>Node8&#45;&gt;Node9</title>
<path fill="none" stroke="midnightblue" d="M1497.88,-52.3986C1508.58,-51.0478 1519.39,-49.683 1529.81,-48.3677"/>
<polygon fill="midnightblue" stroke="midnightblue" points="1497.16,-48.962 1487.68,-53.6872 1498.04,-55.9069 1497.16,-48.962"/>
</g>
<!-- Node11 -->
<g id="node11" class="node"><title>Node11</title>
<g id="a_node11"><a xlink:href="../../dd/d8e/classuser_interface_1_1_user_interface.html#a6d39ee7d7ae35fc0539bb714bce6221a" target="_top" xlink:title="userInterface.UserInterface.make\lFunctionButtons">
<polygon fill="white" stroke="black" points="1316.5,-0 1316.5,-30 1493.5,-30 1493.5,-0 1316.5,-0"/>
<text text-anchor="start" x="1324.5" y="-18" font-family="Helvetica,sans-Serif" font-size="10.00">userInterface.UserInterface.make</text>
<text text-anchor="middle" x="1405" y="-7" font-family="Helvetica,sans-Serif" font-size="10.00">FunctionButtons</text>
</a>
</g>
</g>
<!-- Node10&#45;&gt;Node11 -->
<g id="edge10" class="edge"><title>Node10&#45;&gt;Node11</title>
<path fill="none" stroke="midnightblue" d="M1290.01,-15.5377C1298.78,-15.4963 1307.63,-15.4546 1316.31,-15.4136"/>
<polygon fill="midnightblue" stroke="midnightblue" points="1289.74,-12.0388 1279.76,-15.586 1289.78,-19.0387 1289.74,-12.0388"/>
</g>
<!-- Node11&#45;&gt;Node9 -->
<g id="edge11" class="edge"><title>Node11&#45;&gt;Node9</title>
<path fill="none" stroke="midnightblue" d="M1503.67,-26.8393C1512.52,-27.9113 1521.38,-28.985 1529.97,-30.0262"/>
<polygon fill="midnightblue" stroke="midnightblue" points="1504.06,-23.3604 1493.71,-25.6316 1503.22,-30.3095 1504.06,-23.3604"/>
</g>
<!-- Node12&#45;&gt;Node4 -->
<g id="edge13" class="edge"><title>Node12&#45;&gt;Node4</title>
<path fill="none" stroke="midnightblue" d="M491.297,-52.7993C508.863,-57.818 527.302,-63.0864 542.475,-67.4215"/>
<polygon fill="midnightblue" stroke="midnightblue" points="492.232,-49.4263 481.655,-50.0443 490.309,-56.157 492.232,-49.4263"/>
</g>
<!-- Node12&#45;&gt;Node5 -->
<g id="edge14" class="edge"><title>Node12&#45;&gt;Node5</title>
<path fill="none" stroke="midnightblue" d="M498.568,-36.4198C508.418,-36.6208 518.363,-36.8237 527.692,-37.0141"/>
<polygon fill="midnightblue" stroke="midnightblue" points="498.436,-32.9164 488.367,-36.2116 498.293,-39.915 498.436,-32.9164"/>
</g>
<!-- Node13&#45;&gt;Node3 -->
<g id="edge16" class="edge"><title>Node13&#45;&gt;Node3</title>
<path fill="none" stroke="midnightblue" d="M297.374,-111.152C308.797,-108.514 320.814,-105.699 332,-103 351.183,-98.3726 372.487,-93.011 390.051,-88.5307"/>
<polygon fill="midnightblue" stroke="midnightblue" points="296.485,-107.765 287.523,-113.417 298.053,-114.587 296.485,-107.765"/>
</g>
</g>
</svg>
