<?xml version="1.0" encoding="UTF-8" standalone="no"?>
<!DOCTYPE svg PUBLIC "-//W3C//DTD SVG 1.1//EN"
 "http://www.w3.org/Graphics/SVG/1.1/DTD/svg11.dtd">
<!-- Generated by graphviz version 2.36.0 (20140111.2315)
 -->
<!-- Title: world.World Pages: 1 -->
<svg width="693pt" height="254pt"
 viewBox="0.00 0.00 693.00 254.00" xmlns="http://www.w3.org/2000/svg" xmlns:xlink="http://www.w3.org/1999/xlink">
<g id="graph0" class="graph" transform="scale(1 1) rotate(0) translate(4 250)">
<title>world.World</title>
<polygon fill="white" stroke="none" points="-4,4 -4,-250 689,-250 689,4 -4,4"/>
<!-- Node1 -->
<g id="node1" class="node"><title>Node1</title>
<polygon fill="#bfbfbf" stroke="black" points="451,-0.5 451,-19.5 521,-19.5 521,-0.5 451,-0.5"/>
<text text-anchor="middle" x="486" y="-7.5" font-family="Helvetica,sans-Serif" font-size="10.00">world.World</text>
</g>
<!-- Node2 -->
<g id="node2" class="node"><title>Node2</title>
<g id="a_node2"><a xlink:href="../../df/dcb/classturtle_1_1_turtle.html" target="_top" xlink:title="turtle.Turtle">
<polygon fill="white" stroke="black" points="159.5,-78.5 159.5,-97.5 230.5,-97.5 230.5,-78.5 159.5,-78.5"/>
<text text-anchor="middle" x="195" y="-85.5" font-family="Helvetica,sans-Serif" font-size="10.00">turtle.Turtle</text>
</a>
</g>
</g>
<!-- Node2&#45;&gt;Node1 -->
<g id="edge1" class="edge"><title>Node2&#45;&gt;Node1</title>
<path fill="none" stroke="#9a32cd" stroke-dasharray="5,2" d="M233.917,-75.5694C269.293,-65.3064 322.989,-50.0463 370,-38 397.041,-31.071 427.82,-23.9414 450.876,-18.7498"/>
<polygon fill="#9a32cd" stroke="#9a32cd" points="232.625,-72.3003 224.001,-78.4547 234.58,-79.0216 232.625,-72.3003"/>
<text text-anchor="middle" x="397.5" y="-52" font-family="Helvetica,sans-Serif" font-size="10.00"> myTurtle</text>
<text text-anchor="middle" x="397.5" y="-41" font-family="Helvetica,sans-Serif" font-size="10.00">activeTurtle</text>
</g>
<!-- Node3 -->
<g id="node3" class="node"><title>Node3</title>
<polygon fill="white" stroke="#bfbfbf" points="0,-157.5 0,-176.5 68,-176.5 68,-157.5 0,-157.5"/>
<text text-anchor="middle" x="34" y="-164.5" font-family="Helvetica,sans-Serif" font-size="10.00">ImageView</text>
</g>
<!-- Node3&#45;&gt;Node2 -->
<g id="edge2" class="edge"><title>Node3&#45;&gt;Node2</title>
<path fill="none" stroke="midnightblue" d="M59.0566,-152.631C78.7225,-142.281 106.882,-127.774 132,-116 145.899,-109.485 161.788,-102.68 174.131,-97.5314"/>
<polygon fill="midnightblue" stroke="midnightblue" points="57.3399,-149.58 50.1353,-157.348 60.6117,-155.768 57.3399,-149.58"/>
</g>
<!-- Node4 -->
<g id="node4" class="node"><title>Node4</title>
<g id="a_node4"><a xlink:href="../../de/d57/classturtle_1_1_pen.html" target="_top" xlink:title="turtle.Pen">
<polygon fill="white" stroke="black" points="86.5,-157.5 86.5,-176.5 149.5,-176.5 149.5,-157.5 86.5,-157.5"/>
<text text-anchor="middle" x="118" y="-164.5" font-family="Helvetica,sans-Serif" font-size="10.00">turtle.Pen</text>
</a>
</g>
</g>
<!-- Node4&#45;&gt;Node2 -->
<g id="edge3" class="edge"><title>Node4&#45;&gt;Node2</title>
<path fill="none" stroke="#9a32cd" stroke-dasharray="5,2" d="M128.233,-148.662C134.79,-138.436 143.938,-125.651 154,-116 161.504,-108.802 171.167,-102.333 179.228,-97.5323"/>
<polygon fill="#9a32cd" stroke="#9a32cd" points="125.057,-147.146 122.796,-157.496 131.018,-150.815 125.057,-147.146"/>
<text text-anchor="middle" x="172.5" y="-124.5" font-family="Helvetica,sans-Serif" font-size="10.00"> myPen</text>
</g>
<!-- Node5 -->
<g id="node5" class="node"><title>Node5</title>
<polygon fill="white" stroke="#bfbfbf" points="98,-226.5 98,-245.5 138,-245.5 138,-226.5 98,-226.5"/>
<text text-anchor="middle" x="118" y="-233.5" font-family="Helvetica,sans-Serif" font-size="10.00">Paint</text>
</g>
<!-- Node5&#45;&gt;Node4 -->
<g id="edge4" class="edge"><title>Node5&#45;&gt;Node4</title>
<path fill="none" stroke="#9a32cd" stroke-dasharray="5,2" d="M118,-216.018C118,-203.034 118,-186.442 118,-176.549"/>
<polygon fill="#9a32cd" stroke="#9a32cd" points="114.5,-216.241 118,-226.241 121.5,-216.241 114.5,-216.241"/>
<text text-anchor="middle" x="148.5" y="-199.5" font-family="Helvetica,sans-Serif" font-size="10.00"> myPenColor</text>
</g>
<!-- Node6 -->
<g id="node6" class="node"><title>Node6</title>
<polygon fill="white" stroke="#bfbfbf" points="168,-157.5 168,-176.5 222,-176.5 222,-157.5 168,-157.5"/>
<text text-anchor="middle" x="195" y="-164.5" font-family="Helvetica,sans-Serif" font-size="10.00">Point2D</text>
</g>
<!-- Node6&#45;&gt;Node2 -->
<g id="edge5" class="edge"><title>Node6&#45;&gt;Node2</title>
<path fill="none" stroke="#9a32cd" stroke-dasharray="5,2" d="M195,-147.315C195,-131.592 195,-109.808 195,-97.8094"/>
<polygon fill="#9a32cd" stroke="#9a32cd" points="191.5,-147.465 195,-157.465 198.5,-147.465 191.5,-147.465"/>
<text text-anchor="middle" x="212.5" y="-130" font-family="Helvetica,sans-Serif" font-size="10.00"> next</text>
<text text-anchor="middle" x="212.5" y="-119" font-family="Helvetica,sans-Serif" font-size="10.00">current</text>
</g>
<!-- Node7 -->
<g id="node7" class="node"><title>Node7</title>
<polygon fill="white" stroke="#bfbfbf" points="240.5,-157.5 240.5,-176.5 287.5,-176.5 287.5,-157.5 240.5,-157.5"/>
<text text-anchor="middle" x="264" y="-164.5" font-family="Helvetica,sans-Serif" font-size="10.00">Image</text>
</g>
<!-- Node7&#45;&gt;Node2 -->
<g id="edge6" class="edge"><title>Node7&#45;&gt;Node2</title>
<path fill="none" stroke="#9a32cd" stroke-dasharray="5,2" d="M255.768,-148.329C250.476,-138.151 242.929,-125.53 234,-116 227.243,-108.788 218.252,-102.405 210.605,-97.6581"/>
<polygon fill="#9a32cd" stroke="#9a32cd" points="252.719,-150.06 260.275,-157.487 259,-146.969 252.719,-150.06"/>
<text text-anchor="middle" x="290.5" y="-124.5" font-family="Helvetica,sans-Serif" font-size="10.00"> DEFAULT_IMAGE</text>
</g>
<!-- Node8 -->
<g id="node8" class="node"><title>Node8</title>
<g id="a_node8"><a xlink:href="../../d6/d95/classparser_1_1_parser.html" target="_top" xlink:title="parser.Parser">
<polygon fill="white" stroke="black" points="370,-78.5 370,-97.5 450,-97.5 450,-78.5 370,-78.5"/>
<text text-anchor="middle" x="410" y="-85.5" font-family="Helvetica,sans-Serif" font-size="10.00">parser.Parser</text>
</a>
</g>
</g>
<!-- Node8&#45;&gt;Node1 -->
<g id="edge7" class="edge"><title>Node8&#45;&gt;Node1</title>
<path fill="none" stroke="#9a32cd" stroke-dasharray="5,2" d="M421.189,-70.1497C428.235,-60.201 437.887,-47.6982 448,-38 455.243,-31.0541 464.385,-24.5023 471.887,-19.5925"/>
<polygon fill="#9a32cd" stroke="#9a32cd" points="418.289,-68.1898 415.512,-78.4144 424.059,-72.153 418.289,-68.1898"/>
<text text-anchor="middle" x="472.5" y="-46.5" font-family="Helvetica,sans-Serif" font-size="10.00"> myParser</text>
</g>
<!-- Node9 -->
<g id="node9" class="node"><title>Node9</title>
<polygon fill="white" stroke="#bfbfbf" points="310.5,-157.5 310.5,-176.5 403.5,-176.5 403.5,-157.5 310.5,-157.5"/>
<text text-anchor="middle" x="357" y="-164.5" font-family="Helvetica,sans-Serif" font-size="10.00">ResourceBundle</text>
</g>
<!-- Node9&#45;&gt;Node8 -->
<g id="edge8" class="edge"><title>Node9&#45;&gt;Node8</title>
<path fill="none" stroke="#9a32cd" stroke-dasharray="5,2" d="M356.774,-147.266C357.491,-137.232 359.783,-125.102 366,-116 371.459,-108.007 380.144,-101.953 388.36,-97.624"/>
<polygon fill="#9a32cd" stroke="#9a32cd" points="353.271,-147.341 356.507,-157.429 360.268,-147.524 353.271,-147.341"/>
<text text-anchor="middle" x="399.5" y="-124.5" font-family="Helvetica,sans-Serif" font-size="10.00"> myResources</text>
</g>
<!-- Node10 -->
<g id="node10" class="node"><title>Node10</title>
<polygon fill="white" stroke="#bfbfbf" points="421.5,-157.5 421.5,-176.5 522.5,-176.5 522.5,-157.5 421.5,-157.5"/>
<text text-anchor="middle" x="472" y="-164.5" font-family="Helvetica,sans-Serif" font-size="10.00">CommandFactory</text>
</g>
<!-- Node10&#45;&gt;Node8 -->
<g id="edge9" class="edge"><title>Node10&#45;&gt;Node8</title>
<path fill="none" stroke="#9a32cd" stroke-dasharray="5,2" d="M459.288,-149.334C451.75,-139.544 441.948,-126.975 433,-116 428.019,-109.891 422.269,-103.141 417.765,-97.9184"/>
<polygon fill="#9a32cd" stroke="#9a32cd" points="456.624,-151.612 465.486,-157.419 462.18,-147.353 456.624,-151.612"/>
<text text-anchor="middle" x="502.5" y="-124.5" font-family="Helvetica,sans-Serif" font-size="10.00"> myCommandFactory</text>
</g>
<!-- Node11 -->
<g id="node11" class="node"><title>Node11</title>
<g id="a_node11"><a xlink:href="../../d3/dcc/classparser_1_1_node.html" target="_top" xlink:title="parser.Node">
<polygon fill="white" stroke="black" points="543.5,-157.5 543.5,-176.5 618.5,-176.5 618.5,-157.5 543.5,-157.5"/>
<text text-anchor="middle" x="581" y="-164.5" font-family="Helvetica,sans-Serif" font-size="10.00">parser.Node</text>
</a>
</g>
</g>
<!-- Node11&#45;&gt;Node8 -->
<g id="edge10" class="edge"><title>Node11&#45;&gt;Node8</title>
<path fill="none" stroke="#9a32cd" stroke-dasharray="5,2" d="M577.053,-147.613C573.769,-136.782 567.966,-123.73 558,-116 522.664,-88.5892 502.993,-106.039 459,-98 456.107,-97.4713 453.118,-96.9244 450.11,-96.3732"/>
<polygon fill="#9a32cd" stroke="#9a32cd" points="573.693,-148.6 579.558,-157.423 580.475,-146.868 573.693,-148.6"/>
<text text-anchor="middle" x="600" y="-130" font-family="Helvetica,sans-Serif" font-size="10.00"> myTree</text>
<text text-anchor="middle" x="600" y="-119" font-family="Helvetica,sans-Serif" font-size="10.00">myListTree</text>
</g>
<!-- Node11&#45;&gt;Node11 -->
<g id="edge11" class="edge"><title>Node11&#45;&gt;Node11</title>
<path fill="none" stroke="#9a32cd" stroke-dasharray="5,2" d="M628.771,-172.097C633.204,-171.046 636,-169.347 636,-167 636,-163.148 628.472,-161.042 618.532,-160.681"/>
<polygon fill="#9a32cd" stroke="#9a32cd" points="628.046,-168.658 618.532,-173.319 628.876,-175.609 628.046,-168.658"/>
<text text-anchor="middle" x="660" y="-170" font-family="Helvetica,sans-Serif" font-size="10.00"> myChild1</text>
<text text-anchor="middle" x="660" y="-159" font-family="Helvetica,sans-Serif" font-size="10.00">myChild2</text>
</g>
<!-- Node12 -->
<g id="node12" class="node"><title>Node12</title>
<polygon fill="white" stroke="#bfbfbf" points="468,-78.5 468,-97.5 578,-97.5 578,-78.5 468,-78.5"/>
<text text-anchor="middle" x="523" y="-85.5" font-family="Helvetica,sans-Serif" font-size="10.00">List&lt; turtle.Turtle &gt;</text>
</g>
<!-- Node12&#45;&gt;Node1 -->
<g id="edge12" class="edge"><title>Node12&#45;&gt;Node1</title>
<path fill="none" stroke="#9a32cd" stroke-dasharray="5,2" d="M514.296,-69.1216C506.705,-53.5297 496.022,-31.5862 490.195,-19.6165"/>
<polygon fill="#9a32cd" stroke="#9a32cd" points="511.231,-70.8228 518.756,-78.2818 517.525,-67.7587 511.231,-70.8228"/>
<text text-anchor="middle" x="533.5" y="-46.5" font-family="Helvetica,sans-Serif" font-size="10.00"> myTurtles</text>
</g>
<!-- Node13 -->
<g id="node13" class="node"><title>Node13</title>
<polygon fill="white" stroke="#bfbfbf" points="596.5,-78.5 596.5,-97.5 637.5,-97.5 637.5,-78.5 596.5,-78.5"/>
<text text-anchor="middle" x="617" y="-85.5" font-family="Helvetica,sans-Serif" font-size="10.00">Color</text>
</g>
<!-- Node13&#45;&gt;Node1 -->
<g id="edge13" class="edge"><title>Node13&#45;&gt;Node1</title>
<path fill="none" stroke="#9a32cd" stroke-dasharray="5,2" d="M602.183,-70.8803C591.781,-60.3438 577.083,-46.93 562,-38 548.626,-30.0816 532.561,-23.9538 518.654,-19.5526"/>
<polygon fill="#9a32cd" stroke="#9a32cd" points="599.794,-73.4464 609.235,-78.2548 604.853,-68.6085 599.794,-73.4464"/>
<text text-anchor="middle" x="633.5" y="-46.5" font-family="Helvetica,sans-Serif" font-size="10.00"> TURTLE_DEFAULT</text>
</g>
</g>
</svg>
