<?xml version="1.0" encoding="UTF-8" standalone="no"?>
<!DOCTYPE svg PUBLIC "-//W3C//DTD SVG 1.1//EN"
 "http://www.w3.org/Graphics/SVG/1.1/DTD/svg11.dtd">
<!-- Generated by graphviz version 2.36.0 (20140111.2315)
 -->
<!-- Title: world.World Pages: 1 -->
<svg width="760pt" height="288pt"
 viewBox="0.00 0.00 760.00 288.00" xmlns="http://www.w3.org/2000/svg" xmlns:xlink="http://www.w3.org/1999/xlink">
<g id="graph0" class="graph" transform="scale(1 1) rotate(0) translate(4 284)">
<title>world.World</title>
<polygon fill="white" stroke="none" points="-4,4 -4,-284 756,-284 756,4 -4,4"/>
<!-- Node1 -->
<g id="node1" class="node"><title>Node1</title>
<polygon fill="#bfbfbf" stroke="black" points="411,-0.5 411,-19.5 481,-19.5 481,-0.5 411,-0.5"/>
<text text-anchor="middle" x="446" y="-7.5" font-family="Helvetica,sans-Serif" font-size="10.00">world.World</text>
</g>
<!-- Node2 -->
<g id="node2" class="node"><title>Node2</title>
<g id="a_node2"><a xlink:href="../../df/dcb/classturtle_1_1_turtle.html" target="_top" xlink:title="turtle.Turtle">
<polygon fill="white" stroke="black" points="159.5,-78.5 159.5,-97.5 230.5,-97.5 230.5,-78.5 159.5,-78.5"/>
<text text-anchor="middle" x="195" y="-85.5" font-family="Helvetica,sans-Serif" font-size="10.00">turtle.Turtle</text>
</a>
</g>
</g>
<!-- Node2&#45;&gt;Node1 -->
<g id="edge1" class="edge"><title>Node2&#45;&gt;Node1</title>
<path fill="none" stroke="#9a32cd" stroke-dasharray="5,2" d="M225.59,-74.7095C252.727,-64.093 293.596,-48.8014 330,-38 356.86,-30.0304 387.784,-22.9332 410.945,-18.0176"/>
<polygon fill="#9a32cd" stroke="#9a32cd" points="224.267,-71.4689 216.247,-78.3924 226.834,-77.9812 224.267,-71.4689"/>
<text text-anchor="middle" x="357.5" y="-52" font-family="Helvetica,sans-Serif" font-size="10.00"> myTurtle</text>
<text text-anchor="middle" x="357.5" y="-41" font-family="Helvetica,sans-Serif" font-size="10.00">activeTurtle</text>
</g>
<!-- Node3 -->
<g id="node3" class="node"><title>Node3</title>
<polygon fill="white" stroke="#bfbfbf" points="0,-169.5 0,-188.5 68,-188.5 68,-169.5 0,-169.5"/>
<text text-anchor="middle" x="34" y="-176.5" font-family="Helvetica,sans-Serif" font-size="10.00">ImageView</text>
</g>
<!-- Node3&#45;&gt;Node2 -->
<g id="edge2" class="edge"><title>Node3&#45;&gt;Node2</title>
<path fill="none" stroke="midnightblue" d="M53.6228,-163.377C72.1631,-149.975 101.071,-130.125 128,-116 141.549,-108.893 157.401,-102.428 170.283,-97.6069"/>
<polygon fill="midnightblue" stroke="midnightblue" points="51.4133,-160.657 45.4082,-169.386 55.5459,-166.307 51.4133,-160.657"/>
</g>
<!-- Node4 -->
<g id="node4" class="node"><title>Node4</title>
<g id="a_node4"><a xlink:href="../../de/d57/classturtle_1_1_pen.html" target="_top" xlink:title="turtle.Pen">
<polygon fill="white" stroke="black" points="86.5,-169.5 86.5,-188.5 149.5,-188.5 149.5,-169.5 86.5,-169.5"/>
<text text-anchor="middle" x="118" y="-176.5" font-family="Helvetica,sans-Serif" font-size="10.00">turtle.Pen</text>
</a>
</g>
</g>
<!-- Node4&#45;&gt;Node2 -->
<g id="edge3" class="edge"><title>Node4&#45;&gt;Node2</title>
<path fill="none" stroke="#9a32cd" stroke-dasharray="5,2" d="M125.832,-159.716C132.106,-146.523 141.856,-128.847 154,-116 160.908,-108.691 170.159,-102.384 178.125,-97.7074"/>
<polygon fill="#9a32cd" stroke="#9a32cd" points="122.494,-158.602 121.565,-169.156 128.873,-161.485 122.494,-158.602"/>
<text text-anchor="middle" x="172.5" y="-130.5" font-family="Helvetica,sans-Serif" font-size="10.00"> myPen</text>
</g>
<!-- Node5 -->
<g id="node5" class="node"><title>Node5</title>
<polygon fill="white" stroke="#bfbfbf" points="98,-260.5 98,-279.5 138,-279.5 138,-260.5 98,-260.5"/>
<text text-anchor="middle" x="118" y="-267.5" font-family="Helvetica,sans-Serif" font-size="10.00">Paint</text>
</g>
<!-- Node5&#45;&gt;Node4 -->
<g id="edge4" class="edge"><title>Node5&#45;&gt;Node4</title>
<path fill="none" stroke="#9a32cd" stroke-dasharray="5,2" d="M118,-250.349C118,-231.383 118,-202.828 118,-188.639"/>
<polygon fill="#9a32cd" stroke="#9a32cd" points="114.5,-250.466 118,-260.466 121.5,-250.466 114.5,-250.466"/>
<text text-anchor="middle" x="148.5" y="-222.5" font-family="Helvetica,sans-Serif" font-size="10.00"> myPenColor</text>
</g>
<!-- Node6 -->
<g id="node6" class="node"><title>Node6</title>
<polygon fill="white" stroke="#bfbfbf" points="168,-169.5 168,-188.5 222,-188.5 222,-169.5 168,-169.5"/>
<text text-anchor="middle" x="195" y="-176.5" font-family="Helvetica,sans-Serif" font-size="10.00">Point2D</text>
</g>
<!-- Node6&#45;&gt;Node2 -->
<g id="edge5" class="edge"><title>Node6&#45;&gt;Node2</title>
<path fill="none" stroke="#9a32cd" stroke-dasharray="5,2" d="M195,-159.349C195,-140.383 195,-111.828 195,-97.6386"/>
<polygon fill="#9a32cd" stroke="#9a32cd" points="191.5,-159.466 195,-169.466 198.5,-159.466 191.5,-159.466"/>
<text text-anchor="middle" x="212.5" y="-141.5" font-family="Helvetica,sans-Serif" font-size="10.00"> goal</text>
<text text-anchor="middle" x="212.5" y="-130.5" font-family="Helvetica,sans-Serif" font-size="10.00">next</text>
<text text-anchor="middle" x="212.5" y="-119.5" font-family="Helvetica,sans-Serif" font-size="10.00">current</text>
</g>
<!-- Node7 -->
<g id="node7" class="node"><title>Node7</title>
<polygon fill="white" stroke="#bfbfbf" points="240.5,-169.5 240.5,-188.5 287.5,-188.5 287.5,-169.5 240.5,-169.5"/>
<text text-anchor="middle" x="264" y="-176.5" font-family="Helvetica,sans-Serif" font-size="10.00">Image</text>
</g>
<!-- Node7&#45;&gt;Node2 -->
<g id="edge6" class="edge"><title>Node7&#45;&gt;Node2</title>
<path fill="none" stroke="#9a32cd" stroke-dasharray="5,2" d="M257.875,-159.356C252.909,-146.223 244.935,-128.775 234,-116 227.681,-108.618 218.901,-102.305 211.272,-97.6432"/>
<polygon fill="#9a32cd" stroke="#9a32cd" points="254.711,-160.908 261.339,-169.175 261.313,-158.58 254.711,-160.908"/>
<text text-anchor="middle" x="294.5" y="-130.5" font-family="Helvetica,sans-Serif" font-size="10.00"> DEFAULT_IMAGE</text>
</g>
<!-- Node8 -->
<g id="node8" class="node"><title>Node8</title>
<g id="a_node8"><a xlink:href="../../d6/d95/classparser_1_1_parser.html" target="_top" xlink:title="parser.Parser">
<polygon fill="white" stroke="black" points="330,-78.5 330,-97.5 410,-97.5 410,-78.5 330,-78.5"/>
<text text-anchor="middle" x="370" y="-85.5" font-family="Helvetica,sans-Serif" font-size="10.00">parser.Parser</text>
</a>
</g>
</g>
<!-- Node8&#45;&gt;Node1 -->
<g id="edge7" class="edge"><title>Node8&#45;&gt;Node1</title>
<path fill="none" stroke="#9a32cd" stroke-dasharray="5,2" d="M381.189,-70.1497C388.235,-60.201 397.887,-47.6982 408,-38 415.243,-31.0541 424.385,-24.5023 431.887,-19.5925"/>
<polygon fill="#9a32cd" stroke="#9a32cd" points="378.289,-68.1898 375.512,-78.4144 384.059,-72.153 378.289,-68.1898"/>
<text text-anchor="middle" x="432.5" y="-46.5" font-family="Helvetica,sans-Serif" font-size="10.00"> myParser</text>
</g>
<!-- Node9 -->
<g id="node9" class="node"><title>Node9</title>
<g id="a_node9"><a xlink:href="../../d9/d1b/classcommand_1_1_command_factory.html" target="_top" xlink:title="command.CommandFactory">
<polygon fill="white" stroke="black" points="439.5,-169.5 439.5,-188.5 592.5,-188.5 592.5,-169.5 439.5,-169.5"/>
<text text-anchor="middle" x="516" y="-176.5" font-family="Helvetica,sans-Serif" font-size="10.00">command.CommandFactory</text>
</a>
</g>
</g>
<!-- Node9&#45;&gt;Node8 -->
<g id="edge8" class="edge"><title>Node9&#45;&gt;Node8</title>
<path fill="none" stroke="#9a32cd" stroke-dasharray="5,2" d="M493.327,-164.179C462.836,-145.592 409.524,-113.093 384.171,-97.6386"/>
<polygon fill="#9a32cd" stroke="#9a32cd" points="491.641,-167.25 502.001,-169.466 495.284,-161.273 491.641,-167.25"/>
<text text-anchor="middle" x="520.5" y="-130.5" font-family="Helvetica,sans-Serif" font-size="10.00"> myCommandFactory</text>
</g>
<!-- Node10 -->
<g id="node10" class="node"><title>Node10</title>
<polygon fill="white" stroke="#bfbfbf" points="324.5,-260.5 324.5,-279.5 417.5,-279.5 417.5,-260.5 324.5,-260.5"/>
<text text-anchor="middle" x="371" y="-267.5" font-family="Helvetica,sans-Serif" font-size="10.00">ResourceBundle</text>
</g>
<!-- Node10&#45;&gt;Node8 -->
<g id="edge11" class="edge"><title>Node10&#45;&gt;Node8</title>
<path fill="none" stroke="#9a32cd" stroke-dasharray="5,2" d="M368.545,-250.1C366.599,-234.122 364.041,-210.607 363,-190 361.271,-155.769 366.238,-115.085 368.703,-97.6401"/>
<polygon fill="#9a32cd" stroke="#9a32cd" points="365.101,-250.77 369.823,-260.254 372.046,-249.895 365.101,-250.77"/>
<text text-anchor="middle" x="396.5" y="-176.5" font-family="Helvetica,sans-Serif" font-size="10.00"> myResources</text>
</g>
<!-- Node10&#45;&gt;Node9 -->
<g id="edge9" class="edge"><title>Node10&#45;&gt;Node9</title>
<path fill="none" stroke="#9a32cd" stroke-dasharray="5,2" d="M385.914,-252.805C399.067,-239.309 419.311,-220.358 440,-208 453.882,-199.707 470.629,-193.215 484.865,-188.579"/>
<polygon fill="#9a32cd" stroke="#9a32cd" points="383.052,-250.736 378.701,-260.397 388.126,-255.558 383.052,-250.736"/>
<text text-anchor="middle" x="476" y="-233.5" font-family="Helvetica,sans-Serif" font-size="10.00"> syntax</text>
<text text-anchor="middle" x="476" y="-222.5" font-family="Helvetica,sans-Serif" font-size="10.00">paramMap</text>
<text text-anchor="middle" x="476" y="-211.5" font-family="Helvetica,sans-Serif" font-size="10.00">translationMap</text>
</g>
<!-- Node11 -->
<g id="node11" class="node"><title>Node11</title>
<polygon fill="white" stroke="#bfbfbf" points="452,-260.5 452,-279.5 580,-279.5 580,-260.5 452,-260.5"/>
<text text-anchor="middle" x="516" y="-267.5" font-family="Helvetica,sans-Serif" font-size="10.00">Map&lt; String, Double &gt;</text>
</g>
<!-- Node11&#45;&gt;Node9 -->
<g id="edge10" class="edge"><title>Node11&#45;&gt;Node9</title>
<path fill="none" stroke="#9a32cd" stroke-dasharray="5,2" d="M516,-250.349C516,-231.383 516,-202.828 516,-188.639"/>
<polygon fill="#9a32cd" stroke="#9a32cd" points="512.5,-250.466 516,-260.466 519.5,-250.466 512.5,-250.466"/>
<text text-anchor="middle" x="539" y="-222.5" font-family="Helvetica,sans-Serif" font-size="10.00"> variables</text>
</g>
<!-- Node12 -->
<g id="node12" class="node"><title>Node12</title>
<g id="a_node12"><a xlink:href="../../d3/dcc/classparser_1_1_node.html" target="_top" xlink:title="parser.Node">
<polygon fill="white" stroke="black" points="610.5,-169.5 610.5,-188.5 685.5,-188.5 685.5,-169.5 610.5,-169.5"/>
<text text-anchor="middle" x="648" y="-176.5" font-family="Helvetica,sans-Serif" font-size="10.00">parser.Node</text>
</a>
</g>
</g>
<!-- Node12&#45;&gt;Node8 -->
<g id="edge12" class="edge"><title>Node12&#45;&gt;Node8</title>
<path fill="none" stroke="#9a32cd" stroke-dasharray="5,2" d="M634.284,-161.587C621.011,-146.946 599.497,-126.283 576,-116 511.657,-87.8408 488.468,-108.35 419,-98 416.091,-97.5666 413.091,-97.0897 410.075,-96.5882"/>
<polygon fill="#9a32cd" stroke="#9a32cd" points="631.884,-164.159 641.099,-169.387 637.155,-159.554 631.884,-164.159"/>
<text text-anchor="middle" x="648" y="-136" font-family="Helvetica,sans-Serif" font-size="10.00"> myTree</text>
<text text-anchor="middle" x="648" y="-125" font-family="Helvetica,sans-Serif" font-size="10.00">myListTree</text>
</g>
<!-- Node12&#45;&gt;Node12 -->
<g id="edge13" class="edge"><title>Node12&#45;&gt;Node12</title>
<path fill="none" stroke="#9a32cd" stroke-dasharray="5,2" d="M695.427,-186.003C700.059,-184.591 703,-182.257 703,-179 703,-173.789 695.472,-170.939 685.532,-170.451"/>
<polygon fill="#9a32cd" stroke="#9a32cd" points="694.872,-182.548 685.532,-187.549 695.952,-189.464 694.872,-182.548"/>
<text text-anchor="middle" x="727" y="-182" font-family="Helvetica,sans-Serif" font-size="10.00"> myChild1</text>
<text text-anchor="middle" x="727" y="-171" font-family="Helvetica,sans-Serif" font-size="10.00">myChild2</text>
</g>
<!-- Node13 -->
<g id="node13" class="node"><title>Node13</title>
<polygon fill="white" stroke="#bfbfbf" points="428,-78.5 428,-97.5 538,-97.5 538,-78.5 428,-78.5"/>
<text text-anchor="middle" x="483" y="-85.5" font-family="Helvetica,sans-Serif" font-size="10.00">List&lt; turtle.Turtle &gt;</text>
</g>
<!-- Node13&#45;&gt;Node1 -->
<g id="edge14" class="edge"><title>Node13&#45;&gt;Node1</title>
<path fill="none" stroke="#9a32cd" stroke-dasharray="5,2" d="M474.296,-69.1216C466.705,-53.5297 456.022,-31.5862 450.195,-19.6165"/>
<polygon fill="#9a32cd" stroke="#9a32cd" points="471.231,-70.8228 478.756,-78.2818 477.525,-67.7587 471.231,-70.8228"/>
<text text-anchor="middle" x="493.5" y="-46.5" font-family="Helvetica,sans-Serif" font-size="10.00"> myTurtles</text>
</g>
<!-- Node14 -->
<g id="node14" class="node"><title>Node14</title>
<polygon fill="white" stroke="#bfbfbf" points="556.5,-78.5 556.5,-97.5 597.5,-97.5 597.5,-78.5 556.5,-78.5"/>
<text text-anchor="middle" x="577" y="-85.5" font-family="Helvetica,sans-Serif" font-size="10.00">Color</text>
</g>
<!-- Node14&#45;&gt;Node1 -->
<g id="edge15" class="edge"><title>Node14&#45;&gt;Node1</title>
<path fill="none" stroke="#9a32cd" stroke-dasharray="5,2" d="M562.183,-70.8803C551.781,-60.3438 537.083,-46.93 522,-38 508.626,-30.0816 492.561,-23.9538 478.654,-19.5526"/>
<polygon fill="#9a32cd" stroke="#9a32cd" points="559.794,-73.4464 569.235,-78.2548 564.853,-68.6085 559.794,-73.4464"/>
<text text-anchor="middle" x="593.5" y="-46.5" font-family="Helvetica,sans-Serif" font-size="10.00"> TURTLE_DEFAULT</text>
</g>
</g>
</svg>
