<?xml version="1.0" encoding="UTF-8" standalone="no"?>
<!DOCTYPE svg PUBLIC "-//W3C//DTD SVG 1.1//EN"
 "http://www.w3.org/Graphics/SVG/1.1/DTD/svg11.dtd">
<!-- Generated by graphviz version 2.36.0 (20140111.2315)
 -->
<!-- Title: command.AskCommand.run Pages: 1 -->
<svg width="318pt" height="66pt"
 viewBox="0.00 0.00 318.00 66.00" xmlns="http://www.w3.org/2000/svg" xmlns:xlink="http://www.w3.org/1999/xlink">
<g id="graph0" class="graph" transform="scale(1 1) rotate(0) translate(4 62)">
<title>command.AskCommand.run</title>
<polygon fill="white" stroke="none" points="-4,4 -4,-62 314,-62 314,4 -4,4"/>
<!-- Node1 -->
<g id="node1" class="node"><title>Node1</title>
<polygon fill="#bfbfbf" stroke="black" points="0.5,-19.5 0.5,-38.5 155.5,-38.5 155.5,-19.5 0.5,-19.5"/>
<text text-anchor="middle" x="78" y="-26.5" font-family="Helvetica,sans-Serif" font-size="10.00">command.AskCommand.run</text>
</g>
<!-- Node2 -->
<g id="node2" class="node"><title>Node2</title>
<g id="a_node2"><a xlink:href="../../df/dcb/classturtle_1_1_turtle.html#a2b42f3f7bdca37f767fa747557f090dd" target="_top" xlink:title="turtle.Turtle.getID">
<polygon fill="white" stroke="black" points="201.5,-38.5 201.5,-57.5 300.5,-57.5 300.5,-38.5 201.5,-38.5"/>
<text text-anchor="middle" x="251" y="-45.5" font-family="Helvetica,sans-Serif" font-size="10.00">turtle.Turtle.getID</text>
</a>
</g>
</g>
<!-- Node1&#45;&gt;Node2 -->
<g id="edge1" class="edge"><title>Node1&#45;&gt;Node2</title>
<path fill="none" stroke="midnightblue" d="M155.996,-37.5551C167.806,-38.8673 179.834,-40.2037 191.167,-41.463"/>
<polygon fill="midnightblue" stroke="midnightblue" points="191.029,-44.9691 201.354,-42.5949 191.802,-38.0119 191.029,-44.9691"/>
</g>
<!-- Node3 -->
<g id="node3" class="node"><title>Node3</title>
<g id="a_node3"><a xlink:href="../../df/dcb/classturtle_1_1_turtle.html#a094a42d27c645a64e2a8fc3065d21874" target="_top" xlink:title="turtle.Turtle.setActive">
<polygon fill="white" stroke="black" points="192,-0.5 192,-19.5 310,-19.5 310,-0.5 192,-0.5"/>
<text text-anchor="middle" x="251" y="-7.5" font-family="Helvetica,sans-Serif" font-size="10.00">turtle.Turtle.setActive</text>
</a>
</g>
</g>
<!-- Node1&#45;&gt;Node3 -->
<g id="edge2" class="edge"><title>Node1&#45;&gt;Node3</title>
<path fill="none" stroke="midnightblue" d="M155.996,-20.4449C164.567,-19.4925 173.253,-18.5274 181.706,-17.5883"/>
<polygon fill="midnightblue" stroke="midnightblue" points="182.324,-21.0412 191.876,-16.4582 181.551,-14.084 182.324,-21.0412"/>
</g>
</g>
</svg>
