<?xml version="1.0" encoding="UTF-8" standalone="no"?>
<!DOCTYPE svg PUBLIC "-//W3C//DTD SVG 1.1//EN"
 "http://www.w3.org/Graphics/SVG/1.1/DTD/svg11.dtd">
<!-- Generated by graphviz version 2.36.0 (20140111.2315)
 -->
<!-- Title: command.CommandFactory.translateCommand Pages: 1 -->
<svg width="2122pt" height="115pt"
 viewBox="0.00 0.00 2122.00 115.00" xmlns="http://www.w3.org/2000/svg" xmlns:xlink="http://www.w3.org/1999/xlink">
<g id="graph0" class="graph" transform="scale(1 1) rotate(0) translate(4 111)">
<title>command.CommandFactory.translateCommand</title>
<polygon fill="white" stroke="none" points="-4,4 -4,-111 2118,-111 2118,4 -4,4"/>
<!-- Node1 -->
<g id="node1" class="node"><title>Node1</title>
<polygon fill="#bfbfbf" stroke="black" points="0.5,-22 0.5,-52 197.5,-52 197.5,-22 0.5,-22"/>
<text text-anchor="start" x="8.5" y="-40" font-family="Helvetica,sans-Serif" font-size="10.00">command.CommandFactory.translate</text>
<text text-anchor="middle" x="99" y="-29" font-family="Helvetica,sans-Serif" font-size="10.00">Command</text>
</g>
<!-- Node2 -->
<g id="node2" class="node"><title>Node2</title>
<g id="a_node2"><a xlink:href="../../d9/d1b/classcommand_1_1_command_factory.html#ab25bb047b051661d31adf73b2dae5649" target="_top" xlink:title="command.CommandFactory.create\lCommand">
<polygon fill="white" stroke="black" points="440.5,-44 440.5,-74 625.5,-74 625.5,-44 440.5,-44"/>
<text text-anchor="start" x="448.5" y="-62" font-family="Helvetica,sans-Serif" font-size="10.00">command.CommandFactory.create</text>
<text text-anchor="middle" x="533" y="-51" font-family="Helvetica,sans-Serif" font-size="10.00">Command</text>
</a>
</g>
</g>
<!-- Node1&#45;&gt;Node2 -->
<g id="edge1" class="edge"><title>Node1&#45;&gt;Node2</title>
<path fill="none" stroke="midnightblue" d="M208.143,-42.5073C279.61,-46.1468 372.269,-50.8655 440.155,-54.3227"/>
<polygon fill="midnightblue" stroke="midnightblue" points="207.923,-38.9916 197.758,-41.9784 207.567,-45.9826 207.923,-38.9916"/>
</g>
<!-- Node13 -->
<g id="node13" class="node"><title>Node13</title>
<g id="a_node13"><a xlink:href="../../d9/d1b/classcommand_1_1_command_factory.html#a87bf7e648425bb22124367cabedb3327" target="_top" xlink:title="command.CommandFactory.get\lNumParameters">
<polygon fill="white" stroke="black" points="234,-0 234,-30 404,-30 404,-0 234,-0"/>
<text text-anchor="start" x="242" y="-18" font-family="Helvetica,sans-Serif" font-size="10.00">command.CommandFactory.get</text>
<text text-anchor="middle" x="319" y="-7" font-family="Helvetica,sans-Serif" font-size="10.00">NumParameters</text>
</a>
</g>
</g>
<!-- Node1&#45;&gt;Node13 -->
<g id="edge12" class="edge"><title>Node1&#45;&gt;Node13</title>
<path fill="none" stroke="midnightblue" d="M207.504,-26.151C216.36,-25.2572 225.23,-24.3621 233.879,-23.4893"/>
<polygon fill="midnightblue" stroke="midnightblue" points="207.121,-22.6718 197.523,-27.1582 207.824,-29.6364 207.121,-22.6718"/>
</g>
<!-- Node3 -->
<g id="node3" class="node"><title>Node3</title>
<g id="a_node3"><a xlink:href="../../d9/d1b/classcommand_1_1_command_factory.html#a29259fe3695c6c5ba28330705fe07a2f" target="_top" xlink:title="command.CommandFactory.main">
<polygon fill="white" stroke="black" points="662.5,-49.5 662.5,-68.5 841.5,-68.5 841.5,-49.5 662.5,-49.5"/>
<text text-anchor="middle" x="752" y="-56.5" font-family="Helvetica,sans-Serif" font-size="10.00">command.CommandFactory.main</text>
</a>
</g>
</g>
<!-- Node2&#45;&gt;Node3 -->
<g id="edge2" class="edge"><title>Node2&#45;&gt;Node3</title>
<path fill="none" stroke="midnightblue" d="M635.728,-59C644.633,-59 653.598,-59 662.384,-59"/>
<polygon fill="midnightblue" stroke="midnightblue" points="635.713,-55.5001 625.713,-59 635.713,-62.5001 635.713,-55.5001"/>
</g>
<!-- Node4 -->
<g id="node4" class="node"><title>Node4</title>
<g id="a_node4"><a xlink:href="../../d6/d95/classparser_1_1_parser.html#a4ecbffc246c3add017c4720eed4c6da9" target="_top" xlink:title="parser.Parser.parse">
<polygon fill="white" stroke="black" points="697.5,-87.5 697.5,-106.5 806.5,-106.5 806.5,-87.5 697.5,-87.5"/>
<text text-anchor="middle" x="752" y="-94.5" font-family="Helvetica,sans-Serif" font-size="10.00">parser.Parser.parse</text>
</a>
</g>
</g>
<!-- Node2&#45;&gt;Node4 -->
<g id="edge3" class="edge"><title>Node2&#45;&gt;Node4</title>
<path fill="none" stroke="midnightblue" d="M629.656,-75.7508C652.881,-79.8178 676.902,-84.0242 697.381,-87.6106"/>
<polygon fill="midnightblue" stroke="midnightblue" points="630.218,-72.2961 619.764,-74.0186 629.011,-79.1911 630.218,-72.2961"/>
</g>
<!-- Node5 -->
<g id="node5" class="node"><title>Node5</title>
<g id="a_node5"><a xlink:href="../../d6/d95/classparser_1_1_parser.html#a6b2d7b2b182d99537ce332ed0dfd3e03" target="_top" xlink:title="parser.Parser.main">
<polygon fill="white" stroke="black" points="878,-76.5 878,-95.5 984,-95.5 984,-76.5 878,-76.5"/>
<text text-anchor="middle" x="931" y="-83.5" font-family="Helvetica,sans-Serif" font-size="10.00">parser.Parser.main</text>
</a>
</g>
</g>
<!-- Node4&#45;&gt;Node5 -->
<g id="edge4" class="edge"><title>Node4&#45;&gt;Node5</title>
<path fill="none" stroke="midnightblue" d="M816.585,-93.0484C836.67,-91.8002 858.619,-90.4361 877.812,-89.2433"/>
<polygon fill="midnightblue" stroke="midnightblue" points="816.35,-89.5562 806.586,-93.6698 816.784,-96.5427 816.35,-89.5562"/>
</g>
<!-- Node6 -->
<g id="node6" class="node"><title>Node6</title>
<g id="a_node6"><a xlink:href="../../d9/dd0/classworld_1_1_world.html#ae370733f7784c42741a6ba66c7d2ecf5" target="_top" xlink:title="world.World.listen">
<polygon fill="white" stroke="black" points="882,-27.5 882,-46.5 980,-46.5 980,-27.5 882,-27.5"/>
<text text-anchor="middle" x="931" y="-34.5" font-family="Helvetica,sans-Serif" font-size="10.00">world.World.listen</text>
</a>
</g>
</g>
<!-- Node4&#45;&gt;Node6 -->
<g id="edge5" class="edge"><title>Node4&#45;&gt;Node6</title>
<path fill="none" stroke="midnightblue" d="M816.724,-85.2293C825.303,-83.1128 833.924,-80.7047 842,-78 867.412,-69.4895 895.204,-55.7346 912.617,-46.5328"/>
<polygon fill="midnightblue" stroke="midnightblue" points="815.644,-81.8877 806.708,-87.5803 817.244,-88.7025 815.644,-81.8877"/>
</g>
<!-- Node7 -->
<g id="node7" class="node"><title>Node7</title>
<g id="a_node7"><a xlink:href="../../d8/d08/classworld_controller_1_1_world_controller.html#a178425d68e3e669c386706153ce44999" target="_top" xlink:title="worldController.WorldController.update">
<polygon fill="white" stroke="black" points="1020,-27.5 1020,-46.5 1218,-46.5 1218,-27.5 1020,-27.5"/>
<text text-anchor="middle" x="1119" y="-34.5" font-family="Helvetica,sans-Serif" font-size="10.00">worldController.WorldController.update</text>
</a>
</g>
</g>
<!-- Node6&#45;&gt;Node7 -->
<g id="edge6" class="edge"><title>Node6&#45;&gt;Node7</title>
<path fill="none" stroke="midnightblue" d="M990.637,-37C999.94,-37 1009.78,-37 1019.69,-37"/>
<polygon fill="midnightblue" stroke="midnightblue" points="990.384,-33.5001 980.384,-37 990.384,-40.5001 990.384,-33.5001"/>
</g>
<!-- Node8 -->
<g id="node8" class="node"><title>Node8</title>
<g id="a_node8"><a xlink:href="../../d0/d7c/classuser_interface_1_1_u_i.html#ab17592b00ba0b808f524b4fc223303ec" target="_top" xlink:title="userInterface.UI.runCommand">
<polygon fill="white" stroke="black" points="1254.5,-27.5 1254.5,-46.5 1415.5,-46.5 1415.5,-27.5 1254.5,-27.5"/>
<text text-anchor="middle" x="1335" y="-34.5" font-family="Helvetica,sans-Serif" font-size="10.00">userInterface.UI.runCommand</text>
</a>
</g>
</g>
<!-- Node7&#45;&gt;Node8 -->
<g id="edge7" class="edge"><title>Node7&#45;&gt;Node8</title>
<path fill="none" stroke="midnightblue" d="M1228.45,-37C1237.16,-37 1245.86,-37 1254.32,-37"/>
<polygon fill="midnightblue" stroke="midnightblue" points="1228.23,-33.5001 1218.23,-37 1228.23,-40.5001 1228.23,-33.5001"/>
</g>
<!-- Node9 -->
<g id="node9" class="node"><title>Node9</title>
<g id="a_node9"><a xlink:href="../../d0/d7c/classuser_interface_1_1_u_i.html#a02bd34909b5d6037ea8ebe812879b90a" target="_top" xlink:title="userInterface.UI.makeRun\lButton">
<polygon fill="white" stroke="black" points="1452,-22 1452,-52 1592,-52 1592,-22 1452,-22"/>
<text text-anchor="start" x="1460" y="-40" font-family="Helvetica,sans-Serif" font-size="10.00">userInterface.UI.makeRun</text>
<text text-anchor="middle" x="1522" y="-29" font-family="Helvetica,sans-Serif" font-size="10.00">Button</text>
</a>
</g>
</g>
<!-- Node8&#45;&gt;Node9 -->
<g id="edge8" class="edge"><title>Node8&#45;&gt;Node9</title>
<path fill="none" stroke="midnightblue" d="M1425.75,-37C1434.48,-37 1443.24,-37 1451.73,-37"/>
<polygon fill="midnightblue" stroke="midnightblue" points="1425.53,-33.5001 1415.53,-37 1425.53,-40.5001 1425.53,-33.5001"/>
</g>
<!-- Node10 -->
<g id="node10" class="node"><title>Node10</title>
<g id="a_node10"><a xlink:href="../../d0/d7c/classuser_interface_1_1_u_i.html#a9f7eaa121e1405b45e262f03859f9ff0" target="_top" xlink:title="userInterface.UI.setUpCommand\lField">
<polygon fill="white" stroke="black" points="1628,-22 1628,-52 1802,-52 1802,-22 1628,-22"/>
<text text-anchor="start" x="1636" y="-40" font-family="Helvetica,sans-Serif" font-size="10.00">userInterface.UI.setUpCommand</text>
<text text-anchor="middle" x="1715" y="-29" font-family="Helvetica,sans-Serif" font-size="10.00">Field</text>
</a>
</g>
</g>
<!-- Node9&#45;&gt;Node10 -->
<g id="edge9" class="edge"><title>Node9&#45;&gt;Node10</title>
<path fill="none" stroke="midnightblue" d="M1602.34,-37C1610.73,-37 1619.28,-37 1627.73,-37"/>
<polygon fill="midnightblue" stroke="midnightblue" points="1602.23,-33.5001 1592.23,-37 1602.23,-40.5001 1602.23,-33.5001"/>
</g>
<!-- Node11 -->
<g id="node11" class="node"><title>Node11</title>
<g id="a_node11"><a xlink:href="../../d0/d7c/classuser_interface_1_1_u_i.html#a8b1a665c129df3827e48e2739afe870d" target="_top" xlink:title="userInterface.UI.initialize">
<polygon fill="white" stroke="black" points="1838,-27.5 1838,-46.5 1972,-46.5 1972,-27.5 1838,-27.5"/>
<text text-anchor="middle" x="1905" y="-34.5" font-family="Helvetica,sans-Serif" font-size="10.00">userInterface.UI.initialize</text>
</a>
</g>
</g>
<!-- Node10&#45;&gt;Node11 -->
<g id="edge10" class="edge"><title>Node10&#45;&gt;Node11</title>
<path fill="none" stroke="midnightblue" d="M1812.16,-37C1820.8,-37 1829.42,-37 1837.72,-37"/>
<polygon fill="midnightblue" stroke="midnightblue" points="1812.02,-33.5001 1802.02,-37 1812.02,-40.5001 1812.02,-33.5001"/>
</g>
<!-- Node12 -->
<g id="node12" class="node"><title>Node12</title>
<g id="a_node12"><a xlink:href="../../d0/d7c/classuser_interface_1_1_u_i.html#a378fe4fa2136ee8c5196e86189c0d484" target="_top" xlink:title="userInterface.UI.UI">
<polygon fill="white" stroke="black" points="2008.5,-27.5 2008.5,-46.5 2113.5,-46.5 2113.5,-27.5 2008.5,-27.5"/>
<text text-anchor="middle" x="2061" y="-34.5" font-family="Helvetica,sans-Serif" font-size="10.00">userInterface.UI.UI</text>
</a>
</g>
</g>
<!-- Node11&#45;&gt;Node12 -->
<g id="edge11" class="edge"><title>Node11&#45;&gt;Node12</title>
<path fill="none" stroke="midnightblue" d="M1982.44,-37C1991.19,-37 1999.95,-37 2008.27,-37"/>
<polygon fill="midnightblue" stroke="midnightblue" points="1982.2,-33.5001 1972.2,-37 1982.2,-40.5001 1982.2,-33.5001"/>
</g>
<!-- Node14 -->
<g id="node14" class="node"><title>Node14</title>
<g id="a_node14"><a xlink:href="../../d6/d95/classparser_1_1_parser.html#a4f582c65390bddc57219c0b5c31ef5e7" target="_top" xlink:title="parser.Parser.makeTree">
<polygon fill="white" stroke="black" points="469,-5.5 469,-24.5 597,-24.5 597,-5.5 469,-5.5"/>
<text text-anchor="middle" x="533" y="-12.5" font-family="Helvetica,sans-Serif" font-size="10.00">parser.Parser.makeTree</text>
</a>
</g>
</g>
<!-- Node13&#45;&gt;Node14 -->
<g id="edge13" class="edge"><title>Node13&#45;&gt;Node14</title>
<path fill="none" stroke="midnightblue" d="M414.304,-15C432.801,-15 451.779,-15 468.947,-15"/>
<polygon fill="midnightblue" stroke="midnightblue" points="414.093,-11.5001 404.093,-15 414.092,-18.5001 414.093,-11.5001"/>
</g>
<!-- Node15 -->
<g id="node15" class="node"><title>Node15</title>
<g id="a_node15"><a xlink:href="../../d6/d95/classparser_1_1_parser.html#a240c75608624a9c67402a296855c4d1d" target="_top" xlink:title="parser.Parser.initialize\lCommands">
<polygon fill="white" stroke="black" points="692,-0 692,-30 812,-30 812,-0 692,-0"/>
<text text-anchor="start" x="700" y="-18" font-family="Helvetica,sans-Serif" font-size="10.00">parser.Parser.initialize</text>
<text text-anchor="middle" x="752" y="-7" font-family="Helvetica,sans-Serif" font-size="10.00">Commands</text>
</a>
</g>
</g>
<!-- Node14&#45;&gt;Node15 -->
<g id="edge14" class="edge"><title>Node14&#45;&gt;Node15</title>
<path fill="none" stroke="midnightblue" d="M607.42,-15C634.935,-15 665.824,-15 691.881,-15"/>
<polygon fill="midnightblue" stroke="midnightblue" points="607.057,-11.5001 597.057,-15 607.057,-18.5001 607.057,-11.5001"/>
</g>
<!-- Node15&#45;&gt;Node5 -->
<g id="edge15" class="edge"><title>Node15&#45;&gt;Node5</title>
<path fill="none" stroke="midnightblue" d="M822.308,-32.939C829.026,-35.1339 835.686,-37.4944 842,-40 868.279,-50.4277 897.003,-66.3733 914.255,-76.4875"/>
<polygon fill="midnightblue" stroke="midnightblue" points="823.047,-29.5024 812.458,-29.8441 820.949,-36.1806 823.047,-29.5024"/>
</g>
<!-- Node15&#45;&gt;Node6 -->
<g id="edge16" class="edge"><title>Node15&#45;&gt;Node6</title>
<path fill="none" stroke="midnightblue" d="M822.386,-23.6243C842.298,-26.0992 863.565,-28.7425 881.891,-31.0203"/>
<polygon fill="midnightblue" stroke="midnightblue" points="822.786,-20.1471 812.431,-22.3869 821.923,-27.0937 822.786,-20.1471"/>
</g>
</g>
</svg>
