<?xml version="1.0" encoding="UTF-8" standalone="no"?>
<!DOCTYPE svg PUBLIC "-//W3C//DTD SVG 1.1//EN"
 "http://www.w3.org/Graphics/SVG/1.1/DTD/svg11.dtd">
<!-- Generated by graphviz version 2.36.0 (20140111.2315)
 -->
<!-- Title: command.CommandFactory.makeParams Pages: 1 -->
<svg width="1994pt" height="95pt"
 viewBox="0.00 0.00 1994.00 95.00" xmlns="http://www.w3.org/2000/svg" xmlns:xlink="http://www.w3.org/1999/xlink">
<g id="graph0" class="graph" transform="scale(1 1) rotate(0) translate(4 91)">
<title>command.CommandFactory.makeParams</title>
<polygon fill="white" stroke="none" points="-4,4 -4,-91 1990,-91 1990,4 -4,4"/>
<!-- Node1 -->
<g id="node1" class="node"><title>Node1</title>
<polygon fill="#bfbfbf" stroke="black" points="0,-43 0,-73 182,-73 182,-43 0,-43"/>
<text text-anchor="start" x="8" y="-61" font-family="Helvetica,sans-Serif" font-size="10.00">command.CommandFactory.make</text>
<text text-anchor="middle" x="91" y="-50" font-family="Helvetica,sans-Serif" font-size="10.00">Params</text>
</g>
<!-- Node2 -->
<g id="node2" class="node"><title>Node2</title>
<g id="a_node2"><a xlink:href="../../d9/d1b/classcommand_1_1_command_factory.html#abd97ea3e22afc09e07ed1d4fd039d11f" target="_top" xlink:title="command.CommandFactory.reflectCMD">
<polygon fill="white" stroke="black" points="218.5,-48.5 218.5,-67.5 425.5,-67.5 425.5,-48.5 218.5,-48.5"/>
<text text-anchor="middle" x="322" y="-55.5" font-family="Helvetica,sans-Serif" font-size="10.00">command.CommandFactory.reflectCMD</text>
</a>
</g>
</g>
<!-- Node1&#45;&gt;Node2 -->
<g id="edge1" class="edge"><title>Node1&#45;&gt;Node2</title>
<path fill="none" stroke="midnightblue" d="M192.286,-58C200.949,-58 209.723,-58 218.404,-58"/>
<polygon fill="midnightblue" stroke="midnightblue" points="192.178,-54.5001 182.178,-58 192.178,-61.5001 192.178,-54.5001"/>
</g>
<!-- Node3 -->
<g id="node3" class="node"><title>Node3</title>
<g id="a_node3"><a xlink:href="../../d9/d1b/classcommand_1_1_command_factory.html#ab25bb047b051661d31adf73b2dae5649" target="_top" xlink:title="command.CommandFactory.create\lCommand">
<polygon fill="white" stroke="black" points="462.5,-43 462.5,-73 647.5,-73 647.5,-43 462.5,-43"/>
<text text-anchor="start" x="470.5" y="-61" font-family="Helvetica,sans-Serif" font-size="10.00">command.CommandFactory.create</text>
<text text-anchor="middle" x="555" y="-50" font-family="Helvetica,sans-Serif" font-size="10.00">Command</text>
</a>
</g>
</g>
<!-- Node2&#45;&gt;Node3 -->
<g id="edge2" class="edge"><title>Node2&#45;&gt;Node3</title>
<path fill="none" stroke="midnightblue" d="M435.681,-58C444.57,-58 453.481,-58 462.204,-58"/>
<polygon fill="midnightblue" stroke="midnightblue" points="435.665,-54.5001 425.665,-58 435.665,-61.5001 435.665,-54.5001"/>
</g>
<!-- Node4 -->
<g id="node4" class="node"><title>Node4</title>
<g id="a_node4"><a xlink:href="../../d6/d95/classparser_1_1_parser.html#a4ecbffc246c3add017c4720eed4c6da9" target="_top" xlink:title="parser.Parser.parse">
<polygon fill="white" stroke="black" points="684.5,-48.5 684.5,-67.5 793.5,-67.5 793.5,-48.5 684.5,-48.5"/>
<text text-anchor="middle" x="739" y="-55.5" font-family="Helvetica,sans-Serif" font-size="10.00">parser.Parser.parse</text>
</a>
</g>
</g>
<!-- Node3&#45;&gt;Node4 -->
<g id="edge3" class="edge"><title>Node3&#45;&gt;Node4</title>
<path fill="none" stroke="midnightblue" d="M657.822,-58C666.897,-58 675.826,-58 684.242,-58"/>
<polygon fill="midnightblue" stroke="midnightblue" points="657.533,-54.5001 647.533,-58 657.533,-61.5001 657.533,-54.5001"/>
</g>
<!-- Node5 -->
<g id="node5" class="node"><title>Node5</title>
<g id="a_node5"><a xlink:href="../../d6/d95/classparser_1_1_parser.html#a6b2d7b2b182d99537ce332ed0dfd3e03" target="_top" xlink:title="parser.Parser.main">
<polygon fill="white" stroke="black" points="830,-67.5 830,-86.5 936,-86.5 936,-67.5 830,-67.5"/>
<text text-anchor="middle" x="883" y="-74.5" font-family="Helvetica,sans-Serif" font-size="10.00">parser.Parser.main</text>
</a>
</g>
</g>
<!-- Node4&#45;&gt;Node5 -->
<g id="edge4" class="edge"><title>Node4&#45;&gt;Node5</title>
<path fill="none" stroke="midnightblue" d="M803.754,-66.5304C812.415,-67.6893 821.222,-68.8677 829.651,-69.9955"/>
<polygon fill="midnightblue" stroke="midnightblue" points="804.06,-63.0403 793.684,-65.1831 803.132,-69.9785 804.06,-63.0403"/>
</g>
<!-- Node6 -->
<g id="node6" class="node"><title>Node6</title>
<g id="a_node6"><a xlink:href="../../d9/dd0/classworld_1_1_world.html#ae370733f7784c42741a6ba66c7d2ecf5" target="_top" xlink:title="world.World.listen">
<polygon fill="white" stroke="black" points="834,-29.5 834,-48.5 932,-48.5 932,-29.5 834,-29.5"/>
<text text-anchor="middle" x="883" y="-36.5" font-family="Helvetica,sans-Serif" font-size="10.00">world.World.listen</text>
</a>
</g>
</g>
<!-- Node4&#45;&gt;Node6 -->
<g id="edge5" class="edge"><title>Node4&#45;&gt;Node6</title>
<path fill="none" stroke="midnightblue" d="M803.708,-49.4756C813.83,-48.1213 824.152,-46.7402 833.839,-45.4441"/>
<polygon fill="midnightblue" stroke="midnightblue" points="803.132,-46.0215 793.684,-50.8169 804.06,-52.9597 803.132,-46.0215"/>
</g>
<!-- Node7 -->
<g id="node7" class="node"><title>Node7</title>
<g id="a_node7"><a xlink:href="../../d8/d08/classworld_controller_1_1_world_controller.html#a178425d68e3e669c386706153ce44999" target="_top" xlink:title="worldController.WorldController.update">
<polygon fill="white" stroke="black" points="972,-29.5 972,-48.5 1170,-48.5 1170,-29.5 972,-29.5"/>
<text text-anchor="middle" x="1071" y="-36.5" font-family="Helvetica,sans-Serif" font-size="10.00">worldController.WorldController.update</text>
</a>
</g>
</g>
<!-- Node6&#45;&gt;Node7 -->
<g id="edge6" class="edge"><title>Node6&#45;&gt;Node7</title>
<path fill="none" stroke="midnightblue" d="M942.637,-39C951.94,-39 961.777,-39 971.695,-39"/>
<polygon fill="midnightblue" stroke="midnightblue" points="942.384,-35.5001 932.384,-39 942.384,-42.5001 942.384,-35.5001"/>
</g>
<!-- Node8 -->
<g id="node8" class="node"><title>Node8</title>
<g id="a_node8"><a xlink:href="../../dd/d8e/classuser_interface_1_1_user_interface.html#a95e324c85888faea808be269e44ed5b8" target="_top" xlink:title="userInterface.UserInterface.run\lCommand">
<polygon fill="white" stroke="black" points="1206,-24 1206,-54 1372,-54 1372,-24 1206,-24"/>
<text text-anchor="start" x="1214" y="-42" font-family="Helvetica,sans-Serif" font-size="10.00">userInterface.UserInterface.run</text>
<text text-anchor="middle" x="1289" y="-31" font-family="Helvetica,sans-Serif" font-size="10.00">Command</text>
</a>
</g>
</g>
<!-- Node7&#45;&gt;Node8 -->
<g id="edge7" class="edge"><title>Node7&#45;&gt;Node8</title>
<path fill="none" stroke="midnightblue" d="M1180.29,-39C1188.89,-39 1197.49,-39 1205.87,-39"/>
<polygon fill="midnightblue" stroke="midnightblue" points="1180.2,-35.5001 1170.2,-39 1180.2,-42.5001 1180.2,-35.5001"/>
</g>
<!-- Node9 -->
<g id="node9" class="node"><title>Node9</title>
<g id="a_node9"><a xlink:href="../../dd/d8e/classuser_interface_1_1_user_interface.html#a560c36977fddeee87002333870c54ed6" target="_top" xlink:title="userInterface.UserInterface.set\lUpResponses">
<polygon fill="white" stroke="black" points="1628.5,-49 1628.5,-79 1793.5,-79 1793.5,-49 1628.5,-49"/>
<text text-anchor="start" x="1636.5" y="-67" font-family="Helvetica,sans-Serif" font-size="10.00">userInterface.UserInterface.set</text>
<text text-anchor="middle" x="1711" y="-56" font-family="Helvetica,sans-Serif" font-size="10.00">UpResponses</text>
</a>
</g>
</g>
<!-- Node8&#45;&gt;Node9 -->
<g id="edge8" class="edge"><title>Node8&#45;&gt;Node9</title>
<path fill="none" stroke="midnightblue" d="M1382.4,-44.5003C1455.91,-48.8757 1557.79,-54.9396 1628.33,-59.1386"/>
<polygon fill="midnightblue" stroke="midnightblue" points="1382.42,-40.9949 1372.23,-43.8945 1382,-47.9826 1382.42,-40.9949"/>
</g>
<!-- Node11 -->
<g id="node11" class="node"><title>Node11</title>
<g id="a_node11"><a xlink:href="../../dd/d8e/classuser_interface_1_1_user_interface.html#a4316649a1f81fcc1dcaf93c812bf6f3a" target="_top" xlink:title="userInterface.UserInterface.make\lRunButton">
<polygon fill="white" stroke="black" points="1408.5,-2 1408.5,-32 1585.5,-32 1585.5,-2 1408.5,-2"/>
<text text-anchor="start" x="1416.5" y="-20" font-family="Helvetica,sans-Serif" font-size="10.00">userInterface.UserInterface.make</text>
<text text-anchor="middle" x="1497" y="-9" font-family="Helvetica,sans-Serif" font-size="10.00">RunButton</text>
</a>
</g>
</g>
<!-- Node8&#45;&gt;Node11 -->
<g id="edge10" class="edge"><title>Node8&#45;&gt;Node11</title>
<path fill="none" stroke="midnightblue" d="M1382.12,-29.1618C1390.79,-28.2361 1399.56,-27.2994 1408.19,-26.3781"/>
<polygon fill="midnightblue" stroke="midnightblue" points="1381.58,-25.6996 1372.01,-30.2418 1382.32,-32.66 1381.58,-25.6996"/>
</g>
<!-- Node10 -->
<g id="node10" class="node"><title>Node10</title>
<g id="a_node10"><a xlink:href="../../dd/d8e/classuser_interface_1_1_user_interface.html#af296b064499e62c4fbfbf73da6456532" target="_top" xlink:title="userInterface.UserInterface.\lUserInterface">
<polygon fill="white" stroke="black" points="1836,-24 1836,-54 1986,-54 1986,-24 1836,-24"/>
<text text-anchor="start" x="1844" y="-42" font-family="Helvetica,sans-Serif" font-size="10.00">userInterface.UserInterface.</text>
<text text-anchor="middle" x="1911" y="-31" font-family="Helvetica,sans-Serif" font-size="10.00">UserInterface</text>
</a>
</g>
</g>
<!-- Node9&#45;&gt;Node10 -->
<g id="edge9" class="edge"><title>Node9&#45;&gt;Node10</title>
<path fill="none" stroke="midnightblue" d="M1803.88,-52.3986C1814.58,-51.0478 1825.39,-49.683 1835.81,-48.3677"/>
<polygon fill="midnightblue" stroke="midnightblue" points="1803.16,-48.962 1793.68,-53.6872 1804.04,-55.9069 1803.16,-48.962"/>
</g>
<!-- Node12 -->
<g id="node12" class="node"><title>Node12</title>
<g id="a_node12"><a xlink:href="../../dd/d8e/classuser_interface_1_1_user_interface.html#a6d39ee7d7ae35fc0539bb714bce6221a" target="_top" xlink:title="userInterface.UserInterface.make\lFunctionButtons">
<polygon fill="white" stroke="black" points="1622.5,-0 1622.5,-30 1799.5,-30 1799.5,-0 1622.5,-0"/>
<text text-anchor="start" x="1630.5" y="-18" font-family="Helvetica,sans-Serif" font-size="10.00">userInterface.UserInterface.make</text>
<text text-anchor="middle" x="1711" y="-7" font-family="Helvetica,sans-Serif" font-size="10.00">FunctionButtons</text>
</a>
</g>
</g>
<!-- Node11&#45;&gt;Node12 -->
<g id="edge11" class="edge"><title>Node11&#45;&gt;Node12</title>
<path fill="none" stroke="midnightblue" d="M1596.01,-16.0754C1604.78,-15.9926 1613.63,-15.9092 1622.31,-15.8273"/>
<polygon fill="midnightblue" stroke="midnightblue" points="1595.73,-12.5778 1585.76,-16.1721 1595.79,-19.5775 1595.73,-12.5778"/>
</g>
<!-- Node12&#45;&gt;Node10 -->
<g id="edge12" class="edge"><title>Node12&#45;&gt;Node10</title>
<path fill="none" stroke="midnightblue" d="M1809.67,-26.8393C1818.52,-27.9113 1827.38,-28.985 1835.97,-30.0262"/>
<polygon fill="midnightblue" stroke="midnightblue" points="1810.06,-23.3604 1799.71,-25.6316 1809.22,-30.3095 1810.06,-23.3604"/>
</g>
</g>
</svg>
