<?xml version="1.0" encoding="UTF-8" standalone="no"?>
<!DOCTYPE svg PUBLIC "-//W3C//DTD SVG 1.1//EN"
 "http://www.w3.org/Graphics/SVG/1.1/DTD/svg11.dtd">
<!-- Generated by graphviz version 2.36.0 (20140111.2315)
 -->
<!-- Title: command.CommandFactory.addParam Pages: 1 -->
<svg width="394pt" height="87pt"
 viewBox="0.00 0.00 394.00 87.00" xmlns="http://www.w3.org/2000/svg" xmlns:xlink="http://www.w3.org/1999/xlink">
<g id="graph0" class="graph" transform="scale(1 1) rotate(0) translate(4 83)">
<title>command.CommandFactory.addParam</title>
<polygon fill="white" stroke="none" points="-4,4 -4,-83 390,-83 390,4 -4,4"/>
<!-- Node1 -->
<g id="node1" class="node"><title>Node1</title>
<polygon fill="#bfbfbf" stroke="black" points="0.5,-24 0.5,-54 173.5,-54 173.5,-24 0.5,-24"/>
<text text-anchor="start" x="8.5" y="-42" font-family="Helvetica,sans-Serif" font-size="10.00">command.CommandFactory.add</text>
<text text-anchor="middle" x="87" y="-31" font-family="Helvetica,sans-Serif" font-size="10.00">Param</text>
</g>
<!-- Node2 -->
<g id="node2" class="node"><title>Node2</title>
<g id="a_node2"><a xlink:href="../../d9/d1b/classcommand_1_1_command_factory.html#aac2ddc62b74ef8c562cb19841b6a21c6" target="_top" xlink:title="command.CommandFactory.is\lVariable">
<polygon fill="white" stroke="black" points="217,-49 217,-79 379,-79 379,-49 217,-49"/>
<text text-anchor="start" x="225" y="-67" font-family="Helvetica,sans-Serif" font-size="10.00">command.CommandFactory.is</text>
<text text-anchor="middle" x="298" y="-56" font-family="Helvetica,sans-Serif" font-size="10.00">Variable</text>
</a>
</g>
</g>
<!-- Node1&#45;&gt;Node2 -->
<g id="edge1" class="edge"><title>Node1&#45;&gt;Node2</title>
<path fill="none" stroke="midnightblue" d="M173.611,-49.2406C184.573,-50.5518 195.821,-51.8972 206.851,-53.2167"/>
<polygon fill="midnightblue" stroke="midnightblue" points="206.561,-56.7068 216.906,-54.4194 207.393,-49.7564 206.561,-56.7068"/>
</g>
<!-- Node3 -->
<g id="node3" class="node"><title>Node3</title>
<g id="a_node3"><a xlink:href="../../d9/d1b/classcommand_1_1_command_factory.html#a4a093c2b17212339a5c43b581f818682" target="_top" xlink:title="command.CommandFactory.read\lVariable">
<polygon fill="white" stroke="black" points="210,-0 210,-30 386,-30 386,-0 210,-0"/>
<text text-anchor="start" x="218" y="-18" font-family="Helvetica,sans-Serif" font-size="10.00">command.CommandFactory.read</text>
<text text-anchor="middle" x="298" y="-7" font-family="Helvetica,sans-Serif" font-size="10.00">Variable</text>
</a>
</g>
</g>
<!-- Node1&#45;&gt;Node3 -->
<g id="edge2" class="edge"><title>Node1&#45;&gt;Node3</title>
<path fill="none" stroke="midnightblue" d="M173.611,-29.169C182.2,-28.1828 190.965,-27.1763 199.663,-26.1774"/>
<polygon fill="midnightblue" stroke="midnightblue" points="200.294,-29.6281 209.829,-25.0101 199.495,-22.6738 200.294,-29.6281"/>
</g>
</g>
</svg>
