<?xml version="1.0" encoding="UTF-8" standalone="no"?>
<!DOCTYPE svg PUBLIC "-//W3C//DTD SVG 1.1//EN"
 "http://www.w3.org/Graphics/SVG/1.1/DTD/svg11.dtd">
<!-- Generated by graphviz version 2.36.0 (20140111.2315)
 -->
<!-- Title: command.CommandFactory.resetRepcount Pages: 1 -->
<svg width="1560pt" height="87pt"
 viewBox="0.00 0.00 1560.00 87.00" xmlns="http://www.w3.org/2000/svg" xmlns:xlink="http://www.w3.org/1999/xlink">
<g id="graph0" class="graph" transform="scale(1 1) rotate(0) translate(4 83)">
<title>command.CommandFactory.resetRepcount</title>
<polygon fill="white" stroke="none" points="-4,4 -4,-83 1556,-83 1556,4 -4,4"/>
<!-- Node1 -->
<g id="node1" class="node"><title>Node1</title>
<polygon fill="#bfbfbf" stroke="black" points="0.5,-24 0.5,-54 179.5,-54 179.5,-24 0.5,-24"/>
<text text-anchor="start" x="8.5" y="-42" font-family="Helvetica,sans-Serif" font-size="10.00">command.CommandFactory.reset</text>
<text text-anchor="middle" x="90" y="-31" font-family="Helvetica,sans-Serif" font-size="10.00">Repcount</text>
</g>
<!-- Node2 -->
<g id="node2" class="node"><title>Node2</title>
<g id="a_node2"><a xlink:href="../../d6/d95/classparser_1_1_parser.html#acebafe1593fc1f09ac31c7104438e4b1" target="_top" xlink:title="parser.Parser.resetRepcount">
<polygon fill="white" stroke="black" points="216.5,-29.5 216.5,-48.5 367.5,-48.5 367.5,-29.5 216.5,-29.5"/>
<text text-anchor="middle" x="292" y="-36.5" font-family="Helvetica,sans-Serif" font-size="10.00">parser.Parser.resetRepcount</text>
</a>
</g>
</g>
<!-- Node1&#45;&gt;Node2 -->
<g id="edge1" class="edge"><title>Node1&#45;&gt;Node2</title>
<path fill="none" stroke="midnightblue" d="M189.661,-39C198.594,-39 207.542,-39 216.218,-39"/>
<polygon fill="midnightblue" stroke="midnightblue" points="189.596,-35.5001 179.596,-39 189.596,-42.5001 189.596,-35.5001"/>
</g>
<!-- Node3 -->
<g id="node3" class="node"><title>Node3</title>
<g id="a_node3"><a xlink:href="../../d9/dd0/classworld_1_1_world.html#ae370733f7784c42741a6ba66c7d2ecf5" target="_top" xlink:title="world.World.listen">
<polygon fill="white" stroke="black" points="404,-29.5 404,-48.5 502,-48.5 502,-29.5 404,-29.5"/>
<text text-anchor="middle" x="453" y="-36.5" font-family="Helvetica,sans-Serif" font-size="10.00">world.World.listen</text>
</a>
</g>
</g>
<!-- Node2&#45;&gt;Node3 -->
<g id="edge2" class="edge"><title>Node2&#45;&gt;Node3</title>
<path fill="none" stroke="midnightblue" d="M377.897,-39C386.787,-39 395.587,-39 403.85,-39"/>
<polygon fill="midnightblue" stroke="midnightblue" points="377.844,-35.5001 367.844,-39 377.844,-42.5001 377.844,-35.5001"/>
</g>
<!-- Node4 -->
<g id="node4" class="node"><title>Node4</title>
<g id="a_node4"><a xlink:href="../../d8/d08/classworld_controller_1_1_world_controller.html#a178425d68e3e669c386706153ce44999" target="_top" xlink:title="worldController.WorldController.update">
<polygon fill="white" stroke="black" points="538,-29.5 538,-48.5 736,-48.5 736,-29.5 538,-29.5"/>
<text text-anchor="middle" x="637" y="-36.5" font-family="Helvetica,sans-Serif" font-size="10.00">worldController.WorldController.update</text>
</a>
</g>
</g>
<!-- Node3&#45;&gt;Node4 -->
<g id="edge3" class="edge"><title>Node3&#45;&gt;Node4</title>
<path fill="none" stroke="midnightblue" d="M512.407,-39C520.579,-39 529.156,-39 537.82,-39"/>
<polygon fill="midnightblue" stroke="midnightblue" points="512.295,-35.5001 502.295,-39 512.295,-42.5001 512.295,-35.5001"/>
</g>
<!-- Node5 -->
<g id="node5" class="node"><title>Node5</title>
<g id="a_node5"><a xlink:href="../../dd/d8e/classuser_interface_1_1_user_interface.html#a95e324c85888faea808be269e44ed5b8" target="_top" xlink:title="userInterface.UserInterface.run\lCommand">
<polygon fill="white" stroke="black" points="772,-24 772,-54 938,-54 938,-24 772,-24"/>
<text text-anchor="start" x="780" y="-42" font-family="Helvetica,sans-Serif" font-size="10.00">userInterface.UserInterface.run</text>
<text text-anchor="middle" x="855" y="-31" font-family="Helvetica,sans-Serif" font-size="10.00">Command</text>
</a>
</g>
</g>
<!-- Node4&#45;&gt;Node5 -->
<g id="edge4" class="edge"><title>Node4&#45;&gt;Node5</title>
<path fill="none" stroke="midnightblue" d="M746.29,-39C754.892,-39 763.492,-39 771.871,-39"/>
<polygon fill="midnightblue" stroke="midnightblue" points="746.203,-35.5001 736.203,-39 746.203,-42.5001 746.203,-35.5001"/>
</g>
<!-- Node6 -->
<g id="node6" class="node"><title>Node6</title>
<g id="a_node6"><a xlink:href="../../dd/d8e/classuser_interface_1_1_user_interface.html#a560c36977fddeee87002333870c54ed6" target="_top" xlink:title="userInterface.UserInterface.set\lUpResponses">
<polygon fill="white" stroke="black" points="1194.5,-49 1194.5,-79 1359.5,-79 1359.5,-49 1194.5,-49"/>
<text text-anchor="start" x="1202.5" y="-67" font-family="Helvetica,sans-Serif" font-size="10.00">userInterface.UserInterface.set</text>
<text text-anchor="middle" x="1277" y="-56" font-family="Helvetica,sans-Serif" font-size="10.00">UpResponses</text>
</a>
</g>
</g>
<!-- Node5&#45;&gt;Node6 -->
<g id="edge5" class="edge"><title>Node5&#45;&gt;Node6</title>
<path fill="none" stroke="midnightblue" d="M948.405,-44.5003C1021.91,-48.8757 1123.79,-54.9396 1194.33,-59.1386"/>
<polygon fill="midnightblue" stroke="midnightblue" points="948.418,-40.9949 938.227,-43.8945 948.002,-47.9826 948.418,-40.9949"/>
</g>
<!-- Node8 -->
<g id="node8" class="node"><title>Node8</title>
<g id="a_node8"><a xlink:href="../../dd/d8e/classuser_interface_1_1_user_interface.html#a4316649a1f81fcc1dcaf93c812bf6f3a" target="_top" xlink:title="userInterface.UserInterface.make\lRunButton">
<polygon fill="white" stroke="black" points="974.5,-2 974.5,-32 1151.5,-32 1151.5,-2 974.5,-2"/>
<text text-anchor="start" x="982.5" y="-20" font-family="Helvetica,sans-Serif" font-size="10.00">userInterface.UserInterface.make</text>
<text text-anchor="middle" x="1063" y="-9" font-family="Helvetica,sans-Serif" font-size="10.00">RunButton</text>
</a>
</g>
</g>
<!-- Node5&#45;&gt;Node8 -->
<g id="edge7" class="edge"><title>Node5&#45;&gt;Node8</title>
<path fill="none" stroke="midnightblue" d="M948.121,-29.1618C956.789,-28.2361 965.561,-27.2994 974.187,-26.3781"/>
<polygon fill="midnightblue" stroke="midnightblue" points="947.58,-25.6996 938.009,-30.2418 948.324,-32.66 947.58,-25.6996"/>
</g>
<!-- Node7 -->
<g id="node7" class="node"><title>Node7</title>
<g id="a_node7"><a xlink:href="../../dd/d8e/classuser_interface_1_1_user_interface.html#af296b064499e62c4fbfbf73da6456532" target="_top" xlink:title="userInterface.UserInterface.\lUserInterface">
<polygon fill="white" stroke="black" points="1402,-24 1402,-54 1552,-54 1552,-24 1402,-24"/>
<text text-anchor="start" x="1410" y="-42" font-family="Helvetica,sans-Serif" font-size="10.00">userInterface.UserInterface.</text>
<text text-anchor="middle" x="1477" y="-31" font-family="Helvetica,sans-Serif" font-size="10.00">UserInterface</text>
</a>
</g>
</g>
<!-- Node6&#45;&gt;Node7 -->
<g id="edge6" class="edge"><title>Node6&#45;&gt;Node7</title>
<path fill="none" stroke="midnightblue" d="M1369.88,-52.3986C1380.58,-51.0478 1391.39,-49.683 1401.81,-48.3677"/>
<polygon fill="midnightblue" stroke="midnightblue" points="1369.16,-48.962 1359.68,-53.6872 1370.04,-55.9069 1369.16,-48.962"/>
</g>
<!-- Node9 -->
<g id="node9" class="node"><title>Node9</title>
<g id="a_node9"><a xlink:href="../../dd/d8e/classuser_interface_1_1_user_interface.html#a6d39ee7d7ae35fc0539bb714bce6221a" target="_top" xlink:title="userInterface.UserInterface.make\lFunctionButtons">
<polygon fill="white" stroke="black" points="1188.5,-0 1188.5,-30 1365.5,-30 1365.5,-0 1188.5,-0"/>
<text text-anchor="start" x="1196.5" y="-18" font-family="Helvetica,sans-Serif" font-size="10.00">userInterface.UserInterface.make</text>
<text text-anchor="middle" x="1277" y="-7" font-family="Helvetica,sans-Serif" font-size="10.00">FunctionButtons</text>
</a>
</g>
</g>
<!-- Node8&#45;&gt;Node9 -->
<g id="edge8" class="edge"><title>Node8&#45;&gt;Node9</title>
<path fill="none" stroke="midnightblue" d="M1162.01,-16.0754C1170.78,-15.9926 1179.63,-15.9092 1188.31,-15.8273"/>
<polygon fill="midnightblue" stroke="midnightblue" points="1161.73,-12.5778 1151.76,-16.1721 1161.79,-19.5775 1161.73,-12.5778"/>
</g>
<!-- Node9&#45;&gt;Node7 -->
<g id="edge9" class="edge"><title>Node9&#45;&gt;Node7</title>
<path fill="none" stroke="midnightblue" d="M1375.67,-26.8393C1384.52,-27.9113 1393.38,-28.985 1401.97,-30.0262"/>
<polygon fill="midnightblue" stroke="midnightblue" points="1376.06,-23.3604 1365.71,-25.6316 1375.22,-30.3095 1376.06,-23.3604"/>
</g>
</g>
</svg>
