<?xml version="1.0" encoding="UTF-8" standalone="no"?>
<!DOCTYPE svg PUBLIC "-//W3C//DTD SVG 1.1//EN"
 "http://www.w3.org/Graphics/SVG/1.1/DTD/svg11.dtd">
<!-- Generated by graphviz version 2.36.0 (20140111.2315)
 -->
<!-- Title: command.CommandFactory.reflectCMD Pages: 1 -->
<svg width="1856pt" height="71pt"
 viewBox="0.00 0.00 1856.00 71.00" xmlns="http://www.w3.org/2000/svg" xmlns:xlink="http://www.w3.org/1999/xlink">
<g id="graph0" class="graph" transform="scale(1 1) rotate(0) translate(4 67)">
<title>command.CommandFactory.reflectCMD</title>
<polygon fill="white" stroke="none" points="-4,4 -4,-67 1852,-67 1852,4 -4,4"/>
<!-- Node1 -->
<g id="node1" class="node"><title>Node1</title>
<polygon fill="#bfbfbf" stroke="black" points="0.5,-24.5 0.5,-43.5 207.5,-43.5 207.5,-24.5 0.5,-24.5"/>
<text text-anchor="middle" x="104" y="-31.5" font-family="Helvetica,sans-Serif" font-size="10.00">command.CommandFactory.reflectCMD</text>
</g>
<!-- Node2 -->
<g id="node2" class="node"><title>Node2</title>
<g id="a_node2"><a xlink:href="../../d9/d1b/classcommand_1_1_command_factory.html#ab25bb047b051661d31adf73b2dae5649" target="_top" xlink:title="command.CommandFactory.create\lCommand">
<polygon fill="white" stroke="black" points="244.5,-19 244.5,-49 429.5,-49 429.5,-19 244.5,-19"/>
<text text-anchor="start" x="252.5" y="-37" font-family="Helvetica,sans-Serif" font-size="10.00">command.CommandFactory.create</text>
<text text-anchor="middle" x="337" y="-26" font-family="Helvetica,sans-Serif" font-size="10.00">Command</text>
</a>
</g>
</g>
<!-- Node1&#45;&gt;Node2 -->
<g id="edge1" class="edge"><title>Node1&#45;&gt;Node2</title>
<path fill="none" stroke="midnightblue" d="M217.681,-34C226.57,-34 235.481,-34 244.204,-34"/>
<polygon fill="midnightblue" stroke="midnightblue" points="217.665,-30.5001 207.665,-34 217.665,-37.5001 217.665,-30.5001"/>
</g>
<!-- Node3 -->
<g id="node3" class="node"><title>Node3</title>
<g id="a_node3"><a xlink:href="../../d6/d95/classparser_1_1_parser.html#a4ecbffc246c3add017c4720eed4c6da9" target="_top" xlink:title="parser.Parser.parse">
<polygon fill="white" stroke="black" points="466.5,-24.5 466.5,-43.5 575.5,-43.5 575.5,-24.5 466.5,-24.5"/>
<text text-anchor="middle" x="521" y="-31.5" font-family="Helvetica,sans-Serif" font-size="10.00">parser.Parser.parse</text>
</a>
</g>
</g>
<!-- Node2&#45;&gt;Node3 -->
<g id="edge2" class="edge"><title>Node2&#45;&gt;Node3</title>
<path fill="none" stroke="midnightblue" d="M439.822,-34C448.897,-34 457.826,-34 466.242,-34"/>
<polygon fill="midnightblue" stroke="midnightblue" points="439.533,-30.5001 429.533,-34 439.533,-37.5001 439.533,-30.5001"/>
</g>
<!-- Node4 -->
<g id="node4" class="node"><title>Node4</title>
<g id="a_node4"><a xlink:href="../../d6/d95/classparser_1_1_parser.html#a6b2d7b2b182d99537ce332ed0dfd3e03" target="_top" xlink:title="parser.Parser.main">
<polygon fill="white" stroke="black" points="612,-43.5 612,-62.5 718,-62.5 718,-43.5 612,-43.5"/>
<text text-anchor="middle" x="665" y="-50.5" font-family="Helvetica,sans-Serif" font-size="10.00">parser.Parser.main</text>
</a>
</g>
</g>
<!-- Node3&#45;&gt;Node4 -->
<g id="edge3" class="edge"><title>Node3&#45;&gt;Node4</title>
<path fill="none" stroke="midnightblue" d="M585.754,-42.5304C594.415,-43.6893 603.222,-44.8677 611.651,-45.9955"/>
<polygon fill="midnightblue" stroke="midnightblue" points="586.06,-39.0403 575.684,-41.1831 585.132,-45.9785 586.06,-39.0403"/>
</g>
<!-- Node5 -->
<g id="node5" class="node"><title>Node5</title>
<g id="a_node5"><a xlink:href="../../d9/dd0/classworld_1_1_world.html#ae370733f7784c42741a6ba66c7d2ecf5" target="_top" xlink:title="world.World.listen">
<polygon fill="white" stroke="black" points="616,-5.5 616,-24.5 714,-24.5 714,-5.5 616,-5.5"/>
<text text-anchor="middle" x="665" y="-12.5" font-family="Helvetica,sans-Serif" font-size="10.00">world.World.listen</text>
</a>
</g>
</g>
<!-- Node3&#45;&gt;Node5 -->
<g id="edge4" class="edge"><title>Node3&#45;&gt;Node5</title>
<path fill="none" stroke="midnightblue" d="M585.708,-25.4756C595.83,-24.1213 606.152,-22.7402 615.839,-21.4441"/>
<polygon fill="midnightblue" stroke="midnightblue" points="585.132,-22.0215 575.684,-26.8169 586.06,-28.9597 585.132,-22.0215"/>
</g>
<!-- Node6 -->
<g id="node6" class="node"><title>Node6</title>
<g id="a_node6"><a xlink:href="../../d8/d08/classworld_controller_1_1_world_controller.html#a178425d68e3e669c386706153ce44999" target="_top" xlink:title="worldController.WorldController.update">
<polygon fill="white" stroke="black" points="754,-5.5 754,-24.5 952,-24.5 952,-5.5 754,-5.5"/>
<text text-anchor="middle" x="853" y="-12.5" font-family="Helvetica,sans-Serif" font-size="10.00">worldController.WorldController.update</text>
</a>
</g>
</g>
<!-- Node5&#45;&gt;Node6 -->
<g id="edge5" class="edge"><title>Node5&#45;&gt;Node6</title>
<path fill="none" stroke="midnightblue" d="M724.637,-15C733.94,-15 743.777,-15 753.695,-15"/>
<polygon fill="midnightblue" stroke="midnightblue" points="724.384,-11.5001 714.384,-15 724.384,-18.5001 724.384,-11.5001"/>
</g>
<!-- Node7 -->
<g id="node7" class="node"><title>Node7</title>
<g id="a_node7"><a xlink:href="../../d0/d7c/classuser_interface_1_1_u_i.html#ab17592b00ba0b808f524b4fc223303ec" target="_top" xlink:title="userInterface.UI.runCommand">
<polygon fill="white" stroke="black" points="988.5,-5.5 988.5,-24.5 1149.5,-24.5 1149.5,-5.5 988.5,-5.5"/>
<text text-anchor="middle" x="1069" y="-12.5" font-family="Helvetica,sans-Serif" font-size="10.00">userInterface.UI.runCommand</text>
</a>
</g>
</g>
<!-- Node6&#45;&gt;Node7 -->
<g id="edge6" class="edge"><title>Node6&#45;&gt;Node7</title>
<path fill="none" stroke="midnightblue" d="M962.451,-15C971.164,-15 979.863,-15 988.319,-15"/>
<polygon fill="midnightblue" stroke="midnightblue" points="962.231,-11.5001 952.231,-15 962.231,-18.5001 962.231,-11.5001"/>
</g>
<!-- Node8 -->
<g id="node8" class="node"><title>Node8</title>
<g id="a_node8"><a xlink:href="../../d0/d7c/classuser_interface_1_1_u_i.html#a02bd34909b5d6037ea8ebe812879b90a" target="_top" xlink:title="userInterface.UI.makeRun\lButton">
<polygon fill="white" stroke="black" points="1186,-0 1186,-30 1326,-30 1326,-0 1186,-0"/>
<text text-anchor="start" x="1194" y="-18" font-family="Helvetica,sans-Serif" font-size="10.00">userInterface.UI.makeRun</text>
<text text-anchor="middle" x="1256" y="-7" font-family="Helvetica,sans-Serif" font-size="10.00">Button</text>
</a>
</g>
</g>
<!-- Node7&#45;&gt;Node8 -->
<g id="edge7" class="edge"><title>Node7&#45;&gt;Node8</title>
<path fill="none" stroke="midnightblue" d="M1159.75,-15C1168.48,-15 1177.24,-15 1185.73,-15"/>
<polygon fill="midnightblue" stroke="midnightblue" points="1159.53,-11.5001 1149.53,-15 1159.53,-18.5001 1159.53,-11.5001"/>
</g>
<!-- Node9 -->
<g id="node9" class="node"><title>Node9</title>
<g id="a_node9"><a xlink:href="../../d0/d7c/classuser_interface_1_1_u_i.html#a9f7eaa121e1405b45e262f03859f9ff0" target="_top" xlink:title="userInterface.UI.setUpCommand\lField">
<polygon fill="white" stroke="black" points="1362,-0 1362,-30 1536,-30 1536,-0 1362,-0"/>
<text text-anchor="start" x="1370" y="-18" font-family="Helvetica,sans-Serif" font-size="10.00">userInterface.UI.setUpCommand</text>
<text text-anchor="middle" x="1449" y="-7" font-family="Helvetica,sans-Serif" font-size="10.00">Field</text>
</a>
</g>
</g>
<!-- Node8&#45;&gt;Node9 -->
<g id="edge8" class="edge"><title>Node8&#45;&gt;Node9</title>
<path fill="none" stroke="midnightblue" d="M1336.34,-15C1344.73,-15 1353.28,-15 1361.73,-15"/>
<polygon fill="midnightblue" stroke="midnightblue" points="1336.23,-11.5001 1326.23,-15 1336.23,-18.5001 1336.23,-11.5001"/>
</g>
<!-- Node10 -->
<g id="node10" class="node"><title>Node10</title>
<g id="a_node10"><a xlink:href="../../d0/d7c/classuser_interface_1_1_u_i.html#a8b1a665c129df3827e48e2739afe870d" target="_top" xlink:title="userInterface.UI.initialize">
<polygon fill="white" stroke="black" points="1572,-5.5 1572,-24.5 1706,-24.5 1706,-5.5 1572,-5.5"/>
<text text-anchor="middle" x="1639" y="-12.5" font-family="Helvetica,sans-Serif" font-size="10.00">userInterface.UI.initialize</text>
</a>
</g>
</g>
<!-- Node9&#45;&gt;Node10 -->
<g id="edge9" class="edge"><title>Node9&#45;&gt;Node10</title>
<path fill="none" stroke="midnightblue" d="M1546.16,-15C1554.8,-15 1563.42,-15 1571.72,-15"/>
<polygon fill="midnightblue" stroke="midnightblue" points="1546.02,-11.5001 1536.02,-15 1546.02,-18.5001 1546.02,-11.5001"/>
</g>
<!-- Node11 -->
<g id="node11" class="node"><title>Node11</title>
<g id="a_node11"><a xlink:href="../../d0/d7c/classuser_interface_1_1_u_i.html#a378fe4fa2136ee8c5196e86189c0d484" target="_top" xlink:title="userInterface.UI.UI">
<polygon fill="white" stroke="black" points="1742.5,-5.5 1742.5,-24.5 1847.5,-24.5 1847.5,-5.5 1742.5,-5.5"/>
<text text-anchor="middle" x="1795" y="-12.5" font-family="Helvetica,sans-Serif" font-size="10.00">userInterface.UI.UI</text>
</a>
</g>
</g>
<!-- Node10&#45;&gt;Node11 -->
<g id="edge10" class="edge"><title>Node10&#45;&gt;Node11</title>
<path fill="none" stroke="midnightblue" d="M1716.44,-15C1725.19,-15 1733.95,-15 1742.27,-15"/>
<polygon fill="midnightblue" stroke="midnightblue" points="1716.2,-11.5001 1706.2,-15 1716.2,-18.5001 1716.2,-11.5001"/>
</g>
</g>
</svg>
