<?xml version="1.0" encoding="UTF-8" standalone="no"?>
<!DOCTYPE svg PUBLIC "-//W3C//DTD SVG 1.1//EN"
 "http://www.w3.org/Graphics/SVG/1.1/DTD/svg11.dtd">
<!-- Generated by graphviz version 2.36.0 (20140111.2315)
 -->
<!-- Title: command.CommandFactory.makeParams Pages: 1 -->
<svg width="612pt" height="87pt"
 viewBox="0.00 0.00 612.00 87.00" xmlns="http://www.w3.org/2000/svg" xmlns:xlink="http://www.w3.org/1999/xlink">
<g id="graph0" class="graph" transform="scale(1 1) rotate(0) translate(4 83)">
<title>command.CommandFactory.makeParams</title>
<polygon fill="white" stroke="none" points="-4,4 -4,-83 608,-83 608,4 -4,4"/>
<!-- Node1 -->
<g id="node1" class="node"><title>Node1</title>
<polygon fill="#bfbfbf" stroke="black" points="0,-24 0,-54 182,-54 182,-24 0,-24"/>
<text text-anchor="start" x="8" y="-42" font-family="Helvetica,sans-Serif" font-size="10.00">command.CommandFactory.make</text>
<text text-anchor="middle" x="91" y="-31" font-family="Helvetica,sans-Serif" font-size="10.00">Params</text>
</g>
<!-- Node2 -->
<g id="node2" class="node"><title>Node2</title>
<g id="a_node2"><a xlink:href="../../d9/d1b/classcommand_1_1_command_factory.html#a3a7f93181d4b08336437520928c5108b" target="_top" xlink:title="command.CommandFactory.add\lParam">
<polygon fill="white" stroke="black" points="218.5,-24 218.5,-54 391.5,-54 391.5,-24 218.5,-24"/>
<text text-anchor="start" x="226.5" y="-42" font-family="Helvetica,sans-Serif" font-size="10.00">command.CommandFactory.add</text>
<text text-anchor="middle" x="305" y="-31" font-family="Helvetica,sans-Serif" font-size="10.00">Param</text>
</a>
</g>
</g>
<!-- Node1&#45;&gt;Node2 -->
<g id="edge1" class="edge"><title>Node1&#45;&gt;Node2</title>
<path fill="none" stroke="midnightblue" d="M182.214,-39C190.801,-39 199.528,-39 208.165,-39"/>
<polygon fill="midnightblue" stroke="midnightblue" points="208.248,-42.5001 218.248,-39 208.248,-35.5001 208.248,-42.5001"/>
</g>
<!-- Node3 -->
<g id="node3" class="node"><title>Node3</title>
<g id="a_node3"><a xlink:href="../../d9/d1b/classcommand_1_1_command_factory.html#aac2ddc62b74ef8c562cb19841b6a21c6" target="_top" xlink:title="command.CommandFactory.is\lVariable">
<polygon fill="white" stroke="black" points="435,-49 435,-79 597,-79 597,-49 435,-49"/>
<text text-anchor="start" x="443" y="-67" font-family="Helvetica,sans-Serif" font-size="10.00">command.CommandFactory.is</text>
<text text-anchor="middle" x="516" y="-56" font-family="Helvetica,sans-Serif" font-size="10.00">Variable</text>
</a>
</g>
</g>
<!-- Node2&#45;&gt;Node3 -->
<g id="edge2" class="edge"><title>Node2&#45;&gt;Node3</title>
<path fill="none" stroke="midnightblue" d="M391.611,-49.2406C402.573,-50.5518 413.821,-51.8972 424.851,-53.2167"/>
<polygon fill="midnightblue" stroke="midnightblue" points="424.561,-56.7068 434.906,-54.4194 425.393,-49.7564 424.561,-56.7068"/>
</g>
<!-- Node4 -->
<g id="node4" class="node"><title>Node4</title>
<g id="a_node4"><a xlink:href="../../d9/d1b/classcommand_1_1_command_factory.html#a4a093c2b17212339a5c43b581f818682" target="_top" xlink:title="command.CommandFactory.read\lVariable">
<polygon fill="white" stroke="black" points="428,-0 428,-30 604,-30 604,-0 428,-0"/>
<text text-anchor="start" x="436" y="-18" font-family="Helvetica,sans-Serif" font-size="10.00">command.CommandFactory.read</text>
<text text-anchor="middle" x="516" y="-7" font-family="Helvetica,sans-Serif" font-size="10.00">Variable</text>
</a>
</g>
</g>
<!-- Node2&#45;&gt;Node4 -->
<g id="edge3" class="edge"><title>Node2&#45;&gt;Node4</title>
<path fill="none" stroke="midnightblue" d="M391.611,-29.169C400.2,-28.1828 408.965,-27.1763 417.663,-26.1774"/>
<polygon fill="midnightblue" stroke="midnightblue" points="418.294,-29.6281 427.829,-25.0101 417.495,-22.6738 418.294,-29.6281"/>
</g>
</g>
</svg>
