<?xml version="1.0" encoding="UTF-8" standalone="no"?>
<!DOCTYPE svg PUBLIC "-//W3C//DTD SVG 1.1//EN"
 "http://www.w3.org/Graphics/SVG/1.1/DTD/svg11.dtd">
<!-- Generated by graphviz version 2.36.0 (20140111.2315)
 -->
<!-- Title: command.CommandFactory.setTranslationMap Pages: 1 -->
<svg width="772pt" height="87pt"
 viewBox="0.00 0.00 772.00 87.00" xmlns="http://www.w3.org/2000/svg" xmlns:xlink="http://www.w3.org/1999/xlink">
<g id="graph0" class="graph" transform="scale(1 1) rotate(0) translate(4 83)">
<title>command.CommandFactory.setTranslationMap</title>
<polygon fill="white" stroke="none" points="-4,4 -4,-83 768,-83 768,4 -4,4"/>
<!-- Node1 -->
<g id="node1" class="node"><title>Node1</title>
<polygon fill="#bfbfbf" stroke="black" points="0,-24 0,-54 170,-54 170,-24 0,-24"/>
<text text-anchor="start" x="8" y="-42" font-family="Helvetica,sans-Serif" font-size="10.00">command.CommandFactory.set</text>
<text text-anchor="middle" x="85" y="-31" font-family="Helvetica,sans-Serif" font-size="10.00">TranslationMap</text>
</g>
<!-- Node2 -->
<g id="node2" class="node"><title>Node2</title>
<g id="a_node2"><a xlink:href="../../d9/d1b/classcommand_1_1_command_factory.html#a11c96978d36a47061f3df041fc256cdf" target="_top" xlink:title="command.CommandFactory.Command\lFactory">
<polygon fill="white" stroke="black" points="206.5,-49 206.5,-79 411.5,-79 411.5,-49 206.5,-49"/>
<text text-anchor="start" x="214.5" y="-67" font-family="Helvetica,sans-Serif" font-size="10.00">command.CommandFactory.Command</text>
<text text-anchor="middle" x="309" y="-56" font-family="Helvetica,sans-Serif" font-size="10.00">Factory</text>
</a>
</g>
</g>
<!-- Node1&#45;&gt;Node2 -->
<g id="edge1" class="edge"><title>Node1&#45;&gt;Node2</title>
<path fill="none" stroke="midnightblue" d="M180.269,-49.6159C188.873,-50.5848 197.614,-51.5691 206.279,-52.5449"/>
<polygon fill="midnightblue" stroke="midnightblue" points="180.574,-46.1282 170.245,-48.4871 179.791,-53.0842 180.574,-46.1282"/>
</g>
<!-- Node3 -->
<g id="node3" class="node"><title>Node3</title>
<g id="a_node3"><a xlink:href="../../d9/d1b/classcommand_1_1_command_factory.html#aefbf95ff32788eb3b04d84d0f3c1a09a" target="_top" xlink:title="command.CommandFactory.set\lLanguage">
<polygon fill="white" stroke="black" points="224,-0 224,-30 394,-30 394,-0 224,-0"/>
<text text-anchor="start" x="232" y="-18" font-family="Helvetica,sans-Serif" font-size="10.00">command.CommandFactory.set</text>
<text text-anchor="middle" x="309" y="-7" font-family="Helvetica,sans-Serif" font-size="10.00">Language</text>
</a>
</g>
</g>
<!-- Node1&#45;&gt;Node3 -->
<g id="edge2" class="edge"><title>Node1&#45;&gt;Node3</title>
<path fill="none" stroke="midnightblue" d="M180.199,-28.8163C194.685,-27.2502 209.562,-25.6419 223.812,-24.1014"/>
<polygon fill="midnightblue" stroke="midnightblue" points="179.811,-25.3378 170.245,-29.8924 180.564,-32.2972 179.811,-25.3378"/>
</g>
<!-- Node4 -->
<g id="node4" class="node"><title>Node4</title>
<g id="a_node4"><a xlink:href="../../d6/d95/classparser_1_1_parser.html#a0fbf692895cf9375b199cd3ab16a85dc" target="_top" xlink:title="parser.Parser.setLanguage">
<polygon fill="white" stroke="black" points="448,-5.5 448,-24.5 592,-24.5 592,-5.5 448,-5.5"/>
<text text-anchor="middle" x="520" y="-12.5" font-family="Helvetica,sans-Serif" font-size="10.00">parser.Parser.setLanguage</text>
</a>
</g>
</g>
<!-- Node3&#45;&gt;Node4 -->
<g id="edge3" class="edge"><title>Node3&#45;&gt;Node4</title>
<path fill="none" stroke="midnightblue" d="M404.194,-15C418.852,-15 433.783,-15 447.818,-15"/>
<polygon fill="midnightblue" stroke="midnightblue" points="404.105,-11.5001 394.105,-15 404.105,-18.5001 404.105,-11.5001"/>
</g>
<!-- Node5 -->
<g id="node5" class="node"><title>Node5</title>
<g id="a_node5"><a xlink:href="../../d9/dd0/classworld_1_1_world.html#a3fce16a21fcf18b812d35b28349811d5" target="_top" xlink:title="world.World.setLanguage">
<polygon fill="white" stroke="black" points="628.5,-5.5 628.5,-24.5 763.5,-24.5 763.5,-5.5 628.5,-5.5"/>
<text text-anchor="middle" x="696" y="-12.5" font-family="Helvetica,sans-Serif" font-size="10.00">world.World.setLanguage</text>
</a>
</g>
</g>
<!-- Node4&#45;&gt;Node5 -->
<g id="edge4" class="edge"><title>Node4&#45;&gt;Node5</title>
<path fill="none" stroke="midnightblue" d="M602.251,-15C611.012,-15 619.851,-15 628.411,-15"/>
<polygon fill="midnightblue" stroke="midnightblue" points="602.023,-11.5001 592.023,-15 602.023,-18.5001 602.023,-11.5001"/>
</g>
</g>
</svg>
