<?xml version="1.0" encoding="UTF-8" standalone="no"?>
<!DOCTYPE svg PUBLIC "-//W3C//DTD SVG 1.1//EN"
 "http://www.w3.org/Graphics/SVG/1.1/DTD/svg11.dtd">
<!-- Generated by graphviz version 2.36.0 (20140111.2315)
 -->
<!-- Title: command.CommandFactory.initializeLoopVariables Pages: 1 -->
<svg width="1714pt" height="105pt"
 viewBox="0.00 0.00 1714.00 105.00" xmlns="http://www.w3.org/2000/svg" xmlns:xlink="http://www.w3.org/1999/xlink">
<g id="graph0" class="graph" transform="scale(1 1) rotate(0) translate(4 101)">
<title>command.CommandFactory.initializeLoopVariables</title>
<polygon fill="white" stroke="none" points="-4,4 -4,-101 1710,-101 1710,4 -4,4"/>
<!-- Node1 -->
<g id="node1" class="node"><title>Node1</title>
<polygon fill="#bfbfbf" stroke="black" points="0.5,-45 0.5,-75 193.5,-75 193.5,-45 0.5,-45"/>
<text text-anchor="start" x="8.5" y="-63" font-family="Helvetica,sans-Serif" font-size="10.00">command.CommandFactory.initialize</text>
<text text-anchor="middle" x="97" y="-52" font-family="Helvetica,sans-Serif" font-size="10.00">LoopVariables</text>
</g>
<!-- Node2 -->
<g id="node2" class="node"><title>Node2</title>
<g id="a_node2"><a xlink:href="../../d6/d95/classparser_1_1_parser.html#a4f582c65390bddc57219c0b5c31ef5e7" target="_top" xlink:title="parser.Parser.makeTree">
<polygon fill="white" stroke="black" points="230,-50.5 230,-69.5 358,-69.5 358,-50.5 230,-50.5"/>
<text text-anchor="middle" x="294" y="-57.5" font-family="Helvetica,sans-Serif" font-size="10.00">parser.Parser.makeTree</text>
</a>
</g>
</g>
<!-- Node1&#45;&gt;Node2 -->
<g id="edge1" class="edge"><title>Node1&#45;&gt;Node2</title>
<path fill="none" stroke="midnightblue" d="M203.626,-60C212.575,-60 221.431,-60 229.891,-60"/>
<polygon fill="midnightblue" stroke="midnightblue" points="203.501,-56.5001 193.501,-60 203.501,-63.5001 203.501,-56.5001"/>
</g>
<!-- Node3 -->
<g id="node3" class="node"><title>Node3</title>
<g id="a_node3"><a xlink:href="../../d6/d95/classparser_1_1_parser.html#a240c75608624a9c67402a296855c4d1d" target="_top" xlink:title="parser.Parser.initialize\lCommands">
<polygon fill="white" stroke="black" points="394,-67 394,-97 514,-97 514,-67 394,-67"/>
<text text-anchor="start" x="402" y="-85" font-family="Helvetica,sans-Serif" font-size="10.00">parser.Parser.initialize</text>
<text text-anchor="middle" x="454" y="-74" font-family="Helvetica,sans-Serif" font-size="10.00">Commands</text>
</a>
</g>
</g>
<!-- Node2&#45;&gt;Node3 -->
<g id="edge2" class="edge"><title>Node2&#45;&gt;Node3</title>
<path fill="none" stroke="midnightblue" d="M368.368,-70.2158C376.954,-71.4114 385.63,-72.6193 393.986,-73.7828"/>
<polygon fill="midnightblue" stroke="midnightblue" points="368.741,-66.7341 358.354,-68.8215 367.776,-73.6672 368.741,-66.7341"/>
</g>
<!-- Node12 -->
<g id="node12" class="node"><title>Node12</title>
<g id="a_node12"><a xlink:href="../../d6/d95/classparser_1_1_parser.html#a4ecbffc246c3add017c4720eed4c6da9" target="_top" xlink:title="parser.Parser.parse">
<polygon fill="white" stroke="black" points="399.5,-28.5 399.5,-47.5 508.5,-47.5 508.5,-28.5 399.5,-28.5"/>
<text text-anchor="middle" x="454" y="-35.5" font-family="Helvetica,sans-Serif" font-size="10.00">parser.Parser.parse</text>
</a>
</g>
</g>
<!-- Node2&#45;&gt;Node12 -->
<g id="edge12" class="edge"><title>Node2&#45;&gt;Node12</title>
<path fill="none" stroke="midnightblue" d="M368.299,-49.7938C378.739,-48.3402 389.312,-46.8679 399.284,-45.4794"/>
<polygon fill="midnightblue" stroke="midnightblue" points="367.776,-46.3328 358.354,-51.1785 368.741,-53.2659 367.776,-46.3328"/>
</g>
<!-- Node4 -->
<g id="node4" class="node"><title>Node4</title>
<g id="a_node4"><a xlink:href="../../d6/d95/classparser_1_1_parser.html#a6b2d7b2b182d99537ce332ed0dfd3e03" target="_top" xlink:title="parser.Parser.main">
<polygon fill="white" stroke="black" points="550,-70.5 550,-89.5 656,-89.5 656,-70.5 550,-70.5"/>
<text text-anchor="middle" x="603" y="-77.5" font-family="Helvetica,sans-Serif" font-size="10.00">parser.Parser.main</text>
</a>
</g>
</g>
<!-- Node3&#45;&gt;Node4 -->
<g id="edge3" class="edge"><title>Node3&#45;&gt;Node4</title>
<path fill="none" stroke="midnightblue" d="M524.409,-81.0557C533.016,-80.9386 541.699,-80.8204 549.983,-80.7077"/>
<polygon fill="midnightblue" stroke="midnightblue" points="524.318,-77.5565 514.367,-81.1923 524.414,-84.5558 524.318,-77.5565"/>
</g>
<!-- Node5 -->
<g id="node5" class="node"><title>Node5</title>
<g id="a_node5"><a xlink:href="../../d9/dd0/classworld_1_1_world.html#ae370733f7784c42741a6ba66c7d2ecf5" target="_top" xlink:title="world.World.listen">
<polygon fill="white" stroke="black" points="554,-29.5 554,-48.5 652,-48.5 652,-29.5 554,-29.5"/>
<text text-anchor="middle" x="603" y="-36.5" font-family="Helvetica,sans-Serif" font-size="10.00">world.World.listen</text>
</a>
</g>
</g>
<!-- Node3&#45;&gt;Node5 -->
<g id="edge4" class="edge"><title>Node3&#45;&gt;Node5</title>
<path fill="none" stroke="midnightblue" d="M516.104,-64.126C534.316,-58.7988 553.573,-53.1658 569.228,-48.5865"/>
<polygon fill="midnightblue" stroke="midnightblue" points="515.029,-60.7939 506.413,-66.9607 516.994,-67.5123 515.029,-60.7939"/>
</g>
<!-- Node6 -->
<g id="node6" class="node"><title>Node6</title>
<g id="a_node6"><a xlink:href="../../d8/d08/classworld_controller_1_1_world_controller.html#a178425d68e3e669c386706153ce44999" target="_top" xlink:title="worldController.WorldController.update">
<polygon fill="white" stroke="black" points="692,-29.5 692,-48.5 890,-48.5 890,-29.5 692,-29.5"/>
<text text-anchor="middle" x="791" y="-36.5" font-family="Helvetica,sans-Serif" font-size="10.00">worldController.WorldController.update</text>
</a>
</g>
</g>
<!-- Node5&#45;&gt;Node6 -->
<g id="edge5" class="edge"><title>Node5&#45;&gt;Node6</title>
<path fill="none" stroke="midnightblue" d="M662.637,-39C671.94,-39 681.777,-39 691.695,-39"/>
<polygon fill="midnightblue" stroke="midnightblue" points="662.384,-35.5001 652.384,-39 662.384,-42.5001 662.384,-35.5001"/>
</g>
<!-- Node7 -->
<g id="node7" class="node"><title>Node7</title>
<g id="a_node7"><a xlink:href="../../dd/d8e/classuser_interface_1_1_user_interface.html#a95e324c85888faea808be269e44ed5b8" target="_top" xlink:title="userInterface.UserInterface.run\lCommand">
<polygon fill="white" stroke="black" points="926,-24 926,-54 1092,-54 1092,-24 926,-24"/>
<text text-anchor="start" x="934" y="-42" font-family="Helvetica,sans-Serif" font-size="10.00">userInterface.UserInterface.run</text>
<text text-anchor="middle" x="1009" y="-31" font-family="Helvetica,sans-Serif" font-size="10.00">Command</text>
</a>
</g>
</g>
<!-- Node6&#45;&gt;Node7 -->
<g id="edge6" class="edge"><title>Node6&#45;&gt;Node7</title>
<path fill="none" stroke="midnightblue" d="M900.29,-39C908.892,-39 917.492,-39 925.871,-39"/>
<polygon fill="midnightblue" stroke="midnightblue" points="900.203,-35.5001 890.203,-39 900.203,-42.5001 900.203,-35.5001"/>
</g>
<!-- Node8 -->
<g id="node8" class="node"><title>Node8</title>
<g id="a_node8"><a xlink:href="../../dd/d8e/classuser_interface_1_1_user_interface.html#a560c36977fddeee87002333870c54ed6" target="_top" xlink:title="userInterface.UserInterface.set\lUpResponses">
<polygon fill="white" stroke="black" points="1348.5,-49 1348.5,-79 1513.5,-79 1513.5,-49 1348.5,-49"/>
<text text-anchor="start" x="1356.5" y="-67" font-family="Helvetica,sans-Serif" font-size="10.00">userInterface.UserInterface.set</text>
<text text-anchor="middle" x="1431" y="-56" font-family="Helvetica,sans-Serif" font-size="10.00">UpResponses</text>
</a>
</g>
</g>
<!-- Node7&#45;&gt;Node8 -->
<g id="edge7" class="edge"><title>Node7&#45;&gt;Node8</title>
<path fill="none" stroke="midnightblue" d="M1102.4,-44.5003C1175.91,-48.8757 1277.79,-54.9396 1348.33,-59.1386"/>
<polygon fill="midnightblue" stroke="midnightblue" points="1102.42,-40.9949 1092.23,-43.8945 1102,-47.9826 1102.42,-40.9949"/>
</g>
<!-- Node10 -->
<g id="node10" class="node"><title>Node10</title>
<g id="a_node10"><a xlink:href="../../dd/d8e/classuser_interface_1_1_user_interface.html#a4316649a1f81fcc1dcaf93c812bf6f3a" target="_top" xlink:title="userInterface.UserInterface.make\lRunButton">
<polygon fill="white" stroke="black" points="1128.5,-2 1128.5,-32 1305.5,-32 1305.5,-2 1128.5,-2"/>
<text text-anchor="start" x="1136.5" y="-20" font-family="Helvetica,sans-Serif" font-size="10.00">userInterface.UserInterface.make</text>
<text text-anchor="middle" x="1217" y="-9" font-family="Helvetica,sans-Serif" font-size="10.00">RunButton</text>
</a>
</g>
</g>
<!-- Node7&#45;&gt;Node10 -->
<g id="edge9" class="edge"><title>Node7&#45;&gt;Node10</title>
<path fill="none" stroke="midnightblue" d="M1102.12,-29.1618C1110.79,-28.2361 1119.56,-27.2994 1128.19,-26.3781"/>
<polygon fill="midnightblue" stroke="midnightblue" points="1101.58,-25.6996 1092.01,-30.2418 1102.32,-32.66 1101.58,-25.6996"/>
</g>
<!-- Node9 -->
<g id="node9" class="node"><title>Node9</title>
<g id="a_node9"><a xlink:href="../../dd/d8e/classuser_interface_1_1_user_interface.html#af296b064499e62c4fbfbf73da6456532" target="_top" xlink:title="userInterface.UserInterface.\lUserInterface">
<polygon fill="white" stroke="black" points="1556,-24 1556,-54 1706,-54 1706,-24 1556,-24"/>
<text text-anchor="start" x="1564" y="-42" font-family="Helvetica,sans-Serif" font-size="10.00">userInterface.UserInterface.</text>
<text text-anchor="middle" x="1631" y="-31" font-family="Helvetica,sans-Serif" font-size="10.00">UserInterface</text>
</a>
</g>
</g>
<!-- Node8&#45;&gt;Node9 -->
<g id="edge8" class="edge"><title>Node8&#45;&gt;Node9</title>
<path fill="none" stroke="midnightblue" d="M1523.88,-52.3986C1534.58,-51.0478 1545.39,-49.683 1555.81,-48.3677"/>
<polygon fill="midnightblue" stroke="midnightblue" points="1523.16,-48.962 1513.68,-53.6872 1524.04,-55.9069 1523.16,-48.962"/>
</g>
<!-- Node11 -->
<g id="node11" class="node"><title>Node11</title>
<g id="a_node11"><a xlink:href="../../dd/d8e/classuser_interface_1_1_user_interface.html#a6d39ee7d7ae35fc0539bb714bce6221a" target="_top" xlink:title="userInterface.UserInterface.make\lFunctionButtons">
<polygon fill="white" stroke="black" points="1342.5,-0 1342.5,-30 1519.5,-30 1519.5,-0 1342.5,-0"/>
<text text-anchor="start" x="1350.5" y="-18" font-family="Helvetica,sans-Serif" font-size="10.00">userInterface.UserInterface.make</text>
<text text-anchor="middle" x="1431" y="-7" font-family="Helvetica,sans-Serif" font-size="10.00">FunctionButtons</text>
</a>
</g>
</g>
<!-- Node10&#45;&gt;Node11 -->
<g id="edge10" class="edge"><title>Node10&#45;&gt;Node11</title>
<path fill="none" stroke="midnightblue" d="M1316.01,-16.0754C1324.78,-15.9926 1333.63,-15.9092 1342.31,-15.8273"/>
<polygon fill="midnightblue" stroke="midnightblue" points="1315.73,-12.5778 1305.76,-16.1721 1315.79,-19.5775 1315.73,-12.5778"/>
</g>
<!-- Node11&#45;&gt;Node9 -->
<g id="edge11" class="edge"><title>Node11&#45;&gt;Node9</title>
<path fill="none" stroke="midnightblue" d="M1529.67,-26.8393C1538.52,-27.9113 1547.38,-28.985 1555.97,-30.0262"/>
<polygon fill="midnightblue" stroke="midnightblue" points="1530.06,-23.3604 1519.71,-25.6316 1529.22,-30.3095 1530.06,-23.3604"/>
</g>
<!-- Node12&#45;&gt;Node4 -->
<g id="edge13" class="edge"><title>Node12&#45;&gt;Node4</title>
<path fill="none" stroke="midnightblue" d="M498.002,-50.2862C520.493,-56.7122 547.615,-64.4613 568.521,-70.4347"/>
<polygon fill="midnightblue" stroke="midnightblue" points="498.933,-46.9124 488.357,-47.5305 497.01,-53.6431 498.933,-46.9124"/>
</g>
<!-- Node12&#45;&gt;Node5 -->
<g id="edge14" class="edge"><title>Node12&#45;&gt;Node5</title>
<path fill="none" stroke="midnightblue" d="M519.072,-38.4359C530.774,-38.5155 542.8,-38.5973 553.937,-38.673"/>
<polygon fill="midnightblue" stroke="midnightblue" points="518.926,-34.9349 508.903,-38.3667 518.879,-41.9347 518.926,-34.9349"/>
</g>
</g>
</svg>
