<?xml version="1.0" encoding="UTF-8" standalone="no"?>
<!DOCTYPE svg PUBLIC "-//W3C//DTD SVG 1.1//EN"
 "http://www.w3.org/Graphics/SVG/1.1/DTD/svg11.dtd">
<!-- Generated by graphviz version 2.36.0 (20140111.2315)
 -->
<!-- Title: command.CommandFactory.CommandFactory Pages: 1 -->
<svg width="420pt" height="38pt"
 viewBox="0.00 0.00 420.00 38.00" xmlns="http://www.w3.org/2000/svg" xmlns:xlink="http://www.w3.org/1999/xlink">
<g id="graph0" class="graph" transform="scale(1 1) rotate(0) translate(4 34)">
<title>command.CommandFactory.CommandFactory</title>
<polygon fill="white" stroke="none" points="-4,4 -4,-34 416,-34 416,4 -4,4"/>
<!-- Node1 -->
<g id="node1" class="node"><title>Node1</title>
<polygon fill="#bfbfbf" stroke="black" points="0.5,-0 0.5,-30 205.5,-30 205.5,-0 0.5,-0"/>
<text text-anchor="start" x="8.5" y="-18" font-family="Helvetica,sans-Serif" font-size="10.00">command.CommandFactory.Command</text>
<text text-anchor="middle" x="103" y="-7" font-family="Helvetica,sans-Serif" font-size="10.00">Factory</text>
</g>
<!-- Node2 -->
<g id="node2" class="node"><title>Node2</title>
<g id="a_node2"><a xlink:href="../../d9/d1b/classcommand_1_1_command_factory.html#ae6b7cca664ad47f77ea7e8e8adae9830" target="_top" xlink:title="command.CommandFactory.set\lTranslationMap">
<polygon fill="white" stroke="black" points="242,-0 242,-30 412,-30 412,-0 242,-0"/>
<text text-anchor="start" x="250" y="-18" font-family="Helvetica,sans-Serif" font-size="10.00">command.CommandFactory.set</text>
<text text-anchor="middle" x="327" y="-7" font-family="Helvetica,sans-Serif" font-size="10.00">TranslationMap</text>
</a>
</g>
</g>
<!-- Node1&#45;&gt;Node2 -->
<g id="edge1" class="edge"><title>Node1&#45;&gt;Node2</title>
<path fill="none" stroke="midnightblue" d="M205.579,-15C214.278,-15 223.054,-15 231.692,-15"/>
<polygon fill="midnightblue" stroke="midnightblue" points="231.756,-18.5001 241.756,-15 231.756,-11.5001 231.756,-18.5001"/>
</g>
</g>
</svg>
