<?xml version="1.0" encoding="UTF-8" standalone="no"?>
<!DOCTYPE svg PUBLIC "-//W3C//DTD SVG 1.1//EN"
 "http://www.w3.org/Graphics/SVG/1.1/DTD/svg11.dtd">
<!-- Generated by graphviz version 2.36.0 (20140111.2315)
 -->
<!-- Title: command.CommandFactory.addParam Pages: 1 -->
<svg width="2204pt" height="95pt"
 viewBox="0.00 0.00 2204.00 95.00" xmlns="http://www.w3.org/2000/svg" xmlns:xlink="http://www.w3.org/1999/xlink">
<g id="graph0" class="graph" transform="scale(1 1) rotate(0) translate(4 91)">
<title>command.CommandFactory.addParam</title>
<polygon fill="white" stroke="none" points="-4,4 -4,-91 2200,-91 2200,4 -4,4"/>
<!-- Node1 -->
<g id="node1" class="node"><title>Node1</title>
<polygon fill="#bfbfbf" stroke="black" points="0.5,-43 0.5,-73 173.5,-73 173.5,-43 0.5,-43"/>
<text text-anchor="start" x="8.5" y="-61" font-family="Helvetica,sans-Serif" font-size="10.00">command.CommandFactory.add</text>
<text text-anchor="middle" x="87" y="-50" font-family="Helvetica,sans-Serif" font-size="10.00">Param</text>
</g>
<!-- Node2 -->
<g id="node2" class="node"><title>Node2</title>
<g id="a_node2"><a xlink:href="../../d9/d1b/classcommand_1_1_command_factory.html#aed43691d920feaca374f4692bd238680" target="_top" xlink:title="command.CommandFactory.make\lParams">
<polygon fill="white" stroke="black" points="210,-43 210,-73 392,-73 392,-43 210,-43"/>
<text text-anchor="start" x="218" y="-61" font-family="Helvetica,sans-Serif" font-size="10.00">command.CommandFactory.make</text>
<text text-anchor="middle" x="301" y="-50" font-family="Helvetica,sans-Serif" font-size="10.00">Params</text>
</a>
</g>
</g>
<!-- Node1&#45;&gt;Node2 -->
<g id="edge1" class="edge"><title>Node1&#45;&gt;Node2</title>
<path fill="none" stroke="midnightblue" d="M183.772,-58C192.471,-58 201.263,-58 209.91,-58"/>
<polygon fill="midnightblue" stroke="midnightblue" points="183.617,-54.5001 173.617,-58 183.617,-61.5001 183.617,-54.5001"/>
</g>
<!-- Node3 -->
<g id="node3" class="node"><title>Node3</title>
<g id="a_node3"><a xlink:href="../../d9/d1b/classcommand_1_1_command_factory.html#abd97ea3e22afc09e07ed1d4fd039d11f" target="_top" xlink:title="command.CommandFactory.reflectCMD">
<polygon fill="white" stroke="black" points="428.5,-48.5 428.5,-67.5 635.5,-67.5 635.5,-48.5 428.5,-48.5"/>
<text text-anchor="middle" x="532" y="-55.5" font-family="Helvetica,sans-Serif" font-size="10.00">command.CommandFactory.reflectCMD</text>
</a>
</g>
</g>
<!-- Node2&#45;&gt;Node3 -->
<g id="edge2" class="edge"><title>Node2&#45;&gt;Node3</title>
<path fill="none" stroke="midnightblue" d="M402.286,-58C410.949,-58 419.723,-58 428.404,-58"/>
<polygon fill="midnightblue" stroke="midnightblue" points="402.178,-54.5001 392.178,-58 402.178,-61.5001 402.178,-54.5001"/>
</g>
<!-- Node4 -->
<g id="node4" class="node"><title>Node4</title>
<g id="a_node4"><a xlink:href="../../d9/d1b/classcommand_1_1_command_factory.html#ab25bb047b051661d31adf73b2dae5649" target="_top" xlink:title="command.CommandFactory.create\lCommand">
<polygon fill="white" stroke="black" points="672.5,-43 672.5,-73 857.5,-73 857.5,-43 672.5,-43"/>
<text text-anchor="start" x="680.5" y="-61" font-family="Helvetica,sans-Serif" font-size="10.00">command.CommandFactory.create</text>
<text text-anchor="middle" x="765" y="-50" font-family="Helvetica,sans-Serif" font-size="10.00">Command</text>
</a>
</g>
</g>
<!-- Node3&#45;&gt;Node4 -->
<g id="edge3" class="edge"><title>Node3&#45;&gt;Node4</title>
<path fill="none" stroke="midnightblue" d="M645.681,-58C654.57,-58 663.481,-58 672.204,-58"/>
<polygon fill="midnightblue" stroke="midnightblue" points="645.665,-54.5001 635.665,-58 645.665,-61.5001 645.665,-54.5001"/>
</g>
<!-- Node5 -->
<g id="node5" class="node"><title>Node5</title>
<g id="a_node5"><a xlink:href="../../d6/d95/classparser_1_1_parser.html#a4ecbffc246c3add017c4720eed4c6da9" target="_top" xlink:title="parser.Parser.parse">
<polygon fill="white" stroke="black" points="894.5,-48.5 894.5,-67.5 1003.5,-67.5 1003.5,-48.5 894.5,-48.5"/>
<text text-anchor="middle" x="949" y="-55.5" font-family="Helvetica,sans-Serif" font-size="10.00">parser.Parser.parse</text>
</a>
</g>
</g>
<!-- Node4&#45;&gt;Node5 -->
<g id="edge4" class="edge"><title>Node4&#45;&gt;Node5</title>
<path fill="none" stroke="midnightblue" d="M867.822,-58C876.897,-58 885.826,-58 894.242,-58"/>
<polygon fill="midnightblue" stroke="midnightblue" points="867.533,-54.5001 857.533,-58 867.533,-61.5001 867.533,-54.5001"/>
</g>
<!-- Node6 -->
<g id="node6" class="node"><title>Node6</title>
<g id="a_node6"><a xlink:href="../../d6/d95/classparser_1_1_parser.html#a6b2d7b2b182d99537ce332ed0dfd3e03" target="_top" xlink:title="parser.Parser.main">
<polygon fill="white" stroke="black" points="1040,-67.5 1040,-86.5 1146,-86.5 1146,-67.5 1040,-67.5"/>
<text text-anchor="middle" x="1093" y="-74.5" font-family="Helvetica,sans-Serif" font-size="10.00">parser.Parser.main</text>
</a>
</g>
</g>
<!-- Node5&#45;&gt;Node6 -->
<g id="edge5" class="edge"><title>Node5&#45;&gt;Node6</title>
<path fill="none" stroke="midnightblue" d="M1013.75,-66.5304C1022.41,-67.6893 1031.22,-68.8677 1039.65,-69.9955"/>
<polygon fill="midnightblue" stroke="midnightblue" points="1014.06,-63.0403 1003.68,-65.1831 1013.13,-69.9785 1014.06,-63.0403"/>
</g>
<!-- Node7 -->
<g id="node7" class="node"><title>Node7</title>
<g id="a_node7"><a xlink:href="../../d9/dd0/classworld_1_1_world.html#ae370733f7784c42741a6ba66c7d2ecf5" target="_top" xlink:title="world.World.listen">
<polygon fill="white" stroke="black" points="1044,-29.5 1044,-48.5 1142,-48.5 1142,-29.5 1044,-29.5"/>
<text text-anchor="middle" x="1093" y="-36.5" font-family="Helvetica,sans-Serif" font-size="10.00">world.World.listen</text>
</a>
</g>
</g>
<!-- Node5&#45;&gt;Node7 -->
<g id="edge6" class="edge"><title>Node5&#45;&gt;Node7</title>
<path fill="none" stroke="midnightblue" d="M1013.71,-49.4756C1023.83,-48.1213 1034.15,-46.7402 1043.84,-45.4441"/>
<polygon fill="midnightblue" stroke="midnightblue" points="1013.13,-46.0215 1003.68,-50.8169 1014.06,-52.9597 1013.13,-46.0215"/>
</g>
<!-- Node8 -->
<g id="node8" class="node"><title>Node8</title>
<g id="a_node8"><a xlink:href="../../d8/d08/classworld_controller_1_1_world_controller.html#a178425d68e3e669c386706153ce44999" target="_top" xlink:title="worldController.WorldController.update">
<polygon fill="white" stroke="black" points="1182,-29.5 1182,-48.5 1380,-48.5 1380,-29.5 1182,-29.5"/>
<text text-anchor="middle" x="1281" y="-36.5" font-family="Helvetica,sans-Serif" font-size="10.00">worldController.WorldController.update</text>
</a>
</g>
</g>
<!-- Node7&#45;&gt;Node8 -->
<g id="edge7" class="edge"><title>Node7&#45;&gt;Node8</title>
<path fill="none" stroke="midnightblue" d="M1152.64,-39C1161.94,-39 1171.78,-39 1181.69,-39"/>
<polygon fill="midnightblue" stroke="midnightblue" points="1152.38,-35.5001 1142.38,-39 1152.38,-42.5001 1152.38,-35.5001"/>
</g>
<!-- Node9 -->
<g id="node9" class="node"><title>Node9</title>
<g id="a_node9"><a xlink:href="../../dd/d8e/classuser_interface_1_1_user_interface.html#a95e324c85888faea808be269e44ed5b8" target="_top" xlink:title="userInterface.UserInterface.run\lCommand">
<polygon fill="white" stroke="black" points="1416,-24 1416,-54 1582,-54 1582,-24 1416,-24"/>
<text text-anchor="start" x="1424" y="-42" font-family="Helvetica,sans-Serif" font-size="10.00">userInterface.UserInterface.run</text>
<text text-anchor="middle" x="1499" y="-31" font-family="Helvetica,sans-Serif" font-size="10.00">Command</text>
</a>
</g>
</g>
<!-- Node8&#45;&gt;Node9 -->
<g id="edge8" class="edge"><title>Node8&#45;&gt;Node9</title>
<path fill="none" stroke="midnightblue" d="M1390.29,-39C1398.89,-39 1407.49,-39 1415.87,-39"/>
<polygon fill="midnightblue" stroke="midnightblue" points="1390.2,-35.5001 1380.2,-39 1390.2,-42.5001 1390.2,-35.5001"/>
</g>
<!-- Node10 -->
<g id="node10" class="node"><title>Node10</title>
<g id="a_node10"><a xlink:href="../../dd/d8e/classuser_interface_1_1_user_interface.html#a560c36977fddeee87002333870c54ed6" target="_top" xlink:title="userInterface.UserInterface.set\lUpResponses">
<polygon fill="white" stroke="black" points="1838.5,-49 1838.5,-79 2003.5,-79 2003.5,-49 1838.5,-49"/>
<text text-anchor="start" x="1846.5" y="-67" font-family="Helvetica,sans-Serif" font-size="10.00">userInterface.UserInterface.set</text>
<text text-anchor="middle" x="1921" y="-56" font-family="Helvetica,sans-Serif" font-size="10.00">UpResponses</text>
</a>
</g>
</g>
<!-- Node9&#45;&gt;Node10 -->
<g id="edge9" class="edge"><title>Node9&#45;&gt;Node10</title>
<path fill="none" stroke="midnightblue" d="M1592.4,-44.5003C1665.91,-48.8757 1767.79,-54.9396 1838.33,-59.1386"/>
<polygon fill="midnightblue" stroke="midnightblue" points="1592.42,-40.9949 1582.23,-43.8945 1592,-47.9826 1592.42,-40.9949"/>
</g>
<!-- Node12 -->
<g id="node12" class="node"><title>Node12</title>
<g id="a_node12"><a xlink:href="../../dd/d8e/classuser_interface_1_1_user_interface.html#a4316649a1f81fcc1dcaf93c812bf6f3a" target="_top" xlink:title="userInterface.UserInterface.make\lRunButton">
<polygon fill="white" stroke="black" points="1618.5,-2 1618.5,-32 1795.5,-32 1795.5,-2 1618.5,-2"/>
<text text-anchor="start" x="1626.5" y="-20" font-family="Helvetica,sans-Serif" font-size="10.00">userInterface.UserInterface.make</text>
<text text-anchor="middle" x="1707" y="-9" font-family="Helvetica,sans-Serif" font-size="10.00">RunButton</text>
</a>
</g>
</g>
<!-- Node9&#45;&gt;Node12 -->
<g id="edge11" class="edge"><title>Node9&#45;&gt;Node12</title>
<path fill="none" stroke="midnightblue" d="M1592.12,-29.1618C1600.79,-28.2361 1609.56,-27.2994 1618.19,-26.3781"/>
<polygon fill="midnightblue" stroke="midnightblue" points="1591.58,-25.6996 1582.01,-30.2418 1592.32,-32.66 1591.58,-25.6996"/>
</g>
<!-- Node11 -->
<g id="node11" class="node"><title>Node11</title>
<g id="a_node11"><a xlink:href="../../dd/d8e/classuser_interface_1_1_user_interface.html#af296b064499e62c4fbfbf73da6456532" target="_top" xlink:title="userInterface.UserInterface.\lUserInterface">
<polygon fill="white" stroke="black" points="2046,-24 2046,-54 2196,-54 2196,-24 2046,-24"/>
<text text-anchor="start" x="2054" y="-42" font-family="Helvetica,sans-Serif" font-size="10.00">userInterface.UserInterface.</text>
<text text-anchor="middle" x="2121" y="-31" font-family="Helvetica,sans-Serif" font-size="10.00">UserInterface</text>
</a>
</g>
</g>
<!-- Node10&#45;&gt;Node11 -->
<g id="edge10" class="edge"><title>Node10&#45;&gt;Node11</title>
<path fill="none" stroke="midnightblue" d="M2013.88,-52.3986C2024.58,-51.0478 2035.39,-49.683 2045.81,-48.3677"/>
<polygon fill="midnightblue" stroke="midnightblue" points="2013.16,-48.962 2003.68,-53.6872 2014.04,-55.9069 2013.16,-48.962"/>
</g>
<!-- Node13 -->
<g id="node13" class="node"><title>Node13</title>
<g id="a_node13"><a xlink:href="../../dd/d8e/classuser_interface_1_1_user_interface.html#a6d39ee7d7ae35fc0539bb714bce6221a" target="_top" xlink:title="userInterface.UserInterface.make\lFunctionButtons">
<polygon fill="white" stroke="black" points="1832.5,-0 1832.5,-30 2009.5,-30 2009.5,-0 1832.5,-0"/>
<text text-anchor="start" x="1840.5" y="-18" font-family="Helvetica,sans-Serif" font-size="10.00">userInterface.UserInterface.make</text>
<text text-anchor="middle" x="1921" y="-7" font-family="Helvetica,sans-Serif" font-size="10.00">FunctionButtons</text>
</a>
</g>
</g>
<!-- Node12&#45;&gt;Node13 -->
<g id="edge12" class="edge"><title>Node12&#45;&gt;Node13</title>
<path fill="none" stroke="midnightblue" d="M1806.01,-16.0754C1814.78,-15.9926 1823.63,-15.9092 1832.31,-15.8273"/>
<polygon fill="midnightblue" stroke="midnightblue" points="1805.73,-12.5778 1795.76,-16.1721 1805.79,-19.5775 1805.73,-12.5778"/>
</g>
<!-- Node13&#45;&gt;Node11 -->
<g id="edge13" class="edge"><title>Node13&#45;&gt;Node11</title>
<path fill="none" stroke="midnightblue" d="M2019.67,-26.8393C2028.52,-27.9113 2037.38,-28.985 2045.97,-30.0262"/>
<polygon fill="midnightblue" stroke="midnightblue" points="2020.06,-23.3604 2009.71,-25.6316 2019.22,-30.3095 2020.06,-23.3604"/>
</g>
</g>
</svg>
