<?xml version="1.0" encoding="UTF-8" standalone="no"?>
<!DOCTYPE svg PUBLIC "-//W3C//DTD SVG 1.1//EN"
 "http://www.w3.org/Graphics/SVG/1.1/DTD/svg11.dtd">
<!-- Generated by graphviz version 2.36.0 (20140111.2315)
 -->
<!-- Title: command.CommandFactory.main Pages: 1 -->
<svg width="910pt" height="241pt"
 viewBox="0.00 0.00 910.00 241.00" xmlns="http://www.w3.org/2000/svg" xmlns:xlink="http://www.w3.org/1999/xlink">
<g id="graph0" class="graph" transform="scale(1 1) rotate(0) translate(4 237)">
<title>command.CommandFactory.main</title>
<polygon fill="white" stroke="none" points="-4,4 -4,-237 906,-237 906,4 -4,4"/>
<!-- Node1 -->
<g id="node1" class="node"><title>Node1</title>
<polygon fill="#bfbfbf" stroke="black" points="0.5,-139.5 0.5,-158.5 179.5,-158.5 179.5,-139.5 0.5,-139.5"/>
<text text-anchor="middle" x="90" y="-146.5" font-family="Helvetica,sans-Serif" font-size="10.00">command.CommandFactory.main</text>
</g>
<!-- Node2 -->
<g id="node2" class="node"><title>Node2</title>
<g id="a_node2"><a xlink:href="../../d9/d1b/classcommand_1_1_command_factory.html#a11c96978d36a47061f3df041fc256cdf" target="_top" xlink:title="command.CommandFactory.Command\lFactory">
<polygon fill="white" stroke="black" points="216.5,-193 216.5,-223 421.5,-223 421.5,-193 216.5,-193"/>
<text text-anchor="start" x="224.5" y="-211" font-family="Helvetica,sans-Serif" font-size="10.00">command.CommandFactory.Command</text>
<text text-anchor="middle" x="319" y="-200" font-family="Helvetica,sans-Serif" font-size="10.00">Factory</text>
</a>
</g>
</g>
<!-- Node1&#45;&gt;Node2 -->
<g id="edge1" class="edge"><title>Node1&#45;&gt;Node2</title>
<path fill="none" stroke="midnightblue" d="M127.724,-158.545C160.762,-167.132 210.138,-179.965 250.312,-190.407"/>
<polygon fill="midnightblue" stroke="midnightblue" points="249.489,-193.809 260.048,-192.937 251.25,-187.034 249.489,-193.809"/>
</g>
<!-- Node4 -->
<g id="node4" class="node"><title>Node4</title>
<g id="a_node4"><a xlink:href="../../d9/d1b/classcommand_1_1_command_factory.html#ab25bb047b051661d31adf73b2dae5649" target="_top" xlink:title="command.CommandFactory.create\lCommand">
<polygon fill="white" stroke="black" points="226.5,-134 226.5,-164 411.5,-164 411.5,-134 226.5,-134"/>
<text text-anchor="start" x="234.5" y="-152" font-family="Helvetica,sans-Serif" font-size="10.00">command.CommandFactory.create</text>
<text text-anchor="middle" x="319" y="-141" font-family="Helvetica,sans-Serif" font-size="10.00">Command</text>
</a>
</g>
</g>
<!-- Node1&#45;&gt;Node4 -->
<g id="edge3" class="edge"><title>Node1&#45;&gt;Node4</title>
<path fill="none" stroke="midnightblue" d="M179.739,-149C191.689,-149 204.023,-149 216.176,-149"/>
<polygon fill="midnightblue" stroke="midnightblue" points="216.331,-152.5 226.33,-149 216.33,-145.5 216.331,-152.5"/>
</g>
<!-- Node7 -->
<g id="node7" class="node"><title>Node7</title>
<g id="a_node7"><a xlink:href="../../d7/d35/classcommand_1_1_command.html#a66d04483ecf285dc068cdd6fa3dd0a39" target="_top" xlink:title="command.Command.run">
<polygon fill="white" stroke="black" points="250.5,-76.5 250.5,-95.5 387.5,-95.5 387.5,-76.5 250.5,-76.5"/>
<text text-anchor="middle" x="319" y="-83.5" font-family="Helvetica,sans-Serif" font-size="10.00">command.Command.run</text>
</a>
</g>
</g>
<!-- Node1&#45;&gt;Node7 -->
<g id="edge6" class="edge"><title>Node1&#45;&gt;Node7</title>
<path fill="none" stroke="midnightblue" d="M125.476,-139.432C165.174,-128.414 230.476,-110.291 273.856,-98.2514"/>
<polygon fill="midnightblue" stroke="midnightblue" points="274.872,-101.602 283.572,-95.555 273,-94.8568 274.872,-101.602"/>
</g>
<!-- Node3 -->
<g id="node3" class="node"><title>Node3</title>
<g id="a_node3"><a xlink:href="../../d9/d1b/classcommand_1_1_command_factory.html#ae6b7cca664ad47f77ea7e8e8adae9830" target="_top" xlink:title="command.CommandFactory.set\lTranslationMap">
<polygon fill="white" stroke="black" points="477,-203 477,-233 647,-233 647,-203 477,-203"/>
<text text-anchor="start" x="485" y="-221" font-family="Helvetica,sans-Serif" font-size="10.00">command.CommandFactory.set</text>
<text text-anchor="middle" x="562" y="-210" font-family="Helvetica,sans-Serif" font-size="10.00">TranslationMap</text>
</a>
</g>
</g>
<!-- Node2&#45;&gt;Node3 -->
<g id="edge2" class="edge"><title>Node2&#45;&gt;Node3</title>
<path fill="none" stroke="midnightblue" d="M421.507,-212.212C436.454,-212.832 451.8,-213.469 466.595,-214.083"/>
<polygon fill="midnightblue" stroke="midnightblue" points="466.601,-217.586 476.738,-214.504 466.891,-210.592 466.601,-217.586"/>
</g>
<!-- Node5 -->
<g id="node5" class="node"><title>Node5</title>
<g id="a_node5"><a xlink:href="../../d9/d1b/classcommand_1_1_command_factory.html#abd97ea3e22afc09e07ed1d4fd039d11f" target="_top" xlink:title="command.CommandFactory.reflectCMD">
<polygon fill="white" stroke="black" points="458.5,-164.5 458.5,-183.5 665.5,-183.5 665.5,-164.5 458.5,-164.5"/>
<text text-anchor="middle" x="562" y="-171.5" font-family="Helvetica,sans-Serif" font-size="10.00">command.CommandFactory.reflectCMD</text>
</a>
</g>
</g>
<!-- Node4&#45;&gt;Node5 -->
<g id="edge4" class="edge"><title>Node4&#45;&gt;Node5</title>
<path fill="none" stroke="midnightblue" d="M411.799,-158.523C427.185,-160.119 443.233,-161.784 458.86,-163.405"/>
<polygon fill="midnightblue" stroke="midnightblue" points="458.749,-166.912 469.057,-164.462 459.471,-159.949 458.749,-166.912"/>
</g>
<!-- Node6 -->
<g id="node6" class="node"><title>Node6</title>
<g id="a_node6"><a xlink:href="../../d9/d1b/classcommand_1_1_command_factory.html#a947fdc151e857ea74564d0d1fe268246" target="_top" xlink:title="command.CommandFactory.translate\lCommand">
<polygon fill="white" stroke="black" points="463.5,-115 463.5,-145 660.5,-145 660.5,-115 463.5,-115"/>
<text text-anchor="start" x="471.5" y="-133" font-family="Helvetica,sans-Serif" font-size="10.00">command.CommandFactory.translate</text>
<text text-anchor="middle" x="562" y="-122" font-family="Helvetica,sans-Serif" font-size="10.00">Command</text>
</a>
</g>
</g>
<!-- Node4&#45;&gt;Node6 -->
<g id="edge5" class="edge"><title>Node4&#45;&gt;Node6</title>
<path fill="none" stroke="midnightblue" d="M411.799,-141.763C425.393,-140.691 439.505,-139.578 453.386,-138.484"/>
<polygon fill="midnightblue" stroke="midnightblue" points="453.748,-141.967 463.442,-137.691 453.197,-134.988 453.748,-141.967"/>
</g>
<!-- Node8 -->
<g id="node8" class="node"><title>Node8</title>
<g id="a_node8"><a xlink:href="../../d7/d35/classcommand_1_1_command.html#ade84c695f2d6aa1e11511700aa6d89dd" target="_top" xlink:title="command.Command.doCommand">
<polygon fill="white" stroke="black" points="470,-76.5 470,-95.5 654,-95.5 654,-76.5 470,-76.5"/>
<text text-anchor="middle" x="562" y="-83.5" font-family="Helvetica,sans-Serif" font-size="10.00">command.Command.doCommand</text>
</a>
</g>
</g>
<!-- Node7&#45;&gt;Node8 -->
<g id="edge7" class="edge"><title>Node7&#45;&gt;Node8</title>
<path fill="none" stroke="midnightblue" d="M387.773,-86C410.066,-86 435.358,-86 459.593,-86"/>
<polygon fill="midnightblue" stroke="midnightblue" points="459.903,-89.5001 469.903,-86 459.903,-82.5001 459.903,-89.5001"/>
</g>
<!-- Node9 -->
<g id="node9" class="node"><title>Node9</title>
<g id="a_node9"><a xlink:href="../../d7/d35/classcommand_1_1_command.html#ace2304395e13775995811b94446e8bbc" target="_top" xlink:title="command.Command.update">
<polygon fill="white" stroke="black" points="484.5,-38.5 484.5,-57.5 639.5,-57.5 639.5,-38.5 484.5,-38.5"/>
<text text-anchor="middle" x="562" y="-45.5" font-family="Helvetica,sans-Serif" font-size="10.00">command.Command.update</text>
</a>
</g>
</g>
<!-- Node7&#45;&gt;Node9 -->
<g id="edge8" class="edge"><title>Node7&#45;&gt;Node9</title>
<path fill="none" stroke="midnightblue" d="M380.503,-76.46C413.879,-71.1975 455.5,-64.6349 490.36,-59.1382"/>
<polygon fill="midnightblue" stroke="midnightblue" points="491.139,-62.5588 500.472,-57.5439 490.049,-55.6442 491.139,-62.5588"/>
</g>
<!-- Node10 -->
<g id="node10" class="node"><title>Node10</title>
<g id="a_node10"><a xlink:href="../../d7/d35/classcommand_1_1_command.html#ae8029b25ed3f430063671ae6584b1a0f" target="_top" xlink:title="command.Command.updateColors">
<polygon fill="white" stroke="black" points="709.5,-76.5 709.5,-95.5 894.5,-95.5 894.5,-76.5 709.5,-76.5"/>
<text text-anchor="middle" x="802" y="-83.5" font-family="Helvetica,sans-Serif" font-size="10.00">command.Command.updateColors</text>
</a>
</g>
</g>
<!-- Node9&#45;&gt;Node10 -->
<g id="edge9" class="edge"><title>Node9&#45;&gt;Node10</title>
<path fill="none" stroke="midnightblue" d="M622.75,-57.54C655.711,-62.8025 696.813,-69.3651 731.24,-74.8618"/>
<polygon fill="midnightblue" stroke="midnightblue" points="730.798,-78.3356 741.225,-76.4561 731.902,-71.4231 730.798,-78.3356"/>
</g>
<!-- Node11 -->
<g id="node11" class="node"><title>Node11</title>
<g id="a_node11"><a xlink:href="../../d7/d35/classcommand_1_1_command.html#a92c3f31ef37574df9753a61e01c8daad" target="_top" xlink:title="command.Command.updateFunctions">
<polygon fill="white" stroke="black" points="702,-38.5 702,-57.5 902,-57.5 902,-38.5 702,-38.5"/>
<text text-anchor="middle" x="802" y="-45.5" font-family="Helvetica,sans-Serif" font-size="10.00">command.Command.updateFunctions</text>
</a>
</g>
</g>
<!-- Node9&#45;&gt;Node11 -->
<g id="edge10" class="edge"><title>Node9&#45;&gt;Node11</title>
<path fill="none" stroke="midnightblue" d="M639.615,-48C656.2,-48 674.048,-48 691.615,-48"/>
<polygon fill="midnightblue" stroke="midnightblue" points="691.914,-51.5001 701.914,-48 691.914,-44.5001 691.914,-51.5001"/>
</g>
<!-- Node12 -->
<g id="node12" class="node"><title>Node12</title>
<g id="a_node12"><a xlink:href="../../d7/d35/classcommand_1_1_command.html#ab9f5701138ce884edf93cd748febbe0d" target="_top" xlink:title="command.Command.updateVariables">
<polygon fill="white" stroke="black" points="702.5,-0.5 702.5,-19.5 901.5,-19.5 901.5,-0.5 702.5,-0.5"/>
<text text-anchor="middle" x="802" y="-7.5" font-family="Helvetica,sans-Serif" font-size="10.00">command.Command.updateVariables</text>
</a>
</g>
</g>
<!-- Node9&#45;&gt;Node12 -->
<g id="edge11" class="edge"><title>Node9&#45;&gt;Node12</title>
<path fill="none" stroke="midnightblue" d="M622.75,-38.46C655.711,-33.1975 696.813,-26.6349 731.24,-21.1382"/>
<polygon fill="midnightblue" stroke="midnightblue" points="731.902,-24.5769 741.225,-19.5439 730.798,-17.6644 731.902,-24.5769"/>
</g>
</g>
</svg>
