<?xml version="1.0" encoding="UTF-8" standalone="no"?>
<!DOCTYPE svg PUBLIC "-//W3C//DTD SVG 1.1//EN"
 "http://www.w3.org/Graphics/SVG/1.1/DTD/svg11.dtd">
<!-- Generated by graphviz version 2.36.0 (20140111.2315)
 -->
<!-- Title: command.CommandFactory.createCommand Pages: 1 -->
<svg width="1532pt" height="95pt"
 viewBox="0.00 0.00 1532.00 95.00" xmlns="http://www.w3.org/2000/svg" xmlns:xlink="http://www.w3.org/1999/xlink">
<g id="graph0" class="graph" transform="scale(1 1) rotate(0) translate(4 91)">
<title>command.CommandFactory.createCommand</title>
<polygon fill="white" stroke="none" points="-4,4 -4,-91 1528,-91 1528,4 -4,4"/>
<!-- Node1 -->
<g id="node1" class="node"><title>Node1</title>
<polygon fill="#bfbfbf" stroke="black" points="0.5,-43 0.5,-73 185.5,-73 185.5,-43 0.5,-43"/>
<text text-anchor="start" x="8.5" y="-61" font-family="Helvetica,sans-Serif" font-size="10.00">command.CommandFactory.create</text>
<text text-anchor="middle" x="93" y="-50" font-family="Helvetica,sans-Serif" font-size="10.00">Command</text>
</g>
<!-- Node2 -->
<g id="node2" class="node"><title>Node2</title>
<g id="a_node2"><a xlink:href="../../d6/d95/classparser_1_1_parser.html#a4ecbffc246c3add017c4720eed4c6da9" target="_top" xlink:title="parser.Parser.parse">
<polygon fill="white" stroke="black" points="222.5,-48.5 222.5,-67.5 331.5,-67.5 331.5,-48.5 222.5,-48.5"/>
<text text-anchor="middle" x="277" y="-55.5" font-family="Helvetica,sans-Serif" font-size="10.00">parser.Parser.parse</text>
</a>
</g>
</g>
<!-- Node1&#45;&gt;Node2 -->
<g id="edge1" class="edge"><title>Node1&#45;&gt;Node2</title>
<path fill="none" stroke="midnightblue" d="M195.822,-58C204.897,-58 213.826,-58 222.242,-58"/>
<polygon fill="midnightblue" stroke="midnightblue" points="195.533,-54.5001 185.533,-58 195.533,-61.5001 195.533,-54.5001"/>
</g>
<!-- Node3 -->
<g id="node3" class="node"><title>Node3</title>
<g id="a_node3"><a xlink:href="../../d6/d95/classparser_1_1_parser.html#a6b2d7b2b182d99537ce332ed0dfd3e03" target="_top" xlink:title="parser.Parser.main">
<polygon fill="white" stroke="black" points="368,-67.5 368,-86.5 474,-86.5 474,-67.5 368,-67.5"/>
<text text-anchor="middle" x="421" y="-74.5" font-family="Helvetica,sans-Serif" font-size="10.00">parser.Parser.main</text>
</a>
</g>
</g>
<!-- Node2&#45;&gt;Node3 -->
<g id="edge2" class="edge"><title>Node2&#45;&gt;Node3</title>
<path fill="none" stroke="midnightblue" d="M341.754,-66.5304C350.415,-67.6893 359.222,-68.8677 367.651,-69.9955"/>
<polygon fill="midnightblue" stroke="midnightblue" points="342.06,-63.0403 331.684,-65.1831 341.132,-69.9785 342.06,-63.0403"/>
</g>
<!-- Node4 -->
<g id="node4" class="node"><title>Node4</title>
<g id="a_node4"><a xlink:href="../../d9/dd0/classworld_1_1_world.html#ae370733f7784c42741a6ba66c7d2ecf5" target="_top" xlink:title="world.World.listen">
<polygon fill="white" stroke="black" points="372,-29.5 372,-48.5 470,-48.5 470,-29.5 372,-29.5"/>
<text text-anchor="middle" x="421" y="-36.5" font-family="Helvetica,sans-Serif" font-size="10.00">world.World.listen</text>
</a>
</g>
</g>
<!-- Node2&#45;&gt;Node4 -->
<g id="edge3" class="edge"><title>Node2&#45;&gt;Node4</title>
<path fill="none" stroke="midnightblue" d="M341.708,-49.4756C351.83,-48.1213 362.152,-46.7402 371.839,-45.4441"/>
<polygon fill="midnightblue" stroke="midnightblue" points="341.132,-46.0215 331.684,-50.8169 342.06,-52.9597 341.132,-46.0215"/>
</g>
<!-- Node5 -->
<g id="node5" class="node"><title>Node5</title>
<g id="a_node5"><a xlink:href="../../d8/d08/classworld_controller_1_1_world_controller.html#a178425d68e3e669c386706153ce44999" target="_top" xlink:title="worldController.WorldController.update">
<polygon fill="white" stroke="black" points="510,-29.5 510,-48.5 708,-48.5 708,-29.5 510,-29.5"/>
<text text-anchor="middle" x="609" y="-36.5" font-family="Helvetica,sans-Serif" font-size="10.00">worldController.WorldController.update</text>
</a>
</g>
</g>
<!-- Node4&#45;&gt;Node5 -->
<g id="edge4" class="edge"><title>Node4&#45;&gt;Node5</title>
<path fill="none" stroke="midnightblue" d="M480.637,-39C489.94,-39 499.777,-39 509.695,-39"/>
<polygon fill="midnightblue" stroke="midnightblue" points="480.384,-35.5001 470.384,-39 480.384,-42.5001 480.384,-35.5001"/>
</g>
<!-- Node6 -->
<g id="node6" class="node"><title>Node6</title>
<g id="a_node6"><a xlink:href="../../dd/d8e/classuser_interface_1_1_user_interface.html#a95e324c85888faea808be269e44ed5b8" target="_top" xlink:title="userInterface.UserInterface.run\lCommand">
<polygon fill="white" stroke="black" points="744,-24 744,-54 910,-54 910,-24 744,-24"/>
<text text-anchor="start" x="752" y="-42" font-family="Helvetica,sans-Serif" font-size="10.00">userInterface.UserInterface.run</text>
<text text-anchor="middle" x="827" y="-31" font-family="Helvetica,sans-Serif" font-size="10.00">Command</text>
</a>
</g>
</g>
<!-- Node5&#45;&gt;Node6 -->
<g id="edge5" class="edge"><title>Node5&#45;&gt;Node6</title>
<path fill="none" stroke="midnightblue" d="M718.29,-39C726.892,-39 735.492,-39 743.871,-39"/>
<polygon fill="midnightblue" stroke="midnightblue" points="718.203,-35.5001 708.203,-39 718.203,-42.5001 718.203,-35.5001"/>
</g>
<!-- Node7 -->
<g id="node7" class="node"><title>Node7</title>
<g id="a_node7"><a xlink:href="../../dd/d8e/classuser_interface_1_1_user_interface.html#a560c36977fddeee87002333870c54ed6" target="_top" xlink:title="userInterface.UserInterface.set\lUpResponses">
<polygon fill="white" stroke="black" points="1166.5,-49 1166.5,-79 1331.5,-79 1331.5,-49 1166.5,-49"/>
<text text-anchor="start" x="1174.5" y="-67" font-family="Helvetica,sans-Serif" font-size="10.00">userInterface.UserInterface.set</text>
<text text-anchor="middle" x="1249" y="-56" font-family="Helvetica,sans-Serif" font-size="10.00">UpResponses</text>
</a>
</g>
</g>
<!-- Node6&#45;&gt;Node7 -->
<g id="edge6" class="edge"><title>Node6&#45;&gt;Node7</title>
<path fill="none" stroke="midnightblue" d="M920.405,-44.5003C993.911,-48.8757 1095.79,-54.9396 1166.33,-59.1386"/>
<polygon fill="midnightblue" stroke="midnightblue" points="920.418,-40.9949 910.227,-43.8945 920.002,-47.9826 920.418,-40.9949"/>
</g>
<!-- Node9 -->
<g id="node9" class="node"><title>Node9</title>
<g id="a_node9"><a xlink:href="../../dd/d8e/classuser_interface_1_1_user_interface.html#a4316649a1f81fcc1dcaf93c812bf6f3a" target="_top" xlink:title="userInterface.UserInterface.make\lRunButton">
<polygon fill="white" stroke="black" points="946.5,-2 946.5,-32 1123.5,-32 1123.5,-2 946.5,-2"/>
<text text-anchor="start" x="954.5" y="-20" font-family="Helvetica,sans-Serif" font-size="10.00">userInterface.UserInterface.make</text>
<text text-anchor="middle" x="1035" y="-9" font-family="Helvetica,sans-Serif" font-size="10.00">RunButton</text>
</a>
</g>
</g>
<!-- Node6&#45;&gt;Node9 -->
<g id="edge8" class="edge"><title>Node6&#45;&gt;Node9</title>
<path fill="none" stroke="midnightblue" d="M920.121,-29.1618C928.789,-28.2361 937.561,-27.2994 946.187,-26.3781"/>
<polygon fill="midnightblue" stroke="midnightblue" points="919.58,-25.6996 910.009,-30.2418 920.324,-32.66 919.58,-25.6996"/>
</g>
<!-- Node8 -->
<g id="node8" class="node"><title>Node8</title>
<g id="a_node8"><a xlink:href="../../dd/d8e/classuser_interface_1_1_user_interface.html#af296b064499e62c4fbfbf73da6456532" target="_top" xlink:title="userInterface.UserInterface.\lUserInterface">
<polygon fill="white" stroke="black" points="1374,-24 1374,-54 1524,-54 1524,-24 1374,-24"/>
<text text-anchor="start" x="1382" y="-42" font-family="Helvetica,sans-Serif" font-size="10.00">userInterface.UserInterface.</text>
<text text-anchor="middle" x="1449" y="-31" font-family="Helvetica,sans-Serif" font-size="10.00">UserInterface</text>
</a>
</g>
</g>
<!-- Node7&#45;&gt;Node8 -->
<g id="edge7" class="edge"><title>Node7&#45;&gt;Node8</title>
<path fill="none" stroke="midnightblue" d="M1341.88,-52.3986C1352.58,-51.0478 1363.39,-49.683 1373.81,-48.3677"/>
<polygon fill="midnightblue" stroke="midnightblue" points="1341.16,-48.962 1331.68,-53.6872 1342.04,-55.9069 1341.16,-48.962"/>
</g>
<!-- Node10 -->
<g id="node10" class="node"><title>Node10</title>
<g id="a_node10"><a xlink:href="../../dd/d8e/classuser_interface_1_1_user_interface.html#a6d39ee7d7ae35fc0539bb714bce6221a" target="_top" xlink:title="userInterface.UserInterface.make\lFunctionButtons">
<polygon fill="white" stroke="black" points="1160.5,-0 1160.5,-30 1337.5,-30 1337.5,-0 1160.5,-0"/>
<text text-anchor="start" x="1168.5" y="-18" font-family="Helvetica,sans-Serif" font-size="10.00">userInterface.UserInterface.make</text>
<text text-anchor="middle" x="1249" y="-7" font-family="Helvetica,sans-Serif" font-size="10.00">FunctionButtons</text>
</a>
</g>
</g>
<!-- Node9&#45;&gt;Node10 -->
<g id="edge9" class="edge"><title>Node9&#45;&gt;Node10</title>
<path fill="none" stroke="midnightblue" d="M1134.01,-16.0754C1142.78,-15.9926 1151.63,-15.9092 1160.31,-15.8273"/>
<polygon fill="midnightblue" stroke="midnightblue" points="1133.73,-12.5778 1123.76,-16.1721 1133.79,-19.5775 1133.73,-12.5778"/>
</g>
<!-- Node10&#45;&gt;Node8 -->
<g id="edge10" class="edge"><title>Node10&#45;&gt;Node8</title>
<path fill="none" stroke="midnightblue" d="M1347.67,-26.8393C1356.52,-27.9113 1365.38,-28.985 1373.97,-30.0262"/>
<polygon fill="midnightblue" stroke="midnightblue" points="1348.06,-23.3604 1337.71,-25.6316 1347.22,-30.3095 1348.06,-23.3604"/>
</g>
</g>
</svg>
