<?xml version="1.0" encoding="UTF-8" standalone="no"?>
<!DOCTYPE svg PUBLIC "-//W3C//DTD SVG 1.1//EN"
 "http://www.w3.org/Graphics/SVG/1.1/DTD/svg11.dtd">
<!-- Generated by graphviz version 2.36.0 (20140111.2315)
 -->
<!-- Title: command.CommandFactory.main Pages: 1 -->
<svg width="674pt" height="128pt"
 viewBox="0.00 0.00 674.00 128.00" xmlns="http://www.w3.org/2000/svg" xmlns:xlink="http://www.w3.org/1999/xlink">
<g id="graph0" class="graph" transform="scale(1 1) rotate(0) translate(4 124)">
<title>command.CommandFactory.main</title>
<polygon fill="white" stroke="none" points="-4,4 -4,-124 670,-124 670,4 -4,4"/>
<!-- Node1 -->
<g id="node1" class="node"><title>Node1</title>
<polygon fill="#bfbfbf" stroke="black" points="0.5,-70.5 0.5,-89.5 179.5,-89.5 179.5,-70.5 0.5,-70.5"/>
<text text-anchor="middle" x="90" y="-77.5" font-family="Helvetica,sans-Serif" font-size="10.00">command.CommandFactory.main</text>
</g>
<!-- Node2 -->
<g id="node2" class="node"><title>Node2</title>
<g id="a_node2"><a xlink:href="../../d9/d1b/classcommand_1_1_command_factory.html#a30fe47e44d45830cf0aaed846059e71c" target="_top" xlink:title="command.CommandFactory.Command\lFactory">
<polygon fill="white" stroke="black" points="216.5,-90 216.5,-120 421.5,-120 421.5,-90 216.5,-90"/>
<text text-anchor="start" x="224.5" y="-108" font-family="Helvetica,sans-Serif" font-size="10.00">command.CommandFactory.Command</text>
<text text-anchor="middle" x="319" y="-97" font-family="Helvetica,sans-Serif" font-size="10.00">Factory</text>
</a>
</g>
</g>
<!-- Node1&#45;&gt;Node2 -->
<g id="edge1" class="edge"><title>Node1&#45;&gt;Node2</title>
<path fill="none" stroke="midnightblue" d="M177.467,-89.5227C186.859,-90.5571 196.513,-91.6204 206.151,-92.6819"/>
<polygon fill="midnightblue" stroke="midnightblue" points="205.855,-96.1703 216.178,-93.7861 206.622,-89.2124 205.855,-96.1703"/>
</g>
<!-- Node4 -->
<g id="node4" class="node"><title>Node4</title>
<g id="a_node4"><a xlink:href="../../d9/d1b/classcommand_1_1_command_factory.html#ab25bb047b051661d31adf73b2dae5649" target="_top" xlink:title="command.CommandFactory.create\lCommand">
<polygon fill="white" stroke="black" points="226.5,-41 226.5,-71 411.5,-71 411.5,-41 226.5,-41"/>
<text text-anchor="start" x="234.5" y="-59" font-family="Helvetica,sans-Serif" font-size="10.00">command.CommandFactory.create</text>
<text text-anchor="middle" x="319" y="-48" font-family="Helvetica,sans-Serif" font-size="10.00">Command</text>
</a>
</g>
</g>
<!-- Node1&#45;&gt;Node4 -->
<g id="edge3" class="edge"><title>Node1&#45;&gt;Node4</title>
<path fill="none" stroke="midnightblue" d="M179.739,-70.6179C191.689,-69.3545 204.023,-68.0505 216.176,-66.7655"/>
<polygon fill="midnightblue" stroke="midnightblue" points="216.754,-70.224 226.33,-65.6919 216.018,-63.2628 216.754,-70.224"/>
</g>
<!-- Node3 -->
<g id="node3" class="node"><title>Node3</title>
<g id="a_node3"><a xlink:href="../../d9/d1b/classcommand_1_1_command_factory.html#ae6b7cca664ad47f77ea7e8e8adae9830" target="_top" xlink:title="command.CommandFactory.set\lTranslationMap">
<polygon fill="white" stroke="black" points="477,-90 477,-120 647,-120 647,-90 477,-90"/>
<text text-anchor="start" x="485" y="-108" font-family="Helvetica,sans-Serif" font-size="10.00">command.CommandFactory.set</text>
<text text-anchor="middle" x="562" y="-97" font-family="Helvetica,sans-Serif" font-size="10.00">TranslationMap</text>
</a>
</g>
</g>
<!-- Node2&#45;&gt;Node3 -->
<g id="edge2" class="edge"><title>Node2&#45;&gt;Node3</title>
<path fill="none" stroke="midnightblue" d="M421.507,-105C436.454,-105 451.8,-105 466.595,-105"/>
<polygon fill="midnightblue" stroke="midnightblue" points="466.738,-108.5 476.738,-105 466.738,-101.5 466.738,-108.5"/>
</g>
<!-- Node5 -->
<g id="node5" class="node"><title>Node5</title>
<g id="a_node5"><a xlink:href="../../d9/d1b/classcommand_1_1_command_factory.html#abd97ea3e22afc09e07ed1d4fd039d11f" target="_top" xlink:title="command.CommandFactory.reflectCMD">
<polygon fill="white" stroke="black" points="458.5,-49.5 458.5,-68.5 665.5,-68.5 665.5,-49.5 458.5,-49.5"/>
<text text-anchor="middle" x="562" y="-56.5" font-family="Helvetica,sans-Serif" font-size="10.00">command.CommandFactory.reflectCMD</text>
</a>
</g>
</g>
<!-- Node4&#45;&gt;Node5 -->
<g id="edge4" class="edge"><title>Node4&#45;&gt;Node5</title>
<path fill="none" stroke="midnightblue" d="M411.799,-57.1427C423.646,-57.2902 435.887,-57.4426 448.024,-57.5937"/>
<polygon fill="midnightblue" stroke="midnightblue" points="448.143,-61.0953 458.185,-57.7202 448.23,-54.0959 448.143,-61.0953"/>
</g>
<!-- Node6 -->
<g id="node6" class="node"><title>Node6</title>
<g id="a_node6"><a xlink:href="../../d9/d1b/classcommand_1_1_command_factory.html#a947fdc151e857ea74564d0d1fe268246" target="_top" xlink:title="command.CommandFactory.translate\lCommand">
<polygon fill="white" stroke="black" points="463.5,-0 463.5,-30 660.5,-30 660.5,-0 463.5,-0"/>
<text text-anchor="start" x="471.5" y="-18" font-family="Helvetica,sans-Serif" font-size="10.00">command.CommandFactory.translate</text>
<text text-anchor="middle" x="562" y="-7" font-family="Helvetica,sans-Serif" font-size="10.00">Command</text>
</a>
</g>
</g>
<!-- Node4&#45;&gt;Node6 -->
<g id="edge5" class="edge"><title>Node4&#45;&gt;Node6</title>
<path fill="none" stroke="midnightblue" d="M408.371,-40.9659C426.053,-37.9577 444.731,-34.7801 462.725,-31.7191"/>
<polygon fill="midnightblue" stroke="midnightblue" points="463.368,-35.1599 472.64,-30.0323 462.194,-28.2591 463.368,-35.1599"/>
</g>
</g>
</svg>
