<?xml version="1.0" encoding="UTF-8" standalone="no"?>
<!DOCTYPE svg PUBLIC "-//W3C//DTD SVG 1.1//EN"
 "http://www.w3.org/Graphics/SVG/1.1/DTD/svg11.dtd">
<!-- Generated by graphviz version 2.36.0 (20140111.2315)
 -->
<!-- Title: command.CommandFactory.checkFor Pages: 1 -->
<svg width="1948pt" height="105pt"
 viewBox="0.00 0.00 1948.00 105.00" xmlns="http://www.w3.org/2000/svg" xmlns:xlink="http://www.w3.org/1999/xlink">
<g id="graph0" class="graph" transform="scale(1 1) rotate(0) translate(4 101)">
<title>command.CommandFactory.checkFor</title>
<polygon fill="white" stroke="none" points="-4,4 -4,-101 1944,-101 1944,4 -4,4"/>
<!-- Node1 -->
<g id="node1" class="node"><title>Node1</title>
<polygon fill="#bfbfbf" stroke="black" points="0.5,-50.5 0.5,-69.5 197.5,-69.5 197.5,-50.5 0.5,-50.5"/>
<text text-anchor="middle" x="99" y="-57.5" font-family="Helvetica,sans-Serif" font-size="10.00">command.CommandFactory.checkFor</text>
</g>
<!-- Node2 -->
<g id="node2" class="node"><title>Node2</title>
<g id="a_node2"><a xlink:href="../../d9/d1b/classcommand_1_1_command_factory.html#a0fca3b89ecf4ce07546cd4dc0f3820ea" target="_top" xlink:title="command.CommandFactory.initialize\lLoopVariables">
<polygon fill="white" stroke="black" points="234.5,-45 234.5,-75 427.5,-75 427.5,-45 234.5,-45"/>
<text text-anchor="start" x="242.5" y="-63" font-family="Helvetica,sans-Serif" font-size="10.00">command.CommandFactory.initialize</text>
<text text-anchor="middle" x="331" y="-52" font-family="Helvetica,sans-Serif" font-size="10.00">LoopVariables</text>
</a>
</g>
</g>
<!-- Node1&#45;&gt;Node2 -->
<g id="edge1" class="edge"><title>Node1&#45;&gt;Node2</title>
<path fill="none" stroke="midnightblue" d="M207.818,-60C216.606,-60 225.449,-60 234.143,-60"/>
<polygon fill="midnightblue" stroke="midnightblue" points="207.541,-56.5001 197.541,-60 207.541,-63.5001 207.541,-56.5001"/>
</g>
<!-- Node3 -->
<g id="node3" class="node"><title>Node3</title>
<g id="a_node3"><a xlink:href="../../d6/d95/classparser_1_1_parser.html#a4f582c65390bddc57219c0b5c31ef5e7" target="_top" xlink:title="parser.Parser.makeTree">
<polygon fill="white" stroke="black" points="464,-50.5 464,-69.5 592,-69.5 592,-50.5 464,-50.5"/>
<text text-anchor="middle" x="528" y="-57.5" font-family="Helvetica,sans-Serif" font-size="10.00">parser.Parser.makeTree</text>
</a>
</g>
</g>
<!-- Node2&#45;&gt;Node3 -->
<g id="edge2" class="edge"><title>Node2&#45;&gt;Node3</title>
<path fill="none" stroke="midnightblue" d="M437.626,-60C446.575,-60 455.431,-60 463.891,-60"/>
<polygon fill="midnightblue" stroke="midnightblue" points="437.501,-56.5001 427.501,-60 437.501,-63.5001 437.501,-56.5001"/>
</g>
<!-- Node4 -->
<g id="node4" class="node"><title>Node4</title>
<g id="a_node4"><a xlink:href="../../d6/d95/classparser_1_1_parser.html#a240c75608624a9c67402a296855c4d1d" target="_top" xlink:title="parser.Parser.initialize\lCommands">
<polygon fill="white" stroke="black" points="628,-67 628,-97 748,-97 748,-67 628,-67"/>
<text text-anchor="start" x="636" y="-85" font-family="Helvetica,sans-Serif" font-size="10.00">parser.Parser.initialize</text>
<text text-anchor="middle" x="688" y="-74" font-family="Helvetica,sans-Serif" font-size="10.00">Commands</text>
</a>
</g>
</g>
<!-- Node3&#45;&gt;Node4 -->
<g id="edge3" class="edge"><title>Node3&#45;&gt;Node4</title>
<path fill="none" stroke="midnightblue" d="M602.368,-70.2158C610.954,-71.4114 619.63,-72.6193 627.986,-73.7828"/>
<polygon fill="midnightblue" stroke="midnightblue" points="602.741,-66.7341 592.354,-68.8215 601.776,-73.6672 602.741,-66.7341"/>
</g>
<!-- Node13 -->
<g id="node13" class="node"><title>Node13</title>
<g id="a_node13"><a xlink:href="../../d6/d95/classparser_1_1_parser.html#a4ecbffc246c3add017c4720eed4c6da9" target="_top" xlink:title="parser.Parser.parse">
<polygon fill="white" stroke="black" points="633.5,-28.5 633.5,-47.5 742.5,-47.5 742.5,-28.5 633.5,-28.5"/>
<text text-anchor="middle" x="688" y="-35.5" font-family="Helvetica,sans-Serif" font-size="10.00">parser.Parser.parse</text>
</a>
</g>
</g>
<!-- Node3&#45;&gt;Node13 -->
<g id="edge13" class="edge"><title>Node3&#45;&gt;Node13</title>
<path fill="none" stroke="midnightblue" d="M602.299,-49.7938C612.739,-48.3402 623.312,-46.8679 633.284,-45.4794"/>
<polygon fill="midnightblue" stroke="midnightblue" points="601.776,-46.3328 592.354,-51.1785 602.741,-53.2659 601.776,-46.3328"/>
</g>
<!-- Node5 -->
<g id="node5" class="node"><title>Node5</title>
<g id="a_node5"><a xlink:href="../../d6/d95/classparser_1_1_parser.html#a6b2d7b2b182d99537ce332ed0dfd3e03" target="_top" xlink:title="parser.Parser.main">
<polygon fill="white" stroke="black" points="784,-70.5 784,-89.5 890,-89.5 890,-70.5 784,-70.5"/>
<text text-anchor="middle" x="837" y="-77.5" font-family="Helvetica,sans-Serif" font-size="10.00">parser.Parser.main</text>
</a>
</g>
</g>
<!-- Node4&#45;&gt;Node5 -->
<g id="edge4" class="edge"><title>Node4&#45;&gt;Node5</title>
<path fill="none" stroke="midnightblue" d="M758.409,-81.0557C767.016,-80.9386 775.699,-80.8204 783.983,-80.7077"/>
<polygon fill="midnightblue" stroke="midnightblue" points="758.318,-77.5565 748.367,-81.1923 758.414,-84.5558 758.318,-77.5565"/>
</g>
<!-- Node6 -->
<g id="node6" class="node"><title>Node6</title>
<g id="a_node6"><a xlink:href="../../d9/dd0/classworld_1_1_world.html#ae370733f7784c42741a6ba66c7d2ecf5" target="_top" xlink:title="world.World.listen">
<polygon fill="white" stroke="black" points="788,-29.5 788,-48.5 886,-48.5 886,-29.5 788,-29.5"/>
<text text-anchor="middle" x="837" y="-36.5" font-family="Helvetica,sans-Serif" font-size="10.00">world.World.listen</text>
</a>
</g>
</g>
<!-- Node4&#45;&gt;Node6 -->
<g id="edge5" class="edge"><title>Node4&#45;&gt;Node6</title>
<path fill="none" stroke="midnightblue" d="M750.104,-64.126C768.316,-58.7988 787.573,-53.1658 803.228,-48.5865"/>
<polygon fill="midnightblue" stroke="midnightblue" points="749.029,-60.7939 740.413,-66.9607 750.994,-67.5123 749.029,-60.7939"/>
</g>
<!-- Node7 -->
<g id="node7" class="node"><title>Node7</title>
<g id="a_node7"><a xlink:href="../../d8/d08/classworld_controller_1_1_world_controller.html#a178425d68e3e669c386706153ce44999" target="_top" xlink:title="worldController.WorldController.update">
<polygon fill="white" stroke="black" points="926,-29.5 926,-48.5 1124,-48.5 1124,-29.5 926,-29.5"/>
<text text-anchor="middle" x="1025" y="-36.5" font-family="Helvetica,sans-Serif" font-size="10.00">worldController.WorldController.update</text>
</a>
</g>
</g>
<!-- Node6&#45;&gt;Node7 -->
<g id="edge6" class="edge"><title>Node6&#45;&gt;Node7</title>
<path fill="none" stroke="midnightblue" d="M896.637,-39C905.94,-39 915.777,-39 925.695,-39"/>
<polygon fill="midnightblue" stroke="midnightblue" points="896.384,-35.5001 886.384,-39 896.384,-42.5001 896.384,-35.5001"/>
</g>
<!-- Node8 -->
<g id="node8" class="node"><title>Node8</title>
<g id="a_node8"><a xlink:href="../../dd/d8e/classuser_interface_1_1_user_interface.html#a95e324c85888faea808be269e44ed5b8" target="_top" xlink:title="userInterface.UserInterface.run\lCommand">
<polygon fill="white" stroke="black" points="1160,-24 1160,-54 1326,-54 1326,-24 1160,-24"/>
<text text-anchor="start" x="1168" y="-42" font-family="Helvetica,sans-Serif" font-size="10.00">userInterface.UserInterface.run</text>
<text text-anchor="middle" x="1243" y="-31" font-family="Helvetica,sans-Serif" font-size="10.00">Command</text>
</a>
</g>
</g>
<!-- Node7&#45;&gt;Node8 -->
<g id="edge7" class="edge"><title>Node7&#45;&gt;Node8</title>
<path fill="none" stroke="midnightblue" d="M1134.29,-39C1142.89,-39 1151.49,-39 1159.87,-39"/>
<polygon fill="midnightblue" stroke="midnightblue" points="1134.2,-35.5001 1124.2,-39 1134.2,-42.5001 1134.2,-35.5001"/>
</g>
<!-- Node9 -->
<g id="node9" class="node"><title>Node9</title>
<g id="a_node9"><a xlink:href="../../dd/d8e/classuser_interface_1_1_user_interface.html#a560c36977fddeee87002333870c54ed6" target="_top" xlink:title="userInterface.UserInterface.set\lUpResponses">
<polygon fill="white" stroke="black" points="1582.5,-49 1582.5,-79 1747.5,-79 1747.5,-49 1582.5,-49"/>
<text text-anchor="start" x="1590.5" y="-67" font-family="Helvetica,sans-Serif" font-size="10.00">userInterface.UserInterface.set</text>
<text text-anchor="middle" x="1665" y="-56" font-family="Helvetica,sans-Serif" font-size="10.00">UpResponses</text>
</a>
</g>
</g>
<!-- Node8&#45;&gt;Node9 -->
<g id="edge8" class="edge"><title>Node8&#45;&gt;Node9</title>
<path fill="none" stroke="midnightblue" d="M1336.4,-44.5003C1409.91,-48.8757 1511.79,-54.9396 1582.33,-59.1386"/>
<polygon fill="midnightblue" stroke="midnightblue" points="1336.42,-40.9949 1326.23,-43.8945 1336,-47.9826 1336.42,-40.9949"/>
</g>
<!-- Node11 -->
<g id="node11" class="node"><title>Node11</title>
<g id="a_node11"><a xlink:href="../../dd/d8e/classuser_interface_1_1_user_interface.html#a4316649a1f81fcc1dcaf93c812bf6f3a" target="_top" xlink:title="userInterface.UserInterface.make\lRunButton">
<polygon fill="white" stroke="black" points="1362.5,-2 1362.5,-32 1539.5,-32 1539.5,-2 1362.5,-2"/>
<text text-anchor="start" x="1370.5" y="-20" font-family="Helvetica,sans-Serif" font-size="10.00">userInterface.UserInterface.make</text>
<text text-anchor="middle" x="1451" y="-9" font-family="Helvetica,sans-Serif" font-size="10.00">RunButton</text>
</a>
</g>
</g>
<!-- Node8&#45;&gt;Node11 -->
<g id="edge10" class="edge"><title>Node8&#45;&gt;Node11</title>
<path fill="none" stroke="midnightblue" d="M1336.12,-29.1618C1344.79,-28.2361 1353.56,-27.2994 1362.19,-26.3781"/>
<polygon fill="midnightblue" stroke="midnightblue" points="1335.58,-25.6996 1326.01,-30.2418 1336.32,-32.66 1335.58,-25.6996"/>
</g>
<!-- Node10 -->
<g id="node10" class="node"><title>Node10</title>
<g id="a_node10"><a xlink:href="../../dd/d8e/classuser_interface_1_1_user_interface.html#af296b064499e62c4fbfbf73da6456532" target="_top" xlink:title="userInterface.UserInterface.\lUserInterface">
<polygon fill="white" stroke="black" points="1790,-24 1790,-54 1940,-54 1940,-24 1790,-24"/>
<text text-anchor="start" x="1798" y="-42" font-family="Helvetica,sans-Serif" font-size="10.00">userInterface.UserInterface.</text>
<text text-anchor="middle" x="1865" y="-31" font-family="Helvetica,sans-Serif" font-size="10.00">UserInterface</text>
</a>
</g>
</g>
<!-- Node9&#45;&gt;Node10 -->
<g id="edge9" class="edge"><title>Node9&#45;&gt;Node10</title>
<path fill="none" stroke="midnightblue" d="M1757.88,-52.3986C1768.58,-51.0478 1779.39,-49.683 1789.81,-48.3677"/>
<polygon fill="midnightblue" stroke="midnightblue" points="1757.16,-48.962 1747.68,-53.6872 1758.04,-55.9069 1757.16,-48.962"/>
</g>
<!-- Node12 -->
<g id="node12" class="node"><title>Node12</title>
<g id="a_node12"><a xlink:href="../../dd/d8e/classuser_interface_1_1_user_interface.html#a6d39ee7d7ae35fc0539bb714bce6221a" target="_top" xlink:title="userInterface.UserInterface.make\lFunctionButtons">
<polygon fill="white" stroke="black" points="1576.5,-0 1576.5,-30 1753.5,-30 1753.5,-0 1576.5,-0"/>
<text text-anchor="start" x="1584.5" y="-18" font-family="Helvetica,sans-Serif" font-size="10.00">userInterface.UserInterface.make</text>
<text text-anchor="middle" x="1665" y="-7" font-family="Helvetica,sans-Serif" font-size="10.00">FunctionButtons</text>
</a>
</g>
</g>
<!-- Node11&#45;&gt;Node12 -->
<g id="edge11" class="edge"><title>Node11&#45;&gt;Node12</title>
<path fill="none" stroke="midnightblue" d="M1550.01,-16.0754C1558.78,-15.9926 1567.63,-15.9092 1576.31,-15.8273"/>
<polygon fill="midnightblue" stroke="midnightblue" points="1549.73,-12.5778 1539.76,-16.1721 1549.79,-19.5775 1549.73,-12.5778"/>
</g>
<!-- Node12&#45;&gt;Node10 -->
<g id="edge12" class="edge"><title>Node12&#45;&gt;Node10</title>
<path fill="none" stroke="midnightblue" d="M1763.67,-26.8393C1772.52,-27.9113 1781.38,-28.985 1789.97,-30.0262"/>
<polygon fill="midnightblue" stroke="midnightblue" points="1764.06,-23.3604 1753.71,-25.6316 1763.22,-30.3095 1764.06,-23.3604"/>
</g>
<!-- Node13&#45;&gt;Node5 -->
<g id="edge14" class="edge"><title>Node13&#45;&gt;Node5</title>
<path fill="none" stroke="midnightblue" d="M732.002,-50.2862C754.493,-56.7122 781.615,-64.4613 802.521,-70.4347"/>
<polygon fill="midnightblue" stroke="midnightblue" points="732.933,-46.9124 722.357,-47.5305 731.01,-53.6431 732.933,-46.9124"/>
</g>
<!-- Node13&#45;&gt;Node6 -->
<g id="edge15" class="edge"><title>Node13&#45;&gt;Node6</title>
<path fill="none" stroke="midnightblue" d="M753.072,-38.4359C764.774,-38.5155 776.8,-38.5973 787.937,-38.673"/>
<polygon fill="midnightblue" stroke="midnightblue" points="752.926,-34.9349 742.903,-38.3667 752.879,-41.9347 752.926,-34.9349"/>
</g>
</g>
</svg>
