<?xml version="1.0" encoding="UTF-8" standalone="no"?>
<!DOCTYPE svg PUBLIC "-//W3C//DTD SVG 1.1//EN"
 "http://www.w3.org/Graphics/SVG/1.1/DTD/svg11.dtd">
<!-- Generated by graphviz version 2.36.0 (20140111.2315)
 -->
<!-- Title: userInterface.LeftPanel.LeftPanel Pages: 1 -->
<svg width="662pt" height="77pt"
 viewBox="0.00 0.00 662.00 77.00" xmlns="http://www.w3.org/2000/svg" xmlns:xlink="http://www.w3.org/1999/xlink">
<g id="graph0" class="graph" transform="scale(1 1) rotate(0) translate(4 73)">
<title>userInterface.LeftPanel.LeftPanel</title>
<polygon fill="white" stroke="none" points="-4,4 -4,-73 658,-73 658,4 -4,4"/>
<!-- Node1 -->
<g id="node1" class="node"><title>Node1</title>
<polygon fill="#bfbfbf" stroke="black" points="0.5,-22 0.5,-52 129.5,-52 129.5,-22 0.5,-22"/>
<text text-anchor="start" x="8.5" y="-40" font-family="Helvetica,sans-Serif" font-size="10.00">userInterface.LeftPanel.</text>
<text text-anchor="middle" x="65" y="-29" font-family="Helvetica,sans-Serif" font-size="10.00">LeftPanel</text>
</g>
<!-- Node2 -->
<g id="node2" class="node"><title>Node2</title>
<g id="a_node2"><a xlink:href="../../dc/d1b/classuser_interface_1_1_left_panel.html#a8b31bed29bdfa95820342c6d3facc020" target="_top" xlink:title="userInterface.LeftPanel.get\lInstance">
<polygon fill="white" stroke="black" points="166.5,-22 166.5,-52 311.5,-52 311.5,-22 166.5,-22"/>
<text text-anchor="start" x="174.5" y="-40" font-family="Helvetica,sans-Serif" font-size="10.00">userInterface.LeftPanel.get</text>
<text text-anchor="middle" x="239" y="-29" font-family="Helvetica,sans-Serif" font-size="10.00">Instance</text>
</a>
</g>
</g>
<!-- Node1&#45;&gt;Node2 -->
<g id="edge1" class="edge"><title>Node1&#45;&gt;Node2</title>
<path fill="none" stroke="midnightblue" d="M139.776,-37C148.568,-37 157.533,-37 166.295,-37"/>
<polygon fill="midnightblue" stroke="midnightblue" points="139.558,-33.5001 129.558,-37 139.558,-40.5001 139.558,-33.5001"/>
</g>
<!-- Node3 -->
<g id="node3" class="node"><title>Node3</title>
<g id="a_node3"><a xlink:href="../../d0/d7c/classuser_interface_1_1_u_i.html#a3bbaba49b5a758cdab6fb4182e5dec4c" target="_top" xlink:title="userInterface.UI.initialize">
<polygon fill="white" stroke="black" points="363,-49.5 363,-68.5 497,-68.5 497,-49.5 363,-49.5"/>
<text text-anchor="middle" x="430" y="-56.5" font-family="Helvetica,sans-Serif" font-size="10.00">userInterface.UI.initialize</text>
</a>
</g>
</g>
<!-- Node2&#45;&gt;Node3 -->
<g id="edge2" class="edge"><title>Node2&#45;&gt;Node3</title>
<path fill="none" stroke="midnightblue" d="M321.673,-46.507C335.453,-48.1109 349.604,-49.7581 362.923,-51.3085"/>
<polygon fill="midnightblue" stroke="midnightblue" points="322.06,-43.0284 311.722,-45.3486 321.251,-49.9815 322.06,-43.0284"/>
</g>
<!-- Node5 -->
<g id="node5" class="node"><title>Node5</title>
<g id="a_node5"><a xlink:href="../../d8/d08/classworld_controller_1_1_world_controller.html#a2f1f4f6fa731a84b45d6e92813d8c941" target="_top" xlink:title="worldController.WorldController.\lWorldController">
<polygon fill="white" stroke="black" points="348,-0 348,-30 512,-30 512,-0 348,-0"/>
<text text-anchor="start" x="356" y="-18" font-family="Helvetica,sans-Serif" font-size="10.00">worldController.WorldController.</text>
<text text-anchor="middle" x="430" y="-7" font-family="Helvetica,sans-Serif" font-size="10.00">WorldController</text>
</a>
</g>
</g>
<!-- Node2&#45;&gt;Node5 -->
<g id="edge4" class="edge"><title>Node2&#45;&gt;Node5</title>
<path fill="none" stroke="midnightblue" d="M321.781,-27.4806C330.42,-26.4749 339.205,-25.4524 347.837,-24.4475"/>
<polygon fill="midnightblue" stroke="midnightblue" points="321.251,-24.0185 311.722,-28.6514 322.06,-30.9716 321.251,-24.0185"/>
</g>
<!-- Node4 -->
<g id="node4" class="node"><title>Node4</title>
<g id="a_node4"><a xlink:href="../../d0/d7c/classuser_interface_1_1_u_i.html#aad82f35446d97cd94d5003a2b995e264" target="_top" xlink:title="userInterface.UI.UI">
<polygon fill="white" stroke="black" points="548.5,-49.5 548.5,-68.5 653.5,-68.5 653.5,-49.5 548.5,-49.5"/>
<text text-anchor="middle" x="601" y="-56.5" font-family="Helvetica,sans-Serif" font-size="10.00">userInterface.UI.UI</text>
</a>
</g>
</g>
<!-- Node3&#45;&gt;Node4 -->
<g id="edge3" class="edge"><title>Node3&#45;&gt;Node4</title>
<path fill="none" stroke="midnightblue" d="M507.319,-59C521.169,-59 535.315,-59 548.249,-59"/>
<polygon fill="midnightblue" stroke="midnightblue" points="507.308,-55.5001 497.308,-59 507.308,-62.5001 507.308,-55.5001"/>
</g>
</g>
</svg>
