<?xml version="1.0" encoding="UTF-8" standalone="no"?>
<!DOCTYPE svg PUBLIC "-//W3C//DTD SVG 1.1//EN"
 "http://www.w3.org/Graphics/SVG/1.1/DTD/svg11.dtd">
<!-- Generated by graphviz version 2.36.0 (20140111.2315)
 -->
<!-- Title: command.LessThanCommand Pages: 1 -->
<svg width="578pt" height="185pt"
 viewBox="0.00 0.00 578.00 185.00" xmlns="http://www.w3.org/2000/svg" xmlns:xlink="http://www.w3.org/1999/xlink">
<g id="graph0" class="graph" transform="scale(1 1) rotate(0) translate(4 181)">
<title>command.LessThanCommand</title>
<polygon fill="white" stroke="none" points="-4,4 -4,-181 574,-181 574,4 -4,4"/>
<!-- Node1 -->
<g id="node1" class="node"><title>Node1</title>
<polygon fill="#bfbfbf" stroke="black" points="406,-83.5 406,-102.5 570,-102.5 570,-83.5 406,-83.5"/>
<text text-anchor="middle" x="488" y="-90.5" font-family="Helvetica,sans-Serif" font-size="10.00">command.LessThanCommand</text>
</g>
<!-- Node2 -->
<g id="node2" class="node"><title>Node2</title>
<g id="a_node2"><a xlink:href="../../d7/d35/classcommand_1_1_command.html" target="_top" xlink:title="command.Command">
<polygon fill="white" stroke="black" points="248.5,-83.5 248.5,-102.5 367.5,-102.5 367.5,-83.5 248.5,-83.5"/>
<text text-anchor="middle" x="308" y="-90.5" font-family="Helvetica,sans-Serif" font-size="10.00">command.Command</text>
</a>
</g>
</g>
<!-- Node2&#45;&gt;Node1 -->
<g id="edge1" class="edge"><title>Node2&#45;&gt;Node1</title>
<path fill="none" stroke="midnightblue" d="M377.915,-93C387.025,-93 396.431,-93 405.724,-93"/>
<polygon fill="midnightblue" stroke="midnightblue" points="377.777,-89.5001 367.777,-93 377.777,-96.5001 377.777,-89.5001"/>
</g>
<!-- Node3 -->
<g id="node3" class="node"><title>Node3</title>
<polygon fill="white" stroke="#bfbfbf" points="17.5,-157.5 17.5,-176.5 110.5,-176.5 110.5,-157.5 17.5,-157.5"/>
<text text-anchor="middle" x="64" y="-164.5" font-family="Helvetica,sans-Serif" font-size="10.00">ResourceBundle</text>
</g>
<!-- Node3&#45;&gt;Node2 -->
<g id="edge2" class="edge"><title>Node3&#45;&gt;Node2</title>
<path fill="none" stroke="#9a32cd" stroke-dasharray="5,2" d="M120.94,-159.411C153.385,-154.043 194.684,-145.539 230,-133 252.43,-125.036 276.504,-111.666 291.648,-102.596"/>
<polygon fill="#9a32cd" stroke="#9a32cd" points="120.056,-156.008 110.735,-161.045 121.163,-162.92 120.056,-156.008"/>
<text text-anchor="middle" x="188" y="-157" font-family="Helvetica,sans-Serif" font-size="10.00"> syntax</text>
</g>
<!-- Node4 -->
<g id="node4" class="node"><title>Node4</title>
<polygon fill="white" stroke="#bfbfbf" points="19.5,-119.5 19.5,-138.5 108.5,-138.5 108.5,-119.5 19.5,-119.5"/>
<text text-anchor="middle" x="64" y="-126.5" font-family="Helvetica,sans-Serif" font-size="10.00">List&lt; Double &gt;</text>
</g>
<!-- Node4&#45;&gt;Node2 -->
<g id="edge3" class="edge"><title>Node4&#45;&gt;Node2</title>
<path fill="none" stroke="#9a32cd" stroke-dasharray="5,2" d="M118.642,-122.499C150.959,-118.421 192.906,-112.842 230,-107 238.59,-105.647 247.697,-104.096 256.527,-102.53"/>
<polygon fill="#9a32cd" stroke="#9a32cd" points="117.994,-119.053 108.507,-123.769 118.864,-125.999 117.994,-119.053"/>
<text text-anchor="middle" x="188" y="-121" font-family="Helvetica,sans-Serif" font-size="10.00"> parameters</text>
</g>
<!-- Node5 -->
<g id="node5" class="node"><title>Node5</title>
<polygon fill="white" stroke="#bfbfbf" points="22,-81.5 22,-100.5 106,-100.5 106,-81.5 22,-81.5"/>
<text text-anchor="middle" x="64" y="-88.5" font-family="Helvetica,sans-Serif" font-size="10.00">List&lt; String &gt;</text>
</g>
<!-- Node5&#45;&gt;Node2 -->
<g id="edge4" class="edge"><title>Node5&#45;&gt;Node2</title>
<path fill="none" stroke="#9a32cd" stroke-dasharray="5,2" d="M116.064,-91.422C154.781,-91.742 208.046,-92.1822 248.481,-92.5164"/>
<polygon fill="#9a32cd" stroke="#9a32cd" points="116.081,-87.9221 106.052,-91.3393 116.023,-94.9219 116.081,-87.9221"/>
<text text-anchor="middle" x="188" y="-95" font-family="Helvetica,sans-Serif" font-size="10.00"> strParameters</text>
</g>
<!-- Node6 -->
<g id="node6" class="node"><title>Node6</title>
<polygon fill="white" stroke="#bfbfbf" points="3,-38.5 3,-57.5 125,-57.5 125,-38.5 3,-38.5"/>
<text text-anchor="middle" x="64" y="-45.5" font-family="Helvetica,sans-Serif" font-size="10.00">Map&lt; String, String &gt;</text>
</g>
<!-- Node6&#45;&gt;Node2 -->
<g id="edge5" class="edge"><title>Node6&#45;&gt;Node2</title>
<path fill="none" stroke="#9a32cd" stroke-dasharray="5,2" d="M135.364,-51.4207C164.869,-53.8401 199.37,-57.9663 230,-65 249.132,-69.3933 270.012,-77.1865 285.197,-83.4375"/>
<polygon fill="#9a32cd" stroke="#9a32cd" points="135.39,-47.9124 125.151,-50.6341 134.853,-54.8917 135.39,-47.9124"/>
<text text-anchor="middle" x="188" y="-79" font-family="Helvetica,sans-Serif" font-size="10.00"> commandValues</text>
<text text-anchor="middle" x="188" y="-68" font-family="Helvetica,sans-Serif" font-size="10.00">functions</text>
</g>
<!-- Node7 -->
<g id="node7" class="node"><title>Node7</title>
<polygon fill="white" stroke="#bfbfbf" points="0,-0.5 0,-19.5 128,-19.5 128,-0.5 0,-0.5"/>
<text text-anchor="middle" x="64" y="-7.5" font-family="Helvetica,sans-Serif" font-size="10.00">Map&lt; String, Double &gt;</text>
</g>
<!-- Node7&#45;&gt;Node2 -->
<g id="edge6" class="edge"><title>Node7&#45;&gt;Node2</title>
<path fill="none" stroke="#9a32cd" stroke-dasharray="5,2" d="M138.21,-14.596C167.596,-18.3112 201.247,-24.9957 230,-37 256.846,-48.2082 283.173,-70.4739 297.006,-83.2954"/>
<polygon fill="#9a32cd" stroke="#9a32cd" points="138.348,-11.0883 128.009,-13.4018 137.534,-18.0408 138.348,-11.0883"/>
<text text-anchor="middle" x="188" y="-40" font-family="Helvetica,sans-Serif" font-size="10.00"> variables</text>
</g>
</g>
</svg>
