<?xml version="1.0" encoding="UTF-8" standalone="no"?>
<!DOCTYPE svg PUBLIC "-//W3C//DTD SVG 1.1//EN"
 "http://www.w3.org/Graphics/SVG/1.1/DTD/svg11.dtd">
<!-- Generated by graphviz version 2.36.0 (20140111.2315)
 -->
<!-- Title: userInterface.UIManager Pages: 1 -->
<!--zoomable 299 -->
<svg id="main" version="1.1" xmlns="http://www.w3.org/2000/svg" xmlns:xlink="http://www.w3.org/1999/xlink" xml:space="preserve" onload="init(evt)">
<style type="text/css"><![CDATA[
.edge:hover path { stroke: red; }
.edge:hover polygon { stroke: red; fill: red; }
]]></style>
<script type="text/javascript"><![CDATA[
var edges = document.getElementsByTagName('g');
if (edges && edges.length) {
  for (var i=0;i<edges.length;i++) {
    if (edges[i].id.substr(0,4)=='edge') {
      edges[i].setAttribute('class','edge');
    }
  }
}
]]></script>
        <defs>
                <circle id="rim" cx="0" cy="0" r="7"/>
                <circle id="rim2" cx="0" cy="0" r="3.5"/>
                <g id="zoomPlus">
                        <use xlink:href="#rim" fill="#404040">
                                <set attributeName="fill" to="#808080" begin="zoomplus.mouseover" end="zoomplus.mouseout"/>
                        </use>
                        <path d="M-4,0h8M0,-4v8" fill="none" stroke="white" stroke-width="1.5" pointer-events="none"/>
                </g>
                <g id="zoomMin">
                        <use xlink:href="#rim" fill="#404040">
                                <set attributeName="fill" to="#808080" begin="zoomminus.mouseover" end="zoomminus.mouseout"/>
                        </use>
                        <path d="M-4,0h8" fill="none" stroke="white" stroke-width="1.5" pointer-events="none"/>
                </g>
                <g id="dirArrow">
                        <path fill="none" stroke="white" stroke-width="1.5" d="M0,-3.0v7 M-2.5,-0.5L0,-3.0L2.5,-0.5"/>
                </g>
               <g id="resetDef">
                       <use xlink:href="#rim2" fill="#404040">
                               <set attributeName="fill" to="#808080" begin="reset.mouseover" end="reset.mouseout"/>
                       </use>
               </g>
        </defs>

<script type="text/javascript">
var viewWidth = 688;
var viewHeight = 299;
var sectionId = 'dynsection-0';
</script>
<script xlink:href="../../svgpan.js"/>
<svg id="graph" class="graph">
<g id="viewport">
<title>userInterface.UIManager</title>
<polygon fill="white" stroke="none" points="-4,4 -4,-295.03 684,-295.03 684,4 -4,4"/>
<!-- Node1 -->
<g id="node1" class="node"><title>Node1</title>
<polygon fill="#bfbfbf" stroke="black" points="546,-165.53 546,-184.53 680,-184.53 680,-165.53 546,-165.53"/>
<text text-anchor="middle" x="613" y="-172.53" font-family="Helvetica,sans-Serif" font-size="10.00">userInterface.UIManager</text>
</g>
<!-- Node2 -->
<g id="node2" class="node"><title>Node2</title>
<polygon fill="white" stroke="#bfbfbf" points="34.5,-269.53 34.5,-288.53 127.5,-288.53 127.5,-269.53 34.5,-269.53"/>
<text text-anchor="middle" x="81" y="-276.53" font-family="Helvetica,sans-Serif" font-size="10.00">ResourceBundle</text>
</g>
<!-- Node2&#45;&gt;Node1 -->
<g id="edge1" class="edge"><title>Node2&#45;&gt;Node1</title>
<path fill="none" stroke="#9a32cd" stroke-dasharray="5,2" d="M138.119,-281.714C151.817,-282.261 166.434,-282.753 180,-283.03 240.432,-284.262 256.083,-291 316,-283.03 381.727,-274.287 396.823,-264.156 460,-244.03 490.681,-234.256 498.565,-232.083 528,-219.03 551.929,-208.418 578.537,-194.015 595.266,-184.623"/>
<polygon fill="#9a32cd" stroke="#9a32cd" points="137.993,-278.206 127.856,-281.289 137.702,-285.2 137.993,-278.206"/>
<text text-anchor="middle" x="397" y="-283.03" font-family="Helvetica,sans-Serif" font-size="10.00"> language</text>
</g>
<!-- Node6 -->
<g id="node6" class="node"><title>Node6</title>
<g id="a_node6"><a xlink:href="../../d3/db5/classuser_interface_1_1_top_menu.html" target="_top" xlink:title="userInterface.TopMenu">
<polygon fill="white" stroke="black" points="334.5,-108.53 334.5,-127.53 459.5,-127.53 459.5,-108.53 334.5,-108.53"/>
<text text-anchor="middle" x="397" y="-115.53" font-family="Helvetica,sans-Serif" font-size="10.00">userInterface.TopMenu</text>
</a>
</g>
</g>
<!-- Node2&#45;&gt;Node6 -->
<g id="edge7" class="edge"><title>Node2&#45;&gt;Node6</title>
<path fill="none" stroke="#9a32cd" stroke-dasharray="5,2" d="M138.013,-274.37C199.157,-268.102 291.634,-254.77 316,-230.03 345.542,-200.034 305.852,-168.337 334,-137.03 337.462,-133.179 341.682,-130.098 346.276,-127.636"/>
<polygon fill="#9a32cd" stroke="#9a32cd" points="137.341,-270.919 127.734,-275.388 138.031,-277.885 137.341,-270.919"/>
<text text-anchor="middle" x="248" y="-271.03" font-family="Helvetica,sans-Serif" font-size="10.00"> language</text>
</g>
<!-- Node3 -->
<g id="node3" class="node"><title>Node3</title>
<polygon fill="white" stroke="#bfbfbf" points="0.5,-223.53 0.5,-242.53 161.5,-242.53 161.5,-223.53 0.5,-223.53"/>
<text text-anchor="middle" x="81" y="-230.53" font-family="Helvetica,sans-Serif" font-size="10.00">EventHandler&lt; ActionEvent &gt;</text>
</g>
<!-- Node3&#45;&gt;Node1 -->
<g id="edge2" class="edge"><title>Node3&#45;&gt;Node1</title>
<path fill="none" stroke="#9a32cd" stroke-dasharray="5,2" d="M171.773,-235.228C262.802,-235.455 407.094,-230.287 528,-201.03 546.992,-196.434 567.992,-189.934 584.244,-184.583"/>
<polygon fill="#9a32cd" stroke="#9a32cd" points="171.781,-231.728 161.764,-235.181 171.747,-238.728 171.781,-231.728"/>
<text text-anchor="middle" x="397" y="-232.03" font-family="Helvetica,sans-Serif" font-size="10.00"> createNewTab</text>
</g>
<!-- Node3&#45;&gt;Node6 -->
<g id="edge9" class="edge"><title>Node3&#45;&gt;Node6</title>
<path fill="none" stroke="#9a32cd" stroke-dasharray="5,2" d="M143.181,-221.655C155.373,-219.427 168.088,-217.131 180,-215.03 240.371,-204.381 269.551,-232.036 316,-192.03 335.488,-175.244 315.642,-155.044 334,-137.03 337.937,-133.166 342.639,-130.085 347.668,-127.63"/>
<polygon fill="#9a32cd" stroke="#9a32cd" points="142.297,-218.258 133.092,-223.504 143.559,-225.144 142.297,-218.258"/>
<text text-anchor="middle" x="248" y="-218.03" font-family="Helvetica,sans-Serif" font-size="10.00"> createNewTab</text>
</g>
<!-- Node4 -->
<g id="node4" class="node"><title>Node4</title>
<polygon fill="white" stroke="#bfbfbf" points="373.5,-184.53 373.5,-203.53 420.5,-203.53 420.5,-184.53 373.5,-184.53"/>
<text text-anchor="middle" x="397" y="-191.53" font-family="Helvetica,sans-Serif" font-size="10.00">Scene</text>
</g>
<!-- Node4&#45;&gt;Node1 -->
<g id="edge3" class="edge"><title>Node4&#45;&gt;Node1</title>
<path fill="none" stroke="#9a32cd" stroke-dasharray="5,2" d="M430.982,-191.101C461.44,-188.397 507.587,-184.3 545.663,-180.919"/>
<polygon fill="#9a32cd" stroke="#9a32cd" points="430.553,-187.626 420.902,-191.996 431.172,-194.598 430.553,-187.626"/>
<text text-anchor="middle" x="503" y="-189.03" font-family="Helvetica,sans-Serif" font-size="10.00"> myScene</text>
</g>
<!-- Node5 -->
<g id="node5" class="node"><title>Node5</title>
<polygon fill="white" stroke="#bfbfbf" points="369,-146.53 369,-165.53 425,-165.53 425,-146.53 369,-146.53"/>
<text text-anchor="middle" x="397" y="-153.53" font-family="Helvetica,sans-Serif" font-size="10.00">TabPane</text>
</g>
<!-- Node5&#45;&gt;Node1 -->
<g id="edge4" class="edge"><title>Node5&#45;&gt;Node1</title>
<path fill="none" stroke="#9a32cd" stroke-dasharray="5,2" d="M435.314,-159.082C461.305,-161.234 496.772,-164.222 528,-167.03 533.836,-167.555 539.899,-168.111 545.976,-168.675"/>
<polygon fill="#9a32cd" stroke="#9a32cd" points="435.401,-155.577 425.147,-158.243 434.825,-162.554 435.401,-155.577"/>
<text text-anchor="middle" x="503" y="-170.03" font-family="Helvetica,sans-Serif" font-size="10.00"> myTabs</text>
</g>
<!-- Node6&#45;&gt;Node1 -->
<g id="edge5" class="edge"><title>Node6&#45;&gt;Node1</title>
<path fill="none" stroke="#9a32cd" stroke-dasharray="5,2" d="M455.932,-129.626C478.546,-134.498 504.611,-140.541 528,-147.03 547.553,-152.454 569.275,-159.729 585.73,-165.504"/>
<polygon fill="#9a32cd" stroke="#9a32cd" points="456.649,-126.2 446.139,-127.542 455.192,-133.047 456.649,-126.2"/>
<text text-anchor="middle" x="503" y="-150.03" font-family="Helvetica,sans-Serif" font-size="10.00"> myMenu</text>
</g>
<!-- Node7 -->
<g id="node7" class="node"><title>Node7</title>
<polygon fill="white" stroke="#bfbfbf" points="58.5,-170.53 58.5,-189.53 103.5,-189.53 103.5,-170.53 58.5,-170.53"/>
<text text-anchor="middle" x="81" y="-177.53" font-family="Helvetica,sans-Serif" font-size="10.00">Stage</text>
</g>
<!-- Node7&#45;&gt;Node6 -->
<g id="edge6" class="edge"><title>Node7&#45;&gt;Node6</title>
<path fill="none" stroke="#9a32cd" stroke-dasharray="5,2" d="M113.914,-179.951C169.54,-179.336 281.608,-175.845 316,-158.03 326.915,-152.375 323.716,-143.764 334,-137.03 339.839,-133.206 346.487,-130.12 353.209,-127.638"/>
<polygon fill="#9a32cd" stroke="#9a32cd" points="113.551,-176.454 103.581,-180.039 113.611,-183.453 113.551,-176.454"/>
<text text-anchor="middle" x="248" y="-181.03" font-family="Helvetica,sans-Serif" font-size="10.00"> myStage</text>
</g>
<!-- Node8 -->
<g id="node8" class="node"><title>Node8</title>
<polygon fill="white" stroke="#bfbfbf" points="59.5,-93.5297 59.5,-112.53 102.5,-112.53 102.5,-93.5297 59.5,-93.5297"/>
<text text-anchor="middle" x="81" y="-100.53" font-family="Helvetica,sans-Serif" font-size="10.00">Menu</text>
</g>
<!-- Node8&#45;&gt;Node6 -->
<g id="edge8" class="edge"><title>Node8&#45;&gt;Node6</title>
<path fill="none" stroke="#9a32cd" stroke-dasharray="5,2" d="M112.955,-101.212C157.826,-98.9882 243.503,-96.2918 316,-103.03 328.1,-104.154 341.099,-106.216 353.027,-108.459"/>
<polygon fill="#9a32cd" stroke="#9a32cd" points="112.523,-97.7293 102.719,-101.746 112.888,-104.72 112.523,-97.7293"/>
<text text-anchor="middle" x="248" y="-150.03" font-family="Helvetica,sans-Serif" font-size="10.00"> View</text>
<text text-anchor="middle" x="248" y="-139.03" font-family="Helvetica,sans-Serif" font-size="10.00">Preferences</text>
<text text-anchor="middle" x="248" y="-128.03" font-family="Helvetica,sans-Serif" font-size="10.00">Edit</text>
<text text-anchor="middle" x="248" y="-117.03" font-family="Helvetica,sans-Serif" font-size="10.00">File</text>
<text text-anchor="middle" x="248" y="-106.03" font-family="Helvetica,sans-Serif" font-size="10.00">Help</text>
</g>
<!-- Node9 -->
<g id="node9" class="node"><title>Node9</title>
<polygon fill="white" stroke="#bfbfbf" points="51.5,-55.5297 51.5,-74.5297 110.5,-74.5297 110.5,-55.5297 51.5,-55.5297"/>
<text text-anchor="middle" x="81" y="-62.5297" font-family="Helvetica,sans-Serif" font-size="10.00">MenuBar</text>
</g>
<!-- Node9&#45;&gt;Node6 -->
<g id="edge10" class="edge"><title>Node9&#45;&gt;Node6</title>
<path fill="none" stroke="#9a32cd" stroke-dasharray="5,2" d="M120.999,-60.6594C168.948,-56.909 251.849,-55.7779 316,-83.0297 325.852,-87.2147 324.669,-93.7857 334,-99.0297 340.772,-102.835 348.397,-105.97 355.924,-108.519"/>
<polygon fill="#9a32cd" stroke="#9a32cd" points="120.405,-57.1976 110.743,-61.5442 121.007,-64.1717 120.405,-57.1976"/>
<text text-anchor="middle" x="248" y="-86.0297" font-family="Helvetica,sans-Serif" font-size="10.00"> myMenu</text>
</g>
<!-- Node10 -->
<g id="node10" class="node"><title>Node10</title>
<polygon fill="white" stroke="#bfbfbf" points="46,-11.5297 46,-30.5297 116,-30.5297 116,-11.5297 46,-11.5297"/>
<text text-anchor="middle" x="81" y="-18.5297" font-family="Helvetica,sans-Serif" font-size="10.00">ColorPicker</text>
</g>
<!-- Node10&#45;&gt;Node6 -->
<g id="edge11" class="edge"><title>Node10&#45;&gt;Node6</title>
<path fill="none" stroke="#9a32cd" stroke-dasharray="5,2" d="M125.955,-9.34912C177.407,1.48203 262.384,10.1406 316,-33.0297 339.682,-52.098 312.838,-77.1985 334,-99.0297 337.761,-102.91 342.292,-106.003 347.171,-108.467"/>
<polygon fill="#9a32cd" stroke="#9a32cd" points="125.135,-5.94588 116.131,-11.5296 126.652,-12.7796 125.135,-5.94588"/>
<text text-anchor="middle" x="248" y="-47.0297" font-family="Helvetica,sans-Serif" font-size="10.00"> myPenColorChoices</text>
<text text-anchor="middle" x="248" y="-36.0297" font-family="Helvetica,sans-Serif" font-size="10.00">myBackgroundColorChoices</text>
</g>
<!-- Node11 -->
<g id="node11" class="node"><title>Node11</title>
<polygon fill="white" stroke="#bfbfbf" points="361,-70.5297 361,-89.5297 433,-89.5297 433,-70.5297 361,-70.5297"/>
<text text-anchor="middle" x="397" y="-77.5297" font-family="Helvetica,sans-Serif" font-size="10.00">BorderPane</text>
</g>
<!-- Node11&#45;&gt;Node1 -->
<g id="edge12" class="edge"><title>Node11&#45;&gt;Node1</title>
<path fill="none" stroke="#9a32cd" stroke-dasharray="5,2" d="M443.059,-90.0348C468.653,-96.5738 500.895,-106.278 528,-119.03 555.596,-132.012 584.484,-153.217 600.16,-165.47"/>
<polygon fill="#9a32cd" stroke="#9a32cd" points="443.794,-86.6112 433.246,-87.5983 442.108,-93.4049 443.794,-86.6112"/>
<text text-anchor="middle" x="503" y="-122.03" font-family="Helvetica,sans-Serif" font-size="10.00"> myView</text>
</g>
</g>
</svg>
        <g id="navigator" transform="translate(0 0)" fill="#404254">
                <rect fill="#f2f5e9" fill-opacity="0.5" stroke="#606060" stroke-width=".5" x="0" y="0" width="60" height="60"/>
                <use id="zoomplus" xlink:href="#zoomPlus" x="17" y="9" onmousedown="handleZoom(evt,'in')"/>
                <use id="zoomminus" xlink:href="#zoomMin" x="42" y="9" onmousedown="handleZoom(evt,'out')"/>
                <use id="reset" xlink:href="#resetDef" x="30" y="36" onmousedown="handleReset()"/>
                <g id="arrowUp" xlink:href="#dirArrow" transform="translate(30 24)" onmousedown="handlePan(0,-1)">
                  <use xlink:href="#rim" fill="#404040">
                        <set attributeName="fill" to="#808080" begin="arrowUp.mouseover" end="arrowUp.mouseout"/>
                  </use>
                  <path fill="none" stroke="white" stroke-width="1.5" d="M0,-3.0v7 M-2.5,-0.5L0,-3.0L2.5,-0.5"/>
                </g>
                <g id="arrowRight" xlink:href="#dirArrow" transform="rotate(90) translate(36 -43)" onmousedown="handlePan(1,0)">
                  <use xlink:href="#rim" fill="#404040">
                        <set attributeName="fill" to="#808080" begin="arrowRight.mouseover" end="arrowRight.mouseout"/>
                  </use>
                  <path fill="none" stroke="white" stroke-width="1.5" d="M0,-3.0v7 M-2.5,-0.5L0,-3.0L2.5,-0.5"/>
                </g>
                <g id="arrowDown" xlink:href="#dirArrow" transform="rotate(180) translate(-30 -48)" onmousedown="handlePan(0,1)">
                  <use xlink:href="#rim" fill="#404040">
                        <set attributeName="fill" to="#808080" begin="arrowDown.mouseover" end="arrowDown.mouseout"/>
                  </use>
                  <path fill="none" stroke="white" stroke-width="1.5" d="M0,-3.0v7 M-2.5,-0.5L0,-3.0L2.5,-0.5"/>
                </g>
                <g id="arrowLeft" xlink:href="#dirArrow" transform="rotate(270) translate(-36 17)" onmousedown="handlePan(-1,0)">
                  <use xlink:href="#rim" fill="#404040">
                        <set attributeName="fill" to="#808080" begin="arrowLeft.mouseover" end="arrowLeft.mouseout"/>
                  </use>
                  <path fill="none" stroke="white" stroke-width="1.5" d="M0,-3.0v7 M-2.5,-0.5L0,-3.0L2.5,-0.5"/>
                </g>
        </g>
        <svg viewBox="0 0 15 15" width="100%" height="30px" preserveAspectRatio="xMaxYMin meet">
         <g id="arrow_out" transform="scale(0.3 0.3)">
          <a xlink:href="classuser_interface_1_1_u_i_manager__coll__graph_org.svg" target="_base">
           <rect id="button" ry="5" rx="5" y="6" x="6" height="38" width="38"
                fill="#f2f5e9" fill-opacity="0.5" stroke="#606060" stroke-width="1.0"/>
           <path id="arrow"
             d="M 11.500037,31.436501 C 11.940474,20.09759 22.043105,11.32322 32.158766,21.979434 L 37.068811,17.246167 C 37.068811,17.246167 37.088388,32 37.088388,32 L 22.160133,31.978069 C 22.160133,31.978069 26.997745,27.140456 26.997745,27.140456 C 18.528582,18.264221 13.291696,25.230495 11.500037,31.436501 z"
             style="fill:#404040;"/>
          </a>
         </g>
        </svg>
</svg>
