<?xml version="1.0" encoding="UTF-8" standalone="no"?>
<!DOCTYPE svg PUBLIC "-//W3C//DTD SVG 1.1//EN"
 "http://www.w3.org/Graphics/SVG/1.1/DTD/svg11.dtd">
<!-- Generated by graphviz version 2.36.0 (20140111.2315)
 -->
<!-- Title: command.Command Pages: 1 -->
<!--zoomable 1510 -->
<svg id="main" version="1.1" xmlns="http://www.w3.org/2000/svg" xmlns:xlink="http://www.w3.org/1999/xlink" xml:space="preserve" onload="init(evt)">
<style type="text/css"><![CDATA[
.edge:hover path { stroke: red; }
.edge:hover polygon { stroke: red; fill: red; }
]]></style>
<script type="text/javascript"><![CDATA[
var edges = document.getElementsByTagName('g');
if (edges && edges.length) {
  for (var i=0;i<edges.length;i++) {
    if (edges[i].id.substr(0,4)=='edge') {
      edges[i].setAttribute('class','edge');
    }
  }
}
]]></script>
        <defs>
                <circle id="rim" cx="0" cy="0" r="7"/>
                <circle id="rim2" cx="0" cy="0" r="3.5"/>
                <g id="zoomPlus">
                        <use xlink:href="#rim" fill="#404040">
                                <set attributeName="fill" to="#808080" begin="zoomplus.mouseover" end="zoomplus.mouseout"/>
                        </use>
                        <path d="M-4,0h8M0,-4v8" fill="none" stroke="white" stroke-width="1.5" pointer-events="none"/>
                </g>
                <g id="zoomMin">
                        <use xlink:href="#rim" fill="#404040">
                                <set attributeName="fill" to="#808080" begin="zoomminus.mouseover" end="zoomminus.mouseout"/>
                        </use>
                        <path d="M-4,0h8" fill="none" stroke="white" stroke-width="1.5" pointer-events="none"/>
                </g>
                <g id="dirArrow">
                        <path fill="none" stroke="white" stroke-width="1.5" d="M0,-3.0v7 M-2.5,-0.5L0,-3.0L2.5,-0.5"/>
                </g>
               <g id="resetDef">
                       <use xlink:href="#rim2" fill="#404040">
                               <set attributeName="fill" to="#808080" begin="reset.mouseover" end="reset.mouseout"/>
                       </use>
               </g>
        </defs>

<script type="text/javascript">
var viewWidth = 540;
var viewHeight = 1510;
var sectionId = 'dynsection-0';
</script>
<script xlink:href="../../svgpan.js"/>
<svg id="graph" class="graph">
<g id="viewport">
<title>command.Command</title>
<polygon fill="white" stroke="none" points="-4,4 -4,-1506 536,-1506 536,4 -4,4"/>
<!-- Node1 -->
<g id="node1" class="node"><title>Node1</title>
<polygon fill="#bfbfbf" stroke="black" points="0.5,-741.5 0.5,-760.5 119.5,-760.5 119.5,-741.5 0.5,-741.5"/>
<text text-anchor="middle" x="60" y="-748.5" font-family="Helvetica,sans-Serif" font-size="10.00">command.Command</text>
</g>
<!-- Node2 -->
<g id="node2" class="node"><title>Node2</title>
<g id="a_node2"><a xlink:href="../../d9/dd9/classcommand_1_1_and_command.html" target="_top" xlink:title="command.AndCommand">
<polygon fill="white" stroke="black" points="176.5,-1482.5 176.5,-1501.5 313.5,-1501.5 313.5,-1482.5 176.5,-1482.5"/>
<text text-anchor="middle" x="245" y="-1489.5" font-family="Helvetica,sans-Serif" font-size="10.00">command.AndCommand</text>
</a>
</g>
</g>
<!-- Node1&#45;&gt;Node2 -->
<g id="edge1" class="edge"><title>Node1&#45;&gt;Node2</title>
<path fill="none" stroke="midnightblue" d="M60.6638,-770.614C59.2856,-875.236 58.1527,-1366.8 156,-1473 161.613,-1479.09 168.674,-1483.48 176.342,-1486.6"/>
<polygon fill="midnightblue" stroke="midnightblue" points="64.1648,-770.571 60.8147,-760.52 57.1655,-770.467 64.1648,-770.571"/>
</g>
<!-- Node3 -->
<g id="node3" class="node"><title>Node3</title>
<g id="a_node3"><a xlink:href="../../d0/df7/classcommand_1_1_atan_command.html" target="_top" xlink:title="command.AtanCommand">
<polygon fill="white" stroke="black" points="174.5,-1444.5 174.5,-1463.5 315.5,-1463.5 315.5,-1444.5 174.5,-1444.5"/>
<text text-anchor="middle" x="245" y="-1451.5" font-family="Helvetica,sans-Serif" font-size="10.00">command.AtanCommand</text>
</a>
</g>
</g>
<!-- Node1&#45;&gt;Node3 -->
<g id="edge2" class="edge"><title>Node1&#45;&gt;Node3</title>
<path fill="none" stroke="midnightblue" d="M60.8192,-771.175C60.3266,-873.61 63.3387,-1335.15 156,-1435 161.103,-1440.5 167.387,-1444.6 174.228,-1447.64"/>
<polygon fill="midnightblue" stroke="midnightblue" points="64.3204,-770.996 60.8868,-760.973 57.3205,-770.95 64.3204,-770.996"/>
</g>
<!-- Node4 -->
<g id="node4" class="node"><title>Node4</title>
<g id="a_node4"><a xlink:href="../../d2/d63/classcommand_1_1_backward_command.html" target="_top" xlink:title="command.BackwardCommand">
<polygon fill="white" stroke="black" points="163,-1406.5 163,-1425.5 327,-1425.5 327,-1406.5 163,-1406.5"/>
<text text-anchor="middle" x="245" y="-1413.5" font-family="Helvetica,sans-Serif" font-size="10.00">command.BackwardCommand</text>
</a>
</g>
</g>
<!-- Node1&#45;&gt;Node4 -->
<g id="edge3" class="edge"><title>Node1&#45;&gt;Node4</title>
<path fill="none" stroke="midnightblue" d="M60.9998,-770.983C61.4182,-869.58 68.2846,-1303.24 156,-1397 159.524,-1400.77 163.601,-1403.88 168.031,-1406.44"/>
<polygon fill="midnightblue" stroke="midnightblue" points="64.4996,-770.88 60.9758,-760.889 57.4996,-770.897 64.4996,-770.88"/>
</g>
<!-- Node5 -->
<g id="node5" class="node"><title>Node5</title>
<g id="a_node5"><a xlink:href="../../dd/d80/classcommand_1_1_cos_command.html" target="_top" xlink:title="command.CosCommand">
<polygon fill="white" stroke="black" points="176.5,-1368.5 176.5,-1387.5 313.5,-1387.5 313.5,-1368.5 176.5,-1368.5"/>
<text text-anchor="middle" x="245" y="-1375.5" font-family="Helvetica,sans-Serif" font-size="10.00">command.CosCommand</text>
</a>
</g>
</g>
<!-- Node1&#45;&gt;Node5 -->
<g id="edge4" class="edge"><title>Node1&#45;&gt;Node5</title>
<path fill="none" stroke="midnightblue" d="M61.2014,-770.989C62.577,-866.046 73.2803,-1271.37 156,-1359 161.686,-1365.02 168.79,-1369.37 176.48,-1372.47"/>
<polygon fill="midnightblue" stroke="midnightblue" points="64.6983,-770.715 61.0734,-760.76 57.6989,-770.803 64.6983,-770.715"/>
</g>
<!-- Node6 -->
<g id="node6" class="node"><title>Node6</title>
<g id="a_node6"><a xlink:href="../../dc/d8b/classcommand_1_1_difference_command.html" target="_top" xlink:title="command.DifferenceCommand">
<polygon fill="white" stroke="black" points="161.5,-1330.5 161.5,-1349.5 328.5,-1349.5 328.5,-1330.5 161.5,-1330.5"/>
<text text-anchor="middle" x="245" y="-1337.5" font-family="Helvetica,sans-Serif" font-size="10.00">command.DifferenceCommand</text>
</a>
</g>
</g>
<!-- Node1&#45;&gt;Node6 -->
<g id="edge5" class="edge"><title>Node1&#45;&gt;Node6</title>
<path fill="none" stroke="midnightblue" d="M61.419,-770.6C63.7661,-861.304 78.1518,-1239.36 156,-1321 159.56,-1324.73 163.664,-1327.82 168.113,-1330.36"/>
<polygon fill="midnightblue" stroke="midnightblue" points="64.9177,-770.498 61.1799,-760.585 57.9197,-770.665 64.9177,-770.498"/>
</g>
<!-- Node7 -->
<g id="node7" class="node"><title>Node7</title>
<g id="a_node7"><a xlink:href="../../db/d9b/classcommand_1_1_equals_command.html" target="_top" xlink:title="command.EqualsCommand">
<polygon fill="white" stroke="black" points="170,-1292.5 170,-1311.5 320,-1311.5 320,-1292.5 170,-1292.5"/>
<text text-anchor="middle" x="245" y="-1299.5" font-family="Helvetica,sans-Serif" font-size="10.00">command.EqualsCommand</text>
</a>
</g>
</g>
<!-- Node1&#45;&gt;Node7 -->
<g id="edge6" class="edge"><title>Node1&#45;&gt;Node7</title>
<path fill="none" stroke="midnightblue" d="M61.6865,-770.936C65.1126,-858.448 83.2173,-1207.55 156,-1283 160.015,-1287.16 164.708,-1290.52 169.798,-1293.21"/>
<polygon fill="midnightblue" stroke="midnightblue" points="65.1781,-770.643 61.3101,-760.779 58.1829,-770.902 65.1781,-770.643"/>
</g>
<!-- Node8 -->
<g id="node8" class="node"><title>Node8</title>
<g id="a_node8"><a xlink:href="../../df/d28/classcommand_1_1_forward_command.html" target="_top" xlink:title="command.ForwardCommand">
<polygon fill="white" stroke="black" points="167,-1254.5 167,-1273.5 323,-1273.5 323,-1254.5 167,-1254.5"/>
<text text-anchor="middle" x="245" y="-1261.5" font-family="Helvetica,sans-Serif" font-size="10.00">command.ForwardCommand</text>
</a>
</g>
</g>
<!-- Node1&#45;&gt;Node8 -->
<g id="edge7" class="edge"><title>Node1&#45;&gt;Node8</title>
<path fill="none" stroke="midnightblue" d="M61.9925,-771.095C66.547,-854.931 88.2154,-1175.66 156,-1245 159.715,-1248.8 163.995,-1251.93 168.625,-1254.49"/>
<polygon fill="midnightblue" stroke="midnightblue" points="65.4764,-770.693 61.4604,-760.889 58.4859,-771.057 65.4764,-770.693"/>
</g>
<!-- Node9 -->
<g id="node9" class="node"><title>Node9</title>
<g id="a_node9"><a xlink:href="../../d7/d5a/classcommand_1_1_go_to_command.html" target="_top" xlink:title="command.GoToCommand">
<polygon fill="white" stroke="black" points="174,-1216.5 174,-1235.5 316,-1235.5 316,-1216.5 174,-1216.5"/>
<text text-anchor="middle" x="245" y="-1223.5" font-family="Helvetica,sans-Serif" font-size="10.00">command.GoToCommand</text>
</a>
</g>
</g>
<!-- Node1&#45;&gt;Node9 -->
<g id="edge8" class="edge"><title>Node1&#45;&gt;Node9</title>
<path fill="none" stroke="midnightblue" d="M62.3017,-770.55C67.958,-849.492 93.0086,-1143.55 156,-1207 161.065,-1212.1 167.152,-1215.98 173.729,-1218.92"/>
<polygon fill="midnightblue" stroke="midnightblue" points="65.7895,-770.25 61.6057,-760.517 58.8063,-770.735 65.7895,-770.25"/>
</g>
<!-- Node10 -->
<g id="node10" class="node"><title>Node10</title>
<g id="a_node10"><a xlink:href="../../d9/d29/classcommand_1_1_greater_command.html" target="_top" xlink:title="command.GreaterCommand">
<polygon fill="white" stroke="black" points="167.5,-1178.5 167.5,-1197.5 322.5,-1197.5 322.5,-1178.5 167.5,-1178.5"/>
<text text-anchor="middle" x="245" y="-1185.5" font-family="Helvetica,sans-Serif" font-size="10.00">command.GreaterCommand</text>
</a>
</g>
</g>
<!-- Node1&#45;&gt;Node10 -->
<g id="edge9" class="edge"><title>Node1&#45;&gt;Node10</title>
<path fill="none" stroke="midnightblue" d="M62.7259,-770.827C69.6667,-845.937 98.0018,-1111.63 156,-1169 159.778,-1172.74 164.105,-1175.82 168.768,-1178.35"/>
<polygon fill="midnightblue" stroke="midnightblue" points="66.2077,-770.466 61.825,-760.821 59.2359,-771.094 66.2077,-770.466"/>
</g>
<!-- Node11 -->
<g id="node11" class="node"><title>Node11</title>
<g id="a_node11"><a xlink:href="../../d9/da8/classcommand_1_1_heading_command.html" target="_top" xlink:title="command.HeadingCommand">
<polygon fill="white" stroke="black" points="166,-1140.5 166,-1159.5 324,-1159.5 324,-1140.5 166,-1140.5"/>
<text text-anchor="middle" x="245" y="-1147.5" font-family="Helvetica,sans-Serif" font-size="10.00">command.HeadingCommand</text>
</a>
</g>
</g>
<!-- Node1&#45;&gt;Node11 -->
<g id="edge10" class="edge"><title>Node1&#45;&gt;Node11</title>
<path fill="none" stroke="midnightblue" d="M63.2063,-770.808C71.4744,-841.455 102.894,-1079.58 156,-1131 159.93,-1134.81 164.431,-1137.92 169.272,-1140.48"/>
<polygon fill="midnightblue" stroke="midnightblue" points="66.6556,-770.165 62.041,-760.628 59.701,-770.961 66.6556,-770.165"/>
</g>
<!-- Node12 -->
<g id="node12" class="node"><title>Node12</title>
<g id="a_node12"><a xlink:href="../../d6/d41/classcommand_1_1_if_command.html" target="_top" xlink:title="command.IfCommand">
<polygon fill="white" stroke="black" points="183,-1102.5 183,-1121.5 307,-1121.5 307,-1102.5 183,-1102.5"/>
<text text-anchor="middle" x="245" y="-1109.5" font-family="Helvetica,sans-Serif" font-size="10.00">command.IfCommand</text>
</a>
</g>
</g>
<!-- Node1&#45;&gt;Node12 -->
<g id="edge11" class="edge"><title>Node1&#45;&gt;Node12</title>
<path fill="none" stroke="midnightblue" d="M63.81,-770.93C73.5305,-837.046 107.793,-1047.52 156,-1093 163.504,-1100.08 172.988,-1104.77 182.932,-1107.84"/>
<polygon fill="midnightblue" stroke="midnightblue" points="67.2189,-770.047 62.3269,-760.649 60.2907,-771.046 67.2189,-770.047"/>
</g>
<!-- Node13 -->
<g id="node13" class="node"><title>Node13</title>
<g id="a_node13"><a xlink:href="../../dc/d8b/classcommand_1_1_init_for_command.html" target="_top" xlink:title="command.InitForCommand">
<polygon fill="white" stroke="black" points="171,-1064.5 171,-1083.5 319,-1083.5 319,-1064.5 171,-1064.5"/>
<text text-anchor="middle" x="245" y="-1071.5" font-family="Helvetica,sans-Serif" font-size="10.00">command.InitForCommand</text>
</a>
</g>
</g>
<!-- Node1&#45;&gt;Node13 -->
<g id="edge12" class="edge"><title>Node1&#45;&gt;Node13</title>
<path fill="none" stroke="midnightblue" d="M60.8098,-770.723C61.4255,-824.941 71.0098,-977.353 156,-1055 160.385,-1059.01 165.407,-1062.24 170.781,-1064.85"/>
<polygon fill="midnightblue" stroke="midnightblue" points="64.3099,-770.699 60.7906,-760.706 57.3099,-770.713 64.3099,-770.699"/>
</g>
<!-- Node14 -->
<g id="node14" class="node"><title>Node14</title>
<g id="a_node14"><a xlink:href="../../d5/daa/classcommand_1_1_init_repeat_command.html" target="_top" xlink:title="command.InitRepeatCommand">
<polygon fill="white" stroke="black" points="162,-1026.5 162,-1045.5 328,-1045.5 328,-1026.5 162,-1026.5"/>
<text text-anchor="middle" x="245" y="-1033.5" font-family="Helvetica,sans-Serif" font-size="10.00">command.InitRepeatCommand</text>
</a>
</g>
</g>
<!-- Node1&#45;&gt;Node14 -->
<g id="edge13" class="edge"><title>Node1&#45;&gt;Node14</title>
<path fill="none" stroke="midnightblue" d="M61.8107,-770.549C64.9698,-819.973 80.4265,-950.689 156,-1017 160.347,-1020.81 165.276,-1023.92 170.527,-1026.45"/>
<polygon fill="midnightblue" stroke="midnightblue" points="65.3049,-770.346 61.2737,-760.549 58.315,-770.722 65.3049,-770.346"/>
</g>
<!-- Node15 -->
<g id="node15" class="node"><title>Node15</title>
<g id="a_node15"><a xlink:href="../../d7/d34/classcommand_1_1_left_command.html" target="_top" xlink:title="command.LeftCommand">
<polygon fill="white" stroke="black" points="176.5,-988.5 176.5,-1007.5 313.5,-1007.5 313.5,-988.5 176.5,-988.5"/>
<text text-anchor="middle" x="245" y="-995.5" font-family="Helvetica,sans-Serif" font-size="10.00">command.LeftCommand</text>
</a>
</g>
</g>
<!-- Node1&#45;&gt;Node15 -->
<g id="edge14" class="edge"><title>Node1&#45;&gt;Node15</title>
<path fill="none" stroke="midnightblue" d="M63.1389,-770.716C69.0685,-815.243 89.9127,-923.974 156,-979 162.006,-984.001 169.022,-987.772 176.426,-990.605"/>
<polygon fill="midnightblue" stroke="midnightblue" points="66.5933,-770.129 61.9095,-760.626 59.6447,-770.976 66.5933,-770.129"/>
</g>
<!-- Node16 -->
<g id="node16" class="node"><title>Node16</title>
<g id="a_node16"><a xlink:href="../../df/d23/classcommand_1_1_less_command.html" target="_top" xlink:title="command.LessCommand">
<polygon fill="white" stroke="black" points="175,-950.5 175,-969.5 315,-969.5 315,-950.5 175,-950.5"/>
<text text-anchor="middle" x="245" y="-957.5" font-family="Helvetica,sans-Serif" font-size="10.00">command.LessCommand</text>
</a>
</g>
</g>
<!-- Node1&#45;&gt;Node16 -->
<g id="edge15" class="edge"><title>Node1&#45;&gt;Node16</title>
<path fill="none" stroke="midnightblue" d="M64.9073,-770.598C73.7529,-809.578 99.1272,-896.87 156,-941 161.68,-945.408 168.161,-948.845 174.97,-951.518"/>
<polygon fill="midnightblue" stroke="midnightblue" points="68.3161,-769.801 62.7972,-760.757 61.4716,-771.269 68.3161,-769.801"/>
</g>
<!-- Node17 -->
<g id="node17" class="node"><title>Node17</title>
<g id="a_node17"><a xlink:href="../../d5/d18/classcommand_1_1_log_command.html" target="_top" xlink:title="command.LogCommand">
<polygon fill="white" stroke="black" points="177,-912.5 177,-931.5 313,-931.5 313,-912.5 177,-912.5"/>
<text text-anchor="middle" x="245" y="-919.5" font-family="Helvetica,sans-Serif" font-size="10.00">command.LogCommand</text>
</a>
</g>
</g>
<!-- Node1&#45;&gt;Node17 -->
<g id="edge16" class="edge"><title>Node1&#45;&gt;Node17</title>
<path fill="none" stroke="midnightblue" d="M67.458,-770.476C79.4037,-803.319 108.186,-869.41 156,-903 162.267,-907.403 169.358,-910.816 176.73,-913.457"/>
<polygon fill="midnightblue" stroke="midnightblue" points="70.6487,-768.997 64.0492,-760.708 64.0396,-771.303 70.6487,-768.997"/>
</g>
<!-- Node18 -->
<g id="node18" class="node"><title>Node18</title>
<g id="a_node18"><a xlink:href="../../d3/d0c/classcommand_1_1_loop_command.html" target="_top" xlink:title="command.LoopCommand">
<polygon fill="white" stroke="black" points="174,-874.5 174,-893.5 316,-893.5 316,-874.5 174,-874.5"/>
<text text-anchor="middle" x="245" y="-881.5" font-family="Helvetica,sans-Serif" font-size="10.00">command.LoopCommand</text>
</a>
</g>
</g>
<!-- Node1&#45;&gt;Node18 -->
<g id="edge17" class="edge"><title>Node1&#45;&gt;Node18</title>
<path fill="none" stroke="midnightblue" d="M71.0997,-769.586C86.0864,-795.295 116.719,-841.221 156,-865 162.418,-868.885 169.523,-871.981 176.832,-874.448"/>
<polygon fill="midnightblue" stroke="midnightblue" points="74.1062,-767.793 66.1366,-760.812 68.0133,-771.239 74.1062,-767.793"/>
</g>
<!-- Node22 -->
<g id="node22" class="node"><title>Node22</title>
<g id="a_node22"><a xlink:href="../../d0/d8f/classcommand_1_1_make_command.html" target="_top" xlink:title="command.MakeCommand">
<polygon fill="white" stroke="black" points="173,-836.5 173,-855.5 317,-855.5 317,-836.5 173,-836.5"/>
<text text-anchor="middle" x="245" y="-843.5" font-family="Helvetica,sans-Serif" font-size="10.00">command.MakeCommand</text>
</a>
</g>
</g>
<!-- Node1&#45;&gt;Node22 -->
<g id="edge21" class="edge"><title>Node1&#45;&gt;Node22</title>
<path fill="none" stroke="midnightblue" d="M77.1821,-767.941C94.8825,-785.441 124.9,-812.218 156,-827 164.188,-830.892 173.182,-833.995 182.198,-836.468"/>
<polygon fill="midnightblue" stroke="midnightblue" points="79.4753,-765.282 69.9565,-760.63 74.4966,-770.203 79.4753,-765.282"/>
</g>
<!-- Node23 -->
<g id="node23" class="node"><title>Node23</title>
<g id="a_node23"><a xlink:href="../../d2/d0b/classcommand_1_1_minus_command.html" target="_top" xlink:title="command.MinusCommand">
<polygon fill="white" stroke="black" points="172,-798.5 172,-817.5 318,-817.5 318,-798.5 172,-798.5"/>
<text text-anchor="middle" x="245" y="-805.5" font-family="Helvetica,sans-Serif" font-size="10.00">command.MinusCommand</text>
</a>
</g>
</g>
<!-- Node1&#45;&gt;Node23 -->
<g id="edge22" class="edge"><title>Node1&#45;&gt;Node23</title>
<path fill="none" stroke="midnightblue" d="M91.4683,-764.706C109.877,-772.604 133.968,-782.267 156,-789 167.808,-792.609 180.709,-795.799 192.903,-798.486"/>
<polygon fill="midnightblue" stroke="midnightblue" points="92.7043,-761.427 82.1383,-760.647 89.9116,-767.846 92.7043,-761.427"/>
</g>
<!-- Node24 -->
<g id="node24" class="node"><title>Node24</title>
<g id="a_node24"><a xlink:href="../../dd/df6/classcommand_1_1_not_command.html" target="_top" xlink:title="command.NotCommand">
<polygon fill="white" stroke="black" points="177,-760.5 177,-779.5 313,-779.5 313,-760.5 177,-760.5"/>
<text text-anchor="middle" x="245" y="-767.5" font-family="Helvetica,sans-Serif" font-size="10.00">command.NotCommand</text>
</a>
</g>
</g>
<!-- Node1&#45;&gt;Node24 -->
<g id="edge23" class="edge"><title>Node1&#45;&gt;Node24</title>
<path fill="none" stroke="midnightblue" d="M129.637,-758.126C145.056,-759.727 161.401,-761.424 176.762,-763.019"/>
<polygon fill="midnightblue" stroke="midnightblue" points="129.965,-754.642 119.657,-757.09 129.243,-761.604 129.965,-754.642"/>
</g>
<!-- Node25 -->
<g id="node25" class="node"><title>Node25</title>
<g id="a_node25"><a xlink:href="../../db/de8/classcommand_1_1_not_equals_command.html" target="_top" xlink:title="command.NotEqualsCommand">
<polygon fill="white" stroke="black" points="161.5,-722.5 161.5,-741.5 328.5,-741.5 328.5,-722.5 161.5,-722.5"/>
<text text-anchor="middle" x="245" y="-729.5" font-family="Helvetica,sans-Serif" font-size="10.00">command.NotEqualsCommand</text>
</a>
</g>
</g>
<!-- Node1&#45;&gt;Node25 -->
<g id="edge24" class="edge"><title>Node1&#45;&gt;Node25</title>
<path fill="none" stroke="midnightblue" d="M129.794,-743.857C140.087,-742.789 150.79,-741.677 161.336,-740.583"/>
<polygon fill="midnightblue" stroke="midnightblue" points="129.243,-740.396 119.657,-744.91 129.965,-747.358 129.243,-740.396"/>
</g>
<!-- Node26 -->
<g id="node26" class="node"><title>Node26</title>
<g id="a_node26"><a xlink:href="../../d0/d08/classcommand_1_1_or_command.html" target="_top" xlink:title="command.OrCommand">
<polygon fill="white" stroke="black" points="180,-684.5 180,-703.5 310,-703.5 310,-684.5 180,-684.5"/>
<text text-anchor="middle" x="245" y="-691.5" font-family="Helvetica,sans-Serif" font-size="10.00">command.OrCommand</text>
</a>
</g>
</g>
<!-- Node1&#45;&gt;Node26 -->
<g id="edge25" class="edge"><title>Node1&#45;&gt;Node26</title>
<path fill="none" stroke="midnightblue" d="M91.4683,-737.294C109.877,-729.396 133.968,-719.733 156,-713 167.808,-709.391 180.709,-706.201 192.903,-703.514"/>
<polygon fill="midnightblue" stroke="midnightblue" points="89.9116,-734.154 82.1383,-741.353 92.7043,-740.573 89.9116,-734.154"/>
</g>
<!-- Node27 -->
<g id="node27" class="node"><title>Node27</title>
<g id="a_node27"><a xlink:href="../../da/d1a/classcommand_1_1_pen_command.html" target="_top" xlink:title="command.PenCommand">
<polygon fill="white" stroke="black" points="176.5,-646.5 176.5,-665.5 313.5,-665.5 313.5,-646.5 176.5,-646.5"/>
<text text-anchor="middle" x="245" y="-653.5" font-family="Helvetica,sans-Serif" font-size="10.00">command.PenCommand</text>
</a>
</g>
</g>
<!-- Node1&#45;&gt;Node27 -->
<g id="edge26" class="edge"><title>Node1&#45;&gt;Node27</title>
<path fill="none" stroke="midnightblue" d="M77.1821,-734.059C94.8825,-716.559 124.9,-689.782 156,-675 164.188,-671.108 173.182,-668.005 182.198,-665.532"/>
<polygon fill="midnightblue" stroke="midnightblue" points="74.4966,-731.797 69.9565,-741.37 79.4753,-736.718 74.4966,-731.797"/>
</g>
<!-- Node28 -->
<g id="node28" class="node"><title>Node28</title>
<g id="a_node28"><a xlink:href="../../df/de8/classcommand_1_1_pen_query_command.html" target="_top" xlink:title="command.PenQueryCommand">
<polygon fill="white" stroke="black" points="162.5,-608.5 162.5,-627.5 327.5,-627.5 327.5,-608.5 162.5,-608.5"/>
<text text-anchor="middle" x="245" y="-615.5" font-family="Helvetica,sans-Serif" font-size="10.00">command.PenQueryCommand</text>
</a>
</g>
</g>
<!-- Node1&#45;&gt;Node28 -->
<g id="edge27" class="edge"><title>Node1&#45;&gt;Node28</title>
<path fill="none" stroke="midnightblue" d="M71.0997,-732.414C86.0864,-706.705 116.719,-660.779 156,-637 162.418,-633.115 169.523,-630.019 176.832,-627.552"/>
<polygon fill="midnightblue" stroke="midnightblue" points="68.0133,-730.761 66.1366,-741.188 74.1062,-734.207 68.0133,-730.761"/>
</g>
<!-- Node29 -->
<g id="node29" class="node"><title>Node29</title>
<g id="a_node29"><a xlink:href="../../d4/d55/classcommand_1_1_pi_command.html" target="_top" xlink:title="command.PiCommand">
<polygon fill="white" stroke="black" points="181.5,-570.5 181.5,-589.5 308.5,-589.5 308.5,-570.5 181.5,-570.5"/>
<text text-anchor="middle" x="245" y="-577.5" font-family="Helvetica,sans-Serif" font-size="10.00">command.PiCommand</text>
</a>
</g>
</g>
<!-- Node1&#45;&gt;Node29 -->
<g id="edge28" class="edge"><title>Node1&#45;&gt;Node29</title>
<path fill="none" stroke="midnightblue" d="M67.458,-731.524C79.4037,-698.681 108.186,-632.59 156,-599 163.546,-593.699 172.287,-589.832 181.273,-587.02"/>
<polygon fill="midnightblue" stroke="midnightblue" points="64.0396,-730.697 64.0492,-741.292 70.6487,-733.003 64.0396,-730.697"/>
</g>
<!-- Node30 -->
<g id="node30" class="node"><title>Node30</title>
<g id="a_node30"><a xlink:href="../../d8/d7a/classcommand_1_1_pow_command.html" target="_top" xlink:title="command.PowCommand">
<polygon fill="white" stroke="black" points="176.5,-532.5 176.5,-551.5 313.5,-551.5 313.5,-532.5 176.5,-532.5"/>
<text text-anchor="middle" x="245" y="-539.5" font-family="Helvetica,sans-Serif" font-size="10.00">command.PowCommand</text>
</a>
</g>
</g>
<!-- Node1&#45;&gt;Node30 -->
<g id="edge29" class="edge"><title>Node1&#45;&gt;Node30</title>
<path fill="none" stroke="midnightblue" d="M64.9073,-731.402C73.7529,-692.422 99.1272,-605.13 156,-561 162.051,-556.305 169.009,-552.711 176.306,-549.969"/>
<polygon fill="midnightblue" stroke="midnightblue" points="61.4716,-730.731 62.7972,-741.243 68.3161,-732.199 61.4716,-730.731"/>
</g>
<!-- Node31 -->
<g id="node31" class="node"><title>Node31</title>
<g id="a_node31"><a xlink:href="../../d2/d0c/classcommand_1_1_product_command.html" target="_top" xlink:title="command.ProductCommand">
<polygon fill="white" stroke="black" points="167.5,-494.5 167.5,-513.5 322.5,-513.5 322.5,-494.5 167.5,-494.5"/>
<text text-anchor="middle" x="245" y="-501.5" font-family="Helvetica,sans-Serif" font-size="10.00">command.ProductCommand</text>
</a>
</g>
</g>
<!-- Node1&#45;&gt;Node31 -->
<g id="edge30" class="edge"><title>Node1&#45;&gt;Node31</title>
<path fill="none" stroke="midnightblue" d="M63.1389,-731.284C69.0685,-686.757 89.9127,-578.026 156,-523 160.564,-519.2 165.713,-516.109 171.171,-513.601"/>
<polygon fill="midnightblue" stroke="midnightblue" points="59.6447,-731.024 61.9095,-741.374 66.5933,-731.871 59.6447,-731.024"/>
</g>
<!-- Node32 -->
<g id="node32" class="node"><title>Node32</title>
<g id="a_node32"><a xlink:href="../../de/dd0/classcommand_1_1_quotient_command.html" target="_top" xlink:title="command.QuotientCommand">
<polygon fill="white" stroke="black" points="165,-456.5 165,-475.5 325,-475.5 325,-456.5 165,-456.5"/>
<text text-anchor="middle" x="245" y="-463.5" font-family="Helvetica,sans-Serif" font-size="10.00">command.QuotientCommand</text>
</a>
</g>
</g>
<!-- Node1&#45;&gt;Node32 -->
<g id="edge31" class="edge"><title>Node1&#45;&gt;Node32</title>
<path fill="none" stroke="midnightblue" d="M61.8107,-731.451C64.9698,-682.027 80.4265,-551.311 156,-485 160.347,-481.186 165.276,-478.077 170.527,-475.55"/>
<polygon fill="midnightblue" stroke="midnightblue" points="58.315,-731.278 61.2737,-741.451 65.3049,-731.654 58.315,-731.278"/>
</g>
<!-- Node33 -->
<g id="node33" class="node"><title>Node33</title>
<g id="a_node33"><a xlink:href="../../d2/db0/classcommand_1_1_random_command.html" target="_top" xlink:title="command.RandomCommand">
<polygon fill="white" stroke="black" points="166,-418.5 166,-437.5 324,-437.5 324,-418.5 166,-418.5"/>
<text text-anchor="middle" x="245" y="-425.5" font-family="Helvetica,sans-Serif" font-size="10.00">command.RandomCommand</text>
</a>
</g>
</g>
<!-- Node1&#45;&gt;Node33 -->
<g id="edge32" class="edge"><title>Node1&#45;&gt;Node33</title>
<path fill="none" stroke="midnightblue" d="M60.8098,-731.277C61.4255,-677.059 71.0098,-524.647 156,-447 160.154,-443.205 164.88,-440.101 169.935,-437.57"/>
<polygon fill="midnightblue" stroke="midnightblue" points="57.3099,-731.287 60.7906,-741.294 64.3099,-731.301 57.3099,-731.287"/>
</g>
<!-- Node34 -->
<g id="node34" class="node"><title>Node34</title>
<g id="a_node34"><a xlink:href="../../db/d34/classcommand_1_1_remainder_command.html" target="_top" xlink:title="command.RemainderCommand">
<polygon fill="white" stroke="black" points="160,-380.5 160,-399.5 330,-399.5 330,-380.5 160,-380.5"/>
<text text-anchor="middle" x="245" y="-387.5" font-family="Helvetica,sans-Serif" font-size="10.00">command.RemainderCommand</text>
</a>
</g>
</g>
<!-- Node1&#45;&gt;Node34 -->
<g id="edge33" class="edge"><title>Node1&#45;&gt;Node34</title>
<path fill="none" stroke="midnightblue" d="M63.81,-731.07C73.5305,-664.954 107.793,-454.475 156,-409 159.979,-405.246 164.515,-402.164 169.382,-399.639"/>
<polygon fill="midnightblue" stroke="midnightblue" points="60.2907,-730.954 62.3269,-741.351 67.2189,-731.953 60.2907,-730.954"/>
</g>
<!-- Node35 -->
<g id="node35" class="node"><title>Node35</title>
<g id="a_node35"><a xlink:href="../../da/ddd/classcommand_1_1_right_command.html" target="_top" xlink:title="command.RightCommand">
<polygon fill="white" stroke="black" points="173.5,-342.5 173.5,-361.5 316.5,-361.5 316.5,-342.5 173.5,-342.5"/>
<text text-anchor="middle" x="245" y="-349.5" font-family="Helvetica,sans-Serif" font-size="10.00">command.RightCommand</text>
</a>
</g>
</g>
<!-- Node1&#45;&gt;Node35 -->
<g id="edge34" class="edge"><title>Node1&#45;&gt;Node35</title>
<path fill="none" stroke="midnightblue" d="M63.2063,-731.192C71.4744,-660.545 102.894,-422.416 156,-371 161.053,-366.108 167.049,-362.348 173.5,-359.475"/>
<polygon fill="midnightblue" stroke="midnightblue" points="59.701,-731.039 62.041,-741.372 66.6556,-731.835 59.701,-731.039"/>
</g>
<!-- Node36 -->
<g id="node36" class="node"><title>Node36</title>
<g id="a_node36"><a xlink:href="../../d9/d6c/classcommand_1_1_set_heading_command.html" target="_top" xlink:title="command.SetHeadingCommand">
<polygon fill="white" stroke="black" points="157.5,-304.5 157.5,-323.5 332.5,-323.5 332.5,-304.5 157.5,-304.5"/>
<text text-anchor="middle" x="245" y="-311.5" font-family="Helvetica,sans-Serif" font-size="10.00">command.SetHeadingCommand</text>
</a>
</g>
</g>
<!-- Node1&#45;&gt;Node36 -->
<g id="edge35" class="edge"><title>Node1&#45;&gt;Node36</title>
<path fill="none" stroke="midnightblue" d="M62.7259,-731.173C69.6667,-656.063 98.0018,-390.373 156,-333 159.778,-329.263 164.105,-326.183 168.768,-323.652"/>
<polygon fill="midnightblue" stroke="midnightblue" points="59.2359,-730.906 61.825,-741.179 66.2077,-731.534 59.2359,-730.906"/>
</g>
<!-- Node37 -->
<g id="node37" class="node"><title>Node37</title>
<g id="a_node37"><a xlink:href="../../db/d39/classcommand_1_1_sin_command.html" target="_top" xlink:title="command.SinCommand">
<polygon fill="white" stroke="black" points="178,-266.5 178,-285.5 312,-285.5 312,-266.5 178,-266.5"/>
<text text-anchor="middle" x="245" y="-273.5" font-family="Helvetica,sans-Serif" font-size="10.00">command.SinCommand</text>
</a>
</g>
</g>
<!-- Node1&#45;&gt;Node37 -->
<g id="edge36" class="edge"><title>Node1&#45;&gt;Node37</title>
<path fill="none" stroke="midnightblue" d="M62.3017,-731.45C67.958,-652.508 93.0086,-358.45 156,-295 162.057,-288.899 169.572,-284.543 177.641,-281.463"/>
<polygon fill="midnightblue" stroke="midnightblue" points="58.8063,-731.265 61.6057,-741.483 65.7895,-731.75 58.8063,-731.265"/>
</g>
<!-- Node38 -->
<g id="node38" class="node"><title>Node38</title>
<g id="a_node38"><a xlink:href="../../dc/dfa/classcommand_1_1_sum_command.html" target="_top" xlink:title="command.SumCommand">
<polygon fill="white" stroke="black" points="174.5,-228.5 174.5,-247.5 315.5,-247.5 315.5,-228.5 174.5,-228.5"/>
<text text-anchor="middle" x="245" y="-235.5" font-family="Helvetica,sans-Serif" font-size="10.00">command.SumCommand</text>
</a>
</g>
</g>
<!-- Node1&#45;&gt;Node38 -->
<g id="edge37" class="edge"><title>Node1&#45;&gt;Node38</title>
<path fill="none" stroke="midnightblue" d="M61.9925,-730.905C66.547,-647.069 88.2154,-326.338 156,-257 161.135,-251.747 167.351,-247.783 174.078,-244.81"/>
<polygon fill="midnightblue" stroke="midnightblue" points="58.4859,-730.943 61.4604,-741.111 65.4764,-731.307 58.4859,-730.943"/>
</g>
<!-- Node39 -->
<g id="node39" class="node"><title>Node39</title>
<g id="a_node39"><a xlink:href="../../dc/d5f/classcommand_1_1_tan_command.html" target="_top" xlink:title="command.TanCommand">
<polygon fill="white" stroke="black" points="178,-190.5 178,-209.5 312,-209.5 312,-190.5 178,-190.5"/>
<text text-anchor="middle" x="245" y="-197.5" font-family="Helvetica,sans-Serif" font-size="10.00">command.TanCommand</text>
</a>
</g>
</g>
<!-- Node1&#45;&gt;Node39 -->
<g id="edge38" class="edge"><title>Node1&#45;&gt;Node39</title>
<path fill="none" stroke="midnightblue" d="M61.6865,-731.064C65.1126,-643.552 83.2173,-294.446 156,-219 162.077,-212.701 169.706,-208.248 177.918,-205.136"/>
<polygon fill="midnightblue" stroke="midnightblue" points="58.1829,-731.098 61.3101,-741.221 65.1781,-731.357 58.1829,-731.098"/>
</g>
<!-- Node40 -->
<g id="node40" class="node"><title>Node40</title>
<g id="a_node40"><a xlink:href="../../d6/d12/classcommand_1_1_towards_command.html" target="_top" xlink:title="command.TowardsCommand">
<polygon fill="white" stroke="black" points="167,-152.5 167,-171.5 323,-171.5 323,-152.5 167,-152.5"/>
<text text-anchor="middle" x="245" y="-159.5" font-family="Helvetica,sans-Serif" font-size="10.00">command.TowardsCommand</text>
</a>
</g>
</g>
<!-- Node1&#45;&gt;Node40 -->
<g id="edge39" class="edge"><title>Node1&#45;&gt;Node40</title>
<path fill="none" stroke="midnightblue" d="M61.419,-731.4C63.7661,-640.696 78.1518,-262.636 156,-181 159.56,-177.267 163.664,-174.181 168.113,-171.637"/>
<polygon fill="midnightblue" stroke="midnightblue" points="57.9197,-731.335 61.1799,-741.415 64.9177,-731.502 57.9197,-731.335"/>
</g>
<!-- Node41 -->
<g id="node41" class="node"><title>Node41</title>
<g id="a_node41"><a xlink:href="../../d3/d3d/classcommand_1_1_visible_command.html" target="_top" xlink:title="command.VisibleCommand">
<polygon fill="white" stroke="black" points="170.5,-114.5 170.5,-133.5 319.5,-133.5 319.5,-114.5 170.5,-114.5"/>
<text text-anchor="middle" x="245" y="-121.5" font-family="Helvetica,sans-Serif" font-size="10.00">command.VisibleCommand</text>
</a>
</g>
</g>
<!-- Node1&#45;&gt;Node41 -->
<g id="edge40" class="edge"><title>Node1&#45;&gt;Node41</title>
<path fill="none" stroke="midnightblue" d="M61.2014,-731.011C62.577,-635.954 73.2803,-230.631 156,-143 160.077,-138.681 164.883,-135.226 170.111,-132.472"/>
<polygon fill="midnightblue" stroke="midnightblue" points="57.6989,-731.197 61.0734,-741.24 64.6983,-731.285 57.6989,-731.197"/>
</g>
<!-- Node42 -->
<g id="node42" class="node"><title>Node42</title>
<g id="a_node42"><a xlink:href="../../d9/dc7/classcommand_1_1_visible_query_command.html" target="_top" xlink:title="command.VisibleQueryCommand">
<polygon fill="white" stroke="black" points="156,-76.5 156,-95.5 334,-95.5 334,-76.5 156,-76.5"/>
<text text-anchor="middle" x="245" y="-83.5" font-family="Helvetica,sans-Serif" font-size="10.00">command.VisibleQueryCommand</text>
</a>
</g>
</g>
<!-- Node1&#45;&gt;Node42 -->
<g id="edge41" class="edge"><title>Node1&#45;&gt;Node42</title>
<path fill="none" stroke="midnightblue" d="M60.9998,-731.017C61.4182,-632.42 68.2846,-198.764 156,-105 159.524,-101.233 163.601,-98.1221 168.031,-95.5599"/>
<polygon fill="midnightblue" stroke="midnightblue" points="57.4996,-731.103 60.9758,-741.111 64.4996,-731.12 57.4996,-731.103"/>
</g>
<!-- Node43 -->
<g id="node43" class="node"><title>Node43</title>
<g id="a_node43"><a xlink:href="../../d9/dc0/classcommand_1_1_xcor_command.html" target="_top" xlink:title="command.XcorCommand">
<polygon fill="white" stroke="black" points="175,-38.5 175,-57.5 315,-57.5 315,-38.5 175,-38.5"/>
<text text-anchor="middle" x="245" y="-45.5" font-family="Helvetica,sans-Serif" font-size="10.00">command.XcorCommand</text>
</a>
</g>
</g>
<!-- Node1&#45;&gt;Node43 -->
<g id="edge42" class="edge"><title>Node1&#45;&gt;Node43</title>
<path fill="none" stroke="midnightblue" d="M60.8192,-730.825C60.3266,-628.39 63.3387,-166.849 156,-67 161.21,-61.3863 167.649,-57.2254 174.656,-54.167"/>
<polygon fill="midnightblue" stroke="midnightblue" points="57.3205,-731.05 60.8868,-741.027 64.3204,-731.004 57.3205,-731.05"/>
</g>
<!-- Node44 -->
<g id="node44" class="node"><title>Node44</title>
<g id="a_node44"><a xlink:href="../../d7/d41/classcommand_1_1_ycor_command.html" target="_top" xlink:title="command.YcorCommand">
<polygon fill="white" stroke="black" points="175.5,-0.5 175.5,-19.5 314.5,-19.5 314.5,-0.5 175.5,-0.5"/>
<text text-anchor="middle" x="245" y="-7.5" font-family="Helvetica,sans-Serif" font-size="10.00">command.YcorCommand</text>
</a>
</g>
</g>
<!-- Node1&#45;&gt;Node44 -->
<g id="edge43" class="edge"><title>Node1&#45;&gt;Node44</title>
<path fill="none" stroke="midnightblue" d="M60.6638,-731.386C59.2856,-626.764 58.1527,-135.199 156,-29 161.401,-23.1377 168.143,-18.8571 175.477,-15.7606"/>
<polygon fill="midnightblue" stroke="midnightblue" points="57.1655,-731.533 60.8147,-741.48 64.1648,-731.429 57.1655,-731.533"/>
</g>
<!-- Node19 -->
<g id="node19" class="node"><title>Node19</title>
<g id="a_node19"><a xlink:href="../../da/dfa/classcommand_1_1_do_times_command.html" target="_top" xlink:title="command.DoTimesCommand">
<polygon fill="white" stroke="black" points="370.5,-912.5 370.5,-931.5 531.5,-931.5 531.5,-912.5 370.5,-912.5"/>
<text text-anchor="middle" x="451" y="-919.5" font-family="Helvetica,sans-Serif" font-size="10.00">command.DoTimesCommand</text>
</a>
</g>
</g>
<!-- Node18&#45;&gt;Node19 -->
<g id="edge18" class="edge"><title>Node18&#45;&gt;Node19</title>
<path fill="none" stroke="midnightblue" d="M307.297,-895.418C336.486,-900.855 370.994,-907.283 398.764,-912.456"/>
<polygon fill="midnightblue" stroke="midnightblue" points="307.686,-891.93 297.214,-893.54 306.404,-898.812 307.686,-891.93"/>
</g>
<!-- Node20 -->
<g id="node20" class="node"><title>Node20</title>
<g id="a_node20"><a xlink:href="../../dc/d6b/classcommand_1_1_for_command.html" target="_top" xlink:title="command.ForCommand">
<polygon fill="white" stroke="black" points="384,-874.5 384,-893.5 518,-893.5 518,-874.5 384,-874.5"/>
<text text-anchor="middle" x="451" y="-881.5" font-family="Helvetica,sans-Serif" font-size="10.00">command.ForCommand</text>
</a>
</g>
</g>
<!-- Node18&#45;&gt;Node20 -->
<g id="edge19" class="edge"><title>Node18&#45;&gt;Node20</title>
<path fill="none" stroke="midnightblue" d="M326.348,-884C345.38,-884 365.467,-884 383.789,-884"/>
<polygon fill="midnightblue" stroke="midnightblue" points="326.205,-880.5 316.205,-884 326.205,-887.5 326.205,-880.5"/>
</g>
<!-- Node21 -->
<g id="node21" class="node"><title>Node21</title>
<g id="a_node21"><a xlink:href="../../d4/d11/classcommand_1_1_repeat_command.html" target="_top" xlink:title="command.RepeatCommand">
<polygon fill="white" stroke="black" points="375,-836.5 375,-855.5 527,-855.5 527,-836.5 375,-836.5"/>
<text text-anchor="middle" x="451" y="-843.5" font-family="Helvetica,sans-Serif" font-size="10.00">command.RepeatCommand</text>
</a>
</g>
</g>
<!-- Node18&#45;&gt;Node21 -->
<g id="edge20" class="edge"><title>Node18&#45;&gt;Node21</title>
<path fill="none" stroke="midnightblue" d="M307.297,-872.582C336.486,-867.145 370.994,-860.717 398.764,-855.544"/>
<polygon fill="midnightblue" stroke="midnightblue" points="306.404,-869.188 297.214,-874.46 307.686,-876.07 306.404,-869.188"/>
</g>
</g>
</svg>
        <g id="navigator" transform="translate(0 0)" fill="#404254">
                <rect fill="#f2f5e9" fill-opacity="0.5" stroke="#606060" stroke-width=".5" x="0" y="0" width="60" height="60"/>
                <use id="zoomplus" xlink:href="#zoomPlus" x="17" y="9" onmousedown="handleZoom(evt,'in')"/>
                <use id="zoomminus" xlink:href="#zoomMin" x="42" y="9" onmousedown="handleZoom(evt,'out')"/>
                <use id="reset" xlink:href="#resetDef" x="30" y="36" onmousedown="handleReset()"/>
                <g id="arrowUp" xlink:href="#dirArrow" transform="translate(30 24)" onmousedown="handlePan(0,-1)">
                  <use xlink:href="#rim" fill="#404040">
                        <set attributeName="fill" to="#808080" begin="arrowUp.mouseover" end="arrowUp.mouseout"/>
                  </use>
                  <path fill="none" stroke="white" stroke-width="1.5" d="M0,-3.0v7 M-2.5,-0.5L0,-3.0L2.5,-0.5"/>
                </g>
                <g id="arrowRight" xlink:href="#dirArrow" transform="rotate(90) translate(36 -43)" onmousedown="handlePan(1,0)">
                  <use xlink:href="#rim" fill="#404040">
                        <set attributeName="fill" to="#808080" begin="arrowRight.mouseover" end="arrowRight.mouseout"/>
                  </use>
                  <path fill="none" stroke="white" stroke-width="1.5" d="M0,-3.0v7 M-2.5,-0.5L0,-3.0L2.5,-0.5"/>
                </g>
                <g id="arrowDown" xlink:href="#dirArrow" transform="rotate(180) translate(-30 -48)" onmousedown="handlePan(0,1)">
                  <use xlink:href="#rim" fill="#404040">
                        <set attributeName="fill" to="#808080" begin="arrowDown.mouseover" end="arrowDown.mouseout"/>
                  </use>
                  <path fill="none" stroke="white" stroke-width="1.5" d="M0,-3.0v7 M-2.5,-0.5L0,-3.0L2.5,-0.5"/>
                </g>
                <g id="arrowLeft" xlink:href="#dirArrow" transform="rotate(270) translate(-36 17)" onmousedown="handlePan(-1,0)">
                  <use xlink:href="#rim" fill="#404040">
                        <set attributeName="fill" to="#808080" begin="arrowLeft.mouseover" end="arrowLeft.mouseout"/>
                  </use>
                  <path fill="none" stroke="white" stroke-width="1.5" d="M0,-3.0v7 M-2.5,-0.5L0,-3.0L2.5,-0.5"/>
                </g>
        </g>
        <svg viewBox="0 0 15 15" width="100%" height="30px" preserveAspectRatio="xMaxYMin meet">
         <g id="arrow_out" transform="scale(0.3 0.3)">
          <a xlink:href="classcommand_1_1_command__inherit__graph_org.svg" target="_base">
           <rect id="button" ry="5" rx="5" y="6" x="6" height="38" width="38"
                fill="#f2f5e9" fill-opacity="0.5" stroke="#606060" stroke-width="1.0"/>
           <path id="arrow"
             d="M 11.500037,31.436501 C 11.940474,20.09759 22.043105,11.32322 32.158766,21.979434 L 37.068811,17.246167 C 37.068811,17.246167 37.088388,32 37.088388,32 L 22.160133,31.978069 C 22.160133,31.978069 26.997745,27.140456 26.997745,27.140456 C 18.528582,18.264221 13.291696,25.230495 11.500037,31.436501 z"
             style="fill:#404040;"/>
          </a>
         </g>
        </svg>
</svg>
