<?xml version="1.0" encoding="UTF-8" standalone="no"?>
<!DOCTYPE svg PUBLIC "-//W3C//DTD SVG 1.1//EN"
 "http://www.w3.org/Graphics/SVG/1.1/DTD/svg11.dtd">
<!-- Generated by graphviz version 2.36.0 (20140111.2315)
 -->
<!-- Title: command.Command Pages: 1 -->
<!--zoomable 1586 -->
<svg id="main" version="1.1" xmlns="http://www.w3.org/2000/svg" xmlns:xlink="http://www.w3.org/1999/xlink" xml:space="preserve" onload="init(evt)">
<style type="text/css"><![CDATA[
.edge:hover path { stroke: red; }
.edge:hover polygon { stroke: red; fill: red; }
]]></style>
<script type="text/javascript"><![CDATA[
var edges = document.getElementsByTagName('g');
if (edges && edges.length) {
  for (var i=0;i<edges.length;i++) {
    if (edges[i].id.substr(0,4)=='edge') {
      edges[i].setAttribute('class','edge');
    }
  }
}
]]></script>
        <defs>
                <circle id="rim" cx="0" cy="0" r="7"/>
                <circle id="rim2" cx="0" cy="0" r="3.5"/>
                <g id="zoomPlus">
                        <use xlink:href="#rim" fill="#404040">
                                <set attributeName="fill" to="#808080" begin="zoomplus.mouseover" end="zoomplus.mouseout"/>
                        </use>
                        <path d="M-4,0h8M0,-4v8" fill="none" stroke="white" stroke-width="1.5" pointer-events="none"/>
                </g>
                <g id="zoomMin">
                        <use xlink:href="#rim" fill="#404040">
                                <set attributeName="fill" to="#808080" begin="zoomminus.mouseover" end="zoomminus.mouseout"/>
                        </use>
                        <path d="M-4,0h8" fill="none" stroke="white" stroke-width="1.5" pointer-events="none"/>
                </g>
                <g id="dirArrow">
                        <path fill="none" stroke="white" stroke-width="1.5" d="M0,-3.0v7 M-2.5,-0.5L0,-3.0L2.5,-0.5"/>
                </g>
               <g id="resetDef">
                       <use xlink:href="#rim2" fill="#404040">
                               <set attributeName="fill" to="#808080" begin="reset.mouseover" end="reset.mouseout"/>
                       </use>
               </g>
        </defs>

<script type="text/javascript">
var viewWidth = 562;
var viewHeight = 1586;
var sectionId = 'dynsection-0';
</script>
<script xlink:href="../../svgpan.js"/>
<svg id="graph" class="graph">
<g id="viewport">
<title>command.Command</title>
<polygon fill="white" stroke="none" points="-4,4 -4,-1582 558,-1582 558,4 -4,4"/>
<!-- Node1 -->
<g id="node1" class="node"><title>Node1</title>
<polygon fill="#bfbfbf" stroke="black" points="0.5,-779.5 0.5,-798.5 119.5,-798.5 119.5,-779.5 0.5,-779.5"/>
<text text-anchor="middle" x="60" y="-786.5" font-family="Helvetica,sans-Serif" font-size="10.00">command.Command</text>
</g>
<!-- Node2 -->
<g id="node2" class="node"><title>Node2</title>
<g id="a_node2"><a xlink:href="../../d9/dd9/classcommand_1_1_and_command.html" target="_top" xlink:title="command.AndCommand">
<polygon fill="white" stroke="black" points="177.5,-1558.5 177.5,-1577.5 314.5,-1577.5 314.5,-1558.5 177.5,-1558.5"/>
<text text-anchor="middle" x="246" y="-1565.5" font-family="Helvetica,sans-Serif" font-size="10.00">command.AndCommand</text>
</a>
</g>
</g>
<!-- Node1&#45;&gt;Node2 -->
<g id="edge1" class="edge"><title>Node1&#45;&gt;Node2</title>
<path fill="none" stroke="midnightblue" d="M62.1118,-808.677C68.7125,-922.413 104.233,-1492.58 156,-1549 161.875,-1555.4 169.333,-1559.93 177.424,-1563.1"/>
<polygon fill="midnightblue" stroke="midnightblue" points="65.6015,-808.396 61.5345,-798.613 58.613,-808.797 65.6015,-808.396"/>
</g>
<!-- Node3 -->
<g id="node3" class="node"><title>Node3</title>
<g id="a_node3"><a xlink:href="../../d7/d31/classcommand_1_1_arc_tangent_command.html" target="_top" xlink:title="command.ArcTangentCommand">
<polygon fill="white" stroke="black" points="160,-1520.5 160,-1539.5 332,-1539.5 332,-1520.5 160,-1520.5"/>
<text text-anchor="middle" x="246" y="-1527.5" font-family="Helvetica,sans-Serif" font-size="10.00">command.ArcTangentCommand</text>
</a>
</g>
</g>
<!-- Node1&#45;&gt;Node3 -->
<g id="edge2" class="edge"><title>Node1&#45;&gt;Node3</title>
<path fill="none" stroke="midnightblue" d="M60.6595,-808.618C59.2591,-913.261 58.0297,-1404.91 156,-1511 159.43,-1514.71 163.393,-1517.8 167.703,-1520.35"/>
<polygon fill="midnightblue" stroke="midnightblue" points="64.1605,-808.574 60.8125,-798.522 57.1613,-808.468 64.1605,-808.574"/>
</g>
<!-- Node4 -->
<g id="node4" class="node"><title>Node4</title>
<g id="a_node4"><a xlink:href="../../d2/d63/classcommand_1_1_backward_command.html" target="_top" xlink:title="command.BackwardCommand">
<polygon fill="white" stroke="black" points="164,-1482.5 164,-1501.5 328,-1501.5 328,-1482.5 164,-1482.5"/>
<text text-anchor="middle" x="246" y="-1489.5" font-family="Helvetica,sans-Serif" font-size="10.00">command.BackwardCommand</text>
</a>
</g>
</g>
<!-- Node1&#45;&gt;Node4 -->
<g id="edge3" class="edge"><title>Node1&#45;&gt;Node4</title>
<path fill="none" stroke="midnightblue" d="M60.8148,-809.179C60.3006,-911.634 63.223,-1373.26 156,-1473 159.443,-1476.7 163.417,-1479.78 167.733,-1482.32"/>
<polygon fill="midnightblue" stroke="midnightblue" points="64.316,-808.999 60.8846,-798.975 57.3162,-808.951 64.316,-808.999"/>
</g>
<!-- Node5 -->
<g id="node5" class="node"><title>Node5</title>
<g id="a_node5"><a xlink:href="../../db/dc6/classcommand_1_1_cosine_command.html" target="_top" xlink:title="command.CosineCommand">
<polygon fill="white" stroke="black" points="170.5,-1444.5 170.5,-1463.5 321.5,-1463.5 321.5,-1444.5 170.5,-1444.5"/>
<text text-anchor="middle" x="246" y="-1451.5" font-family="Helvetica,sans-Serif" font-size="10.00">command.CosineCommand</text>
</a>
</g>
</g>
<!-- Node1&#45;&gt;Node5 -->
<g id="edge4" class="edge"><title>Node1&#45;&gt;Node5</title>
<path fill="none" stroke="midnightblue" d="M60.9954,-808.987C61.3932,-907.604 68.1759,-1341.34 156,-1435 160.107,-1439.38 164.955,-1442.88 170.235,-1445.66"/>
<polygon fill="midnightblue" stroke="midnightblue" points="64.4953,-808.883 60.9736,-798.891 57.4953,-808.898 64.4953,-808.883"/>
</g>
<!-- Node6 -->
<g id="node6" class="node"><title>Node6</title>
<g id="a_node6"><a xlink:href="../../dc/d8b/classcommand_1_1_difference_command.html" target="_top" xlink:title="command.DifferenceCommand">
<polygon fill="white" stroke="black" points="162.5,-1406.5 162.5,-1425.5 329.5,-1425.5 329.5,-1406.5 162.5,-1406.5"/>
<text text-anchor="middle" x="246" y="-1413.5" font-family="Helvetica,sans-Serif" font-size="10.00">command.DifferenceCommand</text>
</a>
</g>
</g>
<!-- Node1&#45;&gt;Node6 -->
<g id="edge5" class="edge"><title>Node1&#45;&gt;Node6</title>
<path fill="none" stroke="midnightblue" d="M61.1971,-808.993C62.5529,-904.069 73.1787,-1309.46 156,-1397 159.583,-1400.79 163.722,-1403.91 168.213,-1406.49"/>
<polygon fill="midnightblue" stroke="midnightblue" points="64.694,-808.718 61.0712,-798.762 57.6946,-808.804 64.694,-808.718"/>
</g>
<!-- Node7 -->
<g id="node7" class="node"><title>Node7</title>
<g id="a_node7"><a xlink:href="../../da/d52/classcommand_1_1_equal_command.html" target="_top" xlink:title="command.EqualCommand">
<polygon fill="white" stroke="black" points="173.5,-1368.5 173.5,-1387.5 318.5,-1387.5 318.5,-1368.5 173.5,-1368.5"/>
<text text-anchor="middle" x="246" y="-1375.5" font-family="Helvetica,sans-Serif" font-size="10.00">command.EqualCommand</text>
</a>
</g>
</g>
<!-- Node1&#45;&gt;Node7 -->
<g id="edge6" class="edge"><title>Node1&#45;&gt;Node7</title>
<path fill="none" stroke="midnightblue" d="M61.4148,-808.604C63.7431,-899.326 78.0572,-1277.45 156,-1359 160.913,-1364.14 166.848,-1368.06 173.295,-1371.03"/>
<polygon fill="midnightblue" stroke="midnightblue" points="64.9135,-808.501 61.1778,-798.587 57.9154,-808.667 64.9135,-808.501"/>
</g>
<!-- Node8 -->
<g id="node8" class="node"><title>Node8</title>
<g id="a_node8"><a xlink:href="../../df/d28/classcommand_1_1_forward_command.html" target="_top" xlink:title="command.ForwardCommand">
<polygon fill="white" stroke="black" points="168,-1330.5 168,-1349.5 324,-1349.5 324,-1330.5 168,-1330.5"/>
<text text-anchor="middle" x="246" y="-1337.5" font-family="Helvetica,sans-Serif" font-size="10.00">command.ForwardCommand</text>
</a>
</g>
</g>
<!-- Node1&#45;&gt;Node8 -->
<g id="edge7" class="edge"><title>Node1&#45;&gt;Node8</title>
<path fill="none" stroke="midnightblue" d="M61.6822,-808.94C65.0904,-896.47 83.1299,-1245.64 156,-1321 159.624,-1324.75 163.793,-1327.85 168.306,-1330.4"/>
<polygon fill="midnightblue" stroke="midnightblue" points="65.1739,-808.646 61.308,-798.781 58.1786,-808.904 65.1739,-808.646"/>
</g>
<!-- Node9 -->
<g id="node9" class="node"><title>Node9</title>
<g id="a_node9"><a xlink:href="../../d1/dad/classcommand_1_1_greater_than_command.html" target="_top" xlink:title="command.GreaterThanCommand">
<polygon fill="white" stroke="black" points="156.5,-1292.5 156.5,-1311.5 335.5,-1311.5 335.5,-1292.5 156.5,-1292.5"/>
<text text-anchor="middle" x="246" y="-1299.5" font-family="Helvetica,sans-Serif" font-size="10.00">command.GreaterThanCommand</text>
</a>
</g>
</g>
<!-- Node1&#45;&gt;Node9 -->
<g id="edge8" class="edge"><title>Node1&#45;&gt;Node9</title>
<path fill="none" stroke="midnightblue" d="M61.9883,-809.099C66.5257,-892.952 88.1351,-1213.74 156,-1283 159.649,-1286.72 163.836,-1289.8 168.362,-1292.34"/>
<polygon fill="midnightblue" stroke="midnightblue" points="65.4721,-808.696 61.4583,-798.891 58.4816,-809.059 65.4721,-808.696"/>
</g>
<!-- Node10 -->
<g id="node10" class="node"><title>Node10</title>
<g id="a_node10"><a xlink:href="../../d9/da8/classcommand_1_1_heading_command.html" target="_top" xlink:title="command.HeadingCommand">
<polygon fill="white" stroke="black" points="167,-1254.5 167,-1273.5 325,-1273.5 325,-1254.5 167,-1254.5"/>
<text text-anchor="middle" x="246" y="-1261.5" font-family="Helvetica,sans-Serif" font-size="10.00">command.HeadingCommand</text>
</a>
</g>
</g>
<!-- Node1&#45;&gt;Node10 -->
<g id="edge9" class="edge"><title>Node1&#45;&gt;Node10</title>
<path fill="none" stroke="midnightblue" d="M62.2977,-808.554C67.938,-887.512 92.9351,-1181.62 156,-1245 159.678,-1248.7 163.886,-1251.75 168.427,-1254.28"/>
<polygon fill="midnightblue" stroke="midnightblue" points="65.7853,-808.253 61.6037,-798.519 58.802,-808.736 65.7853,-808.253"/>
</g>
<!-- Node11 -->
<g id="node11" class="node"><title>Node11</title>
<g id="a_node11"><a xlink:href="../../da/d3a/classcommand_1_1_hide_turtle_command.html" target="_top" xlink:title="command.HideTurtleCommand">
<polygon fill="white" stroke="black" points="163,-1216.5 163,-1235.5 329,-1235.5 329,-1216.5 163,-1216.5"/>
<text text-anchor="middle" x="246" y="-1223.5" font-family="Helvetica,sans-Serif" font-size="10.00">command.HideTurtleCommand</text>
</a>
</g>
</g>
<!-- Node1&#45;&gt;Node11 -->
<g id="edge10" class="edge"><title>Node1&#45;&gt;Node11</title>
<path fill="none" stroke="midnightblue" d="M62.7218,-808.831C69.6476,-883.956 97.9353,-1149.69 156,-1207 159.823,-1210.77 164.201,-1213.88 168.918,-1216.43"/>
<polygon fill="midnightblue" stroke="midnightblue" points="66.2035,-808.469 61.8229,-798.823 59.2315,-809.096 66.2035,-808.469"/>
</g>
<!-- Node12 -->
<g id="node12" class="node"><title>Node12</title>
<g id="a_node12"><a xlink:href="../../d2/dda/classcommand_1_1_home_command.html" target="_top" xlink:title="command.HomeCommand">
<polygon fill="white" stroke="black" points="172,-1178.5 172,-1197.5 320,-1197.5 320,-1178.5 172,-1178.5"/>
<text text-anchor="middle" x="246" y="-1185.5" font-family="Helvetica,sans-Serif" font-size="10.00">command.HomeCommand</text>
</a>
</g>
</g>
<!-- Node1&#45;&gt;Node12 -->
<g id="edge11" class="edge"><title>Node1&#45;&gt;Node12</title>
<path fill="none" stroke="midnightblue" d="M63.2022,-808.812C71.4564,-879.473 102.834,-1117.65 156,-1169 160.659,-1173.5 166.109,-1177.05 171.976,-1179.83"/>
<polygon fill="midnightblue" stroke="midnightblue" points="66.6515,-808.168 62.0389,-798.63 59.6967,-808.963 66.6515,-808.168"/>
</g>
<!-- Node13 -->
<g id="node13" class="node"><title>Node13</title>
<g id="a_node13"><a xlink:href="../../d1/dea/classcommand_1_1_i_d_command.html" target="_top" xlink:title="command.IDCommand">
<polygon fill="white" stroke="black" points="182,-1140.5 182,-1159.5 310,-1159.5 310,-1140.5 182,-1140.5"/>
<text text-anchor="middle" x="246" y="-1147.5" font-family="Helvetica,sans-Serif" font-size="10.00">command.IDCommand</text>
</a>
</g>
</g>
<!-- Node1&#45;&gt;Node13 -->
<g id="edge12" class="edge"><title>Node1&#45;&gt;Node13</title>
<path fill="none" stroke="midnightblue" d="M63.806,-808.934C73.5136,-875.064 107.74,-1085.58 156,-1131 163.248,-1137.82 172.319,-1142.44 181.877,-1145.52"/>
<polygon fill="midnightblue" stroke="midnightblue" points="67.2148,-808.05 62.3249,-798.651 60.2863,-809.048 67.2148,-808.05"/>
</g>
<!-- Node14 -->
<g id="node14" class="node"><title>Node14</title>
<g id="a_node14"><a xlink:href="../../d9/d7d/classcommand_1_1_i_e_command.html" target="_top" xlink:title="command.IECommand">
<polygon fill="white" stroke="black" points="182.5,-1102.5 182.5,-1121.5 309.5,-1121.5 309.5,-1102.5 182.5,-1102.5"/>
<text text-anchor="middle" x="246" y="-1109.5" font-family="Helvetica,sans-Serif" font-size="10.00">command.IECommand</text>
</a>
</g>
</g>
<!-- Node1&#45;&gt;Node14 -->
<g id="edge13" class="edge"><title>Node1&#45;&gt;Node14</title>
<path fill="none" stroke="midnightblue" d="M60.8004,-808.733C61.3918,-862.978 70.9198,-1015.45 156,-1093 163.356,-1099.71 172.482,-1104.26 182.061,-1107.32"/>
<polygon fill="midnightblue" stroke="midnightblue" points="64.3005,-808.706 60.7858,-798.711 57.3005,-808.717 64.3005,-808.706"/>
</g>
<!-- Node17 -->
<g id="node17" class="node"><title>Node17</title>
<g id="a_node17"><a xlink:href="../../de/dc3/classcommand_1_1_is_pen_down_command.html" target="_top" xlink:title="command.IsPenDownCommand">
<polygon fill="white" stroke="black" points="161,-1064.5 161,-1083.5 331,-1083.5 331,-1064.5 161,-1064.5"/>
<text text-anchor="middle" x="246" y="-1071.5" font-family="Helvetica,sans-Serif" font-size="10.00">command.IsPenDownCommand</text>
</a>
</g>
</g>
<!-- Node1&#45;&gt;Node17 -->
<g id="edge16" class="edge"><title>Node1&#45;&gt;Node17</title>
<path fill="none" stroke="midnightblue" d="M61.8015,-808.56C64.9392,-858.008 80.3497,-988.777 156,-1055 160.28,-1058.75 165.116,-1061.81 170.267,-1064.32"/>
<polygon fill="midnightblue" stroke="midnightblue" points="65.2956,-808.354 61.2691,-798.554 58.3055,-808.726 65.2956,-808.354"/>
</g>
<!-- Node18 -->
<g id="node18" class="node"><title>Node18</title>
<g id="a_node18"><a xlink:href="../../d4/dad/classcommand_1_1_is_showing_command.html" target="_top" xlink:title="command.IsShowingCommand">
<polygon fill="white" stroke="black" points="163,-1026.5 163,-1045.5 329,-1045.5 329,-1026.5 163,-1026.5"/>
<text text-anchor="middle" x="246" y="-1033.5" font-family="Helvetica,sans-Serif" font-size="10.00">command.IsShowingCommand</text>
</a>
</g>
</g>
<!-- Node1&#45;&gt;Node18 -->
<g id="edge17" class="edge"><title>Node1&#45;&gt;Node18</title>
<path fill="none" stroke="midnightblue" d="M63.1299,-808.727C69.0409,-853.276 89.849,-962.05 156,-1017 160.618,-1020.84 165.827,-1023.95 171.348,-1026.48"/>
<polygon fill="midnightblue" stroke="midnightblue" points="66.5841,-808.137 61.9049,-798.631 59.6351,-808.98 66.5841,-808.137"/>
</g>
<!-- Node19 -->
<g id="node19" class="node"><title>Node19</title>
<g id="a_node19"><a xlink:href="../../d7/d34/classcommand_1_1_left_command.html" target="_top" xlink:title="command.LeftCommand">
<polygon fill="white" stroke="black" points="177.5,-988.5 177.5,-1007.5 314.5,-1007.5 314.5,-988.5 177.5,-988.5"/>
<text text-anchor="middle" x="246" y="-995.5" font-family="Helvetica,sans-Serif" font-size="10.00">command.LeftCommand</text>
</a>
</g>
</g>
<!-- Node1&#45;&gt;Node19 -->
<g id="edge18" class="edge"><title>Node1&#45;&gt;Node19</title>
<path fill="none" stroke="midnightblue" d="M64.8986,-808.609C73.7286,-847.609 99.0761,-934.936 156,-979 162.372,-983.932 169.737,-987.653 177.447,-990.45"/>
<polygon fill="midnightblue" stroke="midnightblue" points="68.3069,-807.81 62.7927,-798.763 61.4617,-809.274 68.3069,-807.81"/>
</g>
<!-- Node20 -->
<g id="node20" class="node"><title>Node20</title>
<g id="a_node20"><a xlink:href="../../d2/d46/classcommand_1_1_less_than_command.html" target="_top" xlink:title="command.LessThanCommand">
<polygon fill="white" stroke="black" points="164,-950.5 164,-969.5 328,-969.5 328,-950.5 164,-950.5"/>
<text text-anchor="middle" x="246" y="-957.5" font-family="Helvetica,sans-Serif" font-size="10.00">command.LessThanCommand</text>
</a>
</g>
</g>
<!-- Node1&#45;&gt;Node20 -->
<g id="edge19" class="edge"><title>Node1&#45;&gt;Node20</title>
<path fill="none" stroke="midnightblue" d="M67.4497,-808.488C79.383,-841.348 108.148,-907.465 156,-941 161.434,-944.808 167.481,-947.878 173.793,-950.35"/>
<polygon fill="midnightblue" stroke="midnightblue" points="70.6399,-807.006 64.0448,-798.715 64.0295,-809.309 70.6399,-807.006"/>
</g>
<!-- Node21 -->
<g id="node21" class="node"><title>Node21</title>
<g id="a_node21"><a xlink:href="../../d3/d0c/classcommand_1_1_loop_command.html" target="_top" xlink:title="command.LoopCommand">
<polygon fill="white" stroke="black" points="175,-912.5 175,-931.5 317,-931.5 317,-912.5 175,-912.5"/>
<text text-anchor="middle" x="246" y="-919.5" font-family="Helvetica,sans-Serif" font-size="10.00">command.LoopCommand</text>
</a>
</g>
</g>
<!-- Node1&#45;&gt;Node21 -->
<g id="edge20" class="edge"><title>Node1&#45;&gt;Node21</title>
<path fill="none" stroke="midnightblue" d="M71.0921,-807.599C86.0696,-833.323 116.692,-879.267 156,-903 162.357,-906.838 169.38,-909.907 176.609,-912.361"/>
<polygon fill="midnightblue" stroke="midnightblue" points="74.098,-805.804 66.1323,-798.819 68.0032,-809.247 74.098,-805.804"/>
</g>
<!-- Node28 -->
<g id="node28" class="node"><title>Node28</title>
<g id="a_node28"><a xlink:href="../../d2/d0b/classcommand_1_1_minus_command.html" target="_top" xlink:title="command.MinusCommand">
<polygon fill="white" stroke="black" points="173,-874.5 173,-893.5 319,-893.5 319,-874.5 173,-874.5"/>
<text text-anchor="middle" x="246" y="-881.5" font-family="Helvetica,sans-Serif" font-size="10.00">command.MinusCommand</text>
</a>
</g>
</g>
<!-- Node1&#45;&gt;Node28 -->
<g id="edge27" class="edge"><title>Node1&#45;&gt;Node28</title>
<path fill="none" stroke="midnightblue" d="M77.1753,-805.955C94.8701,-823.467 124.883,-850.254 156,-865 164.138,-868.857 173.065,-871.938 182.025,-874.397"/>
<polygon fill="midnightblue" stroke="midnightblue" points="79.4686,-803.296 69.9524,-798.639 74.4871,-808.214 79.4686,-803.296"/>
</g>
<!-- Node29 -->
<g id="node29" class="node"><title>Node29</title>
<g id="a_node29"><a xlink:href="../../d0/dfc/classcommand_1_1_multi_turtle_command.html" target="_top" xlink:title="command.MultiTurtleCommand">
<polygon fill="white" stroke="black" points="162.5,-836.5 162.5,-855.5 329.5,-855.5 329.5,-836.5 162.5,-836.5"/>
<text text-anchor="middle" x="246" y="-843.5" font-family="Helvetica,sans-Serif" font-size="10.00">command.MultiTurtleCommand</text>
</a>
</g>
</g>
<!-- Node1&#45;&gt;Node29 -->
<g id="edge28" class="edge"><title>Node1&#45;&gt;Node29</title>
<path fill="none" stroke="midnightblue" d="M91.4626,-802.725C109.87,-810.629 133.96,-820.293 156,-827 167.79,-830.588 180.657,-833.753 192.852,-836.421"/>
<polygon fill="midnightblue" stroke="midnightblue" points="92.6996,-799.446 82.1338,-798.662 89.9041,-805.864 92.6996,-799.446"/>
</g>
<!-- Node31 -->
<g id="node31" class="node"><title>Node31</title>
<g id="a_node31"><a xlink:href="../../d2/d20/classcommand_1_1_natural_log_command.html" target="_top" xlink:title="command.NaturalLogCommand">
<polygon fill="white" stroke="black" points="160.5,-798.5 160.5,-817.5 331.5,-817.5 331.5,-798.5 160.5,-798.5"/>
<text text-anchor="middle" x="246" y="-805.5" font-family="Helvetica,sans-Serif" font-size="10.00">command.NaturalLogCommand</text>
</a>
</g>
</g>
<!-- Node1&#45;&gt;Node31 -->
<g id="edge30" class="edge"><title>Node1&#45;&gt;Node31</title>
<path fill="none" stroke="midnightblue" d="M129.911,-796.116C139.84,-797.141 150.152,-798.206 160.343,-799.258"/>
<polygon fill="midnightblue" stroke="midnightblue" points="130.031,-792.61 119.725,-795.064 129.312,-799.573 130.031,-792.61"/>
</g>
<!-- Node32 -->
<g id="node32" class="node"><title>Node32</title>
<g id="a_node32"><a xlink:href="../../dd/df6/classcommand_1_1_not_command.html" target="_top" xlink:title="command.NotCommand">
<polygon fill="white" stroke="black" points="178,-760.5 178,-779.5 314,-779.5 314,-760.5 178,-760.5"/>
<text text-anchor="middle" x="246" y="-767.5" font-family="Helvetica,sans-Serif" font-size="10.00">command.NotCommand</text>
</a>
</g>
</g>
<!-- Node1&#45;&gt;Node32 -->
<g id="edge31" class="edge"><title>Node1&#45;&gt;Node32</title>
<path fill="none" stroke="midnightblue" d="M129.883,-781.887C145.584,-780.266 162.246,-778.545 177.872,-776.932"/>
<polygon fill="midnightblue" stroke="midnightblue" points="129.312,-778.427 119.725,-782.936 130.031,-785.39 129.312,-778.427"/>
</g>
<!-- Node33 -->
<g id="node33" class="node"><title>Node33</title>
<g id="a_node33"><a xlink:href="../../d2/ded/classcommand_1_1_not_equal_command.html" target="_top" xlink:title="command.NotEqualCommand">
<polygon fill="white" stroke="black" points="165,-722.5 165,-741.5 327,-741.5 327,-722.5 165,-722.5"/>
<text text-anchor="middle" x="246" y="-729.5" font-family="Helvetica,sans-Serif" font-size="10.00">command.NotEqualCommand</text>
</a>
</g>
</g>
<!-- Node1&#45;&gt;Node33 -->
<g id="edge32" class="edge"><title>Node1&#45;&gt;Node33</title>
<path fill="none" stroke="midnightblue" d="M91.4626,-775.275C109.87,-767.371 133.96,-757.707 156,-751 167.79,-747.412 180.657,-744.247 192.852,-741.579"/>
<polygon fill="midnightblue" stroke="midnightblue" points="89.9041,-772.136 82.1338,-779.338 92.6996,-778.554 89.9041,-772.136"/>
</g>
<!-- Node34 -->
<g id="node34" class="node"><title>Node34</title>
<g id="a_node34"><a xlink:href="../../d0/d08/classcommand_1_1_or_command.html" target="_top" xlink:title="command.OrCommand">
<polygon fill="white" stroke="black" points="181,-684.5 181,-703.5 311,-703.5 311,-684.5 181,-684.5"/>
<text text-anchor="middle" x="246" y="-691.5" font-family="Helvetica,sans-Serif" font-size="10.00">command.OrCommand</text>
</a>
</g>
</g>
<!-- Node1&#45;&gt;Node34 -->
<g id="edge33" class="edge"><title>Node1&#45;&gt;Node34</title>
<path fill="none" stroke="midnightblue" d="M77.1753,-772.045C94.8701,-754.533 124.883,-727.746 156,-713 164.138,-709.143 173.065,-706.062 182.025,-703.603"/>
<polygon fill="midnightblue" stroke="midnightblue" points="74.4871,-769.786 69.9524,-779.361 79.4686,-774.704 74.4871,-769.786"/>
</g>
<!-- Node35 -->
<g id="node35" class="node"><title>Node35</title>
<g id="a_node35"><a xlink:href="../../dd/d99/classcommand_1_1_pen_down_command.html" target="_top" xlink:title="command.PenDownCommand">
<polygon fill="white" stroke="black" points="164.5,-646.5 164.5,-665.5 327.5,-665.5 327.5,-646.5 164.5,-646.5"/>
<text text-anchor="middle" x="246" y="-653.5" font-family="Helvetica,sans-Serif" font-size="10.00">command.PenDownCommand</text>
</a>
</g>
</g>
<!-- Node1&#45;&gt;Node35 -->
<g id="edge34" class="edge"><title>Node1&#45;&gt;Node35</title>
<path fill="none" stroke="midnightblue" d="M71.0921,-770.401C86.0696,-744.677 116.692,-698.733 156,-675 162.357,-671.162 169.38,-668.093 176.609,-665.639"/>
<polygon fill="midnightblue" stroke="midnightblue" points="68.0032,-768.753 66.1323,-779.181 74.098,-772.196 68.0032,-768.753"/>
</g>
<!-- Node36 -->
<g id="node36" class="node"><title>Node36</title>
<g id="a_node36"><a xlink:href="../../d7/dfe/classcommand_1_1_pen_up_command.html" target="_top" xlink:title="command.PenUpCommand">
<polygon fill="white" stroke="black" points="171,-608.5 171,-627.5 321,-627.5 321,-608.5 171,-608.5"/>
<text text-anchor="middle" x="246" y="-615.5" font-family="Helvetica,sans-Serif" font-size="10.00">command.PenUpCommand</text>
</a>
</g>
</g>
<!-- Node1&#45;&gt;Node36 -->
<g id="edge35" class="edge"><title>Node1&#45;&gt;Node36</title>
<path fill="none" stroke="midnightblue" d="M67.4497,-769.512C79.383,-736.652 108.148,-670.535 156,-637 161.434,-633.192 167.481,-630.122 173.793,-627.65"/>
<polygon fill="midnightblue" stroke="midnightblue" points="64.0295,-768.691 64.0448,-779.285 70.6399,-770.994 64.0295,-768.691"/>
</g>
<!-- Node37 -->
<g id="node37" class="node"><title>Node37</title>
<g id="a_node37"><a xlink:href="../../d4/d55/classcommand_1_1_pi_command.html" target="_top" xlink:title="command.PiCommand">
<polygon fill="white" stroke="black" points="182.5,-570.5 182.5,-589.5 309.5,-589.5 309.5,-570.5 182.5,-570.5"/>
<text text-anchor="middle" x="246" y="-577.5" font-family="Helvetica,sans-Serif" font-size="10.00">command.PiCommand</text>
</a>
</g>
</g>
<!-- Node1&#45;&gt;Node37 -->
<g id="edge36" class="edge"><title>Node1&#45;&gt;Node37</title>
<path fill="none" stroke="midnightblue" d="M64.8986,-769.391C73.7286,-730.391 99.0761,-643.064 156,-599 163.746,-593.004 172.961,-588.798 182.478,-585.866"/>
<polygon fill="midnightblue" stroke="midnightblue" points="61.4617,-768.726 62.7927,-779.237 68.3069,-770.19 61.4617,-768.726"/>
</g>
<!-- Node38 -->
<g id="node38" class="node"><title>Node38</title>
<g id="a_node38"><a xlink:href="../../d5/da7/classcommand_1_1_power_command.html" target="_top" xlink:title="command.PowerCommand">
<polygon fill="white" stroke="black" points="172.5,-532.5 172.5,-551.5 319.5,-551.5 319.5,-532.5 172.5,-532.5"/>
<text text-anchor="middle" x="246" y="-539.5" font-family="Helvetica,sans-Serif" font-size="10.00">command.PowerCommand</text>
</a>
</g>
</g>
<!-- Node1&#45;&gt;Node38 -->
<g id="edge37" class="edge"><title>Node1&#45;&gt;Node38</title>
<path fill="none" stroke="midnightblue" d="M63.1299,-769.273C69.0409,-724.724 89.849,-615.95 156,-561 160.861,-556.962 166.376,-553.722 172.222,-551.129"/>
<polygon fill="midnightblue" stroke="midnightblue" points="59.6351,-769.02 61.9049,-779.369 66.5841,-769.863 59.6351,-769.02"/>
</g>
<!-- Node39 -->
<g id="node39" class="node"><title>Node39</title>
<g id="a_node39"><a xlink:href="../../d2/d0c/classcommand_1_1_product_command.html" target="_top" xlink:title="command.ProductCommand">
<polygon fill="white" stroke="black" points="168.5,-494.5 168.5,-513.5 323.5,-513.5 323.5,-494.5 168.5,-494.5"/>
<text text-anchor="middle" x="246" y="-501.5" font-family="Helvetica,sans-Serif" font-size="10.00">command.ProductCommand</text>
</a>
</g>
</g>
<!-- Node1&#45;&gt;Node39 -->
<g id="edge38" class="edge"><title>Node1&#45;&gt;Node39</title>
<path fill="none" stroke="midnightblue" d="M61.8015,-769.44C64.9392,-719.992 80.3497,-589.223 156,-523 160.28,-519.254 165.116,-516.185 170.267,-513.678"/>
<polygon fill="midnightblue" stroke="midnightblue" points="58.3055,-769.274 61.2691,-779.446 65.2956,-769.646 58.3055,-769.274"/>
</g>
<!-- Node40 -->
<g id="node40" class="node"><title>Node40</title>
<g id="a_node40"><a xlink:href="../../de/dd0/classcommand_1_1_quotient_command.html" target="_top" xlink:title="command.QuotientCommand">
<polygon fill="white" stroke="black" points="166,-456.5 166,-475.5 326,-475.5 326,-456.5 166,-456.5"/>
<text text-anchor="middle" x="246" y="-463.5" font-family="Helvetica,sans-Serif" font-size="10.00">command.QuotientCommand</text>
</a>
</g>
</g>
<!-- Node1&#45;&gt;Node40 -->
<g id="edge39" class="edge"><title>Node1&#45;&gt;Node40</title>
<path fill="none" stroke="midnightblue" d="M60.8004,-769.267C61.3918,-715.022 70.9198,-562.548 156,-485 160.087,-481.275 164.72,-478.213 169.673,-475.703"/>
<polygon fill="midnightblue" stroke="midnightblue" points="57.3005,-769.283 60.7858,-779.289 64.3005,-769.294 57.3005,-769.283"/>
</g>
<!-- Node41 -->
<g id="node41" class="node"><title>Node41</title>
<g id="a_node41"><a xlink:href="../../d2/db0/classcommand_1_1_random_command.html" target="_top" xlink:title="command.RandomCommand">
<polygon fill="white" stroke="black" points="167,-418.5 167,-437.5 325,-437.5 325,-418.5 167,-418.5"/>
<text text-anchor="middle" x="246" y="-425.5" font-family="Helvetica,sans-Serif" font-size="10.00">command.RandomCommand</text>
</a>
</g>
</g>
<!-- Node1&#45;&gt;Node41 -->
<g id="edge40" class="edge"><title>Node1&#45;&gt;Node41</title>
<path fill="none" stroke="midnightblue" d="M63.806,-769.066C73.5136,-702.936 107.74,-492.419 156,-447 160.027,-443.21 164.616,-440.101 169.539,-437.558"/>
<polygon fill="midnightblue" stroke="midnightblue" points="60.2863,-768.952 62.3249,-779.349 67.2148,-769.95 60.2863,-768.952"/>
</g>
<!-- Node42 -->
<g id="node42" class="node"><title>Node42</title>
<g id="a_node42"><a xlink:href="../../db/d34/classcommand_1_1_remainder_command.html" target="_top" xlink:title="command.RemainderCommand">
<polygon fill="white" stroke="black" points="161,-380.5 161,-399.5 331,-399.5 331,-380.5 161,-380.5"/>
<text text-anchor="middle" x="246" y="-387.5" font-family="Helvetica,sans-Serif" font-size="10.00">command.RemainderCommand</text>
</a>
</g>
</g>
<!-- Node1&#45;&gt;Node42 -->
<g id="edge41" class="edge"><title>Node1&#45;&gt;Node42</title>
<path fill="none" stroke="midnightblue" d="M63.2022,-769.188C71.4564,-698.527 102.834,-460.354 156,-409 159.864,-405.268 164.271,-402.192 169.009,-399.664"/>
<polygon fill="midnightblue" stroke="midnightblue" points="59.6967,-769.037 62.0389,-779.37 66.6515,-769.832 59.6967,-769.037"/>
</g>
<!-- Node43 -->
<g id="node43" class="node"><title>Node43</title>
<g id="a_node43"><a xlink:href="../../da/ddd/classcommand_1_1_right_command.html" target="_top" xlink:title="command.RightCommand">
<polygon fill="white" stroke="black" points="174.5,-342.5 174.5,-361.5 317.5,-361.5 317.5,-342.5 174.5,-342.5"/>
<text text-anchor="middle" x="246" y="-349.5" font-family="Helvetica,sans-Serif" font-size="10.00">command.RightCommand</text>
</a>
</g>
</g>
<!-- Node1&#45;&gt;Node43 -->
<g id="edge42" class="edge"><title>Node1&#45;&gt;Node43</title>
<path fill="none" stroke="midnightblue" d="M62.7218,-769.169C69.6476,-694.044 97.9353,-428.306 156,-371 161.285,-365.784 167.63,-361.843 174.466,-358.884"/>
<polygon fill="midnightblue" stroke="midnightblue" points="59.2315,-768.904 61.8229,-779.177 66.2035,-769.531 59.2315,-768.904"/>
</g>
<!-- Node44 -->
<g id="node44" class="node"><title>Node44</title>
<g id="a_node44"><a xlink:href="../../d9/d6c/classcommand_1_1_set_heading_command.html" target="_top" xlink:title="command.SetHeadingCommand">
<polygon fill="white" stroke="black" points="158.5,-304.5 158.5,-323.5 333.5,-323.5 333.5,-304.5 158.5,-304.5"/>
<text text-anchor="middle" x="246" y="-311.5" font-family="Helvetica,sans-Serif" font-size="10.00">command.SetHeadingCommand</text>
</a>
</g>
</g>
<!-- Node1&#45;&gt;Node44 -->
<g id="edge43" class="edge"><title>Node1&#45;&gt;Node44</title>
<path fill="none" stroke="midnightblue" d="M62.2977,-769.446C67.938,-690.488 92.9351,-396.377 156,-333 159.678,-329.304 163.886,-326.245 168.427,-323.721"/>
<polygon fill="midnightblue" stroke="midnightblue" points="58.802,-769.264 61.6037,-779.481 65.7853,-769.747 58.802,-769.264"/>
</g>
<!-- Node45 -->
<g id="node45" class="node"><title>Node45</title>
<g id="a_node45"><a xlink:href="../../d7/dbf/classcommand_1_1_set_position_command.html" target="_top" xlink:title="command.SetPositionCommand">
<polygon fill="white" stroke="black" points="159.5,-266.5 159.5,-285.5 332.5,-285.5 332.5,-266.5 159.5,-266.5"/>
<text text-anchor="middle" x="246" y="-273.5" font-family="Helvetica,sans-Serif" font-size="10.00">command.SetPositionCommand</text>
</a>
</g>
</g>
<!-- Node1&#45;&gt;Node45 -->
<g id="edge44" class="edge"><title>Node1&#45;&gt;Node45</title>
<path fill="none" stroke="midnightblue" d="M61.9883,-768.901C66.5257,-685.048 88.1351,-364.259 156,-295 159.649,-291.276 163.836,-288.196 168.362,-285.657"/>
<polygon fill="midnightblue" stroke="midnightblue" points="58.4816,-768.941 61.4583,-779.109 65.4721,-769.304 58.4816,-768.941"/>
</g>
<!-- Node46 -->
<g id="node46" class="node"><title>Node46</title>
<g id="a_node46"><a xlink:href="../../d8/d00/classcommand_1_1_set_towards_command.html" target="_top" xlink:title="command.SetTowardsCommand">
<polygon fill="white" stroke="black" points="159.5,-228.5 159.5,-247.5 332.5,-247.5 332.5,-228.5 159.5,-228.5"/>
<text text-anchor="middle" x="246" y="-235.5" font-family="Helvetica,sans-Serif" font-size="10.00">command.SetTowardsCommand</text>
</a>
</g>
</g>
<!-- Node1&#45;&gt;Node46 -->
<g id="edge45" class="edge"><title>Node1&#45;&gt;Node46</title>
<path fill="none" stroke="midnightblue" d="M61.6822,-769.06C65.0904,-681.53 83.1299,-332.362 156,-257 159.624,-253.252 163.793,-250.154 168.306,-247.602"/>
<polygon fill="midnightblue" stroke="midnightblue" points="58.1786,-769.096 61.308,-779.219 65.1739,-769.354 58.1786,-769.096"/>
</g>
<!-- Node47 -->
<g id="node47" class="node"><title>Node47</title>
<g id="a_node47"><a xlink:href="../../d7/d3b/classcommand_1_1_show_turtle_command.html" target="_top" xlink:title="command.ShowTurtleCommand">
<polygon fill="white" stroke="black" points="161,-190.5 161,-209.5 331,-209.5 331,-190.5 161,-190.5"/>
<text text-anchor="middle" x="246" y="-197.5" font-family="Helvetica,sans-Serif" font-size="10.00">command.ShowTurtleCommand</text>
</a>
</g>
</g>
<!-- Node1&#45;&gt;Node47 -->
<g id="edge46" class="edge"><title>Node1&#45;&gt;Node47</title>
<path fill="none" stroke="midnightblue" d="M61.4148,-769.396C63.7431,-678.674 78.0572,-300.546 156,-219 159.603,-215.231 163.755,-212.118 168.256,-209.554"/>
<polygon fill="midnightblue" stroke="midnightblue" points="57.9154,-769.333 61.1778,-779.413 64.9135,-769.499 57.9154,-769.333"/>
</g>
<!-- Node48 -->
<g id="node48" class="node"><title>Node48</title>
<g id="a_node48"><a xlink:href="../../dd/d2b/classcommand_1_1_sine_command.html" target="_top" xlink:title="command.SineCommand">
<polygon fill="white" stroke="black" points="176,-152.5 176,-171.5 316,-171.5 316,-152.5 176,-152.5"/>
<text text-anchor="middle" x="246" y="-159.5" font-family="Helvetica,sans-Serif" font-size="10.00">command.SineCommand</text>
</a>
</g>
</g>
<!-- Node1&#45;&gt;Node48 -->
<g id="edge47" class="edge"><title>Node1&#45;&gt;Node48</title>
<path fill="none" stroke="midnightblue" d="M61.1971,-769.007C62.5529,-673.931 73.1787,-268.535 156,-181 161.538,-175.147 168.402,-170.872 175.843,-167.778"/>
<polygon fill="midnightblue" stroke="midnightblue" points="57.6946,-769.196 61.0712,-779.238 64.694,-769.282 57.6946,-769.196"/>
</g>
<!-- Node49 -->
<g id="node49" class="node"><title>Node49</title>
<g id="a_node49"><a xlink:href="../../dc/dfa/classcommand_1_1_sum_command.html" target="_top" xlink:title="command.SumCommand">
<polygon fill="white" stroke="black" points="175.5,-114.5 175.5,-133.5 316.5,-133.5 316.5,-114.5 175.5,-114.5"/>
<text text-anchor="middle" x="246" y="-121.5" font-family="Helvetica,sans-Serif" font-size="10.00">command.SumCommand</text>
</a>
</g>
</g>
<!-- Node1&#45;&gt;Node49 -->
<g id="edge48" class="edge"><title>Node1&#45;&gt;Node49</title>
<path fill="none" stroke="midnightblue" d="M60.9954,-769.013C61.3932,-670.396 68.1759,-236.662 156,-143 161.404,-137.237 168.091,-133.001 175.356,-129.914"/>
<polygon fill="midnightblue" stroke="midnightblue" points="57.4953,-769.102 60.9736,-779.109 64.4953,-769.117 57.4953,-769.102"/>
</g>
<!-- Node50 -->
<g id="node50" class="node"><title>Node50</title>
<g id="a_node50"><a xlink:href="../../d5/dd4/classcommand_1_1_tangent_command.html" target="_top" xlink:title="command.TangentCommand">
<polygon fill="white" stroke="black" points="168,-76.5 168,-95.5 324,-95.5 324,-76.5 168,-76.5"/>
<text text-anchor="middle" x="246" y="-83.5" font-family="Helvetica,sans-Serif" font-size="10.00">command.TangentCommand</text>
</a>
</g>
</g>
<!-- Node1&#45;&gt;Node50 -->
<g id="edge49" class="edge"><title>Node1&#45;&gt;Node50</title>
<path fill="none" stroke="midnightblue" d="M60.8148,-768.821C60.3006,-666.366 63.223,-204.742 156,-105 159.443,-101.298 163.417,-98.2247 167.733,-95.6807"/>
<polygon fill="midnightblue" stroke="midnightblue" points="57.3162,-769.049 60.8846,-779.025 64.316,-769.001 57.3162,-769.049"/>
</g>
<!-- Node51 -->
<g id="node51" class="node"><title>Node51</title>
<g id="a_node51"><a xlink:href="../../dc/db0/classcommand_1_1_x_coordinate_command.html" target="_top" xlink:title="command.XCoordinateCommand">
<polygon fill="white" stroke="black" points="158,-38.5 158,-57.5 334,-57.5 334,-38.5 158,-38.5"/>
<text text-anchor="middle" x="246" y="-45.5" font-family="Helvetica,sans-Serif" font-size="10.00">command.XCoordinateCommand</text>
</a>
</g>
</g>
<!-- Node1&#45;&gt;Node51 -->
<g id="edge50" class="edge"><title>Node1&#45;&gt;Node51</title>
<path fill="none" stroke="midnightblue" d="M60.6595,-769.382C59.2591,-664.739 58.0297,-173.086 156,-67 159.43,-63.2857 163.393,-60.2031 167.703,-57.6524"/>
<polygon fill="midnightblue" stroke="midnightblue" points="57.1613,-769.532 60.8125,-779.478 64.1605,-769.426 57.1613,-769.532"/>
</g>
<!-- Node52 -->
<g id="node52" class="node"><title>Node52</title>
<g id="a_node52"><a xlink:href="../../df/d85/classcommand_1_1_y_coordinate_command.html" target="_top" xlink:title="command.YCoordinateCommand">
<polygon fill="white" stroke="black" points="158,-0.5 158,-19.5 334,-19.5 334,-0.5 158,-0.5"/>
<text text-anchor="middle" x="246" y="-7.5" font-family="Helvetica,sans-Serif" font-size="10.00">command.YCoordinateCommand</text>
</a>
</g>
</g>
<!-- Node1&#45;&gt;Node52 -->
<g id="edge51" class="edge"><title>Node1&#45;&gt;Node52</title>
<path fill="none" stroke="midnightblue" d="M62.1118,-769.323C68.7125,-655.587 104.233,-85.4208 156,-29 159.418,-25.2746 163.372,-22.1837 167.675,-19.6269"/>
<polygon fill="midnightblue" stroke="midnightblue" points="58.613,-769.203 61.5345,-779.387 65.6015,-769.604 58.613,-769.203"/>
</g>
<!-- Node15 -->
<g id="node15" class="node"><title>Node15</title>
<g id="a_node15"><a xlink:href="../../d6/d41/classcommand_1_1_if_command.html" target="_top" xlink:title="command.IfCommand">
<polygon fill="white" stroke="black" points="401,-1124.5 401,-1143.5 525,-1143.5 525,-1124.5 401,-1124.5"/>
<text text-anchor="middle" x="463" y="-1131.5" font-family="Helvetica,sans-Serif" font-size="10.00">command.IfCommand</text>
</a>
</g>
</g>
<!-- Node14&#45;&gt;Node15 -->
<g id="edge14" class="edge"><title>Node14&#45;&gt;Node15</title>
<path fill="none" stroke="midnightblue" d="M320.026,-1119.47C346.241,-1122.15 375.516,-1125.15 400.64,-1127.72"/>
<polygon fill="midnightblue" stroke="midnightblue" points="320.069,-1115.96 309.765,-1118.42 319.357,-1122.92 320.069,-1115.96"/>
</g>
<!-- Node16 -->
<g id="node16" class="node"><title>Node16</title>
<g id="a_node16"><a xlink:href="../../d4/de4/classcommand_1_1_if_else_command.html" target="_top" xlink:title="command.IfElseCommand">
<polygon fill="white" stroke="black" points="391.5,-1086.5 391.5,-1105.5 534.5,-1105.5 534.5,-1086.5 391.5,-1086.5"/>
<text text-anchor="middle" x="463" y="-1093.5" font-family="Helvetica,sans-Serif" font-size="10.00">command.IfElseCommand</text>
</a>
</g>
</g>
<!-- Node14&#45;&gt;Node16 -->
<g id="edge15" class="edge"><title>Node14&#45;&gt;Node16</title>
<path fill="none" stroke="midnightblue" d="M319.827,-1106.58C342.881,-1104.86 368.318,-1102.97 391.226,-1101.27"/>
<polygon fill="midnightblue" stroke="midnightblue" points="319.478,-1103.1 309.765,-1107.33 319.997,-1110.08 319.478,-1103.1"/>
</g>
<!-- Node22 -->
<g id="node22" class="node"><title>Node22</title>
<g id="a_node22"><a xlink:href="../../db/d24/classcommand_1_1_ask_command.html" target="_top" xlink:title="command.AskCommand">
<polygon fill="white" stroke="black" points="395,-1032.5 395,-1051.5 531,-1051.5 531,-1032.5 395,-1032.5"/>
<text text-anchor="middle" x="463" y="-1039.5" font-family="Helvetica,sans-Serif" font-size="10.00">command.AskCommand</text>
</a>
</g>
</g>
<!-- Node21&#45;&gt;Node22 -->
<g id="edge21" class="edge"><title>Node21&#45;&gt;Node22</title>
<path fill="none" stroke="midnightblue" d="M326.375,-934.527C329.774,-936.415 333.007,-938.561 336,-941 366.856,-966.142 341.116,-997.893 372,-1023 378.691,-1028.44 386.564,-1032.43 394.823,-1035.34"/>
<polygon fill="midnightblue" stroke="midnightblue" points="327.574,-931.223 317.038,-930.112 324.582,-937.551 327.574,-931.223"/>
</g>
<!-- Node23 -->
<g id="node23" class="node"><title>Node23</title>
<g id="a_node23"><a xlink:href="../../da/dfa/classcommand_1_1_do_times_command.html" target="_top" xlink:title="command.DoTimesCommand">
<polygon fill="white" stroke="black" points="382.5,-994.5 382.5,-1013.5 543.5,-1013.5 543.5,-994.5 382.5,-994.5"/>
<text text-anchor="middle" x="463" y="-1001.5" font-family="Helvetica,sans-Serif" font-size="10.00">command.DoTimesCommand</text>
</a>
</g>
</g>
<!-- Node21&#45;&gt;Node23 -->
<g id="edge22" class="edge"><title>Node21&#45;&gt;Node23</title>
<path fill="none" stroke="midnightblue" d="M325.071,-935.33C328.865,-937.004 332.533,-938.885 336,-941 357.571,-954.157 350.414,-971.867 372,-985 378.412,-988.901 385.503,-992.01 392.808,-994.487"/>
<polygon fill="midnightblue" stroke="midnightblue" points="326.014,-931.941 315.425,-931.582 323.479,-938.466 326.014,-931.941"/>
</g>
<!-- Node24 -->
<g id="node24" class="node"><title>Node24</title>
<g id="a_node24"><a xlink:href="../../dc/d6b/classcommand_1_1_for_command.html" target="_top" xlink:title="command.ForCommand">
<polygon fill="white" stroke="black" points="396,-956.5 396,-975.5 530,-975.5 530,-956.5 396,-956.5"/>
<text text-anchor="middle" x="463" y="-963.5" font-family="Helvetica,sans-Serif" font-size="10.00">command.ForCommand</text>
</a>
</g>
</g>
<!-- Node21&#45;&gt;Node24 -->
<g id="edge23" class="edge"><title>Node21&#45;&gt;Node24</title>
<path fill="none" stroke="midnightblue" d="M303.682,-933.6C338.532,-940.732 382.637,-949.758 415.439,-956.471"/>
<polygon fill="midnightblue" stroke="midnightblue" points="304.151,-930.123 293.652,-931.547 302.747,-936.981 304.151,-930.123"/>
</g>
<!-- Node25 -->
<g id="node25" class="node"><title>Node25</title>
<g id="a_node25"><a xlink:href="../../db/d15/classcommand_1_1_make_user_instruction_command.html" target="_top" xlink:title="command.MakeUserInstruction\lCommand">
<polygon fill="white" stroke="black" points="379.5,-907 379.5,-937 546.5,-937 546.5,-907 379.5,-907"/>
<text text-anchor="start" x="387.5" y="-925" font-family="Helvetica,sans-Serif" font-size="10.00">command.MakeUserInstruction</text>
<text text-anchor="middle" x="463" y="-914" font-family="Helvetica,sans-Serif" font-size="10.00">Command</text>
</a>
</g>
</g>
<!-- Node21&#45;&gt;Node25 -->
<g id="edge24" class="edge"><title>Node21&#45;&gt;Node25</title>
<path fill="none" stroke="midnightblue" d="M327.494,-922C344.408,-922 362.276,-922 379.271,-922"/>
<polygon fill="midnightblue" stroke="midnightblue" points="327.102,-918.5 317.102,-922 327.102,-925.5 327.102,-918.5"/>
</g>
<!-- Node26 -->
<g id="node26" class="node"><title>Node26</title>
<g id="a_node26"><a xlink:href="../../d4/d98/classcommand_1_1_make_variable_command.html" target="_top" xlink:title="command.MakeVariableCommand">
<polygon fill="white" stroke="black" points="372,-868.5 372,-887.5 554,-887.5 554,-868.5 372,-868.5"/>
<text text-anchor="middle" x="463" y="-875.5" font-family="Helvetica,sans-Serif" font-size="10.00">command.MakeVariableCommand</text>
</a>
</g>
</g>
<!-- Node21&#45;&gt;Node26 -->
<g id="edge25" class="edge"><title>Node21&#45;&gt;Node26</title>
<path fill="none" stroke="midnightblue" d="M303.682,-910.4C338.532,-903.268 382.637,-894.242 415.439,-887.529"/>
<polygon fill="midnightblue" stroke="midnightblue" points="302.747,-907.019 293.652,-912.453 304.151,-913.877 302.747,-907.019"/>
</g>
<!-- Node27 -->
<g id="node27" class="node"><title>Node27</title>
<g id="a_node27"><a xlink:href="../../d4/d11/classcommand_1_1_repeat_command.html" target="_top" xlink:title="command.RepeatCommand">
<polygon fill="white" stroke="black" points="387,-830.5 387,-849.5 539,-849.5 539,-830.5 387,-830.5"/>
<text text-anchor="middle" x="463" y="-837.5" font-family="Helvetica,sans-Serif" font-size="10.00">command.RepeatCommand</text>
</a>
</g>
</g>
<!-- Node21&#45;&gt;Node27 -->
<g id="edge26" class="edge"><title>Node21&#45;&gt;Node27</title>
<path fill="none" stroke="midnightblue" d="M325.071,-908.67C328.865,-906.996 332.533,-905.115 336,-903 357.571,-889.843 350.414,-872.133 372,-859 378.412,-855.099 385.503,-851.99 392.808,-849.513"/>
<polygon fill="midnightblue" stroke="midnightblue" points="323.479,-905.534 315.425,-912.418 326.014,-912.059 323.479,-905.534"/>
</g>
<!-- Node30 -->
<g id="node30" class="node"><title>Node30</title>
<g id="a_node30"><a xlink:href="../../d6/de2/classcommand_1_1_tell_command.html" target="_top" xlink:title="command.TellCommand">
<polygon fill="white" stroke="black" points="396.5,-792.5 396.5,-811.5 529.5,-811.5 529.5,-792.5 396.5,-792.5"/>
<text text-anchor="middle" x="463" y="-799.5" font-family="Helvetica,sans-Serif" font-size="10.00">command.TellCommand</text>
</a>
</g>
</g>
<!-- Node29&#45;&gt;Node30 -->
<g id="edge29" class="edge"><title>Node29&#45;&gt;Node30</title>
<path fill="none" stroke="midnightblue" d="M303.682,-834.4C338.532,-827.268 382.637,-818.242 415.439,-811.529"/>
<polygon fill="midnightblue" stroke="midnightblue" points="302.747,-831.019 293.652,-836.453 304.151,-837.877 302.747,-831.019"/>
</g>
</g>
</svg>
        <g id="navigator" transform="translate(0 0)" fill="#404254">
                <rect fill="#f2f5e9" fill-opacity="0.5" stroke="#606060" stroke-width=".5" x="0" y="0" width="60" height="60"/>
                <use id="zoomplus" xlink:href="#zoomPlus" x="17" y="9" onmousedown="handleZoom(evt,'in')"/>
                <use id="zoomminus" xlink:href="#zoomMin" x="42" y="9" onmousedown="handleZoom(evt,'out')"/>
                <use id="reset" xlink:href="#resetDef" x="30" y="36" onmousedown="handleReset()"/>
                <g id="arrowUp" xlink:href="#dirArrow" transform="translate(30 24)" onmousedown="handlePan(0,-1)">
                  <use xlink:href="#rim" fill="#404040">
                        <set attributeName="fill" to="#808080" begin="arrowUp.mouseover" end="arrowUp.mouseout"/>
                  </use>
                  <path fill="none" stroke="white" stroke-width="1.5" d="M0,-3.0v7 M-2.5,-0.5L0,-3.0L2.5,-0.5"/>
                </g>
                <g id="arrowRight" xlink:href="#dirArrow" transform="rotate(90) translate(36 -43)" onmousedown="handlePan(1,0)">
                  <use xlink:href="#rim" fill="#404040">
                        <set attributeName="fill" to="#808080" begin="arrowRight.mouseover" end="arrowRight.mouseout"/>
                  </use>
                  <path fill="none" stroke="white" stroke-width="1.5" d="M0,-3.0v7 M-2.5,-0.5L0,-3.0L2.5,-0.5"/>
                </g>
                <g id="arrowDown" xlink:href="#dirArrow" transform="rotate(180) translate(-30 -48)" onmousedown="handlePan(0,1)">
                  <use xlink:href="#rim" fill="#404040">
                        <set attributeName="fill" to="#808080" begin="arrowDown.mouseover" end="arrowDown.mouseout"/>
                  </use>
                  <path fill="none" stroke="white" stroke-width="1.5" d="M0,-3.0v7 M-2.5,-0.5L0,-3.0L2.5,-0.5"/>
                </g>
                <g id="arrowLeft" xlink:href="#dirArrow" transform="rotate(270) translate(-36 17)" onmousedown="handlePan(-1,0)">
                  <use xlink:href="#rim" fill="#404040">
                        <set attributeName="fill" to="#808080" begin="arrowLeft.mouseover" end="arrowLeft.mouseout"/>
                  </use>
                  <path fill="none" stroke="white" stroke-width="1.5" d="M0,-3.0v7 M-2.5,-0.5L0,-3.0L2.5,-0.5"/>
                </g>
        </g>
        <svg viewBox="0 0 15 15" width="100%" height="30px" preserveAspectRatio="xMaxYMin meet">
         <g id="arrow_out" transform="scale(0.3 0.3)">
          <a xlink:href="classcommand_1_1_command__inherit__graph_org.svg" target="_base">
           <rect id="button" ry="5" rx="5" y="6" x="6" height="38" width="38"
                fill="#f2f5e9" fill-opacity="0.5" stroke="#606060" stroke-width="1.0"/>
           <path id="arrow"
             d="M 11.500037,31.436501 C 11.940474,20.09759 22.043105,11.32322 32.158766,21.979434 L 37.068811,17.246167 C 37.068811,17.246167 37.088388,32 37.088388,32 L 22.160133,31.978069 C 22.160133,31.978069 26.997745,27.140456 26.997745,27.140456 C 18.528582,18.264221 13.291696,25.230495 11.500037,31.436501 z"
             style="fill:#404040;"/>
          </a>
         </g>
        </svg>
</svg>
