<?xml version="1.0" encoding="UTF-8" standalone="no"?>
<!DOCTYPE svg PUBLIC "-//W3C//DTD SVG 1.1//EN"
 "http://www.w3.org/Graphics/SVG/1.1/DTD/svg11.dtd">
<!-- Generated by graphviz version 2.36.0 (20140111.2315)
 -->
<!-- Title: command.Command Pages: 1 -->
<svg width="562pt" height="1510pt"
 viewBox="0.00 0.00 562.00 1510.00" xmlns="http://www.w3.org/2000/svg" xmlns:xlink="http://www.w3.org/1999/xlink">
<g id="graph0" class="graph" transform="scale(1 1) rotate(0) translate(4 1506)">
<title>command.Command</title>
<polygon fill="white" stroke="none" points="-4,4 -4,-1506 558,-1506 558,4 -4,4"/>
<!-- Node1 -->
<g id="node1" class="node"><title>Node1</title>
<polygon fill="#bfbfbf" stroke="black" points="0.5,-741.5 0.5,-760.5 119.5,-760.5 119.5,-741.5 0.5,-741.5"/>
<text text-anchor="middle" x="60" y="-748.5" font-family="Helvetica,sans-Serif" font-size="10.00">command.Command</text>
</g>
<!-- Node2 -->
<g id="node2" class="node"><title>Node2</title>
<g id="a_node2"><a xlink:href="../../d9/dd9/classcommand_1_1_and_command.html" target="_top" xlink:title="command.AndCommand">
<polygon fill="white" stroke="black" points="177.5,-1482.5 177.5,-1501.5 314.5,-1501.5 314.5,-1482.5 177.5,-1482.5"/>
<text text-anchor="middle" x="246" y="-1489.5" font-family="Helvetica,sans-Serif" font-size="10.00">command.AndCommand</text>
</a>
</g>
</g>
<!-- Node1&#45;&gt;Node2 -->
<g id="edge1" class="edge"><title>Node1&#45;&gt;Node2</title>
<path fill="none" stroke="midnightblue" d="M60.6595,-770.618C59.2591,-875.261 58.0297,-1366.91 156,-1473 161.896,-1479.38 169.366,-1483.9 177.462,-1487.06"/>
<polygon fill="midnightblue" stroke="midnightblue" points="64.1605,-770.574 60.8125,-760.522 57.1613,-770.468 64.1605,-770.574"/>
</g>
<!-- Node3 -->
<g id="node3" class="node"><title>Node3</title>
<g id="a_node3"><a xlink:href="../../d7/d31/classcommand_1_1_arc_tangent_command.html" target="_top" xlink:title="command.ArcTangentCommand">
<polygon fill="white" stroke="black" points="160,-1444.5 160,-1463.5 332,-1463.5 332,-1444.5 160,-1444.5"/>
<text text-anchor="middle" x="246" y="-1451.5" font-family="Helvetica,sans-Serif" font-size="10.00">command.ArcTangentCommand</text>
</a>
</g>
</g>
<!-- Node1&#45;&gt;Node3 -->
<g id="edge2" class="edge"><title>Node1&#45;&gt;Node3</title>
<path fill="none" stroke="midnightblue" d="M60.8148,-771.179C60.3006,-873.634 63.223,-1335.26 156,-1435 159.443,-1438.7 163.417,-1441.78 167.733,-1444.32"/>
<polygon fill="midnightblue" stroke="midnightblue" points="64.316,-770.999 60.8846,-760.975 57.3162,-770.951 64.316,-770.999"/>
</g>
<!-- Node4 -->
<g id="node4" class="node"><title>Node4</title>
<g id="a_node4"><a xlink:href="../../d6/d70/classcommand_1_1_arithmetic_command.html" target="_top" xlink:title="command.ArithmeticCommand">
<polygon fill="white" stroke="black" points="162,-1406.5 162,-1425.5 330,-1425.5 330,-1406.5 162,-1406.5"/>
<text text-anchor="middle" x="246" y="-1413.5" font-family="Helvetica,sans-Serif" font-size="10.00">command.ArithmeticCommand</text>
</a>
</g>
</g>
<!-- Node1&#45;&gt;Node4 -->
<g id="edge3" class="edge"><title>Node1&#45;&gt;Node4</title>
<path fill="none" stroke="midnightblue" d="M60.9954,-770.987C61.3932,-869.604 68.1759,-1303.34 156,-1397 159.458,-1400.69 163.443,-1403.75 167.767,-1406.29"/>
<polygon fill="midnightblue" stroke="midnightblue" points="64.4953,-770.883 60.9736,-760.891 57.4953,-770.898 64.4953,-770.883"/>
</g>
<!-- Node9 -->
<g id="node9" class="node"><title>Node9</title>
<g id="a_node9"><a xlink:href="../../d2/d63/classcommand_1_1_backward_command.html" target="_top" xlink:title="command.BackwardCommand">
<polygon fill="white" stroke="black" points="164,-1368.5 164,-1387.5 328,-1387.5 328,-1368.5 164,-1368.5"/>
<text text-anchor="middle" x="246" y="-1375.5" font-family="Helvetica,sans-Serif" font-size="10.00">command.BackwardCommand</text>
</a>
</g>
</g>
<!-- Node1&#45;&gt;Node9 -->
<g id="edge8" class="edge"><title>Node1&#45;&gt;Node9</title>
<path fill="none" stroke="midnightblue" d="M61.1971,-770.993C62.5529,-866.069 73.1787,-1271.46 156,-1359 159.583,-1362.79 163.722,-1365.91 168.213,-1368.49"/>
<polygon fill="midnightblue" stroke="midnightblue" points="64.694,-770.718 61.0712,-760.762 57.6946,-770.804 64.694,-770.718"/>
</g>
<!-- Node10 -->
<g id="node10" class="node"><title>Node10</title>
<g id="a_node10"><a xlink:href="../../db/dc6/classcommand_1_1_cosine_command.html" target="_top" xlink:title="command.CosineCommand">
<polygon fill="white" stroke="black" points="170.5,-1330.5 170.5,-1349.5 321.5,-1349.5 321.5,-1330.5 170.5,-1330.5"/>
<text text-anchor="middle" x="246" y="-1337.5" font-family="Helvetica,sans-Serif" font-size="10.00">command.CosineCommand</text>
</a>
</g>
</g>
<!-- Node1&#45;&gt;Node10 -->
<g id="edge9" class="edge"><title>Node1&#45;&gt;Node10</title>
<path fill="none" stroke="midnightblue" d="M61.4148,-770.604C63.7431,-861.326 78.0572,-1239.45 156,-1321 160.148,-1325.34 165.026,-1328.81 170.326,-1331.57"/>
<polygon fill="midnightblue" stroke="midnightblue" points="64.9135,-770.501 61.1778,-760.587 57.9154,-770.667 64.9135,-770.501"/>
</g>
<!-- Node11 -->
<g id="node11" class="node"><title>Node11</title>
<g id="a_node11"><a xlink:href="../../da/d52/classcommand_1_1_equal_command.html" target="_top" xlink:title="command.EqualCommand">
<polygon fill="white" stroke="black" points="173.5,-1292.5 173.5,-1311.5 318.5,-1311.5 318.5,-1292.5 173.5,-1292.5"/>
<text text-anchor="middle" x="246" y="-1299.5" font-family="Helvetica,sans-Serif" font-size="10.00">command.EqualCommand</text>
</a>
</g>
</g>
<!-- Node1&#45;&gt;Node11 -->
<g id="edge10" class="edge"><title>Node1&#45;&gt;Node11</title>
<path fill="none" stroke="midnightblue" d="M61.6822,-770.94C65.0904,-858.47 83.1299,-1207.64 156,-1283 160.942,-1288.11 166.897,-1292.01 173.355,-1294.97"/>
<polygon fill="midnightblue" stroke="midnightblue" points="65.1739,-770.646 61.308,-760.781 58.1786,-770.904 65.1739,-770.646"/>
</g>
<!-- Node12 -->
<g id="node12" class="node"><title>Node12</title>
<g id="a_node12"><a xlink:href="../../df/d28/classcommand_1_1_forward_command.html" target="_top" xlink:title="command.ForwardCommand">
<polygon fill="white" stroke="black" points="168,-1254.5 168,-1273.5 324,-1273.5 324,-1254.5 168,-1254.5"/>
<text text-anchor="middle" x="246" y="-1261.5" font-family="Helvetica,sans-Serif" font-size="10.00">command.ForwardCommand</text>
</a>
</g>
</g>
<!-- Node1&#45;&gt;Node12 -->
<g id="edge11" class="edge"><title>Node1&#45;&gt;Node12</title>
<path fill="none" stroke="midnightblue" d="M61.9883,-771.099C66.5257,-854.952 88.1351,-1175.74 156,-1245 159.649,-1248.72 163.836,-1251.8 168.362,-1254.34"/>
<polygon fill="midnightblue" stroke="midnightblue" points="65.4721,-770.696 61.4583,-760.891 58.4816,-771.059 65.4721,-770.696"/>
</g>
<!-- Node13 -->
<g id="node13" class="node"><title>Node13</title>
<g id="a_node13"><a xlink:href="../../d1/dad/classcommand_1_1_greater_than_command.html" target="_top" xlink:title="command.GreaterThanCommand">
<polygon fill="white" stroke="black" points="156.5,-1216.5 156.5,-1235.5 335.5,-1235.5 335.5,-1216.5 156.5,-1216.5"/>
<text text-anchor="middle" x="246" y="-1223.5" font-family="Helvetica,sans-Serif" font-size="10.00">command.GreaterThanCommand</text>
</a>
</g>
</g>
<!-- Node1&#45;&gt;Node13 -->
<g id="edge12" class="edge"><title>Node1&#45;&gt;Node13</title>
<path fill="none" stroke="midnightblue" d="M62.2977,-770.554C67.938,-849.512 92.9351,-1143.62 156,-1207 159.678,-1210.7 163.886,-1213.75 168.427,-1216.28"/>
<polygon fill="midnightblue" stroke="midnightblue" points="65.7853,-770.253 61.6037,-760.519 58.802,-770.736 65.7853,-770.253"/>
</g>
<!-- Node14 -->
<g id="node14" class="node"><title>Node14</title>
<g id="a_node14"><a xlink:href="../../d9/da8/classcommand_1_1_heading_command.html" target="_top" xlink:title="command.HeadingCommand">
<polygon fill="white" stroke="black" points="167,-1178.5 167,-1197.5 325,-1197.5 325,-1178.5 167,-1178.5"/>
<text text-anchor="middle" x="246" y="-1185.5" font-family="Helvetica,sans-Serif" font-size="10.00">command.HeadingCommand</text>
</a>
</g>
</g>
<!-- Node1&#45;&gt;Node14 -->
<g id="edge13" class="edge"><title>Node1&#45;&gt;Node14</title>
<path fill="none" stroke="midnightblue" d="M62.7218,-770.831C69.6476,-845.956 97.9353,-1111.69 156,-1169 159.823,-1172.77 164.201,-1175.88 168.918,-1178.43"/>
<polygon fill="midnightblue" stroke="midnightblue" points="66.2035,-770.469 61.8229,-760.823 59.2315,-771.096 66.2035,-770.469"/>
</g>
<!-- Node15 -->
<g id="node15" class="node"><title>Node15</title>
<g id="a_node15"><a xlink:href="../../da/d3a/classcommand_1_1_hide_turtle_command.html" target="_top" xlink:title="command.HideTurtleCommand">
<polygon fill="white" stroke="black" points="163,-1140.5 163,-1159.5 329,-1159.5 329,-1140.5 163,-1140.5"/>
<text text-anchor="middle" x="246" y="-1147.5" font-family="Helvetica,sans-Serif" font-size="10.00">command.HideTurtleCommand</text>
</a>
</g>
</g>
<!-- Node1&#45;&gt;Node15 -->
<g id="edge14" class="edge"><title>Node1&#45;&gt;Node15</title>
<path fill="none" stroke="midnightblue" d="M63.2022,-770.812C71.4564,-841.473 102.834,-1079.65 156,-1131 159.864,-1134.73 164.271,-1137.81 169.009,-1140.34"/>
<polygon fill="midnightblue" stroke="midnightblue" points="66.6515,-770.168 62.0389,-760.63 59.6967,-770.963 66.6515,-770.168"/>
</g>
<!-- Node16 -->
<g id="node16" class="node"><title>Node16</title>
<g id="a_node16"><a xlink:href="../../d2/dda/classcommand_1_1_home_command.html" target="_top" xlink:title="command.HomeCommand">
<polygon fill="white" stroke="black" points="172,-1102.5 172,-1121.5 320,-1121.5 320,-1102.5 172,-1102.5"/>
<text text-anchor="middle" x="246" y="-1109.5" font-family="Helvetica,sans-Serif" font-size="10.00">command.HomeCommand</text>
</a>
</g>
</g>
<!-- Node1&#45;&gt;Node16 -->
<g id="edge15" class="edge"><title>Node1&#45;&gt;Node16</title>
<path fill="none" stroke="midnightblue" d="M63.806,-770.934C73.5136,-837.064 107.74,-1047.58 156,-1093 160.602,-1097.33 165.939,-1100.77 171.669,-1103.5"/>
<polygon fill="midnightblue" stroke="midnightblue" points="67.2148,-770.05 62.3249,-760.651 60.2863,-771.048 67.2148,-770.05"/>
</g>
<!-- Node17 -->
<g id="node17" class="node"><title>Node17</title>
<g id="a_node17"><a xlink:href="../../d1/dea/classcommand_1_1_i_d_command.html" target="_top" xlink:title="command.IDCommand">
<polygon fill="white" stroke="black" points="182,-1064.5 182,-1083.5 310,-1083.5 310,-1064.5 182,-1064.5"/>
<text text-anchor="middle" x="246" y="-1071.5" font-family="Helvetica,sans-Serif" font-size="10.00">command.IDCommand</text>
</a>
</g>
</g>
<!-- Node1&#45;&gt;Node17 -->
<g id="edge16" class="edge"><title>Node1&#45;&gt;Node17</title>
<path fill="none" stroke="midnightblue" d="M60.8004,-770.733C61.3918,-824.978 70.9198,-977.452 156,-1055 163.24,-1061.6 172.193,-1066.12 181.605,-1069.17"/>
<polygon fill="midnightblue" stroke="midnightblue" points="64.3005,-770.706 60.7858,-760.711 57.3005,-770.717 64.3005,-770.706"/>
</g>
<!-- Node18 -->
<g id="node18" class="node"><title>Node18</title>
<g id="a_node18"><a xlink:href="../../d9/d7d/classcommand_1_1_i_e_command.html" target="_top" xlink:title="command.IECommand">
<polygon fill="white" stroke="black" points="182.5,-1026.5 182.5,-1045.5 309.5,-1045.5 309.5,-1026.5 182.5,-1026.5"/>
<text text-anchor="middle" x="246" y="-1033.5" font-family="Helvetica,sans-Serif" font-size="10.00">command.IECommand</text>
</a>
</g>
</g>
<!-- Node1&#45;&gt;Node18 -->
<g id="edge17" class="edge"><title>Node1&#45;&gt;Node18</title>
<path fill="none" stroke="midnightblue" d="M61.8015,-770.56C64.9392,-820.008 80.3497,-950.777 156,-1017 163.49,-1023.56 172.683,-1028.04 182.288,-1031.06"/>
<polygon fill="midnightblue" stroke="midnightblue" points="65.2956,-770.354 61.2691,-760.554 58.3055,-770.726 65.2956,-770.354"/>
</g>
<!-- Node21 -->
<g id="node21" class="node"><title>Node21</title>
<g id="a_node21"><a xlink:href="../../de/dc3/classcommand_1_1_is_pen_down_command.html" target="_top" xlink:title="command.IsPenDownCommand">
<polygon fill="white" stroke="black" points="161,-988.5 161,-1007.5 331,-1007.5 331,-988.5 161,-988.5"/>
<text text-anchor="middle" x="246" y="-995.5" font-family="Helvetica,sans-Serif" font-size="10.00">command.IsPenDownCommand</text>
</a>
</g>
</g>
<!-- Node1&#45;&gt;Node21 -->
<g id="edge20" class="edge"><title>Node1&#45;&gt;Node21</title>
<path fill="none" stroke="midnightblue" d="M63.1299,-770.727C69.0409,-815.276 89.849,-924.05 156,-979 160.618,-982.836 165.827,-985.952 171.348,-988.477"/>
<polygon fill="midnightblue" stroke="midnightblue" points="66.5841,-770.137 61.9049,-760.631 59.6351,-770.98 66.5841,-770.137"/>
</g>
<!-- Node22 -->
<g id="node22" class="node"><title>Node22</title>
<g id="a_node22"><a xlink:href="../../d4/dad/classcommand_1_1_is_showing_command.html" target="_top" xlink:title="command.IsShowingCommand">
<polygon fill="white" stroke="black" points="163,-950.5 163,-969.5 329,-969.5 329,-950.5 163,-950.5"/>
<text text-anchor="middle" x="246" y="-957.5" font-family="Helvetica,sans-Serif" font-size="10.00">command.IsShowingCommand</text>
</a>
</g>
</g>
<!-- Node1&#45;&gt;Node22 -->
<g id="edge21" class="edge"><title>Node1&#45;&gt;Node22</title>
<path fill="none" stroke="midnightblue" d="M64.8986,-770.609C73.7286,-809.609 99.0761,-896.936 156,-941 160.873,-944.772 166.326,-947.835 172.07,-950.319"/>
<polygon fill="midnightblue" stroke="midnightblue" points="68.3069,-769.81 62.7927,-760.763 61.4617,-771.274 68.3069,-769.81"/>
</g>
<!-- Node23 -->
<g id="node23" class="node"><title>Node23</title>
<g id="a_node23"><a xlink:href="../../d7/d34/classcommand_1_1_left_command.html" target="_top" xlink:title="command.LeftCommand">
<polygon fill="white" stroke="black" points="177.5,-912.5 177.5,-931.5 314.5,-931.5 314.5,-912.5 177.5,-912.5"/>
<text text-anchor="middle" x="246" y="-919.5" font-family="Helvetica,sans-Serif" font-size="10.00">command.LeftCommand</text>
</a>
</g>
</g>
<!-- Node1&#45;&gt;Node23 -->
<g id="edge22" class="edge"><title>Node1&#45;&gt;Node23</title>
<path fill="none" stroke="midnightblue" d="M67.4497,-770.488C79.383,-803.348 108.148,-869.465 156,-903 162.469,-907.534 169.807,-911.021 177.426,-913.698"/>
<polygon fill="midnightblue" stroke="midnightblue" points="70.6399,-769.006 64.0448,-760.715 64.0295,-771.309 70.6399,-769.006"/>
</g>
<!-- Node24 -->
<g id="node24" class="node"><title>Node24</title>
<g id="a_node24"><a xlink:href="../../d2/d46/classcommand_1_1_less_than_command.html" target="_top" xlink:title="command.LessThanCommand">
<polygon fill="white" stroke="black" points="164,-874.5 164,-893.5 328,-893.5 328,-874.5 164,-874.5"/>
<text text-anchor="middle" x="246" y="-881.5" font-family="Helvetica,sans-Serif" font-size="10.00">command.LessThanCommand</text>
</a>
</g>
</g>
<!-- Node1&#45;&gt;Node24 -->
<g id="edge23" class="edge"><title>Node1&#45;&gt;Node24</title>
<path fill="none" stroke="midnightblue" d="M71.0921,-769.599C86.0696,-795.323 116.692,-841.267 156,-865 162.357,-868.838 169.38,-871.907 176.609,-874.361"/>
<polygon fill="midnightblue" stroke="midnightblue" points="74.098,-767.804 66.1323,-760.819 68.0032,-771.247 74.098,-767.804"/>
</g>
<!-- Node25 -->
<g id="node25" class="node"><title>Node25</title>
<g id="a_node25"><a xlink:href="../../d3/d0c/classcommand_1_1_loop_command.html" target="_top" xlink:title="command.LoopCommand">
<polygon fill="white" stroke="black" points="175,-836.5 175,-855.5 317,-855.5 317,-836.5 175,-836.5"/>
<text text-anchor="middle" x="246" y="-843.5" font-family="Helvetica,sans-Serif" font-size="10.00">command.LoopCommand</text>
</a>
</g>
</g>
<!-- Node1&#45;&gt;Node25 -->
<g id="edge24" class="edge"><title>Node1&#45;&gt;Node25</title>
<path fill="none" stroke="midnightblue" d="M77.1753,-767.955C94.8701,-785.467 124.883,-812.254 156,-827 164.138,-830.857 173.065,-833.938 182.025,-836.397"/>
<polygon fill="midnightblue" stroke="midnightblue" points="79.4686,-765.296 69.9524,-760.639 74.4871,-770.214 79.4686,-765.296"/>
</g>
<!-- Node32 -->
<g id="node32" class="node"><title>Node32</title>
<g id="a_node32"><a xlink:href="../../d2/d0b/classcommand_1_1_minus_command.html" target="_top" xlink:title="command.MinusCommand">
<polygon fill="white" stroke="black" points="173,-798.5 173,-817.5 319,-817.5 319,-798.5 173,-798.5"/>
<text text-anchor="middle" x="246" y="-805.5" font-family="Helvetica,sans-Serif" font-size="10.00">command.MinusCommand</text>
</a>
</g>
</g>
<!-- Node1&#45;&gt;Node32 -->
<g id="edge31" class="edge"><title>Node1&#45;&gt;Node32</title>
<path fill="none" stroke="midnightblue" d="M91.4626,-764.725C109.87,-772.629 133.96,-782.293 156,-789 167.79,-792.588 180.657,-795.753 192.852,-798.421"/>
<polygon fill="midnightblue" stroke="midnightblue" points="92.6996,-761.446 82.1338,-760.662 89.9041,-767.864 92.6996,-761.446"/>
</g>
<!-- Node33 -->
<g id="node33" class="node"><title>Node33</title>
<g id="a_node33"><a xlink:href="../../d0/dfc/classcommand_1_1_multi_turtle_command.html" target="_top" xlink:title="command.MultiTurtleCommand">
<polygon fill="white" stroke="black" points="162.5,-760.5 162.5,-779.5 329.5,-779.5 329.5,-760.5 162.5,-760.5"/>
<text text-anchor="middle" x="246" y="-767.5" font-family="Helvetica,sans-Serif" font-size="10.00">command.MultiTurtleCommand</text>
</a>
</g>
</g>
<!-- Node1&#45;&gt;Node33 -->
<g id="edge32" class="edge"><title>Node1&#45;&gt;Node33</title>
<path fill="none" stroke="midnightblue" d="M129.758,-758.1C140.386,-759.197 151.457,-760.341 162.351,-761.466"/>
<polygon fill="midnightblue" stroke="midnightblue" points="130.031,-754.61 119.725,-757.064 129.312,-761.573 130.031,-754.61"/>
</g>
<!-- Node35 -->
<g id="node35" class="node"><title>Node35</title>
<g id="a_node35"><a xlink:href="../../d2/d20/classcommand_1_1_natural_log_command.html" target="_top" xlink:title="command.NaturalLogCommand">
<polygon fill="white" stroke="black" points="160.5,-722.5 160.5,-741.5 331.5,-741.5 331.5,-722.5 160.5,-722.5"/>
<text text-anchor="middle" x="246" y="-729.5" font-family="Helvetica,sans-Serif" font-size="10.00">command.NaturalLogCommand</text>
</a>
</g>
</g>
<!-- Node1&#45;&gt;Node35 -->
<g id="edge34" class="edge"><title>Node1&#45;&gt;Node35</title>
<path fill="none" stroke="midnightblue" d="M129.911,-743.884C139.84,-742.859 150.152,-741.794 160.343,-740.742"/>
<polygon fill="midnightblue" stroke="midnightblue" points="129.312,-740.427 119.725,-744.936 130.031,-747.39 129.312,-740.427"/>
</g>
<!-- Node36 -->
<g id="node36" class="node"><title>Node36</title>
<g id="a_node36"><a xlink:href="../../dd/df6/classcommand_1_1_not_command.html" target="_top" xlink:title="command.NotCommand">
<polygon fill="white" stroke="black" points="178,-684.5 178,-703.5 314,-703.5 314,-684.5 178,-684.5"/>
<text text-anchor="middle" x="246" y="-691.5" font-family="Helvetica,sans-Serif" font-size="10.00">command.NotCommand</text>
</a>
</g>
</g>
<!-- Node1&#45;&gt;Node36 -->
<g id="edge35" class="edge"><title>Node1&#45;&gt;Node36</title>
<path fill="none" stroke="midnightblue" d="M91.4626,-737.275C109.87,-729.371 133.96,-719.707 156,-713 167.79,-709.412 180.657,-706.247 192.852,-703.579"/>
<polygon fill="midnightblue" stroke="midnightblue" points="89.9041,-734.136 82.1338,-741.338 92.6996,-740.554 89.9041,-734.136"/>
</g>
<!-- Node37 -->
<g id="node37" class="node"><title>Node37</title>
<g id="a_node37"><a xlink:href="../../d2/ded/classcommand_1_1_not_equal_command.html" target="_top" xlink:title="command.NotEqualCommand">
<polygon fill="white" stroke="black" points="165,-646.5 165,-665.5 327,-665.5 327,-646.5 165,-646.5"/>
<text text-anchor="middle" x="246" y="-653.5" font-family="Helvetica,sans-Serif" font-size="10.00">command.NotEqualCommand</text>
</a>
</g>
</g>
<!-- Node1&#45;&gt;Node37 -->
<g id="edge36" class="edge"><title>Node1&#45;&gt;Node37</title>
<path fill="none" stroke="midnightblue" d="M77.1753,-734.045C94.8701,-716.533 124.883,-689.746 156,-675 164.138,-671.143 173.065,-668.062 182.025,-665.603"/>
<polygon fill="midnightblue" stroke="midnightblue" points="74.4871,-731.786 69.9524,-741.361 79.4686,-736.704 74.4871,-731.786"/>
</g>
<!-- Node38 -->
<g id="node38" class="node"><title>Node38</title>
<g id="a_node38"><a xlink:href="../../d0/d08/classcommand_1_1_or_command.html" target="_top" xlink:title="command.OrCommand">
<polygon fill="white" stroke="black" points="181,-608.5 181,-627.5 311,-627.5 311,-608.5 181,-608.5"/>
<text text-anchor="middle" x="246" y="-615.5" font-family="Helvetica,sans-Serif" font-size="10.00">command.OrCommand</text>
</a>
</g>
</g>
<!-- Node1&#45;&gt;Node38 -->
<g id="edge37" class="edge"><title>Node1&#45;&gt;Node38</title>
<path fill="none" stroke="midnightblue" d="M71.0921,-732.401C86.0696,-706.677 116.692,-660.733 156,-637 163.574,-632.427 172.094,-628.945 180.782,-626.297"/>
<polygon fill="midnightblue" stroke="midnightblue" points="68.0032,-730.753 66.1323,-741.181 74.098,-734.196 68.0032,-730.753"/>
</g>
<!-- Node39 -->
<g id="node39" class="node"><title>Node39</title>
<g id="a_node39"><a xlink:href="../../dd/d99/classcommand_1_1_pen_down_command.html" target="_top" xlink:title="command.PenDownCommand">
<polygon fill="white" stroke="black" points="164.5,-570.5 164.5,-589.5 327.5,-589.5 327.5,-570.5 164.5,-570.5"/>
<text text-anchor="middle" x="246" y="-577.5" font-family="Helvetica,sans-Serif" font-size="10.00">command.PenDownCommand</text>
</a>
</g>
</g>
<!-- Node1&#45;&gt;Node39 -->
<g id="edge38" class="edge"><title>Node1&#45;&gt;Node39</title>
<path fill="none" stroke="midnightblue" d="M67.4497,-731.512C79.383,-698.652 108.148,-632.535 156,-599 161.434,-595.192 167.481,-592.122 173.793,-589.65"/>
<polygon fill="midnightblue" stroke="midnightblue" points="64.0295,-730.691 64.0448,-741.285 70.6399,-732.994 64.0295,-730.691"/>
</g>
<!-- Node40 -->
<g id="node40" class="node"><title>Node40</title>
<g id="a_node40"><a xlink:href="../../d7/dfe/classcommand_1_1_pen_up_command.html" target="_top" xlink:title="command.PenUpCommand">
<polygon fill="white" stroke="black" points="171,-532.5 171,-551.5 321,-551.5 321,-532.5 171,-532.5"/>
<text text-anchor="middle" x="246" y="-539.5" font-family="Helvetica,sans-Serif" font-size="10.00">command.PenUpCommand</text>
</a>
</g>
</g>
<!-- Node1&#45;&gt;Node40 -->
<g id="edge39" class="edge"><title>Node1&#45;&gt;Node40</title>
<path fill="none" stroke="midnightblue" d="M64.8986,-731.391C73.7286,-692.391 99.0761,-605.064 156,-561 160.873,-557.228 166.326,-554.165 172.07,-551.681"/>
<polygon fill="midnightblue" stroke="midnightblue" points="61.4617,-730.726 62.7927,-741.237 68.3069,-732.19 61.4617,-730.726"/>
</g>
<!-- Node41 -->
<g id="node41" class="node"><title>Node41</title>
<g id="a_node41"><a xlink:href="../../d4/d55/classcommand_1_1_pi_command.html" target="_top" xlink:title="command.PiCommand">
<polygon fill="white" stroke="black" points="182.5,-494.5 182.5,-513.5 309.5,-513.5 309.5,-494.5 182.5,-494.5"/>
<text text-anchor="middle" x="246" y="-501.5" font-family="Helvetica,sans-Serif" font-size="10.00">command.PiCommand</text>
</a>
</g>
</g>
<!-- Node1&#45;&gt;Node41 -->
<g id="edge40" class="edge"><title>Node1&#45;&gt;Node41</title>
<path fill="none" stroke="midnightblue" d="M63.1299,-731.273C69.0409,-686.724 89.849,-577.95 156,-523 163.535,-516.741 172.641,-512.399 182.114,-509.413"/>
<polygon fill="midnightblue" stroke="midnightblue" points="59.6351,-731.02 61.9049,-741.369 66.5841,-731.863 59.6351,-731.02"/>
</g>
<!-- Node42 -->
<g id="node42" class="node"><title>Node42</title>
<g id="a_node42"><a xlink:href="../../d5/da7/classcommand_1_1_power_command.html" target="_top" xlink:title="command.PowerCommand">
<polygon fill="white" stroke="black" points="172.5,-456.5 172.5,-475.5 319.5,-475.5 319.5,-456.5 172.5,-456.5"/>
<text text-anchor="middle" x="246" y="-463.5" font-family="Helvetica,sans-Serif" font-size="10.00">command.PowerCommand</text>
</a>
</g>
</g>
<!-- Node1&#45;&gt;Node42 -->
<g id="edge41" class="edge"><title>Node1&#45;&gt;Node42</title>
<path fill="none" stroke="midnightblue" d="M61.8015,-731.44C64.9392,-681.992 80.3497,-551.223 156,-485 160.874,-480.733 166.47,-477.346 172.431,-474.666"/>
<polygon fill="midnightblue" stroke="midnightblue" points="58.3055,-731.274 61.2691,-741.446 65.2956,-731.646 58.3055,-731.274"/>
</g>
<!-- Node43 -->
<g id="node43" class="node"><title>Node43</title>
<g id="a_node43"><a xlink:href="../../d2/db0/classcommand_1_1_random_command.html" target="_top" xlink:title="command.RandomCommand">
<polygon fill="white" stroke="black" points="167,-418.5 167,-437.5 325,-437.5 325,-418.5 167,-418.5"/>
<text text-anchor="middle" x="246" y="-425.5" font-family="Helvetica,sans-Serif" font-size="10.00">command.RandomCommand</text>
</a>
</g>
</g>
<!-- Node1&#45;&gt;Node43 -->
<g id="edge42" class="edge"><title>Node1&#45;&gt;Node43</title>
<path fill="none" stroke="midnightblue" d="M60.8004,-731.267C61.3918,-677.022 70.9198,-524.548 156,-447 160.087,-443.275 164.72,-440.213 169.673,-437.703"/>
<polygon fill="midnightblue" stroke="midnightblue" points="57.3005,-731.283 60.7858,-741.289 64.3005,-731.294 57.3005,-731.283"/>
</g>
<!-- Node44 -->
<g id="node44" class="node"><title>Node44</title>
<g id="a_node44"><a xlink:href="../../db/d34/classcommand_1_1_remainder_command.html" target="_top" xlink:title="command.RemainderCommand">
<polygon fill="white" stroke="black" points="161,-380.5 161,-399.5 331,-399.5 331,-380.5 161,-380.5"/>
<text text-anchor="middle" x="246" y="-387.5" font-family="Helvetica,sans-Serif" font-size="10.00">command.RemainderCommand</text>
</a>
</g>
</g>
<!-- Node1&#45;&gt;Node44 -->
<g id="edge43" class="edge"><title>Node1&#45;&gt;Node44</title>
<path fill="none" stroke="midnightblue" d="M63.806,-731.066C73.5136,-664.936 107.74,-454.419 156,-409 160.027,-405.21 164.616,-402.101 169.539,-399.558"/>
<polygon fill="midnightblue" stroke="midnightblue" points="60.2863,-730.952 62.3249,-741.349 67.2148,-731.95 60.2863,-730.952"/>
</g>
<!-- Node45 -->
<g id="node45" class="node"><title>Node45</title>
<g id="a_node45"><a xlink:href="../../da/ddd/classcommand_1_1_right_command.html" target="_top" xlink:title="command.RightCommand">
<polygon fill="white" stroke="black" points="174.5,-342.5 174.5,-361.5 317.5,-361.5 317.5,-342.5 174.5,-342.5"/>
<text text-anchor="middle" x="246" y="-349.5" font-family="Helvetica,sans-Serif" font-size="10.00">command.RightCommand</text>
</a>
</g>
</g>
<!-- Node1&#45;&gt;Node45 -->
<g id="edge44" class="edge"><title>Node1&#45;&gt;Node45</title>
<path fill="none" stroke="midnightblue" d="M63.2022,-731.188C71.4564,-660.527 102.834,-422.354 156,-371 161.227,-365.951 167.45,-362.103 174.141,-359.187"/>
<polygon fill="midnightblue" stroke="midnightblue" points="59.6967,-731.037 62.0389,-741.37 66.6515,-731.832 59.6967,-731.037"/>
</g>
<!-- Node46 -->
<g id="node46" class="node"><title>Node46</title>
<g id="a_node46"><a xlink:href="../../d9/d6c/classcommand_1_1_set_heading_command.html" target="_top" xlink:title="command.SetHeadingCommand">
<polygon fill="white" stroke="black" points="158.5,-304.5 158.5,-323.5 333.5,-323.5 333.5,-304.5 158.5,-304.5"/>
<text text-anchor="middle" x="246" y="-311.5" font-family="Helvetica,sans-Serif" font-size="10.00">command.SetHeadingCommand</text>
</a>
</g>
</g>
<!-- Node1&#45;&gt;Node46 -->
<g id="edge45" class="edge"><title>Node1&#45;&gt;Node46</title>
<path fill="none" stroke="midnightblue" d="M62.7218,-731.169C69.6476,-656.044 97.9353,-390.306 156,-333 159.823,-329.227 164.201,-326.12 168.918,-323.571"/>
<polygon fill="midnightblue" stroke="midnightblue" points="59.2315,-730.904 61.8229,-741.177 66.2035,-731.531 59.2315,-730.904"/>
</g>
<!-- Node47 -->
<g id="node47" class="node"><title>Node47</title>
<g id="a_node47"><a xlink:href="../../da/dcf/classcommand_1_1_set_pen_size_command.html" target="_top" xlink:title="command.SetPenSizeCommand">
<polygon fill="white" stroke="black" points="159.5,-266.5 159.5,-285.5 332.5,-285.5 332.5,-266.5 159.5,-266.5"/>
<text text-anchor="middle" x="246" y="-273.5" font-family="Helvetica,sans-Serif" font-size="10.00">command.SetPenSizeCommand</text>
</a>
</g>
</g>
<!-- Node1&#45;&gt;Node47 -->
<g id="edge46" class="edge"><title>Node1&#45;&gt;Node47</title>
<path fill="none" stroke="midnightblue" d="M62.2977,-731.446C67.938,-652.488 92.9351,-358.377 156,-295 159.678,-291.304 163.886,-288.245 168.427,-285.721"/>
<polygon fill="midnightblue" stroke="midnightblue" points="58.802,-731.264 61.6037,-741.481 65.7853,-731.747 58.802,-731.264"/>
</g>
<!-- Node48 -->
<g id="node48" class="node"><title>Node48</title>
<g id="a_node48"><a xlink:href="../../d7/dbf/classcommand_1_1_set_position_command.html" target="_top" xlink:title="command.SetPositionCommand">
<polygon fill="white" stroke="black" points="159.5,-228.5 159.5,-247.5 332.5,-247.5 332.5,-228.5 159.5,-228.5"/>
<text text-anchor="middle" x="246" y="-235.5" font-family="Helvetica,sans-Serif" font-size="10.00">command.SetPositionCommand</text>
</a>
</g>
</g>
<!-- Node1&#45;&gt;Node48 -->
<g id="edge47" class="edge"><title>Node1&#45;&gt;Node48</title>
<path fill="none" stroke="midnightblue" d="M61.9883,-730.901C66.5257,-647.048 88.1351,-326.259 156,-257 159.649,-253.276 163.836,-250.196 168.362,-247.657"/>
<polygon fill="midnightblue" stroke="midnightblue" points="58.4816,-730.941 61.4583,-741.109 65.4721,-731.304 58.4816,-730.941"/>
</g>
<!-- Node49 -->
<g id="node49" class="node"><title>Node49</title>
<g id="a_node49"><a xlink:href="../../d8/d00/classcommand_1_1_set_towards_command.html" target="_top" xlink:title="command.SetTowardsCommand">
<polygon fill="white" stroke="black" points="159.5,-190.5 159.5,-209.5 332.5,-209.5 332.5,-190.5 159.5,-190.5"/>
<text text-anchor="middle" x="246" y="-197.5" font-family="Helvetica,sans-Serif" font-size="10.00">command.SetTowardsCommand</text>
</a>
</g>
</g>
<!-- Node1&#45;&gt;Node49 -->
<g id="edge48" class="edge"><title>Node1&#45;&gt;Node49</title>
<path fill="none" stroke="midnightblue" d="M61.6822,-731.06C65.0904,-643.53 83.1299,-294.362 156,-219 159.624,-215.252 163.793,-212.154 168.306,-209.602"/>
<polygon fill="midnightblue" stroke="midnightblue" points="58.1786,-731.096 61.308,-741.219 65.1739,-731.354 58.1786,-731.096"/>
</g>
<!-- Node50 -->
<g id="node50" class="node"><title>Node50</title>
<g id="a_node50"><a xlink:href="../../d7/d3b/classcommand_1_1_show_turtle_command.html" target="_top" xlink:title="command.ShowTurtleCommand">
<polygon fill="white" stroke="black" points="161,-152.5 161,-171.5 331,-171.5 331,-152.5 161,-152.5"/>
<text text-anchor="middle" x="246" y="-159.5" font-family="Helvetica,sans-Serif" font-size="10.00">command.ShowTurtleCommand</text>
</a>
</g>
</g>
<!-- Node1&#45;&gt;Node50 -->
<g id="edge49" class="edge"><title>Node1&#45;&gt;Node50</title>
<path fill="none" stroke="midnightblue" d="M61.4148,-731.396C63.7431,-640.674 78.0572,-262.546 156,-181 159.603,-177.231 163.755,-174.118 168.256,-171.554"/>
<polygon fill="midnightblue" stroke="midnightblue" points="57.9154,-731.333 61.1778,-741.413 64.9135,-731.499 57.9154,-731.333"/>
</g>
<!-- Node51 -->
<g id="node51" class="node"><title>Node51</title>
<g id="a_node51"><a xlink:href="../../dd/d2b/classcommand_1_1_sine_command.html" target="_top" xlink:title="command.SineCommand">
<polygon fill="white" stroke="black" points="176,-114.5 176,-133.5 316,-133.5 316,-114.5 176,-114.5"/>
<text text-anchor="middle" x="246" y="-121.5" font-family="Helvetica,sans-Serif" font-size="10.00">command.SineCommand</text>
</a>
</g>
</g>
<!-- Node1&#45;&gt;Node51 -->
<g id="edge50" class="edge"><title>Node1&#45;&gt;Node51</title>
<path fill="none" stroke="midnightblue" d="M61.1971,-731.007C62.5529,-635.931 73.1787,-230.535 156,-143 161.538,-137.147 168.402,-132.872 175.843,-129.778"/>
<polygon fill="midnightblue" stroke="midnightblue" points="57.6946,-731.196 61.0712,-741.238 64.694,-731.282 57.6946,-731.196"/>
</g>
<!-- Node52 -->
<g id="node52" class="node"><title>Node52</title>
<g id="a_node52"><a xlink:href="../../d5/dd4/classcommand_1_1_tangent_command.html" target="_top" xlink:title="command.TangentCommand">
<polygon fill="white" stroke="black" points="168,-76.5 168,-95.5 324,-95.5 324,-76.5 168,-76.5"/>
<text text-anchor="middle" x="246" y="-83.5" font-family="Helvetica,sans-Serif" font-size="10.00">command.TangentCommand</text>
</a>
</g>
</g>
<!-- Node1&#45;&gt;Node52 -->
<g id="edge51" class="edge"><title>Node1&#45;&gt;Node52</title>
<path fill="none" stroke="midnightblue" d="M60.9954,-731.013C61.3932,-632.396 68.1759,-198.662 156,-105 159.458,-101.312 163.443,-98.2489 167.767,-95.7124"/>
<polygon fill="midnightblue" stroke="midnightblue" points="57.4953,-731.102 60.9736,-741.109 64.4953,-731.117 57.4953,-731.102"/>
</g>
<!-- Node53 -->
<g id="node53" class="node"><title>Node53</title>
<g id="a_node53"><a xlink:href="../../dc/db0/classcommand_1_1_x_coordinate_command.html" target="_top" xlink:title="command.XCoordinateCommand">
<polygon fill="white" stroke="black" points="158,-38.5 158,-57.5 334,-57.5 334,-38.5 158,-38.5"/>
<text text-anchor="middle" x="246" y="-45.5" font-family="Helvetica,sans-Serif" font-size="10.00">command.XCoordinateCommand</text>
</a>
</g>
</g>
<!-- Node1&#45;&gt;Node53 -->
<g id="edge52" class="edge"><title>Node1&#45;&gt;Node53</title>
<path fill="none" stroke="midnightblue" d="M60.8148,-730.821C60.3006,-628.366 63.223,-166.742 156,-67 159.443,-63.2981 163.417,-60.2247 167.733,-57.6807"/>
<polygon fill="midnightblue" stroke="midnightblue" points="57.3162,-731.049 60.8846,-741.025 64.316,-731.001 57.3162,-731.049"/>
</g>
<!-- Node54 -->
<g id="node54" class="node"><title>Node54</title>
<g id="a_node54"><a xlink:href="../../df/d85/classcommand_1_1_y_coordinate_command.html" target="_top" xlink:title="command.YCoordinateCommand">
<polygon fill="white" stroke="black" points="158,-0.5 158,-19.5 334,-19.5 334,-0.5 158,-0.5"/>
<text text-anchor="middle" x="246" y="-7.5" font-family="Helvetica,sans-Serif" font-size="10.00">command.YCoordinateCommand</text>
</a>
</g>
</g>
<!-- Node1&#45;&gt;Node54 -->
<g id="edge53" class="edge"><title>Node1&#45;&gt;Node54</title>
<path fill="none" stroke="midnightblue" d="M60.6595,-731.382C59.2591,-626.739 58.0297,-135.086 156,-29 159.43,-25.2857 163.393,-22.2031 167.703,-19.6524"/>
<polygon fill="midnightblue" stroke="midnightblue" points="57.1613,-731.532 60.8125,-741.478 64.1605,-731.426 57.1613,-731.532"/>
</g>
<!-- Node5 -->
<g id="node5" class="node"><title>Node5</title>
<g id="a_node5"><a xlink:href="../../dc/d8b/classcommand_1_1_difference_command.html" target="_top" xlink:title="command.DifferenceCommand">
<polygon fill="white" stroke="black" points="379.5,-1463.5 379.5,-1482.5 546.5,-1482.5 546.5,-1463.5 379.5,-1463.5"/>
<text text-anchor="middle" x="463" y="-1470.5" font-family="Helvetica,sans-Serif" font-size="10.00">command.DifferenceCommand</text>
</a>
</g>
</g>
<!-- Node4&#45;&gt;Node5 -->
<g id="edge4" class="edge"><title>Node4&#45;&gt;Node5</title>
<path fill="none" stroke="midnightblue" d="M313.087,-1427.97C320.901,-1430.01 328.69,-1432.35 336,-1435 353.007,-1441.17 354.986,-1447.85 372,-1454 382.363,-1457.75 393.678,-1460.85 404.678,-1463.39"/>
<polygon fill="midnightblue" stroke="midnightblue" points="313.757,-1424.53 303.211,-1425.54 312.085,-1431.33 313.757,-1424.53"/>
</g>
<!-- Node6 -->
<g id="node6" class="node"><title>Node6</title>
<g id="a_node6"><a xlink:href="../../d2/d0c/classcommand_1_1_product_command.html" target="_top" xlink:title="command.ProductCommand">
<polygon fill="white" stroke="black" points="385.5,-1425.5 385.5,-1444.5 540.5,-1444.5 540.5,-1425.5 385.5,-1425.5"/>
<text text-anchor="middle" x="463" y="-1432.5" font-family="Helvetica,sans-Serif" font-size="10.00">command.ProductCommand</text>
</a>
</g>
</g>
<!-- Node4&#45;&gt;Node6 -->
<g id="edge5" class="edge"><title>Node4&#45;&gt;Node6</title>
<path fill="none" stroke="midnightblue" d="M340.45,-1424.26C355.471,-1425.59 370.865,-1426.95 385.43,-1428.23"/>
<polygon fill="midnightblue" stroke="midnightblue" points="340.394,-1420.74 330.125,-1423.35 339.778,-1427.71 340.394,-1420.74"/>
</g>
<!-- Node7 -->
<g id="node7" class="node"><title>Node7</title>
<g id="a_node7"><a xlink:href="../../de/dd0/classcommand_1_1_quotient_command.html" target="_top" xlink:title="command.QuotientCommand">
<polygon fill="white" stroke="black" points="383,-1387.5 383,-1406.5 543,-1406.5 543,-1387.5 383,-1387.5"/>
<text text-anchor="middle" x="463" y="-1394.5" font-family="Helvetica,sans-Serif" font-size="10.00">command.QuotientCommand</text>
</a>
</g>
</g>
<!-- Node4&#45;&gt;Node7 -->
<g id="edge6" class="edge"><title>Node4&#45;&gt;Node7</title>
<path fill="none" stroke="midnightblue" d="M340.391,-1407.75C354.59,-1406.49 369.124,-1405.21 382.978,-1403.98"/>
<polygon fill="midnightblue" stroke="midnightblue" points="339.778,-1404.29 330.125,-1408.65 340.394,-1411.26 339.778,-1404.29"/>
</g>
<!-- Node8 -->
<g id="node8" class="node"><title>Node8</title>
<g id="a_node8"><a xlink:href="../../dc/dfa/classcommand_1_1_sum_command.html" target="_top" xlink:title="command.SumCommand">
<polygon fill="white" stroke="black" points="392.5,-1349.5 392.5,-1368.5 533.5,-1368.5 533.5,-1349.5 392.5,-1349.5"/>
<text text-anchor="middle" x="463" y="-1356.5" font-family="Helvetica,sans-Serif" font-size="10.00">command.SumCommand</text>
</a>
</g>
</g>
<!-- Node4&#45;&gt;Node8 -->
<g id="edge7" class="edge"><title>Node4&#45;&gt;Node8</title>
<path fill="none" stroke="midnightblue" d="M313.087,-1404.03C320.901,-1401.99 328.69,-1399.65 336,-1397 353.007,-1390.83 354.986,-1384.15 372,-1378 382.363,-1374.25 393.678,-1371.15 404.678,-1368.61"/>
<polygon fill="midnightblue" stroke="midnightblue" points="312.085,-1400.67 303.211,-1406.46 313.757,-1407.47 312.085,-1400.67"/>
</g>
<!-- Node19 -->
<g id="node19" class="node"><title>Node19</title>
<g id="a_node19"><a xlink:href="../../d6/d41/classcommand_1_1_if_command.html" target="_top" xlink:title="command.IfCommand">
<polygon fill="white" stroke="black" points="401,-1048.5 401,-1067.5 525,-1067.5 525,-1048.5 401,-1048.5"/>
<text text-anchor="middle" x="463" y="-1055.5" font-family="Helvetica,sans-Serif" font-size="10.00">command.IfCommand</text>
</a>
</g>
</g>
<!-- Node18&#45;&gt;Node19 -->
<g id="edge18" class="edge"><title>Node18&#45;&gt;Node19</title>
<path fill="none" stroke="midnightblue" d="M320.026,-1043.47C346.241,-1046.15 375.516,-1049.15 400.64,-1051.72"/>
<polygon fill="midnightblue" stroke="midnightblue" points="320.069,-1039.96 309.765,-1042.42 319.357,-1046.92 320.069,-1039.96"/>
</g>
<!-- Node20 -->
<g id="node20" class="node"><title>Node20</title>
<g id="a_node20"><a xlink:href="../../d4/de4/classcommand_1_1_if_else_command.html" target="_top" xlink:title="command.IfElseCommand">
<polygon fill="white" stroke="black" points="391.5,-1010.5 391.5,-1029.5 534.5,-1029.5 534.5,-1010.5 391.5,-1010.5"/>
<text text-anchor="middle" x="463" y="-1017.5" font-family="Helvetica,sans-Serif" font-size="10.00">command.IfElseCommand</text>
</a>
</g>
</g>
<!-- Node18&#45;&gt;Node20 -->
<g id="edge19" class="edge"><title>Node18&#45;&gt;Node20</title>
<path fill="none" stroke="midnightblue" d="M319.827,-1030.58C342.881,-1028.86 368.318,-1026.97 391.226,-1025.27"/>
<polygon fill="midnightblue" stroke="midnightblue" points="319.478,-1027.1 309.765,-1031.33 319.997,-1034.08 319.478,-1027.1"/>
</g>
<!-- Node26 -->
<g id="node26" class="node"><title>Node26</title>
<g id="a_node26"><a xlink:href="../../db/d24/classcommand_1_1_ask_command.html" target="_top" xlink:title="command.AskCommand">
<polygon fill="white" stroke="black" points="395,-956.5 395,-975.5 531,-975.5 531,-956.5 395,-956.5"/>
<text text-anchor="middle" x="463" y="-963.5" font-family="Helvetica,sans-Serif" font-size="10.00">command.AskCommand</text>
</a>
</g>
</g>
<!-- Node25&#45;&gt;Node26 -->
<g id="edge25" class="edge"><title>Node25&#45;&gt;Node26</title>
<path fill="none" stroke="midnightblue" d="M326.375,-858.527C329.774,-860.415 333.007,-862.561 336,-865 366.856,-890.142 341.116,-921.893 372,-947 378.691,-952.44 386.564,-956.43 394.823,-959.34"/>
<polygon fill="midnightblue" stroke="midnightblue" points="327.574,-855.223 317.038,-854.112 324.582,-861.551 327.574,-855.223"/>
</g>
<!-- Node27 -->
<g id="node27" class="node"><title>Node27</title>
<g id="a_node27"><a xlink:href="../../da/dfa/classcommand_1_1_do_times_command.html" target="_top" xlink:title="command.DoTimesCommand">
<polygon fill="white" stroke="black" points="382.5,-918.5 382.5,-937.5 543.5,-937.5 543.5,-918.5 382.5,-918.5"/>
<text text-anchor="middle" x="463" y="-925.5" font-family="Helvetica,sans-Serif" font-size="10.00">command.DoTimesCommand</text>
</a>
</g>
</g>
<!-- Node25&#45;&gt;Node27 -->
<g id="edge26" class="edge"><title>Node25&#45;&gt;Node27</title>
<path fill="none" stroke="midnightblue" d="M325.071,-859.33C328.865,-861.004 332.533,-862.885 336,-865 357.571,-878.157 350.414,-895.867 372,-909 378.412,-912.901 385.503,-916.01 392.808,-918.487"/>
<polygon fill="midnightblue" stroke="midnightblue" points="326.014,-855.941 315.425,-855.582 323.479,-862.466 326.014,-855.941"/>
</g>
<!-- Node28 -->
<g id="node28" class="node"><title>Node28</title>
<g id="a_node28"><a xlink:href="../../dc/d6b/classcommand_1_1_for_command.html" target="_top" xlink:title="command.ForCommand">
<polygon fill="white" stroke="black" points="396,-880.5 396,-899.5 530,-899.5 530,-880.5 396,-880.5"/>
<text text-anchor="middle" x="463" y="-887.5" font-family="Helvetica,sans-Serif" font-size="10.00">command.ForCommand</text>
</a>
</g>
</g>
<!-- Node25&#45;&gt;Node28 -->
<g id="edge27" class="edge"><title>Node25&#45;&gt;Node28</title>
<path fill="none" stroke="midnightblue" d="M303.682,-857.6C338.532,-864.732 382.637,-873.758 415.439,-880.471"/>
<polygon fill="midnightblue" stroke="midnightblue" points="304.151,-854.123 293.652,-855.547 302.747,-860.981 304.151,-854.123"/>
</g>
<!-- Node29 -->
<g id="node29" class="node"><title>Node29</title>
<g id="a_node29"><a xlink:href="../../db/d15/classcommand_1_1_make_user_instruction_command.html" target="_top" xlink:title="command.MakeUserInstruction\lCommand">
<polygon fill="white" stroke="black" points="379.5,-831 379.5,-861 546.5,-861 546.5,-831 379.5,-831"/>
<text text-anchor="start" x="387.5" y="-849" font-family="Helvetica,sans-Serif" font-size="10.00">command.MakeUserInstruction</text>
<text text-anchor="middle" x="463" y="-838" font-family="Helvetica,sans-Serif" font-size="10.00">Command</text>
</a>
</g>
</g>
<!-- Node25&#45;&gt;Node29 -->
<g id="edge28" class="edge"><title>Node25&#45;&gt;Node29</title>
<path fill="none" stroke="midnightblue" d="M327.494,-846C344.408,-846 362.276,-846 379.271,-846"/>
<polygon fill="midnightblue" stroke="midnightblue" points="327.102,-842.5 317.102,-846 327.102,-849.5 327.102,-842.5"/>
</g>
<!-- Node30 -->
<g id="node30" class="node"><title>Node30</title>
<g id="a_node30"><a xlink:href="../../d4/d98/classcommand_1_1_make_variable_command.html" target="_top" xlink:title="command.MakeVariableCommand">
<polygon fill="white" stroke="black" points="372,-792.5 372,-811.5 554,-811.5 554,-792.5 372,-792.5"/>
<text text-anchor="middle" x="463" y="-799.5" font-family="Helvetica,sans-Serif" font-size="10.00">command.MakeVariableCommand</text>
</a>
</g>
</g>
<!-- Node25&#45;&gt;Node30 -->
<g id="edge29" class="edge"><title>Node25&#45;&gt;Node30</title>
<path fill="none" stroke="midnightblue" d="M303.682,-834.4C338.532,-827.268 382.637,-818.242 415.439,-811.529"/>
<polygon fill="midnightblue" stroke="midnightblue" points="302.747,-831.019 293.652,-836.453 304.151,-837.877 302.747,-831.019"/>
</g>
<!-- Node31 -->
<g id="node31" class="node"><title>Node31</title>
<g id="a_node31"><a xlink:href="../../d4/d11/classcommand_1_1_repeat_command.html" target="_top" xlink:title="command.RepeatCommand">
<polygon fill="white" stroke="black" points="387,-754.5 387,-773.5 539,-773.5 539,-754.5 387,-754.5"/>
<text text-anchor="middle" x="463" y="-761.5" font-family="Helvetica,sans-Serif" font-size="10.00">command.RepeatCommand</text>
</a>
</g>
</g>
<!-- Node25&#45;&gt;Node31 -->
<g id="edge30" class="edge"><title>Node25&#45;&gt;Node31</title>
<path fill="none" stroke="midnightblue" d="M325.071,-832.67C328.865,-830.996 332.533,-829.115 336,-827 357.571,-813.843 350.414,-796.133 372,-783 378.412,-779.099 385.503,-775.99 392.808,-773.513"/>
<polygon fill="midnightblue" stroke="midnightblue" points="323.479,-829.534 315.425,-836.418 326.014,-836.059 323.479,-829.534"/>
</g>
<!-- Node34 -->
<g id="node34" class="node"><title>Node34</title>
<g id="a_node34"><a xlink:href="../../d6/de2/classcommand_1_1_tell_command.html" target="_top" xlink:title="command.TellCommand">
<polygon fill="white" stroke="black" points="396.5,-716.5 396.5,-735.5 529.5,-735.5 529.5,-716.5 396.5,-716.5"/>
<text text-anchor="middle" x="463" y="-723.5" font-family="Helvetica,sans-Serif" font-size="10.00">command.TellCommand</text>
</a>
</g>
</g>
<!-- Node33&#45;&gt;Node34 -->
<g id="edge33" class="edge"><title>Node33&#45;&gt;Node34</title>
<path fill="none" stroke="midnightblue" d="M303.682,-758.4C338.532,-751.268 382.637,-742.242 415.439,-735.529"/>
<polygon fill="midnightblue" stroke="midnightblue" points="302.747,-755.019 293.652,-760.453 304.151,-761.877 302.747,-755.019"/>
</g>
</g>
</svg>
