<?xml version="1.0" encoding="UTF-8" standalone="no"?>
<!DOCTYPE svg PUBLIC "-//W3C//DTD SVG 1.1//EN"
 "http://www.w3.org/Graphics/SVG/1.1/DTD/svg11.dtd">
<!-- Generated by graphviz version 2.36.0 (20140111.2315)
 -->
<!-- Title: turtle.Turtle.animatedMove Pages: 1 -->
<svg width="810pt" height="38pt"
 viewBox="0.00 0.00 810.00 38.00" xmlns="http://www.w3.org/2000/svg" xmlns:xlink="http://www.w3.org/1999/xlink">
<g id="graph0" class="graph" transform="scale(1 1) rotate(0) translate(4 34)">
<title>turtle.Turtle.animatedMove</title>
<polygon fill="white" stroke="none" points="-4,4 -4,-34 806,-34 806,4 -4,4"/>
<!-- Node1 -->
<g id="node1" class="node"><title>Node1</title>
<polygon fill="#bfbfbf" stroke="black" points="0.5,-5.5 0.5,-24.5 145.5,-24.5 145.5,-5.5 0.5,-5.5"/>
<text text-anchor="middle" x="73" y="-12.5" font-family="Helvetica,sans-Serif" font-size="10.00">turtle.Turtle.animatedMove</text>
</g>
<!-- Node2 -->
<g id="node2" class="node"><title>Node2</title>
<g id="a_node2"><a xlink:href="../../d8/d08/classworld_controller_1_1_world_controller.html#a6158b4b98f36224f3e871c8a164a0137" target="_top" xlink:title="worldController.WorldController.make\lKeyFrame">
<polygon fill="white" stroke="black" points="182.5,-0 182.5,-30 373.5,-30 373.5,-0 182.5,-0"/>
<text text-anchor="start" x="190.5" y="-18" font-family="Helvetica,sans-Serif" font-size="10.00">worldController.WorldController.make</text>
<text text-anchor="middle" x="278" y="-7" font-family="Helvetica,sans-Serif" font-size="10.00">KeyFrame</text>
</a>
</g>
</g>
<!-- Node1&#45;&gt;Node2 -->
<g id="edge1" class="edge"><title>Node1&#45;&gt;Node2</title>
<path fill="none" stroke="midnightblue" d="M155.713,-15C164.447,-15 173.383,-15 182.251,-15"/>
<polygon fill="midnightblue" stroke="midnightblue" points="155.57,-11.5001 145.57,-15 155.57,-18.5001 155.57,-11.5001"/>
</g>
<!-- Node3 -->
<g id="node3" class="node"><title>Node3</title>
<g id="a_node3"><a xlink:href="../../d8/d08/classworld_controller_1_1_world_controller.html#a338b2d907598a400b7cbcfbb86550a71" target="_top" xlink:title="worldController.WorldController.make\lTimeline">
<polygon fill="white" stroke="black" points="410.5,-0 410.5,-30 601.5,-30 601.5,-0 410.5,-0"/>
<text text-anchor="start" x="418.5" y="-18" font-family="Helvetica,sans-Serif" font-size="10.00">worldController.WorldController.make</text>
<text text-anchor="middle" x="506" y="-7" font-family="Helvetica,sans-Serif" font-size="10.00">Timeline</text>
</a>
</g>
</g>
<!-- Node2&#45;&gt;Node3 -->
<g id="edge2" class="edge"><title>Node2&#45;&gt;Node3</title>
<path fill="none" stroke="midnightblue" d="M383.611,-15C392.572,-15 401.605,-15 410.48,-15"/>
<polygon fill="midnightblue" stroke="midnightblue" points="383.535,-11.5001 373.535,-15 383.535,-18.5001 383.535,-11.5001"/>
</g>
<!-- Node4 -->
<g id="node4" class="node"><title>Node4</title>
<g id="a_node4"><a xlink:href="../../d8/d08/classworld_controller_1_1_world_controller.html#a222090289a76ebd152bc9fe1b5db20ac" target="_top" xlink:title="worldController.WorldController.\lWorldController">
<polygon fill="white" stroke="black" points="638,-0 638,-30 802,-30 802,-0 638,-0"/>
<text text-anchor="start" x="646" y="-18" font-family="Helvetica,sans-Serif" font-size="10.00">worldController.WorldController.</text>
<text text-anchor="middle" x="720" y="-7" font-family="Helvetica,sans-Serif" font-size="10.00">WorldController</text>
</a>
</g>
</g>
<!-- Node3&#45;&gt;Node4 -->
<g id="edge3" class="edge"><title>Node3&#45;&gt;Node4</title>
<path fill="none" stroke="midnightblue" d="M611.812,-15C620.587,-15 629.373,-15 637.929,-15"/>
<polygon fill="midnightblue" stroke="midnightblue" points="611.53,-11.5001 601.53,-15 611.53,-18.5001 611.53,-11.5001"/>
</g>
</g>
</svg>
