<?xml version="1.0" encoding="UTF-8" standalone="no"?>
<!DOCTYPE svg PUBLIC "-//W3C//DTD SVG 1.1//EN"
 "http://www.w3.org/Graphics/SVG/1.1/DTD/svg11.dtd">
<!-- Generated by graphviz version 2.36.0 (20140111.2315)
 -->
<!-- Title: turtle.Turtle.updatePenAttributes Pages: 1 -->
<svg width="1312pt" height="38pt"
 viewBox="0.00 0.00 1312.00 38.00" xmlns="http://www.w3.org/2000/svg" xmlns:xlink="http://www.w3.org/1999/xlink">
<g id="graph0" class="graph" transform="scale(1 1) rotate(0) translate(4 34)">
<title>turtle.Turtle.updatePenAttributes</title>
<polygon fill="white" stroke="none" points="-4,4 -4,-34 1308,-34 1308,4 -4,4"/>
<!-- Node1 -->
<g id="node1" class="node"><title>Node1</title>
<polygon fill="#bfbfbf" stroke="black" points="0.5,-5.5 0.5,-24.5 173.5,-24.5 173.5,-5.5 0.5,-5.5"/>
<text text-anchor="middle" x="87" y="-12.5" font-family="Helvetica,sans-Serif" font-size="10.00">turtle.Turtle.updatePenAttributes</text>
</g>
<!-- Node2 -->
<g id="node2" class="node"><title>Node2</title>
<g id="a_node2"><a xlink:href="../../d8/d08/classworld_controller_1_1_world_controller.html#a178425d68e3e669c386706153ce44999" target="_top" xlink:title="worldController.WorldController.update">
<polygon fill="white" stroke="black" points="210,-5.5 210,-24.5 408,-24.5 408,-5.5 210,-5.5"/>
<text text-anchor="middle" x="309" y="-12.5" font-family="Helvetica,sans-Serif" font-size="10.00">worldController.WorldController.update</text>
</a>
</g>
</g>
<!-- Node1&#45;&gt;Node2 -->
<g id="edge1" class="edge"><title>Node1&#45;&gt;Node2</title>
<path fill="none" stroke="midnightblue" d="M183.744,-15C192.369,-15 201.112,-15 209.758,-15"/>
<polygon fill="midnightblue" stroke="midnightblue" points="183.688,-11.5001 173.688,-15 183.688,-18.5001 183.688,-11.5001"/>
</g>
<!-- Node3 -->
<g id="node3" class="node"><title>Node3</title>
<g id="a_node3"><a xlink:href="../../d0/d7c/classuser_interface_1_1_u_i.html#ab17592b00ba0b808f524b4fc223303ec" target="_top" xlink:title="userInterface.UI.runCommand">
<polygon fill="white" stroke="black" points="444.5,-5.5 444.5,-24.5 605.5,-24.5 605.5,-5.5 444.5,-5.5"/>
<text text-anchor="middle" x="525" y="-12.5" font-family="Helvetica,sans-Serif" font-size="10.00">userInterface.UI.runCommand</text>
</a>
</g>
</g>
<!-- Node2&#45;&gt;Node3 -->
<g id="edge2" class="edge"><title>Node2&#45;&gt;Node3</title>
<path fill="none" stroke="midnightblue" d="M418.451,-15C427.164,-15 435.863,-15 444.319,-15"/>
<polygon fill="midnightblue" stroke="midnightblue" points="418.231,-11.5001 408.231,-15 418.231,-18.5001 418.231,-11.5001"/>
</g>
<!-- Node4 -->
<g id="node4" class="node"><title>Node4</title>
<g id="a_node4"><a xlink:href="../../d0/d7c/classuser_interface_1_1_u_i.html#a02bd34909b5d6037ea8ebe812879b90a" target="_top" xlink:title="userInterface.UI.makeRun\lButton">
<polygon fill="white" stroke="black" points="642,-0 642,-30 782,-30 782,-0 642,-0"/>
<text text-anchor="start" x="650" y="-18" font-family="Helvetica,sans-Serif" font-size="10.00">userInterface.UI.makeRun</text>
<text text-anchor="middle" x="712" y="-7" font-family="Helvetica,sans-Serif" font-size="10.00">Button</text>
</a>
</g>
</g>
<!-- Node3&#45;&gt;Node4 -->
<g id="edge3" class="edge"><title>Node3&#45;&gt;Node4</title>
<path fill="none" stroke="midnightblue" d="M615.746,-15C624.477,-15 633.241,-15 641.726,-15"/>
<polygon fill="midnightblue" stroke="midnightblue" points="615.53,-11.5001 605.53,-15 615.53,-18.5001 615.53,-11.5001"/>
</g>
<!-- Node5 -->
<g id="node5" class="node"><title>Node5</title>
<g id="a_node5"><a xlink:href="../../d0/d7c/classuser_interface_1_1_u_i.html#a9f7eaa121e1405b45e262f03859f9ff0" target="_top" xlink:title="userInterface.UI.setUpCommand\lField">
<polygon fill="white" stroke="black" points="818,-0 818,-30 992,-30 992,-0 818,-0"/>
<text text-anchor="start" x="826" y="-18" font-family="Helvetica,sans-Serif" font-size="10.00">userInterface.UI.setUpCommand</text>
<text text-anchor="middle" x="905" y="-7" font-family="Helvetica,sans-Serif" font-size="10.00">Field</text>
</a>
</g>
</g>
<!-- Node4&#45;&gt;Node5 -->
<g id="edge4" class="edge"><title>Node4&#45;&gt;Node5</title>
<path fill="none" stroke="midnightblue" d="M792.345,-15C800.726,-15 809.277,-15 817.731,-15"/>
<polygon fill="midnightblue" stroke="midnightblue" points="792.225,-11.5001 782.225,-15 792.225,-18.5001 792.225,-11.5001"/>
</g>
<!-- Node6 -->
<g id="node6" class="node"><title>Node6</title>
<g id="a_node6"><a xlink:href="../../d0/d7c/classuser_interface_1_1_u_i.html#a3bbaba49b5a758cdab6fb4182e5dec4c" target="_top" xlink:title="userInterface.UI.initialize">
<polygon fill="white" stroke="black" points="1028,-5.5 1028,-24.5 1162,-24.5 1162,-5.5 1028,-5.5"/>
<text text-anchor="middle" x="1095" y="-12.5" font-family="Helvetica,sans-Serif" font-size="10.00">userInterface.UI.initialize</text>
</a>
</g>
</g>
<!-- Node5&#45;&gt;Node6 -->
<g id="edge5" class="edge"><title>Node5&#45;&gt;Node6</title>
<path fill="none" stroke="midnightblue" d="M1002.16,-15C1010.8,-15 1019.42,-15 1027.72,-15"/>
<polygon fill="midnightblue" stroke="midnightblue" points="1002.02,-11.5001 992.022,-15 1002.02,-18.5001 1002.02,-11.5001"/>
</g>
<!-- Node7 -->
<g id="node7" class="node"><title>Node7</title>
<g id="a_node7"><a xlink:href="../../d0/d7c/classuser_interface_1_1_u_i.html#aad82f35446d97cd94d5003a2b995e264" target="_top" xlink:title="userInterface.UI.UI">
<polygon fill="white" stroke="black" points="1198.5,-5.5 1198.5,-24.5 1303.5,-24.5 1303.5,-5.5 1198.5,-5.5"/>
<text text-anchor="middle" x="1251" y="-12.5" font-family="Helvetica,sans-Serif" font-size="10.00">userInterface.UI.UI</text>
</a>
</g>
</g>
<!-- Node6&#45;&gt;Node7 -->
<g id="edge6" class="edge"><title>Node6&#45;&gt;Node7</title>
<path fill="none" stroke="midnightblue" d="M1172.44,-15C1181.19,-15 1189.95,-15 1198.27,-15"/>
<polygon fill="midnightblue" stroke="midnightblue" points="1172.2,-11.5001 1162.2,-15 1172.2,-18.5001 1172.2,-11.5001"/>
</g>
</g>
</svg>
