<?xml version="1.0" encoding="UTF-8" standalone="no"?>
<!DOCTYPE svg PUBLIC "-//W3C//DTD SVG 1.1//EN"
 "http://www.w3.org/Graphics/SVG/1.1/DTD/svg11.dtd">
<!-- Generated by graphviz version 2.36.0 (20140111.2315)
 -->
<!-- Title: turtle.Turtle.atGoal Pages: 1 -->
<svg width="1126pt" height="53pt"
 viewBox="0.00 0.00 1126.00 53.00" xmlns="http://www.w3.org/2000/svg" xmlns:xlink="http://www.w3.org/1999/xlink">
<g id="graph0" class="graph" transform="scale(1 1) rotate(0) translate(4 49)">
<title>turtle.Turtle.atGoal</title>
<polygon fill="white" stroke="none" points="-4,4 -4,-49 1122,-49 1122,4 -4,4"/>
<!-- Node1 -->
<g id="node1" class="node"><title>Node1</title>
<polygon fill="#bfbfbf" stroke="black" points="0.5,-6.5 0.5,-25.5 105.5,-25.5 105.5,-6.5 0.5,-6.5"/>
<text text-anchor="middle" x="53" y="-13.5" font-family="Helvetica,sans-Serif" font-size="10.00">turtle.Turtle.atGoal</text>
</g>
<!-- Node2 -->
<g id="node2" class="node"><title>Node2</title>
<g id="a_node2"><a xlink:href="../../df/dcb/classturtle_1_1_turtle.html#a49bc6263dff19b97b012d9c2052e701d" target="_top" xlink:title="turtle.Turtle.findNextPoint">
<polygon fill="white" stroke="black" points="142.5,-6.5 142.5,-25.5 279.5,-25.5 279.5,-6.5 142.5,-6.5"/>
<text text-anchor="middle" x="211" y="-13.5" font-family="Helvetica,sans-Serif" font-size="10.00">turtle.Turtle.findNextPoint</text>
</a>
</g>
</g>
<!-- Node1&#45;&gt;Node2 -->
<g id="edge1" class="edge"><title>Node1&#45;&gt;Node2</title>
<path fill="none" stroke="midnightblue" d="M115.661,-16C124.444,-16 133.516,-16 142.405,-16"/>
<polygon fill="midnightblue" stroke="midnightblue" points="115.513,-12.5001 105.513,-16 115.513,-19.5001 115.513,-12.5001"/>
</g>
<!-- Node3 -->
<g id="node3" class="node"><title>Node3</title>
<g id="a_node3"><a xlink:href="../../df/dcb/classturtle_1_1_turtle.html#a7c0f37993844a70cdd57951ae4a916dd" target="_top" xlink:title="turtle.Turtle.animatedMove">
<polygon fill="white" stroke="black" points="316.5,-25.5 316.5,-44.5 461.5,-44.5 461.5,-25.5 316.5,-25.5"/>
<text text-anchor="middle" x="389" y="-32.5" font-family="Helvetica,sans-Serif" font-size="10.00">turtle.Turtle.animatedMove</text>
</a>
</g>
</g>
<!-- Node2&#45;&gt;Node3 -->
<g id="edge2" class="edge"><title>Node2&#45;&gt;Node3</title>
<path fill="none" stroke="midnightblue" d="M289.505,-24.367C298.4,-25.3273 307.44,-26.3032 316.255,-27.2548"/>
<polygon fill="midnightblue" stroke="midnightblue" points="289.861,-20.8852 279.543,-23.2916 289.109,-27.8447 289.861,-20.8852"/>
</g>
<!-- Node4 -->
<g id="node4" class="node"><title>Node4</title>
<g id="a_node4"><a xlink:href="../../d8/d08/classworld_controller_1_1_world_controller.html#a6158b4b98f36224f3e871c8a164a0137" target="_top" xlink:title="worldController.WorldController.make\lKeyFrame">
<polygon fill="white" stroke="black" points="498.5,-1 498.5,-31 689.5,-31 689.5,-1 498.5,-1"/>
<text text-anchor="start" x="506.5" y="-19" font-family="Helvetica,sans-Serif" font-size="10.00">worldController.WorldController.make</text>
<text text-anchor="middle" x="594" y="-8" font-family="Helvetica,sans-Serif" font-size="10.00">KeyFrame</text>
</a>
</g>
</g>
<!-- Node2&#45;&gt;Node4 -->
<g id="edge6" class="edge"><title>Node2&#45;&gt;Node4</title>
<path fill="none" stroke="midnightblue" d="M289.91,-16C350.287,-16 434.198,-16 498.425,-16"/>
<polygon fill="midnightblue" stroke="midnightblue" points="289.676,-12.5001 279.676,-16 289.676,-19.5001 289.676,-12.5001"/>
</g>
<!-- Node3&#45;&gt;Node4 -->
<g id="edge3" class="edge"><title>Node3&#45;&gt;Node4</title>
<path fill="none" stroke="midnightblue" d="M471.713,-27.352C480.447,-26.5346 489.383,-25.6981 498.251,-24.8681"/>
<polygon fill="midnightblue" stroke="midnightblue" points="471.2,-23.8846 461.57,-28.3013 471.853,-30.8541 471.2,-23.8846"/>
</g>
<!-- Node5 -->
<g id="node5" class="node"><title>Node5</title>
<g id="a_node5"><a xlink:href="../../d8/d08/classworld_controller_1_1_world_controller.html#a338b2d907598a400b7cbcfbb86550a71" target="_top" xlink:title="worldController.WorldController.make\lTimeline">
<polygon fill="white" stroke="black" points="726.5,-1 726.5,-31 917.5,-31 917.5,-1 726.5,-1"/>
<text text-anchor="start" x="734.5" y="-19" font-family="Helvetica,sans-Serif" font-size="10.00">worldController.WorldController.make</text>
<text text-anchor="middle" x="822" y="-8" font-family="Helvetica,sans-Serif" font-size="10.00">Timeline</text>
</a>
</g>
</g>
<!-- Node4&#45;&gt;Node5 -->
<g id="edge4" class="edge"><title>Node4&#45;&gt;Node5</title>
<path fill="none" stroke="midnightblue" d="M699.611,-16C708.572,-16 717.605,-16 726.48,-16"/>
<polygon fill="midnightblue" stroke="midnightblue" points="699.535,-12.5001 689.535,-16 699.535,-19.5001 699.535,-12.5001"/>
</g>
<!-- Node6 -->
<g id="node6" class="node"><title>Node6</title>
<g id="a_node6"><a xlink:href="../../d8/d08/classworld_controller_1_1_world_controller.html#a222090289a76ebd152bc9fe1b5db20ac" target="_top" xlink:title="worldController.WorldController.\lWorldController">
<polygon fill="white" stroke="black" points="954,-1 954,-31 1118,-31 1118,-1 954,-1"/>
<text text-anchor="start" x="962" y="-19" font-family="Helvetica,sans-Serif" font-size="10.00">worldController.WorldController.</text>
<text text-anchor="middle" x="1036" y="-8" font-family="Helvetica,sans-Serif" font-size="10.00">WorldController</text>
</a>
</g>
</g>
<!-- Node5&#45;&gt;Node6 -->
<g id="edge5" class="edge"><title>Node5&#45;&gt;Node6</title>
<path fill="none" stroke="midnightblue" d="M927.812,-16C936.587,-16 945.373,-16 953.929,-16"/>
<polygon fill="midnightblue" stroke="midnightblue" points="927.53,-12.5001 917.53,-16 927.53,-19.5001 927.53,-12.5001"/>
</g>
</g>
</svg>
