<?xml version="1.0" encoding="UTF-8" standalone="no"?>
<!DOCTYPE svg PUBLIC "-//W3C//DTD SVG 1.1//EN"
 "http://www.w3.org/Graphics/SVG/1.1/DTD/svg11.dtd">
<!-- Generated by graphviz version 2.36.0 (20140111.2315)
 -->
<!-- Title: turtle.Turtle.setHeading Pages: 1 -->
<svg width="386pt" height="126pt"
 viewBox="0.00 0.00 386.00 126.00" xmlns="http://www.w3.org/2000/svg" xmlns:xlink="http://www.w3.org/1999/xlink">
<g id="graph0" class="graph" transform="scale(1 1) rotate(0) translate(4 122)">
<title>turtle.Turtle.setHeading</title>
<polygon fill="white" stroke="none" points="-4,4 -4,-122 382,-122 382,4 -4,4"/>
<!-- Node1 -->
<g id="node1" class="node"><title>Node1</title>
<polygon fill="#bfbfbf" stroke="black" points="0,-54.5 0,-73.5 128,-73.5 128,-54.5 0,-54.5"/>
<text text-anchor="middle" x="64" y="-61.5" font-family="Helvetica,sans-Serif" font-size="10.00">turtle.Turtle.setHeading</text>
</g>
<!-- Node2 -->
<g id="node2" class="node"><title>Node2</title>
<g id="a_node2"><a xlink:href="../../d2/dda/classcommand_1_1_home_command.html#a04664da488af2aed3cbdca58bf5b72fd" target="_top" xlink:title="command.HomeCommand.doCommand">
<polygon fill="white" stroke="black" points="164.5,-98.5 164.5,-117.5 377.5,-117.5 377.5,-98.5 164.5,-98.5"/>
<text text-anchor="middle" x="271" y="-105.5" font-family="Helvetica,sans-Serif" font-size="10.00">command.HomeCommand.doCommand</text>
</a>
</g>
</g>
<!-- Node1&#45;&gt;Node2 -->
<g id="edge1" class="edge"><title>Node1&#45;&gt;Node2</title>
<path fill="none" stroke="midnightblue" d="M112.363,-76.0054C128.684,-80.0031 147.106,-84.3609 164,-88 181.026,-91.6675 199.671,-95.3097 216.511,-98.4611"/>
<polygon fill="midnightblue" stroke="midnightblue" points="113.052,-72.5705 102.504,-73.5725 111.374,-79.3666 113.052,-72.5705"/>
</g>
<!-- Node3 -->
<g id="node3" class="node"><title>Node3</title>
<g id="a_node3"><a xlink:href="../../d8/d00/classcommand_1_1_set_towards_command.html#a32809c89b1365d2b94d26f4504f8cf86" target="_top" xlink:title="command.SetTowardsCommand.do\lCommand">
<polygon fill="white" stroke="black" points="177,-49 177,-79 365,-79 365,-49 177,-49"/>
<text text-anchor="start" x="185" y="-67" font-family="Helvetica,sans-Serif" font-size="10.00">command.SetTowardsCommand.do</text>
<text text-anchor="middle" x="271" y="-56" font-family="Helvetica,sans-Serif" font-size="10.00">Command</text>
</a>
</g>
</g>
<!-- Node1&#45;&gt;Node3 -->
<g id="edge2" class="edge"><title>Node1&#45;&gt;Node3</title>
<path fill="none" stroke="midnightblue" d="M138.476,-64C150.929,-64 164.006,-64 176.883,-64"/>
<polygon fill="midnightblue" stroke="midnightblue" points="138.18,-60.5001 128.179,-64 138.179,-67.5001 138.18,-60.5001"/>
</g>
<!-- Node4 -->
<g id="node4" class="node"><title>Node4</title>
<g id="a_node4"><a xlink:href="../../d9/d6c/classcommand_1_1_set_heading_command.html#a9830cde4555ad15771b1cafc30425613" target="_top" xlink:title="command.SetHeadingCommand.do\lCommand">
<polygon fill="white" stroke="black" points="176,-0 176,-30 366,-30 366,-0 176,-0"/>
<text text-anchor="start" x="184" y="-18" font-family="Helvetica,sans-Serif" font-size="10.00">command.SetHeadingCommand.do</text>
<text text-anchor="middle" x="271" y="-7" font-family="Helvetica,sans-Serif" font-size="10.00">Command</text>
</a>
</g>
</g>
<!-- Node1&#45;&gt;Node4 -->
<g id="edge3" class="edge"><title>Node1&#45;&gt;Node4</title>
<path fill="none" stroke="midnightblue" d="M114.165,-52.0174C130.063,-48.1597 147.774,-43.8802 164,-40 177.608,-36.7459 192.206,-33.2841 206.084,-30.0066"/>
<polygon fill="midnightblue" stroke="midnightblue" points="112.905,-48.7216 104.013,-54.483 114.557,-55.5239 112.905,-48.7216"/>
</g>
</g>
</svg>
