<?xml version="1.0" encoding="UTF-8" standalone="no"?>
<!DOCTYPE svg PUBLIC "-//W3C//DTD SVG 1.1//EN"
 "http://www.w3.org/Graphics/SVG/1.1/DTD/svg11.dtd">
<!-- Generated by graphviz version 2.36.0 (20140111.2315)
 -->
<!-- Title: turtle.Turtle.radians Pages: 1 -->
<svg width="472pt" height="87pt"
 viewBox="0.00 0.00 472.00 87.00" xmlns="http://www.w3.org/2000/svg" xmlns:xlink="http://www.w3.org/1999/xlink">
<g id="graph0" class="graph" transform="scale(1 1) rotate(0) translate(4 83)">
<title>turtle.Turtle.radians</title>
<polygon fill="white" stroke="none" points="-4,4 -4,-83 468,-83 468,4 -4,4"/>
<!-- Node1 -->
<g id="node1" class="node"><title>Node1</title>
<polygon fill="#bfbfbf" stroke="black" points="0.5,-29.5 0.5,-48.5 109.5,-48.5 109.5,-29.5 0.5,-29.5"/>
<text text-anchor="middle" x="55" y="-36.5" font-family="Helvetica,sans-Serif" font-size="10.00">turtle.Turtle.radians</text>
</g>
<!-- Node2 -->
<g id="node2" class="node"><title>Node2</title>
<g id="a_node2"><a xlink:href="../../df/dcb/classturtle_1_1_turtle.html#a5384ad2c4daaf999e4b91b90c5d3a8f0" target="_top" xlink:title="turtle.Turtle.move">
<polygon fill="white" stroke="black" points="146.5,-29.5 146.5,-48.5 247.5,-48.5 247.5,-29.5 146.5,-29.5"/>
<text text-anchor="middle" x="197" y="-36.5" font-family="Helvetica,sans-Serif" font-size="10.00">turtle.Turtle.move</text>
</a>
</g>
</g>
<!-- Node1&#45;&gt;Node2 -->
<g id="edge1" class="edge"><title>Node1&#45;&gt;Node2</title>
<path fill="none" stroke="midnightblue" d="M120.004,-39C128.837,-39 137.799,-39 146.321,-39"/>
<polygon fill="midnightblue" stroke="midnightblue" points="119.727,-35.5001 109.727,-39 119.727,-42.5001 119.727,-35.5001"/>
</g>
<!-- Node3 -->
<g id="node3" class="node"><title>Node3</title>
<g id="a_node3"><a xlink:href="../../d2/d63/classcommand_1_1_backward_command.html#a3d461bc10870c420509630076728d9ed" target="_top" xlink:title="command.BackwardCommand.do\lCommand">
<polygon fill="white" stroke="black" points="284.5,-49 284.5,-79 463.5,-79 463.5,-49 284.5,-49"/>
<text text-anchor="start" x="292.5" y="-67" font-family="Helvetica,sans-Serif" font-size="10.00">command.BackwardCommand.do</text>
<text text-anchor="middle" x="374" y="-56" font-family="Helvetica,sans-Serif" font-size="10.00">Command</text>
</a>
</g>
</g>
<!-- Node2&#45;&gt;Node3 -->
<g id="edge2" class="edge"><title>Node2&#45;&gt;Node3</title>
<path fill="none" stroke="midnightblue" d="M257.633,-47.519C266.291,-48.7558 275.355,-50.0507 284.435,-51.3478"/>
<polygon fill="midnightblue" stroke="midnightblue" points="258.074,-44.0466 247.68,-46.0971 257.084,-50.9762 258.074,-44.0466"/>
</g>
<!-- Node4 -->
<g id="node4" class="node"><title>Node4</title>
<g id="a_node4"><a xlink:href="../../df/d28/classcommand_1_1_forward_command.html#a74aa9cd6e814627481e8eb1ace8d8c7f" target="_top" xlink:title="command.ForwardCommand.do\lCommand">
<polygon fill="white" stroke="black" points="288.5,-0 288.5,-30 459.5,-30 459.5,-0 288.5,-0"/>
<text text-anchor="start" x="296.5" y="-18" font-family="Helvetica,sans-Serif" font-size="10.00">command.ForwardCommand.do</text>
<text text-anchor="middle" x="374" y="-7" font-family="Helvetica,sans-Serif" font-size="10.00">Command</text>
</a>
</g>
</g>
<!-- Node2&#45;&gt;Node4 -->
<g id="edge3" class="edge"><title>Node2&#45;&gt;Node4</title>
<path fill="none" stroke="midnightblue" d="M257.767,-30.8034C267.653,-29.4476 278.066,-28.0196 288.423,-26.5991"/>
<polygon fill="midnightblue" stroke="midnightblue" points="257.112,-27.3604 247.68,-32.1868 258.063,-34.2955 257.112,-27.3604"/>
</g>
</g>
</svg>
