<?xml version="1.0" encoding="UTF-8" standalone="no"?>
<!DOCTYPE svg PUBLIC "-//W3C//DTD SVG 1.1//EN"
 "http://www.w3.org/Graphics/SVG/1.1/DTD/svg11.dtd">
<!-- Generated by graphviz version 2.36.0 (20140111.2315)
 -->
<!-- Title: turtle.Turtle.getID Pages: 1 -->
<svg width="346pt" height="104pt"
 viewBox="0.00 0.00 346.00 104.00" xmlns="http://www.w3.org/2000/svg" xmlns:xlink="http://www.w3.org/1999/xlink">
<g id="graph0" class="graph" transform="scale(1 1) rotate(0) translate(4 100)">
<title>turtle.Turtle.getID</title>
<polygon fill="white" stroke="none" points="-4,4 -4,-100 342,-100 342,4 -4,4"/>
<!-- Node1 -->
<g id="node1" class="node"><title>Node1</title>
<polygon fill="#bfbfbf" stroke="black" points="0.5,-38.5 0.5,-57.5 99.5,-57.5 99.5,-38.5 0.5,-38.5"/>
<text text-anchor="middle" x="50" y="-45.5" font-family="Helvetica,sans-Serif" font-size="10.00">turtle.Turtle.getID</text>
</g>
<!-- Node2 -->
<g id="node2" class="node"><title>Node2</title>
<g id="a_node2"><a xlink:href="../../d1/dea/classcommand_1_1_i_d_command.html#a9be089083af824dc2e4f2af20e342bd2" target="_top" xlink:title="command.IDCommand.doCommand">
<polygon fill="white" stroke="black" points="140,-76.5 140,-95.5 334,-95.5 334,-76.5 140,-76.5"/>
<text text-anchor="middle" x="237" y="-83.5" font-family="Helvetica,sans-Serif" font-size="10.00">command.IDCommand.doCommand</text>
</a>
</g>
</g>
<!-- Node1&#45;&gt;Node2 -->
<g id="edge1" class="edge"><title>Node1&#45;&gt;Node2</title>
<path fill="none" stroke="midnightblue" d="M102.409,-59.7706C113.475,-62.2261 125.116,-64.7502 136,-67 151.575,-70.2195 168.559,-73.5237 184.035,-76.455"/>
<polygon fill="midnightblue" stroke="midnightblue" points="102.969,-56.3094 92.4464,-57.5447 101.443,-63.141 102.969,-56.3094"/>
</g>
<!-- Node3 -->
<g id="node3" class="node"><title>Node3</title>
<g id="a_node3"><a xlink:href="../../d6/de2/classcommand_1_1_tell_command.html#af71c7ea182ee47846c6f79db21627bd3" target="_top" xlink:title="command.TellCommand.doCommand">
<polygon fill="white" stroke="black" points="138,-38.5 138,-57.5 336,-57.5 336,-38.5 138,-38.5"/>
<text text-anchor="middle" x="237" y="-45.5" font-family="Helvetica,sans-Serif" font-size="10.00">command.TellCommand.doCommand</text>
</a>
</g>
</g>
<!-- Node1&#45;&gt;Node3 -->
<g id="edge2" class="edge"><title>Node1&#45;&gt;Node3</title>
<path fill="none" stroke="midnightblue" d="M109.614,-48C118.688,-48 128.266,-48 137.926,-48"/>
<polygon fill="midnightblue" stroke="midnightblue" points="109.607,-44.5001 99.6066,-48 109.607,-51.5001 109.607,-44.5001"/>
</g>
<!-- Node4 -->
<g id="node4" class="node"><title>Node4</title>
<g id="a_node4"><a xlink:href="../../db/d24/classcommand_1_1_ask_command.html#a564f611b0bbe2a19ad88d7eba696de89" target="_top" xlink:title="command.AskCommand.doCommand">
<polygon fill="white" stroke="black" points="136.5,-0.5 136.5,-19.5 337.5,-19.5 337.5,-0.5 136.5,-0.5"/>
<text text-anchor="middle" x="237" y="-7.5" font-family="Helvetica,sans-Serif" font-size="10.00">command.AskCommand.doCommand</text>
</a>
</g>
</g>
<!-- Node1&#45;&gt;Node4 -->
<g id="edge3" class="edge"><title>Node1&#45;&gt;Node4</title>
<path fill="none" stroke="midnightblue" d="M102.409,-36.2294C113.475,-33.7739 125.116,-31.2498 136,-29 151.575,-25.7805 168.559,-22.4763 184.035,-19.545"/>
<polygon fill="midnightblue" stroke="midnightblue" points="101.443,-32.859 92.4464,-38.4553 102.969,-39.6906 101.443,-32.859"/>
</g>
</g>
</svg>
