<?xml version="1.0" encoding="UTF-8" standalone="no"?>
<!DOCTYPE svg PUBLIC "-//W3C//DTD SVG 1.1//EN"
 "http://www.w3.org/Graphics/SVG/1.1/DTD/svg11.dtd">
<!-- Generated by graphviz version 2.36.0 (20140111.2315)
 -->
<!-- Title: turtle.Turtle.getDirection Pages: 1 -->
<svg width="370pt" height="104pt"
 viewBox="0.00 0.00 370.00 104.00" xmlns="http://www.w3.org/2000/svg" xmlns:xlink="http://www.w3.org/1999/xlink">
<g id="graph0" class="graph" transform="scale(1 1) rotate(0) translate(4 100)">
<title>turtle.Turtle.getDirection</title>
<polygon fill="white" stroke="none" points="-4,4 -4,-100 366,-100 366,4 -4,4"/>
<!-- Node1 -->
<g id="node1" class="node"><title>Node1</title>
<polygon fill="#bfbfbf" stroke="black" points="0,-38.5 0,-57.5 132,-57.5 132,-38.5 0,-38.5"/>
<text text-anchor="middle" x="66" y="-45.5" font-family="Helvetica,sans-Serif" font-size="10.00">turtle.Turtle.getDirection</text>
</g>
<!-- Node2 -->
<g id="node2" class="node"><title>Node2</title>
<g id="a_node2"><a xlink:href="../../d8/d00/classcommand_1_1_set_towards_command.html#ab73f701db2b949b5ecf89a069f775c11" target="_top" xlink:title="command.SetTowardsCommand.run">
<polygon fill="white" stroke="black" points="169.5,-76.5 169.5,-95.5 360.5,-95.5 360.5,-76.5 169.5,-76.5"/>
<text text-anchor="middle" x="265" y="-83.5" font-family="Helvetica,sans-Serif" font-size="10.00">command.SetTowardsCommand.run</text>
</a>
</g>
</g>
<!-- Node1&#45;&gt;Node2 -->
<g id="edge1" class="edge"><title>Node1&#45;&gt;Node2</title>
<path fill="none" stroke="midnightblue" d="M126.564,-59.4894C154.672,-64.9114 187.822,-71.3058 214.523,-76.4561"/>
<polygon fill="midnightblue" stroke="midnightblue" points="126.939,-55.9974 116.457,-57.54 125.613,-62.8707 126.939,-55.9974"/>
</g>
<!-- Node3 -->
<g id="node3" class="node"><title>Node3</title>
<g id="a_node3"><a xlink:href="../../d9/da8/classcommand_1_1_heading_command.html#a7592910f61bb4db8ed2cc0e46ecf15d6" target="_top" xlink:title="command.HeadingCommand.run">
<polygon fill="white" stroke="black" points="176.5,-38.5 176.5,-57.5 353.5,-57.5 353.5,-38.5 176.5,-38.5"/>
<text text-anchor="middle" x="265" y="-45.5" font-family="Helvetica,sans-Serif" font-size="10.00">command.HeadingCommand.run</text>
</a>
</g>
</g>
<!-- Node1&#45;&gt;Node3 -->
<g id="edge2" class="edge"><title>Node1&#45;&gt;Node3</title>
<path fill="none" stroke="midnightblue" d="M142.134,-48C153.262,-48 164.812,-48 176.17,-48"/>
<polygon fill="midnightblue" stroke="midnightblue" points="142.051,-44.5001 132.051,-48 142.051,-51.5001 142.051,-44.5001"/>
</g>
<!-- Node4 -->
<g id="node4" class="node"><title>Node4</title>
<g id="a_node4"><a xlink:href="../../d9/d6c/classcommand_1_1_set_heading_command.html#a47d7241de6fe3bdda600f5658462ea82" target="_top" xlink:title="command.SetHeadingCommand.run">
<polygon fill="white" stroke="black" points="168,-0.5 168,-19.5 362,-19.5 362,-0.5 168,-0.5"/>
<text text-anchor="middle" x="265" y="-7.5" font-family="Helvetica,sans-Serif" font-size="10.00">command.SetHeadingCommand.run</text>
</a>
</g>
</g>
<!-- Node1&#45;&gt;Node4 -->
<g id="edge3" class="edge"><title>Node1&#45;&gt;Node4</title>
<path fill="none" stroke="midnightblue" d="M126.564,-36.5106C154.672,-31.0886 187.822,-24.6942 214.523,-19.5439"/>
<polygon fill="midnightblue" stroke="midnightblue" points="125.613,-33.1293 116.457,-38.46 126.939,-40.0026 125.613,-33.1293"/>
</g>
</g>
</svg>
