<?xml version="1.0" encoding="UTF-8" standalone="no"?>
<!DOCTYPE svg PUBLIC "-//W3C//DTD SVG 1.1//EN"
 "http://www.w3.org/Graphics/SVG/1.1/DTD/svg11.dtd">
<!-- Generated by graphviz version 2.36.0 (20140111.2315)
 -->
<!-- Title: turtle.Turtle.moveTo Pages: 1 -->
<svg width="346pt" height="66pt"
 viewBox="0.00 0.00 346.00 66.00" xmlns="http://www.w3.org/2000/svg" xmlns:xlink="http://www.w3.org/1999/xlink">
<g id="graph0" class="graph" transform="scale(1 1) rotate(0) translate(4 62)">
<title>turtle.Turtle.moveTo</title>
<polygon fill="white" stroke="none" points="-4,4 -4,-62 342,-62 342,4 -4,4"/>
<!-- Node1 -->
<g id="node1" class="node"><title>Node1</title>
<polygon fill="#bfbfbf" stroke="black" points="0,-19.5 0,-38.5 110,-38.5 110,-19.5 0,-19.5"/>
<text text-anchor="middle" x="55" y="-26.5" font-family="Helvetica,sans-Serif" font-size="10.00">turtle.Turtle.moveTo</text>
</g>
<!-- Node2 -->
<g id="node2" class="node"><title>Node2</title>
<g id="a_node2"><a xlink:href="../../d2/dda/classcommand_1_1_home_command.html#a8c6e1164b6de18fe5b541df23cfb9627" target="_top" xlink:title="command.HomeCommand.run">
<polygon fill="white" stroke="black" points="158.5,-38.5 158.5,-57.5 325.5,-57.5 325.5,-38.5 158.5,-38.5"/>
<text text-anchor="middle" x="242" y="-45.5" font-family="Helvetica,sans-Serif" font-size="10.00">command.HomeCommand.run</text>
</a>
</g>
</g>
<!-- Node1&#45;&gt;Node2 -->
<g id="edge1" class="edge"><title>Node1&#45;&gt;Node2</title>
<path fill="none" stroke="midnightblue" d="M120.164,-35.5898C132.49,-36.8557 145.559,-38.198 158.372,-39.5139"/>
<polygon fill="midnightblue" stroke="midnightblue" points="120.312,-32.0867 110.007,-34.5467 119.597,-39.0501 120.312,-32.0867"/>
</g>
<!-- Node3 -->
<g id="node3" class="node"><title>Node3</title>
<g id="a_node3"><a xlink:href="../../d7/dbf/classcommand_1_1_set_position_command.html#a16db122c0dc8f8141d1f0764aa66c165" target="_top" xlink:title="command.SetPositionCommand.run">
<polygon fill="white" stroke="black" points="146.5,-0.5 146.5,-19.5 337.5,-19.5 337.5,-0.5 146.5,-0.5"/>
<text text-anchor="middle" x="242" y="-7.5" font-family="Helvetica,sans-Serif" font-size="10.00">command.SetPositionCommand.run</text>
</a>
</g>
</g>
<!-- Node1&#45;&gt;Node3 -->
<g id="edge2" class="edge"><title>Node1&#45;&gt;Node3</title>
<path fill="none" stroke="midnightblue" d="M120.109,-22.4158C129.23,-21.4791 138.758,-20.5005 148.289,-19.5216"/>
<polygon fill="midnightblue" stroke="midnightblue" points="119.597,-18.9499 110.007,-23.4533 120.312,-25.9133 119.597,-18.9499"/>
</g>
</g>
</svg>
