<?xml version="1.0" encoding="UTF-8" standalone="no"?>
<!DOCTYPE svg PUBLIC "-//W3C//DTD SVG 1.1//EN"
 "http://www.w3.org/Graphics/SVG/1.1/DTD/svg11.dtd">
<!-- Generated by graphviz version 2.36.0 (20140111.2315)
 -->
<!-- Title: turtle.Turtle.drawLine Pages: 1 -->
<svg width="1398pt" height="87pt"
 viewBox="0.00 0.00 1398.00 87.00" xmlns="http://www.w3.org/2000/svg" xmlns:xlink="http://www.w3.org/1999/xlink">
<g id="graph0" class="graph" transform="scale(1 1) rotate(0) translate(4 83)">
<title>turtle.Turtle.drawLine</title>
<polygon fill="white" stroke="none" points="-4,4 -4,-83 1394,-83 1394,4 -4,4"/>
<!-- Node1 -->
<g id="node1" class="node"><title>Node1</title>
<polygon fill="#bfbfbf" stroke="black" points="0,-29.5 0,-48.5 116,-48.5 116,-29.5 0,-29.5"/>
<text text-anchor="middle" x="58" y="-36.5" font-family="Helvetica,sans-Serif" font-size="10.00">turtle.Turtle.drawLine</text>
</g>
<!-- Node2 -->
<g id="node2" class="node"><title>Node2</title>
<g id="a_node2"><a xlink:href="../../d8/d08/classworld_controller_1_1_world_controller.html#a9380abb3ed5334498510f1d6a88a826d" target="_top" xlink:title="worldController.WorldController.draw\lTurtle">
<polygon fill="white" stroke="black" points="152.5,-24 152.5,-54 339.5,-54 339.5,-24 152.5,-24"/>
<text text-anchor="start" x="160.5" y="-42" font-family="Helvetica,sans-Serif" font-size="10.00">worldController.WorldController.draw</text>
<text text-anchor="middle" x="246" y="-31" font-family="Helvetica,sans-Serif" font-size="10.00">Turtle</text>
</a>
</g>
</g>
<!-- Node1&#45;&gt;Node2 -->
<g id="edge1" class="edge"><title>Node1&#45;&gt;Node2</title>
<path fill="none" stroke="midnightblue" d="M126.269,-39C134.774,-39 143.59,-39 152.402,-39"/>
<polygon fill="midnightblue" stroke="midnightblue" points="126.07,-35.5001 116.07,-39 126.07,-42.5001 126.07,-35.5001"/>
</g>
<!-- Node3 -->
<g id="node3" class="node"><title>Node3</title>
<g id="a_node3"><a xlink:href="../../d8/d08/classworld_controller_1_1_world_controller.html#a178425d68e3e669c386706153ce44999" target="_top" xlink:title="worldController.WorldController.update">
<polygon fill="white" stroke="black" points="376,-29.5 376,-48.5 574,-48.5 574,-29.5 376,-29.5"/>
<text text-anchor="middle" x="475" y="-36.5" font-family="Helvetica,sans-Serif" font-size="10.00">worldController.WorldController.update</text>
</a>
</g>
</g>
<!-- Node2&#45;&gt;Node3 -->
<g id="edge2" class="edge"><title>Node2&#45;&gt;Node3</title>
<path fill="none" stroke="midnightblue" d="M349.753,-39C358.397,-39 367.125,-39 375.733,-39"/>
<polygon fill="midnightblue" stroke="midnightblue" points="349.657,-35.5001 339.657,-39 349.657,-42.5001 349.657,-35.5001"/>
</g>
<!-- Node4 -->
<g id="node4" class="node"><title>Node4</title>
<g id="a_node4"><a xlink:href="../../dd/d8e/classuser_interface_1_1_user_interface.html#a95e324c85888faea808be269e44ed5b8" target="_top" xlink:title="userInterface.UserInterface.run\lCommand">
<polygon fill="white" stroke="black" points="610,-24 610,-54 776,-54 776,-24 610,-24"/>
<text text-anchor="start" x="618" y="-42" font-family="Helvetica,sans-Serif" font-size="10.00">userInterface.UserInterface.run</text>
<text text-anchor="middle" x="693" y="-31" font-family="Helvetica,sans-Serif" font-size="10.00">Command</text>
</a>
</g>
</g>
<!-- Node3&#45;&gt;Node4 -->
<g id="edge3" class="edge"><title>Node3&#45;&gt;Node4</title>
<path fill="none" stroke="midnightblue" d="M584.29,-39C592.892,-39 601.492,-39 609.871,-39"/>
<polygon fill="midnightblue" stroke="midnightblue" points="584.203,-35.5001 574.203,-39 584.203,-42.5001 584.203,-35.5001"/>
</g>
<!-- Node5 -->
<g id="node5" class="node"><title>Node5</title>
<g id="a_node5"><a xlink:href="../../dd/d8e/classuser_interface_1_1_user_interface.html#a560c36977fddeee87002333870c54ed6" target="_top" xlink:title="userInterface.UserInterface.set\lUpResponses">
<polygon fill="white" stroke="black" points="1032.5,-49 1032.5,-79 1197.5,-79 1197.5,-49 1032.5,-49"/>
<text text-anchor="start" x="1040.5" y="-67" font-family="Helvetica,sans-Serif" font-size="10.00">userInterface.UserInterface.set</text>
<text text-anchor="middle" x="1115" y="-56" font-family="Helvetica,sans-Serif" font-size="10.00">UpResponses</text>
</a>
</g>
</g>
<!-- Node4&#45;&gt;Node5 -->
<g id="edge4" class="edge"><title>Node4&#45;&gt;Node5</title>
<path fill="none" stroke="midnightblue" d="M786.405,-44.5003C859.911,-48.8757 961.786,-54.9396 1032.33,-59.1386"/>
<polygon fill="midnightblue" stroke="midnightblue" points="786.418,-40.9949 776.227,-43.8945 786.002,-47.9826 786.418,-40.9949"/>
</g>
<!-- Node7 -->
<g id="node7" class="node"><title>Node7</title>
<g id="a_node7"><a xlink:href="../../dd/d8e/classuser_interface_1_1_user_interface.html#a4316649a1f81fcc1dcaf93c812bf6f3a" target="_top" xlink:title="userInterface.UserInterface.make\lRunButton">
<polygon fill="white" stroke="black" points="812.5,-2 812.5,-32 989.5,-32 989.5,-2 812.5,-2"/>
<text text-anchor="start" x="820.5" y="-20" font-family="Helvetica,sans-Serif" font-size="10.00">userInterface.UserInterface.make</text>
<text text-anchor="middle" x="901" y="-9" font-family="Helvetica,sans-Serif" font-size="10.00">RunButton</text>
</a>
</g>
</g>
<!-- Node4&#45;&gt;Node7 -->
<g id="edge6" class="edge"><title>Node4&#45;&gt;Node7</title>
<path fill="none" stroke="midnightblue" d="M786.121,-29.1618C794.789,-28.2361 803.561,-27.2994 812.187,-26.3781"/>
<polygon fill="midnightblue" stroke="midnightblue" points="785.58,-25.6996 776.009,-30.2418 786.324,-32.66 785.58,-25.6996"/>
</g>
<!-- Node6 -->
<g id="node6" class="node"><title>Node6</title>
<g id="a_node6"><a xlink:href="../../dd/d8e/classuser_interface_1_1_user_interface.html#af296b064499e62c4fbfbf73da6456532" target="_top" xlink:title="userInterface.UserInterface.\lUserInterface">
<polygon fill="white" stroke="black" points="1240,-24 1240,-54 1390,-54 1390,-24 1240,-24"/>
<text text-anchor="start" x="1248" y="-42" font-family="Helvetica,sans-Serif" font-size="10.00">userInterface.UserInterface.</text>
<text text-anchor="middle" x="1315" y="-31" font-family="Helvetica,sans-Serif" font-size="10.00">UserInterface</text>
</a>
</g>
</g>
<!-- Node5&#45;&gt;Node6 -->
<g id="edge5" class="edge"><title>Node5&#45;&gt;Node6</title>
<path fill="none" stroke="midnightblue" d="M1207.88,-52.3986C1218.58,-51.0478 1229.39,-49.683 1239.81,-48.3677"/>
<polygon fill="midnightblue" stroke="midnightblue" points="1207.16,-48.962 1197.68,-53.6872 1208.04,-55.9069 1207.16,-48.962"/>
</g>
<!-- Node8 -->
<g id="node8" class="node"><title>Node8</title>
<g id="a_node8"><a xlink:href="../../dd/d8e/classuser_interface_1_1_user_interface.html#a6d39ee7d7ae35fc0539bb714bce6221a" target="_top" xlink:title="userInterface.UserInterface.make\lFunctionButtons">
<polygon fill="white" stroke="black" points="1026.5,-0 1026.5,-30 1203.5,-30 1203.5,-0 1026.5,-0"/>
<text text-anchor="start" x="1034.5" y="-18" font-family="Helvetica,sans-Serif" font-size="10.00">userInterface.UserInterface.make</text>
<text text-anchor="middle" x="1115" y="-7" font-family="Helvetica,sans-Serif" font-size="10.00">FunctionButtons</text>
</a>
</g>
</g>
<!-- Node7&#45;&gt;Node8 -->
<g id="edge7" class="edge"><title>Node7&#45;&gt;Node8</title>
<path fill="none" stroke="midnightblue" d="M1000.01,-16.0754C1008.78,-15.9926 1017.63,-15.9092 1026.31,-15.8273"/>
<polygon fill="midnightblue" stroke="midnightblue" points="999.725,-12.5778 989.759,-16.1721 999.791,-19.5775 999.725,-12.5778"/>
</g>
<!-- Node8&#45;&gt;Node6 -->
<g id="edge8" class="edge"><title>Node8&#45;&gt;Node6</title>
<path fill="none" stroke="midnightblue" d="M1213.67,-26.8393C1222.52,-27.9113 1231.38,-28.985 1239.97,-30.0262"/>
<polygon fill="midnightblue" stroke="midnightblue" points="1214.06,-23.3604 1203.71,-25.6316 1213.22,-30.3095 1214.06,-23.3604"/>
</g>
</g>
</svg>
