<?xml version="1.0" encoding="UTF-8" standalone="no"?>
<!DOCTYPE svg PUBLIC "-//W3C//DTD SVG 1.1//EN"
 "http://www.w3.org/Graphics/SVG/1.1/DTD/svg11.dtd">
<!-- Generated by graphviz version 2.36.0 (20140111.2315)
 -->
<!-- Title: turtle.Turtle.act Pages: 1 -->
<svg width="1282pt" height="87pt"
 viewBox="0.00 0.00 1282.00 87.00" xmlns="http://www.w3.org/2000/svg" xmlns:xlink="http://www.w3.org/1999/xlink">
<g id="graph0" class="graph" transform="scale(1 1) rotate(0) translate(4 83)">
<title>turtle.Turtle.act</title>
<polygon fill="white" stroke="none" points="-4,4 -4,-83 1278,-83 1278,4 -4,4"/>
<!-- Node1 -->
<g id="node1" class="node"><title>Node1</title>
<polygon fill="#bfbfbf" stroke="black" points="0.5,-29.5 0.5,-48.5 89.5,-48.5 89.5,-29.5 0.5,-29.5"/>
<text text-anchor="middle" x="45" y="-36.5" font-family="Helvetica,sans-Serif" font-size="10.00">turtle.Turtle.act</text>
</g>
<!-- Node2 -->
<g id="node2" class="node"><title>Node2</title>
<g id="a_node2"><a xlink:href="../../d9/dd0/classworld_1_1_world.html#ae370733f7784c42741a6ba66c7d2ecf5" target="_top" xlink:title="world.World.listen">
<polygon fill="white" stroke="black" points="126,-29.5 126,-48.5 224,-48.5 224,-29.5 126,-29.5"/>
<text text-anchor="middle" x="175" y="-36.5" font-family="Helvetica,sans-Serif" font-size="10.00">world.World.listen</text>
</a>
</g>
</g>
<!-- Node1&#45;&gt;Node2 -->
<g id="edge1" class="edge"><title>Node1&#45;&gt;Node2</title>
<path fill="none" stroke="midnightblue" d="M99.9471,-39C108.488,-39 117.275,-39 125.677,-39"/>
<polygon fill="midnightblue" stroke="midnightblue" points="99.6924,-35.5001 89.6923,-39 99.6923,-42.5001 99.6924,-35.5001"/>
</g>
<!-- Node3 -->
<g id="node3" class="node"><title>Node3</title>
<g id="a_node3"><a xlink:href="../../d8/d08/classworld_controller_1_1_world_controller.html#a178425d68e3e669c386706153ce44999" target="_top" xlink:title="worldController.WorldController.update">
<polygon fill="white" stroke="black" points="260,-29.5 260,-48.5 458,-48.5 458,-29.5 260,-29.5"/>
<text text-anchor="middle" x="359" y="-36.5" font-family="Helvetica,sans-Serif" font-size="10.00">worldController.WorldController.update</text>
</a>
</g>
</g>
<!-- Node2&#45;&gt;Node3 -->
<g id="edge2" class="edge"><title>Node2&#45;&gt;Node3</title>
<path fill="none" stroke="midnightblue" d="M234.407,-39C242.579,-39 251.156,-39 259.82,-39"/>
<polygon fill="midnightblue" stroke="midnightblue" points="234.295,-35.5001 224.295,-39 234.295,-42.5001 234.295,-35.5001"/>
</g>
<!-- Node4 -->
<g id="node4" class="node"><title>Node4</title>
<g id="a_node4"><a xlink:href="../../dd/d8e/classuser_interface_1_1_user_interface.html#a95e324c85888faea808be269e44ed5b8" target="_top" xlink:title="userInterface.UserInterface.run\lCommand">
<polygon fill="white" stroke="black" points="494,-24 494,-54 660,-54 660,-24 494,-24"/>
<text text-anchor="start" x="502" y="-42" font-family="Helvetica,sans-Serif" font-size="10.00">userInterface.UserInterface.run</text>
<text text-anchor="middle" x="577" y="-31" font-family="Helvetica,sans-Serif" font-size="10.00">Command</text>
</a>
</g>
</g>
<!-- Node3&#45;&gt;Node4 -->
<g id="edge3" class="edge"><title>Node3&#45;&gt;Node4</title>
<path fill="none" stroke="midnightblue" d="M468.29,-39C476.892,-39 485.492,-39 493.871,-39"/>
<polygon fill="midnightblue" stroke="midnightblue" points="468.203,-35.5001 458.203,-39 468.203,-42.5001 468.203,-35.5001"/>
</g>
<!-- Node5 -->
<g id="node5" class="node"><title>Node5</title>
<g id="a_node5"><a xlink:href="../../dd/d8e/classuser_interface_1_1_user_interface.html#a560c36977fddeee87002333870c54ed6" target="_top" xlink:title="userInterface.UserInterface.set\lUpResponses">
<polygon fill="white" stroke="black" points="916.5,-49 916.5,-79 1081.5,-79 1081.5,-49 916.5,-49"/>
<text text-anchor="start" x="924.5" y="-67" font-family="Helvetica,sans-Serif" font-size="10.00">userInterface.UserInterface.set</text>
<text text-anchor="middle" x="999" y="-56" font-family="Helvetica,sans-Serif" font-size="10.00">UpResponses</text>
</a>
</g>
</g>
<!-- Node4&#45;&gt;Node5 -->
<g id="edge4" class="edge"><title>Node4&#45;&gt;Node5</title>
<path fill="none" stroke="midnightblue" d="M670.405,-44.5003C743.911,-48.8757 845.786,-54.9396 916.328,-59.1386"/>
<polygon fill="midnightblue" stroke="midnightblue" points="670.418,-40.9949 660.227,-43.8945 670.002,-47.9826 670.418,-40.9949"/>
</g>
<!-- Node7 -->
<g id="node7" class="node"><title>Node7</title>
<g id="a_node7"><a xlink:href="../../dd/d8e/classuser_interface_1_1_user_interface.html#a4316649a1f81fcc1dcaf93c812bf6f3a" target="_top" xlink:title="userInterface.UserInterface.make\lRunButton">
<polygon fill="white" stroke="black" points="696.5,-2 696.5,-32 873.5,-32 873.5,-2 696.5,-2"/>
<text text-anchor="start" x="704.5" y="-20" font-family="Helvetica,sans-Serif" font-size="10.00">userInterface.UserInterface.make</text>
<text text-anchor="middle" x="785" y="-9" font-family="Helvetica,sans-Serif" font-size="10.00">RunButton</text>
</a>
</g>
</g>
<!-- Node4&#45;&gt;Node7 -->
<g id="edge6" class="edge"><title>Node4&#45;&gt;Node7</title>
<path fill="none" stroke="midnightblue" d="M670.121,-29.1618C678.789,-28.2361 687.561,-27.2994 696.187,-26.3781"/>
<polygon fill="midnightblue" stroke="midnightblue" points="669.58,-25.6996 660.009,-30.2418 670.324,-32.66 669.58,-25.6996"/>
</g>
<!-- Node6 -->
<g id="node6" class="node"><title>Node6</title>
<g id="a_node6"><a xlink:href="../../dd/d8e/classuser_interface_1_1_user_interface.html#af296b064499e62c4fbfbf73da6456532" target="_top" xlink:title="userInterface.UserInterface.\lUserInterface">
<polygon fill="white" stroke="black" points="1124,-24 1124,-54 1274,-54 1274,-24 1124,-24"/>
<text text-anchor="start" x="1132" y="-42" font-family="Helvetica,sans-Serif" font-size="10.00">userInterface.UserInterface.</text>
<text text-anchor="middle" x="1199" y="-31" font-family="Helvetica,sans-Serif" font-size="10.00">UserInterface</text>
</a>
</g>
</g>
<!-- Node5&#45;&gt;Node6 -->
<g id="edge5" class="edge"><title>Node5&#45;&gt;Node6</title>
<path fill="none" stroke="midnightblue" d="M1091.88,-52.3986C1102.58,-51.0478 1113.39,-49.683 1123.81,-48.3677"/>
<polygon fill="midnightblue" stroke="midnightblue" points="1091.16,-48.962 1081.68,-53.6872 1092.04,-55.9069 1091.16,-48.962"/>
</g>
<!-- Node8 -->
<g id="node8" class="node"><title>Node8</title>
<g id="a_node8"><a xlink:href="../../dd/d8e/classuser_interface_1_1_user_interface.html#a6d39ee7d7ae35fc0539bb714bce6221a" target="_top" xlink:title="userInterface.UserInterface.make\lFunctionButtons">
<polygon fill="white" stroke="black" points="910.5,-0 910.5,-30 1087.5,-30 1087.5,-0 910.5,-0"/>
<text text-anchor="start" x="918.5" y="-18" font-family="Helvetica,sans-Serif" font-size="10.00">userInterface.UserInterface.make</text>
<text text-anchor="middle" x="999" y="-7" font-family="Helvetica,sans-Serif" font-size="10.00">FunctionButtons</text>
</a>
</g>
</g>
<!-- Node7&#45;&gt;Node8 -->
<g id="edge7" class="edge"><title>Node7&#45;&gt;Node8</title>
<path fill="none" stroke="midnightblue" d="M884.01,-16.0754C892.783,-15.9926 901.629,-15.9092 910.307,-15.8273"/>
<polygon fill="midnightblue" stroke="midnightblue" points="883.725,-12.5778 873.759,-16.1721 883.791,-19.5775 883.725,-12.5778"/>
</g>
<!-- Node8&#45;&gt;Node6 -->
<g id="edge8" class="edge"><title>Node8&#45;&gt;Node6</title>
<path fill="none" stroke="midnightblue" d="M1097.67,-26.8393C1106.52,-27.9113 1115.38,-28.985 1123.97,-30.0262"/>
<polygon fill="midnightblue" stroke="midnightblue" points="1098.06,-23.3604 1087.71,-25.6316 1097.22,-30.3095 1098.06,-23.3604"/>
</g>
</g>
</svg>
