<?xml version="1.0" encoding="UTF-8" standalone="no"?>
<!DOCTYPE svg PUBLIC "-//W3C//DTD SVG 1.1//EN"
 "http://www.w3.org/Graphics/SVG/1.1/DTD/svg11.dtd">
<!-- Generated by graphviz version 2.36.0 (20140111.2315)
 -->
<!-- Title: turtle.Turtle.act Pages: 1 -->
<svg width="728pt" height="104pt"
 viewBox="0.00 0.00 728.00 104.00" xmlns="http://www.w3.org/2000/svg" xmlns:xlink="http://www.w3.org/1999/xlink">
<g id="graph0" class="graph" transform="scale(1 1) rotate(0) translate(4 100)">
<title>turtle.Turtle.act</title>
<polygon fill="white" stroke="none" points="-4,4 -4,-100 724,-100 724,4 -4,4"/>
<!-- Node1 -->
<g id="node1" class="node"><title>Node1</title>
<polygon fill="#bfbfbf" stroke="black" points="0.5,-57.5 0.5,-76.5 89.5,-76.5 89.5,-57.5 0.5,-57.5"/>
<text text-anchor="middle" x="45" y="-64.5" font-family="Helvetica,sans-Serif" font-size="10.00">turtle.Turtle.act</text>
</g>
<!-- Node2 -->
<g id="node2" class="node"><title>Node2</title>
<g id="a_node2"><a xlink:href="../../d7/d35/classcommand_1_1_command.html#a66d04483ecf285dc068cdd6fa3dd0a39" target="_top" xlink:title="command.Command.run">
<polygon fill="white" stroke="black" points="126.5,-57.5 126.5,-76.5 263.5,-76.5 263.5,-57.5 126.5,-57.5"/>
<text text-anchor="middle" x="195" y="-64.5" font-family="Helvetica,sans-Serif" font-size="10.00">command.Command.run</text>
</a>
</g>
</g>
<!-- Node1&#45;&gt;Node2 -->
<g id="edge1" class="edge"><title>Node1&#45;&gt;Node2</title>
<path fill="none" stroke="midnightblue" d="M89.6044,-67C97.9678,-67 106.958,-67 116.028,-67"/>
<polygon fill="midnightblue" stroke="midnightblue" points="116.274,-70.5001 126.274,-67 116.274,-63.5001 116.274,-70.5001"/>
</g>
<!-- Node3 -->
<g id="node3" class="node"><title>Node3</title>
<g id="a_node3"><a xlink:href="../../d7/d35/classcommand_1_1_command.html#ade84c695f2d6aa1e11511700aa6d89dd" target="_top" xlink:title="command.Command.doCommand">
<polygon fill="white" stroke="black" points="300,-76.5 300,-95.5 484,-95.5 484,-76.5 300,-76.5"/>
<text text-anchor="middle" x="392" y="-83.5" font-family="Helvetica,sans-Serif" font-size="10.00">command.Command.doCommand</text>
</a>
</g>
</g>
<!-- Node2&#45;&gt;Node3 -->
<g id="edge2" class="edge"><title>Node2&#45;&gt;Node3</title>
<path fill="none" stroke="midnightblue" d="M263.654,-73.592C272.126,-74.4174 280.931,-75.2753 289.776,-76.1372"/>
<polygon fill="midnightblue" stroke="midnightblue" points="289.472,-79.6241 299.765,-77.1104 290.151,-72.657 289.472,-79.6241"/>
</g>
<!-- Node4 -->
<g id="node4" class="node"><title>Node4</title>
<g id="a_node4"><a xlink:href="../../d7/d35/classcommand_1_1_command.html#ace2304395e13775995811b94446e8bbc" target="_top" xlink:title="command.Command.update">
<polygon fill="white" stroke="black" points="314.5,-38.5 314.5,-57.5 469.5,-57.5 469.5,-38.5 314.5,-38.5"/>
<text text-anchor="middle" x="392" y="-45.5" font-family="Helvetica,sans-Serif" font-size="10.00">command.Command.update</text>
</a>
</g>
</g>
<!-- Node2&#45;&gt;Node4 -->
<g id="edge3" class="edge"><title>Node2&#45;&gt;Node4</title>
<path fill="none" stroke="midnightblue" d="M263.654,-60.408C276.715,-59.1354 290.567,-57.7858 304.14,-56.4633"/>
<polygon fill="midnightblue" stroke="midnightblue" points="304.834,-59.9123 314.448,-55.4589 304.156,-52.9453 304.834,-59.9123"/>
</g>
<!-- Node5 -->
<g id="node5" class="node"><title>Node5</title>
<g id="a_node5"><a xlink:href="../../d7/d35/classcommand_1_1_command.html#ae8029b25ed3f430063671ae6584b1a0f" target="_top" xlink:title="command.Command.updateColors">
<polygon fill="white" stroke="black" points="527.5,-76.5 527.5,-95.5 712.5,-95.5 712.5,-76.5 527.5,-76.5"/>
<text text-anchor="middle" x="620" y="-83.5" font-family="Helvetica,sans-Serif" font-size="10.00">command.Command.updateColors</text>
</a>
</g>
</g>
<!-- Node4&#45;&gt;Node5 -->
<g id="edge4" class="edge"><title>Node4&#45;&gt;Node5</title>
<path fill="none" stroke="midnightblue" d="M449.738,-57.54C480.902,-62.7799 519.731,-69.3088 552.336,-74.7909"/>
<polygon fill="midnightblue" stroke="midnightblue" points="551.797,-78.2494 562.239,-76.4561 552.958,-71.3463 551.797,-78.2494"/>
</g>
<!-- Node6 -->
<g id="node6" class="node"><title>Node6</title>
<g id="a_node6"><a xlink:href="../../d7/d35/classcommand_1_1_command.html#a92c3f31ef37574df9753a61e01c8daad" target="_top" xlink:title="command.Command.updateFunctions">
<polygon fill="white" stroke="black" points="520,-38.5 520,-57.5 720,-57.5 720,-38.5 520,-38.5"/>
<text text-anchor="middle" x="620" y="-45.5" font-family="Helvetica,sans-Serif" font-size="10.00">command.Command.updateFunctions</text>
</a>
</g>
</g>
<!-- Node4&#45;&gt;Node6 -->
<g id="edge5" class="edge"><title>Node4&#45;&gt;Node6</title>
<path fill="none" stroke="midnightblue" d="M469.513,-48C482.371,-48 495.934,-48 509.433,-48"/>
<polygon fill="midnightblue" stroke="midnightblue" points="509.729,-51.5001 519.729,-48 509.729,-44.5001 509.729,-51.5001"/>
</g>
<!-- Node7 -->
<g id="node7" class="node"><title>Node7</title>
<g id="a_node7"><a xlink:href="../../d7/d35/classcommand_1_1_command.html#ab9f5701138ce884edf93cd748febbe0d" target="_top" xlink:title="command.Command.updateVariables">
<polygon fill="white" stroke="black" points="520.5,-0.5 520.5,-19.5 719.5,-19.5 719.5,-0.5 520.5,-0.5"/>
<text text-anchor="middle" x="620" y="-7.5" font-family="Helvetica,sans-Serif" font-size="10.00">command.Command.updateVariables</text>
</a>
</g>
</g>
<!-- Node4&#45;&gt;Node7 -->
<g id="edge6" class="edge"><title>Node4&#45;&gt;Node7</title>
<path fill="none" stroke="midnightblue" d="M449.738,-38.46C480.902,-33.2201 519.731,-26.6912 552.336,-21.2091"/>
<polygon fill="midnightblue" stroke="midnightblue" points="552.958,-24.6537 562.239,-19.5439 551.797,-17.7506 552.958,-24.6537"/>
</g>
</g>
</svg>
