<?xml version="1.0" encoding="UTF-8" standalone="no"?>
<!DOCTYPE svg PUBLIC "-//W3C//DTD SVG 1.1//EN"
 "http://www.w3.org/Graphics/SVG/1.1/DTD/svg11.dtd">
<!-- Generated by graphviz version 2.36.0 (20140111.2315)
 -->
<!-- Title: turtle.Turtle.act Pages: 1 -->
<svg width="272pt" height="66pt"
 viewBox="0.00 0.00 272.00 66.00" xmlns="http://www.w3.org/2000/svg" xmlns:xlink="http://www.w3.org/1999/xlink">
<g id="graph0" class="graph" transform="scale(1 1) rotate(0) translate(4 62)">
<title>turtle.Turtle.act</title>
<polygon fill="white" stroke="none" points="-4,4 -4,-62 268,-62 268,4 -4,4"/>
<!-- Node1 -->
<g id="node1" class="node"><title>Node1</title>
<polygon fill="#bfbfbf" stroke="black" points="0.5,-19.5 0.5,-38.5 89.5,-38.5 89.5,-19.5 0.5,-19.5"/>
<text text-anchor="middle" x="45" y="-26.5" font-family="Helvetica,sans-Serif" font-size="10.00">turtle.Turtle.act</text>
</g>
<!-- Node2 -->
<g id="node2" class="node"><title>Node2</title>
<g id="a_node2"><a xlink:href="../../d7/d35/classcommand_1_1_command.html#a1de2ff02a0e6aa6553a129f9b14e6bb3" target="_top" xlink:title="command.Command.run">
<polygon fill="white" stroke="black" points="126.5,-38.5 126.5,-57.5 263.5,-57.5 263.5,-38.5 126.5,-38.5"/>
<text text-anchor="middle" x="195" y="-45.5" font-family="Helvetica,sans-Serif" font-size="10.00">command.Command.run</text>
</a>
</g>
</g>
<!-- Node1&#45;&gt;Node2 -->
<g id="edge1" class="edge"><title>Node1&#45;&gt;Node2</title>
<path fill="none" stroke="midnightblue" d="M89.6044,-34.5979C98.0578,-35.6831 107.152,-36.8505 116.321,-38.0277"/>
<polygon fill="midnightblue" stroke="midnightblue" points="115.909,-41.5035 126.274,-39.3054 116.801,-34.5605 115.909,-41.5035"/>
</g>
<!-- Node3 -->
<g id="node3" class="node"><title>Node3</title>
<g id="a_node3"><a xlink:href="../../df/dcb/classturtle_1_1_turtle.html#ae954e0c7f03c3bb4558761d04c34c1d3" target="_top" xlink:title="turtle.Turtle.truncate">
<polygon fill="white" stroke="black" points="138,-0.5 138,-19.5 252,-19.5 252,-0.5 138,-0.5"/>
<text text-anchor="middle" x="195" y="-7.5" font-family="Helvetica,sans-Serif" font-size="10.00">turtle.Turtle.truncate</text>
</a>
</g>
</g>
<!-- Node1&#45;&gt;Node3 -->
<g id="edge2" class="edge"><title>Node1&#45;&gt;Node3</title>
<path fill="none" stroke="midnightblue" d="M89.6044,-23.4021C101.513,-21.8733 114.693,-20.1813 127.564,-18.5289"/>
<polygon fill="midnightblue" stroke="midnightblue" points="128.317,-21.961 137.79,-17.2161 127.426,-15.018 128.317,-21.961"/>
</g>
</g>
</svg>
