<?xml version="1.0" encoding="UTF-8" standalone="no"?>
<!DOCTYPE svg PUBLIC "-//W3C//DTD SVG 1.1//EN"
 "http://www.w3.org/Graphics/SVG/1.1/DTD/svg11.dtd">
<!-- Generated by graphviz version 2.36.0 (20140111.2315)
 -->
<!-- Title: turtle.Turtle.setHeading Pages: 1 -->
<svg width="366pt" height="66pt"
 viewBox="0.00 0.00 366.00 66.00" xmlns="http://www.w3.org/2000/svg" xmlns:xlink="http://www.w3.org/1999/xlink">
<g id="graph0" class="graph" transform="scale(1 1) rotate(0) translate(4 62)">
<title>turtle.Turtle.setHeading</title>
<polygon fill="white" stroke="none" points="-4,4 -4,-62 362,-62 362,4 -4,4"/>
<!-- Node1 -->
<g id="node1" class="node"><title>Node1</title>
<polygon fill="#bfbfbf" stroke="black" points="0,-19.5 0,-38.5 128,-38.5 128,-19.5 0,-19.5"/>
<text text-anchor="middle" x="64" y="-26.5" font-family="Helvetica,sans-Serif" font-size="10.00">turtle.Turtle.setHeading</text>
</g>
<!-- Node2 -->
<g id="node2" class="node"><title>Node2</title>
<g id="a_node2"><a xlink:href="../../d9/d6c/classcommand_1_1_set_heading_command.html#a47d7241de6fe3bdda600f5658462ea82" target="_top" xlink:title="command.SetHeadingCommand.run">
<polygon fill="white" stroke="black" points="164,-38.5 164,-57.5 358,-57.5 358,-38.5 164,-38.5"/>
<text text-anchor="middle" x="261" y="-45.5" font-family="Helvetica,sans-Serif" font-size="10.00">command.SetHeadingCommand.run</text>
</a>
</g>
</g>
<!-- Node1&#45;&gt;Node2 -->
<g id="edge1" class="edge"><title>Node1&#45;&gt;Node2</title>
<path fill="none" stroke="midnightblue" d="M138.145,-36.127C146.548,-36.9457 155.209,-37.7896 163.855,-38.632"/>
<polygon fill="midnightblue" stroke="midnightblue" points="138.334,-32.6289 128.042,-35.1425 137.655,-39.5959 138.334,-32.6289"/>
</g>
<!-- Node3 -->
<g id="node3" class="node"><title>Node3</title>
<g id="a_node3"><a xlink:href="../../d6/d12/classcommand_1_1_towards_command.html#a10afa3aba0439c973ee5f2bfef79e24b" target="_top" xlink:title="command.TowardsCommand.run">
<polygon fill="white" stroke="black" points="173.5,-0.5 173.5,-19.5 348.5,-19.5 348.5,-0.5 173.5,-0.5"/>
<text text-anchor="middle" x="261" y="-7.5" font-family="Helvetica,sans-Serif" font-size="10.00">command.TowardsCommand.run</text>
</a>
</g>
</g>
<!-- Node1&#45;&gt;Node3 -->
<g id="edge2" class="edge"><title>Node1&#45;&gt;Node3</title>
<path fill="none" stroke="midnightblue" d="M138.035,-21.8838C149.57,-20.7599 161.593,-19.5884 173.4,-18.4379"/>
<polygon fill="midnightblue" stroke="midnightblue" points="137.655,-18.4041 128.042,-22.8575 138.334,-25.3711 137.655,-18.4041"/>
</g>
</g>
</svg>
