<?xml version="1.0" encoding="UTF-8" standalone="no"?>
<!DOCTYPE svg PUBLIC "-//W3C//DTD SVG 1.1//EN"
 "http://www.w3.org/Graphics/SVG/1.1/DTD/svg11.dtd">
<!-- Generated by graphviz version 2.36.0 (20140111.2315)
 -->
<!-- Title: world.World.listen Pages: 1 -->
<svg width="1466pt" height="498pt"
 viewBox="0.00 0.00 1466.00 498.00" xmlns="http://www.w3.org/2000/svg" xmlns:xlink="http://www.w3.org/1999/xlink">
<g id="graph0" class="graph" transform="scale(1 1) rotate(0) translate(4 494)">
<title>world.World.listen</title>
<polygon fill="white" stroke="none" points="-4,4 -4,-494 1462,-494 1462,4 -4,4"/>
<!-- Node1 -->
<g id="node1" class="node"><title>Node1</title>
<polygon fill="#bfbfbf" stroke="black" points="0,-271.5 0,-290.5 98,-290.5 98,-271.5 0,-271.5"/>
<text text-anchor="middle" x="49" y="-278.5" font-family="Helvetica,sans-Serif" font-size="10.00">world.World.listen</text>
</g>
<!-- Node2 -->
<g id="node2" class="node"><title>Node2</title>
<g id="a_node2"><a xlink:href="../../df/dcb/classturtle_1_1_turtle.html#aa53d992fb81cd039a22a301af9b32aba" target="_top" xlink:title="turtle.Turtle.act">
<polygon fill="white" stroke="black" points="189.5,-467.5 189.5,-486.5 278.5,-486.5 278.5,-467.5 189.5,-467.5"/>
<text text-anchor="middle" x="234" y="-474.5" font-family="Helvetica,sans-Serif" font-size="10.00">turtle.Turtle.act</text>
</a>
</g>
</g>
<!-- Node1&#45;&gt;Node2 -->
<g id="edge1" class="edge"><title>Node1&#45;&gt;Node2</title>
<path fill="none" stroke="midnightblue" d="M51.4642,-290.551C56.6014,-320.571 76.7054,-413.657 134,-458 146.829,-467.929 163.348,-473.159 179.202,-475.791"/>
<polygon fill="midnightblue" stroke="midnightblue" points="179.102,-479.309 189.478,-477.168 180.032,-472.371 179.102,-479.309"/>
</g>
<!-- Node4 -->
<g id="node4" class="node"><title>Node4</title>
<g id="a_node4"><a xlink:href="../../d3/d0c/classcommand_1_1_loop_command.html#a00fbe9457b4fbcf10374d777d567e50b" target="_top" xlink:title="command.LoopCommand.getEnd">
<polygon fill="white" stroke="black" points="144.5,-429.5 144.5,-448.5 323.5,-448.5 323.5,-429.5 144.5,-429.5"/>
<text text-anchor="middle" x="234" y="-436.5" font-family="Helvetica,sans-Serif" font-size="10.00">command.LoopCommand.getEnd</text>
</a>
</g>
</g>
<!-- Node1&#45;&gt;Node4 -->
<g id="edge3" class="edge"><title>Node1&#45;&gt;Node4</title>
<path fill="none" stroke="midnightblue" d="M52.7904,-290.661C60.7449,-316.348 86.1073,-386.64 134,-420 136.729,-421.901 139.597,-423.624 142.571,-425.185"/>
<polygon fill="midnightblue" stroke="midnightblue" points="141.219,-428.416 151.768,-429.401 144.136,-422.052 141.219,-428.416"/>
</g>
<!-- Node5 -->
<g id="node5" class="node"><title>Node5</title>
<g id="a_node5"><a xlink:href="../../d3/d0c/classcommand_1_1_loop_command.html#a38d345572574f40b34185027fed74590" target="_top" xlink:title="command.LoopCommand.getIncr">
<polygon fill="white" stroke="black" points="145,-391.5 145,-410.5 323,-410.5 323,-391.5 145,-391.5"/>
<text text-anchor="middle" x="234" y="-398.5" font-family="Helvetica,sans-Serif" font-size="10.00">command.LoopCommand.getIncr</text>
</a>
</g>
</g>
<!-- Node1&#45;&gt;Node5 -->
<g id="edge4" class="edge"><title>Node1&#45;&gt;Node5</title>
<path fill="none" stroke="midnightblue" d="M54.9935,-290.669C66.1306,-311.179 95.1143,-359.042 134,-382 137.688,-384.177 141.575,-386.112 145.589,-387.83"/>
<polygon fill="midnightblue" stroke="midnightblue" points="144.564,-391.184 155.155,-391.46 147.048,-384.64 144.564,-391.184"/>
</g>
<!-- Node6 -->
<g id="node6" class="node"><title>Node6</title>
<g id="a_node6"><a xlink:href="../../d3/d0c/classcommand_1_1_loop_command.html#acafb991a0b502838282d37c6d34d93ea" target="_top" xlink:title="command.LoopCommand.getStart">
<polygon fill="white" stroke="black" points="141.5,-353.5 141.5,-372.5 326.5,-372.5 326.5,-353.5 141.5,-353.5"/>
<text text-anchor="middle" x="234" y="-360.5" font-family="Helvetica,sans-Serif" font-size="10.00">command.LoopCommand.getStart</text>
</a>
</g>
</g>
<!-- Node1&#45;&gt;Node6 -->
<g id="edge5" class="edge"><title>Node1&#45;&gt;Node6</title>
<path fill="none" stroke="midnightblue" d="M59.8804,-290.85C74.6553,-304.971 103.993,-330.724 134,-344 139.777,-346.556 145.892,-348.769 152.137,-350.684"/>
<polygon fill="midnightblue" stroke="midnightblue" points="151.451,-354.127 162.025,-353.457 153.341,-347.387 151.451,-354.127"/>
</g>
<!-- Node7 -->
<g id="node7" class="node"><title>Node7</title>
<g id="a_node7"><a xlink:href="../../d3/d0c/classcommand_1_1_loop_command.html#a5b6c248f45758e6515fcc46e2eae4562" target="_top" xlink:title="command.LoopCommand.getVariable">
<polygon fill="white" stroke="black" points="134.5,-315.5 134.5,-334.5 333.5,-334.5 333.5,-315.5 134.5,-315.5"/>
<text text-anchor="middle" x="234" y="-322.5" font-family="Helvetica,sans-Serif" font-size="10.00">command.LoopCommand.getVariable</text>
</a>
</g>
</g>
<!-- Node1&#45;&gt;Node7 -->
<g id="edge6" class="edge"><title>Node1&#45;&gt;Node7</title>
<path fill="none" stroke="midnightblue" d="M81.3556,-290.595C97.0799,-295.244 116.464,-300.731 134,-305 146.233,-307.978 159.393,-310.859 171.996,-313.463"/>
<polygon fill="midnightblue" stroke="midnightblue" points="171.46,-316.926 181.957,-315.489 172.855,-310.066 171.46,-316.926"/>
</g>
<!-- Node8 -->
<g id="node8" class="node"><title>Node8</title>
<g id="a_node8"><a xlink:href="../../d6/d95/classparser_1_1_parser.html#a240c75608624a9c67402a296855c4d1d" target="_top" xlink:title="parser.Parser.initialize\lCommands">
<polygon fill="white" stroke="black" points="174,-266 174,-296 294,-296 294,-266 174,-266"/>
<text text-anchor="start" x="182" y="-284" font-family="Helvetica,sans-Serif" font-size="10.00">parser.Parser.initialize</text>
<text text-anchor="middle" x="234" y="-273" font-family="Helvetica,sans-Serif" font-size="10.00">Commands</text>
</a>
</g>
</g>
<!-- Node1&#45;&gt;Node8 -->
<g id="edge7" class="edge"><title>Node1&#45;&gt;Node8</title>
<path fill="none" stroke="midnightblue" d="M98.0811,-281C118.102,-281 141.733,-281 163.579,-281"/>
<polygon fill="midnightblue" stroke="midnightblue" points="163.802,-284.5 173.802,-281 163.802,-277.5 163.802,-284.5"/>
</g>
<!-- Node17 -->
<g id="node17" class="node"><title>Node17</title>
<g id="a_node17"><a xlink:href="../../d7/d35/classcommand_1_1_command.html#abab1a56440721aacda6f82ca3e3f761d" target="_top" xlink:title="command.Command.isLoop">
<polygon fill="white" stroke="black" points="158,-189.5 158,-208.5 310,-208.5 310,-189.5 158,-189.5"/>
<text text-anchor="middle" x="234" y="-196.5" font-family="Helvetica,sans-Serif" font-size="10.00">command.Command.isLoop</text>
</a>
</g>
</g>
<!-- Node1&#45;&gt;Node17 -->
<g id="edge16" class="edge"><title>Node1&#45;&gt;Node17</title>
<path fill="none" stroke="midnightblue" d="M59.8804,-271.15C74.6553,-257.029 103.993,-231.276 134,-218 139.777,-215.444 145.892,-213.231 152.137,-211.316"/>
<polygon fill="midnightblue" stroke="midnightblue" points="153.341,-214.613 162.025,-208.543 151.451,-207.873 153.341,-214.613"/>
</g>
<!-- Node18 -->
<g id="node18" class="node"><title>Node18</title>
<g id="a_node18"><a xlink:href="../../d6/d95/classparser_1_1_parser.html#a4ecbffc246c3add017c4720eed4c6da9" target="_top" xlink:title="parser.Parser.parse">
<polygon fill="white" stroke="black" points="179.5,-227.5 179.5,-246.5 288.5,-246.5 288.5,-227.5 179.5,-227.5"/>
<text text-anchor="middle" x="234" y="-234.5" font-family="Helvetica,sans-Serif" font-size="10.00">parser.Parser.parse</text>
</a>
</g>
</g>
<!-- Node1&#45;&gt;Node18 -->
<g id="edge17" class="edge"><title>Node1&#45;&gt;Node18</title>
<path fill="none" stroke="midnightblue" d="M79.3488,-271.483C95.3903,-266.48 115.671,-260.475 134,-256 145.423,-253.211 157.669,-250.578 169.52,-248.21"/>
<polygon fill="midnightblue" stroke="midnightblue" points="170.213,-251.641 179.355,-246.286 168.869,-244.771 170.213,-251.641"/>
</g>
<!-- Node36 -->
<g id="node36" class="node"><title>Node36</title>
<g id="a_node36"><a xlink:href="../../d3/d0c/classcommand_1_1_loop_command.html#ada1d22f47d490bc6dab4de647cc1f48c" target="_top" xlink:title="command.LoopCommand.read\lValues">
<polygon fill="white" stroke="black" points="150.5,-140 150.5,-170 317.5,-170 317.5,-140 150.5,-140"/>
<text text-anchor="start" x="158.5" y="-158" font-family="Helvetica,sans-Serif" font-size="10.00">command.LoopCommand.read</text>
<text text-anchor="middle" x="234" y="-147" font-family="Helvetica,sans-Serif" font-size="10.00">Values</text>
</a>
</g>
</g>
<!-- Node1&#45;&gt;Node36 -->
<g id="edge45" class="edge"><title>Node1&#45;&gt;Node36</title>
<path fill="none" stroke="midnightblue" d="M55.2712,-271.195C66.735,-250.849 95.9861,-203.949 134,-180 137.363,-177.881 140.896,-175.942 144.544,-174.167"/>
<polygon fill="midnightblue" stroke="midnightblue" points="146.075,-177.317 153.817,-170.084 143.254,-170.911 146.075,-177.317"/>
</g>
<!-- Node37 -->
<g id="node37" class="node"><title>Node37</title>
<g id="a_node37"><a xlink:href="../../d6/d95/classparser_1_1_parser.html#acebafe1593fc1f09ac31c7104438e4b1" target="_top" xlink:title="parser.Parser.resetRepcount">
<polygon fill="white" stroke="black" points="158.5,-76.5 158.5,-95.5 309.5,-95.5 309.5,-76.5 158.5,-76.5"/>
<text text-anchor="middle" x="234" y="-83.5" font-family="Helvetica,sans-Serif" font-size="10.00">parser.Parser.resetRepcount</text>
</a>
</g>
</g>
<!-- Node1&#45;&gt;Node37 -->
<g id="edge46" class="edge"><title>Node1&#45;&gt;Node37</title>
<path fill="none" stroke="midnightblue" d="M53.0173,-271.127C61.5352,-244.768 88.1718,-171.902 134,-130 149.178,-116.122 169.453,-106.072 187.7,-99.1115"/>
<polygon fill="midnightblue" stroke="midnightblue" points="189.078,-102.335 197.301,-95.654 186.706,-95.7494 189.078,-102.335"/>
</g>
<!-- Node39 -->
<g id="node39" class="node"><title>Node39</title>
<g id="a_node39"><a xlink:href="../../d6/d95/classparser_1_1_parser.html#a8679d61f4ae6c55910ef113bcdda2c75" target="_top" xlink:title="parser.Parser.updateVariable">
<polygon fill="white" stroke="black" points="157,-33.5 157,-52.5 311,-52.5 311,-33.5 157,-33.5"/>
<text text-anchor="middle" x="234" y="-40.5" font-family="Helvetica,sans-Serif" font-size="10.00">parser.Parser.updateVariable</text>
</a>
</g>
</g>
<!-- Node1&#45;&gt;Node39 -->
<g id="edge48" class="edge"><title>Node1&#45;&gt;Node39</title>
<path fill="none" stroke="midnightblue" d="M50.7531,-271.11C53.8969,-237.059 69.0326,-123.671 134,-67 138.61,-62.9783 143.783,-59.6053 149.281,-56.7791"/>
<polygon fill="midnightblue" stroke="midnightblue" points="151.1,-59.7994 158.799,-52.521 148.242,-53.4097 151.1,-59.7994"/>
</g>
<!-- Node3 -->
<g id="node3" class="node"><title>Node3</title>
<g id="a_node3"><a xlink:href="../../d7/d35/classcommand_1_1_command.html#a1de2ff02a0e6aa6553a129f9b14e6bb3" target="_top" xlink:title="command.Command.run">
<polygon fill="white" stroke="black" points="395.5,-467.5 395.5,-486.5 532.5,-486.5 532.5,-467.5 395.5,-467.5"/>
<text text-anchor="middle" x="464" y="-474.5" font-family="Helvetica,sans-Serif" font-size="10.00">command.Command.run</text>
</a>
</g>
</g>
<!-- Node2&#45;&gt;Node3 -->
<g id="edge2" class="edge"><title>Node2&#45;&gt;Node3</title>
<path fill="none" stroke="midnightblue" d="M278.691,-477C308.701,-477 349.376,-477 384.881,-477"/>
<polygon fill="midnightblue" stroke="midnightblue" points="385.228,-480.5 395.228,-477 385.228,-473.5 385.228,-480.5"/>
</g>
<!-- Node9 -->
<g id="node9" class="node"><title>Node9</title>
<g id="a_node9"><a xlink:href="../../d3/dcc/classparser_1_1_node.html#a9c12e8d4375a7517eae0a35724b253c4" target="_top" xlink:title="parser.Node.getValue">
<polygon fill="white" stroke="black" points="638,-328.5 638,-347.5 758,-347.5 758,-328.5 638,-328.5"/>
<text text-anchor="middle" x="698" y="-335.5" font-family="Helvetica,sans-Serif" font-size="10.00">parser.Node.getValue</text>
</a>
</g>
</g>
<!-- Node8&#45;&gt;Node9 -->
<g id="edge8" class="edge"><title>Node8&#45;&gt;Node9</title>
<path fill="none" stroke="midnightblue" d="M294.089,-293.469C307.405,-296.953 321.339,-301.14 334,-306 350.89,-312.483 352.529,-320.302 370,-325 456.632,-348.295 560.793,-347.799 627.905,-343.999"/>
<polygon fill="midnightblue" stroke="midnightblue" points="628.171,-347.489 637.941,-343.39 627.747,-340.502 628.171,-347.489"/>
</g>
<!-- Node10 -->
<g id="node10" class="node"><title>Node10</title>
<g id="a_node10"><a xlink:href="../../d6/d95/classparser_1_1_parser.html#a4f582c65390bddc57219c0b5c31ef5e7" target="_top" xlink:title="parser.Parser.makeTree">
<polygon fill="white" stroke="black" points="400,-372.5 400,-391.5 528,-391.5 528,-372.5 400,-372.5"/>
<text text-anchor="middle" x="464" y="-379.5" font-family="Helvetica,sans-Serif" font-size="10.00">parser.Parser.makeTree</text>
</a>
</g>
</g>
<!-- Node8&#45;&gt;Node10 -->
<g id="edge9" class="edge"><title>Node8&#45;&gt;Node10</title>
<path fill="none" stroke="midnightblue" d="M294.255,-288.674C308.132,-292.379 322.273,-297.868 334,-306 357.099,-322.018 346.943,-341.922 370,-358 376.347,-362.426 383.45,-366.036 390.824,-368.98"/>
<polygon fill="midnightblue" stroke="midnightblue" points="389.681,-372.288 400.275,-372.365 392.041,-365.698 389.681,-372.288"/>
</g>
<!-- Node11 -->
<g id="node11" class="node"><title>Node11</title>
<g id="a_node11"><a xlink:href="../../d9/d1b/classcommand_1_1_command_factory.html#a87bf7e648425bb22124367cabedb3327" target="_top" xlink:title="command.CommandFactory.get\lNumParameters">
<polygon fill="white" stroke="black" points="613,-367 613,-397 783,-397 783,-367 613,-367"/>
<text text-anchor="start" x="621" y="-385" font-family="Helvetica,sans-Serif" font-size="10.00">command.CommandFactory.get</text>
<text text-anchor="middle" x="698" y="-374" font-family="Helvetica,sans-Serif" font-size="10.00">NumParameters</text>
</a>
</g>
</g>
<!-- Node10&#45;&gt;Node11 -->
<g id="edge10" class="edge"><title>Node10&#45;&gt;Node11</title>
<path fill="none" stroke="midnightblue" d="M528.089,-382C550.967,-382 577.341,-382 602.344,-382"/>
<polygon fill="midnightblue" stroke="midnightblue" points="602.588,-385.5 612.588,-382 602.588,-378.5 602.588,-385.5"/>
</g>
<!-- Node13 -->
<g id="node13" class="node"><title>Node13</title>
<g id="a_node13"><a xlink:href="../../d9/d1b/classcommand_1_1_command_factory.html#a0fca3b89ecf4ce07546cd4dc0f3820ea" target="_top" xlink:title="command.CommandFactory.initialize\lLoopVariables">
<polygon fill="white" stroke="black" points="601.5,-416 601.5,-446 794.5,-446 794.5,-416 601.5,-416"/>
<text text-anchor="start" x="609.5" y="-434" font-family="Helvetica,sans-Serif" font-size="10.00">command.CommandFactory.initialize</text>
<text text-anchor="middle" x="698" y="-423" font-family="Helvetica,sans-Serif" font-size="10.00">LoopVariables</text>
</a>
</g>
</g>
<!-- Node10&#45;&gt;Node13 -->
<g id="edge12" class="edge"><title>Node10&#45;&gt;Node13</title>
<path fill="none" stroke="midnightblue" d="M510.007,-391.506C539.998,-397.84 580.277,-406.347 615.771,-413.844"/>
<polygon fill="midnightblue" stroke="midnightblue" points="615.135,-417.287 625.642,-415.929 616.581,-410.438 615.135,-417.287"/>
</g>
<!-- Node12 -->
<g id="node12" class="node"><title>Node12</title>
<g id="a_node12"><a xlink:href="../../d9/d1b/classcommand_1_1_command_factory.html#a947fdc151e857ea74564d0d1fe268246" target="_top" xlink:title="command.CommandFactory.translate\lCommand">
<polygon fill="white" stroke="black" points="838.5,-216 838.5,-246 1035.5,-246 1035.5,-216 838.5,-216"/>
<text text-anchor="start" x="846.5" y="-234" font-family="Helvetica,sans-Serif" font-size="10.00">command.CommandFactory.translate</text>
<text text-anchor="middle" x="937" y="-223" font-family="Helvetica,sans-Serif" font-size="10.00">Command</text>
</a>
</g>
</g>
<!-- Node11&#45;&gt;Node12 -->
<g id="edge11" class="edge"><title>Node11&#45;&gt;Node12</title>
<path fill="none" stroke="midnightblue" d="M779.001,-366.989C786.99,-364.199 794.8,-360.9 802,-357 850.557,-330.701 894.659,-282.437 918.167,-253.884"/>
<polygon fill="midnightblue" stroke="midnightblue" points="920.941,-256.02 924.511,-246.045 915.499,-251.616 920.941,-256.02"/>
</g>
<!-- Node14 -->
<g id="node14" class="node"><title>Node14</title>
<g id="a_node14"><a xlink:href="../../d9/d1b/classcommand_1_1_command_factory.html#a8227888e11d7f80629e7d855aa7894a8" target="_top" xlink:title="command.CommandFactory.check\lDotimes">
<polygon fill="white" stroke="black" points="846,-460 846,-490 1028,-490 1028,-460 846,-460"/>
<text text-anchor="start" x="854" y="-478" font-family="Helvetica,sans-Serif" font-size="10.00">command.CommandFactory.check</text>
<text text-anchor="middle" x="937" y="-467" font-family="Helvetica,sans-Serif" font-size="10.00">Dotimes</text>
</a>
</g>
</g>
<!-- Node13&#45;&gt;Node14 -->
<g id="edge13" class="edge"><title>Node13&#45;&gt;Node14</title>
<path fill="none" stroke="midnightblue" d="M779.899,-446.019C800.852,-449.909 823.555,-454.124 844.988,-458.103"/>
<polygon fill="midnightblue" stroke="midnightblue" points="844.593,-461.59 855.063,-459.974 845.87,-454.707 844.593,-461.59"/>
</g>
<!-- Node15 -->
<g id="node15" class="node"><title>Node15</title>
<g id="a_node15"><a xlink:href="../../d9/d1b/classcommand_1_1_command_factory.html#a5f698c7496a9d533d6350fac6c3ee567" target="_top" xlink:title="command.CommandFactory.checkFor">
<polygon fill="white" stroke="black" points="838.5,-421.5 838.5,-440.5 1035.5,-440.5 1035.5,-421.5 838.5,-421.5"/>
<text text-anchor="middle" x="937" y="-428.5" font-family="Helvetica,sans-Serif" font-size="10.00">command.CommandFactory.checkFor</text>
</a>
</g>
</g>
<!-- Node13&#45;&gt;Node15 -->
<g id="edge14" class="edge"><title>Node13&#45;&gt;Node15</title>
<path fill="none" stroke="midnightblue" d="M794.714,-431C805.73,-431 817.019,-431 828.181,-431"/>
<polygon fill="midnightblue" stroke="midnightblue" points="828.385,-434.5 838.385,-431 828.384,-427.5 828.385,-434.5"/>
</g>
<!-- Node16 -->
<g id="node16" class="node"><title>Node16</title>
<g id="a_node16"><a xlink:href="../../d9/d1b/classcommand_1_1_command_factory.html#afb06a581338dad8003d851d2d490fc5e" target="_top" xlink:title="command.CommandFactory.check\lRepeat">
<polygon fill="white" stroke="black" points="846,-372 846,-402 1028,-402 1028,-372 846,-372"/>
<text text-anchor="start" x="854" y="-390" font-family="Helvetica,sans-Serif" font-size="10.00">command.CommandFactory.check</text>
<text text-anchor="middle" x="937" y="-379" font-family="Helvetica,sans-Serif" font-size="10.00">Repeat</text>
</a>
</g>
</g>
<!-- Node13&#45;&gt;Node16 -->
<g id="edge15" class="edge"><title>Node13&#45;&gt;Node16</title>
<path fill="none" stroke="midnightblue" d="M779.899,-415.981C800.852,-412.091 823.555,-407.876 844.988,-403.897"/>
<polygon fill="midnightblue" stroke="midnightblue" points="845.87,-407.293 855.063,-402.026 844.593,-400.41 845.87,-407.293"/>
</g>
<!-- Node18&#45;&gt;Node10 -->
<g id="edge44" class="edge"><title>Node18&#45;&gt;Node10</title>
<path fill="none" stroke="midnightblue" d="M288.672,-238.524C304.486,-241.174 321.013,-246.335 334,-256 361.749,-276.65 346.399,-299.713 370,-325 387.211,-343.441 411.69,-358.123 431.214,-367.966"/>
<polygon fill="midnightblue" stroke="midnightblue" points="429.823,-371.181 440.347,-372.404 432.882,-364.885 429.823,-371.181"/>
</g>
<!-- Node19 -->
<g id="node19" class="node"><title>Node19</title>
<g id="a_node19"><a xlink:href="../../d9/d1b/classcommand_1_1_command_factory.html#ab25bb047b051661d31adf73b2dae5649" target="_top" xlink:title="command.CommandFactory.create\lCommand">
<polygon fill="white" stroke="black" points="371.5,-98 371.5,-128 556.5,-128 556.5,-98 371.5,-98"/>
<text text-anchor="start" x="379.5" y="-116" font-family="Helvetica,sans-Serif" font-size="10.00">command.CommandFactory.create</text>
<text text-anchor="middle" x="464" y="-105" font-family="Helvetica,sans-Serif" font-size="10.00">Command</text>
</a>
</g>
</g>
<!-- Node18&#45;&gt;Node19 -->
<g id="edge18" class="edge"><title>Node18&#45;&gt;Node19</title>
<path fill="none" stroke="midnightblue" d="M288.737,-235.938C304.643,-233.32 321.206,-228.061 334,-218 364.329,-194.148 340.686,-164.09 370,-139 372.406,-136.941 374.963,-135.044 377.637,-133.296"/>
<polygon fill="midnightblue" stroke="midnightblue" points="379.584,-136.214 386.525,-128.209 376.107,-130.139 379.584,-136.214"/>
</g>
<!-- Node27 -->
<g id="node27" class="node"><title>Node27</title>
<g id="a_node27"><a xlink:href="../../d6/d95/classparser_1_1_parser.html#aac1cff62f68138c7e977a67d39671701" target="_top" xlink:title="parser.Parser.generateCommand\lInput">
<polygon fill="white" stroke="black" points="376,-247 376,-277 552,-277 552,-247 376,-247"/>
<text text-anchor="start" x="384" y="-265" font-family="Helvetica,sans-Serif" font-size="10.00">parser.Parser.generateCommand</text>
<text text-anchor="middle" x="464" y="-254" font-family="Helvetica,sans-Serif" font-size="10.00">Input</text>
</a>
</g>
</g>
<!-- Node18&#45;&gt;Node27 -->
<g id="edge27" class="edge"><title>Node18&#45;&gt;Node27</title>
<path fill="none" stroke="midnightblue" d="M288.744,-242.893C311.742,-245.415 339.331,-248.44 365.701,-251.331"/>
<polygon fill="midnightblue" stroke="midnightblue" points="365.414,-254.821 375.736,-252.432 366.177,-247.862 365.414,-254.821"/>
</g>
<!-- Node31 -->
<g id="node31" class="node"><title>Node31</title>
<g id="a_node31"><a xlink:href="../../d6/d95/classparser_1_1_parser.html#a3efcd1192e76101919526b4a5e0046f4" target="_top" xlink:title="parser.Parser.getNodeBefore\lToReplace">
<polygon fill="white" stroke="black" points="386.5,-149 386.5,-179 541.5,-179 541.5,-149 386.5,-149"/>
<text text-anchor="start" x="394.5" y="-167" font-family="Helvetica,sans-Serif" font-size="10.00">parser.Parser.getNodeBefore</text>
<text text-anchor="middle" x="464" y="-156" font-family="Helvetica,sans-Serif" font-size="10.00">ToReplace</text>
</a>
</g>
</g>
<!-- Node18&#45;&gt;Node31 -->
<g id="edge32" class="edge"><title>Node18&#45;&gt;Node31</title>
<path fill="none" stroke="midnightblue" d="M288.707,-231.754C303.85,-228.944 320.001,-224.628 334,-218 352.824,-209.088 351.466,-197.5 370,-188 373.756,-186.075 377.679,-184.296 381.698,-182.652"/>
<polygon fill="midnightblue" stroke="midnightblue" points="383.099,-185.865 391.22,-179.061 380.628,-179.315 383.099,-185.865"/>
</g>
<!-- Node34 -->
<g id="node34" class="node"><title>Node34</title>
<g id="a_node34"><a xlink:href="../../d6/d95/classparser_1_1_parser.html#a447c473b62ba23b7c144df9bb38a9a41" target="_top" xlink:title="parser.Parser.getNodeFor\lCommand">
<polygon fill="white" stroke="black" points="395,-198 395,-228 533,-228 533,-198 395,-198"/>
<text text-anchor="start" x="403" y="-216" font-family="Helvetica,sans-Serif" font-size="10.00">parser.Parser.getNodeFor</text>
<text text-anchor="middle" x="464" y="-205" font-family="Helvetica,sans-Serif" font-size="10.00">Command</text>
</a>
</g>
</g>
<!-- Node18&#45;&gt;Node34 -->
<g id="edge37" class="edge"><title>Node18&#45;&gt;Node34</title>
<path fill="none" stroke="midnightblue" d="M288.744,-231.343C317.374,-228.329 353.12,-224.566 384.771,-221.235"/>
<polygon fill="midnightblue" stroke="midnightblue" points="385.311,-224.697 394.89,-220.169 384.578,-217.736 385.311,-224.697"/>
</g>
<!-- Node35 -->
<g id="node35" class="node"><title>Node35</title>
<g id="a_node35"><a xlink:href="../../d3/dcc/classparser_1_1_node.html#a066da2b478008f39a02440d7afceb9ee" target="_top" xlink:title="parser.Node.insertChild">
<polygon fill="white" stroke="black" points="400,-296.5 400,-315.5 528,-315.5 528,-296.5 400,-296.5"/>
<text text-anchor="middle" x="464" y="-303.5" font-family="Helvetica,sans-Serif" font-size="10.00">parser.Node.insertChild</text>
</a>
</g>
</g>
<!-- Node18&#45;&gt;Node35 -->
<g id="edge42" class="edge"><title>Node18&#45;&gt;Node35</title>
<path fill="none" stroke="midnightblue" d="M288.707,-242.246C303.85,-245.056 320.001,-249.372 334,-256 352.824,-264.912 351.276,-276.879 370,-286 376.185,-289.013 382.819,-291.574 389.593,-293.752"/>
<polygon fill="midnightblue" stroke="midnightblue" points="389.001,-297.226 399.582,-296.676 390.968,-290.508 389.001,-297.226"/>
</g>
<!-- Node19&#45;&gt;Node12 -->
<g id="edge26" class="edge"><title>Node19&#45;&gt;Node12</title>
<path fill="none" stroke="midnightblue" d="M556.559,-102.944C626.019,-98.698 722.741,-100.155 802,-129 847.615,-145.601 890.427,-183.573 914.884,-208.212"/>
<polygon fill="midnightblue" stroke="midnightblue" points="912.68,-210.967 922.16,-215.699 917.701,-206.088 912.68,-210.967"/>
</g>
<!-- Node20 -->
<g id="node20" class="node"><title>Node20</title>
<g id="a_node20"><a xlink:href="../../d9/d1b/classcommand_1_1_command_factory.html#a279e89b924975cea17afc7770530eabc" target="_top" xlink:title="command.CommandFactory.checkMake">
<polygon fill="white" stroke="black" points="594,-19.5 594,-38.5 802,-38.5 802,-19.5 594,-19.5"/>
<text text-anchor="middle" x="698" y="-26.5" font-family="Helvetica,sans-Serif" font-size="10.00">command.CommandFactory.checkMake</text>
</a>
</g>
</g>
<!-- Node19&#45;&gt;Node20 -->
<g id="edge19" class="edge"><title>Node19&#45;&gt;Node20</title>
<path fill="none" stroke="midnightblue" d="M536.088,-97.9843C543.711,-95.1841 551.169,-91.8837 558,-88 577.399,-76.9708 574.418,-63.7009 594,-53 602.701,-48.2455 612.314,-44.4289 622.067,-41.3661"/>
<polygon fill="midnightblue" stroke="midnightblue" points="623.2,-44.6821 631.838,-38.5478 621.26,-37.9562 623.2,-44.6821"/>
</g>
<!-- Node22 -->
<g id="node22" class="node"><title>Node22</title>
<g id="a_node22"><a xlink:href="../../d9/d1b/classcommand_1_1_command_factory.html#abd97ea3e22afc09e07ed1d4fd039d11f" target="_top" xlink:title="command.CommandFactory.reflectCMD">
<polygon fill="white" stroke="black" points="594.5,-62.5 594.5,-81.5 801.5,-81.5 801.5,-62.5 594.5,-62.5"/>
<text text-anchor="middle" x="698" y="-69.5" font-family="Helvetica,sans-Serif" font-size="10.00">command.CommandFactory.reflectCMD</text>
</a>
</g>
</g>
<!-- Node19&#45;&gt;Node22 -->
<g id="edge21" class="edge"><title>Node19&#45;&gt;Node22</title>
<path fill="none" stroke="midnightblue" d="M550.071,-97.9659C577.471,-93.1237 607.355,-87.8425 632.974,-83.3149"/>
<polygon fill="midnightblue" stroke="midnightblue" points="633.697,-86.7414 642.936,-81.5545 632.479,-79.8482 633.697,-86.7414"/>
</g>
<!-- Node21 -->
<g id="node21" class="node"><title>Node21</title>
<g id="a_node21"><a xlink:href="../../d9/d1b/classcommand_1_1_command_factory.html#a469ad48137c966b10612f72713a295f0" target="_top" xlink:title="command.CommandFactory.add\lVariable">
<polygon fill="white" stroke="black" points="850.5,-11 850.5,-41 1023.5,-41 1023.5,-11 850.5,-11"/>
<text text-anchor="start" x="858.5" y="-29" font-family="Helvetica,sans-Serif" font-size="10.00">command.CommandFactory.add</text>
<text text-anchor="middle" x="937" y="-18" font-family="Helvetica,sans-Serif" font-size="10.00">Variable</text>
</a>
</g>
</g>
<!-- Node20&#45;&gt;Node21 -->
<g id="edge20" class="edge"><title>Node20&#45;&gt;Node21</title>
<path fill="none" stroke="midnightblue" d="M802.262,-27.6929C814.834,-27.5338 827.638,-27.3717 840.096,-27.214"/>
<polygon fill="midnightblue" stroke="midnightblue" points="840.511,-30.7091 850.466,-27.0827 840.423,-23.7097 840.511,-30.7091"/>
</g>
<!-- Node23 -->
<g id="node23" class="node"><title>Node23</title>
<g id="a_node23"><a xlink:href="../../d9/d1b/classcommand_1_1_command_factory.html#aed43691d920feaca374f4692bd238680" target="_top" xlink:title="command.CommandFactory.make\lParams">
<polygon fill="white" stroke="black" points="846,-60 846,-90 1028,-90 1028,-60 846,-60"/>
<text text-anchor="start" x="854" y="-78" font-family="Helvetica,sans-Serif" font-size="10.00">command.CommandFactory.make</text>
<text text-anchor="middle" x="937" y="-67" font-family="Helvetica,sans-Serif" font-size="10.00">Params</text>
</a>
</g>
</g>
<!-- Node22&#45;&gt;Node23 -->
<g id="edge22" class="edge"><title>Node22&#45;&gt;Node23</title>
<path fill="none" stroke="midnightblue" d="M801.573,-73.2984C812.875,-73.4415 824.374,-73.587 835.649,-73.7297"/>
<polygon fill="midnightblue" stroke="midnightblue" points="835.884,-77.2329 845.928,-73.8598 835.973,-70.2335 835.884,-77.2329"/>
</g>
<!-- Node24 -->
<g id="node24" class="node"><title>Node24</title>
<g id="a_node24"><a xlink:href="../../d9/d1b/classcommand_1_1_command_factory.html#a3a7f93181d4b08336437520928c5108b" target="_top" xlink:title="command.CommandFactory.add\lParam">
<polygon fill="white" stroke="black" points="1072.5,-60 1072.5,-90 1245.5,-90 1245.5,-60 1072.5,-60"/>
<text text-anchor="start" x="1080.5" y="-78" font-family="Helvetica,sans-Serif" font-size="10.00">command.CommandFactory.add</text>
<text text-anchor="middle" x="1159" y="-67" font-family="Helvetica,sans-Serif" font-size="10.00">Param</text>
</a>
</g>
</g>
<!-- Node23&#45;&gt;Node24 -->
<g id="edge23" class="edge"><title>Node23&#45;&gt;Node24</title>
<path fill="none" stroke="midnightblue" d="M1028.12,-75C1039.29,-75 1050.75,-75 1062.01,-75"/>
<polygon fill="midnightblue" stroke="midnightblue" points="1062.28,-78.5001 1072.28,-75 1062.28,-71.5001 1062.28,-78.5001"/>
</g>
<!-- Node25 -->
<g id="node25" class="node"><title>Node25</title>
<g id="a_node25"><a xlink:href="../../d9/d1b/classcommand_1_1_command_factory.html#aac2ddc62b74ef8c562cb19841b6a21c6" target="_top" xlink:title="command.CommandFactory.is\lVariable">
<polygon fill="white" stroke="black" points="1289,-85 1289,-115 1451,-115 1451,-85 1289,-85"/>
<text text-anchor="start" x="1297" y="-103" font-family="Helvetica,sans-Serif" font-size="10.00">command.CommandFactory.is</text>
<text text-anchor="middle" x="1370" y="-92" font-family="Helvetica,sans-Serif" font-size="10.00">Variable</text>
</a>
</g>
</g>
<!-- Node24&#45;&gt;Node25 -->
<g id="edge24" class="edge"><title>Node24&#45;&gt;Node25</title>
<path fill="none" stroke="midnightblue" d="M1245.61,-85.2406C1256.57,-86.5518 1267.82,-87.8972 1278.85,-89.2167"/>
<polygon fill="midnightblue" stroke="midnightblue" points="1278.56,-92.7068 1288.91,-90.4194 1279.39,-85.7564 1278.56,-92.7068"/>
</g>
<!-- Node26 -->
<g id="node26" class="node"><title>Node26</title>
<g id="a_node26"><a xlink:href="../../d9/d1b/classcommand_1_1_command_factory.html#a4a093c2b17212339a5c43b581f818682" target="_top" xlink:title="command.CommandFactory.read\lVariable">
<polygon fill="white" stroke="black" points="1282,-36 1282,-66 1458,-66 1458,-36 1282,-36"/>
<text text-anchor="start" x="1290" y="-54" font-family="Helvetica,sans-Serif" font-size="10.00">command.CommandFactory.read</text>
<text text-anchor="middle" x="1370" y="-43" font-family="Helvetica,sans-Serif" font-size="10.00">Variable</text>
</a>
</g>
</g>
<!-- Node24&#45;&gt;Node26 -->
<g id="edge25" class="edge"><title>Node24&#45;&gt;Node26</title>
<path fill="none" stroke="midnightblue" d="M1245.61,-65.169C1254.2,-64.1828 1262.96,-63.1763 1271.66,-62.1774"/>
<polygon fill="midnightblue" stroke="midnightblue" points="1272.29,-65.6281 1281.83,-61.0101 1271.49,-58.6738 1272.29,-65.6281"/>
</g>
<!-- Node27&#45;&gt;Node9 -->
<g id="edge30" class="edge"><title>Node27&#45;&gt;Node9</title>
<path fill="none" stroke="midnightblue" d="M535.429,-277.148C543.253,-279.931 550.937,-283.19 558,-287 576.842,-297.162 574.766,-309.601 594,-319 604.53,-324.146 616.287,-327.904 627.985,-330.649"/>
<polygon fill="midnightblue" stroke="midnightblue" points="627.261,-334.073 637.769,-332.724 628.713,-327.225 627.261,-334.073"/>
</g>
<!-- Node28 -->
<g id="node28" class="node"><title>Node28</title>
<g id="a_node28"><a xlink:href="../../d3/dcc/classparser_1_1_node.html#aa67bc0d39227232943abec9b95b23235" target="_top" xlink:title="parser.Node.getChild1">
<polygon fill="white" stroke="black" points="636.5,-252.5 636.5,-271.5 759.5,-271.5 759.5,-252.5 636.5,-252.5"/>
<text text-anchor="middle" x="698" y="-259.5" font-family="Helvetica,sans-Serif" font-size="10.00">parser.Node.getChild1</text>
</a>
</g>
</g>
<!-- Node27&#45;&gt;Node28 -->
<g id="edge28" class="edge"><title>Node27&#45;&gt;Node28</title>
<path fill="none" stroke="midnightblue" d="M552.048,-262C576.465,-262 602.709,-262 626.067,-262"/>
<polygon fill="midnightblue" stroke="midnightblue" points="626.232,-265.5 636.232,-262 626.232,-258.5 626.232,-265.5"/>
</g>
<!-- Node29 -->
<g id="node29" class="node"><title>Node29</title>
<g id="a_node29"><a xlink:href="../../d3/dcc/classparser_1_1_node.html#a0f13775acc62af77cdde90dbeaf26bbc" target="_top" xlink:title="parser.Node.getChild2">
<polygon fill="white" stroke="black" points="636.5,-214.5 636.5,-233.5 759.5,-233.5 759.5,-214.5 636.5,-214.5"/>
<text text-anchor="middle" x="698" y="-221.5" font-family="Helvetica,sans-Serif" font-size="10.00">parser.Node.getChild2</text>
</a>
</g>
</g>
<!-- Node27&#45;&gt;Node29 -->
<g id="edge29" class="edge"><title>Node27&#45;&gt;Node29</title>
<path fill="none" stroke="midnightblue" d="M552.048,-247.742C577.362,-243.596 604.64,-239.128 628.63,-235.199"/>
<polygon fill="midnightblue" stroke="midnightblue" points="629.391,-238.621 638.694,-233.55 628.26,-231.713 629.391,-238.621"/>
</g>
<!-- Node30 -->
<g id="node30" class="node"><title>Node30</title>
<g id="a_node30"><a xlink:href="../../d3/dcc/classparser_1_1_node.html#a6bbc0c61aaa261077eb87cfc4e2b45dc" target="_top" xlink:title="parser.Node.numChildren">
<polygon fill="white" stroke="black" points="628.5,-290.5 628.5,-309.5 767.5,-309.5 767.5,-290.5 628.5,-290.5"/>
<text text-anchor="middle" x="698" y="-297.5" font-family="Helvetica,sans-Serif" font-size="10.00">parser.Node.numChildren</text>
</a>
</g>
</g>
<!-- Node27&#45;&gt;Node30 -->
<g id="edge31" class="edge"><title>Node27&#45;&gt;Node30</title>
<path fill="none" stroke="midnightblue" d="M552.048,-276.258C577.362,-280.404 604.64,-284.872 628.63,-288.801"/>
<polygon fill="midnightblue" stroke="midnightblue" points="628.26,-292.287 638.694,-290.45 629.391,-285.379 628.26,-292.287"/>
</g>
<!-- Node31&#45;&gt;Node28 -->
<g id="edge33" class="edge"><title>Node31&#45;&gt;Node28</title>
<path fill="none" stroke="midnightblue" d="M541.724,-178.75C547.478,-181.349 552.985,-184.406 558,-188 581.745,-205.02 569.672,-226.823 594,-243 603.662,-249.425 614.906,-253.827 626.344,-256.816"/>
<polygon fill="midnightblue" stroke="midnightblue" points="625.884,-260.3 636.41,-259.094 627.429,-253.473 625.884,-260.3"/>
</g>
<!-- Node31&#45;&gt;Node29 -->
<g id="edge34" class="edge"><title>Node31&#45;&gt;Node29</title>
<path fill="none" stroke="midnightblue" d="M530.018,-179.103C539.493,-181.787 549.061,-184.769 558,-188 574.64,-194.015 577.159,-199.572 594,-205 604.335,-208.331 615.454,-211.142 626.428,-213.494"/>
<polygon fill="midnightblue" stroke="midnightblue" points="625.942,-216.967 636.438,-215.527 627.335,-210.107 625.942,-216.967"/>
</g>
<!-- Node32 -->
<g id="node32" class="node"><title>Node32</title>
<g id="a_node32"><a xlink:href="../../d3/dcc/classparser_1_1_node.html#ab14db24c0724dec4387e29d513008e2e" target="_top" xlink:title="parser.Node.hasChildren">
<polygon fill="white" stroke="black" points="631,-176.5 631,-195.5 765,-195.5 765,-176.5 631,-176.5"/>
<text text-anchor="middle" x="698" y="-183.5" font-family="Helvetica,sans-Serif" font-size="10.00">parser.Node.hasChildren</text>
</a>
</g>
</g>
<!-- Node31&#45;&gt;Node32 -->
<g id="edge35" class="edge"><title>Node31&#45;&gt;Node32</title>
<path fill="none" stroke="midnightblue" d="M541.608,-171.265C567.126,-173.684 595.529,-176.378 621,-178.793"/>
<polygon fill="midnightblue" stroke="midnightblue" points="620.689,-182.279 630.975,-179.739 621.35,-175.311 620.689,-182.279"/>
</g>
<!-- Node33 -->
<g id="node33" class="node"><title>Node33</title>
<g id="a_node33"><a xlink:href="../../d3/dcc/classparser_1_1_node.html#aa92667a825777b3d757bc3b1a247ac20" target="_top" xlink:title="parser.Node.isLeaf">
<polygon fill="white" stroke="black" points="645,-138.5 645,-157.5 751,-157.5 751,-138.5 645,-138.5"/>
<text text-anchor="middle" x="698" y="-145.5" font-family="Helvetica,sans-Serif" font-size="10.00">parser.Node.isLeaf</text>
</a>
</g>
</g>
<!-- Node31&#45;&gt;Node33 -->
<g id="edge36" class="edge"><title>Node31&#45;&gt;Node33</title>
<path fill="none" stroke="midnightblue" d="M541.608,-158.717C571.701,-156.641 605.807,-154.289 634.385,-152.318"/>
<polygon fill="midnightblue" stroke="midnightblue" points="634.91,-155.79 644.645,-151.611 634.428,-148.807 634.91,-155.79"/>
</g>
<!-- Node34&#45;&gt;Node28 -->
<g id="edge38" class="edge"><title>Node34&#45;&gt;Node28</title>
<path fill="none" stroke="midnightblue" d="M526.878,-228C548.111,-232.985 572.053,-238.426 594,-243 606.431,-245.591 619.744,-248.182 632.533,-250.58"/>
<polygon fill="midnightblue" stroke="midnightblue" points="632.18,-254.074 642.651,-252.459 633.458,-247.192 632.18,-254.074"/>
</g>
<!-- Node34&#45;&gt;Node29 -->
<g id="edge39" class="edge"><title>Node34&#45;&gt;Node29</title>
<path fill="none" stroke="midnightblue" d="M533.04,-216.226C562.343,-217.615 596.601,-219.24 626.203,-220.643"/>
<polygon fill="midnightblue" stroke="midnightblue" points="626.31,-224.152 636.464,-221.13 626.641,-217.16 626.31,-224.152"/>
</g>
<!-- Node34&#45;&gt;Node32 -->
<g id="edge40" class="edge"><title>Node34&#45;&gt;Node32</title>
<path fill="none" stroke="midnightblue" d="M533.04,-205.082C560.548,-201.88 592.422,-198.171 620.713,-194.878"/>
<polygon fill="midnightblue" stroke="midnightblue" points="621.431,-198.318 630.959,-193.686 620.621,-191.365 621.431,-198.318"/>
</g>
<!-- Node34&#45;&gt;Node33 -->
<g id="edge41" class="edge"><title>Node34&#45;&gt;Node33</title>
<path fill="none" stroke="midnightblue" d="M529.782,-197.97C539.383,-195.06 549.051,-191.735 558,-188 575.094,-180.866 576.633,-173.443 594,-167 606.964,-162.191 621.314,-158.562 635.084,-155.837"/>
<polygon fill="midnightblue" stroke="midnightblue" points="635.782,-159.267 644.979,-154.008 634.51,-152.384 635.782,-159.267"/>
</g>
<!-- Node35&#45;&gt;Node9 -->
<g id="edge43" class="edge"><title>Node35&#45;&gt;Node9</title>
<path fill="none" stroke="midnightblue" d="M528.089,-314.702C558.963,-318.96 596.202,-324.097 627.849,-328.462"/>
<polygon fill="midnightblue" stroke="midnightblue" points="627.528,-331.951 637.912,-329.85 628.484,-325.016 627.528,-331.951"/>
</g>
<!-- Node38 -->
<g id="node38" class="node"><title>Node38</title>
<g id="a_node38"><a xlink:href="../../d9/d1b/classcommand_1_1_command_factory.html#a0d59e4f0f925b5046957c0e054ce8bef" target="_top" xlink:title="command.CommandFactory.reset\lRepcount">
<polygon fill="white" stroke="black" points="374.5,-49 374.5,-79 553.5,-79 553.5,-49 374.5,-49"/>
<text text-anchor="start" x="382.5" y="-67" font-family="Helvetica,sans-Serif" font-size="10.00">command.CommandFactory.reset</text>
<text text-anchor="middle" x="464" y="-56" font-family="Helvetica,sans-Serif" font-size="10.00">Repcount</text>
</a>
</g>
</g>
<!-- Node37&#45;&gt;Node38 -->
<g id="edge47" class="edge"><title>Node37&#45;&gt;Node38</title>
<path fill="none" stroke="midnightblue" d="M309.656,-78.7964C327.079,-77.1152 345.9,-75.2992 364.189,-73.5344"/>
<polygon fill="midnightblue" stroke="midnightblue" points="364.666,-77.0048 374.283,-72.5604 363.993,-70.0371 364.666,-77.0048"/>
</g>
<!-- Node40 -->
<g id="node40" class="node"><title>Node40</title>
<g id="a_node40"><a xlink:href="../../d9/d1b/classcommand_1_1_command_factory.html#ad885534ec7b5c00d2b33c9e83f1f9b6f" target="_top" xlink:title="command.CommandFactory.update\lVariable">
<polygon fill="white" stroke="black" points="370,-0 370,-30 558,-30 558,-0 370,-0"/>
<text text-anchor="start" x="378" y="-18" font-family="Helvetica,sans-Serif" font-size="10.00">command.CommandFactory.update</text>
<text text-anchor="middle" x="464" y="-7" font-family="Helvetica,sans-Serif" font-size="10.00">Variable</text>
</a>
</g>
</g>
<!-- Node39&#45;&gt;Node40 -->
<g id="edge49" class="edge"><title>Node39&#45;&gt;Node40</title>
<path fill="none" stroke="midnightblue" d="M311.238,-33.6375C326.782,-31.7285 343.383,-29.6898 359.69,-27.6872"/>
<polygon fill="midnightblue" stroke="midnightblue" points="360.294,-31.1394 369.793,-26.4465 359.441,-24.1916 360.294,-31.1394"/>
</g>
</g>
</svg>
