<?xml version="1.0" encoding="UTF-8" standalone="no"?>
<!DOCTYPE svg PUBLIC "-//W3C//DTD SVG 1.1//EN"
 "http://www.w3.org/Graphics/SVG/1.1/DTD/svg11.dtd">
<!-- Generated by graphviz version 2.36.0 (20140111.2315)
 -->
<!-- Title: world.World.setLanguage Pages: 1 -->
<svg width="736pt" height="38pt"
 viewBox="0.00 0.00 736.00 38.00" xmlns="http://www.w3.org/2000/svg" xmlns:xlink="http://www.w3.org/1999/xlink">
<g id="graph0" class="graph" transform="scale(1 1) rotate(0) translate(4 34)">
<title>world.World.setLanguage</title>
<polygon fill="white" stroke="none" points="-4,4 -4,-34 732,-34 732,4 -4,4"/>
<!-- Node1 -->
<g id="node1" class="node"><title>Node1</title>
<polygon fill="#bfbfbf" stroke="black" points="0.5,-5.5 0.5,-24.5 135.5,-24.5 135.5,-5.5 0.5,-5.5"/>
<text text-anchor="middle" x="68" y="-12.5" font-family="Helvetica,sans-Serif" font-size="10.00">world.World.setLanguage</text>
</g>
<!-- Node2 -->
<g id="node2" class="node"><title>Node2</title>
<g id="a_node2"><a xlink:href="../../d6/d95/classparser_1_1_parser.html#a0fbf692895cf9375b199cd3ab16a85dc" target="_top" xlink:title="parser.Parser.setLanguage">
<polygon fill="white" stroke="black" points="172,-5.5 172,-24.5 316,-24.5 316,-5.5 172,-5.5"/>
<text text-anchor="middle" x="244" y="-12.5" font-family="Helvetica,sans-Serif" font-size="10.00">parser.Parser.setLanguage</text>
</a>
</g>
</g>
<!-- Node1&#45;&gt;Node2 -->
<g id="edge1" class="edge"><title>Node1&#45;&gt;Node2</title>
<path fill="none" stroke="midnightblue" d="M135.775,-15C144.248,-15 152.992,-15 161.66,-15"/>
<polygon fill="midnightblue" stroke="midnightblue" points="161.78,-18.5001 171.78,-15 161.78,-11.5001 161.78,-18.5001"/>
</g>
<!-- Node3 -->
<g id="node3" class="node"><title>Node3</title>
<g id="a_node3"><a xlink:href="../../d9/d1b/classcommand_1_1_command_factory.html#aefbf95ff32788eb3b04d84d0f3c1a09a" target="_top" xlink:title="command.CommandFactory.set\lLanguage">
<polygon fill="white" stroke="black" points="352,-0 352,-30 522,-30 522,-0 352,-0"/>
<text text-anchor="start" x="360" y="-18" font-family="Helvetica,sans-Serif" font-size="10.00">command.CommandFactory.set</text>
<text text-anchor="middle" x="437" y="-7" font-family="Helvetica,sans-Serif" font-size="10.00">Language</text>
</a>
</g>
</g>
<!-- Node2&#45;&gt;Node3 -->
<g id="edge2" class="edge"><title>Node2&#45;&gt;Node3</title>
<path fill="none" stroke="midnightblue" d="M316.121,-15C324.507,-15 333.161,-15 341.801,-15"/>
<polygon fill="midnightblue" stroke="midnightblue" points="341.921,-18.5001 351.921,-15 341.921,-11.5001 341.921,-18.5001"/>
</g>
<!-- Node4 -->
<g id="node4" class="node"><title>Node4</title>
<g id="a_node4"><a xlink:href="../../d9/d1b/classcommand_1_1_command_factory.html#ae6b7cca664ad47f77ea7e8e8adae9830" target="_top" xlink:title="command.CommandFactory.set\lTranslationMap">
<polygon fill="white" stroke="black" points="558,-0 558,-30 728,-30 728,-0 558,-0"/>
<text text-anchor="start" x="566" y="-18" font-family="Helvetica,sans-Serif" font-size="10.00">command.CommandFactory.set</text>
<text text-anchor="middle" x="643" y="-7" font-family="Helvetica,sans-Serif" font-size="10.00">TranslationMap</text>
</a>
</g>
</g>
<!-- Node3&#45;&gt;Node4 -->
<g id="edge3" class="edge"><title>Node3&#45;&gt;Node4</title>
<path fill="none" stroke="midnightblue" d="M522.152,-15C530.501,-15 539.015,-15 547.46,-15"/>
<polygon fill="midnightblue" stroke="midnightblue" points="547.712,-18.5001 557.712,-15 547.712,-11.5001 547.712,-18.5001"/>
</g>
</g>
</svg>
