<?xml version="1.0" encoding="UTF-8" standalone="no"?>
<!DOCTYPE svg PUBLIC "-//W3C//DTD SVG 1.1//EN"
 "http://www.w3.org/Graphics/SVG/1.1/DTD/svg11.dtd">
<!-- Generated by graphviz version 2.36.0 (20140111.2315)
 -->
<!-- Title: world.World.listen Pages: 1 -->
<svg width="1032pt" height="412pt"
 viewBox="0.00 0.00 1032.00 412.00" xmlns="http://www.w3.org/2000/svg" xmlns:xlink="http://www.w3.org/1999/xlink">
<g id="graph0" class="graph" transform="scale(1 1) rotate(0) translate(4 408)">
<title>world.World.listen</title>
<polygon fill="white" stroke="none" points="-4,4 -4,-408 1028,-408 1028,4 -4,4"/>
<!-- Node1 -->
<g id="node1" class="node"><title>Node1</title>
<polygon fill="#bfbfbf" stroke="black" points="0,-103.5 0,-122.5 98,-122.5 98,-103.5 0,-103.5"/>
<text text-anchor="middle" x="49" y="-110.5" font-family="Helvetica,sans-Serif" font-size="10.00">world.World.listen</text>
</g>
<!-- Node2 -->
<g id="node2" class="node"><title>Node2</title>
<g id="a_node2"><a xlink:href="../../d7/d35/classcommand_1_1_command.html#a957099a70dd30b5dc897e0caf07d2d99" target="_top" xlink:title="command.Command.getCommand\lValues">
<polygon fill="white" stroke="black" points="134,-311 134,-341 322,-341 322,-311 134,-311"/>
<text text-anchor="start" x="142" y="-329" font-family="Helvetica,sans-Serif" font-size="10.00">command.Command.getCommand</text>
<text text-anchor="middle" x="228" y="-318" font-family="Helvetica,sans-Serif" font-size="10.00">Values</text>
</a>
</g>
</g>
<!-- Node1&#45;&gt;Node2 -->
<g id="edge1" class="edge"><title>Node1&#45;&gt;Node2</title>
<path fill="none" stroke="midnightblue" d="M55.9979,-122.748C69.0863,-143.736 101.637,-194.426 134,-233 155.541,-258.675 182.953,-285.481 202.422,-303.68"/>
<polygon fill="midnightblue" stroke="midnightblue" points="200.268,-306.455 209.981,-310.687 205.027,-301.322 200.268,-306.455"/>
</g>
<!-- Node4 -->
<g id="node4" class="node"><title>Node4</title>
<g id="a_node4"><a xlink:href="../../d6/d95/classparser_1_1_parser.html#a240c75608624a9c67402a296855c4d1d" target="_top" xlink:title="parser.Parser.initialize\lCommands">
<polygon fill="white" stroke="black" points="168,-120 168,-150 288,-150 288,-120 168,-120"/>
<text text-anchor="start" x="176" y="-138" font-family="Helvetica,sans-Serif" font-size="10.00">parser.Parser.initialize</text>
<text text-anchor="middle" x="228" y="-127" font-family="Helvetica,sans-Serif" font-size="10.00">Commands</text>
</a>
</g>
</g>
<!-- Node1&#45;&gt;Node4 -->
<g id="edge3" class="edge"><title>Node1&#45;&gt;Node4</title>
<path fill="none" stroke="midnightblue" d="M98.366,-119.012C116.754,-121.297 138.075,-123.947 158.007,-126.425"/>
<polygon fill="midnightblue" stroke="midnightblue" points="157.614,-129.903 167.969,-127.663 158.477,-122.956 157.614,-129.903"/>
</g>
<!-- Node8 -->
<g id="node8" class="node"><title>Node8</title>
<g id="a_node8"><a xlink:href="../../d6/d95/classparser_1_1_parser.html#a4ecbffc246c3add017c4720eed4c6da9" target="_top" xlink:title="parser.Parser.parse">
<polygon fill="white" stroke="black" points="173.5,-204.5 173.5,-223.5 282.5,-223.5 282.5,-204.5 173.5,-204.5"/>
<text text-anchor="middle" x="228" y="-211.5" font-family="Helvetica,sans-Serif" font-size="10.00">parser.Parser.parse</text>
</a>
</g>
</g>
<!-- Node1&#45;&gt;Node8 -->
<g id="edge7" class="edge"><title>Node1&#45;&gt;Node8</title>
<path fill="none" stroke="midnightblue" d="M66.6517,-122.502C97.6192,-140.173 164.262,-178.201 201.138,-199.242"/>
<polygon fill="midnightblue" stroke="midnightblue" points="199.843,-202.534 210.264,-204.45 203.313,-196.454 199.843,-202.534"/>
</g>
<!-- Node21 -->
<g id="node21" class="node"><title>Node21</title>
<g id="a_node21"><a xlink:href="../../d6/d95/classparser_1_1_parser.html#acebafe1593fc1f09ac31c7104438e4b1" target="_top" xlink:title="parser.Parser.resetRepcount">
<polygon fill="white" stroke="black" points="152.5,-81.5 152.5,-100.5 303.5,-100.5 303.5,-81.5 152.5,-81.5"/>
<text text-anchor="middle" x="228" y="-88.5" font-family="Helvetica,sans-Serif" font-size="10.00">parser.Parser.resetRepcount</text>
</a>
</g>
</g>
<!-- Node1&#45;&gt;Node21 -->
<g id="edge30" class="edge"><title>Node1&#45;&gt;Node21</title>
<path fill="none" stroke="midnightblue" d="M98.366,-106.988C111.922,-105.303 127.071,-103.42 142.083,-101.555"/>
<polygon fill="midnightblue" stroke="midnightblue" points="142.941,-104.975 152.433,-100.268 142.078,-98.0285 142.941,-104.975"/>
</g>
<!-- Node23 -->
<g id="node23" class="node"><title>Node23</title>
<g id="a_node23"><a xlink:href="../../d9/dd0/classworld_1_1_world.html#adcbcb8328c7e832fcb710a91457e6772" target="_top" xlink:title="world.World.runCommand">
<polygon fill="white" stroke="black" points="158.5,-43.5 158.5,-62.5 297.5,-62.5 297.5,-43.5 158.5,-43.5"/>
<text text-anchor="middle" x="228" y="-50.5" font-family="Helvetica,sans-Serif" font-size="10.00">world.World.runCommand</text>
</a>
</g>
</g>
<!-- Node1&#45;&gt;Node23 -->
<g id="edge32" class="edge"><title>Node1&#45;&gt;Node23</title>
<path fill="none" stroke="midnightblue" d="M66.519,-103.38C83.0844,-94.1115 109.572,-80.3074 134,-72 141.962,-69.2924 150.445,-66.9093 158.925,-64.8289"/>
<polygon fill="midnightblue" stroke="midnightblue" points="159.898,-68.196 168.847,-62.5244 158.315,-61.3775 159.898,-68.196"/>
</g>
<!-- Node24 -->
<g id="node24" class="node"><title>Node24</title>
<g id="a_node24"><a xlink:href="../../d6/d95/classparser_1_1_parser.html#a8679d61f4ae6c55910ef113bcdda2c75" target="_top" xlink:title="parser.Parser.updateVariable">
<polygon fill="white" stroke="black" points="151,-5.5 151,-24.5 305,-24.5 305,-5.5 151,-5.5"/>
<text text-anchor="middle" x="228" y="-12.5" font-family="Helvetica,sans-Serif" font-size="10.00">parser.Parser.updateVariable</text>
</a>
</g>
</g>
<!-- Node1&#45;&gt;Node24 -->
<g id="edge33" class="edge"><title>Node1&#45;&gt;Node24</title>
<path fill="none" stroke="midnightblue" d="M57.1368,-103.445C70.3158,-86.5408 100.228,-51.5017 134,-34 138.547,-31.6435 143.361,-29.5792 148.309,-27.7707"/>
<polygon fill="midnightblue" stroke="midnightblue" points="149.551,-31.047 157.957,-24.599 147.364,-24.3972 149.551,-31.047"/>
</g>
<!-- Node3 -->
<g id="node3" class="node"><title>Node3</title>
<g id="a_node3"><a xlink:href="../../d7/d35/classcommand_1_1_command.html#a7e1387db1d0d35d4dcd3a3ebe2ff902a" target="_top" xlink:title="command.Command.makeString">
<polygon fill="white" stroke="black" points="363.5,-384.5 363.5,-403.5 540.5,-403.5 540.5,-384.5 363.5,-384.5"/>
<text text-anchor="middle" x="452" y="-391.5" font-family="Helvetica,sans-Serif" font-size="10.00">command.Command.makeString</text>
</a>
</g>
</g>
<!-- Node2&#45;&gt;Node3 -->
<g id="edge2" class="edge"><title>Node2&#45;&gt;Node3</title>
<path fill="none" stroke="midnightblue" d="M264.067,-341.084C289.719,-351.682 325.557,-365.591 358,-375 367.162,-377.657 376.937,-380.084 386.578,-382.249"/>
<polygon fill="midnightblue" stroke="midnightblue" points="386.03,-385.712 396.545,-384.409 387.513,-378.871 386.03,-385.712"/>
</g>
<!-- Node5 -->
<g id="node5" class="node"><title>Node5</title>
<g id="a_node5"><a xlink:href="../../d6/d95/classparser_1_1_parser.html#a4f582c65390bddc57219c0b5c31ef5e7" target="_top" xlink:title="parser.Parser.makeTree">
<polygon fill="white" stroke="black" points="388,-111.5 388,-130.5 516,-130.5 516,-111.5 388,-111.5"/>
<text text-anchor="middle" x="452" y="-118.5" font-family="Helvetica,sans-Serif" font-size="10.00">parser.Parser.makeTree</text>
</a>
</g>
</g>
<!-- Node4&#45;&gt;Node5 -->
<g id="edge4" class="edge"><title>Node4&#45;&gt;Node5</title>
<path fill="none" stroke="midnightblue" d="M288.2,-131.267C315.661,-129.535 348.574,-127.459 377.599,-125.629"/>
<polygon fill="midnightblue" stroke="midnightblue" points="377.927,-129.115 387.687,-124.993 377.487,-122.129 377.927,-129.115"/>
</g>
<!-- Node6 -->
<g id="node6" class="node"><title>Node6</title>
<g id="a_node6"><a xlink:href="../../d9/d1b/classcommand_1_1_command_factory.html#a87bf7e648425bb22124367cabedb3327" target="_top" xlink:title="command.CommandFactory.get\lNumParameters">
<polygon fill="white" stroke="black" points="601,-52 601,-82 771,-82 771,-52 601,-52"/>
<text text-anchor="start" x="609" y="-70" font-family="Helvetica,sans-Serif" font-size="10.00">command.CommandFactory.get</text>
<text text-anchor="middle" x="686" y="-59" font-family="Helvetica,sans-Serif" font-size="10.00">NumParameters</text>
</a>
</g>
</g>
<!-- Node5&#45;&gt;Node6 -->
<g id="edge5" class="edge"><title>Node5&#45;&gt;Node6</title>
<path fill="none" stroke="midnightblue" d="M498.467,-111.489C513.607,-108.251 530.548,-104.551 546,-101 568.571,-95.8135 593.136,-89.8957 615.25,-84.4671"/>
<polygon fill="midnightblue" stroke="midnightblue" points="616.348,-87.8012 625.221,-82.0116 614.675,-81.0042 616.348,-87.8012"/>
</g>
<!-- Node7 -->
<g id="node7" class="node"><title>Node7</title>
<g id="a_node7"><a xlink:href="../../d9/d1b/classcommand_1_1_command_factory.html#a947fdc151e857ea74564d0d1fe268246" target="_top" xlink:title="command.CommandFactory.translate\lCommand">
<polygon fill="white" stroke="black" points="826.5,-74 826.5,-104 1023.5,-104 1023.5,-74 826.5,-74"/>
<text text-anchor="start" x="834.5" y="-92" font-family="Helvetica,sans-Serif" font-size="10.00">command.CommandFactory.translate</text>
<text text-anchor="middle" x="925" y="-81" font-family="Helvetica,sans-Serif" font-size="10.00">Command</text>
</a>
</g>
</g>
<!-- Node6&#45;&gt;Node7 -->
<g id="edge6" class="edge"><title>Node6&#45;&gt;Node7</title>
<path fill="none" stroke="midnightblue" d="M771.225,-74.8183C785.71,-76.163 800.944,-77.577 815.951,-78.9702"/>
<polygon fill="midnightblue" stroke="midnightblue" points="816.013,-82.4908 826.294,-79.9302 816.66,-75.5208 816.013,-82.4908"/>
</g>
<!-- Node8&#45;&gt;Node5 -->
<g id="edge29" class="edge"><title>Node8&#45;&gt;Node5</title>
<path fill="none" stroke="midnightblue" d="M244.987,-204.447C276.835,-185.473 346.165,-144.471 358,-140 365.154,-137.298 372.77,-134.951 380.446,-132.919"/>
<polygon fill="midnightblue" stroke="midnightblue" points="381.305,-136.312 390.171,-130.511 379.623,-129.517 381.305,-136.312"/>
</g>
<!-- Node9 -->
<g id="node9" class="node"><title>Node9</title>
<g id="a_node9"><a xlink:href="../../d9/d1b/classcommand_1_1_command_factory.html#ab25bb047b051661d31adf73b2dae5649" target="_top" xlink:title="command.CommandFactory.create\lCommand">
<polygon fill="white" stroke="black" points="359.5,-150 359.5,-180 544.5,-180 544.5,-150 359.5,-150"/>
<text text-anchor="start" x="367.5" y="-168" font-family="Helvetica,sans-Serif" font-size="10.00">command.CommandFactory.create</text>
<text text-anchor="middle" x="452" y="-157" font-family="Helvetica,sans-Serif" font-size="10.00">Command</text>
</a>
</g>
</g>
<!-- Node8&#45;&gt;Node9 -->
<g id="edge8" class="edge"><title>Node8&#45;&gt;Node9</title>
<path fill="none" stroke="midnightblue" d="M272.067,-204.494C300.643,-198.187 338.979,-189.725 372.836,-182.252"/>
<polygon fill="midnightblue" stroke="midnightblue" points="373.707,-185.644 382.718,-180.071 372.199,-178.809 373.707,-185.644"/>
</g>
<!-- Node11 -->
<g id="node11" class="node"><title>Node11</title>
<g id="a_node11"><a xlink:href="../../d6/d95/classparser_1_1_parser.html#aac1cff62f68138c7e977a67d39671701" target="_top" xlink:title="parser.Parser.generateCommand\lInput">
<polygon fill="white" stroke="black" points="364,-297 364,-327 540,-327 540,-297 364,-297"/>
<text text-anchor="start" x="372" y="-315" font-family="Helvetica,sans-Serif" font-size="10.00">parser.Parser.generateCommand</text>
<text text-anchor="middle" x="452" y="-304" font-family="Helvetica,sans-Serif" font-size="10.00">Input</text>
</a>
</g>
</g>
<!-- Node8&#45;&gt;Node11 -->
<g id="edge11" class="edge"><title>Node8&#45;&gt;Node11</title>
<path fill="none" stroke="midnightblue" d="M243.098,-223.567C266.196,-238.867 313.947,-268.954 358,-287 363.889,-289.412 370.082,-291.66 376.36,-293.738"/>
<polygon fill="midnightblue" stroke="midnightblue" points="375.672,-297.192 386.262,-296.865 377.78,-290.516 375.672,-297.192"/>
</g>
<!-- Node16 -->
<g id="node16" class="node"><title>Node16</title>
<g id="a_node16"><a xlink:href="../../d6/d95/classparser_1_1_parser.html#a3efcd1192e76101919526b4a5e0046f4" target="_top" xlink:title="parser.Parser.getNodeBefore\lToReplace">
<polygon fill="white" stroke="black" points="374.5,-248 374.5,-278 529.5,-278 529.5,-248 374.5,-248"/>
<text text-anchor="start" x="382.5" y="-266" font-family="Helvetica,sans-Serif" font-size="10.00">parser.Parser.getNodeBefore</text>
<text text-anchor="middle" x="452" y="-255" font-family="Helvetica,sans-Serif" font-size="10.00">ToReplace</text>
</a>
</g>
</g>
<!-- Node8&#45;&gt;Node16 -->
<g id="edge16" class="edge"><title>Node8&#45;&gt;Node16</title>
<path fill="none" stroke="midnightblue" d="M272.067,-223.506C300.643,-229.813 338.979,-238.275 372.836,-245.748"/>
<polygon fill="midnightblue" stroke="midnightblue" points="372.199,-249.191 382.718,-247.929 373.707,-242.356 372.199,-249.191"/>
</g>
<!-- Node19 -->
<g id="node19" class="node"><title>Node19</title>
<g id="a_node19"><a xlink:href="../../d6/d95/classparser_1_1_parser.html#a447c473b62ba23b7c144df9bb38a9a41" target="_top" xlink:title="parser.Parser.getNodeFor\lCommand">
<polygon fill="white" stroke="black" points="383,-199 383,-229 521,-229 521,-199 383,-199"/>
<text text-anchor="start" x="391" y="-217" font-family="Helvetica,sans-Serif" font-size="10.00">parser.Parser.getNodeFor</text>
<text text-anchor="middle" x="452" y="-206" font-family="Helvetica,sans-Serif" font-size="10.00">Command</text>
</a>
</g>
</g>
<!-- Node8&#45;&gt;Node19 -->
<g id="edge22" class="edge"><title>Node8&#45;&gt;Node19</title>
<path fill="none" stroke="midnightblue" d="M282.74,-214C309.601,-214 342.622,-214 372.276,-214"/>
<polygon fill="midnightblue" stroke="midnightblue" points="372.61,-217.5 382.61,-214 372.61,-210.5 372.61,-217.5"/>
</g>
<!-- Node20 -->
<g id="node20" class="node"><title>Node20</title>
<g id="a_node20"><a xlink:href="../../d3/dcc/classparser_1_1_node.html#a066da2b478008f39a02440d7afceb9ee" target="_top" xlink:title="parser.Node.insertChild">
<polygon fill="white" stroke="black" points="388,-346.5 388,-365.5 516,-365.5 516,-346.5 388,-346.5"/>
<text text-anchor="middle" x="452" y="-353.5" font-family="Helvetica,sans-Serif" font-size="10.00">parser.Node.insertChild</text>
</a>
</g>
</g>
<!-- Node8&#45;&gt;Node20 -->
<g id="edge27" class="edge"><title>Node8&#45;&gt;Node20</title>
<path fill="none" stroke="midnightblue" d="M239.382,-223.591C256.631,-239.552 292.24,-272.619 322,-301 338.149,-316.401 338.327,-325.467 358,-336 364.306,-339.376 371.14,-342.183 378.144,-344.515"/>
<polygon fill="midnightblue" stroke="midnightblue" points="377.18,-347.88 387.765,-347.411 379.198,-341.177 377.18,-347.88"/>
</g>
<!-- Node9&#45;&gt;Node7 -->
<g id="edge10" class="edge"><title>Node9&#45;&gt;Node7</title>
<path fill="none" stroke="midnightblue" d="M509.578,-149.872C521.606,-146.633 534.227,-143.218 546,-140 562.018,-135.622 565.709,-133.22 582,-130 659.703,-114.642 748.55,-104.201 816.21,-97.7001"/>
<polygon fill="midnightblue" stroke="midnightblue" points="816.832,-101.157 826.458,-96.73 816.172,-94.1881 816.832,-101.157"/>
</g>
<!-- Node10 -->
<g id="node10" class="node"><title>Node10</title>
<g id="a_node10"><a xlink:href="../../d9/d1b/classcommand_1_1_command_factory.html#abd97ea3e22afc09e07ed1d4fd039d11f" target="_top" xlink:title="command.CommandFactory.reflectCMD">
<polygon fill="white" stroke="black" points="582.5,-139.5 582.5,-158.5 789.5,-158.5 789.5,-139.5 582.5,-139.5"/>
<text text-anchor="middle" x="686" y="-146.5" font-family="Helvetica,sans-Serif" font-size="10.00">command.CommandFactory.reflectCMD</text>
</a>
</g>
</g>
<!-- Node9&#45;&gt;Node10 -->
<g id="edge9" class="edge"><title>Node9&#45;&gt;Node10</title>
<path fill="none" stroke="midnightblue" d="M544.693,-158.676C553.808,-158.048 563.133,-157.405 572.428,-156.764"/>
<polygon fill="midnightblue" stroke="midnightblue" points="572.757,-160.249 582.492,-156.07 572.275,-153.266 572.757,-160.249"/>
</g>
<!-- Node12 -->
<g id="node12" class="node"><title>Node12</title>
<g id="a_node12"><a xlink:href="../../d3/dcc/classparser_1_1_node.html#aa67bc0d39227232943abec9b95b23235" target="_top" xlink:title="parser.Node.getChild1">
<polygon fill="white" stroke="black" points="624.5,-291.5 624.5,-310.5 747.5,-310.5 747.5,-291.5 624.5,-291.5"/>
<text text-anchor="middle" x="686" y="-298.5" font-family="Helvetica,sans-Serif" font-size="10.00">parser.Node.getChild1</text>
</a>
</g>
</g>
<!-- Node11&#45;&gt;Node12 -->
<g id="edge12" class="edge"><title>Node11&#45;&gt;Node12</title>
<path fill="none" stroke="midnightblue" d="M540.048,-307.873C564.465,-306.715 590.709,-305.471 614.067,-304.363"/>
<polygon fill="midnightblue" stroke="midnightblue" points="614.409,-307.851 624.232,-303.881 614.077,-300.859 614.409,-307.851"/>
</g>
<!-- Node13 -->
<g id="node13" class="node"><title>Node13</title>
<g id="a_node13"><a xlink:href="../../d3/dcc/classparser_1_1_node.html#a0f13775acc62af77cdde90dbeaf26bbc" target="_top" xlink:title="parser.Node.getChild2">
<polygon fill="white" stroke="black" points="624.5,-253.5 624.5,-272.5 747.5,-272.5 747.5,-253.5 624.5,-253.5"/>
<text text-anchor="middle" x="686" y="-260.5" font-family="Helvetica,sans-Serif" font-size="10.00">parser.Node.getChild2</text>
</a>
</g>
</g>
<!-- Node11&#45;&gt;Node13 -->
<g id="edge13" class="edge"><title>Node11&#45;&gt;Node13</title>
<path fill="none" stroke="midnightblue" d="M514.878,-297C536.111,-292.015 560.053,-286.574 582,-282 594.431,-279.409 607.744,-276.818 620.533,-274.42"/>
<polygon fill="midnightblue" stroke="midnightblue" points="621.458,-277.808 630.651,-272.541 620.18,-270.926 621.458,-277.808"/>
</g>
<!-- Node14 -->
<g id="node14" class="node"><title>Node14</title>
<g id="a_node14"><a xlink:href="../../d3/dcc/classparser_1_1_node.html#a9c12e8d4375a7517eae0a35724b253c4" target="_top" xlink:title="parser.Node.getValue">
<polygon fill="white" stroke="black" points="626,-367.5 626,-386.5 746,-386.5 746,-367.5 626,-367.5"/>
<text text-anchor="middle" x="686" y="-374.5" font-family="Helvetica,sans-Serif" font-size="10.00">parser.Node.getValue</text>
</a>
</g>
</g>
<!-- Node11&#45;&gt;Node14 -->
<g id="edge14" class="edge"><title>Node11&#45;&gt;Node14</title>
<path fill="none" stroke="midnightblue" d="M517.782,-327.03C527.383,-329.94 537.051,-333.265 546,-337 563.094,-344.134 564.633,-351.557 582,-358 592.68,-361.962 604.302,-365.123 615.764,-367.638"/>
<polygon fill="midnightblue" stroke="midnightblue" points="615.27,-371.109 625.769,-369.685 616.673,-364.251 615.27,-371.109"/>
</g>
<!-- Node15 -->
<g id="node15" class="node"><title>Node15</title>
<g id="a_node15"><a xlink:href="../../d3/dcc/classparser_1_1_node.html#a6bbc0c61aaa261077eb87cfc4e2b45dc" target="_top" xlink:title="parser.Node.numChildren">
<polygon fill="white" stroke="black" points="616.5,-329.5 616.5,-348.5 755.5,-348.5 755.5,-329.5 616.5,-329.5"/>
<text text-anchor="middle" x="686" y="-336.5" font-family="Helvetica,sans-Serif" font-size="10.00">parser.Node.numChildren</text>
</a>
</g>
</g>
<!-- Node11&#45;&gt;Node15 -->
<g id="edge15" class="edge"><title>Node11&#45;&gt;Node15</title>
<path fill="none" stroke="midnightblue" d="M540.048,-322.131C561.804,-324.663 585.011,-327.363 606.334,-329.845"/>
<polygon fill="midnightblue" stroke="midnightblue" points="605.972,-333.326 616.31,-331.006 606.781,-326.373 605.972,-333.326"/>
</g>
<!-- Node16&#45;&gt;Node12 -->
<g id="edge17" class="edge"><title>Node16&#45;&gt;Node12</title>
<path fill="none" stroke="midnightblue" d="M529.608,-275.548C557.82,-280.169 589.56,-285.368 616.964,-289.856"/>
<polygon fill="midnightblue" stroke="midnightblue" points="616.415,-293.313 626.85,-291.475 617.547,-286.405 616.415,-293.313"/>
</g>
<!-- Node16&#45;&gt;Node13 -->
<g id="edge18" class="edge"><title>Node16&#45;&gt;Node13</title>
<path fill="none" stroke="midnightblue" d="M529.608,-263C556.877,-263 587.442,-263 614.202,-263"/>
<polygon fill="midnightblue" stroke="midnightblue" points="614.257,-266.5 624.257,-263 614.257,-259.5 614.257,-266.5"/>
</g>
<!-- Node16&#45;&gt;Node14 -->
<g id="edge19" class="edge"><title>Node16&#45;&gt;Node14</title>
<path fill="none" stroke="midnightblue" d="M529.717,-276.935C535.539,-279.71 541.061,-283.03 546,-287 573.576,-309.165 553.663,-336.815 582,-358 591.94,-365.431 603.902,-370.251 616.1,-373.323"/>
<polygon fill="midnightblue" stroke="midnightblue" points="615.387,-376.749 625.899,-375.428 616.858,-369.906 615.387,-376.749"/>
</g>
<!-- Node17 -->
<g id="node17" class="node"><title>Node17</title>
<g id="a_node17"><a xlink:href="../../d3/dcc/classparser_1_1_node.html#ab14db24c0724dec4387e29d513008e2e" target="_top" xlink:title="parser.Node.hasChildren">
<polygon fill="white" stroke="black" points="619,-215.5 619,-234.5 753,-234.5 753,-215.5 619,-215.5"/>
<text text-anchor="middle" x="686" y="-222.5" font-family="Helvetica,sans-Serif" font-size="10.00">parser.Node.hasChildren</text>
</a>
</g>
</g>
<!-- Node16&#45;&gt;Node17 -->
<g id="edge20" class="edge"><title>Node16&#45;&gt;Node17</title>
<path fill="none" stroke="midnightblue" d="M529.608,-250.452C557.82,-245.831 589.56,-240.632 616.964,-236.144"/>
<polygon fill="midnightblue" stroke="midnightblue" points="617.547,-239.595 626.85,-234.525 616.415,-232.687 617.547,-239.595"/>
</g>
<!-- Node18 -->
<g id="node18" class="node"><title>Node18</title>
<g id="a_node18"><a xlink:href="../../d3/dcc/classparser_1_1_node.html#aa92667a825777b3d757bc3b1a247ac20" target="_top" xlink:title="parser.Node.isLeaf">
<polygon fill="white" stroke="black" points="633,-177.5 633,-196.5 739,-196.5 739,-177.5 633,-177.5"/>
<text text-anchor="middle" x="686" y="-184.5" font-family="Helvetica,sans-Serif" font-size="10.00">parser.Node.isLeaf</text>
</a>
</g>
</g>
<!-- Node16&#45;&gt;Node18 -->
<g id="edge21" class="edge"><title>Node16&#45;&gt;Node18</title>
<path fill="none" stroke="midnightblue" d="M523.429,-247.852C531.253,-245.069 538.937,-241.81 546,-238 564.842,-227.838 562.766,-215.399 582,-206 594.621,-199.833 609.003,-195.658 622.936,-192.834"/>
<polygon fill="midnightblue" stroke="midnightblue" points="623.758,-196.242 632.969,-191.007 622.504,-189.355 623.758,-196.242"/>
</g>
<!-- Node19&#45;&gt;Node12 -->
<g id="edge23" class="edge"><title>Node19&#45;&gt;Node12</title>
<path fill="none" stroke="midnightblue" d="M521.161,-226.188C529.889,-229.278 538.413,-233.15 546,-238 567.288,-251.61 560.247,-269.145 582,-282 591.868,-287.831 603.121,-291.943 614.479,-294.828"/>
<polygon fill="midnightblue" stroke="midnightblue" points="613.932,-298.292 624.455,-297.06 615.461,-291.461 613.932,-298.292"/>
</g>
<!-- Node19&#45;&gt;Node13 -->
<g id="edge24" class="edge"><title>Node19&#45;&gt;Node13</title>
<path fill="none" stroke="midnightblue" d="M514.878,-229C536.111,-233.985 560.053,-239.426 582,-244 594.431,-246.591 607.744,-249.182 620.533,-251.58"/>
<polygon fill="midnightblue" stroke="midnightblue" points="620.18,-255.074 630.651,-253.459 621.458,-248.192 620.18,-255.074"/>
</g>
<!-- Node19&#45;&gt;Node17 -->
<g id="edge25" class="edge"><title>Node19&#45;&gt;Node17</title>
<path fill="none" stroke="midnightblue" d="M521.04,-217.226C548.548,-218.53 580.422,-220.042 608.713,-221.383"/>
<polygon fill="midnightblue" stroke="midnightblue" points="608.804,-224.891 618.959,-221.869 609.136,-217.899 608.804,-224.891"/>
</g>
<!-- Node19&#45;&gt;Node18 -->
<g id="edge26" class="edge"><title>Node19&#45;&gt;Node18</title>
<path fill="none" stroke="midnightblue" d="M521.04,-206.082C553.253,-202.333 591.454,-197.887 622.876,-194.23"/>
<polygon fill="midnightblue" stroke="midnightblue" points="623.295,-197.705 632.823,-193.072 622.486,-190.752 623.295,-197.705"/>
</g>
<!-- Node20&#45;&gt;Node14 -->
<g id="edge28" class="edge"><title>Node20&#45;&gt;Node14</title>
<path fill="none" stroke="midnightblue" d="M516.089,-361.711C546.963,-364.505 584.202,-367.876 615.849,-370.741"/>
<polygon fill="midnightblue" stroke="midnightblue" points="615.637,-374.236 625.912,-371.652 616.268,-367.264 615.637,-374.236"/>
</g>
<!-- Node22 -->
<g id="node22" class="node"><title>Node22</title>
<g id="a_node22"><a xlink:href="../../d9/d1b/classcommand_1_1_command_factory.html#a0d59e4f0f925b5046957c0e054ce8bef" target="_top" xlink:title="command.CommandFactory.reset\lRepcount">
<polygon fill="white" stroke="black" points="362.5,-62 362.5,-92 541.5,-92 541.5,-62 362.5,-62"/>
<text text-anchor="start" x="370.5" y="-80" font-family="Helvetica,sans-Serif" font-size="10.00">command.CommandFactory.reset</text>
<text text-anchor="middle" x="452" y="-69" font-family="Helvetica,sans-Serif" font-size="10.00">Repcount</text>
</a>
</g>
</g>
<!-- Node21&#45;&gt;Node22 -->
<g id="edge31" class="edge"><title>Node21&#45;&gt;Node22</title>
<path fill="none" stroke="midnightblue" d="M303.54,-86.2993C319.187,-85.3125 335.922,-84.2572 352.295,-83.2246"/>
<polygon fill="midnightblue" stroke="midnightblue" points="352.67,-86.708 362.43,-82.5855 352.229,-79.7219 352.67,-86.708"/>
</g>
<!-- Node25 -->
<g id="node25" class="node"><title>Node25</title>
<g id="a_node25"><a xlink:href="../../d9/d1b/classcommand_1_1_command_factory.html#a8347db76764ea8308d029789b49519dd" target="_top" xlink:title="command.CommandFactory.update\lVariable">
<polygon fill="white" stroke="black" points="358,-0 358,-30 546,-30 546,-0 358,-0"/>
<text text-anchor="start" x="366" y="-18" font-family="Helvetica,sans-Serif" font-size="10.00">command.CommandFactory.update</text>
<text text-anchor="middle" x="452" y="-7" font-family="Helvetica,sans-Serif" font-size="10.00">Variable</text>
</a>
</g>
</g>
<!-- Node24&#45;&gt;Node25 -->
<g id="edge34" class="edge"><title>Node24&#45;&gt;Node25</title>
<path fill="none" stroke="midnightblue" d="M305.089,-15C318.724,-15 333.142,-15 347.396,-15"/>
<polygon fill="midnightblue" stroke="midnightblue" points="347.733,-18.5001 357.733,-15 347.733,-11.5001 347.733,-18.5001"/>
</g>
</g>
</svg>
