<?xml version="1.0" encoding="UTF-8" standalone="no"?>
<!DOCTYPE svg PUBLIC "-//W3C//DTD SVG 1.1//EN"
 "http://www.w3.org/Graphics/SVG/1.1/DTD/svg11.dtd">
<!-- Generated by graphviz version 2.36.0 (20140111.2315)
 -->
<!-- Title: userInterface.Sidebar.addResult Pages: 1 -->
<svg width="1198pt" height="87pt"
 viewBox="0.00 0.00 1198.00 87.00" xmlns="http://www.w3.org/2000/svg" xmlns:xlink="http://www.w3.org/1999/xlink">
<g id="graph0" class="graph" transform="scale(1 1) rotate(0) translate(4 83)">
<title>userInterface.Sidebar.addResult</title>
<polygon fill="white" stroke="none" points="-4,4 -4,-83 1194,-83 1194,4 -4,4"/>
<!-- Node1 -->
<g id="node1" class="node"><title>Node1</title>
<polygon fill="#bfbfbf" stroke="black" points="0,-24 0,-54 140,-54 140,-24 0,-24"/>
<text text-anchor="start" x="8" y="-42" font-family="Helvetica,sans-Serif" font-size="10.00">userInterface.Sidebar.add</text>
<text text-anchor="middle" x="70" y="-31" font-family="Helvetica,sans-Serif" font-size="10.00">Result</text>
</g>
<!-- Node2 -->
<g id="node2" class="node"><title>Node2</title>
<g id="a_node2"><a xlink:href="../../d8/d08/classworld_controller_1_1_world_controller.html#a178425d68e3e669c386706153ce44999" target="_top" xlink:title="worldController.WorldController.update">
<polygon fill="white" stroke="black" points="176,-29.5 176,-48.5 374,-48.5 374,-29.5 176,-29.5"/>
<text text-anchor="middle" x="275" y="-36.5" font-family="Helvetica,sans-Serif" font-size="10.00">worldController.WorldController.update</text>
</a>
</g>
</g>
<!-- Node1&#45;&gt;Node2 -->
<g id="edge1" class="edge"><title>Node1&#45;&gt;Node2</title>
<path fill="none" stroke="midnightblue" d="M150.117,-39C158.503,-39 167.104,-39 175.675,-39"/>
<polygon fill="midnightblue" stroke="midnightblue" points="150.01,-35.5001 140.01,-39 150.01,-42.5001 150.01,-35.5001"/>
</g>
<!-- Node3 -->
<g id="node3" class="node"><title>Node3</title>
<g id="a_node3"><a xlink:href="../../dd/d8e/classuser_interface_1_1_user_interface.html#a95e324c85888faea808be269e44ed5b8" target="_top" xlink:title="userInterface.UserInterface.run\lCommand">
<polygon fill="white" stroke="black" points="410,-24 410,-54 576,-54 576,-24 410,-24"/>
<text text-anchor="start" x="418" y="-42" font-family="Helvetica,sans-Serif" font-size="10.00">userInterface.UserInterface.run</text>
<text text-anchor="middle" x="493" y="-31" font-family="Helvetica,sans-Serif" font-size="10.00">Command</text>
</a>
</g>
</g>
<!-- Node2&#45;&gt;Node3 -->
<g id="edge2" class="edge"><title>Node2&#45;&gt;Node3</title>
<path fill="none" stroke="midnightblue" d="M384.29,-39C392.892,-39 401.492,-39 409.871,-39"/>
<polygon fill="midnightblue" stroke="midnightblue" points="384.203,-35.5001 374.203,-39 384.203,-42.5001 384.203,-35.5001"/>
</g>
<!-- Node4 -->
<g id="node4" class="node"><title>Node4</title>
<g id="a_node4"><a xlink:href="../../dd/d8e/classuser_interface_1_1_user_interface.html#a560c36977fddeee87002333870c54ed6" target="_top" xlink:title="userInterface.UserInterface.set\lUpResponses">
<polygon fill="white" stroke="black" points="832.5,-49 832.5,-79 997.5,-79 997.5,-49 832.5,-49"/>
<text text-anchor="start" x="840.5" y="-67" font-family="Helvetica,sans-Serif" font-size="10.00">userInterface.UserInterface.set</text>
<text text-anchor="middle" x="915" y="-56" font-family="Helvetica,sans-Serif" font-size="10.00">UpResponses</text>
</a>
</g>
</g>
<!-- Node3&#45;&gt;Node4 -->
<g id="edge3" class="edge"><title>Node3&#45;&gt;Node4</title>
<path fill="none" stroke="midnightblue" d="M586.405,-44.5003C659.911,-48.8757 761.786,-54.9396 832.328,-59.1386"/>
<polygon fill="midnightblue" stroke="midnightblue" points="586.418,-40.9949 576.227,-43.8945 586.002,-47.9826 586.418,-40.9949"/>
</g>
<!-- Node6 -->
<g id="node6" class="node"><title>Node6</title>
<g id="a_node6"><a xlink:href="../../dd/d8e/classuser_interface_1_1_user_interface.html#a4316649a1f81fcc1dcaf93c812bf6f3a" target="_top" xlink:title="userInterface.UserInterface.make\lRunButton">
<polygon fill="white" stroke="black" points="612.5,-2 612.5,-32 789.5,-32 789.5,-2 612.5,-2"/>
<text text-anchor="start" x="620.5" y="-20" font-family="Helvetica,sans-Serif" font-size="10.00">userInterface.UserInterface.make</text>
<text text-anchor="middle" x="701" y="-9" font-family="Helvetica,sans-Serif" font-size="10.00">RunButton</text>
</a>
</g>
</g>
<!-- Node3&#45;&gt;Node6 -->
<g id="edge5" class="edge"><title>Node3&#45;&gt;Node6</title>
<path fill="none" stroke="midnightblue" d="M586.121,-29.1618C594.789,-28.2361 603.561,-27.2994 612.187,-26.3781"/>
<polygon fill="midnightblue" stroke="midnightblue" points="585.58,-25.6996 576.009,-30.2418 586.324,-32.66 585.58,-25.6996"/>
</g>
<!-- Node5 -->
<g id="node5" class="node"><title>Node5</title>
<g id="a_node5"><a xlink:href="../../dd/d8e/classuser_interface_1_1_user_interface.html#af296b064499e62c4fbfbf73da6456532" target="_top" xlink:title="userInterface.UserInterface.\lUserInterface">
<polygon fill="white" stroke="black" points="1040,-24 1040,-54 1190,-54 1190,-24 1040,-24"/>
<text text-anchor="start" x="1048" y="-42" font-family="Helvetica,sans-Serif" font-size="10.00">userInterface.UserInterface.</text>
<text text-anchor="middle" x="1115" y="-31" font-family="Helvetica,sans-Serif" font-size="10.00">UserInterface</text>
</a>
</g>
</g>
<!-- Node4&#45;&gt;Node5 -->
<g id="edge4" class="edge"><title>Node4&#45;&gt;Node5</title>
<path fill="none" stroke="midnightblue" d="M1007.88,-52.3986C1018.58,-51.0478 1029.39,-49.683 1039.81,-48.3677"/>
<polygon fill="midnightblue" stroke="midnightblue" points="1007.16,-48.962 997.677,-53.6872 1008.04,-55.9069 1007.16,-48.962"/>
</g>
<!-- Node7 -->
<g id="node7" class="node"><title>Node7</title>
<g id="a_node7"><a xlink:href="../../dd/d8e/classuser_interface_1_1_user_interface.html#a6d39ee7d7ae35fc0539bb714bce6221a" target="_top" xlink:title="userInterface.UserInterface.make\lFunctionButtons">
<polygon fill="white" stroke="black" points="826.5,-0 826.5,-30 1003.5,-30 1003.5,-0 826.5,-0"/>
<text text-anchor="start" x="834.5" y="-18" font-family="Helvetica,sans-Serif" font-size="10.00">userInterface.UserInterface.make</text>
<text text-anchor="middle" x="915" y="-7" font-family="Helvetica,sans-Serif" font-size="10.00">FunctionButtons</text>
</a>
</g>
</g>
<!-- Node6&#45;&gt;Node7 -->
<g id="edge6" class="edge"><title>Node6&#45;&gt;Node7</title>
<path fill="none" stroke="midnightblue" d="M800.01,-16.0754C808.783,-15.9926 817.629,-15.9092 826.307,-15.8273"/>
<polygon fill="midnightblue" stroke="midnightblue" points="799.725,-12.5778 789.759,-16.1721 799.791,-19.5775 799.725,-12.5778"/>
</g>
<!-- Node7&#45;&gt;Node5 -->
<g id="edge7" class="edge"><title>Node7&#45;&gt;Node5</title>
<path fill="none" stroke="midnightblue" d="M1013.67,-26.8393C1022.52,-27.9113 1031.38,-28.985 1039.97,-30.0262"/>
<polygon fill="midnightblue" stroke="midnightblue" points="1014.06,-23.3604 1003.71,-25.6316 1013.22,-30.3095 1014.06,-23.3604"/>
</g>
</g>
</svg>
