<?xml version="1.0" encoding="UTF-8" standalone="no"?>
<!DOCTYPE svg PUBLIC "-//W3C//DTD SVG 1.1//EN"
 "http://www.w3.org/Graphics/SVG/1.1/DTD/svg11.dtd">
<!-- Generated by graphviz version 2.36.0 (20140111.2315)
 -->
<!-- Title: userInterface.RightPanel Pages: 1 -->
<svg width="455pt" height="118pt"
 viewBox="0.00 0.00 455.00 118.00" xmlns="http://www.w3.org/2000/svg" xmlns:xlink="http://www.w3.org/1999/xlink">
<g id="graph0" class="graph" transform="scale(1 1) rotate(0) translate(4 114)">
<title>userInterface.RightPanel</title>
<polygon fill="white" stroke="none" points="-4,4 -4,-114 451,-114 451,4 -4,4"/>
<!-- Node1 -->
<g id="node1" class="node"><title>Node1</title>
<polygon fill="#bfbfbf" stroke="black" points="105,-0.5 105,-19.5 237,-19.5 237,-0.5 105,-0.5"/>
<text text-anchor="middle" x="171" y="-7.5" font-family="Helvetica,sans-Serif" font-size="10.00">userInterface.RightPanel</text>
</g>
<!-- Node1&#45;&gt;Node1 -->
<g id="edge3" class="edge"><title>Node1&#45;&gt;Node1</title>
<path fill="none" stroke="#9a32cd" stroke-dasharray="5,2" d="M247.12,-15.8483C252.032,-14.4819 255,-12.5325 255,-10 255,-6.04688 247.768,-3.5144 237.201,-2.40259"/>
<polygon fill="#9a32cd" stroke="#9a32cd" points="246.442,-12.4139 237.201,-17.5974 247.657,-19.3075 246.442,-12.4139"/>
<text text-anchor="middle" x="277" y="-7.5" font-family="Helvetica,sans-Serif" font-size="10.00"> instance</text>
</g>
<!-- Node2 -->
<g id="node2" class="node"><title>Node2</title>
<polygon fill="white" stroke="#bfbfbf" points="0,-90.5 0,-109.5 86,-109.5 86,-90.5 0,-90.5"/>
<text text-anchor="middle" x="43" y="-97.5" font-family="Helvetica,sans-Serif" font-size="10.00">StringProperty</text>
</g>
<!-- Node2&#45;&gt;Node1 -->
<g id="edge1" class="edge"><title>Node2&#45;&gt;Node1</title>
<path fill="none" stroke="#9a32cd" stroke-dasharray="5,2" d="M47.064,-80.3006C50.9702,-66.6856 58.2235,-48.8073 71,-38 81.16,-29.406 93.802,-23.5243 106.642,-19.505"/>
<polygon fill="#9a32cd" stroke="#9a32cd" points="43.6469,-79.5378 44.6073,-90.089 50.4364,-81.2418 43.6469,-79.5378"/>
<text text-anchor="middle" x="94" y="-52.5" font-family="Helvetica,sans-Serif" font-size="10.00"> inputText</text>
</g>
<!-- Node3 -->
<g id="node3" class="node"><title>Node3</title>
<polygon fill="white" stroke="#bfbfbf" points="104.5,-90.5 104.5,-109.5 145.5,-109.5 145.5,-90.5 104.5,-90.5"/>
<text text-anchor="middle" x="125" y="-97.5" font-family="Helvetica,sans-Serif" font-size="10.00">VBox</text>
</g>
<!-- Node3&#45;&gt;Node1 -->
<g id="edge2" class="edge"><title>Node3&#45;&gt;Node1</title>
<path fill="none" stroke="#9a32cd" stroke-dasharray="5,2" d="M121.24,-80.4612C119.644,-67.6757 119.586,-50.7531 127,-38 131.685,-29.9418 139.825,-23.9749 147.84,-19.7299"/>
<polygon fill="#9a32cd" stroke="#9a32cd" points="117.803,-81.1292 122.89,-90.4232 124.709,-79.9858 117.803,-81.1292"/>
<text text-anchor="middle" x="161" y="-52.5" font-family="Helvetica,sans-Serif" font-size="10.00"> myRightPanel</text>
</g>
<!-- Node4 -->
<g id="node4" class="node"><title>Node4</title>
<polygon fill="white" stroke="#bfbfbf" points="164,-90.5 164,-109.5 270,-109.5 270,-90.5 164,-90.5"/>
<text text-anchor="middle" x="217" y="-97.5" font-family="Helvetica,sans-Serif" font-size="10.00">ListView&lt; String &gt;</text>
</g>
<!-- Node4&#45;&gt;Node1 -->
<g id="edge4" class="edge"><title>Node4&#45;&gt;Node1</title>
<path fill="none" stroke="#9a32cd" stroke-dasharray="5,2" d="M212.321,-80.4892C208.685,-67.9574 202.921,-51.3224 195,-38 191.026,-31.3153 185.271,-24.7717 180.392,-19.8009"/>
<polygon fill="#9a32cd" stroke="#9a32cd" points="208.975,-81.5235 214.97,-90.2593 215.731,-79.6919 208.975,-81.5235"/>
<text text-anchor="middle" x="266.5" y="-63.5" font-family="Helvetica,sans-Serif" font-size="10.00"> resultsView</text>
<text text-anchor="middle" x="266.5" y="-52.5" font-family="Helvetica,sans-Serif" font-size="10.00">savedCommandView</text>
<text text-anchor="middle" x="266.5" y="-41.5" font-family="Helvetica,sans-Serif" font-size="10.00">previousCommandView</text>
</g>
<!-- Node5 -->
<g id="node5" class="node"><title>Node5</title>
<polygon fill="white" stroke="#bfbfbf" points="288,-90.5 288,-109.5 426,-109.5 426,-90.5 288,-90.5"/>
<text text-anchor="middle" x="357" y="-97.5" font-family="Helvetica,sans-Serif" font-size="10.00">ObservableList&lt; String &gt;</text>
</g>
<!-- Node5&#45;&gt;Node1 -->
<g id="edge5" class="edge"><title>Node5&#45;&gt;Node1</title>
<path fill="none" stroke="#9a32cd" stroke-dasharray="5,2" d="M352.714,-80.3779C348.525,-66.5095 340.717,-48.2678 327,-38 312.752,-27.3352 273,-20.551 237.192,-16.4505"/>
<polygon fill="#9a32cd" stroke="#9a32cd" points="349.404,-81.5517 355.341,-90.3265 356.172,-79.7643 349.404,-81.5517"/>
<text text-anchor="middle" x="398.5" y="-63.5" font-family="Helvetica,sans-Serif" font-size="10.00"> results</text>
<text text-anchor="middle" x="398.5" y="-52.5" font-family="Helvetica,sans-Serif" font-size="10.00">previousCommands</text>
<text text-anchor="middle" x="398.5" y="-41.5" font-family="Helvetica,sans-Serif" font-size="10.00">savedCommands</text>
</g>
</g>
</svg>
