<?xml version="1.0" encoding="UTF-8" standalone="no"?>
<!DOCTYPE svg PUBLIC "-//W3C//DTD SVG 1.1//EN"
 "http://www.w3.org/Graphics/SVG/1.1/DTD/svg11.dtd">
<!-- Generated by graphviz version 2.36.0 (20140111.2315)
 -->
<!-- Title: factories.CommandFactory.createCommand Pages: 1 -->
<svg width="1524pt" height="95pt"
 viewBox="0.00 0.00 1524.00 95.00" xmlns="http://www.w3.org/2000/svg" xmlns:xlink="http://www.w3.org/1999/xlink">
<g id="graph0" class="graph" transform="scale(1 1) rotate(0) translate(4 91)">
<title>factories.CommandFactory.createCommand</title>
<polygon fill="white" stroke="none" points="-4,4 -4,-91 1520,-91 1520,4 -4,4"/>
<!-- Node1 -->
<g id="node1" class="node"><title>Node1</title>
<polygon fill="#bfbfbf" stroke="black" points="0,-43 0,-73 178,-73 178,-43 0,-43"/>
<text text-anchor="start" x="8" y="-61" font-family="Helvetica,sans-Serif" font-size="10.00">factories.CommandFactory.create</text>
<text text-anchor="middle" x="89" y="-50" font-family="Helvetica,sans-Serif" font-size="10.00">Command</text>
</g>
<!-- Node2 -->
<g id="node2" class="node"><title>Node2</title>
<g id="a_node2"><a xlink:href="../../d6/d95/classparser_1_1_parser.html#a4ecbffc246c3add017c4720eed4c6da9" target="_top" xlink:title="parser.Parser.parse">
<polygon fill="white" stroke="black" points="214.5,-48.5 214.5,-67.5 323.5,-67.5 323.5,-48.5 214.5,-48.5"/>
<text text-anchor="middle" x="269" y="-55.5" font-family="Helvetica,sans-Serif" font-size="10.00">parser.Parser.parse</text>
</a>
</g>
</g>
<!-- Node1&#45;&gt;Node2 -->
<g id="edge1" class="edge"><title>Node1&#45;&gt;Node2</title>
<path fill="none" stroke="midnightblue" d="M188.243,-58C197.093,-58 205.819,-58 214.068,-58"/>
<polygon fill="midnightblue" stroke="midnightblue" points="188.218,-54.5001 178.218,-58 188.218,-61.5001 188.218,-54.5001"/>
</g>
<!-- Node3 -->
<g id="node3" class="node"><title>Node3</title>
<g id="a_node3"><a xlink:href="../../d6/d95/classparser_1_1_parser.html#a6b2d7b2b182d99537ce332ed0dfd3e03" target="_top" xlink:title="parser.Parser.main">
<polygon fill="white" stroke="black" points="360,-67.5 360,-86.5 466,-86.5 466,-67.5 360,-67.5"/>
<text text-anchor="middle" x="413" y="-74.5" font-family="Helvetica,sans-Serif" font-size="10.00">parser.Parser.main</text>
</a>
</g>
</g>
<!-- Node2&#45;&gt;Node3 -->
<g id="edge2" class="edge"><title>Node2&#45;&gt;Node3</title>
<path fill="none" stroke="midnightblue" d="M333.754,-66.5304C342.415,-67.6893 351.222,-68.8677 359.651,-69.9955"/>
<polygon fill="midnightblue" stroke="midnightblue" points="334.06,-63.0403 323.684,-65.1831 333.132,-69.9785 334.06,-63.0403"/>
</g>
<!-- Node4 -->
<g id="node4" class="node"><title>Node4</title>
<g id="a_node4"><a xlink:href="../../d9/dd0/classworld_1_1_world.html#ae370733f7784c42741a6ba66c7d2ecf5" target="_top" xlink:title="world.World.listen">
<polygon fill="white" stroke="black" points="364,-29.5 364,-48.5 462,-48.5 462,-29.5 364,-29.5"/>
<text text-anchor="middle" x="413" y="-36.5" font-family="Helvetica,sans-Serif" font-size="10.00">world.World.listen</text>
</a>
</g>
</g>
<!-- Node2&#45;&gt;Node4 -->
<g id="edge3" class="edge"><title>Node2&#45;&gt;Node4</title>
<path fill="none" stroke="midnightblue" d="M333.708,-49.4756C343.83,-48.1213 354.152,-46.7402 363.839,-45.4441"/>
<polygon fill="midnightblue" stroke="midnightblue" points="333.132,-46.0215 323.684,-50.8169 334.06,-52.9597 333.132,-46.0215"/>
</g>
<!-- Node5 -->
<g id="node5" class="node"><title>Node5</title>
<g id="a_node5"><a xlink:href="../../d8/d08/classworld_controller_1_1_world_controller.html#a178425d68e3e669c386706153ce44999" target="_top" xlink:title="worldController.WorldController.update">
<polygon fill="white" stroke="black" points="502,-29.5 502,-48.5 700,-48.5 700,-29.5 502,-29.5"/>
<text text-anchor="middle" x="601" y="-36.5" font-family="Helvetica,sans-Serif" font-size="10.00">worldController.WorldController.update</text>
</a>
</g>
</g>
<!-- Node4&#45;&gt;Node5 -->
<g id="edge4" class="edge"><title>Node4&#45;&gt;Node5</title>
<path fill="none" stroke="midnightblue" d="M472.637,-39C481.94,-39 491.777,-39 501.695,-39"/>
<polygon fill="midnightblue" stroke="midnightblue" points="472.384,-35.5001 462.384,-39 472.384,-42.5001 472.384,-35.5001"/>
</g>
<!-- Node6 -->
<g id="node6" class="node"><title>Node6</title>
<g id="a_node6"><a xlink:href="../../dd/d8e/classuser_interface_1_1_user_interface.html#a95e324c85888faea808be269e44ed5b8" target="_top" xlink:title="userInterface.UserInterface.run\lCommand">
<polygon fill="white" stroke="black" points="736,-24 736,-54 902,-54 902,-24 736,-24"/>
<text text-anchor="start" x="744" y="-42" font-family="Helvetica,sans-Serif" font-size="10.00">userInterface.UserInterface.run</text>
<text text-anchor="middle" x="819" y="-31" font-family="Helvetica,sans-Serif" font-size="10.00">Command</text>
</a>
</g>
</g>
<!-- Node5&#45;&gt;Node6 -->
<g id="edge5" class="edge"><title>Node5&#45;&gt;Node6</title>
<path fill="none" stroke="midnightblue" d="M710.29,-39C718.892,-39 727.492,-39 735.871,-39"/>
<polygon fill="midnightblue" stroke="midnightblue" points="710.203,-35.5001 700.203,-39 710.203,-42.5001 710.203,-35.5001"/>
</g>
<!-- Node7 -->
<g id="node7" class="node"><title>Node7</title>
<g id="a_node7"><a xlink:href="../../dd/d8e/classuser_interface_1_1_user_interface.html#a560c36977fddeee87002333870c54ed6" target="_top" xlink:title="userInterface.UserInterface.set\lUpResponses">
<polygon fill="white" stroke="black" points="1158.5,-49 1158.5,-79 1323.5,-79 1323.5,-49 1158.5,-49"/>
<text text-anchor="start" x="1166.5" y="-67" font-family="Helvetica,sans-Serif" font-size="10.00">userInterface.UserInterface.set</text>
<text text-anchor="middle" x="1241" y="-56" font-family="Helvetica,sans-Serif" font-size="10.00">UpResponses</text>
</a>
</g>
</g>
<!-- Node6&#45;&gt;Node7 -->
<g id="edge6" class="edge"><title>Node6&#45;&gt;Node7</title>
<path fill="none" stroke="midnightblue" d="M912.405,-44.5003C985.911,-48.8757 1087.79,-54.9396 1158.33,-59.1386"/>
<polygon fill="midnightblue" stroke="midnightblue" points="912.418,-40.9949 902.227,-43.8945 912.002,-47.9826 912.418,-40.9949"/>
</g>
<!-- Node9 -->
<g id="node9" class="node"><title>Node9</title>
<g id="a_node9"><a xlink:href="../../dd/d8e/classuser_interface_1_1_user_interface.html#a4316649a1f81fcc1dcaf93c812bf6f3a" target="_top" xlink:title="userInterface.UserInterface.make\lRunButton">
<polygon fill="white" stroke="black" points="938.5,-2 938.5,-32 1115.5,-32 1115.5,-2 938.5,-2"/>
<text text-anchor="start" x="946.5" y="-20" font-family="Helvetica,sans-Serif" font-size="10.00">userInterface.UserInterface.make</text>
<text text-anchor="middle" x="1027" y="-9" font-family="Helvetica,sans-Serif" font-size="10.00">RunButton</text>
</a>
</g>
</g>
<!-- Node6&#45;&gt;Node9 -->
<g id="edge8" class="edge"><title>Node6&#45;&gt;Node9</title>
<path fill="none" stroke="midnightblue" d="M912.121,-29.1618C920.789,-28.2361 929.561,-27.2994 938.187,-26.3781"/>
<polygon fill="midnightblue" stroke="midnightblue" points="911.58,-25.6996 902.009,-30.2418 912.324,-32.66 911.58,-25.6996"/>
</g>
<!-- Node8 -->
<g id="node8" class="node"><title>Node8</title>
<g id="a_node8"><a xlink:href="../../dd/d8e/classuser_interface_1_1_user_interface.html#af296b064499e62c4fbfbf73da6456532" target="_top" xlink:title="userInterface.UserInterface.\lUserInterface">
<polygon fill="white" stroke="black" points="1366,-24 1366,-54 1516,-54 1516,-24 1366,-24"/>
<text text-anchor="start" x="1374" y="-42" font-family="Helvetica,sans-Serif" font-size="10.00">userInterface.UserInterface.</text>
<text text-anchor="middle" x="1441" y="-31" font-family="Helvetica,sans-Serif" font-size="10.00">UserInterface</text>
</a>
</g>
</g>
<!-- Node7&#45;&gt;Node8 -->
<g id="edge7" class="edge"><title>Node7&#45;&gt;Node8</title>
<path fill="none" stroke="midnightblue" d="M1333.88,-52.3986C1344.58,-51.0478 1355.39,-49.683 1365.81,-48.3677"/>
<polygon fill="midnightblue" stroke="midnightblue" points="1333.16,-48.962 1323.68,-53.6872 1334.04,-55.9069 1333.16,-48.962"/>
</g>
<!-- Node10 -->
<g id="node10" class="node"><title>Node10</title>
<g id="a_node10"><a xlink:href="../../dd/d8e/classuser_interface_1_1_user_interface.html#a6d39ee7d7ae35fc0539bb714bce6221a" target="_top" xlink:title="userInterface.UserInterface.make\lFunctionButtons">
<polygon fill="white" stroke="black" points="1152.5,-0 1152.5,-30 1329.5,-30 1329.5,-0 1152.5,-0"/>
<text text-anchor="start" x="1160.5" y="-18" font-family="Helvetica,sans-Serif" font-size="10.00">userInterface.UserInterface.make</text>
<text text-anchor="middle" x="1241" y="-7" font-family="Helvetica,sans-Serif" font-size="10.00">FunctionButtons</text>
</a>
</g>
</g>
<!-- Node9&#45;&gt;Node10 -->
<g id="edge9" class="edge"><title>Node9&#45;&gt;Node10</title>
<path fill="none" stroke="midnightblue" d="M1126.01,-16.0754C1134.78,-15.9926 1143.63,-15.9092 1152.31,-15.8273"/>
<polygon fill="midnightblue" stroke="midnightblue" points="1125.73,-12.5778 1115.76,-16.1721 1125.79,-19.5775 1125.73,-12.5778"/>
</g>
<!-- Node10&#45;&gt;Node8 -->
<g id="edge10" class="edge"><title>Node10&#45;&gt;Node8</title>
<path fill="none" stroke="midnightblue" d="M1339.67,-26.8393C1348.52,-27.9113 1357.38,-28.985 1365.97,-30.0262"/>
<polygon fill="midnightblue" stroke="midnightblue" points="1340.06,-23.3604 1329.71,-25.6316 1339.22,-30.3095 1340.06,-23.3604"/>
</g>
</g>
</svg>
