<?xml version="1.0" encoding="UTF-8" standalone="no"?>
<!DOCTYPE svg PUBLIC "-//W3C//DTD SVG 1.1//EN"
 "http://www.w3.org/Graphics/SVG/1.1/DTD/svg11.dtd">
<!-- Generated by graphviz version 2.36.0 (20140111.2315)
 -->
<!-- Title: factories.CommandFactory.CommandFactory Pages: 1 -->
<svg width="574pt" height="87pt"
 viewBox="0.00 0.00 574.00 87.00" xmlns="http://www.w3.org/2000/svg" xmlns:xlink="http://www.w3.org/1999/xlink">
<g id="graph0" class="graph" transform="scale(1 1) rotate(0) translate(4 83)">
<title>factories.CommandFactory.CommandFactory</title>
<polygon fill="white" stroke="none" points="-4,4 -4,-83 570,-83 570,4 -4,4"/>
<!-- Node1 -->
<g id="node1" class="node"><title>Node1</title>
<polygon fill="#bfbfbf" stroke="black" points="0.5,-24 0.5,-54 147.5,-54 147.5,-24 0.5,-24"/>
<text text-anchor="start" x="8.5" y="-42" font-family="Helvetica,sans-Serif" font-size="10.00">factories.CommandFactory.</text>
<text text-anchor="middle" x="74" y="-31" font-family="Helvetica,sans-Serif" font-size="10.00">CommandFactory</text>
</g>
<!-- Node2 -->
<g id="node2" class="node"><title>Node2</title>
<g id="a_node2"><a xlink:href="../../d5/d9c/classfactories_1_1_command_factory.html#acdc354ebb2c6d6b4da842e116756e6dd" target="_top" xlink:title="factories.CommandFactory.make\lDefaults">
<polygon fill="white" stroke="black" points="184,-49 184,-79 358,-79 358,-49 184,-49"/>
<text text-anchor="start" x="192" y="-67" font-family="Helvetica,sans-Serif" font-size="10.00">factories.CommandFactory.make</text>
<text text-anchor="middle" x="271" y="-56" font-family="Helvetica,sans-Serif" font-size="10.00">Defaults</text>
</a>
</g>
</g>
<!-- Node1&#45;&gt;Node2 -->
<g id="edge1" class="edge"><title>Node1&#45;&gt;Node2</title>
<path fill="none" stroke="midnightblue" d="M147.611,-48.3091C156.186,-49.4085 165.037,-50.5432 173.873,-51.676"/>
<polygon fill="midnightblue" stroke="midnightblue" points="173.463,-55.1521 183.827,-52.9522 174.353,-48.2089 173.463,-55.1521"/>
</g>
<!-- Node4 -->
<g id="node4" class="node"><title>Node4</title>
<g id="a_node4"><a xlink:href="../../d5/d9c/classfactories_1_1_command_factory.html#ae6e8511e5f31f730943bb9826f1c94a7" target="_top" xlink:title="factories.CommandFactory.set\lTranslationMap">
<polygon fill="white" stroke="black" points="190,-0 190,-30 352,-30 352,-0 190,-0"/>
<text text-anchor="start" x="198" y="-18" font-family="Helvetica,sans-Serif" font-size="10.00">factories.CommandFactory.set</text>
<text text-anchor="middle" x="271" y="-7" font-family="Helvetica,sans-Serif" font-size="10.00">TranslationMap</text>
</a>
</g>
</g>
<!-- Node1&#45;&gt;Node4 -->
<g id="edge3" class="edge"><title>Node1&#45;&gt;Node4</title>
<path fill="none" stroke="midnightblue" d="M147.611,-30.0633C158.032,-28.7806 168.86,-27.448 179.574,-26.1294"/>
<polygon fill="midnightblue" stroke="midnightblue" points="180.296,-29.567 189.793,-24.8716 179.441,-22.6194 180.296,-29.567"/>
</g>
<!-- Node3 -->
<g id="node3" class="node"><title>Node3</title>
<g id="a_node3"><a xlink:href="../../d5/d9c/classfactories_1_1_command_factory.html#a284f02f05da17a5d0becf418a975112c" target="_top" xlink:title="factories.CommandFactory.reset\lRepcount">
<polygon fill="white" stroke="black" points="394,-49 394,-79 566,-79 566,-49 394,-49"/>
<text text-anchor="start" x="402" y="-67" font-family="Helvetica,sans-Serif" font-size="10.00">factories.CommandFactory.reset</text>
<text text-anchor="middle" x="480" y="-56" font-family="Helvetica,sans-Serif" font-size="10.00">Repcount</text>
</a>
</g>
</g>
<!-- Node2&#45;&gt;Node3 -->
<g id="edge2" class="edge"><title>Node2&#45;&gt;Node3</title>
<path fill="none" stroke="midnightblue" d="M358.288,-64C366.648,-64 375.162,-64 383.604,-64"/>
<polygon fill="midnightblue" stroke="midnightblue" points="383.85,-67.5001 393.85,-64 383.849,-60.5001 383.85,-67.5001"/>
</g>
</g>
</svg>
