<?xml version="1.0" encoding="UTF-8" standalone="no"?>
<!DOCTYPE svg PUBLIC "-//W3C//DTD SVG 1.1//EN"
 "http://www.w3.org/Graphics/SVG/1.1/DTD/svg11.dtd">
<!-- Generated by graphviz version 2.36.0 (20140111.2315)
 -->
<!-- Title: factories.CommandFactory.loopCommands Pages: 1 -->
<svg width="1938pt" height="95pt"
 viewBox="0.00 0.00 1938.00 95.00" xmlns="http://www.w3.org/2000/svg" xmlns:xlink="http://www.w3.org/1999/xlink">
<g id="graph0" class="graph" transform="scale(1 1) rotate(0) translate(4 91)">
<title>factories.CommandFactory.loopCommands</title>
<polygon fill="white" stroke="none" points="-4,4 -4,-91 1934,-91 1934,4 -4,4"/>
<!-- Node1 -->
<g id="node1" class="node"><title>Node1</title>
<polygon fill="#bfbfbf" stroke="black" points="0.5,-43 0.5,-73 167.5,-73 167.5,-43 0.5,-43"/>
<text text-anchor="start" x="8.5" y="-61" font-family="Helvetica,sans-Serif" font-size="10.00">factories.CommandFactory.loop</text>
<text text-anchor="middle" x="84" y="-50" font-family="Helvetica,sans-Serif" font-size="10.00">Commands</text>
</g>
<!-- Node2 -->
<g id="node2" class="node"><title>Node2</title>
<g id="a_node2"><a xlink:href="../../d5/d9c/classfactories_1_1_command_factory.html#a4c6d0dd68adc65612918d5629f87e046" target="_top" xlink:title="factories.CommandFactory.make\lCommandMap">
<polygon fill="white" stroke="black" points="204,-43 204,-73 378,-73 378,-43 204,-43"/>
<text text-anchor="start" x="212" y="-61" font-family="Helvetica,sans-Serif" font-size="10.00">factories.CommandFactory.make</text>
<text text-anchor="middle" x="291" y="-50" font-family="Helvetica,sans-Serif" font-size="10.00">CommandMap</text>
</a>
</g>
</g>
<!-- Node1&#45;&gt;Node2 -->
<g id="edge1" class="edge"><title>Node1&#45;&gt;Node2</title>
<path fill="none" stroke="midnightblue" d="M177.895,-58C186.552,-58 195.3,-58 203.891,-58"/>
<polygon fill="midnightblue" stroke="midnightblue" points="177.79,-54.5001 167.79,-58 177.79,-61.5001 177.79,-54.5001"/>
</g>
<!-- Node3 -->
<g id="node3" class="node"><title>Node3</title>
<g id="a_node3"><a xlink:href="../../d5/d9c/classfactories_1_1_command_factory.html#aadbfb6cc65ea4fa4257bdae2c6b8e097" target="_top" xlink:title="factories.CommandFactory.create\lCommand">
<polygon fill="white" stroke="black" points="414,-43 414,-73 592,-73 592,-43 414,-43"/>
<text text-anchor="start" x="422" y="-61" font-family="Helvetica,sans-Serif" font-size="10.00">factories.CommandFactory.create</text>
<text text-anchor="middle" x="503" y="-50" font-family="Helvetica,sans-Serif" font-size="10.00">Command</text>
</a>
</g>
</g>
<!-- Node2&#45;&gt;Node3 -->
<g id="edge2" class="edge"><title>Node2&#45;&gt;Node3</title>
<path fill="none" stroke="midnightblue" d="M388.025,-58C396.59,-58 405.235,-58 413.73,-58"/>
<polygon fill="midnightblue" stroke="midnightblue" points="388.021,-54.5001 378.021,-58 388.021,-61.5001 388.021,-54.5001"/>
</g>
<!-- Node4 -->
<g id="node4" class="node"><title>Node4</title>
<g id="a_node4"><a xlink:href="../../d6/d95/classparser_1_1_parser.html#a4ecbffc246c3add017c4720eed4c6da9" target="_top" xlink:title="parser.Parser.parse">
<polygon fill="white" stroke="black" points="628.5,-48.5 628.5,-67.5 737.5,-67.5 737.5,-48.5 628.5,-48.5"/>
<text text-anchor="middle" x="683" y="-55.5" font-family="Helvetica,sans-Serif" font-size="10.00">parser.Parser.parse</text>
</a>
</g>
</g>
<!-- Node3&#45;&gt;Node4 -->
<g id="edge3" class="edge"><title>Node3&#45;&gt;Node4</title>
<path fill="none" stroke="midnightblue" d="M602.243,-58C611.093,-58 619.819,-58 628.068,-58"/>
<polygon fill="midnightblue" stroke="midnightblue" points="602.218,-54.5001 592.218,-58 602.218,-61.5001 602.218,-54.5001"/>
</g>
<!-- Node5 -->
<g id="node5" class="node"><title>Node5</title>
<g id="a_node5"><a xlink:href="../../d6/d95/classparser_1_1_parser.html#a6b2d7b2b182d99537ce332ed0dfd3e03" target="_top" xlink:title="parser.Parser.main">
<polygon fill="white" stroke="black" points="774,-67.5 774,-86.5 880,-86.5 880,-67.5 774,-67.5"/>
<text text-anchor="middle" x="827" y="-74.5" font-family="Helvetica,sans-Serif" font-size="10.00">parser.Parser.main</text>
</a>
</g>
</g>
<!-- Node4&#45;&gt;Node5 -->
<g id="edge4" class="edge"><title>Node4&#45;&gt;Node5</title>
<path fill="none" stroke="midnightblue" d="M747.754,-66.5304C756.415,-67.6893 765.222,-68.8677 773.651,-69.9955"/>
<polygon fill="midnightblue" stroke="midnightblue" points="748.06,-63.0403 737.684,-65.1831 747.132,-69.9785 748.06,-63.0403"/>
</g>
<!-- Node6 -->
<g id="node6" class="node"><title>Node6</title>
<g id="a_node6"><a xlink:href="../../d9/dd0/classworld_1_1_world.html#ae370733f7784c42741a6ba66c7d2ecf5" target="_top" xlink:title="world.World.listen">
<polygon fill="white" stroke="black" points="778,-29.5 778,-48.5 876,-48.5 876,-29.5 778,-29.5"/>
<text text-anchor="middle" x="827" y="-36.5" font-family="Helvetica,sans-Serif" font-size="10.00">world.World.listen</text>
</a>
</g>
</g>
<!-- Node4&#45;&gt;Node6 -->
<g id="edge5" class="edge"><title>Node4&#45;&gt;Node6</title>
<path fill="none" stroke="midnightblue" d="M747.708,-49.4756C757.83,-48.1213 768.152,-46.7402 777.839,-45.4441"/>
<polygon fill="midnightblue" stroke="midnightblue" points="747.132,-46.0215 737.684,-50.8169 748.06,-52.9597 747.132,-46.0215"/>
</g>
<!-- Node7 -->
<g id="node7" class="node"><title>Node7</title>
<g id="a_node7"><a xlink:href="../../d8/d08/classworld_controller_1_1_world_controller.html#a178425d68e3e669c386706153ce44999" target="_top" xlink:title="worldController.WorldController.update">
<polygon fill="white" stroke="black" points="916,-29.5 916,-48.5 1114,-48.5 1114,-29.5 916,-29.5"/>
<text text-anchor="middle" x="1015" y="-36.5" font-family="Helvetica,sans-Serif" font-size="10.00">worldController.WorldController.update</text>
</a>
</g>
</g>
<!-- Node6&#45;&gt;Node7 -->
<g id="edge6" class="edge"><title>Node6&#45;&gt;Node7</title>
<path fill="none" stroke="midnightblue" d="M886.637,-39C895.94,-39 905.777,-39 915.695,-39"/>
<polygon fill="midnightblue" stroke="midnightblue" points="886.384,-35.5001 876.384,-39 886.384,-42.5001 886.384,-35.5001"/>
</g>
<!-- Node8 -->
<g id="node8" class="node"><title>Node8</title>
<g id="a_node8"><a xlink:href="../../dd/d8e/classuser_interface_1_1_user_interface.html#a95e324c85888faea808be269e44ed5b8" target="_top" xlink:title="userInterface.UserInterface.run\lCommand">
<polygon fill="white" stroke="black" points="1150,-24 1150,-54 1316,-54 1316,-24 1150,-24"/>
<text text-anchor="start" x="1158" y="-42" font-family="Helvetica,sans-Serif" font-size="10.00">userInterface.UserInterface.run</text>
<text text-anchor="middle" x="1233" y="-31" font-family="Helvetica,sans-Serif" font-size="10.00">Command</text>
</a>
</g>
</g>
<!-- Node7&#45;&gt;Node8 -->
<g id="edge7" class="edge"><title>Node7&#45;&gt;Node8</title>
<path fill="none" stroke="midnightblue" d="M1124.29,-39C1132.89,-39 1141.49,-39 1149.87,-39"/>
<polygon fill="midnightblue" stroke="midnightblue" points="1124.2,-35.5001 1114.2,-39 1124.2,-42.5001 1124.2,-35.5001"/>
</g>
<!-- Node9 -->
<g id="node9" class="node"><title>Node9</title>
<g id="a_node9"><a xlink:href="../../dd/d8e/classuser_interface_1_1_user_interface.html#a560c36977fddeee87002333870c54ed6" target="_top" xlink:title="userInterface.UserInterface.set\lUpResponses">
<polygon fill="white" stroke="black" points="1572.5,-49 1572.5,-79 1737.5,-79 1737.5,-49 1572.5,-49"/>
<text text-anchor="start" x="1580.5" y="-67" font-family="Helvetica,sans-Serif" font-size="10.00">userInterface.UserInterface.set</text>
<text text-anchor="middle" x="1655" y="-56" font-family="Helvetica,sans-Serif" font-size="10.00">UpResponses</text>
</a>
</g>
</g>
<!-- Node8&#45;&gt;Node9 -->
<g id="edge8" class="edge"><title>Node8&#45;&gt;Node9</title>
<path fill="none" stroke="midnightblue" d="M1326.4,-44.5003C1399.91,-48.8757 1501.79,-54.9396 1572.33,-59.1386"/>
<polygon fill="midnightblue" stroke="midnightblue" points="1326.42,-40.9949 1316.23,-43.8945 1326,-47.9826 1326.42,-40.9949"/>
</g>
<!-- Node11 -->
<g id="node11" class="node"><title>Node11</title>
<g id="a_node11"><a xlink:href="../../dd/d8e/classuser_interface_1_1_user_interface.html#a4316649a1f81fcc1dcaf93c812bf6f3a" target="_top" xlink:title="userInterface.UserInterface.make\lRunButton">
<polygon fill="white" stroke="black" points="1352.5,-2 1352.5,-32 1529.5,-32 1529.5,-2 1352.5,-2"/>
<text text-anchor="start" x="1360.5" y="-20" font-family="Helvetica,sans-Serif" font-size="10.00">userInterface.UserInterface.make</text>
<text text-anchor="middle" x="1441" y="-9" font-family="Helvetica,sans-Serif" font-size="10.00">RunButton</text>
</a>
</g>
</g>
<!-- Node8&#45;&gt;Node11 -->
<g id="edge10" class="edge"><title>Node8&#45;&gt;Node11</title>
<path fill="none" stroke="midnightblue" d="M1326.12,-29.1618C1334.79,-28.2361 1343.56,-27.2994 1352.19,-26.3781"/>
<polygon fill="midnightblue" stroke="midnightblue" points="1325.58,-25.6996 1316.01,-30.2418 1326.32,-32.66 1325.58,-25.6996"/>
</g>
<!-- Node10 -->
<g id="node10" class="node"><title>Node10</title>
<g id="a_node10"><a xlink:href="../../dd/d8e/classuser_interface_1_1_user_interface.html#af296b064499e62c4fbfbf73da6456532" target="_top" xlink:title="userInterface.UserInterface.\lUserInterface">
<polygon fill="white" stroke="black" points="1780,-24 1780,-54 1930,-54 1930,-24 1780,-24"/>
<text text-anchor="start" x="1788" y="-42" font-family="Helvetica,sans-Serif" font-size="10.00">userInterface.UserInterface.</text>
<text text-anchor="middle" x="1855" y="-31" font-family="Helvetica,sans-Serif" font-size="10.00">UserInterface</text>
</a>
</g>
</g>
<!-- Node9&#45;&gt;Node10 -->
<g id="edge9" class="edge"><title>Node9&#45;&gt;Node10</title>
<path fill="none" stroke="midnightblue" d="M1747.88,-52.3986C1758.58,-51.0478 1769.39,-49.683 1779.81,-48.3677"/>
<polygon fill="midnightblue" stroke="midnightblue" points="1747.16,-48.962 1737.68,-53.6872 1748.04,-55.9069 1747.16,-48.962"/>
</g>
<!-- Node12 -->
<g id="node12" class="node"><title>Node12</title>
<g id="a_node12"><a xlink:href="../../dd/d8e/classuser_interface_1_1_user_interface.html#a6d39ee7d7ae35fc0539bb714bce6221a" target="_top" xlink:title="userInterface.UserInterface.make\lFunctionButtons">
<polygon fill="white" stroke="black" points="1566.5,-0 1566.5,-30 1743.5,-30 1743.5,-0 1566.5,-0"/>
<text text-anchor="start" x="1574.5" y="-18" font-family="Helvetica,sans-Serif" font-size="10.00">userInterface.UserInterface.make</text>
<text text-anchor="middle" x="1655" y="-7" font-family="Helvetica,sans-Serif" font-size="10.00">FunctionButtons</text>
</a>
</g>
</g>
<!-- Node11&#45;&gt;Node12 -->
<g id="edge11" class="edge"><title>Node11&#45;&gt;Node12</title>
<path fill="none" stroke="midnightblue" d="M1540.01,-16.0754C1548.78,-15.9926 1557.63,-15.9092 1566.31,-15.8273"/>
<polygon fill="midnightblue" stroke="midnightblue" points="1539.73,-12.5778 1529.76,-16.1721 1539.79,-19.5775 1539.73,-12.5778"/>
</g>
<!-- Node12&#45;&gt;Node10 -->
<g id="edge12" class="edge"><title>Node12&#45;&gt;Node10</title>
<path fill="none" stroke="midnightblue" d="M1753.67,-26.8393C1762.52,-27.9113 1771.38,-28.985 1779.97,-30.0262"/>
<polygon fill="midnightblue" stroke="midnightblue" points="1754.06,-23.3604 1743.71,-25.6316 1753.22,-30.3095 1754.06,-23.3604"/>
</g>
</g>
</svg>
