<?xml version="1.0" encoding="UTF-8" standalone="no"?>
<!DOCTYPE svg PUBLIC "-//W3C//DTD SVG 1.1//EN"
 "http://www.w3.org/Graphics/SVG/1.1/DTD/svg11.dtd">
<!-- Generated by graphviz version 2.36.0 (20140111.2315)
 -->
<!-- Title: factories.CommandFactory.makeDefaults Pages: 1 -->
<svg width="366pt" height="38pt"
 viewBox="0.00 0.00 366.00 38.00" xmlns="http://www.w3.org/2000/svg" xmlns:xlink="http://www.w3.org/1999/xlink">
<g id="graph0" class="graph" transform="scale(1 1) rotate(0) translate(4 34)">
<title>factories.CommandFactory.makeDefaults</title>
<polygon fill="white" stroke="none" points="-4,4 -4,-34 362,-34 362,4 -4,4"/>
<!-- Node1 -->
<g id="node1" class="node"><title>Node1</title>
<polygon fill="#bfbfbf" stroke="black" points="0,-0 0,-30 174,-30 174,-0 0,-0"/>
<text text-anchor="start" x="8" y="-18" font-family="Helvetica,sans-Serif" font-size="10.00">factories.CommandFactory.make</text>
<text text-anchor="middle" x="87" y="-7" font-family="Helvetica,sans-Serif" font-size="10.00">Defaults</text>
</g>
<!-- Node2 -->
<g id="node2" class="node"><title>Node2</title>
<g id="a_node2"><a xlink:href="../../d5/d9c/classfactories_1_1_command_factory.html#a2a6e60101c0ccb4170977f2c85c6db65" target="_top" xlink:title="factories.CommandFactory.\lCommandFactory">
<polygon fill="white" stroke="black" points="210.5,-0 210.5,-30 357.5,-30 357.5,-0 210.5,-0"/>
<text text-anchor="start" x="218.5" y="-18" font-family="Helvetica,sans-Serif" font-size="10.00">factories.CommandFactory.</text>
<text text-anchor="middle" x="284" y="-7" font-family="Helvetica,sans-Serif" font-size="10.00">CommandFactory</text>
</a>
</g>
</g>
<!-- Node1&#45;&gt;Node2 -->
<g id="edge1" class="edge"><title>Node1&#45;&gt;Node2</title>
<path fill="none" stroke="midnightblue" d="M184.381,-15C193.161,-15 201.953,-15 210.471,-15"/>
<polygon fill="midnightblue" stroke="midnightblue" points="184.097,-11.5001 174.097,-15 184.097,-18.5001 184.097,-11.5001"/>
</g>
</g>
</svg>
