<?xml version="1.0" encoding="UTF-8" standalone="no"?>
<!DOCTYPE svg PUBLIC "-//W3C//DTD SVG 1.1//EN"
 "http://www.w3.org/Graphics/SVG/1.1/DTD/svg11.dtd">
<!-- Generated by graphviz version 2.36.0 (20140111.2315)
 -->
<!-- Title: factories.CommandFactory.setLanguage Pages: 1 -->
<svg width="522pt" height="38pt"
 viewBox="0.00 0.00 522.00 38.00" xmlns="http://www.w3.org/2000/svg" xmlns:xlink="http://www.w3.org/1999/xlink">
<g id="graph0" class="graph" transform="scale(1 1) rotate(0) translate(4 34)">
<title>factories.CommandFactory.setLanguage</title>
<polygon fill="white" stroke="none" points="-4,4 -4,-34 518,-34 518,4 -4,4"/>
<!-- Node1 -->
<g id="node1" class="node"><title>Node1</title>
<polygon fill="#bfbfbf" stroke="black" points="0,-0 0,-30 162,-30 162,-0 0,-0"/>
<text text-anchor="start" x="8" y="-18" font-family="Helvetica,sans-Serif" font-size="10.00">factories.CommandFactory.set</text>
<text text-anchor="middle" x="81" y="-7" font-family="Helvetica,sans-Serif" font-size="10.00">Language</text>
</g>
<!-- Node2 -->
<g id="node2" class="node"><title>Node2</title>
<g id="a_node2"><a xlink:href="../../d6/d95/classparser_1_1_parser.html#a0fbf692895cf9375b199cd3ab16a85dc" target="_top" xlink:title="parser.Parser.setLanguage">
<polygon fill="white" stroke="black" points="198,-5.5 198,-24.5 342,-24.5 342,-5.5 198,-5.5"/>
<text text-anchor="middle" x="270" y="-12.5" font-family="Helvetica,sans-Serif" font-size="10.00">parser.Parser.setLanguage</text>
</a>
</g>
</g>
<!-- Node1&#45;&gt;Node2 -->
<g id="edge1" class="edge"><title>Node1&#45;&gt;Node2</title>
<path fill="none" stroke="midnightblue" d="M172.208,-15C180.832,-15 189.494,-15 197.899,-15"/>
<polygon fill="midnightblue" stroke="midnightblue" points="172.119,-11.5001 162.119,-15 172.119,-18.5001 172.119,-11.5001"/>
</g>
<!-- Node3 -->
<g id="node3" class="node"><title>Node3</title>
<g id="a_node3"><a xlink:href="../../d9/dd0/classworld_1_1_world.html#a3fce16a21fcf18b812d35b28349811d5" target="_top" xlink:title="world.World.setLanguage">
<polygon fill="white" stroke="black" points="378.5,-5.5 378.5,-24.5 513.5,-24.5 513.5,-5.5 378.5,-5.5"/>
<text text-anchor="middle" x="446" y="-12.5" font-family="Helvetica,sans-Serif" font-size="10.00">world.World.setLanguage</text>
</a>
</g>
</g>
<!-- Node2&#45;&gt;Node3 -->
<g id="edge2" class="edge"><title>Node2&#45;&gt;Node3</title>
<path fill="none" stroke="midnightblue" d="M352.251,-15C361.012,-15 369.851,-15 378.411,-15"/>
<polygon fill="midnightblue" stroke="midnightblue" points="352.023,-11.5001 342.023,-15 352.023,-18.5001 352.023,-11.5001"/>
</g>
</g>
</svg>
