<?xml version="1.0" encoding="UTF-8" standalone="no"?>
<!DOCTYPE svg PUBLIC "-//W3C//DTD SVG 1.1//EN"
 "http://www.w3.org/Graphics/SVG/1.1/DTD/svg11.dtd">
<!-- Generated by graphviz version 2.36.0 (20140111.2315)
 -->
<!-- Title: factories.CommandFactory.addVariable Pages: 1 -->
<svg width="1726pt" height="95pt"
 viewBox="0.00 0.00 1726.00 95.00" xmlns="http://www.w3.org/2000/svg" xmlns:xlink="http://www.w3.org/1999/xlink">
<g id="graph0" class="graph" transform="scale(1 1) rotate(0) translate(4 91)">
<title>factories.CommandFactory.addVariable</title>
<polygon fill="white" stroke="none" points="-4,4 -4,-91 1722,-91 1722,4 -4,4"/>
<!-- Node1 -->
<g id="node1" class="node"><title>Node1</title>
<polygon fill="#bfbfbf" stroke="black" points="0.5,-43 0.5,-73 165.5,-73 165.5,-43 0.5,-43"/>
<text text-anchor="start" x="8.5" y="-61" font-family="Helvetica,sans-Serif" font-size="10.00">factories.CommandFactory.add</text>
<text text-anchor="middle" x="83" y="-50" font-family="Helvetica,sans-Serif" font-size="10.00">Variable</text>
</g>
<!-- Node2 -->
<g id="node2" class="node"><title>Node2</title>
<g id="a_node2"><a xlink:href="../../d5/d9c/classfactories_1_1_command_factory.html#aadbfb6cc65ea4fa4257bdae2c6b8e097" target="_top" xlink:title="factories.CommandFactory.create\lCommand">
<polygon fill="white" stroke="black" points="202,-43 202,-73 380,-73 380,-43 202,-43"/>
<text text-anchor="start" x="210" y="-61" font-family="Helvetica,sans-Serif" font-size="10.00">factories.CommandFactory.create</text>
<text text-anchor="middle" x="291" y="-50" font-family="Helvetica,sans-Serif" font-size="10.00">Command</text>
</a>
</g>
</g>
<!-- Node1&#45;&gt;Node2 -->
<g id="edge1" class="edge"><title>Node1&#45;&gt;Node2</title>
<path fill="none" stroke="midnightblue" d="M175.838,-58C184.519,-58 193.306,-58 201.95,-58"/>
<polygon fill="midnightblue" stroke="midnightblue" points="175.713,-54.5001 165.713,-58 175.712,-61.5001 175.713,-54.5001"/>
</g>
<!-- Node3 -->
<g id="node3" class="node"><title>Node3</title>
<g id="a_node3"><a xlink:href="../../d6/d95/classparser_1_1_parser.html#a4ecbffc246c3add017c4720eed4c6da9" target="_top" xlink:title="parser.Parser.parse">
<polygon fill="white" stroke="black" points="416.5,-48.5 416.5,-67.5 525.5,-67.5 525.5,-48.5 416.5,-48.5"/>
<text text-anchor="middle" x="471" y="-55.5" font-family="Helvetica,sans-Serif" font-size="10.00">parser.Parser.parse</text>
</a>
</g>
</g>
<!-- Node2&#45;&gt;Node3 -->
<g id="edge2" class="edge"><title>Node2&#45;&gt;Node3</title>
<path fill="none" stroke="midnightblue" d="M390.243,-58C399.093,-58 407.819,-58 416.068,-58"/>
<polygon fill="midnightblue" stroke="midnightblue" points="390.218,-54.5001 380.218,-58 390.218,-61.5001 390.218,-54.5001"/>
</g>
<!-- Node4 -->
<g id="node4" class="node"><title>Node4</title>
<g id="a_node4"><a xlink:href="../../d6/d95/classparser_1_1_parser.html#a6b2d7b2b182d99537ce332ed0dfd3e03" target="_top" xlink:title="parser.Parser.main">
<polygon fill="white" stroke="black" points="562,-67.5 562,-86.5 668,-86.5 668,-67.5 562,-67.5"/>
<text text-anchor="middle" x="615" y="-74.5" font-family="Helvetica,sans-Serif" font-size="10.00">parser.Parser.main</text>
</a>
</g>
</g>
<!-- Node3&#45;&gt;Node4 -->
<g id="edge3" class="edge"><title>Node3&#45;&gt;Node4</title>
<path fill="none" stroke="midnightblue" d="M535.754,-66.5304C544.415,-67.6893 553.222,-68.8677 561.651,-69.9955"/>
<polygon fill="midnightblue" stroke="midnightblue" points="536.06,-63.0403 525.684,-65.1831 535.132,-69.9785 536.06,-63.0403"/>
</g>
<!-- Node5 -->
<g id="node5" class="node"><title>Node5</title>
<g id="a_node5"><a xlink:href="../../d9/dd0/classworld_1_1_world.html#ae370733f7784c42741a6ba66c7d2ecf5" target="_top" xlink:title="world.World.listen">
<polygon fill="white" stroke="black" points="566,-29.5 566,-48.5 664,-48.5 664,-29.5 566,-29.5"/>
<text text-anchor="middle" x="615" y="-36.5" font-family="Helvetica,sans-Serif" font-size="10.00">world.World.listen</text>
</a>
</g>
</g>
<!-- Node3&#45;&gt;Node5 -->
<g id="edge4" class="edge"><title>Node3&#45;&gt;Node5</title>
<path fill="none" stroke="midnightblue" d="M535.708,-49.4756C545.83,-48.1213 556.152,-46.7402 565.839,-45.4441"/>
<polygon fill="midnightblue" stroke="midnightblue" points="535.132,-46.0215 525.684,-50.8169 536.06,-52.9597 535.132,-46.0215"/>
</g>
<!-- Node6 -->
<g id="node6" class="node"><title>Node6</title>
<g id="a_node6"><a xlink:href="../../d8/d08/classworld_controller_1_1_world_controller.html#a178425d68e3e669c386706153ce44999" target="_top" xlink:title="worldController.WorldController.update">
<polygon fill="white" stroke="black" points="704,-29.5 704,-48.5 902,-48.5 902,-29.5 704,-29.5"/>
<text text-anchor="middle" x="803" y="-36.5" font-family="Helvetica,sans-Serif" font-size="10.00">worldController.WorldController.update</text>
</a>
</g>
</g>
<!-- Node5&#45;&gt;Node6 -->
<g id="edge5" class="edge"><title>Node5&#45;&gt;Node6</title>
<path fill="none" stroke="midnightblue" d="M674.637,-39C683.94,-39 693.777,-39 703.695,-39"/>
<polygon fill="midnightblue" stroke="midnightblue" points="674.384,-35.5001 664.384,-39 674.384,-42.5001 674.384,-35.5001"/>
</g>
<!-- Node7 -->
<g id="node7" class="node"><title>Node7</title>
<g id="a_node7"><a xlink:href="../../dd/d8e/classuser_interface_1_1_user_interface.html#a95e324c85888faea808be269e44ed5b8" target="_top" xlink:title="userInterface.UserInterface.run\lCommand">
<polygon fill="white" stroke="black" points="938,-24 938,-54 1104,-54 1104,-24 938,-24"/>
<text text-anchor="start" x="946" y="-42" font-family="Helvetica,sans-Serif" font-size="10.00">userInterface.UserInterface.run</text>
<text text-anchor="middle" x="1021" y="-31" font-family="Helvetica,sans-Serif" font-size="10.00">Command</text>
</a>
</g>
</g>
<!-- Node6&#45;&gt;Node7 -->
<g id="edge6" class="edge"><title>Node6&#45;&gt;Node7</title>
<path fill="none" stroke="midnightblue" d="M912.29,-39C920.892,-39 929.492,-39 937.871,-39"/>
<polygon fill="midnightblue" stroke="midnightblue" points="912.203,-35.5001 902.203,-39 912.203,-42.5001 912.203,-35.5001"/>
</g>
<!-- Node8 -->
<g id="node8" class="node"><title>Node8</title>
<g id="a_node8"><a xlink:href="../../dd/d8e/classuser_interface_1_1_user_interface.html#a560c36977fddeee87002333870c54ed6" target="_top" xlink:title="userInterface.UserInterface.set\lUpResponses">
<polygon fill="white" stroke="black" points="1360.5,-49 1360.5,-79 1525.5,-79 1525.5,-49 1360.5,-49"/>
<text text-anchor="start" x="1368.5" y="-67" font-family="Helvetica,sans-Serif" font-size="10.00">userInterface.UserInterface.set</text>
<text text-anchor="middle" x="1443" y="-56" font-family="Helvetica,sans-Serif" font-size="10.00">UpResponses</text>
</a>
</g>
</g>
<!-- Node7&#45;&gt;Node8 -->
<g id="edge7" class="edge"><title>Node7&#45;&gt;Node8</title>
<path fill="none" stroke="midnightblue" d="M1114.4,-44.5003C1187.91,-48.8757 1289.79,-54.9396 1360.33,-59.1386"/>
<polygon fill="midnightblue" stroke="midnightblue" points="1114.42,-40.9949 1104.23,-43.8945 1114,-47.9826 1114.42,-40.9949"/>
</g>
<!-- Node10 -->
<g id="node10" class="node"><title>Node10</title>
<g id="a_node10"><a xlink:href="../../dd/d8e/classuser_interface_1_1_user_interface.html#a4316649a1f81fcc1dcaf93c812bf6f3a" target="_top" xlink:title="userInterface.UserInterface.make\lRunButton">
<polygon fill="white" stroke="black" points="1140.5,-2 1140.5,-32 1317.5,-32 1317.5,-2 1140.5,-2"/>
<text text-anchor="start" x="1148.5" y="-20" font-family="Helvetica,sans-Serif" font-size="10.00">userInterface.UserInterface.make</text>
<text text-anchor="middle" x="1229" y="-9" font-family="Helvetica,sans-Serif" font-size="10.00">RunButton</text>
</a>
</g>
</g>
<!-- Node7&#45;&gt;Node10 -->
<g id="edge9" class="edge"><title>Node7&#45;&gt;Node10</title>
<path fill="none" stroke="midnightblue" d="M1114.12,-29.1618C1122.79,-28.2361 1131.56,-27.2994 1140.19,-26.3781"/>
<polygon fill="midnightblue" stroke="midnightblue" points="1113.58,-25.6996 1104.01,-30.2418 1114.32,-32.66 1113.58,-25.6996"/>
</g>
<!-- Node9 -->
<g id="node9" class="node"><title>Node9</title>
<g id="a_node9"><a xlink:href="../../dd/d8e/classuser_interface_1_1_user_interface.html#af296b064499e62c4fbfbf73da6456532" target="_top" xlink:title="userInterface.UserInterface.\lUserInterface">
<polygon fill="white" stroke="black" points="1568,-24 1568,-54 1718,-54 1718,-24 1568,-24"/>
<text text-anchor="start" x="1576" y="-42" font-family="Helvetica,sans-Serif" font-size="10.00">userInterface.UserInterface.</text>
<text text-anchor="middle" x="1643" y="-31" font-family="Helvetica,sans-Serif" font-size="10.00">UserInterface</text>
</a>
</g>
</g>
<!-- Node8&#45;&gt;Node9 -->
<g id="edge8" class="edge"><title>Node8&#45;&gt;Node9</title>
<path fill="none" stroke="midnightblue" d="M1535.88,-52.3986C1546.58,-51.0478 1557.39,-49.683 1567.81,-48.3677"/>
<polygon fill="midnightblue" stroke="midnightblue" points="1535.16,-48.962 1525.68,-53.6872 1536.04,-55.9069 1535.16,-48.962"/>
</g>
<!-- Node11 -->
<g id="node11" class="node"><title>Node11</title>
<g id="a_node11"><a xlink:href="../../dd/d8e/classuser_interface_1_1_user_interface.html#a6d39ee7d7ae35fc0539bb714bce6221a" target="_top" xlink:title="userInterface.UserInterface.make\lFunctionButtons">
<polygon fill="white" stroke="black" points="1354.5,-0 1354.5,-30 1531.5,-30 1531.5,-0 1354.5,-0"/>
<text text-anchor="start" x="1362.5" y="-18" font-family="Helvetica,sans-Serif" font-size="10.00">userInterface.UserInterface.make</text>
<text text-anchor="middle" x="1443" y="-7" font-family="Helvetica,sans-Serif" font-size="10.00">FunctionButtons</text>
</a>
</g>
</g>
<!-- Node10&#45;&gt;Node11 -->
<g id="edge10" class="edge"><title>Node10&#45;&gt;Node11</title>
<path fill="none" stroke="midnightblue" d="M1328.01,-16.0754C1336.78,-15.9926 1345.63,-15.9092 1354.31,-15.8273"/>
<polygon fill="midnightblue" stroke="midnightblue" points="1327.73,-12.5778 1317.76,-16.1721 1327.79,-19.5775 1327.73,-12.5778"/>
</g>
<!-- Node11&#45;&gt;Node9 -->
<g id="edge11" class="edge"><title>Node11&#45;&gt;Node9</title>
<path fill="none" stroke="midnightblue" d="M1541.67,-26.8393C1550.52,-27.9113 1559.38,-28.985 1567.97,-30.0262"/>
<polygon fill="midnightblue" stroke="midnightblue" points="1542.06,-23.3604 1531.71,-25.6316 1541.22,-30.3095 1542.06,-23.3604"/>
</g>
</g>
</svg>
