<?xml version="1.0" encoding="UTF-8" standalone="no"?>
<!DOCTYPE svg PUBLIC "-//W3C//DTD SVG 1.1//EN"
 "http://www.w3.org/Graphics/SVG/1.1/DTD/svg11.dtd">
<!-- Generated by graphviz version 2.36.0 (20140111.2315)
 -->
<!-- Title: factories.CommandFactory.ifCommands Pages: 1 -->
<svg width="1922pt" height="95pt"
 viewBox="0.00 0.00 1922.00 95.00" xmlns="http://www.w3.org/2000/svg" xmlns:xlink="http://www.w3.org/1999/xlink">
<g id="graph0" class="graph" transform="scale(1 1) rotate(0) translate(4 91)">
<title>factories.CommandFactory.ifCommands</title>
<polygon fill="white" stroke="none" points="-4,4 -4,-91 1918,-91 1918,4 -4,4"/>
<!-- Node1 -->
<g id="node1" class="node"><title>Node1</title>
<polygon fill="#bfbfbf" stroke="black" points="0,-43 0,-73 152,-73 152,-43 0,-43"/>
<text text-anchor="start" x="8" y="-61" font-family="Helvetica,sans-Serif" font-size="10.00">factories.CommandFactory.if</text>
<text text-anchor="middle" x="76" y="-50" font-family="Helvetica,sans-Serif" font-size="10.00">Commands</text>
</g>
<!-- Node2 -->
<g id="node2" class="node"><title>Node2</title>
<g id="a_node2"><a xlink:href="../../d5/d9c/classfactories_1_1_command_factory.html#a4c6d0dd68adc65612918d5629f87e046" target="_top" xlink:title="factories.CommandFactory.make\lCommandMap">
<polygon fill="white" stroke="black" points="188,-43 188,-73 362,-73 362,-43 188,-43"/>
<text text-anchor="start" x="196" y="-61" font-family="Helvetica,sans-Serif" font-size="10.00">factories.CommandFactory.make</text>
<text text-anchor="middle" x="275" y="-50" font-family="Helvetica,sans-Serif" font-size="10.00">CommandMap</text>
</a>
</g>
</g>
<!-- Node1&#45;&gt;Node2 -->
<g id="edge1" class="edge"><title>Node1&#45;&gt;Node2</title>
<path fill="none" stroke="midnightblue" d="M162.044,-58C170.634,-58 179.364,-58 187.965,-58"/>
<polygon fill="midnightblue" stroke="midnightblue" points="162.039,-54.5001 152.039,-58 162.039,-61.5001 162.039,-54.5001"/>
</g>
<!-- Node3 -->
<g id="node3" class="node"><title>Node3</title>
<g id="a_node3"><a xlink:href="../../d5/d9c/classfactories_1_1_command_factory.html#aadbfb6cc65ea4fa4257bdae2c6b8e097" target="_top" xlink:title="factories.CommandFactory.create\lCommand">
<polygon fill="white" stroke="black" points="398,-43 398,-73 576,-73 576,-43 398,-43"/>
<text text-anchor="start" x="406" y="-61" font-family="Helvetica,sans-Serif" font-size="10.00">factories.CommandFactory.create</text>
<text text-anchor="middle" x="487" y="-50" font-family="Helvetica,sans-Serif" font-size="10.00">Command</text>
</a>
</g>
</g>
<!-- Node2&#45;&gt;Node3 -->
<g id="edge2" class="edge"><title>Node2&#45;&gt;Node3</title>
<path fill="none" stroke="midnightblue" d="M372.025,-58C380.59,-58 389.235,-58 397.73,-58"/>
<polygon fill="midnightblue" stroke="midnightblue" points="372.021,-54.5001 362.021,-58 372.021,-61.5001 372.021,-54.5001"/>
</g>
<!-- Node4 -->
<g id="node4" class="node"><title>Node4</title>
<g id="a_node4"><a xlink:href="../../d6/d95/classparser_1_1_parser.html#a4ecbffc246c3add017c4720eed4c6da9" target="_top" xlink:title="parser.Parser.parse">
<polygon fill="white" stroke="black" points="612.5,-48.5 612.5,-67.5 721.5,-67.5 721.5,-48.5 612.5,-48.5"/>
<text text-anchor="middle" x="667" y="-55.5" font-family="Helvetica,sans-Serif" font-size="10.00">parser.Parser.parse</text>
</a>
</g>
</g>
<!-- Node3&#45;&gt;Node4 -->
<g id="edge3" class="edge"><title>Node3&#45;&gt;Node4</title>
<path fill="none" stroke="midnightblue" d="M586.243,-58C595.093,-58 603.819,-58 612.068,-58"/>
<polygon fill="midnightblue" stroke="midnightblue" points="586.218,-54.5001 576.218,-58 586.218,-61.5001 586.218,-54.5001"/>
</g>
<!-- Node5 -->
<g id="node5" class="node"><title>Node5</title>
<g id="a_node5"><a xlink:href="../../d6/d95/classparser_1_1_parser.html#a6b2d7b2b182d99537ce332ed0dfd3e03" target="_top" xlink:title="parser.Parser.main">
<polygon fill="white" stroke="black" points="758,-67.5 758,-86.5 864,-86.5 864,-67.5 758,-67.5"/>
<text text-anchor="middle" x="811" y="-74.5" font-family="Helvetica,sans-Serif" font-size="10.00">parser.Parser.main</text>
</a>
</g>
</g>
<!-- Node4&#45;&gt;Node5 -->
<g id="edge4" class="edge"><title>Node4&#45;&gt;Node5</title>
<path fill="none" stroke="midnightblue" d="M731.754,-66.5304C740.415,-67.6893 749.222,-68.8677 757.651,-69.9955"/>
<polygon fill="midnightblue" stroke="midnightblue" points="732.06,-63.0403 721.684,-65.1831 731.132,-69.9785 732.06,-63.0403"/>
</g>
<!-- Node6 -->
<g id="node6" class="node"><title>Node6</title>
<g id="a_node6"><a xlink:href="../../d9/dd0/classworld_1_1_world.html#ae370733f7784c42741a6ba66c7d2ecf5" target="_top" xlink:title="world.World.listen">
<polygon fill="white" stroke="black" points="762,-29.5 762,-48.5 860,-48.5 860,-29.5 762,-29.5"/>
<text text-anchor="middle" x="811" y="-36.5" font-family="Helvetica,sans-Serif" font-size="10.00">world.World.listen</text>
</a>
</g>
</g>
<!-- Node4&#45;&gt;Node6 -->
<g id="edge5" class="edge"><title>Node4&#45;&gt;Node6</title>
<path fill="none" stroke="midnightblue" d="M731.708,-49.4756C741.83,-48.1213 752.152,-46.7402 761.839,-45.4441"/>
<polygon fill="midnightblue" stroke="midnightblue" points="731.132,-46.0215 721.684,-50.8169 732.06,-52.9597 731.132,-46.0215"/>
</g>
<!-- Node7 -->
<g id="node7" class="node"><title>Node7</title>
<g id="a_node7"><a xlink:href="../../d8/d08/classworld_controller_1_1_world_controller.html#a178425d68e3e669c386706153ce44999" target="_top" xlink:title="worldController.WorldController.update">
<polygon fill="white" stroke="black" points="900,-29.5 900,-48.5 1098,-48.5 1098,-29.5 900,-29.5"/>
<text text-anchor="middle" x="999" y="-36.5" font-family="Helvetica,sans-Serif" font-size="10.00">worldController.WorldController.update</text>
</a>
</g>
</g>
<!-- Node6&#45;&gt;Node7 -->
<g id="edge6" class="edge"><title>Node6&#45;&gt;Node7</title>
<path fill="none" stroke="midnightblue" d="M870.637,-39C879.94,-39 889.777,-39 899.695,-39"/>
<polygon fill="midnightblue" stroke="midnightblue" points="870.384,-35.5001 860.384,-39 870.384,-42.5001 870.384,-35.5001"/>
</g>
<!-- Node8 -->
<g id="node8" class="node"><title>Node8</title>
<g id="a_node8"><a xlink:href="../../dd/d8e/classuser_interface_1_1_user_interface.html#a95e324c85888faea808be269e44ed5b8" target="_top" xlink:title="userInterface.UserInterface.run\lCommand">
<polygon fill="white" stroke="black" points="1134,-24 1134,-54 1300,-54 1300,-24 1134,-24"/>
<text text-anchor="start" x="1142" y="-42" font-family="Helvetica,sans-Serif" font-size="10.00">userInterface.UserInterface.run</text>
<text text-anchor="middle" x="1217" y="-31" font-family="Helvetica,sans-Serif" font-size="10.00">Command</text>
</a>
</g>
</g>
<!-- Node7&#45;&gt;Node8 -->
<g id="edge7" class="edge"><title>Node7&#45;&gt;Node8</title>
<path fill="none" stroke="midnightblue" d="M1108.29,-39C1116.89,-39 1125.49,-39 1133.87,-39"/>
<polygon fill="midnightblue" stroke="midnightblue" points="1108.2,-35.5001 1098.2,-39 1108.2,-42.5001 1108.2,-35.5001"/>
</g>
<!-- Node9 -->
<g id="node9" class="node"><title>Node9</title>
<g id="a_node9"><a xlink:href="../../dd/d8e/classuser_interface_1_1_user_interface.html#a560c36977fddeee87002333870c54ed6" target="_top" xlink:title="userInterface.UserInterface.set\lUpResponses">
<polygon fill="white" stroke="black" points="1556.5,-49 1556.5,-79 1721.5,-79 1721.5,-49 1556.5,-49"/>
<text text-anchor="start" x="1564.5" y="-67" font-family="Helvetica,sans-Serif" font-size="10.00">userInterface.UserInterface.set</text>
<text text-anchor="middle" x="1639" y="-56" font-family="Helvetica,sans-Serif" font-size="10.00">UpResponses</text>
</a>
</g>
</g>
<!-- Node8&#45;&gt;Node9 -->
<g id="edge8" class="edge"><title>Node8&#45;&gt;Node9</title>
<path fill="none" stroke="midnightblue" d="M1310.4,-44.5003C1383.91,-48.8757 1485.79,-54.9396 1556.33,-59.1386"/>
<polygon fill="midnightblue" stroke="midnightblue" points="1310.42,-40.9949 1300.23,-43.8945 1310,-47.9826 1310.42,-40.9949"/>
</g>
<!-- Node11 -->
<g id="node11" class="node"><title>Node11</title>
<g id="a_node11"><a xlink:href="../../dd/d8e/classuser_interface_1_1_user_interface.html#a4316649a1f81fcc1dcaf93c812bf6f3a" target="_top" xlink:title="userInterface.UserInterface.make\lRunButton">
<polygon fill="white" stroke="black" points="1336.5,-2 1336.5,-32 1513.5,-32 1513.5,-2 1336.5,-2"/>
<text text-anchor="start" x="1344.5" y="-20" font-family="Helvetica,sans-Serif" font-size="10.00">userInterface.UserInterface.make</text>
<text text-anchor="middle" x="1425" y="-9" font-family="Helvetica,sans-Serif" font-size="10.00">RunButton</text>
</a>
</g>
</g>
<!-- Node8&#45;&gt;Node11 -->
<g id="edge10" class="edge"><title>Node8&#45;&gt;Node11</title>
<path fill="none" stroke="midnightblue" d="M1310.12,-29.1618C1318.79,-28.2361 1327.56,-27.2994 1336.19,-26.3781"/>
<polygon fill="midnightblue" stroke="midnightblue" points="1309.58,-25.6996 1300.01,-30.2418 1310.32,-32.66 1309.58,-25.6996"/>
</g>
<!-- Node10 -->
<g id="node10" class="node"><title>Node10</title>
<g id="a_node10"><a xlink:href="../../dd/d8e/classuser_interface_1_1_user_interface.html#af296b064499e62c4fbfbf73da6456532" target="_top" xlink:title="userInterface.UserInterface.\lUserInterface">
<polygon fill="white" stroke="black" points="1764,-24 1764,-54 1914,-54 1914,-24 1764,-24"/>
<text text-anchor="start" x="1772" y="-42" font-family="Helvetica,sans-Serif" font-size="10.00">userInterface.UserInterface.</text>
<text text-anchor="middle" x="1839" y="-31" font-family="Helvetica,sans-Serif" font-size="10.00">UserInterface</text>
</a>
</g>
</g>
<!-- Node9&#45;&gt;Node10 -->
<g id="edge9" class="edge"><title>Node9&#45;&gt;Node10</title>
<path fill="none" stroke="midnightblue" d="M1731.88,-52.3986C1742.58,-51.0478 1753.39,-49.683 1763.81,-48.3677"/>
<polygon fill="midnightblue" stroke="midnightblue" points="1731.16,-48.962 1721.68,-53.6872 1732.04,-55.9069 1731.16,-48.962"/>
</g>
<!-- Node12 -->
<g id="node12" class="node"><title>Node12</title>
<g id="a_node12"><a xlink:href="../../dd/d8e/classuser_interface_1_1_user_interface.html#a6d39ee7d7ae35fc0539bb714bce6221a" target="_top" xlink:title="userInterface.UserInterface.make\lFunctionButtons">
<polygon fill="white" stroke="black" points="1550.5,-0 1550.5,-30 1727.5,-30 1727.5,-0 1550.5,-0"/>
<text text-anchor="start" x="1558.5" y="-18" font-family="Helvetica,sans-Serif" font-size="10.00">userInterface.UserInterface.make</text>
<text text-anchor="middle" x="1639" y="-7" font-family="Helvetica,sans-Serif" font-size="10.00">FunctionButtons</text>
</a>
</g>
</g>
<!-- Node11&#45;&gt;Node12 -->
<g id="edge11" class="edge"><title>Node11&#45;&gt;Node12</title>
<path fill="none" stroke="midnightblue" d="M1524.01,-16.0754C1532.78,-15.9926 1541.63,-15.9092 1550.31,-15.8273"/>
<polygon fill="midnightblue" stroke="midnightblue" points="1523.73,-12.5778 1513.76,-16.1721 1523.79,-19.5775 1523.73,-12.5778"/>
</g>
<!-- Node12&#45;&gt;Node10 -->
<g id="edge12" class="edge"><title>Node12&#45;&gt;Node10</title>
<path fill="none" stroke="midnightblue" d="M1737.67,-26.8393C1746.52,-27.9113 1755.38,-28.985 1763.97,-30.0262"/>
<polygon fill="midnightblue" stroke="midnightblue" points="1738.06,-23.3604 1727.71,-25.6316 1737.22,-30.3095 1738.06,-23.3604"/>
</g>
</g>
</svg>
