<?xml version="1.0" encoding="UTF-8" standalone="no"?>
<!DOCTYPE svg PUBLIC "-//W3C//DTD SVG 1.1//EN"
 "http://www.w3.org/Graphics/SVG/1.1/DTD/svg11.dtd">
<!-- Generated by graphviz version 2.36.0 (20140111.2315)
 -->
<!-- Title: factories.CommandFactory.createCommand Pages: 1 -->
<!--zoomable 356 -->
<svg id="main" version="1.1" xmlns="http://www.w3.org/2000/svg" xmlns:xlink="http://www.w3.org/1999/xlink" xml:space="preserve" onload="init(evt)">
<style type="text/css"><![CDATA[
.edge:hover path { stroke: red; }
.edge:hover polygon { stroke: red; fill: red; }
]]></style>
<script type="text/javascript"><![CDATA[
var edges = document.getElementsByTagName('g');
if (edges && edges.length) {
  for (var i=0;i<edges.length;i++) {
    if (edges[i].id.substr(0,4)=='edge') {
      edges[i].setAttribute('class','edge');
    }
  }
}
]]></script>
        <defs>
                <circle id="rim" cx="0" cy="0" r="7"/>
                <circle id="rim2" cx="0" cy="0" r="3.5"/>
                <g id="zoomPlus">
                        <use xlink:href="#rim" fill="#404040">
                                <set attributeName="fill" to="#808080" begin="zoomplus.mouseover" end="zoomplus.mouseout"/>
                        </use>
                        <path d="M-4,0h8M0,-4v8" fill="none" stroke="white" stroke-width="1.5" pointer-events="none"/>
                </g>
                <g id="zoomMin">
                        <use xlink:href="#rim" fill="#404040">
                                <set attributeName="fill" to="#808080" begin="zoomminus.mouseover" end="zoomminus.mouseout"/>
                        </use>
                        <path d="M-4,0h8" fill="none" stroke="white" stroke-width="1.5" pointer-events="none"/>
                </g>
                <g id="dirArrow">
                        <path fill="none" stroke="white" stroke-width="1.5" d="M0,-3.0v7 M-2.5,-0.5L0,-3.0L2.5,-0.5"/>
                </g>
               <g id="resetDef">
                       <use xlink:href="#rim2" fill="#404040">
                               <set attributeName="fill" to="#808080" begin="reset.mouseover" end="reset.mouseout"/>
                       </use>
               </g>
        </defs>

<script type="text/javascript">
var viewWidth = 840;
var viewHeight = 356;
var sectionId = 'dynsection-6';
</script>
<script xlink:href="../../svgpan.js"/>
<svg id="graph" class="graph">
<g id="viewport">
<title>factories.CommandFactory.createCommand</title>
<polygon fill="white" stroke="none" points="-4,4 -4,-352 836,-352 836,4 -4,4"/>
<!-- Node1 -->
<g id="node1" class="node"><title>Node1</title>
<polygon fill="#bfbfbf" stroke="black" points="0,-146 0,-176 178,-176 178,-146 0,-146"/>
<text text-anchor="start" x="8" y="-164" font-family="Helvetica,sans-Serif" font-size="10.00">factories.CommandFactory.create</text>
<text text-anchor="middle" x="89" y="-153" font-family="Helvetica,sans-Serif" font-size="10.00">Command</text>
</g>
<!-- Node2 -->
<g id="node2" class="node"><title>Node2</title>
<g id="a_node2"><a xlink:href="../../d5/d9c/classfactories_1_1_command_factory.html#ac28395af261dafe524b4498bd587782e" target="_top" xlink:title="factories.CommandFactory.add\lVariable">
<polygon fill="white" stroke="black" points="226.5,-220 226.5,-250 391.5,-250 391.5,-220 226.5,-220"/>
<text text-anchor="start" x="234.5" y="-238" font-family="Helvetica,sans-Serif" font-size="10.00">factories.CommandFactory.add</text>
<text text-anchor="middle" x="309" y="-227" font-family="Helvetica,sans-Serif" font-size="10.00">Variable</text>
</a>
</g>
</g>
<!-- Node1&#45;&gt;Node2 -->
<g id="edge1" class="edge"><title>Node1&#45;&gt;Node2</title>
<path fill="none" stroke="midnightblue" d="M124.877,-176.043C149.509,-186.355 183.439,-199.936 214,-210 221.583,-212.497 229.571,-214.925 237.556,-217.223"/>
<polygon fill="midnightblue" stroke="midnightblue" points="236.693,-220.616 247.267,-219.959 238.591,-213.878 236.693,-220.616"/>
</g>
<!-- Node3 -->
<g id="node3" class="node"><title>Node3</title>
<g id="a_node3"><a xlink:href="../../d5/d9c/classfactories_1_1_command_factory.html#a4c6d0dd68adc65612918d5629f87e046" target="_top" xlink:title="factories.CommandFactory.make\lCommandMap">
<polygon fill="white" stroke="black" points="222,-171 222,-201 396,-201 396,-171 222,-171"/>
<text text-anchor="start" x="230" y="-189" font-family="Helvetica,sans-Serif" font-size="10.00">factories.CommandFactory.make</text>
<text text-anchor="middle" x="309" y="-178" font-family="Helvetica,sans-Serif" font-size="10.00">CommandMap</text>
</a>
</g>
</g>
<!-- Node1&#45;&gt;Node3 -->
<g id="edge2" class="edge"><title>Node1&#45;&gt;Node3</title>
<path fill="none" stroke="midnightblue" d="M178.041,-171.096C189.078,-172.362 200.414,-173.662 211.572,-174.942"/>
<polygon fill="midnightblue" stroke="midnightblue" points="211.421,-178.447 221.755,-176.11 212.219,-171.493 211.421,-178.447"/>
</g>
<!-- Node10 -->
<g id="node10" class="node"><title>Node10</title>
<g id="a_node10"><a xlink:href="../../d5/d9c/classfactories_1_1_command_factory.html#a1125546e0f8a72a5fa2207a7c71eec6b" target="_top" xlink:title="factories.CommandFactory.make\lParams">
<polygon fill="white" stroke="black" points="222,-122 222,-152 396,-152 396,-122 222,-122"/>
<text text-anchor="start" x="230" y="-140" font-family="Helvetica,sans-Serif" font-size="10.00">factories.CommandFactory.make</text>
<text text-anchor="middle" x="309" y="-129" font-family="Helvetica,sans-Serif" font-size="10.00">Params</text>
</a>
</g>
</g>
<!-- Node1&#45;&gt;Node10 -->
<g id="edge9" class="edge"><title>Node1&#45;&gt;Node10</title>
<path fill="none" stroke="midnightblue" d="M178.041,-151.307C189.078,-150.092 200.414,-148.844 211.572,-147.616"/>
<polygon fill="midnightblue" stroke="midnightblue" points="212.198,-151.068 221.755,-146.495 211.432,-144.11 212.198,-151.068"/>
</g>
<!-- Node14 -->
<g id="node14" class="node"><title>Node14</title>
<g id="a_node14"><a xlink:href="../../d5/d9c/classfactories_1_1_command_factory.html#af5d8310dede46dd315ab81a9c8e56d16" target="_top" xlink:title="factories.CommandFactory.translate\lCommand">
<polygon fill="white" stroke="black" points="214,-73 214,-103 404,-103 404,-73 214,-73"/>
<text text-anchor="start" x="222" y="-91" font-family="Helvetica,sans-Serif" font-size="10.00">factories.CommandFactory.translate</text>
<text text-anchor="middle" x="309" y="-80" font-family="Helvetica,sans-Serif" font-size="10.00">Command</text>
</a>
</g>
</g>
<!-- Node1&#45;&gt;Node14 -->
<g id="edge13" class="edge"><title>Node1&#45;&gt;Node14</title>
<path fill="none" stroke="midnightblue" d="M125.709,-145.981C150.285,-135.941 183.817,-122.823 214,-113 221.649,-110.511 229.706,-108.082 237.754,-105.778"/>
<polygon fill="midnightblue" stroke="midnightblue" points="238.855,-109.104 247.538,-103.034 236.965,-102.365 238.855,-109.104"/>
</g>
<!-- Node4 -->
<g id="node4" class="node"><title>Node4</title>
<g id="a_node4"><a xlink:href="../../d5/d9c/classfactories_1_1_command_factory.html#aa6426cc26d8396d9f75538d61f189e84" target="_top" xlink:title="factories.CommandFactory.turtle\lCommands">
<polygon fill="white" stroke="black" points="446.5,-318 446.5,-348 619.5,-348 619.5,-318 446.5,-318"/>
<text text-anchor="start" x="454.5" y="-336" font-family="Helvetica,sans-Serif" font-size="10.00">factories.CommandFactory.turtle</text>
<text text-anchor="middle" x="533" y="-325" font-family="Helvetica,sans-Serif" font-size="10.00">Commands</text>
</a>
</g>
</g>
<!-- Node3&#45;&gt;Node4 -->
<g id="edge3" class="edge"><title>Node3&#45;&gt;Node4</title>
<path fill="none" stroke="midnightblue" d="M389.881,-201.082C394.973,-203.862 399.751,-207.138 404,-211 438.03,-241.928 406.054,-276.98 440,-308 441.688,-309.542 443.461,-310.991 445.306,-312.351"/>
<polygon fill="midnightblue" stroke="midnightblue" points="443.495,-315.348 453.81,-317.77 447.257,-309.444 443.495,-315.348"/>
</g>
<!-- Node5 -->
<g id="node5" class="node"><title>Node5</title>
<g id="a_node5"><a xlink:href="../../d5/d9c/classfactories_1_1_command_factory.html#a1c1a978ea4c51cbfadb12ca3140b6b3a" target="_top" xlink:title="factories.CommandFactory.query\lCommands">
<polygon fill="white" stroke="black" points="446,-269 446,-299 620,-299 620,-269 446,-269"/>
<text text-anchor="start" x="454" y="-287" font-family="Helvetica,sans-Serif" font-size="10.00">factories.CommandFactory.query</text>
<text text-anchor="middle" x="533" y="-276" font-family="Helvetica,sans-Serif" font-size="10.00">Commands</text>
</a>
</g>
</g>
<!-- Node3&#45;&gt;Node5 -->
<g id="edge4" class="edge"><title>Node3&#45;&gt;Node5</title>
<path fill="none" stroke="midnightblue" d="M385.395,-201.087C391.949,-203.854 398.261,-207.127 404,-211 426.105,-225.916 417.936,-244.024 440,-259 443.056,-261.074 446.278,-262.976 449.613,-264.721"/>
<polygon fill="midnightblue" stroke="midnightblue" points="448.136,-267.894 458.674,-268.982 451.114,-261.559 448.136,-267.894"/>
</g>
<!-- Node6 -->
<g id="node6" class="node"><title>Node6</title>
<g id="a_node6"><a xlink:href="../../d5/d9c/classfactories_1_1_command_factory.html#a883fd5deb5ebfdbc8ac9d4e920bbfb10" target="_top" xlink:title="factories.CommandFactory.math\lCommands">
<polygon fill="white" stroke="black" points="446.5,-220 446.5,-250 619.5,-250 619.5,-220 446.5,-220"/>
<text text-anchor="start" x="454.5" y="-238" font-family="Helvetica,sans-Serif" font-size="10.00">factories.CommandFactory.math</text>
<text text-anchor="middle" x="533" y="-227" font-family="Helvetica,sans-Serif" font-size="10.00">Commands</text>
</a>
</g>
</g>
<!-- Node3&#45;&gt;Node6 -->
<g id="edge5" class="edge"><title>Node3&#45;&gt;Node6</title>
<path fill="none" stroke="midnightblue" d="M378.116,-201.035C402.089,-206.326 429.215,-212.313 453.943,-217.771"/>
<polygon fill="midnightblue" stroke="midnightblue" points="453.493,-221.256 464.013,-219.994 455.002,-214.421 453.493,-221.256"/>
</g>
<!-- Node7 -->
<g id="node7" class="node"><title>Node7</title>
<g id="a_node7"><a xlink:href="../../d5/d9c/classfactories_1_1_command_factory.html#a5292b29f4ad537c83565665f3d0d925e" target="_top" xlink:title="factories.CommandFactory.boolean\lCommands">
<polygon fill="white" stroke="black" points="440.5,-171 440.5,-201 625.5,-201 625.5,-171 440.5,-171"/>
<text text-anchor="start" x="448.5" y="-189" font-family="Helvetica,sans-Serif" font-size="10.00">factories.CommandFactory.boolean</text>
<text text-anchor="middle" x="533" y="-178" font-family="Helvetica,sans-Serif" font-size="10.00">Commands</text>
</a>
</g>
</g>
<!-- Node3&#45;&gt;Node7 -->
<g id="edge6" class="edge"><title>Node3&#45;&gt;Node7</title>
<path fill="none" stroke="midnightblue" d="M396.149,-186C407.366,-186 418.941,-186 430.382,-186"/>
<polygon fill="midnightblue" stroke="midnightblue" points="430.389,-189.5 440.389,-186 430.389,-182.5 430.389,-189.5"/>
</g>
<!-- Node8 -->
<g id="node8" class="node"><title>Node8</title>
<g id="a_node8"><a xlink:href="../../d5/d9c/classfactories_1_1_command_factory.html#a46dbbfd0b30737af25939e97752d5136" target="_top" xlink:title="factories.CommandFactory.if\lCommands">
<polygon fill="white" stroke="black" points="457,-122 457,-152 609,-152 609,-122 457,-122"/>
<text text-anchor="start" x="465" y="-140" font-family="Helvetica,sans-Serif" font-size="10.00">factories.CommandFactory.if</text>
<text text-anchor="middle" x="533" y="-129" font-family="Helvetica,sans-Serif" font-size="10.00">Commands</text>
</a>
</g>
</g>
<!-- Node3&#45;&gt;Node8 -->
<g id="edge7" class="edge"><title>Node3&#45;&gt;Node8</title>
<path fill="none" stroke="midnightblue" d="M378.116,-170.965C402.089,-165.674 429.215,-159.687 453.943,-154.229"/>
<polygon fill="midnightblue" stroke="midnightblue" points="455.002,-157.579 464.013,-152.006 453.493,-150.744 455.002,-157.579"/>
</g>
<!-- Node9 -->
<g id="node9" class="node"><title>Node9</title>
<g id="a_node9"><a xlink:href="../../d5/d9c/classfactories_1_1_command_factory.html#ac1cc33f40758c92aff1b989f99454795" target="_top" xlink:title="factories.CommandFactory.loop\lCommands">
<polygon fill="white" stroke="black" points="449.5,-73 449.5,-103 616.5,-103 616.5,-73 449.5,-73"/>
<text text-anchor="start" x="457.5" y="-91" font-family="Helvetica,sans-Serif" font-size="10.00">factories.CommandFactory.loop</text>
<text text-anchor="middle" x="533" y="-80" font-family="Helvetica,sans-Serif" font-size="10.00">Commands</text>
</a>
</g>
</g>
<!-- Node3&#45;&gt;Node9 -->
<g id="edge8" class="edge"><title>Node3&#45;&gt;Node9</title>
<path fill="none" stroke="midnightblue" d="M385.395,-170.913C391.949,-168.146 398.261,-164.873 404,-161 426.105,-146.084 417.936,-127.976 440,-113 443.056,-110.926 446.278,-109.024 449.613,-107.279"/>
<polygon fill="midnightblue" stroke="midnightblue" points="451.114,-110.441 458.674,-103.018 448.136,-104.106 451.114,-110.441"/>
</g>
<!-- Node11 -->
<g id="node11" class="node"><title>Node11</title>
<g id="a_node11"><a xlink:href="../../d5/d9c/classfactories_1_1_command_factory.html#ab7f7ba1a35c043e109b56bc23dfb32d0" target="_top" xlink:title="factories.CommandFactory.add\lParam">
<polygon fill="white" stroke="black" points="450.5,-24 450.5,-54 615.5,-54 615.5,-24 450.5,-24"/>
<text text-anchor="start" x="458.5" y="-42" font-family="Helvetica,sans-Serif" font-size="10.00">factories.CommandFactory.add</text>
<text text-anchor="middle" x="533" y="-31" font-family="Helvetica,sans-Serif" font-size="10.00">Param</text>
</a>
</g>
</g>
<!-- Node10&#45;&gt;Node11 -->
<g id="edge10" class="edge"><title>Node10&#45;&gt;Node11</title>
<path fill="none" stroke="midnightblue" d="M385.395,-121.913C391.949,-119.146 398.261,-115.873 404,-112 426.105,-97.0836 417.936,-78.9759 440,-64 443.056,-61.926 446.278,-60.0236 449.613,-58.2787"/>
<polygon fill="midnightblue" stroke="midnightblue" points="451.114,-61.4406 458.674,-54.0178 448.136,-55.106 451.114,-61.4406"/>
</g>
<!-- Node12 -->
<g id="node12" class="node"><title>Node12</title>
<g id="a_node12"><a xlink:href="../../d5/d9c/classfactories_1_1_command_factory.html#a53b4255ecbbdd516b99b1647cf9e5359" target="_top" xlink:title="factories.CommandFactory.is\lVariable">
<polygon fill="white" stroke="black" points="669.5,-49 669.5,-79 824.5,-79 824.5,-49 669.5,-49"/>
<text text-anchor="start" x="677.5" y="-67" font-family="Helvetica,sans-Serif" font-size="10.00">factories.CommandFactory.is</text>
<text text-anchor="middle" x="747" y="-56" font-family="Helvetica,sans-Serif" font-size="10.00">Variable</text>
</a>
</g>
</g>
<!-- Node11&#45;&gt;Node12 -->
<g id="edge11" class="edge"><title>Node11&#45;&gt;Node12</title>
<path fill="none" stroke="midnightblue" d="M615.661,-48.6299C629.835,-50.3012 644.621,-52.045 658.932,-53.7326"/>
<polygon fill="midnightblue" stroke="midnightblue" points="658.912,-57.2543 669.253,-54.9496 659.732,-50.3025 658.912,-57.2543"/>
</g>
<!-- Node13 -->
<g id="node13" class="node"><title>Node13</title>
<g id="a_node13"><a xlink:href="../../d5/d9c/classfactories_1_1_command_factory.html#ac75dced2e30745174958ba6189ed4d59" target="_top" xlink:title="factories.CommandFactory.read\lVariable">
<polygon fill="white" stroke="black" points="662.5,-0 662.5,-30 831.5,-30 831.5,-0 662.5,-0"/>
<text text-anchor="start" x="670.5" y="-18" font-family="Helvetica,sans-Serif" font-size="10.00">factories.CommandFactory.read</text>
<text text-anchor="middle" x="747" y="-7" font-family="Helvetica,sans-Serif" font-size="10.00">Variable</text>
</a>
</g>
</g>
<!-- Node11&#45;&gt;Node13 -->
<g id="edge12" class="edge"><title>Node11&#45;&gt;Node13</title>
<path fill="none" stroke="midnightblue" d="M615.661,-29.7553C627.599,-28.4039 639.972,-27.0031 652.13,-25.6268"/>
<polygon fill="midnightblue" stroke="midnightblue" points="652.734,-29.0809 662.277,-24.4781 651.947,-22.1253 652.734,-29.0809"/>
</g>
</g>
</svg>
        <g id="navigator" transform="translate(0 0)" fill="#404254">
                <rect fill="#f2f5e9" fill-opacity="0.5" stroke="#606060" stroke-width=".5" x="0" y="0" width="60" height="60"/>
                <use id="zoomplus" xlink:href="#zoomPlus" x="17" y="9" onmousedown="handleZoom(evt,'in')"/>
                <use id="zoomminus" xlink:href="#zoomMin" x="42" y="9" onmousedown="handleZoom(evt,'out')"/>
                <use id="reset" xlink:href="#resetDef" x="30" y="36" onmousedown="handleReset()"/>
                <g id="arrowUp" xlink:href="#dirArrow" transform="translate(30 24)" onmousedown="handlePan(0,-1)">
                  <use xlink:href="#rim" fill="#404040">
                        <set attributeName="fill" to="#808080" begin="arrowUp.mouseover" end="arrowUp.mouseout"/>
                  </use>
                  <path fill="none" stroke="white" stroke-width="1.5" d="M0,-3.0v7 M-2.5,-0.5L0,-3.0L2.5,-0.5"/>
                </g>
                <g id="arrowRight" xlink:href="#dirArrow" transform="rotate(90) translate(36 -43)" onmousedown="handlePan(1,0)">
                  <use xlink:href="#rim" fill="#404040">
                        <set attributeName="fill" to="#808080" begin="arrowRight.mouseover" end="arrowRight.mouseout"/>
                  </use>
                  <path fill="none" stroke="white" stroke-width="1.5" d="M0,-3.0v7 M-2.5,-0.5L0,-3.0L2.5,-0.5"/>
                </g>
                <g id="arrowDown" xlink:href="#dirArrow" transform="rotate(180) translate(-30 -48)" onmousedown="handlePan(0,1)">
                  <use xlink:href="#rim" fill="#404040">
                        <set attributeName="fill" to="#808080" begin="arrowDown.mouseover" end="arrowDown.mouseout"/>
                  </use>
                  <path fill="none" stroke="white" stroke-width="1.5" d="M0,-3.0v7 M-2.5,-0.5L0,-3.0L2.5,-0.5"/>
                </g>
                <g id="arrowLeft" xlink:href="#dirArrow" transform="rotate(270) translate(-36 17)" onmousedown="handlePan(-1,0)">
                  <use xlink:href="#rim" fill="#404040">
                        <set attributeName="fill" to="#808080" begin="arrowLeft.mouseover" end="arrowLeft.mouseout"/>
                  </use>
                  <path fill="none" stroke="white" stroke-width="1.5" d="M0,-3.0v7 M-2.5,-0.5L0,-3.0L2.5,-0.5"/>
                </g>
        </g>
        <svg viewBox="0 0 15 15" width="100%" height="30px" preserveAspectRatio="xMaxYMin meet">
         <g id="arrow_out" transform="scale(0.3 0.3)">
          <a xlink:href="classfactories_1_1_command_factory_aadbfb6cc65ea4fa4257bdae2c6b8e097_cgraph_org.svg" target="_base">
           <rect id="button" ry="5" rx="5" y="6" x="6" height="38" width="38"
                fill="#f2f5e9" fill-opacity="0.5" stroke="#606060" stroke-width="1.0"/>
           <path id="arrow"
             d="M 11.500037,31.436501 C 11.940474,20.09759 22.043105,11.32322 32.158766,21.979434 L 37.068811,17.246167 C 37.068811,17.246167 37.088388,32 37.088388,32 L 22.160133,31.978069 C 22.160133,31.978069 26.997745,27.140456 26.997745,27.140456 C 18.528582,18.264221 13.291696,25.230495 11.500037,31.436501 z"
             style="fill:#404040;"/>
          </a>
         </g>
        </svg>
</svg>
