<?xml version="1.0" encoding="UTF-8" standalone="no"?>
<!DOCTYPE svg PUBLIC "-//W3C//DTD SVG 1.1//EN"
 "http://www.w3.org/Graphics/SVG/1.1/DTD/svg11.dtd">
<!-- Generated by graphviz version 2.36.0 (20140111.2315)
 -->
<!-- Title: factories.CommandFactory.getNumParameters Pages: 1 -->
<svg width="1684pt" height="105pt"
 viewBox="0.00 0.00 1684.00 105.00" xmlns="http://www.w3.org/2000/svg" xmlns:xlink="http://www.w3.org/1999/xlink">
<g id="graph0" class="graph" transform="scale(1 1) rotate(0) translate(4 101)">
<title>factories.CommandFactory.getNumParameters</title>
<polygon fill="white" stroke="none" points="-4,4 -4,-101 1680,-101 1680,4 -4,4"/>
<!-- Node1 -->
<g id="node1" class="node"><title>Node1</title>
<polygon fill="#bfbfbf" stroke="black" points="0.5,-45 0.5,-75 163.5,-75 163.5,-45 0.5,-45"/>
<text text-anchor="start" x="8.5" y="-63" font-family="Helvetica,sans-Serif" font-size="10.00">factories.CommandFactory.get</text>
<text text-anchor="middle" x="82" y="-52" font-family="Helvetica,sans-Serif" font-size="10.00">NumParameters</text>
</g>
<!-- Node2 -->
<g id="node2" class="node"><title>Node2</title>
<g id="a_node2"><a xlink:href="../../d6/d95/classparser_1_1_parser.html#a4f582c65390bddc57219c0b5c31ef5e7" target="_top" xlink:title="parser.Parser.makeTree">
<polygon fill="white" stroke="black" points="200,-50.5 200,-69.5 328,-69.5 328,-50.5 200,-50.5"/>
<text text-anchor="middle" x="264" y="-57.5" font-family="Helvetica,sans-Serif" font-size="10.00">parser.Parser.makeTree</text>
</a>
</g>
</g>
<!-- Node1&#45;&gt;Node2 -->
<g id="edge1" class="edge"><title>Node1&#45;&gt;Node2</title>
<path fill="none" stroke="midnightblue" d="M173.54,-60C182.425,-60 191.303,-60 199.827,-60"/>
<polygon fill="midnightblue" stroke="midnightblue" points="173.523,-56.5001 163.523,-60 173.523,-63.5001 173.523,-56.5001"/>
</g>
<!-- Node3 -->
<g id="node3" class="node"><title>Node3</title>
<g id="a_node3"><a xlink:href="../../d6/d95/classparser_1_1_parser.html#a240c75608624a9c67402a296855c4d1d" target="_top" xlink:title="parser.Parser.initialize\lCommands">
<polygon fill="white" stroke="black" points="364,-67 364,-97 484,-97 484,-67 364,-67"/>
<text text-anchor="start" x="372" y="-85" font-family="Helvetica,sans-Serif" font-size="10.00">parser.Parser.initialize</text>
<text text-anchor="middle" x="424" y="-74" font-family="Helvetica,sans-Serif" font-size="10.00">Commands</text>
</a>
</g>
</g>
<!-- Node2&#45;&gt;Node3 -->
<g id="edge2" class="edge"><title>Node2&#45;&gt;Node3</title>
<path fill="none" stroke="midnightblue" d="M338.368,-70.2158C346.954,-71.4114 355.63,-72.6193 363.986,-73.7828"/>
<polygon fill="midnightblue" stroke="midnightblue" points="338.741,-66.7341 328.354,-68.8215 337.776,-73.6672 338.741,-66.7341"/>
</g>
<!-- Node12 -->
<g id="node12" class="node"><title>Node12</title>
<g id="a_node12"><a xlink:href="../../d6/d95/classparser_1_1_parser.html#a4ecbffc246c3add017c4720eed4c6da9" target="_top" xlink:title="parser.Parser.parse">
<polygon fill="white" stroke="black" points="369.5,-28.5 369.5,-47.5 478.5,-47.5 478.5,-28.5 369.5,-28.5"/>
<text text-anchor="middle" x="424" y="-35.5" font-family="Helvetica,sans-Serif" font-size="10.00">parser.Parser.parse</text>
</a>
</g>
</g>
<!-- Node2&#45;&gt;Node12 -->
<g id="edge12" class="edge"><title>Node2&#45;&gt;Node12</title>
<path fill="none" stroke="midnightblue" d="M338.299,-49.7938C348.739,-48.3402 359.312,-46.8679 369.284,-45.4794"/>
<polygon fill="midnightblue" stroke="midnightblue" points="337.776,-46.3328 328.354,-51.1785 338.741,-53.2659 337.776,-46.3328"/>
</g>
<!-- Node4 -->
<g id="node4" class="node"><title>Node4</title>
<g id="a_node4"><a xlink:href="../../d6/d95/classparser_1_1_parser.html#a6b2d7b2b182d99537ce332ed0dfd3e03" target="_top" xlink:title="parser.Parser.main">
<polygon fill="white" stroke="black" points="520,-70.5 520,-89.5 626,-89.5 626,-70.5 520,-70.5"/>
<text text-anchor="middle" x="573" y="-77.5" font-family="Helvetica,sans-Serif" font-size="10.00">parser.Parser.main</text>
</a>
</g>
</g>
<!-- Node3&#45;&gt;Node4 -->
<g id="edge3" class="edge"><title>Node3&#45;&gt;Node4</title>
<path fill="none" stroke="midnightblue" d="M494.409,-81.0557C503.016,-80.9386 511.699,-80.8204 519.983,-80.7077"/>
<polygon fill="midnightblue" stroke="midnightblue" points="494.318,-77.5565 484.367,-81.1923 494.414,-84.5558 494.318,-77.5565"/>
</g>
<!-- Node5 -->
<g id="node5" class="node"><title>Node5</title>
<g id="a_node5"><a xlink:href="../../d9/dd0/classworld_1_1_world.html#ae370733f7784c42741a6ba66c7d2ecf5" target="_top" xlink:title="world.World.listen">
<polygon fill="white" stroke="black" points="524,-29.5 524,-48.5 622,-48.5 622,-29.5 524,-29.5"/>
<text text-anchor="middle" x="573" y="-36.5" font-family="Helvetica,sans-Serif" font-size="10.00">world.World.listen</text>
</a>
</g>
</g>
<!-- Node3&#45;&gt;Node5 -->
<g id="edge4" class="edge"><title>Node3&#45;&gt;Node5</title>
<path fill="none" stroke="midnightblue" d="M486.104,-64.126C504.316,-58.7988 523.573,-53.1658 539.228,-48.5865"/>
<polygon fill="midnightblue" stroke="midnightblue" points="485.029,-60.7939 476.413,-66.9607 486.994,-67.5123 485.029,-60.7939"/>
</g>
<!-- Node6 -->
<g id="node6" class="node"><title>Node6</title>
<g id="a_node6"><a xlink:href="../../d8/d08/classworld_controller_1_1_world_controller.html#a178425d68e3e669c386706153ce44999" target="_top" xlink:title="worldController.WorldController.update">
<polygon fill="white" stroke="black" points="662,-29.5 662,-48.5 860,-48.5 860,-29.5 662,-29.5"/>
<text text-anchor="middle" x="761" y="-36.5" font-family="Helvetica,sans-Serif" font-size="10.00">worldController.WorldController.update</text>
</a>
</g>
</g>
<!-- Node5&#45;&gt;Node6 -->
<g id="edge5" class="edge"><title>Node5&#45;&gt;Node6</title>
<path fill="none" stroke="midnightblue" d="M632.637,-39C641.94,-39 651.777,-39 661.695,-39"/>
<polygon fill="midnightblue" stroke="midnightblue" points="632.384,-35.5001 622.384,-39 632.384,-42.5001 632.384,-35.5001"/>
</g>
<!-- Node7 -->
<g id="node7" class="node"><title>Node7</title>
<g id="a_node7"><a xlink:href="../../dd/d8e/classuser_interface_1_1_user_interface.html#a95e324c85888faea808be269e44ed5b8" target="_top" xlink:title="userInterface.UserInterface.run\lCommand">
<polygon fill="white" stroke="black" points="896,-24 896,-54 1062,-54 1062,-24 896,-24"/>
<text text-anchor="start" x="904" y="-42" font-family="Helvetica,sans-Serif" font-size="10.00">userInterface.UserInterface.run</text>
<text text-anchor="middle" x="979" y="-31" font-family="Helvetica,sans-Serif" font-size="10.00">Command</text>
</a>
</g>
</g>
<!-- Node6&#45;&gt;Node7 -->
<g id="edge6" class="edge"><title>Node6&#45;&gt;Node7</title>
<path fill="none" stroke="midnightblue" d="M870.29,-39C878.892,-39 887.492,-39 895.871,-39"/>
<polygon fill="midnightblue" stroke="midnightblue" points="870.203,-35.5001 860.203,-39 870.203,-42.5001 870.203,-35.5001"/>
</g>
<!-- Node8 -->
<g id="node8" class="node"><title>Node8</title>
<g id="a_node8"><a xlink:href="../../dd/d8e/classuser_interface_1_1_user_interface.html#a560c36977fddeee87002333870c54ed6" target="_top" xlink:title="userInterface.UserInterface.set\lUpResponses">
<polygon fill="white" stroke="black" points="1318.5,-49 1318.5,-79 1483.5,-79 1483.5,-49 1318.5,-49"/>
<text text-anchor="start" x="1326.5" y="-67" font-family="Helvetica,sans-Serif" font-size="10.00">userInterface.UserInterface.set</text>
<text text-anchor="middle" x="1401" y="-56" font-family="Helvetica,sans-Serif" font-size="10.00">UpResponses</text>
</a>
</g>
</g>
<!-- Node7&#45;&gt;Node8 -->
<g id="edge7" class="edge"><title>Node7&#45;&gt;Node8</title>
<path fill="none" stroke="midnightblue" d="M1072.4,-44.5003C1145.91,-48.8757 1247.79,-54.9396 1318.33,-59.1386"/>
<polygon fill="midnightblue" stroke="midnightblue" points="1072.42,-40.9949 1062.23,-43.8945 1072,-47.9826 1072.42,-40.9949"/>
</g>
<!-- Node10 -->
<g id="node10" class="node"><title>Node10</title>
<g id="a_node10"><a xlink:href="../../dd/d8e/classuser_interface_1_1_user_interface.html#a4316649a1f81fcc1dcaf93c812bf6f3a" target="_top" xlink:title="userInterface.UserInterface.make\lRunButton">
<polygon fill="white" stroke="black" points="1098.5,-2 1098.5,-32 1275.5,-32 1275.5,-2 1098.5,-2"/>
<text text-anchor="start" x="1106.5" y="-20" font-family="Helvetica,sans-Serif" font-size="10.00">userInterface.UserInterface.make</text>
<text text-anchor="middle" x="1187" y="-9" font-family="Helvetica,sans-Serif" font-size="10.00">RunButton</text>
</a>
</g>
</g>
<!-- Node7&#45;&gt;Node10 -->
<g id="edge9" class="edge"><title>Node7&#45;&gt;Node10</title>
<path fill="none" stroke="midnightblue" d="M1072.12,-29.1618C1080.79,-28.2361 1089.56,-27.2994 1098.19,-26.3781"/>
<polygon fill="midnightblue" stroke="midnightblue" points="1071.58,-25.6996 1062.01,-30.2418 1072.32,-32.66 1071.58,-25.6996"/>
</g>
<!-- Node9 -->
<g id="node9" class="node"><title>Node9</title>
<g id="a_node9"><a xlink:href="../../dd/d8e/classuser_interface_1_1_user_interface.html#af296b064499e62c4fbfbf73da6456532" target="_top" xlink:title="userInterface.UserInterface.\lUserInterface">
<polygon fill="white" stroke="black" points="1526,-24 1526,-54 1676,-54 1676,-24 1526,-24"/>
<text text-anchor="start" x="1534" y="-42" font-family="Helvetica,sans-Serif" font-size="10.00">userInterface.UserInterface.</text>
<text text-anchor="middle" x="1601" y="-31" font-family="Helvetica,sans-Serif" font-size="10.00">UserInterface</text>
</a>
</g>
</g>
<!-- Node8&#45;&gt;Node9 -->
<g id="edge8" class="edge"><title>Node8&#45;&gt;Node9</title>
<path fill="none" stroke="midnightblue" d="M1493.88,-52.3986C1504.58,-51.0478 1515.39,-49.683 1525.81,-48.3677"/>
<polygon fill="midnightblue" stroke="midnightblue" points="1493.16,-48.962 1483.68,-53.6872 1494.04,-55.9069 1493.16,-48.962"/>
</g>
<!-- Node11 -->
<g id="node11" class="node"><title>Node11</title>
<g id="a_node11"><a xlink:href="../../dd/d8e/classuser_interface_1_1_user_interface.html#a6d39ee7d7ae35fc0539bb714bce6221a" target="_top" xlink:title="userInterface.UserInterface.make\lFunctionButtons">
<polygon fill="white" stroke="black" points="1312.5,-0 1312.5,-30 1489.5,-30 1489.5,-0 1312.5,-0"/>
<text text-anchor="start" x="1320.5" y="-18" font-family="Helvetica,sans-Serif" font-size="10.00">userInterface.UserInterface.make</text>
<text text-anchor="middle" x="1401" y="-7" font-family="Helvetica,sans-Serif" font-size="10.00">FunctionButtons</text>
</a>
</g>
</g>
<!-- Node10&#45;&gt;Node11 -->
<g id="edge10" class="edge"><title>Node10&#45;&gt;Node11</title>
<path fill="none" stroke="midnightblue" d="M1286.01,-16.0754C1294.78,-15.9926 1303.63,-15.9092 1312.31,-15.8273"/>
<polygon fill="midnightblue" stroke="midnightblue" points="1285.73,-12.5778 1275.76,-16.1721 1285.79,-19.5775 1285.73,-12.5778"/>
</g>
<!-- Node11&#45;&gt;Node9 -->
<g id="edge11" class="edge"><title>Node11&#45;&gt;Node9</title>
<path fill="none" stroke="midnightblue" d="M1499.67,-26.8393C1508.52,-27.9113 1517.38,-28.985 1525.97,-30.0262"/>
<polygon fill="midnightblue" stroke="midnightblue" points="1500.06,-23.3604 1489.71,-25.6316 1499.22,-30.3095 1500.06,-23.3604"/>
</g>
<!-- Node12&#45;&gt;Node4 -->
<g id="edge13" class="edge"><title>Node12&#45;&gt;Node4</title>
<path fill="none" stroke="midnightblue" d="M468.002,-50.2862C490.493,-56.7122 517.615,-64.4613 538.521,-70.4347"/>
<polygon fill="midnightblue" stroke="midnightblue" points="468.933,-46.9124 458.357,-47.5305 467.01,-53.6431 468.933,-46.9124"/>
</g>
<!-- Node12&#45;&gt;Node5 -->
<g id="edge14" class="edge"><title>Node12&#45;&gt;Node5</title>
<path fill="none" stroke="midnightblue" d="M489.072,-38.4359C500.774,-38.5155 512.8,-38.5973 523.937,-38.673"/>
<polygon fill="midnightblue" stroke="midnightblue" points="488.926,-34.9349 478.903,-38.3667 488.879,-41.9347 488.926,-34.9349"/>
</g>
</g>
</svg>
