<?xml version="1.0" encoding="UTF-8" standalone="no"?>
<!DOCTYPE svg PUBLIC "-//W3C//DTD SVG 1.1//EN"
 "http://www.w3.org/Graphics/SVG/1.1/DTD/svg11.dtd">
<!-- Generated by graphviz version 2.36.0 (20140111.2315)
 -->
<!-- Title: command.SetPositionCommand.run Pages: 1 -->
<svg width="452pt" height="66pt"
 viewBox="0.00 0.00 452.00 66.00" xmlns="http://www.w3.org/2000/svg" xmlns:xlink="http://www.w3.org/1999/xlink">
<g id="graph0" class="graph" transform="scale(1 1) rotate(0) translate(4 62)">
<title>command.SetPositionCommand.run</title>
<polygon fill="white" stroke="none" points="-4,4 -4,-62 448,-62 448,4 -4,4"/>
<!-- Node1 -->
<g id="node1" class="node"><title>Node1</title>
<polygon fill="#bfbfbf" stroke="black" points="0.5,-19.5 0.5,-38.5 191.5,-38.5 191.5,-19.5 0.5,-19.5"/>
<text text-anchor="middle" x="96" y="-26.5" font-family="Helvetica,sans-Serif" font-size="10.00">command.SetPositionCommand.run</text>
</g>
<!-- Node2 -->
<g id="node2" class="node"><title>Node2</title>
<g id="a_node2"><a xlink:href="../../d7/dbf/classcommand_1_1_set_position_command.html#a68ac5961121897ba8779dc6039bc4a25" target="_top" xlink:title="command.SetPositionCommand.distance">
<polygon fill="white" stroke="black" points="228,-38.5 228,-57.5 444,-57.5 444,-38.5 228,-38.5"/>
<text text-anchor="middle" x="336" y="-45.5" font-family="Helvetica,sans-Serif" font-size="10.00">command.SetPositionCommand.distance</text>
</a>
</g>
</g>
<!-- Node1&#45;&gt;Node2 -->
<g id="edge1" class="edge"><title>Node1&#45;&gt;Node2</title>
<path fill="none" stroke="midnightblue" d="M191.748,-36.5639C200.226,-37.2408 208.877,-37.9313 217.516,-38.621"/>
<polygon fill="midnightblue" stroke="midnightblue" points="217.395,-42.1224 227.642,-39.4294 217.952,-35.1446 217.395,-42.1224"/>
</g>
<!-- Node3 -->
<g id="node3" class="node"><title>Node3</title>
<g id="a_node3"><a xlink:href="../../df/dcb/classturtle_1_1_turtle.html#a5beb4f8b62b365363952d5ed4512435f" target="_top" xlink:title="turtle.Turtle.moveTo">
<polygon fill="white" stroke="black" points="281,-0.5 281,-19.5 391,-19.5 391,-0.5 281,-0.5"/>
<text text-anchor="middle" x="336" y="-7.5" font-family="Helvetica,sans-Serif" font-size="10.00">turtle.Turtle.moveTo</text>
</a>
</g>
</g>
<!-- Node1&#45;&gt;Node3 -->
<g id="edge2" class="edge"><title>Node1&#45;&gt;Node3</title>
<path fill="none" stroke="midnightblue" d="M191.748,-21.4361C218.289,-19.3172 246.512,-17.0642 270.827,-15.1231"/>
<polygon fill="midnightblue" stroke="midnightblue" points="271.302,-18.5964 280.992,-14.3116 270.745,-11.6186 271.302,-18.5964"/>
</g>
</g>
</svg>
