<?xml version="1.0" encoding="UTF-8" standalone="no"?>
<!DOCTYPE svg PUBLIC "-//W3C//DTD SVG 1.1//EN"
 "http://www.w3.org/Graphics/SVG/1.1/DTD/svg11.dtd">
<!-- Generated by graphviz version 2.36.0 (20140111.2315)
 -->
<!-- Title: command.SetPositionCommand.doCommand Pages: 1 -->
<svg width="448pt" height="66pt"
 viewBox="0.00 0.00 448.00 66.00" xmlns="http://www.w3.org/2000/svg" xmlns:xlink="http://www.w3.org/1999/xlink">
<g id="graph0" class="graph" transform="scale(1 1) rotate(0) translate(4 62)">
<title>command.SetPositionCommand.doCommand</title>
<polygon fill="white" stroke="none" points="-4,4 -4,-62 444,-62 444,4 -4,4"/>
<!-- Node1 -->
<g id="node1" class="node"><title>Node1</title>
<polygon fill="#bfbfbf" stroke="black" points="0,-14 0,-44 188,-44 188,-14 0,-14"/>
<text text-anchor="start" x="8" y="-32" font-family="Helvetica,sans-Serif" font-size="10.00">command.SetPositionCommand.do</text>
<text text-anchor="middle" x="94" y="-21" font-family="Helvetica,sans-Serif" font-size="10.00">Command</text>
</g>
<!-- Node2 -->
<g id="node2" class="node"><title>Node2</title>
<g id="a_node2"><a xlink:href="../../d7/dbf/classcommand_1_1_set_position_command.html#a68ac5961121897ba8779dc6039bc4a25" target="_top" xlink:title="command.SetPositionCommand.distance">
<polygon fill="white" stroke="black" points="224,-38.5 224,-57.5 440,-57.5 440,-38.5 224,-38.5"/>
<text text-anchor="middle" x="332" y="-45.5" font-family="Helvetica,sans-Serif" font-size="10.00">command.SetPositionCommand.distance</text>
</a>
</g>
</g>
<!-- Node1&#45;&gt;Node2 -->
<g id="edge1" class="edge"><title>Node1&#45;&gt;Node2</title>
<path fill="none" stroke="midnightblue" d="M188.273,-36.5093C196.7,-37.1877 205.303,-37.8804 213.9,-38.5725"/>
<polygon fill="midnightblue" stroke="midnightblue" points="213.729,-42.07 223.978,-39.3838 214.291,-35.0925 213.729,-42.07"/>
</g>
<!-- Node3 -->
<g id="node3" class="node"><title>Node3</title>
<g id="a_node3"><a xlink:href="../../df/dcb/classturtle_1_1_turtle.html#a5beb4f8b62b365363952d5ed4512435f" target="_top" xlink:title="turtle.Turtle.moveTo">
<polygon fill="white" stroke="black" points="277,-0.5 277,-19.5 387,-19.5 387,-0.5 277,-0.5"/>
<text text-anchor="middle" x="332" y="-7.5" font-family="Helvetica,sans-Serif" font-size="10.00">turtle.Turtle.moveTo</text>
</a>
</g>
</g>
<!-- Node1&#45;&gt;Node3 -->
<g id="edge2" class="edge"><title>Node1&#45;&gt;Node3</title>
<path fill="none" stroke="midnightblue" d="M188.273,-21.4907C214.541,-19.376 242.519,-17.1234 266.682,-15.1782"/>
<polygon fill="midnightblue" stroke="midnightblue" points="267.101,-18.6559 276.787,-14.3646 266.539,-11.6784 267.101,-18.6559"/>
</g>
</g>
</svg>
