<?xml version="1.0" encoding="UTF-8" standalone="no"?>
<!DOCTYPE svg PUBLIC "-//W3C//DTD SVG 1.1//EN"
 "http://www.w3.org/Graphics/SVG/1.1/DTD/svg11.dtd">
<!-- Generated by graphviz version 2.36.0 (20140111.2315)
 -->
<!-- Title: worldController.WorldController.WorldController Pages: 1 -->
<svg width="398pt" height="214pt"
 viewBox="0.00 0.00 398.00 214.00" xmlns="http://www.w3.org/2000/svg" xmlns:xlink="http://www.w3.org/1999/xlink">
<g id="graph0" class="graph" transform="scale(1 1) rotate(0) translate(4 210)">
<title>worldController.WorldController.WorldController</title>
<polygon fill="white" stroke="none" points="-4,4 -4,-210 394,-210 394,4 -4,4"/>
<!-- Node1 -->
<g id="node1" class="node"><title>Node1</title>
<polygon fill="#bfbfbf" stroke="black" points="0,-83 0,-113 164,-113 164,-83 0,-83"/>
<text text-anchor="start" x="8" y="-101" font-family="Helvetica,sans-Serif" font-size="10.00">worldController.WorldController.</text>
<text text-anchor="middle" x="82" y="-90" font-family="Helvetica,sans-Serif" font-size="10.00">WorldController</text>
</g>
<!-- Node2 -->
<g id="node2" class="node"><title>Node2</title>
<g id="a_node2"><a xlink:href="../../dd/d8e/classuser_interface_1_1_user_interface.html#a0b26b9f8f16bc8b9c947d67a27c47d2a" target="_top" xlink:title="userInterface.UserInterface.get\lCanvas">
<polygon fill="white" stroke="black" points="212,-176 212,-206 378,-206 378,-176 212,-176"/>
<text text-anchor="start" x="220" y="-194" font-family="Helvetica,sans-Serif" font-size="10.00">userInterface.UserInterface.get</text>
<text text-anchor="middle" x="295" y="-183" font-family="Helvetica,sans-Serif" font-size="10.00">Canvas</text>
</a>
</g>
</g>
<!-- Node1&#45;&gt;Node2 -->
<g id="edge1" class="edge"><title>Node1&#45;&gt;Node2</title>
<path fill="none" stroke="midnightblue" d="M104.944,-113.155C127.793,-128.348 165.061,-151.507 200,-166 205.886,-168.442 212.079,-170.706 218.361,-172.794"/>
<polygon fill="midnightblue" stroke="midnightblue" points="217.684,-176.25 228.273,-175.928 219.794,-169.576 217.684,-176.25"/>
</g>
<!-- Node3 -->
<g id="node3" class="node"><title>Node3</title>
<g id="a_node3"><a xlink:href="../../dd/d8e/classuser_interface_1_1_user_interface.html#aed8e34a6b3b2149844157c9274af3d1b" target="_top" xlink:title="userInterface.UserInterface.get\lGraphics">
<polygon fill="white" stroke="black" points="212,-127 212,-157 378,-157 378,-127 212,-127"/>
<text text-anchor="start" x="220" y="-145" font-family="Helvetica,sans-Serif" font-size="10.00">userInterface.UserInterface.get</text>
<text text-anchor="middle" x="295" y="-134" font-family="Helvetica,sans-Serif" font-size="10.00">Graphics</text>
</a>
</g>
</g>
<!-- Node1&#45;&gt;Node3 -->
<g id="edge2" class="edge"><title>Node1&#45;&gt;Node3</title>
<path fill="none" stroke="midnightblue" d="M155.024,-113.019C173.341,-116.839 193.159,-120.972 211.935,-124.887"/>
<polygon fill="midnightblue" stroke="midnightblue" points="211.439,-128.359 221.943,-126.974 212.868,-121.506 211.439,-128.359"/>
</g>
<!-- Node4 -->
<g id="node4" class="node"><title>Node4</title>
<g id="a_node4"><a xlink:href="../../dd/d8e/classuser_interface_1_1_user_interface.html#a9fbeedabe8a36a24d9e4f67c5ae1bc7c" target="_top" xlink:title="userInterface.UserInterface.getPane">
<polygon fill="white" stroke="black" points="200.5,-88.5 200.5,-107.5 389.5,-107.5 389.5,-88.5 200.5,-88.5"/>
<text text-anchor="middle" x="295" y="-95.5" font-family="Helvetica,sans-Serif" font-size="10.00">userInterface.UserInterface.getPane</text>
</a>
</g>
</g>
<!-- Node1&#45;&gt;Node4 -->
<g id="edge3" class="edge"><title>Node1&#45;&gt;Node4</title>
<path fill="none" stroke="midnightblue" d="M164.276,-98C172.787,-98 181.521,-98 190.238,-98"/>
<polygon fill="midnightblue" stroke="midnightblue" points="190.45,-101.5 200.45,-98 190.45,-94.5001 190.45,-101.5"/>
</g>
<!-- Node5 -->
<g id="node5" class="node"><title>Node5</title>
<g id="a_node5"><a xlink:href="../../dd/d8e/classuser_interface_1_1_user_interface.html#a3feaf153f47ec086b29e6a4f20229ee2" target="_top" xlink:title="userInterface.UserInterface.get\lTimeline">
<polygon fill="white" stroke="black" points="212,-39 212,-69 378,-69 378,-39 212,-39"/>
<text text-anchor="start" x="220" y="-57" font-family="Helvetica,sans-Serif" font-size="10.00">userInterface.UserInterface.get</text>
<text text-anchor="middle" x="295" y="-46" font-family="Helvetica,sans-Serif" font-size="10.00">Timeline</text>
</a>
</g>
</g>
<!-- Node1&#45;&gt;Node5 -->
<g id="edge4" class="edge"><title>Node1&#45;&gt;Node5</title>
<path fill="none" stroke="midnightblue" d="M155.024,-82.9808C173.341,-79.1612 193.159,-75.0284 211.935,-71.1131"/>
<polygon fill="midnightblue" stroke="midnightblue" points="212.868,-74.494 221.943,-69.0262 211.439,-67.6414 212.868,-74.494"/>
</g>
<!-- Node6 -->
<g id="node6" class="node"><title>Node6</title>
<g id="a_node6"><a xlink:href="../../d9/dd0/classworld_1_1_world.html#a62bc519b46f0fd04af93a8a12d38f2f9" target="_top" xlink:title="world.World.getTurtle">
<polygon fill="white" stroke="black" points="238,-0.5 238,-19.5 352,-19.5 352,-0.5 238,-0.5"/>
<text text-anchor="middle" x="295" y="-7.5" font-family="Helvetica,sans-Serif" font-size="10.00">world.World.getTurtle</text>
</a>
</g>
</g>
<!-- Node1&#45;&gt;Node6 -->
<g id="edge5" class="edge"><title>Node1&#45;&gt;Node6</title>
<path fill="none" stroke="midnightblue" d="M104.376,-82.7673C127.069,-67.2875 164.489,-43.6943 200,-30 208.896,-26.5692 218.505,-23.6735 228.065,-21.2449"/>
<polygon fill="midnightblue" stroke="midnightblue" points="229.063,-24.6052 237.978,-18.8804 227.439,-17.7963 229.063,-24.6052"/>
</g>
</g>
</svg>
