<?xml version="1.0" encoding="UTF-8" standalone="no"?>
<!DOCTYPE svg PUBLIC "-//W3C//DTD SVG 1.1//EN"
 "http://www.w3.org/Graphics/SVG/1.1/DTD/svg11.dtd">
<!-- Generated by graphviz version 2.36.0 (20140111.2315)
 -->
<!-- Title: worldController.WorldController.update Pages: 1 -->
<svg width="1306pt" height="442pt"
 viewBox="0.00 0.00 1306.00 442.00" xmlns="http://www.w3.org/2000/svg" xmlns:xlink="http://www.w3.org/1999/xlink">
<g id="graph0" class="graph" transform="scale(1 1) rotate(0) translate(4 438)">
<title>worldController.WorldController.update</title>
<polygon fill="white" stroke="none" points="-4,4 -4,-438 1302,-438 1302,4 -4,4"/>
<!-- Node1 -->
<g id="node1" class="node"><title>Node1</title>
<polygon fill="#bfbfbf" stroke="black" points="0,-310.5 0,-329.5 198,-329.5 198,-310.5 0,-310.5"/>
<text text-anchor="middle" x="99" y="-317.5" font-family="Helvetica,sans-Serif" font-size="10.00">worldController.WorldController.update</text>
</g>
<!-- Node2 -->
<g id="node2" class="node"><title>Node2</title>
<g id="a_node2"><a xlink:href="../../d1/d68/classuser_interface_1_1_sidebar.html#a7a3c7a302a3b54e74a26d97c4749444d" target="_top" xlink:title="userInterface.Sidebar.add\lResult">
<polygon fill="white" stroke="black" points="251,-376 251,-406 391,-406 391,-376 251,-376"/>
<text text-anchor="start" x="259" y="-394" font-family="Helvetica,sans-Serif" font-size="10.00">userInterface.Sidebar.add</text>
<text text-anchor="middle" x="321" y="-383" font-family="Helvetica,sans-Serif" font-size="10.00">Result</text>
</a>
</g>
</g>
<!-- Node1&#45;&gt;Node2 -->
<g id="edge1" class="edge"><title>Node1&#45;&gt;Node2</title>
<path fill="none" stroke="midnightblue" d="M126.571,-329.541C153.519,-339.117 196.483,-354.115 234,-366 241.4,-368.344 249.184,-370.725 256.921,-373.038"/>
<polygon fill="midnightblue" stroke="midnightblue" points="256.082,-376.44 266.664,-375.926 258.07,-369.729 256.082,-376.44"/>
</g>
<!-- Node3 -->
<g id="node3" class="node"><title>Node3</title>
<g id="a_node3"><a xlink:href="../../dd/d8e/classuser_interface_1_1_user_interface.html#a06489ec50d4d8ff415e0b1ec2b02d39a" target="_top" xlink:title="userInterface.UserInterface.get\lSidebar">
<polygon fill="white" stroke="black" points="238,-327 238,-357 404,-357 404,-327 238,-327"/>
<text text-anchor="start" x="246" y="-345" font-family="Helvetica,sans-Serif" font-size="10.00">userInterface.UserInterface.get</text>
<text text-anchor="middle" x="321" y="-334" font-family="Helvetica,sans-Serif" font-size="10.00">Sidebar</text>
</a>
</g>
</g>
<!-- Node1&#45;&gt;Node3 -->
<g id="edge2" class="edge"><title>Node1&#45;&gt;Node3</title>
<path fill="none" stroke="midnightblue" d="M195.216,-329.522C205.952,-330.595 216.88,-331.688 227.58,-332.758"/>
<polygon fill="midnightblue" stroke="midnightblue" points="227.456,-336.263 237.755,-333.776 228.153,-329.298 227.456,-336.263"/>
</g>
<!-- Node4 -->
<g id="node4" class="node"><title>Node4</title>
<g id="a_node4"><a xlink:href="../../d9/dd0/classworld_1_1_world.html#ae370733f7784c42741a6ba66c7d2ecf5" target="_top" xlink:title="world.World.listen">
<polygon fill="white" stroke="black" points="272,-288.5 272,-307.5 370,-307.5 370,-288.5 272,-288.5"/>
<text text-anchor="middle" x="321" y="-295.5" font-family="Helvetica,sans-Serif" font-size="10.00">world.World.listen</text>
</a>
</g>
</g>
<!-- Node1&#45;&gt;Node4 -->
<g id="edge3" class="edge"><title>Node1&#45;&gt;Node4</title>
<path fill="none" stroke="midnightblue" d="M195.216,-310.478C217.866,-308.213 241.368,-305.863 261.786,-303.821"/>
<polygon fill="midnightblue" stroke="midnightblue" points="262.25,-307.293 271.852,-302.815 261.553,-300.327 262.25,-307.293"/>
</g>
<!-- Node28 -->
<g id="node28" class="node"><title>Node28</title>
<g id="a_node28"><a xlink:href="../../df/dcb/classturtle_1_1_turtle.html#a610aafaf658c4b351330b7c16c66881c" target="_top" xlink:title="turtle.Turtle.updatePenAttributes">
<polygon fill="white" stroke="black" points="234.5,-168.5 234.5,-187.5 407.5,-187.5 407.5,-168.5 234.5,-168.5"/>
<text text-anchor="middle" x="321" y="-175.5" font-family="Helvetica,sans-Serif" font-size="10.00">turtle.Turtle.updatePenAttributes</text>
</a>
</g>
</g>
<!-- Node1&#45;&gt;Node28 -->
<g id="edge37" class="edge"><title>Node1&#45;&gt;Node28</title>
<path fill="none" stroke="midnightblue" d="M114.776,-310.462C152.181,-286.319 250.866,-222.623 296.385,-193.242"/>
<polygon fill="midnightblue" stroke="midnightblue" points="298.494,-196.047 304.998,-187.683 294.698,-190.165 298.494,-196.047"/>
</g>
<!-- Node5 -->
<g id="node5" class="node"><title>Node5</title>
<g id="a_node5"><a xlink:href="../../df/dcb/classturtle_1_1_turtle.html#aa53d992fb81cd039a22a301af9b32aba" target="_top" xlink:title="turtle.Turtle.act">
<polygon fill="white" stroke="black" points="476.5,-332.5 476.5,-351.5 565.5,-351.5 565.5,-332.5 476.5,-332.5"/>
<text text-anchor="middle" x="521" y="-339.5" font-family="Helvetica,sans-Serif" font-size="10.00">turtle.Turtle.act</text>
</a>
</g>
</g>
<!-- Node4&#45;&gt;Node5 -->
<g id="edge4" class="edge"><title>Node4&#45;&gt;Node5</title>
<path fill="none" stroke="midnightblue" d="M365.313,-307.55C378.972,-310.567 394.118,-313.917 408,-317 427.454,-321.32 448.804,-326.081 467.598,-330.278"/>
<polygon fill="midnightblue" stroke="midnightblue" points="466.935,-333.717 477.458,-332.481 468.462,-326.885 466.935,-333.717"/>
</g>
<!-- Node7 -->
<g id="node7" class="node"><title>Node7</title>
<g id="a_node7"><a xlink:href="../../d6/d95/classparser_1_1_parser.html#a240c75608624a9c67402a296855c4d1d" target="_top" xlink:title="parser.Parser.initialize\lCommands">
<polygon fill="white" stroke="black" points="461,-283 461,-313 581,-313 581,-283 461,-283"/>
<text text-anchor="start" x="469" y="-301" font-family="Helvetica,sans-Serif" font-size="10.00">parser.Parser.initialize</text>
<text text-anchor="middle" x="521" y="-290" font-family="Helvetica,sans-Serif" font-size="10.00">Commands</text>
</a>
</g>
</g>
<!-- Node4&#45;&gt;Node7 -->
<g id="edge6" class="edge"><title>Node4&#45;&gt;Node7</title>
<path fill="none" stroke="midnightblue" d="M370.183,-298C394.442,-298 424.287,-298 450.936,-298"/>
<polygon fill="midnightblue" stroke="midnightblue" points="450.975,-301.5 460.975,-298 450.975,-294.5 450.975,-301.5"/>
</g>
<!-- Node12 -->
<g id="node12" class="node"><title>Node12</title>
<g id="a_node12"><a xlink:href="../../d7/d35/classcommand_1_1_command.html#abab1a56440721aacda6f82ca3e3f761d" target="_top" xlink:title="command.Command.isLoop">
<polygon fill="white" stroke="black" points="445,-244.5 445,-263.5 597,-263.5 597,-244.5 445,-244.5"/>
<text text-anchor="middle" x="521" y="-251.5" font-family="Helvetica,sans-Serif" font-size="10.00">command.Command.isLoop</text>
</a>
</g>
</g>
<!-- Node4&#45;&gt;Node12 -->
<g id="edge11" class="edge"><title>Node4&#45;&gt;Node12</title>
<path fill="none" stroke="midnightblue" d="M364.963,-288.453C394.931,-281.793 435.114,-272.864 467.061,-265.764"/>
<polygon fill="midnightblue" stroke="midnightblue" points="468.118,-269.115 477.121,-263.529 466.6,-262.281 468.118,-269.115"/>
</g>
<!-- Node13 -->
<g id="node13" class="node"><title>Node13</title>
<g id="a_node13"><a xlink:href="../../d6/d95/classparser_1_1_parser.html#a4ecbffc246c3add017c4720eed4c6da9" target="_top" xlink:title="parser.Parser.parse">
<polygon fill="white" stroke="black" points="466.5,-206.5 466.5,-225.5 575.5,-225.5 575.5,-206.5 466.5,-206.5"/>
<text text-anchor="middle" x="521" y="-213.5" font-family="Helvetica,sans-Serif" font-size="10.00">parser.Parser.parse</text>
</a>
</g>
</g>
<!-- Node4&#45;&gt;Node13 -->
<g id="edge12" class="edge"><title>Node4&#45;&gt;Node13</title>
<path fill="none" stroke="midnightblue" d="M337.637,-288.419C360.338,-274.863 404.078,-250.065 444,-235 450.498,-232.548 457.427,-230.318 464.357,-228.32"/>
<polygon fill="midnightblue" stroke="midnightblue" points="465.738,-231.571 474.461,-225.558 463.892,-224.819 465.738,-231.571"/>
</g>
<!-- Node25 -->
<g id="node25" class="node"><title>Node25</title>
<g id="a_node25"><a xlink:href="../../d6/d95/classparser_1_1_parser.html#acebafe1593fc1f09ac31c7104438e4b1" target="_top" xlink:title="parser.Parser.resetRepcount">
<polygon fill="white" stroke="black" points="445.5,-408.5 445.5,-427.5 596.5,-427.5 596.5,-408.5 445.5,-408.5"/>
<text text-anchor="middle" x="521" y="-415.5" font-family="Helvetica,sans-Serif" font-size="10.00">parser.Parser.resetRepcount</text>
</a>
</g>
</g>
<!-- Node4&#45;&gt;Node25 -->
<g id="edge34" class="edge"><title>Node4&#45;&gt;Node25</title>
<path fill="none" stroke="midnightblue" d="M370.168,-300.593C383.575,-303.329 397.363,-308.269 408,-317 438.766,-342.252 413.585,-373.327 444,-399 446.001,-400.689 448.13,-402.231 450.358,-403.639"/>
<polygon fill="midnightblue" stroke="midnightblue" points="448.899,-406.827 459.372,-408.432 452.186,-400.647 448.899,-406.827"/>
</g>
<!-- Node27 -->
<g id="node27" class="node"><title>Node27</title>
<g id="a_node27"><a xlink:href="../../d6/d95/classparser_1_1_parser.html#a8679d61f4ae6c55910ef113bcdda2c75" target="_top" xlink:title="parser.Parser.updateVariable">
<polygon fill="white" stroke="black" points="444,-370.5 444,-389.5 598,-389.5 598,-370.5 444,-370.5"/>
<text text-anchor="middle" x="521" y="-377.5" font-family="Helvetica,sans-Serif" font-size="10.00">parser.Parser.updateVariable</text>
</a>
</g>
</g>
<!-- Node4&#45;&gt;Node27 -->
<g id="edge36" class="edge"><title>Node4&#45;&gt;Node27</title>
<path fill="none" stroke="midnightblue" d="M370.138,-302.799C383.105,-305.606 396.668,-310.033 408,-317 429.524,-330.234 422.66,-347.471 444,-361 447.329,-363.111 450.879,-364.987 454.556,-366.655"/>
<polygon fill="midnightblue" stroke="midnightblue" points="453.323,-369.931 463.908,-370.387 455.917,-363.43 453.323,-369.931"/>
</g>
<!-- Node6 -->
<g id="node6" class="node"><title>Node6</title>
<g id="a_node6"><a xlink:href="../../d7/d35/classcommand_1_1_command.html#a1de2ff02a0e6aa6553a129f9b14e6bb3" target="_top" xlink:title="command.Command.run">
<polygon fill="white" stroke="black" points="658.5,-364.5 658.5,-383.5 795.5,-383.5 795.5,-364.5 658.5,-364.5"/>
<text text-anchor="middle" x="727" y="-371.5" font-family="Helvetica,sans-Serif" font-size="10.00">command.Command.run</text>
</a>
</g>
</g>
<!-- Node5&#45;&gt;Node6 -->
<g id="edge5" class="edge"><title>Node5&#45;&gt;Node6</title>
<path fill="none" stroke="midnightblue" d="M565.513,-348.826C591.586,-352.915 625.359,-358.213 655.193,-362.893"/>
<polygon fill="midnightblue" stroke="midnightblue" points="654.721,-366.362 665.143,-364.454 655.806,-359.446 654.721,-366.362"/>
</g>
<!-- Node8 -->
<g id="node8" class="node"><title>Node8</title>
<g id="a_node8"><a xlink:href="../../d3/dcc/classparser_1_1_node.html#a9c12e8d4375a7517eae0a35724b253c4" target="_top" xlink:title="parser.Node.getValue">
<polygon fill="white" stroke="black" points="900,-266.5 900,-285.5 1020,-285.5 1020,-266.5 900,-266.5"/>
<text text-anchor="middle" x="960" y="-273.5" font-family="Helvetica,sans-Serif" font-size="10.00">parser.Node.getValue</text>
</a>
</g>
</g>
<!-- Node7&#45;&gt;Node8 -->
<g id="edge7" class="edge"><title>Node7&#45;&gt;Node8</title>
<path fill="none" stroke="midnightblue" d="M581.051,-309.926C598.067,-312.843 616.706,-315.543 634,-317 716.375,-323.938 740.423,-339.39 820,-317 838.05,-311.921 838.487,-301.702 856,-295 866.705,-290.903 878.383,-287.672 889.906,-285.129"/>
<polygon fill="midnightblue" stroke="midnightblue" points="890.871,-288.504 899.964,-283.066 889.465,-281.647 890.871,-288.504"/>
</g>
<!-- Node9 -->
<g id="node9" class="node"><title>Node9</title>
<g id="a_node9"><a xlink:href="../../d6/d95/classparser_1_1_parser.html#a4f582c65390bddc57219c0b5c31ef5e7" target="_top" xlink:title="parser.Parser.makeTree">
<polygon fill="white" stroke="black" points="663,-288.5 663,-307.5 791,-307.5 791,-288.5 663,-288.5"/>
<text text-anchor="middle" x="727" y="-295.5" font-family="Helvetica,sans-Serif" font-size="10.00">parser.Parser.makeTree</text>
</a>
</g>
</g>
<!-- Node7&#45;&gt;Node9 -->
<g id="edge8" class="edge"><title>Node7&#45;&gt;Node9</title>
<path fill="none" stroke="midnightblue" d="M581.005,-298C603.351,-298 629.067,-298 652.579,-298"/>
<polygon fill="midnightblue" stroke="midnightblue" points="652.855,-301.5 662.855,-298 652.855,-294.5 652.855,-301.5"/>
</g>
<!-- Node10 -->
<g id="node10" class="node"><title>Node10</title>
<g id="a_node10"><a xlink:href="../../d9/d1b/classcommand_1_1_command_factory.html#a87bf7e648425bb22124367cabedb3327" target="_top" xlink:title="command.CommandFactory.get\lNumParameters">
<polygon fill="white" stroke="black" points="875,-305 875,-335 1045,-335 1045,-305 875,-305"/>
<text text-anchor="start" x="883" y="-323" font-family="Helvetica,sans-Serif" font-size="10.00">command.CommandFactory.get</text>
<text text-anchor="middle" x="960" y="-312" font-family="Helvetica,sans-Serif" font-size="10.00">NumParameters</text>
</a>
</g>
</g>
<!-- Node9&#45;&gt;Node10 -->
<g id="edge9" class="edge"><title>Node9&#45;&gt;Node10</title>
<path fill="none" stroke="midnightblue" d="M791.122,-304.012C813.781,-306.17 839.853,-308.653 864.59,-311.009"/>
<polygon fill="midnightblue" stroke="midnightblue" points="864.439,-314.51 874.725,-311.974 865.102,-307.541 864.439,-314.51"/>
</g>
<!-- Node11 -->
<g id="node11" class="node"><title>Node11</title>
<g id="a_node11"><a xlink:href="../../d9/d1b/classcommand_1_1_command_factory.html#a947fdc151e857ea74564d0d1fe268246" target="_top" xlink:title="command.CommandFactory.translate\lCommand">
<polygon fill="white" stroke="black" points="1100.5,-169 1100.5,-199 1297.5,-199 1297.5,-169 1100.5,-169"/>
<text text-anchor="start" x="1108.5" y="-187" font-family="Helvetica,sans-Serif" font-size="10.00">command.CommandFactory.translate</text>
<text text-anchor="middle" x="1199" y="-176" font-family="Helvetica,sans-Serif" font-size="10.00">Command</text>
</a>
</g>
</g>
<!-- Node10&#45;&gt;Node11 -->
<g id="edge10" class="edge"><title>Node10&#45;&gt;Node11</title>
<path fill="none" stroke="midnightblue" d="M1039.4,-304.973C1047.91,-302.174 1056.27,-298.878 1064,-295 1109.27,-272.291 1152.72,-231.718 1177.31,-206.42"/>
<polygon fill="midnightblue" stroke="midnightblue" points="1179.94,-208.74 1184.32,-199.096 1174.88,-203.901 1179.94,-208.74"/>
</g>
<!-- Node13&#45;&gt;Node9 -->
<g id="edge33" class="edge"><title>Node13&#45;&gt;Node9</title>
<path fill="none" stroke="midnightblue" d="M575.71,-224.805C583.533,-227.378 591.223,-230.704 598,-235 619.34,-248.529 612.385,-265.915 634,-279 639.906,-282.575 646.373,-285.487 653.056,-287.858"/>
<polygon fill="midnightblue" stroke="midnightblue" points="652.371,-291.311 662.96,-290.959 654.463,-284.631 652.371,-291.311"/>
</g>
<!-- Node14 -->
<g id="node14" class="node"><title>Node14</title>
<g id="a_node14"><a xlink:href="../../d9/d1b/classcommand_1_1_command_factory.html#ab25bb047b051661d31adf73b2dae5649" target="_top" xlink:title="command.CommandFactory.create\lCommand">
<polygon fill="white" stroke="black" points="634.5,-33 634.5,-63 819.5,-63 819.5,-33 634.5,-33"/>
<text text-anchor="start" x="642.5" y="-51" font-family="Helvetica,sans-Serif" font-size="10.00">command.CommandFactory.create</text>
<text text-anchor="middle" x="727" y="-40" font-family="Helvetica,sans-Serif" font-size="10.00">Command</text>
</a>
</g>
</g>
<!-- Node13&#45;&gt;Node14 -->
<g id="edge13" class="edge"><title>Node13&#45;&gt;Node14</title>
<path fill="none" stroke="midnightblue" d="M575.681,-209.751C583.868,-206.874 591.68,-202.786 598,-197 634.079,-163.973 601.58,-129.626 634,-93 643.388,-82.3936 655.843,-74.0307 668.546,-67.5421"/>
<polygon fill="midnightblue" stroke="midnightblue" points="670.27,-70.5976 677.799,-63.1433 667.265,-64.2756 670.27,-70.5976"/>
</g>
<!-- Node16 -->
<g id="node16" class="node"><title>Node16</title>
<g id="a_node16"><a xlink:href="../../d6/d95/classparser_1_1_parser.html#aac1cff62f68138c7e977a67d39671701" target="_top" xlink:title="parser.Parser.generateCommand\lInput">
<polygon fill="white" stroke="black" points="639,-201 639,-231 815,-231 815,-201 639,-201"/>
<text text-anchor="start" x="647" y="-219" font-family="Helvetica,sans-Serif" font-size="10.00">parser.Parser.generateCommand</text>
<text text-anchor="middle" x="727" y="-208" font-family="Helvetica,sans-Serif" font-size="10.00">Input</text>
</a>
</g>
</g>
<!-- Node13&#45;&gt;Node16 -->
<g id="edge16" class="edge"><title>Node13&#45;&gt;Node16</title>
<path fill="none" stroke="midnightblue" d="M575.599,-216C591.934,-216 610.425,-216 628.714,-216"/>
<polygon fill="midnightblue" stroke="midnightblue" points="628.838,-219.5 638.838,-216 628.838,-212.5 628.838,-219.5"/>
</g>
<!-- Node20 -->
<g id="node20" class="node"><title>Node20</title>
<g id="a_node20"><a xlink:href="../../d6/d95/classparser_1_1_parser.html#a3efcd1192e76101919526b4a5e0046f4" target="_top" xlink:title="parser.Parser.getNodeBefore\lToReplace">
<polygon fill="white" stroke="black" points="649.5,-152 649.5,-182 804.5,-182 804.5,-152 649.5,-152"/>
<text text-anchor="start" x="657.5" y="-170" font-family="Helvetica,sans-Serif" font-size="10.00">parser.Parser.getNodeBefore</text>
<text text-anchor="middle" x="727" y="-159" font-family="Helvetica,sans-Serif" font-size="10.00">ToReplace</text>
</a>
</g>
</g>
<!-- Node13&#45;&gt;Node20 -->
<g id="edge21" class="edge"><title>Node13&#45;&gt;Node20</title>
<path fill="none" stroke="midnightblue" d="M561.818,-206.436C587.87,-200.178 622.675,-191.818 653.533,-184.406"/>
<polygon fill="midnightblue" stroke="midnightblue" points="654.491,-187.776 663.397,-182.037 652.856,-180.969 654.491,-187.776"/>
</g>
<!-- Node23 -->
<g id="node23" class="node"><title>Node23</title>
<g id="a_node23"><a xlink:href="../../d6/d95/classparser_1_1_parser.html#a447c473b62ba23b7c144df9bb38a9a41" target="_top" xlink:title="parser.Parser.getNodeFor\lCommand">
<polygon fill="white" stroke="black" points="658,-103 658,-133 796,-133 796,-103 658,-103"/>
<text text-anchor="start" x="666" y="-121" font-family="Helvetica,sans-Serif" font-size="10.00">parser.Parser.getNodeFor</text>
<text text-anchor="middle" x="727" y="-110" font-family="Helvetica,sans-Serif" font-size="10.00">Command</text>
</a>
</g>
</g>
<!-- Node13&#45;&gt;Node23 -->
<g id="edge26" class="edge"><title>Node13&#45;&gt;Node23</title>
<path fill="none" stroke="midnightblue" d="M575.737,-207.958C583.642,-205.285 591.35,-201.729 598,-197 621.81,-180.07 610.277,-159.051 634,-142 638.44,-138.809 643.271,-136.041 648.318,-133.642"/>
<polygon fill="midnightblue" stroke="midnightblue" points="649.757,-136.834 657.598,-129.708 647.025,-130.389 649.757,-136.834"/>
</g>
<!-- Node24 -->
<g id="node24" class="node"><title>Node24</title>
<g id="a_node24"><a xlink:href="../../d3/dcc/classparser_1_1_node.html#a066da2b478008f39a02440d7afceb9ee" target="_top" xlink:title="parser.Node.insertChild">
<polygon fill="white" stroke="black" points="663,-250.5 663,-269.5 791,-269.5 791,-250.5 663,-250.5"/>
<text text-anchor="middle" x="727" y="-257.5" font-family="Helvetica,sans-Serif" font-size="10.00">parser.Node.insertChild</text>
</a>
</g>
</g>
<!-- Node13&#45;&gt;Node24 -->
<g id="edge31" class="edge"><title>Node13&#45;&gt;Node24</title>
<path fill="none" stroke="midnightblue" d="M566.265,-225.547C597.275,-232.236 638.9,-241.214 671.884,-248.328"/>
<polygon fill="midnightblue" stroke="midnightblue" points="671.308,-251.784 681.821,-250.471 672.784,-244.942 671.308,-251.784"/>
</g>
<!-- Node14&#45;&gt;Node11 -->
<g id="edge15" class="edge"><title>Node14&#45;&gt;Node11</title>
<path fill="none" stroke="midnightblue" d="M819.566,-37.5113C889.183,-33.1883 985.957,-35.1815 1064,-67 1112.98,-86.9707 1156.41,-132.593 1179.78,-160.602"/>
<polygon fill="midnightblue" stroke="midnightblue" points="1177.34,-163.147 1186.38,-168.681 1182.76,-158.721 1177.34,-163.147"/>
</g>
<!-- Node15 -->
<g id="node15" class="node"><title>Node15</title>
<g id="a_node15"><a xlink:href="../../d9/d1b/classcommand_1_1_command_factory.html#abd97ea3e22afc09e07ed1d4fd039d11f" target="_top" xlink:title="command.CommandFactory.reflectCMD">
<polygon fill="white" stroke="black" points="856.5,-0.5 856.5,-19.5 1063.5,-19.5 1063.5,-0.5 856.5,-0.5"/>
<text text-anchor="middle" x="960" y="-7.5" font-family="Helvetica,sans-Serif" font-size="10.00">command.CommandFactory.reflectCMD</text>
</a>
</g>
</g>
<!-- Node14&#45;&gt;Node15 -->
<g id="edge14" class="edge"><title>Node14&#45;&gt;Node15</title>
<path fill="none" stroke="midnightblue" d="M819.297,-32.9814C843.247,-29.0415 868.651,-24.8626 891.135,-21.1639"/>
<polygon fill="midnightblue" stroke="midnightblue" points="891.945,-24.5778 901.244,-19.5009 890.809,-17.6706 891.945,-24.5778"/>
</g>
<!-- Node16&#45;&gt;Node8 -->
<g id="edge19" class="edge"><title>Node16&#45;&gt;Node8</title>
<path fill="none" stroke="midnightblue" d="M788.783,-231.103C799.28,-234.112 810.02,-237.45 820,-241 836.496,-246.868 839.275,-251.82 856,-257 866.815,-260.349 878.462,-263.193 889.896,-265.579"/>
<polygon fill="midnightblue" stroke="midnightblue" points="889.373,-269.044 899.863,-267.56 890.737,-262.178 889.373,-269.044"/>
</g>
<!-- Node17 -->
<g id="node17" class="node"><title>Node17</title>
<g id="a_node17"><a xlink:href="../../d3/dcc/classparser_1_1_node.html#aa67bc0d39227232943abec9b95b23235" target="_top" xlink:title="parser.Node.getChild1">
<polygon fill="white" stroke="black" points="898.5,-152.5 898.5,-171.5 1021.5,-171.5 1021.5,-152.5 898.5,-152.5"/>
<text text-anchor="middle" x="960" y="-159.5" font-family="Helvetica,sans-Serif" font-size="10.00">parser.Node.getChild1</text>
</a>
</g>
</g>
<!-- Node16&#45;&gt;Node17 -->
<g id="edge17" class="edge"><title>Node16&#45;&gt;Node17</title>
<path fill="none" stroke="midnightblue" d="M783.474,-200.979C795.52,-197.703 808.19,-194.245 820,-191 836.012,-186.6 839.819,-184.732 856,-181 867.697,-178.302 880.211,-175.732 892.342,-173.404"/>
<polygon fill="midnightblue" stroke="midnightblue" points="893.236,-176.797 902.416,-171.507 891.941,-169.918 893.236,-176.797"/>
</g>
<!-- Node18 -->
<g id="node18" class="node"><title>Node18</title>
<g id="a_node18"><a xlink:href="../../d3/dcc/classparser_1_1_node.html#a0f13775acc62af77cdde90dbeaf26bbc" target="_top" xlink:title="parser.Node.getChild2">
<polygon fill="white" stroke="black" points="898.5,-190.5 898.5,-209.5 1021.5,-209.5 1021.5,-190.5 898.5,-190.5"/>
<text text-anchor="middle" x="960" y="-197.5" font-family="Helvetica,sans-Serif" font-size="10.00">parser.Node.getChild2</text>
</a>
</g>
</g>
<!-- Node16&#45;&gt;Node18 -->
<g id="edge18" class="edge"><title>Node16&#45;&gt;Node18</title>
<path fill="none" stroke="midnightblue" d="M815.002,-209.974C839.177,-208.299 865.13,-206.502 888.251,-204.9"/>
<polygon fill="midnightblue" stroke="midnightblue" points="888.581,-208.386 898.315,-204.203 888.097,-201.403 888.581,-208.386"/>
</g>
<!-- Node19 -->
<g id="node19" class="node"><title>Node19</title>
<g id="a_node19"><a xlink:href="../../d3/dcc/classparser_1_1_node.html#a6bbc0c61aaa261077eb87cfc4e2b45dc" target="_top" xlink:title="parser.Node.numChildren">
<polygon fill="white" stroke="black" points="890.5,-228.5 890.5,-247.5 1029.5,-247.5 1029.5,-228.5 890.5,-228.5"/>
<text text-anchor="middle" x="960" y="-235.5" font-family="Helvetica,sans-Serif" font-size="10.00">parser.Node.numChildren</text>
</a>
</g>
</g>
<!-- Node16&#45;&gt;Node19 -->
<g id="edge20" class="edge"><title>Node16&#45;&gt;Node19</title>
<path fill="none" stroke="midnightblue" d="M815.002,-224.286C836.434,-226.327 859.263,-228.501 880.278,-230.503"/>
<polygon fill="midnightblue" stroke="midnightblue" points="880.147,-234.006 890.434,-231.47 880.811,-227.038 880.147,-234.006"/>
</g>
<!-- Node20&#45;&gt;Node17 -->
<g id="edge22" class="edge"><title>Node20&#45;&gt;Node17</title>
<path fill="none" stroke="midnightblue" d="M804.599,-165.342C831.497,-164.76 861.583,-164.109 888.001,-163.537"/>
<polygon fill="midnightblue" stroke="midnightblue" points="888.39,-167.029 898.312,-163.314 888.239,-160.031 888.39,-167.029"/>
</g>
<!-- Node20&#45;&gt;Node18 -->
<g id="edge23" class="edge"><title>Node20&#45;&gt;Node18</title>
<path fill="none" stroke="midnightblue" d="M804.599,-177.943C831.616,-181.802 861.849,-186.121 888.352,-189.907"/>
<polygon fill="midnightblue" stroke="midnightblue" points="887.918,-193.381 898.312,-191.33 888.908,-186.451 887.918,-193.381"/>
</g>
<!-- Node21 -->
<g id="node21" class="node"><title>Node21</title>
<g id="a_node21"><a xlink:href="../../d3/dcc/classparser_1_1_node.html#ab14db24c0724dec4387e29d513008e2e" target="_top" xlink:title="parser.Node.hasChildren">
<polygon fill="white" stroke="black" points="893,-76.5 893,-95.5 1027,-95.5 1027,-76.5 893,-76.5"/>
<text text-anchor="middle" x="960" y="-83.5" font-family="Helvetica,sans-Serif" font-size="10.00">parser.Node.hasChildren</text>
</a>
</g>
</g>
<!-- Node20&#45;&gt;Node21 -->
<g id="edge24" class="edge"><title>Node20&#45;&gt;Node21</title>
<path fill="none" stroke="midnightblue" d="M798.912,-151.931C806.266,-149.146 813.439,-145.863 820,-142 839.77,-130.357 835.764,-115.813 856,-105 864.392,-100.516 873.656,-97.0711 883.085,-94.4281"/>
<polygon fill="midnightblue" stroke="midnightblue" points="884.095,-97.7833 892.942,-91.954 882.391,-90.9939 884.095,-97.7833"/>
</g>
<!-- Node22 -->
<g id="node22" class="node"><title>Node22</title>
<g id="a_node22"><a xlink:href="../../d3/dcc/classparser_1_1_node.html#aa92667a825777b3d757bc3b1a247ac20" target="_top" xlink:title="parser.Node.isLeaf">
<polygon fill="white" stroke="black" points="907,-114.5 907,-133.5 1013,-133.5 1013,-114.5 907,-114.5"/>
<text text-anchor="middle" x="960" y="-121.5" font-family="Helvetica,sans-Serif" font-size="10.00">parser.Node.isLeaf</text>
</a>
</g>
</g>
<!-- Node20&#45;&gt;Node22 -->
<g id="edge25" class="edge"><title>Node20&#45;&gt;Node22</title>
<path fill="none" stroke="midnightblue" d="M804.816,-152.559C821.678,-149.4 839.44,-146.08 856,-143 869.249,-140.536 883.458,-137.906 896.963,-135.413"/>
<polygon fill="midnightblue" stroke="midnightblue" points="897.925,-138.795 907.124,-133.539 896.655,-131.911 897.925,-138.795"/>
</g>
<!-- Node23&#45;&gt;Node17 -->
<g id="edge27" class="edge"><title>Node23&#45;&gt;Node17</title>
<path fill="none" stroke="midnightblue" d="M796.064,-131.431C815.424,-135.214 836.536,-139.304 856,-143 869.168,-145.5 883.292,-148.136 896.73,-150.622"/>
<polygon fill="midnightblue" stroke="midnightblue" points="896.377,-154.116 906.846,-152.489 897.647,-147.232 896.377,-154.116"/>
</g>
<!-- Node23&#45;&gt;Node18 -->
<g id="edge28" class="edge"><title>Node23&#45;&gt;Node18</title>
<path fill="none" stroke="midnightblue" d="M796.132,-131.021C804.473,-133.973 812.639,-137.585 820,-142 840.229,-154.134 835.343,-169.61 856,-181 865.976,-186.5 877.238,-190.447 888.558,-193.27"/>
<polygon fill="midnightblue" stroke="midnightblue" points="887.971,-196.724 898.491,-195.473 889.486,-189.89 887.971,-196.724"/>
</g>
<!-- Node23&#45;&gt;Node21 -->
<g id="edge29" class="edge"><title>Node23&#45;&gt;Node21</title>
<path fill="none" stroke="midnightblue" d="M796.058,-108.572C823.201,-104.812 854.575,-100.466 882.502,-96.5971"/>
<polygon fill="midnightblue" stroke="midnightblue" points="883.196,-100.035 892.621,-95.1954 882.235,-93.1007 883.196,-100.035"/>
</g>
<!-- Node23&#45;&gt;Node22 -->
<g id="edge30" class="edge"><title>Node23&#45;&gt;Node22</title>
<path fill="none" stroke="midnightblue" d="M796.058,-119.768C827.863,-120.594 865.478,-121.571 896.549,-122.378"/>
<polygon fill="midnightblue" stroke="midnightblue" points="896.729,-125.884 906.817,-122.645 896.911,-118.886 896.729,-125.884"/>
</g>
<!-- Node24&#45;&gt;Node8 -->
<g id="edge32" class="edge"><title>Node24&#45;&gt;Node8</title>
<path fill="none" stroke="midnightblue" d="M791.122,-264.372C821.606,-266.484 858.266,-269.023 889.541,-271.189"/>
<polygon fill="midnightblue" stroke="midnightblue" points="889.706,-274.709 899.924,-271.908 890.19,-267.725 889.706,-274.709"/>
</g>
<!-- Node26 -->
<g id="node26" class="node"><title>Node26</title>
<g id="a_node26"><a xlink:href="../../d9/d1b/classcommand_1_1_command_factory.html#a0d59e4f0f925b5046957c0e054ce8bef" target="_top" xlink:title="command.CommandFactory.reset\lRepcount">
<polygon fill="white" stroke="black" points="637.5,-403 637.5,-433 816.5,-433 816.5,-403 637.5,-403"/>
<text text-anchor="start" x="645.5" y="-421" font-family="Helvetica,sans-Serif" font-size="10.00">command.CommandFactory.reset</text>
<text text-anchor="middle" x="727" y="-410" font-family="Helvetica,sans-Serif" font-size="10.00">Repcount</text>
</a>
</g>
</g>
<!-- Node25&#45;&gt;Node26 -->
<g id="edge35" class="edge"><title>Node25&#45;&gt;Node26</title>
<path fill="none" stroke="midnightblue" d="M596.515,-418C606.502,-418 616.87,-418 627.194,-418"/>
<polygon fill="midnightblue" stroke="midnightblue" points="627.487,-421.5 637.487,-418 627.487,-414.5 627.487,-421.5"/>
</g>
<!-- Node29 -->
<g id="node29" class="node"><title>Node29</title>
<g id="a_node29"><a xlink:href="../../de/d57/classturtle_1_1_pen.html#ac9a08745a9f3615b9e47c1c8e5af8f1b" target="_top" xlink:title="turtle.Pen.getColor">
<polygon fill="white" stroke="black" points="467.5,-168.5 467.5,-187.5 574.5,-187.5 574.5,-168.5 467.5,-168.5"/>
<text text-anchor="middle" x="521" y="-175.5" font-family="Helvetica,sans-Serif" font-size="10.00">turtle.Pen.getColor</text>
</a>
</g>
</g>
<!-- Node28&#45;&gt;Node29 -->
<g id="edge38" class="edge"><title>Node28&#45;&gt;Node29</title>
<path fill="none" stroke="midnightblue" d="M407.694,-178C424.327,-178 441.47,-178 457.199,-178"/>
<polygon fill="midnightblue" stroke="midnightblue" points="457.311,-181.5 467.311,-178 457.311,-174.5 457.311,-181.5"/>
</g>
<!-- Node30 -->
<g id="node30" class="node"><title>Node30</title>
<g id="a_node30"><a xlink:href="../../de/d57/classturtle_1_1_pen.html#a76c8dc4e66927e7d3774ea00b2266640" target="_top" xlink:title="turtle.Pen.getSize">
<polygon fill="white" stroke="black" points="470,-130.5 470,-149.5 572,-149.5 572,-130.5 470,-130.5"/>
<text text-anchor="middle" x="521" y="-137.5" font-family="Helvetica,sans-Serif" font-size="10.00">turtle.Pen.getSize</text>
</a>
</g>
</g>
<!-- Node28&#45;&gt;Node30 -->
<g id="edge39" class="edge"><title>Node28&#45;&gt;Node30</title>
<path fill="none" stroke="midnightblue" d="M371.708,-168.46C398.541,-163.31 431.859,-156.916 460.113,-151.494"/>
<polygon fill="midnightblue" stroke="midnightblue" points="461.11,-154.866 470.271,-149.544 459.791,-147.991 461.11,-154.866"/>
</g>
</g>
</svg>
