<?xml version="1.0" encoding="UTF-8" standalone="no"?>
<!DOCTYPE svg PUBLIC "-//W3C//DTD SVG 1.1//EN"
 "http://www.w3.org/Graphics/SVG/1.1/DTD/svg11.dtd">
<!-- Generated by graphviz version 2.36.0 (20140111.2315)
 -->
<!-- Title: worldController.WorldController.makeKeyFrame Pages: 1 -->
<svg width="698pt" height="142pt"
 viewBox="0.00 0.00 698.00 142.00" xmlns="http://www.w3.org/2000/svg" xmlns:xlink="http://www.w3.org/1999/xlink">
<g id="graph0" class="graph" transform="scale(1 1) rotate(0) translate(4 138)">
<title>worldController.WorldController.makeKeyFrame</title>
<polygon fill="white" stroke="none" points="-4,4 -4,-138 694,-138 694,4 -4,4"/>
<!-- Node1 -->
<g id="node1" class="node"><title>Node1</title>
<polygon fill="#bfbfbf" stroke="black" points="0.5,-52 0.5,-82 191.5,-82 191.5,-52 0.5,-52"/>
<text text-anchor="start" x="8.5" y="-70" font-family="Helvetica,sans-Serif" font-size="10.00">worldController.WorldController.make</text>
<text text-anchor="middle" x="96" y="-59" font-family="Helvetica,sans-Serif" font-size="10.00">KeyFrame</text>
</g>
<!-- Node2 -->
<g id="node2" class="node"><title>Node2</title>
<g id="a_node2"><a xlink:href="../../df/dcb/classturtle_1_1_turtle.html#a7c0f37993844a70cdd57951ae4a916dd" target="_top" xlink:title="turtle.Turtle.animatedMove">
<polygon fill="white" stroke="black" points="228.5,-76.5 228.5,-95.5 373.5,-95.5 373.5,-76.5 228.5,-76.5"/>
<text text-anchor="middle" x="301" y="-83.5" font-family="Helvetica,sans-Serif" font-size="10.00">turtle.Turtle.animatedMove</text>
</a>
</g>
</g>
<!-- Node1&#45;&gt;Node2 -->
<g id="edge1" class="edge"><title>Node1&#45;&gt;Node2</title>
<path fill="none" stroke="midnightblue" d="M191.665,-75.8603C200.506,-76.6878 209.417,-77.5217 218.126,-78.337"/>
<polygon fill="midnightblue" stroke="midnightblue" points="217.96,-81.8366 228.243,-79.2838 218.613,-74.8671 217.96,-81.8366"/>
</g>
<!-- Node3 -->
<g id="node3" class="node"><title>Node3</title>
<g id="a_node3"><a xlink:href="../../df/dcb/classturtle_1_1_turtle.html#a49bc6263dff19b97b012d9c2052e701d" target="_top" xlink:title="turtle.Turtle.findNextPoint">
<polygon fill="white" stroke="black" points="410.5,-114.5 410.5,-133.5 547.5,-133.5 547.5,-114.5 410.5,-114.5"/>
<text text-anchor="middle" x="479" y="-121.5" font-family="Helvetica,sans-Serif" font-size="10.00">turtle.Turtle.findNextPoint</text>
</a>
</g>
</g>
<!-- Node1&#45;&gt;Node3 -->
<g id="edge6" class="edge"><title>Node1&#45;&gt;Node3</title>
<path fill="none" stroke="midnightblue" d="M140.427,-82.046C165.679,-90.1747 198.29,-99.6216 228,-105 285.202,-115.355 350.758,-120.077 400.386,-122.225"/>
<polygon fill="midnightblue" stroke="midnightblue" points="400.274,-125.723 410.408,-122.633 400.559,-118.729 400.274,-125.723"/>
</g>
<!-- Node7 -->
<g id="node7" class="node"><title>Node7</title>
<g id="a_node7"><a xlink:href="../../df/dcb/classturtle_1_1_turtle.html#a6e41524d115c16610b5765720df6e658" target="_top" xlink:title="turtle.Turtle.getCurrent">
<polygon fill="white" stroke="black" points="238.5,-38.5 238.5,-57.5 363.5,-57.5 363.5,-38.5 238.5,-38.5"/>
<text text-anchor="middle" x="301" y="-45.5" font-family="Helvetica,sans-Serif" font-size="10.00">turtle.Turtle.getCurrent</text>
</a>
</g>
</g>
<!-- Node1&#45;&gt;Node7 -->
<g id="edge7" class="edge"><title>Node1&#45;&gt;Node7</title>
<path fill="none" stroke="midnightblue" d="M191.665,-58.1397C203.897,-56.9949 216.262,-55.8376 228.045,-54.7347"/>
<polygon fill="midnightblue" stroke="midnightblue" points="228.601,-58.198 238.231,-53.7813 227.949,-51.2285 228.601,-58.198"/>
</g>
<!-- Node8 -->
<g id="node8" class="node"><title>Node8</title>
<g id="a_node8"><a xlink:href="../../df/dcb/classturtle_1_1_turtle.html#a568de9ba87ac973fb3987cb2782af97e" target="_top" xlink:title="turtle.Turtle.getGoal">
<polygon fill="white" stroke="black" points="245.5,-0.5 245.5,-19.5 356.5,-19.5 356.5,-0.5 245.5,-0.5"/>
<text text-anchor="middle" x="301" y="-7.5" font-family="Helvetica,sans-Serif" font-size="10.00">turtle.Turtle.getGoal</text>
</a>
</g>
</g>
<!-- Node1&#45;&gt;Node8 -->
<g id="edge8" class="edge"><title>Node1&#45;&gt;Node8</title>
<path fill="none" stroke="midnightblue" d="M147.932,-51.9138C172.148,-44.821 201.527,-36.3314 228,-29 236.149,-26.7432 244.834,-24.3994 253.249,-22.1603"/>
<polygon fill="midnightblue" stroke="midnightblue" points="254.183,-25.5335 262.955,-19.5914 252.392,-18.7665 254.183,-25.5335"/>
</g>
<!-- Node2&#45;&gt;Node3 -->
<g id="edge2" class="edge"><title>Node2&#45;&gt;Node3</title>
<path fill="none" stroke="midnightblue" d="M346.412,-95.589C369.951,-100.671 399.057,-106.955 423.905,-112.32"/>
<polygon fill="midnightblue" stroke="midnightblue" points="423.394,-115.791 433.907,-114.48 424.871,-108.948 423.394,-115.791"/>
</g>
<!-- Node5 -->
<g id="node5" class="node"><title>Node5</title>
<g id="a_node5"><a xlink:href="../../df/dcb/classturtle_1_1_turtle.html#a42c672bc79ce607cef27b8f436cd938d" target="_top" xlink:title="turtle.Turtle.moveMyself">
<polygon fill="white" stroke="black" points="413.5,-76.5 413.5,-95.5 544.5,-95.5 544.5,-76.5 413.5,-76.5"/>
<text text-anchor="middle" x="479" y="-83.5" font-family="Helvetica,sans-Serif" font-size="10.00">turtle.Turtle.moveMyself</text>
</a>
</g>
</g>
<!-- Node2&#45;&gt;Node5 -->
<g id="edge4" class="edge"><title>Node2&#45;&gt;Node5</title>
<path fill="none" stroke="midnightblue" d="M373.586,-86C383.333,-86 393.359,-86 403.162,-86"/>
<polygon fill="midnightblue" stroke="midnightblue" points="403.276,-89.5001 413.276,-86 403.276,-82.5001 403.276,-89.5001"/>
</g>
<!-- Node6 -->
<g id="node6" class="node"><title>Node6</title>
<g id="a_node6"><a xlink:href="../../de/d57/classturtle_1_1_pen.html#a361f4e030646d953185a8afe94427ce2" target="_top" xlink:title="turtle.Pen.penReady">
<polygon fill="white" stroke="black" points="422.5,-38.5 422.5,-57.5 535.5,-57.5 535.5,-38.5 422.5,-38.5"/>
<text text-anchor="middle" x="479" y="-45.5" font-family="Helvetica,sans-Serif" font-size="10.00">turtle.Pen.penReady</text>
</a>
</g>
</g>
<!-- Node2&#45;&gt;Node6 -->
<g id="edge5" class="edge"><title>Node2&#45;&gt;Node6</title>
<path fill="none" stroke="midnightblue" d="M346.412,-76.411C369.951,-71.3287 399.057,-65.0446 423.905,-59.6797"/>
<polygon fill="midnightblue" stroke="midnightblue" points="424.871,-63.0518 433.907,-57.5201 423.394,-56.2094 424.871,-63.0518"/>
</g>
<!-- Node4 -->
<g id="node4" class="node"><title>Node4</title>
<g id="a_node4"><a xlink:href="../../df/dcb/classturtle_1_1_turtle.html#a8f637f9dba952c65541c47ca5ef5748b" target="_top" xlink:title="turtle.Turtle.atGoal">
<polygon fill="white" stroke="black" points="584.5,-114.5 584.5,-133.5 689.5,-133.5 689.5,-114.5 584.5,-114.5"/>
<text text-anchor="middle" x="637" y="-121.5" font-family="Helvetica,sans-Serif" font-size="10.00">turtle.Turtle.atGoal</text>
</a>
</g>
</g>
<!-- Node3&#45;&gt;Node4 -->
<g id="edge3" class="edge"><title>Node3&#45;&gt;Node4</title>
<path fill="none" stroke="midnightblue" d="M547.517,-124C556.394,-124 565.457,-124 574.232,-124"/>
<polygon fill="midnightblue" stroke="midnightblue" points="574.374,-127.5 584.374,-124 574.374,-120.5 574.374,-127.5"/>
</g>
</g>
</svg>
