<?xml version="1.0" encoding="UTF-8" standalone="no"?>
<!DOCTYPE svg PUBLIC "-//W3C//DTD SVG 1.1//EN"
 "http://www.w3.org/Graphics/SVG/1.1/DTD/svg11.dtd">
<!-- Generated by graphviz version 2.36.0 (20140111.2315)
 -->
<!-- Title: parser.Parser Pages: 1 -->
<svg width="624pt" height="280pt"
 viewBox="0.00 0.00 624.00 280.00" xmlns="http://www.w3.org/2000/svg" xmlns:xlink="http://www.w3.org/1999/xlink">
<g id="graph0" class="graph" transform="scale(1 1) rotate(0) translate(4 276)">
<title>parser.Parser</title>
<polygon fill="white" stroke="none" points="-4,4 -4,-276 620,-276 620,4 -4,4"/>
<!-- Node1 -->
<g id="node1" class="node"><title>Node1</title>
<polygon fill="#bfbfbf" stroke="black" points="536,-145.5 536,-164.5 616,-164.5 616,-145.5 536,-145.5"/>
<text text-anchor="middle" x="576" y="-152.5" font-family="Helvetica,sans-Serif" font-size="10.00">parser.Parser</text>
</g>
<!-- Node2 -->
<g id="node2" class="node"><title>Node2</title>
<polygon fill="white" stroke="#bfbfbf" points="0,-242 0,-272 134,-272 134,-242 0,-242"/>
<text text-anchor="start" x="8" y="-260" font-family="Helvetica,sans-Serif" font-size="10.00">ObservableMap&lt; String,</text>
<text text-anchor="middle" x="67" y="-249" font-family="Helvetica,sans-Serif" font-size="10.00"> String &gt;</text>
</g>
<!-- Node2&#45;&gt;Node1 -->
<g id="edge1" class="edge"><title>Node2&#45;&gt;Node1</title>
<path fill="none" stroke="#9a32cd" stroke-dasharray="5,2" d="M144.478,-256.729C169.838,-256.059 198.18,-254.683 224,-252 355.984,-238.284 396.929,-254.311 518,-200 537.096,-191.434 555.394,-175.056 565.899,-164.599"/>
<polygon fill="#9a32cd" stroke="#9a32cd" points="144.096,-253.237 134.18,-256.967 144.258,-260.235 144.096,-253.237"/>
<text text-anchor="middle" x="319" y="-252" font-family="Helvetica,sans-Serif" font-size="10.00"> functions</text>
</g>
<!-- Node3 -->
<g id="node3" class="node"><title>Node3</title>
<g id="a_node3"><a xlink:href="../../d9/d1b/classcommand_1_1_command_factory.html" target="_top" xlink:title="command.CommandFactory">
<polygon fill="white" stroke="black" points="242.5,-184.5 242.5,-203.5 395.5,-203.5 395.5,-184.5 242.5,-184.5"/>
<text text-anchor="middle" x="319" y="-191.5" font-family="Helvetica,sans-Serif" font-size="10.00">command.CommandFactory</text>
</a>
</g>
</g>
<!-- Node2&#45;&gt;Node3 -->
<g id="edge3" class="edge"><title>Node2&#45;&gt;Node3</title>
<path fill="none" stroke="#9a32cd" stroke-dasharray="5,2" d="M144.189,-240.266C169.638,-234.451 198.107,-227.701 224,-221 244.876,-215.597 268.173,-208.91 286.352,-203.542"/>
<polygon fill="#9a32cd" stroke="#9a32cd" points="143.202,-236.901 134.227,-242.53 144.754,-243.727 143.202,-236.901"/>
<text text-anchor="middle" x="188" y="-240" font-family="Helvetica,sans-Serif" font-size="10.00"> functions</text>
</g>
<!-- Node3&#45;&gt;Node1 -->
<g id="edge2" class="edge"><title>Node3&#45;&gt;Node1</title>
<path fill="none" stroke="#9a32cd" stroke-dasharray="5,2" d="M405.709,-185.362C440.674,-181.271 481.412,-175.78 518,-169 524.813,-167.738 532.029,-166.158 538.952,-164.519"/>
<polygon fill="#9a32cd" stroke="#9a32cd" points="405.067,-181.912 395.533,-186.532 405.867,-188.866 405.067,-181.912"/>
<text text-anchor="middle" x="466" y="-188" font-family="Helvetica,sans-Serif" font-size="10.00"> myCommandFactory</text>
</g>
<!-- Node4 -->
<g id="node4" class="node"><title>Node4</title>
<polygon fill="white" stroke="#bfbfbf" points="20.5,-157.5 20.5,-176.5 113.5,-176.5 113.5,-157.5 20.5,-157.5"/>
<text text-anchor="middle" x="67" y="-164.5" font-family="Helvetica,sans-Serif" font-size="10.00">ResourceBundle</text>
</g>
<!-- Node4&#45;&gt;Node1 -->
<g id="edge6" class="edge"><title>Node4&#45;&gt;Node1</title>
<path fill="none" stroke="#9a32cd" stroke-dasharray="5,2" d="M124.148,-165.671C227.799,-163.218 446.734,-158.036 535.936,-155.925"/>
<polygon fill="#9a32cd" stroke="#9a32cd" points="123.801,-162.178 113.887,-165.914 123.967,-169.176 123.801,-162.178"/>
<text text-anchor="middle" x="319" y="-166" font-family="Helvetica,sans-Serif" font-size="10.00"> myResources</text>
</g>
<!-- Node4&#45;&gt;Node3 -->
<g id="edge4" class="edge"><title>Node4&#45;&gt;Node3</title>
<path fill="none" stroke="#9a32cd" stroke-dasharray="5,2" d="M123.587,-173.003C158.542,-176.779 204.101,-181.699 242.329,-185.827"/>
<polygon fill="#9a32cd" stroke="#9a32cd" points="123.881,-169.515 113.563,-171.921 123.129,-176.474 123.881,-169.515"/>
<text text-anchor="middle" x="188" y="-209" font-family="Helvetica,sans-Serif" font-size="10.00"> syntax</text>
<text text-anchor="middle" x="188" y="-198" font-family="Helvetica,sans-Serif" font-size="10.00">paramMap</text>
<text text-anchor="middle" x="188" y="-187" font-family="Helvetica,sans-Serif" font-size="10.00">translationMap</text>
</g>
<!-- Node5 -->
<g id="node5" class="node"><title>Node5</title>
<polygon fill="white" stroke="#bfbfbf" points="0,-101 0,-131 134,-131 134,-101 0,-101"/>
<text text-anchor="start" x="8" y="-119" font-family="Helvetica,sans-Serif" font-size="10.00">ObservableMap&lt; String,</text>
<text text-anchor="middle" x="67" y="-108" font-family="Helvetica,sans-Serif" font-size="10.00"> Double &gt;</text>
</g>
<!-- Node5&#45;&gt;Node1 -->
<g id="edge9" class="edge"><title>Node5&#45;&gt;Node1</title>
<path fill="none" stroke="#9a32cd" stroke-dasharray="5,2" d="M144.011,-121.847C253.508,-130.27 451.683,-145.514 535.677,-151.975"/>
<polygon fill="#9a32cd" stroke="#9a32cd" points="144.26,-118.356 134.021,-121.079 143.723,-125.335 144.26,-118.356"/>
<text text-anchor="middle" x="319" y="-144" font-family="Helvetica,sans-Serif" font-size="10.00"> variables</text>
</g>
<!-- Node5&#45;&gt;Node3 -->
<g id="edge5" class="edge"><title>Node5&#45;&gt;Node3</title>
<path fill="none" stroke="#9a32cd" stroke-dasharray="5,2" d="M135.616,-133.842C163.283,-141.683 195.442,-151.495 224,-162 232.216,-165.022 233.813,-166.899 242,-170 255.845,-175.244 271.394,-180.297 284.803,-184.403"/>
<polygon fill="#9a32cd" stroke="#9a32cd" points="136.214,-130.375 125.641,-131.044 134.324,-137.115 136.214,-130.375"/>
<text text-anchor="middle" x="188" y="-165" font-family="Helvetica,sans-Serif" font-size="10.00"> variables</text>
</g>
<!-- Node6 -->
<g id="node6" class="node"><title>Node6</title>
<g id="a_node6"><a xlink:href="../../d3/dcc/classparser_1_1_node.html" target="_top" xlink:title="parser.Node">
<polygon fill="white" stroke="black" points="281.5,-0.5 281.5,-19.5 356.5,-19.5 356.5,-0.5 281.5,-0.5"/>
<text text-anchor="middle" x="319" y="-7.5" font-family="Helvetica,sans-Serif" font-size="10.00">parser.Node</text>
</a>
</g>
</g>
<!-- Node6&#45;&gt;Node1 -->
<g id="edge7" class="edge"><title>Node6&#45;&gt;Node1</title>
<path fill="none" stroke="#9a32cd" stroke-dasharray="5,2" d="M366.987,-11.8557C410.061,-15.7167 473.695,-27.0913 518,-60 548.264,-82.4792 565.598,-126.224 572.062,-145.495"/>
<polygon fill="#9a32cd" stroke="#9a32cd" points="367.019,-8.34735 356.774,-11.046 366.466,-15.3255 367.019,-8.34735"/>
<text text-anchor="middle" x="466" y="-74" font-family="Helvetica,sans-Serif" font-size="10.00"> myTree</text>
<text text-anchor="middle" x="466" y="-63" font-family="Helvetica,sans-Serif" font-size="10.00">myListTree</text>
</g>
<!-- Node6&#45;&gt;Node6 -->
<g id="edge8" class="edge"><title>Node6&#45;&gt;Node6</title>
<path fill="none" stroke="#9a32cd" stroke-dasharray="5,2" d="M294.819,-29.0292C296.138,-34.128 304.198,-38 319,-38 342.105,-38 348.784,-28.5653 339.037,-19.7571"/>
<polygon fill="#9a32cd" stroke="#9a32cd" points="298.078,-30.3148 298.963,-19.7571 291.687,-27.4582 298.078,-30.3148"/>
<text text-anchor="middle" x="319" y="-52" font-family="Helvetica,sans-Serif" font-size="10.00"> myChild1</text>
<text text-anchor="middle" x="319" y="-41" font-family="Helvetica,sans-Serif" font-size="10.00">myChild2</text>
</g>
</g>
</svg>
