<?xml version="1.0" encoding="UTF-8" standalone="no"?>
<!DOCTYPE svg PUBLIC "-//W3C//DTD SVG 1.1//EN"
 "http://www.w3.org/Graphics/SVG/1.1/DTD/svg11.dtd">
<!-- Generated by graphviz version 2.36.0 (20140111.2315)
 -->
<!-- Title: worldController.WorldController.makeTimeline Pages: 1 -->
<svg width="926pt" height="142pt"
 viewBox="0.00 0.00 926.00 142.00" xmlns="http://www.w3.org/2000/svg" xmlns:xlink="http://www.w3.org/1999/xlink">
<g id="graph0" class="graph" transform="scale(1 1) rotate(0) translate(4 138)">
<title>worldController.WorldController.makeTimeline</title>
<polygon fill="white" stroke="none" points="-4,4 -4,-138 922,-138 922,4 -4,4"/>
<!-- Node1 -->
<g id="node1" class="node"><title>Node1</title>
<polygon fill="#bfbfbf" stroke="black" points="0.5,-52 0.5,-82 191.5,-82 191.5,-52 0.5,-52"/>
<text text-anchor="start" x="8.5" y="-70" font-family="Helvetica,sans-Serif" font-size="10.00">worldController.WorldController.make</text>
<text text-anchor="middle" x="96" y="-59" font-family="Helvetica,sans-Serif" font-size="10.00">Timeline</text>
</g>
<!-- Node2 -->
<g id="node2" class="node"><title>Node2</title>
<g id="a_node2"><a xlink:href="../../d8/d08/classworld_controller_1_1_world_controller.html#a6158b4b98f36224f3e871c8a164a0137" target="_top" xlink:title="worldController.WorldController.make\lKeyFrame">
<polygon fill="white" stroke="black" points="228.5,-52 228.5,-82 419.5,-82 419.5,-52 228.5,-52"/>
<text text-anchor="start" x="236.5" y="-70" font-family="Helvetica,sans-Serif" font-size="10.00">worldController.WorldController.make</text>
<text text-anchor="middle" x="324" y="-59" font-family="Helvetica,sans-Serif" font-size="10.00">KeyFrame</text>
</a>
</g>
</g>
<!-- Node1&#45;&gt;Node2 -->
<g id="edge1" class="edge"><title>Node1&#45;&gt;Node2</title>
<path fill="none" stroke="midnightblue" d="M191.535,-67C200.411,-67 209.443,-67 218.405,-67"/>
<polygon fill="midnightblue" stroke="midnightblue" points="218.481,-70.5001 228.48,-67 218.48,-63.5001 218.481,-70.5001"/>
</g>
<!-- Node3 -->
<g id="node3" class="node"><title>Node3</title>
<g id="a_node3"><a xlink:href="../../df/dcb/classturtle_1_1_turtle.html#a7c0f37993844a70cdd57951ae4a916dd" target="_top" xlink:title="turtle.Turtle.animatedMove">
<polygon fill="white" stroke="black" points="456.5,-76.5 456.5,-95.5 601.5,-95.5 601.5,-76.5 456.5,-76.5"/>
<text text-anchor="middle" x="529" y="-83.5" font-family="Helvetica,sans-Serif" font-size="10.00">turtle.Turtle.animatedMove</text>
</a>
</g>
</g>
<!-- Node2&#45;&gt;Node3 -->
<g id="edge2" class="edge"><title>Node2&#45;&gt;Node3</title>
<path fill="none" stroke="midnightblue" d="M419.665,-75.8603C428.506,-76.6878 437.417,-77.5217 446.126,-78.337"/>
<polygon fill="midnightblue" stroke="midnightblue" points="445.96,-81.8366 456.243,-79.2838 446.613,-74.8671 445.96,-81.8366"/>
</g>
<!-- Node4 -->
<g id="node4" class="node"><title>Node4</title>
<g id="a_node4"><a xlink:href="../../df/dcb/classturtle_1_1_turtle.html#a49bc6263dff19b97b012d9c2052e701d" target="_top" xlink:title="turtle.Turtle.findNextPoint">
<polygon fill="white" stroke="black" points="638.5,-114.5 638.5,-133.5 775.5,-133.5 775.5,-114.5 638.5,-114.5"/>
<text text-anchor="middle" x="707" y="-121.5" font-family="Helvetica,sans-Serif" font-size="10.00">turtle.Turtle.findNextPoint</text>
</a>
</g>
</g>
<!-- Node2&#45;&gt;Node4 -->
<g id="edge7" class="edge"><title>Node2&#45;&gt;Node4</title>
<path fill="none" stroke="midnightblue" d="M368.427,-82.046C393.679,-90.1747 426.29,-99.6216 456,-105 513.202,-115.355 578.758,-120.077 628.386,-122.225"/>
<polygon fill="midnightblue" stroke="midnightblue" points="628.274,-125.723 638.408,-122.633 628.559,-118.729 628.274,-125.723"/>
</g>
<!-- Node8 -->
<g id="node8" class="node"><title>Node8</title>
<g id="a_node8"><a xlink:href="../../df/dcb/classturtle_1_1_turtle.html#a6e41524d115c16610b5765720df6e658" target="_top" xlink:title="turtle.Turtle.getCurrent">
<polygon fill="white" stroke="black" points="466.5,-38.5 466.5,-57.5 591.5,-57.5 591.5,-38.5 466.5,-38.5"/>
<text text-anchor="middle" x="529" y="-45.5" font-family="Helvetica,sans-Serif" font-size="10.00">turtle.Turtle.getCurrent</text>
</a>
</g>
</g>
<!-- Node2&#45;&gt;Node8 -->
<g id="edge8" class="edge"><title>Node2&#45;&gt;Node8</title>
<path fill="none" stroke="midnightblue" d="M419.665,-58.1397C431.897,-56.9949 444.262,-55.8376 456.045,-54.7347"/>
<polygon fill="midnightblue" stroke="midnightblue" points="456.601,-58.198 466.231,-53.7813 455.949,-51.2285 456.601,-58.198"/>
</g>
<!-- Node9 -->
<g id="node9" class="node"><title>Node9</title>
<g id="a_node9"><a xlink:href="../../df/dcb/classturtle_1_1_turtle.html#a568de9ba87ac973fb3987cb2782af97e" target="_top" xlink:title="turtle.Turtle.getGoal">
<polygon fill="white" stroke="black" points="473.5,-0.5 473.5,-19.5 584.5,-19.5 584.5,-0.5 473.5,-0.5"/>
<text text-anchor="middle" x="529" y="-7.5" font-family="Helvetica,sans-Serif" font-size="10.00">turtle.Turtle.getGoal</text>
</a>
</g>
</g>
<!-- Node2&#45;&gt;Node9 -->
<g id="edge9" class="edge"><title>Node2&#45;&gt;Node9</title>
<path fill="none" stroke="midnightblue" d="M375.932,-51.9138C400.148,-44.821 429.527,-36.3314 456,-29 464.149,-26.7432 472.834,-24.3994 481.249,-22.1603"/>
<polygon fill="midnightblue" stroke="midnightblue" points="482.183,-25.5335 490.955,-19.5914 480.392,-18.7665 482.183,-25.5335"/>
</g>
<!-- Node3&#45;&gt;Node4 -->
<g id="edge3" class="edge"><title>Node3&#45;&gt;Node4</title>
<path fill="none" stroke="midnightblue" d="M574.412,-95.589C597.951,-100.671 627.057,-106.955 651.905,-112.32"/>
<polygon fill="midnightblue" stroke="midnightblue" points="651.394,-115.791 661.907,-114.48 652.871,-108.948 651.394,-115.791"/>
</g>
<!-- Node6 -->
<g id="node6" class="node"><title>Node6</title>
<g id="a_node6"><a xlink:href="../../df/dcb/classturtle_1_1_turtle.html#a42c672bc79ce607cef27b8f436cd938d" target="_top" xlink:title="turtle.Turtle.moveMyself">
<polygon fill="white" stroke="black" points="641.5,-76.5 641.5,-95.5 772.5,-95.5 772.5,-76.5 641.5,-76.5"/>
<text text-anchor="middle" x="707" y="-83.5" font-family="Helvetica,sans-Serif" font-size="10.00">turtle.Turtle.moveMyself</text>
</a>
</g>
</g>
<!-- Node3&#45;&gt;Node6 -->
<g id="edge5" class="edge"><title>Node3&#45;&gt;Node6</title>
<path fill="none" stroke="midnightblue" d="M601.586,-86C611.333,-86 621.359,-86 631.162,-86"/>
<polygon fill="midnightblue" stroke="midnightblue" points="631.276,-89.5001 641.276,-86 631.276,-82.5001 631.276,-89.5001"/>
</g>
<!-- Node7 -->
<g id="node7" class="node"><title>Node7</title>
<g id="a_node7"><a xlink:href="../../de/d57/classturtle_1_1_pen.html#a361f4e030646d953185a8afe94427ce2" target="_top" xlink:title="turtle.Pen.penReady">
<polygon fill="white" stroke="black" points="650.5,-38.5 650.5,-57.5 763.5,-57.5 763.5,-38.5 650.5,-38.5"/>
<text text-anchor="middle" x="707" y="-45.5" font-family="Helvetica,sans-Serif" font-size="10.00">turtle.Pen.penReady</text>
</a>
</g>
</g>
<!-- Node3&#45;&gt;Node7 -->
<g id="edge6" class="edge"><title>Node3&#45;&gt;Node7</title>
<path fill="none" stroke="midnightblue" d="M574.412,-76.411C597.951,-71.3287 627.057,-65.0446 651.905,-59.6797"/>
<polygon fill="midnightblue" stroke="midnightblue" points="652.871,-63.0518 661.907,-57.5201 651.394,-56.2094 652.871,-63.0518"/>
</g>
<!-- Node5 -->
<g id="node5" class="node"><title>Node5</title>
<g id="a_node5"><a xlink:href="../../df/dcb/classturtle_1_1_turtle.html#a8f637f9dba952c65541c47ca5ef5748b" target="_top" xlink:title="turtle.Turtle.atGoal">
<polygon fill="white" stroke="black" points="812.5,-114.5 812.5,-133.5 917.5,-133.5 917.5,-114.5 812.5,-114.5"/>
<text text-anchor="middle" x="865" y="-121.5" font-family="Helvetica,sans-Serif" font-size="10.00">turtle.Turtle.atGoal</text>
</a>
</g>
</g>
<!-- Node4&#45;&gt;Node5 -->
<g id="edge4" class="edge"><title>Node4&#45;&gt;Node5</title>
<path fill="none" stroke="midnightblue" d="M775.517,-124C784.394,-124 793.457,-124 802.232,-124"/>
<polygon fill="midnightblue" stroke="midnightblue" points="802.374,-127.5 812.374,-124 802.374,-120.5 802.374,-127.5"/>
</g>
</g>
</svg>
