<?xml version="1.0" encoding="UTF-8" standalone="no"?>
<!DOCTYPE svg PUBLIC "-//W3C//DTD SVG 1.1//EN"
 "http://www.w3.org/Graphics/SVG/1.1/DTD/svg11.dtd">
<!-- Generated by graphviz version 2.36.0 (20140111.2315)
 -->
<!-- Title: worldController.WorldController.update Pages: 1 -->
<svg width="1342pt" height="552pt"
 viewBox="0.00 0.00 1342.00 552.00" xmlns="http://www.w3.org/2000/svg" xmlns:xlink="http://www.w3.org/1999/xlink">
<g id="graph0" class="graph" transform="scale(1 1) rotate(0) translate(4 548)">
<title>worldController.WorldController.update</title>
<polygon fill="white" stroke="none" points="-4,4 -4,-548 1338,-548 1338,4 -4,4"/>
<!-- Node1 -->
<g id="node1" class="node"><title>Node1</title>
<polygon fill="#bfbfbf" stroke="black" points="0,-101.5 0,-120.5 198,-120.5 198,-101.5 0,-101.5"/>
<text text-anchor="middle" x="99" y="-108.5" font-family="Helvetica,sans-Serif" font-size="10.00">worldController.WorldController.update</text>
</g>
<!-- Node2 -->
<g id="node2" class="node"><title>Node2</title>
<g id="a_node2"><a xlink:href="../../d9/dd0/classworld_1_1_world.html#ae370733f7784c42741a6ba66c7d2ecf5" target="_top" xlink:title="world.World.listen">
<polygon fill="white" stroke="black" points="272,-164.5 272,-183.5 370,-183.5 370,-164.5 272,-164.5"/>
<text text-anchor="middle" x="321" y="-171.5" font-family="Helvetica,sans-Serif" font-size="10.00">world.World.listen</text>
</a>
</g>
</g>
<!-- Node1&#45;&gt;Node2 -->
<g id="edge1" class="edge"><title>Node1&#45;&gt;Node2</title>
<path fill="none" stroke="midnightblue" d="M133.413,-120.568C171.806,-131.563 234.908,-149.633 276.951,-161.672"/>
<polygon fill="midnightblue" stroke="midnightblue" points="276.056,-165.057 286.633,-164.445 277.983,-158.327 276.056,-165.057"/>
</g>
<!-- Node27 -->
<g id="node27" class="node"><title>Node27</title>
<g id="a_node27"><a xlink:href="../../df/dcb/classturtle_1_1_turtle.html#a610aafaf658c4b351330b7c16c66881c" target="_top" xlink:title="turtle.Turtle.updatePenAttributes">
<polygon fill="white" stroke="black" points="234.5,-38.5 234.5,-57.5 407.5,-57.5 407.5,-38.5 234.5,-38.5"/>
<text text-anchor="middle" x="321" y="-45.5" font-family="Helvetica,sans-Serif" font-size="10.00">turtle.Turtle.updatePenAttributes</text>
</a>
</g>
</g>
<!-- Node1&#45;&gt;Node27 -->
<g id="edge36" class="edge"><title>Node1&#45;&gt;Node27</title>
<path fill="none" stroke="midnightblue" d="M133.413,-101.432C171.806,-90.4375 234.908,-72.3672 276.951,-60.3275"/>
<polygon fill="midnightblue" stroke="midnightblue" points="277.983,-63.6728 286.633,-57.555 276.056,-56.9433 277.983,-63.6728"/>
</g>
<!-- Node3 -->
<g id="node3" class="node"><title>Node3</title>
<g id="a_node3"><a xlink:href="../../d7/d35/classcommand_1_1_command.html#a957099a70dd30b5dc897e0caf07d2d99" target="_top" xlink:title="command.Command.getCommand\lValues">
<polygon fill="white" stroke="black" points="444,-77 444,-107 632,-107 632,-77 444,-77"/>
<text text-anchor="start" x="452" y="-95" font-family="Helvetica,sans-Serif" font-size="10.00">command.Command.getCommand</text>
<text text-anchor="middle" x="538" y="-84" font-family="Helvetica,sans-Serif" font-size="10.00">Values</text>
</a>
</g>
</g>
<!-- Node2&#45;&gt;Node3 -->
<g id="edge2" class="edge"><title>Node2&#45;&gt;Node3</title>
<path fill="none" stroke="midnightblue" d="M339.77,-164.493C363.158,-152.264 405.786,-130.942 444,-117 450.803,-114.518 457.966,-112.16 465.172,-109.956"/>
<polygon fill="midnightblue" stroke="midnightblue" points="466.402,-113.242 474.997,-107.047 464.415,-106.53 466.402,-113.242"/>
</g>
<!-- Node5 -->
<g id="node5" class="node"><title>Node5</title>
<g id="a_node5"><a xlink:href="../../d6/d95/classparser_1_1_parser.html#a240c75608624a9c67402a296855c4d1d" target="_top" xlink:title="parser.Parser.initialize\lCommands">
<polygon fill="white" stroke="black" points="478,-241 478,-271 598,-271 598,-241 478,-241"/>
<text text-anchor="start" x="486" y="-259" font-family="Helvetica,sans-Serif" font-size="10.00">parser.Parser.initialize</text>
<text text-anchor="middle" x="538" y="-248" font-family="Helvetica,sans-Serif" font-size="10.00">Commands</text>
</a>
</g>
</g>
<!-- Node2&#45;&gt;Node5 -->
<g id="edge4" class="edge"><title>Node2&#45;&gt;Node5</title>
<path fill="none" stroke="midnightblue" d="M339.77,-183.507C363.158,-195.736 405.786,-217.058 444,-231 451.789,-233.842 460.051,-236.521 468.31,-238.994"/>
<polygon fill="midnightblue" stroke="midnightblue" points="467.395,-242.373 477.974,-241.799 469.346,-235.65 467.395,-242.373"/>
</g>
<!-- Node9 -->
<g id="node9" class="node"><title>Node9</title>
<g id="a_node9"><a xlink:href="../../d6/d95/classparser_1_1_parser.html#a4ecbffc246c3add017c4720eed4c6da9" target="_top" xlink:title="parser.Parser.parse">
<polygon fill="white" stroke="black" points="483.5,-334.5 483.5,-353.5 592.5,-353.5 592.5,-334.5 483.5,-334.5"/>
<text text-anchor="middle" x="538" y="-341.5" font-family="Helvetica,sans-Serif" font-size="10.00">parser.Parser.parse</text>
</a>
</g>
</g>
<!-- Node2&#45;&gt;Node9 -->
<g id="edge8" class="edge"><title>Node2&#45;&gt;Node9</title>
<path fill="none" stroke="midnightblue" d="M332.429,-183.775C353.093,-202.981 400.966,-246.667 444,-280 466.874,-297.717 494.292,-316.283 513.407,-328.827"/>
<polygon fill="midnightblue" stroke="midnightblue" points="511.525,-331.778 521.814,-334.306 515.347,-325.913 511.525,-331.778"/>
</g>
<!-- Node22 -->
<g id="node22" class="node"><title>Node22</title>
<g id="a_node22"><a xlink:href="../../d6/d95/classparser_1_1_parser.html#acebafe1593fc1f09ac31c7104438e4b1" target="_top" xlink:title="parser.Parser.resetRepcount">
<polygon fill="white" stroke="black" points="462.5,-202.5 462.5,-221.5 613.5,-221.5 613.5,-202.5 462.5,-202.5"/>
<text text-anchor="middle" x="538" y="-209.5" font-family="Helvetica,sans-Serif" font-size="10.00">parser.Parser.resetRepcount</text>
</a>
</g>
</g>
<!-- Node2&#45;&gt;Node22 -->
<g id="edge31" class="edge"><title>Node2&#45;&gt;Node22</title>
<path fill="none" stroke="midnightblue" d="M370.25,-182.528C400.656,-187.902 440.26,-194.902 473.241,-200.731"/>
<polygon fill="midnightblue" stroke="midnightblue" points="472.789,-204.205 483.246,-202.499 474.008,-197.312 472.789,-204.205"/>
</g>
<!-- Node24 -->
<g id="node24" class="node"><title>Node24</title>
<g id="a_node24"><a xlink:href="../../d9/dd0/classworld_1_1_world.html#adcbcb8328c7e832fcb710a91457e6772" target="_top" xlink:title="world.World.runCommand">
<polygon fill="white" stroke="black" points="468.5,-126.5 468.5,-145.5 607.5,-145.5 607.5,-126.5 468.5,-126.5"/>
<text text-anchor="middle" x="538" y="-133.5" font-family="Helvetica,sans-Serif" font-size="10.00">world.World.runCommand</text>
</a>
</g>
</g>
<!-- Node2&#45;&gt;Node24 -->
<g id="edge33" class="edge"><title>Node2&#45;&gt;Node24</title>
<path fill="none" stroke="midnightblue" d="M370.25,-165.472C400.656,-160.098 440.26,-153.098 473.241,-147.269"/>
<polygon fill="midnightblue" stroke="midnightblue" points="474.008,-150.688 483.246,-145.501 472.789,-143.795 474.008,-150.688"/>
</g>
<!-- Node25 -->
<g id="node25" class="node"><title>Node25</title>
<g id="a_node25"><a xlink:href="../../d6/d95/classparser_1_1_parser.html#a8679d61f4ae6c55910ef113bcdda2c75" target="_top" xlink:title="parser.Parser.updateVariable">
<polygon fill="white" stroke="black" points="461,-164.5 461,-183.5 615,-183.5 615,-164.5 461,-164.5"/>
<text text-anchor="middle" x="538" y="-171.5" font-family="Helvetica,sans-Serif" font-size="10.00">parser.Parser.updateVariable</text>
</a>
</g>
</g>
<!-- Node2&#45;&gt;Node25 -->
<g id="edge34" class="edge"><title>Node2&#45;&gt;Node25</title>
<path fill="none" stroke="midnightblue" d="M370.25,-174C393.853,-174 422.998,-174 450.286,-174"/>
<polygon fill="midnightblue" stroke="midnightblue" points="450.637,-177.5 460.637,-174 450.637,-170.5 450.637,-177.5"/>
</g>
<!-- Node4 -->
<g id="node4" class="node"><title>Node4</title>
<g id="a_node4"><a xlink:href="../../d7/d35/classcommand_1_1_command.html#a7e1387db1d0d35d4dcd3a3ebe2ff902a" target="_top" xlink:title="command.Command.makeString">
<polygon fill="white" stroke="black" points="673.5,-82.5 673.5,-101.5 850.5,-101.5 850.5,-82.5 673.5,-82.5"/>
<text text-anchor="middle" x="762" y="-89.5" font-family="Helvetica,sans-Serif" font-size="10.00">command.Command.makeString</text>
</a>
</g>
</g>
<!-- Node3&#45;&gt;Node4 -->
<g id="edge3" class="edge"><title>Node3&#45;&gt;Node4</title>
<path fill="none" stroke="midnightblue" d="M632.183,-92C642.417,-92 652.859,-92 663.148,-92"/>
<polygon fill="midnightblue" stroke="midnightblue" points="663.372,-95.5001 673.372,-92 663.372,-88.5001 663.372,-95.5001"/>
</g>
<!-- Node6 -->
<g id="node6" class="node"><title>Node6</title>
<g id="a_node6"><a xlink:href="../../d6/d95/classparser_1_1_parser.html#a4f582c65390bddc57219c0b5c31ef5e7" target="_top" xlink:title="parser.Parser.makeTree">
<polygon fill="white" stroke="black" points="698,-246.5 698,-265.5 826,-265.5 826,-246.5 698,-246.5"/>
<text text-anchor="middle" x="762" y="-253.5" font-family="Helvetica,sans-Serif" font-size="10.00">parser.Parser.makeTree</text>
</a>
</g>
</g>
<!-- Node5&#45;&gt;Node6 -->
<g id="edge5" class="edge"><title>Node5&#45;&gt;Node6</title>
<path fill="none" stroke="midnightblue" d="M598.2,-256C625.661,-256 658.574,-256 687.599,-256"/>
<polygon fill="midnightblue" stroke="midnightblue" points="687.687,-259.5 697.687,-256 687.687,-252.5 687.687,-259.5"/>
</g>
<!-- Node7 -->
<g id="node7" class="node"><title>Node7</title>
<g id="a_node7"><a xlink:href="../../d9/d1b/classcommand_1_1_command_factory.html#a87bf7e648425bb22124367cabedb3327" target="_top" xlink:title="command.CommandFactory.get\lNumParameters">
<polygon fill="white" stroke="black" points="911,-209 911,-239 1081,-239 1081,-209 911,-209"/>
<text text-anchor="start" x="919" y="-227" font-family="Helvetica,sans-Serif" font-size="10.00">command.CommandFactory.get</text>
<text text-anchor="middle" x="996" y="-216" font-family="Helvetica,sans-Serif" font-size="10.00">NumParameters</text>
</a>
</g>
</g>
<!-- Node6&#45;&gt;Node7 -->
<g id="edge6" class="edge"><title>Node6&#45;&gt;Node7</title>
<path fill="none" stroke="midnightblue" d="M826.089,-247.298C849.069,-244.128 875.575,-240.472 900.677,-237.01"/>
<polygon fill="midnightblue" stroke="midnightblue" points="901.16,-240.477 910.588,-235.643 900.203,-233.542 901.16,-240.477"/>
</g>
<!-- Node8 -->
<g id="node8" class="node"><title>Node8</title>
<g id="a_node8"><a xlink:href="../../d9/d1b/classcommand_1_1_command_factory.html#a947fdc151e857ea74564d0d1fe268246" target="_top" xlink:title="command.CommandFactory.translate\lCommand">
<polygon fill="white" stroke="black" points="1136.5,-231 1136.5,-261 1333.5,-261 1333.5,-231 1136.5,-231"/>
<text text-anchor="start" x="1144.5" y="-249" font-family="Helvetica,sans-Serif" font-size="10.00">command.CommandFactory.translate</text>
<text text-anchor="middle" x="1235" y="-238" font-family="Helvetica,sans-Serif" font-size="10.00">Command</text>
</a>
</g>
</g>
<!-- Node7&#45;&gt;Node8 -->
<g id="edge7" class="edge"><title>Node7&#45;&gt;Node8</title>
<path fill="none" stroke="midnightblue" d="M1081.22,-231.818C1095.71,-233.163 1110.94,-234.577 1125.95,-235.97"/>
<polygon fill="midnightblue" stroke="midnightblue" points="1126.01,-239.491 1136.29,-236.93 1126.66,-232.521 1126.01,-239.491"/>
</g>
<!-- Node9&#45;&gt;Node6 -->
<g id="edge30" class="edge"><title>Node9&#45;&gt;Node6</title>
<path fill="none" stroke="midnightblue" d="M553.441,-334.461C576.632,-319.569 624.042,-290.864 668,-275 675.494,-272.296 683.474,-269.935 691.489,-267.885"/>
<polygon fill="midnightblue" stroke="midnightblue" points="692.349,-271.278 701.253,-265.536 690.712,-264.472 692.349,-271.278"/>
</g>
<!-- Node10 -->
<g id="node10" class="node"><title>Node10</title>
<g id="a_node10"><a xlink:href="../../d9/d1b/classcommand_1_1_command_factory.html#ab25bb047b051661d31adf73b2dae5649" target="_top" xlink:title="command.CommandFactory.create\lCommand">
<polygon fill="white" stroke="black" points="669.5,-285 669.5,-315 854.5,-315 854.5,-285 669.5,-285"/>
<text text-anchor="start" x="677.5" y="-303" font-family="Helvetica,sans-Serif" font-size="10.00">command.CommandFactory.create</text>
<text text-anchor="middle" x="762" y="-292" font-family="Helvetica,sans-Serif" font-size="10.00">Command</text>
</a>
</g>
</g>
<!-- Node9&#45;&gt;Node10 -->
<g id="edge9" class="edge"><title>Node9&#45;&gt;Node10</title>
<path fill="none" stroke="midnightblue" d="M587.171,-334.453C612.835,-329.366 645.18,-322.955 674.99,-317.047"/>
<polygon fill="midnightblue" stroke="midnightblue" points="675.86,-320.443 684.988,-315.065 674.499,-313.576 675.86,-320.443"/>
</g>
<!-- Node12 -->
<g id="node12" class="node"><title>Node12</title>
<g id="a_node12"><a xlink:href="../../d6/d95/classparser_1_1_parser.html#aac1cff62f68138c7e977a67d39671701" target="_top" xlink:title="parser.Parser.generateCommand\lInput">
<polygon fill="white" stroke="black" points="674,-373 674,-403 850,-403 850,-373 674,-373"/>
<text text-anchor="start" x="682" y="-391" font-family="Helvetica,sans-Serif" font-size="10.00">parser.Parser.generateCommand</text>
<text text-anchor="middle" x="762" y="-380" font-family="Helvetica,sans-Serif" font-size="10.00">Input</text>
</a>
</g>
</g>
<!-- Node9&#45;&gt;Node12 -->
<g id="edge12" class="edge"><title>Node9&#45;&gt;Node12</title>
<path fill="none" stroke="midnightblue" d="M587.171,-353.547C612.835,-358.634 645.18,-365.045 674.99,-370.953"/>
<polygon fill="midnightblue" stroke="midnightblue" points="674.499,-374.424 684.988,-372.935 675.86,-367.557 674.499,-374.424"/>
</g>
<!-- Node17 -->
<g id="node17" class="node"><title>Node17</title>
<g id="a_node17"><a xlink:href="../../d6/d95/classparser_1_1_parser.html#a3efcd1192e76101919526b4a5e0046f4" target="_top" xlink:title="parser.Parser.getNodeBefore\lToReplace">
<polygon fill="white" stroke="black" points="684.5,-422 684.5,-452 839.5,-452 839.5,-422 684.5,-422"/>
<text text-anchor="start" x="692.5" y="-440" font-family="Helvetica,sans-Serif" font-size="10.00">parser.Parser.getNodeBefore</text>
<text text-anchor="middle" x="762" y="-429" font-family="Helvetica,sans-Serif" font-size="10.00">ToReplace</text>
</a>
</g>
</g>
<!-- Node9&#45;&gt;Node17 -->
<g id="edge17" class="edge"><title>Node9&#45;&gt;Node17</title>
<path fill="none" stroke="midnightblue" d="M554.353,-353.543C578.001,-367.902 625.106,-395.172 668,-412 674.274,-414.461 680.879,-416.768 687.554,-418.906"/>
<polygon fill="midnightblue" stroke="midnightblue" points="686.766,-422.326 697.353,-421.919 688.823,-415.635 686.766,-422.326"/>
</g>
<!-- Node20 -->
<g id="node20" class="node"><title>Node20</title>
<g id="a_node20"><a xlink:href="../../d6/d95/classparser_1_1_parser.html#a447c473b62ba23b7c144df9bb38a9a41" target="_top" xlink:title="parser.Parser.getNodeFor\lCommand">
<polygon fill="white" stroke="black" points="693,-471 693,-501 831,-501 831,-471 693,-471"/>
<text text-anchor="start" x="701" y="-489" font-family="Helvetica,sans-Serif" font-size="10.00">parser.Parser.getNodeFor</text>
<text text-anchor="middle" x="762" y="-478" font-family="Helvetica,sans-Serif" font-size="10.00">Command</text>
</a>
</g>
</g>
<!-- Node9&#45;&gt;Node20 -->
<g id="edge23" class="edge"><title>Node9&#45;&gt;Node20</title>
<path fill="none" stroke="midnightblue" d="M546.642,-353.515C565.066,-375.809 614.391,-431.739 668,-461 672.861,-463.653 678.021,-466.039 683.322,-468.181"/>
<polygon fill="midnightblue" stroke="midnightblue" points="682.387,-471.568 692.98,-471.779 684.832,-465.008 682.387,-471.568"/>
</g>
<!-- Node21 -->
<g id="node21" class="node"><title>Node21</title>
<g id="a_node21"><a xlink:href="../../d3/dcc/classparser_1_1_node.html#a066da2b478008f39a02440d7afceb9ee" target="_top" xlink:title="parser.Node.insertChild">
<polygon fill="white" stroke="black" points="698,-334.5 698,-353.5 826,-353.5 826,-334.5 698,-334.5"/>
<text text-anchor="middle" x="762" y="-341.5" font-family="Helvetica,sans-Serif" font-size="10.00">parser.Node.insertChild</text>
</a>
</g>
</g>
<!-- Node9&#45;&gt;Node21 -->
<g id="edge28" class="edge"><title>Node9&#45;&gt;Node21</title>
<path fill="none" stroke="midnightblue" d="M592.74,-344C621.217,-344 656.617,-344 687.59,-344"/>
<polygon fill="midnightblue" stroke="midnightblue" points="687.908,-347.5 697.908,-344 687.908,-340.5 687.908,-347.5"/>
</g>
<!-- Node10&#45;&gt;Node8 -->
<g id="edge11" class="edge"><title>Node10&#45;&gt;Node8</title>
<path fill="none" stroke="midnightblue" d="M854.652,-289.492C932.364,-280.582 1043.95,-267.789 1125.99,-258.383"/>
<polygon fill="midnightblue" stroke="midnightblue" points="1126.56,-261.841 1136.1,-257.224 1125.76,-254.886 1126.56,-261.841"/>
</g>
<!-- Node11 -->
<g id="node11" class="node"><title>Node11</title>
<g id="a_node11"><a xlink:href="../../d9/d1b/classcommand_1_1_command_factory.html#abd97ea3e22afc09e07ed1d4fd039d11f" target="_top" xlink:title="command.CommandFactory.reflectCMD">
<polygon fill="white" stroke="black" points="892.5,-296.5 892.5,-315.5 1099.5,-315.5 1099.5,-296.5 892.5,-296.5"/>
<text text-anchor="middle" x="996" y="-303.5" font-family="Helvetica,sans-Serif" font-size="10.00">command.CommandFactory.reflectCMD</text>
</a>
</g>
</g>
<!-- Node10&#45;&gt;Node11 -->
<g id="edge10" class="edge"><title>Node10&#45;&gt;Node11</title>
<path fill="none" stroke="midnightblue" d="M854.693,-302.371C863.808,-302.607 873.133,-302.848 882.428,-303.089"/>
<polygon fill="midnightblue" stroke="midnightblue" points="882.405,-306.589 892.492,-303.349 882.586,-299.591 882.405,-306.589"/>
</g>
<!-- Node13 -->
<g id="node13" class="node"><title>Node13</title>
<g id="a_node13"><a xlink:href="../../d3/dcc/classparser_1_1_node.html#aa67bc0d39227232943abec9b95b23235" target="_top" xlink:title="parser.Node.getChild1">
<polygon fill="white" stroke="black" points="934.5,-410.5 934.5,-429.5 1057.5,-429.5 1057.5,-410.5 934.5,-410.5"/>
<text text-anchor="middle" x="996" y="-417.5" font-family="Helvetica,sans-Serif" font-size="10.00">parser.Node.getChild1</text>
</a>
</g>
</g>
<!-- Node12&#45;&gt;Node13 -->
<g id="edge13" class="edge"><title>Node12&#45;&gt;Node13</title>
<path fill="none" stroke="midnightblue" d="M850.048,-400.007C874.465,-403.374 900.709,-406.994 924.067,-410.216"/>
<polygon fill="midnightblue" stroke="midnightblue" points="923.847,-413.719 934.232,-411.618 924.804,-406.785 923.847,-413.719"/>
</g>
<!-- Node14 -->
<g id="node14" class="node"><title>Node14</title>
<g id="a_node14"><a xlink:href="../../d3/dcc/classparser_1_1_node.html#a0f13775acc62af77cdde90dbeaf26bbc" target="_top" xlink:title="parser.Node.getChild2">
<polygon fill="white" stroke="black" points="934.5,-448.5 934.5,-467.5 1057.5,-467.5 1057.5,-448.5 934.5,-448.5"/>
<text text-anchor="middle" x="996" y="-455.5" font-family="Helvetica,sans-Serif" font-size="10.00">parser.Node.getChild2</text>
</a>
</g>
</g>
<!-- Node12&#45;&gt;Node14 -->
<g id="edge14" class="edge"><title>Node12&#45;&gt;Node14</title>
<path fill="none" stroke="midnightblue" d="M833.623,-403.082C841.332,-405.648 848.936,-408.605 856,-412 874.026,-420.664 873.681,-430.974 892,-439 902.074,-443.414 913.137,-446.803 924.16,-449.404"/>
<polygon fill="midnightblue" stroke="midnightblue" points="923.729,-452.892 934.242,-451.579 925.205,-446.049 923.729,-452.892"/>
</g>
<!-- Node15 -->
<g id="node15" class="node"><title>Node15</title>
<g id="a_node15"><a xlink:href="../../d3/dcc/classparser_1_1_node.html#a9c12e8d4375a7517eae0a35724b253c4" target="_top" xlink:title="parser.Node.getValue">
<polygon fill="white" stroke="black" points="936,-334.5 936,-353.5 1056,-353.5 1056,-334.5 936,-334.5"/>
<text text-anchor="middle" x="996" y="-341.5" font-family="Helvetica,sans-Serif" font-size="10.00">parser.Node.getValue</text>
</a>
</g>
</g>
<!-- Node12&#45;&gt;Node15 -->
<g id="edge15" class="edge"><title>Node12&#45;&gt;Node15</title>
<path fill="none" stroke="midnightblue" d="M840.059,-372.948C857.156,-369.642 875.189,-366.18 892,-363 905.17,-360.509 919.295,-357.878 932.733,-355.393"/>
<polygon fill="midnightblue" stroke="midnightblue" points="933.65,-358.783 942.849,-353.526 932.379,-351.899 933.65,-358.783"/>
</g>
<!-- Node16 -->
<g id="node16" class="node"><title>Node16</title>
<g id="a_node16"><a xlink:href="../../d3/dcc/classparser_1_1_node.html#a6bbc0c61aaa261077eb87cfc4e2b45dc" target="_top" xlink:title="parser.Node.numChildren">
<polygon fill="white" stroke="black" points="926.5,-372.5 926.5,-391.5 1065.5,-391.5 1065.5,-372.5 926.5,-372.5"/>
<text text-anchor="middle" x="996" y="-379.5" font-family="Helvetica,sans-Serif" font-size="10.00">parser.Node.numChildren</text>
</a>
</g>
</g>
<!-- Node12&#45;&gt;Node16 -->
<g id="edge16" class="edge"><title>Node12&#45;&gt;Node16</title>
<path fill="none" stroke="midnightblue" d="M850.048,-385.749C871.705,-385.189 894.801,-384.591 916.044,-384.042"/>
<polygon fill="midnightblue" stroke="midnightblue" points="916.403,-387.534 926.31,-383.776 916.222,-380.536 916.403,-387.534"/>
</g>
<!-- Node17&#45;&gt;Node13 -->
<g id="edge18" class="edge"><title>Node17&#45;&gt;Node13</title>
<path fill="none" stroke="midnightblue" d="M839.608,-431.386C866.877,-429.388 897.442,-427.149 924.202,-425.188"/>
<polygon fill="midnightblue" stroke="midnightblue" points="924.539,-428.673 934.257,-424.451 924.028,-421.691 924.539,-428.673"/>
</g>
<!-- Node17&#45;&gt;Node14 -->
<g id="edge19" class="edge"><title>Node17&#45;&gt;Node14</title>
<path fill="none" stroke="midnightblue" d="M839.608,-443.934C866.877,-446.403 897.442,-449.169 924.202,-451.592"/>
<polygon fill="midnightblue" stroke="midnightblue" points="923.982,-455.086 934.257,-452.502 924.613,-448.114 923.982,-455.086"/>
</g>
<!-- Node17&#45;&gt;Node15 -->
<g id="edge20" class="edge"><title>Node17&#45;&gt;Node15</title>
<path fill="none" stroke="midnightblue" d="M837.635,-421.907C844.111,-419.141 850.342,-415.87 856,-412 878.305,-396.744 869.101,-377.35 892,-363 902.172,-356.626 913.947,-352.276 925.822,-349.329"/>
<polygon fill="midnightblue" stroke="midnightblue" points="926.755,-352.709 935.788,-347.171 925.273,-345.867 926.755,-352.709"/>
</g>
<!-- Node18 -->
<g id="node18" class="node"><title>Node18</title>
<g id="a_node18"><a xlink:href="../../d3/dcc/classparser_1_1_node.html#ab14db24c0724dec4387e29d513008e2e" target="_top" xlink:title="parser.Node.hasChildren">
<polygon fill="white" stroke="black" points="929,-524.5 929,-543.5 1063,-543.5 1063,-524.5 929,-524.5"/>
<text text-anchor="middle" x="996" y="-531.5" font-family="Helvetica,sans-Serif" font-size="10.00">parser.Node.hasChildren</text>
</a>
</g>
</g>
<!-- Node17&#45;&gt;Node18 -->
<g id="edge21" class="edge"><title>Node17&#45;&gt;Node18</title>
<path fill="none" stroke="midnightblue" d="M838.26,-452.08C844.534,-454.847 850.551,-458.123 856,-462 879.203,-478.508 868.154,-499.436 892,-515 900.223,-520.367 909.559,-524.315 919.174,-527.204"/>
<polygon fill="midnightblue" stroke="midnightblue" points="918.289,-530.59 928.851,-529.754 920.072,-523.821 918.289,-530.59"/>
</g>
<!-- Node19 -->
<g id="node19" class="node"><title>Node19</title>
<g id="a_node19"><a xlink:href="../../d3/dcc/classparser_1_1_node.html#aa92667a825777b3d757bc3b1a247ac20" target="_top" xlink:title="parser.Node.isLeaf">
<polygon fill="white" stroke="black" points="943,-486.5 943,-505.5 1049,-505.5 1049,-486.5 943,-486.5"/>
<text text-anchor="middle" x="996" y="-493.5" font-family="Helvetica,sans-Serif" font-size="10.00">parser.Node.isLeaf</text>
</a>
</g>
</g>
<!-- Node17&#45;&gt;Node19 -->
<g id="edge22" class="edge"><title>Node17&#45;&gt;Node19</title>
<path fill="none" stroke="midnightblue" d="M823.881,-452.125C834.656,-455.154 845.714,-458.492 856,-462 872.405,-467.595 875.384,-472.067 892,-477 904.988,-480.856 919.141,-484.077 932.68,-486.706"/>
<polygon fill="midnightblue" stroke="midnightblue" points="932.413,-490.216 942.884,-488.601 933.692,-483.334 932.413,-490.216"/>
</g>
<!-- Node20&#45;&gt;Node13 -->
<g id="edge24" class="edge"><title>Node20&#45;&gt;Node13</title>
<path fill="none" stroke="midnightblue" d="M828.347,-470.982C837.775,-468.085 847.243,-464.76 856,-461 873.23,-453.602 874.487,-445.702 892,-439 902.207,-435.094 913.298,-431.975 924.296,-429.488"/>
<polygon fill="midnightblue" stroke="midnightblue" points="925.275,-432.859 934.342,-427.378 923.836,-426.009 925.275,-432.859"/>
</g>
<!-- Node20&#45;&gt;Node14 -->
<g id="edge25" class="edge"><title>Node20&#45;&gt;Node14</title>
<path fill="none" stroke="midnightblue" d="M831.04,-477.788C860.343,-474.252 894.601,-470.117 924.203,-466.544"/>
<polygon fill="midnightblue" stroke="midnightblue" points="924.956,-469.979 934.464,-465.306 924.117,-463.03 924.956,-469.979"/>
</g>
<!-- Node20&#45;&gt;Node18 -->
<g id="edge26" class="edge"><title>Node20&#45;&gt;Node18</title>
<path fill="none" stroke="midnightblue" d="M827.528,-501.021C848.097,-505.671 870.973,-510.699 892,-515 904.706,-517.599 918.326,-520.225 931.366,-522.66"/>
<polygon fill="midnightblue" stroke="midnightblue" points="930.729,-526.102 941.199,-524.482 932.004,-519.219 930.729,-526.102"/>
</g>
<!-- Node20&#45;&gt;Node19 -->
<g id="edge27" class="edge"><title>Node20&#45;&gt;Node19</title>
<path fill="none" stroke="midnightblue" d="M831.04,-488.933C863.113,-490.315 901.124,-491.954 932.468,-493.305"/>
<polygon fill="midnightblue" stroke="midnightblue" points="932.682,-496.817 942.823,-493.751 932.983,-489.824 932.682,-496.817"/>
</g>
<!-- Node21&#45;&gt;Node15 -->
<g id="edge29" class="edge"><title>Node21&#45;&gt;Node15</title>
<path fill="none" stroke="midnightblue" d="M826.089,-344C856.963,-344 894.202,-344 925.849,-344"/>
<polygon fill="midnightblue" stroke="midnightblue" points="925.912,-347.5 935.912,-344 925.912,-340.5 925.912,-347.5"/>
</g>
<!-- Node23 -->
<g id="node23" class="node"><title>Node23</title>
<g id="a_node23"><a xlink:href="../../d9/d1b/classcommand_1_1_command_factory.html#a0d59e4f0f925b5046957c0e054ce8bef" target="_top" xlink:title="command.CommandFactory.reset\lRepcount">
<polygon fill="white" stroke="black" points="672.5,-197 672.5,-227 851.5,-227 851.5,-197 672.5,-197"/>
<text text-anchor="start" x="680.5" y="-215" font-family="Helvetica,sans-Serif" font-size="10.00">command.CommandFactory.reset</text>
<text text-anchor="middle" x="762" y="-204" font-family="Helvetica,sans-Serif" font-size="10.00">Repcount</text>
</a>
</g>
</g>
<!-- Node22&#45;&gt;Node23 -->
<g id="edge32" class="edge"><title>Node22&#45;&gt;Node23</title>
<path fill="none" stroke="midnightblue" d="M613.54,-212C629.187,-212 645.922,-212 662.295,-212"/>
<polygon fill="midnightblue" stroke="midnightblue" points="662.43,-215.5 672.43,-212 662.43,-208.5 662.43,-215.5"/>
</g>
<!-- Node26 -->
<g id="node26" class="node"><title>Node26</title>
<g id="a_node26"><a xlink:href="../../d9/d1b/classcommand_1_1_command_factory.html#a8347db76764ea8308d029789b49519dd" target="_top" xlink:title="command.CommandFactory.update\lVariable">
<polygon fill="white" stroke="black" points="668,-148 668,-178 856,-178 856,-148 668,-148"/>
<text text-anchor="start" x="676" y="-166" font-family="Helvetica,sans-Serif" font-size="10.00">command.CommandFactory.update</text>
<text text-anchor="middle" x="762" y="-155" font-family="Helvetica,sans-Serif" font-size="10.00">Variable</text>
</a>
</g>
</g>
<!-- Node25&#45;&gt;Node26 -->
<g id="edge35" class="edge"><title>Node25&#45;&gt;Node26</title>
<path fill="none" stroke="midnightblue" d="M615.089,-170.23C628.724,-169.554 643.142,-168.84 657.396,-168.134"/>
<polygon fill="midnightblue" stroke="midnightblue" points="657.919,-171.612 667.733,-167.621 657.572,-164.621 657.919,-171.612"/>
</g>
<!-- Node28 -->
<g id="node28" class="node"><title>Node28</title>
<g id="a_node28"><a xlink:href="../../de/d57/classturtle_1_1_pen.html#ac9a08745a9f3615b9e47c1c8e5af8f1b" target="_top" xlink:title="turtle.Pen.getColor">
<polygon fill="white" stroke="black" points="484.5,-38.5 484.5,-57.5 591.5,-57.5 591.5,-38.5 484.5,-38.5"/>
<text text-anchor="middle" x="538" y="-45.5" font-family="Helvetica,sans-Serif" font-size="10.00">turtle.Pen.getColor</text>
</a>
</g>
</g>
<!-- Node27&#45;&gt;Node28 -->
<g id="edge37" class="edge"><title>Node27&#45;&gt;Node28</title>
<path fill="none" stroke="midnightblue" d="M407.591,-48C429.731,-48 453.165,-48 473.919,-48"/>
<polygon fill="midnightblue" stroke="midnightblue" points="474.189,-51.5001 484.189,-48 474.189,-44.5001 474.189,-51.5001"/>
</g>
<!-- Node29 -->
<g id="node29" class="node"><title>Node29</title>
<g id="a_node29"><a xlink:href="../../de/d57/classturtle_1_1_pen.html#a76c8dc4e66927e7d3774ea00b2266640" target="_top" xlink:title="turtle.Pen.getSize">
<polygon fill="white" stroke="black" points="487,-0.5 487,-19.5 589,-19.5 589,-0.5 487,-0.5"/>
<text text-anchor="middle" x="538" y="-7.5" font-family="Helvetica,sans-Serif" font-size="10.00">turtle.Pen.getSize</text>
</a>
</g>
</g>
<!-- Node27&#45;&gt;Node29 -->
<g id="edge38" class="edge"><title>Node27&#45;&gt;Node29</title>
<path fill="none" stroke="midnightblue" d="M375.976,-38.46C406.618,-33.0443 445.049,-26.2517 476.682,-20.6609"/>
<polygon fill="midnightblue" stroke="midnightblue" points="477.456,-24.0784 486.694,-18.8912 476.238,-17.1852 477.456,-24.0784"/>
</g>
</g>
</svg>
