<?xml version="1.0" encoding="UTF-8" standalone="no"?>
<!DOCTYPE svg PUBLIC "-//W3C//DTD SVG 1.1//EN"
 "http://www.w3.org/Graphics/SVG/1.1/DTD/svg11.dtd">
<!-- Generated by graphviz version 2.36.0 (20140111.2315)
 -->
<!-- Title: worldController.WorldController.WorldController Pages: 1 -->
<svg width="1126pt" height="418pt"
 viewBox="0.00 0.00 1126.00 418.00" xmlns="http://www.w3.org/2000/svg" xmlns:xlink="http://www.w3.org/1999/xlink">
<g id="graph0" class="graph" transform="scale(1 1) rotate(0) translate(4 414)">
<title>worldController.WorldController.WorldController</title>
<polygon fill="white" stroke="none" points="-4,4 -4,-414 1122,-414 1122,4 -4,4"/>
<!-- Node1 -->
<g id="node1" class="node"><title>Node1</title>
<polygon fill="#bfbfbf" stroke="black" points="0,-210 0,-240 164,-240 164,-210 0,-210"/>
<text text-anchor="start" x="8" y="-228" font-family="Helvetica,sans-Serif" font-size="10.00">worldController.WorldController.</text>
<text text-anchor="middle" x="82" y="-217" font-family="Helvetica,sans-Serif" font-size="10.00">WorldController</text>
</g>
<!-- Node2 -->
<g id="node2" class="node"><title>Node2</title>
<g id="a_node2"><a xlink:href="../../d0/d7c/classuser_interface_1_1_u_i.html#ab49b650fd622f1fd78ab068ea036cfaa" target="_top" xlink:title="userInterface.UI.getCanvas">
<polygon fill="white" stroke="black" points="223,-390.5 223,-409.5 369,-409.5 369,-390.5 223,-390.5"/>
<text text-anchor="middle" x="296" y="-397.5" font-family="Helvetica,sans-Serif" font-size="10.00">userInterface.UI.getCanvas</text>
</a>
</g>
</g>
<!-- Node1&#45;&gt;Node2 -->
<g id="edge1" class="edge"><title>Node1&#45;&gt;Node2</title>
<path fill="none" stroke="midnightblue" d="M89.7884,-240.373C104.708,-272.23 143.578,-345.441 200,-381 204.14,-383.609 208.566,-385.871 213.159,-387.83"/>
<polygon fill="midnightblue" stroke="midnightblue" points="212.193,-391.205 222.785,-391.441 214.652,-384.651 212.193,-391.205"/>
</g>
<!-- Node3 -->
<g id="node3" class="node"><title>Node3</title>
<g id="a_node3"><a xlink:href="../../d0/d7c/classuser_interface_1_1_u_i.html#ae4b4f47652558adc7f2a3b35cb03b0c5" target="_top" xlink:title="userInterface.UI.getGraphics">
<polygon fill="white" stroke="black" points="219.5,-352.5 219.5,-371.5 372.5,-371.5 372.5,-352.5 219.5,-352.5"/>
<text text-anchor="middle" x="296" y="-359.5" font-family="Helvetica,sans-Serif" font-size="10.00">userInterface.UI.getGraphics</text>
</a>
</g>
</g>
<!-- Node1&#45;&gt;Node3 -->
<g id="edge2" class="edge"><title>Node1&#45;&gt;Node3</title>
<path fill="none" stroke="midnightblue" d="M93.6232,-240.341C112.109,-265.778 152.767,-316.414 200,-342 205.127,-344.777 210.603,-347.169 216.24,-349.229"/>
<polygon fill="midnightblue" stroke="midnightblue" points="215.253,-352.589 225.846,-352.392 217.442,-345.94 215.253,-352.589"/>
</g>
<!-- Node4 -->
<g id="node4" class="node"><title>Node4</title>
<g id="a_node4"><a xlink:href="../../dc/d1b/classuser_interface_1_1_left_panel.html#a8b31bed29bdfa95820342c6d3facc020" target="_top" xlink:title="userInterface.LeftPanel.get\lInstance">
<polygon fill="white" stroke="black" points="223.5,-303 223.5,-333 368.5,-333 368.5,-303 223.5,-303"/>
<text text-anchor="start" x="231.5" y="-321" font-family="Helvetica,sans-Serif" font-size="10.00">userInterface.LeftPanel.get</text>
<text text-anchor="middle" x="296" y="-310" font-family="Helvetica,sans-Serif" font-size="10.00">Instance</text>
</a>
</g>
</g>
<!-- Node1&#45;&gt;Node4 -->
<g id="edge3" class="edge"><title>Node1&#45;&gt;Node4</title>
<path fill="none" stroke="midnightblue" d="M104.936,-240.174C127.779,-255.382 165.042,-278.553 200,-293 206.089,-295.517 212.504,-297.843 219.007,-299.979"/>
<polygon fill="midnightblue" stroke="midnightblue" points="217.983,-303.326 228.572,-302.973 220.074,-296.645 217.983,-303.326"/>
</g>
<!-- Node6 -->
<g id="node6" class="node"><title>Node6</title>
<g id="a_node6"><a xlink:href="../../de/df4/classuser_interface_1_1_right_panel.html#a458f970045d0dde26df4c9c4c1085fb7" target="_top" xlink:title="userInterface.RightPanel.get\lInstance">
<polygon fill="white" stroke="black" points="220.5,-254 220.5,-284 371.5,-284 371.5,-254 220.5,-254"/>
<text text-anchor="start" x="228.5" y="-272" font-family="Helvetica,sans-Serif" font-size="10.00">userInterface.RightPanel.get</text>
<text text-anchor="middle" x="296" y="-261" font-family="Helvetica,sans-Serif" font-size="10.00">Instance</text>
</a>
</g>
</g>
<!-- Node1&#45;&gt;Node6 -->
<g id="edge5" class="edge"><title>Node1&#45;&gt;Node6</title>
<path fill="none" stroke="midnightblue" d="M155.365,-240.019C173.854,-243.856 193.865,-248.01 212.807,-251.941"/>
<polygon fill="midnightblue" stroke="midnightblue" points="212.098,-255.369 222.601,-253.974 213.521,-248.515 212.098,-255.369"/>
</g>
<!-- Node8 -->
<g id="node8" class="node"><title>Node8</title>
<g id="a_node8"><a xlink:href="../../d0/d7c/classuser_interface_1_1_u_i.html#a27f69068b0d48aef3a5d91fa62b39059" target="_top" xlink:title="userInterface.UI.getPane">
<polygon fill="white" stroke="black" points="229,-215.5 229,-234.5 363,-234.5 363,-215.5 229,-215.5"/>
<text text-anchor="middle" x="296" y="-222.5" font-family="Helvetica,sans-Serif" font-size="10.00">userInterface.UI.getPane</text>
</a>
</g>
</g>
<!-- Node1&#45;&gt;Node8 -->
<g id="edge7" class="edge"><title>Node1&#45;&gt;Node8</title>
<path fill="none" stroke="midnightblue" d="M164.056,-225C181.937,-225 200.823,-225 218.516,-225"/>
<polygon fill="midnightblue" stroke="midnightblue" points="218.78,-228.5 228.78,-225 218.78,-221.5 218.78,-228.5"/>
</g>
<!-- Node9 -->
<g id="node9" class="node"><title>Node9</title>
<g id="a_node9"><a xlink:href="../../d9/dd0/classworld_1_1_world.html#a62bc519b46f0fd04af93a8a12d38f2f9" target="_top" xlink:title="world.World.getTurtle">
<polygon fill="white" stroke="black" points="239,-177.5 239,-196.5 353,-196.5 353,-177.5 239,-177.5"/>
<text text-anchor="middle" x="296" y="-184.5" font-family="Helvetica,sans-Serif" font-size="10.00">world.World.getTurtle</text>
</a>
</g>
</g>
<!-- Node1&#45;&gt;Node9 -->
<g id="edge8" class="edge"><title>Node1&#45;&gt;Node9</title>
<path fill="none" stroke="midnightblue" d="M164.056,-210.471C186.559,-206.438 210.652,-202.119 231.958,-198.3"/>
<polygon fill="midnightblue" stroke="midnightblue" points="232.628,-201.736 241.853,-196.526 231.393,-194.846 232.628,-201.736"/>
</g>
<!-- Node10 -->
<g id="node10" class="node"><title>Node10</title>
<g id="a_node10"><a xlink:href="../../dc/d1b/classuser_interface_1_1_left_panel.html#a06bc8c838ae46046bc0a78fceb224387" target="_top" xlink:title="userInterface.LeftPanel.initialize">
<polygon fill="white" stroke="black" points="212.5,-139.5 212.5,-158.5 379.5,-158.5 379.5,-139.5 212.5,-139.5"/>
<text text-anchor="middle" x="296" y="-146.5" font-family="Helvetica,sans-Serif" font-size="10.00">userInterface.LeftPanel.initialize</text>
</a>
</g>
</g>
<!-- Node1&#45;&gt;Node10 -->
<g id="edge9" class="edge"><title>Node1&#45;&gt;Node10</title>
<path fill="none" stroke="midnightblue" d="M109.127,-209.857C132.312,-197.015 167.458,-178.978 200,-168 208.163,-165.246 216.863,-162.833 225.558,-160.736"/>
<polygon fill="midnightblue" stroke="midnightblue" points="226.375,-164.14 235.344,-158.5 224.816,-157.315 226.375,-164.14"/>
</g>
<!-- Node11 -->
<g id="node11" class="node"><title>Node11</title>
<g id="a_node11"><a xlink:href="../../d8/d08/classworld_controller_1_1_world_controller.html#a338b2d907598a400b7cbcfbb86550a71" target="_top" xlink:title="worldController.WorldController.make\lTimeline">
<polygon fill="white" stroke="black" points="200.5,-90 200.5,-120 391.5,-120 391.5,-90 200.5,-90"/>
<text text-anchor="start" x="208.5" y="-108" font-family="Helvetica,sans-Serif" font-size="10.00">worldController.WorldController.make</text>
<text text-anchor="middle" x="296" y="-97" font-family="Helvetica,sans-Serif" font-size="10.00">Timeline</text>
</a>
</g>
</g>
<!-- Node1&#45;&gt;Node11 -->
<g id="edge10" class="edge"><title>Node1&#45;&gt;Node11</title>
<path fill="none" stroke="midnightblue" d="M97.3995,-209.787C118.127,-188.773 158.469,-151.079 200,-130 204.634,-127.648 209.51,-125.502 214.506,-123.546"/>
<polygon fill="midnightblue" stroke="midnightblue" points="216.023,-126.719 224.228,-120.015 213.633,-120.139 216.023,-126.719"/>
</g>
<!-- Node20 -->
<g id="node20" class="node"><title>Node20</title>
<g id="a_node20"><a xlink:href="../../d8/d08/classworld_controller_1_1_world_controller.html#a99332ba84b85c298014578f9ae762aa5" target="_top" xlink:title="worldController.WorldController.set\lUpBindings">
<polygon fill="white" stroke="black" points="206.5,-41 206.5,-71 385.5,-71 385.5,-41 206.5,-41"/>
<text text-anchor="start" x="214.5" y="-59" font-family="Helvetica,sans-Serif" font-size="10.00">worldController.WorldController.set</text>
<text text-anchor="middle" x="296" y="-48" font-family="Helvetica,sans-Serif" font-size="10.00">UpBindings</text>
</a>
</g>
</g>
<!-- Node1&#45;&gt;Node20 -->
<g id="edge20" class="edge"><title>Node1&#45;&gt;Node20</title>
<path fill="none" stroke="midnightblue" d="M91.0233,-209.713C107.373,-180.104 147.487,-114.875 200,-81 203.198,-78.9372 206.56,-77.0442 210.033,-75.3068"/>
<polygon fill="midnightblue" stroke="midnightblue" points="211.772,-78.3621 219.451,-71.0622 208.896,-71.9804 211.772,-78.3621"/>
</g>
<!-- Node5 -->
<g id="node5" class="node"><title>Node5</title>
<g id="a_node5"><a xlink:href="../../dc/d1b/classuser_interface_1_1_left_panel.html#a0fcdcf8b427a868a7069ac627eea1b43" target="_top" xlink:title="userInterface.LeftPanel.\lLeftPanel">
<polygon fill="white" stroke="black" points="459.5,-303 459.5,-333 588.5,-333 588.5,-303 459.5,-303"/>
<text text-anchor="start" x="467.5" y="-321" font-family="Helvetica,sans-Serif" font-size="10.00">userInterface.LeftPanel.</text>
<text text-anchor="middle" x="524" y="-310" font-family="Helvetica,sans-Serif" font-size="10.00">LeftPanel</text>
</a>
</g>
</g>
<!-- Node4&#45;&gt;Node5 -->
<g id="edge4" class="edge"><title>Node4&#45;&gt;Node5</title>
<path fill="none" stroke="midnightblue" d="M368.508,-318C394.195,-318 423.203,-318 449.09,-318"/>
<polygon fill="midnightblue" stroke="midnightblue" points="449.219,-321.5 459.219,-318 449.219,-314.5 449.219,-321.5"/>
</g>
<!-- Node7 -->
<g id="node7" class="node"><title>Node7</title>
<g id="a_node7"><a xlink:href="../../de/df4/classuser_interface_1_1_right_panel.html#a444679df7a56d1cfea2ed417f0ed4f7d" target="_top" xlink:title="userInterface.RightPanel.\lRightPanel">
<polygon fill="white" stroke="black" points="456.5,-254 456.5,-284 591.5,-284 591.5,-254 456.5,-254"/>
<text text-anchor="start" x="464.5" y="-272" font-family="Helvetica,sans-Serif" font-size="10.00">userInterface.RightPanel.</text>
<text text-anchor="middle" x="524" y="-261" font-family="Helvetica,sans-Serif" font-size="10.00">RightPanel</text>
</a>
</g>
</g>
<!-- Node6&#45;&gt;Node7 -->
<g id="edge6" class="edge"><title>Node6&#45;&gt;Node7</title>
<path fill="none" stroke="midnightblue" d="M371.627,-269C395.59,-269 422.165,-269 446.275,-269"/>
<polygon fill="midnightblue" stroke="midnightblue" points="446.442,-272.5 456.442,-269 446.442,-265.5 446.442,-272.5"/>
</g>
<!-- Node12 -->
<g id="node12" class="node"><title>Node12</title>
<g id="a_node12"><a xlink:href="../../d8/d08/classworld_controller_1_1_world_controller.html#a6158b4b98f36224f3e871c8a164a0137" target="_top" xlink:title="worldController.WorldController.make\lKeyFrame">
<polygon fill="white" stroke="black" points="428.5,-90 428.5,-120 619.5,-120 619.5,-90 428.5,-90"/>
<text text-anchor="start" x="436.5" y="-108" font-family="Helvetica,sans-Serif" font-size="10.00">worldController.WorldController.make</text>
<text text-anchor="middle" x="524" y="-97" font-family="Helvetica,sans-Serif" font-size="10.00">KeyFrame</text>
</a>
</g>
</g>
<!-- Node11&#45;&gt;Node12 -->
<g id="edge11" class="edge"><title>Node11&#45;&gt;Node12</title>
<path fill="none" stroke="midnightblue" d="M391.535,-105C400.411,-105 409.443,-105 418.405,-105"/>
<polygon fill="midnightblue" stroke="midnightblue" points="418.481,-108.5 428.48,-105 418.48,-101.5 418.481,-108.5"/>
</g>
<!-- Node13 -->
<g id="node13" class="node"><title>Node13</title>
<g id="a_node13"><a xlink:href="../../df/dcb/classturtle_1_1_turtle.html#a6e41524d115c16610b5765720df6e658" target="_top" xlink:title="turtle.Turtle.getCurrent">
<polygon fill="white" stroke="black" points="666.5,-152.5 666.5,-171.5 791.5,-171.5 791.5,-152.5 666.5,-152.5"/>
<text text-anchor="middle" x="729" y="-159.5" font-family="Helvetica,sans-Serif" font-size="10.00">turtle.Turtle.getCurrent</text>
</a>
</g>
</g>
<!-- Node12&#45;&gt;Node13 -->
<g id="edge12" class="edge"><title>Node12&#45;&gt;Node13</title>
<path fill="none" stroke="midnightblue" d="M575.932,-120.086C600.148,-127.179 629.527,-135.669 656,-143 664.149,-145.257 672.834,-147.601 681.249,-149.84"/>
<polygon fill="midnightblue" stroke="midnightblue" points="680.392,-153.233 690.955,-152.409 682.183,-146.466 680.392,-153.233"/>
</g>
<!-- Node14 -->
<g id="node14" class="node"><title>Node14</title>
<g id="a_node14"><a xlink:href="../../df/dcb/classturtle_1_1_turtle.html#a568de9ba87ac973fb3987cb2782af97e" target="_top" xlink:title="turtle.Turtle.getGoal">
<polygon fill="white" stroke="black" points="673.5,-114.5 673.5,-133.5 784.5,-133.5 784.5,-114.5 673.5,-114.5"/>
<text text-anchor="middle" x="729" y="-121.5" font-family="Helvetica,sans-Serif" font-size="10.00">turtle.Turtle.getGoal</text>
</a>
</g>
</g>
<!-- Node12&#45;&gt;Node14 -->
<g id="edge13" class="edge"><title>Node12&#45;&gt;Node14</title>
<path fill="none" stroke="midnightblue" d="M619.665,-113.86C634.327,-115.233 649.18,-116.623 662.992,-117.916"/>
<polygon fill="midnightblue" stroke="midnightblue" points="663.049,-121.436 673.332,-118.883 663.701,-114.467 663.049,-121.436"/>
</g>
<!-- Node15 -->
<g id="node15" class="node"><title>Node15</title>
<g id="a_node15"><a xlink:href="../../df/dcb/classturtle_1_1_turtle.html#a7c0f37993844a70cdd57951ae4a916dd" target="_top" xlink:title="turtle.Turtle.animatedMove">
<polygon fill="white" stroke="black" points="656.5,-38.5 656.5,-57.5 801.5,-57.5 801.5,-38.5 656.5,-38.5"/>
<text text-anchor="middle" x="729" y="-45.5" font-family="Helvetica,sans-Serif" font-size="10.00">turtle.Turtle.animatedMove</text>
</a>
</g>
</g>
<!-- Node12&#45;&gt;Node15 -->
<g id="edge14" class="edge"><title>Node12&#45;&gt;Node15</title>
<path fill="none" stroke="midnightblue" d="M578.601,-89.9494C611.566,-80.6933 653.276,-68.9815 684.242,-60.2866"/>
<polygon fill="midnightblue" stroke="midnightblue" points="685.213,-63.6496 693.894,-57.5765 683.32,-56.9103 685.213,-63.6496"/>
</g>
<!-- Node16 -->
<g id="node16" class="node"><title>Node16</title>
<g id="a_node16"><a xlink:href="../../df/dcb/classturtle_1_1_turtle.html#a49bc6263dff19b97b012d9c2052e701d" target="_top" xlink:title="turtle.Turtle.findNextPoint">
<polygon fill="white" stroke="black" points="838.5,-76.5 838.5,-95.5 975.5,-95.5 975.5,-76.5 838.5,-76.5"/>
<text text-anchor="middle" x="907" y="-83.5" font-family="Helvetica,sans-Serif" font-size="10.00">turtle.Turtle.findNextPoint</text>
</a>
</g>
</g>
<!-- Node12&#45;&gt;Node16 -->
<g id="edge19" class="edge"><title>Node12&#45;&gt;Node16</title>
<path fill="none" stroke="midnightblue" d="M619.669,-100.279C683.94,-97.0738 767.89,-92.8874 828.249,-89.8774"/>
<polygon fill="midnightblue" stroke="midnightblue" points="828.666,-93.361 838.479,-89.3672 828.317,-86.3697 828.666,-93.361"/>
</g>
<!-- Node15&#45;&gt;Node16 -->
<g id="edge15" class="edge"><title>Node15&#45;&gt;Node16</title>
<path fill="none" stroke="midnightblue" d="M774.412,-57.589C797.951,-62.6713 827.057,-68.9554 851.905,-74.3203"/>
<polygon fill="midnightblue" stroke="midnightblue" points="851.394,-77.7906 861.907,-76.4799 852.871,-70.9482 851.394,-77.7906"/>
</g>
<!-- Node18 -->
<g id="node18" class="node"><title>Node18</title>
<g id="a_node18"><a xlink:href="../../df/dcb/classturtle_1_1_turtle.html#a42c672bc79ce607cef27b8f436cd938d" target="_top" xlink:title="turtle.Turtle.moveMyself">
<polygon fill="white" stroke="black" points="841.5,-38.5 841.5,-57.5 972.5,-57.5 972.5,-38.5 841.5,-38.5"/>
<text text-anchor="middle" x="907" y="-45.5" font-family="Helvetica,sans-Serif" font-size="10.00">turtle.Turtle.moveMyself</text>
</a>
</g>
</g>
<!-- Node15&#45;&gt;Node18 -->
<g id="edge17" class="edge"><title>Node15&#45;&gt;Node18</title>
<path fill="none" stroke="midnightblue" d="M801.586,-48C811.333,-48 821.359,-48 831.162,-48"/>
<polygon fill="midnightblue" stroke="midnightblue" points="831.276,-51.5001 841.276,-48 831.276,-44.5001 831.276,-51.5001"/>
</g>
<!-- Node19 -->
<g id="node19" class="node"><title>Node19</title>
<g id="a_node19"><a xlink:href="../../de/d57/classturtle_1_1_pen.html#a361f4e030646d953185a8afe94427ce2" target="_top" xlink:title="turtle.Pen.penReady">
<polygon fill="white" stroke="black" points="850.5,-0.5 850.5,-19.5 963.5,-19.5 963.5,-0.5 850.5,-0.5"/>
<text text-anchor="middle" x="907" y="-7.5" font-family="Helvetica,sans-Serif" font-size="10.00">turtle.Pen.penReady</text>
</a>
</g>
</g>
<!-- Node15&#45;&gt;Node19 -->
<g id="edge18" class="edge"><title>Node15&#45;&gt;Node19</title>
<path fill="none" stroke="midnightblue" d="M774.412,-38.411C797.951,-33.3287 827.057,-27.0446 851.905,-21.6797"/>
<polygon fill="midnightblue" stroke="midnightblue" points="852.871,-25.0518 861.907,-19.5201 851.394,-18.2094 852.871,-25.0518"/>
</g>
<!-- Node17 -->
<g id="node17" class="node"><title>Node17</title>
<g id="a_node17"><a xlink:href="../../df/dcb/classturtle_1_1_turtle.html#a8f637f9dba952c65541c47ca5ef5748b" target="_top" xlink:title="turtle.Turtle.atGoal">
<polygon fill="white" stroke="black" points="1012.5,-76.5 1012.5,-95.5 1117.5,-95.5 1117.5,-76.5 1012.5,-76.5"/>
<text text-anchor="middle" x="1065" y="-83.5" font-family="Helvetica,sans-Serif" font-size="10.00">turtle.Turtle.atGoal</text>
</a>
</g>
</g>
<!-- Node16&#45;&gt;Node17 -->
<g id="edge16" class="edge"><title>Node16&#45;&gt;Node17</title>
<path fill="none" stroke="midnightblue" d="M975.517,-86C984.394,-86 993.457,-86 1002.23,-86"/>
<polygon fill="midnightblue" stroke="midnightblue" points="1002.37,-89.5001 1012.37,-86 1002.37,-82.5001 1002.37,-89.5001"/>
</g>
</g>
</svg>
