<?xml version="1.0" encoding="UTF-8" standalone="no"?>
<!DOCTYPE svg PUBLIC "-//W3C//DTD SVG 1.1//EN"
 "http://www.w3.org/Graphics/SVG/1.1/DTD/svg11.dtd">
<!-- Generated by graphviz version 2.36.0 (20140111.2315)
 -->
<!-- Title: worldController.WorldController.drawTurtle Pages: 1 -->
<svg width="1326pt" height="38pt"
 viewBox="0.00 0.00 1326.00 38.00" xmlns="http://www.w3.org/2000/svg" xmlns:xlink="http://www.w3.org/1999/xlink">
<g id="graph0" class="graph" transform="scale(1 1) rotate(0) translate(4 34)">
<title>worldController.WorldController.drawTurtle</title>
<polygon fill="white" stroke="none" points="-4,4 -4,-34 1322,-34 1322,4 -4,4"/>
<!-- Node1 -->
<g id="node1" class="node"><title>Node1</title>
<polygon fill="#bfbfbf" stroke="black" points="0.5,-0 0.5,-30 187.5,-30 187.5,-0 0.5,-0"/>
<text text-anchor="start" x="8.5" y="-18" font-family="Helvetica,sans-Serif" font-size="10.00">worldController.WorldController.draw</text>
<text text-anchor="middle" x="94" y="-7" font-family="Helvetica,sans-Serif" font-size="10.00">Turtle</text>
</g>
<!-- Node2 -->
<g id="node2" class="node"><title>Node2</title>
<g id="a_node2"><a xlink:href="../../d8/d08/classworld_controller_1_1_world_controller.html#a178425d68e3e669c386706153ce44999" target="_top" xlink:title="worldController.WorldController.update">
<polygon fill="white" stroke="black" points="224,-5.5 224,-24.5 422,-24.5 422,-5.5 224,-5.5"/>
<text text-anchor="middle" x="323" y="-12.5" font-family="Helvetica,sans-Serif" font-size="10.00">worldController.WorldController.update</text>
</a>
</g>
</g>
<!-- Node1&#45;&gt;Node2 -->
<g id="edge1" class="edge"><title>Node1&#45;&gt;Node2</title>
<path fill="none" stroke="midnightblue" d="M197.753,-15C206.397,-15 215.125,-15 223.733,-15"/>
<polygon fill="midnightblue" stroke="midnightblue" points="197.657,-11.5001 187.657,-15 197.657,-18.5001 197.657,-11.5001"/>
</g>
<!-- Node3 -->
<g id="node3" class="node"><title>Node3</title>
<g id="a_node3"><a xlink:href="../../d0/d7c/classuser_interface_1_1_u_i.html#ab17592b00ba0b808f524b4fc223303ec" target="_top" xlink:title="userInterface.UI.runCommand">
<polygon fill="white" stroke="black" points="458.5,-5.5 458.5,-24.5 619.5,-24.5 619.5,-5.5 458.5,-5.5"/>
<text text-anchor="middle" x="539" y="-12.5" font-family="Helvetica,sans-Serif" font-size="10.00">userInterface.UI.runCommand</text>
</a>
</g>
</g>
<!-- Node2&#45;&gt;Node3 -->
<g id="edge2" class="edge"><title>Node2&#45;&gt;Node3</title>
<path fill="none" stroke="midnightblue" d="M432.451,-15C441.164,-15 449.863,-15 458.319,-15"/>
<polygon fill="midnightblue" stroke="midnightblue" points="432.231,-11.5001 422.231,-15 432.231,-18.5001 432.231,-11.5001"/>
</g>
<!-- Node4 -->
<g id="node4" class="node"><title>Node4</title>
<g id="a_node4"><a xlink:href="../../d0/d7c/classuser_interface_1_1_u_i.html#a02bd34909b5d6037ea8ebe812879b90a" target="_top" xlink:title="userInterface.UI.makeRun\lButton">
<polygon fill="white" stroke="black" points="656,-0 656,-30 796,-30 796,-0 656,-0"/>
<text text-anchor="start" x="664" y="-18" font-family="Helvetica,sans-Serif" font-size="10.00">userInterface.UI.makeRun</text>
<text text-anchor="middle" x="726" y="-7" font-family="Helvetica,sans-Serif" font-size="10.00">Button</text>
</a>
</g>
</g>
<!-- Node3&#45;&gt;Node4 -->
<g id="edge3" class="edge"><title>Node3&#45;&gt;Node4</title>
<path fill="none" stroke="midnightblue" d="M629.746,-15C638.477,-15 647.241,-15 655.726,-15"/>
<polygon fill="midnightblue" stroke="midnightblue" points="629.53,-11.5001 619.53,-15 629.53,-18.5001 629.53,-11.5001"/>
</g>
<!-- Node5 -->
<g id="node5" class="node"><title>Node5</title>
<g id="a_node5"><a xlink:href="../../d0/d7c/classuser_interface_1_1_u_i.html#a9f7eaa121e1405b45e262f03859f9ff0" target="_top" xlink:title="userInterface.UI.setUpCommand\lField">
<polygon fill="white" stroke="black" points="832,-0 832,-30 1006,-30 1006,-0 832,-0"/>
<text text-anchor="start" x="840" y="-18" font-family="Helvetica,sans-Serif" font-size="10.00">userInterface.UI.setUpCommand</text>
<text text-anchor="middle" x="919" y="-7" font-family="Helvetica,sans-Serif" font-size="10.00">Field</text>
</a>
</g>
</g>
<!-- Node4&#45;&gt;Node5 -->
<g id="edge4" class="edge"><title>Node4&#45;&gt;Node5</title>
<path fill="none" stroke="midnightblue" d="M806.345,-15C814.726,-15 823.277,-15 831.731,-15"/>
<polygon fill="midnightblue" stroke="midnightblue" points="806.225,-11.5001 796.225,-15 806.225,-18.5001 806.225,-11.5001"/>
</g>
<!-- Node6 -->
<g id="node6" class="node"><title>Node6</title>
<g id="a_node6"><a xlink:href="../../d0/d7c/classuser_interface_1_1_u_i.html#a8b1a665c129df3827e48e2739afe870d" target="_top" xlink:title="userInterface.UI.initialize">
<polygon fill="white" stroke="black" points="1042,-5.5 1042,-24.5 1176,-24.5 1176,-5.5 1042,-5.5"/>
<text text-anchor="middle" x="1109" y="-12.5" font-family="Helvetica,sans-Serif" font-size="10.00">userInterface.UI.initialize</text>
</a>
</g>
</g>
<!-- Node5&#45;&gt;Node6 -->
<g id="edge5" class="edge"><title>Node5&#45;&gt;Node6</title>
<path fill="none" stroke="midnightblue" d="M1016.16,-15C1024.8,-15 1033.42,-15 1041.72,-15"/>
<polygon fill="midnightblue" stroke="midnightblue" points="1016.02,-11.5001 1006.02,-15 1016.02,-18.5001 1016.02,-11.5001"/>
</g>
<!-- Node7 -->
<g id="node7" class="node"><title>Node7</title>
<g id="a_node7"><a xlink:href="../../d0/d7c/classuser_interface_1_1_u_i.html#a378fe4fa2136ee8c5196e86189c0d484" target="_top" xlink:title="userInterface.UI.UI">
<polygon fill="white" stroke="black" points="1212.5,-5.5 1212.5,-24.5 1317.5,-24.5 1317.5,-5.5 1212.5,-5.5"/>
<text text-anchor="middle" x="1265" y="-12.5" font-family="Helvetica,sans-Serif" font-size="10.00">userInterface.UI.UI</text>
</a>
</g>
</g>
<!-- Node6&#45;&gt;Node7 -->
<g id="edge6" class="edge"><title>Node6&#45;&gt;Node7</title>
<path fill="none" stroke="midnightblue" d="M1186.44,-15C1195.19,-15 1203.95,-15 1212.27,-15"/>
<polygon fill="midnightblue" stroke="midnightblue" points="1186.2,-11.5001 1176.2,-15 1186.2,-18.5001 1186.2,-11.5001"/>
</g>
</g>
</svg>
