<?xml version="1.0" encoding="UTF-8" standalone="no"?>
<!DOCTYPE svg PUBLIC "-//W3C//DTD SVG 1.1//EN"
 "http://www.w3.org/Graphics/SVG/1.1/DTD/svg11.dtd">
<!-- Generated by graphviz version 2.36.0 (20140111.2315)
 -->
<!-- Title: worldController.WorldController.WorldController Pages: 1 -->
<!--zoomable 459 -->
<svg id="main" version="1.1" xmlns="http://www.w3.org/2000/svg" xmlns:xlink="http://www.w3.org/1999/xlink" xml:space="preserve" onload="init(evt)">
<style type="text/css"><![CDATA[
.edge:hover path { stroke: red; }
.edge:hover polygon { stroke: red; fill: red; }
]]></style>
<script type="text/javascript"><![CDATA[
var edges = document.getElementsByTagName('g');
if (edges && edges.length) {
  for (var i=0;i<edges.length;i++) {
    if (edges[i].id.substr(0,4)=='edge') {
      edges[i].setAttribute('class','edge');
    }
  }
}
]]></script>
        <defs>
                <circle id="rim" cx="0" cy="0" r="7"/>
                <circle id="rim2" cx="0" cy="0" r="3.5"/>
                <g id="zoomPlus">
                        <use xlink:href="#rim" fill="#404040">
                                <set attributeName="fill" to="#808080" begin="zoomplus.mouseover" end="zoomplus.mouseout"/>
                        </use>
                        <path d="M-4,0h8M0,-4v8" fill="none" stroke="white" stroke-width="1.5" pointer-events="none"/>
                </g>
                <g id="zoomMin">
                        <use xlink:href="#rim" fill="#404040">
                                <set attributeName="fill" to="#808080" begin="zoomminus.mouseover" end="zoomminus.mouseout"/>
                        </use>
                        <path d="M-4,0h8" fill="none" stroke="white" stroke-width="1.5" pointer-events="none"/>
                </g>
                <g id="dirArrow">
                        <path fill="none" stroke="white" stroke-width="1.5" d="M0,-3.0v7 M-2.5,-0.5L0,-3.0L2.5,-0.5"/>
                </g>
               <g id="resetDef">
                       <use xlink:href="#rim2" fill="#404040">
                               <set attributeName="fill" to="#808080" begin="reset.mouseover" end="reset.mouseout"/>
                       </use>
               </g>
        </defs>

<script type="text/javascript">
var viewWidth = 1126;
var viewHeight = 459;
var sectionId = 'dynsection-1';
</script>
<script xlink:href="../../svgpan.js"/>
<svg id="graph" class="graph">
<g id="viewport">
<title>worldController.WorldController.WorldController</title>
<polygon fill="white" stroke="none" points="-4,4 -4,-455 1122,-455 1122,4 -4,4"/>
<!-- Node1 -->
<g id="node1" class="node"><title>Node1</title>
<polygon fill="#bfbfbf" stroke="black" points="0,-232 0,-262 164,-262 164,-232 0,-232"/>
<text text-anchor="start" x="8" y="-250" font-family="Helvetica,sans-Serif" font-size="10.00">worldController.WorldController.</text>
<text text-anchor="middle" x="82" y="-239" font-family="Helvetica,sans-Serif" font-size="10.00">WorldController</text>
</g>
<!-- Node2 -->
<g id="node2" class="node"><title>Node2</title>
<g id="a_node2"><a xlink:href="../../d0/d7c/classuser_interface_1_1_u_i.html#ab49b650fd622f1fd78ab068ea036cfaa" target="_top" xlink:title="userInterface.UI.getCanvas">
<polygon fill="white" stroke="black" points="223,-431.5 223,-450.5 369,-450.5 369,-431.5 223,-431.5"/>
<text text-anchor="middle" x="296" y="-438.5" font-family="Helvetica,sans-Serif" font-size="10.00">userInterface.UI.getCanvas</text>
</a>
</g>
</g>
<!-- Node1&#45;&gt;Node2 -->
<g id="edge1" class="edge"><title>Node1&#45;&gt;Node2</title>
<path fill="none" stroke="midnightblue" d="M88.4253,-262.107C101.635,-296.571 138.937,-381.165 200,-422 204.068,-424.72 208.438,-427.068 212.989,-429.092"/>
<polygon fill="midnightblue" stroke="midnightblue" points="211.958,-432.446 222.547,-432.808 214.495,-425.922 211.958,-432.446"/>
</g>
<!-- Node3 -->
<g id="node3" class="node"><title>Node3</title>
<g id="a_node3"><a xlink:href="../../d0/d7c/classuser_interface_1_1_u_i.html#ae4b4f47652558adc7f2a3b35cb03b0c5" target="_top" xlink:title="userInterface.UI.getGraphics">
<polygon fill="white" stroke="black" points="219.5,-393.5 219.5,-412.5 372.5,-412.5 372.5,-393.5 219.5,-393.5"/>
<text text-anchor="middle" x="296" y="-400.5" font-family="Helvetica,sans-Serif" font-size="10.00">userInterface.UI.getGraphics</text>
</a>
</g>
</g>
<!-- Node1&#45;&gt;Node3 -->
<g id="edge2" class="edge"><title>Node1&#45;&gt;Node3</title>
<path fill="none" stroke="midnightblue" d="M91.3683,-262.097C108.032,-290.644 148.255,-352.408 200,-383 204.509,-385.666 209.323,-387.979 214.302,-389.986"/>
<polygon fill="midnightblue" stroke="midnightblue" points="213.449,-393.398 224.044,-393.481 215.813,-386.809 213.449,-393.398"/>
</g>
<!-- Node4 -->
<g id="node4" class="node"><title>Node4</title>
<g id="a_node4"><a xlink:href="../../dc/d1b/classuser_interface_1_1_left_panel.html#a8b31bed29bdfa95820342c6d3facc020" target="_top" xlink:title="userInterface.LeftPanel.get\lInstance">
<polygon fill="white" stroke="black" points="223.5,-344 223.5,-374 368.5,-374 368.5,-344 223.5,-344"/>
<text text-anchor="start" x="231.5" y="-362" font-family="Helvetica,sans-Serif" font-size="10.00">userInterface.LeftPanel.get</text>
<text text-anchor="middle" x="296" y="-351" font-family="Helvetica,sans-Serif" font-size="10.00">Instance</text>
</a>
</g>
</g>
<!-- Node1&#45;&gt;Node4 -->
<g id="edge3" class="edge"><title>Node1&#45;&gt;Node4</title>
<path fill="none" stroke="midnightblue" d="M99.1056,-262.184C120.522,-281.577 160.309,-314.908 200,-334 204.995,-336.403 210.253,-338.598 215.626,-340.601"/>
<polygon fill="midnightblue" stroke="midnightblue" points="214.797,-344.018 225.391,-343.999 217.097,-337.407 214.797,-344.018"/>
</g>
<!-- Node6 -->
<g id="node6" class="node"><title>Node6</title>
<g id="a_node6"><a xlink:href="../../de/df4/classuser_interface_1_1_right_panel.html#a458f970045d0dde26df4c9c4c1085fb7" target="_top" xlink:title="userInterface.RightPanel.get\lInstance">
<polygon fill="white" stroke="black" points="220.5,-295 220.5,-325 371.5,-325 371.5,-295 220.5,-295"/>
<text text-anchor="start" x="228.5" y="-313" font-family="Helvetica,sans-Serif" font-size="10.00">userInterface.RightPanel.get</text>
<text text-anchor="middle" x="296" y="-302" font-family="Helvetica,sans-Serif" font-size="10.00">Instance</text>
</a>
</g>
</g>
<!-- Node1&#45;&gt;Node6 -->
<g id="edge5" class="edge"><title>Node1&#45;&gt;Node6</title>
<path fill="none" stroke="midnightblue" d="M127.262,-262.031C149.073,-269.27 175.82,-277.898 200,-285 208.382,-287.462 217.213,-289.939 225.977,-292.328"/>
<polygon fill="midnightblue" stroke="midnightblue" points="225.251,-295.757 235.818,-294.981 227.074,-288.998 225.251,-295.757"/>
</g>
<!-- Node8 -->
<g id="node8" class="node"><title>Node8</title>
<g id="a_node8"><a xlink:href="../../d0/d7c/classuser_interface_1_1_u_i.html#a27f69068b0d48aef3a5d91fa62b39059" target="_top" xlink:title="userInterface.UI.getPane">
<polygon fill="white" stroke="black" points="229,-256.5 229,-275.5 363,-275.5 363,-256.5 229,-256.5"/>
<text text-anchor="middle" x="296" y="-263.5" font-family="Helvetica,sans-Serif" font-size="10.00">userInterface.UI.getPane</text>
</a>
</g>
</g>
<!-- Node1&#45;&gt;Node8 -->
<g id="edge7" class="edge"><title>Node1&#45;&gt;Node8</title>
<path fill="none" stroke="midnightblue" d="M164.056,-254.264C181.937,-255.867 200.823,-257.56 218.516,-259.145"/>
<polygon fill="midnightblue" stroke="midnightblue" points="218.507,-262.658 228.78,-260.065 219.132,-255.686 218.507,-262.658"/>
</g>
<!-- Node9 -->
<g id="node9" class="node"><title>Node9</title>
<g id="a_node9"><a xlink:href="../../d9/dd0/classworld_1_1_world.html#a62bc519b46f0fd04af93a8a12d38f2f9" target="_top" xlink:title="world.World.getTurtle">
<polygon fill="white" stroke="black" points="239,-218.5 239,-237.5 353,-237.5 353,-218.5 239,-218.5"/>
<text text-anchor="middle" x="296" y="-225.5" font-family="Helvetica,sans-Serif" font-size="10.00">world.World.getTurtle</text>
</a>
</g>
</g>
<!-- Node1&#45;&gt;Node9 -->
<g id="edge8" class="edge"><title>Node1&#45;&gt;Node9</title>
<path fill="none" stroke="midnightblue" d="M164.056,-239.736C185.455,-237.818 208.292,-235.771 228.803,-233.933"/>
<polygon fill="midnightblue" stroke="midnightblue" points="229.334,-237.399 238.982,-233.02 228.71,-230.427 229.334,-237.399"/>
</g>
<!-- Node10 -->
<g id="node10" class="node"><title>Node10</title>
<g id="a_node10"><a xlink:href="../../dc/d1b/classuser_interface_1_1_left_panel.html#a06bc8c838ae46046bc0a78fceb224387" target="_top" xlink:title="userInterface.LeftPanel.initialize">
<polygon fill="white" stroke="black" points="212.5,-180.5 212.5,-199.5 379.5,-199.5 379.5,-180.5 212.5,-180.5"/>
<text text-anchor="middle" x="296" y="-187.5" font-family="Helvetica,sans-Serif" font-size="10.00">userInterface.LeftPanel.initialize</text>
</a>
</g>
</g>
<!-- Node1&#45;&gt;Node10 -->
<g id="edge9" class="edge"><title>Node1&#45;&gt;Node10</title>
<path fill="none" stroke="midnightblue" d="M125.163,-231.989C147.265,-224.456 174.895,-215.563 200,-209 210.112,-206.356 220.912,-203.877 231.471,-201.637"/>
<polygon fill="midnightblue" stroke="midnightblue" points="232.406,-205.018 241.49,-199.566 230.989,-198.163 232.406,-205.018"/>
</g>
<!-- Node11 -->
<g id="node11" class="node"><title>Node11</title>
<g id="a_node11"><a xlink:href="../../de/df4/classuser_interface_1_1_right_panel.html#ab0a81e4ee0122226fc3181d25e9c19f8" target="_top" xlink:title="userInterface.RightPanel.initialize">
<polygon fill="white" stroke="black" points="209.5,-142.5 209.5,-161.5 382.5,-161.5 382.5,-142.5 209.5,-142.5"/>
<text text-anchor="middle" x="296" y="-149.5" font-family="Helvetica,sans-Serif" font-size="10.00">userInterface.RightPanel.initialize</text>
</a>
</g>
</g>
<!-- Node1&#45;&gt;Node11 -->
<g id="edge10" class="edge"><title>Node1&#45;&gt;Node11</title>
<path fill="none" stroke="midnightblue" d="M101.218,-231.983C123.243,-214.615 162.089,-186.439 200,-171 206.384,-168.4 213.159,-166.146 220.036,-164.193"/>
<polygon fill="midnightblue" stroke="midnightblue" points="221.365,-167.463 230.151,-161.542 219.591,-160.691 221.365,-167.463"/>
</g>
<!-- Node13 -->
<g id="node13" class="node"><title>Node13</title>
<g id="a_node13"><a xlink:href="../../d8/d08/classworld_controller_1_1_world_controller.html#a338b2d907598a400b7cbcfbb86550a71" target="_top" xlink:title="worldController.WorldController.make\lTimeline">
<polygon fill="white" stroke="black" points="200.5,-93 200.5,-123 391.5,-123 391.5,-93 200.5,-93"/>
<text text-anchor="start" x="208.5" y="-111" font-family="Helvetica,sans-Serif" font-size="10.00">worldController.WorldController.make</text>
<text text-anchor="middle" x="296" y="-100" font-family="Helvetica,sans-Serif" font-size="10.00">Timeline</text>
</a>
</g>
</g>
<!-- Node1&#45;&gt;Node13 -->
<g id="edge12" class="edge"><title>Node1&#45;&gt;Node13</title>
<path fill="none" stroke="midnightblue" d="M94.1615,-231.917C113.129,-207.385 154.088,-158.975 200,-133 203.947,-130.767 208.1,-128.728 212.372,-126.866"/>
<polygon fill="midnightblue" stroke="midnightblue" points="213.894,-130.028 221.884,-123.07 211.299,-123.526 213.894,-130.028"/>
</g>
<!-- Node22 -->
<g id="node22" class="node"><title>Node22</title>
<g id="a_node22"><a xlink:href="../../d8/d08/classworld_controller_1_1_world_controller.html#a99332ba84b85c298014578f9ae762aa5" target="_top" xlink:title="worldController.WorldController.set\lUpBindings">
<polygon fill="white" stroke="black" points="206.5,-44 206.5,-74 385.5,-74 385.5,-44 206.5,-44"/>
<text text-anchor="start" x="214.5" y="-62" font-family="Helvetica,sans-Serif" font-size="10.00">worldController.WorldController.set</text>
<text text-anchor="middle" x="296" y="-51" font-family="Helvetica,sans-Serif" font-size="10.00">UpBindings</text>
</a>
</g>
</g>
<!-- Node1&#45;&gt;Node22 -->
<g id="edge22" class="edge"><title>Node1&#45;&gt;Node22</title>
<path fill="none" stroke="midnightblue" d="M89.5465,-231.712C104.265,-199.226 143.184,-123.102 200,-84 202.898,-82.0058 205.945,-80.1707 209.099,-78.4819"/>
<polygon fill="midnightblue" stroke="midnightblue" points="210.732,-81.5803 218.235,-74.0997 207.705,-75.2688 210.732,-81.5803"/>
</g>
<!-- Node5 -->
<g id="node5" class="node"><title>Node5</title>
<g id="a_node5"><a xlink:href="../../dc/d1b/classuser_interface_1_1_left_panel.html#a0fcdcf8b427a868a7069ac627eea1b43" target="_top" xlink:title="userInterface.LeftPanel.\lLeftPanel">
<polygon fill="white" stroke="black" points="459.5,-344 459.5,-374 588.5,-374 588.5,-344 459.5,-344"/>
<text text-anchor="start" x="467.5" y="-362" font-family="Helvetica,sans-Serif" font-size="10.00">userInterface.LeftPanel.</text>
<text text-anchor="middle" x="524" y="-351" font-family="Helvetica,sans-Serif" font-size="10.00">LeftPanel</text>
</a>
</g>
</g>
<!-- Node4&#45;&gt;Node5 -->
<g id="edge4" class="edge"><title>Node4&#45;&gt;Node5</title>
<path fill="none" stroke="midnightblue" d="M368.508,-359C394.195,-359 423.203,-359 449.09,-359"/>
<polygon fill="midnightblue" stroke="midnightblue" points="449.219,-362.5 459.219,-359 449.219,-355.5 449.219,-362.5"/>
</g>
<!-- Node7 -->
<g id="node7" class="node"><title>Node7</title>
<g id="a_node7"><a xlink:href="../../de/df4/classuser_interface_1_1_right_panel.html#a444679df7a56d1cfea2ed417f0ed4f7d" target="_top" xlink:title="userInterface.RightPanel.\lRightPanel">
<polygon fill="white" stroke="black" points="456.5,-295 456.5,-325 591.5,-325 591.5,-295 456.5,-295"/>
<text text-anchor="start" x="464.5" y="-313" font-family="Helvetica,sans-Serif" font-size="10.00">userInterface.RightPanel.</text>
<text text-anchor="middle" x="524" y="-302" font-family="Helvetica,sans-Serif" font-size="10.00">RightPanel</text>
</a>
</g>
</g>
<!-- Node6&#45;&gt;Node7 -->
<g id="edge6" class="edge"><title>Node6&#45;&gt;Node7</title>
<path fill="none" stroke="midnightblue" d="M371.627,-310C395.59,-310 422.165,-310 446.275,-310"/>
<polygon fill="midnightblue" stroke="midnightblue" points="446.442,-313.5 456.442,-310 446.442,-306.5 446.442,-313.5"/>
</g>
<!-- Node12 -->
<g id="node12" class="node"><title>Node12</title>
<g id="a_node12"><a xlink:href="../../de/df4/classuser_interface_1_1_right_panel.html#a8b7803fd8d910ad0d0d9adc4735cac54" target="_top" xlink:title="userInterface.RightPanel.make\lListView">
<polygon fill="white" stroke="black" points="443,-139 443,-169 605,-169 605,-139 443,-139"/>
<text text-anchor="start" x="451" y="-157" font-family="Helvetica,sans-Serif" font-size="10.00">userInterface.RightPanel.make</text>
<text text-anchor="middle" x="524" y="-146" font-family="Helvetica,sans-Serif" font-size="10.00">ListView</text>
</a>
</g>
</g>
<!-- Node11&#45;&gt;Node12 -->
<g id="edge11" class="edge"><title>Node11&#45;&gt;Node12</title>
<path fill="none" stroke="midnightblue" d="M382.763,-152.759C399.102,-152.904 416.248,-153.055 432.722,-153.201"/>
<polygon fill="midnightblue" stroke="midnightblue" points="432.849,-156.702 442.88,-153.291 432.911,-149.703 432.849,-156.702"/>
</g>
<!-- Node14 -->
<g id="node14" class="node"><title>Node14</title>
<g id="a_node14"><a xlink:href="../../d8/d08/classworld_controller_1_1_world_controller.html#a6158b4b98f36224f3e871c8a164a0137" target="_top" xlink:title="worldController.WorldController.make\lKeyFrame">
<polygon fill="white" stroke="black" points="428.5,-90 428.5,-120 619.5,-120 619.5,-90 428.5,-90"/>
<text text-anchor="start" x="436.5" y="-108" font-family="Helvetica,sans-Serif" font-size="10.00">worldController.WorldController.make</text>
<text text-anchor="middle" x="524" y="-97" font-family="Helvetica,sans-Serif" font-size="10.00">KeyFrame</text>
</a>
</g>
</g>
<!-- Node13&#45;&gt;Node14 -->
<g id="edge13" class="edge"><title>Node13&#45;&gt;Node14</title>
<path fill="none" stroke="midnightblue" d="M391.535,-106.745C400.411,-106.627 409.443,-106.507 418.405,-106.388"/>
<polygon fill="midnightblue" stroke="midnightblue" points="418.528,-109.887 428.48,-106.255 418.435,-102.888 418.528,-109.887"/>
</g>
<!-- Node15 -->
<g id="node15" class="node"><title>Node15</title>
<g id="a_node15"><a xlink:href="../../df/dcb/classturtle_1_1_turtle.html#a6e41524d115c16610b5765720df6e658" target="_top" xlink:title="turtle.Turtle.getCurrent">
<polygon fill="white" stroke="black" points="666.5,-152.5 666.5,-171.5 791.5,-171.5 791.5,-152.5 666.5,-152.5"/>
<text text-anchor="middle" x="729" y="-159.5" font-family="Helvetica,sans-Serif" font-size="10.00">turtle.Turtle.getCurrent</text>
</a>
</g>
</g>
<!-- Node14&#45;&gt;Node15 -->
<g id="edge14" class="edge"><title>Node14&#45;&gt;Node15</title>
<path fill="none" stroke="midnightblue" d="M585.538,-120.066C597.034,-123.171 608.927,-126.551 620,-130 636.242,-135.059 639.76,-137.936 656,-143 663.55,-145.354 671.602,-147.668 679.487,-149.827"/>
<polygon fill="midnightblue" stroke="midnightblue" points="678.767,-153.258 689.333,-152.469 680.582,-146.497 678.767,-153.258"/>
</g>
<!-- Node16 -->
<g id="node16" class="node"><title>Node16</title>
<g id="a_node16"><a xlink:href="../../df/dcb/classturtle_1_1_turtle.html#a568de9ba87ac973fb3987cb2782af97e" target="_top" xlink:title="turtle.Turtle.getGoal">
<polygon fill="white" stroke="black" points="673.5,-114.5 673.5,-133.5 784.5,-133.5 784.5,-114.5 673.5,-114.5"/>
<text text-anchor="middle" x="729" y="-121.5" font-family="Helvetica,sans-Serif" font-size="10.00">turtle.Turtle.getGoal</text>
</a>
</g>
</g>
<!-- Node14&#45;&gt;Node16 -->
<g id="edge15" class="edge"><title>Node14&#45;&gt;Node16</title>
<path fill="none" stroke="midnightblue" d="M619.665,-113.86C634.327,-115.233 649.18,-116.623 662.992,-117.916"/>
<polygon fill="midnightblue" stroke="midnightblue" points="663.049,-121.436 673.332,-118.883 663.701,-114.467 663.049,-121.436"/>
</g>
<!-- Node17 -->
<g id="node17" class="node"><title>Node17</title>
<g id="a_node17"><a xlink:href="../../df/dcb/classturtle_1_1_turtle.html#a7c0f37993844a70cdd57951ae4a916dd" target="_top" xlink:title="turtle.Turtle.animatedMove">
<polygon fill="white" stroke="black" points="656.5,-38.5 656.5,-57.5 801.5,-57.5 801.5,-38.5 656.5,-38.5"/>
<text text-anchor="middle" x="729" y="-45.5" font-family="Helvetica,sans-Serif" font-size="10.00">turtle.Turtle.animatedMove</text>
</a>
</g>
</g>
<!-- Node14&#45;&gt;Node17 -->
<g id="edge16" class="edge"><title>Node14&#45;&gt;Node17</title>
<path fill="none" stroke="midnightblue" d="M578.601,-89.9494C611.566,-80.6933 653.276,-68.9815 684.242,-60.2866"/>
<polygon fill="midnightblue" stroke="midnightblue" points="685.213,-63.6496 693.894,-57.5765 683.32,-56.9103 685.213,-63.6496"/>
</g>
<!-- Node18 -->
<g id="node18" class="node"><title>Node18</title>
<g id="a_node18"><a xlink:href="../../df/dcb/classturtle_1_1_turtle.html#a49bc6263dff19b97b012d9c2052e701d" target="_top" xlink:title="turtle.Turtle.findNextPoint">
<polygon fill="white" stroke="black" points="838.5,-76.5 838.5,-95.5 975.5,-95.5 975.5,-76.5 838.5,-76.5"/>
<text text-anchor="middle" x="907" y="-83.5" font-family="Helvetica,sans-Serif" font-size="10.00">turtle.Turtle.findNextPoint</text>
</a>
</g>
</g>
<!-- Node14&#45;&gt;Node18 -->
<g id="edge21" class="edge"><title>Node14&#45;&gt;Node18</title>
<path fill="none" stroke="midnightblue" d="M619.669,-100.279C683.94,-97.0738 767.89,-92.8874 828.249,-89.8774"/>
<polygon fill="midnightblue" stroke="midnightblue" points="828.666,-93.361 838.479,-89.3672 828.317,-86.3697 828.666,-93.361"/>
</g>
<!-- Node17&#45;&gt;Node18 -->
<g id="edge17" class="edge"><title>Node17&#45;&gt;Node18</title>
<path fill="none" stroke="midnightblue" d="M774.412,-57.589C797.951,-62.6713 827.057,-68.9554 851.905,-74.3203"/>
<polygon fill="midnightblue" stroke="midnightblue" points="851.394,-77.7906 861.907,-76.4799 852.871,-70.9482 851.394,-77.7906"/>
</g>
<!-- Node20 -->
<g id="node20" class="node"><title>Node20</title>
<g id="a_node20"><a xlink:href="../../df/dcb/classturtle_1_1_turtle.html#a42c672bc79ce607cef27b8f436cd938d" target="_top" xlink:title="turtle.Turtle.moveMyself">
<polygon fill="white" stroke="black" points="841.5,-38.5 841.5,-57.5 972.5,-57.5 972.5,-38.5 841.5,-38.5"/>
<text text-anchor="middle" x="907" y="-45.5" font-family="Helvetica,sans-Serif" font-size="10.00">turtle.Turtle.moveMyself</text>
</a>
</g>
</g>
<!-- Node17&#45;&gt;Node20 -->
<g id="edge19" class="edge"><title>Node17&#45;&gt;Node20</title>
<path fill="none" stroke="midnightblue" d="M801.586,-48C811.333,-48 821.359,-48 831.162,-48"/>
<polygon fill="midnightblue" stroke="midnightblue" points="831.276,-51.5001 841.276,-48 831.276,-44.5001 831.276,-51.5001"/>
</g>
<!-- Node21 -->
<g id="node21" class="node"><title>Node21</title>
<g id="a_node21"><a xlink:href="../../de/d57/classturtle_1_1_pen.html#a361f4e030646d953185a8afe94427ce2" target="_top" xlink:title="turtle.Pen.penReady">
<polygon fill="white" stroke="black" points="850.5,-0.5 850.5,-19.5 963.5,-19.5 963.5,-0.5 850.5,-0.5"/>
<text text-anchor="middle" x="907" y="-7.5" font-family="Helvetica,sans-Serif" font-size="10.00">turtle.Pen.penReady</text>
</a>
</g>
</g>
<!-- Node17&#45;&gt;Node21 -->
<g id="edge20" class="edge"><title>Node17&#45;&gt;Node21</title>
<path fill="none" stroke="midnightblue" d="M774.412,-38.411C797.951,-33.3287 827.057,-27.0446 851.905,-21.6797"/>
<polygon fill="midnightblue" stroke="midnightblue" points="852.871,-25.0518 861.907,-19.5201 851.394,-18.2094 852.871,-25.0518"/>
</g>
<!-- Node19 -->
<g id="node19" class="node"><title>Node19</title>
<g id="a_node19"><a xlink:href="../../df/dcb/classturtle_1_1_turtle.html#a8f637f9dba952c65541c47ca5ef5748b" target="_top" xlink:title="turtle.Turtle.atGoal">
<polygon fill="white" stroke="black" points="1012.5,-76.5 1012.5,-95.5 1117.5,-95.5 1117.5,-76.5 1012.5,-76.5"/>
<text text-anchor="middle" x="1065" y="-83.5" font-family="Helvetica,sans-Serif" font-size="10.00">turtle.Turtle.atGoal</text>
</a>
</g>
</g>
<!-- Node18&#45;&gt;Node19 -->
<g id="edge18" class="edge"><title>Node18&#45;&gt;Node19</title>
<path fill="none" stroke="midnightblue" d="M975.517,-86C984.394,-86 993.457,-86 1002.23,-86"/>
<polygon fill="midnightblue" stroke="midnightblue" points="1002.37,-89.5001 1012.37,-86 1002.37,-82.5001 1002.37,-89.5001"/>
</g>
</g>
</svg>
        <g id="navigator" transform="translate(0 0)" fill="#404254">
                <rect fill="#f2f5e9" fill-opacity="0.5" stroke="#606060" stroke-width=".5" x="0" y="0" width="60" height="60"/>
                <use id="zoomplus" xlink:href="#zoomPlus" x="17" y="9" onmousedown="handleZoom(evt,'in')"/>
                <use id="zoomminus" xlink:href="#zoomMin" x="42" y="9" onmousedown="handleZoom(evt,'out')"/>
                <use id="reset" xlink:href="#resetDef" x="30" y="36" onmousedown="handleReset()"/>
                <g id="arrowUp" xlink:href="#dirArrow" transform="translate(30 24)" onmousedown="handlePan(0,-1)">
                  <use xlink:href="#rim" fill="#404040">
                        <set attributeName="fill" to="#808080" begin="arrowUp.mouseover" end="arrowUp.mouseout"/>
                  </use>
                  <path fill="none" stroke="white" stroke-width="1.5" d="M0,-3.0v7 M-2.5,-0.5L0,-3.0L2.5,-0.5"/>
                </g>
                <g id="arrowRight" xlink:href="#dirArrow" transform="rotate(90) translate(36 -43)" onmousedown="handlePan(1,0)">
                  <use xlink:href="#rim" fill="#404040">
                        <set attributeName="fill" to="#808080" begin="arrowRight.mouseover" end="arrowRight.mouseout"/>
                  </use>
                  <path fill="none" stroke="white" stroke-width="1.5" d="M0,-3.0v7 M-2.5,-0.5L0,-3.0L2.5,-0.5"/>
                </g>
                <g id="arrowDown" xlink:href="#dirArrow" transform="rotate(180) translate(-30 -48)" onmousedown="handlePan(0,1)">
                  <use xlink:href="#rim" fill="#404040">
                        <set attributeName="fill" to="#808080" begin="arrowDown.mouseover" end="arrowDown.mouseout"/>
                  </use>
                  <path fill="none" stroke="white" stroke-width="1.5" d="M0,-3.0v7 M-2.5,-0.5L0,-3.0L2.5,-0.5"/>
                </g>
                <g id="arrowLeft" xlink:href="#dirArrow" transform="rotate(270) translate(-36 17)" onmousedown="handlePan(-1,0)">
                  <use xlink:href="#rim" fill="#404040">
                        <set attributeName="fill" to="#808080" begin="arrowLeft.mouseover" end="arrowLeft.mouseout"/>
                  </use>
                  <path fill="none" stroke="white" stroke-width="1.5" d="M0,-3.0v7 M-2.5,-0.5L0,-3.0L2.5,-0.5"/>
                </g>
        </g>
        <svg viewBox="0 0 15 15" width="100%" height="30px" preserveAspectRatio="xMaxYMin meet">
         <g id="arrow_out" transform="scale(0.3 0.3)">
          <a xlink:href="classworld_controller_1_1_world_controller_a2f1f4f6fa731a84b45d6e92813d8c941_cgraph_org.svg" target="_base">
           <rect id="button" ry="5" rx="5" y="6" x="6" height="38" width="38"
                fill="#f2f5e9" fill-opacity="0.5" stroke="#606060" stroke-width="1.0"/>
           <path id="arrow"
             d="M 11.500037,31.436501 C 11.940474,20.09759 22.043105,11.32322 32.158766,21.979434 L 37.068811,17.246167 C 37.068811,17.246167 37.088388,32 37.088388,32 L 22.160133,31.978069 C 22.160133,31.978069 26.997745,27.140456 26.997745,27.140456 C 18.528582,18.264221 13.291696,25.230495 11.500037,31.436501 z"
             style="fill:#404040;"/>
          </a>
         </g>
        </svg>
</svg>
