<?xml version="1.0" encoding="UTF-8" standalone="no"?>
<!DOCTYPE svg PUBLIC "-//W3C//DTD SVG 1.1//EN"
 "http://www.w3.org/Graphics/SVG/1.1/DTD/svg11.dtd">
<!-- Generated by graphviz version 2.36.0 (20140111.2315)
 -->
<!-- Title: parser.Parser Pages: 1 -->
<svg width="423pt" height="198pt"
 viewBox="0.00 0.00 423.00 198.00" xmlns="http://www.w3.org/2000/svg" xmlns:xlink="http://www.w3.org/1999/xlink">
<g id="graph0" class="graph" transform="scale(1 1) rotate(0) translate(4 194)">
<title>parser.Parser</title>
<polygon fill="white" stroke="none" points="-4,4 -4,-194 419,-194 419,4 -4,4"/>
<!-- Node1 -->
<g id="node1" class="node"><title>Node1</title>
<polygon fill="#bfbfbf" stroke="black" points="143,-0.5 143,-19.5 223,-19.5 223,-0.5 143,-0.5"/>
<text text-anchor="middle" x="183" y="-7.5" font-family="Helvetica,sans-Serif" font-size="10.00">parser.Parser</text>
</g>
<!-- Node2 -->
<g id="node2" class="node"><title>Node2</title>
<polygon fill="white" stroke="#bfbfbf" points="-0.5,-170.5 -0.5,-189.5 92.5,-189.5 92.5,-170.5 -0.5,-170.5"/>
<text text-anchor="middle" x="46" y="-177.5" font-family="Helvetica,sans-Serif" font-size="10.00">ResourceBundle</text>
</g>
<!-- Node2&#45;&gt;Node1 -->
<g id="edge1" class="edge"><title>Node2&#45;&gt;Node1</title>
<path fill="none" stroke="#9a32cd" stroke-dasharray="5,2" d="M37.3524,-161.057C28.3579,-139.541 17.6822,-103.229 34,-78 57.8756,-41.0857 107.462,-24.3106 142.872,-16.8199"/>
<polygon fill="#9a32cd" stroke="#9a32cd" points="34.2203,-162.626 41.5072,-170.317 40.6069,-159.76 34.2203,-162.626"/>
<text text-anchor="middle" x="67.5" y="-86.5" font-family="Helvetica,sans-Serif" font-size="10.00"> myResources</text>
</g>
<!-- Node3 -->
<g id="node3" class="node"><title>Node3</title>
<g id="a_node3"><a xlink:href="../../d5/d9c/classfactories_1_1_command_factory.html" target="_top" xlink:title="factories.CommandFactory">
<polygon fill="white" stroke="black" points="110,-79.5 110,-98.5 256,-98.5 256,-79.5 110,-79.5"/>
<text text-anchor="middle" x="183" y="-86.5" font-family="Helvetica,sans-Serif" font-size="10.00">factories.CommandFactory</text>
</a>
</g>
</g>
<!-- Node2&#45;&gt;Node3 -->
<g id="edge3" class="edge"><title>Node2&#45;&gt;Node3</title>
<path fill="none" stroke="#9a32cd" stroke-dasharray="5,2" d="M58.0173,-161.786C68.2983,-148.202 84.2232,-129.659 102,-118 115.313,-109.269 131.648,-102.945 146.152,-98.5413"/>
<polygon fill="#9a32cd" stroke="#9a32cd" points="54.9084,-160.109 51.848,-170.253 60.5658,-164.232 54.9084,-160.109"/>
<text text-anchor="middle" x="138" y="-143.5" font-family="Helvetica,sans-Serif" font-size="10.00"> syntax</text>
<text text-anchor="middle" x="138" y="-132.5" font-family="Helvetica,sans-Serif" font-size="10.00">paramMap</text>
<text text-anchor="middle" x="138" y="-121.5" font-family="Helvetica,sans-Serif" font-size="10.00">translationMap</text>
</g>
<!-- Node3&#45;&gt;Node1 -->
<g id="edge2" class="edge"><title>Node3&#45;&gt;Node1</title>
<path fill="none" stroke="#9a32cd" stroke-dasharray="5,2" d="M183,-69.3145C183,-53.5917 183,-31.8079 183,-19.8094"/>
<polygon fill="#9a32cd" stroke="#9a32cd" points="179.5,-69.4654 183,-79.4655 186.5,-69.4655 179.5,-69.4654"/>
<text text-anchor="middle" x="234.5" y="-46.5" font-family="Helvetica,sans-Serif" font-size="10.00"> myCommandFactory</text>
</g>
<!-- Node4 -->
<g id="node4" class="node"><title>Node4</title>
<polygon fill="white" stroke="#bfbfbf" points="130.5,-170.5 130.5,-189.5 219.5,-189.5 219.5,-170.5 130.5,-170.5"/>
<text text-anchor="middle" x="175" y="-177.5" font-family="Helvetica,sans-Serif" font-size="10.00">List&lt; Double &gt;</text>
</g>
<!-- Node4&#45;&gt;Node3 -->
<g id="edge4" class="edge"><title>Node4&#45;&gt;Node3</title>
<path fill="none" stroke="#9a32cd" stroke-dasharray="5,2" d="M176.676,-160.349C178.381,-141.383 180.948,-112.828 182.223,-98.6386"/>
<polygon fill="#9a32cd" stroke="#9a32cd" points="173.176,-160.193 175.767,-170.466 180.148,-160.82 173.176,-160.193"/>
<text text-anchor="middle" x="213" y="-143.5" font-family="Helvetica,sans-Serif" font-size="10.00"> trueParams</text>
<text text-anchor="middle" x="213" y="-132.5" font-family="Helvetica,sans-Serif" font-size="10.00">homeParams</text>
<text text-anchor="middle" x="213" y="-121.5" font-family="Helvetica,sans-Serif" font-size="10.00">falseParams</text>
</g>
<!-- Node5 -->
<g id="node5" class="node"><title>Node5</title>
<polygon fill="white" stroke="#bfbfbf" points="238,-170.5 238,-189.5 366,-189.5 366,-170.5 238,-170.5"/>
<text text-anchor="middle" x="302" y="-177.5" font-family="Helvetica,sans-Serif" font-size="10.00">Map&lt; String, Double &gt;</text>
</g>
<!-- Node5&#45;&gt;Node3 -->
<g id="edge5" class="edge"><title>Node5&#45;&gt;Node3</title>
<path fill="none" stroke="#9a32cd" stroke-dasharray="5,2" d="M290.604,-162.073C280.862,-148.655 265.783,-130.194 249,-118 237.521,-109.659 223.177,-103.195 210.797,-98.589"/>
<polygon fill="#9a32cd" stroke="#9a32cd" points="287.847,-164.237 296.453,-170.418 293.58,-160.22 287.847,-164.237"/>
<text text-anchor="middle" x="306" y="-132.5" font-family="Helvetica,sans-Serif" font-size="10.00"> variables</text>
</g>
<!-- Node6 -->
<g id="node6" class="node"><title>Node6</title>
<g id="a_node6"><a xlink:href="../../d3/dcc/classparser_1_1_node.html" target="_top" xlink:title="parser.Node">
<polygon fill="white" stroke="black" points="274.5,-79.5 274.5,-98.5 349.5,-98.5 349.5,-79.5 274.5,-79.5"/>
<text text-anchor="middle" x="312" y="-86.5" font-family="Helvetica,sans-Serif" font-size="10.00">parser.Node</text>
</a>
</g>
</g>
<!-- Node6&#45;&gt;Node1 -->
<g id="edge6" class="edge"><title>Node6&#45;&gt;Node1</title>
<path fill="none" stroke="#9a32cd" stroke-dasharray="5,2" d="M307.353,-69.4815C303.758,-58.8113 297.711,-45.974 288,-38 269.817,-23.0694 244.357,-16.2822 223.061,-13.2455"/>
<polygon fill="#9a32cd" stroke="#9a32cd" points="304.018,-70.5472 310.176,-79.1689 310.739,-68.5891 304.018,-70.5472"/>
<text text-anchor="middle" x="330" y="-52" font-family="Helvetica,sans-Serif" font-size="10.00"> myTree</text>
<text text-anchor="middle" x="330" y="-41" font-family="Helvetica,sans-Serif" font-size="10.00">myListTree</text>
</g>
<!-- Node6&#45;&gt;Node6 -->
<g id="edge7" class="edge"><title>Node6&#45;&gt;Node6</title>
<path fill="none" stroke="#9a32cd" stroke-dasharray="5,2" d="M359.771,-94.9964C364.204,-93.76 367,-91.7612 367,-89 367,-84.4688 359.472,-81.9907 349.532,-81.5659"/>
<polygon fill="#9a32cd" stroke="#9a32cd" points="358.948,-91.5776 349.532,-96.4341 359.921,-98.5096 358.948,-91.5776"/>
<text text-anchor="middle" x="391" y="-92" font-family="Helvetica,sans-Serif" font-size="10.00"> myChild1</text>
<text text-anchor="middle" x="391" y="-81" font-family="Helvetica,sans-Serif" font-size="10.00">myChild2</text>
</g>
</g>
</svg>
