<?xml version="1.0" encoding="UTF-8" standalone="no"?>
<!DOCTYPE svg PUBLIC "-//W3C//DTD SVG 1.1//EN"
 "http://www.w3.org/Graphics/SVG/1.1/DTD/svg11.dtd">
<!-- Generated by graphviz version 2.36.0 (20140111.2315)
 -->
<!-- Title: parser.Parser Pages: 1 -->
<svg width="434pt" height="198pt"
 viewBox="0.00 0.00 434.00 198.00" xmlns="http://www.w3.org/2000/svg" xmlns:xlink="http://www.w3.org/1999/xlink">
<g id="graph0" class="graph" transform="scale(1 1) rotate(0) translate(4 194)">
<title>parser.Parser</title>
<polygon fill="white" stroke="none" points="-4,4 -4,-194 430,-194 430,4 -4,4"/>
<!-- Node1 -->
<g id="node1" class="node"><title>Node1</title>
<polygon fill="#bfbfbf" stroke="black" points="151,-0.5 151,-19.5 231,-19.5 231,-0.5 151,-0.5"/>
<text text-anchor="middle" x="191" y="-7.5" font-family="Helvetica,sans-Serif" font-size="10.00">parser.Parser</text>
</g>
<!-- Node2 -->
<g id="node2" class="node"><title>Node2</title>
<g id="a_node2"><a xlink:href="../../d9/d1b/classcommand_1_1_command_factory.html" target="_top" xlink:title="command.CommandFactory">
<polygon fill="white" stroke="black" points="114.5,-79.5 114.5,-98.5 267.5,-98.5 267.5,-79.5 114.5,-79.5"/>
<text text-anchor="middle" x="191" y="-86.5" font-family="Helvetica,sans-Serif" font-size="10.00">command.CommandFactory</text>
</a>
</g>
</g>
<!-- Node2&#45;&gt;Node1 -->
<g id="edge1" class="edge"><title>Node2&#45;&gt;Node1</title>
<path fill="none" stroke="#9a32cd" stroke-dasharray="5,2" d="M191,-69.3145C191,-53.5917 191,-31.8079 191,-19.8094"/>
<polygon fill="#9a32cd" stroke="#9a32cd" points="187.5,-69.4654 191,-79.4655 194.5,-69.4655 187.5,-69.4654"/>
<text text-anchor="middle" x="242.5" y="-46.5" font-family="Helvetica,sans-Serif" font-size="10.00"> myCommandFactory</text>
</g>
<!-- Node3 -->
<g id="node3" class="node"><title>Node3</title>
<polygon fill="white" stroke="#bfbfbf" points="-0.5,-170.5 -0.5,-189.5 92.5,-189.5 92.5,-170.5 -0.5,-170.5"/>
<text text-anchor="middle" x="46" y="-177.5" font-family="Helvetica,sans-Serif" font-size="10.00">ResourceBundle</text>
</g>
<!-- Node3&#45;&gt;Node1 -->
<g id="edge4" class="edge"><title>Node3&#45;&gt;Node1</title>
<path fill="none" stroke="#9a32cd" stroke-dasharray="5,2" d="M38.273,-160.701C30.4698,-139.091 21.6967,-102.937 38,-78 62.833,-40.0158 114.483,-23.4338 150.882,-16.2821"/>
<polygon fill="#9a32cd" stroke="#9a32cd" points="35.1187,-162.246 42.0194,-170.285 41.6383,-159.697 35.1187,-162.246"/>
<text text-anchor="middle" x="71.5" y="-86.5" font-family="Helvetica,sans-Serif" font-size="10.00"> myResources</text>
</g>
<!-- Node3&#45;&gt;Node2 -->
<g id="edge2" class="edge"><title>Node3&#45;&gt;Node2</title>
<path fill="none" stroke="#9a32cd" stroke-dasharray="5,2" d="M60.9141,-162.805C74.0665,-149.309 94.3113,-130.358 115,-118 128.882,-109.707 145.629,-103.215 159.865,-98.5786"/>
<polygon fill="#9a32cd" stroke="#9a32cd" points="58.0519,-160.736 53.7008,-170.397 63.1264,-165.558 58.0519,-160.736"/>
<text text-anchor="middle" x="151" y="-143.5" font-family="Helvetica,sans-Serif" font-size="10.00"> syntax</text>
<text text-anchor="middle" x="151" y="-132.5" font-family="Helvetica,sans-Serif" font-size="10.00">paramMap</text>
<text text-anchor="middle" x="151" y="-121.5" font-family="Helvetica,sans-Serif" font-size="10.00">translationMap</text>
</g>
<!-- Node4 -->
<g id="node4" class="node"><title>Node4</title>
<polygon fill="white" stroke="#bfbfbf" points="127,-170.5 127,-189.5 255,-189.5 255,-170.5 127,-170.5"/>
<text text-anchor="middle" x="191" y="-177.5" font-family="Helvetica,sans-Serif" font-size="10.00">Map&lt; String, Double &gt;</text>
</g>
<!-- Node4&#45;&gt;Node2 -->
<g id="edge3" class="edge"><title>Node4&#45;&gt;Node2</title>
<path fill="none" stroke="#9a32cd" stroke-dasharray="5,2" d="M191,-160.349C191,-141.383 191,-112.828 191,-98.6386"/>
<polygon fill="#9a32cd" stroke="#9a32cd" points="187.5,-160.466 191,-170.466 194.5,-160.466 187.5,-160.466"/>
<text text-anchor="middle" x="214" y="-132.5" font-family="Helvetica,sans-Serif" font-size="10.00"> variables</text>
</g>
<!-- Node5 -->
<g id="node5" class="node"><title>Node5</title>
<g id="a_node5"><a xlink:href="../../d3/dcc/classparser_1_1_node.html" target="_top" xlink:title="parser.Node">
<polygon fill="white" stroke="black" points="285.5,-79.5 285.5,-98.5 360.5,-98.5 360.5,-79.5 285.5,-79.5"/>
<text text-anchor="middle" x="323" y="-86.5" font-family="Helvetica,sans-Serif" font-size="10.00">parser.Node</text>
</a>
</g>
</g>
<!-- Node5&#45;&gt;Node1 -->
<g id="edge5" class="edge"><title>Node5&#45;&gt;Node1</title>
<path fill="none" stroke="#9a32cd" stroke-dasharray="5,2" d="M317.983,-69.454C314.174,-58.7739 307.871,-45.9358 298,-38 279.186,-22.8743 252.972,-16.0973 231.199,-13.1148"/>
<polygon fill="#9a32cd" stroke="#9a32cd" points="314.687,-70.6437 320.999,-79.1533 321.372,-68.565 314.687,-70.6437"/>
<text text-anchor="middle" x="340" y="-52" font-family="Helvetica,sans-Serif" font-size="10.00"> myTree</text>
<text text-anchor="middle" x="340" y="-41" font-family="Helvetica,sans-Serif" font-size="10.00">myListTree</text>
</g>
<!-- Node5&#45;&gt;Node5 -->
<g id="edge6" class="edge"><title>Node5&#45;&gt;Node5</title>
<path fill="none" stroke="#9a32cd" stroke-dasharray="5,2" d="M370.771,-94.9964C375.204,-93.76 378,-91.7612 378,-89 378,-84.4688 370.472,-81.9907 360.532,-81.5659"/>
<polygon fill="#9a32cd" stroke="#9a32cd" points="369.948,-91.5776 360.532,-96.4341 370.921,-98.5096 369.948,-91.5776"/>
<text text-anchor="middle" x="402" y="-92" font-family="Helvetica,sans-Serif" font-size="10.00"> myChild1</text>
<text text-anchor="middle" x="402" y="-81" font-family="Helvetica,sans-Serif" font-size="10.00">myChild2</text>
</g>
</g>
</svg>
