<?xml version="1.0" encoding="UTF-8" standalone="no"?>
<!DOCTYPE svg PUBLIC "-//W3C//DTD SVG 1.1//EN"
 "http://www.w3.org/Graphics/SVG/1.1/DTD/svg11.dtd">
<!-- Generated by graphviz version 2.36.0 (20140111.2315)
 -->
<!-- Title: parser.Parser Pages: 1 -->
<svg width="437pt" height="198pt"
 viewBox="0.00 0.00 437.00 198.00" xmlns="http://www.w3.org/2000/svg" xmlns:xlink="http://www.w3.org/1999/xlink">
<g id="graph0" class="graph" transform="scale(1 1) rotate(0) translate(4 194)">
<title>parser.Parser</title>
<polygon fill="white" stroke="none" points="-4,4 -4,-194 433,-194 433,4 -4,4"/>
<!-- Node1 -->
<g id="node1" class="node"><title>Node1</title>
<polygon fill="#bfbfbf" stroke="black" points="154,-0.5 154,-19.5 234,-19.5 234,-0.5 154,-0.5"/>
<text text-anchor="middle" x="194" y="-7.5" font-family="Helvetica,sans-Serif" font-size="10.00">parser.Parser</text>
</g>
<!-- Node2 -->
<g id="node2" class="node"><title>Node2</title>
<g id="a_node2"><a xlink:href="../../d9/d1b/classcommand_1_1_command_factory.html" target="_top" xlink:title="command.CommandFactory">
<polygon fill="white" stroke="black" points="117.5,-79.5 117.5,-98.5 270.5,-98.5 270.5,-79.5 117.5,-79.5"/>
<text text-anchor="middle" x="194" y="-86.5" font-family="Helvetica,sans-Serif" font-size="10.00">command.CommandFactory</text>
</a>
</g>
</g>
<!-- Node2&#45;&gt;Node1 -->
<g id="edge1" class="edge"><title>Node2&#45;&gt;Node1</title>
<path fill="none" stroke="#9a32cd" stroke-dasharray="5,2" d="M194,-69.3145C194,-53.5917 194,-31.8079 194,-19.8094"/>
<polygon fill="#9a32cd" stroke="#9a32cd" points="190.5,-69.4654 194,-79.4655 197.5,-69.4655 190.5,-69.4654"/>
<text text-anchor="middle" x="245.5" y="-46.5" font-family="Helvetica,sans-Serif" font-size="10.00"> myCommandFactory</text>
</g>
<!-- Node3 -->
<g id="node3" class="node"><title>Node3</title>
<polygon fill="white" stroke="#bfbfbf" points="-0.5,-170.5 -0.5,-189.5 92.5,-189.5 92.5,-170.5 -0.5,-170.5"/>
<text text-anchor="middle" x="46" y="-177.5" font-family="Helvetica,sans-Serif" font-size="10.00">ResourceBundle</text>
</g>
<!-- Node3&#45;&gt;Node1 -->
<g id="edge5" class="edge"><title>Node3&#45;&gt;Node1</title>
<path fill="none" stroke="#9a32cd" stroke-dasharray="5,2" d="M39.0816,-160.685C32.1775,-139.059 24.7277,-102.89 41,-78 65.833,-40.0158 117.483,-23.4338 153.882,-16.2821"/>
<polygon fill="#9a32cd" stroke="#9a32cd" points="35.8266,-161.981 42.4172,-170.276 42.4382,-159.682 35.8266,-161.981"/>
<text text-anchor="middle" x="74.5" y="-86.5" font-family="Helvetica,sans-Serif" font-size="10.00"> myResources</text>
</g>
<!-- Node3&#45;&gt;Node2 -->
<g id="edge2" class="edge"><title>Node3&#45;&gt;Node2</title>
<path fill="none" stroke="#9a32cd" stroke-dasharray="5,2" d="M60.0573,-162.644C72.5085,-149.048 91.8003,-130.041 112,-118 126.343,-109.45 143.664,-103.05 158.684,-98.5438"/>
<polygon fill="#9a32cd" stroke="#9a32cd" points="57.2767,-160.504 53.2417,-170.301 62.5051,-165.159 57.2767,-160.504"/>
<text text-anchor="middle" x="148" y="-143.5" font-family="Helvetica,sans-Serif" font-size="10.00"> syntax</text>
<text text-anchor="middle" x="148" y="-132.5" font-family="Helvetica,sans-Serif" font-size="10.00">paramMap</text>
<text text-anchor="middle" x="148" y="-121.5" font-family="Helvetica,sans-Serif" font-size="10.00">translationMap</text>
</g>
<!-- Node4 -->
<g id="node4" class="node"><title>Node4</title>
<polygon fill="white" stroke="#bfbfbf" points="124,-170.5 124,-189.5 246,-189.5 246,-170.5 124,-170.5"/>
<text text-anchor="middle" x="185" y="-177.5" font-family="Helvetica,sans-Serif" font-size="10.00">Map&lt; String, String &gt;</text>
</g>
<!-- Node4&#45;&gt;Node2 -->
<g id="edge3" class="edge"><title>Node4&#45;&gt;Node2</title>
<path fill="none" stroke="#9a32cd" stroke-dasharray="5,2" d="M186.886,-160.349C188.804,-141.383 191.692,-112.828 193.126,-98.6386"/>
<polygon fill="#9a32cd" stroke="#9a32cd" points="183.387,-160.165 185.863,-170.466 190.351,-160.869 183.387,-160.165"/>
<text text-anchor="middle" x="215.5" y="-132.5" font-family="Helvetica,sans-Serif" font-size="10.00"> functions</text>
</g>
<!-- Node5 -->
<g id="node5" class="node"><title>Node5</title>
<polygon fill="white" stroke="#bfbfbf" points="264,-170.5 264,-189.5 392,-189.5 392,-170.5 264,-170.5"/>
<text text-anchor="middle" x="328" y="-177.5" font-family="Helvetica,sans-Serif" font-size="10.00">Map&lt; String, Double &gt;</text>
</g>
<!-- Node5&#45;&gt;Node2 -->
<g id="edge4" class="edge"><title>Node5&#45;&gt;Node2</title>
<path fill="none" stroke="#9a32cd" stroke-dasharray="5,2" d="M308.674,-164.257C291.7,-151.521 266.167,-132.876 243,-118 232.282,-111.118 219.814,-104.005 210.137,-98.6704"/>
<polygon fill="#9a32cd" stroke="#9a32cd" points="306.623,-167.094 316.713,-170.327 310.841,-161.508 306.623,-167.094"/>
<text text-anchor="middle" x="315" y="-132.5" font-family="Helvetica,sans-Serif" font-size="10.00"> variables</text>
</g>
<!-- Node6 -->
<g id="node6" class="node"><title>Node6</title>
<g id="a_node6"><a xlink:href="../../d3/dcc/classparser_1_1_node.html" target="_top" xlink:title="parser.Node">
<polygon fill="white" stroke="black" points="288.5,-79.5 288.5,-98.5 363.5,-98.5 363.5,-79.5 288.5,-79.5"/>
<text text-anchor="middle" x="326" y="-86.5" font-family="Helvetica,sans-Serif" font-size="10.00">parser.Node</text>
</a>
</g>
</g>
<!-- Node6&#45;&gt;Node1 -->
<g id="edge6" class="edge"><title>Node6&#45;&gt;Node1</title>
<path fill="none" stroke="#9a32cd" stroke-dasharray="5,2" d="M320.983,-69.454C317.174,-58.7739 310.871,-45.9358 301,-38 282.186,-22.8743 255.972,-16.0973 234.199,-13.1148"/>
<polygon fill="#9a32cd" stroke="#9a32cd" points="317.687,-70.6437 323.999,-79.1533 324.372,-68.565 317.687,-70.6437"/>
<text text-anchor="middle" x="343" y="-52" font-family="Helvetica,sans-Serif" font-size="10.00"> myTree</text>
<text text-anchor="middle" x="343" y="-41" font-family="Helvetica,sans-Serif" font-size="10.00">myListTree</text>
</g>
<!-- Node6&#45;&gt;Node6 -->
<g id="edge7" class="edge"><title>Node6&#45;&gt;Node6</title>
<path fill="none" stroke="#9a32cd" stroke-dasharray="5,2" d="M373.771,-94.9964C378.204,-93.76 381,-91.7612 381,-89 381,-84.4688 373.472,-81.9907 363.532,-81.5659"/>
<polygon fill="#9a32cd" stroke="#9a32cd" points="372.948,-91.5776 363.532,-96.4341 373.921,-98.5096 372.948,-91.5776"/>
<text text-anchor="middle" x="405" y="-92" font-family="Helvetica,sans-Serif" font-size="10.00"> myChild1</text>
<text text-anchor="middle" x="405" y="-81" font-family="Helvetica,sans-Serif" font-size="10.00">myChild2</text>
</g>
</g>
</svg>
