<?xml version="1.0" encoding="UTF-8" standalone="no"?>
<!DOCTYPE svg PUBLIC "-//W3C//DTD SVG 1.1//EN"
 "http://www.w3.org/Graphics/SVG/1.1/DTD/svg11.dtd">
<!-- Generated by graphviz version 2.36.0 (20140111.2315)
 -->
<!-- Title: worldController.WorldController.WorldController Pages: 1 -->
<svg width="374pt" height="77pt"
 viewBox="0.00 0.00 374.00 77.00" xmlns="http://www.w3.org/2000/svg" xmlns:xlink="http://www.w3.org/1999/xlink">
<g id="graph0" class="graph" transform="scale(1 1) rotate(0) translate(4 73)">
<title>worldController.WorldController.WorldController</title>
<polygon fill="white" stroke="none" points="-4,4 -4,-73 370,-73 370,4 -4,4"/>
<!-- Node1 -->
<g id="node1" class="node"><title>Node1</title>
<polygon fill="#bfbfbf" stroke="black" points="0,-17 0,-47 164,-47 164,-17 0,-17"/>
<text text-anchor="start" x="8" y="-35" font-family="Helvetica,sans-Serif" font-size="10.00">worldController.WorldController.</text>
<text text-anchor="middle" x="82" y="-24" font-family="Helvetica,sans-Serif" font-size="10.00">WorldController</text>
</g>
<!-- Node2 -->
<g id="node2" class="node"><title>Node2</title>
<g id="a_node2"><a xlink:href="../../dd/d8e/classuser_interface_1_1_user_interface.html#aed8e34a6b3b2149844157c9274af3d1b" target="_top" xlink:title="userInterface.UserInterface.get\lGraphics">
<polygon fill="white" stroke="black" points="200,-39 200,-69 366,-69 366,-39 200,-39"/>
<text text-anchor="start" x="208" y="-57" font-family="Helvetica,sans-Serif" font-size="10.00">userInterface.UserInterface.get</text>
<text text-anchor="middle" x="283" y="-46" font-family="Helvetica,sans-Serif" font-size="10.00">Graphics</text>
</a>
</g>
</g>
<!-- Node1&#45;&gt;Node2 -->
<g id="edge1" class="edge"><title>Node1&#45;&gt;Node2</title>
<path fill="none" stroke="midnightblue" d="M164.228,-40.98C172.648,-41.9108 181.248,-42.8616 189.777,-43.8045"/>
<polygon fill="midnightblue" stroke="midnightblue" points="189.417,-47.2859 199.741,-44.9061 190.186,-40.3283 189.417,-47.2859"/>
</g>
<!-- Node3 -->
<g id="node3" class="node"><title>Node3</title>
<g id="a_node3"><a xlink:href="../../d9/dd0/classworld_1_1_world.html#a62bc519b46f0fd04af93a8a12d38f2f9" target="_top" xlink:title="world.World.getTurtle">
<polygon fill="white" stroke="black" points="226,-0.5 226,-19.5 340,-19.5 340,-0.5 226,-0.5"/>
<text text-anchor="middle" x="283" y="-7.5" font-family="Helvetica,sans-Serif" font-size="10.00">world.World.getTurtle</text>
</a>
</g>
</g>
<!-- Node1&#45;&gt;Node3 -->
<g id="edge2" class="edge"><title>Node1&#45;&gt;Node3</title>
<path fill="none" stroke="midnightblue" d="M164.228,-23.02C181.405,-21.1211 199.334,-19.1389 215.873,-17.3106"/>
<polygon fill="midnightblue" stroke="midnightblue" points="216.416,-20.7719 225.971,-16.1942 215.647,-13.8143 216.416,-20.7719"/>
</g>
</g>
</svg>
