<?xml version="1.0" encoding="UTF-8" standalone="no"?>
<!DOCTYPE svg PUBLIC "-//W3C//DTD SVG 1.1//EN"
 "http://www.w3.org/Graphics/SVG/1.1/DTD/svg11.dtd">
<!-- Generated by graphviz version 2.36.0 (20140111.2315)
 -->
<!-- Title: worldController.WorldController.update Pages: 1 -->
<svg width="1354pt" height="465pt"
 viewBox="0.00 0.00 1354.00 465.00" xmlns="http://www.w3.org/2000/svg" xmlns:xlink="http://www.w3.org/1999/xlink">
<g id="graph0" class="graph" transform="scale(1 1) rotate(0) translate(4 461)">
<title>worldController.WorldController.update</title>
<polygon fill="white" stroke="none" points="-4,4 -4,-461 1350,-461 1350,4 -4,4"/>
<!-- Node1 -->
<g id="node1" class="node"><title>Node1</title>
<polygon fill="#bfbfbf" stroke="black" points="0,-235.5 0,-254.5 198,-254.5 198,-235.5 0,-235.5"/>
<text text-anchor="middle" x="99" y="-242.5" font-family="Helvetica,sans-Serif" font-size="10.00">worldController.WorldController.update</text>
</g>
<!-- Node2 -->
<g id="node2" class="node"><title>Node2</title>
<g id="a_node2"><a xlink:href="../../d8/d08/classworld_controller_1_1_world_controller.html#a9380abb3ed5334498510f1d6a88a826d" target="_top" xlink:title="worldController.WorldController.draw\lTurtle">
<polygon fill="white" stroke="black" points="234.5,-320 234.5,-350 421.5,-350 421.5,-320 234.5,-320"/>
<text text-anchor="start" x="242.5" y="-338" font-family="Helvetica,sans-Serif" font-size="10.00">worldController.WorldController.draw</text>
<text text-anchor="middle" x="328" y="-327" font-family="Helvetica,sans-Serif" font-size="10.00">Turtle</text>
</a>
</g>
</g>
<!-- Node1&#45;&gt;Node2 -->
<g id="edge1" class="edge"><title>Node1&#45;&gt;Node2</title>
<path fill="none" stroke="midnightblue" d="M124.293,-254.632C161.209,-269.268 232.137,-297.389 279.525,-316.177"/>
<polygon fill="midnightblue" stroke="midnightblue" points="278.379,-319.488 288.965,-319.92 280.959,-312.981 278.379,-319.488"/>
</g>
<!-- Node5 -->
<g id="node5" class="node"><title>Node5</title>
<g id="a_node5"><a xlink:href="../../d9/dd0/classworld_1_1_world.html#ae370733f7784c42741a6ba66c7d2ecf5" target="_top" xlink:title="world.World.listen">
<polygon fill="white" stroke="black" points="279,-235.5 279,-254.5 377,-254.5 377,-235.5 279,-235.5"/>
<text text-anchor="middle" x="328" y="-242.5" font-family="Helvetica,sans-Serif" font-size="10.00">world.World.listen</text>
</a>
</g>
</g>
<!-- Node1&#45;&gt;Node5 -->
<g id="edge4" class="edge"><title>Node1&#45;&gt;Node5</title>
<path fill="none" stroke="midnightblue" d="M198.245,-245C222.238,-245 247.157,-245 268.608,-245"/>
<polygon fill="midnightblue" stroke="midnightblue" points="268.841,-248.5 278.841,-245 268.841,-241.5 268.841,-248.5"/>
</g>
<!-- Node28 -->
<g id="node28" class="node"><title>Node28</title>
<g id="a_node28"><a xlink:href="../../df/dcb/classturtle_1_1_turtle.html#a610aafaf658c4b351330b7c16c66881c" target="_top" xlink:title="turtle.Turtle.updatePenAttributes">
<polygon fill="white" stroke="black" points="241.5,-121.5 241.5,-140.5 414.5,-140.5 414.5,-121.5 241.5,-121.5"/>
<text text-anchor="middle" x="328" y="-128.5" font-family="Helvetica,sans-Serif" font-size="10.00">turtle.Turtle.updatePenAttributes</text>
</a>
</g>
</g>
<!-- Node1&#45;&gt;Node28 -->
<g id="edge38" class="edge"><title>Node1&#45;&gt;Node28</title>
<path fill="none" stroke="midnightblue" d="M118.963,-235.477C158.939,-215.401 252.024,-168.653 298.927,-145.098"/>
<polygon fill="midnightblue" stroke="midnightblue" points="300.565,-148.192 307.931,-140.577 297.424,-141.937 300.565,-148.192"/>
</g>
<!-- Node3 -->
<g id="node3" class="node"><title>Node3</title>
<g id="a_node3"><a xlink:href="../../df/dcb/classturtle_1_1_turtle.html#a432dcb17f8c2751445c2c98e9b2f7fba" target="_top" xlink:title="turtle.Turtle.previousDrawLine">
<polygon fill="white" stroke="black" points="473,-428.5 473,-447.5 631,-447.5 631,-428.5 473,-428.5"/>
<text text-anchor="middle" x="552" y="-435.5" font-family="Helvetica,sans-Serif" font-size="10.00">turtle.Turtle.previousDrawLine</text>
</a>
</g>
</g>
<!-- Node2&#45;&gt;Node3 -->
<g id="edge2" class="edge"><title>Node2&#45;&gt;Node3</title>
<path fill="none" stroke="midnightblue" d="M351.449,-350.241C376.535,-366.743 418.79,-392.98 458,-410 471.95,-416.055 487.613,-421.319 502.051,-425.598"/>
<polygon fill="midnightblue" stroke="midnightblue" points="501.237,-429.005 511.815,-428.4 503.169,-422.277 501.237,-429.005"/>
</g>
<!-- Node4 -->
<g id="node4" class="node"><title>Node4</title>
<g id="a_node4"><a xlink:href="../../de/d57/classturtle_1_1_pen.html#a361f4e030646d953185a8afe94427ce2" target="_top" xlink:title="turtle.Pen.penReady">
<polygon fill="white" stroke="black" points="718.5,-437.5 718.5,-456.5 831.5,-456.5 831.5,-437.5 718.5,-437.5"/>
<text text-anchor="middle" x="775" y="-444.5" font-family="Helvetica,sans-Serif" font-size="10.00">turtle.Pen.penReady</text>
</a>
</g>
</g>
<!-- Node3&#45;&gt;Node4 -->
<g id="edge3" class="edge"><title>Node3&#45;&gt;Node4</title>
<path fill="none" stroke="midnightblue" d="M631.227,-441.186C656.434,-442.212 684.096,-443.339 708.304,-444.325"/>
<polygon fill="midnightblue" stroke="midnightblue" points="708.317,-447.828 718.451,-444.738 708.602,-440.834 708.317,-447.828"/>
</g>
<!-- Node6 -->
<g id="node6" class="node"><title>Node6</title>
<g id="a_node6"><a xlink:href="../../d7/d35/classcommand_1_1_command.html#a957099a70dd30b5dc897e0caf07d2d99" target="_top" xlink:title="command.Command.getCommand\lValues">
<polygon fill="white" stroke="black" points="458,-371 458,-401 646,-401 646,-371 458,-371"/>
<text text-anchor="start" x="466" y="-389" font-family="Helvetica,sans-Serif" font-size="10.00">command.Command.getCommand</text>
<text text-anchor="middle" x="552" y="-378" font-family="Helvetica,sans-Serif" font-size="10.00">Values</text>
</a>
</g>
</g>
<!-- Node5&#45;&gt;Node6 -->
<g id="edge5" class="edge"><title>Node5&#45;&gt;Node6</title>
<path fill="none" stroke="midnightblue" d="M344.362,-254.642C363.263,-266.748 396.035,-288.541 422,-310 439.201,-324.216 439.498,-332.524 458,-345 470.481,-353.416 484.972,-360.776 498.747,-366.849"/>
<polygon fill="midnightblue" stroke="midnightblue" points="497.563,-370.149 508.135,-370.846 500.305,-363.709 497.563,-370.149"/>
</g>
<!-- Node8 -->
<g id="node8" class="node"><title>Node8</title>
<g id="a_node8"><a xlink:href="../../d6/d95/classparser_1_1_parser.html#a240c75608624a9c67402a296855c4d1d" target="_top" xlink:title="parser.Parser.initialize\lCommands">
<polygon fill="white" stroke="black" points="492,-306 492,-336 612,-336 612,-306 492,-306"/>
<text text-anchor="start" x="500" y="-324" font-family="Helvetica,sans-Serif" font-size="10.00">parser.Parser.initialize</text>
<text text-anchor="middle" x="552" y="-313" font-family="Helvetica,sans-Serif" font-size="10.00">Commands</text>
</a>
</g>
</g>
<!-- Node5&#45;&gt;Node8 -->
<g id="edge7" class="edge"><title>Node5&#45;&gt;Node8</title>
<path fill="none" stroke="midnightblue" d="M357.116,-254.625C392.261,-266.657 453.16,-287.505 497.345,-302.632"/>
<polygon fill="midnightblue" stroke="midnightblue" points="496.471,-306.032 507.065,-305.959 498.738,-299.409 496.471,-306.032"/>
</g>
<!-- Node12 -->
<g id="node12" class="node"><title>Node12</title>
<g id="a_node12"><a xlink:href="../../d6/d95/classparser_1_1_parser.html#a4ecbffc246c3add017c4720eed4c6da9" target="_top" xlink:title="parser.Parser.parse">
<polygon fill="white" stroke="black" points="497.5,-235.5 497.5,-254.5 606.5,-254.5 606.5,-235.5 497.5,-235.5"/>
<text text-anchor="middle" x="552" y="-242.5" font-family="Helvetica,sans-Serif" font-size="10.00">parser.Parser.parse</text>
</a>
</g>
</g>
<!-- Node5&#45;&gt;Node12 -->
<g id="edge11" class="edge"><title>Node5&#45;&gt;Node12</title>
<path fill="none" stroke="midnightblue" d="M377.171,-245C409.437,-245 452.265,-245 487.335,-245"/>
<polygon fill="midnightblue" stroke="midnightblue" points="487.477,-248.5 497.477,-245 487.477,-241.5 487.477,-248.5"/>
</g>
<!-- Node25 -->
<g id="node25" class="node"><title>Node25</title>
<g id="a_node25"><a xlink:href="../../d6/d95/classparser_1_1_parser.html#acebafe1593fc1f09ac31c7104438e4b1" target="_top" xlink:title="parser.Parser.resetRepcount">
<polygon fill="white" stroke="black" points="476.5,-159.5 476.5,-178.5 627.5,-178.5 627.5,-159.5 476.5,-159.5"/>
<text text-anchor="middle" x="552" y="-166.5" font-family="Helvetica,sans-Serif" font-size="10.00">parser.Parser.resetRepcount</text>
</a>
</g>
</g>
<!-- Node5&#45;&gt;Node25 -->
<g id="edge35" class="edge"><title>Node5&#45;&gt;Node25</title>
<path fill="none" stroke="midnightblue" d="M347.311,-235.403C371.886,-222.877 417.178,-201.022 458,-188 466.532,-185.278 475.632,-182.856 484.675,-180.728"/>
<polygon fill="midnightblue" stroke="midnightblue" points="485.447,-184.143 494.436,-178.535 483.912,-177.313 485.447,-184.143"/>
</g>
<!-- Node27 -->
<g id="node27" class="node"><title>Node27</title>
<g id="a_node27"><a xlink:href="../../d9/dd0/classworld_1_1_world.html#adcbcb8328c7e832fcb710a91457e6772" target="_top" xlink:title="world.World.runCommand">
<polygon fill="white" stroke="black" points="482.5,-197.5 482.5,-216.5 621.5,-216.5 621.5,-197.5 482.5,-197.5"/>
<text text-anchor="middle" x="552" y="-204.5" font-family="Helvetica,sans-Serif" font-size="10.00">world.World.runCommand</text>
</a>
</g>
</g>
<!-- Node5&#45;&gt;Node27 -->
<g id="edge37" class="edge"><title>Node5&#45;&gt;Node27</title>
<path fill="none" stroke="midnightblue" d="M377.171,-236.755C408.857,-231.331 450.728,-224.164 485.436,-218.223"/>
<polygon fill="midnightblue" stroke="midnightblue" points="486.222,-221.639 495.488,-216.502 485.041,-214.739 486.222,-221.639"/>
</g>
<!-- Node7 -->
<g id="node7" class="node"><title>Node7</title>
<g id="a_node7"><a xlink:href="../../d7/d35/classcommand_1_1_command.html#a7e1387db1d0d35d4dcd3a3ebe2ff902a" target="_top" xlink:title="command.Command.makeString">
<polygon fill="white" stroke="black" points="686.5,-399.5 686.5,-418.5 863.5,-418.5 863.5,-399.5 686.5,-399.5"/>
<text text-anchor="middle" x="775" y="-406.5" font-family="Helvetica,sans-Serif" font-size="10.00">command.Command.makeString</text>
</a>
</g>
</g>
<!-- Node6&#45;&gt;Node7 -->
<g id="edge6" class="edge"><title>Node6&#45;&gt;Node7</title>
<path fill="none" stroke="midnightblue" d="M646.083,-395.687C656.081,-396.728 666.273,-397.789 676.323,-398.834"/>
<polygon fill="midnightblue" stroke="midnightblue" points="676.003,-402.32 686.311,-399.874 676.728,-395.358 676.003,-402.32"/>
</g>
<!-- Node9 -->
<g id="node9" class="node"><title>Node9</title>
<g id="a_node9"><a xlink:href="../../d6/d95/classparser_1_1_parser.html#a4f582c65390bddc57219c0b5c31ef5e7" target="_top" xlink:title="parser.Parser.makeTree">
<polygon fill="white" stroke="black" points="711,-361.5 711,-380.5 839,-380.5 839,-361.5 711,-361.5"/>
<text text-anchor="middle" x="775" y="-368.5" font-family="Helvetica,sans-Serif" font-size="10.00">parser.Parser.makeTree</text>
</a>
</g>
</g>
<!-- Node8&#45;&gt;Node9 -->
<g id="edge8" class="edge"><title>Node8&#45;&gt;Node9</title>
<path fill="none" stroke="midnightblue" d="M612.041,-334.919C633.992,-340.044 659.118,-345.853 682,-351 694.085,-353.719 707.076,-356.58 719.379,-359.262"/>
<polygon fill="midnightblue" stroke="midnightblue" points="719.002,-362.762 729.517,-361.465 720.488,-355.921 719.002,-362.762"/>
</g>
<!-- Node10 -->
<g id="node10" class="node"><title>Node10</title>
<g id="a_node10"><a xlink:href="../../d9/d1b/classcommand_1_1_command_factory.html#a87bf7e648425bb22124367cabedb3327" target="_top" xlink:title="command.CommandFactory.get\lNumParameters">
<polygon fill="white" stroke="black" points="923,-356 923,-386 1093,-386 1093,-356 923,-356"/>
<text text-anchor="start" x="931" y="-374" font-family="Helvetica,sans-Serif" font-size="10.00">command.CommandFactory.get</text>
<text text-anchor="middle" x="1008" y="-363" font-family="Helvetica,sans-Serif" font-size="10.00">NumParameters</text>
</a>
</g>
</g>
<!-- Node9&#45;&gt;Node10 -->
<g id="edge9" class="edge"><title>Node9&#45;&gt;Node10</title>
<path fill="none" stroke="midnightblue" d="M839.122,-371C861.781,-371 887.853,-371 912.59,-371"/>
<polygon fill="midnightblue" stroke="midnightblue" points="912.725,-374.5 922.725,-371 912.725,-367.5 912.725,-374.5"/>
</g>
<!-- Node11 -->
<g id="node11" class="node"><title>Node11</title>
<g id="a_node11"><a xlink:href="../../d9/d1b/classcommand_1_1_command_factory.html#a947fdc151e857ea74564d0d1fe268246" target="_top" xlink:title="command.CommandFactory.translate\lCommand">
<polygon fill="white" stroke="black" points="1148.5,-334 1148.5,-364 1345.5,-364 1345.5,-334 1148.5,-334"/>
<text text-anchor="start" x="1156.5" y="-352" font-family="Helvetica,sans-Serif" font-size="10.00">command.CommandFactory.translate</text>
<text text-anchor="middle" x="1247" y="-341" font-family="Helvetica,sans-Serif" font-size="10.00">Command</text>
</a>
</g>
</g>
<!-- Node10&#45;&gt;Node11 -->
<g id="edge10" class="edge"><title>Node10&#45;&gt;Node11</title>
<path fill="none" stroke="midnightblue" d="M1093.22,-363.182C1107.71,-361.837 1122.94,-360.423 1137.95,-359.03"/>
<polygon fill="midnightblue" stroke="midnightblue" points="1138.66,-362.479 1148.29,-358.07 1138.01,-355.509 1138.66,-362.479"/>
</g>
<!-- Node13 -->
<g id="node13" class="node"><title>Node13</title>
<g id="a_node13"><a xlink:href="../../d9/d1b/classcommand_1_1_command_factory.html#ab25bb047b051661d31adf73b2dae5649" target="_top" xlink:title="command.CommandFactory.create\lCommand">
<polygon fill="white" stroke="black" points="682.5,-312 682.5,-342 867.5,-342 867.5,-312 682.5,-312"/>
<text text-anchor="start" x="690.5" y="-330" font-family="Helvetica,sans-Serif" font-size="10.00">command.CommandFactory.create</text>
<text text-anchor="middle" x="775" y="-319" font-family="Helvetica,sans-Serif" font-size="10.00">Command</text>
</a>
</g>
</g>
<!-- Node12&#45;&gt;Node13 -->
<g id="edge12" class="edge"><title>Node12&#45;&gt;Node13</title>
<path fill="none" stroke="midnightblue" d="M575.656,-254.677C601.276,-265.493 644.335,-283.286 682,-297 692.866,-300.957 704.541,-304.955 715.803,-308.685"/>
<polygon fill="midnightblue" stroke="midnightblue" points="714.971,-312.096 725.564,-311.888 717.153,-305.445 714.971,-312.096"/>
</g>
<!-- Node15 -->
<g id="node15" class="node"><title>Node15</title>
<g id="a_node15"><a xlink:href="../../d6/d95/classparser_1_1_parser.html#aac1cff62f68138c7e977a67d39671701" target="_top" xlink:title="parser.Parser.generateCommand\lInput">
<polygon fill="white" stroke="black" points="687,-186 687,-216 863,-216 863,-186 687,-186"/>
<text text-anchor="start" x="695" y="-204" font-family="Helvetica,sans-Serif" font-size="10.00">parser.Parser.generateCommand</text>
<text text-anchor="middle" x="775" y="-193" font-family="Helvetica,sans-Serif" font-size="10.00">Input</text>
</a>
</g>
</g>
<!-- Node12&#45;&gt;Node15 -->
<g id="edge15" class="edge"><title>Node12&#45;&gt;Node15</title>
<path fill="none" stroke="midnightblue" d="M600.954,-235.453C626.502,-230.366 658.702,-223.955 688.377,-218.047"/>
<polygon fill="midnightblue" stroke="midnightblue" points="689.207,-221.451 698.331,-216.065 687.84,-214.585 689.207,-221.451"/>
</g>
<!-- Node18 -->
<g id="node18" class="node"><title>Node18</title>
<g id="a_node18"><a xlink:href="../../d3/dcc/classparser_1_1_node.html#a9c12e8d4375a7517eae0a35724b253c4" target="_top" xlink:title="parser.Node.getValue">
<polygon fill="white" stroke="black" points="948,-240.5 948,-259.5 1068,-259.5 1068,-240.5 948,-240.5"/>
<text text-anchor="middle" x="1008" y="-247.5" font-family="Helvetica,sans-Serif" font-size="10.00">parser.Node.getValue</text>
</a>
</g>
</g>
<!-- Node12&#45;&gt;Node18 -->
<g id="edge31" class="edge"><title>Node12&#45;&gt;Node18</title>
<path fill="none" stroke="midnightblue" d="M605.529,-254.514C628.862,-258.28 656.714,-262.148 682,-264 764.446,-270.039 785.437,-268.147 868,-264 890.792,-262.855 915.607,-260.661 937.879,-258.343"/>
<polygon fill="midnightblue" stroke="midnightblue" points="938.344,-261.813 947.916,-257.272 937.602,-254.853 938.344,-261.813"/>
</g>
<!-- Node20 -->
<g id="node20" class="node"><title>Node20</title>
<g id="a_node20"><a xlink:href="../../d6/d95/classparser_1_1_parser.html#a3efcd1192e76101919526b4a5e0046f4" target="_top" xlink:title="parser.Parser.getNodeBefore\lToReplace">
<polygon fill="white" stroke="black" points="697.5,-137 697.5,-167 852.5,-167 852.5,-137 697.5,-137"/>
<text text-anchor="start" x="705.5" y="-155" font-family="Helvetica,sans-Serif" font-size="10.00">parser.Parser.getNodeBefore</text>
<text text-anchor="middle" x="775" y="-144" font-family="Helvetica,sans-Serif" font-size="10.00">ToReplace</text>
</a>
</g>
</g>
<!-- Node12&#45;&gt;Node20 -->
<g id="edge20" class="edge"><title>Node12&#45;&gt;Node20</title>
<path fill="none" stroke="midnightblue" d="M606.792,-240.976C620.369,-238.148 634.377,-233.518 646,-226 668.992,-211.128 659.415,-191.484 682,-176 684.283,-174.435 686.661,-172.972 689.112,-171.605"/>
<polygon fill="midnightblue" stroke="midnightblue" points="690.869,-174.64 698.269,-167.059 687.756,-168.371 690.869,-174.64"/>
</g>
<!-- Node22 -->
<g id="node22" class="node"><title>Node22</title>
<g id="a_node22"><a xlink:href="../../d3/dcc/classparser_1_1_node.html#aa92667a825777b3d757bc3b1a247ac20" target="_top" xlink:title="parser.Node.isLeaf">
<polygon fill="white" stroke="black" points="955,-50.5 955,-69.5 1061,-69.5 1061,-50.5 955,-50.5"/>
<text text-anchor="middle" x="1008" y="-57.5" font-family="Helvetica,sans-Serif" font-size="10.00">parser.Node.isLeaf</text>
</a>
</g>
</g>
<!-- Node12&#45;&gt;Node22 -->
<g id="edge34" class="edge"><title>Node12&#45;&gt;Node22</title>
<path fill="none" stroke="midnightblue" d="M606.611,-244.285C620.98,-241.574 635.439,-236.177 646,-226 694.747,-179.028 629.952,-121.287 682,-78 720.528,-45.9574 861.657,-49.6729 944.734,-54.9801"/>
<polygon fill="midnightblue" stroke="midnightblue" points="944.605,-58.4791 954.815,-55.65 945.069,-51.4945 944.605,-58.4791"/>
</g>
<!-- Node23 -->
<g id="node23" class="node"><title>Node23</title>
<g id="a_node23"><a xlink:href="../../d6/d95/classparser_1_1_parser.html#a447c473b62ba23b7c144df9bb38a9a41" target="_top" xlink:title="parser.Parser.getNodeFor\lCommand">
<polygon fill="white" stroke="black" points="706,-88 706,-118 844,-118 844,-88 706,-88"/>
<text text-anchor="start" x="714" y="-106" font-family="Helvetica,sans-Serif" font-size="10.00">parser.Parser.getNodeFor</text>
<text text-anchor="middle" x="775" y="-95" font-family="Helvetica,sans-Serif" font-size="10.00">Command</text>
</a>
</g>
</g>
<!-- Node12&#45;&gt;Node23 -->
<g id="edge26" class="edge"><title>Node12&#45;&gt;Node23</title>
<path fill="none" stroke="midnightblue" d="M606.884,-243.335C620.926,-240.559 635.144,-235.365 646,-226 681.451,-195.419 647.382,-158.521 682,-127 686.379,-123.013 691.337,-119.672 696.626,-116.875"/>
<polygon fill="midnightblue" stroke="midnightblue" points="698.171,-120.017 705.796,-112.662 695.248,-113.656 698.171,-120.017"/>
</g>
<!-- Node24 -->
<g id="node24" class="node"><title>Node24</title>
<g id="a_node24"><a xlink:href="../../d3/dcc/classparser_1_1_node.html#a066da2b478008f39a02440d7afceb9ee" target="_top" xlink:title="parser.Node.insertChild">
<polygon fill="white" stroke="black" points="711,-235.5 711,-254.5 839,-254.5 839,-235.5 711,-235.5"/>
<text text-anchor="middle" x="775" y="-242.5" font-family="Helvetica,sans-Serif" font-size="10.00">parser.Node.insertChild</text>
</a>
</g>
</g>
<!-- Node12&#45;&gt;Node24 -->
<g id="edge32" class="edge"><title>Node12&#45;&gt;Node24</title>
<path fill="none" stroke="midnightblue" d="M606.78,-245C635.019,-245 670.037,-245 700.721,-245"/>
<polygon fill="midnightblue" stroke="midnightblue" points="700.944,-248.5 710.944,-245 700.944,-241.5 700.944,-248.5"/>
</g>
<!-- Node13&#45;&gt;Node11 -->
<g id="edge14" class="edge"><title>Node13&#45;&gt;Node11</title>
<path fill="none" stroke="midnightblue" d="M867.736,-331.294C945.233,-334.922 1056.34,-340.122 1138.1,-343.949"/>
<polygon fill="midnightblue" stroke="midnightblue" points="1138.27,-347.461 1148.42,-344.433 1138.6,-340.469 1138.27,-347.461"/>
</g>
<!-- Node14 -->
<g id="node14" class="node"><title>Node14</title>
<g id="a_node14"><a xlink:href="../../d9/d1b/classcommand_1_1_command_factory.html#abd97ea3e22afc09e07ed1d4fd039d11f" target="_top" xlink:title="command.CommandFactory.reflectCMD">
<polygon fill="white" stroke="black" points="904.5,-279.5 904.5,-298.5 1111.5,-298.5 1111.5,-279.5 904.5,-279.5"/>
<text text-anchor="middle" x="1008" y="-286.5" font-family="Helvetica,sans-Serif" font-size="10.00">command.CommandFactory.reflectCMD</text>
</a>
</g>
</g>
<!-- Node13&#45;&gt;Node14 -->
<g id="edge13" class="edge"><title>Node13&#45;&gt;Node14</title>
<path fill="none" stroke="midnightblue" d="M867.297,-311.981C891.247,-308.042 916.651,-303.863 939.135,-300.164"/>
<polygon fill="midnightblue" stroke="midnightblue" points="939.945,-303.578 949.244,-298.501 938.809,-296.671 939.945,-303.578"/>
</g>
<!-- Node16 -->
<g id="node16" class="node"><title>Node16</title>
<g id="a_node16"><a xlink:href="../../d3/dcc/classparser_1_1_node.html#aa67bc0d39227232943abec9b95b23235" target="_top" xlink:title="parser.Node.getChild1">
<polygon fill="white" stroke="black" points="946.5,-164.5 946.5,-183.5 1069.5,-183.5 1069.5,-164.5 946.5,-164.5"/>
<text text-anchor="middle" x="1008" y="-171.5" font-family="Helvetica,sans-Serif" font-size="10.00">parser.Node.getChild1</text>
</a>
</g>
</g>
<!-- Node15&#45;&gt;Node16 -->
<g id="edge16" class="edge"><title>Node15&#45;&gt;Node16</title>
<path fill="none" stroke="midnightblue" d="M863.002,-190.831C887.177,-188.005 913.13,-184.972 936.251,-182.269"/>
<polygon fill="midnightblue" stroke="midnightblue" points="936.789,-185.73 946.315,-181.093 935.976,-178.778 936.789,-185.73"/>
</g>
<!-- Node17 -->
<g id="node17" class="node"><title>Node17</title>
<g id="a_node17"><a xlink:href="../../d3/dcc/classparser_1_1_node.html#a0f13775acc62af77cdde90dbeaf26bbc" target="_top" xlink:title="parser.Node.getChild2">
<polygon fill="white" stroke="black" points="946.5,-126.5 946.5,-145.5 1069.5,-145.5 1069.5,-126.5 946.5,-126.5"/>
<text text-anchor="middle" x="1008" y="-133.5" font-family="Helvetica,sans-Serif" font-size="10.00">parser.Node.getChild2</text>
</a>
</g>
</g>
<!-- Node15&#45;&gt;Node17 -->
<g id="edge17" class="edge"><title>Node15&#45;&gt;Node17</title>
<path fill="none" stroke="midnightblue" d="M840.083,-185.925C849.581,-183.021 859.146,-179.709 868,-176 885.085,-168.843 886.633,-161.443 904,-155 914.246,-151.199 925.359,-148.135 936.366,-145.672"/>
<polygon fill="midnightblue" stroke="midnightblue" points="937.342,-149.044 946.417,-143.576 935.913,-142.192 937.342,-149.044"/>
</g>
<!-- Node15&#45;&gt;Node18 -->
<g id="edge18" class="edge"><title>Node15&#45;&gt;Node18</title>
<path fill="none" stroke="midnightblue" d="M837.393,-216.017C858.461,-221.003 882.218,-226.441 904,-231 916.429,-233.601 929.741,-236.197 942.53,-238.597"/>
<polygon fill="midnightblue" stroke="midnightblue" points="942.176,-242.091 952.647,-240.476 943.455,-235.209 942.176,-242.091"/>
</g>
<!-- Node19 -->
<g id="node19" class="node"><title>Node19</title>
<g id="a_node19"><a xlink:href="../../d3/dcc/classparser_1_1_node.html#a6bbc0c61aaa261077eb87cfc4e2b45dc" target="_top" xlink:title="parser.Node.numChildren">
<polygon fill="white" stroke="black" points="938.5,-202.5 938.5,-221.5 1077.5,-221.5 1077.5,-202.5 938.5,-202.5"/>
<text text-anchor="middle" x="1008" y="-209.5" font-family="Helvetica,sans-Serif" font-size="10.00">parser.Node.numChildren</text>
</a>
</g>
</g>
<!-- Node15&#45;&gt;Node19 -->
<g id="edge19" class="edge"><title>Node15&#45;&gt;Node19</title>
<path fill="none" stroke="midnightblue" d="M863.002,-205.143C884.434,-206.164 907.263,-207.251 928.278,-208.251"/>
<polygon fill="midnightblue" stroke="midnightblue" points="928.279,-211.755 938.434,-208.735 928.612,-204.763 928.279,-211.755"/>
</g>
<!-- Node20&#45;&gt;Node16 -->
<g id="edge21" class="edge"><title>Node20&#45;&gt;Node16</title>
<path fill="none" stroke="midnightblue" d="M852.599,-159.295C879.616,-161.868 909.849,-164.748 936.352,-167.272"/>
<polygon fill="midnightblue" stroke="midnightblue" points="936.025,-170.756 946.312,-168.22 936.689,-163.788 936.025,-170.756"/>
</g>
<!-- Node20&#45;&gt;Node17 -->
<g id="edge22" class="edge"><title>Node20&#45;&gt;Node17</title>
<path fill="none" stroke="midnightblue" d="M852.599,-146.694C879.497,-144.831 909.583,-142.748 936.001,-140.918"/>
<polygon fill="midnightblue" stroke="midnightblue" points="936.578,-144.386 946.312,-140.203 936.094,-137.403 936.578,-144.386"/>
</g>
<!-- Node20&#45;&gt;Node18 -->
<g id="edge23" class="edge"><title>Node20&#45;&gt;Node18</title>
<path fill="none" stroke="midnightblue" d="M852.363,-167.025C857.887,-169.564 863.175,-172.532 868,-176 891.723,-193.051 879.672,-214.823 904,-231 914.055,-237.686 925.824,-242.182 937.741,-245.174"/>
<polygon fill="midnightblue" stroke="midnightblue" points="937.238,-248.646 947.753,-247.349 938.723,-241.806 937.238,-248.646"/>
</g>
<!-- Node21 -->
<g id="node21" class="node"><title>Node21</title>
<g id="a_node21"><a xlink:href="../../d3/dcc/classparser_1_1_node.html#ab14db24c0724dec4387e29d513008e2e" target="_top" xlink:title="parser.Node.hasChildren">
<polygon fill="white" stroke="black" points="941,-88.5 941,-107.5 1075,-107.5 1075,-88.5 941,-88.5"/>
<text text-anchor="middle" x="1008" y="-95.5" font-family="Helvetica,sans-Serif" font-size="10.00">parser.Node.hasChildren</text>
</a>
</g>
</g>
<!-- Node20&#45;&gt;Node21 -->
<g id="edge24" class="edge"><title>Node20&#45;&gt;Node21</title>
<path fill="none" stroke="midnightblue" d="M831.474,-136.979C843.52,-133.703 856.19,-130.245 868,-127 884.012,-122.6 887.819,-120.732 904,-117 915.697,-114.302 928.211,-111.732 940.342,-109.404"/>
<polygon fill="midnightblue" stroke="midnightblue" points="941.236,-112.797 950.416,-107.507 939.941,-105.918 941.236,-112.797"/>
</g>
<!-- Node20&#45;&gt;Node22 -->
<g id="edge25" class="edge"><title>Node20&#45;&gt;Node22</title>
<path fill="none" stroke="midnightblue" d="M849.326,-136.982C855.907,-134.2 862.248,-130.904 868,-127 890.064,-112.024 881.334,-93.0485 904,-79 916.126,-71.4842 930.494,-66.7906 944.59,-63.8952"/>
<polygon fill="midnightblue" stroke="midnightblue" points="945.536,-67.2823 954.771,-62.0902 944.313,-60.3898 945.536,-67.2823"/>
</g>
<!-- Node23&#45;&gt;Node16 -->
<g id="edge27" class="edge"><title>Node23&#45;&gt;Node16</title>
<path fill="none" stroke="midnightblue" d="M844.463,-117.52C852.577,-120.21 860.598,-123.35 868,-127 886.18,-135.964 885.506,-146.703 904,-155 914.201,-159.577 925.444,-163.051 936.64,-165.688"/>
<polygon fill="midnightblue" stroke="midnightblue" points="935.926,-169.115 946.439,-167.797 937.399,-162.272 935.926,-169.115"/>
</g>
<!-- Node23&#45;&gt;Node17 -->
<g id="edge28" class="edge"><title>Node23&#45;&gt;Node17</title>
<path fill="none" stroke="midnightblue" d="M844.058,-112.723C873.106,-116.872 906.999,-121.714 936.328,-125.904"/>
<polygon fill="midnightblue" stroke="midnightblue" points="936.102,-129.407 946.496,-127.357 937.092,-122.477 936.102,-129.407"/>
</g>
<!-- Node23&#45;&gt;Node21 -->
<g id="edge29" class="edge"><title>Node23&#45;&gt;Node21</title>
<path fill="none" stroke="midnightblue" d="M844.058,-101.527C871.201,-100.939 902.575,-100.26 930.502,-99.6558"/>
<polygon fill="midnightblue" stroke="midnightblue" points="930.699,-103.152 940.621,-99.4368 930.548,-96.1541 930.699,-103.152"/>
</g>
<!-- Node23&#45;&gt;Node22 -->
<g id="edge30" class="edge"><title>Node23&#45;&gt;Node22</title>
<path fill="none" stroke="midnightblue" d="M844.083,-90.1962C863.443,-86.5657 884.55,-82.6173 904,-79 917.249,-76.536 931.458,-73.9063 944.963,-71.4134"/>
<polygon fill="midnightblue" stroke="midnightblue" points="945.925,-74.7949 955.124,-69.5387 944.655,-67.9111 945.925,-74.7949"/>
</g>
<!-- Node24&#45;&gt;Node18 -->
<g id="edge33" class="edge"><title>Node24&#45;&gt;Node18</title>
<path fill="none" stroke="midnightblue" d="M839.122,-246.366C869.606,-247.026 906.266,-247.82 937.541,-248.497"/>
<polygon fill="midnightblue" stroke="midnightblue" points="937.851,-252.004 947.924,-248.721 938.002,-245.006 937.851,-252.004"/>
</g>
<!-- Node26 -->
<g id="node26" class="node"><title>Node26</title>
<g id="a_node26"><a xlink:href="../../d9/d1b/classcommand_1_1_command_factory.html#a0d59e4f0f925b5046957c0e054ce8bef" target="_top" xlink:title="command.CommandFactory.reset\lRepcount">
<polygon fill="white" stroke="black" points="685.5,-0 685.5,-30 864.5,-30 864.5,-0 685.5,-0"/>
<text text-anchor="start" x="693.5" y="-18" font-family="Helvetica,sans-Serif" font-size="10.00">command.CommandFactory.reset</text>
<text text-anchor="middle" x="775" y="-7" font-family="Helvetica,sans-Serif" font-size="10.00">Repcount</text>
</a>
</g>
</g>
<!-- Node25&#45;&gt;Node26 -->
<g id="edge36" class="edge"><title>Node25&#45;&gt;Node26</title>
<path fill="none" stroke="midnightblue" d="M627.956,-161.143C634.519,-158.32 640.677,-154.678 646,-150 683.056,-117.433 646.854,-79.6199 682,-45 685.793,-41.2642 690.056,-37.9936 694.615,-35.1303"/>
<polygon fill="midnightblue" stroke="midnightblue" points="696.641,-38.0097 703.702,-30.1107 693.256,-31.8824 696.641,-38.0097"/>
</g>
<!-- Node29 -->
<g id="node29" class="node"><title>Node29</title>
<g id="a_node29"><a xlink:href="../../de/d57/classturtle_1_1_pen.html#ac9a08745a9f3615b9e47c1c8e5af8f1b" target="_top" xlink:title="turtle.Pen.getColor">
<polygon fill="white" stroke="black" points="498.5,-121.5 498.5,-140.5 605.5,-140.5 605.5,-121.5 498.5,-121.5"/>
<text text-anchor="middle" x="552" y="-128.5" font-family="Helvetica,sans-Serif" font-size="10.00">turtle.Pen.getColor</text>
</a>
</g>
</g>
<!-- Node28&#45;&gt;Node29 -->
<g id="edge39" class="edge"><title>Node28&#45;&gt;Node29</title>
<path fill="none" stroke="midnightblue" d="M414.513,-131C438.982,-131 465.196,-131 488.045,-131"/>
<polygon fill="midnightblue" stroke="midnightblue" points="488.289,-134.5 498.289,-131 488.288,-127.5 488.289,-134.5"/>
</g>
<!-- Node30 -->
<g id="node30" class="node"><title>Node30</title>
<g id="a_node30"><a xlink:href="../../de/d57/classturtle_1_1_pen.html#a76c8dc4e66927e7d3774ea00b2266640" target="_top" xlink:title="turtle.Pen.getSize">
<polygon fill="white" stroke="black" points="501,-83.5 501,-102.5 603,-102.5 603,-83.5 501,-83.5"/>
<text text-anchor="middle" x="552" y="-90.5" font-family="Helvetica,sans-Serif" font-size="10.00">turtle.Pen.getSize</text>
</a>
</g>
</g>
<!-- Node28&#45;&gt;Node30 -->
<g id="edge40" class="edge"><title>Node28&#45;&gt;Node30</title>
<path fill="none" stroke="midnightblue" d="M384.733,-121.46C417.092,-115.921 457.863,-108.942 490.933,-103.282"/>
<polygon fill="midnightblue" stroke="midnightblue" points="491.665,-106.707 500.931,-101.57 490.484,-99.8078 491.665,-106.707"/>
</g>
</g>
</svg>
