<?xml version="1.0" encoding="UTF-8" standalone="no"?>
<!DOCTYPE svg PUBLIC "-//W3C//DTD SVG 1.1//EN"
 "http://www.w3.org/Graphics/SVG/1.1/DTD/svg11.dtd">
<!-- Generated by graphviz version 2.36.0 (20140111.2315)
 -->
<!-- Title: worldController.WorldController.drawTurtle Pages: 1 -->
<svg width="540pt" height="38pt"
 viewBox="0.00 0.00 540.00 38.00" xmlns="http://www.w3.org/2000/svg" xmlns:xlink="http://www.w3.org/1999/xlink">
<g id="graph0" class="graph" transform="scale(1 1) rotate(0) translate(4 34)">
<title>worldController.WorldController.drawTurtle</title>
<polygon fill="white" stroke="none" points="-4,4 -4,-34 536,-34 536,4 -4,4"/>
<!-- Node1 -->
<g id="node1" class="node"><title>Node1</title>
<polygon fill="#bfbfbf" stroke="black" points="0.5,-0 0.5,-30 187.5,-30 187.5,-0 0.5,-0"/>
<text text-anchor="start" x="8.5" y="-18" font-family="Helvetica,sans-Serif" font-size="10.00">worldController.WorldController.draw</text>
<text text-anchor="middle" x="94" y="-7" font-family="Helvetica,sans-Serif" font-size="10.00">Turtle</text>
</g>
<!-- Node2 -->
<g id="node2" class="node"><title>Node2</title>
<g id="a_node2"><a xlink:href="../../df/dcb/classturtle_1_1_turtle.html#a432dcb17f8c2751445c2c98e9b2f7fba" target="_top" xlink:title="turtle.Turtle.previousDrawLine">
<polygon fill="white" stroke="black" points="224,-5.5 224,-24.5 382,-24.5 382,-5.5 224,-5.5"/>
<text text-anchor="middle" x="303" y="-12.5" font-family="Helvetica,sans-Serif" font-size="10.00">turtle.Turtle.previousDrawLine</text>
</a>
</g>
</g>
<!-- Node1&#45;&gt;Node2 -->
<g id="edge1" class="edge"><title>Node1&#45;&gt;Node2</title>
<path fill="none" stroke="midnightblue" d="M187.602,-15C196.267,-15 205.036,-15 213.661,-15"/>
<polygon fill="midnightblue" stroke="midnightblue" points="213.705,-18.5001 223.705,-15 213.705,-11.5001 213.705,-18.5001"/>
</g>
<!-- Node3 -->
<g id="node3" class="node"><title>Node3</title>
<g id="a_node3"><a xlink:href="../../de/d57/classturtle_1_1_pen.html#a361f4e030646d953185a8afe94427ce2" target="_top" xlink:title="turtle.Pen.penReady">
<polygon fill="white" stroke="black" points="418.5,-5.5 418.5,-24.5 531.5,-24.5 531.5,-5.5 418.5,-5.5"/>
<text text-anchor="middle" x="475" y="-12.5" font-family="Helvetica,sans-Serif" font-size="10.00">turtle.Pen.penReady</text>
</a>
</g>
</g>
<!-- Node2&#45;&gt;Node3 -->
<g id="edge2" class="edge"><title>Node2&#45;&gt;Node3</title>
<path fill="none" stroke="midnightblue" d="M382.034,-15C390.722,-15 399.507,-15 408.024,-15"/>
<polygon fill="midnightblue" stroke="midnightblue" points="408.255,-18.5001 418.255,-15 408.255,-11.5001 408.255,-18.5001"/>
</g>
</g>
</svg>
