<?xml version="1.0" encoding="UTF-8" standalone="no"?>
<!DOCTYPE svg PUBLIC "-//W3C//DTD SVG 1.1//EN"
 "http://www.w3.org/Graphics/SVG/1.1/DTD/svg11.dtd">
<!-- Generated by graphviz version 2.36.0 (20140111.2315)
 -->
<!-- Title: worldController.WorldController.update Pages: 1 -->
<svg width="1342pt" height="552pt"
 viewBox="0.00 0.00 1342.00 552.35" xmlns="http://www.w3.org/2000/svg" xmlns:xlink="http://www.w3.org/1999/xlink">
<g id="graph0" class="graph" transform="scale(1 1) rotate(0) translate(4 548.352)">
<title>worldController.WorldController.update</title>
<polygon fill="white" stroke="none" points="-4,4 -4,-548.352 1338,-548.352 1338,4 -4,4"/>
<!-- Node1 -->
<g id="node1" class="node"><title>Node1</title>
<polygon fill="#bfbfbf" stroke="black" points="0,-101.5 0,-120.5 198,-120.5 198,-101.5 0,-101.5"/>
<text text-anchor="middle" x="99" y="-108.5" font-family="Helvetica,sans-Serif" font-size="10.00">worldController.WorldController.update</text>
</g>
<!-- Node2 -->
<g id="node2" class="node"><title>Node2</title>
<g id="a_node2"><a xlink:href="../../d9/dd0/classworld_1_1_world.html#ae370733f7784c42741a6ba66c7d2ecf5" target="_top" xlink:title="world.World.listen">
<polygon fill="white" stroke="black" points="272,-164.5 272,-183.5 370,-183.5 370,-164.5 272,-164.5"/>
<text text-anchor="middle" x="321" y="-171.5" font-family="Helvetica,sans-Serif" font-size="10.00">world.World.listen</text>
</a>
</g>
</g>
<!-- Node1&#45;&gt;Node2 -->
<g id="edge1" class="edge"><title>Node1&#45;&gt;Node2</title>
<path fill="none" stroke="midnightblue" d="M133.413,-120.568C171.806,-131.563 234.908,-149.633 276.951,-161.672"/>
<polygon fill="midnightblue" stroke="midnightblue" points="276.056,-165.057 286.633,-164.445 277.983,-158.327 276.056,-165.057"/>
</g>
<!-- Node27 -->
<g id="node27" class="node"><title>Node27</title>
<g id="a_node27"><a xlink:href="../../df/dcb/classturtle_1_1_turtle.html#a610aafaf658c4b351330b7c16c66881c" target="_top" xlink:title="turtle.Turtle.updatePenAttributes">
<polygon fill="white" stroke="black" points="234.5,-38.5 234.5,-57.5 407.5,-57.5 407.5,-38.5 234.5,-38.5"/>
<text text-anchor="middle" x="321" y="-45.5" font-family="Helvetica,sans-Serif" font-size="10.00">turtle.Turtle.updatePenAttributes</text>
</a>
</g>
</g>
<!-- Node1&#45;&gt;Node27 -->
<g id="edge37" class="edge"><title>Node1&#45;&gt;Node27</title>
<path fill="none" stroke="midnightblue" d="M133.413,-101.432C171.806,-90.4375 234.908,-72.3672 276.951,-60.3275"/>
<polygon fill="midnightblue" stroke="midnightblue" points="277.983,-63.6728 286.633,-57.555 276.056,-56.9433 277.983,-63.6728"/>
</g>
<!-- Node3 -->
<g id="node3" class="node"><title>Node3</title>
<g id="a_node3"><a xlink:href="../../d7/d35/classcommand_1_1_command.html#a957099a70dd30b5dc897e0caf07d2d99" target="_top" xlink:title="command.Command.getCommand\lValues">
<polygon fill="white" stroke="black" points="444,-77 444,-107 632,-107 632,-77 444,-77"/>
<text text-anchor="start" x="452" y="-95" font-family="Helvetica,sans-Serif" font-size="10.00">command.Command.getCommand</text>
<text text-anchor="middle" x="538" y="-84" font-family="Helvetica,sans-Serif" font-size="10.00">Values</text>
</a>
</g>
</g>
<!-- Node2&#45;&gt;Node3 -->
<g id="edge2" class="edge"><title>Node2&#45;&gt;Node3</title>
<path fill="none" stroke="midnightblue" d="M339.77,-164.493C363.158,-152.264 405.786,-130.942 444,-117 450.803,-114.518 457.966,-112.16 465.172,-109.956"/>
<polygon fill="midnightblue" stroke="midnightblue" points="466.402,-113.242 474.997,-107.047 464.415,-106.53 466.402,-113.242"/>
</g>
<!-- Node5 -->
<g id="node5" class="node"><title>Node5</title>
<g id="a_node5"><a xlink:href="../../d6/d95/classparser_1_1_parser.html#a240c75608624a9c67402a296855c4d1d" target="_top" xlink:title="parser.Parser.initialize\lCommands">
<polygon fill="white" stroke="black" points="478,-241 478,-271 598,-271 598,-241 478,-241"/>
<text text-anchor="start" x="486" y="-259" font-family="Helvetica,sans-Serif" font-size="10.00">parser.Parser.initialize</text>
<text text-anchor="middle" x="538" y="-248" font-family="Helvetica,sans-Serif" font-size="10.00">Commands</text>
</a>
</g>
</g>
<!-- Node2&#45;&gt;Node5 -->
<g id="edge4" class="edge"><title>Node2&#45;&gt;Node5</title>
<path fill="none" stroke="midnightblue" d="M339.77,-183.507C363.158,-195.736 405.786,-217.058 444,-231 451.789,-233.842 460.051,-236.521 468.31,-238.994"/>
<polygon fill="midnightblue" stroke="midnightblue" points="467.395,-242.373 477.974,-241.799 469.346,-235.65 467.395,-242.373"/>
</g>
<!-- Node9 -->
<g id="node9" class="node"><title>Node9</title>
<g id="a_node9"><a xlink:href="../../d6/d95/classparser_1_1_parser.html#a4ecbffc246c3add017c4720eed4c6da9" target="_top" xlink:title="parser.Parser.parse">
<polygon fill="white" stroke="black" points="483.5,-363.5 483.5,-382.5 592.5,-382.5 592.5,-363.5 483.5,-363.5"/>
<text text-anchor="middle" x="538" y="-370.5" font-family="Helvetica,sans-Serif" font-size="10.00">parser.Parser.parse</text>
</a>
</g>
</g>
<!-- Node2&#45;&gt;Node9 -->
<g id="edge8" class="edge"><title>Node2&#45;&gt;Node9</title>
<path fill="none" stroke="midnightblue" d="M332.37,-183.598C366.57,-215.253 476.066,-316.601 519.249,-356.57"/>
<polygon fill="midnightblue" stroke="midnightblue" points="517.018,-359.274 526.734,-363.498 521.773,-354.137 517.018,-359.274"/>
</g>
<!-- Node22 -->
<g id="node22" class="node"><title>Node22</title>
<g id="a_node22"><a xlink:href="../../d6/d95/classparser_1_1_parser.html#acebafe1593fc1f09ac31c7104438e4b1" target="_top" xlink:title="parser.Parser.resetRepcount">
<polygon fill="white" stroke="black" points="462.5,-202.5 462.5,-221.5 613.5,-221.5 613.5,-202.5 462.5,-202.5"/>
<text text-anchor="middle" x="538" y="-209.5" font-family="Helvetica,sans-Serif" font-size="10.00">parser.Parser.resetRepcount</text>
</a>
</g>
</g>
<!-- Node2&#45;&gt;Node22 -->
<g id="edge32" class="edge"><title>Node2&#45;&gt;Node22</title>
<path fill="none" stroke="midnightblue" d="M370.25,-182.528C400.656,-187.902 440.26,-194.902 473.241,-200.731"/>
<polygon fill="midnightblue" stroke="midnightblue" points="472.789,-204.205 483.246,-202.499 474.008,-197.312 472.789,-204.205"/>
</g>
<!-- Node24 -->
<g id="node24" class="node"><title>Node24</title>
<g id="a_node24"><a xlink:href="../../d9/dd0/classworld_1_1_world.html#adcbcb8328c7e832fcb710a91457e6772" target="_top" xlink:title="world.World.runCommand">
<polygon fill="white" stroke="black" points="468.5,-126.5 468.5,-145.5 607.5,-145.5 607.5,-126.5 468.5,-126.5"/>
<text text-anchor="middle" x="538" y="-133.5" font-family="Helvetica,sans-Serif" font-size="10.00">world.World.runCommand</text>
</a>
</g>
</g>
<!-- Node2&#45;&gt;Node24 -->
<g id="edge34" class="edge"><title>Node2&#45;&gt;Node24</title>
<path fill="none" stroke="midnightblue" d="M370.25,-165.472C400.656,-160.098 440.26,-153.098 473.241,-147.269"/>
<polygon fill="midnightblue" stroke="midnightblue" points="474.008,-150.688 483.246,-145.501 472.789,-143.795 474.008,-150.688"/>
</g>
<!-- Node25 -->
<g id="node25" class="node"><title>Node25</title>
<g id="a_node25"><a xlink:href="../../d6/d95/classparser_1_1_parser.html#a8679d61f4ae6c55910ef113bcdda2c75" target="_top" xlink:title="parser.Parser.updateVariable">
<polygon fill="white" stroke="black" points="461,-164.5 461,-183.5 615,-183.5 615,-164.5 461,-164.5"/>
<text text-anchor="middle" x="538" y="-171.5" font-family="Helvetica,sans-Serif" font-size="10.00">parser.Parser.updateVariable</text>
</a>
</g>
</g>
<!-- Node2&#45;&gt;Node25 -->
<g id="edge35" class="edge"><title>Node2&#45;&gt;Node25</title>
<path fill="none" stroke="midnightblue" d="M370.25,-174C393.853,-174 422.998,-174 450.286,-174"/>
<polygon fill="midnightblue" stroke="midnightblue" points="450.637,-177.5 460.637,-174 450.637,-170.5 450.637,-177.5"/>
</g>
<!-- Node4 -->
<g id="node4" class="node"><title>Node4</title>
<g id="a_node4"><a xlink:href="../../d7/d35/classcommand_1_1_command.html#a7e1387db1d0d35d4dcd3a3ebe2ff902a" target="_top" xlink:title="command.Command.makeString">
<polygon fill="white" stroke="black" points="673.5,-82.5 673.5,-101.5 850.5,-101.5 850.5,-82.5 673.5,-82.5"/>
<text text-anchor="middle" x="762" y="-89.5" font-family="Helvetica,sans-Serif" font-size="10.00">command.Command.makeString</text>
</a>
</g>
</g>
<!-- Node3&#45;&gt;Node4 -->
<g id="edge3" class="edge"><title>Node3&#45;&gt;Node4</title>
<path fill="none" stroke="midnightblue" d="M632.183,-92C642.417,-92 652.859,-92 663.148,-92"/>
<polygon fill="midnightblue" stroke="midnightblue" points="663.372,-95.5001 673.372,-92 663.372,-88.5001 663.372,-95.5001"/>
</g>
<!-- Node6 -->
<g id="node6" class="node"><title>Node6</title>
<g id="a_node6"><a xlink:href="../../d6/d95/classparser_1_1_parser.html#a4f582c65390bddc57219c0b5c31ef5e7" target="_top" xlink:title="parser.Parser.makeTree">
<polygon fill="white" stroke="black" points="698,-246.5 698,-265.5 826,-265.5 826,-246.5 698,-246.5"/>
<text text-anchor="middle" x="762" y="-253.5" font-family="Helvetica,sans-Serif" font-size="10.00">parser.Parser.makeTree</text>
</a>
</g>
</g>
<!-- Node5&#45;&gt;Node6 -->
<g id="edge5" class="edge"><title>Node5&#45;&gt;Node6</title>
<path fill="none" stroke="midnightblue" d="M598.2,-256C625.661,-256 658.574,-256 687.599,-256"/>
<polygon fill="midnightblue" stroke="midnightblue" points="687.687,-259.5 697.687,-256 687.687,-252.5 687.687,-259.5"/>
</g>
<!-- Node7 -->
<g id="node7" class="node"><title>Node7</title>
<g id="a_node7"><a xlink:href="../../d9/d1b/classcommand_1_1_command_factory.html#a87bf7e648425bb22124367cabedb3327" target="_top" xlink:title="command.CommandFactory.get\lNumParameters">
<polygon fill="white" stroke="black" points="911,-209 911,-239 1081,-239 1081,-209 911,-209"/>
<text text-anchor="start" x="919" y="-227" font-family="Helvetica,sans-Serif" font-size="10.00">command.CommandFactory.get</text>
<text text-anchor="middle" x="996" y="-216" font-family="Helvetica,sans-Serif" font-size="10.00">NumParameters</text>
</a>
</g>
</g>
<!-- Node6&#45;&gt;Node7 -->
<g id="edge6" class="edge"><title>Node6&#45;&gt;Node7</title>
<path fill="none" stroke="midnightblue" d="M826.089,-247.298C849.069,-244.128 875.575,-240.472 900.677,-237.01"/>
<polygon fill="midnightblue" stroke="midnightblue" points="901.16,-240.477 910.588,-235.643 900.203,-233.542 901.16,-240.477"/>
</g>
<!-- Node8 -->
<g id="node8" class="node"><title>Node8</title>
<g id="a_node8"><a xlink:href="../../d9/d1b/classcommand_1_1_command_factory.html#a947fdc151e857ea74564d0d1fe268246" target="_top" xlink:title="command.CommandFactory.translate\lCommand">
<polygon fill="white" stroke="black" points="1136.5,-364 1136.5,-394 1333.5,-394 1333.5,-364 1136.5,-364"/>
<text text-anchor="start" x="1144.5" y="-382" font-family="Helvetica,sans-Serif" font-size="10.00">command.CommandFactory.translate</text>
<text text-anchor="middle" x="1235" y="-371" font-family="Helvetica,sans-Serif" font-size="10.00">Command</text>
</a>
</g>
</g>
<!-- Node7&#45;&gt;Node8 -->
<g id="edge7" class="edge"><title>Node7&#45;&gt;Node8</title>
<path fill="none" stroke="midnightblue" d="M1077.6,-239.087C1085.39,-241.859 1092.99,-245.133 1100,-249 1149.34,-276.22 1193.46,-326.418 1216.7,-355.836"/>
<polygon fill="midnightblue" stroke="midnightblue" points="1214.06,-358.143 1222.95,-363.897 1219.59,-353.852 1214.06,-358.143"/>
</g>
<!-- Node9&#45;&gt;Node6 -->
<g id="edge31" class="edge"><title>Node9&#45;&gt;Node6</title>
<path fill="none" stroke="midnightblue" d="M548.356,-363.429C568.348,-343.578 617.536,-297.876 668,-275 674.252,-272.166 680.932,-269.751 687.735,-267.694"/>
<polygon fill="midnightblue" stroke="midnightblue" points="689.046,-270.963 697.755,-264.929 687.184,-264.215 689.046,-270.963"/>
</g>
<!-- Node10 -->
<g id="node10" class="node"><title>Node10</title>
<g id="a_node10"><a xlink:href="../../d9/d1b/classcommand_1_1_command_factory.html#ab25bb047b051661d31adf73b2dae5649" target="_top" xlink:title="command.CommandFactory.create\lCommand">
<polygon fill="white" stroke="black" points="669.5,-509 669.5,-539 854.5,-539 854.5,-509 669.5,-509"/>
<text text-anchor="start" x="677.5" y="-527" font-family="Helvetica,sans-Serif" font-size="10.00">command.CommandFactory.create</text>
<text text-anchor="middle" x="762" y="-516" font-family="Helvetica,sans-Serif" font-size="10.00">Command</text>
</a>
</g>
</g>
<!-- Node9&#45;&gt;Node10 -->
<g id="edge9" class="edge"><title>Node9&#45;&gt;Node10</title>
<path fill="none" stroke="midnightblue" d="M546.666,-382.675C565.141,-405.373 614.569,-462.498 668,-494 675.248,-498.273 683.178,-502.017 691.253,-505.275"/>
<polygon fill="midnightblue" stroke="midnightblue" points="690.177,-508.61 700.768,-508.88 692.657,-502.064 690.177,-508.61"/>
</g>
<!-- Node12 -->
<g id="node12" class="node"><title>Node12</title>
<g id="a_node12"><a xlink:href="../../d6/d95/classparser_1_1_parser.html#aac1cff62f68138c7e977a67d39671701" target="_top" xlink:title="parser.Parser.generateCommand\lInput">
<polygon fill="white" stroke="black" points="674,-383 674,-413 850,-413 850,-383 674,-383"/>
<text text-anchor="start" x="682" y="-401" font-family="Helvetica,sans-Serif" font-size="10.00">parser.Parser.generateCommand</text>
<text text-anchor="middle" x="762" y="-390" font-family="Helvetica,sans-Serif" font-size="10.00">Input</text>
</a>
</g>
</g>
<!-- Node9&#45;&gt;Node12 -->
<g id="edge12" class="edge"><title>Node9&#45;&gt;Node12</title>
<path fill="none" stroke="midnightblue" d="M592.74,-379.052C614.169,-381.465 639.519,-384.32 663.952,-387.071"/>
<polygon fill="midnightblue" stroke="midnightblue" points="663.658,-390.56 673.986,-388.201 664.441,-383.604 663.658,-390.56"/>
</g>
<!-- Node15 -->
<g id="node15" class="node"><title>Node15</title>
<g id="a_node15"><a xlink:href="../../d3/dcc/classparser_1_1_node.html#a9c12e8d4375a7517eae0a35724b253c4" target="_top" xlink:title="parser.Node.getValue">
<polygon fill="white" stroke="black" points="936,-448.5 936,-467.5 1056,-467.5 1056,-448.5 936,-448.5"/>
<text text-anchor="middle" x="996" y="-455.5" font-family="Helvetica,sans-Serif" font-size="10.00">parser.Node.getValue</text>
</a>
</g>
</g>
<!-- Node9&#45;&gt;Node15 -->
<g id="edge28" class="edge"><title>Node9&#45;&gt;Node15</title>
<path fill="none" stroke="midnightblue" d="M548.57,-382.654C568.582,-402.071 617.226,-445.331 668,-461 758.3,-488.867 869.42,-479.226 936.108,-469.073"/>
<polygon fill="midnightblue" stroke="midnightblue" points="936.686,-472.525 946.018,-467.51 935.595,-465.611 936.686,-472.525"/>
</g>
<!-- Node17 -->
<g id="node17" class="node"><title>Node17</title>
<g id="a_node17"><a xlink:href="../../d6/d95/classparser_1_1_parser.html#a3efcd1192e76101919526b4a5e0046f4" target="_top" xlink:title="parser.Parser.getNodeBefore\lToReplace">
<polygon fill="white" stroke="black" points="684.5,-334 684.5,-364 839.5,-364 839.5,-334 684.5,-334"/>
<text text-anchor="start" x="692.5" y="-352" font-family="Helvetica,sans-Serif" font-size="10.00">parser.Parser.getNodeBefore</text>
<text text-anchor="middle" x="762" y="-341" font-family="Helvetica,sans-Serif" font-size="10.00">ToReplace</text>
</a>
</g>
</g>
<!-- Node9&#45;&gt;Node17 -->
<g id="edge17" class="edge"><title>Node9&#45;&gt;Node17</title>
<path fill="none" stroke="midnightblue" d="M592.74,-367.19C617.198,-364.546 646.763,-361.35 674.243,-358.379"/>
<polygon fill="midnightblue" stroke="midnightblue" points="674.694,-361.851 684.26,-357.296 673.942,-354.891 674.694,-361.851"/>
</g>
<!-- Node20 -->
<g id="node20" class="node"><title>Node20</title>
<g id="a_node20"><a xlink:href="../../d6/d95/classparser_1_1_parser.html#a447c473b62ba23b7c144df9bb38a9a41" target="_top" xlink:title="parser.Parser.getNodeFor\lCommand">
<polygon fill="white" stroke="black" points="693,-285 693,-315 831,-315 831,-285 693,-285"/>
<text text-anchor="start" x="701" y="-303" font-family="Helvetica,sans-Serif" font-size="10.00">parser.Parser.getNodeFor</text>
<text text-anchor="middle" x="762" y="-292" font-family="Helvetica,sans-Serif" font-size="10.00">Command</text>
</a>
</g>
</g>
<!-- Node9&#45;&gt;Node20 -->
<g id="edge23" class="edge"><title>Node9&#45;&gt;Node20</title>
<path fill="none" stroke="midnightblue" d="M562.032,-363.367C587.629,-352.869 630.328,-335.975 668,-324 674.774,-321.847 681.87,-319.745 688.994,-317.738"/>
<polygon fill="midnightblue" stroke="midnightblue" points="689.987,-321.095 698.697,-315.063 688.126,-314.346 689.987,-321.095"/>
</g>
<!-- Node21 -->
<g id="node21" class="node"><title>Node21</title>
<g id="a_node21"><a xlink:href="../../d3/dcc/classparser_1_1_node.html#a066da2b478008f39a02440d7afceb9ee" target="_top" xlink:title="parser.Node.insertChild">
<polygon fill="white" stroke="black" points="698,-432.5 698,-451.5 826,-451.5 826,-432.5 698,-432.5"/>
<text text-anchor="middle" x="762" y="-439.5" font-family="Helvetica,sans-Serif" font-size="10.00">parser.Node.insertChild</text>
</a>
</g>
</g>
<!-- Node9&#45;&gt;Node21 -->
<g id="edge29" class="edge"><title>Node9&#45;&gt;Node21</title>
<path fill="none" stroke="midnightblue" d="M561.022,-382.537C586.427,-393.262 629.633,-410.659 668,-422 678.307,-425.047 689.383,-427.837 700.172,-430.304"/>
<polygon fill="midnightblue" stroke="midnightblue" points="699.448,-433.729 709.969,-432.477 700.964,-426.895 699.448,-433.729"/>
</g>
<!-- Node10&#45;&gt;Node8 -->
<g id="edge11" class="edge"><title>Node10&#45;&gt;Node8</title>
<path fill="none" stroke="midnightblue" d="M850.265,-539.013C920.667,-547.132 1020.68,-549.45 1100,-515 1154.19,-491.463 1197.88,-434.772 1219.42,-402.505"/>
<polygon fill="midnightblue" stroke="midnightblue" points="1222.37,-404.388 1224.9,-394.099 1216.51,-400.566 1222.37,-404.388"/>
</g>
<!-- Node11 -->
<g id="node11" class="node"><title>Node11</title>
<g id="a_node11"><a xlink:href="../../d9/d1b/classcommand_1_1_command_factory.html#abd97ea3e22afc09e07ed1d4fd039d11f" target="_top" xlink:title="command.CommandFactory.reflectCMD">
<polygon fill="white" stroke="black" points="892.5,-486.5 892.5,-505.5 1099.5,-505.5 1099.5,-486.5 892.5,-486.5"/>
<text text-anchor="middle" x="996" y="-493.5" font-family="Helvetica,sans-Serif" font-size="10.00">command.CommandFactory.reflectCMD</text>
</a>
</g>
</g>
<!-- Node10&#45;&gt;Node11 -->
<g id="edge10" class="edge"><title>Node10&#45;&gt;Node11</title>
<path fill="none" stroke="midnightblue" d="M854.693,-512.934C871.474,-510.908 888.967,-508.797 905.679,-506.78"/>
<polygon fill="midnightblue" stroke="midnightblue" points="906.461,-510.211 915.97,-505.538 905.622,-503.262 906.461,-510.211"/>
</g>
<!-- Node13 -->
<g id="node13" class="node"><title>Node13</title>
<g id="a_node13"><a xlink:href="../../d3/dcc/classparser_1_1_node.html#aa67bc0d39227232943abec9b95b23235" target="_top" xlink:title="parser.Node.getChild1">
<polygon fill="white" stroke="black" points="934.5,-334.5 934.5,-353.5 1057.5,-353.5 1057.5,-334.5 934.5,-334.5"/>
<text text-anchor="middle" x="996" y="-341.5" font-family="Helvetica,sans-Serif" font-size="10.00">parser.Node.getChild1</text>
</a>
</g>
</g>
<!-- Node12&#45;&gt;Node13 -->
<g id="edge13" class="edge"><title>Node12&#45;&gt;Node13</title>
<path fill="none" stroke="midnightblue" d="M819.578,-382.872C831.606,-379.633 844.227,-376.218 856,-373 872.018,-368.622 875.819,-366.732 892,-363 903.697,-360.302 916.211,-357.732 928.342,-355.404"/>
<polygon fill="midnightblue" stroke="midnightblue" points="929.236,-358.797 938.416,-353.507 927.941,-351.918 929.236,-358.797"/>
</g>
<!-- Node14 -->
<g id="node14" class="node"><title>Node14</title>
<g id="a_node14"><a xlink:href="../../d3/dcc/classparser_1_1_node.html#a0f13775acc62af77cdde90dbeaf26bbc" target="_top" xlink:title="parser.Node.getChild2">
<polygon fill="white" stroke="black" points="934.5,-372.5 934.5,-391.5 1057.5,-391.5 1057.5,-372.5 934.5,-372.5"/>
<text text-anchor="middle" x="996" y="-379.5" font-family="Helvetica,sans-Serif" font-size="10.00">parser.Node.getChild2</text>
</a>
</g>
</g>
<!-- Node12&#45;&gt;Node14 -->
<g id="edge14" class="edge"><title>Node12&#45;&gt;Node14</title>
<path fill="none" stroke="midnightblue" d="M850.048,-391.997C874.465,-390.313 900.709,-388.503 924.067,-386.892"/>
<polygon fill="midnightblue" stroke="midnightblue" points="924.496,-390.371 934.232,-386.191 924.015,-383.387 924.496,-390.371"/>
</g>
<!-- Node12&#45;&gt;Node15 -->
<g id="edge15" class="edge"><title>Node12&#45;&gt;Node15</title>
<path fill="none" stroke="midnightblue" d="M824.448,-413.065C835.058,-416.079 845.914,-419.427 856,-423 872.504,-428.846 875.275,-433.82 892,-439 902.815,-442.349 914.462,-445.193 925.896,-447.579"/>
<polygon fill="midnightblue" stroke="midnightblue" points="925.373,-451.044 935.863,-449.56 926.737,-444.178 925.373,-451.044"/>
</g>
<!-- Node16 -->
<g id="node16" class="node"><title>Node16</title>
<g id="a_node16"><a xlink:href="../../d3/dcc/classparser_1_1_node.html#a6bbc0c61aaa261077eb87cfc4e2b45dc" target="_top" xlink:title="parser.Node.numChildren">
<polygon fill="white" stroke="black" points="926.5,-410.5 926.5,-429.5 1065.5,-429.5 1065.5,-410.5 926.5,-410.5"/>
<text text-anchor="middle" x="996" y="-417.5" font-family="Helvetica,sans-Serif" font-size="10.00">parser.Node.numChildren</text>
</a>
</g>
</g>
<!-- Node12&#45;&gt;Node16 -->
<g id="edge16" class="edge"><title>Node12&#45;&gt;Node16</title>
<path fill="none" stroke="midnightblue" d="M850.048,-406.255C871.804,-408.318 895.011,-410.518 916.334,-412.54"/>
<polygon fill="midnightblue" stroke="midnightblue" points="916.024,-416.026 926.31,-413.486 916.685,-409.058 916.024,-416.026"/>
</g>
<!-- Node17&#45;&gt;Node13 -->
<g id="edge18" class="edge"><title>Node17&#45;&gt;Node13</title>
<path fill="none" stroke="midnightblue" d="M839.608,-347.349C866.877,-346.761 897.442,-346.103 924.202,-345.526"/>
<polygon fill="midnightblue" stroke="midnightblue" points="924.334,-349.024 934.257,-345.309 924.184,-342.026 924.334,-349.024"/>
</g>
<!-- Node17&#45;&gt;Node14 -->
<g id="edge19" class="edge"><title>Node17&#45;&gt;Node14</title>
<path fill="none" stroke="midnightblue" d="M839.608,-359.897C866.877,-363.776 897.442,-368.123 924.202,-371.93"/>
<polygon fill="midnightblue" stroke="midnightblue" points="923.863,-375.417 934.257,-373.36 924.849,-368.486 923.863,-375.417"/>
</g>
<!-- Node17&#45;&gt;Node15 -->
<g id="edge20" class="edge"><title>Node17&#45;&gt;Node15</title>
<path fill="none" stroke="midnightblue" d="M839.588,-363.097C845.439,-365.838 851.002,-369.105 856,-373 882.355,-393.539 864.941,-419.398 892,-439 901.894,-446.167 913.689,-450.881 925.706,-453.936"/>
<polygon fill="midnightblue" stroke="midnightblue" points="925.301,-457.429 935.816,-456.129 926.785,-450.588 925.301,-457.429"/>
</g>
<!-- Node18 -->
<g id="node18" class="node"><title>Node18</title>
<g id="a_node18"><a xlink:href="../../d3/dcc/classparser_1_1_node.html#ab14db24c0724dec4387e29d513008e2e" target="_top" xlink:title="parser.Node.hasChildren">
<polygon fill="white" stroke="black" points="929,-258.5 929,-277.5 1063,-277.5 1063,-258.5 929,-258.5"/>
<text text-anchor="middle" x="996" y="-265.5" font-family="Helvetica,sans-Serif" font-size="10.00">parser.Node.hasChildren</text>
</a>
</g>
</g>
<!-- Node17&#45;&gt;Node18 -->
<g id="edge21" class="edge"><title>Node17&#45;&gt;Node18</title>
<path fill="none" stroke="midnightblue" d="M834.682,-333.992C842.116,-331.195 849.368,-327.894 856,-324 875.786,-312.384 871.764,-297.813 892,-287 900.392,-282.516 909.656,-279.071 919.085,-276.428"/>
<polygon fill="midnightblue" stroke="midnightblue" points="920.095,-279.783 928.942,-273.954 918.391,-272.994 920.095,-279.783"/>
</g>
<!-- Node19 -->
<g id="node19" class="node"><title>Node19</title>
<g id="a_node19"><a xlink:href="../../d3/dcc/classparser_1_1_node.html#aa92667a825777b3d757bc3b1a247ac20" target="_top" xlink:title="parser.Node.isLeaf">
<polygon fill="white" stroke="black" points="943,-296.5 943,-315.5 1049,-315.5 1049,-296.5 943,-296.5"/>
<text text-anchor="middle" x="996" y="-303.5" font-family="Helvetica,sans-Serif" font-size="10.00">parser.Node.isLeaf</text>
</a>
</g>
</g>
<!-- Node17&#45;&gt;Node19 -->
<g id="edge22" class="edge"><title>Node17&#45;&gt;Node19</title>
<path fill="none" stroke="midnightblue" d="M839.736,-334.704C856.932,-331.505 875.089,-328.133 892,-325 905.322,-322.532 919.614,-319.891 933.183,-317.387"/>
<polygon fill="midnightblue" stroke="midnightblue" points="934.191,-320.76 943.39,-315.504 932.921,-313.877 934.191,-320.76"/>
</g>
<!-- Node20&#45;&gt;Node13 -->
<g id="edge24" class="edge"><title>Node20&#45;&gt;Node13</title>
<path fill="none" stroke="midnightblue" d="M831.265,-313.349C850.867,-317.149 872.275,-321.269 892,-325 905.17,-327.491 919.295,-330.122 932.733,-332.607"/>
<polygon fill="midnightblue" stroke="midnightblue" points="932.379,-336.101 942.849,-334.474 933.65,-329.217 932.379,-336.101"/>
</g>
<!-- Node20&#45;&gt;Node14 -->
<g id="edge25" class="edge"><title>Node20&#45;&gt;Node14</title>
<path fill="none" stroke="midnightblue" d="M831.384,-312.783C839.985,-315.778 848.415,-319.464 856,-324 876.245,-336.107 871.343,-351.61 892,-363 901.976,-368.5 913.238,-372.447 924.558,-375.27"/>
<polygon fill="midnightblue" stroke="midnightblue" points="923.971,-378.724 934.491,-377.473 925.486,-371.89 923.971,-378.724"/>
</g>
<!-- Node20&#45;&gt;Node18 -->
<g id="edge26" class="edge"><title>Node20&#45;&gt;Node18</title>
<path fill="none" stroke="midnightblue" d="M831.04,-290.615C858.548,-286.821 890.422,-282.425 918.713,-278.522"/>
<polygon fill="midnightblue" stroke="midnightblue" points="919.531,-281.943 928.959,-277.109 918.574,-275.008 919.531,-281.943"/>
</g>
<!-- Node20&#45;&gt;Node19 -->
<g id="edge27" class="edge"><title>Node20&#45;&gt;Node19</title>
<path fill="none" stroke="midnightblue" d="M831.04,-301.76C863.113,-302.589 901.124,-303.572 932.468,-304.383"/>
<polygon fill="midnightblue" stroke="midnightblue" points="932.736,-307.891 942.823,-304.651 932.917,-300.893 932.736,-307.891"/>
</g>
<!-- Node21&#45;&gt;Node15 -->
<g id="edge30" class="edge"><title>Node21&#45;&gt;Node15</title>
<path fill="none" stroke="midnightblue" d="M826.089,-446.351C856.963,-448.48 894.202,-451.048 925.849,-453.231"/>
<polygon fill="midnightblue" stroke="midnightblue" points="925.695,-456.729 935.912,-453.925 926.177,-449.745 925.695,-456.729"/>
</g>
<!-- Node23 -->
<g id="node23" class="node"><title>Node23</title>
<g id="a_node23"><a xlink:href="../../d9/d1b/classcommand_1_1_command_factory.html#a0d59e4f0f925b5046957c0e054ce8bef" target="_top" xlink:title="command.CommandFactory.reset\lRepcount">
<polygon fill="white" stroke="black" points="672.5,-197 672.5,-227 851.5,-227 851.5,-197 672.5,-197"/>
<text text-anchor="start" x="680.5" y="-215" font-family="Helvetica,sans-Serif" font-size="10.00">command.CommandFactory.reset</text>
<text text-anchor="middle" x="762" y="-204" font-family="Helvetica,sans-Serif" font-size="10.00">Repcount</text>
</a>
</g>
</g>
<!-- Node22&#45;&gt;Node23 -->
<g id="edge33" class="edge"><title>Node22&#45;&gt;Node23</title>
<path fill="none" stroke="midnightblue" d="M613.54,-212C629.187,-212 645.922,-212 662.295,-212"/>
<polygon fill="midnightblue" stroke="midnightblue" points="662.43,-215.5 672.43,-212 662.43,-208.5 662.43,-215.5"/>
</g>
<!-- Node26 -->
<g id="node26" class="node"><title>Node26</title>
<g id="a_node26"><a xlink:href="../../d9/d1b/classcommand_1_1_command_factory.html#a8347db76764ea8308d029789b49519dd" target="_top" xlink:title="command.CommandFactory.update\lVariable">
<polygon fill="white" stroke="black" points="668,-148 668,-178 856,-178 856,-148 668,-148"/>
<text text-anchor="start" x="676" y="-166" font-family="Helvetica,sans-Serif" font-size="10.00">command.CommandFactory.update</text>
<text text-anchor="middle" x="762" y="-155" font-family="Helvetica,sans-Serif" font-size="10.00">Variable</text>
</a>
</g>
</g>
<!-- Node25&#45;&gt;Node26 -->
<g id="edge36" class="edge"><title>Node25&#45;&gt;Node26</title>
<path fill="none" stroke="midnightblue" d="M615.089,-170.23C628.724,-169.554 643.142,-168.84 657.396,-168.134"/>
<polygon fill="midnightblue" stroke="midnightblue" points="657.919,-171.612 667.733,-167.621 657.572,-164.621 657.919,-171.612"/>
</g>
<!-- Node28 -->
<g id="node28" class="node"><title>Node28</title>
<g id="a_node28"><a xlink:href="../../de/d57/classturtle_1_1_pen.html#ac9a08745a9f3615b9e47c1c8e5af8f1b" target="_top" xlink:title="turtle.Pen.getColor">
<polygon fill="white" stroke="black" points="484.5,-38.5 484.5,-57.5 591.5,-57.5 591.5,-38.5 484.5,-38.5"/>
<text text-anchor="middle" x="538" y="-45.5" font-family="Helvetica,sans-Serif" font-size="10.00">turtle.Pen.getColor</text>
</a>
</g>
</g>
<!-- Node27&#45;&gt;Node28 -->
<g id="edge38" class="edge"><title>Node27&#45;&gt;Node28</title>
<path fill="none" stroke="midnightblue" d="M407.591,-48C429.731,-48 453.165,-48 473.919,-48"/>
<polygon fill="midnightblue" stroke="midnightblue" points="474.189,-51.5001 484.189,-48 474.189,-44.5001 474.189,-51.5001"/>
</g>
<!-- Node29 -->
<g id="node29" class="node"><title>Node29</title>
<g id="a_node29"><a xlink:href="../../de/d57/classturtle_1_1_pen.html#a76c8dc4e66927e7d3774ea00b2266640" target="_top" xlink:title="turtle.Pen.getSize">
<polygon fill="white" stroke="black" points="487,-0.5 487,-19.5 589,-19.5 589,-0.5 487,-0.5"/>
<text text-anchor="middle" x="538" y="-7.5" font-family="Helvetica,sans-Serif" font-size="10.00">turtle.Pen.getSize</text>
</a>
</g>
</g>
<!-- Node27&#45;&gt;Node29 -->
<g id="edge39" class="edge"><title>Node27&#45;&gt;Node29</title>
<path fill="none" stroke="midnightblue" d="M375.976,-38.46C406.618,-33.0443 445.049,-26.2517 476.682,-20.6609"/>
<polygon fill="midnightblue" stroke="midnightblue" points="477.456,-24.0784 486.694,-18.8912 476.238,-17.1852 477.456,-24.0784"/>
</g>
</g>
</svg>
