<?xml version="1.0" encoding="UTF-8" standalone="no"?>
<!DOCTYPE svg PUBLIC "-//W3C//DTD SVG 1.1//EN"
 "http://www.w3.org/Graphics/SVG/1.1/DTD/svg11.dtd">
<!-- Generated by graphviz version 2.36.0 (20140111.2315)
 -->
<!-- Title: userInterface.TopMenu.initialize Pages: 1 -->
<svg width="764pt" height="332pt"
 viewBox="0.00 0.00 764.00 332.00" xmlns="http://www.w3.org/2000/svg" xmlns:xlink="http://www.w3.org/1999/xlink">
<g id="graph0" class="graph" transform="scale(1 1) rotate(0) translate(4 328)">
<title>userInterface.TopMenu.initialize</title>
<polygon fill="white" stroke="none" points="-4,4 -4,-328 760,-328 760,4 -4,4"/>
<!-- Node1 -->
<g id="node1" class="node"><title>Node1</title>
<polygon fill="#bfbfbf" stroke="black" points="0,-201.5 0,-220.5 166,-220.5 166,-201.5 0,-201.5"/>
<text text-anchor="middle" x="83" y="-208.5" font-family="Helvetica,sans-Serif" font-size="10.00">userInterface.TopMenu.initialize</text>
</g>
<!-- Node2 -->
<g id="node2" class="node"><title>Node2</title>
<g id="a_node2"><a xlink:href="../../d3/db5/classuser_interface_1_1_top_menu.html#ab806f0e3f0ac28bd22d0b3dc5617c2e2" target="_top" xlink:title="userInterface.TopMenu.create\lEditMenu">
<polygon fill="white" stroke="black" points="202,-294 202,-324 360,-324 360,-294 202,-294"/>
<text text-anchor="start" x="210" y="-312" font-family="Helvetica,sans-Serif" font-size="10.00">userInterface.TopMenu.create</text>
<text text-anchor="middle" x="281" y="-301" font-family="Helvetica,sans-Serif" font-size="10.00">EditMenu</text>
</a>
</g>
</g>
<!-- Node1&#45;&gt;Node2 -->
<g id="edge1" class="edge"><title>Node1&#45;&gt;Node2</title>
<path fill="none" stroke="midnightblue" d="M97.1999,-220.67C118.4,-235.847 161.749,-265.438 202,-284 206.923,-286.27 212.11,-288.419 217.373,-290.432"/>
<polygon fill="midnightblue" stroke="midnightblue" points="216.293,-293.763 226.887,-293.905 218.693,-287.188 216.293,-293.763"/>
</g>
<!-- Node3 -->
<g id="node3" class="node"><title>Node3</title>
<g id="a_node3"><a xlink:href="../../d3/db5/classuser_interface_1_1_top_menu.html#a7f7fb464630b5835b47aeff14e725c3d" target="_top" xlink:title="userInterface.TopMenu.create\lFileMenu">
<polygon fill="white" stroke="black" points="202,-245 202,-275 360,-275 360,-245 202,-245"/>
<text text-anchor="start" x="210" y="-263" font-family="Helvetica,sans-Serif" font-size="10.00">userInterface.TopMenu.create</text>
<text text-anchor="middle" x="281" y="-252" font-family="Helvetica,sans-Serif" font-size="10.00">FileMenu</text>
</a>
</g>
</g>
<!-- Node1&#45;&gt;Node3 -->
<g id="edge2" class="edge"><title>Node1&#45;&gt;Node3</title>
<path fill="none" stroke="midnightblue" d="M122.256,-220.564C147.179,-226.795 180.437,-235.109 209.99,-242.497"/>
<polygon fill="midnightblue" stroke="midnightblue" points="209.302,-245.933 219.852,-244.963 211,-239.142 209.302,-245.933"/>
</g>
<!-- Node4 -->
<g id="node4" class="node"><title>Node4</title>
<g id="a_node4"><a xlink:href="../../d3/db5/classuser_interface_1_1_top_menu.html#ac1752b41fa0043dd563c61a37950d8f0" target="_top" xlink:title="userInterface.TopMenu.create\lHelpMenu">
<polygon fill="white" stroke="black" points="202,-196 202,-226 360,-226 360,-196 202,-196"/>
<text text-anchor="start" x="210" y="-214" font-family="Helvetica,sans-Serif" font-size="10.00">userInterface.TopMenu.create</text>
<text text-anchor="middle" x="281" y="-203" font-family="Helvetica,sans-Serif" font-size="10.00">HelpMenu</text>
</a>
</g>
</g>
<!-- Node1&#45;&gt;Node4 -->
<g id="edge3" class="edge"><title>Node1&#45;&gt;Node4</title>
<path fill="none" stroke="midnightblue" d="M166.27,-211C174.611,-211 183.109,-211 191.513,-211"/>
<polygon fill="midnightblue" stroke="midnightblue" points="191.699,-214.5 201.699,-211 191.699,-207.5 191.699,-214.5"/>
</g>
<!-- Node7 -->
<g id="node7" class="node"><title>Node7</title>
<g id="a_node7"><a xlink:href="../../d3/db5/classuser_interface_1_1_top_menu.html#a615e9becb74842886f068eb7568ea566" target="_top" xlink:title="userInterface.TopMenu.create\lPreferencesMenu">
<polygon fill="white" stroke="black" points="202,-147 202,-177 360,-177 360,-147 202,-147"/>
<text text-anchor="start" x="210" y="-165" font-family="Helvetica,sans-Serif" font-size="10.00">userInterface.TopMenu.create</text>
<text text-anchor="middle" x="281" y="-154" font-family="Helvetica,sans-Serif" font-size="10.00">PreferencesMenu</text>
</a>
</g>
</g>
<!-- Node1&#45;&gt;Node7 -->
<g id="edge6" class="edge"><title>Node1&#45;&gt;Node7</title>
<path fill="none" stroke="midnightblue" d="M122.256,-201.436C147.179,-195.205 180.437,-186.891 209.99,-179.503"/>
<polygon fill="midnightblue" stroke="midnightblue" points="211,-182.858 219.852,-177.037 209.302,-176.067 211,-182.858"/>
</g>
<!-- Node10 -->
<g id="node10" class="node"><title>Node10</title>
<g id="a_node10"><a xlink:href="../../d3/db5/classuser_interface_1_1_top_menu.html#a3c7e48f77845e898ca1b323a326bfbc7" target="_top" xlink:title="userInterface.TopMenu.create\lViewMenu">
<polygon fill="white" stroke="black" points="202,-73 202,-103 360,-103 360,-73 202,-73"/>
<text text-anchor="start" x="210" y="-91" font-family="Helvetica,sans-Serif" font-size="10.00">userInterface.TopMenu.create</text>
<text text-anchor="middle" x="281" y="-80" font-family="Helvetica,sans-Serif" font-size="10.00">ViewMenu</text>
</a>
</g>
</g>
<!-- Node1&#45;&gt;Node10 -->
<g id="edge10" class="edge"><title>Node1&#45;&gt;Node10</title>
<path fill="none" stroke="midnightblue" d="M99.3798,-201.348C131.143,-181.416 204.59,-135.324 247.402,-108.457"/>
<polygon fill="midnightblue" stroke="midnightblue" points="249.436,-111.312 256.046,-103.032 245.716,-105.383 249.436,-111.312"/>
</g>
<!-- Node5 -->
<g id="node5" class="node"><title>Node5</title>
<g id="a_node5"><a xlink:href="../../d3/db5/classuser_interface_1_1_top_menu.html#a598a940cfabeb95d605504b823fdf51e" target="_top" xlink:title="userInterface.TopMenu.display\lWebpage">
<polygon fill="white" stroke="black" points="396.5,-196 396.5,-226 557.5,-226 557.5,-196 396.5,-196"/>
<text text-anchor="start" x="404.5" y="-214" font-family="Helvetica,sans-Serif" font-size="10.00">userInterface.TopMenu.display</text>
<text text-anchor="middle" x="477" y="-203" font-family="Helvetica,sans-Serif" font-size="10.00">Webpage</text>
</a>
</g>
</g>
<!-- Node4&#45;&gt;Node5 -->
<g id="edge4" class="edge"><title>Node4&#45;&gt;Node5</title>
<path fill="none" stroke="midnightblue" d="M360.069,-211C368.62,-211 377.376,-211 386.055,-211"/>
<polygon fill="midnightblue" stroke="midnightblue" points="386.193,-214.5 396.193,-211 386.193,-207.5 386.193,-214.5"/>
</g>
<!-- Node6 -->
<g id="node6" class="node"><title>Node6</title>
<g id="a_node6"><a xlink:href="../../d3/db5/classuser_interface_1_1_top_menu.html#aaa39c0ed0953088b771fc02213fb0db0" target="_top" xlink:title="userInterface.TopMenu.display">
<polygon fill="white" stroke="black" points="594.5,-149.5 594.5,-168.5 755.5,-168.5 755.5,-149.5 594.5,-149.5"/>
<text text-anchor="middle" x="675" y="-156.5" font-family="Helvetica,sans-Serif" font-size="10.00">userInterface.TopMenu.display</text>
</a>
</g>
</g>
<!-- Node5&#45;&gt;Node6 -->
<g id="edge5" class="edge"><title>Node5&#45;&gt;Node6</title>
<path fill="none" stroke="midnightblue" d="M534.691,-195.959C564.396,-188.079 600.298,-178.554 628.215,-171.147"/>
<polygon fill="midnightblue" stroke="midnightblue" points="629.345,-174.468 638.113,-168.521 627.55,-167.703 629.345,-174.468"/>
</g>
<!-- Node8 -->
<g id="node8" class="node"><title>Node8</title>
<g id="a_node8"><a xlink:href="../../d3/db5/classuser_interface_1_1_top_menu.html#ad380d5d5985954bdd9ef1e03af03a8c1" target="_top" xlink:title="userInterface.TopMenu.display\lLanguageSelector">
<polygon fill="white" stroke="black" points="396.5,-147 396.5,-177 557.5,-177 557.5,-147 396.5,-147"/>
<text text-anchor="start" x="404.5" y="-165" font-family="Helvetica,sans-Serif" font-size="10.00">userInterface.TopMenu.display</text>
<text text-anchor="middle" x="477" y="-154" font-family="Helvetica,sans-Serif" font-size="10.00">LanguageSelector</text>
</a>
</g>
</g>
<!-- Node7&#45;&gt;Node8 -->
<g id="edge7" class="edge"><title>Node7&#45;&gt;Node8</title>
<path fill="none" stroke="midnightblue" d="M360.069,-162C368.62,-162 377.376,-162 386.055,-162"/>
<polygon fill="midnightblue" stroke="midnightblue" points="386.193,-165.5 396.193,-162 386.193,-158.5 386.193,-165.5"/>
</g>
<!-- Node8&#45;&gt;Node6 -->
<g id="edge9" class="edge"><title>Node8&#45;&gt;Node6</title>
<path fill="none" stroke="midnightblue" d="M557.721,-160.78C566.405,-160.647 575.287,-160.511 584.082,-160.376"/>
<polygon fill="midnightblue" stroke="midnightblue" points="584.405,-163.872 594.35,-160.219 584.298,-156.873 584.405,-163.872"/>
</g>
<!-- Node9 -->
<g id="node9" class="node"><title>Node9</title>
<g id="a_node9"><a xlink:href="../../d3/db5/classuser_interface_1_1_top_menu.html#a98951700279e23e40fadbb31a809a885" target="_top" xlink:title="userInterface.TopMenu.create\lDisplayBox">
<polygon fill="white" stroke="black" points="596,-98 596,-128 754,-128 754,-98 596,-98"/>
<text text-anchor="start" x="604" y="-116" font-family="Helvetica,sans-Serif" font-size="10.00">userInterface.TopMenu.create</text>
<text text-anchor="middle" x="675" y="-105" font-family="Helvetica,sans-Serif" font-size="10.00">DisplayBox</text>
</a>
</g>
</g>
<!-- Node8&#45;&gt;Node9 -->
<g id="edge8" class="edge"><title>Node8&#45;&gt;Node9</title>
<path fill="none" stroke="midnightblue" d="M538.138,-146.965C559.021,-141.745 582.615,-135.846 604.21,-130.447"/>
<polygon fill="midnightblue" stroke="midnightblue" points="605.123,-133.827 613.975,-128.006 603.425,-127.036 605.123,-133.827"/>
</g>
<!-- Node11 -->
<g id="node11" class="node"><title>Node11</title>
<g id="a_node11"><a xlink:href="../../d3/db5/classuser_interface_1_1_top_menu.html#a6910b4617ec06bd6ff657a326bc5414c" target="_top" xlink:title="userInterface.TopMenu.display\lColorPicker">
<polygon fill="white" stroke="black" points="396.5,-49 396.5,-79 557.5,-79 557.5,-49 396.5,-49"/>
<text text-anchor="start" x="404.5" y="-67" font-family="Helvetica,sans-Serif" font-size="10.00">userInterface.TopMenu.display</text>
<text text-anchor="middle" x="477" y="-56" font-family="Helvetica,sans-Serif" font-size="10.00">ColorPicker</text>
</a>
</g>
</g>
<!-- Node10&#45;&gt;Node11 -->
<g id="edge11" class="edge"><title>Node10&#45;&gt;Node11</title>
<path fill="none" stroke="midnightblue" d="M360.069,-78.342C368.62,-77.2841 377.376,-76.201 386.055,-75.1272"/>
<polygon fill="midnightblue" stroke="midnightblue" points="386.699,-78.5744 396.193,-73.873 385.839,-71.6273 386.699,-78.5744"/>
</g>
<!-- Node13 -->
<g id="node13" class="node"><title>Node13</title>
<g id="a_node13"><a xlink:href="../../d3/db5/classuser_interface_1_1_top_menu.html#a91967a0db57f7be18c876a79b405ad9f" target="_top" xlink:title="userInterface.TopMenu.display\lImagePicker">
<polygon fill="white" stroke="black" points="396.5,-0 396.5,-30 557.5,-30 557.5,-0 396.5,-0"/>
<text text-anchor="start" x="404.5" y="-18" font-family="Helvetica,sans-Serif" font-size="10.00">userInterface.TopMenu.display</text>
<text text-anchor="middle" x="477" y="-7" font-family="Helvetica,sans-Serif" font-size="10.00">ImagePicker</text>
</a>
</g>
</g>
<!-- Node10&#45;&gt;Node13 -->
<g id="edge15" class="edge"><title>Node10&#45;&gt;Node13</title>
<path fill="none" stroke="midnightblue" d="M314.526,-72.8396C337.116,-62.6029 368.061,-49.1577 396,-39 401.5,-37.0004 407.254,-35.0348 413.046,-33.1421"/>
<polygon fill="midnightblue" stroke="midnightblue" points="414.327,-36.4072 422.79,-30.0327 412.199,-29.7386 414.327,-36.4072"/>
</g>
<!-- Node14 -->
<g id="node14" class="node"><title>Node14</title>
<g id="a_node14"><a xlink:href="../../d3/db5/classuser_interface_1_1_top_menu.html#a49c0c214e19d20a7888e3760802aaf5e" target="_top" xlink:title="userInterface.TopMenu.display\lPenEditor">
<polygon fill="white" stroke="black" points="396.5,-98 396.5,-128 557.5,-128 557.5,-98 396.5,-98"/>
<text text-anchor="start" x="404.5" y="-116" font-family="Helvetica,sans-Serif" font-size="10.00">userInterface.TopMenu.display</text>
<text text-anchor="middle" x="477" y="-105" font-family="Helvetica,sans-Serif" font-size="10.00">PenEditor</text>
</a>
</g>
</g>
<!-- Node10&#45;&gt;Node14 -->
<g id="edge16" class="edge"><title>Node10&#45;&gt;Node14</title>
<path fill="none" stroke="midnightblue" d="M360.069,-98.0604C368.62,-99.1624 377.376,-100.291 386.055,-101.409"/>
<polygon fill="midnightblue" stroke="midnightblue" points="385.828,-104.909 396.193,-102.716 386.723,-97.9662 385.828,-104.909"/>
</g>
<!-- Node11&#45;&gt;Node6 -->
<g id="edge13" class="edge"><title>Node11&#45;&gt;Node6</title>
<path fill="none" stroke="midnightblue" d="M542.221,-79.0993C547.788,-81.6285 553.142,-84.5732 558,-88 580.083,-103.576 571.739,-121.68 594,-137 598.941,-140.4 604.391,-143.277 610.054,-145.709"/>
<polygon fill="midnightblue" stroke="midnightblue" points="609.143,-149.108 619.734,-149.399 611.636,-142.567 609.143,-149.108"/>
</g>
<!-- Node11&#45;&gt;Node9 -->
<g id="edge12" class="edge"><title>Node11&#45;&gt;Node9</title>
<path fill="none" stroke="midnightblue" d="M538.138,-79.0346C559.021,-84.2554 582.615,-90.1537 604.21,-95.5526"/>
<polygon fill="midnightblue" stroke="midnightblue" points="603.425,-98.9639 613.975,-97.9938 605.123,-92.1729 603.425,-98.9639"/>
</g>
<!-- Node12 -->
<g id="node12" class="node"><title>Node12</title>
<g id="a_node12"><a xlink:href="../../d3/db5/classuser_interface_1_1_top_menu.html#a5a5ca2d16b2af30c61db4744a593a709" target="_top" xlink:title="userInterface.TopMenu.extract\lColor">
<polygon fill="white" stroke="black" points="594.5,-49 594.5,-79 755.5,-79 755.5,-49 594.5,-49"/>
<text text-anchor="start" x="602.5" y="-67" font-family="Helvetica,sans-Serif" font-size="10.00">userInterface.TopMenu.extract</text>
<text text-anchor="middle" x="675" y="-56" font-family="Helvetica,sans-Serif" font-size="10.00">Color</text>
</a>
</g>
</g>
<!-- Node11&#45;&gt;Node12 -->
<g id="edge14" class="edge"><title>Node11&#45;&gt;Node12</title>
<path fill="none" stroke="midnightblue" d="M557.721,-64C566.405,-64 575.287,-64 584.082,-64"/>
<polygon fill="midnightblue" stroke="midnightblue" points="584.35,-67.5001 594.35,-64 584.35,-60.5001 584.35,-67.5001"/>
</g>
<!-- Node14&#45;&gt;Node6 -->
<g id="edge18" class="edge"><title>Node14&#45;&gt;Node6</title>
<path fill="none" stroke="midnightblue" d="M542.178,-128.062C568.573,-134.257 598.7,-141.328 623.484,-147.144"/>
<polygon fill="midnightblue" stroke="midnightblue" points="622.865,-150.594 633.4,-149.471 624.464,-143.779 622.865,-150.594"/>
</g>
<!-- Node14&#45;&gt;Node9 -->
<g id="edge17" class="edge"><title>Node14&#45;&gt;Node9</title>
<path fill="none" stroke="midnightblue" d="M557.721,-113C566.983,-113 576.471,-113 585.837,-113"/>
<polygon fill="midnightblue" stroke="midnightblue" points="585.937,-116.5 595.937,-113 585.937,-109.5 585.937,-116.5"/>
</g>
<!-- Node14&#45;&gt;Node12 -->
<g id="edge19" class="edge"><title>Node14&#45;&gt;Node12</title>
<path fill="none" stroke="midnightblue" d="M538.138,-97.9654C559.021,-92.7446 582.615,-86.8463 604.21,-81.4474"/>
<polygon fill="midnightblue" stroke="midnightblue" points="605.123,-84.8271 613.975,-79.0062 603.425,-78.0361 605.123,-84.8271"/>
</g>
</g>
</svg>
