<?xml version="1.0" encoding="UTF-8" standalone="no"?>
<!DOCTYPE svg PUBLIC "-//W3C//DTD SVG 1.1//EN"
 "http://www.w3.org/Graphics/SVG/1.1/DTD/svg11.dtd">
<!-- Generated by graphviz version 2.36.0 (20140111.2315)
 -->
<!-- Title: userInterface.TopMenu.getMenuBar Pages: 1 -->
<svg width="538pt" height="38pt"
 viewBox="0.00 0.00 538.00 38.00" xmlns="http://www.w3.org/2000/svg" xmlns:xlink="http://www.w3.org/1999/xlink">
<g id="graph0" class="graph" transform="scale(1 1) rotate(0) translate(4 34)">
<title>userInterface.TopMenu.getMenuBar</title>
<polygon fill="white" stroke="none" points="-4,4 -4,-34 534,-34 534,4 -4,4"/>
<!-- Node1 -->
<g id="node1" class="node"><title>Node1</title>
<polygon fill="#bfbfbf" stroke="black" points="0.5,-0 0.5,-30 143.5,-30 143.5,-0 0.5,-0"/>
<text text-anchor="start" x="8.5" y="-18" font-family="Helvetica,sans-Serif" font-size="10.00">userInterface.TopMenu.get</text>
<text text-anchor="middle" x="72" y="-7" font-family="Helvetica,sans-Serif" font-size="10.00">MenuBar</text>
</g>
<!-- Node2 -->
<g id="node2" class="node"><title>Node2</title>
<g id="a_node2"><a xlink:href="../../d6/dce/classuser_interface_1_1_u_i_manager.html#af4b635ffad2c9d940376a3cb5684551b" target="_top" xlink:title="userInterface.UIManager.initialize">
<polygon fill="white" stroke="black" points="180.5,-5.5 180.5,-24.5 355.5,-24.5 355.5,-5.5 180.5,-5.5"/>
<text text-anchor="middle" x="268" y="-12.5" font-family="Helvetica,sans-Serif" font-size="10.00">userInterface.UIManager.initialize</text>
</a>
</g>
</g>
<!-- Node1&#45;&gt;Node2 -->
<g id="edge1" class="edge"><title>Node1&#45;&gt;Node2</title>
<path fill="none" stroke="midnightblue" d="M153.761,-15C162.514,-15 171.449,-15 180.269,-15"/>
<polygon fill="midnightblue" stroke="midnightblue" points="153.587,-11.5001 143.587,-15 153.587,-18.5001 153.587,-11.5001"/>
</g>
<!-- Node3 -->
<g id="node3" class="node"><title>Node3</title>
<g id="a_node3"><a xlink:href="../../d6/dce/classuser_interface_1_1_u_i_manager.html#afe957d9e6d2d7d741debbc3bfcd7d8ff" target="_top" xlink:title="userInterface.UIManager.\lUIManager">
<polygon fill="white" stroke="black" points="392.5,-0 392.5,-30 529.5,-30 529.5,-0 392.5,-0"/>
<text text-anchor="start" x="400.5" y="-18" font-family="Helvetica,sans-Serif" font-size="10.00">userInterface.UIManager.</text>
<text text-anchor="middle" x="461" y="-7" font-family="Helvetica,sans-Serif" font-size="10.00">UIManager</text>
</a>
</g>
</g>
<!-- Node2&#45;&gt;Node3 -->
<g id="edge2" class="edge"><title>Node2&#45;&gt;Node3</title>
<path fill="none" stroke="midnightblue" d="M365.708,-15C374.706,-15 383.691,-15 392.341,-15"/>
<polygon fill="midnightblue" stroke="midnightblue" points="365.559,-11.5001 355.559,-15 365.558,-18.5001 365.559,-11.5001"/>
</g>
</g>
</svg>
