<?xml version="1.0" encoding="UTF-8" standalone="no"?>
<!DOCTYPE svg PUBLIC "-//W3C//DTD SVG 1.1//EN"
 "http://www.w3.org/Graphics/SVG/1.1/DTD/svg11.dtd">
<!-- Generated by graphviz version 2.36.0 (20140111.2315)
 -->
<!-- Title: userInterface.TopMenu.createViewMenu Pages: 1 -->
<svg width="562pt" height="155pt"
 viewBox="0.00 0.00 562.00 155.00" xmlns="http://www.w3.org/2000/svg" xmlns:xlink="http://www.w3.org/1999/xlink">
<g id="graph0" class="graph" transform="scale(1 1) rotate(0) translate(4 151)">
<title>userInterface.TopMenu.createViewMenu</title>
<polygon fill="white" stroke="none" points="-4,4 -4,-151 558,-151 558,4 -4,4"/>
<!-- Node1 -->
<g id="node1" class="node"><title>Node1</title>
<polygon fill="#bfbfbf" stroke="black" points="0,-49 0,-79 158,-79 158,-49 0,-49"/>
<text text-anchor="start" x="8" y="-67" font-family="Helvetica,sans-Serif" font-size="10.00">userInterface.TopMenu.create</text>
<text text-anchor="middle" x="79" y="-56" font-family="Helvetica,sans-Serif" font-size="10.00">ViewMenu</text>
</g>
<!-- Node2 -->
<g id="node2" class="node"><title>Node2</title>
<g id="a_node2"><a xlink:href="../../d3/db5/classuser_interface_1_1_top_menu.html#a6910b4617ec06bd6ff657a326bc5414c" target="_top" xlink:title="userInterface.TopMenu.display\lColorPicker">
<polygon fill="white" stroke="black" points="194.5,-49 194.5,-79 355.5,-79 355.5,-49 194.5,-49"/>
<text text-anchor="start" x="202.5" y="-67" font-family="Helvetica,sans-Serif" font-size="10.00">userInterface.TopMenu.display</text>
<text text-anchor="middle" x="275" y="-56" font-family="Helvetica,sans-Serif" font-size="10.00">ColorPicker</text>
</a>
</g>
</g>
<!-- Node1&#45;&gt;Node2 -->
<g id="edge1" class="edge"><title>Node1&#45;&gt;Node2</title>
<path fill="none" stroke="midnightblue" d="M158.069,-64C166.62,-64 175.376,-64 184.055,-64"/>
<polygon fill="midnightblue" stroke="midnightblue" points="184.193,-67.5001 194.193,-64 184.193,-60.5001 184.193,-67.5001"/>
</g>
<!-- Node6 -->
<g id="node6" class="node"><title>Node6</title>
<g id="a_node6"><a xlink:href="../../d3/db5/classuser_interface_1_1_top_menu.html#a91967a0db57f7be18c876a79b405ad9f" target="_top" xlink:title="userInterface.TopMenu.display\lImagePicker">
<polygon fill="white" stroke="black" points="194.5,-0 194.5,-30 355.5,-30 355.5,-0 194.5,-0"/>
<text text-anchor="start" x="202.5" y="-18" font-family="Helvetica,sans-Serif" font-size="10.00">userInterface.TopMenu.display</text>
<text text-anchor="middle" x="275" y="-7" font-family="Helvetica,sans-Serif" font-size="10.00">ImagePicker</text>
</a>
</g>
</g>
<!-- Node1&#45;&gt;Node6 -->
<g id="edge5" class="edge"><title>Node1&#45;&gt;Node6</title>
<path fill="none" stroke="midnightblue" d="M139.525,-48.9654C160.102,-43.7682 183.337,-37.8994 204.634,-32.5204"/>
<polygon fill="midnightblue" stroke="midnightblue" points="205.749,-35.8486 214.588,-30.0062 204.035,-29.0617 205.749,-35.8486"/>
</g>
<!-- Node7 -->
<g id="node7" class="node"><title>Node7</title>
<g id="a_node7"><a xlink:href="../../d3/db5/classuser_interface_1_1_top_menu.html#a49c0c214e19d20a7888e3760802aaf5e" target="_top" xlink:title="userInterface.TopMenu.display\lPenEditor">
<polygon fill="white" stroke="black" points="194.5,-98 194.5,-128 355.5,-128 355.5,-98 194.5,-98"/>
<text text-anchor="start" x="202.5" y="-116" font-family="Helvetica,sans-Serif" font-size="10.00">userInterface.TopMenu.display</text>
<text text-anchor="middle" x="275" y="-105" font-family="Helvetica,sans-Serif" font-size="10.00">PenEditor</text>
</a>
</g>
</g>
<!-- Node1&#45;&gt;Node7 -->
<g id="edge6" class="edge"><title>Node1&#45;&gt;Node7</title>
<path fill="none" stroke="midnightblue" d="M139.525,-79.0346C160.102,-84.2318 183.337,-90.1006 204.634,-95.4796"/>
<polygon fill="midnightblue" stroke="midnightblue" points="204.035,-98.9383 214.588,-97.9938 205.749,-92.1514 204.035,-98.9383"/>
</g>
<!-- Node3 -->
<g id="node3" class="node"><title>Node3</title>
<g id="a_node3"><a xlink:href="../../d3/db5/classuser_interface_1_1_top_menu.html#a5a5ca2d16b2af30c61db4744a593a709" target="_top" xlink:title="userInterface.TopMenu.extract\lColor">
<polygon fill="white" stroke="black" points="392.5,-117 392.5,-147 553.5,-147 553.5,-117 392.5,-117"/>
<text text-anchor="start" x="400.5" y="-135" font-family="Helvetica,sans-Serif" font-size="10.00">userInterface.TopMenu.extract</text>
<text text-anchor="middle" x="473" y="-124" font-family="Helvetica,sans-Serif" font-size="10.00">Color</text>
</a>
</g>
</g>
<!-- Node2&#45;&gt;Node3 -->
<g id="edge2" class="edge"><title>Node2&#45;&gt;Node3</title>
<path fill="none" stroke="midnightblue" d="M328.497,-79.0767C337.753,-82.1105 347.228,-85.463 356,-89 372.591,-95.6895 375.409,-100.311 392,-107 397.757,-109.321 403.816,-111.563 409.917,-113.687"/>
<polygon fill="midnightblue" stroke="midnightblue" points="408.908,-117.04 419.503,-116.923 411.148,-110.408 408.908,-117.04"/>
</g>
<!-- Node4 -->
<g id="node4" class="node"><title>Node4</title>
<g id="a_node4"><a xlink:href="../../d3/db5/classuser_interface_1_1_top_menu.html#aaa39c0ed0953088b771fc02213fb0db0" target="_top" xlink:title="userInterface.TopMenu.display">
<polygon fill="white" stroke="black" points="392.5,-78.5 392.5,-97.5 553.5,-97.5 553.5,-78.5 392.5,-78.5"/>
<text text-anchor="middle" x="473" y="-85.5" font-family="Helvetica,sans-Serif" font-size="10.00">userInterface.TopMenu.display</text>
</a>
</g>
</g>
<!-- Node2&#45;&gt;Node4 -->
<g id="edge3" class="edge"><title>Node2&#45;&gt;Node4</title>
<path fill="none" stroke="midnightblue" d="M355.721,-73.7617C365.061,-74.9054 374.63,-76.0771 384.073,-77.2335"/>
<polygon fill="midnightblue" stroke="midnightblue" points="383.903,-80.7386 394.254,-78.4801 384.754,-73.7905 383.903,-80.7386"/>
</g>
<!-- Node5 -->
<g id="node5" class="node"><title>Node5</title>
<g id="a_node5"><a xlink:href="../../d3/db5/classuser_interface_1_1_top_menu.html#a98951700279e23e40fadbb31a809a885" target="_top" xlink:title="userInterface.TopMenu.create\lDisplayBox">
<polygon fill="white" stroke="black" points="394,-29 394,-59 552,-59 552,-29 394,-29"/>
<text text-anchor="start" x="402" y="-47" font-family="Helvetica,sans-Serif" font-size="10.00">userInterface.TopMenu.create</text>
<text text-anchor="middle" x="473" y="-36" font-family="Helvetica,sans-Serif" font-size="10.00">DisplayBox</text>
</a>
</g>
</g>
<!-- Node2&#45;&gt;Node5 -->
<g id="edge4" class="edge"><title>Node2&#45;&gt;Node5</title>
<path fill="none" stroke="midnightblue" d="M355.721,-55.8652C364.983,-54.9201 374.471,-53.952 383.837,-52.9962"/>
<polygon fill="midnightblue" stroke="midnightblue" points="384.344,-56.4627 393.937,-51.9656 383.634,-49.4989 384.344,-56.4627"/>
</g>
<!-- Node7&#45;&gt;Node3 -->
<g id="edge7" class="edge"><title>Node7&#45;&gt;Node3</title>
<path fill="none" stroke="midnightblue" d="M355.721,-120.728C364.499,-121.579 373.48,-122.45 382.369,-123.311"/>
<polygon fill="midnightblue" stroke="midnightblue" points="382.059,-126.798 392.35,-124.279 382.734,-119.83 382.059,-126.798"/>
</g>
<!-- Node7&#45;&gt;Node4 -->
<g id="edge8" class="edge"><title>Node7&#45;&gt;Node4</title>
<path fill="none" stroke="midnightblue" d="M355.721,-102.832C366.162,-101.5 376.89,-100.131 387.408,-98.7898"/>
<polygon fill="midnightblue" stroke="midnightblue" points="387.935,-102.251 397.412,-97.5138 387.049,-95.3073 387.935,-102.251"/>
</g>
<!-- Node7&#45;&gt;Node5 -->
<g id="edge9" class="edge"><title>Node7&#45;&gt;Node5</title>
<path fill="none" stroke="midnightblue" d="M328.99,-97.9428C338.102,-94.9283 347.402,-91.5772 356,-88 372.704,-81.0506 375.296,-75.9494 392,-69 397.508,-66.7083 403.304,-64.5095 409.154,-62.4325"/>
<polygon fill="midnightblue" stroke="midnightblue" points="410.683,-65.6085 419.01,-59.0572 408.415,-58.9861 410.683,-65.6085"/>
</g>
</g>
</svg>
