<?xml version="1.0" encoding="UTF-8" standalone="no"?>
<!DOCTYPE svg PUBLIC "-//W3C//DTD SVG 1.1//EN"
 "http://www.w3.org/Graphics/SVG/1.1/DTD/svg11.dtd">
<!-- Generated by graphviz version 2.36.0 (20140111.2315)
 -->
<!-- Title: userInterface.TopMenu.displayColorPicker Pages: 1 -->
<svg width="368pt" height="77pt"
 viewBox="0.00 0.00 368.00 77.00" xmlns="http://www.w3.org/2000/svg" xmlns:xlink="http://www.w3.org/1999/xlink">
<g id="graph0" class="graph" transform="scale(1 1) rotate(0) translate(4 73)">
<title>userInterface.TopMenu.displayColorPicker</title>
<polygon fill="white" stroke="none" points="-4,4 -4,-73 364,-73 364,4 -4,4"/>
<!-- Node1 -->
<g id="node1" class="node"><title>Node1</title>
<polygon fill="#bfbfbf" stroke="black" points="0.5,-17 0.5,-47 161.5,-47 161.5,-17 0.5,-17"/>
<text text-anchor="start" x="8.5" y="-35" font-family="Helvetica,sans-Serif" font-size="10.00">userInterface.TopMenu.display</text>
<text text-anchor="middle" x="81" y="-24" font-family="Helvetica,sans-Serif" font-size="10.00">ColorPicker</text>
</g>
<!-- Node2 -->
<g id="node2" class="node"><title>Node2</title>
<g id="a_node2"><a xlink:href="../../d3/db5/classuser_interface_1_1_top_menu.html#a98951700279e23e40fadbb31a809a885" target="_top" xlink:title="userInterface.TopMenu.create\lDisplayBox">
<polygon fill="white" stroke="black" points="200,-39 200,-69 358,-69 358,-39 200,-39"/>
<text text-anchor="start" x="208" y="-57" font-family="Helvetica,sans-Serif" font-size="10.00">userInterface.TopMenu.create</text>
<text text-anchor="middle" x="279" y="-46" font-family="Helvetica,sans-Serif" font-size="10.00">DisplayBox</text>
</a>
</g>
</g>
<!-- Node1&#45;&gt;Node2 -->
<g id="edge1" class="edge"><title>Node1&#45;&gt;Node2</title>
<path fill="none" stroke="midnightblue" d="M161.721,-40.9482C170.983,-41.9879 180.471,-43.0528 189.837,-44.1042"/>
<polygon fill="midnightblue" stroke="midnightblue" points="189.609,-47.6005 199.937,-45.2379 190.39,-40.6442 189.609,-47.6005"/>
</g>
<!-- Node3 -->
<g id="node3" class="node"><title>Node3</title>
<g id="a_node3"><a xlink:href="../../d3/db5/classuser_interface_1_1_top_menu.html#aaa39c0ed0953088b771fc02213fb0db0" target="_top" xlink:title="userInterface.TopMenu.display">
<polygon fill="white" stroke="black" points="198.5,-0.5 198.5,-19.5 359.5,-19.5 359.5,-0.5 198.5,-0.5"/>
<text text-anchor="middle" x="279" y="-7.5" font-family="Helvetica,sans-Serif" font-size="10.00">userInterface.TopMenu.display</text>
</a>
</g>
</g>
<!-- Node1&#45;&gt;Node3 -->
<g id="edge2" class="edge"><title>Node1&#45;&gt;Node3</title>
<path fill="none" stroke="midnightblue" d="M161.721,-23.0518C170.499,-22.0664 179.48,-21.0583 188.369,-20.0606"/>
<polygon fill="midnightblue" stroke="midnightblue" points="188.803,-23.534 198.35,-18.9403 188.022,-16.5777 188.803,-23.534"/>
</g>
</g>
</svg>
