<?xml version="1.0" encoding="UTF-8" standalone="no"?>
<!DOCTYPE svg PUBLIC "-//W3C//DTD SVG 1.1//EN"
 "http://www.w3.org/Graphics/SVG/1.1/DTD/svg11.dtd">
<!-- Generated by graphviz version 2.36.0 (20140111.2315)
 -->
<!-- Title: userInterface.TopMenu.initialize Pages: 1 -->
<svg width="764pt" height="283pt"
 viewBox="0.00 0.00 764.00 283.00" xmlns="http://www.w3.org/2000/svg" xmlns:xlink="http://www.w3.org/1999/xlink">
<g id="graph0" class="graph" transform="scale(1 1) rotate(0) translate(4 279)">
<title>userInterface.TopMenu.initialize</title>
<polygon fill="white" stroke="none" points="-4,4 -4,-279 760,-279 760,4 -4,4"/>
<!-- Node1 -->
<g id="node1" class="node"><title>Node1</title>
<polygon fill="#bfbfbf" stroke="black" points="0,-152.5 0,-171.5 166,-171.5 166,-152.5 0,-152.5"/>
<text text-anchor="middle" x="83" y="-159.5" font-family="Helvetica,sans-Serif" font-size="10.00">userInterface.TopMenu.initialize</text>
</g>
<!-- Node2 -->
<g id="node2" class="node"><title>Node2</title>
<g id="a_node2"><a xlink:href="../../d3/db5/classuser_interface_1_1_top_menu.html#ab806f0e3f0ac28bd22d0b3dc5617c2e2" target="_top" xlink:title="userInterface.TopMenu.create\lEditMenu">
<polygon fill="white" stroke="black" points="202,-245 202,-275 360,-275 360,-245 202,-245"/>
<text text-anchor="start" x="210" y="-263" font-family="Helvetica,sans-Serif" font-size="10.00">userInterface.TopMenu.create</text>
<text text-anchor="middle" x="281" y="-252" font-family="Helvetica,sans-Serif" font-size="10.00">EditMenu</text>
</a>
</g>
</g>
<!-- Node1&#45;&gt;Node2 -->
<g id="edge1" class="edge"><title>Node1&#45;&gt;Node2</title>
<path fill="none" stroke="midnightblue" d="M97.1999,-171.67C118.4,-186.847 161.749,-216.438 202,-235 206.923,-237.27 212.11,-239.419 217.373,-241.432"/>
<polygon fill="midnightblue" stroke="midnightblue" points="216.293,-244.763 226.887,-244.905 218.693,-238.188 216.293,-244.763"/>
</g>
<!-- Node3 -->
<g id="node3" class="node"><title>Node3</title>
<g id="a_node3"><a xlink:href="../../d3/db5/classuser_interface_1_1_top_menu.html#a7f7fb464630b5835b47aeff14e725c3d" target="_top" xlink:title="userInterface.TopMenu.create\lFileMenu">
<polygon fill="white" stroke="black" points="202,-196 202,-226 360,-226 360,-196 202,-196"/>
<text text-anchor="start" x="210" y="-214" font-family="Helvetica,sans-Serif" font-size="10.00">userInterface.TopMenu.create</text>
<text text-anchor="middle" x="281" y="-203" font-family="Helvetica,sans-Serif" font-size="10.00">FileMenu</text>
</a>
</g>
</g>
<!-- Node1&#45;&gt;Node3 -->
<g id="edge2" class="edge"><title>Node1&#45;&gt;Node3</title>
<path fill="none" stroke="midnightblue" d="M122.256,-171.564C147.179,-177.795 180.437,-186.109 209.99,-193.497"/>
<polygon fill="midnightblue" stroke="midnightblue" points="209.302,-196.933 219.852,-195.963 211,-190.142 209.302,-196.933"/>
</g>
<!-- Node4 -->
<g id="node4" class="node"><title>Node4</title>
<g id="a_node4"><a xlink:href="../../d3/db5/classuser_interface_1_1_top_menu.html#ac1752b41fa0043dd563c61a37950d8f0" target="_top" xlink:title="userInterface.TopMenu.create\lHelpMenu">
<polygon fill="white" stroke="black" points="202,-147 202,-177 360,-177 360,-147 202,-147"/>
<text text-anchor="start" x="210" y="-165" font-family="Helvetica,sans-Serif" font-size="10.00">userInterface.TopMenu.create</text>
<text text-anchor="middle" x="281" y="-154" font-family="Helvetica,sans-Serif" font-size="10.00">HelpMenu</text>
</a>
</g>
</g>
<!-- Node1&#45;&gt;Node4 -->
<g id="edge3" class="edge"><title>Node1&#45;&gt;Node4</title>
<path fill="none" stroke="midnightblue" d="M166.27,-162C174.611,-162 183.109,-162 191.513,-162"/>
<polygon fill="midnightblue" stroke="midnightblue" points="191.699,-165.5 201.699,-162 191.699,-158.5 191.699,-165.5"/>
</g>
<!-- Node7 -->
<g id="node7" class="node"><title>Node7</title>
<g id="a_node7"><a xlink:href="../../d3/db5/classuser_interface_1_1_top_menu.html#a615e9becb74842886f068eb7568ea566" target="_top" xlink:title="userInterface.TopMenu.create\lPreferencesMenu">
<polygon fill="white" stroke="black" points="202,-25 202,-55 360,-55 360,-25 202,-25"/>
<text text-anchor="start" x="210" y="-43" font-family="Helvetica,sans-Serif" font-size="10.00">userInterface.TopMenu.create</text>
<text text-anchor="middle" x="281" y="-32" font-family="Helvetica,sans-Serif" font-size="10.00">PreferencesMenu</text>
</a>
</g>
</g>
<!-- Node1&#45;&gt;Node7 -->
<g id="edge6" class="edge"><title>Node1&#45;&gt;Node7</title>
<path fill="none" stroke="midnightblue" d="M99.2491,-152.38C121.71,-138.222 165.027,-110.969 202,-88 216.625,-78.9146 232.832,-68.9274 246.668,-60.4268"/>
<polygon fill="midnightblue" stroke="midnightblue" points="248.686,-63.2949 255.376,-55.0797 245.023,-57.3296 248.686,-63.2949"/>
</g>
<!-- Node10 -->
<g id="node10" class="node"><title>Node10</title>
<g id="a_node10"><a xlink:href="../../d3/db5/classuser_interface_1_1_top_menu.html#a3c7e48f77845e898ca1b323a326bfbc7" target="_top" xlink:title="userInterface.TopMenu.create\lViewMenu">
<polygon fill="white" stroke="black" points="202,-98 202,-128 360,-128 360,-98 202,-98"/>
<text text-anchor="start" x="210" y="-116" font-family="Helvetica,sans-Serif" font-size="10.00">userInterface.TopMenu.create</text>
<text text-anchor="middle" x="281" y="-105" font-family="Helvetica,sans-Serif" font-size="10.00">ViewMenu</text>
</a>
</g>
</g>
<!-- Node1&#45;&gt;Node10 -->
<g id="edge10" class="edge"><title>Node1&#45;&gt;Node10</title>
<path fill="none" stroke="midnightblue" d="M122.256,-152.436C147.179,-146.205 180.437,-137.891 209.99,-130.503"/>
<polygon fill="midnightblue" stroke="midnightblue" points="211,-133.858 219.852,-128.037 209.302,-127.067 211,-133.858"/>
</g>
<!-- Node5 -->
<g id="node5" class="node"><title>Node5</title>
<g id="a_node5"><a xlink:href="../../d3/db5/classuser_interface_1_1_top_menu.html#a598a940cfabeb95d605504b823fdf51e" target="_top" xlink:title="userInterface.TopMenu.display\lWebpage">
<polygon fill="white" stroke="black" points="396.5,-196 396.5,-226 557.5,-226 557.5,-196 396.5,-196"/>
<text text-anchor="start" x="404.5" y="-214" font-family="Helvetica,sans-Serif" font-size="10.00">userInterface.TopMenu.display</text>
<text text-anchor="middle" x="477" y="-203" font-family="Helvetica,sans-Serif" font-size="10.00">Webpage</text>
</a>
</g>
</g>
<!-- Node4&#45;&gt;Node5 -->
<g id="edge4" class="edge"><title>Node4&#45;&gt;Node5</title>
<path fill="none" stroke="midnightblue" d="M341.525,-177.035C362.102,-182.232 385.337,-188.101 406.634,-193.48"/>
<polygon fill="midnightblue" stroke="midnightblue" points="406.035,-196.938 416.588,-195.994 407.749,-190.151 406.035,-196.938"/>
</g>
<!-- Node6 -->
<g id="node6" class="node"><title>Node6</title>
<g id="a_node6"><a xlink:href="../../d3/db5/classuser_interface_1_1_top_menu.html#aaa39c0ed0953088b771fc02213fb0db0" target="_top" xlink:title="userInterface.TopMenu.display">
<polygon fill="white" stroke="black" points="594.5,-100.5 594.5,-119.5 755.5,-119.5 755.5,-100.5 594.5,-100.5"/>
<text text-anchor="middle" x="675" y="-107.5" font-family="Helvetica,sans-Serif" font-size="10.00">userInterface.TopMenu.display</text>
</a>
</g>
</g>
<!-- Node5&#45;&gt;Node6 -->
<g id="edge5" class="edge"><title>Node5&#45;&gt;Node6</title>
<path fill="none" stroke="midnightblue" d="M533.421,-195.888C541.804,-192.973 550.238,-189.668 558,-186 593.744,-169.109 631.359,-142.619 653.739,-125.793"/>
<polygon fill="midnightblue" stroke="midnightblue" points="655.971,-128.492 661.806,-119.648 651.73,-122.923 655.971,-128.492"/>
</g>
<!-- Node8 -->
<g id="node8" class="node"><title>Node8</title>
<g id="a_node8"><a xlink:href="../../d3/db5/classuser_interface_1_1_top_menu.html#ad380d5d5985954bdd9ef1e03af03a8c1" target="_top" xlink:title="userInterface.TopMenu.display\lLanguageSelector">
<polygon fill="white" stroke="black" points="396.5,-0 396.5,-30 557.5,-30 557.5,-0 396.5,-0"/>
<text text-anchor="start" x="404.5" y="-18" font-family="Helvetica,sans-Serif" font-size="10.00">userInterface.TopMenu.display</text>
<text text-anchor="middle" x="477" y="-7" font-family="Helvetica,sans-Serif" font-size="10.00">LanguageSelector</text>
</a>
</g>
</g>
<!-- Node7&#45;&gt;Node8 -->
<g id="edge7" class="edge"><title>Node7&#45;&gt;Node8</title>
<path fill="none" stroke="midnightblue" d="M360.069,-29.9396C368.62,-28.8376 377.376,-27.7093 386.055,-26.5908"/>
<polygon fill="midnightblue" stroke="midnightblue" points="386.723,-30.0338 396.193,-25.2844 385.828,-23.0912 386.723,-30.0338"/>
</g>
<!-- Node8&#45;&gt;Node6 -->
<g id="edge9" class="edge"><title>Node8&#45;&gt;Node6</title>
<path fill="none" stroke="midnightblue" d="M542.221,-30.0993C547.788,-32.6285 553.142,-35.5732 558,-39 580.083,-54.5762 571.739,-72.6798 594,-88 598.941,-91.4005 604.391,-94.2768 610.054,-96.7095"/>
<polygon fill="midnightblue" stroke="midnightblue" points="609.143,-100.108 619.734,-100.399 611.636,-93.5666 609.143,-100.108"/>
</g>
<!-- Node9 -->
<g id="node9" class="node"><title>Node9</title>
<g id="a_node9"><a xlink:href="../../d3/db5/classuser_interface_1_1_top_menu.html#a98951700279e23e40fadbb31a809a885" target="_top" xlink:title="userInterface.TopMenu.create\lDisplayBox">
<polygon fill="white" stroke="black" points="596,-49 596,-79 754,-79 754,-49 596,-49"/>
<text text-anchor="start" x="604" y="-67" font-family="Helvetica,sans-Serif" font-size="10.00">userInterface.TopMenu.create</text>
<text text-anchor="middle" x="675" y="-56" font-family="Helvetica,sans-Serif" font-size="10.00">DisplayBox</text>
</a>
</g>
</g>
<!-- Node8&#45;&gt;Node9 -->
<g id="edge8" class="edge"><title>Node8&#45;&gt;Node9</title>
<path fill="none" stroke="midnightblue" d="M538.138,-30.0346C559.021,-35.2554 582.615,-41.1537 604.21,-46.5526"/>
<polygon fill="midnightblue" stroke="midnightblue" points="603.425,-49.9639 613.975,-48.9938 605.123,-43.1729 603.425,-49.9639"/>
</g>
<!-- Node11 -->
<g id="node11" class="node"><title>Node11</title>
<g id="a_node11"><a xlink:href="../../d3/db5/classuser_interface_1_1_top_menu.html#a6910b4617ec06bd6ff657a326bc5414c" target="_top" xlink:title="userInterface.TopMenu.display\lColorPicker">
<polygon fill="white" stroke="black" points="396.5,-49 396.5,-79 557.5,-79 557.5,-49 396.5,-49"/>
<text text-anchor="start" x="404.5" y="-67" font-family="Helvetica,sans-Serif" font-size="10.00">userInterface.TopMenu.display</text>
<text text-anchor="middle" x="477" y="-56" font-family="Helvetica,sans-Serif" font-size="10.00">ColorPicker</text>
</a>
</g>
</g>
<!-- Node10&#45;&gt;Node11 -->
<g id="edge11" class="edge"><title>Node10&#45;&gt;Node11</title>
<path fill="none" stroke="midnightblue" d="M341.525,-97.9654C362.102,-92.7682 385.337,-86.8994 406.634,-81.5204"/>
<polygon fill="midnightblue" stroke="midnightblue" points="407.749,-84.8486 416.588,-79.0062 406.035,-78.0617 407.749,-84.8486"/>
</g>
<!-- Node12 -->
<g id="node12" class="node"><title>Node12</title>
<g id="a_node12"><a xlink:href="../../d3/db5/classuser_interface_1_1_top_menu.html#a91967a0db57f7be18c876a79b405ad9f" target="_top" xlink:title="userInterface.TopMenu.display\lImagePicker">
<polygon fill="white" stroke="black" points="396.5,-147 396.5,-177 557.5,-177 557.5,-147 396.5,-147"/>
<text text-anchor="start" x="404.5" y="-165" font-family="Helvetica,sans-Serif" font-size="10.00">userInterface.TopMenu.display</text>
<text text-anchor="middle" x="477" y="-154" font-family="Helvetica,sans-Serif" font-size="10.00">ImagePicker</text>
</a>
</g>
</g>
<!-- Node10&#45;&gt;Node12 -->
<g id="edge14" class="edge"><title>Node10&#45;&gt;Node12</title>
<path fill="none" stroke="midnightblue" d="M341.525,-128.035C362.102,-133.232 385.337,-139.101 406.634,-144.48"/>
<polygon fill="midnightblue" stroke="midnightblue" points="406.035,-147.938 416.588,-146.994 407.749,-141.151 406.035,-147.938"/>
</g>
<!-- Node13 -->
<g id="node13" class="node"><title>Node13</title>
<g id="a_node13"><a xlink:href="../../d3/db5/classuser_interface_1_1_top_menu.html#a49c0c214e19d20a7888e3760802aaf5e" target="_top" xlink:title="userInterface.TopMenu.display\lPenEditor">
<polygon fill="white" stroke="black" points="396.5,-98 396.5,-128 557.5,-128 557.5,-98 396.5,-98"/>
<text text-anchor="start" x="404.5" y="-116" font-family="Helvetica,sans-Serif" font-size="10.00">userInterface.TopMenu.display</text>
<text text-anchor="middle" x="477" y="-105" font-family="Helvetica,sans-Serif" font-size="10.00">PenEditor</text>
</a>
</g>
</g>
<!-- Node10&#45;&gt;Node13 -->
<g id="edge15" class="edge"><title>Node10&#45;&gt;Node13</title>
<path fill="none" stroke="midnightblue" d="M360.069,-113C368.62,-113 377.376,-113 386.055,-113"/>
<polygon fill="midnightblue" stroke="midnightblue" points="386.193,-116.5 396.193,-113 386.193,-109.5 386.193,-116.5"/>
</g>
<!-- Node11&#45;&gt;Node6 -->
<g id="edge13" class="edge"><title>Node11&#45;&gt;Node6</title>
<path fill="none" stroke="midnightblue" d="M542.178,-79.0621C568.573,-85.257 598.7,-92.3276 623.484,-98.1442"/>
<polygon fill="midnightblue" stroke="midnightblue" points="622.865,-101.594 633.4,-100.471 624.464,-94.779 622.865,-101.594"/>
</g>
<!-- Node11&#45;&gt;Node9 -->
<g id="edge12" class="edge"><title>Node11&#45;&gt;Node9</title>
<path fill="none" stroke="midnightblue" d="M557.721,-64C566.983,-64 576.471,-64 585.837,-64"/>
<polygon fill="midnightblue" stroke="midnightblue" points="585.937,-67.5001 595.937,-64 585.937,-60.5001 585.937,-67.5001"/>
</g>
<!-- Node13&#45;&gt;Node6 -->
<g id="edge17" class="edge"><title>Node13&#45;&gt;Node6</title>
<path fill="none" stroke="midnightblue" d="M557.721,-111.78C566.405,-111.647 575.287,-111.511 584.082,-111.376"/>
<polygon fill="midnightblue" stroke="midnightblue" points="584.405,-114.872 594.35,-111.219 584.298,-107.873 584.405,-114.872"/>
</g>
<!-- Node13&#45;&gt;Node9 -->
<g id="edge16" class="edge"><title>Node13&#45;&gt;Node9</title>
<path fill="none" stroke="midnightblue" d="M538.138,-97.9654C559.021,-92.7446 582.615,-86.8463 604.21,-81.4474"/>
<polygon fill="midnightblue" stroke="midnightblue" points="605.123,-84.8271 613.975,-79.0062 603.425,-78.0361 605.123,-84.8271"/>
</g>
</g>
</svg>
