<?xml version="1.0" encoding="UTF-8" standalone="no"?>
<!DOCTYPE svg PUBLIC "-//W3C//DTD SVG 1.1//EN"
 "http://www.w3.org/Graphics/SVG/1.1/DTD/svg11.dtd">
<!-- Generated by graphviz version 2.36.0 (20140111.2315)
 -->
<!-- Title: userInterface.TopMenu.displayColorPicker Pages: 1 -->
<svg width="368pt" height="126pt"
 viewBox="0.00 0.00 368.00 126.00" xmlns="http://www.w3.org/2000/svg" xmlns:xlink="http://www.w3.org/1999/xlink">
<g id="graph0" class="graph" transform="scale(1 1) rotate(0) translate(4 122)">
<title>userInterface.TopMenu.displayColorPicker</title>
<polygon fill="white" stroke="none" points="-4,4 -4,-122 364,-122 364,4 -4,4"/>
<!-- Node1 -->
<g id="node1" class="node"><title>Node1</title>
<polygon fill="#bfbfbf" stroke="black" points="0.5,-44 0.5,-74 161.5,-74 161.5,-44 0.5,-44"/>
<text text-anchor="start" x="8.5" y="-62" font-family="Helvetica,sans-Serif" font-size="10.00">userInterface.TopMenu.display</text>
<text text-anchor="middle" x="81" y="-51" font-family="Helvetica,sans-Serif" font-size="10.00">ColorPicker</text>
</g>
<!-- Node2 -->
<g id="node2" class="node"><title>Node2</title>
<g id="a_node2"><a xlink:href="../../d3/db5/classuser_interface_1_1_top_menu.html#a98951700279e23e40fadbb31a809a885" target="_top" xlink:title="userInterface.TopMenu.create\lDisplayBox">
<polygon fill="white" stroke="black" points="200,-88 200,-118 358,-118 358,-88 200,-88"/>
<text text-anchor="start" x="208" y="-106" font-family="Helvetica,sans-Serif" font-size="10.00">userInterface.TopMenu.create</text>
<text text-anchor="middle" x="279" y="-95" font-family="Helvetica,sans-Serif" font-size="10.00">DisplayBox</text>
</a>
</g>
</g>
<!-- Node1&#45;&gt;Node2 -->
<g id="edge1" class="edge"><title>Node1&#45;&gt;Node2</title>
<path fill="none" stroke="midnightblue" d="M148.904,-74.0192C165.683,-77.786 183.819,-81.8574 201.045,-85.7244"/>
<polygon fill="midnightblue" stroke="midnightblue" points="200.541,-89.1983 211.065,-87.9738 202.075,-82.3683 200.541,-89.1983"/>
</g>
<!-- Node3 -->
<g id="node3" class="node"><title>Node3</title>
<g id="a_node3"><a xlink:href="../../d3/db5/classuser_interface_1_1_top_menu.html#aaa39c0ed0953088b771fc02213fb0db0" target="_top" xlink:title="userInterface.TopMenu.display">
<polygon fill="white" stroke="black" points="198.5,-49.5 198.5,-68.5 359.5,-68.5 359.5,-49.5 198.5,-49.5"/>
<text text-anchor="middle" x="279" y="-56.5" font-family="Helvetica,sans-Serif" font-size="10.00">userInterface.TopMenu.display</text>
</a>
</g>
</g>
<!-- Node1&#45;&gt;Node3 -->
<g id="edge2" class="edge"><title>Node1&#45;&gt;Node3</title>
<path fill="none" stroke="midnightblue" d="M161.721,-59C170.405,-59 179.287,-59 188.082,-59"/>
<polygon fill="midnightblue" stroke="midnightblue" points="188.35,-62.5001 198.35,-59 188.35,-55.5001 188.35,-62.5001"/>
</g>
<!-- Node4 -->
<g id="node4" class="node"><title>Node4</title>
<g id="a_node4"><a xlink:href="../../d3/db5/classuser_interface_1_1_top_menu.html#a5a5ca2d16b2af30c61db4744a593a709" target="_top" xlink:title="userInterface.TopMenu.extract\lColor">
<polygon fill="white" stroke="black" points="198.5,-0 198.5,-30 359.5,-30 359.5,-0 198.5,-0"/>
<text text-anchor="start" x="206.5" y="-18" font-family="Helvetica,sans-Serif" font-size="10.00">userInterface.TopMenu.extract</text>
<text text-anchor="middle" x="279" y="-7" font-family="Helvetica,sans-Serif" font-size="10.00">Color</text>
</a>
</g>
</g>
<!-- Node1&#45;&gt;Node4 -->
<g id="edge3" class="edge"><title>Node1&#45;&gt;Node4</title>
<path fill="none" stroke="midnightblue" d="M148.904,-43.9808C165.683,-40.214 183.819,-36.1426 201.045,-32.2756"/>
<polygon fill="midnightblue" stroke="midnightblue" points="202.075,-35.6317 211.065,-30.0262 200.541,-28.8017 202.075,-35.6317"/>
</g>
</g>
</svg>
