<?xml version="1.0" encoding="UTF-8" standalone="no"?>
<!DOCTYPE svg PUBLIC "-//W3C//DTD SVG 1.1//EN"
 "http://www.w3.org/Graphics/SVG/1.1/DTD/svg11.dtd">
<!-- Generated by graphviz version 2.36.0 (20140111.2315)
 -->
<!-- Title: userInterface.TopMenu.createDisplayBox Pages: 1 -->
<svg width="966pt" height="136pt"
 viewBox="0.00 0.00 966.00 136.00" xmlns="http://www.w3.org/2000/svg" xmlns:xlink="http://www.w3.org/1999/xlink">
<g id="graph0" class="graph" transform="scale(1 1) rotate(0) translate(4 132)">
<title>userInterface.TopMenu.createDisplayBox</title>
<polygon fill="white" stroke="none" points="-4,4 -4,-132 962,-132 962,4 -4,4"/>
<!-- Node1 -->
<g id="node1" class="node"><title>Node1</title>
<polygon fill="#bfbfbf" stroke="black" points="0,-49 0,-79 158,-79 158,-49 0,-49"/>
<text text-anchor="start" x="8" y="-67" font-family="Helvetica,sans-Serif" font-size="10.00">userInterface.TopMenu.create</text>
<text text-anchor="middle" x="79" y="-56" font-family="Helvetica,sans-Serif" font-size="10.00">DisplayBox</text>
</g>
<!-- Node2 -->
<g id="node2" class="node"><title>Node2</title>
<g id="a_node2"><a xlink:href="../../d3/db5/classuser_interface_1_1_top_menu.html#a6910b4617ec06bd6ff657a326bc5414c" target="_top" xlink:title="userInterface.TopMenu.display\lColorPicker">
<polygon fill="white" stroke="black" points="194.5,-98 194.5,-128 355.5,-128 355.5,-98 194.5,-98"/>
<text text-anchor="start" x="202.5" y="-116" font-family="Helvetica,sans-Serif" font-size="10.00">userInterface.TopMenu.display</text>
<text text-anchor="middle" x="275" y="-105" font-family="Helvetica,sans-Serif" font-size="10.00">ColorPicker</text>
</a>
</g>
</g>
<!-- Node1&#45;&gt;Node2 -->
<g id="edge1" class="edge"><title>Node1&#45;&gt;Node2</title>
<path fill="none" stroke="midnightblue" d="M149.483,-81.5498C170.787,-86.9306 194.021,-92.799 214.588,-97.9938"/>
<polygon fill="midnightblue" stroke="midnightblue" points="150.077,-78.0901 139.525,-79.0346 148.363,-84.877 150.077,-78.0901"/>
</g>
<!-- Node6 -->
<g id="node6" class="node"><title>Node6</title>
<g id="a_node6"><a xlink:href="../../d3/db5/classuser_interface_1_1_top_menu.html#ad380d5d5985954bdd9ef1e03af03a8c1" target="_top" xlink:title="userInterface.TopMenu.display\lLanguageSelector">
<polygon fill="white" stroke="black" points="194.5,-0 194.5,-30 355.5,-30 355.5,-0 194.5,-0"/>
<text text-anchor="start" x="202.5" y="-18" font-family="Helvetica,sans-Serif" font-size="10.00">userInterface.TopMenu.display</text>
<text text-anchor="middle" x="275" y="-7" font-family="Helvetica,sans-Serif" font-size="10.00">LanguageSelector</text>
</a>
</g>
</g>
<!-- Node1&#45;&gt;Node6 -->
<g id="edge5" class="edge"><title>Node1&#45;&gt;Node6</title>
<path fill="none" stroke="midnightblue" d="M149.483,-46.4502C170.787,-41.0694 194.021,-35.201 214.588,-30.0062"/>
<polygon fill="midnightblue" stroke="midnightblue" points="148.363,-43.123 139.525,-48.9654 150.077,-49.9099 148.363,-43.123"/>
</g>
<!-- Node8 -->
<g id="node8" class="node"><title>Node8</title>
<g id="a_node8"><a xlink:href="../../d3/db5/classuser_interface_1_1_top_menu.html#a49c0c214e19d20a7888e3760802aaf5e" target="_top" xlink:title="userInterface.TopMenu.display\lPenEditor">
<polygon fill="white" stroke="black" points="194.5,-49 194.5,-79 355.5,-79 355.5,-49 194.5,-49"/>
<text text-anchor="start" x="202.5" y="-67" font-family="Helvetica,sans-Serif" font-size="10.00">userInterface.TopMenu.display</text>
<text text-anchor="middle" x="275" y="-56" font-family="Helvetica,sans-Serif" font-size="10.00">PenEditor</text>
</a>
</g>
</g>
<!-- Node1&#45;&gt;Node8 -->
<g id="edge8" class="edge"><title>Node1&#45;&gt;Node8</title>
<path fill="none" stroke="midnightblue" d="M168.184,-64C176.853,-64 185.616,-64 194.193,-64"/>
<polygon fill="midnightblue" stroke="midnightblue" points="168.069,-60.5001 158.069,-64 168.069,-67.5001 168.069,-60.5001"/>
</g>
<!-- Node3 -->
<g id="node3" class="node"><title>Node3</title>
<g id="a_node3"><a xlink:href="../../d3/db5/classuser_interface_1_1_top_menu.html#a3c7e48f77845e898ca1b323a326bfbc7" target="_top" xlink:title="userInterface.TopMenu.create\lViewMenu">
<polygon fill="white" stroke="black" points="392,-49 392,-79 550,-79 550,-49 392,-49"/>
<text text-anchor="start" x="400" y="-67" font-family="Helvetica,sans-Serif" font-size="10.00">userInterface.TopMenu.create</text>
<text text-anchor="middle" x="471" y="-56" font-family="Helvetica,sans-Serif" font-size="10.00">ViewMenu</text>
</a>
</g>
</g>
<!-- Node2&#45;&gt;Node3 -->
<g id="edge2" class="edge"><title>Node2&#45;&gt;Node3</title>
<path fill="none" stroke="midnightblue" d="M345.483,-95.4502C366.787,-90.0694 390.021,-84.201 410.588,-79.0062"/>
<polygon fill="midnightblue" stroke="midnightblue" points="344.363,-92.123 335.525,-97.9654 346.077,-98.9099 344.363,-92.123"/>
</g>
<!-- Node4 -->
<g id="node4" class="node"><title>Node4</title>
<g id="a_node4"><a xlink:href="../../d3/db5/classuser_interface_1_1_top_menu.html#ace1bd33e7703ae3c33aaea60006ec270" target="_top" xlink:title="userInterface.TopMenu.initialize">
<polygon fill="white" stroke="black" points="586,-29.5 586,-48.5 752,-48.5 752,-29.5 586,-29.5"/>
<text text-anchor="middle" x="669" y="-36.5" font-family="Helvetica,sans-Serif" font-size="10.00">userInterface.TopMenu.initialize</text>
</a>
</g>
</g>
<!-- Node3&#45;&gt;Node4 -->
<g id="edge3" class="edge"><title>Node3&#45;&gt;Node4</title>
<path fill="none" stroke="midnightblue" d="M560.167,-52.7542C571.278,-51.337 582.559,-49.8981 593.431,-48.5113"/>
<polygon fill="midnightblue" stroke="midnightblue" points="559.504,-49.3103 550.028,-54.0475 560.39,-56.254 559.504,-49.3103"/>
</g>
<!-- Node5 -->
<g id="node5" class="node"><title>Node5</title>
<g id="a_node5"><a xlink:href="../../d3/db5/classuser_interface_1_1_top_menu.html#aa1dbab0606dea6e828e86cb8f993efe2" target="_top" xlink:title="userInterface.TopMenu.TopMenu">
<polygon fill="white" stroke="black" points="788,-29.5 788,-48.5 958,-48.5 958,-29.5 788,-29.5"/>
<text text-anchor="middle" x="873" y="-36.5" font-family="Helvetica,sans-Serif" font-size="10.00">userInterface.TopMenu.TopMenu</text>
</a>
</g>
</g>
<!-- Node4&#45;&gt;Node5 -->
<g id="edge4" class="edge"><title>Node4&#45;&gt;Node5</title>
<path fill="none" stroke="midnightblue" d="M762.184,-39C770.768,-39 779.438,-39 787.943,-39"/>
<polygon fill="midnightblue" stroke="midnightblue" points="762.161,-35.5001 752.161,-39 762.161,-42.5001 762.161,-35.5001"/>
</g>
<!-- Node7 -->
<g id="node7" class="node"><title>Node7</title>
<g id="a_node7"><a xlink:href="../../d3/db5/classuser_interface_1_1_top_menu.html#a615e9becb74842886f068eb7568ea566" target="_top" xlink:title="userInterface.TopMenu.create\lPreferencesMenu">
<polygon fill="white" stroke="black" points="392,-0 392,-30 550,-30 550,-0 392,-0"/>
<text text-anchor="start" x="400" y="-18" font-family="Helvetica,sans-Serif" font-size="10.00">userInterface.TopMenu.create</text>
<text text-anchor="middle" x="471" y="-7" font-family="Helvetica,sans-Serif" font-size="10.00">PreferencesMenu</text>
</a>
</g>
</g>
<!-- Node6&#45;&gt;Node7 -->
<g id="edge6" class="edge"><title>Node6&#45;&gt;Node7</title>
<path fill="none" stroke="midnightblue" d="M365.868,-15C374.533,-15 383.275,-15 391.815,-15"/>
<polygon fill="midnightblue" stroke="midnightblue" points="365.747,-11.5001 355.747,-15 365.747,-18.5001 365.747,-11.5001"/>
</g>
<!-- Node7&#45;&gt;Node4 -->
<g id="edge7" class="edge"><title>Node7&#45;&gt;Node4</title>
<path fill="none" stroke="midnightblue" d="M560.035,-25.7798C570.106,-27.0129 580.318,-28.2634 590.241,-29.4785"/>
<polygon fill="midnightblue" stroke="midnightblue" points="560.379,-22.2958 550.028,-24.5544 559.528,-29.2439 560.379,-22.2958"/>
</g>
<!-- Node8&#45;&gt;Node3 -->
<g id="edge9" class="edge"><title>Node8&#45;&gt;Node3</title>
<path fill="none" stroke="midnightblue" d="M365.868,-64C374.533,-64 383.275,-64 391.815,-64"/>
<polygon fill="midnightblue" stroke="midnightblue" points="365.747,-60.5001 355.747,-64 365.747,-67.5001 365.747,-60.5001"/>
</g>
</g>
</svg>
