<?xml version="1.0" encoding="UTF-8" standalone="no"?>
<!DOCTYPE svg PUBLIC "-//W3C//DTD SVG 1.1//EN"
 "http://www.w3.org/Graphics/SVG/1.1/DTD/svg11.dtd">
<!-- Generated by graphviz version 2.36.0 (20140111.2315)
 -->
<!-- Title: userInterface.TopMenu.TopMenu Pages: 1 -->
<svg width="970pt" height="234pt"
 viewBox="0.00 0.00 970.00 234.00" xmlns="http://www.w3.org/2000/svg" xmlns:xlink="http://www.w3.org/1999/xlink">
<g id="graph0" class="graph" transform="scale(1 1) rotate(0) translate(4 230)">
<title>userInterface.TopMenu.TopMenu</title>
<polygon fill="white" stroke="none" points="-4,4 -4,-230 966,-230 966,4 -4,4"/>
<!-- Node1 -->
<g id="node1" class="node"><title>Node1</title>
<polygon fill="#bfbfbf" stroke="black" points="0,-103.5 0,-122.5 170,-122.5 170,-103.5 0,-103.5"/>
<text text-anchor="middle" x="85" y="-110.5" font-family="Helvetica,sans-Serif" font-size="10.00">userInterface.TopMenu.TopMenu</text>
</g>
<!-- Node2 -->
<g id="node2" class="node"><title>Node2</title>
<g id="a_node2"><a xlink:href="../../d3/db5/classuser_interface_1_1_top_menu.html#a315a71b98fc783d008f7e7c6ddcb6a99" target="_top" xlink:title="userInterface.TopMenu.initialize">
<polygon fill="white" stroke="black" points="206,-103.5 206,-122.5 372,-122.5 372,-103.5 206,-103.5"/>
<text text-anchor="middle" x="289" y="-110.5" font-family="Helvetica,sans-Serif" font-size="10.00">userInterface.TopMenu.initialize</text>
</a>
</g>
</g>
<!-- Node1&#45;&gt;Node2 -->
<g id="edge1" class="edge"><title>Node1&#45;&gt;Node2</title>
<path fill="none" stroke="midnightblue" d="M170.203,-113C178.592,-113 187.14,-113 195.607,-113"/>
<polygon fill="midnightblue" stroke="midnightblue" points="195.878,-116.5 205.878,-113 195.878,-109.5 195.878,-116.5"/>
</g>
<!-- Node3 -->
<g id="node3" class="node"><title>Node3</title>
<g id="a_node3"><a xlink:href="../../d3/db5/classuser_interface_1_1_top_menu.html#a7f7fb464630b5835b47aeff14e725c3d" target="_top" xlink:title="userInterface.TopMenu.create\lFileMenu">
<polygon fill="white" stroke="black" points="408,-196 408,-226 566,-226 566,-196 408,-196"/>
<text text-anchor="start" x="416" y="-214" font-family="Helvetica,sans-Serif" font-size="10.00">userInterface.TopMenu.create</text>
<text text-anchor="middle" x="487" y="-203" font-family="Helvetica,sans-Serif" font-size="10.00">FileMenu</text>
</a>
</g>
</g>
<!-- Node2&#45;&gt;Node3 -->
<g id="edge2" class="edge"><title>Node2&#45;&gt;Node3</title>
<path fill="none" stroke="midnightblue" d="M303.2,-122.67C324.4,-137.847 367.749,-167.438 408,-186 412.923,-188.27 418.11,-190.419 423.373,-192.432"/>
<polygon fill="midnightblue" stroke="midnightblue" points="422.293,-195.763 432.887,-195.905 424.693,-189.188 422.293,-195.763"/>
</g>
<!-- Node4 -->
<g id="node4" class="node"><title>Node4</title>
<g id="a_node4"><a xlink:href="../../d3/db5/classuser_interface_1_1_top_menu.html#ab806f0e3f0ac28bd22d0b3dc5617c2e2" target="_top" xlink:title="userInterface.TopMenu.create\lEditMenu">
<polygon fill="white" stroke="black" points="408,-147 408,-177 566,-177 566,-147 408,-147"/>
<text text-anchor="start" x="416" y="-165" font-family="Helvetica,sans-Serif" font-size="10.00">userInterface.TopMenu.create</text>
<text text-anchor="middle" x="487" y="-154" font-family="Helvetica,sans-Serif" font-size="10.00">EditMenu</text>
</a>
</g>
</g>
<!-- Node2&#45;&gt;Node4 -->
<g id="edge3" class="edge"><title>Node2&#45;&gt;Node4</title>
<path fill="none" stroke="midnightblue" d="M328.256,-122.564C353.179,-128.795 386.437,-137.109 415.99,-144.497"/>
<polygon fill="midnightblue" stroke="midnightblue" points="415.302,-147.933 425.852,-146.963 417,-141.142 415.302,-147.933"/>
</g>
<!-- Node5 -->
<g id="node5" class="node"><title>Node5</title>
<g id="a_node5"><a xlink:href="../../d3/db5/classuser_interface_1_1_top_menu.html#a3c7e48f77845e898ca1b323a326bfbc7" target="_top" xlink:title="userInterface.TopMenu.create\lViewMenu">
<polygon fill="white" stroke="black" points="408,-98 408,-128 566,-128 566,-98 408,-98"/>
<text text-anchor="start" x="416" y="-116" font-family="Helvetica,sans-Serif" font-size="10.00">userInterface.TopMenu.create</text>
<text text-anchor="middle" x="487" y="-105" font-family="Helvetica,sans-Serif" font-size="10.00">ViewMenu</text>
</a>
</g>
</g>
<!-- Node2&#45;&gt;Node5 -->
<g id="edge4" class="edge"><title>Node2&#45;&gt;Node5</title>
<path fill="none" stroke="midnightblue" d="M372.27,-113C380.611,-113 389.109,-113 397.513,-113"/>
<polygon fill="midnightblue" stroke="midnightblue" points="397.699,-116.5 407.699,-113 397.699,-109.5 397.699,-116.5"/>
</g>
<!-- Node12 -->
<g id="node12" class="node"><title>Node12</title>
<g id="a_node12"><a xlink:href="../../d3/db5/classuser_interface_1_1_top_menu.html#a615e9becb74842886f068eb7568ea566" target="_top" xlink:title="userInterface.TopMenu.create\lPreferencesMenu">
<polygon fill="white" stroke="black" points="408,-49 408,-79 566,-79 566,-49 408,-49"/>
<text text-anchor="start" x="416" y="-67" font-family="Helvetica,sans-Serif" font-size="10.00">userInterface.TopMenu.create</text>
<text text-anchor="middle" x="487" y="-56" font-family="Helvetica,sans-Serif" font-size="10.00">PreferencesMenu</text>
</a>
</g>
</g>
<!-- Node2&#45;&gt;Node12 -->
<g id="edge14" class="edge"><title>Node2&#45;&gt;Node12</title>
<path fill="none" stroke="midnightblue" d="M328.256,-103.436C353.179,-97.2053 386.437,-88.8906 415.99,-81.5026"/>
<polygon fill="midnightblue" stroke="midnightblue" points="417,-84.8579 425.852,-79.037 415.302,-78.0669 417,-84.8579"/>
</g>
<!-- Node14 -->
<g id="node14" class="node"><title>Node14</title>
<g id="a_node14"><a xlink:href="../../d3/db5/classuser_interface_1_1_top_menu.html#ac1752b41fa0043dd563c61a37950d8f0" target="_top" xlink:title="userInterface.TopMenu.create\lHelpMenu">
<polygon fill="white" stroke="black" points="408,-0 408,-30 566,-30 566,-0 408,-0"/>
<text text-anchor="start" x="416" y="-18" font-family="Helvetica,sans-Serif" font-size="10.00">userInterface.TopMenu.create</text>
<text text-anchor="middle" x="487" y="-7" font-family="Helvetica,sans-Serif" font-size="10.00">HelpMenu</text>
</a>
</g>
</g>
<!-- Node2&#45;&gt;Node14 -->
<g id="edge18" class="edge"><title>Node2&#45;&gt;Node14</title>
<path fill="none" stroke="midnightblue" d="M302.809,-103.378C323.814,-87.9739 367.324,-57.6208 408,-39 412.283,-37.0391 416.77,-35.1827 421.335,-33.4368"/>
<polygon fill="midnightblue" stroke="midnightblue" points="422.569,-36.7124 430.774,-30.01 420.18,-30.1326 422.569,-36.7124"/>
</g>
<!-- Node6 -->
<g id="node6" class="node"><title>Node6</title>
<g id="a_node6"><a xlink:href="../../d3/db5/classuser_interface_1_1_top_menu.html#a6910b4617ec06bd6ff657a326bc5414c" target="_top" xlink:title="userInterface.TopMenu.display\lColorPicker">
<polygon fill="white" stroke="black" points="602.5,-147 602.5,-177 763.5,-177 763.5,-147 602.5,-147"/>
<text text-anchor="start" x="610.5" y="-165" font-family="Helvetica,sans-Serif" font-size="10.00">userInterface.TopMenu.display</text>
<text text-anchor="middle" x="683" y="-154" font-family="Helvetica,sans-Serif" font-size="10.00">ColorPicker</text>
</a>
</g>
</g>
<!-- Node5&#45;&gt;Node6 -->
<g id="edge5" class="edge"><title>Node5&#45;&gt;Node6</title>
<path fill="none" stroke="midnightblue" d="M547.525,-128.035C568.102,-133.232 591.337,-139.101 612.634,-144.48"/>
<polygon fill="midnightblue" stroke="midnightblue" points="612.035,-147.938 622.588,-146.994 613.749,-141.151 612.035,-147.938"/>
</g>
<!-- Node10 -->
<g id="node10" class="node"><title>Node10</title>
<g id="a_node10"><a xlink:href="../../d3/db5/classuser_interface_1_1_top_menu.html#a49c0c214e19d20a7888e3760802aaf5e" target="_top" xlink:title="userInterface.TopMenu.display\lPenEditor">
<polygon fill="white" stroke="black" points="602.5,-196 602.5,-226 763.5,-226 763.5,-196 602.5,-196"/>
<text text-anchor="start" x="610.5" y="-214" font-family="Helvetica,sans-Serif" font-size="10.00">userInterface.TopMenu.display</text>
<text text-anchor="middle" x="683" y="-203" font-family="Helvetica,sans-Serif" font-size="10.00">PenEditor</text>
</a>
</g>
</g>
<!-- Node5&#45;&gt;Node10 -->
<g id="edge9" class="edge"><title>Node5&#45;&gt;Node10</title>
<path fill="none" stroke="midnightblue" d="M548.191,-128.03C554.481,-130.828 560.556,-134.124 566,-138 587.723,-153.467 580.221,-170.612 602,-186 604.733,-187.931 607.621,-189.717 610.614,-191.368"/>
<polygon fill="midnightblue" stroke="midnightblue" points="609.34,-194.643 619.857,-195.929 612.438,-188.365 609.34,-194.643"/>
</g>
<!-- Node11 -->
<g id="node11" class="node"><title>Node11</title>
<g id="a_node11"><a xlink:href="../../d3/db5/classuser_interface_1_1_top_menu.html#a91967a0db57f7be18c876a79b405ad9f" target="_top" xlink:title="userInterface.TopMenu.display\lImagePicker">
<polygon fill="white" stroke="black" points="602.5,-98 602.5,-128 763.5,-128 763.5,-98 602.5,-98"/>
<text text-anchor="start" x="610.5" y="-116" font-family="Helvetica,sans-Serif" font-size="10.00">userInterface.TopMenu.display</text>
<text text-anchor="middle" x="683" y="-105" font-family="Helvetica,sans-Serif" font-size="10.00">ImagePicker</text>
</a>
</g>
</g>
<!-- Node5&#45;&gt;Node11 -->
<g id="edge13" class="edge"><title>Node5&#45;&gt;Node11</title>
<path fill="none" stroke="midnightblue" d="M566.069,-113C574.62,-113 583.376,-113 592.055,-113"/>
<polygon fill="midnightblue" stroke="midnightblue" points="592.193,-116.5 602.193,-113 592.193,-109.5 592.193,-116.5"/>
</g>
<!-- Node7 -->
<g id="node7" class="node"><title>Node7</title>
<g id="a_node7"><a xlink:href="../../d3/db5/classuser_interface_1_1_top_menu.html#a5a5ca2d16b2af30c61db4744a593a709" target="_top" xlink:title="userInterface.TopMenu.extract\lColor">
<polygon fill="white" stroke="black" points="800.5,-196 800.5,-226 961.5,-226 961.5,-196 800.5,-196"/>
<text text-anchor="start" x="808.5" y="-214" font-family="Helvetica,sans-Serif" font-size="10.00">userInterface.TopMenu.extract</text>
<text text-anchor="middle" x="881" y="-203" font-family="Helvetica,sans-Serif" font-size="10.00">Color</text>
</a>
</g>
</g>
<!-- Node6&#45;&gt;Node7 -->
<g id="edge6" class="edge"><title>Node6&#45;&gt;Node7</title>
<path fill="none" stroke="midnightblue" d="M744.138,-177.035C765.021,-182.255 788.615,-188.154 810.21,-193.553"/>
<polygon fill="midnightblue" stroke="midnightblue" points="809.425,-196.964 819.975,-195.994 811.123,-190.173 809.425,-196.964"/>
</g>
<!-- Node8 -->
<g id="node8" class="node"><title>Node8</title>
<g id="a_node8"><a xlink:href="../../d3/db5/classuser_interface_1_1_top_menu.html#aaa39c0ed0953088b771fc02213fb0db0" target="_top" xlink:title="userInterface.TopMenu.display">
<polygon fill="white" stroke="black" points="800.5,-81.5 800.5,-100.5 961.5,-100.5 961.5,-81.5 800.5,-81.5"/>
<text text-anchor="middle" x="881" y="-88.5" font-family="Helvetica,sans-Serif" font-size="10.00">userInterface.TopMenu.display</text>
</a>
</g>
</g>
<!-- Node6&#45;&gt;Node8 -->
<g id="edge7" class="edge"><title>Node6&#45;&gt;Node8</title>
<path fill="none" stroke="midnightblue" d="M734.12,-146.968C744.066,-143.808 754.398,-140.399 764,-137 792.592,-126.879 824.604,-114.071 847.744,-104.541"/>
<polygon fill="midnightblue" stroke="midnightblue" points="849.182,-107.734 857.082,-100.675 846.504,-101.266 849.182,-107.734"/>
</g>
<!-- Node9 -->
<g id="node9" class="node"><title>Node9</title>
<g id="a_node9"><a xlink:href="../../d3/db5/classuser_interface_1_1_top_menu.html#a98951700279e23e40fadbb31a809a885" target="_top" xlink:title="userInterface.TopMenu.create\lDisplayBox">
<polygon fill="white" stroke="black" points="802,-147 802,-177 960,-177 960,-147 802,-147"/>
<text text-anchor="start" x="810" y="-165" font-family="Helvetica,sans-Serif" font-size="10.00">userInterface.TopMenu.create</text>
<text text-anchor="middle" x="881" y="-154" font-family="Helvetica,sans-Serif" font-size="10.00">DisplayBox</text>
</a>
</g>
</g>
<!-- Node6&#45;&gt;Node9 -->
<g id="edge8" class="edge"><title>Node6&#45;&gt;Node9</title>
<path fill="none" stroke="midnightblue" d="M763.721,-162C772.983,-162 782.471,-162 791.837,-162"/>
<polygon fill="midnightblue" stroke="midnightblue" points="791.937,-165.5 801.937,-162 791.937,-158.5 791.937,-165.5"/>
</g>
<!-- Node10&#45;&gt;Node7 -->
<g id="edge10" class="edge"><title>Node10&#45;&gt;Node7</title>
<path fill="none" stroke="midnightblue" d="M763.721,-211C772.405,-211 781.287,-211 790.082,-211"/>
<polygon fill="midnightblue" stroke="midnightblue" points="790.35,-214.5 800.35,-211 790.35,-207.5 790.35,-214.5"/>
</g>
<!-- Node10&#45;&gt;Node8 -->
<g id="edge11" class="edge"><title>Node10&#45;&gt;Node8</title>
<path fill="none" stroke="midnightblue" d="M746.143,-195.929C752.448,-193.144 758.533,-189.862 764,-186 785.779,-170.612 780.115,-155.768 800,-138 814.722,-124.845 833.684,-113.514 849.452,-105.274"/>
<polygon fill="midnightblue" stroke="midnightblue" points="851.444,-108.189 858.791,-100.555 848.287,-101.942 851.444,-108.189"/>
</g>
<!-- Node10&#45;&gt;Node9 -->
<g id="edge12" class="edge"><title>Node10&#45;&gt;Node9</title>
<path fill="none" stroke="midnightblue" d="M744.138,-195.965C765.021,-190.745 788.615,-184.846 810.21,-179.447"/>
<polygon fill="midnightblue" stroke="midnightblue" points="811.123,-182.827 819.975,-177.006 809.425,-176.036 811.123,-182.827"/>
</g>
<!-- Node13 -->
<g id="node13" class="node"><title>Node13</title>
<g id="a_node13"><a xlink:href="../../d3/db5/classuser_interface_1_1_top_menu.html#ad380d5d5985954bdd9ef1e03af03a8c1" target="_top" xlink:title="userInterface.TopMenu.display\lLanguageSelector">
<polygon fill="white" stroke="black" points="602.5,-49 602.5,-79 763.5,-79 763.5,-49 602.5,-49"/>
<text text-anchor="start" x="610.5" y="-67" font-family="Helvetica,sans-Serif" font-size="10.00">userInterface.TopMenu.display</text>
<text text-anchor="middle" x="683" y="-56" font-family="Helvetica,sans-Serif" font-size="10.00">LanguageSelector</text>
</a>
</g>
</g>
<!-- Node12&#45;&gt;Node13 -->
<g id="edge15" class="edge"><title>Node12&#45;&gt;Node13</title>
<path fill="none" stroke="midnightblue" d="M566.069,-64C574.62,-64 583.376,-64 592.055,-64"/>
<polygon fill="midnightblue" stroke="midnightblue" points="592.193,-67.5001 602.193,-64 592.193,-60.5001 592.193,-67.5001"/>
</g>
<!-- Node13&#45;&gt;Node8 -->
<g id="edge16" class="edge"><title>Node13&#45;&gt;Node8</title>
<path fill="none" stroke="midnightblue" d="M763.721,-74.9819C775.975,-76.67 788.625,-78.4126 800.866,-80.0989"/>
<polygon fill="midnightblue" stroke="midnightblue" points="800.651,-83.6023 811.036,-81.4998 801.607,-76.6678 800.651,-83.6023"/>
</g>
<!-- Node13&#45;&gt;Node9 -->
<g id="edge17" class="edge"><title>Node13&#45;&gt;Node9</title>
<path fill="none" stroke="midnightblue" d="M741.1,-79.0087C748.922,-81.6755 756.75,-84.6779 764,-88 768.485,-90.0552 815.506,-120.286 848.285,-141.464"/>
<polygon fill="midnightblue" stroke="midnightblue" points="846.393,-144.409 856.691,-146.898 850.194,-138.53 846.393,-144.409"/>
</g>
<!-- Node15 -->
<g id="node15" class="node"><title>Node15</title>
<g id="a_node15"><a xlink:href="../../d3/db5/classuser_interface_1_1_top_menu.html#a598a940cfabeb95d605504b823fdf51e" target="_top" xlink:title="userInterface.TopMenu.display\lWebpage">
<polygon fill="white" stroke="black" points="602.5,-0 602.5,-30 763.5,-30 763.5,-0 602.5,-0"/>
<text text-anchor="start" x="610.5" y="-18" font-family="Helvetica,sans-Serif" font-size="10.00">userInterface.TopMenu.display</text>
<text text-anchor="middle" x="683" y="-7" font-family="Helvetica,sans-Serif" font-size="10.00">Webpage</text>
</a>
</g>
</g>
<!-- Node14&#45;&gt;Node15 -->
<g id="edge19" class="edge"><title>Node14&#45;&gt;Node15</title>
<path fill="none" stroke="midnightblue" d="M566.069,-15C574.62,-15 583.376,-15 592.055,-15"/>
<polygon fill="midnightblue" stroke="midnightblue" points="592.193,-18.5001 602.193,-15 592.193,-11.5001 592.193,-18.5001"/>
</g>
<!-- Node15&#45;&gt;Node8 -->
<g id="edge20" class="edge"><title>Node15&#45;&gt;Node8</title>
<path fill="none" stroke="midnightblue" d="M737.68,-30.0541C746.538,-32.8377 755.575,-35.863 764,-39 794.403,-50.3205 828.139,-65.7859 851.355,-76.9034"/>
<polygon fill="midnightblue" stroke="midnightblue" points="850.093,-80.1807 860.62,-81.3771 853.137,-73.8771 850.093,-80.1807"/>
</g>
</g>
</svg>
