<?xml version="1.0" encoding="UTF-8" standalone="no"?>
<!DOCTYPE svg PUBLIC "-//W3C//DTD SVG 1.1//EN"
 "http://www.w3.org/Graphics/SVG/1.1/DTD/svg11.dtd">
<!-- Generated by graphviz version 2.36.0 (20140111.2315)
 -->
<!-- Title: userInterface.TopMenu.createEditMenu Pages: 1 -->
<svg width="574pt" height="38pt"
 viewBox="0.00 0.00 574.00 38.00" xmlns="http://www.w3.org/2000/svg" xmlns:xlink="http://www.w3.org/1999/xlink">
<g id="graph0" class="graph" transform="scale(1 1) rotate(0) translate(4 34)">
<title>userInterface.TopMenu.createEditMenu</title>
<polygon fill="white" stroke="none" points="-4,4 -4,-34 570,-34 570,4 -4,4"/>
<!-- Node1 -->
<g id="node1" class="node"><title>Node1</title>
<polygon fill="#bfbfbf" stroke="black" points="0,-0 0,-30 158,-30 158,-0 0,-0"/>
<text text-anchor="start" x="8" y="-18" font-family="Helvetica,sans-Serif" font-size="10.00">userInterface.TopMenu.create</text>
<text text-anchor="middle" x="79" y="-7" font-family="Helvetica,sans-Serif" font-size="10.00">EditMenu</text>
</g>
<!-- Node2 -->
<g id="node2" class="node"><title>Node2</title>
<g id="a_node2"><a xlink:href="../../d3/db5/classuser_interface_1_1_top_menu.html#a315a71b98fc783d008f7e7c6ddcb6a99" target="_top" xlink:title="userInterface.TopMenu.initialize">
<polygon fill="white" stroke="black" points="194,-5.5 194,-24.5 360,-24.5 360,-5.5 194,-5.5"/>
<text text-anchor="middle" x="277" y="-12.5" font-family="Helvetica,sans-Serif" font-size="10.00">userInterface.TopMenu.initialize</text>
</a>
</g>
</g>
<!-- Node1&#45;&gt;Node2 -->
<g id="edge1" class="edge"><title>Node1&#45;&gt;Node2</title>
<path fill="none" stroke="midnightblue" d="M168.294,-15C176.764,-15 185.332,-15 193.741,-15"/>
<polygon fill="midnightblue" stroke="midnightblue" points="168.028,-11.5001 158.028,-15 168.028,-18.5001 168.028,-11.5001"/>
</g>
<!-- Node3 -->
<g id="node3" class="node"><title>Node3</title>
<g id="a_node3"><a xlink:href="../../d3/db5/classuser_interface_1_1_top_menu.html#a165c92d8885c1f4ee12f5e0f51c01ba2" target="_top" xlink:title="userInterface.TopMenu.TopMenu">
<polygon fill="white" stroke="black" points="396,-5.5 396,-24.5 566,-24.5 566,-5.5 396,-5.5"/>
<text text-anchor="middle" x="481" y="-12.5" font-family="Helvetica,sans-Serif" font-size="10.00">userInterface.TopMenu.TopMenu</text>
</a>
</g>
</g>
<!-- Node2&#45;&gt;Node3 -->
<g id="edge2" class="edge"><title>Node2&#45;&gt;Node3</title>
<path fill="none" stroke="midnightblue" d="M370.184,-15C378.768,-15 387.438,-15 395.943,-15"/>
<polygon fill="midnightblue" stroke="midnightblue" points="370.161,-11.5001 360.161,-15 370.161,-18.5001 370.161,-11.5001"/>
</g>
</g>
</svg>
