<?xml version="1.0" encoding="UTF-8" standalone="no"?>
<!DOCTYPE svg PUBLIC "-//W3C//DTD SVG 1.1//EN"
 "http://www.w3.org/Graphics/SVG/1.1/DTD/svg11.dtd">
<!-- Generated by graphviz version 2.36.0 (20140111.2315)
 -->
<!-- Title: userInterface.TopMenu.displayWebpage Pages: 1 -->
<svg width="772pt" height="38pt"
 viewBox="0.00 0.00 772.00 38.00" xmlns="http://www.w3.org/2000/svg" xmlns:xlink="http://www.w3.org/1999/xlink">
<g id="graph0" class="graph" transform="scale(1 1) rotate(0) translate(4 34)">
<title>userInterface.TopMenu.displayWebpage</title>
<polygon fill="white" stroke="none" points="-4,4 -4,-34 768,-34 768,4 -4,4"/>
<!-- Node1 -->
<g id="node1" class="node"><title>Node1</title>
<polygon fill="#bfbfbf" stroke="black" points="0.5,-0 0.5,-30 161.5,-30 161.5,-0 0.5,-0"/>
<text text-anchor="start" x="8.5" y="-18" font-family="Helvetica,sans-Serif" font-size="10.00">userInterface.TopMenu.display</text>
<text text-anchor="middle" x="81" y="-7" font-family="Helvetica,sans-Serif" font-size="10.00">Webpage</text>
</g>
<!-- Node2 -->
<g id="node2" class="node"><title>Node2</title>
<g id="a_node2"><a xlink:href="../../d3/db5/classuser_interface_1_1_top_menu.html#ac1752b41fa0043dd563c61a37950d8f0" target="_top" xlink:title="userInterface.TopMenu.create\lHelpMenu">
<polygon fill="white" stroke="black" points="198,-0 198,-30 356,-30 356,-0 198,-0"/>
<text text-anchor="start" x="206" y="-18" font-family="Helvetica,sans-Serif" font-size="10.00">userInterface.TopMenu.create</text>
<text text-anchor="middle" x="277" y="-7" font-family="Helvetica,sans-Serif" font-size="10.00">HelpMenu</text>
</a>
</g>
</g>
<!-- Node1&#45;&gt;Node2 -->
<g id="edge1" class="edge"><title>Node1&#45;&gt;Node2</title>
<path fill="none" stroke="midnightblue" d="M171.868,-15C180.533,-15 189.275,-15 197.815,-15"/>
<polygon fill="midnightblue" stroke="midnightblue" points="171.747,-11.5001 161.747,-15 171.747,-18.5001 171.747,-11.5001"/>
</g>
<!-- Node3 -->
<g id="node3" class="node"><title>Node3</title>
<g id="a_node3"><a xlink:href="../../d3/db5/classuser_interface_1_1_top_menu.html#a315a71b98fc783d008f7e7c6ddcb6a99" target="_top" xlink:title="userInterface.TopMenu.initialize">
<polygon fill="white" stroke="black" points="392,-5.5 392,-24.5 558,-24.5 558,-5.5 392,-5.5"/>
<text text-anchor="middle" x="475" y="-12.5" font-family="Helvetica,sans-Serif" font-size="10.00">userInterface.TopMenu.initialize</text>
</a>
</g>
</g>
<!-- Node2&#45;&gt;Node3 -->
<g id="edge2" class="edge"><title>Node2&#45;&gt;Node3</title>
<path fill="none" stroke="midnightblue" d="M366.294,-15C374.764,-15 383.332,-15 391.741,-15"/>
<polygon fill="midnightblue" stroke="midnightblue" points="366.028,-11.5001 356.028,-15 366.028,-18.5001 366.028,-11.5001"/>
</g>
<!-- Node4 -->
<g id="node4" class="node"><title>Node4</title>
<g id="a_node4"><a xlink:href="../../d3/db5/classuser_interface_1_1_top_menu.html#a165c92d8885c1f4ee12f5e0f51c01ba2" target="_top" xlink:title="userInterface.TopMenu.TopMenu">
<polygon fill="white" stroke="black" points="594,-5.5 594,-24.5 764,-24.5 764,-5.5 594,-5.5"/>
<text text-anchor="middle" x="679" y="-12.5" font-family="Helvetica,sans-Serif" font-size="10.00">userInterface.TopMenu.TopMenu</text>
</a>
</g>
</g>
<!-- Node3&#45;&gt;Node4 -->
<g id="edge3" class="edge"><title>Node3&#45;&gt;Node4</title>
<path fill="none" stroke="midnightblue" d="M568.184,-15C576.768,-15 585.438,-15 593.943,-15"/>
<polygon fill="midnightblue" stroke="midnightblue" points="568.161,-11.5001 558.161,-15 568.161,-18.5001 568.161,-11.5001"/>
</g>
</g>
</svg>
