<?xml version="1.0" encoding="UTF-8" standalone="no"?>
<!DOCTYPE svg PUBLIC "-//W3C//DTD SVG 1.1//EN"
 "http://www.w3.org/Graphics/SVG/1.1/DTD/svg11.dtd">
<!-- Generated by graphviz version 2.36.0 (20140111.2315)
 -->
<!-- Title: userInterface.TopMenu.createHelpMenu Pages: 1 -->
<svg width="562pt" height="38pt"
 viewBox="0.00 0.00 562.00 38.00" xmlns="http://www.w3.org/2000/svg" xmlns:xlink="http://www.w3.org/1999/xlink">
<g id="graph0" class="graph" transform="scale(1 1) rotate(0) translate(4 34)">
<title>userInterface.TopMenu.createHelpMenu</title>
<polygon fill="white" stroke="none" points="-4,4 -4,-34 558,-34 558,4 -4,4"/>
<!-- Node1 -->
<g id="node1" class="node"><title>Node1</title>
<polygon fill="#bfbfbf" stroke="black" points="0,-0 0,-30 158,-30 158,-0 0,-0"/>
<text text-anchor="start" x="8" y="-18" font-family="Helvetica,sans-Serif" font-size="10.00">userInterface.TopMenu.create</text>
<text text-anchor="middle" x="79" y="-7" font-family="Helvetica,sans-Serif" font-size="10.00">HelpMenu</text>
</g>
<!-- Node2 -->
<g id="node2" class="node"><title>Node2</title>
<g id="a_node2"><a xlink:href="../../d3/db5/classuser_interface_1_1_top_menu.html#a598a940cfabeb95d605504b823fdf51e" target="_top" xlink:title="userInterface.TopMenu.display\lWebpage">
<polygon fill="white" stroke="black" points="194.5,-0 194.5,-30 355.5,-30 355.5,-0 194.5,-0"/>
<text text-anchor="start" x="202.5" y="-18" font-family="Helvetica,sans-Serif" font-size="10.00">userInterface.TopMenu.display</text>
<text text-anchor="middle" x="275" y="-7" font-family="Helvetica,sans-Serif" font-size="10.00">Webpage</text>
</a>
</g>
</g>
<!-- Node1&#45;&gt;Node2 -->
<g id="edge1" class="edge"><title>Node1&#45;&gt;Node2</title>
<path fill="none" stroke="midnightblue" d="M158.069,-15C166.62,-15 175.376,-15 184.055,-15"/>
<polygon fill="midnightblue" stroke="midnightblue" points="184.193,-18.5001 194.193,-15 184.193,-11.5001 184.193,-18.5001"/>
</g>
<!-- Node3 -->
<g id="node3" class="node"><title>Node3</title>
<g id="a_node3"><a xlink:href="../../d3/db5/classuser_interface_1_1_top_menu.html#aaa39c0ed0953088b771fc02213fb0db0" target="_top" xlink:title="userInterface.TopMenu.display">
<polygon fill="white" stroke="black" points="392.5,-5.5 392.5,-24.5 553.5,-24.5 553.5,-5.5 392.5,-5.5"/>
<text text-anchor="middle" x="473" y="-12.5" font-family="Helvetica,sans-Serif" font-size="10.00">userInterface.TopMenu.display</text>
</a>
</g>
</g>
<!-- Node2&#45;&gt;Node3 -->
<g id="edge2" class="edge"><title>Node2&#45;&gt;Node3</title>
<path fill="none" stroke="midnightblue" d="M355.721,-15C364.405,-15 373.287,-15 382.082,-15"/>
<polygon fill="midnightblue" stroke="midnightblue" points="382.35,-18.5001 392.35,-15 382.35,-11.5001 382.35,-18.5001"/>
</g>
</g>
</svg>
