<?xml version="1.0" encoding="UTF-8" standalone="no"?>
<!DOCTYPE svg PUBLIC "-//W3C//DTD SVG 1.1//EN"
 "http://www.w3.org/Graphics/SVG/1.1/DTD/svg11.dtd">
<!-- Generated by graphviz version 2.36.0 (20140111.2315)
 -->
<!-- Title: turtle.Pen.penReady Pages: 1 -->
<svg width="1552pt" height="104pt"
 viewBox="0.00 0.00 1552.00 104.00" xmlns="http://www.w3.org/2000/svg" xmlns:xlink="http://www.w3.org/1999/xlink">
<g id="graph0" class="graph" transform="scale(1 1) rotate(0) translate(4 100)">
<title>turtle.Pen.penReady</title>
<polygon fill="white" stroke="none" points="-4,4 -4,-100 1548,-100 1548,4 -4,4"/>
<!-- Node1 -->
<g id="node1" class="node"><title>Node1</title>
<polygon fill="#bfbfbf" stroke="black" points="0.5,-22.5 0.5,-41.5 113.5,-41.5 113.5,-22.5 0.5,-22.5"/>
<text text-anchor="middle" x="57" y="-29.5" font-family="Helvetica,sans-Serif" font-size="10.00">turtle.Pen.penReady</text>
</g>
<!-- Node2 -->
<g id="node2" class="node"><title>Node2</title>
<g id="a_node2"><a xlink:href="../../df/dcb/classturtle_1_1_turtle.html#ac5df386a63f84a7108ee50e2d663a23c" target="_top" xlink:title="turtle.Turtle.drawLine">
<polygon fill="white" stroke="black" points="152,-42.5 152,-61.5 268,-61.5 268,-42.5 152,-42.5"/>
<text text-anchor="middle" x="210" y="-49.5" font-family="Helvetica,sans-Serif" font-size="10.00">turtle.Turtle.drawLine</text>
</a>
</g>
</g>
<!-- Node1&#45;&gt;Node2 -->
<g id="edge1" class="edge"><title>Node1&#45;&gt;Node2</title>
<path fill="none" stroke="midnightblue" d="M123.84,-40.7206C133.194,-41.9594 142.748,-43.2249 151.917,-44.4393"/>
<polygon fill="midnightblue" stroke="midnightblue" points="124.171,-37.2339 113.798,-39.3904 123.252,-44.1733 124.171,-37.2339"/>
</g>
<!-- Node10 -->
<g id="node10" class="node"><title>Node10</title>
<g id="a_node10"><a xlink:href="../../df/dcb/classturtle_1_1_turtle.html#a705ea4fb106755bef5f4af563515b537" target="_top" xlink:title="turtle.Turtle.isDrawing">
<polygon fill="white" stroke="black" points="150.5,-3.5 150.5,-22.5 269.5,-22.5 269.5,-3.5 150.5,-3.5"/>
<text text-anchor="middle" x="210" y="-10.5" font-family="Helvetica,sans-Serif" font-size="10.00">turtle.Turtle.isDrawing</text>
</a>
</g>
</g>
<!-- Node1&#45;&gt;Node10 -->
<g id="edge10" class="edge"><title>Node1&#45;&gt;Node10</title>
<path fill="none" stroke="midnightblue" d="M124.002,-23.6951C132.787,-22.5897 141.747,-21.4623 150.395,-20.3742"/>
<polygon fill="midnightblue" stroke="midnightblue" points="123.283,-20.2579 113.798,-24.9791 124.157,-27.2032 123.283,-20.2579"/>
</g>
<!-- Node3 -->
<g id="node3" class="node"><title>Node3</title>
<g id="a_node3"><a xlink:href="../../d8/d08/classworld_controller_1_1_world_controller.html#a9380abb3ed5334498510f1d6a88a826d" target="_top" xlink:title="worldController.WorldController.draw\lTurtle">
<polygon fill="white" stroke="black" points="306.5,-39 306.5,-69 493.5,-69 493.5,-39 306.5,-39"/>
<text text-anchor="start" x="314.5" y="-57" font-family="Helvetica,sans-Serif" font-size="10.00">worldController.WorldController.draw</text>
<text text-anchor="middle" x="400" y="-46" font-family="Helvetica,sans-Serif" font-size="10.00">Turtle</text>
</a>
</g>
</g>
<!-- Node2&#45;&gt;Node3 -->
<g id="edge2" class="edge"><title>Node2&#45;&gt;Node3</title>
<path fill="none" stroke="midnightblue" d="M278.293,-52.7159C287.414,-52.8129 296.9,-52.9138 306.368,-53.0146"/>
<polygon fill="midnightblue" stroke="midnightblue" points="278.209,-49.2149 268.172,-52.6082 278.134,-56.2145 278.209,-49.2149"/>
</g>
<!-- Node4 -->
<g id="node4" class="node"><title>Node4</title>
<g id="a_node4"><a xlink:href="../../d8/d08/classworld_controller_1_1_world_controller.html#a178425d68e3e669c386706153ce44999" target="_top" xlink:title="worldController.WorldController.update">
<polygon fill="white" stroke="black" points="530,-44.5 530,-63.5 728,-63.5 728,-44.5 530,-44.5"/>
<text text-anchor="middle" x="629" y="-51.5" font-family="Helvetica,sans-Serif" font-size="10.00">worldController.WorldController.update</text>
</a>
</g>
</g>
<!-- Node3&#45;&gt;Node4 -->
<g id="edge3" class="edge"><title>Node3&#45;&gt;Node4</title>
<path fill="none" stroke="midnightblue" d="M503.753,-54C512.397,-54 521.125,-54 529.733,-54"/>
<polygon fill="midnightblue" stroke="midnightblue" points="503.657,-50.5001 493.657,-54 503.657,-57.5001 503.657,-50.5001"/>
</g>
<!-- Node5 -->
<g id="node5" class="node"><title>Node5</title>
<g id="a_node5"><a xlink:href="../../dd/d8e/classuser_interface_1_1_user_interface.html#a95e324c85888faea808be269e44ed5b8" target="_top" xlink:title="userInterface.UserInterface.run\lCommand">
<polygon fill="white" stroke="black" points="764,-39 764,-69 930,-69 930,-39 764,-39"/>
<text text-anchor="start" x="772" y="-57" font-family="Helvetica,sans-Serif" font-size="10.00">userInterface.UserInterface.run</text>
<text text-anchor="middle" x="847" y="-46" font-family="Helvetica,sans-Serif" font-size="10.00">Command</text>
</a>
</g>
</g>
<!-- Node4&#45;&gt;Node5 -->
<g id="edge4" class="edge"><title>Node4&#45;&gt;Node5</title>
<path fill="none" stroke="midnightblue" d="M738.29,-54C746.892,-54 755.492,-54 763.871,-54"/>
<polygon fill="midnightblue" stroke="midnightblue" points="738.203,-50.5001 728.203,-54 738.203,-57.5001 738.203,-50.5001"/>
</g>
<!-- Node6 -->
<g id="node6" class="node"><title>Node6</title>
<g id="a_node6"><a xlink:href="../../dd/d8e/classuser_interface_1_1_user_interface.html#a560c36977fddeee87002333870c54ed6" target="_top" xlink:title="userInterface.UserInterface.set\lUpResponses">
<polygon fill="white" stroke="black" points="1186.5,-65 1186.5,-95 1351.5,-95 1351.5,-65 1186.5,-65"/>
<text text-anchor="start" x="1194.5" y="-83" font-family="Helvetica,sans-Serif" font-size="10.00">userInterface.UserInterface.set</text>
<text text-anchor="middle" x="1269" y="-72" font-family="Helvetica,sans-Serif" font-size="10.00">UpResponses</text>
</a>
</g>
</g>
<!-- Node5&#45;&gt;Node6 -->
<g id="edge5" class="edge"><title>Node5&#45;&gt;Node6</title>
<path fill="none" stroke="midnightblue" d="M940.405,-59.7203C1013.91,-64.2707 1115.79,-70.5772 1186.33,-74.9441"/>
<polygon fill="midnightblue" stroke="midnightblue" points="940.424,-56.2149 930.227,-59.0903 939.992,-63.2015 940.424,-56.2149"/>
</g>
<!-- Node8 -->
<g id="node8" class="node"><title>Node8</title>
<g id="a_node8"><a xlink:href="../../dd/d8e/classuser_interface_1_1_user_interface.html#a4316649a1f81fcc1dcaf93c812bf6f3a" target="_top" xlink:title="userInterface.UserInterface.make\lRunButton">
<polygon fill="white" stroke="black" points="966.5,-17 966.5,-47 1143.5,-47 1143.5,-17 966.5,-17"/>
<text text-anchor="start" x="974.5" y="-35" font-family="Helvetica,sans-Serif" font-size="10.00">userInterface.UserInterface.make</text>
<text text-anchor="middle" x="1055" y="-24" font-family="Helvetica,sans-Serif" font-size="10.00">RunButton</text>
</a>
</g>
</g>
<!-- Node5&#45;&gt;Node8 -->
<g id="edge7" class="edge"><title>Node5&#45;&gt;Node8</title>
<path fill="none" stroke="midnightblue" d="M940.121,-44.1618C948.789,-43.2361 957.561,-42.2994 966.187,-41.3781"/>
<polygon fill="midnightblue" stroke="midnightblue" points="939.58,-40.6996 930.009,-45.2418 940.324,-47.66 939.58,-40.6996"/>
</g>
<!-- Node7 -->
<g id="node7" class="node"><title>Node7</title>
<g id="a_node7"><a xlink:href="../../dd/d8e/classuser_interface_1_1_user_interface.html#af296b064499e62c4fbfbf73da6456532" target="_top" xlink:title="userInterface.UserInterface.\lUserInterface">
<polygon fill="white" stroke="black" points="1394,-40 1394,-70 1544,-70 1544,-40 1394,-40"/>
<text text-anchor="start" x="1402" y="-58" font-family="Helvetica,sans-Serif" font-size="10.00">userInterface.UserInterface.</text>
<text text-anchor="middle" x="1469" y="-47" font-family="Helvetica,sans-Serif" font-size="10.00">UserInterface</text>
</a>
</g>
</g>
<!-- Node6&#45;&gt;Node7 -->
<g id="edge6" class="edge"><title>Node6&#45;&gt;Node7</title>
<path fill="none" stroke="midnightblue" d="M1361.88,-68.3986C1372.58,-67.0478 1383.39,-65.683 1393.81,-64.3677"/>
<polygon fill="midnightblue" stroke="midnightblue" points="1361.16,-64.962 1351.68,-69.6872 1362.04,-71.9069 1361.16,-64.962"/>
</g>
<!-- Node9 -->
<g id="node9" class="node"><title>Node9</title>
<g id="a_node9"><a xlink:href="../../dd/d8e/classuser_interface_1_1_user_interface.html#a6d39ee7d7ae35fc0539bb714bce6221a" target="_top" xlink:title="userInterface.UserInterface.make\lFunctionButtons">
<polygon fill="white" stroke="black" points="1180.5,-16 1180.5,-46 1357.5,-46 1357.5,-16 1180.5,-16"/>
<text text-anchor="start" x="1188.5" y="-34" font-family="Helvetica,sans-Serif" font-size="10.00">userInterface.UserInterface.make</text>
<text text-anchor="middle" x="1269" y="-23" font-family="Helvetica,sans-Serif" font-size="10.00">FunctionButtons</text>
</a>
</g>
</g>
<!-- Node8&#45;&gt;Node9 -->
<g id="edge8" class="edge"><title>Node8&#45;&gt;Node9</title>
<path fill="none" stroke="midnightblue" d="M1154.01,-31.5377C1162.78,-31.4963 1171.63,-31.4546 1180.31,-31.4136"/>
<polygon fill="midnightblue" stroke="midnightblue" points="1153.74,-28.0388 1143.76,-31.586 1153.78,-35.0387 1153.74,-28.0388"/>
</g>
<!-- Node9&#45;&gt;Node7 -->
<g id="edge9" class="edge"><title>Node9&#45;&gt;Node7</title>
<path fill="none" stroke="midnightblue" d="M1367.67,-42.8393C1376.52,-43.9113 1385.38,-44.985 1393.97,-46.0262"/>
<polygon fill="midnightblue" stroke="midnightblue" points="1368.06,-39.3604 1357.71,-41.6316 1367.22,-46.3095 1368.06,-39.3604"/>
</g>
<!-- Node11 -->
<g id="node11" class="node"><title>Node11</title>
<g id="a_node11"><a xlink:href="../../df/de8/classcommand_1_1_pen_query_command.html#a2e6af9e8d31937ab22a6f9bdaaaa7892" target="_top" xlink:title="command.PenQueryCommand.run">
<polygon fill="white" stroke="black" points="308,-0.5 308,-19.5 492,-19.5 492,-0.5 308,-0.5"/>
<text text-anchor="middle" x="400" y="-7.5" font-family="Helvetica,sans-Serif" font-size="10.00">command.PenQueryCommand.run</text>
</a>
</g>
</g>
<!-- Node10&#45;&gt;Node11 -->
<g id="edge11" class="edge"><title>Node10&#45;&gt;Node11</title>
<path fill="none" stroke="midnightblue" d="M279.793,-11.9022C288.868,-11.7574 298.281,-11.6072 307.659,-11.4576"/>
<polygon fill="midnightblue" stroke="midnightblue" points="279.654,-8.40392 269.711,-12.0631 279.766,-15.403 279.654,-8.40392"/>
</g>
</g>
</svg>
