<?xml version="1.0" encoding="UTF-8" standalone="no"?>
<!DOCTYPE svg PUBLIC "-//W3C//DTD SVG 1.1//EN"
 "http://www.w3.org/Graphics/SVG/1.1/DTD/svg11.dtd">
<!-- Generated by graphviz version 2.36.0 (20140111.2315)
 -->
<!-- Title: turtle.Pen.penReady Pages: 1 -->
<svg width="1554pt" height="104pt"
 viewBox="0.00 0.00 1554.00 104.00" xmlns="http://www.w3.org/2000/svg" xmlns:xlink="http://www.w3.org/1999/xlink">
<g id="graph0" class="graph" transform="scale(1 1) rotate(0) translate(4 100)">
<title>turtle.Pen.penReady</title>
<polygon fill="white" stroke="none" points="-4,4 -4,-100 1550,-100 1550,4 -4,4"/>
<!-- Node1 -->
<g id="node1" class="node"><title>Node1</title>
<polygon fill="#bfbfbf" stroke="black" points="0.5,-22.5 0.5,-41.5 113.5,-41.5 113.5,-22.5 0.5,-22.5"/>
<text text-anchor="middle" x="57" y="-29.5" font-family="Helvetica,sans-Serif" font-size="10.00">turtle.Pen.penReady</text>
</g>
<!-- Node2 -->
<g id="node2" class="node"><title>Node2</title>
<g id="a_node2"><a xlink:href="../../df/dcb/classturtle_1_1_turtle.html#ac5df386a63f84a7108ee50e2d663a23c" target="_top" xlink:title="turtle.Turtle.drawLine">
<polygon fill="white" stroke="black" points="152,-42.5 152,-61.5 268,-61.5 268,-42.5 152,-42.5"/>
<text text-anchor="middle" x="210" y="-49.5" font-family="Helvetica,sans-Serif" font-size="10.00">turtle.Turtle.drawLine</text>
</a>
</g>
</g>
<!-- Node1&#45;&gt;Node2 -->
<g id="edge1" class="edge"><title>Node1&#45;&gt;Node2</title>
<path fill="none" stroke="midnightblue" d="M123.84,-40.7206C133.194,-41.9594 142.748,-43.2249 151.917,-44.4393"/>
<polygon fill="midnightblue" stroke="midnightblue" points="124.171,-37.2339 113.798,-39.3904 123.252,-44.1733 124.171,-37.2339"/>
</g>
<!-- Node10 -->
<g id="node10" class="node"><title>Node10</title>
<g id="a_node10"><a xlink:href="../../df/dcb/classturtle_1_1_turtle.html#a705ea4fb106755bef5f4af563515b537" target="_top" xlink:title="turtle.Turtle.isDrawing">
<polygon fill="white" stroke="black" points="150.5,-3.5 150.5,-22.5 269.5,-22.5 269.5,-3.5 150.5,-3.5"/>
<text text-anchor="middle" x="210" y="-10.5" font-family="Helvetica,sans-Serif" font-size="10.00">turtle.Turtle.isDrawing</text>
</a>
</g>
</g>
<!-- Node1&#45;&gt;Node10 -->
<g id="edge10" class="edge"><title>Node1&#45;&gt;Node10</title>
<path fill="none" stroke="midnightblue" d="M124.002,-23.6951C132.787,-22.5897 141.747,-21.4623 150.395,-20.3742"/>
<polygon fill="midnightblue" stroke="midnightblue" points="123.283,-20.2579 113.798,-24.9791 124.157,-27.2032 123.283,-20.2579"/>
</g>
<!-- Node3 -->
<g id="node3" class="node"><title>Node3</title>
<g id="a_node3"><a xlink:href="../../d8/d08/classworld_controller_1_1_world_controller.html#a9380abb3ed5334498510f1d6a88a826d" target="_top" xlink:title="worldController.WorldController.draw\lTurtle">
<polygon fill="white" stroke="black" points="307.5,-39 307.5,-69 494.5,-69 494.5,-39 307.5,-39"/>
<text text-anchor="start" x="315.5" y="-57" font-family="Helvetica,sans-Serif" font-size="10.00">worldController.WorldController.draw</text>
<text text-anchor="middle" x="401" y="-46" font-family="Helvetica,sans-Serif" font-size="10.00">Turtle</text>
</a>
</g>
</g>
<!-- Node2&#45;&gt;Node3 -->
<g id="edge2" class="edge"><title>Node2&#45;&gt;Node3</title>
<path fill="none" stroke="midnightblue" d="M278.284,-52.712C287.722,-52.8119 297.555,-52.9159 307.362,-53.0197"/>
<polygon fill="midnightblue" stroke="midnightblue" points="278.256,-49.2116 268.219,-52.6055 278.182,-56.2112 278.256,-49.2116"/>
</g>
<!-- Node4 -->
<g id="node4" class="node"><title>Node4</title>
<g id="a_node4"><a xlink:href="../../d8/d08/classworld_controller_1_1_world_controller.html#a178425d68e3e669c386706153ce44999" target="_top" xlink:title="worldController.WorldController.update">
<polygon fill="white" stroke="black" points="532,-44.5 532,-63.5 730,-63.5 730,-44.5 532,-44.5"/>
<text text-anchor="middle" x="631" y="-51.5" font-family="Helvetica,sans-Serif" font-size="10.00">worldController.WorldController.update</text>
</a>
</g>
</g>
<!-- Node3&#45;&gt;Node4 -->
<g id="edge3" class="edge"><title>Node3&#45;&gt;Node4</title>
<path fill="none" stroke="midnightblue" d="M504.812,-54C513.782,-54 522.846,-54 531.777,-54"/>
<polygon fill="midnightblue" stroke="midnightblue" points="504.736,-50.5001 494.736,-54 504.736,-57.5001 504.736,-50.5001"/>
</g>
<!-- Node5 -->
<g id="node5" class="node"><title>Node5</title>
<g id="a_node5"><a xlink:href="../../dd/d8e/classuser_interface_1_1_user_interface.html#a95e324c85888faea808be269e44ed5b8" target="_top" xlink:title="userInterface.UserInterface.run\lCommand">
<polygon fill="white" stroke="black" points="766,-39 766,-69 932,-69 932,-39 766,-39"/>
<text text-anchor="start" x="774" y="-57" font-family="Helvetica,sans-Serif" font-size="10.00">userInterface.UserInterface.run</text>
<text text-anchor="middle" x="849" y="-46" font-family="Helvetica,sans-Serif" font-size="10.00">Command</text>
</a>
</g>
</g>
<!-- Node4&#45;&gt;Node5 -->
<g id="edge4" class="edge"><title>Node4&#45;&gt;Node5</title>
<path fill="none" stroke="midnightblue" d="M740.29,-54C748.892,-54 757.492,-54 765.871,-54"/>
<polygon fill="midnightblue" stroke="midnightblue" points="740.203,-50.5001 730.203,-54 740.203,-57.5001 740.203,-50.5001"/>
</g>
<!-- Node6 -->
<g id="node6" class="node"><title>Node6</title>
<g id="a_node6"><a xlink:href="../../dd/d8e/classuser_interface_1_1_user_interface.html#a560c36977fddeee87002333870c54ed6" target="_top" xlink:title="userInterface.UserInterface.set\lUpResponses">
<polygon fill="white" stroke="black" points="1188.5,-65 1188.5,-95 1353.5,-95 1353.5,-65 1188.5,-65"/>
<text text-anchor="start" x="1196.5" y="-83" font-family="Helvetica,sans-Serif" font-size="10.00">userInterface.UserInterface.set</text>
<text text-anchor="middle" x="1271" y="-72" font-family="Helvetica,sans-Serif" font-size="10.00">UpResponses</text>
</a>
</g>
</g>
<!-- Node5&#45;&gt;Node6 -->
<g id="edge5" class="edge"><title>Node5&#45;&gt;Node6</title>
<path fill="none" stroke="midnightblue" d="M942.405,-59.7203C1015.91,-64.2707 1117.79,-70.5772 1188.33,-74.9441"/>
<polygon fill="midnightblue" stroke="midnightblue" points="942.424,-56.2149 932.227,-59.0903 941.992,-63.2015 942.424,-56.2149"/>
</g>
<!-- Node8 -->
<g id="node8" class="node"><title>Node8</title>
<g id="a_node8"><a xlink:href="../../dd/d8e/classuser_interface_1_1_user_interface.html#a4316649a1f81fcc1dcaf93c812bf6f3a" target="_top" xlink:title="userInterface.UserInterface.make\lRunButton">
<polygon fill="white" stroke="black" points="968.5,-17 968.5,-47 1145.5,-47 1145.5,-17 968.5,-17"/>
<text text-anchor="start" x="976.5" y="-35" font-family="Helvetica,sans-Serif" font-size="10.00">userInterface.UserInterface.make</text>
<text text-anchor="middle" x="1057" y="-24" font-family="Helvetica,sans-Serif" font-size="10.00">RunButton</text>
</a>
</g>
</g>
<!-- Node5&#45;&gt;Node8 -->
<g id="edge7" class="edge"><title>Node5&#45;&gt;Node8</title>
<path fill="none" stroke="midnightblue" d="M942.121,-44.1618C950.789,-43.2361 959.561,-42.2994 968.187,-41.3781"/>
<polygon fill="midnightblue" stroke="midnightblue" points="941.58,-40.6996 932.009,-45.2418 942.324,-47.66 941.58,-40.6996"/>
</g>
<!-- Node7 -->
<g id="node7" class="node"><title>Node7</title>
<g id="a_node7"><a xlink:href="../../dd/d8e/classuser_interface_1_1_user_interface.html#af296b064499e62c4fbfbf73da6456532" target="_top" xlink:title="userInterface.UserInterface.\lUserInterface">
<polygon fill="white" stroke="black" points="1396,-40 1396,-70 1546,-70 1546,-40 1396,-40"/>
<text text-anchor="start" x="1404" y="-58" font-family="Helvetica,sans-Serif" font-size="10.00">userInterface.UserInterface.</text>
<text text-anchor="middle" x="1471" y="-47" font-family="Helvetica,sans-Serif" font-size="10.00">UserInterface</text>
</a>
</g>
</g>
<!-- Node6&#45;&gt;Node7 -->
<g id="edge6" class="edge"><title>Node6&#45;&gt;Node7</title>
<path fill="none" stroke="midnightblue" d="M1363.88,-68.3986C1374.58,-67.0478 1385.39,-65.683 1395.81,-64.3677"/>
<polygon fill="midnightblue" stroke="midnightblue" points="1363.16,-64.962 1353.68,-69.6872 1364.04,-71.9069 1363.16,-64.962"/>
</g>
<!-- Node9 -->
<g id="node9" class="node"><title>Node9</title>
<g id="a_node9"><a xlink:href="../../dd/d8e/classuser_interface_1_1_user_interface.html#a6d39ee7d7ae35fc0539bb714bce6221a" target="_top" xlink:title="userInterface.UserInterface.make\lFunctionButtons">
<polygon fill="white" stroke="black" points="1182.5,-16 1182.5,-46 1359.5,-46 1359.5,-16 1182.5,-16"/>
<text text-anchor="start" x="1190.5" y="-34" font-family="Helvetica,sans-Serif" font-size="10.00">userInterface.UserInterface.make</text>
<text text-anchor="middle" x="1271" y="-23" font-family="Helvetica,sans-Serif" font-size="10.00">FunctionButtons</text>
</a>
</g>
</g>
<!-- Node8&#45;&gt;Node9 -->
<g id="edge8" class="edge"><title>Node8&#45;&gt;Node9</title>
<path fill="none" stroke="midnightblue" d="M1156.01,-31.5377C1164.78,-31.4963 1173.63,-31.4546 1182.31,-31.4136"/>
<polygon fill="midnightblue" stroke="midnightblue" points="1155.74,-28.0388 1145.76,-31.586 1155.78,-35.0387 1155.74,-28.0388"/>
</g>
<!-- Node9&#45;&gt;Node7 -->
<g id="edge9" class="edge"><title>Node9&#45;&gt;Node7</title>
<path fill="none" stroke="midnightblue" d="M1369.67,-42.8393C1378.52,-43.9113 1387.38,-44.985 1395.97,-46.0262"/>
<polygon fill="midnightblue" stroke="midnightblue" points="1370.06,-39.3604 1359.71,-41.6316 1369.22,-46.3095 1370.06,-39.3604"/>
</g>
<!-- Node11 -->
<g id="node11" class="node"><title>Node11</title>
<g id="a_node11"><a xlink:href="../../de/dc3/classcommand_1_1_is_pen_down_command.html#ad407b6afb0b4f714c0846ccda21e6099" target="_top" xlink:title="command.IsPenDownCommand.run">
<polygon fill="white" stroke="black" points="306.5,-0.5 306.5,-19.5 495.5,-19.5 495.5,-0.5 306.5,-0.5"/>
<text text-anchor="middle" x="401" y="-7.5" font-family="Helvetica,sans-Serif" font-size="10.00">command.IsPenDownCommand.run</text>
</a>
</g>
</g>
<!-- Node10&#45;&gt;Node11 -->
<g id="edge11" class="edge"><title>Node10&#45;&gt;Node11</title>
<path fill="none" stroke="midnightblue" d="M279.572,-11.9116C288.287,-11.7732 297.322,-11.6298 306.346,-11.4866"/>
<polygon fill="midnightblue" stroke="midnightblue" points="279.45,-8.41296 269.506,-12.0713 279.561,-15.4121 279.45,-8.41296"/>
</g>
</g>
</svg>
