<?xml version="1.0" encoding="UTF-8" standalone="no"?>
<!DOCTYPE svg PUBLIC "-//W3C//DTD SVG 1.1//EN"
 "http://www.w3.org/Graphics/SVG/1.1/DTD/svg11.dtd">
<!-- Generated by graphviz version 2.36.0 (20140111.2315)
 -->
<!-- Title: turtle.Pen.getSize Pages: 1 -->
<svg width="1536pt" height="87pt"
 viewBox="0.00 0.00 1536.00 87.00" xmlns="http://www.w3.org/2000/svg" xmlns:xlink="http://www.w3.org/1999/xlink">
<g id="graph0" class="graph" transform="scale(1 1) rotate(0) translate(4 83)">
<title>turtle.Pen.getSize</title>
<polygon fill="white" stroke="none" points="-4,4 -4,-83 1532,-83 1532,4 -4,4"/>
<!-- Node1 -->
<g id="node1" class="node"><title>Node1</title>
<polygon fill="#bfbfbf" stroke="black" points="0,-29.5 0,-48.5 102,-48.5 102,-29.5 0,-29.5"/>
<text text-anchor="middle" x="51" y="-36.5" font-family="Helvetica,sans-Serif" font-size="10.00">turtle.Pen.getSize</text>
</g>
<!-- Node2 -->
<g id="node2" class="node"><title>Node2</title>
<g id="a_node2"><a xlink:href="../../df/dcb/classturtle_1_1_turtle.html#ac5df386a63f84a7108ee50e2d663a23c" target="_top" xlink:title="turtle.Turtle.drawLine">
<polygon fill="white" stroke="black" points="138,-29.5 138,-48.5 254,-48.5 254,-29.5 138,-29.5"/>
<text text-anchor="middle" x="196" y="-36.5" font-family="Helvetica,sans-Serif" font-size="10.00">turtle.Turtle.drawLine</text>
</a>
</g>
</g>
<!-- Node1&#45;&gt;Node2 -->
<g id="edge1" class="edge"><title>Node1&#45;&gt;Node2</title>
<path fill="none" stroke="midnightblue" d="M112.247,-39C120.752,-39 129.475,-39 137.918,-39"/>
<polygon fill="midnightblue" stroke="midnightblue" points="112.014,-35.5001 102.014,-39 112.014,-42.5001 112.014,-35.5001"/>
</g>
<!-- Node3 -->
<g id="node3" class="node"><title>Node3</title>
<g id="a_node3"><a xlink:href="../../d8/d08/classworld_controller_1_1_world_controller.html#a9380abb3ed5334498510f1d6a88a826d" target="_top" xlink:title="worldController.WorldController.draw\lTurtle">
<polygon fill="white" stroke="black" points="290.5,-24 290.5,-54 477.5,-54 477.5,-24 290.5,-24"/>
<text text-anchor="start" x="298.5" y="-42" font-family="Helvetica,sans-Serif" font-size="10.00">worldController.WorldController.draw</text>
<text text-anchor="middle" x="384" y="-31" font-family="Helvetica,sans-Serif" font-size="10.00">Turtle</text>
</a>
</g>
</g>
<!-- Node2&#45;&gt;Node3 -->
<g id="edge2" class="edge"><title>Node2&#45;&gt;Node3</title>
<path fill="none" stroke="midnightblue" d="M264.269,-39C272.774,-39 281.59,-39 290.402,-39"/>
<polygon fill="midnightblue" stroke="midnightblue" points="264.07,-35.5001 254.07,-39 264.07,-42.5001 264.07,-35.5001"/>
</g>
<!-- Node4 -->
<g id="node4" class="node"><title>Node4</title>
<g id="a_node4"><a xlink:href="../../d8/d08/classworld_controller_1_1_world_controller.html#a178425d68e3e669c386706153ce44999" target="_top" xlink:title="worldController.WorldController.update">
<polygon fill="white" stroke="black" points="514,-29.5 514,-48.5 712,-48.5 712,-29.5 514,-29.5"/>
<text text-anchor="middle" x="613" y="-36.5" font-family="Helvetica,sans-Serif" font-size="10.00">worldController.WorldController.update</text>
</a>
</g>
</g>
<!-- Node3&#45;&gt;Node4 -->
<g id="edge3" class="edge"><title>Node3&#45;&gt;Node4</title>
<path fill="none" stroke="midnightblue" d="M487.753,-39C496.397,-39 505.125,-39 513.733,-39"/>
<polygon fill="midnightblue" stroke="midnightblue" points="487.657,-35.5001 477.657,-39 487.657,-42.5001 487.657,-35.5001"/>
</g>
<!-- Node5 -->
<g id="node5" class="node"><title>Node5</title>
<g id="a_node5"><a xlink:href="../../dd/d8e/classuser_interface_1_1_user_interface.html#a95e324c85888faea808be269e44ed5b8" target="_top" xlink:title="userInterface.UserInterface.run\lCommand">
<polygon fill="white" stroke="black" points="748,-24 748,-54 914,-54 914,-24 748,-24"/>
<text text-anchor="start" x="756" y="-42" font-family="Helvetica,sans-Serif" font-size="10.00">userInterface.UserInterface.run</text>
<text text-anchor="middle" x="831" y="-31" font-family="Helvetica,sans-Serif" font-size="10.00">Command</text>
</a>
</g>
</g>
<!-- Node4&#45;&gt;Node5 -->
<g id="edge4" class="edge"><title>Node4&#45;&gt;Node5</title>
<path fill="none" stroke="midnightblue" d="M722.29,-39C730.892,-39 739.492,-39 747.871,-39"/>
<polygon fill="midnightblue" stroke="midnightblue" points="722.203,-35.5001 712.203,-39 722.203,-42.5001 722.203,-35.5001"/>
</g>
<!-- Node6 -->
<g id="node6" class="node"><title>Node6</title>
<g id="a_node6"><a xlink:href="../../dd/d8e/classuser_interface_1_1_user_interface.html#a560c36977fddeee87002333870c54ed6" target="_top" xlink:title="userInterface.UserInterface.set\lUpResponses">
<polygon fill="white" stroke="black" points="1170.5,-49 1170.5,-79 1335.5,-79 1335.5,-49 1170.5,-49"/>
<text text-anchor="start" x="1178.5" y="-67" font-family="Helvetica,sans-Serif" font-size="10.00">userInterface.UserInterface.set</text>
<text text-anchor="middle" x="1253" y="-56" font-family="Helvetica,sans-Serif" font-size="10.00">UpResponses</text>
</a>
</g>
</g>
<!-- Node5&#45;&gt;Node6 -->
<g id="edge5" class="edge"><title>Node5&#45;&gt;Node6</title>
<path fill="none" stroke="midnightblue" d="M924.405,-44.5003C997.911,-48.8757 1099.79,-54.9396 1170.33,-59.1386"/>
<polygon fill="midnightblue" stroke="midnightblue" points="924.418,-40.9949 914.227,-43.8945 924.002,-47.9826 924.418,-40.9949"/>
</g>
<!-- Node8 -->
<g id="node8" class="node"><title>Node8</title>
<g id="a_node8"><a xlink:href="../../dd/d8e/classuser_interface_1_1_user_interface.html#a4316649a1f81fcc1dcaf93c812bf6f3a" target="_top" xlink:title="userInterface.UserInterface.make\lRunButton">
<polygon fill="white" stroke="black" points="950.5,-2 950.5,-32 1127.5,-32 1127.5,-2 950.5,-2"/>
<text text-anchor="start" x="958.5" y="-20" font-family="Helvetica,sans-Serif" font-size="10.00">userInterface.UserInterface.make</text>
<text text-anchor="middle" x="1039" y="-9" font-family="Helvetica,sans-Serif" font-size="10.00">RunButton</text>
</a>
</g>
</g>
<!-- Node5&#45;&gt;Node8 -->
<g id="edge7" class="edge"><title>Node5&#45;&gt;Node8</title>
<path fill="none" stroke="midnightblue" d="M924.121,-29.1618C932.789,-28.2361 941.561,-27.2994 950.187,-26.3781"/>
<polygon fill="midnightblue" stroke="midnightblue" points="923.58,-25.6996 914.009,-30.2418 924.324,-32.66 923.58,-25.6996"/>
</g>
<!-- Node7 -->
<g id="node7" class="node"><title>Node7</title>
<g id="a_node7"><a xlink:href="../../dd/d8e/classuser_interface_1_1_user_interface.html#af296b064499e62c4fbfbf73da6456532" target="_top" xlink:title="userInterface.UserInterface.\lUserInterface">
<polygon fill="white" stroke="black" points="1378,-24 1378,-54 1528,-54 1528,-24 1378,-24"/>
<text text-anchor="start" x="1386" y="-42" font-family="Helvetica,sans-Serif" font-size="10.00">userInterface.UserInterface.</text>
<text text-anchor="middle" x="1453" y="-31" font-family="Helvetica,sans-Serif" font-size="10.00">UserInterface</text>
</a>
</g>
</g>
<!-- Node6&#45;&gt;Node7 -->
<g id="edge6" class="edge"><title>Node6&#45;&gt;Node7</title>
<path fill="none" stroke="midnightblue" d="M1345.88,-52.3986C1356.58,-51.0478 1367.39,-49.683 1377.81,-48.3677"/>
<polygon fill="midnightblue" stroke="midnightblue" points="1345.16,-48.962 1335.68,-53.6872 1346.04,-55.9069 1345.16,-48.962"/>
</g>
<!-- Node9 -->
<g id="node9" class="node"><title>Node9</title>
<g id="a_node9"><a xlink:href="../../dd/d8e/classuser_interface_1_1_user_interface.html#a6d39ee7d7ae35fc0539bb714bce6221a" target="_top" xlink:title="userInterface.UserInterface.make\lFunctionButtons">
<polygon fill="white" stroke="black" points="1164.5,-0 1164.5,-30 1341.5,-30 1341.5,-0 1164.5,-0"/>
<text text-anchor="start" x="1172.5" y="-18" font-family="Helvetica,sans-Serif" font-size="10.00">userInterface.UserInterface.make</text>
<text text-anchor="middle" x="1253" y="-7" font-family="Helvetica,sans-Serif" font-size="10.00">FunctionButtons</text>
</a>
</g>
</g>
<!-- Node8&#45;&gt;Node9 -->
<g id="edge8" class="edge"><title>Node8&#45;&gt;Node9</title>
<path fill="none" stroke="midnightblue" d="M1138.01,-16.0754C1146.78,-15.9926 1155.63,-15.9092 1164.31,-15.8273"/>
<polygon fill="midnightblue" stroke="midnightblue" points="1137.73,-12.5778 1127.76,-16.1721 1137.79,-19.5775 1137.73,-12.5778"/>
</g>
<!-- Node9&#45;&gt;Node7 -->
<g id="edge9" class="edge"><title>Node9&#45;&gt;Node7</title>
<path fill="none" stroke="midnightblue" d="M1351.67,-26.8393C1360.52,-27.9113 1369.38,-28.985 1377.97,-30.0262"/>
<polygon fill="midnightblue" stroke="midnightblue" points="1352.06,-23.3604 1341.71,-25.6316 1351.22,-30.3095 1352.06,-23.3604"/>
</g>
</g>
</svg>
