<?xml version="1.0" encoding="UTF-8" standalone="no"?>
<!DOCTYPE svg PUBLIC "-//W3C//DTD SVG 1.1//EN"
 "http://www.w3.org/Graphics/SVG/1.1/DTD/svg11.dtd">
<!-- Generated by graphviz version 2.36.0 (20140111.2315)
 -->
<!-- Title: turtle.Pen.getColor Pages: 1 -->
<svg width="1542pt" height="87pt"
 viewBox="0.00 0.00 1542.00 87.00" xmlns="http://www.w3.org/2000/svg" xmlns:xlink="http://www.w3.org/1999/xlink">
<g id="graph0" class="graph" transform="scale(1 1) rotate(0) translate(4 83)">
<title>turtle.Pen.getColor</title>
<polygon fill="white" stroke="none" points="-4,4 -4,-83 1538,-83 1538,4 -4,4"/>
<!-- Node1 -->
<g id="node1" class="node"><title>Node1</title>
<polygon fill="#bfbfbf" stroke="black" points="0.5,-29.5 0.5,-48.5 107.5,-48.5 107.5,-29.5 0.5,-29.5"/>
<text text-anchor="middle" x="54" y="-36.5" font-family="Helvetica,sans-Serif" font-size="10.00">turtle.Pen.getColor</text>
</g>
<!-- Node2 -->
<g id="node2" class="node"><title>Node2</title>
<g id="a_node2"><a xlink:href="../../df/dcb/classturtle_1_1_turtle.html#ac5df386a63f84a7108ee50e2d663a23c" target="_top" xlink:title="turtle.Turtle.drawLine">
<polygon fill="white" stroke="black" points="144,-29.5 144,-48.5 260,-48.5 260,-29.5 144,-29.5"/>
<text text-anchor="middle" x="202" y="-36.5" font-family="Helvetica,sans-Serif" font-size="10.00">turtle.Turtle.drawLine</text>
</a>
</g>
</g>
<!-- Node1&#45;&gt;Node2 -->
<g id="edge1" class="edge"><title>Node1&#45;&gt;Node2</title>
<path fill="none" stroke="midnightblue" d="M117.784,-39C126.469,-39 135.351,-39 143.925,-39"/>
<polygon fill="midnightblue" stroke="midnightblue" points="117.709,-35.5001 107.709,-39 117.709,-42.5001 117.709,-35.5001"/>
</g>
<!-- Node3 -->
<g id="node3" class="node"><title>Node3</title>
<g id="a_node3"><a xlink:href="../../d8/d08/classworld_controller_1_1_world_controller.html#a9380abb3ed5334498510f1d6a88a826d" target="_top" xlink:title="worldController.WorldController.draw\lTurtle">
<polygon fill="white" stroke="black" points="296.5,-24 296.5,-54 483.5,-54 483.5,-24 296.5,-24"/>
<text text-anchor="start" x="304.5" y="-42" font-family="Helvetica,sans-Serif" font-size="10.00">worldController.WorldController.draw</text>
<text text-anchor="middle" x="390" y="-31" font-family="Helvetica,sans-Serif" font-size="10.00">Turtle</text>
</a>
</g>
</g>
<!-- Node2&#45;&gt;Node3 -->
<g id="edge2" class="edge"><title>Node2&#45;&gt;Node3</title>
<path fill="none" stroke="midnightblue" d="M270.269,-39C278.774,-39 287.59,-39 296.402,-39"/>
<polygon fill="midnightblue" stroke="midnightblue" points="270.07,-35.5001 260.07,-39 270.07,-42.5001 270.07,-35.5001"/>
</g>
<!-- Node4 -->
<g id="node4" class="node"><title>Node4</title>
<g id="a_node4"><a xlink:href="../../d8/d08/classworld_controller_1_1_world_controller.html#a178425d68e3e669c386706153ce44999" target="_top" xlink:title="worldController.WorldController.update">
<polygon fill="white" stroke="black" points="520,-29.5 520,-48.5 718,-48.5 718,-29.5 520,-29.5"/>
<text text-anchor="middle" x="619" y="-36.5" font-family="Helvetica,sans-Serif" font-size="10.00">worldController.WorldController.update</text>
</a>
</g>
</g>
<!-- Node3&#45;&gt;Node4 -->
<g id="edge3" class="edge"><title>Node3&#45;&gt;Node4</title>
<path fill="none" stroke="midnightblue" d="M493.753,-39C502.397,-39 511.125,-39 519.733,-39"/>
<polygon fill="midnightblue" stroke="midnightblue" points="493.657,-35.5001 483.657,-39 493.657,-42.5001 493.657,-35.5001"/>
</g>
<!-- Node5 -->
<g id="node5" class="node"><title>Node5</title>
<g id="a_node5"><a xlink:href="../../dd/d8e/classuser_interface_1_1_user_interface.html#a95e324c85888faea808be269e44ed5b8" target="_top" xlink:title="userInterface.UserInterface.run\lCommand">
<polygon fill="white" stroke="black" points="754,-24 754,-54 920,-54 920,-24 754,-24"/>
<text text-anchor="start" x="762" y="-42" font-family="Helvetica,sans-Serif" font-size="10.00">userInterface.UserInterface.run</text>
<text text-anchor="middle" x="837" y="-31" font-family="Helvetica,sans-Serif" font-size="10.00">Command</text>
</a>
</g>
</g>
<!-- Node4&#45;&gt;Node5 -->
<g id="edge4" class="edge"><title>Node4&#45;&gt;Node5</title>
<path fill="none" stroke="midnightblue" d="M728.29,-39C736.892,-39 745.492,-39 753.871,-39"/>
<polygon fill="midnightblue" stroke="midnightblue" points="728.203,-35.5001 718.203,-39 728.203,-42.5001 728.203,-35.5001"/>
</g>
<!-- Node6 -->
<g id="node6" class="node"><title>Node6</title>
<g id="a_node6"><a xlink:href="../../dd/d8e/classuser_interface_1_1_user_interface.html#a560c36977fddeee87002333870c54ed6" target="_top" xlink:title="userInterface.UserInterface.set\lUpResponses">
<polygon fill="white" stroke="black" points="1176.5,-49 1176.5,-79 1341.5,-79 1341.5,-49 1176.5,-49"/>
<text text-anchor="start" x="1184.5" y="-67" font-family="Helvetica,sans-Serif" font-size="10.00">userInterface.UserInterface.set</text>
<text text-anchor="middle" x="1259" y="-56" font-family="Helvetica,sans-Serif" font-size="10.00">UpResponses</text>
</a>
</g>
</g>
<!-- Node5&#45;&gt;Node6 -->
<g id="edge5" class="edge"><title>Node5&#45;&gt;Node6</title>
<path fill="none" stroke="midnightblue" d="M930.405,-44.5003C1003.91,-48.8757 1105.79,-54.9396 1176.33,-59.1386"/>
<polygon fill="midnightblue" stroke="midnightblue" points="930.418,-40.9949 920.227,-43.8945 930.002,-47.9826 930.418,-40.9949"/>
</g>
<!-- Node8 -->
<g id="node8" class="node"><title>Node8</title>
<g id="a_node8"><a xlink:href="../../dd/d8e/classuser_interface_1_1_user_interface.html#a4316649a1f81fcc1dcaf93c812bf6f3a" target="_top" xlink:title="userInterface.UserInterface.make\lRunButton">
<polygon fill="white" stroke="black" points="956.5,-2 956.5,-32 1133.5,-32 1133.5,-2 956.5,-2"/>
<text text-anchor="start" x="964.5" y="-20" font-family="Helvetica,sans-Serif" font-size="10.00">userInterface.UserInterface.make</text>
<text text-anchor="middle" x="1045" y="-9" font-family="Helvetica,sans-Serif" font-size="10.00">RunButton</text>
</a>
</g>
</g>
<!-- Node5&#45;&gt;Node8 -->
<g id="edge7" class="edge"><title>Node5&#45;&gt;Node8</title>
<path fill="none" stroke="midnightblue" d="M930.121,-29.1618C938.789,-28.2361 947.561,-27.2994 956.187,-26.3781"/>
<polygon fill="midnightblue" stroke="midnightblue" points="929.58,-25.6996 920.009,-30.2418 930.324,-32.66 929.58,-25.6996"/>
</g>
<!-- Node7 -->
<g id="node7" class="node"><title>Node7</title>
<g id="a_node7"><a xlink:href="../../dd/d8e/classuser_interface_1_1_user_interface.html#af296b064499e62c4fbfbf73da6456532" target="_top" xlink:title="userInterface.UserInterface.\lUserInterface">
<polygon fill="white" stroke="black" points="1384,-24 1384,-54 1534,-54 1534,-24 1384,-24"/>
<text text-anchor="start" x="1392" y="-42" font-family="Helvetica,sans-Serif" font-size="10.00">userInterface.UserInterface.</text>
<text text-anchor="middle" x="1459" y="-31" font-family="Helvetica,sans-Serif" font-size="10.00">UserInterface</text>
</a>
</g>
</g>
<!-- Node6&#45;&gt;Node7 -->
<g id="edge6" class="edge"><title>Node6&#45;&gt;Node7</title>
<path fill="none" stroke="midnightblue" d="M1351.88,-52.3986C1362.58,-51.0478 1373.39,-49.683 1383.81,-48.3677"/>
<polygon fill="midnightblue" stroke="midnightblue" points="1351.16,-48.962 1341.68,-53.6872 1352.04,-55.9069 1351.16,-48.962"/>
</g>
<!-- Node9 -->
<g id="node9" class="node"><title>Node9</title>
<g id="a_node9"><a xlink:href="../../dd/d8e/classuser_interface_1_1_user_interface.html#a6d39ee7d7ae35fc0539bb714bce6221a" target="_top" xlink:title="userInterface.UserInterface.make\lFunctionButtons">
<polygon fill="white" stroke="black" points="1170.5,-0 1170.5,-30 1347.5,-30 1347.5,-0 1170.5,-0"/>
<text text-anchor="start" x="1178.5" y="-18" font-family="Helvetica,sans-Serif" font-size="10.00">userInterface.UserInterface.make</text>
<text text-anchor="middle" x="1259" y="-7" font-family="Helvetica,sans-Serif" font-size="10.00">FunctionButtons</text>
</a>
</g>
</g>
<!-- Node8&#45;&gt;Node9 -->
<g id="edge8" class="edge"><title>Node8&#45;&gt;Node9</title>
<path fill="none" stroke="midnightblue" d="M1144.01,-16.0754C1152.78,-15.9926 1161.63,-15.9092 1170.31,-15.8273"/>
<polygon fill="midnightblue" stroke="midnightblue" points="1143.73,-12.5778 1133.76,-16.1721 1143.79,-19.5775 1143.73,-12.5778"/>
</g>
<!-- Node9&#45;&gt;Node7 -->
<g id="edge9" class="edge"><title>Node9&#45;&gt;Node7</title>
<path fill="none" stroke="midnightblue" d="M1357.67,-26.8393C1366.52,-27.9113 1375.38,-28.985 1383.97,-30.0262"/>
<polygon fill="midnightblue" stroke="midnightblue" points="1358.06,-23.3604 1347.71,-25.6316 1357.22,-30.3095 1358.06,-23.3604"/>
</g>
</g>
</svg>
