<?xml version="1.0" encoding="UTF-8" standalone="no"?>
<!DOCTYPE svg PUBLIC "-//W3C//DTD SVG 1.1//EN"
 "http://www.w3.org/Graphics/SVG/1.1/DTD/svg11.dtd">
<!-- Generated by graphviz version 2.36.0 (20140111.2315)
 -->
<!-- Title: turtle.Pen.getColor Pages: 1 -->
<svg width="1376pt" height="95pt"
 viewBox="0.00 0.00 1376.00 95.00" xmlns="http://www.w3.org/2000/svg" xmlns:xlink="http://www.w3.org/1999/xlink">
<g id="graph0" class="graph" transform="scale(1 1) rotate(0) translate(4 91)">
<title>turtle.Pen.getColor</title>
<polygon fill="white" stroke="none" points="-4,4 -4,-91 1372,-91 1372,4 -4,4"/>
<!-- Node1 -->
<g id="node1" class="node"><title>Node1</title>
<polygon fill="#bfbfbf" stroke="black" points="0.5,-48.5 0.5,-67.5 107.5,-67.5 107.5,-48.5 0.5,-48.5"/>
<text text-anchor="middle" x="54" y="-55.5" font-family="Helvetica,sans-Serif" font-size="10.00">turtle.Pen.getColor</text>
</g>
<!-- Node2 -->
<g id="node2" class="node"><title>Node2</title>
<g id="a_node2"><a xlink:href="../../df/dcb/classturtle_1_1_turtle.html#ac5df386a63f84a7108ee50e2d663a23c" target="_top" xlink:title="turtle.Turtle.drawLine">
<polygon fill="white" stroke="black" points="173,-67.5 173,-86.5 289,-86.5 289,-67.5 173,-67.5"/>
<text text-anchor="middle" x="231" y="-74.5" font-family="Helvetica,sans-Serif" font-size="10.00">turtle.Turtle.drawLine</text>
</a>
</g>
</g>
<!-- Node1&#45;&gt;Node2 -->
<g id="edge1" class="edge"><title>Node1&#45;&gt;Node2</title>
<path fill="none" stroke="midnightblue" d="M117.638,-64.8007C135.683,-66.7599 155.267,-68.8861 172.954,-70.8064"/>
<polygon fill="midnightblue" stroke="midnightblue" points="117.825,-61.3005 107.506,-63.7006 117.07,-68.2596 117.825,-61.3005"/>
</g>
<!-- Node3 -->
<g id="node3" class="node"><title>Node3</title>
<g id="a_node3"><a xlink:href="../../df/dcb/classturtle_1_1_turtle.html#a610aafaf658c4b351330b7c16c66881c" target="_top" xlink:title="turtle.Turtle.updatePenAttributes">
<polygon fill="white" stroke="black" points="144.5,-29.5 144.5,-48.5 317.5,-48.5 317.5,-29.5 144.5,-29.5"/>
<text text-anchor="middle" x="231" y="-36.5" font-family="Helvetica,sans-Serif" font-size="10.00">turtle.Turtle.updatePenAttributes</text>
</a>
</g>
</g>
<!-- Node1&#45;&gt;Node3 -->
<g id="edge2" class="edge"><title>Node1&#45;&gt;Node3</title>
<path fill="none" stroke="midnightblue" d="M117.573,-51.2064C126.31,-50.2578 135.408,-49.27 144.479,-48.2852"/>
<polygon fill="midnightblue" stroke="midnightblue" points="117.07,-47.7404 107.506,-52.2994 117.825,-54.6995 117.07,-47.7404"/>
</g>
<!-- Node4 -->
<g id="node4" class="node"><title>Node4</title>
<g id="a_node4"><a xlink:href="../../d8/d08/classworld_controller_1_1_world_controller.html#a178425d68e3e669c386706153ce44999" target="_top" xlink:title="worldController.WorldController.update">
<polygon fill="white" stroke="black" points="354,-29.5 354,-48.5 552,-48.5 552,-29.5 354,-29.5"/>
<text text-anchor="middle" x="453" y="-36.5" font-family="Helvetica,sans-Serif" font-size="10.00">worldController.WorldController.update</text>
</a>
</g>
</g>
<!-- Node3&#45;&gt;Node4 -->
<g id="edge3" class="edge"><title>Node3&#45;&gt;Node4</title>
<path fill="none" stroke="midnightblue" d="M327.744,-39C336.369,-39 345.112,-39 353.758,-39"/>
<polygon fill="midnightblue" stroke="midnightblue" points="327.688,-35.5001 317.688,-39 327.688,-42.5001 327.688,-35.5001"/>
</g>
<!-- Node5 -->
<g id="node5" class="node"><title>Node5</title>
<g id="a_node5"><a xlink:href="../../dd/d8e/classuser_interface_1_1_user_interface.html#a95e324c85888faea808be269e44ed5b8" target="_top" xlink:title="userInterface.UserInterface.run\lCommand">
<polygon fill="white" stroke="black" points="588,-24 588,-54 754,-54 754,-24 588,-24"/>
<text text-anchor="start" x="596" y="-42" font-family="Helvetica,sans-Serif" font-size="10.00">userInterface.UserInterface.run</text>
<text text-anchor="middle" x="671" y="-31" font-family="Helvetica,sans-Serif" font-size="10.00">Command</text>
</a>
</g>
</g>
<!-- Node4&#45;&gt;Node5 -->
<g id="edge4" class="edge"><title>Node4&#45;&gt;Node5</title>
<path fill="none" stroke="midnightblue" d="M562.29,-39C570.892,-39 579.492,-39 587.871,-39"/>
<polygon fill="midnightblue" stroke="midnightblue" points="562.203,-35.5001 552.203,-39 562.203,-42.5001 562.203,-35.5001"/>
</g>
<!-- Node6 -->
<g id="node6" class="node"><title>Node6</title>
<g id="a_node6"><a xlink:href="../../dd/d8e/classuser_interface_1_1_user_interface.html#a560c36977fddeee87002333870c54ed6" target="_top" xlink:title="userInterface.UserInterface.set\lUpResponses">
<polygon fill="white" stroke="black" points="1010.5,-49 1010.5,-79 1175.5,-79 1175.5,-49 1010.5,-49"/>
<text text-anchor="start" x="1018.5" y="-67" font-family="Helvetica,sans-Serif" font-size="10.00">userInterface.UserInterface.set</text>
<text text-anchor="middle" x="1093" y="-56" font-family="Helvetica,sans-Serif" font-size="10.00">UpResponses</text>
</a>
</g>
</g>
<!-- Node5&#45;&gt;Node6 -->
<g id="edge5" class="edge"><title>Node5&#45;&gt;Node6</title>
<path fill="none" stroke="midnightblue" d="M764.405,-44.5003C837.911,-48.8757 939.786,-54.9396 1010.33,-59.1386"/>
<polygon fill="midnightblue" stroke="midnightblue" points="764.418,-40.9949 754.227,-43.8945 764.002,-47.9826 764.418,-40.9949"/>
</g>
<!-- Node8 -->
<g id="node8" class="node"><title>Node8</title>
<g id="a_node8"><a xlink:href="../../dd/d8e/classuser_interface_1_1_user_interface.html#a4316649a1f81fcc1dcaf93c812bf6f3a" target="_top" xlink:title="userInterface.UserInterface.make\lRunButton">
<polygon fill="white" stroke="black" points="790.5,-2 790.5,-32 967.5,-32 967.5,-2 790.5,-2"/>
<text text-anchor="start" x="798.5" y="-20" font-family="Helvetica,sans-Serif" font-size="10.00">userInterface.UserInterface.make</text>
<text text-anchor="middle" x="879" y="-9" font-family="Helvetica,sans-Serif" font-size="10.00">RunButton</text>
</a>
</g>
</g>
<!-- Node5&#45;&gt;Node8 -->
<g id="edge7" class="edge"><title>Node5&#45;&gt;Node8</title>
<path fill="none" stroke="midnightblue" d="M764.121,-29.1618C772.789,-28.2361 781.561,-27.2994 790.187,-26.3781"/>
<polygon fill="midnightblue" stroke="midnightblue" points="763.58,-25.6996 754.009,-30.2418 764.324,-32.66 763.58,-25.6996"/>
</g>
<!-- Node7 -->
<g id="node7" class="node"><title>Node7</title>
<g id="a_node7"><a xlink:href="../../dd/d8e/classuser_interface_1_1_user_interface.html#af296b064499e62c4fbfbf73da6456532" target="_top" xlink:title="userInterface.UserInterface.\lUserInterface">
<polygon fill="white" stroke="black" points="1218,-24 1218,-54 1368,-54 1368,-24 1218,-24"/>
<text text-anchor="start" x="1226" y="-42" font-family="Helvetica,sans-Serif" font-size="10.00">userInterface.UserInterface.</text>
<text text-anchor="middle" x="1293" y="-31" font-family="Helvetica,sans-Serif" font-size="10.00">UserInterface</text>
</a>
</g>
</g>
<!-- Node6&#45;&gt;Node7 -->
<g id="edge6" class="edge"><title>Node6&#45;&gt;Node7</title>
<path fill="none" stroke="midnightblue" d="M1185.88,-52.3986C1196.58,-51.0478 1207.39,-49.683 1217.81,-48.3677"/>
<polygon fill="midnightblue" stroke="midnightblue" points="1185.16,-48.962 1175.68,-53.6872 1186.04,-55.9069 1185.16,-48.962"/>
</g>
<!-- Node9 -->
<g id="node9" class="node"><title>Node9</title>
<g id="a_node9"><a xlink:href="../../dd/d8e/classuser_interface_1_1_user_interface.html#a6d39ee7d7ae35fc0539bb714bce6221a" target="_top" xlink:title="userInterface.UserInterface.make\lFunctionButtons">
<polygon fill="white" stroke="black" points="1004.5,-0 1004.5,-30 1181.5,-30 1181.5,-0 1004.5,-0"/>
<text text-anchor="start" x="1012.5" y="-18" font-family="Helvetica,sans-Serif" font-size="10.00">userInterface.UserInterface.make</text>
<text text-anchor="middle" x="1093" y="-7" font-family="Helvetica,sans-Serif" font-size="10.00">FunctionButtons</text>
</a>
</g>
</g>
<!-- Node8&#45;&gt;Node9 -->
<g id="edge8" class="edge"><title>Node8&#45;&gt;Node9</title>
<path fill="none" stroke="midnightblue" d="M978.01,-16.0754C986.783,-15.9926 995.629,-15.9092 1004.31,-15.8273"/>
<polygon fill="midnightblue" stroke="midnightblue" points="977.725,-12.5778 967.759,-16.1721 977.791,-19.5775 977.725,-12.5778"/>
</g>
<!-- Node9&#45;&gt;Node7 -->
<g id="edge9" class="edge"><title>Node9&#45;&gt;Node7</title>
<path fill="none" stroke="midnightblue" d="M1191.67,-26.8393C1200.52,-27.9113 1209.38,-28.985 1217.97,-30.0262"/>
<polygon fill="midnightblue" stroke="midnightblue" points="1192.06,-23.3604 1181.71,-25.6316 1191.22,-30.3095 1192.06,-23.3604"/>
</g>
</g>
</svg>
