<?xml version="1.0" encoding="UTF-8" standalone="no"?>
<!DOCTYPE svg PUBLIC "-//W3C//DTD SVG 1.1//EN"
 "http://www.w3.org/Graphics/SVG/1.1/DTD/svg11.dtd">
<!-- Generated by graphviz version 2.36.0 (20140111.2315)
 -->
<!-- Title: turtle.Pen.penReady Pages: 1 -->
<svg width="972pt" height="160pt"
 viewBox="0.00 0.00 972.00 160.00" xmlns="http://www.w3.org/2000/svg" xmlns:xlink="http://www.w3.org/1999/xlink">
<g id="graph0" class="graph" transform="scale(1 1) rotate(0) translate(4 156)">
<title>turtle.Pen.penReady</title>
<polygon fill="white" stroke="none" points="-4,4 -4,-156 968,-156 968,4 -4,4"/>
<!-- Node1 -->
<g id="node1" class="node"><title>Node1</title>
<polygon fill="#bfbfbf" stroke="black" points="0.5,-70.5 0.5,-89.5 113.5,-89.5 113.5,-70.5 0.5,-70.5"/>
<text text-anchor="middle" x="57" y="-77.5" font-family="Helvetica,sans-Serif" font-size="10.00">turtle.Pen.penReady</text>
</g>
<!-- Node2 -->
<g id="node2" class="node"><title>Node2</title>
<g id="a_node2"><a xlink:href="../../df/dcb/classturtle_1_1_turtle.html#a7c0f37993844a70cdd57951ae4a916dd" target="_top" xlink:title="turtle.Turtle.animatedMove">
<polygon fill="white" stroke="black" points="156.5,-127.5 156.5,-146.5 301.5,-146.5 301.5,-127.5 156.5,-127.5"/>
<text text-anchor="middle" x="229" y="-134.5" font-family="Helvetica,sans-Serif" font-size="10.00">turtle.Turtle.animatedMove</text>
</a>
</g>
</g>
<!-- Node1&#45;&gt;Node2 -->
<g id="edge1" class="edge"><title>Node1&#45;&gt;Node2</title>
<path fill="none" stroke="midnightblue" d="M87.7744,-93.656C105.578,-101.478 128.791,-111.082 150,-118 160.733,-121.501 172.483,-124.689 183.531,-127.411"/>
<polygon fill="midnightblue" stroke="midnightblue" points="89.0466,-90.3913 78.4875,-89.5223 86.2001,-96.7864 89.0466,-90.3913"/>
</g>
<!-- Node6 -->
<g id="node6" class="node"><title>Node6</title>
<g id="a_node6"><a xlink:href="../../df/dcb/classturtle_1_1_turtle.html#ac5df386a63f84a7108ee50e2d663a23c" target="_top" xlink:title="turtle.Turtle.drawLine">
<polygon fill="white" stroke="black" points="171,-89.5 171,-108.5 287,-108.5 287,-89.5 171,-89.5"/>
<text text-anchor="middle" x="229" y="-96.5" font-family="Helvetica,sans-Serif" font-size="10.00">turtle.Turtle.drawLine</text>
</a>
</g>
</g>
<!-- Node1&#45;&gt;Node6 -->
<g id="edge5" class="edge"><title>Node1&#45;&gt;Node6</title>
<path fill="none" stroke="midnightblue" d="M123.707,-87.3437C139.223,-89.0779 155.645,-90.9133 170.753,-92.6018"/>
<polygon fill="midnightblue" stroke="midnightblue" points="123.991,-83.8538 113.664,-86.2213 123.214,-90.8105 123.991,-83.8538"/>
</g>
<!-- Node7 -->
<g id="node7" class="node"><title>Node7</title>
<g id="a_node7"><a xlink:href="../../df/dcb/classturtle_1_1_turtle.html#a705ea4fb106755bef5f4af563515b537" target="_top" xlink:title="turtle.Turtle.isDrawing">
<polygon fill="white" stroke="black" points="169.5,-51.5 169.5,-70.5 288.5,-70.5 288.5,-51.5 169.5,-51.5"/>
<text text-anchor="middle" x="229" y="-58.5" font-family="Helvetica,sans-Serif" font-size="10.00">turtle.Turtle.isDrawing</text>
</a>
</g>
</g>
<!-- Node1&#45;&gt;Node7 -->
<g id="edge6" class="edge"><title>Node1&#45;&gt;Node7</title>
<path fill="none" stroke="midnightblue" d="M123.869,-72.6382C138.837,-70.9653 154.64,-69.1991 169.287,-67.562"/>
<polygon fill="midnightblue" stroke="midnightblue" points="123.214,-69.1895 113.664,-73.7787 123.991,-76.1462 123.214,-69.1895"/>
</g>
<!-- Node9 -->
<g id="node9" class="node"><title>Node9</title>
<g id="a_node9"><a xlink:href="../../df/dcb/classturtle_1_1_turtle.html#a432dcb17f8c2751445c2c98e9b2f7fba" target="_top" xlink:title="turtle.Turtle.previousDrawLine">
<polygon fill="white" stroke="black" points="150,-10.5 150,-29.5 308,-29.5 308,-10.5 150,-10.5"/>
<text text-anchor="middle" x="229" y="-17.5" font-family="Helvetica,sans-Serif" font-size="10.00">turtle.Turtle.previousDrawLine</text>
</a>
</g>
</g>
<!-- Node1&#45;&gt;Node9 -->
<g id="edge8" class="edge"><title>Node1&#45;&gt;Node9</title>
<path fill="none" stroke="midnightblue" d="M88.5709,-66.3205C106.311,-58.6488 129.195,-49.2033 150,-42 163.163,-37.4428 177.81,-33.1202 190.825,-29.5322"/>
<polygon fill="midnightblue" stroke="midnightblue" points="87.053,-63.1641 79.2903,-70.3746 89.8552,-69.5788 87.053,-63.1641"/>
</g>
<!-- Node3 -->
<g id="node3" class="node"><title>Node3</title>
<g id="a_node3"><a xlink:href="../../d8/d08/classworld_controller_1_1_world_controller.html#a6158b4b98f36224f3e871c8a164a0137" target="_top" xlink:title="worldController.WorldController.make\lKeyFrame">
<polygon fill="white" stroke="black" points="344.5,-122 344.5,-152 535.5,-152 535.5,-122 344.5,-122"/>
<text text-anchor="start" x="352.5" y="-140" font-family="Helvetica,sans-Serif" font-size="10.00">worldController.WorldController.make</text>
<text text-anchor="middle" x="440" y="-129" font-family="Helvetica,sans-Serif" font-size="10.00">KeyFrame</text>
</a>
</g>
</g>
<!-- Node2&#45;&gt;Node3 -->
<g id="edge2" class="edge"><title>Node2&#45;&gt;Node3</title>
<path fill="none" stroke="midnightblue" d="M311.725,-137C322.373,-137 333.352,-137 344.191,-137"/>
<polygon fill="midnightblue" stroke="midnightblue" points="311.634,-133.5 301.634,-137 311.634,-140.5 311.634,-133.5"/>
</g>
<!-- Node4 -->
<g id="node4" class="node"><title>Node4</title>
<g id="a_node4"><a xlink:href="../../d8/d08/classworld_controller_1_1_world_controller.html#a338b2d907598a400b7cbcfbb86550a71" target="_top" xlink:title="worldController.WorldController.make\lTimeline">
<polygon fill="white" stroke="black" points="572.5,-122 572.5,-152 763.5,-152 763.5,-122 572.5,-122"/>
<text text-anchor="start" x="580.5" y="-140" font-family="Helvetica,sans-Serif" font-size="10.00">worldController.WorldController.make</text>
<text text-anchor="middle" x="668" y="-129" font-family="Helvetica,sans-Serif" font-size="10.00">Timeline</text>
</a>
</g>
</g>
<!-- Node3&#45;&gt;Node4 -->
<g id="edge3" class="edge"><title>Node3&#45;&gt;Node4</title>
<path fill="none" stroke="midnightblue" d="M545.611,-137C554.572,-137 563.605,-137 572.48,-137"/>
<polygon fill="midnightblue" stroke="midnightblue" points="545.535,-133.5 535.535,-137 545.535,-140.5 545.535,-133.5"/>
</g>
<!-- Node5 -->
<g id="node5" class="node"><title>Node5</title>
<g id="a_node5"><a xlink:href="../../d8/d08/classworld_controller_1_1_world_controller.html#a2f1f4f6fa731a84b45d6e92813d8c941" target="_top" xlink:title="worldController.WorldController.\lWorldController">
<polygon fill="white" stroke="black" points="800,-122 800,-152 964,-152 964,-122 800,-122"/>
<text text-anchor="start" x="808" y="-140" font-family="Helvetica,sans-Serif" font-size="10.00">worldController.WorldController.</text>
<text text-anchor="middle" x="882" y="-129" font-family="Helvetica,sans-Serif" font-size="10.00">WorldController</text>
</a>
</g>
</g>
<!-- Node4&#45;&gt;Node5 -->
<g id="edge4" class="edge"><title>Node4&#45;&gt;Node5</title>
<path fill="none" stroke="midnightblue" d="M773.812,-137C782.587,-137 791.373,-137 799.929,-137"/>
<polygon fill="midnightblue" stroke="midnightblue" points="773.53,-133.5 763.53,-137 773.53,-140.5 773.53,-133.5"/>
</g>
<!-- Node8 -->
<g id="node8" class="node"><title>Node8</title>
<g id="a_node8"><a xlink:href="../../de/dc3/classcommand_1_1_is_pen_down_command.html#a9a16d52346a0c92c5b97894801107494" target="_top" xlink:title="command.IsPenDownCommand.do\lCommand">
<polygon fill="white" stroke="black" points="347.5,-49 347.5,-79 532.5,-79 532.5,-49 347.5,-49"/>
<text text-anchor="start" x="355.5" y="-67" font-family="Helvetica,sans-Serif" font-size="10.00">command.IsPenDownCommand.do</text>
<text text-anchor="middle" x="440" y="-56" font-family="Helvetica,sans-Serif" font-size="10.00">Command</text>
</a>
</g>
</g>
<!-- Node7&#45;&gt;Node8 -->
<g id="edge7" class="edge"><title>Node7&#45;&gt;Node8</title>
<path fill="none" stroke="midnightblue" d="M298.809,-61.9877C314.368,-62.211 331.127,-62.4516 347.457,-62.686"/>
<polygon fill="midnightblue" stroke="midnightblue" points="298.824,-58.4876 288.774,-61.8437 298.723,-65.4869 298.824,-58.4876"/>
</g>
<!-- Node10 -->
<g id="node10" class="node"><title>Node10</title>
<g id="a_node10"><a xlink:href="../../d8/d08/classworld_controller_1_1_world_controller.html#a9380abb3ed5334498510f1d6a88a826d" target="_top" xlink:title="worldController.WorldController.draw\lTurtle">
<polygon fill="white" stroke="black" points="346.5,-0 346.5,-30 533.5,-30 533.5,-0 346.5,-0"/>
<text text-anchor="start" x="354.5" y="-18" font-family="Helvetica,sans-Serif" font-size="10.00">worldController.WorldController.draw</text>
<text text-anchor="middle" x="440" y="-7" font-family="Helvetica,sans-Serif" font-size="10.00">Turtle</text>
</a>
</g>
</g>
<!-- Node9&#45;&gt;Node10 -->
<g id="edge9" class="edge"><title>Node9&#45;&gt;Node10</title>
<path fill="none" stroke="midnightblue" d="M318.401,-17.8851C327.585,-17.6654 336.938,-17.4417 346.168,-17.2209"/>
<polygon fill="midnightblue" stroke="midnightblue" points="318.034,-14.3928 308.121,-18.1311 318.202,-21.3908 318.034,-14.3928"/>
</g>
</g>
</svg>
