<?xml version="1.0" encoding="UTF-8" standalone="no"?>
<!DOCTYPE svg PUBLIC "-//W3C//DTD SVG 1.1//EN"
 "http://www.w3.org/Graphics/SVG/1.1/DTD/svg11.dtd">
<!-- Generated by graphviz version 2.36.0 (20140111.2315)
 -->
<!-- Title: command.TellCommand.run Pages: 1 -->
<svg width="314pt" height="66pt"
 viewBox="0.00 0.00 314.00 66.00" xmlns="http://www.w3.org/2000/svg" xmlns:xlink="http://www.w3.org/1999/xlink">
<g id="graph0" class="graph" transform="scale(1 1) rotate(0) translate(4 62)">
<title>command.TellCommand.run</title>
<polygon fill="white" stroke="none" points="-4,4 -4,-62 310,-62 310,4 -4,4"/>
<!-- Node1 -->
<g id="node1" class="node"><title>Node1</title>
<polygon fill="#bfbfbf" stroke="black" points="0,-19.5 0,-38.5 152,-38.5 152,-19.5 0,-19.5"/>
<text text-anchor="middle" x="76" y="-26.5" font-family="Helvetica,sans-Serif" font-size="10.00">command.TellCommand.run</text>
</g>
<!-- Node2 -->
<g id="node2" class="node"><title>Node2</title>
<g id="a_node2"><a xlink:href="../../df/dcb/classturtle_1_1_turtle.html#a2b42f3f7bdca37f767fa747557f090dd" target="_top" xlink:title="turtle.Turtle.getID">
<polygon fill="white" stroke="black" points="197.5,-38.5 197.5,-57.5 296.5,-57.5 296.5,-38.5 197.5,-38.5"/>
<text text-anchor="middle" x="247" y="-45.5" font-family="Helvetica,sans-Serif" font-size="10.00">turtle.Turtle.getID</text>
</a>
</g>
</g>
<!-- Node1&#45;&gt;Node2 -->
<g id="edge1" class="edge"><title>Node1&#45;&gt;Node2</title>
<path fill="none" stroke="midnightblue" d="M152.11,-37.4443C163.854,-38.7647 175.843,-40.1125 187.154,-41.3842"/>
<polygon fill="midnightblue" stroke="midnightblue" points="186.997,-44.8885 197.325,-42.5277 187.779,-37.9323 186.997,-44.8885"/>
</g>
<!-- Node3 -->
<g id="node3" class="node"><title>Node3</title>
<g id="a_node3"><a xlink:href="../../df/dcb/classturtle_1_1_turtle.html#a094a42d27c645a64e2a8fc3065d21874" target="_top" xlink:title="turtle.Turtle.setActive">
<polygon fill="white" stroke="black" points="188,-0.5 188,-19.5 306,-19.5 306,-0.5 188,-0.5"/>
<text text-anchor="middle" x="247" y="-7.5" font-family="Helvetica,sans-Serif" font-size="10.00">turtle.Turtle.setActive</text>
</a>
</g>
</g>
<!-- Node1&#45;&gt;Node3 -->
<g id="edge2" class="edge"><title>Node1&#45;&gt;Node3</title>
<path fill="none" stroke="midnightblue" d="M152.11,-20.5557C160.634,-19.5974 169.286,-18.6246 177.715,-17.677"/>
<polygon fill="midnightblue" stroke="midnightblue" points="178.316,-21.1316 187.862,-16.5362 177.534,-14.1754 178.316,-21.1316"/>
</g>
</g>
</svg>
