<?xml version="1.0" encoding="UTF-8" standalone="no"?>
<!DOCTYPE svg PUBLIC "-//W3C//DTD SVG 1.1//EN"
 "http://www.w3.org/Graphics/SVG/1.1/DTD/svg11.dtd">
<!-- Generated by graphviz version 2.36.0 (20140111.2315)
 -->
<!-- Title: command.TellCommand.updateActive Pages: 1 -->
<svg width="378pt" height="38pt"
 viewBox="0.00 0.00 378.00 38.00" xmlns="http://www.w3.org/2000/svg" xmlns:xlink="http://www.w3.org/1999/xlink">
<g id="graph0" class="graph" transform="scale(1 1) rotate(0) translate(4 34)">
<title>command.TellCommand.updateActive</title>
<polygon fill="white" stroke="none" points="-4,4 -4,-34 374,-34 374,4 -4,4"/>
<!-- Node1 -->
<g id="node1" class="node"><title>Node1</title>
<polygon fill="#bfbfbf" stroke="black" points="0,-0 0,-30 170,-30 170,-0 0,-0"/>
<text text-anchor="start" x="8" y="-18" font-family="Helvetica,sans-Serif" font-size="10.00">command.TellCommand.update</text>
<text text-anchor="middle" x="85" y="-7" font-family="Helvetica,sans-Serif" font-size="10.00">Active</text>
</g>
<!-- Node2 -->
<g id="node2" class="node"><title>Node2</title>
<g id="a_node2"><a xlink:href="../../d6/de2/classcommand_1_1_tell_command.html#a09e1a8603982036cecb82d550313634c" target="_top" xlink:title="command.TellCommand.make\lString">
<polygon fill="white" stroke="black" points="206.5,-0 206.5,-30 369.5,-30 369.5,-0 206.5,-0"/>
<text text-anchor="start" x="214.5" y="-18" font-family="Helvetica,sans-Serif" font-size="10.00">command.TellCommand.make</text>
<text text-anchor="middle" x="288" y="-7" font-family="Helvetica,sans-Serif" font-size="10.00">String</text>
</a>
</g>
</g>
<!-- Node1&#45;&gt;Node2 -->
<g id="edge1" class="edge"><title>Node1&#45;&gt;Node2</title>
<path fill="none" stroke="midnightblue" d="M180.304,-15C189.054,-15 197.867,-15 206.476,-15"/>
<polygon fill="midnightblue" stroke="midnightblue" points="180.078,-11.5001 170.077,-15 180.077,-18.5001 180.078,-11.5001"/>
</g>
</g>
</svg>
