<?xml version="1.0" encoding="UTF-8" standalone="no"?>
<!DOCTYPE svg PUBLIC "-//W3C//DTD SVG 1.1//EN"
 "http://www.w3.org/Graphics/SVG/1.1/DTD/svg11.dtd">
<!-- Generated by graphviz version 2.36.0 (20140111.2315)
 -->
<!-- Title: command.TellCommand.doCommand Pages: 1 -->
<svg width="360pt" height="66pt"
 viewBox="0.00 0.00 360.00 66.00" xmlns="http://www.w3.org/2000/svg" xmlns:xlink="http://www.w3.org/1999/xlink">
<g id="graph0" class="graph" transform="scale(1 1) rotate(0) translate(4 62)">
<title>command.TellCommand.doCommand</title>
<polygon fill="white" stroke="none" points="-4,4 -4,-62 356,-62 356,4 -4,4"/>
<!-- Node1 -->
<g id="node1" class="node"><title>Node1</title>
<polygon fill="#bfbfbf" stroke="black" points="0,-19.5 0,-38.5 198,-38.5 198,-19.5 0,-19.5"/>
<text text-anchor="middle" x="99" y="-26.5" font-family="Helvetica,sans-Serif" font-size="10.00">command.TellCommand.doCommand</text>
</g>
<!-- Node2 -->
<g id="node2" class="node"><title>Node2</title>
<g id="a_node2"><a xlink:href="../../df/dcb/classturtle_1_1_turtle.html#a2b42f3f7bdca37f767fa747557f090dd" target="_top" xlink:title="turtle.Turtle.getID">
<polygon fill="white" stroke="black" points="243.5,-38.5 243.5,-57.5 342.5,-57.5 342.5,-38.5 243.5,-38.5"/>
<text text-anchor="middle" x="293" y="-45.5" font-family="Helvetica,sans-Serif" font-size="10.00">turtle.Turtle.getID</text>
</a>
</g>
</g>
<!-- Node1&#45;&gt;Node2 -->
<g id="edge1" class="edge"><title>Node1&#45;&gt;Node2</title>
<path fill="none" stroke="midnightblue" d="M196.281,-38.5278C208.873,-39.7739 221.459,-41.0194 233.171,-42.1784"/>
<polygon fill="midnightblue" stroke="midnightblue" points="232.922,-45.6707 243.218,-43.1726 233.611,-38.7047 232.922,-45.6707"/>
</g>
<!-- Node3 -->
<g id="node3" class="node"><title>Node3</title>
<g id="a_node3"><a xlink:href="../../df/dcb/classturtle_1_1_turtle.html#a094a42d27c645a64e2a8fc3065d21874" target="_top" xlink:title="turtle.Turtle.setActive">
<polygon fill="white" stroke="black" points="234,-0.5 234,-19.5 352,-19.5 352,-0.5 234,-0.5"/>
<text text-anchor="middle" x="293" y="-7.5" font-family="Helvetica,sans-Serif" font-size="10.00">turtle.Turtle.setActive</text>
</a>
</g>
</g>
<!-- Node1&#45;&gt;Node3 -->
<g id="edge2" class="edge"><title>Node1&#45;&gt;Node3</title>
<path fill="none" stroke="midnightblue" d="M196.281,-19.4722C205.495,-18.5604 214.705,-17.649 223.572,-16.7716"/>
<polygon fill="midnightblue" stroke="midnightblue" points="224.196,-20.2269 233.803,-15.7591 223.507,-13.261 224.196,-20.2269"/>
</g>
</g>
</svg>
