<?xml version="1.0" encoding="UTF-8" standalone="no"?>
<!DOCTYPE svg PUBLIC "-//W3C//DTD SVG 1.1//EN"
 "http://www.w3.org/Graphics/SVG/1.1/DTD/svg11.dtd">
<!-- Generated by graphviz version 2.36.0 (20140111.2315)
 -->
<!-- Title: command.TellCommand.makeString Pages: 1 -->
<svg width="420pt" height="77pt"
 viewBox="0.00 0.00 420.00 77.00" xmlns="http://www.w3.org/2000/svg" xmlns:xlink="http://www.w3.org/1999/xlink">
<g id="graph0" class="graph" transform="scale(1 1) rotate(0) translate(4 73)">
<title>command.TellCommand.makeString</title>
<polygon fill="white" stroke="none" points="-4,4 -4,-73 416,-73 416,4 -4,4"/>
<!-- Node1 -->
<g id="node1" class="node"><title>Node1</title>
<polygon fill="#bfbfbf" stroke="black" points="0.5,-22 0.5,-52 163.5,-52 163.5,-22 0.5,-22"/>
<text text-anchor="start" x="8.5" y="-40" font-family="Helvetica,sans-Serif" font-size="10.00">command.TellCommand.make</text>
<text text-anchor="middle" x="82" y="-29" font-family="Helvetica,sans-Serif" font-size="10.00">String</text>
</g>
<!-- Node2 -->
<g id="node2" class="node"><title>Node2</title>
<g id="a_node2"><a xlink:href="../../d0/dfc/classcommand_1_1_multi_turtle_command.html#aff7c5dc841b473962d36e7119f252c99" target="_top" xlink:title="command.MultiTurtleCommand.makeIDs">
<polygon fill="white" stroke="black" points="200,-49.5 200,-68.5 412,-68.5 412,-49.5 200,-49.5"/>
<text text-anchor="middle" x="306" y="-56.5" font-family="Helvetica,sans-Serif" font-size="10.00">command.MultiTurtleCommand.makeIDs</text>
</a>
</g>
</g>
<!-- Node1&#45;&gt;Node2 -->
<g id="edge1" class="edge"><title>Node1&#45;&gt;Node2</title>
<path fill="none" stroke="midnightblue" d="M163.775,-45.0047C175.09,-46.126 186.858,-47.2922 198.559,-48.4517"/>
<polygon fill="midnightblue" stroke="midnightblue" points="198.514,-51.9644 208.81,-49.4677 199.204,-44.9985 198.514,-51.9644"/>
</g>
<!-- Node3 -->
<g id="node3" class="node"><title>Node3</title>
<g id="a_node3"><a xlink:href="../../d6/de2/classcommand_1_1_tell_command.html#a88e3d235be531c245eadd91a4013ad0e" target="_top" xlink:title="command.TellCommand.update\lActive">
<polygon fill="white" stroke="black" points="221,-0 221,-30 391,-30 391,-0 221,-0"/>
<text text-anchor="start" x="229" y="-18" font-family="Helvetica,sans-Serif" font-size="10.00">command.TellCommand.update</text>
<text text-anchor="middle" x="306" y="-7" font-family="Helvetica,sans-Serif" font-size="10.00">Active</text>
</a>
</g>
</g>
<!-- Node1&#45;&gt;Node3 -->
<g id="edge2" class="edge"><title>Node1&#45;&gt;Node3</title>
<path fill="none" stroke="midnightblue" d="M163.775,-28.9953C179.03,-27.4835 195.109,-25.8901 210.735,-24.3415"/>
<polygon fill="midnightblue" stroke="midnightblue" points="211.319,-27.8009 220.925,-23.3317 210.629,-20.835 211.319,-27.8009"/>
</g>
</g>
</svg>
