<?xml version="1.0" encoding="UTF-8" standalone="no"?>
<!DOCTYPE svg PUBLIC "-//W3C//DTD SVG 1.1//EN"
 "http://www.w3.org/Graphics/SVG/1.1/DTD/svg11.dtd">
<!-- Generated by graphviz version 2.36.0 (20140111.2315)
 -->
<!-- Title: command.LoopCommand.readValues Pages: 1 -->
<svg width="1360pt" height="87pt"
 viewBox="0.00 0.00 1360.00 87.00" xmlns="http://www.w3.org/2000/svg" xmlns:xlink="http://www.w3.org/1999/xlink">
<g id="graph0" class="graph" transform="scale(1 1) rotate(0) translate(4 83)">
<title>command.LoopCommand.readValues</title>
<polygon fill="white" stroke="none" points="-4,4 -4,-83 1356,-83 1356,4 -4,4"/>
<!-- Node1 -->
<g id="node1" class="node"><title>Node1</title>
<polygon fill="#bfbfbf" stroke="black" points="0.5,-24 0.5,-54 167.5,-54 167.5,-24 0.5,-24"/>
<text text-anchor="start" x="8.5" y="-42" font-family="Helvetica,sans-Serif" font-size="10.00">command.LoopCommand.read</text>
<text text-anchor="middle" x="84" y="-31" font-family="Helvetica,sans-Serif" font-size="10.00">Values</text>
</g>
<!-- Node2 -->
<g id="node2" class="node"><title>Node2</title>
<g id="a_node2"><a xlink:href="../../d9/dd0/classworld_1_1_world.html#ae370733f7784c42741a6ba66c7d2ecf5" target="_top" xlink:title="world.World.listen">
<polygon fill="white" stroke="black" points="204,-29.5 204,-48.5 302,-48.5 302,-29.5 204,-29.5"/>
<text text-anchor="middle" x="253" y="-36.5" font-family="Helvetica,sans-Serif" font-size="10.00">world.World.listen</text>
</a>
</g>
</g>
<!-- Node1&#45;&gt;Node2 -->
<g id="edge1" class="edge"><title>Node1&#45;&gt;Node2</title>
<path fill="none" stroke="midnightblue" d="M177.751,-39C186.777,-39 195.658,-39 203.963,-39"/>
<polygon fill="midnightblue" stroke="midnightblue" points="177.522,-35.5001 167.522,-39 177.521,-42.5001 177.522,-35.5001"/>
</g>
<!-- Node3 -->
<g id="node3" class="node"><title>Node3</title>
<g id="a_node3"><a xlink:href="../../d8/d08/classworld_controller_1_1_world_controller.html#a178425d68e3e669c386706153ce44999" target="_top" xlink:title="worldController.WorldController.update">
<polygon fill="white" stroke="black" points="338,-29.5 338,-48.5 536,-48.5 536,-29.5 338,-29.5"/>
<text text-anchor="middle" x="437" y="-36.5" font-family="Helvetica,sans-Serif" font-size="10.00">worldController.WorldController.update</text>
</a>
</g>
</g>
<!-- Node2&#45;&gt;Node3 -->
<g id="edge2" class="edge"><title>Node2&#45;&gt;Node3</title>
<path fill="none" stroke="midnightblue" d="M312.407,-39C320.579,-39 329.156,-39 337.82,-39"/>
<polygon fill="midnightblue" stroke="midnightblue" points="312.295,-35.5001 302.295,-39 312.295,-42.5001 312.295,-35.5001"/>
</g>
<!-- Node4 -->
<g id="node4" class="node"><title>Node4</title>
<g id="a_node4"><a xlink:href="../../dd/d8e/classuser_interface_1_1_user_interface.html#a95e324c85888faea808be269e44ed5b8" target="_top" xlink:title="userInterface.UserInterface.run\lCommand">
<polygon fill="white" stroke="black" points="572,-24 572,-54 738,-54 738,-24 572,-24"/>
<text text-anchor="start" x="580" y="-42" font-family="Helvetica,sans-Serif" font-size="10.00">userInterface.UserInterface.run</text>
<text text-anchor="middle" x="655" y="-31" font-family="Helvetica,sans-Serif" font-size="10.00">Command</text>
</a>
</g>
</g>
<!-- Node3&#45;&gt;Node4 -->
<g id="edge3" class="edge"><title>Node3&#45;&gt;Node4</title>
<path fill="none" stroke="midnightblue" d="M546.29,-39C554.892,-39 563.492,-39 571.871,-39"/>
<polygon fill="midnightblue" stroke="midnightblue" points="546.203,-35.5001 536.203,-39 546.203,-42.5001 546.203,-35.5001"/>
</g>
<!-- Node5 -->
<g id="node5" class="node"><title>Node5</title>
<g id="a_node5"><a xlink:href="../../dd/d8e/classuser_interface_1_1_user_interface.html#a560c36977fddeee87002333870c54ed6" target="_top" xlink:title="userInterface.UserInterface.set\lUpResponses">
<polygon fill="white" stroke="black" points="994.5,-49 994.5,-79 1159.5,-79 1159.5,-49 994.5,-49"/>
<text text-anchor="start" x="1002.5" y="-67" font-family="Helvetica,sans-Serif" font-size="10.00">userInterface.UserInterface.set</text>
<text text-anchor="middle" x="1077" y="-56" font-family="Helvetica,sans-Serif" font-size="10.00">UpResponses</text>
</a>
</g>
</g>
<!-- Node4&#45;&gt;Node5 -->
<g id="edge4" class="edge"><title>Node4&#45;&gt;Node5</title>
<path fill="none" stroke="midnightblue" d="M748.405,-44.5003C821.911,-48.8757 923.786,-54.9396 994.328,-59.1386"/>
<polygon fill="midnightblue" stroke="midnightblue" points="748.418,-40.9949 738.227,-43.8945 748.002,-47.9826 748.418,-40.9949"/>
</g>
<!-- Node7 -->
<g id="node7" class="node"><title>Node7</title>
<g id="a_node7"><a xlink:href="../../dd/d8e/classuser_interface_1_1_user_interface.html#a4316649a1f81fcc1dcaf93c812bf6f3a" target="_top" xlink:title="userInterface.UserInterface.make\lRunButton">
<polygon fill="white" stroke="black" points="774.5,-2 774.5,-32 951.5,-32 951.5,-2 774.5,-2"/>
<text text-anchor="start" x="782.5" y="-20" font-family="Helvetica,sans-Serif" font-size="10.00">userInterface.UserInterface.make</text>
<text text-anchor="middle" x="863" y="-9" font-family="Helvetica,sans-Serif" font-size="10.00">RunButton</text>
</a>
</g>
</g>
<!-- Node4&#45;&gt;Node7 -->
<g id="edge6" class="edge"><title>Node4&#45;&gt;Node7</title>
<path fill="none" stroke="midnightblue" d="M748.121,-29.1618C756.789,-28.2361 765.561,-27.2994 774.187,-26.3781"/>
<polygon fill="midnightblue" stroke="midnightblue" points="747.58,-25.6996 738.009,-30.2418 748.324,-32.66 747.58,-25.6996"/>
</g>
<!-- Node6 -->
<g id="node6" class="node"><title>Node6</title>
<g id="a_node6"><a xlink:href="../../dd/d8e/classuser_interface_1_1_user_interface.html#af296b064499e62c4fbfbf73da6456532" target="_top" xlink:title="userInterface.UserInterface.\lUserInterface">
<polygon fill="white" stroke="black" points="1202,-24 1202,-54 1352,-54 1352,-24 1202,-24"/>
<text text-anchor="start" x="1210" y="-42" font-family="Helvetica,sans-Serif" font-size="10.00">userInterface.UserInterface.</text>
<text text-anchor="middle" x="1277" y="-31" font-family="Helvetica,sans-Serif" font-size="10.00">UserInterface</text>
</a>
</g>
</g>
<!-- Node5&#45;&gt;Node6 -->
<g id="edge5" class="edge"><title>Node5&#45;&gt;Node6</title>
<path fill="none" stroke="midnightblue" d="M1169.88,-52.3986C1180.58,-51.0478 1191.39,-49.683 1201.81,-48.3677"/>
<polygon fill="midnightblue" stroke="midnightblue" points="1169.16,-48.962 1159.68,-53.6872 1170.04,-55.9069 1169.16,-48.962"/>
</g>
<!-- Node8 -->
<g id="node8" class="node"><title>Node8</title>
<g id="a_node8"><a xlink:href="../../dd/d8e/classuser_interface_1_1_user_interface.html#a6d39ee7d7ae35fc0539bb714bce6221a" target="_top" xlink:title="userInterface.UserInterface.make\lFunctionButtons">
<polygon fill="white" stroke="black" points="988.5,-0 988.5,-30 1165.5,-30 1165.5,-0 988.5,-0"/>
<text text-anchor="start" x="996.5" y="-18" font-family="Helvetica,sans-Serif" font-size="10.00">userInterface.UserInterface.make</text>
<text text-anchor="middle" x="1077" y="-7" font-family="Helvetica,sans-Serif" font-size="10.00">FunctionButtons</text>
</a>
</g>
</g>
<!-- Node7&#45;&gt;Node8 -->
<g id="edge7" class="edge"><title>Node7&#45;&gt;Node8</title>
<path fill="none" stroke="midnightblue" d="M962.01,-16.0754C970.783,-15.9926 979.629,-15.9092 988.307,-15.8273"/>
<polygon fill="midnightblue" stroke="midnightblue" points="961.725,-12.5778 951.759,-16.1721 961.791,-19.5775 961.725,-12.5778"/>
</g>
<!-- Node8&#45;&gt;Node6 -->
<g id="edge8" class="edge"><title>Node8&#45;&gt;Node6</title>
<path fill="none" stroke="midnightblue" d="M1175.67,-26.8393C1184.52,-27.9113 1193.38,-28.985 1201.97,-30.0262"/>
<polygon fill="midnightblue" stroke="midnightblue" points="1176.06,-23.3604 1165.71,-25.6316 1175.22,-30.3095 1176.06,-23.3604"/>
</g>
</g>
</svg>
