<?xml version="1.0" encoding="UTF-8" standalone="no"?>
<!DOCTYPE svg PUBLIC "-//W3C//DTD SVG 1.1//EN"
 "http://www.w3.org/Graphics/SVG/1.1/DTD/svg11.dtd">
<!-- Generated by graphviz version 2.36.0 (20140111.2315)
 -->
<!-- Title: command.LoopCommand.getIncr Pages: 1 -->
<svg width="1370pt" height="87pt"
 viewBox="0.00 0.00 1370.00 87.00" xmlns="http://www.w3.org/2000/svg" xmlns:xlink="http://www.w3.org/1999/xlink">
<g id="graph0" class="graph" transform="scale(1 1) rotate(0) translate(4 83)">
<title>command.LoopCommand.getIncr</title>
<polygon fill="white" stroke="none" points="-4,4 -4,-83 1366,-83 1366,4 -4,4"/>
<!-- Node1 -->
<g id="node1" class="node"><title>Node1</title>
<polygon fill="#bfbfbf" stroke="black" points="0,-29.5 0,-48.5 178,-48.5 178,-29.5 0,-29.5"/>
<text text-anchor="middle" x="89" y="-36.5" font-family="Helvetica,sans-Serif" font-size="10.00">command.LoopCommand.getIncr</text>
</g>
<!-- Node2 -->
<g id="node2" class="node"><title>Node2</title>
<g id="a_node2"><a xlink:href="../../d9/dd0/classworld_1_1_world.html#ae370733f7784c42741a6ba66c7d2ecf5" target="_top" xlink:title="world.World.listen">
<polygon fill="white" stroke="black" points="214,-29.5 214,-48.5 312,-48.5 312,-29.5 214,-29.5"/>
<text text-anchor="middle" x="263" y="-36.5" font-family="Helvetica,sans-Serif" font-size="10.00">world.World.listen</text>
</a>
</g>
</g>
<!-- Node1&#45;&gt;Node2 -->
<g id="edge1" class="edge"><title>Node1&#45;&gt;Node2</title>
<path fill="none" stroke="midnightblue" d="M188.017,-39C196.83,-39 205.47,-39 213.559,-39"/>
<polygon fill="midnightblue" stroke="midnightblue" points="188.015,-35.5001 178.015,-39 188.015,-42.5001 188.015,-35.5001"/>
</g>
<!-- Node3 -->
<g id="node3" class="node"><title>Node3</title>
<g id="a_node3"><a xlink:href="../../d8/d08/classworld_controller_1_1_world_controller.html#a178425d68e3e669c386706153ce44999" target="_top" xlink:title="worldController.WorldController.update">
<polygon fill="white" stroke="black" points="348,-29.5 348,-48.5 546,-48.5 546,-29.5 348,-29.5"/>
<text text-anchor="middle" x="447" y="-36.5" font-family="Helvetica,sans-Serif" font-size="10.00">worldController.WorldController.update</text>
</a>
</g>
</g>
<!-- Node2&#45;&gt;Node3 -->
<g id="edge2" class="edge"><title>Node2&#45;&gt;Node3</title>
<path fill="none" stroke="midnightblue" d="M322.407,-39C330.579,-39 339.156,-39 347.82,-39"/>
<polygon fill="midnightblue" stroke="midnightblue" points="322.295,-35.5001 312.295,-39 322.295,-42.5001 322.295,-35.5001"/>
</g>
<!-- Node4 -->
<g id="node4" class="node"><title>Node4</title>
<g id="a_node4"><a xlink:href="../../dd/d8e/classuser_interface_1_1_user_interface.html#a95e324c85888faea808be269e44ed5b8" target="_top" xlink:title="userInterface.UserInterface.run\lCommand">
<polygon fill="white" stroke="black" points="582,-24 582,-54 748,-54 748,-24 582,-24"/>
<text text-anchor="start" x="590" y="-42" font-family="Helvetica,sans-Serif" font-size="10.00">userInterface.UserInterface.run</text>
<text text-anchor="middle" x="665" y="-31" font-family="Helvetica,sans-Serif" font-size="10.00">Command</text>
</a>
</g>
</g>
<!-- Node3&#45;&gt;Node4 -->
<g id="edge3" class="edge"><title>Node3&#45;&gt;Node4</title>
<path fill="none" stroke="midnightblue" d="M556.29,-39C564.892,-39 573.492,-39 581.871,-39"/>
<polygon fill="midnightblue" stroke="midnightblue" points="556.203,-35.5001 546.203,-39 556.203,-42.5001 556.203,-35.5001"/>
</g>
<!-- Node5 -->
<g id="node5" class="node"><title>Node5</title>
<g id="a_node5"><a xlink:href="../../dd/d8e/classuser_interface_1_1_user_interface.html#a560c36977fddeee87002333870c54ed6" target="_top" xlink:title="userInterface.UserInterface.set\lUpResponses">
<polygon fill="white" stroke="black" points="1004.5,-49 1004.5,-79 1169.5,-79 1169.5,-49 1004.5,-49"/>
<text text-anchor="start" x="1012.5" y="-67" font-family="Helvetica,sans-Serif" font-size="10.00">userInterface.UserInterface.set</text>
<text text-anchor="middle" x="1087" y="-56" font-family="Helvetica,sans-Serif" font-size="10.00">UpResponses</text>
</a>
</g>
</g>
<!-- Node4&#45;&gt;Node5 -->
<g id="edge4" class="edge"><title>Node4&#45;&gt;Node5</title>
<path fill="none" stroke="midnightblue" d="M758.405,-44.5003C831.911,-48.8757 933.786,-54.9396 1004.33,-59.1386"/>
<polygon fill="midnightblue" stroke="midnightblue" points="758.418,-40.9949 748.227,-43.8945 758.002,-47.9826 758.418,-40.9949"/>
</g>
<!-- Node7 -->
<g id="node7" class="node"><title>Node7</title>
<g id="a_node7"><a xlink:href="../../dd/d8e/classuser_interface_1_1_user_interface.html#a4316649a1f81fcc1dcaf93c812bf6f3a" target="_top" xlink:title="userInterface.UserInterface.make\lRunButton">
<polygon fill="white" stroke="black" points="784.5,-2 784.5,-32 961.5,-32 961.5,-2 784.5,-2"/>
<text text-anchor="start" x="792.5" y="-20" font-family="Helvetica,sans-Serif" font-size="10.00">userInterface.UserInterface.make</text>
<text text-anchor="middle" x="873" y="-9" font-family="Helvetica,sans-Serif" font-size="10.00">RunButton</text>
</a>
</g>
</g>
<!-- Node4&#45;&gt;Node7 -->
<g id="edge6" class="edge"><title>Node4&#45;&gt;Node7</title>
<path fill="none" stroke="midnightblue" d="M758.121,-29.1618C766.789,-28.2361 775.561,-27.2994 784.187,-26.3781"/>
<polygon fill="midnightblue" stroke="midnightblue" points="757.58,-25.6996 748.009,-30.2418 758.324,-32.66 757.58,-25.6996"/>
</g>
<!-- Node6 -->
<g id="node6" class="node"><title>Node6</title>
<g id="a_node6"><a xlink:href="../../dd/d8e/classuser_interface_1_1_user_interface.html#af296b064499e62c4fbfbf73da6456532" target="_top" xlink:title="userInterface.UserInterface.\lUserInterface">
<polygon fill="white" stroke="black" points="1212,-24 1212,-54 1362,-54 1362,-24 1212,-24"/>
<text text-anchor="start" x="1220" y="-42" font-family="Helvetica,sans-Serif" font-size="10.00">userInterface.UserInterface.</text>
<text text-anchor="middle" x="1287" y="-31" font-family="Helvetica,sans-Serif" font-size="10.00">UserInterface</text>
</a>
</g>
</g>
<!-- Node5&#45;&gt;Node6 -->
<g id="edge5" class="edge"><title>Node5&#45;&gt;Node6</title>
<path fill="none" stroke="midnightblue" d="M1179.88,-52.3986C1190.58,-51.0478 1201.39,-49.683 1211.81,-48.3677"/>
<polygon fill="midnightblue" stroke="midnightblue" points="1179.16,-48.962 1169.68,-53.6872 1180.04,-55.9069 1179.16,-48.962"/>
</g>
<!-- Node8 -->
<g id="node8" class="node"><title>Node8</title>
<g id="a_node8"><a xlink:href="../../dd/d8e/classuser_interface_1_1_user_interface.html#a6d39ee7d7ae35fc0539bb714bce6221a" target="_top" xlink:title="userInterface.UserInterface.make\lFunctionButtons">
<polygon fill="white" stroke="black" points="998.5,-0 998.5,-30 1175.5,-30 1175.5,-0 998.5,-0"/>
<text text-anchor="start" x="1006.5" y="-18" font-family="Helvetica,sans-Serif" font-size="10.00">userInterface.UserInterface.make</text>
<text text-anchor="middle" x="1087" y="-7" font-family="Helvetica,sans-Serif" font-size="10.00">FunctionButtons</text>
</a>
</g>
</g>
<!-- Node7&#45;&gt;Node8 -->
<g id="edge7" class="edge"><title>Node7&#45;&gt;Node8</title>
<path fill="none" stroke="midnightblue" d="M972.01,-16.0754C980.783,-15.9926 989.629,-15.9092 998.307,-15.8273"/>
<polygon fill="midnightblue" stroke="midnightblue" points="971.725,-12.5778 961.759,-16.1721 971.791,-19.5775 971.725,-12.5778"/>
</g>
<!-- Node8&#45;&gt;Node6 -->
<g id="edge8" class="edge"><title>Node8&#45;&gt;Node6</title>
<path fill="none" stroke="midnightblue" d="M1185.67,-26.8393C1194.52,-27.9113 1203.38,-28.985 1211.97,-30.0262"/>
<polygon fill="midnightblue" stroke="midnightblue" points="1186.06,-23.3604 1175.71,-25.6316 1185.22,-30.3095 1186.06,-23.3604"/>
</g>
</g>
</svg>
