<?xml version="1.0" encoding="UTF-8" standalone="no"?>
<!DOCTYPE svg PUBLIC "-//W3C//DTD SVG 1.1//EN"
 "http://www.w3.org/Graphics/SVG/1.1/DTD/svg11.dtd">
<!-- Generated by graphviz version 2.36.0 (20140111.2315)
 -->
<!-- Title: command.LoopCommand.addInfo Pages: 1 -->
<svg width="666pt" height="109pt"
 viewBox="0.00 0.00 666.00 109.00" xmlns="http://www.w3.org/2000/svg" xmlns:xlink="http://www.w3.org/1999/xlink">
<g id="graph0" class="graph" transform="scale(1 1) rotate(0) translate(4 105)">
<title>command.LoopCommand.addInfo</title>
<polygon fill="white" stroke="none" points="-4,4 -4,-105 662,-105 662,4 -4,4"/>
<!-- Node1 -->
<g id="node1" class="node"><title>Node1</title>
<polygon fill="#bfbfbf" stroke="black" points="0,-43.5 0,-62.5 180,-62.5 180,-43.5 0,-43.5"/>
<text text-anchor="middle" x="90" y="-50.5" font-family="Helvetica,sans-Serif" font-size="10.00">command.LoopCommand.addInfo</text>
</g>
<!-- Node2 -->
<g id="node2" class="node"><title>Node2</title>
<g id="a_node2"><a xlink:href="../../dc/d6b/classcommand_1_1_for_command.html#a669b3be425264f09a5bac53dbea64164" target="_top" xlink:title="command.ForCommand.updateMap">
<polygon fill="white" stroke="black" points="229.5,-81.5 229.5,-100.5 420.5,-100.5 420.5,-81.5 229.5,-81.5"/>
<text text-anchor="middle" x="325" y="-88.5" font-family="Helvetica,sans-Serif" font-size="10.00">command.ForCommand.updateMap</text>
</a>
</g>
</g>
<!-- Node1&#45;&gt;Node2 -->
<g id="edge1" class="edge"><title>Node1&#45;&gt;Node2</title>
<path fill="none" stroke="midnightblue" d="M159.704,-64.205C193.315,-69.6866 233.348,-76.2155 265.481,-81.4561"/>
<polygon fill="midnightblue" stroke="midnightblue" points="159.928,-60.6953 149.495,-62.54 158.801,-67.604 159.928,-60.6953"/>
</g>
<!-- Node3 -->
<g id="node3" class="node"><title>Node3</title>
<g id="a_node3"><a xlink:href="../../da/dfa/classcommand_1_1_do_times_command.html#a5cf80997d163b011e1e30e76e2ac0876" target="_top" xlink:title="command.DoTimesCommand.updateMap">
<polygon fill="white" stroke="black" points="216,-43.5 216,-62.5 434,-62.5 434,-43.5 216,-43.5"/>
<text text-anchor="middle" x="325" y="-50.5" font-family="Helvetica,sans-Serif" font-size="10.00">command.DoTimesCommand.updateMap</text>
</a>
</g>
</g>
<!-- Node1&#45;&gt;Node3 -->
<g id="edge2" class="edge"><title>Node1&#45;&gt;Node3</title>
<path fill="none" stroke="midnightblue" d="M190.308,-53C198.75,-53 207.315,-53 215.82,-53"/>
<polygon fill="midnightblue" stroke="midnightblue" points="190.085,-49.5001 180.085,-53 190.085,-56.5001 190.085,-49.5001"/>
</g>
<!-- Node4 -->
<g id="node4" class="node"><title>Node4</title>
<g id="a_node4"><a xlink:href="../../d4/d11/classcommand_1_1_repeat_command.html#a6e558bc98a5fc926296fefae3379fde8" target="_top" xlink:title="command.RepeatCommand.updateMap">
<polygon fill="white" stroke="black" points="220.5,-5.5 220.5,-24.5 429.5,-24.5 429.5,-5.5 220.5,-5.5"/>
<text text-anchor="middle" x="325" y="-12.5" font-family="Helvetica,sans-Serif" font-size="10.00">command.RepeatCommand.updateMap</text>
</a>
</g>
</g>
<!-- Node1&#45;&gt;Node4 -->
<g id="edge3" class="edge"><title>Node1&#45;&gt;Node4</title>
<path fill="none" stroke="midnightblue" d="M159.704,-41.795C193.315,-36.3134 233.348,-29.7845 265.481,-24.5439"/>
<polygon fill="midnightblue" stroke="midnightblue" points="158.801,-38.396 149.495,-43.46 159.928,-45.3047 158.801,-38.396"/>
</g>
<!-- Node5 -->
<g id="node5" class="node"><title>Node5</title>
<g id="a_node5"><a xlink:href="../../d4/d11/classcommand_1_1_repeat_command.html#afeb666a7d0f16bdc7a3d32d33644eaf4" target="_top" xlink:title="command.RepeatCommand.Repeat\lCommand">
<polygon fill="white" stroke="black" points="470,-0 470,-30 658,-30 658,-0 470,-0"/>
<text text-anchor="start" x="478" y="-18" font-family="Helvetica,sans-Serif" font-size="10.00">command.RepeatCommand.Repeat</text>
<text text-anchor="middle" x="564" y="-7" font-family="Helvetica,sans-Serif" font-size="10.00">Command</text>
</a>
</g>
</g>
<!-- Node4&#45;&gt;Node5 -->
<g id="edge4" class="edge"><title>Node4&#45;&gt;Node5</title>
<path fill="none" stroke="midnightblue" d="M439.64,-15C449.699,-15 459.805,-15 469.667,-15"/>
<polygon fill="midnightblue" stroke="midnightblue" points="439.607,-11.5001 429.607,-15 439.607,-18.5001 439.607,-11.5001"/>
</g>
</g>
</svg>
