<?xml version="1.0" encoding="UTF-8" standalone="no"?>
<!DOCTYPE svg PUBLIC "-//W3C//DTD SVG 1.1//EN"
 "http://www.w3.org/Graphics/SVG/1.1/DTD/svg11.dtd">
<!-- Generated by graphviz version 2.36.0 (20140111.2315)
 -->
<!-- Title: command.HeadingCommand Pages: 1 -->
<svg width="164pt" height="154pt"
 viewBox="0.00 0.00 164.00 154.00" xmlns="http://www.w3.org/2000/svg" xmlns:xlink="http://www.w3.org/1999/xlink">
<g id="graph0" class="graph" transform="scale(1 1) rotate(0) translate(4 150)">
<title>command.HeadingCommand</title>
<polygon fill="white" stroke="none" points="-4,4 -4,-150 160,-150 160,4 -4,4"/>
<!-- Node1 -->
<g id="node1" class="node"><title>Node1</title>
<polygon fill="#bfbfbf" stroke="black" points="-1,-0.5 -1,-19.5 157,-19.5 157,-0.5 -1,-0.5"/>
<text text-anchor="middle" x="78" y="-7.5" font-family="Helvetica,sans-Serif" font-size="10.00">command.HeadingCommand</text>
</g>
<!-- Node2 -->
<g id="node2" class="node"><title>Node2</title>
<g id="a_node2"><a xlink:href="../../d7/d35/classcommand_1_1_command.html" target="_top" xlink:title="command.Command">
<polygon fill="white" stroke="black" points="18.5,-58.5 18.5,-77.5 137.5,-77.5 137.5,-58.5 18.5,-58.5"/>
<text text-anchor="middle" x="78" y="-65.5" font-family="Helvetica,sans-Serif" font-size="10.00">command.Command</text>
</a>
</g>
</g>
<!-- Node2&#45;&gt;Node1 -->
<g id="edge1" class="edge"><title>Node2&#45;&gt;Node1</title>
<path fill="none" stroke="midnightblue" d="M78,-47.953C78,-38.2875 78,-27.0312 78,-19.5052"/>
<polygon fill="midnightblue" stroke="midnightblue" points="74.5001,-48.25 78,-58.25 81.5001,-48.25 74.5001,-48.25"/>
</g>
<!-- Node3 -->
<g id="node3" class="node"><title>Node3</title>
<polygon fill="white" stroke="#bfbfbf" points="33.5,-126.5 33.5,-145.5 122.5,-145.5 122.5,-126.5 33.5,-126.5"/>
<text text-anchor="middle" x="78" y="-133.5" font-family="Helvetica,sans-Serif" font-size="10.00">List&lt; Double &gt;</text>
</g>
<!-- Node3&#45;&gt;Node2 -->
<g id="edge2" class="edge"><title>Node3&#45;&gt;Node2</title>
<path fill="none" stroke="#9a32cd" stroke-dasharray="5,2" d="M78,-116.041C78,-103.472 78,-87.5631 78,-77.8411"/>
<polygon fill="#9a32cd" stroke="#9a32cd" points="74.5001,-116.372 78,-126.372 81.5001,-116.372 74.5001,-116.372"/>
<text text-anchor="middle" x="108" y="-99.5" font-family="Helvetica,sans-Serif" font-size="10.00"> parameters</text>
</g>
</g>
</svg>
