<?xml version="1.0" encoding="UTF-8" standalone="no"?>
<!DOCTYPE svg PUBLIC "-//W3C//DTD SVG 1.1//EN"
 "http://www.w3.org/Graphics/SVG/1.1/DTD/svg11.dtd">
<!-- Generated by graphviz version 2.36.0 (20140111.2315)
 -->
<!-- Title: command.SetTowardsCommand.run Pages: 1 -->
<svg width="368pt" height="66pt"
 viewBox="0.00 0.00 368.00 66.00" xmlns="http://www.w3.org/2000/svg" xmlns:xlink="http://www.w3.org/1999/xlink">
<g id="graph0" class="graph" transform="scale(1 1) rotate(0) translate(4 62)">
<title>command.SetTowardsCommand.run</title>
<polygon fill="white" stroke="none" points="-4,4 -4,-62 364,-62 364,4 -4,4"/>
<!-- Node1 -->
<g id="node1" class="node"><title>Node1</title>
<polygon fill="#bfbfbf" stroke="black" points="0.5,-19.5 0.5,-38.5 191.5,-38.5 191.5,-19.5 0.5,-19.5"/>
<text text-anchor="middle" x="96" y="-26.5" font-family="Helvetica,sans-Serif" font-size="10.00">command.SetTowardsCommand.run</text>
</g>
<!-- Node2 -->
<g id="node2" class="node"><title>Node2</title>
<g id="a_node2"><a xlink:href="../../df/dcb/classturtle_1_1_turtle.html#aee0b52994c47376c03203bfdfc116c63" target="_top" xlink:title="turtle.Turtle.getDirection">
<polygon fill="white" stroke="black" points="228,-38.5 228,-57.5 360,-57.5 360,-38.5 228,-38.5"/>
<text text-anchor="middle" x="294" y="-45.5" font-family="Helvetica,sans-Serif" font-size="10.00">turtle.Turtle.getDirection</text>
</a>
</g>
</g>
<!-- Node1&#45;&gt;Node2 -->
<g id="edge1" class="edge"><title>Node1&#45;&gt;Node2</title>
<path fill="none" stroke="midnightblue" d="M191.555,-38.1661C200.421,-39.0255 209.324,-39.8885 217.974,-40.727"/>
<polygon fill="midnightblue" stroke="midnightblue" points="217.703,-44.2171 227.994,-41.6984 218.379,-37.2498 217.703,-44.2171"/>
</g>
<!-- Node3 -->
<g id="node3" class="node"><title>Node3</title>
<g id="a_node3"><a xlink:href="../../df/dcb/classturtle_1_1_turtle.html#abfdf6ff527b415b5e0f813b7daee4216" target="_top" xlink:title="turtle.Turtle.setHeading">
<polygon fill="white" stroke="black" points="230,-0.5 230,-19.5 358,-19.5 358,-0.5 230,-0.5"/>
<text text-anchor="middle" x="294" y="-7.5" font-family="Helvetica,sans-Serif" font-size="10.00">turtle.Turtle.setHeading</text>
</a>
</g>
</g>
<!-- Node1&#45;&gt;Node3 -->
<g id="edge2" class="edge"><title>Node1&#45;&gt;Node3</title>
<path fill="none" stroke="midnightblue" d="M191.555,-19.8339C201.015,-18.9169 210.517,-17.9958 219.71,-17.1047"/>
<polygon fill="midnightblue" stroke="midnightblue" points="220.322,-20.5619 229.937,-16.1132 219.646,-13.5945 220.322,-20.5619"/>
</g>
</g>
</svg>
