<?xml version="1.0" encoding="UTF-8" standalone="no"?>
<!DOCTYPE svg PUBLIC "-//W3C//DTD SVG 1.1//EN"
 "http://www.w3.org/Graphics/SVG/1.1/DTD/svg11.dtd">
<!-- Generated by graphviz version 2.36.0 (20140111.2315)
 -->
<!-- Title: userInterface.UIManager.UIManager Pages: 1 -->
<svg width="910pt" height="126pt"
 viewBox="0.00 0.00 910.00 126.00" xmlns="http://www.w3.org/2000/svg" xmlns:xlink="http://www.w3.org/1999/xlink">
<g id="graph0" class="graph" transform="scale(1 1) rotate(0) translate(4 122)">
<title>userInterface.UIManager.UIManager</title>
<polygon fill="white" stroke="none" points="-4,4 -4,-122 906,-122 906,4 -4,4"/>
<!-- Node1 -->
<g id="node1" class="node"><title>Node1</title>
<polygon fill="#bfbfbf" stroke="black" points="0.5,-44 0.5,-74 137.5,-74 137.5,-44 0.5,-44"/>
<text text-anchor="start" x="8.5" y="-62" font-family="Helvetica,sans-Serif" font-size="10.00">userInterface.UIManager.</text>
<text text-anchor="middle" x="69" y="-51" font-family="Helvetica,sans-Serif" font-size="10.00">UIManager</text>
</g>
<!-- Node2 -->
<g id="node2" class="node"><title>Node2</title>
<g id="a_node2"><a xlink:href="../../d6/dce/classuser_interface_1_1_u_i_manager.html#af4b635ffad2c9d940376a3cb5684551b" target="_top" xlink:title="userInterface.UIManager.initialize">
<polygon fill="white" stroke="black" points="174.5,-49.5 174.5,-68.5 349.5,-68.5 349.5,-49.5 174.5,-49.5"/>
<text text-anchor="middle" x="262" y="-56.5" font-family="Helvetica,sans-Serif" font-size="10.00">userInterface.UIManager.initialize</text>
</a>
</g>
</g>
<!-- Node1&#45;&gt;Node2 -->
<g id="edge1" class="edge"><title>Node1&#45;&gt;Node2</title>
<path fill="none" stroke="midnightblue" d="M137.608,-59C146.263,-59 155.253,-59 164.257,-59"/>
<polygon fill="midnightblue" stroke="midnightblue" points="164.413,-62.5001 174.413,-59 164.413,-55.5001 164.413,-62.5001"/>
</g>
<!-- Node3 -->
<g id="node3" class="node"><title>Node3</title>
<g id="a_node3"><a xlink:href="../../d6/dce/classuser_interface_1_1_u_i_manager.html#a1f1dccc66bb1147bfba04eedac265ce1" target="_top" xlink:title="userInterface.UIManager.set\lUpEventHandlers">
<polygon fill="white" stroke="black" points="386,-88 386,-118 538,-118 538,-88 386,-88"/>
<text text-anchor="start" x="394" y="-106" font-family="Helvetica,sans-Serif" font-size="10.00">userInterface.UIManager.set</text>
<text text-anchor="middle" x="462" y="-95" font-family="Helvetica,sans-Serif" font-size="10.00">UpEventHandlers</text>
</a>
</g>
</g>
<!-- Node2&#45;&gt;Node3 -->
<g id="edge2" class="edge"><title>Node2&#45;&gt;Node3</title>
<path fill="none" stroke="midnightblue" d="M305.963,-68.5473C328.554,-73.5676 356.95,-79.8777 383.247,-85.7215"/>
<polygon fill="midnightblue" stroke="midnightblue" points="382.685,-89.1819 393.206,-87.9346 384.203,-82.3486 382.685,-89.1819"/>
</g>
<!-- Node4 -->
<g id="node4" class="node"><title>Node4</title>
<g id="a_node4"><a xlink:href="../../d6/dce/classuser_interface_1_1_u_i_manager.html#a60bda212a94f5f989e12a498da0409d1" target="_top" xlink:title="userInterface.UIManager.addTab">
<polygon fill="white" stroke="black" points="574,-71.5 574,-90.5 744,-90.5 744,-71.5 574,-71.5"/>
<text text-anchor="middle" x="659" y="-78.5" font-family="Helvetica,sans-Serif" font-size="10.00">userInterface.UIManager.addTab</text>
</a>
</g>
</g>
<!-- Node2&#45;&gt;Node4 -->
<g id="edge6" class="edge"><title>Node2&#45;&gt;Node4</title>
<path fill="none" stroke="midnightblue" d="M349.684,-63.828C412.953,-67.3518 498.655,-72.1251 563.644,-75.7447"/>
<polygon fill="midnightblue" stroke="midnightblue" points="563.711,-79.2538 573.89,-76.3154 564.1,-72.2646 563.711,-79.2538"/>
</g>
<!-- Node6 -->
<g id="node6" class="node"><title>Node6</title>
<g id="a_node6"><a xlink:href="../../d3/db5/classuser_interface_1_1_top_menu.html#ac305da2ff432c584979bbe2495221b2e" target="_top" xlink:title="userInterface.TopMenu.get\lMenuBar">
<polygon fill="white" stroke="black" points="390.5,-0 390.5,-30 533.5,-30 533.5,-0 390.5,-0"/>
<text text-anchor="start" x="398.5" y="-18" font-family="Helvetica,sans-Serif" font-size="10.00">userInterface.TopMenu.get</text>
<text text-anchor="middle" x="462" y="-7" font-family="Helvetica,sans-Serif" font-size="10.00">MenuBar</text>
</a>
</g>
</g>
<!-- Node2&#45;&gt;Node6 -->
<g id="edge5" class="edge"><title>Node2&#45;&gt;Node6</title>
<path fill="none" stroke="midnightblue" d="M305.963,-49.4527C328.554,-44.4324 356.95,-38.1223 383.247,-32.2785"/>
<polygon fill="midnightblue" stroke="midnightblue" points="384.203,-35.6514 393.206,-30.0654 382.685,-28.8181 384.203,-35.6514"/>
</g>
<!-- Node3&#45;&gt;Node4 -->
<g id="edge3" class="edge"><title>Node3&#45;&gt;Node4</title>
<path fill="none" stroke="midnightblue" d="M538.113,-94.5257C546.519,-93.5774 555.159,-92.6026 563.765,-91.6316"/>
<polygon fill="midnightblue" stroke="midnightblue" points="564.292,-95.0945 573.836,-90.4954 563.507,-88.1387 564.292,-95.0945"/>
</g>
<!-- Node5 -->
<g id="node5" class="node"><title>Node5</title>
<g id="a_node5"><a xlink:href="../../d0/d7c/classuser_interface_1_1_u_i.html#af975e195f7702ad0e92116e61b5456f1" target="_top" xlink:title="userInterface.UI.getUI">
<polygon fill="white" stroke="black" points="780.5,-71.5 780.5,-90.5 901.5,-90.5 901.5,-71.5 780.5,-71.5"/>
<text text-anchor="middle" x="841" y="-78.5" font-family="Helvetica,sans-Serif" font-size="10.00">userInterface.UI.getUI</text>
</a>
</g>
</g>
<!-- Node4&#45;&gt;Node5 -->
<g id="edge4" class="edge"><title>Node4&#45;&gt;Node5</title>
<path fill="none" stroke="midnightblue" d="M744.203,-81C752.854,-81 761.578,-81 770.051,-81"/>
<polygon fill="midnightblue" stroke="midnightblue" points="770.241,-84.5001 780.241,-81 770.241,-77.5001 770.241,-84.5001"/>
</g>
</g>
</svg>
