<?xml version="1.0" encoding="UTF-8" standalone="no"?>
<!DOCTYPE svg PUBLIC "-//W3C//DTD SVG 1.1//EN"
 "http://www.w3.org/Graphics/SVG/1.1/DTD/svg11.dtd">
<!-- Generated by graphviz version 2.36.0 (20140111.2315)
 -->
<!-- Title: userInterface.UIManager.initialize Pages: 1 -->
<svg width="736pt" height="155pt"
 viewBox="0.00 0.00 736.00 154.88" xmlns="http://www.w3.org/2000/svg" xmlns:xlink="http://www.w3.org/1999/xlink">
<g id="graph0" class="graph" transform="scale(1 1) rotate(0) translate(4 150.877)">
<title>userInterface.UIManager.initialize</title>
<polygon fill="white" stroke="none" points="-4,4 -4,-150.877 732,-150.877 732,4 -4,4"/>
<!-- Node1 -->
<g id="node1" class="node"><title>Node1</title>
<polygon fill="#bfbfbf" stroke="black" points="0.5,-78.5 0.5,-97.5 175.5,-97.5 175.5,-78.5 0.5,-78.5"/>
<text text-anchor="middle" x="88" y="-85.5" font-family="Helvetica,sans-Serif" font-size="10.00">userInterface.UIManager.initialize</text>
</g>
<!-- Node2 -->
<g id="node2" class="node"><title>Node2</title>
<g id="a_node2"><a xlink:href="../../d6/dce/classuser_interface_1_1_u_i_manager.html#a60bda212a94f5f989e12a498da0409d1" target="_top" xlink:title="userInterface.UIManager.addTab">
<polygon fill="white" stroke="black" points="400,-76.5 400,-95.5 570,-95.5 570,-76.5 400,-76.5"/>
<text text-anchor="middle" x="485" y="-83.5" font-family="Helvetica,sans-Serif" font-size="10.00">userInterface.UIManager.addTab</text>
</a>
</g>
</g>
<!-- Node1&#45;&gt;Node2 -->
<g id="edge1" class="edge"><title>Node1&#45;&gt;Node2</title>
<path fill="none" stroke="midnightblue" d="M106.685,-97.5419C130.013,-109.535 172.72,-129.464 212,-137 278.346,-149.729 297.804,-150.483 364,-137 398.117,-130.051 434.555,-113.042 458.21,-100.57"/>
<polygon fill="midnightblue" stroke="midnightblue" points="460.079,-103.539 467.22,-95.7117 456.757,-97.3774 460.079,-103.539"/>
</g>
<!-- Node4 -->
<g id="node4" class="node"><title>Node4</title>
<g id="a_node4"><a xlink:href="../../d3/db5/classuser_interface_1_1_top_menu.html#ac305da2ff432c584979bbe2495221b2e" target="_top" xlink:title="userInterface.TopMenu.get\lMenuBar">
<polygon fill="white" stroke="black" points="216.5,-98 216.5,-128 359.5,-128 359.5,-98 216.5,-98"/>
<text text-anchor="start" x="224.5" y="-116" font-family="Helvetica,sans-Serif" font-size="10.00">userInterface.TopMenu.get</text>
<text text-anchor="middle" x="288" y="-105" font-family="Helvetica,sans-Serif" font-size="10.00">MenuBar</text>
</a>
</g>
</g>
<!-- Node1&#45;&gt;Node4 -->
<g id="edge3" class="edge"><title>Node1&#45;&gt;Node4</title>
<path fill="none" stroke="midnightblue" d="M164.42,-97.5227C178.139,-99.2549 192.499,-101.068 206.362,-102.818"/>
<polygon fill="midnightblue" stroke="midnightblue" points="205.992,-106.299 216.352,-104.08 206.869,-99.3546 205.992,-106.299"/>
</g>
<!-- Node5 -->
<g id="node5" class="node"><title>Node5</title>
<g id="a_node5"><a xlink:href="../../d6/dce/classuser_interface_1_1_u_i_manager.html#a2b4dc1339eeceab845b6bc018d3bd789" target="_top" xlink:title="userInterface.UIManager.set\lUpBindings">
<polygon fill="white" stroke="black" points="212,-49 212,-79 364,-79 364,-49 212,-49"/>
<text text-anchor="start" x="220" y="-67" font-family="Helvetica,sans-Serif" font-size="10.00">userInterface.UIManager.set</text>
<text text-anchor="middle" x="288" y="-56" font-family="Helvetica,sans-Serif" font-size="10.00">UpBindings</text>
</a>
</g>
</g>
<!-- Node1&#45;&gt;Node5 -->
<g id="edge4" class="edge"><title>Node1&#45;&gt;Node5</title>
<path fill="none" stroke="midnightblue" d="M167.539,-78.4801C178.813,-77.1136 190.456,-75.7023 201.85,-74.3212"/>
<polygon fill="midnightblue" stroke="midnightblue" points="202.277,-77.7951 211.783,-73.1172 201.435,-70.846 202.277,-77.7951"/>
</g>
<!-- Node6 -->
<g id="node6" class="node"><title>Node6</title>
<g id="a_node6"><a xlink:href="../../d6/dce/classuser_interface_1_1_u_i_manager.html#a1f1dccc66bb1147bfba04eedac265ce1" target="_top" xlink:title="userInterface.UIManager.set\lUpEventHandlers">
<polygon fill="white" stroke="black" points="212,-0 212,-30 364,-30 364,-0 212,-0"/>
<text text-anchor="start" x="220" y="-18" font-family="Helvetica,sans-Serif" font-size="10.00">userInterface.UIManager.set</text>
<text text-anchor="middle" x="288" y="-7" font-family="Helvetica,sans-Serif" font-size="10.00">UpEventHandlers</text>
</a>
</g>
</g>
<!-- Node1&#45;&gt;Node6 -->
<g id="edge5" class="edge"><title>Node1&#45;&gt;Node6</title>
<path fill="none" stroke="midnightblue" d="M112.447,-78.4444C137.098,-68.4935 177.078,-52.6255 212,-40 218.014,-37.8257 224.323,-35.6148 230.621,-33.4525"/>
<polygon fill="midnightblue" stroke="midnightblue" points="232.123,-36.6388 240.465,-30.1069 229.87,-30.0112 232.123,-36.6388"/>
</g>
<!-- Node3 -->
<g id="node3" class="node"><title>Node3</title>
<g id="a_node3"><a xlink:href="../../d0/d7c/classuser_interface_1_1_u_i.html#af975e195f7702ad0e92116e61b5456f1" target="_top" xlink:title="userInterface.UI.getUI">
<polygon fill="white" stroke="black" points="606.5,-76.5 606.5,-95.5 727.5,-95.5 727.5,-76.5 606.5,-76.5"/>
<text text-anchor="middle" x="667" y="-83.5" font-family="Helvetica,sans-Serif" font-size="10.00">userInterface.UI.getUI</text>
</a>
</g>
</g>
<!-- Node2&#45;&gt;Node3 -->
<g id="edge2" class="edge"><title>Node2&#45;&gt;Node3</title>
<path fill="none" stroke="midnightblue" d="M570.203,-86C578.854,-86 587.578,-86 596.051,-86"/>
<polygon fill="midnightblue" stroke="midnightblue" points="596.241,-89.5001 606.241,-86 596.241,-82.5001 596.241,-89.5001"/>
</g>
<!-- Node6&#45;&gt;Node2 -->
<g id="edge6" class="edge"><title>Node6&#45;&gt;Node2</title>
<path fill="none" stroke="midnightblue" d="M335.121,-30.016C344.694,-33.2329 354.697,-36.6681 364,-40 393.354,-50.5126 426.419,-63.2554 450.396,-72.6609"/>
<polygon fill="midnightblue" stroke="midnightblue" points="449.169,-75.939 459.756,-76.3438 451.732,-69.4252 449.169,-75.939"/>
</g>
</g>
</svg>
