<?xml version="1.0" encoding="UTF-8" standalone="no"?>
<!DOCTYPE svg PUBLIC "-//W3C//DTD SVG 1.1//EN"
 "http://www.w3.org/Graphics/SVG/1.1/DTD/svg11.dtd">
<!-- Generated by graphviz version 2.36.0 (20140111.2315)
 -->
<!-- Title: command.CommandFactory Pages: 1 -->
<svg width="406pt" height="130pt"
 viewBox="0.00 0.00 406.00 130.00" xmlns="http://www.w3.org/2000/svg" xmlns:xlink="http://www.w3.org/1999/xlink">
<g id="graph0" class="graph" transform="scale(1 1) rotate(0) translate(4 126)">
<title>command.CommandFactory</title>
<polygon fill="white" stroke="none" points="-4,4 -4,-126 402,-126 402,4 -4,4"/>
<!-- Node1 -->
<g id="node1" class="node"><title>Node1</title>
<polygon fill="#bfbfbf" stroke="black" points="122.5,-0.5 122.5,-19.5 275.5,-19.5 275.5,-0.5 122.5,-0.5"/>
<text text-anchor="middle" x="199" y="-7.5" font-family="Helvetica,sans-Serif" font-size="10.00">command.CommandFactory</text>
</g>
<!-- Node2 -->
<g id="node2" class="node"><title>Node2</title>
<polygon fill="white" stroke="#bfbfbf" points="0,-91 0,-121 134,-121 134,-91 0,-91"/>
<text text-anchor="start" x="8" y="-109" font-family="Helvetica,sans-Serif" font-size="10.00">ObservableMap&lt; String,</text>
<text text-anchor="middle" x="67" y="-98" font-family="Helvetica,sans-Serif" font-size="10.00"> String &gt;</text>
</g>
<!-- Node2&#45;&gt;Node1 -->
<g id="edge1" class="edge"><title>Node2&#45;&gt;Node1</title>
<path fill="none" stroke="#9a32cd" stroke-dasharray="5,2" d="M89.7241,-84.062C105.442,-70.128 127.195,-51.8996 148,-38 158.33,-31.0988 170.618,-24.5484 180.544,-19.6282"/>
<polygon fill="#9a32cd" stroke="#9a32cd" points="87.1965,-81.6275 82.0915,-90.9114 91.8718,-86.8373 87.1965,-81.6275"/>
<text text-anchor="middle" x="171.5" y="-52.5" font-family="Helvetica,sans-Serif" font-size="10.00"> functions</text>
</g>
<!-- Node3 -->
<g id="node3" class="node"><title>Node3</title>
<polygon fill="white" stroke="#bfbfbf" points="152.5,-96.5 152.5,-115.5 245.5,-115.5 245.5,-96.5 152.5,-96.5"/>
<text text-anchor="middle" x="199" y="-103.5" font-family="Helvetica,sans-Serif" font-size="10.00">ResourceBundle</text>
</g>
<!-- Node3&#45;&gt;Node1 -->
<g id="edge2" class="edge"><title>Node3&#45;&gt;Node1</title>
<path fill="none" stroke="#9a32cd" stroke-dasharray="5,2" d="M199,-86.1427C199,-65.9148 199,-34.6782 199,-19.6538"/>
<polygon fill="#9a32cd" stroke="#9a32cd" points="195.5,-86.3252 199,-96.3252 202.5,-86.3252 195.5,-86.3252"/>
<text text-anchor="middle" x="235" y="-63.5" font-family="Helvetica,sans-Serif" font-size="10.00"> syntax</text>
<text text-anchor="middle" x="235" y="-52.5" font-family="Helvetica,sans-Serif" font-size="10.00">paramMap</text>
<text text-anchor="middle" x="235" y="-41.5" font-family="Helvetica,sans-Serif" font-size="10.00">translationMap</text>
</g>
<!-- Node4 -->
<g id="node4" class="node"><title>Node4</title>
<polygon fill="white" stroke="#bfbfbf" points="264,-91 264,-121 398,-121 398,-91 264,-91"/>
<text text-anchor="start" x="272" y="-109" font-family="Helvetica,sans-Serif" font-size="10.00">ObservableMap&lt; String,</text>
<text text-anchor="middle" x="331" y="-98" font-family="Helvetica,sans-Serif" font-size="10.00"> Double &gt;</text>
</g>
<!-- Node4&#45;&gt;Node1 -->
<g id="edge3" class="edge"><title>Node4&#45;&gt;Node1</title>
<path fill="none" stroke="#9a32cd" stroke-dasharray="5,2" d="M316.735,-82.3398C306.629,-67.8999 291.9,-49.7606 275,-38 263.162,-29.7618 248.547,-23.782 235.306,-19.5769"/>
<polygon fill="#9a32cd" stroke="#9a32cd" points="313.919,-84.4235 322.408,-90.7626 319.725,-80.5131 313.919,-84.4235"/>
<text text-anchor="middle" x="332" y="-52.5" font-family="Helvetica,sans-Serif" font-size="10.00"> variables</text>
</g>
</g>
</svg>
