<?xml version="1.0" encoding="UTF-8" standalone="no"?>
<!DOCTYPE svg PUBLIC "-//W3C//DTD SVG 1.1//EN"
 "http://www.w3.org/Graphics/SVG/1.1/DTD/svg11.dtd">
<!-- Generated by graphviz version 2.36.0 (20140111.2315)
 -->
<!-- Title: command.CommandFactory Pages: 1 -->
<svg width="387pt" height="118pt"
 viewBox="0.00 0.00 387.00 118.00" xmlns="http://www.w3.org/2000/svg" xmlns:xlink="http://www.w3.org/1999/xlink">
<g id="graph0" class="graph" transform="scale(1 1) rotate(0) translate(4 114)">
<title>command.CommandFactory</title>
<polygon fill="white" stroke="none" points="-4,4 -4,-114 383,-114 383,4 -4,4"/>
<!-- Node1 -->
<g id="node1" class="node"><title>Node1</title>
<polygon fill="#bfbfbf" stroke="black" points="95.5,-0.5 95.5,-19.5 248.5,-19.5 248.5,-0.5 95.5,-0.5"/>
<text text-anchor="middle" x="172" y="-7.5" font-family="Helvetica,sans-Serif" font-size="10.00">command.CommandFactory</text>
</g>
<!-- Node2 -->
<g id="node2" class="node"><title>Node2</title>
<polygon fill="white" stroke="#bfbfbf" points="-0.5,-90.5 -0.5,-109.5 92.5,-109.5 92.5,-90.5 -0.5,-90.5"/>
<text text-anchor="middle" x="46" y="-97.5" font-family="Helvetica,sans-Serif" font-size="10.00">ResourceBundle</text>
</g>
<!-- Node2&#45;&gt;Node1 -->
<g id="edge1" class="edge"><title>Node2&#45;&gt;Node1</title>
<path fill="none" stroke="#9a32cd" stroke-dasharray="5,2" d="M56.359,-81.7792C65.324,-68.191 79.4351,-49.6458 96,-38 107.798,-29.7052 122.406,-23.7144 135.652,-19.5163"/>
<polygon fill="#9a32cd" stroke="#9a32cd" points="53.3903,-79.9252 51.0077,-90.2487 59.3081,-83.6643 53.3903,-79.9252"/>
<text text-anchor="middle" x="132" y="-63.5" font-family="Helvetica,sans-Serif" font-size="10.00"> syntax</text>
<text text-anchor="middle" x="132" y="-52.5" font-family="Helvetica,sans-Serif" font-size="10.00">paramMap</text>
<text text-anchor="middle" x="132" y="-41.5" font-family="Helvetica,sans-Serif" font-size="10.00">translationMap</text>
</g>
<!-- Node3 -->
<g id="node3" class="node"><title>Node3</title>
<polygon fill="white" stroke="#bfbfbf" points="111,-90.5 111,-109.5 233,-109.5 233,-90.5 111,-90.5"/>
<text text-anchor="middle" x="172" y="-97.5" font-family="Helvetica,sans-Serif" font-size="10.00">Map&lt; String, String &gt;</text>
</g>
<!-- Node3&#45;&gt;Node1 -->
<g id="edge2" class="edge"><title>Node3&#45;&gt;Node1</title>
<path fill="none" stroke="#9a32cd" stroke-dasharray="5,2" d="M172,-79.9784C172,-61.3096 172,-33.6696 172,-19.7241"/>
<polygon fill="#9a32cd" stroke="#9a32cd" points="168.5,-80.2405 172,-90.2405 175.5,-80.2405 168.5,-80.2405"/>
<text text-anchor="middle" x="195.5" y="-52.5" font-family="Helvetica,sans-Serif" font-size="10.00"> functions</text>
</g>
<!-- Node4 -->
<g id="node4" class="node"><title>Node4</title>
<polygon fill="white" stroke="#bfbfbf" points="251,-90.5 251,-109.5 379,-109.5 379,-90.5 251,-90.5"/>
<text text-anchor="middle" x="315" y="-97.5" font-family="Helvetica,sans-Serif" font-size="10.00">Map&lt; String, Double &gt;</text>
</g>
<!-- Node4&#45;&gt;Node1 -->
<g id="edge3" class="edge"><title>Node4&#45;&gt;Node1</title>
<path fill="none" stroke="#9a32cd" stroke-dasharray="5,2" d="M294.535,-84.5887C276.133,-71.8347 248.201,-52.9762 223,-38 211.976,-31.4488 199.226,-24.6988 189.232,-19.5866"/>
<polygon fill="#9a32cd" stroke="#9a32cd" points="292.544,-87.4674 302.749,-90.3156 296.548,-81.7253 292.544,-87.4674"/>
<text text-anchor="middle" x="299" y="-52.5" font-family="Helvetica,sans-Serif" font-size="10.00"> variables</text>
</g>
</g>
</svg>
