<?xml version="1.0" encoding="UTF-8" standalone="no"?>
<!DOCTYPE svg PUBLIC "-//W3C//DTD SVG 1.1//EN"
 "http://www.w3.org/Graphics/SVG/1.1/DTD/svg11.dtd">
<!-- Generated by graphviz version 2.36.0 (20140111.2315)
 -->
<!-- Title: command.CommandFactory Pages: 1 -->
<svg width="404pt" height="216pt"
 viewBox="0.00 0.00 404.00 216.00" xmlns="http://www.w3.org/2000/svg" xmlns:xlink="http://www.w3.org/1999/xlink">
<g id="graph0" class="graph" transform="scale(1 1) rotate(0) translate(4 212)">
<title>command.CommandFactory</title>
<polygon fill="white" stroke="none" points="-4,4 -4,-212 400,-212 400,4 -4,4"/>
<!-- Node1 -->
<g id="node1" class="node"><title>Node1</title>
<polygon fill="#bfbfbf" stroke="black" points="242.5,-83.5 242.5,-102.5 395.5,-102.5 395.5,-83.5 242.5,-83.5"/>
<text text-anchor="middle" x="319" y="-90.5" font-family="Helvetica,sans-Serif" font-size="10.00">command.CommandFactory</text>
</g>
<!-- Node2 -->
<g id="node2" class="node"><title>Node2</title>
<polygon fill="white" stroke="#bfbfbf" points="0,-178 0,-208 134,-208 134,-178 0,-178"/>
<text text-anchor="start" x="8" y="-196" font-family="Helvetica,sans-Serif" font-size="10.00">ObservableMap&lt; String,</text>
<text text-anchor="middle" x="67" y="-185" font-family="Helvetica,sans-Serif" font-size="10.00"> String &gt;</text>
</g>
<!-- Node2&#45;&gt;Node1 -->
<g id="edge1" class="edge"><title>Node2&#45;&gt;Node1</title>
<path fill="none" stroke="#9a32cd" stroke-dasharray="5,2" d="M143.964,-179.992C169.977,-174.112 198.848,-165.962 224,-155 256.079,-141.019 289.255,-116.277 306.31,-102.658"/>
<polygon fill="#9a32cd" stroke="#9a32cd" points="143.171,-176.582 134.148,-182.135 144.665,-183.421 143.171,-176.582"/>
<text text-anchor="middle" x="188" y="-180" font-family="Helvetica,sans-Serif" font-size="10.00"> functions</text>
</g>
<!-- Node3 -->
<g id="node3" class="node"><title>Node3</title>
<polygon fill="white" stroke="#bfbfbf" points="3.5,-139.5 3.5,-158.5 130.5,-158.5 130.5,-139.5 3.5,-139.5"/>
<text text-anchor="middle" x="67" y="-146.5" font-family="Helvetica,sans-Serif" font-size="10.00">List&lt; ObjectProperty &gt;</text>
</g>
<!-- Node3&#45;&gt;Node1 -->
<g id="edge2" class="edge"><title>Node3&#45;&gt;Node1</title>
<path fill="none" stroke="#9a32cd" stroke-dasharray="5,2" d="M140.762,-141.907C167.202,-138.501 197.168,-133.668 224,-127 249.094,-120.764 276.821,-110.269 295.614,-102.586"/>
<polygon fill="#9a32cd" stroke="#9a32cd" points="140.307,-138.437 130.815,-143.144 141.17,-145.383 140.307,-138.437"/>
<text text-anchor="middle" x="188" y="-143" font-family="Helvetica,sans-Serif" font-size="10.00"> bindings</text>
</g>
<!-- Node4 -->
<g id="node4" class="node"><title>Node4</title>
<polygon fill="white" stroke="#bfbfbf" points="20.5,-88.5 20.5,-107.5 113.5,-107.5 113.5,-88.5 20.5,-88.5"/>
<text text-anchor="middle" x="67" y="-95.5" font-family="Helvetica,sans-Serif" font-size="10.00">ResourceBundle</text>
</g>
<!-- Node4&#45;&gt;Node1 -->
<g id="edge3" class="edge"><title>Node4&#45;&gt;Node1</title>
<path fill="none" stroke="#9a32cd" stroke-dasharray="5,2" d="M123.825,-95.0165C133.228,-94.6072 142.89,-94.2442 152,-94 181.53,-93.2083 214.025,-92.8903 242.376,-92.7935"/>
<polygon fill="#9a32cd" stroke="#9a32cd" points="123.593,-91.5233 113.763,-95.4753 123.912,-98.5161 123.593,-91.5233"/>
<text text-anchor="middle" x="188" y="-119" font-family="Helvetica,sans-Serif" font-size="10.00"> syntax</text>
<text text-anchor="middle" x="188" y="-108" font-family="Helvetica,sans-Serif" font-size="10.00">paramMap</text>
<text text-anchor="middle" x="188" y="-97" font-family="Helvetica,sans-Serif" font-size="10.00">translationMap</text>
</g>
<!-- Node5 -->
<g id="node5" class="node"><title>Node5</title>
<polygon fill="white" stroke="#bfbfbf" points="0,-39 0,-69 134,-69 134,-39 0,-39"/>
<text text-anchor="start" x="8" y="-57" font-family="Helvetica,sans-Serif" font-size="10.00">ObservableMap&lt; String,</text>
<text text-anchor="middle" x="67" y="-46" font-family="Helvetica,sans-Serif" font-size="10.00"> Double &gt;</text>
</g>
<!-- Node5&#45;&gt;Node1 -->
<g id="edge4" class="edge"><title>Node5&#45;&gt;Node1</title>
<path fill="none" stroke="#9a32cd" stroke-dasharray="5,2" d="M144.005,-65.606C169.442,-69.5134 197.95,-73.9177 224,-78 235.184,-79.7526 247.113,-81.6413 258.587,-83.4677"/>
<polygon fill="#9a32cd" stroke="#9a32cd" points="144.466,-62.1358 134.051,-64.0781 143.404,-69.0548 144.466,-62.1358"/>
<text text-anchor="middle" x="188" y="-81" font-family="Helvetica,sans-Serif" font-size="10.00"> variables</text>
</g>
<!-- Node6 -->
<g id="node6" class="node"><title>Node6</title>
<polygon fill="white" stroke="#bfbfbf" points="0,-0.5 0,-19.5 134,-19.5 134,-0.5 0,-0.5"/>
<text text-anchor="middle" x="67" y="-7.5" font-family="Helvetica,sans-Serif" font-size="10.00">ObservableList&lt; Color &gt;</text>
</g>
<!-- Node6&#45;&gt;Node1 -->
<g id="edge5" class="edge"><title>Node6&#45;&gt;Node1</title>
<path fill="none" stroke="#9a32cd" stroke-dasharray="5,2" d="M118.283,-22.0433C149.111,-29.8737 189.206,-40.8623 224,-53 249.956,-62.0546 278.941,-74.8083 297.771,-83.4624"/>
<polygon fill="#9a32cd" stroke="#9a32cd" points="118.756,-18.5534 108.204,-19.5118 117.05,-25.3426 118.756,-18.5534"/>
<text text-anchor="middle" x="188" y="-56" font-family="Helvetica,sans-Serif" font-size="10.00"> colors</text>
</g>
</g>
</svg>
