<?xml version="1.0" encoding="UTF-8" standalone="no"?>
<!DOCTYPE svg PUBLIC "-//W3C//DTD SVG 1.1//EN"
 "http://www.w3.org/Graphics/SVG/1.1/DTD/svg11.dtd">
<!-- Generated by graphviz version 2.36.0 (20140111.2315)
 -->
<!-- Title: userInterface.UI Pages: 1 -->
<svg width="1196pt" height="1544pt"
 viewBox="0.00 0.00 1196.00 1544.00" xmlns="http://www.w3.org/2000/svg" xmlns:xlink="http://www.w3.org/1999/xlink">
<g id="graph0" class="graph" transform="scale(1 1) rotate(0) translate(4 1540)">
<title>userInterface.UI</title>
<polygon fill="white" stroke="none" points="-4,4 -4,-1540 1192,-1540 1192,4 -4,4"/>
<!-- Node1 -->
<g id="node1" class="node"><title>Node1</title>
<polygon fill="#bfbfbf" stroke="black" points="830,-580.5 830,-599.5 922,-599.5 922,-580.5 830,-580.5"/>
<text text-anchor="middle" x="876" y="-587.5" font-family="Helvetica,sans-Serif" font-size="10.00">userInterface.UI</text>
</g>
<!-- Node19 -->
<g id="node19" class="node"><title>Node19</title>
<g id="a_node19"><a xlink:href="../../d8/d08/classworld_controller_1_1_world_controller.html" target="_top" xlink:title="worldController.WorldController">
<polygon fill="white" stroke="black" points="1026,-796.5 1026,-815.5 1188,-815.5 1188,-796.5 1026,-796.5"/>
<text text-anchor="middle" x="1107" y="-803.5" font-family="Helvetica,sans-Serif" font-size="10.00">worldController.WorldController</text>
</a>
</g>
</g>
<!-- Node1&#45;&gt;Node19 -->
<g id="edge25" class="edge"><title>Node1&#45;&gt;Node19</title>
<path fill="none" stroke="#9a32cd" stroke-dasharray="5,2" d="M932.065,-598.643C957.343,-604.831 986.421,-615.325 1008,-633 1064.35,-679.153 1094.38,-766.751 1103.2,-796.121"/>
<polygon fill="#9a32cd" stroke="#9a32cd" points="932.754,-595.211 922.226,-596.4 931.198,-602.035 932.754,-595.211"/>
<text text-anchor="middle" x="974" y="-636" font-family="Helvetica,sans-Serif" font-size="10.00"> UI</text>
</g>
<!-- Node2 -->
<g id="node2" class="node"><title>Node2</title>
<polygon fill="white" stroke="#bfbfbf" points="278,-478.5 278,-497.5 364,-497.5 364,-478.5 278,-478.5"/>
<text text-anchor="middle" x="321" y="-485.5" font-family="Helvetica,sans-Serif" font-size="10.00">StringProperty</text>
</g>
<!-- Node2&#45;&gt;Node1 -->
<g id="edge1" class="edge"><title>Node2&#45;&gt;Node1</title>
<path fill="none" stroke="#9a32cd" stroke-dasharray="5,2" d="M374.553,-487.339C484.707,-486.713 735.893,-489.481 812,-526 837.583,-538.276 858.633,-565.445 868.664,-580.126"/>
<polygon fill="#9a32cd" stroke="#9a32cd" points="374.319,-483.841 364.344,-487.409 374.367,-490.84 374.319,-483.841"/>
<text text-anchor="middle" x="627" y="-505" font-family="Helvetica,sans-Serif" font-size="10.00"> inputText</text>
</g>
<!-- Node14 -->
<g id="node14" class="node"><title>Node14</title>
<g id="a_node14"><a xlink:href="../../de/df4/classuser_interface_1_1_right_panel.html" target="_top" xlink:title="userInterface.RightPanel">
<polygon fill="white" stroke="black" points="561,-378.5 561,-397.5 693,-397.5 693,-378.5 561,-378.5"/>
<text text-anchor="middle" x="627" y="-385.5" font-family="Helvetica,sans-Serif" font-size="10.00">userInterface.RightPanel</text>
</a>
</g>
</g>
<!-- Node2&#45;&gt;Node14 -->
<g id="edge15" class="edge"><title>Node2&#45;&gt;Node14</title>
<path fill="none" stroke="#9a32cd" stroke-dasharray="5,2" d="M374.177,-479.739C426.705,-471.035 503.865,-457.079 532,-446 540.341,-442.715 586.653,-413.282 611.013,-397.653"/>
<polygon fill="#9a32cd" stroke="#9a32cd" points="373.322,-476.333 364.021,-481.408 374.457,-483.24 373.322,-476.333"/>
<text text-anchor="middle" x="475" y="-475" font-family="Helvetica,sans-Serif" font-size="10.00"> inputText</text>
</g>
<!-- Node3 -->
<g id="node3" class="node"><title>Node3</title>
<g id="a_node3"><a xlink:href="../../dc/d1b/classuser_interface_1_1_left_panel.html" target="_top" xlink:title="userInterface.LeftPanel">
<polygon fill="white" stroke="black" points="564,-182.5 564,-201.5 690,-201.5 690,-182.5 564,-182.5"/>
<text text-anchor="middle" x="627" y="-189.5" font-family="Helvetica,sans-Serif" font-size="10.00">userInterface.LeftPanel</text>
</a>
</g>
</g>
<!-- Node3&#45;&gt;Node1 -->
<g id="edge2" class="edge"><title>Node3&#45;&gt;Node1</title>
<path fill="none" stroke="#9a32cd" stroke-dasharray="5,2" d="M657.859,-206.052C699.113,-227.052 772.872,-270.604 812,-330 867.7,-414.553 874.221,-543.643 874.93,-580.103"/>
<polygon fill="#9a32cd" stroke="#9a32cd" points="659.353,-202.886 648.842,-201.558 656.231,-209.151 659.353,-202.886"/>
<text text-anchor="middle" x="767" y="-333" font-family="Helvetica,sans-Serif" font-size="10.00"> myLeftPanel</text>
</g>
<!-- Node3&#45;&gt;Node3 -->
<g id="edge5" class="edge"><title>Node3&#45;&gt;Node3</title>
<path fill="none" stroke="#9a32cd" stroke-dasharray="5,2" d="M600.958,-211.029C602.379,-216.128 611.059,-220 627,-220 651.883,-220 659.076,-210.565 648.578,-201.757"/>
<polygon fill="#9a32cd" stroke="#9a32cd" points="604.238,-212.286 605.422,-201.757 597.931,-209.249 604.238,-212.286"/>
<text text-anchor="middle" x="627" y="-223" font-family="Helvetica,sans-Serif" font-size="10.00"> instance</text>
</g>
<!-- Node4 -->
<g id="node4" class="node"><title>Node4</title>
<polygon fill="white" stroke="#bfbfbf" points="300.5,-308.5 300.5,-327.5 341.5,-327.5 341.5,-308.5 300.5,-308.5"/>
<text text-anchor="middle" x="321" y="-315.5" font-family="Helvetica,sans-Serif" font-size="10.00">VBox</text>
</g>
<!-- Node4&#45;&gt;Node3 -->
<g id="edge3" class="edge"><title>Node4&#45;&gt;Node3</title>
<path fill="none" stroke="#9a32cd" stroke-dasharray="5,2" d="M351.649,-312.492C405.646,-302.336 515.957,-280.972 532,-273 568.655,-254.786 602.679,-218.99 617.787,-201.744"/>
<polygon fill="#9a32cd" stroke="#9a32cd" points="350.83,-309.084 341.645,-314.366 352.119,-315.965 350.83,-309.084"/>
<text text-anchor="middle" x="475" y="-303" font-family="Helvetica,sans-Serif" font-size="10.00"> myLeftPanel</text>
</g>
<!-- Node4&#45;&gt;Node14 -->
<g id="edge16" class="edge"><title>Node4&#45;&gt;Node14</title>
<path fill="none" stroke="#9a32cd" stroke-dasharray="5,2" d="M351.576,-314.734C394.419,-311.458 474.862,-310.886 532,-344 543.536,-350.686 538.938,-360.556 550,-368 556.452,-372.342 563.799,-375.741 571.322,-378.404"/>
<polygon fill="#9a32cd" stroke="#9a32cd" points="351.19,-311.254 341.531,-315.607 351.796,-318.228 351.19,-311.254"/>
<text text-anchor="middle" x="475" y="-347" font-family="Helvetica,sans-Serif" font-size="10.00"> myRightPanel</text>
</g>
<!-- Node5 -->
<g id="node5" class="node"><title>Node5</title>
<polygon fill="white" stroke="#bfbfbf" points="244.5,-88 244.5,-118 397.5,-118 397.5,-88 244.5,-88"/>
<text text-anchor="start" x="252.5" y="-106" font-family="Helvetica,sans-Serif" font-size="10.00">TableColumn&lt; Map.Entry</text>
<text text-anchor="middle" x="321" y="-95" font-family="Helvetica,sans-Serif" font-size="10.00">&lt; String, Double &gt;, String &gt;</text>
</g>
<!-- Node5&#45;&gt;Node3 -->
<g id="edge4" class="edge"><title>Node5&#45;&gt;Node3</title>
<path fill="none" stroke="#9a32cd" stroke-dasharray="5,2" d="M407.855,-108.395C446.653,-112.766 492.54,-120.678 532,-135 563.754,-146.525 596.534,-169.362 613.742,-182.358"/>
<polygon fill="#9a32cd" stroke="#9a32cd" points="407.948,-104.885 397.634,-107.306 407.207,-111.846 407.948,-104.885"/>
<text text-anchor="middle" x="475" y="-138" font-family="Helvetica,sans-Serif" font-size="10.00"> variables</text>
</g>
<!-- Node6 -->
<g id="node6" class="node"><title>Node6</title>
<polygon fill="white" stroke="#bfbfbf" points="290,-49.5 290,-68.5 352,-68.5 352,-49.5 290,-49.5"/>
<text text-anchor="middle" x="321" y="-56.5" font-family="Helvetica,sans-Serif" font-size="10.00">TableView</text>
</g>
<!-- Node6&#45;&gt;Node3 -->
<g id="edge6" class="edge"><title>Node6&#45;&gt;Node3</title>
<path fill="none" stroke="#9a32cd" stroke-dasharray="5,2" d="M362.075,-58.6119C406.165,-59.7781 477.935,-66.4782 532,-95 572.86,-116.556 606.499,-162.377 619.834,-182.353"/>
<polygon fill="#9a32cd" stroke="#9a32cd" points="362.091,-55.1117 352.029,-58.4298 361.964,-62.1106 362.091,-55.1117"/>
<text text-anchor="middle" x="475" y="-98" font-family="Helvetica,sans-Serif" font-size="10.00"> turtleTable</text>
</g>
<!-- Node7 -->
<g id="node7" class="node"><title>Node7</title>
<polygon fill="white" stroke="#bfbfbf" points="242,-214 242,-244 400,-244 400,-214 242,-214"/>
<text text-anchor="start" x="250" y="-232" font-family="Helvetica,sans-Serif" font-size="10.00">TableColumn&lt; Map.Entry</text>
<text text-anchor="middle" x="321" y="-221" font-family="Helvetica,sans-Serif" font-size="10.00">&lt; String, Double &gt;, Double &gt;</text>
</g>
<!-- Node7&#45;&gt;Node3 -->
<g id="edge7" class="edge"><title>Node7&#45;&gt;Node3</title>
<path fill="none" stroke="#9a32cd" stroke-dasharray="5,2" d="M410.716,-219.331C448.17,-215.127 492.233,-210.022 532,-205 542.297,-203.7 553.219,-202.252 563.835,-200.808"/>
<polygon fill="#9a32cd" stroke="#9a32cd" points="409.886,-215.902 400.337,-220.492 410.664,-222.859 409.886,-215.902"/>
<text text-anchor="middle" x="475" y="-221" font-family="Helvetica,sans-Serif" font-size="10.00"> values</text>
</g>
<!-- Node8 -->
<g id="node8" class="node"><title>Node8</title>
<polygon fill="white" stroke="#bfbfbf" points="260,-0 260,-30 382,-30 382,-0 260,-0"/>
<text text-anchor="start" x="268" y="-18" font-family="Helvetica,sans-Serif" font-size="10.00">TableView&lt; Map.Entry</text>
<text text-anchor="middle" x="321" y="-7" font-family="Helvetica,sans-Serif" font-size="10.00">&lt; String, Double &gt; &gt;</text>
</g>
<!-- Node8&#45;&gt;Node3 -->
<g id="edge8" class="edge"><title>Node8&#45;&gt;Node3</title>
<path fill="none" stroke="#9a32cd" stroke-dasharray="5,2" d="M392.448,-12.5125C435.828,-14.1754 490.822,-22.3208 532,-49 583.863,-82.6016 613.503,-156.003 622.795,-182.347"/>
<polygon fill="#9a32cd" stroke="#9a32cd" points="392.344,-9.00836 382.252,-12.2313 392.151,-16.0057 392.344,-9.00836"/>
<text text-anchor="middle" x="475" y="-52" font-family="Helvetica,sans-Serif" font-size="10.00"> variableTable</text>
</g>
<!-- Node9 -->
<g id="node9" class="node"><title>Node9</title>
<polygon fill="white" stroke="#bfbfbf" points="257,-263.5 257,-282.5 385,-282.5 385,-263.5 257,-263.5"/>
<text text-anchor="middle" x="321" y="-270.5" font-family="Helvetica,sans-Serif" font-size="10.00">Map&lt; String, Double &gt;</text>
</g>
<!-- Node9&#45;&gt;Node3 -->
<g id="edge9" class="edge"><title>Node9&#45;&gt;Node3</title>
<path fill="none" stroke="#9a32cd" stroke-dasharray="5,2" d="M395.506,-263.117C436.263,-256.616 487.543,-246.74 532,-233 559.046,-224.641 588.757,-210.849 607.39,-201.598"/>
<polygon fill="#9a32cd" stroke="#9a32cd" points="394.721,-259.697 385.381,-264.697 395.801,-266.613 394.721,-259.697"/>
<text text-anchor="middle" x="475" y="-263" font-family="Helvetica,sans-Serif" font-size="10.00"> myVariables</text>
</g>
<!-- Node10 -->
<g id="node10" class="node"><title>Node10</title>
<polygon fill="white" stroke="#bfbfbf" points="260,-175.5 260,-194.5 382,-194.5 382,-175.5 260,-175.5"/>
<text text-anchor="middle" x="321" y="-182.5" font-family="Helvetica,sans-Serif" font-size="10.00">Map&lt; String, String &gt;</text>
</g>
<!-- Node10&#45;&gt;Node3 -->
<g id="edge10" class="edge"><title>Node10&#45;&gt;Node3</title>
<path fill="none" stroke="#9a32cd" stroke-dasharray="5,2" d="M392.188,-186.616C444.091,-187.811 514.123,-189.424 563.977,-190.572"/>
<polygon fill="#9a32cd" stroke="#9a32cd" points="392.139,-183.114 382.061,-186.383 391.977,-190.112 392.139,-183.114"/>
<text text-anchor="middle" x="475" y="-193" font-family="Helvetica,sans-Serif" font-size="10.00"> myTurtles</text>
</g>
<!-- Node11 -->
<g id="node11" class="node"><title>Node11</title>
<polygon fill="white" stroke="#bfbfbf" points="282.5,-137.5 282.5,-156.5 359.5,-156.5 359.5,-137.5 282.5,-137.5"/>
<text text-anchor="middle" x="321" y="-144.5" font-family="Helvetica,sans-Serif" font-size="10.00">TableColumn</text>
</g>
<!-- Node11&#45;&gt;Node3 -->
<g id="edge11" class="edge"><title>Node11&#45;&gt;Node3</title>
<path fill="none" stroke="#9a32cd" stroke-dasharray="5,2" d="M369.662,-147.192C412.501,-148.123 476.957,-151.407 532,-162 556.223,-166.662 582.938,-175.571 601.676,-182.475"/>
<polygon fill="#9a32cd" stroke="#9a32cd" points="369.586,-143.69 359.524,-147.007 369.458,-150.689 369.586,-143.69"/>
<text text-anchor="middle" x="475" y="-176" font-family="Helvetica,sans-Serif" font-size="10.00"> turtleIDs</text>
<text text-anchor="middle" x="475" y="-165" font-family="Helvetica,sans-Serif" font-size="10.00">turtles</text>
</g>
<!-- Node12 -->
<g id="node12" class="node"><title>Node12</title>
<polygon fill="white" stroke="#bfbfbf" points="3.5,-950.5 3.5,-969.5 130.5,-969.5 130.5,-950.5 3.5,-950.5"/>
<text text-anchor="middle" x="67" y="-957.5" font-family="Helvetica,sans-Serif" font-size="10.00">List&lt; ObjectProperty &gt;</text>
</g>
<!-- Node12&#45;&gt;Node1 -->
<g id="edge12" class="edge"><title>Node12&#45;&gt;Node1</title>
<path fill="none" stroke="#9a32cd" stroke-dasharray="5,2" d="M81.4485,-942.109C132.963,-875.277 326.11,-639.956 550,-559 659.557,-519.386 698.109,-542.488 812,-567 826.115,-570.038 841.337,-575.529 853.282,-580.384"/>
<polygon fill="#9a32cd" stroke="#9a32cd" points="78.4151,-940.315 75.131,-950.388 83.9799,-944.561 78.4151,-940.315"/>
<text text-anchor="middle" x="475" y="-626" font-family="Helvetica,sans-Serif" font-size="10.00"> myBindings</text>
</g>
<!-- Node30 -->
<g id="node30" class="node"><title>Node30</title>
<g id="a_node30"><a xlink:href="../../d9/dd0/classworld_1_1_world.html" target="_top" xlink:title="world.World">
<polygon fill="white" stroke="black" points="841,-1139.5 841,-1158.5 911,-1158.5 911,-1139.5 841,-1139.5"/>
<text text-anchor="middle" x="876" y="-1146.5" font-family="Helvetica,sans-Serif" font-size="10.00">world.World</text>
</a>
</g>
</g>
<!-- Node12&#45;&gt;Node30 -->
<g id="edge37" class="edge"><title>Node12&#45;&gt;Node30</title>
<path fill="none" stroke="#9a32cd" stroke-dasharray="5,2" d="M87.2323,-943.455C117.651,-918.5 179.818,-872.308 242,-855 366.357,-820.385 406.26,-841.806 532,-871 666.387,-902.201 724.05,-898.708 812,-1005 847.662,-1048.1 866.608,-1114.51 872.741,-1139.26"/>
<polygon fill="#9a32cd" stroke="#9a32cd" points="84.6156,-941.08 79.1828,-950.176 89.1021,-946.453 84.6156,-941.08"/>
<text text-anchor="middle" x="475" y="-874" font-family="Helvetica,sans-Serif" font-size="10.00"> bindings</text>
</g>
<!-- Node32 -->
<g id="node32" class="node"><title>Node32</title>
<g id="a_node32"><a xlink:href="../../d6/d95/classparser_1_1_parser.html" target="_top" xlink:title="parser.Parser">
<polygon fill="white" stroke="black" points="587,-1248.5 587,-1267.5 667,-1267.5 667,-1248.5 587,-1248.5"/>
<text text-anchor="middle" x="627" y="-1255.5" font-family="Helvetica,sans-Serif" font-size="10.00">parser.Parser</text>
</a>
</g>
</g>
<!-- Node12&#45;&gt;Node32 -->
<g id="edge47" class="edge"><title>Node12&#45;&gt;Node32</title>
<path fill="none" stroke="#9a32cd" stroke-dasharray="5,2" d="M92.508,-974.963C125.322,-994.283 185.916,-1027.5 242,-1045 304.223,-1064.42 485.862,-1042.96 532,-1089 569.241,-1126.16 521.978,-1161.47 550,-1206 562.432,-1225.76 585.403,-1239.89 602.849,-1248.39"/>
<polygon fill="#9a32cd" stroke="#9a32cd" points="94.0161,-971.787 83.6338,-969.676 90.4334,-977.801 94.0161,-971.787"/>
<text text-anchor="middle" x="321" y="-1061" font-family="Helvetica,sans-Serif" font-size="10.00"> bindings</text>
</g>
<!-- Node33 -->
<g id="node33" class="node"><title>Node33</title>
<g id="a_node33"><a xlink:href="../../d9/d1b/classcommand_1_1_command_factory.html" target="_top" xlink:title="command.CommandFactory">
<polygon fill="white" stroke="black" points="244.5,-1311.5 244.5,-1330.5 397.5,-1330.5 397.5,-1311.5 244.5,-1311.5"/>
<text text-anchor="middle" x="321" y="-1318.5" font-family="Helvetica,sans-Serif" font-size="10.00">command.CommandFactory</text>
</a>
</g>
</g>
<!-- Node12&#45;&gt;Node33 -->
<g id="edge43" class="edge"><title>Node12&#45;&gt;Node33</title>
<path fill="none" stroke="#9a32cd" stroke-dasharray="5,2" d="M80.2854,-977.988C108.979,-1020.68 181.206,-1132.2 224,-1234 235.285,-1260.85 221.618,-1276.2 242,-1297 248.148,-1303.27 255.894,-1307.92 264.102,-1311.35"/>
<polygon fill="#9a32cd" stroke="#9a32cd" points="83.0559,-975.837 74.5536,-969.516 77.258,-979.76 83.0559,-975.837"/>
<text text-anchor="middle" x="188" y="-1237" font-family="Helvetica,sans-Serif" font-size="10.00"> bindings</text>
</g>
<!-- Node13 -->
<g id="node13" class="node"><title>Node13</title>
<polygon fill="white" stroke="#bfbfbf" points="579,-741.5 579,-760.5 675,-760.5 675,-741.5 579,-741.5"/>
<text text-anchor="middle" x="627" y="-748.5" font-family="Helvetica,sans-Serif" font-size="10.00">GraphicsContext</text>
</g>
<!-- Node13&#45;&gt;Node1 -->
<g id="edge13" class="edge"><title>Node13&#45;&gt;Node1</title>
<path fill="none" stroke="#9a32cd" stroke-dasharray="5,2" d="M685.262,-745.707C724.375,-739.588 775.522,-726.404 812,-698 846.083,-671.461 865.246,-620.921 872.09,-599.731"/>
<polygon fill="#9a32cd" stroke="#9a32cd" points="684.478,-742.284 675.084,-747.183 685.483,-749.211 684.478,-742.284"/>
<text text-anchor="middle" x="767" y="-742" font-family="Helvetica,sans-Serif" font-size="10.00"> myGC</text>
</g>
<!-- Node13&#45;&gt;Node19 -->
<g id="edge24" class="edge"><title>Node13&#45;&gt;Node19</title>
<path fill="none" stroke="#9a32cd" stroke-dasharray="5,2" d="M685.093,-757.569C769.811,-767.317 929.157,-785.652 1025.63,-796.752"/>
<polygon fill="#9a32cd" stroke="#9a32cd" points="685.475,-754.09 675.141,-756.424 684.675,-761.044 685.475,-754.09"/>
<text text-anchor="middle" x="876" y="-787" font-family="Helvetica,sans-Serif" font-size="10.00"> myGC</text>
</g>
<!-- Node14&#45;&gt;Node1 -->
<g id="edge14" class="edge"><title>Node14&#45;&gt;Node1</title>
<path fill="none" stroke="#9a32cd" stroke-dasharray="5,2" d="M703.191,-391.651C739.755,-396.997 782.139,-408.946 812,-435 857.745,-474.913 870.788,-552.966 874.035,-580.281"/>
<polygon fill="#9a32cd" stroke="#9a32cd" points="703.42,-388.151 693.047,-390.312 702.503,-395.09 703.42,-388.151"/>
<text text-anchor="middle" x="767" y="-438" font-family="Helvetica,sans-Serif" font-size="10.00"> myRightPanel</text>
</g>
<!-- Node14&#45;&gt;Node14 -->
<g id="edge17" class="edge"><title>Node14&#45;&gt;Node14</title>
<path fill="none" stroke="#9a32cd" stroke-dasharray="5,2" d="M600.958,-407.029C602.379,-412.128 611.059,-416 627,-416 651.883,-416 659.076,-406.565 648.578,-397.757"/>
<polygon fill="#9a32cd" stroke="#9a32cd" points="604.238,-408.286 605.422,-397.757 597.931,-405.249 604.238,-408.286"/>
<text text-anchor="middle" x="627" y="-419" font-family="Helvetica,sans-Serif" font-size="10.00"> instance</text>
</g>
<!-- Node15 -->
<g id="node15" class="node"><title>Node15</title>
<polygon fill="white" stroke="#bfbfbf" points="268,-409.5 268,-428.5 374,-428.5 374,-409.5 268,-409.5"/>
<text text-anchor="middle" x="321" y="-416.5" font-family="Helvetica,sans-Serif" font-size="10.00">ListView&lt; String &gt;</text>
</g>
<!-- Node15&#45;&gt;Node14 -->
<g id="edge18" class="edge"><title>Node15&#45;&gt;Node14</title>
<path fill="none" stroke="#9a32cd" stroke-dasharray="5,2" d="M384.262,-412.651C435.766,-407.399 508.683,-399.963 560.942,-394.634"/>
<polygon fill="#9a32cd" stroke="#9a32cd" points="383.853,-409.174 374.259,-413.671 384.563,-416.138 383.853,-409.174"/>
<text text-anchor="middle" x="475" y="-434" font-family="Helvetica,sans-Serif" font-size="10.00"> resultsView</text>
<text text-anchor="middle" x="475" y="-423" font-family="Helvetica,sans-Serif" font-size="10.00">savedCommandView</text>
<text text-anchor="middle" x="475" y="-412" font-family="Helvetica,sans-Serif" font-size="10.00">previousCommandView</text>
</g>
<!-- Node16 -->
<g id="node16" class="node"><title>Node16</title>
<polygon fill="white" stroke="#bfbfbf" points="252,-353.5 252,-372.5 390,-372.5 390,-353.5 252,-353.5"/>
<text text-anchor="middle" x="321" y="-360.5" font-family="Helvetica,sans-Serif" font-size="10.00">ObservableList&lt; String &gt;</text>
</g>
<!-- Node16&#45;&gt;Node14 -->
<g id="edge19" class="edge"><title>Node16&#45;&gt;Node14</title>
<path fill="none" stroke="#9a32cd" stroke-dasharray="5,2" d="M400.495,-358.832C440.083,-357.879 488.752,-358.462 532,-364 537.952,-364.762 566.403,-372.112 590.462,-378.48"/>
<polygon fill="#9a32cd" stroke="#9a32cd" points="400.272,-355.336 390.373,-359.113 400.467,-362.334 400.272,-355.336"/>
<text text-anchor="middle" x="475" y="-389" font-family="Helvetica,sans-Serif" font-size="10.00"> results</text>
<text text-anchor="middle" x="475" y="-378" font-family="Helvetica,sans-Serif" font-size="10.00">previousCommands</text>
<text text-anchor="middle" x="475" y="-367" font-family="Helvetica,sans-Serif" font-size="10.00">savedCommands</text>
</g>
<!-- Node17 -->
<g id="node17" class="node"><title>Node17</title>
<polygon fill="white" stroke="#bfbfbf" points="557.5,-445.5 557.5,-464.5 696.5,-464.5 696.5,-445.5 557.5,-445.5"/>
<text text-anchor="middle" x="627" y="-452.5" font-family="Helvetica,sans-Serif" font-size="10.00">ObjectProperty&lt; String &gt;</text>
</g>
<!-- Node17&#45;&gt;Node1 -->
<g id="edge20" class="edge"><title>Node17&#45;&gt;Node1</title>
<path fill="none" stroke="#9a32cd" stroke-dasharray="5,2" d="M706.711,-448.394C741.563,-449.195 781.479,-455.574 812,-476 849.961,-501.405 867.24,-557.696 872.84,-580.314"/>
<polygon fill="#9a32cd" stroke="#9a32cd" points="706.581,-444.893 696.553,-448.312 706.524,-451.893 706.581,-444.893"/>
<text text-anchor="middle" x="767" y="-479" font-family="Helvetica,sans-Serif" font-size="10.00"> myCanvasColor</text>
</g>
<!-- Node18 -->
<g id="node18" class="node"><title>Node18</title>
<polygon fill="white" stroke="#bfbfbf" points="555.5,-329 555.5,-359 698.5,-359 698.5,-329 555.5,-329"/>
<text text-anchor="start" x="563.5" y="-347" font-family="Helvetica,sans-Serif" font-size="10.00">ObjectProperty&lt; Resource</text>
<text text-anchor="middle" x="627" y="-336" font-family="Helvetica,sans-Serif" font-size="10.00">Bundle &gt;</text>
</g>
<!-- Node18&#45;&gt;Node1 -->
<g id="edge21" class="edge"><title>Node18&#45;&gt;Node1</title>
<path fill="none" stroke="#9a32cd" stroke-dasharray="5,2" d="M709.041,-342.387C744.561,-345.811 784.361,-355.853 812,-381 872.547,-436.089 875.772,-547.005 875.301,-580.322"/>
<polygon fill="#9a32cd" stroke="#9a32cd" points="708.91,-338.866 698.663,-341.559 708.353,-345.843 708.91,-338.866"/>
<text text-anchor="middle" x="767" y="-384" font-family="Helvetica,sans-Serif" font-size="10.00"> myLanguage</text>
</g>
<!-- Node19&#45;&gt;Node1 -->
<g id="edge22" class="edge"><title>Node19&#45;&gt;Node1</title>
<path fill="none" stroke="#9a32cd" stroke-dasharray="5,2" d="M1089.12,-789.397C1069.69,-770.336 1036.74,-738.197 1008,-711 963.698,-669.079 910.004,-620.023 887.608,-599.639"/>
<polygon fill="#9a32cd" stroke="#9a32cd" points="1086.75,-791.974 1096.34,-796.483 1091.65,-786.98 1086.75,-791.974"/>
<text text-anchor="middle" x="974" y="-714" font-family="Helvetica,sans-Serif" font-size="10.00"> myController</text>
</g>
<!-- Node20 -->
<g id="node20" class="node"><title>Node20</title>
<polygon fill="white" stroke="#bfbfbf" points="848,-859.5 848,-878.5 904,-878.5 904,-859.5 848,-859.5"/>
<text text-anchor="middle" x="876" y="-866.5" font-family="Helvetica,sans-Serif" font-size="10.00">Timeline</text>
</g>
<!-- Node20&#45;&gt;Node19 -->
<g id="edge23" class="edge"><title>Node20&#45;&gt;Node19</title>
<path fill="none" stroke="#9a32cd" stroke-dasharray="5,2" d="M914.165,-863.749C940.622,-859.567 976.857,-852.93 1008,-844 1035.01,-836.254 1064.99,-824.076 1084.59,-815.602"/>
<polygon fill="#9a32cd" stroke="#9a32cd" points="913.533,-860.305 904.181,-865.285 914.597,-867.224 913.533,-860.305"/>
<text text-anchor="middle" x="974" y="-863" font-family="Helvetica,sans-Serif" font-size="10.00"> myAnimation</text>
</g>
<!-- Node21 -->
<g id="node21" class="node"><title>Node21</title>
<g id="a_node21"><a xlink:href="../../df/dcb/classturtle_1_1_turtle.html" target="_top" xlink:title="turtle.Turtle">
<polygon fill="white" stroke="black" points="591.5,-940.5 591.5,-959.5 662.5,-959.5 662.5,-940.5 591.5,-940.5"/>
<text text-anchor="middle" x="627" y="-947.5" font-family="Helvetica,sans-Serif" font-size="10.00">turtle.Turtle</text>
</a>
</g>
</g>
<!-- Node21&#45;&gt;Node19 -->
<g id="edge26" class="edge"><title>Node21&#45;&gt;Node19</title>
<path fill="none" stroke="#9a32cd" stroke-dasharray="5,2" d="M672.91,-947.196C745.876,-941.331 893.53,-923.96 1008,-875 1043.2,-859.944 1078.43,-830.885 1095.46,-815.731"/>
<polygon fill="#9a32cd" stroke="#9a32cd" points="672.402,-943.724 662.699,-947.98 672.938,-950.704 672.402,-943.724"/>
<text text-anchor="middle" x="876" y="-929" font-family="Helvetica,sans-Serif" font-size="10.00"> myTurtle</text>
</g>
<!-- Node21&#45;&gt;Node30 -->
<g id="edge38" class="edge"><title>Node21&#45;&gt;Node30</title>
<path fill="none" stroke="#9a32cd" stroke-dasharray="5,2" d="M654.056,-964.652C691.206,-986.195 760.585,-1028.88 812,-1075 834.86,-1095.5 857.058,-1124.26 867.981,-1139.16"/>
<polygon fill="#9a32cd" stroke="#9a32cd" points="655.75,-961.589 645.336,-959.642 652.263,-967.659 655.75,-961.589"/>
<text text-anchor="middle" x="767" y="-1089" font-family="Helvetica,sans-Serif" font-size="10.00"> myTurtle</text>
<text text-anchor="middle" x="767" y="-1078" font-family="Helvetica,sans-Serif" font-size="10.00">activeTurtle</text>
</g>
<!-- Node22 -->
<g id="node22" class="node"><title>Node22</title>
<polygon fill="white" stroke="#bfbfbf" points="287,-902.5 287,-921.5 355,-921.5 355,-902.5 287,-902.5"/>
<text text-anchor="middle" x="321" y="-909.5" font-family="Helvetica,sans-Serif" font-size="10.00">ImageView</text>
</g>
<!-- Node22&#45;&gt;Node21 -->
<g id="edge27" class="edge"><title>Node22&#45;&gt;Node21</title>
<path fill="none" stroke="midnightblue" d="M365.133,-917.392C425.807,-924.976 535.176,-938.647 591.062,-945.633"/>
<polygon fill="midnightblue" stroke="midnightblue" points="365.469,-913.906 355.112,-916.139 364.601,-920.852 365.469,-913.906"/>
</g>
<!-- Node23 -->
<g id="node23" class="node"><title>Node23</title>
<polygon fill="white" stroke="#bfbfbf" points="251,-864.5 251,-883.5 391,-883.5 391,-864.5 251,-864.5"/>
<text text-anchor="middle" x="321" y="-871.5" font-family="Helvetica,sans-Serif" font-size="10.00">ObjectProperty&lt; Image &gt;</text>
</g>
<!-- Node23&#45;&gt;Node21 -->
<g id="edge28" class="edge"><title>Node23&#45;&gt;Node21</title>
<path fill="none" stroke="#9a32cd" stroke-dasharray="5,2" d="M400.931,-883.103C440.738,-888.805 489.471,-897.492 532,-910 558.884,-917.907 588.389,-931.291 607.04,-940.379"/>
<polygon fill="#9a32cd" stroke="#9a32cd" points="401.4,-879.635 391.012,-881.717 400.432,-886.567 401.4,-879.635"/>
<text text-anchor="middle" x="475" y="-913" font-family="Helvetica,sans-Serif" font-size="10.00"> myImage</text>
</g>
<!-- Node24 -->
<g id="node24" class="node"><title>Node24</title>
<g id="a_node24"><a xlink:href="../../de/d57/classturtle_1_1_pen.html" target="_top" xlink:title="turtle.Pen">
<polygon fill="white" stroke="black" points="289.5,-1016.5 289.5,-1035.5 352.5,-1035.5 352.5,-1016.5 289.5,-1016.5"/>
<text text-anchor="middle" x="321" y="-1023.5" font-family="Helvetica,sans-Serif" font-size="10.00">turtle.Pen</text>
</a>
</g>
</g>
<!-- Node24&#45;&gt;Node21 -->
<g id="edge29" class="edge"><title>Node24&#45;&gt;Node21</title>
<path fill="none" stroke="#9a32cd" stroke-dasharray="5,2" d="M362.632,-1029.65C405.836,-1032.13 475.579,-1032.08 532,-1013 566.056,-1001.48 599.457,-974.238 615.736,-959.637"/>
<polygon fill="#9a32cd" stroke="#9a32cd" points="362.714,-1026.15 352.509,-1028.99 362.261,-1033.13 362.714,-1026.15"/>
<text text-anchor="middle" x="475" y="-1034" font-family="Helvetica,sans-Serif" font-size="10.00"> myPen</text>
</g>
<!-- Node25 -->
<g id="node25" class="node"><title>Node25</title>
<polygon fill="white" stroke="#bfbfbf" points="47,-800.5 47,-819.5 87,-819.5 87,-800.5 47,-800.5"/>
<text text-anchor="middle" x="67" y="-807.5" font-family="Helvetica,sans-Serif" font-size="10.00">Paint</text>
</g>
<!-- Node25&#45;&gt;Node24 -->
<g id="edge30" class="edge"><title>Node25&#45;&gt;Node24</title>
<path fill="none" stroke="#9a32cd" stroke-dasharray="5,2" d="M78.7624,-828.443C102.736,-867.805 164.571,-960.257 242,-1007 256.318,-1015.64 274.352,-1020.36 289.472,-1022.93"/>
<polygon fill="#9a32cd" stroke="#9a32cd" points="81.6336,-826.424 73.4966,-819.639 75.6262,-830.018 81.6336,-826.424"/>
<text text-anchor="middle" x="188" y="-995" font-family="Helvetica,sans-Serif" font-size="10.00"> myPenColor</text>
</g>
<!-- Node26 -->
<g id="node26" class="node"><title>Node26</title>
<polygon fill="white" stroke="#bfbfbf" points="294,-978.5 294,-997.5 348,-997.5 348,-978.5 294,-978.5"/>
<text text-anchor="middle" x="321" y="-985.5" font-family="Helvetica,sans-Serif" font-size="10.00">Point2D</text>
</g>
<!-- Node26&#45;&gt;Node21 -->
<g id="edge31" class="edge"><title>Node26&#45;&gt;Node21</title>
<path fill="none" stroke="#9a32cd" stroke-dasharray="5,2" d="M358.185,-983.562C400.038,-978.419 471.012,-969.668 532,-962 551.588,-959.537 573.467,-956.746 591.184,-954.476"/>
<polygon fill="#9a32cd" stroke="#9a32cd" points="357.694,-980.096 348.195,-984.789 358.547,-987.044 357.694,-980.096"/>
<text text-anchor="middle" x="475" y="-1001" font-family="Helvetica,sans-Serif" font-size="10.00"> goal</text>
<text text-anchor="middle" x="475" y="-990" font-family="Helvetica,sans-Serif" font-size="10.00">next</text>
<text text-anchor="middle" x="475" y="-979" font-family="Helvetica,sans-Serif" font-size="10.00">current</text>
</g>
<!-- Node27 -->
<g id="node27" class="node"><title>Node27</title>
<polygon fill="white" stroke="#bfbfbf" points="297.5,-940.5 297.5,-959.5 344.5,-959.5 344.5,-940.5 297.5,-940.5"/>
<text text-anchor="middle" x="321" y="-947.5" font-family="Helvetica,sans-Serif" font-size="10.00">Image</text>
</g>
<!-- Node27&#45;&gt;Node21 -->
<g id="edge32" class="edge"><title>Node27&#45;&gt;Node21</title>
<path fill="none" stroke="#9a32cd" stroke-dasharray="5,2" d="M354.893,-950C412.663,-950 531.825,-950 591.03,-950"/>
<polygon fill="#9a32cd" stroke="#9a32cd" points="354.849,-946.5 344.849,-950 354.849,-953.5 354.849,-946.5"/>
<text text-anchor="middle" x="475" y="-953" font-family="Helvetica,sans-Serif" font-size="10.00"> DEFAULT_IMAGE</text>
</g>
<!-- Node28 -->
<g id="node28" class="node"><title>Node28</title>
<polygon fill="white" stroke="#bfbfbf" points="593.5,-692.5 593.5,-711.5 660.5,-711.5 660.5,-692.5 593.5,-692.5"/>
<text text-anchor="middle" x="627" y="-699.5" font-family="Helvetica,sans-Serif" font-size="10.00">StackPane</text>
</g>
<!-- Node28&#45;&gt;Node1 -->
<g id="edge58" class="edge"><title>Node28&#45;&gt;Node1</title>
<path fill="none" stroke="#9a32cd" stroke-dasharray="5,2" d="M670.821,-694.668C721.319,-685.788 799.954,-671.132 812,-664 839.149,-647.925 860.251,-615.849 869.654,-599.726"/>
<polygon fill="#9a32cd" stroke="#9a32cd" points="670.064,-691.248 660.816,-696.417 671.269,-698.143 670.064,-691.248"/>
<text text-anchor="middle" x="767" y="-689" font-family="Helvetica,sans-Serif" font-size="10.00"> canvasPane</text>
</g>
<!-- Node28&#45;&gt;Node19 -->
<g id="edge33" class="edge"><title>Node28&#45;&gt;Node19</title>
<path fill="none" stroke="#9a32cd" stroke-dasharray="5,2" d="M663.746,-714.986C681.133,-720.895 702.453,-727.546 722,-732 809.513,-751.939 833.894,-742.869 922,-760 975.009,-770.307 1035.61,-786.286 1072.33,-796.441"/>
<polygon fill="#9a32cd" stroke="#9a32cd" points="664.601,-711.579 654.007,-711.615 662.312,-718.194 664.601,-711.579"/>
<text text-anchor="middle" x="876" y="-763" font-family="Helvetica,sans-Serif" font-size="10.00"> myPane</text>
</g>
<!-- Node29 -->
<g id="node29" class="node"><title>Node29</title>
<polygon fill="white" stroke="#bfbfbf" points="601,-799.5 601,-818.5 653,-818.5 653,-799.5 601,-799.5"/>
<text text-anchor="middle" x="627" y="-806.5" font-family="Helvetica,sans-Serif" font-size="10.00">Canvas</text>
</g>
<!-- Node29&#45;&gt;Node1 -->
<g id="edge59" class="edge"><title>Node29&#45;&gt;Node1</title>
<path fill="none" stroke="#9a32cd" stroke-dasharray="5,2" d="M663.128,-807.517C703.872,-803.97 770.714,-792.25 812,-754 818.069,-748.377 859.116,-634.449 871.482,-599.867"/>
<polygon fill="#9a32cd" stroke="#9a32cd" points="662.825,-804.03 653.115,-808.269 663.349,-811.01 662.825,-804.03"/>
<text text-anchor="middle" x="767" y="-801" font-family="Helvetica,sans-Serif" font-size="10.00"> myCanvas</text>
</g>
<!-- Node29&#45;&gt;Node19 -->
<g id="edge34" class="edge"><title>Node29&#45;&gt;Node19</title>
<path fill="none" stroke="#9a32cd" stroke-dasharray="5,2" d="M663.51,-810.868C681.099,-811.702 702.661,-812.589 722,-813 826.994,-815.233 948.145,-812.069 1025.83,-809.303"/>
<polygon fill="#9a32cd" stroke="#9a32cd" points="663.285,-807.353 653.126,-810.36 662.943,-814.344 663.285,-807.353"/>
<text text-anchor="middle" x="876" y="-817" font-family="Helvetica,sans-Serif" font-size="10.00"> myCanvas</text>
</g>
<!-- Node30&#45;&gt;Node19 -->
<g id="edge35" class="edge"><title>Node30&#45;&gt;Node19</title>
<path fill="none" stroke="#9a32cd" stroke-dasharray="5,2" d="M888.991,-1131.04C930.627,-1068.68 1068.12,-862.737 1099.56,-815.648"/>
<polygon fill="#9a32cd" stroke="#9a32cd" points="886.006,-1129.21 883.364,-1139.47 891.827,-1133.09 886.006,-1129.21"/>
<text text-anchor="middle" x="974" y="-1051" font-family="Helvetica,sans-Serif" font-size="10.00"> myWorld</text>
</g>
<!-- Node31 -->
<g id="node31" class="node"><title>Node31</title>
<polygon fill="white" stroke="#bfbfbf" points="0,-1477 0,-1507 134,-1507 134,-1477 0,-1477"/>
<text text-anchor="start" x="8" y="-1495" font-family="Helvetica,sans-Serif" font-size="10.00">ObservableMap&lt; String,</text>
<text text-anchor="middle" x="67" y="-1484" font-family="Helvetica,sans-Serif" font-size="10.00"> String &gt;</text>
</g>
<!-- Node31&#45;&gt;Node30 -->
<g id="edge36" class="edge"><title>Node31&#45;&gt;Node30</title>
<path fill="none" stroke="#9a32cd" stroke-dasharray="5,2" d="M137.727,-1508.88C142.539,-1509.71 147.33,-1510.43 152,-1511 319.907,-1531.64 376.03,-1554.52 532,-1489 672.521,-1429.97 715.402,-1408.9 812,-1291 847.041,-1248.23 866.36,-1182.9 872.667,-1158.57"/>
<polygon fill="#9a32cd" stroke="#9a32cd" points="138.321,-1505.43 127.853,-1507.07 137.055,-1512.32 138.321,-1505.43"/>
<text text-anchor="middle" x="475" y="-1528" font-family="Helvetica,sans-Serif" font-size="10.00"> functions</text>
</g>
<!-- Node31&#45;&gt;Node32 -->
<g id="edge40" class="edge"><title>Node31&#45;&gt;Node32</title>
<path fill="none" stroke="#9a32cd" stroke-dasharray="5,2" d="M144.402,-1496.06C259.661,-1500.69 471.037,-1502.88 532,-1461 601.146,-1413.5 620.528,-1301.64 624.897,-1267.84"/>
<polygon fill="#9a32cd" stroke="#9a32cd" points="144.373,-1492.56 134.235,-1495.64 144.081,-1499.55 144.373,-1492.56"/>
<text text-anchor="middle" x="321" y="-1501" font-family="Helvetica,sans-Serif" font-size="10.00"> functions</text>
</g>
<!-- Node31&#45;&gt;Node33 -->
<g id="edge42" class="edge"><title>Node31&#45;&gt;Node33</title>
<path fill="none" stroke="#9a32cd" stroke-dasharray="5,2" d="M98.6459,-1471.2C153.482,-1433.99 266.352,-1357.4 305.92,-1330.55"/>
<polygon fill="#9a32cd" stroke="#9a32cd" points="96.6728,-1468.31 90.3633,-1476.82 100.603,-1474.11 96.6728,-1468.31"/>
<text text-anchor="middle" x="188" y="-1434" font-family="Helvetica,sans-Serif" font-size="10.00"> functions</text>
</g>
<!-- Node32&#45;&gt;Node30 -->
<g id="edge39" class="edge"><title>Node32&#45;&gt;Node30</title>
<path fill="none" stroke="#9a32cd" stroke-dasharray="5,2" d="M672.427,-1245.55C710.532,-1234.06 766.348,-1215.28 812,-1192 830.874,-1182.37 850.765,-1167.98 863.029,-1158.54"/>
<polygon fill="#9a32cd" stroke="#9a32cd" points="671.245,-1242.25 662.655,-1248.45 673.238,-1248.96 671.245,-1242.25"/>
<text text-anchor="middle" x="767" y="-1232" font-family="Helvetica,sans-Serif" font-size="10.00"> myParser</text>
</g>
<!-- Node33&#45;&gt;Node32 -->
<g id="edge41" class="edge"><title>Node33&#45;&gt;Node32</title>
<path fill="none" stroke="#9a32cd" stroke-dasharray="5,2" d="M407.847,-1315.96C446.262,-1312.39 491.847,-1306.31 532,-1296 558.768,-1289.13 588.058,-1276.39 606.709,-1267.57"/>
<polygon fill="#9a32cd" stroke="#9a32cd" points="407.381,-1312.49 397.73,-1316.86 408.001,-1319.46 407.381,-1312.49"/>
<text text-anchor="middle" x="475" y="-1318" font-family="Helvetica,sans-Serif" font-size="10.00"> myCommandFactory</text>
</g>
<!-- Node34 -->
<g id="node34" class="node"><title>Node34</title>
<polygon fill="white" stroke="#bfbfbf" points="20.5,-1289.5 20.5,-1308.5 113.5,-1308.5 113.5,-1289.5 20.5,-1289.5"/>
<text text-anchor="middle" x="67" y="-1296.5" font-family="Helvetica,sans-Serif" font-size="10.00">ResourceBundle</text>
</g>
<!-- Node34&#45;&gt;Node32 -->
<g id="edge48" class="edge"><title>Node34&#45;&gt;Node32</title>
<path fill="none" stroke="#9a32cd" stroke-dasharray="5,2" d="M123.819,-1294.9C236.718,-1286.6 489.691,-1268.02 586.91,-1260.87"/>
<polygon fill="#9a32cd" stroke="#9a32cd" points="123.38,-1291.42 113.663,-1295.64 123.893,-1298.4 123.38,-1291.42"/>
<text text-anchor="middle" x="321" y="-1289" font-family="Helvetica,sans-Serif" font-size="10.00"> myResources</text>
</g>
<!-- Node34&#45;&gt;Node33 -->
<g id="edge44" class="edge"><title>Node34&#45;&gt;Node33</title>
<path fill="none" stroke="#9a32cd" stroke-dasharray="5,2" d="M123.774,-1303.87C159.142,-1306.96 205.356,-1310.99 244.05,-1314.37"/>
<polygon fill="#9a32cd" stroke="#9a32cd" points="123.902,-1300.37 113.635,-1302.98 123.293,-1307.34 123.902,-1300.37"/>
<text text-anchor="middle" x="188" y="-1338" font-family="Helvetica,sans-Serif" font-size="10.00"> syntax</text>
<text text-anchor="middle" x="188" y="-1327" font-family="Helvetica,sans-Serif" font-size="10.00">paramMap</text>
<text text-anchor="middle" x="188" y="-1316" font-family="Helvetica,sans-Serif" font-size="10.00">translationMap</text>
</g>
<!-- Node35 -->
<g id="node35" class="node"><title>Node35</title>
<polygon fill="white" stroke="#bfbfbf" points="0,-1174 0,-1204 134,-1204 134,-1174 0,-1174"/>
<text text-anchor="start" x="8" y="-1192" font-family="Helvetica,sans-Serif" font-size="10.00">ObservableMap&lt; String,</text>
<text text-anchor="middle" x="67" y="-1181" font-family="Helvetica,sans-Serif" font-size="10.00"> Double &gt;</text>
</g>
<!-- Node35&#45;&gt;Node30 -->
<g id="edge53" class="edge"><title>Node35&#45;&gt;Node30</title>
<path fill="none" stroke="#9a32cd" stroke-dasharray="5,2" d="M110.816,-1170.08C145.432,-1155.88 195.828,-1137.62 242,-1130 467.909,-1092.74 745.159,-1128.67 840.726,-1143.37"/>
<polygon fill="#9a32cd" stroke="#9a32cd" points="109.373,-1166.89 101.488,-1173.97 112.065,-1173.36 109.373,-1166.89"/>
<text text-anchor="middle" x="475" y="-1118" font-family="Helvetica,sans-Serif" font-size="10.00"> variables</text>
</g>
<!-- Node35&#45;&gt;Node32 -->
<g id="edge51" class="edge"><title>Node35&#45;&gt;Node32</title>
<path fill="none" stroke="#9a32cd" stroke-dasharray="5,2" d="M144.015,-1193.04C169.566,-1195.14 198.14,-1198.29 224,-1203 232.168,-1204.49 233.863,-1206.35 242,-1208 366.69,-1233.3 516.881,-1248.52 586.726,-1254.74"/>
<polygon fill="#9a32cd" stroke="#9a32cd" points="144.255,-1189.55 134.013,-1192.26 143.711,-1196.53 144.255,-1189.55"/>
<text text-anchor="middle" x="321" y="-1237" font-family="Helvetica,sans-Serif" font-size="10.00"> variables</text>
</g>
<!-- Node35&#45;&gt;Node33 -->
<g id="edge45" class="edge"><title>Node35&#45;&gt;Node33</title>
<path fill="none" stroke="#9a32cd" stroke-dasharray="5,2" d="M96.8301,-1210.14C130.328,-1233.91 187.933,-1272.4 242,-1297 254.638,-1302.75 269.031,-1307.62 281.983,-1311.43"/>
<polygon fill="#9a32cd" stroke="#9a32cd" points="98.6161,-1207.11 88.4472,-1204.14 94.5419,-1212.8 98.6161,-1207.11"/>
<text text-anchor="middle" x="188" y="-1291" font-family="Helvetica,sans-Serif" font-size="10.00"> variables</text>
</g>
<!-- Node36 -->
<g id="node36" class="node"><title>Node36</title>
<polygon fill="white" stroke="#bfbfbf" points="0,-1387.5 0,-1406.5 134,-1406.5 134,-1387.5 0,-1387.5"/>
<text text-anchor="middle" x="67" y="-1394.5" font-family="Helvetica,sans-Serif" font-size="10.00">ObservableList&lt; Color &gt;</text>
</g>
<!-- Node36&#45;&gt;Node30 -->
<g id="edge54" class="edge"><title>Node36&#45;&gt;Node30</title>
<path fill="none" stroke="#9a32cd" stroke-dasharray="5,2" d="M89.5437,-1412.4C105.825,-1423.04 129.196,-1436.28 152,-1442 259.849,-1469.07 292.65,-1437.98 400,-1409 590.431,-1357.58 660.128,-1369.87 812,-1244 841.561,-1219.5 862.498,-1177.58 870.906,-1158.71"/>
<polygon fill="#9a32cd" stroke="#9a32cd" points="91.0784,-1409.21 80.8344,-1406.51 87.1563,-1415.01 91.0784,-1409.21"/>
<text text-anchor="middle" x="475" y="-1406" font-family="Helvetica,sans-Serif" font-size="10.00"> colors</text>
</g>
<!-- Node36&#45;&gt;Node32 -->
<g id="edge52" class="edge"><title>Node36&#45;&gt;Node32</title>
<path fill="none" stroke="#9a32cd" stroke-dasharray="5,2" d="M144.08,-1398.2C238.857,-1397 403.915,-1385.98 532,-1330 567.224,-1314.61 601.145,-1283.28 616.871,-1267.52"/>
<polygon fill="#9a32cd" stroke="#9a32cd" points="143.972,-1394.7 134.005,-1398.29 144.037,-1401.7 143.972,-1394.7"/>
<text text-anchor="middle" x="321" y="-1397" font-family="Helvetica,sans-Serif" font-size="10.00"> colors</text>
</g>
<!-- Node36&#45;&gt;Node33 -->
<g id="edge46" class="edge"><title>Node36&#45;&gt;Node33</title>
<path fill="none" stroke="#9a32cd" stroke-dasharray="5,2" d="M109.534,-1384.47C159.697,-1369.35 242.968,-1344.23 288.27,-1330.57"/>
<polygon fill="#9a32cd" stroke="#9a32cd" points="108.224,-1381.21 99.6608,-1387.45 110.246,-1387.91 108.224,-1381.21"/>
<text text-anchor="middle" x="188" y="-1374" font-family="Helvetica,sans-Serif" font-size="10.00"> colors</text>
</g>
<!-- Node37 -->
<g id="node37" class="node"><title>Node37</title>
<g id="a_node37"><a xlink:href="../../d3/dcc/classparser_1_1_node.html" target="_top" xlink:title="parser.Node">
<polygon fill="white" stroke="black" points="283.5,-1139.5 283.5,-1158.5 358.5,-1158.5 358.5,-1139.5 283.5,-1139.5"/>
<text text-anchor="middle" x="321" y="-1146.5" font-family="Helvetica,sans-Serif" font-size="10.00">parser.Node</text>
</a>
</g>
</g>
<!-- Node37&#45;&gt;Node32 -->
<g id="edge49" class="edge"><title>Node37&#45;&gt;Node32</title>
<path fill="none" stroke="#9a32cd" stroke-dasharray="5,2" d="M368.809,-1155.64C412.296,-1162.85 478.247,-1176.46 532,-1199 563.45,-1212.19 596.346,-1235.35 613.655,-1248.38"/>
<polygon fill="#9a32cd" stroke="#9a32cd" points="369.23,-1152.16 358.801,-1154.03 368.117,-1159.08 369.23,-1152.16"/>
<text text-anchor="middle" x="475" y="-1213" font-family="Helvetica,sans-Serif" font-size="10.00"> myTree</text>
<text text-anchor="middle" x="475" y="-1202" font-family="Helvetica,sans-Serif" font-size="10.00">myListTree</text>
</g>
<!-- Node37&#45;&gt;Node37 -->
<g id="edge50" class="edge"><title>Node37&#45;&gt;Node37</title>
<path fill="none" stroke="#9a32cd" stroke-dasharray="5,2" d="M296.447,-1168.03C297.786,-1173.13 305.97,-1177 321,-1177 344.461,-1177 351.243,-1167.57 341.345,-1158.76"/>
<polygon fill="#9a32cd" stroke="#9a32cd" points="299.709,-1169.31 300.655,-1158.76 293.335,-1166.42 299.709,-1169.31"/>
<text text-anchor="middle" x="321" y="-1191" font-family="Helvetica,sans-Serif" font-size="10.00"> myChild1</text>
<text text-anchor="middle" x="321" y="-1180" font-family="Helvetica,sans-Serif" font-size="10.00">myChild2</text>
</g>
<!-- Node38 -->
<g id="node38" class="node"><title>Node38</title>
<polygon fill="white" stroke="#bfbfbf" points="550.5,-1177.5 550.5,-1196.5 703.5,-1196.5 703.5,-1177.5 550.5,-1177.5"/>
<text text-anchor="middle" x="627" y="-1184.5" font-family="Helvetica,sans-Serif" font-size="10.00">Map&lt; Integer, turtle.Turtle &gt;</text>
</g>
<!-- Node38&#45;&gt;Node30 -->
<g id="edge55" class="edge"><title>Node38&#45;&gt;Node30</title>
<path fill="none" stroke="#9a32cd" stroke-dasharray="5,2" d="M714.253,-1178.19C745.193,-1174.51 780.266,-1169.74 812,-1164 821.404,-1162.3 831.509,-1160.07 840.812,-1157.86"/>
<polygon fill="#9a32cd" stroke="#9a32cd" points="713.456,-1174.76 703.93,-1179.4 714.268,-1181.72 713.456,-1174.76"/>
<text text-anchor="middle" x="767" y="-1180" font-family="Helvetica,sans-Serif" font-size="10.00"> myTurtles</text>
</g>
<!-- Node39 -->
<g id="node39" class="node"><title>Node39</title>
<polygon fill="white" stroke="#bfbfbf" points="606.5,-1139.5 606.5,-1158.5 647.5,-1158.5 647.5,-1139.5 606.5,-1139.5"/>
<text text-anchor="middle" x="627" y="-1146.5" font-family="Helvetica,sans-Serif" font-size="10.00">Color</text>
</g>
<!-- Node39&#45;&gt;Node30 -->
<g id="edge56" class="edge"><title>Node39&#45;&gt;Node30</title>
<path fill="none" stroke="#9a32cd" stroke-dasharray="5,2" d="M658.042,-1149C704.179,-1149 792.221,-1149 840.762,-1149"/>
<polygon fill="#9a32cd" stroke="#9a32cd" points="657.796,-1145.5 647.796,-1149 657.795,-1152.5 657.796,-1145.5"/>
<text text-anchor="middle" x="767" y="-1152" font-family="Helvetica,sans-Serif" font-size="10.00"> TURTLE_DEFAULT</text>
</g>
<!-- Node40 -->
<g id="node40" class="node"><title>Node40</title>
<polygon fill="white" stroke="#bfbfbf" points="598,-644.5 598,-663.5 656,-663.5 656,-644.5 598,-644.5"/>
<text text-anchor="middle" x="627" y="-651.5" font-family="Helvetica,sans-Serif" font-size="10.00">TextArea</text>
</g>
<!-- Node40&#45;&gt;Node1 -->
<g id="edge57" class="edge"><title>Node40&#45;&gt;Node1</title>
<path fill="none" stroke="#9a32cd" stroke-dasharray="5,2" d="M666.129,-653.804C704.151,-652.516 763.691,-647.509 812,-630 831.489,-622.937 851.226,-609.078 863.288,-599.676"/>
<polygon fill="#9a32cd" stroke="#9a32cd" points="665.905,-650.308 656.003,-654.076 666.093,-657.306 665.905,-650.308"/>
<text text-anchor="middle" x="767" y="-653" font-family="Helvetica,sans-Serif" font-size="10.00"> myInput</text>
</g>
<!-- Node41 -->
<g id="node41" class="node"><title>Node41</title>
<polygon fill="white" stroke="#bfbfbf" points="606,-568.5 606,-587.5 648,-587.5 648,-568.5 606,-568.5"/>
<text text-anchor="middle" x="627" y="-575.5" font-family="Helvetica,sans-Serif" font-size="10.00">HBox</text>
</g>
<!-- Node41&#45;&gt;Node1 -->
<g id="edge60" class="edge"><title>Node41&#45;&gt;Node1</title>
<path fill="none" stroke="#9a32cd" stroke-dasharray="5,2" d="M658.261,-574.653C694.838,-571.225 758.182,-567.273 812,-574 822.526,-575.316 833.816,-577.822 843.89,-580.468"/>
<polygon fill="#9a32cd" stroke="#9a32cd" points="657.854,-571.176 648.247,-575.641 658.542,-578.142 657.854,-571.176"/>
<text text-anchor="middle" x="767" y="-577" font-family="Helvetica,sans-Serif" font-size="10.00"> myCommandField</text>
</g>
<!-- Node42 -->
<g id="node42" class="node"><title>Node42</title>
<polygon fill="white" stroke="#bfbfbf" points="591,-606.5 591,-625.5 663,-625.5 663,-606.5 591,-606.5"/>
<text text-anchor="middle" x="627" y="-613.5" font-family="Helvetica,sans-Serif" font-size="10.00">BorderPane</text>
</g>
<!-- Node42&#45;&gt;Node1 -->
<g id="edge61" class="edge"><title>Node42&#45;&gt;Node1</title>
<path fill="none" stroke="#9a32cd" stroke-dasharray="5,2" d="M673.093,-611.253C717.643,-606.564 785.404,-599.431 829.942,-594.743"/>
<polygon fill="#9a32cd" stroke="#9a32cd" points="672.705,-607.775 663.127,-612.302 673.438,-614.736 672.705,-607.775"/>
<text text-anchor="middle" x="767" y="-621" font-family="Helvetica,sans-Serif" font-size="10.00"> myCenterView</text>
<text text-anchor="middle" x="767" y="-610" font-family="Helvetica,sans-Serif" font-size="10.00">myView</text>
</g>
</g>
</svg>
