<?xml version="1.0" encoding="UTF-8" standalone="no"?>
<!DOCTYPE svg PUBLIC "-//W3C//DTD SVG 1.1//EN"
 "http://www.w3.org/Graphics/SVG/1.1/DTD/svg11.dtd">
<!-- Generated by graphviz version 2.36.0 (20140111.2315)
 -->
<!-- Title: command.PenDownCommand.doCommand Pages: 1 -->
<svg width="532pt" height="38pt"
 viewBox="0.00 0.00 532.00 38.00" xmlns="http://www.w3.org/2000/svg" xmlns:xlink="http://www.w3.org/1999/xlink">
<g id="graph0" class="graph" transform="scale(1 1) rotate(0) translate(4 34)">
<title>command.PenDownCommand.doCommand</title>
<polygon fill="white" stroke="none" points="-4,4 -4,-34 528,-34 528,4 -4,4"/>
<!-- Node1 -->
<g id="node1" class="node"><title>Node1</title>
<polygon fill="#bfbfbf" stroke="black" points="0,-0 0,-30 178,-30 178,-0 0,-0"/>
<text text-anchor="start" x="8" y="-18" font-family="Helvetica,sans-Serif" font-size="10.00">command.PenDownCommand.do</text>
<text text-anchor="middle" x="89" y="-7" font-family="Helvetica,sans-Serif" font-size="10.00">Command</text>
</g>
<!-- Node2 -->
<g id="node2" class="node"><title>Node2</title>
<g id="a_node2"><a xlink:href="../../df/dcb/classturtle_1_1_turtle.html#ac6118ca3a77e112f4fd20431e1331f35" target="_top" xlink:title="turtle.Turtle.setDrawing">
<polygon fill="white" stroke="black" points="214.5,-5.5 214.5,-24.5 341.5,-24.5 341.5,-5.5 214.5,-5.5"/>
<text text-anchor="middle" x="278" y="-12.5" font-family="Helvetica,sans-Serif" font-size="10.00">turtle.Turtle.setDrawing</text>
</a>
</g>
</g>
<!-- Node1&#45;&gt;Node2 -->
<g id="edge1" class="edge"><title>Node1&#45;&gt;Node2</title>
<path fill="none" stroke="midnightblue" d="M178.024,-15C186.876,-15 195.793,-15 204.457,-15"/>
<polygon fill="midnightblue" stroke="midnightblue" points="204.492,-18.5001 214.492,-15 204.492,-11.5001 204.492,-18.5001"/>
</g>
<!-- Node3 -->
<g id="node3" class="node"><title>Node3</title>
<g id="a_node3"><a xlink:href="../../de/d57/classturtle_1_1_pen.html#a17f2600d7ad4f194ccc80fb206a42f0f" target="_top" xlink:title="turtle.Pen.changePenState">
<polygon fill="white" stroke="black" points="378,-5.5 378,-24.5 524,-24.5 524,-5.5 378,-5.5"/>
<text text-anchor="middle" x="451" y="-12.5" font-family="Helvetica,sans-Serif" font-size="10.00">turtle.Pen.changePenState</text>
</a>
</g>
</g>
<!-- Node2&#45;&gt;Node3 -->
<g id="edge2" class="edge"><title>Node2&#45;&gt;Node3</title>
<path fill="none" stroke="midnightblue" d="M341.703,-15C350.13,-15 358.875,-15 367.578,-15"/>
<polygon fill="midnightblue" stroke="midnightblue" points="367.754,-18.5001 377.754,-15 367.754,-11.5001 367.754,-18.5001"/>
</g>
</g>
</svg>
