<?xml version="1.0" encoding="UTF-8" standalone="no"?>
<!DOCTYPE svg PUBLIC "-//W3C//DTD SVG 1.1//EN"
 "http://www.w3.org/Graphics/SVG/1.1/DTD/svg11.dtd">
<!-- Generated by graphviz version 2.36.0 (20140111.2315)
 -->
<!-- Title: command.RepeatCommand.updateMap Pages: 1 -->
<svg width="652pt" height="28pt"
 viewBox="0.00 0.00 652.00 28.00" xmlns="http://www.w3.org/2000/svg" xmlns:xlink="http://www.w3.org/1999/xlink">
<g id="graph0" class="graph" transform="scale(1 1) rotate(0) translate(4 24)">
<title>command.RepeatCommand.updateMap</title>
<polygon fill="white" stroke="none" points="-4,4 -4,-24 648,-24 648,4 -4,4"/>
<!-- Node1 -->
<g id="node1" class="node"><title>Node1</title>
<polygon fill="#bfbfbf" stroke="black" points="0.5,-0.5 0.5,-19.5 209.5,-19.5 209.5,-0.5 0.5,-0.5"/>
<text text-anchor="middle" x="105" y="-7.5" font-family="Helvetica,sans-Serif" font-size="10.00">command.RepeatCommand.updateMap</text>
</g>
<!-- Node2 -->
<g id="node2" class="node"><title>Node2</title>
<g id="a_node2"><a xlink:href="../../d3/d0c/classcommand_1_1_loop_command.html#ab2511ce9113e40b25b5204a25754e4c0" target="_top" xlink:title="command.LoopCommand.addInfo">
<polygon fill="white" stroke="black" points="246,-0.5 246,-19.5 426,-19.5 426,-0.5 246,-0.5"/>
<text text-anchor="middle" x="336" y="-7.5" font-family="Helvetica,sans-Serif" font-size="10.00">command.LoopCommand.addInfo</text>
</a>
</g>
</g>
<!-- Node1&#45;&gt;Node2 -->
<g id="edge1" class="edge"><title>Node1&#45;&gt;Node2</title>
<path fill="none" stroke="midnightblue" d="M209.78,-10C218.455,-10 227.214,-10 235.854,-10"/>
<polygon fill="midnightblue" stroke="midnightblue" points="235.93,-13.5001 245.93,-10 235.93,-6.5001 235.93,-13.5001"/>
</g>
<!-- Node3 -->
<g id="node3" class="node"><title>Node3</title>
<g id="a_node3"><a xlink:href="../../d7/d35/classcommand_1_1_command.html#ac9104121cb402d05a6ac117df8b882f8" target="_top" xlink:title="command.Command.readVariable">
<polygon fill="white" stroke="black" points="462,-0.5 462,-19.5 644,-19.5 644,-0.5 462,-0.5"/>
<text text-anchor="middle" x="553" y="-7.5" font-family="Helvetica,sans-Serif" font-size="10.00">command.Command.readVariable</text>
</a>
</g>
</g>
<!-- Node2&#45;&gt;Node3 -->
<g id="edge2" class="edge"><title>Node2&#45;&gt;Node3</title>
<path fill="none" stroke="midnightblue" d="M426.001,-10C434.47,-10 443.097,-10 451.664,-10"/>
<polygon fill="midnightblue" stroke="midnightblue" points="451.679,-13.5001 461.679,-10 451.678,-6.5001 451.679,-13.5001"/>
</g>
</g>
</svg>
