<?xml version="1.0" encoding="UTF-8" standalone="no"?>
<!DOCTYPE svg PUBLIC "-//W3C//DTD SVG 1.1//EN"
 "http://www.w3.org/Graphics/SVG/1.1/DTD/svg11.dtd">
<!-- Generated by graphviz version 2.36.0 (20140111.2315)
 -->
<!-- Title: command.RepeatCommand.RepeatCommand Pages: 1 -->
<svg width="876pt" height="38pt"
 viewBox="0.00 0.00 876.00 38.00" xmlns="http://www.w3.org/2000/svg" xmlns:xlink="http://www.w3.org/1999/xlink">
<g id="graph0" class="graph" transform="scale(1 1) rotate(0) translate(4 34)">
<title>command.RepeatCommand.RepeatCommand</title>
<polygon fill="white" stroke="none" points="-4,4 -4,-34 872,-34 872,4 -4,4"/>
<!-- Node1 -->
<g id="node1" class="node"><title>Node1</title>
<polygon fill="#bfbfbf" stroke="black" points="0,-0 0,-30 188,-30 188,-0 0,-0"/>
<text text-anchor="start" x="8" y="-18" font-family="Helvetica,sans-Serif" font-size="10.00">command.RepeatCommand.Repeat</text>
<text text-anchor="middle" x="94" y="-7" font-family="Helvetica,sans-Serif" font-size="10.00">Command</text>
</g>
<!-- Node2 -->
<g id="node2" class="node"><title>Node2</title>
<g id="a_node2"><a xlink:href="../../d4/d11/classcommand_1_1_repeat_command.html#a6e558bc98a5fc926296fefae3379fde8" target="_top" xlink:title="command.RepeatCommand.updateMap">
<polygon fill="white" stroke="black" points="224.5,-5.5 224.5,-24.5 433.5,-24.5 433.5,-5.5 224.5,-5.5"/>
<text text-anchor="middle" x="329" y="-12.5" font-family="Helvetica,sans-Serif" font-size="10.00">command.RepeatCommand.updateMap</text>
</a>
</g>
</g>
<!-- Node1&#45;&gt;Node2 -->
<g id="edge1" class="edge"><title>Node1&#45;&gt;Node2</title>
<path fill="none" stroke="midnightblue" d="M188.092,-15C196.656,-15 205.396,-15 214.117,-15"/>
<polygon fill="midnightblue" stroke="midnightblue" points="214.333,-18.5001 224.333,-15 214.333,-11.5001 214.333,-18.5001"/>
</g>
<!-- Node3 -->
<g id="node3" class="node"><title>Node3</title>
<g id="a_node3"><a xlink:href="../../d3/d0c/classcommand_1_1_loop_command.html#ab2511ce9113e40b25b5204a25754e4c0" target="_top" xlink:title="command.LoopCommand.addInfo">
<polygon fill="white" stroke="black" points="470,-5.5 470,-24.5 650,-24.5 650,-5.5 470,-5.5"/>
<text text-anchor="middle" x="560" y="-12.5" font-family="Helvetica,sans-Serif" font-size="10.00">command.LoopCommand.addInfo</text>
</a>
</g>
</g>
<!-- Node2&#45;&gt;Node3 -->
<g id="edge2" class="edge"><title>Node2&#45;&gt;Node3</title>
<path fill="none" stroke="midnightblue" d="M433.78,-15C442.455,-15 451.214,-15 459.854,-15"/>
<polygon fill="midnightblue" stroke="midnightblue" points="459.93,-18.5001 469.93,-15 459.93,-11.5001 459.93,-18.5001"/>
</g>
<!-- Node4 -->
<g id="node4" class="node"><title>Node4</title>
<g id="a_node4"><a xlink:href="../../d7/d35/classcommand_1_1_command.html#ac9104121cb402d05a6ac117df8b882f8" target="_top" xlink:title="command.Command.readVariable">
<polygon fill="white" stroke="black" points="686,-5.5 686,-24.5 868,-24.5 868,-5.5 686,-5.5"/>
<text text-anchor="middle" x="777" y="-12.5" font-family="Helvetica,sans-Serif" font-size="10.00">command.Command.readVariable</text>
</a>
</g>
</g>
<!-- Node3&#45;&gt;Node4 -->
<g id="edge3" class="edge"><title>Node3&#45;&gt;Node4</title>
<path fill="none" stroke="midnightblue" d="M650.001,-15C658.47,-15 667.097,-15 675.664,-15"/>
<polygon fill="midnightblue" stroke="midnightblue" points="675.679,-18.5001 685.679,-15 675.678,-11.5001 675.679,-18.5001"/>
</g>
</g>
</svg>
