<?xml version="1.0" encoding="UTF-8" standalone="no"?>
<!DOCTYPE svg PUBLIC "-//W3C//DTD SVG 1.1//EN"
 "http://www.w3.org/Graphics/SVG/1.1/DTD/svg11.dtd">
<!-- Generated by graphviz version 2.36.0 (20140111.2315)
 -->
<!-- Title: userInterface.UserInterface Pages: 1 -->
<!--zoomable 826 -->
<svg id="main" version="1.1" xmlns="http://www.w3.org/2000/svg" xmlns:xlink="http://www.w3.org/1999/xlink" xml:space="preserve" onload="init(evt)">
<style type="text/css"><![CDATA[
.edge:hover path { stroke: red; }
.edge:hover polygon { stroke: red; fill: red; }
]]></style>
<script type="text/javascript"><![CDATA[
var edges = document.getElementsByTagName('g');
if (edges && edges.length) {
  for (var i=0;i<edges.length;i++) {
    if (edges[i].id.substr(0,4)=='edge') {
      edges[i].setAttribute('class','edge');
    }
  }
}
]]></script>
        <defs>
                <circle id="rim" cx="0" cy="0" r="7"/>
                <circle id="rim2" cx="0" cy="0" r="3.5"/>
                <g id="zoomPlus">
                        <use xlink:href="#rim" fill="#404040">
                                <set attributeName="fill" to="#808080" begin="zoomplus.mouseover" end="zoomplus.mouseout"/>
                        </use>
                        <path d="M-4,0h8M0,-4v8" fill="none" stroke="white" stroke-width="1.5" pointer-events="none"/>
                </g>
                <g id="zoomMin">
                        <use xlink:href="#rim" fill="#404040">
                                <set attributeName="fill" to="#808080" begin="zoomminus.mouseover" end="zoomminus.mouseout"/>
                        </use>
                        <path d="M-4,0h8" fill="none" stroke="white" stroke-width="1.5" pointer-events="none"/>
                </g>
                <g id="dirArrow">
                        <path fill="none" stroke="white" stroke-width="1.5" d="M0,-3.0v7 M-2.5,-0.5L0,-3.0L2.5,-0.5"/>
                </g>
               <g id="resetDef">
                       <use xlink:href="#rim2" fill="#404040">
                               <set attributeName="fill" to="#808080" begin="reset.mouseover" end="reset.mouseout"/>
                       </use>
               </g>
        </defs>

<script type="text/javascript">
var viewWidth = 1210;
var viewHeight = 826;
var sectionId = 'dynsection-0';
</script>
<script xlink:href="../../svgpan.js"/>
<svg id="graph" class="graph">
<g id="viewport">
<title>userInterface.UserInterface</title>
<polygon fill="white" stroke="none" points="-4,4 -4,-821.709 1206,-821.709 1206,4 -4,4"/>
<!-- Node1 -->
<g id="node1" class="node"><title>Node1</title>
<polygon fill="#bfbfbf" stroke="black" points="790.5,-275.209 790.5,-294.209 937.5,-294.209 937.5,-275.209 790.5,-275.209"/>
<text text-anchor="middle" x="864" y="-282.209" font-family="Helvetica,sans-Serif" font-size="10.00">userInterface.UserInterface</text>
</g>
<!-- Node16 -->
<g id="node16" class="node"><title>Node16</title>
<g id="a_node16"><a xlink:href="../../d8/d08/classworld_controller_1_1_world_controller.html" target="_top" xlink:title="worldController.WorldController">
<polygon fill="white" stroke="black" points="1040,-423.209 1040,-442.209 1202,-442.209 1202,-423.209 1040,-423.209"/>
<text text-anchor="middle" x="1121" y="-430.209" font-family="Helvetica,sans-Serif" font-size="10.00">worldController.WorldController</text>
</a>
</g>
</g>
<!-- Node1&#45;&gt;Node16 -->
<g id="edge18" class="edge"><title>Node1&#45;&gt;Node16</title>
<path fill="none" stroke="#9a32cd" stroke-dasharray="5,2" d="M914.784,-273.544C947.224,-268.929 989.419,-268.139 1022,-285.709 1078.69,-316.283 1108.32,-395.615 1117.14,-423.138"/>
<polygon fill="#9a32cd" stroke="#9a32cd" points="913.946,-270.133 904.618,-275.158 915.044,-277.046 913.946,-270.133"/>
<text text-anchor="middle" x="989" y="-288.709" font-family="Helvetica,sans-Serif" font-size="10.00"> UI</text>
</g>
<!-- Node2 -->
<g id="node2" class="node"><title>Node2</title>
<polygon fill="white" stroke="#bfbfbf" points="554,-497.209 554,-516.209 610,-516.209 610,-497.209 554,-497.209"/>
<text text-anchor="middle" x="582" y="-504.209" font-family="Helvetica,sans-Serif" font-size="10.00">Timeline</text>
</g>
<!-- Node2&#45;&gt;Node1 -->
<g id="edge1" class="edge"><title>Node2&#45;&gt;Node1</title>
<path fill="none" stroke="#9a32cd" stroke-dasharray="5,2" d="M620.328,-499.51C669.568,-489.231 752.306,-468.998 772,-445.709 807.675,-403.522 757.985,-367.737 790,-322.709 799.604,-309.202 815.493,-300.133 829.999,-294.254"/>
<polygon fill="#9a32cd" stroke="#9a32cd" points="619.459,-496.115 610.364,-501.549 620.863,-502.973 619.459,-496.115"/>
<text text-anchor="middle" x="716" y="-493.709" font-family="Helvetica,sans-Serif" font-size="10.00"> myAnimation</text>
</g>
<!-- Node2&#45;&gt;Node16 -->
<g id="edge17" class="edge"><title>Node2&#45;&gt;Node16</title>
<path fill="none" stroke="#9a32cd" stroke-dasharray="5,2" d="M620.149,-508.693C658.349,-510.223 719.504,-511.252 772,-505.709 884.862,-493.794 910.959,-477.155 1022,-453.709 1039.54,-450.007 1058.82,-445.884 1075.62,-442.279"/>
<polygon fill="#9a32cd" stroke="#9a32cd" points="620.152,-505.19 610.01,-508.254 619.849,-512.184 620.152,-505.19"/>
<text text-anchor="middle" x="864" y="-506.709" font-family="Helvetica,sans-Serif" font-size="10.00"> myAnimation</text>
</g>
<!-- Node3 -->
<g id="node3" class="node"><title>Node3</title>
<polygon fill="white" stroke="#bfbfbf" points="534,-434.209 534,-453.209 630,-453.209 630,-434.209 534,-434.209"/>
<text text-anchor="middle" x="582" y="-441.209" font-family="Helvetica,sans-Serif" font-size="10.00">GraphicsContext</text>
</g>
<!-- Node3&#45;&gt;Node1 -->
<g id="edge2" class="edge"><title>Node3&#45;&gt;Node1</title>
<path fill="none" stroke="#9a32cd" stroke-dasharray="5,2" d="M640.297,-434.413C688.902,-425.399 753.589,-410.367 772,-391.709 794.261,-369.151 770.244,-347.492 790,-322.709 800.598,-309.414 817.118,-300.268 831.763,-294.287"/>
<polygon fill="#9a32cd" stroke="#9a32cd" points="639.407,-431.017 630.191,-436.244 640.655,-437.905 639.407,-431.017"/>
<text text-anchor="middle" x="716" y="-433.709" font-family="Helvetica,sans-Serif" font-size="10.00"> myGC</text>
</g>
<!-- Node3&#45;&gt;Node16 -->
<g id="edge19" class="edge"><title>Node3&#45;&gt;Node16</title>
<path fill="none" stroke="#9a32cd" stroke-dasharray="5,2" d="M640.496,-445.367C647.073,-445.508 653.682,-445.627 660,-445.709 709.774,-446.356 722.231,-446.639 772,-445.709 863.881,-443.994 969.337,-439.733 1039.86,-436.553"/>
<polygon fill="#9a32cd" stroke="#9a32cd" points="640.311,-441.861 630.233,-445.13 640.15,-448.86 640.311,-441.861"/>
<text text-anchor="middle" x="864" y="-448.709" font-family="Helvetica,sans-Serif" font-size="10.00"> myGC</text>
</g>
<!-- Node4 -->
<g id="node4" class="node"><title>Node4</title>
<polygon fill="white" stroke="#bfbfbf" points="17.5,-638.209 17.5,-657.209 110.5,-657.209 110.5,-638.209 17.5,-638.209"/>
<text text-anchor="middle" x="64" y="-645.209" font-family="Helvetica,sans-Serif" font-size="10.00">ResourceBundle</text>
</g>
<!-- Node4&#45;&gt;Node1 -->
<g id="edge3" class="edge"><title>Node4&#45;&gt;Node1</title>
<path fill="none" stroke="#9a32cd" stroke-dasharray="5,2" d="M80.8475,-630.567C109.375,-600.548 172.35,-538.019 236,-499.709 345.467,-433.824 423.732,-495.113 504,-395.709 535.95,-356.143 483.919,-316.415 522,-282.709 562.176,-247.15 716.397,-262.946 803.034,-275.202"/>
<polygon fill="#9a32cd" stroke="#9a32cd" points="78.042,-628.442 73.7428,-638.125 83.1423,-633.236 78.042,-628.442"/>
<text text-anchor="middle" x="452" y="-460.709" font-family="Helvetica,sans-Serif" font-size="10.00"> myMenuNames</text>
</g>
<!-- Node26 -->
<g id="node26" class="node"><title>Node26</title>
<g id="a_node26"><a xlink:href="../../d6/d95/classparser_1_1_parser.html" target="_top" xlink:title="parser.Parser">
<polygon fill="white" stroke="black" points="542,-697.209 542,-716.209 622,-716.209 622,-697.209 542,-697.209"/>
<text text-anchor="middle" x="582" y="-704.209" font-family="Helvetica,sans-Serif" font-size="10.00">parser.Parser</text>
</a>
</g>
</g>
<!-- Node4&#45;&gt;Node26 -->
<g id="edge31" class="edge"><title>Node4&#45;&gt;Node26</title>
<path fill="none" stroke="#9a32cd" stroke-dasharray="5,2" d="M120.869,-645.64C184.435,-644.131 291.202,-644.167 382,-656.709 443.224,-665.167 512.866,-685.127 551.394,-697.113"/>
<polygon fill="#9a32cd" stroke="#9a32cd" points="120.571,-642.147 110.665,-645.905 120.752,-649.144 120.571,-642.147"/>
<text text-anchor="middle" x="309" y="-659.709" font-family="Helvetica,sans-Serif" font-size="10.00"> myResources</text>
</g>
<!-- Node27 -->
<g id="node27" class="node"><title>Node27</title>
<g id="a_node27"><a xlink:href="../../d5/d9c/classfactories_1_1_command_factory.html" target="_top" xlink:title="factories.CommandFactory">
<polygon fill="white" stroke="black" points="236,-755.209 236,-774.209 382,-774.209 382,-755.209 236,-755.209"/>
<text text-anchor="middle" x="309" y="-762.209" font-family="Helvetica,sans-Serif" font-size="10.00">factories.CommandFactory</text>
</a>
</g>
</g>
<!-- Node4&#45;&gt;Node27 -->
<g id="edge33" class="edge"><title>Node4&#45;&gt;Node27</title>
<path fill="none" stroke="#9a32cd" stroke-dasharray="5,2" d="M102.041,-660.941C134.7,-673.756 182.481,-695.393 218,-723.709 227.878,-731.585 225.374,-738.876 236,-745.709 241.98,-749.556 248.714,-752.626 255.602,-755.077"/>
<polygon fill="#9a32cd" stroke="#9a32cd" points="103.012,-657.565 92.4215,-657.25 100.504,-664.1 103.012,-657.565"/>
<text text-anchor="middle" x="182" y="-748.709" font-family="Helvetica,sans-Serif" font-size="10.00"> syntax</text>
<text text-anchor="middle" x="182" y="-737.709" font-family="Helvetica,sans-Serif" font-size="10.00">paramMap</text>
<text text-anchor="middle" x="182" y="-726.709" font-family="Helvetica,sans-Serif" font-size="10.00">translationMap</text>
</g>
<!-- Node5 -->
<g id="node5" class="node"><title>Node5</title>
<g id="a_node5"><a xlink:href="../../d9/d3d/classuser_interface_1_1_topbar.html" target="_top" xlink:title="userInterface.Topbar">
<polygon fill="white" stroke="black" points="525,-132.209 525,-151.209 639,-151.209 639,-132.209 525,-132.209"/>
<text text-anchor="middle" x="582" y="-139.209" font-family="Helvetica,sans-Serif" font-size="10.00">userInterface.Topbar</text>
</a>
</g>
</g>
<!-- Node5&#45;&gt;Node1 -->
<g id="edge4" class="edge"><title>Node5&#45;&gt;Node1</title>
<path fill="none" stroke="#9a32cd" stroke-dasharray="5,2" d="M642.435,-153.598C681.09,-162.972 731.628,-178.41 772,-201.709 807.188,-222.017 840.271,-257.901 854.99,-275.053"/>
<polygon fill="#9a32cd" stroke="#9a32cd" points="642.908,-150.114 632.372,-151.229 641.304,-156.928 642.908,-150.114"/>
<text text-anchor="middle" x="716" y="-204.709" font-family="Helvetica,sans-Serif" font-size="10.00"> myTopbar</text>
</g>
<!-- Node6 -->
<g id="node6" class="node"><title>Node6</title>
<polygon fill="white" stroke="#bfbfbf" points="249,-135.209 249,-154.209 369,-154.209 369,-135.209 249,-135.209"/>
<text text-anchor="middle" x="309" y="-142.209" font-family="Helvetica,sans-Serif" font-size="10.00">ComboBox&lt; String &gt;</text>
</g>
<!-- Node6&#45;&gt;Node5 -->
<g id="edge5" class="edge"><title>Node6&#45;&gt;Node5</title>
<path fill="none" stroke="#9a32cd" stroke-dasharray="5,2" d="M356.361,-132.998C370.295,-130.001 385.685,-127.204 400,-125.709 445.972,-120.91 458.02,-120.983 504,-125.709 516.767,-127.022 530.54,-129.528 542.859,-132.174"/>
<polygon fill="#9a32cd" stroke="#9a32cd" points="355.504,-129.603 346.508,-135.2 357.031,-136.435 355.504,-129.603"/>
<text text-anchor="middle" x="452" y="-128.709" font-family="Helvetica,sans-Serif" font-size="10.00"> languageChoices</text>
</g>
<!-- Node10 -->
<g id="node10" class="node"><title>Node10</title>
<g id="a_node10"><a xlink:href="../../d1/d68/classuser_interface_1_1_sidebar.html" target="_top" xlink:title="userInterface.Sidebar">
<polygon fill="white" stroke="black" points="522.5,-216.209 522.5,-235.209 641.5,-235.209 641.5,-216.209 522.5,-216.209"/>
<text text-anchor="middle" x="582" y="-223.209" font-family="Helvetica,sans-Serif" font-size="10.00">userInterface.Sidebar</text>
</a>
</g>
</g>
<!-- Node6&#45;&gt;Node10 -->
<g id="edge12" class="edge"><title>Node6&#45;&gt;Node10</title>
<path fill="none" stroke="#9a32cd" stroke-dasharray="5,2" d="M379.502,-147.039C417.382,-150.192 464.462,-157.234 504,-172.709 530.295,-183.002 556.418,-203.788 570.454,-216.048"/>
<polygon fill="#9a32cd" stroke="#9a32cd" points="379.312,-143.515 369.077,-146.249 378.783,-150.495 379.312,-143.515"/>
<text text-anchor="middle" x="452" y="-208.709" font-family="Helvetica,sans-Serif" font-size="10.00"> previous</text>
<text text-anchor="middle" x="452" y="-197.709" font-family="Helvetica,sans-Serif" font-size="10.00">edits</text>
<text text-anchor="middle" x="452" y="-186.709" font-family="Helvetica,sans-Serif" font-size="10.00">turtles</text>
<text text-anchor="middle" x="452" y="-175.709" font-family="Helvetica,sans-Serif" font-size="10.00">saved</text>
</g>
<!-- Node7 -->
<g id="node7" class="node"><title>Node7</title>
<polygon fill="white" stroke="#bfbfbf" points="278.5,-7.20943 278.5,-26.2094 339.5,-26.2094 339.5,-7.20943 278.5,-7.20943"/>
<text text-anchor="middle" x="309" y="-14.2094" font-family="Helvetica,sans-Serif" font-size="10.00">Hyperlink</text>
</g>
<!-- Node7&#45;&gt;Node5 -->
<g id="edge6" class="edge"><title>Node7&#45;&gt;Node5</title>
<path fill="none" stroke="#9a32cd" stroke-dasharray="5,2" d="M349.722,-6.60523C393.13,1.85163 462.065,7.31274 504,-29.7094 535.561,-57.5729 494.075,-91.2034 522,-122.709 525.426,-126.575 529.642,-129.659 534.23,-132.118"/>
<polygon fill="#9a32cd" stroke="#9a32cd" points="348.875,-3.20653 339.801,-8.67657 350.306,-10.0588 348.875,-3.20653"/>
<text text-anchor="middle" x="452" y="-32.7094" font-family="Helvetica,sans-Serif" font-size="10.00"> myLink</text>
</g>
<!-- Node8 -->
<g id="node8" class="node"><title>Node8</title>
<polygon fill="white" stroke="#bfbfbf" points="274,-83.2094 274,-102.209 344,-102.209 344,-83.2094 274,-83.2094"/>
<text text-anchor="middle" x="309" y="-90.2094" font-family="Helvetica,sans-Serif" font-size="10.00">ColorPicker</text>
</g>
<!-- Node8&#45;&gt;Node5 -->
<g id="edge7" class="edge"><title>Node8&#45;&gt;Node5</title>
<path fill="none" stroke="#9a32cd" stroke-dasharray="5,2" d="M354.106,-88.6676C394.599,-86.6574 455.489,-87.9978 504,-107.709 513.648,-111.63 512.877,-117.688 522,-122.709 528.788,-126.445 536.424,-129.583 543.896,-132.163"/>
<polygon fill="#9a32cd" stroke="#9a32cd" points="353.795,-85.1798 344.017,-89.2588 354.205,-92.1678 353.795,-85.1798"/>
<text text-anchor="middle" x="452" y="-110.709" font-family="Helvetica,sans-Serif" font-size="10.00"> myColorChoices</text>
</g>
<!-- Node9 -->
<g id="node9" class="node"><title>Node9</title>
<polygon fill="white" stroke="#bfbfbf" points="288,-45.2094 288,-64.2094 330,-64.2094 330,-45.2094 288,-45.2094"/>
<text text-anchor="middle" x="309" y="-52.2094" font-family="Helvetica,sans-Serif" font-size="10.00">HBox</text>
</g>
<!-- Node9&#45;&gt;Node5 -->
<g id="edge8" class="edge"><title>Node9&#45;&gt;Node5</title>
<path fill="none" stroke="#9a32cd" stroke-dasharray="5,2" d="M340.101,-48.6136C381.554,-42.0438 456.467,-36.9568 504,-73.7094 522.354,-87.9009 505.266,-106.64 522,-122.709 526.036,-126.585 530.867,-129.671 536.003,-132.126"/>
<polygon fill="#9a32cd" stroke="#9a32cd" points="339.339,-45.1931 330.077,-50.3364 340.525,-52.092 339.339,-45.1931"/>
<text text-anchor="middle" x="452" y="-76.7094" font-family="Helvetica,sans-Serif" font-size="10.00"> myHBox</text>
</g>
<!-- Node10&#45;&gt;Node1 -->
<g id="edge9" class="edge"><title>Node10&#45;&gt;Node1</title>
<path fill="none" stroke="#9a32cd" stroke-dasharray="5,2" d="M651.736,-217.004C688.184,-214.634 733.302,-215.314 772,-226.709 804.529,-236.288 836.55,-261.316 852.521,-275.158"/>
<polygon fill="#9a32cd" stroke="#9a32cd" points="651.413,-213.518 641.699,-217.747 651.93,-220.499 651.413,-213.518"/>
<text text-anchor="middle" x="716" y="-229.709" font-family="Helvetica,sans-Serif" font-size="10.00"> mySidebar</text>
</g>
<!-- Node11 -->
<g id="node11" class="node"><title>Node11</title>
<polygon fill="white" stroke="#bfbfbf" points="288.5,-245.209 288.5,-264.209 329.5,-264.209 329.5,-245.209 288.5,-245.209"/>
<text text-anchor="middle" x="309" y="-252.209" font-family="Helvetica,sans-Serif" font-size="10.00">VBox</text>
</g>
<!-- Node11&#45;&gt;Node10 -->
<g id="edge10" class="edge"><title>Node11&#45;&gt;Node10</title>
<path fill="none" stroke="#9a32cd" stroke-dasharray="5,2" d="M339.993,-252.709C378.168,-250.019 446.113,-244.748 504,-237.709 510.044,-236.975 516.342,-236.127 522.618,-235.23"/>
<polygon fill="#9a32cd" stroke="#9a32cd" points="339.33,-249.247 329.596,-253.43 339.814,-256.23 339.33,-249.247"/>
<text text-anchor="middle" x="452" y="-251.709" font-family="Helvetica,sans-Serif" font-size="10.00"> mySidebar</text>
</g>
<!-- Node12 -->
<g id="node12" class="node"><title>Node12</title>
<polygon fill="white" stroke="#bfbfbf" points="276,-207.209 276,-226.209 342,-226.209 342,-207.209 276,-207.209"/>
<text text-anchor="middle" x="309" y="-214.209" font-family="Helvetica,sans-Serif" font-size="10.00">ScrollPane</text>
</g>
<!-- Node12&#45;&gt;Node10 -->
<g id="edge11" class="edge"><title>Node12&#45;&gt;Node10</title>
<path fill="none" stroke="#9a32cd" stroke-dasharray="5,2" d="M352.302,-218.114C397.973,-219.631 471.045,-222.058 522.27,-223.759"/>
<polygon fill="#9a32cd" stroke="#9a32cd" points="352.262,-214.611 342.151,-217.777 352.03,-221.607 352.262,-214.611"/>
<text text-anchor="middle" x="452" y="-226.709" font-family="Helvetica,sans-Serif" font-size="10.00"> myResultBox</text>
</g>
<!-- Node13 -->
<g id="node13" class="node"><title>Node13</title>
<polygon fill="white" stroke="#bfbfbf" points="291.5,-333.209 291.5,-352.209 326.5,-352.209 326.5,-333.209 291.5,-333.209"/>
<text text-anchor="middle" x="309" y="-340.209" font-family="Helvetica,sans-Serif" font-size="10.00">Text</text>
</g>
<!-- Node13&#45;&gt;Node10 -->
<g id="edge13" class="edge"><title>Node13&#45;&gt;Node10</title>
<path fill="none" stroke="#9a32cd" stroke-dasharray="5,2" d="M336.783,-345.722C377.97,-348.793 457.01,-348.273 504,-306.709 523.899,-289.108 503.985,-269.235 522,-249.709 527.774,-243.451 535.412,-238.787 543.271,-235.323"/>
<polygon fill="#9a32cd" stroke="#9a32cd" points="336.965,-342.224 326.698,-344.839 336.355,-349.198 336.965,-342.224"/>
<text text-anchor="middle" x="452" y="-348.709" font-family="Helvetica,sans-Serif" font-size="10.00"> myResults</text>
</g>
<!-- Node14 -->
<g id="node14" class="node"><title>Node14</title>
<polygon fill="white" stroke="#bfbfbf" points="248,-283.709 248,-313.709 370,-313.709 370,-283.709 248,-283.709"/>
<text text-anchor="start" x="256" y="-301.709" font-family="Helvetica,sans-Serif" font-size="10.00">ArrayList&lt; ComboBox</text>
<text text-anchor="middle" x="309" y="-290.709" font-family="Helvetica,sans-Serif" font-size="10.00">&lt; String &gt; &gt;</text>
</g>
<!-- Node14&#45;&gt;Node10 -->
<g id="edge14" class="edge"><title>Node14&#45;&gt;Node10</title>
<path fill="none" stroke="#9a32cd" stroke-dasharray="5,2" d="M380.283,-294.226C418.229,-289.811 465.126,-281.059 504,-263.709 513.255,-259.579 513.223,-254.778 522,-249.709 531.672,-244.124 542.896,-239.21 552.941,-235.307"/>
<polygon fill="#9a32cd" stroke="#9a32cd" points="379.899,-290.747 370.336,-295.308 380.656,-297.705 379.899,-290.747"/>
<text text-anchor="middle" x="452" y="-294.709" font-family="Helvetica,sans-Serif" font-size="10.00"> boxes</text>
</g>
<!-- Node15 -->
<g id="node15" class="node"><title>Node15</title>
<polygon fill="white" stroke="#bfbfbf" points="557.5,-94.2094 557.5,-113.209 606.5,-113.209 606.5,-94.2094 557.5,-94.2094"/>
<text text-anchor="middle" x="582" y="-101.209" font-family="Helvetica,sans-Serif" font-size="10.00">Button</text>
</g>
<!-- Node15&#45;&gt;Node1 -->
<g id="edge15" class="edge"><title>Node15&#45;&gt;Node1</title>
<path fill="none" stroke="#9a32cd" stroke-dasharray="5,2" d="M616.877,-103.51C657.231,-104.864 725.069,-112.325 772,-144.709 821.389,-178.791 850.405,-249.292 859.703,-275.031"/>
<polygon fill="#9a32cd" stroke="#9a32cd" points="616.829,-100.008 606.752,-103.28 616.67,-107.007 616.829,-100.008"/>
<text text-anchor="middle" x="716" y="-147.709" font-family="Helvetica,sans-Serif" font-size="10.00"> commandSaverButton</text>
</g>
<!-- Node16&#45;&gt;Node1 -->
<g id="edge16" class="edge"><title>Node16&#45;&gt;Node1</title>
<path fill="none" stroke="#9a32cd" stroke-dasharray="5,2" d="M1109.37,-414.325C1093.65,-388.888 1061.75,-343.42 1022,-319.709 1005.75,-310.017 962.719,-300.779 925.808,-294.231"/>
<polygon fill="#9a32cd" stroke="#9a32cd" points="1106.43,-416.235 1114.58,-423.006 1112.43,-412.631 1106.43,-416.235"/>
<text text-anchor="middle" x="989" y="-322.709" font-family="Helvetica,sans-Serif" font-size="10.00"> myController</text>
</g>
<!-- Node17 -->
<g id="node17" class="node"><title>Node17</title>
<g id="a_node17"><a xlink:href="../../df/dcb/classturtle_1_1_turtle.html" target="_top" xlink:title="turtle.Turtle">
<polygon fill="white" stroke="black" points="546.5,-547.209 546.5,-566.209 617.5,-566.209 617.5,-547.209 546.5,-547.209"/>
<text text-anchor="middle" x="582" y="-554.209" font-family="Helvetica,sans-Serif" font-size="10.00">turtle.Turtle</text>
</a>
</g>
</g>
<!-- Node17&#45;&gt;Node16 -->
<g id="edge20" class="edge"><title>Node17&#45;&gt;Node16</title>
<path fill="none" stroke="#9a32cd" stroke-dasharray="5,2" d="M628.137,-556.664C696.464,-555.533 829.674,-549.16 938,-518.709 1002.93,-500.457 1073.4,-460.846 1104.16,-442.455"/>
<polygon fill="#9a32cd" stroke="#9a32cd" points="627.693,-553.169 617.741,-556.803 627.787,-560.169 627.693,-553.169"/>
<text text-anchor="middle" x="864" y="-549.709" font-family="Helvetica,sans-Serif" font-size="10.00"> myTurtle</text>
</g>
<!-- Node25 -->
<g id="node25" class="node"><title>Node25</title>
<g id="a_node25"><a xlink:href="../../d9/dd0/classworld_1_1_world.html" target="_top" xlink:title="world.World">
<polygon fill="white" stroke="black" points="829,-625.209 829,-644.209 899,-644.209 899,-625.209 829,-625.209"/>
<text text-anchor="middle" x="864" y="-632.209" font-family="Helvetica,sans-Serif" font-size="10.00">world.World</text>
</a>
</g>
</g>
<!-- Node17&#45;&gt;Node25 -->
<g id="edge29" class="edge"><title>Node17&#45;&gt;Node25</title>
<path fill="none" stroke="#9a32cd" stroke-dasharray="5,2" d="M627.43,-567.93C665.818,-577.752 722.722,-592.616 772,-606.709 792.501,-612.573 815.448,-619.637 833.17,-625.203"/>
<polygon fill="#9a32cd" stroke="#9a32cd" points="628.156,-564.503 617.601,-565.422 626.425,-571.286 628.156,-564.503"/>
<text text-anchor="middle" x="716" y="-620.709" font-family="Helvetica,sans-Serif" font-size="10.00"> myTurtle</text>
<text text-anchor="middle" x="716" y="-609.709" font-family="Helvetica,sans-Serif" font-size="10.00">activeTurtle</text>
</g>
<!-- Node18 -->
<g id="node18" class="node"><title>Node18</title>
<polygon fill="white" stroke="#bfbfbf" points="275,-547.209 275,-566.209 343,-566.209 343,-547.209 275,-547.209"/>
<text text-anchor="middle" x="309" y="-554.209" font-family="Helvetica,sans-Serif" font-size="10.00">ImageView</text>
</g>
<!-- Node18&#45;&gt;Node17 -->
<g id="edge21" class="edge"><title>Node18&#45;&gt;Node17</title>
<path fill="none" stroke="midnightblue" d="M353.434,-556.709C406.996,-556.709 496.973,-556.709 546.213,-556.709"/>
<polygon fill="midnightblue" stroke="midnightblue" points="353.23,-553.21 343.23,-556.709 353.23,-560.21 353.23,-553.21"/>
</g>
<!-- Node19 -->
<g id="node19" class="node"><title>Node19</title>
<g id="a_node19"><a xlink:href="../../de/d57/classturtle_1_1_pen.html" target="_top" xlink:title="turtle.Pen">
<polygon fill="white" stroke="black" points="277.5,-371.209 277.5,-390.209 340.5,-390.209 340.5,-371.209 277.5,-371.209"/>
<text text-anchor="middle" x="309" y="-378.209" font-family="Helvetica,sans-Serif" font-size="10.00">turtle.Pen</text>
</a>
</g>
</g>
<!-- Node19&#45;&gt;Node17 -->
<g id="edge22" class="edge"><title>Node19&#45;&gt;Node17</title>
<path fill="none" stroke="#9a32cd" stroke-dasharray="5,2" d="M350.963,-375.572C401.182,-370.261 482.306,-365.208 504,-384.709 550.983,-426.943 485.965,-473.819 522,-525.709 528.732,-535.403 539.466,-542.294 549.944,-547.076"/>
<polygon fill="#9a32cd" stroke="#9a32cd" points="350.304,-372.123 340.748,-376.7 351.072,-379.081 350.304,-372.123"/>
<text text-anchor="middle" x="452" y="-387.709" font-family="Helvetica,sans-Serif" font-size="10.00"> myPen</text>
</g>
<!-- Node20 -->
<g id="node20" class="node"><title>Node20</title>
<polygon fill="white" stroke="#bfbfbf" points="44,-371.209 44,-390.209 84,-390.209 84,-371.209 44,-371.209"/>
<text text-anchor="middle" x="64" y="-378.209" font-family="Helvetica,sans-Serif" font-size="10.00">Paint</text>
</g>
<!-- Node20&#45;&gt;Node19 -->
<g id="edge23" class="edge"><title>Node20&#45;&gt;Node19</title>
<path fill="none" stroke="#9a32cd" stroke-dasharray="5,2" d="M94.3349,-380.709C140.687,-380.709 230.421,-380.709 277.493,-380.709"/>
<polygon fill="#9a32cd" stroke="#9a32cd" points="94.0678,-377.21 84.0678,-380.709 94.0678,-384.21 94.0678,-377.21"/>
<text text-anchor="middle" x="182" y="-383.709" font-family="Helvetica,sans-Serif" font-size="10.00"> myPenColor</text>
</g>
<!-- Node21 -->
<g id="node21" class="node"><title>Node21</title>
<polygon fill="white" stroke="#bfbfbf" points="282,-509.209 282,-528.209 336,-528.209 336,-509.209 282,-509.209"/>
<text text-anchor="middle" x="309" y="-516.209" font-family="Helvetica,sans-Serif" font-size="10.00">Point2D</text>
</g>
<!-- Node21&#45;&gt;Node17 -->
<g id="edge24" class="edge"><title>Node21&#45;&gt;Node17</title>
<path fill="none" stroke="#9a32cd" stroke-dasharray="5,2" d="M346.14,-518.117C385.375,-518.128 449.704,-520.058 504,-530.709 522.553,-534.349 542.781,-541.302 557.846,-547.103"/>
<polygon fill="#9a32cd" stroke="#9a32cd" points="345.994,-514.618 336.008,-518.157 346.022,-521.618 345.994,-514.618"/>
<text text-anchor="middle" x="452" y="-544.709" font-family="Helvetica,sans-Serif" font-size="10.00"> next</text>
<text text-anchor="middle" x="452" y="-533.709" font-family="Helvetica,sans-Serif" font-size="10.00">current</text>
</g>
<!-- Node22 -->
<g id="node22" class="node"><title>Node22</title>
<polygon fill="white" stroke="#bfbfbf" points="285.5,-585.209 285.5,-604.209 332.5,-604.209 332.5,-585.209 285.5,-585.209"/>
<text text-anchor="middle" x="309" y="-592.209" font-family="Helvetica,sans-Serif" font-size="10.00">Image</text>
</g>
<!-- Node22&#45;&gt;Node17 -->
<g id="edge25" class="edge"><title>Node22&#45;&gt;Node17</title>
<path fill="none" stroke="#9a32cd" stroke-dasharray="5,2" d="M342.902,-591.215C381.555,-586.977 447.575,-579.322 504,-570.709 517.835,-568.598 533.001,-565.919 546.189,-563.471"/>
<polygon fill="#9a32cd" stroke="#9a32cd" points="342.32,-587.758 332.756,-592.318 343.076,-594.717 342.32,-587.758"/>
<text text-anchor="middle" x="452" y="-587.709" font-family="Helvetica,sans-Serif" font-size="10.00"> DEFAULT_IMAGE</text>
</g>
<!-- Node23 -->
<g id="node23" class="node"><title>Node23</title>
<polygon fill="white" stroke="#bfbfbf" points="548.5,-387.209 548.5,-406.209 615.5,-406.209 615.5,-387.209 548.5,-387.209"/>
<text text-anchor="middle" x="582" y="-394.209" font-family="Helvetica,sans-Serif" font-size="10.00">StackPane</text>
</g>
<!-- Node23&#45;&gt;Node1 -->
<g id="edge42" class="edge"><title>Node23&#45;&gt;Node1</title>
<path fill="none" stroke="#9a32cd" stroke-dasharray="5,2" d="M625.559,-386.302C664.724,-375.905 723.859,-358.112 772,-334.709 780.647,-330.506 781.724,-327.603 790,-322.709 807.587,-312.311 828.304,-301.672 843.167,-294.307"/>
<polygon fill="#9a32cd" stroke="#9a32cd" points="624.597,-382.935 615.805,-388.848 626.365,-389.709 624.597,-382.935"/>
<text text-anchor="middle" x="716" y="-379.709" font-family="Helvetica,sans-Serif" font-size="10.00"> canvasPane</text>
</g>
<!-- Node23&#45;&gt;Node16 -->
<g id="edge26" class="edge"><title>Node23&#45;&gt;Node16</title>
<path fill="none" stroke="#9a32cd" stroke-dasharray="5,2" d="M625.866,-399.583C715.577,-405.597 924.329,-419.592 1039.73,-427.328"/>
<polygon fill="#9a32cd" stroke="#9a32cd" points="625.995,-396.084 615.783,-398.907 625.527,-403.068 625.995,-396.084"/>
<text text-anchor="middle" x="864" y="-423.709" font-family="Helvetica,sans-Serif" font-size="10.00"> myPane</text>
</g>
<!-- Node24 -->
<g id="node24" class="node"><title>Node24</title>
<polygon fill="white" stroke="#bfbfbf" points="556,-332.209 556,-351.209 608,-351.209 608,-332.209 556,-332.209"/>
<text text-anchor="middle" x="582" y="-339.209" font-family="Helvetica,sans-Serif" font-size="10.00">Canvas</text>
</g>
<!-- Node24&#45;&gt;Node1 -->
<g id="edge43" class="edge"><title>Node24&#45;&gt;Node1</title>
<path fill="none" stroke="#9a32cd" stroke-dasharray="5,2" d="M617.754,-330.921C630.908,-327.065 646.067,-322.891 660,-319.709 705.325,-309.359 756.965,-300.495 796.819,-294.277"/>
<polygon fill="#9a32cd" stroke="#9a32cd" points="616.723,-327.576 608.139,-333.786 618.723,-334.285 616.723,-327.576"/>
<text text-anchor="middle" x="716" y="-322.709" font-family="Helvetica,sans-Serif" font-size="10.00"> myCanvas</text>
</g>
<!-- Node24&#45;&gt;Node16 -->
<g id="edge27" class="edge"><title>Node24&#45;&gt;Node16</title>
<path fill="none" stroke="#9a32cd" stroke-dasharray="5,2" d="M618.251,-343.614C656.326,-345.966 718.699,-350.675 772,-358.709 886.062,-375.903 1018.9,-407.391 1082.42,-423.169"/>
<polygon fill="#9a32cd" stroke="#9a32cd" points="618.375,-340.115 608.184,-343.012 617.957,-347.103 618.375,-340.115"/>
<text text-anchor="middle" x="864" y="-392.709" font-family="Helvetica,sans-Serif" font-size="10.00"> myCanvas</text>
</g>
<!-- Node25&#45;&gt;Node16 -->
<g id="edge28" class="edge"><title>Node25&#45;&gt;Node16</title>
<path fill="none" stroke="#9a32cd" stroke-dasharray="5,2" d="M909.088,-623.999C942.626,-614.231 988.551,-597.219 1022,-570.709 1069.21,-533.293 1103.65,-467.309 1115.5,-442.503"/>
<polygon fill="#9a32cd" stroke="#9a32cd" points="907.787,-620.729 899.105,-626.8 909.679,-627.468 907.787,-620.729"/>
<text text-anchor="middle" x="989" y="-610.709" font-family="Helvetica,sans-Serif" font-size="10.00"> myWorld</text>
</g>
<!-- Node26&#45;&gt;Node25 -->
<g id="edge30" class="edge"><title>Node26&#45;&gt;Node25</title>
<path fill="none" stroke="#9a32cd" stroke-dasharray="5,2" d="M631.95,-701.778C670.558,-697.09 725.467,-688.642 772,-674.709 798.121,-666.888 826.663,-653.484 844.687,-644.368"/>
<polygon fill="#9a32cd" stroke="#9a32cd" points="631.531,-698.303 622.008,-702.946 632.348,-705.255 631.531,-698.303"/>
<text text-anchor="middle" x="716" y="-701.709" font-family="Helvetica,sans-Serif" font-size="10.00"> myParser</text>
</g>
<!-- Node27&#45;&gt;Node26 -->
<g id="edge32" class="edge"><title>Node27&#45;&gt;Node26</title>
<path fill="none" stroke="#9a32cd" stroke-dasharray="5,2" d="M376.585,-753.332C414.149,-746.583 461.862,-737.458 504,-727.709 518.58,-724.336 534.562,-720.072 548.169,-716.268"/>
<polygon fill="#9a32cd" stroke="#9a32cd" points="375.503,-749.97 366.273,-755.171 376.732,-756.861 375.503,-749.97"/>
<text text-anchor="middle" x="452" y="-751.709" font-family="Helvetica,sans-Serif" font-size="10.00"> myCommandFactory</text>
</g>
<!-- Node28 -->
<g id="node28" class="node"><title>Node28</title>
<polygon fill="white" stroke="#bfbfbf" points="19.5,-786.209 19.5,-805.209 108.5,-805.209 108.5,-786.209 19.5,-786.209"/>
<text text-anchor="middle" x="64" y="-793.209" font-family="Helvetica,sans-Serif" font-size="10.00">List&lt; Double &gt;</text>
</g>
<!-- Node28&#45;&gt;Node27 -->
<g id="edge34" class="edge"><title>Node28&#45;&gt;Node27</title>
<path fill="none" stroke="#9a32cd" stroke-dasharray="5,2" d="M119.017,-788.818C153.334,-784.44 198.171,-778.721 235.559,-773.951"/>
<polygon fill="#9a32cd" stroke="#9a32cd" points="118.201,-785.394 108.724,-790.131 119.087,-792.338 118.201,-785.394"/>
<text text-anchor="middle" x="182" y="-809.709" font-family="Helvetica,sans-Serif" font-size="10.00"> trueParams</text>
<text text-anchor="middle" x="182" y="-798.709" font-family="Helvetica,sans-Serif" font-size="10.00">homeParams</text>
<text text-anchor="middle" x="182" y="-787.709" font-family="Helvetica,sans-Serif" font-size="10.00">falseParams</text>
</g>
<!-- Node29 -->
<g id="node29" class="node"><title>Node29</title>
<polygon fill="white" stroke="#bfbfbf" points="0,-748.209 0,-767.209 128,-767.209 128,-748.209 0,-748.209"/>
<text text-anchor="middle" x="64" y="-755.209" font-family="Helvetica,sans-Serif" font-size="10.00">Map&lt; String, Double &gt;</text>
</g>
<!-- Node29&#45;&gt;Node27 -->
<g id="edge35" class="edge"><title>Node29&#45;&gt;Node27</title>
<path fill="none" stroke="#9a32cd" stroke-dasharray="5,2" d="M138.454,-759.825C169.255,-760.713 204.967,-761.741 235.65,-762.625"/>
<polygon fill="#9a32cd" stroke="#9a32cd" points="138.308,-756.32 128.211,-759.53 138.106,-763.317 138.308,-756.32"/>
<text text-anchor="middle" x="182" y="-765.709" font-family="Helvetica,sans-Serif" font-size="10.00"> variables</text>
</g>
<!-- Node30 -->
<g id="node30" class="node"><title>Node30</title>
<g id="a_node30"><a xlink:href="../../d3/dcc/classparser_1_1_node.html" target="_top" xlink:title="parser.Node">
<polygon fill="white" stroke="black" points="271.5,-677.209 271.5,-696.209 346.5,-696.209 346.5,-677.209 271.5,-677.209"/>
<text text-anchor="middle" x="309" y="-684.209" font-family="Helvetica,sans-Serif" font-size="10.00">parser.Node</text>
</a>
</g>
</g>
<!-- Node30&#45;&gt;Node26 -->
<g id="edge36" class="edge"><title>Node30&#45;&gt;Node26</title>
<path fill="none" stroke="#9a32cd" stroke-dasharray="5,2" d="M356.573,-690.147C408.908,-694.009 492.938,-700.21 541.967,-703.829"/>
<polygon fill="#9a32cd" stroke="#9a32cd" points="356.779,-686.652 346.548,-689.407 356.264,-693.633 356.779,-686.652"/>
<text text-anchor="middle" x="452" y="-715.709" font-family="Helvetica,sans-Serif" font-size="10.00"> myTree</text>
<text text-anchor="middle" x="452" y="-704.709" font-family="Helvetica,sans-Serif" font-size="10.00">myListTree</text>
</g>
<!-- Node30&#45;&gt;Node30 -->
<g id="edge37" class="edge"><title>Node30&#45;&gt;Node30</title>
<path fill="none" stroke="#9a32cd" stroke-dasharray="5,2" d="M285.563,-705.739C286.841,-710.837 294.654,-714.709 309,-714.709 331.395,-714.709 337.868,-705.275 328.42,-696.466"/>
<polygon fill="#9a32cd" stroke="#9a32cd" points="288.816,-707.034 289.58,-696.466 282.393,-704.251 288.816,-707.034"/>
<text text-anchor="middle" x="309" y="-728.709" font-family="Helvetica,sans-Serif" font-size="10.00"> myChild1</text>
<text text-anchor="middle" x="309" y="-717.709" font-family="Helvetica,sans-Serif" font-size="10.00">myChild2</text>
</g>
<!-- Node31 -->
<g id="node31" class="node"><title>Node31</title>
<polygon fill="white" stroke="#bfbfbf" points="527,-659.209 527,-678.209 637,-678.209 637,-659.209 527,-659.209"/>
<text text-anchor="middle" x="582" y="-666.209" font-family="Helvetica,sans-Serif" font-size="10.00">List&lt; turtle.Turtle &gt;</text>
</g>
<!-- Node31&#45;&gt;Node25 -->
<g id="edge38" class="edge"><title>Node31&#45;&gt;Node25</title>
<path fill="none" stroke="#9a32cd" stroke-dasharray="5,2" d="M647.241,-661.477C683.823,-657.298 730.498,-651.861 772,-646.709 790.819,-644.374 811.805,-641.616 828.878,-639.334"/>
<polygon fill="#9a32cd" stroke="#9a32cd" points="646.742,-658.012 637.203,-662.622 647.535,-664.966 646.742,-658.012"/>
<text text-anchor="middle" x="716" y="-662.709" font-family="Helvetica,sans-Serif" font-size="10.00"> myTurtles</text>
</g>
<!-- Node32 -->
<g id="node32" class="node"><title>Node32</title>
<polygon fill="white" stroke="#bfbfbf" points="561.5,-621.209 561.5,-640.209 602.5,-640.209 602.5,-621.209 561.5,-621.209"/>
<text text-anchor="middle" x="582" y="-628.209" font-family="Helvetica,sans-Serif" font-size="10.00">Color</text>
</g>
<!-- Node32&#45;&gt;Node25 -->
<g id="edge39" class="edge"><title>Node32&#45;&gt;Node25</title>
<path fill="none" stroke="#9a32cd" stroke-dasharray="5,2" d="M613.012,-631.138C665.532,-631.888 773.764,-633.435 828.98,-634.223"/>
<polygon fill="#9a32cd" stroke="#9a32cd" points="612.738,-627.634 602.689,-630.991 612.638,-634.633 612.738,-627.634"/>
<text text-anchor="middle" x="716" y="-636.709" font-family="Helvetica,sans-Serif" font-size="10.00"> TURTLE_DEFAULT</text>
</g>
<!-- Node33 -->
<g id="node33" class="node"><title>Node33</title>
<polygon fill="white" stroke="#bfbfbf" points="558.5,-56.2094 558.5,-75.2094 605.5,-75.2094 605.5,-56.2094 558.5,-56.2094"/>
<text text-anchor="middle" x="582" y="-63.2094" font-family="Helvetica,sans-Serif" font-size="10.00">Scene</text>
</g>
<!-- Node33&#45;&gt;Node1 -->
<g id="edge40" class="edge"><title>Node33&#45;&gt;Node1</title>
<path fill="none" stroke="#9a32cd" stroke-dasharray="5,2" d="M615.784,-61.6058C656.467,-58.3264 726.072,-58.8665 772,-92.7094 835.847,-139.757 856.637,-243.204 861.658,-275.133"/>
<polygon fill="#9a32cd" stroke="#9a32cd" points="615.239,-58.1414 605.608,-62.5555 615.89,-65.1111 615.239,-58.1414"/>
<text text-anchor="middle" x="716" y="-95.7094" font-family="Helvetica,sans-Serif" font-size="10.00"> myScene</text>
</g>
<!-- Node34 -->
<g id="node34" class="node"><title>Node34</title>
<polygon fill="white" stroke="#bfbfbf" points="553,-18.2094 553,-37.2094 611,-37.2094 611,-18.2094 553,-18.2094"/>
<text text-anchor="middle" x="582" y="-25.2094" font-family="Helvetica,sans-Serif" font-size="10.00">TextArea</text>
</g>
<!-- Node34&#45;&gt;Node1 -->
<g id="edge41" class="edge"><title>Node34&#45;&gt;Node1</title>
<path fill="none" stroke="#9a32cd" stroke-dasharray="5,2" d="M621.255,-20.4248C662.715,-14.803 728.732,-12.7508 772,-45.7094 849.526,-104.764 861.008,-238.255 862.706,-275.121"/>
<polygon fill="#9a32cd" stroke="#9a32cd" points="620.647,-16.9766 611.272,-21.9119 621.678,-23.9002 620.647,-16.9766"/>
<text text-anchor="middle" x="716" y="-48.7094" font-family="Helvetica,sans-Serif" font-size="10.00"> myCommandWindow</text>
</g>
<!-- Node35 -->
<g id="node35" class="node"><title>Node35</title>
<polygon fill="white" stroke="#bfbfbf" points="546,-292.209 546,-311.209 618,-311.209 618,-292.209 546,-292.209"/>
<text text-anchor="middle" x="582" y="-299.209" font-family="Helvetica,sans-Serif" font-size="10.00">BorderPane</text>
</g>
<!-- Node35&#45;&gt;Node1 -->
<g id="edge44" class="edge"><title>Node35&#45;&gt;Node1</title>
<path fill="none" stroke="#9a32cd" stroke-dasharray="5,2" d="M627.836,-290.82C638.327,-288.711 649.504,-286.815 660,-285.709 703.111,-281.17 751.658,-280.762 790.465,-281.563"/>
<polygon fill="#9a32cd" stroke="#9a32cd" points="627.095,-287.399 618.033,-292.889 628.54,-294.248 627.095,-287.399"/>
<text text-anchor="middle" x="716" y="-288.709" font-family="Helvetica,sans-Serif" font-size="10.00"> myRoot</text>
</g>
</g>
</svg>
        <g id="navigator" transform="translate(0 0)" fill="#404254">
                <rect fill="#f2f5e9" fill-opacity="0.5" stroke="#606060" stroke-width=".5" x="0" y="0" width="60" height="60"/>
                <use id="zoomplus" xlink:href="#zoomPlus" x="17" y="9" onmousedown="handleZoom(evt,'in')"/>
                <use id="zoomminus" xlink:href="#zoomMin" x="42" y="9" onmousedown="handleZoom(evt,'out')"/>
                <use id="reset" xlink:href="#resetDef" x="30" y="36" onmousedown="handleReset()"/>
                <g id="arrowUp" xlink:href="#dirArrow" transform="translate(30 24)" onmousedown="handlePan(0,-1)">
                  <use xlink:href="#rim" fill="#404040">
                        <set attributeName="fill" to="#808080" begin="arrowUp.mouseover" end="arrowUp.mouseout"/>
                  </use>
                  <path fill="none" stroke="white" stroke-width="1.5" d="M0,-3.0v7 M-2.5,-0.5L0,-3.0L2.5,-0.5"/>
                </g>
                <g id="arrowRight" xlink:href="#dirArrow" transform="rotate(90) translate(36 -43)" onmousedown="handlePan(1,0)">
                  <use xlink:href="#rim" fill="#404040">
                        <set attributeName="fill" to="#808080" begin="arrowRight.mouseover" end="arrowRight.mouseout"/>
                  </use>
                  <path fill="none" stroke="white" stroke-width="1.5" d="M0,-3.0v7 M-2.5,-0.5L0,-3.0L2.5,-0.5"/>
                </g>
                <g id="arrowDown" xlink:href="#dirArrow" transform="rotate(180) translate(-30 -48)" onmousedown="handlePan(0,1)">
                  <use xlink:href="#rim" fill="#404040">
                        <set attributeName="fill" to="#808080" begin="arrowDown.mouseover" end="arrowDown.mouseout"/>
                  </use>
                  <path fill="none" stroke="white" stroke-width="1.5" d="M0,-3.0v7 M-2.5,-0.5L0,-3.0L2.5,-0.5"/>
                </g>
                <g id="arrowLeft" xlink:href="#dirArrow" transform="rotate(270) translate(-36 17)" onmousedown="handlePan(-1,0)">
                  <use xlink:href="#rim" fill="#404040">
                        <set attributeName="fill" to="#808080" begin="arrowLeft.mouseover" end="arrowLeft.mouseout"/>
                  </use>
                  <path fill="none" stroke="white" stroke-width="1.5" d="M0,-3.0v7 M-2.5,-0.5L0,-3.0L2.5,-0.5"/>
                </g>
        </g>
        <svg viewBox="0 0 15 15" width="100%" height="30px" preserveAspectRatio="xMaxYMin meet">
         <g id="arrow_out" transform="scale(0.3 0.3)">
          <a xlink:href="classuser_interface_1_1_user_interface__coll__graph_org.svg" target="_base">
           <rect id="button" ry="5" rx="5" y="6" x="6" height="38" width="38"
                fill="#f2f5e9" fill-opacity="0.5" stroke="#606060" stroke-width="1.0"/>
           <path id="arrow"
             d="M 11.500037,31.436501 C 11.940474,20.09759 22.043105,11.32322 32.158766,21.979434 L 37.068811,17.246167 C 37.068811,17.246167 37.088388,32 37.088388,32 L 22.160133,31.978069 C 22.160133,31.978069 26.997745,27.140456 26.997745,27.140456 C 18.528582,18.264221 13.291696,25.230495 11.500037,31.436501 z"
             style="fill:#404040;"/>
          </a>
         </g>
        </svg>
</svg>
