<?xml version="1.0" encoding="UTF-8" standalone="no"?>
<!DOCTYPE svg PUBLIC "-//W3C//DTD SVG 1.1//EN"
 "http://www.w3.org/Graphics/SVG/1.1/DTD/svg11.dtd">
<!-- Generated by graphviz version 2.36.0 (20140111.2315)
 -->
<!-- Title: userInterface.TopMenu Pages: 1 -->
<svg width="468pt" height="401pt"
 viewBox="0.00 0.00 468.00 401.33" xmlns="http://www.w3.org/2000/svg" xmlns:xlink="http://www.w3.org/1999/xlink">
<g id="graph0" class="graph" transform="scale(1 1) rotate(0) translate(4 397.332)">
<title>userInterface.TopMenu</title>
<polygon fill="white" stroke="none" points="-4,4 -4,-397.332 464,-397.332 464,4 -4,4"/>
<!-- Node1 -->
<g id="node1" class="node"><title>Node1</title>
<polygon fill="#bfbfbf" stroke="black" points="334.5,-157.832 334.5,-176.832 459.5,-176.832 459.5,-157.832 334.5,-157.832"/>
<text text-anchor="middle" x="397" y="-164.832" font-family="Helvetica,sans-Serif" font-size="10.00">userInterface.TopMenu</text>
</g>
<!-- Node2 -->
<g id="node2" class="node"><title>Node2</title>
<polygon fill="white" stroke="#bfbfbf" points="11,-361.832 11,-380.832 151,-380.832 151,-361.832 11,-361.832"/>
<text text-anchor="middle" x="81" y="-368.832" font-family="Helvetica,sans-Serif" font-size="10.00">ObjectProperty&lt; Image &gt;</text>
</g>
<!-- Node2&#45;&gt;Node1 -->
<g id="edge1" class="edge"><title>Node2&#45;&gt;Node1</title>
<path fill="none" stroke="#9a32cd" stroke-dasharray="5,2" d="M153.23,-381.632C203.32,-384.971 269.45,-381.086 316,-347.332 374.969,-304.572 391.192,-208.358 394.978,-177.242"/>
<polygon fill="#9a32cd" stroke="#9a32cd" points="153.358,-378.131 143.117,-380.846 152.816,-385.11 153.358,-378.131"/>
<text text-anchor="middle" x="248" y="-385.332" font-family="Helvetica,sans-Serif" font-size="10.00"> turtleImage</text>
</g>
<!-- Node3 -->
<g id="node3" class="node"><title>Node3</title>
<polygon fill="white" stroke="#bfbfbf" points="58.5,-323.832 58.5,-342.832 103.5,-342.832 103.5,-323.832 58.5,-323.832"/>
<text text-anchor="middle" x="81" y="-330.832" font-family="Helvetica,sans-Serif" font-size="10.00">Stage</text>
</g>
<!-- Node3&#45;&gt;Node1 -->
<g id="edge2" class="edge"><title>Node3&#45;&gt;Node1</title>
<path fill="none" stroke="#9a32cd" stroke-dasharray="5,2" d="M113.957,-333.925C170.085,-334.387 283.507,-332.561 316,-311.332 365.799,-278.796 387.487,-204.068 393.869,-177.189"/>
<polygon fill="#9a32cd" stroke="#9a32cd" points="113.895,-330.424 103.856,-333.812 113.816,-337.424 113.895,-330.424"/>
<text text-anchor="middle" x="248" y="-335.332" font-family="Helvetica,sans-Serif" font-size="10.00"> myStage</text>
</g>
<!-- Node4 -->
<g id="node4" class="node"><title>Node4</title>
<polygon fill="white" stroke="#bfbfbf" points="9.5,-274.332 9.5,-304.332 152.5,-304.332 152.5,-274.332 9.5,-274.332"/>
<text text-anchor="start" x="17.5" y="-292.332" font-family="Helvetica,sans-Serif" font-size="10.00">ObjectProperty&lt; Resource</text>
<text text-anchor="middle" x="81" y="-281.332" font-family="Helvetica,sans-Serif" font-size="10.00">Bundle &gt;</text>
</g>
<!-- Node4&#45;&gt;Node1 -->
<g id="edge3" class="edge"><title>Node4&#45;&gt;Node1</title>
<path fill="none" stroke="#9a32cd" stroke-dasharray="5,2" d="M162.882,-296.909C210.166,-297.764 269.499,-292.428 316,-267.332 354.935,-246.319 381.679,-197.548 391.659,-176.872"/>
<polygon fill="#9a32cd" stroke="#9a32cd" points="162.771,-293.405 152.678,-296.626 162.577,-300.402 162.771,-293.405"/>
<text text-anchor="middle" x="248" y="-300.332" font-family="Helvetica,sans-Serif" font-size="10.00"> language</text>
</g>
<!-- Node5 -->
<g id="node5" class="node"><title>Node5</title>
<polygon fill="white" stroke="#bfbfbf" points="11.5,-235.832 11.5,-254.832 150.5,-254.832 150.5,-235.832 11.5,-235.832"/>
<text text-anchor="middle" x="81" y="-242.832" font-family="Helvetica,sans-Serif" font-size="10.00">ObjectProperty&lt; String &gt;</text>
</g>
<!-- Node5&#45;&gt;Node1 -->
<g id="edge4" class="edge"><title>Node5&#45;&gt;Node1</title>
<path fill="none" stroke="#9a32cd" stroke-dasharray="5,2" d="M160.673,-242.24C217.273,-239.206 288.316,-233.508 316,-223.332 344.325,-212.921 371.937,-189.914 386.134,-176.861"/>
<polygon fill="#9a32cd" stroke="#9a32cd" points="160.452,-238.746 150.646,-242.758 160.813,-245.737 160.452,-238.746"/>
<text text-anchor="middle" x="248" y="-255.332" font-family="Helvetica,sans-Serif" font-size="10.00"> penColor</text>
<text text-anchor="middle" x="248" y="-244.332" font-family="Helvetica,sans-Serif" font-size="10.00">canvasColor</text>
</g>
<!-- Node6 -->
<g id="node6" class="node"><title>Node6</title>
<polygon fill="white" stroke="#bfbfbf" points="59.5,-161.832 59.5,-180.832 102.5,-180.832 102.5,-161.832 59.5,-161.832"/>
<text text-anchor="middle" x="81" y="-168.832" font-family="Helvetica,sans-Serif" font-size="10.00">Menu</text>
</g>
<!-- Node6&#45;&gt;Node1 -->
<g id="edge5" class="edge"><title>Node6&#45;&gt;Node1</title>
<path fill="none" stroke="#9a32cd" stroke-dasharray="5,2" d="M112.686,-170.188C132.001,-169.519 157.455,-168.729 180,-168.332 231.93,-167.417 290.893,-167.199 334.079,-167.192"/>
<polygon fill="#9a32cd" stroke="#9a32cd" points="112.514,-166.692 102.644,-170.544 112.762,-173.687 112.514,-166.692"/>
<text text-anchor="middle" x="248" y="-215.332" font-family="Helvetica,sans-Serif" font-size="10.00"> View</text>
<text text-anchor="middle" x="248" y="-204.332" font-family="Helvetica,sans-Serif" font-size="10.00">Preferences</text>
<text text-anchor="middle" x="248" y="-193.332" font-family="Helvetica,sans-Serif" font-size="10.00">Edit</text>
<text text-anchor="middle" x="248" y="-182.332" font-family="Helvetica,sans-Serif" font-size="10.00">File</text>
<text text-anchor="middle" x="248" y="-171.332" font-family="Helvetica,sans-Serif" font-size="10.00">Help</text>
</g>
<!-- Node7 -->
<g id="node7" class="node"><title>Node7</title>
<polygon fill="white" stroke="#bfbfbf" points="0.5,-123.832 0.5,-142.832 161.5,-142.832 161.5,-123.832 0.5,-123.832"/>
<text text-anchor="middle" x="81" y="-130.832" font-family="Helvetica,sans-Serif" font-size="10.00">EventHandler&lt; ActionEvent &gt;</text>
</g>
<!-- Node7&#45;&gt;Node1 -->
<g id="edge6" class="edge"><title>Node7&#45;&gt;Node1</title>
<path fill="none" stroke="#9a32cd" stroke-dasharray="5,2" d="M171.583,-138.407C215.261,-141.441 268.496,-145.967 316,-152.332 326.925,-153.796 338.619,-155.76 349.599,-157.784"/>
<polygon fill="#9a32cd" stroke="#9a32cd" points="171.772,-134.912 161.557,-137.725 171.296,-141.896 171.772,-134.912"/>
<text text-anchor="middle" x="248" y="-155.332" font-family="Helvetica,sans-Serif" font-size="10.00"> createNewTab</text>
</g>
<!-- Node8 -->
<g id="node8" class="node"><title>Node8</title>
<polygon fill="white" stroke="#bfbfbf" points="9,-85.8319 9,-104.832 153,-104.832 153,-85.8319 9,-85.8319"/>
<text text-anchor="middle" x="81" y="-92.8319" font-family="Helvetica,sans-Serif" font-size="10.00">ObjectProperty&lt; Double &gt;</text>
</g>
<!-- Node8&#45;&gt;Node1 -->
<g id="edge7" class="edge"><title>Node8&#45;&gt;Node1</title>
<path fill="none" stroke="#9a32cd" stroke-dasharray="5,2" d="M163.245,-98.0309C208.999,-101.363 266.681,-108.629 316,-124.332 340.641,-132.177 366.543,-147.618 381.977,-157.703"/>
<polygon fill="#9a32cd" stroke="#9a32cd" points="163.291,-94.5261 153.077,-97.3404 162.817,-101.51 163.291,-94.5261"/>
<text text-anchor="middle" x="248" y="-127.332" font-family="Helvetica,sans-Serif" font-size="10.00"> penSize</text>
</g>
<!-- Node9 -->
<g id="node9" class="node"><title>Node9</title>
<polygon fill="white" stroke="#bfbfbf" points="51.5,-47.8319 51.5,-66.8319 110.5,-66.8319 110.5,-47.8319 51.5,-47.8319"/>
<text text-anchor="middle" x="81" y="-54.8319" font-family="Helvetica,sans-Serif" font-size="10.00">MenuBar</text>
</g>
<!-- Node9&#45;&gt;Node1 -->
<g id="edge8" class="edge"><title>Node9&#45;&gt;Node1</title>
<path fill="none" stroke="#9a32cd" stroke-dasharray="5,2" d="M120.759,-54.3345C169.064,-52.2576 252.934,-54.2099 316,-85.3319 350.244,-102.231 378.122,-139.906 389.921,-157.688"/>
<polygon fill="#9a32cd" stroke="#9a32cd" points="120.531,-50.8415 110.723,-54.8468 120.888,-57.8324 120.531,-50.8415"/>
<text text-anchor="middle" x="248" y="-88.3319" font-family="Helvetica,sans-Serif" font-size="10.00"> myMenu</text>
</g>
<!-- Node10 -->
<g id="node10" class="node"><title>Node10</title>
<polygon fill="white" stroke="#bfbfbf" points="46,-4.83189 46,-23.8319 116,-23.8319 116,-4.83189 46,-4.83189"/>
<text text-anchor="middle" x="81" y="-11.8319" font-family="Helvetica,sans-Serif" font-size="10.00">ColorPicker</text>
</g>
<!-- Node10&#45;&gt;Node1 -->
<g id="edge9" class="edge"><title>Node10&#45;&gt;Node1</title>
<path fill="none" stroke="#9a32cd" stroke-dasharray="5,2" d="M126.546,-5.47932C176.586,1.96752 258.334,6.39944 316,-29.3319 364.964,-59.671 387.174,-131.811 393.781,-157.796"/>
<polygon fill="#9a32cd" stroke="#9a32cd" points="125.694,-2.07084 116.369,-7.10079 126.796,-8.98365 125.694,-2.07084"/>
<text text-anchor="middle" x="248" y="-43.3319" font-family="Helvetica,sans-Serif" font-size="10.00"> myPenColorChoices</text>
<text text-anchor="middle" x="248" y="-32.3319" font-family="Helvetica,sans-Serif" font-size="10.00">myBackgroundColorChoices</text>
</g>
</g>
</svg>
