<?xml version="1.0" encoding="UTF-8" standalone="no"?>
<!DOCTYPE svg PUBLIC "-//W3C//DTD SVG 1.1//EN"
 "http://www.w3.org/Graphics/SVG/1.1/DTD/svg11.dtd">
<!-- Generated by graphviz version 2.36.0 (20140111.2315)
 -->
<!-- Title: userInterface.TopMenu Pages: 1 -->
<svg width="662pt" height="140pt"
 viewBox="0.00 0.00 662.00 140.00" xmlns="http://www.w3.org/2000/svg" xmlns:xlink="http://www.w3.org/1999/xlink">
<g id="graph0" class="graph" transform="scale(1 1) rotate(0) translate(4 136)">
<title>userInterface.TopMenu</title>
<polygon fill="white" stroke="none" points="-4,4 -4,-136 658,-136 658,4 -4,4"/>
<!-- Node1 -->
<g id="node1" class="node"><title>Node1</title>
<polygon fill="#bfbfbf" stroke="black" points="192.5,-0.5 192.5,-19.5 317.5,-19.5 317.5,-0.5 192.5,-0.5"/>
<text text-anchor="middle" x="255" y="-7.5" font-family="Helvetica,sans-Serif" font-size="10.00">userInterface.TopMenu</text>
</g>
<!-- Node2 -->
<g id="node2" class="node"><title>Node2</title>
<polygon fill="white" stroke="#bfbfbf" points="-0.5,-112.5 -0.5,-131.5 44.5,-131.5 44.5,-112.5 -0.5,-112.5"/>
<text text-anchor="middle" x="22" y="-119.5" font-family="Helvetica,sans-Serif" font-size="10.00">Stage</text>
</g>
<!-- Node2&#45;&gt;Node1 -->
<g id="edge1" class="edge"><title>Node2&#45;&gt;Node1</title>
<path fill="none" stroke="#9a32cd" stroke-dasharray="5,2" d="M26.868,-102.708C33.0448,-83.3146 45.68,-53.4032 68,-38 87.7755,-24.3527 146.158,-17.483 192.484,-14.1031"/>
<polygon fill="#9a32cd" stroke="#9a32cd" points="23.4574,-101.902 24.0165,-112.482 30.1772,-103.862 23.4574,-101.902"/>
<text text-anchor="middle" x="91.5" y="-63.5" font-family="Helvetica,sans-Serif" font-size="10.00"> myStage</text>
</g>
<!-- Node3 -->
<g id="node3" class="node"><title>Node3</title>
<polygon fill="white" stroke="#bfbfbf" points="62.5,-112.5 62.5,-131.5 155.5,-131.5 155.5,-112.5 62.5,-112.5"/>
<text text-anchor="middle" x="109" y="-119.5" font-family="Helvetica,sans-Serif" font-size="10.00">ResourceBundle</text>
</g>
<!-- Node3&#45;&gt;Node1 -->
<g id="edge2" class="edge"><title>Node3&#45;&gt;Node1</title>
<path fill="none" stroke="#9a32cd" stroke-dasharray="5,2" d="M114.569,-102.925C121.339,-83.9624 134.591,-54.6468 156,-38 167.04,-29.4156 180.619,-23.5571 194.14,-19.5599"/>
<polygon fill="#9a32cd" stroke="#9a32cd" points="111.225,-101.891 111.392,-112.484 117.867,-104.099 111.225,-101.891"/>
<text text-anchor="middle" x="180" y="-63.5" font-family="Helvetica,sans-Serif" font-size="10.00"> language</text>
</g>
<!-- Node4 -->
<g id="node4" class="node"><title>Node4</title>
<polygon fill="white" stroke="#bfbfbf" points="173.5,-112.5 173.5,-131.5 216.5,-131.5 216.5,-112.5 173.5,-112.5"/>
<text text-anchor="middle" x="195" y="-119.5" font-family="Helvetica,sans-Serif" font-size="10.00">Menu</text>
</g>
<!-- Node4&#45;&gt;Node1 -->
<g id="edge3" class="edge"><title>Node4&#45;&gt;Node1</title>
<path fill="none" stroke="#9a32cd" stroke-dasharray="5,2" d="M202.446,-103.12C209.861,-85.9595 221.988,-59.5441 235,-38 238.86,-31.6084 243.86,-24.8584 247.895,-19.7063"/>
<polygon fill="#9a32cd" stroke="#9a32cd" points="199.157,-101.909 198.472,-112.482 205.601,-104.644 199.157,-101.909"/>
<text text-anchor="middle" x="264" y="-85.5" font-family="Helvetica,sans-Serif" font-size="10.00"> View</text>
<text text-anchor="middle" x="264" y="-74.5" font-family="Helvetica,sans-Serif" font-size="10.00">Preferences</text>
<text text-anchor="middle" x="264" y="-63.5" font-family="Helvetica,sans-Serif" font-size="10.00">Edit</text>
<text text-anchor="middle" x="264" y="-52.5" font-family="Helvetica,sans-Serif" font-size="10.00">File</text>
<text text-anchor="middle" x="264" y="-41.5" font-family="Helvetica,sans-Serif" font-size="10.00">Help</text>
</g>
<!-- Node5 -->
<g id="node5" class="node"><title>Node5</title>
<polygon fill="white" stroke="#bfbfbf" points="234.5,-112.5 234.5,-131.5 395.5,-131.5 395.5,-112.5 234.5,-112.5"/>
<text text-anchor="middle" x="315" y="-119.5" font-family="Helvetica,sans-Serif" font-size="10.00">EventHandler&lt; ActionEvent &gt;</text>
</g>
<!-- Node5&#45;&gt;Node1 -->
<g id="edge4" class="edge"><title>Node5&#45;&gt;Node1</title>
<path fill="none" stroke="#9a32cd" stroke-dasharray="5,2" d="M313.705,-102.418C311.669,-84.5235 306.438,-57.3891 293,-38 287.744,-30.4172 279.634,-24.2337 272.254,-19.7069"/>
<polygon fill="#9a32cd" stroke="#9a32cd" points="310.225,-102.802 314.62,-112.442 317.196,-102.165 310.225,-102.802"/>
<text text-anchor="middle" x="348" y="-63.5" font-family="Helvetica,sans-Serif" font-size="10.00"> createNewTab</text>
</g>
<!-- Node6 -->
<g id="node6" class="node"><title>Node6</title>
<polygon fill="white" stroke="#bfbfbf" points="413.5,-112.5 413.5,-131.5 472.5,-131.5 472.5,-112.5 413.5,-112.5"/>
<text text-anchor="middle" x="443" y="-119.5" font-family="Helvetica,sans-Serif" font-size="10.00">MenuBar</text>
</g>
<!-- Node6&#45;&gt;Node1 -->
<g id="edge5" class="edge"><title>Node6&#45;&gt;Node1</title>
<path fill="none" stroke="#9a32cd" stroke-dasharray="5,2" d="M435.766,-102.873C427.12,-83.6466 410.773,-53.9003 387,-38 366.682,-24.4104 340.957,-17.4165 317.624,-13.8979"/>
<polygon fill="#9a32cd" stroke="#9a32cd" points="432.646,-104.481 439.776,-112.318 439.09,-101.745 432.646,-104.481"/>
<text text-anchor="middle" x="454.5" y="-63.5" font-family="Helvetica,sans-Serif" font-size="10.00"> myMenu</text>
</g>
<!-- Node7 -->
<g id="node7" class="node"><title>Node7</title>
<polygon fill="white" stroke="#bfbfbf" points="491,-112.5 491,-131.5 561,-131.5 561,-112.5 491,-112.5"/>
<text text-anchor="middle" x="526" y="-119.5" font-family="Helvetica,sans-Serif" font-size="10.00">ColorPicker</text>
</g>
<!-- Node7&#45;&gt;Node1 -->
<g id="edge6" class="edge"><title>Node7&#45;&gt;Node1</title>
<path fill="none" stroke="#9a32cd" stroke-dasharray="5,2" d="M521.425,-102.613C515.544,-83.1379 503.323,-53.1557 481,-38 455.173,-20.4653 375.138,-14.2901 317.646,-12.1319"/>
<polygon fill="#9a32cd" stroke="#9a32cd" points="518.098,-103.718 524.123,-112.433 524.848,-101.863 518.098,-103.718"/>
<text text-anchor="middle" x="586.5" y="-69" font-family="Helvetica,sans-Serif" font-size="10.00"> myPenColorChoices</text>
<text text-anchor="middle" x="586.5" y="-58" font-family="Helvetica,sans-Serif" font-size="10.00">myBackgroundColorChoices</text>
</g>
</g>
</svg>
