<?xml version="1.0" encoding="UTF-8" standalone="no"?>
<!DOCTYPE svg PUBLIC "-//W3C//DTD SVG 1.1//EN"
 "http://www.w3.org/Graphics/SVG/1.1/DTD/svg11.dtd">
<!-- Generated by graphviz version 2.36.0 (20140111.2315)
 -->
<!-- Title: command.LoopCommand Pages: 1 -->
<svg width="247pt" height="164pt"
 viewBox="0.00 0.00 247.00 164.00" xmlns="http://www.w3.org/2000/svg" xmlns:xlink="http://www.w3.org/1999/xlink">
<g id="graph0" class="graph" transform="scale(1 1) rotate(0) translate(4 160)">
<title>command.LoopCommand</title>
<polygon fill="white" stroke="none" points="-4,4 -4,-160 243,-160 243,4 -4,4"/>
<!-- Node1 -->
<g id="node1" class="node"><title>Node1</title>
<polygon fill="#bfbfbf" stroke="black" points="78,-0.5 78,-19.5 220,-19.5 220,-0.5 78,-0.5"/>
<text text-anchor="middle" x="149" y="-7.5" font-family="Helvetica,sans-Serif" font-size="10.00">command.LoopCommand</text>
</g>
<!-- Node2 -->
<g id="node2" class="node"><title>Node2</title>
<g id="a_node2"><a xlink:href="../../d7/d35/classcommand_1_1_command.html" target="_top" xlink:title="command.Command">
<polygon fill="white" stroke="black" points="-0.5,-68.5 -0.5,-87.5 118.5,-87.5 118.5,-68.5 -0.5,-68.5"/>
<text text-anchor="middle" x="59" y="-75.5" font-family="Helvetica,sans-Serif" font-size="10.00">command.Command</text>
</a>
</g>
</g>
<!-- Node2&#45;&gt;Node1 -->
<g id="edge1" class="edge"><title>Node2&#45;&gt;Node1</title>
<path fill="none" stroke="midnightblue" d="M78.8339,-62.4551C96.714,-49.3431 122.407,-30.5016 137.231,-19.6305"/>
<polygon fill="midnightblue" stroke="midnightblue" points="76.7602,-59.6356 70.7659,-68.3717 80.8998,-65.2804 76.7602,-59.6356"/>
</g>
<!-- Node3 -->
<g id="node3" class="node"><title>Node3</title>
<polygon fill="white" stroke="#bfbfbf" points="14.5,-136.5 14.5,-155.5 103.5,-155.5 103.5,-136.5 14.5,-136.5"/>
<text text-anchor="middle" x="59" y="-143.5" font-family="Helvetica,sans-Serif" font-size="10.00">List&lt; Double &gt;</text>
</g>
<!-- Node3&#45;&gt;Node2 -->
<g id="edge2" class="edge"><title>Node3&#45;&gt;Node2</title>
<path fill="none" stroke="#9a32cd" stroke-dasharray="5,2" d="M59,-126.041C59,-113.472 59,-97.5631 59,-87.8411"/>
<polygon fill="#9a32cd" stroke="#9a32cd" points="55.5001,-126.372 59,-136.372 62.5001,-126.372 55.5001,-126.372"/>
<text text-anchor="middle" x="89" y="-109.5" font-family="Helvetica,sans-Serif" font-size="10.00"> parameters</text>
</g>
<!-- Node4 -->
<g id="node4" class="node"><title>Node4</title>
<polygon fill="white" stroke="#bfbfbf" points="137,-68.5 137,-87.5 221,-87.5 221,-68.5 137,-68.5"/>
<text text-anchor="middle" x="179" y="-75.5" font-family="Helvetica,sans-Serif" font-size="10.00">List&lt; String &gt;</text>
</g>
<!-- Node4&#45;&gt;Node1 -->
<g id="edge3" class="edge"><title>Node4&#45;&gt;Node1</title>
<path fill="none" stroke="#9a32cd" stroke-dasharray="5,2" d="M170.903,-59.1859C165.115,-46.4523 157.573,-29.8607 153.019,-19.8411"/>
<polygon fill="#9a32cd" stroke="#9a32cd" points="167.754,-60.7163 175.078,-68.3717 174.126,-57.8196 167.754,-60.7163"/>
<text text-anchor="middle" x="203" y="-41.5" font-family="Helvetica,sans-Serif" font-size="10.00"> strParameters</text>
</g>
</g>
</svg>
