<?xml version="1.0" encoding="UTF-8" standalone="no"?>
<!DOCTYPE svg PUBLIC "-//W3C//DTD SVG 1.1//EN"
 "http://www.w3.org/Graphics/SVG/1.1/DTD/svg11.dtd">
<!-- Generated by graphviz version 2.36.0 (20140111.2315)
 -->
<!-- Title: command.LoopCommand Pages: 1 -->
<svg width="602pt" height="164pt"
 viewBox="0.00 0.00 602.00 164.00" xmlns="http://www.w3.org/2000/svg" xmlns:xlink="http://www.w3.org/1999/xlink">
<g id="graph0" class="graph" transform="scale(1 1) rotate(0) translate(4 160)">
<title>command.LoopCommand</title>
<polygon fill="white" stroke="none" points="-4,4 -4,-160 598,-160 598,4 -4,4"/>
<!-- Node1 -->
<g id="node1" class="node"><title>Node1</title>
<polygon fill="#bfbfbf" stroke="black" points="402,-0.5 402,-19.5 544,-19.5 544,-0.5 402,-0.5"/>
<text text-anchor="middle" x="473" y="-7.5" font-family="Helvetica,sans-Serif" font-size="10.00">command.LoopCommand</text>
</g>
<!-- Node2 -->
<g id="node2" class="node"><title>Node2</title>
<g id="a_node2"><a xlink:href="../../d7/d35/classcommand_1_1_command.html" target="_top" xlink:title="command.Command">
<polygon fill="white" stroke="black" points="274.5,-58.5 274.5,-77.5 393.5,-77.5 393.5,-58.5 274.5,-58.5"/>
<text text-anchor="middle" x="334" y="-65.5" font-family="Helvetica,sans-Serif" font-size="10.00">command.Command</text>
</a>
</g>
</g>
<!-- Node2&#45;&gt;Node1 -->
<g id="edge1" class="edge"><title>Node2&#45;&gt;Node1</title>
<path fill="none" stroke="midnightblue" d="M364.634,-54.6581C391.028,-44.0247 428.443,-28.951 451.69,-19.5852"/>
<polygon fill="midnightblue" stroke="midnightblue" points="363.079,-51.5114 355.111,-58.4948 365.695,-58.0043 363.079,-51.5114"/>
</g>
<!-- Node3 -->
<g id="node3" class="node"><title>Node3</title>
<polygon fill="white" stroke="#bfbfbf" points="106.5,-136.5 106.5,-155.5 199.5,-155.5 199.5,-136.5 106.5,-136.5"/>
<text text-anchor="middle" x="153" y="-143.5" font-family="Helvetica,sans-Serif" font-size="10.00">ResourceBundle</text>
</g>
<!-- Node3&#45;&gt;Node2 -->
<g id="edge2" class="edge"><title>Node3&#45;&gt;Node2</title>
<path fill="none" stroke="#9a32cd" stroke-dasharray="5,2" d="M174.482,-130.819C191.444,-120.107 216.005,-105.652 239,-96 257.182,-88.3686 278.199,-82.145 295.835,-77.6044"/>
<polygon fill="#9a32cd" stroke="#9a32cd" points="172.422,-127.982 165.899,-136.33 176.205,-133.872 172.422,-127.982"/>
<text text-anchor="middle" x="256.5" y="-104.5" font-family="Helvetica,sans-Serif" font-size="10.00"> syntax</text>
</g>
<!-- Node4 -->
<g id="node4" class="node"><title>Node4</title>
<polygon fill="white" stroke="#bfbfbf" points="-0.5,-136.5 -0.5,-155.5 88.5,-155.5 88.5,-136.5 -0.5,-136.5"/>
<text text-anchor="middle" x="44" y="-143.5" font-family="Helvetica,sans-Serif" font-size="10.00">List&lt; Double &gt;</text>
</g>
<!-- Node4&#45;&gt;Node2 -->
<g id="edge3" class="edge"><title>Node4&#45;&gt;Node2</title>
<path fill="none" stroke="#9a32cd" stroke-dasharray="5,2" d="M64.9997,-130.684C82.6291,-119.391 108.892,-104.22 134,-96 179.619,-81.0656 233.689,-74.3831 274.101,-71.3975"/>
<polygon fill="#9a32cd" stroke="#9a32cd" points="62.5949,-128.076 56.156,-136.489 66.4364,-133.927 62.5949,-128.076"/>
<text text-anchor="middle" x="164" y="-104.5" font-family="Helvetica,sans-Serif" font-size="10.00"> parameters</text>
</g>
<!-- Node5 -->
<g id="node5" class="node"><title>Node5</title>
<polygon fill="white" stroke="#bfbfbf" points="504,-136.5 504,-155.5 588,-155.5 588,-136.5 504,-136.5"/>
<text text-anchor="middle" x="546" y="-143.5" font-family="Helvetica,sans-Serif" font-size="10.00">List&lt; String &gt;</text>
</g>
<!-- Node5&#45;&gt;Node1 -->
<g id="edge7" class="edge"><title>Node5&#45;&gt;Node1</title>
<path fill="none" stroke="#9a32cd" stroke-dasharray="5,2" d="M542.237,-126.505C539.949,-117.102 536.575,-105.654 532,-96 517.692,-65.8065 493.03,-34.617 480.612,-19.8178"/>
<polygon fill="#9a32cd" stroke="#9a32cd" points="538.844,-127.37 544.431,-136.372 545.677,-125.851 538.844,-127.37"/>
<text text-anchor="middle" x="558" y="-65.5" font-family="Helvetica,sans-Serif" font-size="10.00"> strParameters</text>
</g>
<!-- Node5&#45;&gt;Node2 -->
<g id="edge4" class="edge"><title>Node5&#45;&gt;Node2</title>
<path fill="none" stroke="#9a32cd" stroke-dasharray="5,2" d="M495.803,-133.478C483.615,-129.553 470.95,-124.47 460,-118 447.822,-110.804 449.347,-102.903 437,-96 421.752,-87.4753 403.726,-81.5651 387.051,-77.5007"/>
<polygon fill="#9a32cd" stroke="#9a32cd" points="494.848,-136.846 505.433,-136.382 496.869,-130.144 494.848,-136.846"/>
<text text-anchor="middle" x="496" y="-104.5" font-family="Helvetica,sans-Serif" font-size="10.00"> strParameters</text>
</g>
<!-- Node6 -->
<g id="node6" class="node"><title>Node6</title>
<polygon fill="white" stroke="#bfbfbf" points="218,-136.5 218,-155.5 340,-155.5 340,-136.5 218,-136.5"/>
<text text-anchor="middle" x="279" y="-143.5" font-family="Helvetica,sans-Serif" font-size="10.00">Map&lt; String, String &gt;</text>
</g>
<!-- Node6&#45;&gt;Node2 -->
<g id="edge5" class="edge"><title>Node6&#45;&gt;Node2</title>
<path fill="none" stroke="#9a32cd" stroke-dasharray="5,2" d="M276.915,-125.955C276.796,-116.247 278.198,-104.69 284,-96 289.533,-87.7132 298.482,-81.7625 307.292,-77.5945"/>
<polygon fill="#9a32cd" stroke="#9a32cd" points="273.441,-126.467 277.581,-136.219 280.426,-126.013 273.441,-126.467"/>
<text text-anchor="middle" x="326" y="-110" font-family="Helvetica,sans-Serif" font-size="10.00"> commandValues</text>
<text text-anchor="middle" x="326" y="-99" font-family="Helvetica,sans-Serif" font-size="10.00">functions</text>
</g>
<!-- Node7 -->
<g id="node7" class="node"><title>Node7</title>
<polygon fill="white" stroke="#bfbfbf" points="358,-136.5 358,-155.5 486,-155.5 486,-136.5 358,-136.5"/>
<text text-anchor="middle" x="422" y="-143.5" font-family="Helvetica,sans-Serif" font-size="10.00">Map&lt; String, Double &gt;</text>
</g>
<!-- Node7&#45;&gt;Node2 -->
<g id="edge6" class="edge"><title>Node7&#45;&gt;Node2</title>
<path fill="none" stroke="#9a32cd" stroke-dasharray="5,2" d="M404.042,-129.609C399.736,-125.85 395.176,-121.812 391,-118 380.553,-108.463 378.661,-105.297 368,-96 360.615,-89.5597 351.963,-82.6977 345.234,-77.5032"/>
<polygon fill="#9a32cd" stroke="#9a32cd" points="401.992,-132.464 411.843,-136.362 406.573,-127.171 401.992,-132.464"/>
<text text-anchor="middle" x="414" y="-104.5" font-family="Helvetica,sans-Serif" font-size="10.00"> variables</text>
</g>
</g>
</svg>
