<?xml version="1.0" encoding="UTF-8" standalone="no"?>
<!DOCTYPE svg PUBLIC "-//W3C//DTD SVG 1.1//EN"
 "http://www.w3.org/Graphics/SVG/1.1/DTD/svg11.dtd">
<!-- Generated by graphviz version 2.36.0 (20140111.2315)
 -->
<!-- Title: world.UnboundedWorld Pages: 1 -->
<!--zoomable 334 -->
<svg id="main" version="1.1" xmlns="http://www.w3.org/2000/svg" xmlns:xlink="http://www.w3.org/1999/xlink" xml:space="preserve" onload="init(evt)">
<style type="text/css"><![CDATA[
.edge:hover path { stroke: red; }
.edge:hover polygon { stroke: red; fill: red; }
]]></style>
<script type="text/javascript"><![CDATA[
var edges = document.getElementsByTagName('g');
if (edges && edges.length) {
  for (var i=0;i<edges.length;i++) {
    if (edges[i].id.substr(0,4)=='edge') {
      edges[i].setAttribute('class','edge');
    }
  }
}
]]></script>
        <defs>
                <circle id="rim" cx="0" cy="0" r="7"/>
                <circle id="rim2" cx="0" cy="0" r="3.5"/>
                <g id="zoomPlus">
                        <use xlink:href="#rim" fill="#404040">
                                <set attributeName="fill" to="#808080" begin="zoomplus.mouseover" end="zoomplus.mouseout"/>
                        </use>
                        <path d="M-4,0h8M0,-4v8" fill="none" stroke="white" stroke-width="1.5" pointer-events="none"/>
                </g>
                <g id="zoomMin">
                        <use xlink:href="#rim" fill="#404040">
                                <set attributeName="fill" to="#808080" begin="zoomminus.mouseover" end="zoomminus.mouseout"/>
                        </use>
                        <path d="M-4,0h8" fill="none" stroke="white" stroke-width="1.5" pointer-events="none"/>
                </g>
                <g id="dirArrow">
                        <path fill="none" stroke="white" stroke-width="1.5" d="M0,-3.0v7 M-2.5,-0.5L0,-3.0L2.5,-0.5"/>
                </g>
               <g id="resetDef">
                       <use xlink:href="#rim2" fill="#404040">
                               <set attributeName="fill" to="#808080" begin="reset.mouseover" end="reset.mouseout"/>
                       </use>
               </g>
        </defs>

<script type="text/javascript">
var viewWidth = 753;
var viewHeight = 334;
var sectionId = 'dynsection-1';
</script>
<script xlink:href="../../svgpan.js"/>
<svg id="graph" class="graph">
<g id="viewport">
<title>world.UnboundedWorld</title>
<polygon fill="white" stroke="none" points="-4,4 -4,-330 749,-330 749,4 -4,4"/>
<!-- Node1 -->
<g id="node1" class="node"><title>Node1</title>
<polygon fill="#bfbfbf" stroke="black" points="383.5,-0.5 383.5,-19.5 508.5,-19.5 508.5,-0.5 383.5,-0.5"/>
<text text-anchor="middle" x="446" y="-7.5" font-family="Helvetica,sans-Serif" font-size="10.00">world.UnboundedWorld</text>
</g>
<!-- Node2 -->
<g id="node2" class="node"><title>Node2</title>
<g id="a_node2"><a xlink:href="../../d9/dd0/classworld_1_1_world.html" target="_top" xlink:title="world.World">
<polygon fill="white" stroke="black" points="411,-58.5 411,-77.5 481,-77.5 481,-58.5 411,-58.5"/>
<text text-anchor="middle" x="446" y="-65.5" font-family="Helvetica,sans-Serif" font-size="10.00">world.World</text>
</a>
</g>
</g>
<!-- Node2&#45;&gt;Node1 -->
<g id="edge1" class="edge"><title>Node2&#45;&gt;Node1</title>
<path fill="none" stroke="midnightblue" d="M446,-47.953C446,-38.2875 446,-27.0312 446,-19.5052"/>
<polygon fill="midnightblue" stroke="midnightblue" points="442.5,-48.25 446,-58.25 449.5,-48.25 442.5,-48.25"/>
</g>
<!-- Node3 -->
<g id="node3" class="node"><title>Node3</title>
<g id="a_node3"><a xlink:href="../../df/dcb/classturtle_1_1_turtle.html" target="_top" xlink:title="turtle.Turtle">
<polygon fill="white" stroke="black" points="159.5,-136.5 159.5,-155.5 230.5,-155.5 230.5,-136.5 159.5,-136.5"/>
<text text-anchor="middle" x="195" y="-143.5" font-family="Helvetica,sans-Serif" font-size="10.00">turtle.Turtle</text>
</a>
</g>
</g>
<!-- Node3&#45;&gt;Node2 -->
<g id="edge2" class="edge"><title>Node3&#45;&gt;Node2</title>
<path fill="none" stroke="#9a32cd" stroke-dasharray="5,2" d="M225.59,-132.71C252.727,-122.093 293.596,-106.801 330,-96 356.86,-88.0304 387.784,-80.9332 410.945,-76.0176"/>
<polygon fill="#9a32cd" stroke="#9a32cd" points="224.267,-129.469 216.247,-136.392 226.834,-135.981 224.267,-129.469"/>
<text text-anchor="middle" x="357.5" y="-110" font-family="Helvetica,sans-Serif" font-size="10.00"> myTurtle</text>
<text text-anchor="middle" x="357.5" y="-99" font-family="Helvetica,sans-Serif" font-size="10.00">activeTurtle</text>
</g>
<!-- Node4 -->
<g id="node4" class="node"><title>Node4</title>
<polygon fill="white" stroke="#bfbfbf" points="0,-215.5 0,-234.5 68,-234.5 68,-215.5 0,-215.5"/>
<text text-anchor="middle" x="34" y="-222.5" font-family="Helvetica,sans-Serif" font-size="10.00">ImageView</text>
</g>
<!-- Node4&#45;&gt;Node3 -->
<g id="edge3" class="edge"><title>Node4&#45;&gt;Node3</title>
<path fill="none" stroke="midnightblue" d="M59.0566,-210.631C78.7225,-200.281 106.882,-185.774 132,-174 145.899,-167.485 161.788,-160.68 174.131,-155.531"/>
<polygon fill="midnightblue" stroke="midnightblue" points="57.3399,-207.58 50.1353,-215.348 60.6117,-213.768 57.3399,-207.58"/>
</g>
<!-- Node5 -->
<g id="node5" class="node"><title>Node5</title>
<g id="a_node5"><a xlink:href="../../de/d57/classturtle_1_1_pen.html" target="_top" xlink:title="turtle.Pen">
<polygon fill="white" stroke="black" points="86.5,-215.5 86.5,-234.5 149.5,-234.5 149.5,-215.5 86.5,-215.5"/>
<text text-anchor="middle" x="118" y="-222.5" font-family="Helvetica,sans-Serif" font-size="10.00">turtle.Pen</text>
</a>
</g>
</g>
<!-- Node5&#45;&gt;Node3 -->
<g id="edge4" class="edge"><title>Node5&#45;&gt;Node3</title>
<path fill="none" stroke="#9a32cd" stroke-dasharray="5,2" d="M128.233,-206.662C134.79,-196.436 143.938,-183.651 154,-174 161.504,-166.802 171.167,-160.333 179.228,-155.532"/>
<polygon fill="#9a32cd" stroke="#9a32cd" points="125.057,-205.146 122.796,-215.496 131.018,-208.815 125.057,-205.146"/>
<text text-anchor="middle" x="172.5" y="-182.5" font-family="Helvetica,sans-Serif" font-size="10.00"> myPen</text>
</g>
<!-- Node6 -->
<g id="node6" class="node"><title>Node6</title>
<polygon fill="white" stroke="#bfbfbf" points="98,-306.5 98,-325.5 138,-325.5 138,-306.5 98,-306.5"/>
<text text-anchor="middle" x="118" y="-313.5" font-family="Helvetica,sans-Serif" font-size="10.00">Paint</text>
</g>
<!-- Node6&#45;&gt;Node5 -->
<g id="edge5" class="edge"><title>Node6&#45;&gt;Node5</title>
<path fill="none" stroke="#9a32cd" stroke-dasharray="5,2" d="M118,-296.349C118,-277.383 118,-248.828 118,-234.639"/>
<polygon fill="#9a32cd" stroke="#9a32cd" points="114.5,-296.466 118,-306.466 121.5,-296.466 114.5,-296.466"/>
<text text-anchor="middle" x="148.5" y="-268.5" font-family="Helvetica,sans-Serif" font-size="10.00"> myPenColor</text>
</g>
<!-- Node7 -->
<g id="node7" class="node"><title>Node7</title>
<polygon fill="white" stroke="#bfbfbf" points="168,-215.5 168,-234.5 222,-234.5 222,-215.5 168,-215.5"/>
<text text-anchor="middle" x="195" y="-222.5" font-family="Helvetica,sans-Serif" font-size="10.00">Point2D</text>
</g>
<!-- Node7&#45;&gt;Node3 -->
<g id="edge6" class="edge"><title>Node7&#45;&gt;Node3</title>
<path fill="none" stroke="#9a32cd" stroke-dasharray="5,2" d="M195,-205.315C195,-189.592 195,-167.808 195,-155.809"/>
<polygon fill="#9a32cd" stroke="#9a32cd" points="191.5,-205.465 195,-215.465 198.5,-205.465 191.5,-205.465"/>
<text text-anchor="middle" x="212.5" y="-188" font-family="Helvetica,sans-Serif" font-size="10.00"> next</text>
<text text-anchor="middle" x="212.5" y="-177" font-family="Helvetica,sans-Serif" font-size="10.00">current</text>
</g>
<!-- Node8 -->
<g id="node8" class="node"><title>Node8</title>
<polygon fill="white" stroke="#bfbfbf" points="240.5,-215.5 240.5,-234.5 287.5,-234.5 287.5,-215.5 240.5,-215.5"/>
<text text-anchor="middle" x="264" y="-222.5" font-family="Helvetica,sans-Serif" font-size="10.00">Image</text>
</g>
<!-- Node8&#45;&gt;Node3 -->
<g id="edge7" class="edge"><title>Node8&#45;&gt;Node3</title>
<path fill="none" stroke="#9a32cd" stroke-dasharray="5,2" d="M255.768,-206.329C250.476,-196.151 242.929,-183.53 234,-174 227.243,-166.788 218.252,-160.405 210.605,-155.658"/>
<polygon fill="#9a32cd" stroke="#9a32cd" points="252.719,-208.06 260.275,-215.487 259,-204.969 252.719,-208.06"/>
<text text-anchor="middle" x="290.5" y="-182.5" font-family="Helvetica,sans-Serif" font-size="10.00"> DEFAULT_IMAGE</text>
</g>
<!-- Node9 -->
<g id="node9" class="node"><title>Node9</title>
<g id="a_node9"><a xlink:href="../../d6/d95/classparser_1_1_parser.html" target="_top" xlink:title="parser.Parser">
<polygon fill="white" stroke="black" points="330,-136.5 330,-155.5 410,-155.5 410,-136.5 330,-136.5"/>
<text text-anchor="middle" x="370" y="-143.5" font-family="Helvetica,sans-Serif" font-size="10.00">parser.Parser</text>
</a>
</g>
</g>
<!-- Node9&#45;&gt;Node2 -->
<g id="edge8" class="edge"><title>Node9&#45;&gt;Node2</title>
<path fill="none" stroke="#9a32cd" stroke-dasharray="5,2" d="M381.189,-128.15C388.235,-118.201 397.887,-105.698 408,-96 415.243,-89.0541 424.385,-82.5023 431.887,-77.5925"/>
<polygon fill="#9a32cd" stroke="#9a32cd" points="378.289,-126.19 375.512,-136.414 384.059,-130.153 378.289,-126.19"/>
<text text-anchor="middle" x="432.5" y="-104.5" font-family="Helvetica,sans-Serif" font-size="10.00"> myParser</text>
</g>
<!-- Node10 -->
<g id="node10" class="node"><title>Node10</title>
<polygon fill="white" stroke="#bfbfbf" points="328.5,-306.5 328.5,-325.5 421.5,-325.5 421.5,-306.5 328.5,-306.5"/>
<text text-anchor="middle" x="375" y="-313.5" font-family="Helvetica,sans-Serif" font-size="10.00">ResourceBundle</text>
</g>
<!-- Node10&#45;&gt;Node9 -->
<g id="edge9" class="edge"><title>Node10&#45;&gt;Node9</title>
<path fill="none" stroke="#9a32cd" stroke-dasharray="5,2" d="M371.318,-296.151C368.401,-280.203 364.564,-256.704 363,-236 362.264,-226.25 362.491,-223.765 363,-214 364.095,-192.977 367.111,-168.394 368.805,-155.65"/>
<polygon fill="#9a32cd" stroke="#9a32cd" points="367.937,-297.106 373.235,-306.281 374.815,-295.805 367.937,-297.106"/>
<text text-anchor="middle" x="396.5" y="-222.5" font-family="Helvetica,sans-Serif" font-size="10.00"> myResources</text>
</g>
<!-- Node11 -->
<g id="node11" class="node"><title>Node11</title>
<g id="a_node11"><a xlink:href="../../d5/d9c/classfactories_1_1_command_factory.html" target="_top" xlink:title="factories.CommandFactory">
<polygon fill="white" stroke="black" points="439,-215.5 439,-234.5 585,-234.5 585,-215.5 439,-215.5"/>
<text text-anchor="middle" x="512" y="-222.5" font-family="Helvetica,sans-Serif" font-size="10.00">factories.CommandFactory</text>
</a>
</g>
</g>
<!-- Node10&#45;&gt;Node11 -->
<g id="edge11" class="edge"><title>Node10&#45;&gt;Node11</title>
<path fill="none" stroke="#9a32cd" stroke-dasharray="5,2" d="M387.017,-297.786C397.298,-284.202 413.223,-265.659 431,-254 444.313,-245.269 460.648,-238.945 475.152,-234.541"/>
<polygon fill="#9a32cd" stroke="#9a32cd" points="383.908,-296.109 380.848,-306.253 389.566,-300.232 383.908,-296.109"/>
<text text-anchor="middle" x="467" y="-279.5" font-family="Helvetica,sans-Serif" font-size="10.00"> syntax</text>
<text text-anchor="middle" x="467" y="-268.5" font-family="Helvetica,sans-Serif" font-size="10.00">paramMap</text>
<text text-anchor="middle" x="467" y="-257.5" font-family="Helvetica,sans-Serif" font-size="10.00">translationMap</text>
</g>
<!-- Node11&#45;&gt;Node9 -->
<g id="edge10" class="edge"><title>Node11&#45;&gt;Node9</title>
<path fill="none" stroke="#9a32cd" stroke-dasharray="5,2" d="M487.122,-210.51C457.923,-194.676 410.377,-168.894 385.81,-155.573"/>
<polygon fill="#9a32cd" stroke="#9a32cd" points="485.802,-213.775 496.261,-215.465 489.139,-207.622 485.802,-213.775"/>
<text text-anchor="middle" x="509.5" y="-182.5" font-family="Helvetica,sans-Serif" font-size="10.00"> myCommandFactory</text>
</g>
<!-- Node12 -->
<g id="node12" class="node"><title>Node12</title>
<polygon fill="white" stroke="#bfbfbf" points="459.5,-306.5 459.5,-325.5 548.5,-325.5 548.5,-306.5 459.5,-306.5"/>
<text text-anchor="middle" x="504" y="-313.5" font-family="Helvetica,sans-Serif" font-size="10.00">List&lt; Double &gt;</text>
</g>
<!-- Node12&#45;&gt;Node11 -->
<g id="edge12" class="edge"><title>Node12&#45;&gt;Node11</title>
<path fill="none" stroke="#9a32cd" stroke-dasharray="5,2" d="M505.676,-296.349C507.381,-277.383 509.948,-248.828 511.223,-234.639"/>
<polygon fill="#9a32cd" stroke="#9a32cd" points="502.176,-296.193 504.767,-306.466 509.148,-296.82 502.176,-296.193"/>
<text text-anchor="middle" x="542" y="-279.5" font-family="Helvetica,sans-Serif" font-size="10.00"> trueParams</text>
<text text-anchor="middle" x="542" y="-268.5" font-family="Helvetica,sans-Serif" font-size="10.00">homeParams</text>
<text text-anchor="middle" x="542" y="-257.5" font-family="Helvetica,sans-Serif" font-size="10.00">falseParams</text>
</g>
<!-- Node13 -->
<g id="node13" class="node"><title>Node13</title>
<polygon fill="white" stroke="#bfbfbf" points="567,-306.5 567,-325.5 695,-325.5 695,-306.5 567,-306.5"/>
<text text-anchor="middle" x="631" y="-313.5" font-family="Helvetica,sans-Serif" font-size="10.00">Map&lt; String, Double &gt;</text>
</g>
<!-- Node13&#45;&gt;Node11 -->
<g id="edge13" class="edge"><title>Node13&#45;&gt;Node11</title>
<path fill="none" stroke="#9a32cd" stroke-dasharray="5,2" d="M619.604,-298.073C609.862,-284.655 594.783,-266.194 578,-254 566.521,-245.659 552.177,-239.195 539.797,-234.589"/>
<polygon fill="#9a32cd" stroke="#9a32cd" points="616.847,-300.237 625.453,-306.418 622.58,-296.22 616.847,-300.237"/>
<text text-anchor="middle" x="635" y="-268.5" font-family="Helvetica,sans-Serif" font-size="10.00"> variables</text>
</g>
<!-- Node14 -->
<g id="node14" class="node"><title>Node14</title>
<g id="a_node14"><a xlink:href="../../d3/dcc/classparser_1_1_node.html" target="_top" xlink:title="parser.Node">
<polygon fill="white" stroke="black" points="603.5,-215.5 603.5,-234.5 678.5,-234.5 678.5,-215.5 603.5,-215.5"/>
<text text-anchor="middle" x="641" y="-222.5" font-family="Helvetica,sans-Serif" font-size="10.00">parser.Node</text>
</a>
</g>
</g>
<!-- Node14&#45;&gt;Node9 -->
<g id="edge14" class="edge"><title>Node14&#45;&gt;Node9</title>
<path fill="none" stroke="#9a32cd" stroke-dasharray="5,2" d="M622.875,-208.586C608.245,-197.049 586.606,-181.943 565,-174 503.635,-151.441 483.625,-165.91 419,-156 416.093,-155.554 413.094,-155.068 410.079,-154.56"/>
<polygon fill="#9a32cd" stroke="#9a32cd" points="621.052,-211.615 631.017,-215.213 625.471,-206.186 621.052,-211.615"/>
<text text-anchor="middle" x="631" y="-188" font-family="Helvetica,sans-Serif" font-size="10.00"> myTree</text>
<text text-anchor="middle" x="631" y="-177" font-family="Helvetica,sans-Serif" font-size="10.00">myListTree</text>
</g>
<!-- Node14&#45;&gt;Node14 -->
<g id="edge15" class="edge"><title>Node14&#45;&gt;Node14</title>
<path fill="none" stroke="#9a32cd" stroke-dasharray="5,2" d="M688.771,-230.996C693.204,-229.76 696,-227.761 696,-225 696,-220.469 688.472,-217.991 678.532,-217.566"/>
<polygon fill="#9a32cd" stroke="#9a32cd" points="687.948,-227.578 678.532,-232.434 688.921,-234.51 687.948,-227.578"/>
<text text-anchor="middle" x="720" y="-228" font-family="Helvetica,sans-Serif" font-size="10.00"> myChild1</text>
<text text-anchor="middle" x="720" y="-217" font-family="Helvetica,sans-Serif" font-size="10.00">myChild2</text>
</g>
<!-- Node15 -->
<g id="node15" class="node"><title>Node15</title>
<polygon fill="white" stroke="#bfbfbf" points="428,-136.5 428,-155.5 538,-155.5 538,-136.5 428,-136.5"/>
<text text-anchor="middle" x="483" y="-143.5" font-family="Helvetica,sans-Serif" font-size="10.00">List&lt; turtle.Turtle &gt;</text>
</g>
<!-- Node15&#45;&gt;Node2 -->
<g id="edge16" class="edge"><title>Node15&#45;&gt;Node2</title>
<path fill="none" stroke="#9a32cd" stroke-dasharray="5,2" d="M474.296,-127.122C466.705,-111.53 456.022,-89.5862 450.195,-77.6165"/>
<polygon fill="#9a32cd" stroke="#9a32cd" points="471.231,-128.823 478.756,-136.282 477.525,-125.759 471.231,-128.823"/>
<text text-anchor="middle" x="493.5" y="-104.5" font-family="Helvetica,sans-Serif" font-size="10.00"> myTurtles</text>
</g>
<!-- Node16 -->
<g id="node16" class="node"><title>Node16</title>
<polygon fill="white" stroke="#bfbfbf" points="556.5,-136.5 556.5,-155.5 597.5,-155.5 597.5,-136.5 556.5,-136.5"/>
<text text-anchor="middle" x="577" y="-143.5" font-family="Helvetica,sans-Serif" font-size="10.00">Color</text>
</g>
<!-- Node16&#45;&gt;Node2 -->
<g id="edge17" class="edge"><title>Node16&#45;&gt;Node2</title>
<path fill="none" stroke="#9a32cd" stroke-dasharray="5,2" d="M562.183,-128.88C551.781,-118.344 537.083,-104.93 522,-96 508.626,-88.0816 492.561,-81.9538 478.654,-77.5526"/>
<polygon fill="#9a32cd" stroke="#9a32cd" points="559.794,-131.446 569.235,-136.255 564.853,-126.609 559.794,-131.446"/>
<text text-anchor="middle" x="593.5" y="-104.5" font-family="Helvetica,sans-Serif" font-size="10.00"> TURTLE_DEFAULT</text>
</g>
</g>
</svg>
        <g id="navigator" transform="translate(0 0)" fill="#404254">
                <rect fill="#f2f5e9" fill-opacity="0.5" stroke="#606060" stroke-width=".5" x="0" y="0" width="60" height="60"/>
                <use id="zoomplus" xlink:href="#zoomPlus" x="17" y="9" onmousedown="handleZoom(evt,'in')"/>
                <use id="zoomminus" xlink:href="#zoomMin" x="42" y="9" onmousedown="handleZoom(evt,'out')"/>
                <use id="reset" xlink:href="#resetDef" x="30" y="36" onmousedown="handleReset()"/>
                <g id="arrowUp" xlink:href="#dirArrow" transform="translate(30 24)" onmousedown="handlePan(0,-1)">
                  <use xlink:href="#rim" fill="#404040">
                        <set attributeName="fill" to="#808080" begin="arrowUp.mouseover" end="arrowUp.mouseout"/>
                  </use>
                  <path fill="none" stroke="white" stroke-width="1.5" d="M0,-3.0v7 M-2.5,-0.5L0,-3.0L2.5,-0.5"/>
                </g>
                <g id="arrowRight" xlink:href="#dirArrow" transform="rotate(90) translate(36 -43)" onmousedown="handlePan(1,0)">
                  <use xlink:href="#rim" fill="#404040">
                        <set attributeName="fill" to="#808080" begin="arrowRight.mouseover" end="arrowRight.mouseout"/>
                  </use>
                  <path fill="none" stroke="white" stroke-width="1.5" d="M0,-3.0v7 M-2.5,-0.5L0,-3.0L2.5,-0.5"/>
                </g>
                <g id="arrowDown" xlink:href="#dirArrow" transform="rotate(180) translate(-30 -48)" onmousedown="handlePan(0,1)">
                  <use xlink:href="#rim" fill="#404040">
                        <set attributeName="fill" to="#808080" begin="arrowDown.mouseover" end="arrowDown.mouseout"/>
                  </use>
                  <path fill="none" stroke="white" stroke-width="1.5" d="M0,-3.0v7 M-2.5,-0.5L0,-3.0L2.5,-0.5"/>
                </g>
                <g id="arrowLeft" xlink:href="#dirArrow" transform="rotate(270) translate(-36 17)" onmousedown="handlePan(-1,0)">
                  <use xlink:href="#rim" fill="#404040">
                        <set attributeName="fill" to="#808080" begin="arrowLeft.mouseover" end="arrowLeft.mouseout"/>
                  </use>
                  <path fill="none" stroke="white" stroke-width="1.5" d="M0,-3.0v7 M-2.5,-0.5L0,-3.0L2.5,-0.5"/>
                </g>
        </g>
        <svg viewBox="0 0 15 15" width="100%" height="30px" preserveAspectRatio="xMaxYMin meet">
         <g id="arrow_out" transform="scale(0.3 0.3)">
          <a xlink:href="classworld_1_1_unbounded_world__coll__graph_org.svg" target="_base">
           <rect id="button" ry="5" rx="5" y="6" x="6" height="38" width="38"
                fill="#f2f5e9" fill-opacity="0.5" stroke="#606060" stroke-width="1.0"/>
           <path id="arrow"
             d="M 11.500037,31.436501 C 11.940474,20.09759 22.043105,11.32322 32.158766,21.979434 L 37.068811,17.246167 C 37.068811,17.246167 37.088388,32 37.088388,32 L 22.160133,31.978069 C 22.160133,31.978069 26.997745,27.140456 26.997745,27.140456 C 18.528582,18.264221 13.291696,25.230495 11.500037,31.436501 z"
             style="fill:#404040;"/>
          </a>
         </g>
        </svg>
</svg>
