<?xml version="1.0" encoding="UTF-8" standalone="no"?>
<!DOCTYPE svg PUBLIC "-//W3C//DTD SVG 1.1//EN"
 "http://www.w3.org/Graphics/SVG/1.1/DTD/svg11.dtd">
<!-- Generated by graphviz version 2.36.0 (20140111.2315)
 -->
<!-- Title: world.UnboundedWorld Pages: 1 -->
<!--zoomable 780 -->
<svg id="main" version="1.1" xmlns="http://www.w3.org/2000/svg" xmlns:xlink="http://www.w3.org/1999/xlink" xml:space="preserve" onload="init(evt)">
<style type="text/css"><![CDATA[
.edge:hover path { stroke: red; }
.edge:hover polygon { stroke: red; fill: red; }
]]></style>
<script type="text/javascript"><![CDATA[
var edges = document.getElementsByTagName('g');
if (edges && edges.length) {
  for (var i=0;i<edges.length;i++) {
    if (edges[i].id.substr(0,4)=='edge') {
      edges[i].setAttribute('class','edge');
    }
  }
}
]]></script>
        <defs>
                <circle id="rim" cx="0" cy="0" r="7"/>
                <circle id="rim2" cx="0" cy="0" r="3.5"/>
                <g id="zoomPlus">
                        <use xlink:href="#rim" fill="#404040">
                                <set attributeName="fill" to="#808080" begin="zoomplus.mouseover" end="zoomplus.mouseout"/>
                        </use>
                        <path d="M-4,0h8M0,-4v8" fill="none" stroke="white" stroke-width="1.5" pointer-events="none"/>
                </g>
                <g id="zoomMin">
                        <use xlink:href="#rim" fill="#404040">
                                <set attributeName="fill" to="#808080" begin="zoomminus.mouseover" end="zoomminus.mouseout"/>
                        </use>
                        <path d="M-4,0h8" fill="none" stroke="white" stroke-width="1.5" pointer-events="none"/>
                </g>
                <g id="dirArrow">
                        <path fill="none" stroke="white" stroke-width="1.5" d="M0,-3.0v7 M-2.5,-0.5L0,-3.0L2.5,-0.5"/>
                </g>
               <g id="resetDef">
                       <use xlink:href="#rim2" fill="#404040">
                               <set attributeName="fill" to="#808080" begin="reset.mouseover" end="reset.mouseout"/>
                       </use>
               </g>
        </defs>

<script type="text/javascript">
var viewWidth = 1054;
var viewHeight = 780;
var sectionId = 'dynsection-1';
</script>
<script xlink:href="../../svgpan.js"/>
<svg id="graph" class="graph">
<g id="viewport">
<title>world.UnboundedWorld</title>
<polygon fill="white" stroke="none" points="-4,4 -4,-776.185 1050,-776.185 1050,4 -4,4"/>
<!-- Node1 -->
<g id="node1" class="node"><title>Node1</title>
<polygon fill="#bfbfbf" stroke="black" points="920.5,-209.685 920.5,-228.685 1045.5,-228.685 1045.5,-209.685 920.5,-209.685"/>
<text text-anchor="middle" x="983" y="-216.685" font-family="Helvetica,sans-Serif" font-size="10.00">world.UnboundedWorld</text>
</g>
<!-- Node2 -->
<g id="node2" class="node"><title>Node2</title>
<g id="a_node2"><a xlink:href="../../d9/dd0/classworld_1_1_world.html" target="_top" xlink:title="world.World">
<polygon fill="white" stroke="black" points="812,-209.685 812,-228.685 882,-228.685 882,-209.685 812,-209.685"/>
<text text-anchor="middle" x="847" y="-216.685" font-family="Helvetica,sans-Serif" font-size="10.00">world.World</text>
</a>
</g>
</g>
<!-- Node2&#45;&gt;Node1 -->
<g id="edge1" class="edge"><title>Node2&#45;&gt;Node1</title>
<path fill="none" stroke="midnightblue" d="M892.346,-219.185C901.299,-219.185 910.865,-219.185 920.29,-219.185"/>
<polygon fill="midnightblue" stroke="midnightblue" points="892.161,-215.685 882.161,-219.185 892.161,-222.685 892.161,-215.685"/>
</g>
<!-- Node3 -->
<g id="node3" class="node"><title>Node3</title>
<polygon fill="white" stroke="#bfbfbf" points="0,-502.185 0,-532.185 134,-532.185 134,-502.185 0,-502.185"/>
<text text-anchor="start" x="8" y="-520.185" font-family="Helvetica,sans-Serif" font-size="10.00">ObservableMap&lt; String,</text>
<text text-anchor="middle" x="67" y="-509.185" font-family="Helvetica,sans-Serif" font-size="10.00"> String &gt;</text>
</g>
<!-- Node3&#45;&gt;Node2 -->
<g id="edge2" class="edge"><title>Node3&#45;&gt;Node2</title>
<path fill="none" stroke="#9a32cd" stroke-dasharray="5,2" d="M137.447,-534.084C142.353,-534.91 147.239,-535.627 152,-536.185 313.85,-555.172 366.639,-574.565 518,-514.185 653.576,-460.102 699.065,-447.059 794,-336.185 822.77,-302.585 838.233,-250.524 843.693,-229.006"/>
<polygon fill="#9a32cd" stroke="#9a32cd" points="137.852,-530.6 127.386,-532.249 136.596,-537.486 137.852,-530.6"/>
<text text-anchor="middle" x="466" y="-550.185" font-family="Helvetica,sans-Serif" font-size="10.00"> functions</text>
</g>
<!-- Node12 -->
<g id="node12" class="node"><title>Node12</title>
<g id="a_node12"><a xlink:href="../../d6/d95/classparser_1_1_parser.html" target="_top" xlink:title="parser.Parser">
<polygon fill="white" stroke="black" points="573,-306.685 573,-325.685 653,-325.685 653,-306.685 573,-306.685"/>
<text text-anchor="middle" x="613" y="-313.685" font-family="Helvetica,sans-Serif" font-size="10.00">parser.Parser</text>
</a>
</g>
</g>
<!-- Node3&#45;&gt;Node12 -->
<g id="edge12" class="edge"><title>Node3&#45;&gt;Node12</title>
<path fill="none" stroke="#9a32cd" stroke-dasharray="5,2" d="M144.324,-520.52C256.201,-523.991 457.957,-524.438 518,-486.185 578.585,-447.588 603.427,-355.532 610.063,-325.696"/>
<polygon fill="#9a32cd" stroke="#9a32cd" points="144.224,-517.015 134.115,-520.187 143.996,-524.012 144.224,-517.015"/>
<text text-anchor="middle" x="319" y="-525.185" font-family="Helvetica,sans-Serif" font-size="10.00"> functions</text>
</g>
<!-- Node13 -->
<g id="node13" class="node"><title>Node13</title>
<g id="a_node13"><a xlink:href="../../d9/d1b/classcommand_1_1_command_factory.html" target="_top" xlink:title="command.CommandFactory">
<polygon fill="white" stroke="black" points="242.5,-329.685 242.5,-348.685 395.5,-348.685 395.5,-329.685 242.5,-329.685"/>
<text text-anchor="middle" x="319" y="-336.685" font-family="Helvetica,sans-Serif" font-size="10.00">command.CommandFactory</text>
</a>
</g>
</g>
<!-- Node3&#45;&gt;Node13 -->
<g id="edge14" class="edge"><title>Node3&#45;&gt;Node13</title>
<path fill="none" stroke="#9a32cd" stroke-dasharray="5,2" d="M109.311,-497.444C144.115,-478.952 193.052,-448.32 224,-409.185 237.618,-391.965 225.964,-378.18 242,-363.185 248.772,-356.854 257.204,-352.192 265.965,-348.761"/>
<polygon fill="#9a32cd" stroke="#9a32cd" points="107.599,-494.389 100.342,-502.108 110.828,-500.6 107.599,-494.389"/>
<text text-anchor="middle" x="188" y="-474.185" font-family="Helvetica,sans-Serif" font-size="10.00"> functions</text>
</g>
<!-- Node4 -->
<g id="node4" class="node"><title>Node4</title>
<polygon fill="white" stroke="#bfbfbf" points="3.5,-416.685 3.5,-435.685 130.5,-435.685 130.5,-416.685 3.5,-416.685"/>
<text text-anchor="middle" x="67" y="-423.685" font-family="Helvetica,sans-Serif" font-size="10.00">List&lt; ObjectProperty &gt;</text>
</g>
<!-- Node4&#45;&gt;Node2 -->
<g id="edge3" class="edge"><title>Node4&#45;&gt;Node2</title>
<path fill="none" stroke="#9a32cd" stroke-dasharray="5,2" d="M89.5437,-441.582C105.825,-452.226 129.196,-465.462 152,-471.185 257.922,-497.77 289.973,-468.349 396,-442.185 579.53,-396.897 646.06,-409.862 794,-292.185 816.407,-274.362 833.467,-244.448 841.291,-229.031"/>
<polygon fill="#9a32cd" stroke="#9a32cd" points="91.0784,-438.395 80.8344,-435.691 87.1563,-444.193 91.0784,-438.395"/>
<text text-anchor="middle" x="466" y="-441.185" font-family="Helvetica,sans-Serif" font-size="10.00"> bindings</text>
</g>
<!-- Node4&#45;&gt;Node12 -->
<g id="edge19" class="edge"><title>Node4&#45;&gt;Node12</title>
<path fill="none" stroke="#9a32cd" stroke-dasharray="5,2" d="M140.859,-428.988C232.342,-429.954 392.5,-423.089 518,-372.185 548.805,-359.691 581.42,-338.11 598.975,-325.704"/>
<polygon fill="#9a32cd" stroke="#9a32cd" points="140.642,-425.484 130.594,-428.843 140.543,-432.484 140.642,-425.484"/>
<text text-anchor="middle" x="319" y="-430.185" font-family="Helvetica,sans-Serif" font-size="10.00"> bindings</text>
</g>
<!-- Node4&#45;&gt;Node13 -->
<g id="edge15" class="edge"><title>Node4&#45;&gt;Node13</title>
<path fill="none" stroke="#9a32cd" stroke-dasharray="5,2" d="M102.991,-413.033C138.021,-399.98 193.534,-379.604 242,-363.185 256.678,-358.213 273.059,-352.998 286.845,-348.704"/>
<polygon fill="#9a32cd" stroke="#9a32cd" points="101.386,-409.896 93.2424,-416.673 103.835,-416.453 101.386,-409.896"/>
<text text-anchor="middle" x="188" y="-397.185" font-family="Helvetica,sans-Serif" font-size="10.00"> bindings</text>
</g>
<!-- Node5 -->
<g id="node5" class="node"><title>Node5</title>
<g id="a_node5"><a xlink:href="../../df/dcb/classturtle_1_1_turtle.html" target="_top" xlink:title="turtle.Turtle">
<polygon fill="white" stroke="black" points="577.5,-643.685 577.5,-662.685 648.5,-662.685 648.5,-643.685 577.5,-643.685"/>
<text text-anchor="middle" x="613" y="-650.685" font-family="Helvetica,sans-Serif" font-size="10.00">turtle.Turtle</text>
</a>
</g>
</g>
<!-- Node5&#45;&gt;Node2 -->
<g id="edge4" class="edge"><title>Node5&#45;&gt;Node2</title>
<path fill="none" stroke="#9a32cd" stroke-dasharray="5,2" d="M658.628,-645.135C700.497,-635.112 761.408,-613.695 794,-570.185 836.103,-513.979 844.457,-279.472 845.781,-228.847"/>
<polygon fill="#9a32cd" stroke="#9a32cd" points="657.666,-641.764 648.686,-647.387 659.213,-648.591 657.666,-641.764"/>
<text text-anchor="middle" x="751" y="-641.185" font-family="Helvetica,sans-Serif" font-size="10.00"> myTurtle</text>
<text text-anchor="middle" x="751" y="-630.185" font-family="Helvetica,sans-Serif" font-size="10.00">activeTurtle</text>
</g>
<!-- Node6 -->
<g id="node6" class="node"><title>Node6</title>
<polygon fill="white" stroke="#bfbfbf" points="285,-584.685 285,-603.685 353,-603.685 353,-584.685 285,-584.685"/>
<text text-anchor="middle" x="319" y="-591.685" font-family="Helvetica,sans-Serif" font-size="10.00">ImageView</text>
</g>
<!-- Node6&#45;&gt;Node5 -->
<g id="edge5" class="edge"><title>Node6&#45;&gt;Node5</title>
<path fill="none" stroke="midnightblue" d="M363.329,-602.112C403.494,-609.552 464.877,-621.156 518,-632.185 537.647,-636.264 559.529,-641.134 577.234,-645.156"/>
<polygon fill="midnightblue" stroke="midnightblue" points="363.812,-598.642 353.343,-600.267 362.54,-605.525 363.812,-598.642"/>
</g>
<!-- Node7 -->
<g id="node7" class="node"><title>Node7</title>
<polygon fill="white" stroke="#bfbfbf" points="249,-752.685 249,-771.685 389,-771.685 389,-752.685 249,-752.685"/>
<text text-anchor="middle" x="319" y="-759.685" font-family="Helvetica,sans-Serif" font-size="10.00">ObjectProperty&lt; Image &gt;</text>
</g>
<!-- Node7&#45;&gt;Node5 -->
<g id="edge6" class="edge"><title>Node7&#45;&gt;Node5</title>
<path fill="none" stroke="#9a32cd" stroke-dasharray="5,2" d="M399.421,-760.615C436.781,-757.395 481.117,-749.89 518,-733.185 555.285,-716.299 589.259,-680.078 604.108,-662.773"/>
<polygon fill="#9a32cd" stroke="#9a32cd" points="398.781,-757.154 389.081,-761.414 399.32,-764.133 398.781,-757.154"/>
<text text-anchor="middle" x="466" y="-761.185" font-family="Helvetica,sans-Serif" font-size="10.00"> myImage</text>
</g>
<!-- Node8 -->
<g id="node8" class="node"><title>Node8</title>
<g id="a_node8"><a xlink:href="../../de/d57/classturtle_1_1_pen.html" target="_top" xlink:title="turtle.Pen">
<polygon fill="white" stroke="black" points="287.5,-622.685 287.5,-641.685 350.5,-641.685 350.5,-622.685 287.5,-622.685"/>
<text text-anchor="middle" x="319" y="-629.685" font-family="Helvetica,sans-Serif" font-size="10.00">turtle.Pen</text>
</a>
</g>
</g>
<!-- Node8&#45;&gt;Node5 -->
<g id="edge7" class="edge"><title>Node8&#45;&gt;Node5</title>
<path fill="none" stroke="#9a32cd" stroke-dasharray="5,2" d="M360.73,-633.847C400.789,-635.622 463.661,-638.788 518,-643.185 537.63,-644.774 559.511,-647.07 577.22,-649.062"/>
<polygon fill="#9a32cd" stroke="#9a32cd" points="360.703,-630.342 350.56,-633.404 360.398,-637.336 360.703,-630.342"/>
<text text-anchor="middle" x="466" y="-646.185" font-family="Helvetica,sans-Serif" font-size="10.00"> myPen</text>
</g>
<!-- Node9 -->
<g id="node9" class="node"><title>Node9</title>
<polygon fill="white" stroke="#bfbfbf" points="47,-622.685 47,-641.685 87,-641.685 87,-622.685 47,-622.685"/>
<text text-anchor="middle" x="67" y="-629.685" font-family="Helvetica,sans-Serif" font-size="10.00">Paint</text>
</g>
<!-- Node9&#45;&gt;Node8 -->
<g id="edge8" class="edge"><title>Node9&#45;&gt;Node8</title>
<path fill="none" stroke="#9a32cd" stroke-dasharray="5,2" d="M97.4699,-632.185C145.174,-632.185 238.843,-632.185 287.315,-632.185"/>
<polygon fill="#9a32cd" stroke="#9a32cd" points="97.202,-628.685 87.202,-632.185 97.2019,-635.685 97.202,-628.685"/>
<text text-anchor="middle" x="188" y="-635.185" font-family="Helvetica,sans-Serif" font-size="10.00"> myPenColor</text>
</g>
<!-- Node10 -->
<g id="node10" class="node"><title>Node10</title>
<polygon fill="white" stroke="#bfbfbf" points="292,-698.685 292,-717.685 346,-717.685 346,-698.685 292,-698.685"/>
<text text-anchor="middle" x="319" y="-705.685" font-family="Helvetica,sans-Serif" font-size="10.00">Point2D</text>
</g>
<!-- Node10&#45;&gt;Node5 -->
<g id="edge9" class="edge"><title>Node10&#45;&gt;Node5</title>
<path fill="none" stroke="#9a32cd" stroke-dasharray="5,2" d="M356.169,-704.258C396.048,-699.61 461.984,-690.987 518,-679.185 539.373,-674.683 563.075,-668.116 581.331,-662.708"/>
<polygon fill="#9a32cd" stroke="#9a32cd" points="355.665,-700.793 346.129,-705.408 356.462,-707.747 355.665,-700.793"/>
<text text-anchor="middle" x="466" y="-721.185" font-family="Helvetica,sans-Serif" font-size="10.00"> goal</text>
<text text-anchor="middle" x="466" y="-710.185" font-family="Helvetica,sans-Serif" font-size="10.00">next</text>
<text text-anchor="middle" x="466" y="-699.185" font-family="Helvetica,sans-Serif" font-size="10.00">current</text>
</g>
<!-- Node11 -->
<g id="node11" class="node"><title>Node11</title>
<polygon fill="white" stroke="#bfbfbf" points="295.5,-660.685 295.5,-679.685 342.5,-679.685 342.5,-660.685 295.5,-660.685"/>
<text text-anchor="middle" x="319" y="-667.685" font-family="Helvetica,sans-Serif" font-size="10.00">Image</text>
</g>
<!-- Node11&#45;&gt;Node5 -->
<g id="edge10" class="edge"><title>Node11&#45;&gt;Node5</title>
<path fill="none" stroke="#9a32cd" stroke-dasharray="5,2" d="M352.93,-668.268C408.529,-665.031 520.491,-658.513 577.276,-655.207"/>
<polygon fill="#9a32cd" stroke="#9a32cd" points="352.692,-664.776 342.913,-668.851 353.099,-671.764 352.692,-664.776"/>
<text text-anchor="middle" x="466" y="-667.185" font-family="Helvetica,sans-Serif" font-size="10.00"> DEFAULT_IMAGE</text>
</g>
<!-- Node12&#45;&gt;Node2 -->
<g id="edge11" class="edge"><title>Node12&#45;&gt;Node2</title>
<path fill="none" stroke="#9a32cd" stroke-dasharray="5,2" d="M646.617,-302.548C694.219,-282.646 781.552,-246.131 823,-228.802"/>
<polygon fill="#9a32cd" stroke="#9a32cd" points="644.969,-299.443 637.093,-306.53 647.669,-305.902 644.969,-299.443"/>
<text text-anchor="middle" x="751" y="-280.185" font-family="Helvetica,sans-Serif" font-size="10.00"> myParser</text>
</g>
<!-- Node13&#45;&gt;Node12 -->
<g id="edge13" class="edge"><title>Node13&#45;&gt;Node12</title>
<path fill="none" stroke="#9a32cd" stroke-dasharray="5,2" d="M405.74,-332.432C461.094,-328.072 530.464,-322.608 572.989,-319.258"/>
<polygon fill="#9a32cd" stroke="#9a32cd" points="405.271,-328.958 395.577,-333.232 405.821,-335.936 405.271,-328.958"/>
<text text-anchor="middle" x="466" y="-335.185" font-family="Helvetica,sans-Serif" font-size="10.00"> myCommandFactory</text>
</g>
<!-- Node14 -->
<g id="node14" class="node"><title>Node14</title>
<polygon fill="white" stroke="#bfbfbf" points="20.5,-343.685 20.5,-362.685 113.5,-362.685 113.5,-343.685 20.5,-343.685"/>
<text text-anchor="middle" x="67" y="-350.685" font-family="Helvetica,sans-Serif" font-size="10.00">ResourceBundle</text>
</g>
<!-- Node14&#45;&gt;Node12 -->
<g id="edge20" class="edge"><title>Node14&#45;&gt;Node12</title>
<path fill="none" stroke="#9a32cd" stroke-dasharray="5,2" d="M95.0399,-367.235C111.115,-374.789 132.178,-383.326 152,-387.185 183.41,-393.301 192.073,-389.347 224,-387.185 355.569,-378.276 389.509,-376.849 518,-347.185 541.943,-341.658 568.468,-332.633 587.219,-325.742"/>
<polygon fill="#9a32cd" stroke="#9a32cd" points="96.2546,-363.934 85.7307,-362.71 93.1941,-370.23 96.2546,-363.934"/>
<text text-anchor="middle" x="319" y="-389.185" font-family="Helvetica,sans-Serif" font-size="10.00"> myResources</text>
</g>
<!-- Node14&#45;&gt;Node13 -->
<g id="edge16" class="edge"><title>Node14&#45;&gt;Node13</title>
<path fill="none" stroke="#9a32cd" stroke-dasharray="5,2" d="M95.7112,-339.262C111.72,-332.001 132.494,-323.879 152,-320.185 197.744,-311.522 251.379,-321.19 285.03,-329.609"/>
<polygon fill="#9a32cd" stroke="#9a32cd" points="93.9794,-336.208 86.413,-343.624 96.9528,-342.545 93.9794,-336.208"/>
<text text-anchor="middle" x="188" y="-345.185" font-family="Helvetica,sans-Serif" font-size="10.00"> syntax</text>
<text text-anchor="middle" x="188" y="-334.185" font-family="Helvetica,sans-Serif" font-size="10.00">paramMap</text>
<text text-anchor="middle" x="188" y="-323.185" font-family="Helvetica,sans-Serif" font-size="10.00">translationMap</text>
</g>
<!-- Node15 -->
<g id="node15" class="node"><title>Node15</title>
<polygon fill="white" stroke="#bfbfbf" points="0,-237.185 0,-267.185 134,-267.185 134,-237.185 0,-237.185"/>
<text text-anchor="start" x="8" y="-255.185" font-family="Helvetica,sans-Serif" font-size="10.00">ObservableMap&lt; String,</text>
<text text-anchor="middle" x="67" y="-244.185" font-family="Helvetica,sans-Serif" font-size="10.00"> Double &gt;</text>
</g>
<!-- Node15&#45;&gt;Node2 -->
<g id="edge25" class="edge"><title>Node15&#45;&gt;Node2</title>
<path fill="none" stroke="#9a32cd" stroke-dasharray="5,2" d="M89.9599,-229.78C105.702,-215.398 128.248,-198.002 152,-190.185 182.396,-180.182 192.003,-189.72 224,-190.185 448.561,-193.449 718.28,-210.514 811.974,-216.831"/>
<polygon fill="#9a32cd" stroke="#9a32cd" points="87.2326,-227.542 82.3775,-236.959 92.0454,-232.625 87.2326,-227.542"/>
<text text-anchor="middle" x="466" y="-203.185" font-family="Helvetica,sans-Serif" font-size="10.00"> variables</text>
</g>
<!-- Node15&#45;&gt;Node12 -->
<g id="edge23" class="edge"><title>Node15&#45;&gt;Node12</title>
<path fill="none" stroke="#9a32cd" stroke-dasharray="5,2" d="M144.206,-261.456C174.623,-265.138 209.966,-269.391 242,-273.185 362.572,-287.467 505.303,-303.929 572.837,-311.691"/>
<polygon fill="#9a32cd" stroke="#9a32cd" points="144.44,-257.959 134.092,-260.231 143.598,-264.909 144.44,-257.959"/>
<text text-anchor="middle" x="319" y="-294.185" font-family="Helvetica,sans-Serif" font-size="10.00"> variables</text>
</g>
<!-- Node15&#45;&gt;Node13 -->
<g id="edge17" class="edge"><title>Node15&#45;&gt;Node13</title>
<path fill="none" stroke="#9a32cd" stroke-dasharray="5,2" d="M139.949,-270.084C167.047,-278.144 197.662,-288.878 224,-302.185 232.808,-306.635 233.183,-310.754 242,-315.185 253.745,-321.088 267.239,-325.915 279.567,-329.651"/>
<polygon fill="#9a32cd" stroke="#9a32cd" points="140.719,-266.663 130.139,-267.235 138.767,-273.385 140.719,-266.663"/>
<text text-anchor="middle" x="188" y="-305.185" font-family="Helvetica,sans-Serif" font-size="10.00"> variables</text>
</g>
<!-- Node16 -->
<g id="node16" class="node"><title>Node16</title>
<polygon fill="white" stroke="#bfbfbf" points="0,-127.685 0,-146.685 134,-146.685 134,-127.685 0,-127.685"/>
<text text-anchor="middle" x="67" y="-134.685" font-family="Helvetica,sans-Serif" font-size="10.00">ObservableList&lt; Color &gt;</text>
</g>
<!-- Node16&#45;&gt;Node2 -->
<g id="edge26" class="edge"><title>Node16&#45;&gt;Node2</title>
<path fill="none" stroke="#9a32cd" stroke-dasharray="5,2" d="M131.393,-126.088C218.895,-112.583 381.374,-94.0438 518,-115.185 636.957,-133.593 771.859,-187.455 823.907,-209.555"/>
<polygon fill="#9a32cd" stroke="#9a32cd" points="130.693,-122.655 121.358,-127.666 131.78,-129.57 130.693,-122.655"/>
<text text-anchor="middle" x="466" y="-118.185" font-family="Helvetica,sans-Serif" font-size="10.00"> colors</text>
</g>
<!-- Node16&#45;&gt;Node12 -->
<g id="edge24" class="edge"><title>Node16&#45;&gt;Node12</title>
<path fill="none" stroke="#9a32cd" stroke-dasharray="5,2" d="M144.552,-131.387C256.235,-124.366 457.17,-117.607 518,-154.185 577.077,-189.71 602.772,-277.495 609.86,-306.622"/>
<polygon fill="#9a32cd" stroke="#9a32cd" points="144.114,-127.908 134.36,-132.044 144.565,-134.893 144.114,-127.908"/>
<text text-anchor="middle" x="319" y="-132.185" font-family="Helvetica,sans-Serif" font-size="10.00"> colors</text>
</g>
<!-- Node16&#45;&gt;Node13 -->
<g id="edge18" class="edge"><title>Node16&#45;&gt;Node13</title>
<path fill="none" stroke="#9a32cd" stroke-dasharray="5,2" d="M95.3827,-151.931C130.142,-171.993 189.701,-211.08 224,-260.185 238.728,-281.271 223.719,-297.093 242,-315.185 248.393,-321.512 256.439,-326.173 264.886,-329.606"/>
<polygon fill="#9a32cd" stroke="#9a32cd" points="96.7057,-148.658 86.2779,-146.784 93.2611,-154.752 96.7057,-148.658"/>
<text text-anchor="middle" x="188" y="-263.185" font-family="Helvetica,sans-Serif" font-size="10.00"> colors</text>
</g>
<!-- Node17 -->
<g id="node17" class="node"><title>Node17</title>
<g id="a_node17"><a xlink:href="../../d3/dcc/classparser_1_1_node.html" target="_top" xlink:title="parser.Node">
<polygon fill="white" stroke="black" points="281.5,-204.685 281.5,-223.685 356.5,-223.685 356.5,-204.685 281.5,-204.685"/>
<text text-anchor="middle" x="319" y="-211.685" font-family="Helvetica,sans-Serif" font-size="10.00">parser.Node</text>
</a>
</g>
</g>
<!-- Node17&#45;&gt;Node12 -->
<g id="edge21" class="edge"><title>Node17&#45;&gt;Node12</title>
<path fill="none" stroke="#9a32cd" stroke-dasharray="5,2" d="M366.58,-222.413C407.389,-230.447 467.845,-244.366 518,-264.185 547.66,-275.906 579.637,-295.17 597.602,-306.67"/>
<polygon fill="#9a32cd" stroke="#9a32cd" points="367.128,-218.955 356.646,-220.498 365.802,-225.828 367.128,-218.955"/>
<text text-anchor="middle" x="466" y="-278.185" font-family="Helvetica,sans-Serif" font-size="10.00"> myTree</text>
<text text-anchor="middle" x="466" y="-267.185" font-family="Helvetica,sans-Serif" font-size="10.00">myListTree</text>
</g>
<!-- Node17&#45;&gt;Node17 -->
<g id="edge22" class="edge"><title>Node17&#45;&gt;Node17</title>
<path fill="none" stroke="#9a32cd" stroke-dasharray="5,2" d="M294.819,-233.215C296.138,-238.313 304.198,-242.185 319,-242.185 342.105,-242.185 348.784,-232.751 339.037,-223.942"/>
<polygon fill="#9a32cd" stroke="#9a32cd" points="298.078,-234.5 298.963,-223.942 291.687,-231.644 298.078,-234.5"/>
<text text-anchor="middle" x="319" y="-256.185" font-family="Helvetica,sans-Serif" font-size="10.00"> myChild1</text>
<text text-anchor="middle" x="319" y="-245.185" font-family="Helvetica,sans-Serif" font-size="10.00">myChild2</text>
</g>
<!-- Node18 -->
<g id="node18" class="node"><title>Node18</title>
<polygon fill="white" stroke="#bfbfbf" points="536.5,-43.6854 536.5,-62.6854 689.5,-62.6854 689.5,-43.6854 536.5,-43.6854"/>
<text text-anchor="middle" x="613" y="-50.6854" font-family="Helvetica,sans-Serif" font-size="10.00">Map&lt; Integer, turtle.Turtle &gt;</text>
</g>
<!-- Node18&#45;&gt;Node2 -->
<g id="edge27" class="edge"><title>Node18&#45;&gt;Node2</title>
<path fill="none" stroke="#9a32cd" stroke-dasharray="5,2" d="M669.245,-42.3425C708.049,-37.9825 759.059,-39.1997 794,-66.1854 840.628,-102.197 845.748,-182.083 846.083,-209.629"/>
<polygon fill="#9a32cd" stroke="#9a32cd" points="668.631,-38.8923 659.155,-43.6305 669.518,-45.836 668.631,-38.8923"/>
<text text-anchor="middle" x="751" y="-69.1854" font-family="Helvetica,sans-Serif" font-size="10.00"> myTurtles</text>
</g>
<!-- Node19 -->
<g id="node19" class="node"><title>Node19</title>
<polygon fill="white" stroke="#bfbfbf" points="592.5,-5.68538 592.5,-24.6854 633.5,-24.6854 633.5,-5.68538 592.5,-5.68538"/>
<text text-anchor="middle" x="613" y="-12.6854" font-family="Helvetica,sans-Serif" font-size="10.00">Color</text>
</g>
<!-- Node19&#45;&gt;Node2 -->
<g id="edge28" class="edge"><title>Node19&#45;&gt;Node2</title>
<path fill="none" stroke="#9a32cd" stroke-dasharray="5,2" d="M643.878,-7.39601C682.987,0.868807 751.536,8.45835 794,-26.1854 823.309,-50.0965 840.409,-173.24 844.84,-209.271"/>
<polygon fill="#9a32cd" stroke="#9a32cd" points="642.652,-4.08508 633.674,-9.71048 644.201,-10.9117 642.652,-4.08508"/>
<text text-anchor="middle" x="751" y="-29.1854" font-family="Helvetica,sans-Serif" font-size="10.00"> TURTLE_DEFAULT</text>
</g>
</g>
</svg>
        <g id="navigator" transform="translate(0 0)" fill="#404254">
                <rect fill="#f2f5e9" fill-opacity="0.5" stroke="#606060" stroke-width=".5" x="0" y="0" width="60" height="60"/>
                <use id="zoomplus" xlink:href="#zoomPlus" x="17" y="9" onmousedown="handleZoom(evt,'in')"/>
                <use id="zoomminus" xlink:href="#zoomMin" x="42" y="9" onmousedown="handleZoom(evt,'out')"/>
                <use id="reset" xlink:href="#resetDef" x="30" y="36" onmousedown="handleReset()"/>
                <g id="arrowUp" xlink:href="#dirArrow" transform="translate(30 24)" onmousedown="handlePan(0,-1)">
                  <use xlink:href="#rim" fill="#404040">
                        <set attributeName="fill" to="#808080" begin="arrowUp.mouseover" end="arrowUp.mouseout"/>
                  </use>
                  <path fill="none" stroke="white" stroke-width="1.5" d="M0,-3.0v7 M-2.5,-0.5L0,-3.0L2.5,-0.5"/>
                </g>
                <g id="arrowRight" xlink:href="#dirArrow" transform="rotate(90) translate(36 -43)" onmousedown="handlePan(1,0)">
                  <use xlink:href="#rim" fill="#404040">
                        <set attributeName="fill" to="#808080" begin="arrowRight.mouseover" end="arrowRight.mouseout"/>
                  </use>
                  <path fill="none" stroke="white" stroke-width="1.5" d="M0,-3.0v7 M-2.5,-0.5L0,-3.0L2.5,-0.5"/>
                </g>
                <g id="arrowDown" xlink:href="#dirArrow" transform="rotate(180) translate(-30 -48)" onmousedown="handlePan(0,1)">
                  <use xlink:href="#rim" fill="#404040">
                        <set attributeName="fill" to="#808080" begin="arrowDown.mouseover" end="arrowDown.mouseout"/>
                  </use>
                  <path fill="none" stroke="white" stroke-width="1.5" d="M0,-3.0v7 M-2.5,-0.5L0,-3.0L2.5,-0.5"/>
                </g>
                <g id="arrowLeft" xlink:href="#dirArrow" transform="rotate(270) translate(-36 17)" onmousedown="handlePan(-1,0)">
                  <use xlink:href="#rim" fill="#404040">
                        <set attributeName="fill" to="#808080" begin="arrowLeft.mouseover" end="arrowLeft.mouseout"/>
                  </use>
                  <path fill="none" stroke="white" stroke-width="1.5" d="M0,-3.0v7 M-2.5,-0.5L0,-3.0L2.5,-0.5"/>
                </g>
        </g>
        <svg viewBox="0 0 15 15" width="100%" height="30px" preserveAspectRatio="xMaxYMin meet">
         <g id="arrow_out" transform="scale(0.3 0.3)">
          <a xlink:href="classworld_1_1_unbounded_world__coll__graph_org.svg" target="_base">
           <rect id="button" ry="5" rx="5" y="6" x="6" height="38" width="38"
                fill="#f2f5e9" fill-opacity="0.5" stroke="#606060" stroke-width="1.0"/>
           <path id="arrow"
             d="M 11.500037,31.436501 C 11.940474,20.09759 22.043105,11.32322 32.158766,21.979434 L 37.068811,17.246167 C 37.068811,17.246167 37.088388,32 37.088388,32 L 22.160133,31.978069 C 22.160133,31.978069 26.997745,27.140456 26.997745,27.140456 C 18.528582,18.264221 13.291696,25.230495 11.500037,31.436501 z"
             style="fill:#404040;"/>
          </a>
         </g>
        </svg>
</svg>
