<?xml version="1.0" encoding="UTF-8" standalone="no"?>
<!DOCTYPE svg PUBLIC "-//W3C//DTD SVG 1.1//EN"
 "http://www.w3.org/Graphics/SVG/1.1/DTD/svg11.dtd">
<!-- Generated by graphviz version 2.36.0 (20140111.2315)
 -->
<!-- Title: command.ForCommand.updateMap Pages: 1 -->
<svg width="634pt" height="28pt"
 viewBox="0.00 0.00 634.00 28.00" xmlns="http://www.w3.org/2000/svg" xmlns:xlink="http://www.w3.org/1999/xlink">
<g id="graph0" class="graph" transform="scale(1 1) rotate(0) translate(4 24)">
<title>command.ForCommand.updateMap</title>
<polygon fill="white" stroke="none" points="-4,4 -4,-24 630,-24 630,4 -4,4"/>
<!-- Node1 -->
<g id="node1" class="node"><title>Node1</title>
<polygon fill="#bfbfbf" stroke="black" points="0.5,-0.5 0.5,-19.5 191.5,-19.5 191.5,-0.5 0.5,-0.5"/>
<text text-anchor="middle" x="96" y="-7.5" font-family="Helvetica,sans-Serif" font-size="10.00">command.ForCommand.updateMap</text>
</g>
<!-- Node2 -->
<g id="node2" class="node"><title>Node2</title>
<g id="a_node2"><a xlink:href="../../d3/d0c/classcommand_1_1_loop_command.html#ab2511ce9113e40b25b5204a25754e4c0" target="_top" xlink:title="command.LoopCommand.addInfo">
<polygon fill="white" stroke="black" points="228,-0.5 228,-19.5 408,-19.5 408,-0.5 228,-0.5"/>
<text text-anchor="middle" x="318" y="-7.5" font-family="Helvetica,sans-Serif" font-size="10.00">command.LoopCommand.addInfo</text>
</a>
</g>
</g>
<!-- Node1&#45;&gt;Node2 -->
<g id="edge1" class="edge"><title>Node1&#45;&gt;Node2</title>
<path fill="none" stroke="midnightblue" d="M191.577,-10C200.198,-10 208.949,-10 217.611,-10"/>
<polygon fill="midnightblue" stroke="midnightblue" points="217.726,-13.5001 227.726,-10 217.726,-6.5001 217.726,-13.5001"/>
</g>
<!-- Node3 -->
<g id="node3" class="node"><title>Node3</title>
<g id="a_node3"><a xlink:href="../../d7/d35/classcommand_1_1_command.html#ac9104121cb402d05a6ac117df8b882f8" target="_top" xlink:title="command.Command.readVariable">
<polygon fill="white" stroke="black" points="444,-0.5 444,-19.5 626,-19.5 626,-0.5 444,-0.5"/>
<text text-anchor="middle" x="535" y="-7.5" font-family="Helvetica,sans-Serif" font-size="10.00">command.Command.readVariable</text>
</a>
</g>
</g>
<!-- Node2&#45;&gt;Node3 -->
<g id="edge2" class="edge"><title>Node2&#45;&gt;Node3</title>
<path fill="none" stroke="midnightblue" d="M408.001,-10C416.47,-10 425.097,-10 433.664,-10"/>
<polygon fill="midnightblue" stroke="midnightblue" points="433.679,-13.5001 443.679,-10 433.678,-6.5001 433.679,-13.5001"/>
</g>
</g>
</svg>
