<?xml version="1.0" encoding="UTF-8" standalone="no"?>
<!DOCTYPE svg PUBLIC "-//W3C//DTD SVG 1.1//EN"
 "http://www.w3.org/Graphics/SVG/1.1/DTD/svg11.dtd">
<!-- Generated by graphviz version 2.36.0 (20140111.2315)
 -->
<!-- Title: command.PenUpCommand.run Pages: 1 -->
<svg width="524pt" height="28pt"
 viewBox="0.00 0.00 524.00 28.00" xmlns="http://www.w3.org/2000/svg" xmlns:xlink="http://www.w3.org/1999/xlink">
<g id="graph0" class="graph" transform="scale(1 1) rotate(0) translate(4 24)">
<title>command.PenUpCommand.run</title>
<polygon fill="white" stroke="none" points="-4,4 -4,-24 520,-24 520,4 -4,4"/>
<!-- Node1 -->
<g id="node1" class="node"><title>Node1</title>
<polygon fill="#bfbfbf" stroke="black" points="0.5,-0.5 0.5,-19.5 169.5,-19.5 169.5,-0.5 0.5,-0.5"/>
<text text-anchor="middle" x="85" y="-7.5" font-family="Helvetica,sans-Serif" font-size="10.00">command.PenUpCommand.run</text>
</g>
<!-- Node2 -->
<g id="node2" class="node"><title>Node2</title>
<g id="a_node2"><a xlink:href="../../df/dcb/classturtle_1_1_turtle.html#ac6118ca3a77e112f4fd20431e1331f35" target="_top" xlink:title="turtle.Turtle.setDrawing">
<polygon fill="white" stroke="black" points="206.5,-0.5 206.5,-19.5 333.5,-19.5 333.5,-0.5 206.5,-0.5"/>
<text text-anchor="middle" x="270" y="-7.5" font-family="Helvetica,sans-Serif" font-size="10.00">turtle.Turtle.setDrawing</text>
</a>
</g>
</g>
<!-- Node1&#45;&gt;Node2 -->
<g id="edge1" class="edge"><title>Node1&#45;&gt;Node2</title>
<path fill="none" stroke="midnightblue" d="M169.734,-10C178.596,-10 187.555,-10 196.276,-10"/>
<polygon fill="midnightblue" stroke="midnightblue" points="196.385,-13.5001 206.385,-10 196.385,-6.5001 196.385,-13.5001"/>
</g>
<!-- Node3 -->
<g id="node3" class="node"><title>Node3</title>
<g id="a_node3"><a xlink:href="../../de/d57/classturtle_1_1_pen.html#a17f2600d7ad4f194ccc80fb206a42f0f" target="_top" xlink:title="turtle.Pen.changePenState">
<polygon fill="white" stroke="black" points="370,-0.5 370,-19.5 516,-19.5 516,-0.5 370,-0.5"/>
<text text-anchor="middle" x="443" y="-7.5" font-family="Helvetica,sans-Serif" font-size="10.00">turtle.Pen.changePenState</text>
</a>
</g>
</g>
<!-- Node2&#45;&gt;Node3 -->
<g id="edge2" class="edge"><title>Node2&#45;&gt;Node3</title>
<path fill="none" stroke="midnightblue" d="M333.703,-10C342.13,-10 350.875,-10 359.578,-10"/>
<polygon fill="midnightblue" stroke="midnightblue" points="359.754,-13.5001 369.754,-10 359.754,-6.5001 359.754,-13.5001"/>
</g>
</g>
</svg>
