<?xml version="1.0" encoding="UTF-8" standalone="no"?>
<!DOCTYPE svg PUBLIC "-//W3C//DTD SVG 1.1//EN"
 "http://www.w3.org/Graphics/SVG/1.1/DTD/svg11.dtd">
<!-- Generated by graphviz version 2.36.0 (20140111.2315)
 -->
<!-- Title: userInterface.UI.initialize Pages: 1 -->
<!--zoomable 548 -->
<svg id="main" version="1.1" xmlns="http://www.w3.org/2000/svg" xmlns:xlink="http://www.w3.org/1999/xlink" xml:space="preserve" onload="init(evt)">
<style type="text/css"><![CDATA[
.edge:hover path { stroke: red; }
.edge:hover polygon { stroke: red; fill: red; }
]]></style>
<script type="text/javascript"><![CDATA[
var edges = document.getElementsByTagName('g');
if (edges && edges.length) {
  for (var i=0;i<edges.length;i++) {
    if (edges[i].id.substr(0,4)=='edge') {
      edges[i].setAttribute('class','edge');
    }
  }
}
]]></script>
        <defs>
                <circle id="rim" cx="0" cy="0" r="7"/>
                <circle id="rim2" cx="0" cy="0" r="3.5"/>
                <g id="zoomPlus">
                        <use xlink:href="#rim" fill="#404040">
                                <set attributeName="fill" to="#808080" begin="zoomplus.mouseover" end="zoomplus.mouseout"/>
                        </use>
                        <path d="M-4,0h8M0,-4v8" fill="none" stroke="white" stroke-width="1.5" pointer-events="none"/>
                </g>
                <g id="zoomMin">
                        <use xlink:href="#rim" fill="#404040">
                                <set attributeName="fill" to="#808080" begin="zoomminus.mouseover" end="zoomminus.mouseout"/>
                        </use>
                        <path d="M-4,0h8" fill="none" stroke="white" stroke-width="1.5" pointer-events="none"/>
                </g>
                <g id="dirArrow">
                        <path fill="none" stroke="white" stroke-width="1.5" d="M0,-3.0v7 M-2.5,-0.5L0,-3.0L2.5,-0.5"/>
                </g>
               <g id="resetDef">
                       <use xlink:href="#rim2" fill="#404040">
                               <set attributeName="fill" to="#808080" begin="reset.mouseover" end="reset.mouseout"/>
                       </use>
               </g>
        </defs>

<script type="text/javascript">
var viewWidth = 2108;
var viewHeight = 548;
var sectionId = 'dynsection-6';
</script>
<script xlink:href="../../svgpan.js"/>
<svg id="graph" class="graph">
<g id="viewport">
<title>userInterface.UI.initialize</title>
<polygon fill="white" stroke="none" points="-4,4 -4,-544 2104,-544 2104,4 -4,4"/>
<!-- Node1 -->
<g id="node1" class="node"><title>Node1</title>
<polygon fill="#bfbfbf" stroke="black" points="0,-356.5 0,-375.5 134,-375.5 134,-356.5 0,-356.5"/>
<text text-anchor="middle" x="67" y="-363.5" font-family="Helvetica,sans-Serif" font-size="10.00">userInterface.UI.initialize</text>
</g>
<!-- Node2 -->
<g id="node2" class="node"><title>Node2</title>
<g id="a_node2"><a xlink:href="../../dc/d1b/classuser_interface_1_1_left_panel.html#a91b78c25a31b4542abda2aec48abbbf3" target="_top" xlink:title="userInterface.LeftPanel.get\lPanel">
<polygon fill="white" stroke="black" points="184.5,-449 184.5,-479 329.5,-479 329.5,-449 184.5,-449"/>
<text text-anchor="start" x="192.5" y="-467" font-family="Helvetica,sans-Serif" font-size="10.00">userInterface.LeftPanel.get</text>
<text text-anchor="middle" x="257" y="-456" font-family="Helvetica,sans-Serif" font-size="10.00">Panel</text>
</a>
</g>
</g>
<!-- Node1&#45;&gt;Node2 -->
<g id="edge1" class="edge"><title>Node1&#45;&gt;Node2</title>
<path fill="none" stroke="midnightblue" d="M78.8228,-375.67C96.6306,-391.116 133.76,-421.403 170,-439 174.688,-441.276 179.622,-443.385 184.658,-445.331"/>
<polygon fill="midnightblue" stroke="midnightblue" points="183.836,-448.756 194.43,-448.874 186.222,-442.175 183.836,-448.756"/>
</g>
<!-- Node3 -->
<g id="node3" class="node"><title>Node3</title>
<g id="a_node3"><a xlink:href="../../de/df4/classuser_interface_1_1_right_panel.html#ae098bace463240ddbdf7d5694755b7e3" target="_top" xlink:title="userInterface.RightPanel.get\lPanel">
<polygon fill="white" stroke="black" points="181.5,-400 181.5,-430 332.5,-430 332.5,-400 181.5,-400"/>
<text text-anchor="start" x="189.5" y="-418" font-family="Helvetica,sans-Serif" font-size="10.00">userInterface.RightPanel.get</text>
<text text-anchor="middle" x="257" y="-407" font-family="Helvetica,sans-Serif" font-size="10.00">Panel</text>
</a>
</g>
</g>
<!-- Node1&#45;&gt;Node3 -->
<g id="edge2" class="edge"><title>Node1&#45;&gt;Node3</title>
<path fill="none" stroke="midnightblue" d="M104.695,-375.564C128.496,-381.768 160.224,-390.037 188.477,-397.401"/>
<polygon fill="midnightblue" stroke="midnightblue" points="187.748,-400.828 198.307,-399.963 189.513,-394.054 187.748,-400.828"/>
</g>
<!-- Node4 -->
<g id="node4" class="node"><title>Node4</title>
<g id="a_node4"><a xlink:href="../../d0/d7c/classuser_interface_1_1_u_i.html#a9f7eaa121e1405b45e262f03859f9ff0" target="_top" xlink:title="userInterface.UI.setUpCommand\lField">
<polygon fill="white" stroke="black" points="170,-351 170,-381 344,-381 344,-351 170,-351"/>
<text text-anchor="start" x="178" y="-369" font-family="Helvetica,sans-Serif" font-size="10.00">userInterface.UI.setUpCommand</text>
<text text-anchor="middle" x="257" y="-358" font-family="Helvetica,sans-Serif" font-size="10.00">Field</text>
</a>
</g>
</g>
<!-- Node1&#45;&gt;Node4 -->
<g id="edge3" class="edge"><title>Node1&#45;&gt;Node4</title>
<path fill="none" stroke="midnightblue" d="M134.017,-366C142.306,-366 150.915,-366 159.55,-366"/>
<polygon fill="midnightblue" stroke="midnightblue" points="159.683,-369.5 169.683,-366 159.683,-362.5 159.683,-369.5"/>
</g>
<!-- Node37 -->
<g id="node37" class="node"><title>Node37</title>
<g id="a_node37"><a xlink:href="../../d0/d7c/classuser_interface_1_1_u_i.html#a83df006468b1ce0b6b4f302393cc1ff3" target="_top" xlink:title="userInterface.UI.setUpController">
<polygon fill="white" stroke="black" points="172,-312.5 172,-331.5 342,-331.5 342,-312.5 172,-312.5"/>
<text text-anchor="middle" x="257" y="-319.5" font-family="Helvetica,sans-Serif" font-size="10.00">userInterface.UI.setUpController</text>
</a>
</g>
</g>
<!-- Node1&#45;&gt;Node37 -->
<g id="edge47" class="edge"><title>Node1&#45;&gt;Node37</title>
<path fill="none" stroke="midnightblue" d="M108.694,-356.399C127.371,-352 149.806,-346.724 170,-342 181.313,-339.353 193.467,-336.521 204.971,-333.844"/>
<polygon fill="midnightblue" stroke="midnightblue" points="205.928,-337.215 214.875,-331.541 204.342,-330.397 205.928,-337.215"/>
</g>
<!-- Node38 -->
<g id="node38" class="node"><title>Node38</title>
<g id="a_node38"><a xlink:href="../../d0/d7c/classuser_interface_1_1_u_i.html#ad3435fb6061c1b8ebcade613c318fd27" target="_top" xlink:title="userInterface.UI.setUpPane">
<polygon fill="white" stroke="black" points="183.5,-274.5 183.5,-293.5 330.5,-293.5 330.5,-274.5 183.5,-274.5"/>
<text text-anchor="middle" x="257" y="-281.5" font-family="Helvetica,sans-Serif" font-size="10.00">userInterface.UI.setUpPane</text>
</a>
</g>
</g>
<!-- Node1&#45;&gt;Node38 -->
<g id="edge48" class="edge"><title>Node1&#45;&gt;Node38</title>
<path fill="none" stroke="midnightblue" d="M80.4522,-356.363C98.9594,-342.508 135.283,-317.083 170,-303 176.283,-300.451 182.97,-298.215 189.732,-296.261"/>
<polygon fill="midnightblue" stroke="midnightblue" points="190.906,-299.569 199.655,-293.594 189.089,-292.809 190.906,-299.569"/>
</g>
<!-- Node5 -->
<g id="node5" class="node"><title>Node5</title>
<g id="a_node5"><a xlink:href="../../d0/d7c/classuser_interface_1_1_u_i.html#a02bd34909b5d6037ea8ebe812879b90a" target="_top" xlink:title="userInterface.UI.makeRun\lButton">
<polygon fill="white" stroke="black" points="380,-351 380,-381 520,-381 520,-351 380,-351"/>
<text text-anchor="start" x="388" y="-369" font-family="Helvetica,sans-Serif" font-size="10.00">userInterface.UI.makeRun</text>
<text text-anchor="middle" x="450" y="-358" font-family="Helvetica,sans-Serif" font-size="10.00">Button</text>
</a>
</g>
</g>
<!-- Node4&#45;&gt;Node5 -->
<g id="edge4" class="edge"><title>Node4&#45;&gt;Node5</title>
<path fill="none" stroke="midnightblue" d="M344.001,-366C352.519,-366 361.139,-366 369.585,-366"/>
<polygon fill="midnightblue" stroke="midnightblue" points="369.784,-369.5 379.784,-366 369.784,-362.5 369.784,-369.5"/>
</g>
<!-- Node6 -->
<g id="node6" class="node"><title>Node6</title>
<g id="a_node6"><a xlink:href="../../d0/d7c/classuser_interface_1_1_u_i.html#ab17592b00ba0b808f524b4fc223303ec" target="_top" xlink:title="userInterface.UI.runCommand">
<polygon fill="white" stroke="black" points="556.5,-356.5 556.5,-375.5 717.5,-375.5 717.5,-356.5 556.5,-356.5"/>
<text text-anchor="middle" x="637" y="-363.5" font-family="Helvetica,sans-Serif" font-size="10.00">userInterface.UI.runCommand</text>
</a>
</g>
</g>
<!-- Node5&#45;&gt;Node6 -->
<g id="edge5" class="edge"><title>Node5&#45;&gt;Node6</title>
<path fill="none" stroke="midnightblue" d="M520.15,-366C528.633,-366 537.397,-366 546.129,-366"/>
<polygon fill="midnightblue" stroke="midnightblue" points="546.346,-369.5 556.346,-366 546.346,-362.5 546.346,-369.5"/>
</g>
<!-- Node7 -->
<g id="node7" class="node"><title>Node7</title>
<g id="a_node7"><a xlink:href="../../d8/d08/classworld_controller_1_1_world_controller.html#a178425d68e3e669c386706153ce44999" target="_top" xlink:title="worldController.WorldController.update">
<polygon fill="white" stroke="black" points="754,-356.5 754,-375.5 952,-375.5 952,-356.5 754,-356.5"/>
<text text-anchor="middle" x="853" y="-363.5" font-family="Helvetica,sans-Serif" font-size="10.00">worldController.WorldController.update</text>
</a>
</g>
</g>
<!-- Node6&#45;&gt;Node7 -->
<g id="edge6" class="edge"><title>Node6&#45;&gt;Node7</title>
<path fill="none" stroke="midnightblue" d="M717.686,-366C726.142,-366 734.841,-366 743.554,-366"/>
<polygon fill="midnightblue" stroke="midnightblue" points="743.774,-369.5 753.773,-366 743.773,-362.5 743.774,-369.5"/>
</g>
<!-- Node8 -->
<g id="node8" class="node"><title>Node8</title>
<g id="a_node8"><a xlink:href="../../df/dcb/classturtle_1_1_turtle.html#a610aafaf658c4b351330b7c16c66881c" target="_top" xlink:title="turtle.Turtle.updatePenAttributes">
<polygon fill="white" stroke="black" points="995.5,-482.5 995.5,-501.5 1168.5,-501.5 1168.5,-482.5 995.5,-482.5"/>
<text text-anchor="middle" x="1082" y="-489.5" font-family="Helvetica,sans-Serif" font-size="10.00">turtle.Turtle.updatePenAttributes</text>
</a>
</g>
</g>
<!-- Node7&#45;&gt;Node8 -->
<g id="edge7" class="edge"><title>Node7&#45;&gt;Node8</title>
<path fill="none" stroke="midnightblue" d="M871.435,-375.678C911.063,-397.674 1008.08,-451.524 1054.89,-477.508"/>
<polygon fill="midnightblue" stroke="midnightblue" points="1053.37,-480.669 1063.82,-482.462 1056.77,-474.548 1053.37,-480.669"/>
</g>
<!-- Node11 -->
<g id="node11" class="node"><title>Node11</title>
<g id="a_node11"><a xlink:href="../../d9/dd0/classworld_1_1_world.html#ae370733f7784c42741a6ba66c7d2ecf5" target="_top" xlink:title="world.World.listen">
<polygon fill="white" stroke="black" points="1033,-356.5 1033,-375.5 1131,-375.5 1131,-356.5 1033,-356.5"/>
<text text-anchor="middle" x="1082" y="-363.5" font-family="Helvetica,sans-Serif" font-size="10.00">world.World.listen</text>
</a>
</g>
</g>
<!-- Node7&#45;&gt;Node11 -->
<g id="edge10" class="edge"><title>Node7&#45;&gt;Node11</title>
<path fill="none" stroke="midnightblue" d="M952.245,-366C976.238,-366 1001.16,-366 1022.61,-366"/>
<polygon fill="midnightblue" stroke="midnightblue" points="1022.84,-369.5 1032.84,-366 1022.84,-362.5 1022.84,-369.5"/>
</g>
<!-- Node34 -->
<g id="node34" class="node"><title>Node34</title>
<g id="a_node34"><a xlink:href="../../d8/d08/classworld_controller_1_1_world_controller.html#a9380abb3ed5334498510f1d6a88a826d" target="_top" xlink:title="worldController.WorldController.draw\lTurtle">
<polygon fill="white" stroke="black" points="988.5,-198 988.5,-228 1175.5,-228 1175.5,-198 988.5,-198"/>
<text text-anchor="start" x="996.5" y="-216" font-family="Helvetica,sans-Serif" font-size="10.00">worldController.WorldController.draw</text>
<text text-anchor="middle" x="1082" y="-205" font-family="Helvetica,sans-Serif" font-size="10.00">Turtle</text>
</a>
</g>
</g>
<!-- Node7&#45;&gt;Node34 -->
<g id="edge44" class="edge"><title>Node7&#45;&gt;Node34</title>
<path fill="none" stroke="midnightblue" d="M868.2,-356.429C904.276,-332.113 1000.12,-267.515 1049.94,-233.934"/>
<polygon fill="midnightblue" stroke="midnightblue" points="1052.06,-236.728 1058.39,-228.236 1048.15,-230.923 1052.06,-236.728"/>
</g>
<!-- Node9 -->
<g id="node9" class="node"><title>Node9</title>
<g id="a_node9"><a xlink:href="../../de/d57/classturtle_1_1_pen.html#ac9a08745a9f3615b9e47c1c8e5af8f1b" target="_top" xlink:title="turtle.Pen.getColor">
<polygon fill="white" stroke="black" points="1252.5,-520.5 1252.5,-539.5 1359.5,-539.5 1359.5,-520.5 1252.5,-520.5"/>
<text text-anchor="middle" x="1306" y="-527.5" font-family="Helvetica,sans-Serif" font-size="10.00">turtle.Pen.getColor</text>
</a>
</g>
</g>
<!-- Node8&#45;&gt;Node9 -->
<g id="edge8" class="edge"><title>Node8&#45;&gt;Node9</title>
<path fill="none" stroke="midnightblue" d="M1138.73,-501.54C1170.28,-506.939 1209.82,-513.707 1242.42,-519.288"/>
<polygon fill="midnightblue" stroke="midnightblue" points="1241.85,-522.742 1252.3,-520.979 1243.03,-515.842 1241.85,-522.742"/>
</g>
<!-- Node10 -->
<g id="node10" class="node"><title>Node10</title>
<g id="a_node10"><a xlink:href="../../de/d57/classturtle_1_1_pen.html#a76c8dc4e66927e7d3774ea00b2266640" target="_top" xlink:title="turtle.Pen.getSize">
<polygon fill="white" stroke="black" points="1255,-482.5 1255,-501.5 1357,-501.5 1357,-482.5 1255,-482.5"/>
<text text-anchor="middle" x="1306" y="-489.5" font-family="Helvetica,sans-Serif" font-size="10.00">turtle.Pen.getSize</text>
</a>
</g>
</g>
<!-- Node8&#45;&gt;Node10 -->
<g id="edge9" class="edge"><title>Node8&#45;&gt;Node10</title>
<path fill="none" stroke="midnightblue" d="M1168.51,-492C1193.94,-492 1221.26,-492 1244.72,-492"/>
<polygon fill="midnightblue" stroke="midnightblue" points="1244.87,-495.5 1254.87,-492 1244.87,-488.5 1244.87,-495.5"/>
</g>
<!-- Node12 -->
<g id="node12" class="node"><title>Node12</title>
<g id="a_node12"><a xlink:href="../../d6/d95/classparser_1_1_parser.html#a240c75608624a9c67402a296855c4d1d" target="_top" xlink:title="parser.Parser.initialize\lCommands">
<polygon fill="white" stroke="black" points="1246,-307 1246,-337 1366,-337 1366,-307 1246,-307"/>
<text text-anchor="start" x="1254" y="-325" font-family="Helvetica,sans-Serif" font-size="10.00">parser.Parser.initialize</text>
<text text-anchor="middle" x="1306" y="-314" font-family="Helvetica,sans-Serif" font-size="10.00">Commands</text>
</a>
</g>
</g>
<!-- Node11&#45;&gt;Node12 -->
<g id="edge11" class="edge"><title>Node11&#45;&gt;Node12</title>
<path fill="none" stroke="midnightblue" d="M1131.17,-356.453C1161.81,-350.38 1201.98,-342.419 1235.98,-335.68"/>
<polygon fill="midnightblue" stroke="midnightblue" points="1236.73,-339.1 1245.85,-333.723 1235.36,-332.234 1236.73,-339.1"/>
</g>
<!-- Node16 -->
<g id="node16" class="node"><title>Node16</title>
<g id="a_node16"><a xlink:href="../../d6/d95/classparser_1_1_parser.html#a4ecbffc246c3add017c4720eed4c6da9" target="_top" xlink:title="parser.Parser.parse">
<polygon fill="white" stroke="black" points="1251.5,-202.5 1251.5,-221.5 1360.5,-221.5 1360.5,-202.5 1251.5,-202.5"/>
<text text-anchor="middle" x="1306" y="-209.5" font-family="Helvetica,sans-Serif" font-size="10.00">parser.Parser.parse</text>
</a>
</g>
</g>
<!-- Node11&#45;&gt;Node16 -->
<g id="edge15" class="edge"><title>Node11&#45;&gt;Node16</title>
<path fill="none" stroke="midnightblue" d="M1096.89,-356.367C1134.26,-330.439 1237.24,-259.008 1282.81,-227.396"/>
<polygon fill="midnightblue" stroke="midnightblue" points="1284.9,-230.205 1291.12,-221.63 1280.91,-224.454 1284.9,-230.205"/>
</g>
<!-- Node29 -->
<g id="node29" class="node"><title>Node29</title>
<g id="a_node29"><a xlink:href="../../d7/d35/classcommand_1_1_command.html#a957099a70dd30b5dc897e0caf07d2d99" target="_top" xlink:title="command.Command.getCommand\lValues">
<polygon fill="white" stroke="black" points="1212,-433 1212,-463 1400,-463 1400,-433 1212,-433"/>
<text text-anchor="start" x="1220" y="-451" font-family="Helvetica,sans-Serif" font-size="10.00">command.Command.getCommand</text>
<text text-anchor="middle" x="1306" y="-440" font-family="Helvetica,sans-Serif" font-size="10.00">Values</text>
</a>
</g>
</g>
<!-- Node11&#45;&gt;Node29 -->
<g id="edge39" class="edge"><title>Node11&#45;&gt;Node29</title>
<path fill="none" stroke="midnightblue" d="M1102.29,-375.644C1127.19,-387.827 1172.06,-408.9 1212,-423 1219.02,-425.476 1226.4,-427.847 1233.82,-430.075"/>
<polygon fill="midnightblue" stroke="midnightblue" points="1232.98,-433.475 1243.56,-432.917 1234.94,-426.755 1232.98,-433.475"/>
</g>
<!-- Node31 -->
<g id="node31" class="node"><title>Node31</title>
<g id="a_node31"><a xlink:href="../../d9/dd0/classworld_1_1_world.html#adcbcb8328c7e832fcb710a91457e6772" target="_top" xlink:title="world.World.runCommand">
<polygon fill="white" stroke="black" points="1236.5,-356.5 1236.5,-375.5 1375.5,-375.5 1375.5,-356.5 1236.5,-356.5"/>
<text text-anchor="middle" x="1306" y="-363.5" font-family="Helvetica,sans-Serif" font-size="10.00">world.World.runCommand</text>
</a>
</g>
</g>
<!-- Node11&#45;&gt;Node31 -->
<g id="edge41" class="edge"><title>Node11&#45;&gt;Node31</title>
<path fill="none" stroke="midnightblue" d="M1131.17,-366C1158.9,-366 1194.44,-366 1226.14,-366"/>
<polygon fill="midnightblue" stroke="midnightblue" points="1226.29,-369.5 1236.29,-366 1226.29,-362.5 1226.29,-369.5"/>
</g>
<!-- Node32 -->
<g id="node32" class="node"><title>Node32</title>
<g id="a_node32"><a xlink:href="../../d6/d95/classparser_1_1_parser.html#acebafe1593fc1f09ac31c7104438e4b1" target="_top" xlink:title="parser.Parser.resetRepcount">
<polygon fill="white" stroke="black" points="1230.5,-394.5 1230.5,-413.5 1381.5,-413.5 1381.5,-394.5 1230.5,-394.5"/>
<text text-anchor="middle" x="1306" y="-401.5" font-family="Helvetica,sans-Serif" font-size="10.00">parser.Parser.resetRepcount</text>
</a>
</g>
</g>
<!-- Node11&#45;&gt;Node32 -->
<g id="edge42" class="edge"><title>Node11&#45;&gt;Node32</title>
<path fill="none" stroke="midnightblue" d="M1131.17,-374.245C1162.86,-379.669 1204.73,-386.836 1239.44,-392.777"/>
<polygon fill="midnightblue" stroke="midnightblue" points="1239.04,-396.261 1249.49,-394.498 1240.22,-389.361 1239.04,-396.261"/>
</g>
<!-- Node13 -->
<g id="node13" class="node"><title>Node13</title>
<g id="a_node13"><a xlink:href="../../d6/d95/classparser_1_1_parser.html#a4f582c65390bddc57219c0b5c31ef5e7" target="_top" xlink:title="parser.Parser.makeTree">
<polygon fill="white" stroke="black" points="1465,-350.5 1465,-369.5 1593,-369.5 1593,-350.5 1465,-350.5"/>
<text text-anchor="middle" x="1529" y="-357.5" font-family="Helvetica,sans-Serif" font-size="10.00">parser.Parser.makeTree</text>
</a>
</g>
</g>
<!-- Node12&#45;&gt;Node13 -->
<g id="edge12" class="edge"><title>Node12&#45;&gt;Node13</title>
<path fill="none" stroke="midnightblue" d="M1366.22,-332.183C1395.86,-337.279 1431.82,-343.462 1462.3,-348.704"/>
<polygon fill="midnightblue" stroke="midnightblue" points="1461.97,-352.197 1472.42,-350.442 1463.15,-345.298 1461.97,-352.197"/>
</g>
<!-- Node14 -->
<g id="node14" class="node"><title>Node14</title>
<g id="a_node14"><a xlink:href="../../d9/d1b/classcommand_1_1_command_factory.html#a87bf7e648425bb22124367cabedb3327" target="_top" xlink:title="command.CommandFactory.get\lNumParameters">
<polygon fill="white" stroke="black" points="1677,-345 1677,-375 1847,-375 1847,-345 1677,-345"/>
<text text-anchor="start" x="1685" y="-363" font-family="Helvetica,sans-Serif" font-size="10.00">command.CommandFactory.get</text>
<text text-anchor="middle" x="1762" y="-352" font-family="Helvetica,sans-Serif" font-size="10.00">NumParameters</text>
</a>
</g>
</g>
<!-- Node13&#45;&gt;Node14 -->
<g id="edge13" class="edge"><title>Node13&#45;&gt;Node14</title>
<path fill="none" stroke="midnightblue" d="M1593.12,-360C1615.78,-360 1641.85,-360 1666.59,-360"/>
<polygon fill="midnightblue" stroke="midnightblue" points="1666.73,-363.5 1676.73,-360 1666.73,-356.5 1666.73,-363.5"/>
</g>
<!-- Node15 -->
<g id="node15" class="node"><title>Node15</title>
<g id="a_node15"><a xlink:href="../../d9/d1b/classcommand_1_1_command_factory.html#a947fdc151e857ea74564d0d1fe268246" target="_top" xlink:title="command.CommandFactory.translate\lCommand">
<polygon fill="white" stroke="black" points="1902.5,-323 1902.5,-353 2099.5,-353 2099.5,-323 1902.5,-323"/>
<text text-anchor="start" x="1910.5" y="-341" font-family="Helvetica,sans-Serif" font-size="10.00">command.CommandFactory.translate</text>
<text text-anchor="middle" x="2001" y="-330" font-family="Helvetica,sans-Serif" font-size="10.00">Command</text>
</a>
</g>
</g>
<!-- Node14&#45;&gt;Node15 -->
<g id="edge14" class="edge"><title>Node14&#45;&gt;Node15</title>
<path fill="none" stroke="midnightblue" d="M1847.22,-352.182C1861.71,-350.837 1876.94,-349.423 1891.95,-348.03"/>
<polygon fill="midnightblue" stroke="midnightblue" points="1892.66,-351.479 1902.29,-347.07 1892.01,-344.509 1892.66,-351.479"/>
</g>
<!-- Node17 -->
<g id="node17" class="node"><title>Node17</title>
<g id="a_node17"><a xlink:href="../../d9/d1b/classcommand_1_1_command_factory.html#ab25bb047b051661d31adf73b2dae5649" target="_top" xlink:title="command.CommandFactory.create\lCommand">
<polygon fill="white" stroke="black" points="1436.5,-301 1436.5,-331 1621.5,-331 1621.5,-301 1436.5,-301"/>
<text text-anchor="start" x="1444.5" y="-319" font-family="Helvetica,sans-Serif" font-size="10.00">command.CommandFactory.create</text>
<text text-anchor="middle" x="1529" y="-308" font-family="Helvetica,sans-Serif" font-size="10.00">Command</text>
</a>
</g>
</g>
<!-- Node16&#45;&gt;Node17 -->
<g id="edge16" class="edge"><title>Node16&#45;&gt;Node17</title>
<path fill="none" stroke="midnightblue" d="M1321.57,-221.691C1344.94,-236.923 1392.58,-266.715 1436,-286 1445.42,-290.186 1455.62,-294.09 1465.67,-297.605"/>
<polygon fill="midnightblue" stroke="midnightblue" points="1464.64,-300.952 1475.24,-300.854 1466.89,-294.324 1464.64,-300.952"/>
</g>
<!-- Node19 -->
<g id="node19" class="node"><title>Node19</title>
<g id="a_node19"><a xlink:href="../../d6/d95/classparser_1_1_parser.html#aac1cff62f68138c7e977a67d39671701" target="_top" xlink:title="parser.Parser.generateCommand\lInput">
<polygon fill="white" stroke="black" points="1441,-175 1441,-205 1617,-205 1617,-175 1441,-175"/>
<text text-anchor="start" x="1449" y="-193" font-family="Helvetica,sans-Serif" font-size="10.00">parser.Parser.generateCommand</text>
<text text-anchor="middle" x="1529" y="-182" font-family="Helvetica,sans-Serif" font-size="10.00">Input</text>
</a>
</g>
</g>
<!-- Node16&#45;&gt;Node19 -->
<g id="edge19" class="edge"><title>Node16&#45;&gt;Node19</title>
<path fill="none" stroke="midnightblue" d="M1360.78,-206.646C1381.8,-204.554 1406.57,-202.088 1430.52,-199.704"/>
<polygon fill="midnightblue" stroke="midnightblue" points="1431.11,-203.162 1440.72,-198.689 1430.42,-196.197 1431.11,-203.162"/>
</g>
<!-- Node22 -->
<g id="node22" class="node"><title>Node22</title>
<g id="a_node22"><a xlink:href="../../d3/dcc/classparser_1_1_node.html#a9c12e8d4375a7517eae0a35724b253c4" target="_top" xlink:title="parser.Node.getValue">
<polygon fill="white" stroke="black" points="1702,-229.5 1702,-248.5 1822,-248.5 1822,-229.5 1702,-229.5"/>
<text text-anchor="middle" x="1762" y="-236.5" font-family="Helvetica,sans-Serif" font-size="10.00">parser.Node.getValue</text>
</a>
</g>
</g>
<!-- Node16&#45;&gt;Node22 -->
<g id="edge35" class="edge"><title>Node16&#45;&gt;Node22</title>
<path fill="none" stroke="midnightblue" d="M1329.79,-221.606C1355.17,-231.743 1397.68,-247.057 1436,-253 1523.41,-266.556 1625.51,-258.285 1691.61,-249.82"/>
<polygon fill="midnightblue" stroke="midnightblue" points="1692.45,-253.24 1701.9,-248.463 1691.53,-246.3 1692.45,-253.24"/>
</g>
<!-- Node24 -->
<g id="node24" class="node"><title>Node24</title>
<g id="a_node24"><a xlink:href="../../d6/d95/classparser_1_1_parser.html#a3efcd1192e76101919526b4a5e0046f4" target="_top" xlink:title="parser.Parser.getNodeBefore\lToReplace">
<polygon fill="white" stroke="black" points="1451.5,-126 1451.5,-156 1606.5,-156 1606.5,-126 1451.5,-126"/>
<text text-anchor="start" x="1459.5" y="-144" font-family="Helvetica,sans-Serif" font-size="10.00">parser.Parser.getNodeBefore</text>
<text text-anchor="middle" x="1529" y="-133" font-family="Helvetica,sans-Serif" font-size="10.00">ToReplace</text>
</a>
</g>
</g>
<!-- Node16&#45;&gt;Node24 -->
<g id="edge24" class="edge"><title>Node16&#45;&gt;Node24</title>
<path fill="none" stroke="midnightblue" d="M1332.02,-202.431C1357.87,-192.697 1399.47,-177.457 1436,-166 1443.75,-163.57 1451.9,-161.154 1460.03,-158.834"/>
<polygon fill="midnightblue" stroke="midnightblue" points="1461.21,-162.137 1469.89,-156.059 1459.32,-155.398 1461.21,-162.137"/>
</g>
<!-- Node26 -->
<g id="node26" class="node"><title>Node26</title>
<g id="a_node26"><a xlink:href="../../d3/dcc/classparser_1_1_node.html#aa92667a825777b3d757bc3b1a247ac20" target="_top" xlink:title="parser.Node.isLeaf">
<polygon fill="white" stroke="black" points="1709,-39.5 1709,-58.5 1815,-58.5 1815,-39.5 1709,-39.5"/>
<text text-anchor="middle" x="1762" y="-46.5" font-family="Helvetica,sans-Serif" font-size="10.00">parser.Node.isLeaf</text>
</a>
</g>
</g>
<!-- Node16&#45;&gt;Node26 -->
<g id="edge38" class="edge"><title>Node16&#45;&gt;Node26</title>
<path fill="none" stroke="midnightblue" d="M1318.35,-202.439C1336.67,-186.711 1373.38,-153.928 1400,-122 1418.47,-99.844 1410.98,-82.3471 1436,-68 1519.48,-20.1352 1635.68,-27.5338 1704.14,-37.8588"/>
<polygon fill="midnightblue" stroke="midnightblue" points="1703.88,-41.3599 1714.3,-39.4649 1704.97,-34.4458 1703.88,-41.3599"/>
</g>
<!-- Node27 -->
<g id="node27" class="node"><title>Node27</title>
<g id="a_node27"><a xlink:href="../../d6/d95/classparser_1_1_parser.html#a447c473b62ba23b7c144df9bb38a9a41" target="_top" xlink:title="parser.Parser.getNodeFor\lCommand">
<polygon fill="white" stroke="black" points="1460,-77 1460,-107 1598,-107 1598,-77 1460,-77"/>
<text text-anchor="start" x="1468" y="-95" font-family="Helvetica,sans-Serif" font-size="10.00">parser.Parser.getNodeFor</text>
<text text-anchor="middle" x="1529" y="-84" font-family="Helvetica,sans-Serif" font-size="10.00">Command</text>
</a>
</g>
</g>
<!-- Node16&#45;&gt;Node27 -->
<g id="edge30" class="edge"><title>Node16&#45;&gt;Node27</title>
<path fill="none" stroke="midnightblue" d="M1317.16,-202.408C1337.88,-183.364 1387.16,-140.593 1436,-117 1440.94,-114.615 1446.14,-112.429 1451.45,-110.429"/>
<polygon fill="midnightblue" stroke="midnightblue" points="1452.83,-113.654 1461.1,-107.031 1450.5,-107.052 1452.83,-113.654"/>
</g>
<!-- Node28 -->
<g id="node28" class="node"><title>Node28</title>
<g id="a_node28"><a xlink:href="../../d3/dcc/classparser_1_1_node.html#a066da2b478008f39a02440d7afceb9ee" target="_top" xlink:title="parser.Node.insertChild">
<polygon fill="white" stroke="black" points="1465,-224.5 1465,-243.5 1593,-243.5 1593,-224.5 1465,-224.5"/>
<text text-anchor="middle" x="1529" y="-231.5" font-family="Helvetica,sans-Serif" font-size="10.00">parser.Node.insertChild</text>
</a>
</g>
</g>
<!-- Node16&#45;&gt;Node28 -->
<g id="edge36" class="edge"><title>Node16&#45;&gt;Node28</title>
<path fill="none" stroke="midnightblue" d="M1360.78,-217.354C1389.02,-220.165 1424.04,-223.651 1454.72,-226.705"/>
<polygon fill="midnightblue" stroke="midnightblue" points="1454.65,-230.215 1464.94,-227.723 1455.34,-223.249 1454.65,-230.215"/>
</g>
<!-- Node17&#45;&gt;Node15 -->
<g id="edge18" class="edge"><title>Node17&#45;&gt;Node15</title>
<path fill="none" stroke="midnightblue" d="M1621.74,-320.294C1699.23,-323.922 1810.34,-329.122 1892.1,-332.949"/>
<polygon fill="midnightblue" stroke="midnightblue" points="1892.27,-336.461 1902.42,-333.433 1892.6,-329.469 1892.27,-336.461"/>
</g>
<!-- Node18 -->
<g id="node18" class="node"><title>Node18</title>
<g id="a_node18"><a xlink:href="../../d9/d1b/classcommand_1_1_command_factory.html#abd97ea3e22afc09e07ed1d4fd039d11f" target="_top" xlink:title="command.CommandFactory.reflectCMD">
<polygon fill="white" stroke="black" points="1658.5,-268.5 1658.5,-287.5 1865.5,-287.5 1865.5,-268.5 1658.5,-268.5"/>
<text text-anchor="middle" x="1762" y="-275.5" font-family="Helvetica,sans-Serif" font-size="10.00">command.CommandFactory.reflectCMD</text>
</a>
</g>
</g>
<!-- Node17&#45;&gt;Node18 -->
<g id="edge17" class="edge"><title>Node17&#45;&gt;Node18</title>
<path fill="none" stroke="midnightblue" d="M1621.3,-300.981C1645.25,-297.042 1670.65,-292.863 1693.14,-289.164"/>
<polygon fill="midnightblue" stroke="midnightblue" points="1693.95,-292.578 1703.24,-287.501 1692.81,-285.671 1693.95,-292.578"/>
</g>
<!-- Node20 -->
<g id="node20" class="node"><title>Node20</title>
<g id="a_node20"><a xlink:href="../../d3/dcc/classparser_1_1_node.html#aa67bc0d39227232943abec9b95b23235" target="_top" xlink:title="parser.Node.getChild1">
<polygon fill="white" stroke="black" points="1700.5,-153.5 1700.5,-172.5 1823.5,-172.5 1823.5,-153.5 1700.5,-153.5"/>
<text text-anchor="middle" x="1762" y="-160.5" font-family="Helvetica,sans-Serif" font-size="10.00">parser.Node.getChild1</text>
</a>
</g>
</g>
<!-- Node19&#45;&gt;Node20 -->
<g id="edge20" class="edge"><title>Node19&#45;&gt;Node20</title>
<path fill="none" stroke="midnightblue" d="M1617,-179.831C1641.18,-177.005 1667.13,-173.972 1690.25,-171.269"/>
<polygon fill="midnightblue" stroke="midnightblue" points="1690.79,-174.73 1700.32,-170.093 1689.98,-167.778 1690.79,-174.73"/>
</g>
<!-- Node21 -->
<g id="node21" class="node"><title>Node21</title>
<g id="a_node21"><a xlink:href="../../d3/dcc/classparser_1_1_node.html#a0f13775acc62af77cdde90dbeaf26bbc" target="_top" xlink:title="parser.Node.getChild2">
<polygon fill="white" stroke="black" points="1700.5,-115.5 1700.5,-134.5 1823.5,-134.5 1823.5,-115.5 1700.5,-115.5"/>
<text text-anchor="middle" x="1762" y="-122.5" font-family="Helvetica,sans-Serif" font-size="10.00">parser.Node.getChild2</text>
</a>
</g>
</g>
<!-- Node19&#45;&gt;Node21 -->
<g id="edge21" class="edge"><title>Node19&#45;&gt;Node21</title>
<path fill="none" stroke="midnightblue" d="M1594.08,-174.925C1603.58,-172.021 1613.15,-168.709 1622,-165 1639.08,-157.843 1640.63,-150.443 1658,-144 1668.25,-140.199 1679.36,-137.135 1690.37,-134.672"/>
<polygon fill="midnightblue" stroke="midnightblue" points="1691.34,-138.044 1700.42,-132.576 1689.91,-131.192 1691.34,-138.044"/>
</g>
<!-- Node19&#45;&gt;Node22 -->
<g id="edge22" class="edge"><title>Node19&#45;&gt;Node22</title>
<path fill="none" stroke="midnightblue" d="M1591.39,-205.017C1612.46,-210.003 1636.22,-215.441 1658,-220 1670.43,-222.601 1683.74,-225.197 1696.53,-227.597"/>
<polygon fill="midnightblue" stroke="midnightblue" points="1696.18,-231.091 1706.65,-229.476 1697.45,-224.209 1696.18,-231.091"/>
</g>
<!-- Node23 -->
<g id="node23" class="node"><title>Node23</title>
<g id="a_node23"><a xlink:href="../../d3/dcc/classparser_1_1_node.html#a6bbc0c61aaa261077eb87cfc4e2b45dc" target="_top" xlink:title="parser.Node.numChildren">
<polygon fill="white" stroke="black" points="1692.5,-191.5 1692.5,-210.5 1831.5,-210.5 1831.5,-191.5 1692.5,-191.5"/>
<text text-anchor="middle" x="1762" y="-198.5" font-family="Helvetica,sans-Serif" font-size="10.00">parser.Node.numChildren</text>
</a>
</g>
</g>
<!-- Node19&#45;&gt;Node23 -->
<g id="edge23" class="edge"><title>Node19&#45;&gt;Node23</title>
<path fill="none" stroke="midnightblue" d="M1617,-194.143C1638.43,-195.164 1661.26,-196.251 1682.28,-197.251"/>
<polygon fill="midnightblue" stroke="midnightblue" points="1682.28,-200.755 1692.43,-197.735 1682.61,-193.763 1682.28,-200.755"/>
</g>
<!-- Node24&#45;&gt;Node20 -->
<g id="edge25" class="edge"><title>Node24&#45;&gt;Node20</title>
<path fill="none" stroke="midnightblue" d="M1606.6,-148.295C1633.62,-150.868 1663.85,-153.748 1690.35,-156.272"/>
<polygon fill="midnightblue" stroke="midnightblue" points="1690.03,-159.756 1700.31,-157.22 1690.69,-152.788 1690.03,-159.756"/>
</g>
<!-- Node24&#45;&gt;Node21 -->
<g id="edge26" class="edge"><title>Node24&#45;&gt;Node21</title>
<path fill="none" stroke="midnightblue" d="M1606.6,-135.694C1633.5,-133.831 1663.58,-131.748 1690,-129.918"/>
<polygon fill="midnightblue" stroke="midnightblue" points="1690.58,-133.386 1700.31,-129.203 1690.09,-126.403 1690.58,-133.386"/>
</g>
<!-- Node24&#45;&gt;Node22 -->
<g id="edge27" class="edge"><title>Node24&#45;&gt;Node22</title>
<path fill="none" stroke="midnightblue" d="M1604.49,-156.097C1610.69,-158.861 1616.63,-162.131 1622,-166 1645.41,-182.855 1633.91,-204.13 1658,-220 1668.08,-226.644 1679.87,-231.119 1691.79,-234.104"/>
<polygon fill="midnightblue" stroke="midnightblue" points="1691.29,-237.577 1701.8,-236.276 1692.77,-230.736 1691.29,-237.577"/>
</g>
<!-- Node25 -->
<g id="node25" class="node"><title>Node25</title>
<g id="a_node25"><a xlink:href="../../d3/dcc/classparser_1_1_node.html#ab14db24c0724dec4387e29d513008e2e" target="_top" xlink:title="parser.Node.hasChildren">
<polygon fill="white" stroke="black" points="1695,-77.5 1695,-96.5 1829,-96.5 1829,-77.5 1695,-77.5"/>
<text text-anchor="middle" x="1762" y="-84.5" font-family="Helvetica,sans-Serif" font-size="10.00">parser.Node.hasChildren</text>
</a>
</g>
</g>
<!-- Node24&#45;&gt;Node25 -->
<g id="edge28" class="edge"><title>Node24&#45;&gt;Node25</title>
<path fill="none" stroke="midnightblue" d="M1585.47,-125.979C1597.52,-122.703 1610.19,-119.245 1622,-116 1638.01,-111.6 1641.82,-109.732 1658,-106 1669.7,-103.302 1682.21,-100.732 1694.34,-98.4037"/>
<polygon fill="midnightblue" stroke="midnightblue" points="1695.24,-101.797 1704.42,-96.5069 1693.94,-94.9177 1695.24,-101.797"/>
</g>
<!-- Node24&#45;&gt;Node26 -->
<g id="edge29" class="edge"><title>Node24&#45;&gt;Node26</title>
<path fill="none" stroke="midnightblue" d="M1603.33,-125.982C1609.91,-123.2 1616.25,-119.904 1622,-116 1644.06,-101.024 1635.33,-82.0485 1658,-68 1670.13,-60.4842 1684.49,-55.7906 1698.59,-52.8952"/>
<polygon fill="midnightblue" stroke="midnightblue" points="1699.54,-56.2823 1708.77,-51.0902 1698.31,-49.3898 1699.54,-56.2823"/>
</g>
<!-- Node27&#45;&gt;Node20 -->
<g id="edge31" class="edge"><title>Node27&#45;&gt;Node20</title>
<path fill="none" stroke="midnightblue" d="M1597.42,-107.128C1605.88,-109.948 1614.27,-113.222 1622,-117 1639.97,-125.779 1639.68,-135.974 1658,-144 1668.07,-148.414 1679.14,-151.803 1690.16,-154.404"/>
<polygon fill="midnightblue" stroke="midnightblue" points="1689.73,-157.892 1700.24,-156.579 1691.2,-151.049 1689.73,-157.892"/>
</g>
<!-- Node27&#45;&gt;Node21 -->
<g id="edge32" class="edge"><title>Node27&#45;&gt;Node21</title>
<path fill="none" stroke="midnightblue" d="M1598.06,-101.723C1627.11,-105.872 1661,-110.714 1690.33,-114.904"/>
<polygon fill="midnightblue" stroke="midnightblue" points="1690.1,-118.407 1700.5,-116.357 1691.09,-111.477 1690.1,-118.407"/>
</g>
<!-- Node27&#45;&gt;Node25 -->
<g id="edge33" class="edge"><title>Node27&#45;&gt;Node25</title>
<path fill="none" stroke="midnightblue" d="M1598.06,-90.5269C1625.2,-89.9394 1656.58,-89.2603 1684.5,-88.6558"/>
<polygon fill="midnightblue" stroke="midnightblue" points="1684.7,-92.1525 1694.62,-88.4368 1684.55,-85.1541 1684.7,-92.1525"/>
</g>
<!-- Node27&#45;&gt;Node26 -->
<g id="edge34" class="edge"><title>Node27&#45;&gt;Node26</title>
<path fill="none" stroke="midnightblue" d="M1598.08,-79.1962C1617.44,-75.5657 1638.55,-71.6173 1658,-68 1671.25,-65.536 1685.46,-62.9063 1698.96,-60.4134"/>
<polygon fill="midnightblue" stroke="midnightblue" points="1699.93,-63.7949 1709.12,-58.5387 1698.66,-56.9111 1699.93,-63.7949"/>
</g>
<!-- Node28&#45;&gt;Node22 -->
<g id="edge37" class="edge"><title>Node28&#45;&gt;Node22</title>
<path fill="none" stroke="midnightblue" d="M1593.12,-235.366C1623.61,-236.026 1660.27,-236.82 1691.54,-237.497"/>
<polygon fill="midnightblue" stroke="midnightblue" points="1691.85,-241.004 1701.92,-237.721 1692,-234.006 1691.85,-241.004"/>
</g>
<!-- Node30 -->
<g id="node30" class="node"><title>Node30</title>
<g id="a_node30"><a xlink:href="../../d7/d35/classcommand_1_1_command.html#a7e1387db1d0d35d4dcd3a3ebe2ff902a" target="_top" xlink:title="command.Command.makeString">
<polygon fill="white" stroke="black" points="1440.5,-438.5 1440.5,-457.5 1617.5,-457.5 1617.5,-438.5 1440.5,-438.5"/>
<text text-anchor="middle" x="1529" y="-445.5" font-family="Helvetica,sans-Serif" font-size="10.00">command.Command.makeString</text>
</a>
</g>
</g>
<!-- Node29&#45;&gt;Node30 -->
<g id="edge40" class="edge"><title>Node29&#45;&gt;Node30</title>
<path fill="none" stroke="midnightblue" d="M1400.08,-448C1409.98,-448 1420.06,-448 1430.01,-448"/>
<polygon fill="midnightblue" stroke="midnightblue" points="1430.31,-451.5 1440.31,-448 1430.31,-444.5 1430.31,-451.5"/>
</g>
<!-- Node33 -->
<g id="node33" class="node"><title>Node33</title>
<g id="a_node33"><a xlink:href="../../d9/d1b/classcommand_1_1_command_factory.html#a0d59e4f0f925b5046957c0e054ce8bef" target="_top" xlink:title="command.CommandFactory.reset\lRepcount">
<polygon fill="white" stroke="black" points="1439.5,-389 1439.5,-419 1618.5,-419 1618.5,-389 1439.5,-389"/>
<text text-anchor="start" x="1447.5" y="-407" font-family="Helvetica,sans-Serif" font-size="10.00">command.CommandFactory.reset</text>
<text text-anchor="middle" x="1529" y="-396" font-family="Helvetica,sans-Serif" font-size="10.00">Repcount</text>
</a>
</g>
</g>
<!-- Node32&#45;&gt;Node33 -->
<g id="edge43" class="edge"><title>Node32&#45;&gt;Node33</title>
<path fill="none" stroke="midnightblue" d="M1381.51,-404C1396.73,-404 1412.96,-404 1428.88,-404"/>
<polygon fill="midnightblue" stroke="midnightblue" points="1429.28,-407.5 1439.28,-404 1429.28,-400.5 1429.28,-407.5"/>
</g>
<!-- Node35 -->
<g id="node35" class="node"><title>Node35</title>
<g id="a_node35"><a xlink:href="../../df/dcb/classturtle_1_1_turtle.html#a432dcb17f8c2751445c2c98e9b2f7fba" target="_top" xlink:title="turtle.Turtle.previousDrawLine">
<polygon fill="white" stroke="black" points="1227,-93.5 1227,-112.5 1385,-112.5 1385,-93.5 1227,-93.5"/>
<text text-anchor="middle" x="1306" y="-100.5" font-family="Helvetica,sans-Serif" font-size="10.00">turtle.Turtle.previousDrawLine</text>
</a>
</g>
</g>
<!-- Node34&#45;&gt;Node35 -->
<g id="edge45" class="edge"><title>Node34&#45;&gt;Node35</title>
<path fill="none" stroke="midnightblue" d="M1113.4,-197.936C1156.48,-176.592 1234.69,-137.838 1276.63,-117.058"/>
<polygon fill="midnightblue" stroke="midnightblue" points="1278.33,-120.122 1285.73,-112.546 1275.22,-113.85 1278.33,-120.122"/>
</g>
<!-- Node36 -->
<g id="node36" class="node"><title>Node36</title>
<g id="a_node36"><a xlink:href="../../de/d57/classturtle_1_1_pen.html#a361f4e030646d953185a8afe94427ce2" target="_top" xlink:title="turtle.Pen.penReady">
<polygon fill="white" stroke="black" points="1472.5,-0.5 1472.5,-19.5 1585.5,-19.5 1585.5,-0.5 1472.5,-0.5"/>
<text text-anchor="middle" x="1529" y="-7.5" font-family="Helvetica,sans-Serif" font-size="10.00">turtle.Pen.penReady</text>
</a>
</g>
</g>
<!-- Node35&#45;&gt;Node36 -->
<g id="edge46" class="edge"><title>Node35&#45;&gt;Node36</title>
<path fill="none" stroke="midnightblue" d="M1322.32,-93.2612C1345.91,-78.6176 1392.96,-50.8523 1436,-34 1447.76,-29.394 1460.72,-25.3968 1473.1,-22.0562"/>
<polygon fill="midnightblue" stroke="midnightblue" points="1474.07,-25.4198 1482.87,-19.5187 1472.31,-18.6445 1474.07,-25.4198"/>
</g>
</g>
</svg>
        <g id="navigator" transform="translate(0 0)" fill="#404254">
                <rect fill="#f2f5e9" fill-opacity="0.5" stroke="#606060" stroke-width=".5" x="0" y="0" width="60" height="60"/>
                <use id="zoomplus" xlink:href="#zoomPlus" x="17" y="9" onmousedown="handleZoom(evt,'in')"/>
                <use id="zoomminus" xlink:href="#zoomMin" x="42" y="9" onmousedown="handleZoom(evt,'out')"/>
                <use id="reset" xlink:href="#resetDef" x="30" y="36" onmousedown="handleReset()"/>
                <g id="arrowUp" xlink:href="#dirArrow" transform="translate(30 24)" onmousedown="handlePan(0,-1)">
                  <use xlink:href="#rim" fill="#404040">
                        <set attributeName="fill" to="#808080" begin="arrowUp.mouseover" end="arrowUp.mouseout"/>
                  </use>
                  <path fill="none" stroke="white" stroke-width="1.5" d="M0,-3.0v7 M-2.5,-0.5L0,-3.0L2.5,-0.5"/>
                </g>
                <g id="arrowRight" xlink:href="#dirArrow" transform="rotate(90) translate(36 -43)" onmousedown="handlePan(1,0)">
                  <use xlink:href="#rim" fill="#404040">
                        <set attributeName="fill" to="#808080" begin="arrowRight.mouseover" end="arrowRight.mouseout"/>
                  </use>
                  <path fill="none" stroke="white" stroke-width="1.5" d="M0,-3.0v7 M-2.5,-0.5L0,-3.0L2.5,-0.5"/>
                </g>
                <g id="arrowDown" xlink:href="#dirArrow" transform="rotate(180) translate(-30 -48)" onmousedown="handlePan(0,1)">
                  <use xlink:href="#rim" fill="#404040">
                        <set attributeName="fill" to="#808080" begin="arrowDown.mouseover" end="arrowDown.mouseout"/>
                  </use>
                  <path fill="none" stroke="white" stroke-width="1.5" d="M0,-3.0v7 M-2.5,-0.5L0,-3.0L2.5,-0.5"/>
                </g>
                <g id="arrowLeft" xlink:href="#dirArrow" transform="rotate(270) translate(-36 17)" onmousedown="handlePan(-1,0)">
                  <use xlink:href="#rim" fill="#404040">
                        <set attributeName="fill" to="#808080" begin="arrowLeft.mouseover" end="arrowLeft.mouseout"/>
                  </use>
                  <path fill="none" stroke="white" stroke-width="1.5" d="M0,-3.0v7 M-2.5,-0.5L0,-3.0L2.5,-0.5"/>
                </g>
        </g>
        <svg viewBox="0 0 15 15" width="100%" height="30px" preserveAspectRatio="xMaxYMin meet">
         <g id="arrow_out" transform="scale(0.3 0.3)">
          <a xlink:href="classuser_interface_1_1_u_i_a8b1a665c129df3827e48e2739afe870d_cgraph_org.svg" target="_base">
           <rect id="button" ry="5" rx="5" y="6" x="6" height="38" width="38"
                fill="#f2f5e9" fill-opacity="0.5" stroke="#606060" stroke-width="1.0"/>
           <path id="arrow"
             d="M 11.500037,31.436501 C 11.940474,20.09759 22.043105,11.32322 32.158766,21.979434 L 37.068811,17.246167 C 37.068811,17.246167 37.088388,32 37.088388,32 L 22.160133,31.978069 C 22.160133,31.978069 26.997745,27.140456 26.997745,27.140456 C 18.528582,18.264221 13.291696,25.230495 11.500037,31.436501 z"
             style="fill:#404040;"/>
          </a>
         </g>
        </svg>
</svg>
