<?xml version="1.0" encoding="UTF-8" standalone="no"?>
<!DOCTYPE svg PUBLIC "-//W3C//DTD SVG 1.1//EN"
 "http://www.w3.org/Graphics/SVG/1.1/DTD/svg11.dtd">
<!-- Generated by graphviz version 2.36.0 (20140111.2315)
 -->
<!-- Title: userInterface.UI.runCommand Pages: 1 -->
<svg width="1540pt" height="437pt"
 viewBox="0.00 0.00 1540.00 437.00" xmlns="http://www.w3.org/2000/svg" xmlns:xlink="http://www.w3.org/1999/xlink">
<g id="graph0" class="graph" transform="scale(1 1) rotate(0) translate(4 433)">
<title>userInterface.UI.runCommand</title>
<polygon fill="white" stroke="none" points="-4,4 -4,-433 1536,-433 1536,4 -4,4"/>
<!-- Node1 -->
<g id="node1" class="node"><title>Node1</title>
<polygon fill="#bfbfbf" stroke="black" points="0.5,-253.5 0.5,-272.5 161.5,-272.5 161.5,-253.5 0.5,-253.5"/>
<text text-anchor="middle" x="81" y="-260.5" font-family="Helvetica,sans-Serif" font-size="10.00">userInterface.UI.runCommand</text>
</g>
<!-- Node2 -->
<g id="node2" class="node"><title>Node2</title>
<g id="a_node2"><a xlink:href="../../d8/d08/classworld_controller_1_1_world_controller.html#a178425d68e3e669c386706153ce44999" target="_top" xlink:title="worldController.WorldController.update">
<polygon fill="white" stroke="black" points="198,-253.5 198,-272.5 396,-272.5 396,-253.5 198,-253.5"/>
<text text-anchor="middle" x="297" y="-260.5" font-family="Helvetica,sans-Serif" font-size="10.00">worldController.WorldController.update</text>
</a>
</g>
</g>
<!-- Node1&#45;&gt;Node2 -->
<g id="edge1" class="edge"><title>Node1&#45;&gt;Node2</title>
<path fill="none" stroke="midnightblue" d="M161.686,-263C170.142,-263 178.841,-263 187.554,-263"/>
<polygon fill="midnightblue" stroke="midnightblue" points="187.774,-266.5 197.773,-263 187.773,-259.5 187.774,-266.5"/>
</g>
<!-- Node3 -->
<g id="node3" class="node"><title>Node3</title>
<g id="a_node3"><a xlink:href="../../df/dcb/classturtle_1_1_turtle.html#a610aafaf658c4b351330b7c16c66881c" target="_top" xlink:title="turtle.Turtle.updatePenAttributes">
<polygon fill="white" stroke="black" points="432.5,-328.5 432.5,-347.5 605.5,-347.5 605.5,-328.5 432.5,-328.5"/>
<text text-anchor="middle" x="519" y="-335.5" font-family="Helvetica,sans-Serif" font-size="10.00">turtle.Turtle.updatePenAttributes</text>
</a>
</g>
</g>
<!-- Node2&#45;&gt;Node3 -->
<g id="edge2" class="edge"><title>Node2&#45;&gt;Node3</title>
<path fill="none" stroke="midnightblue" d="M326.311,-272.651C365.501,-286.012 436.383,-310.176 480.103,-325.081"/>
<polygon fill="midnightblue" stroke="midnightblue" points="479.203,-328.472 489.798,-328.386 481.462,-321.846 479.203,-328.472"/>
</g>
<!-- Node6 -->
<g id="node6" class="node"><title>Node6</title>
<g id="a_node6"><a xlink:href="../../d9/dd0/classworld_1_1_world.html#ae370733f7784c42741a6ba66c7d2ecf5" target="_top" xlink:title="world.World.listen">
<polygon fill="white" stroke="black" points="470,-178.5 470,-197.5 568,-197.5 568,-178.5 470,-178.5"/>
<text text-anchor="middle" x="519" y="-185.5" font-family="Helvetica,sans-Serif" font-size="10.00">world.World.listen</text>
</a>
</g>
</g>
<!-- Node2&#45;&gt;Node6 -->
<g id="edge5" class="edge"><title>Node2&#45;&gt;Node6</title>
<path fill="none" stroke="midnightblue" d="M326.311,-253.349C365.501,-239.988 436.383,-215.824 480.103,-200.919"/>
<polygon fill="midnightblue" stroke="midnightblue" points="481.462,-204.154 489.798,-197.614 479.203,-197.528 481.462,-204.154"/>
</g>
<!-- Node4 -->
<g id="node4" class="node"><title>Node4</title>
<g id="a_node4"><a xlink:href="../../de/d57/classturtle_1_1_pen.html#ac9a08745a9f3615b9e47c1c8e5af8f1b" target="_top" xlink:title="turtle.Pen.getColor">
<polygon fill="white" stroke="black" points="682.5,-366.5 682.5,-385.5 789.5,-385.5 789.5,-366.5 682.5,-366.5"/>
<text text-anchor="middle" x="736" y="-373.5" font-family="Helvetica,sans-Serif" font-size="10.00">turtle.Pen.getColor</text>
</a>
</g>
</g>
<!-- Node3&#45;&gt;Node4 -->
<g id="edge3" class="edge"><title>Node3&#45;&gt;Node4</title>
<path fill="none" stroke="midnightblue" d="M573.976,-347.54C603.945,-352.837 641.364,-359.45 672.586,-364.969"/>
<polygon fill="midnightblue" stroke="midnightblue" points="672.032,-368.425 682.488,-366.719 673.25,-361.532 672.032,-368.425"/>
</g>
<!-- Node5 -->
<g id="node5" class="node"><title>Node5</title>
<g id="a_node5"><a xlink:href="../../de/d57/classturtle_1_1_pen.html#a76c8dc4e66927e7d3774ea00b2266640" target="_top" xlink:title="turtle.Pen.getSize">
<polygon fill="white" stroke="black" points="685,-328.5 685,-347.5 787,-347.5 787,-328.5 685,-328.5"/>
<text text-anchor="middle" x="736" y="-335.5" font-family="Helvetica,sans-Serif" font-size="10.00">turtle.Pen.getSize</text>
</a>
</g>
</g>
<!-- Node3&#45;&gt;Node5 -->
<g id="edge4" class="edge"><title>Node3&#45;&gt;Node5</title>
<path fill="none" stroke="midnightblue" d="M605.591,-338C628.738,-338 653.299,-338 674.733,-338"/>
<polygon fill="midnightblue" stroke="midnightblue" points="674.984,-341.5 684.984,-338 674.984,-334.5 674.984,-341.5"/>
</g>
<!-- Node7 -->
<g id="node7" class="node"><title>Node7</title>
<g id="a_node7"><a xlink:href="../../d6/d95/classparser_1_1_parser.html#a240c75608624a9c67402a296855c4d1d" target="_top" xlink:title="parser.Parser.initialize\lCommands">
<polygon fill="white" stroke="black" points="676,-279 676,-309 796,-309 796,-279 676,-279"/>
<text text-anchor="start" x="684" y="-297" font-family="Helvetica,sans-Serif" font-size="10.00">parser.Parser.initialize</text>
<text text-anchor="middle" x="736" y="-286" font-family="Helvetica,sans-Serif" font-size="10.00">Commands</text>
</a>
</g>
</g>
<!-- Node6&#45;&gt;Node7 -->
<g id="edge6" class="edge"><title>Node6&#45;&gt;Node7</title>
<path fill="none" stroke="midnightblue" d="M531.697,-197.675C552.582,-214.494 598.211,-249.216 642,-269 649.666,-272.463 657.91,-275.531 666.21,-278.225"/>
<polygon fill="midnightblue" stroke="midnightblue" points="665.361,-281.625 675.948,-281.217 667.417,-274.934 665.361,-281.625"/>
</g>
<!-- Node11 -->
<g id="node11" class="node"><title>Node11</title>
<g id="a_node11"><a xlink:href="../../d6/d95/classparser_1_1_parser.html#a4ecbffc246c3add017c4720eed4c6da9" target="_top" xlink:title="parser.Parser.parse">
<polygon fill="white" stroke="black" points="681.5,-240.5 681.5,-259.5 790.5,-259.5 790.5,-240.5 681.5,-240.5"/>
<text text-anchor="middle" x="736" y="-247.5" font-family="Helvetica,sans-Serif" font-size="10.00">parser.Parser.parse</text>
</a>
</g>
</g>
<!-- Node6&#45;&gt;Node11 -->
<g id="edge10" class="edge"><title>Node6&#45;&gt;Node11</title>
<path fill="none" stroke="midnightblue" d="M553.123,-197.552C590.448,-208.315 651.236,-225.845 692.149,-237.643"/>
<polygon fill="midnightblue" stroke="midnightblue" points="691.262,-241.03 701.84,-240.438 693.201,-234.304 691.262,-241.03"/>
</g>
<!-- Node24 -->
<g id="node24" class="node"><title>Node24</title>
<g id="a_node24"><a xlink:href="../../d7/d35/classcommand_1_1_command.html#a957099a70dd30b5dc897e0caf07d2d99" target="_top" xlink:title="command.Command.getCommand\lValues">
<polygon fill="white" stroke="black" points="642,-173 642,-203 830,-203 830,-173 642,-173"/>
<text text-anchor="start" x="650" y="-191" font-family="Helvetica,sans-Serif" font-size="10.00">command.Command.getCommand</text>
<text text-anchor="middle" x="736" y="-180" font-family="Helvetica,sans-Serif" font-size="10.00">Values</text>
</a>
</g>
</g>
<!-- Node6&#45;&gt;Node24 -->
<g id="edge34" class="edge"><title>Node6&#45;&gt;Node24</title>
<path fill="none" stroke="midnightblue" d="M568.25,-188C587.146,-188 609.594,-188 631.797,-188"/>
<polygon fill="midnightblue" stroke="midnightblue" points="631.968,-191.5 641.968,-188 631.968,-184.5 631.968,-191.5"/>
</g>
<!-- Node26 -->
<g id="node26" class="node"><title>Node26</title>
<g id="a_node26"><a xlink:href="../../d6/d95/classparser_1_1_parser.html#a8679d61f4ae6c55910ef113bcdda2c75" target="_top" xlink:title="parser.Parser.updateVariable">
<polygon fill="white" stroke="black" points="659,-134.5 659,-153.5 813,-153.5 813,-134.5 659,-134.5"/>
<text text-anchor="middle" x="736" y="-141.5" font-family="Helvetica,sans-Serif" font-size="10.00">parser.Parser.updateVariable</text>
</a>
</g>
</g>
<!-- Node6&#45;&gt;Node26 -->
<g id="edge36" class="edge"><title>Node6&#45;&gt;Node26</title>
<path fill="none" stroke="midnightblue" d="M566.344,-178.496C589.132,-173.825 617.005,-168.114 642,-163 653.73,-160.6 666.293,-158.032 678.271,-155.584"/>
<polygon fill="midnightblue" stroke="midnightblue" points="679.067,-158.994 688.164,-153.563 677.666,-152.136 679.067,-158.994"/>
</g>
<!-- Node28 -->
<g id="node28" class="node"><title>Node28</title>
<g id="a_node28"><a xlink:href="../../d9/dd0/classworld_1_1_world.html#adcbcb8328c7e832fcb710a91457e6772" target="_top" xlink:title="world.World.runCommand">
<polygon fill="white" stroke="black" points="666.5,-96.5 666.5,-115.5 805.5,-115.5 805.5,-96.5 666.5,-96.5"/>
<text text-anchor="middle" x="736" y="-103.5" font-family="Helvetica,sans-Serif" font-size="10.00">world.World.runCommand</text>
</a>
</g>
</g>
<!-- Node6&#45;&gt;Node28 -->
<g id="edge38" class="edge"><title>Node6&#45;&gt;Node28</title>
<path fill="none" stroke="midnightblue" d="M535.174,-178.413C557.659,-164.621 601.535,-139.273 642,-125 649.624,-122.311 657.74,-119.955 665.881,-117.903"/>
<polygon fill="midnightblue" stroke="midnightblue" points="666.871,-121.265 675.792,-115.549 665.254,-114.455 666.871,-121.265"/>
</g>
<!-- Node29 -->
<g id="node29" class="node"><title>Node29</title>
<g id="a_node29"><a xlink:href="../../d6/d95/classparser_1_1_parser.html#acebafe1593fc1f09ac31c7104438e4b1" target="_top" xlink:title="parser.Parser.resetRepcount">
<polygon fill="white" stroke="black" points="660.5,-23.5 660.5,-42.5 811.5,-42.5 811.5,-23.5 660.5,-23.5"/>
<text text-anchor="middle" x="736" y="-30.5" font-family="Helvetica,sans-Serif" font-size="10.00">parser.Parser.resetRepcount</text>
</a>
</g>
</g>
<!-- Node6&#45;&gt;Node29 -->
<g id="edge39" class="edge"><title>Node6&#45;&gt;Node29</title>
<path fill="none" stroke="midnightblue" d="M530.301,-178.465C550.741,-159.779 598.24,-117.506 642,-87 663.095,-72.2945 688.41,-57.7819 707.299,-47.5112"/>
<polygon fill="midnightblue" stroke="midnightblue" points="709.12,-50.5059 716.271,-42.6882 705.806,-44.3402 709.12,-50.5059"/>
</g>
<!-- Node8 -->
<g id="node8" class="node"><title>Node8</title>
<g id="a_node8"><a xlink:href="../../d6/d95/classparser_1_1_parser.html#a4f582c65390bddc57219c0b5c31ef5e7" target="_top" xlink:title="parser.Parser.makeTree">
<polygon fill="white" stroke="black" points="896,-409.5 896,-428.5 1024,-428.5 1024,-409.5 896,-409.5"/>
<text text-anchor="middle" x="960" y="-416.5" font-family="Helvetica,sans-Serif" font-size="10.00">parser.Parser.makeTree</text>
</a>
</g>
</g>
<!-- Node7&#45;&gt;Node8 -->
<g id="edge7" class="edge"><title>Node7&#45;&gt;Node8</title>
<path fill="none" stroke="midnightblue" d="M796.44,-301.597C808.543,-305.329 820.471,-310.849 830,-319 859.938,-344.607 835.294,-375.319 866,-400 871.916,-404.756 878.715,-408.415 885.886,-411.219"/>
<polygon fill="midnightblue" stroke="midnightblue" points="885.255,-414.697 895.848,-414.534 887.465,-408.055 885.255,-414.697"/>
</g>
<!-- Node9 -->
<g id="node9" class="node"><title>Node9</title>
<g id="a_node9"><a xlink:href="../../d9/d1b/classcommand_1_1_command_factory.html#a87bf7e648425bb22124367cabedb3327" target="_top" xlink:title="command.CommandFactory.get\lNumParameters">
<polygon fill="white" stroke="black" points="1109,-399 1109,-429 1279,-429 1279,-399 1109,-399"/>
<text text-anchor="start" x="1117" y="-417" font-family="Helvetica,sans-Serif" font-size="10.00">command.CommandFactory.get</text>
<text text-anchor="middle" x="1194" y="-406" font-family="Helvetica,sans-Serif" font-size="10.00">NumParameters</text>
</a>
</g>
</g>
<!-- Node8&#45;&gt;Node9 -->
<g id="edge8" class="edge"><title>Node8&#45;&gt;Node9</title>
<path fill="none" stroke="midnightblue" d="M1024.09,-417.64C1046.97,-417.147 1073.34,-416.579 1098.34,-416.04"/>
<polygon fill="midnightblue" stroke="midnightblue" points="1098.67,-419.534 1108.59,-415.819 1098.51,-412.536 1098.67,-419.534"/>
</g>
<!-- Node10 -->
<g id="node10" class="node"><title>Node10</title>
<g id="a_node10"><a xlink:href="../../d9/d1b/classcommand_1_1_command_factory.html#a947fdc151e857ea74564d0d1fe268246" target="_top" xlink:title="command.CommandFactory.translate\lCommand">
<polygon fill="white" stroke="black" points="1334.5,-242 1334.5,-272 1531.5,-272 1531.5,-242 1334.5,-242"/>
<text text-anchor="start" x="1342.5" y="-260" font-family="Helvetica,sans-Serif" font-size="10.00">command.CommandFactory.translate</text>
<text text-anchor="middle" x="1433" y="-249" font-family="Helvetica,sans-Serif" font-size="10.00">Command</text>
</a>
</g>
</g>
<!-- Node9&#45;&gt;Node10 -->
<g id="edge9" class="edge"><title>Node9&#45;&gt;Node10</title>
<path fill="none" stroke="midnightblue" d="M1268.3,-398.992C1278.61,-395.489 1288.81,-391.211 1298,-386 1346.57,-358.451 1390.67,-309.257 1414.17,-280.232"/>
<polygon fill="midnightblue" stroke="midnightblue" points="1417.02,-282.269 1420.51,-272.266 1411.55,-277.909 1417.02,-282.269"/>
</g>
<!-- Node11&#45;&gt;Node8 -->
<g id="edge33" class="edge"><title>Node11&#45;&gt;Node8</title>
<path fill="none" stroke="midnightblue" d="M790.905,-251.008C805.111,-253.752 819.41,-259.093 830,-269 874.095,-310.249 821.905,-358.751 866,-400 871.839,-405.462 878.804,-409.536 886.26,-412.552"/>
<polygon fill="midnightblue" stroke="midnightblue" points="885.325,-415.93 895.919,-415.831 887.575,-409.302 885.325,-415.93"/>
</g>
<!-- Node12 -->
<g id="node12" class="node"><title>Node12</title>
<g id="a_node12"><a xlink:href="../../d9/d1b/classcommand_1_1_command_factory.html#ab25bb047b051661d31adf73b2dae5649" target="_top" xlink:title="command.CommandFactory.create\lCommand">
<polygon fill="white" stroke="black" points="867.5,-137 867.5,-167 1052.5,-167 1052.5,-137 867.5,-137"/>
<text text-anchor="start" x="875.5" y="-155" font-family="Helvetica,sans-Serif" font-size="10.00">command.CommandFactory.create</text>
<text text-anchor="middle" x="960" y="-144" font-family="Helvetica,sans-Serif" font-size="10.00">Command</text>
</a>
</g>
</g>
<!-- Node11&#45;&gt;Node12 -->
<g id="edge11" class="edge"><title>Node11&#45;&gt;Node12</title>
<path fill="none" stroke="midnightblue" d="M769.12,-240.419C787.794,-234.007 811.262,-224.455 830,-212 848.844,-199.474 846.352,-187.223 866,-176 869.061,-174.252 872.251,-172.628 875.527,-171.121"/>
<polygon fill="midnightblue" stroke="midnightblue" points="877.081,-174.265 884.954,-167.175 874.378,-167.808 877.081,-174.265"/>
</g>
<!-- Node14 -->
<g id="node14" class="node"><title>Node14</title>
<g id="a_node14"><a xlink:href="../../d6/d95/classparser_1_1_parser.html#aac1cff62f68138c7e977a67d39671701" target="_top" xlink:title="parser.Parser.generateCommand\lInput">
<polygon fill="white" stroke="black" points="872,-284 872,-314 1048,-314 1048,-284 872,-284"/>
<text text-anchor="start" x="880" y="-302" font-family="Helvetica,sans-Serif" font-size="10.00">parser.Parser.generateCommand</text>
<text text-anchor="middle" x="960" y="-291" font-family="Helvetica,sans-Serif" font-size="10.00">Input</text>
</a>
</g>
</g>
<!-- Node11&#45;&gt;Node14 -->
<g id="edge14" class="edge"><title>Node11&#45;&gt;Node14</title>
<path fill="none" stroke="midnightblue" d="M784.842,-259.517C799.363,-262.475 815.349,-265.8 830,-269 848.101,-272.953 867.588,-277.39 885.794,-281.614"/>
<polygon fill="midnightblue" stroke="midnightblue" points="885.227,-285.076 895.76,-283.935 886.815,-278.258 885.227,-285.076"/>
</g>
<!-- Node17 -->
<g id="node17" class="node"><title>Node17</title>
<g id="a_node17"><a xlink:href="../../d3/dcc/classparser_1_1_node.html#a9c12e8d4375a7517eae0a35724b253c4" target="_top" xlink:title="parser.Node.getValue">
<polygon fill="white" stroke="black" points="1134,-357.5 1134,-376.5 1254,-376.5 1254,-357.5 1134,-357.5"/>
<text text-anchor="middle" x="1194" y="-364.5" font-family="Helvetica,sans-Serif" font-size="10.00">parser.Node.getValue</text>
</a>
</g>
</g>
<!-- Node11&#45;&gt;Node17 -->
<g id="edge30" class="edge"><title>Node11&#45;&gt;Node17</title>
<path fill="none" stroke="midnightblue" d="M790.978,-253.742C804.553,-256.572 818.514,-261.274 830,-269 853.933,-285.1 841.535,-307.72 866,-323 907.743,-349.07 1040.77,-359.966 1123.74,-364.313"/>
<polygon fill="midnightblue" stroke="midnightblue" points="1123.68,-367.815 1133.85,-364.823 1124.04,-360.824 1123.68,-367.815"/>
</g>
<!-- Node19 -->
<g id="node19" class="node"><title>Node19</title>
<g id="a_node19"><a xlink:href="../../d6/d95/classparser_1_1_parser.html#a3efcd1192e76101919526b4a5e0046f4" target="_top" xlink:title="parser.Parser.getNodeBefore\lToReplace">
<polygon fill="white" stroke="black" points="882.5,-235 882.5,-265 1037.5,-265 1037.5,-235 882.5,-235"/>
<text text-anchor="start" x="890.5" y="-253" font-family="Helvetica,sans-Serif" font-size="10.00">parser.Parser.getNodeBefore</text>
<text text-anchor="middle" x="960" y="-242" font-family="Helvetica,sans-Serif" font-size="10.00">ToReplace</text>
</a>
</g>
</g>
<!-- Node11&#45;&gt;Node19 -->
<g id="edge19" class="edge"><title>Node11&#45;&gt;Node19</title>
<path fill="none" stroke="midnightblue" d="M790.74,-250C815.198,-250 844.763,-250 872.243,-250"/>
<polygon fill="midnightblue" stroke="midnightblue" points="872.26,-253.5 882.26,-250 872.26,-246.5 872.26,-253.5"/>
</g>
<!-- Node22 -->
<g id="node22" class="node"><title>Node22</title>
<g id="a_node22"><a xlink:href="../../d6/d95/classparser_1_1_parser.html#a447c473b62ba23b7c144df9bb38a9a41" target="_top" xlink:title="parser.Parser.getNodeFor\lCommand">
<polygon fill="white" stroke="black" points="891,-186 891,-216 1029,-216 1029,-186 891,-186"/>
<text text-anchor="start" x="899" y="-204" font-family="Helvetica,sans-Serif" font-size="10.00">parser.Parser.getNodeFor</text>
<text text-anchor="middle" x="960" y="-193" font-family="Helvetica,sans-Serif" font-size="10.00">Command</text>
</a>
</g>
</g>
<!-- Node11&#45;&gt;Node22 -->
<g id="edge25" class="edge"><title>Node11&#45;&gt;Node22</title>
<path fill="none" stroke="midnightblue" d="M780.067,-240.494C808.643,-234.187 846.979,-225.725 880.836,-218.252"/>
<polygon fill="midnightblue" stroke="midnightblue" points="881.707,-221.644 890.718,-216.071 880.199,-214.809 881.707,-221.644"/>
</g>
<!-- Node23 -->
<g id="node23" class="node"><title>Node23</title>
<g id="a_node23"><a xlink:href="../../d3/dcc/classparser_1_1_node.html#a066da2b478008f39a02440d7afceb9ee" target="_top" xlink:title="parser.Node.insertChild">
<polygon fill="white" stroke="black" points="896,-371.5 896,-390.5 1024,-390.5 1024,-371.5 896,-371.5"/>
<text text-anchor="middle" x="960" y="-378.5" font-family="Helvetica,sans-Serif" font-size="10.00">parser.Node.insertChild</text>
</a>
</g>
</g>
<!-- Node11&#45;&gt;Node23 -->
<g id="edge31" class="edge"><title>Node11&#45;&gt;Node23</title>
<path fill="none" stroke="midnightblue" d="M790.645,-251.948C804.684,-254.727 818.961,-259.852 830,-269 862.537,-295.964 834.162,-329.215 866,-357 871.919,-362.165 878.808,-366.242 886.111,-369.456"/>
<polygon fill="midnightblue" stroke="midnightblue" points="884.95,-372.76 895.54,-373.083 887.464,-366.226 884.95,-372.76"/>
</g>
<!-- Node12&#45;&gt;Node10 -->
<g id="edge13" class="edge"><title>Node12&#45;&gt;Node10</title>
<path fill="none" stroke="midnightblue" d="M1015.85,-136.989C1044.09,-129.543 1075.57,-121.763 1090,-120 1181.76,-108.789 1212.79,-84.1509 1298,-120 1352.66,-142.997 1396.17,-200.384 1417.55,-233.125"/>
<polygon fill="midnightblue" stroke="midnightblue" points="1414.66,-235.104 1422.99,-241.657 1420.57,-231.342 1414.66,-235.104"/>
</g>
<!-- Node13 -->
<g id="node13" class="node"><title>Node13</title>
<g id="a_node13"><a xlink:href="../../d9/d1b/classcommand_1_1_command_factory.html#abd97ea3e22afc09e07ed1d4fd039d11f" target="_top" xlink:title="command.CommandFactory.reflectCMD">
<polygon fill="white" stroke="black" points="1090.5,-129.5 1090.5,-148.5 1297.5,-148.5 1297.5,-129.5 1090.5,-129.5"/>
<text text-anchor="middle" x="1194" y="-136.5" font-family="Helvetica,sans-Serif" font-size="10.00">command.CommandFactory.reflectCMD</text>
</a>
</g>
</g>
<!-- Node12&#45;&gt;Node13 -->
<g id="edge12" class="edge"><title>Node12&#45;&gt;Node13</title>
<path fill="none" stroke="midnightblue" d="M1052.69,-146.862C1061.81,-146.351 1071.13,-145.829 1080.43,-145.308"/>
<polygon fill="midnightblue" stroke="midnightblue" points="1080.7,-148.798 1090.49,-144.744 1080.31,-141.809 1080.7,-148.798"/>
</g>
<!-- Node15 -->
<g id="node15" class="node"><title>Node15</title>
<g id="a_node15"><a xlink:href="../../d3/dcc/classparser_1_1_node.html#aa67bc0d39227232943abec9b95b23235" target="_top" xlink:title="parser.Node.getChild1">
<polygon fill="white" stroke="black" points="1132.5,-281.5 1132.5,-300.5 1255.5,-300.5 1255.5,-281.5 1132.5,-281.5"/>
<text text-anchor="middle" x="1194" y="-288.5" font-family="Helvetica,sans-Serif" font-size="10.00">parser.Node.getChild1</text>
</a>
</g>
</g>
<!-- Node14&#45;&gt;Node15 -->
<g id="edge15" class="edge"><title>Node14&#45;&gt;Node15</title>
<path fill="none" stroke="midnightblue" d="M1048.05,-295.998C1072.46,-295.156 1098.71,-294.251 1122.07,-293.446"/>
<polygon fill="midnightblue" stroke="midnightblue" points="1122.36,-296.938 1132.23,-293.095 1122.12,-289.942 1122.36,-296.938"/>
</g>
<!-- Node16 -->
<g id="node16" class="node"><title>Node16</title>
<g id="a_node16"><a xlink:href="../../d3/dcc/classparser_1_1_node.html#a0f13775acc62af77cdde90dbeaf26bbc" target="_top" xlink:title="parser.Node.getChild2">
<polygon fill="white" stroke="black" points="1132.5,-243.5 1132.5,-262.5 1255.5,-262.5 1255.5,-243.5 1132.5,-243.5"/>
<text text-anchor="middle" x="1194" y="-250.5" font-family="Helvetica,sans-Serif" font-size="10.00">parser.Node.getChild2</text>
</a>
</g>
</g>
<!-- Node14&#45;&gt;Node16 -->
<g id="edge16" class="edge"><title>Node14&#45;&gt;Node16</title>
<path fill="none" stroke="midnightblue" d="M1031.24,-283.981C1050.29,-279.995 1070.92,-275.757 1090,-272 1102.94,-269.453 1116.81,-266.825 1130.05,-264.365"/>
<polygon fill="midnightblue" stroke="midnightblue" points="1130.83,-267.781 1140.03,-262.521 1129.56,-260.897 1130.83,-267.781"/>
</g>
<!-- Node14&#45;&gt;Node17 -->
<g id="edge17" class="edge"><title>Node14&#45;&gt;Node17</title>
<path fill="none" stroke="midnightblue" d="M1013.23,-314.093C1026.69,-318.456 1041.02,-323.532 1054,-329 1070.67,-336.026 1072.91,-342.069 1090,-348 1100.76,-351.735 1112.43,-354.779 1123.9,-357.248"/>
<polygon fill="midnightblue" stroke="midnightblue" points="1123.42,-360.721 1133.92,-359.272 1124.81,-353.86 1123.42,-360.721"/>
</g>
<!-- Node18 -->
<g id="node18" class="node"><title>Node18</title>
<g id="a_node18"><a xlink:href="../../d3/dcc/classparser_1_1_node.html#a6bbc0c61aaa261077eb87cfc4e2b45dc" target="_top" xlink:title="parser.Node.numChildren">
<polygon fill="white" stroke="black" points="1124.5,-319.5 1124.5,-338.5 1263.5,-338.5 1263.5,-319.5 1124.5,-319.5"/>
<text text-anchor="middle" x="1194" y="-326.5" font-family="Helvetica,sans-Serif" font-size="10.00">parser.Node.numChildren</text>
</a>
</g>
</g>
<!-- Node14&#45;&gt;Node18 -->
<g id="edge18" class="edge"><title>Node14&#45;&gt;Node18</title>
<path fill="none" stroke="midnightblue" d="M1048.05,-310.256C1069.8,-313.069 1093.01,-316.07 1114.33,-318.828"/>
<polygon fill="midnightblue" stroke="midnightblue" points="1113.94,-322.306 1124.31,-320.118 1114.84,-315.364 1113.94,-322.306"/>
</g>
<!-- Node19&#45;&gt;Node15 -->
<g id="edge20" class="edge"><title>Node19&#45;&gt;Node15</title>
<path fill="none" stroke="midnightblue" d="M1037.61,-263.539C1067.23,-268.774 1100.74,-274.696 1129.04,-279.697"/>
<polygon fill="midnightblue" stroke="midnightblue" points="1128.76,-283.201 1139.21,-281.495 1129.98,-276.308 1128.76,-283.201"/>
</g>
<!-- Node19&#45;&gt;Node16 -->
<g id="edge21" class="edge"><title>Node19&#45;&gt;Node16</title>
<path fill="none" stroke="midnightblue" d="M1037.61,-250.991C1064.88,-251.343 1095.44,-251.738 1122.2,-252.085"/>
<polygon fill="midnightblue" stroke="midnightblue" points="1122.21,-255.585 1132.26,-252.215 1122.3,-248.585 1122.21,-255.585"/>
</g>
<!-- Node19&#45;&gt;Node17 -->
<g id="edge22" class="edge"><title>Node19&#45;&gt;Node17</title>
<path fill="none" stroke="midnightblue" d="M1037.79,-263.846C1043.6,-266.641 1049.09,-269.99 1054,-274 1082.32,-297.148 1060.89,-325.859 1090,-348 1099.88,-355.513 1111.81,-360.371 1124,-363.454"/>
<polygon fill="midnightblue" stroke="midnightblue" points="1123.28,-366.88 1133.8,-365.564 1124.76,-360.037 1123.28,-366.88"/>
</g>
<!-- Node20 -->
<g id="node20" class="node"><title>Node20</title>
<g id="a_node20"><a xlink:href="../../d3/dcc/classparser_1_1_node.html#ab14db24c0724dec4387e29d513008e2e" target="_top" xlink:title="parser.Node.hasChildren">
<polygon fill="white" stroke="black" points="1127,-205.5 1127,-224.5 1261,-224.5 1261,-205.5 1127,-205.5"/>
<text text-anchor="middle" x="1194" y="-212.5" font-family="Helvetica,sans-Serif" font-size="10.00">parser.Node.hasChildren</text>
</a>
</g>
</g>
<!-- Node19&#45;&gt;Node20 -->
<g id="edge23" class="edge"><title>Node19&#45;&gt;Node20</title>
<path fill="none" stroke="midnightblue" d="M1037.61,-238.443C1064.06,-234.452 1093.61,-229.994 1119.78,-226.046"/>
<polygon fill="midnightblue" stroke="midnightblue" points="1120.64,-229.456 1130.01,-224.503 1119.6,-222.534 1120.64,-229.456"/>
</g>
<!-- Node21 -->
<g id="node21" class="node"><title>Node21</title>
<g id="a_node21"><a xlink:href="../../d3/dcc/classparser_1_1_node.html#aa92667a825777b3d757bc3b1a247ac20" target="_top" xlink:title="parser.Node.isLeaf">
<polygon fill="white" stroke="black" points="1141,-167.5 1141,-186.5 1247,-186.5 1247,-167.5 1141,-167.5"/>
<text text-anchor="middle" x="1194" y="-174.5" font-family="Helvetica,sans-Serif" font-size="10.00">parser.Node.isLeaf</text>
</a>
</g>
</g>
<!-- Node19&#45;&gt;Node21 -->
<g id="edge24" class="edge"><title>Node19&#45;&gt;Node21</title>
<path fill="none" stroke="midnightblue" d="M1030.27,-234.848C1038.46,-232.051 1046.55,-228.789 1054,-225 1072.31,-215.688 1071.33,-204.57 1090,-196 1102.7,-190.171 1117.06,-186.13 1130.93,-183.328"/>
<polygon fill="midnightblue" stroke="midnightblue" points="1131.71,-186.743 1140.92,-181.499 1130.45,-179.858 1131.71,-186.743"/>
</g>
<!-- Node22&#45;&gt;Node15 -->
<g id="edge26" class="edge"><title>Node22&#45;&gt;Node15</title>
<path fill="none" stroke="midnightblue" d="M1029.31,-212.961C1038.01,-216.087 1046.49,-220.029 1054,-225 1075.94,-239.527 1067.57,-258.252 1090,-272 1099.77,-277.989 1110.98,-282.181 1122.32,-285.097"/>
<polygon fill="midnightblue" stroke="midnightblue" points="1121.76,-288.559 1132.28,-287.344 1123.3,-281.73 1121.76,-288.559"/>
</g>
<!-- Node22&#45;&gt;Node16 -->
<g id="edge27" class="edge"><title>Node22&#45;&gt;Node16</title>
<path fill="none" stroke="midnightblue" d="M1019.49,-216.056C1051.83,-224.366 1086.26,-233.178 1090,-234 1102.12,-236.665 1115.1,-239.26 1127.62,-241.632"/>
<polygon fill="midnightblue" stroke="midnightblue" points="1127.06,-245.088 1137.54,-243.484 1128.35,-238.207 1127.06,-245.088"/>
</g>
<!-- Node22&#45;&gt;Node20 -->
<g id="edge28" class="edge"><title>Node22&#45;&gt;Node20</title>
<path fill="none" stroke="midnightblue" d="M1029.04,-205.106C1056.55,-206.766 1088.42,-208.689 1116.71,-210.396"/>
<polygon fill="midnightblue" stroke="midnightblue" points="1116.77,-213.906 1126.96,-211.015 1117.19,-206.919 1116.77,-213.906"/>
</g>
<!-- Node22&#45;&gt;Node21 -->
<g id="edge29" class="edge"><title>Node22&#45;&gt;Node21</title>
<path fill="none" stroke="midnightblue" d="M1029.04,-193.961C1061.25,-190.629 1099.45,-186.677 1130.88,-183.427"/>
<polygon fill="midnightblue" stroke="midnightblue" points="1131.24,-186.908 1140.82,-182.398 1130.52,-179.945 1131.24,-186.908"/>
</g>
<!-- Node23&#45;&gt;Node17 -->
<g id="edge32" class="edge"><title>Node23&#45;&gt;Node17</title>
<path fill="none" stroke="midnightblue" d="M1024.09,-377.193C1054.96,-375.33 1092.2,-373.083 1123.85,-371.173"/>
<polygon fill="midnightblue" stroke="midnightblue" points="1124.14,-374.662 1133.91,-370.566 1123.72,-367.674 1124.14,-374.662"/>
</g>
<!-- Node25 -->
<g id="node25" class="node"><title>Node25</title>
<g id="a_node25"><a xlink:href="../../d7/d35/classcommand_1_1_command.html#a7e1387db1d0d35d4dcd3a3ebe2ff902a" target="_top" xlink:title="command.Command.makeString">
<polygon fill="white" stroke="black" points="871.5,-98.5 871.5,-117.5 1048.5,-117.5 1048.5,-98.5 871.5,-98.5"/>
<text text-anchor="middle" x="960" y="-105.5" font-family="Helvetica,sans-Serif" font-size="10.00">command.Command.makeString</text>
</a>
</g>
</g>
<!-- Node24&#45;&gt;Node25 -->
<g id="edge35" class="edge"><title>Node24&#45;&gt;Node25</title>
<path fill="none" stroke="midnightblue" d="M808.628,-172.9C816.073,-170.12 823.341,-166.848 830,-163 849.591,-151.678 846.072,-137.718 866,-127 870.309,-124.683 874.869,-122.647 879.564,-120.86"/>
<polygon fill="midnightblue" stroke="midnightblue" points="881.015,-124.063 889.354,-117.527 878.759,-117.436 881.015,-124.063"/>
</g>
<!-- Node27 -->
<g id="node27" class="node"><title>Node27</title>
<g id="a_node27"><a xlink:href="../../d9/d1b/classcommand_1_1_command_factory.html#a8347db76764ea8308d029789b49519dd" target="_top" xlink:title="command.CommandFactory.update\lVariable">
<polygon fill="white" stroke="black" points="866,-49 866,-79 1054,-79 1054,-49 866,-49"/>
<text text-anchor="start" x="874" y="-67" font-family="Helvetica,sans-Serif" font-size="10.00">command.CommandFactory.update</text>
<text text-anchor="middle" x="960" y="-56" font-family="Helvetica,sans-Serif" font-size="10.00">Variable</text>
</a>
</g>
</g>
<!-- Node26&#45;&gt;Node27 -->
<g id="edge37" class="edge"><title>Node26&#45;&gt;Node27</title>
<path fill="none" stroke="midnightblue" d="M806.646,-134.473C814.774,-132.006 822.743,-128.903 830,-125 849.928,-114.282 846.409,-100.322 866,-89 869.85,-86.7753 873.903,-84.7431 878.076,-82.8873"/>
<polygon fill="midnightblue" stroke="midnightblue" points="879.431,-86.1147 887.372,-79.1003 876.79,-79.6321 879.431,-86.1147"/>
</g>
<!-- Node30 -->
<g id="node30" class="node"><title>Node30</title>
<g id="a_node30"><a xlink:href="../../d9/d1b/classcommand_1_1_command_factory.html#a0d59e4f0f925b5046957c0e054ce8bef" target="_top" xlink:title="command.CommandFactory.reset\lRepcount">
<polygon fill="white" stroke="black" points="870.5,-0 870.5,-30 1049.5,-30 1049.5,-0 870.5,-0"/>
<text text-anchor="start" x="878.5" y="-18" font-family="Helvetica,sans-Serif" font-size="10.00">command.CommandFactory.reset</text>
<text text-anchor="middle" x="960" y="-7" font-family="Helvetica,sans-Serif" font-size="10.00">Repcount</text>
</a>
</g>
</g>
<!-- Node29&#45;&gt;Node30 -->
<g id="edge40" class="edge"><title>Node29&#45;&gt;Node30</title>
<path fill="none" stroke="midnightblue" d="M811.54,-26.9562C827.187,-25.6875 843.922,-24.3307 860.295,-23.0031"/>
<polygon fill="midnightblue" stroke="midnightblue" points="860.745,-26.4782 870.43,-22.1814 860.18,-19.5011 860.745,-26.4782"/>
</g>
</g>
</svg>
