<?xml version="1.0" encoding="UTF-8" standalone="no"?>
<!DOCTYPE svg PUBLIC "-//W3C//DTD SVG 1.1//EN"
 "http://www.w3.org/Graphics/SVG/1.1/DTD/svg11.dtd">
<!-- Generated by graphviz version 2.36.0 (20140111.2315)
 -->
<!-- Title: userInterface.UI.initialize Pages: 1 -->
<!--zoomable 483 -->
<svg id="main" version="1.1" xmlns="http://www.w3.org/2000/svg" xmlns:xlink="http://www.w3.org/1999/xlink" xml:space="preserve" onload="init(evt)">
<style type="text/css"><![CDATA[
.edge:hover path { stroke: red; }
.edge:hover polygon { stroke: red; fill: red; }
]]></style>
<script type="text/javascript"><![CDATA[
var edges = document.getElementsByTagName('g');
if (edges && edges.length) {
  for (var i=0;i<edges.length;i++) {
    if (edges[i].id.substr(0,4)=='edge') {
      edges[i].setAttribute('class','edge');
    }
  }
}
]]></script>
        <defs>
                <circle id="rim" cx="0" cy="0" r="7"/>
                <circle id="rim2" cx="0" cy="0" r="3.5"/>
                <g id="zoomPlus">
                        <use xlink:href="#rim" fill="#404040">
                                <set attributeName="fill" to="#808080" begin="zoomplus.mouseover" end="zoomplus.mouseout"/>
                        </use>
                        <path d="M-4,0h8M0,-4v8" fill="none" stroke="white" stroke-width="1.5" pointer-events="none"/>
                </g>
                <g id="zoomMin">
                        <use xlink:href="#rim" fill="#404040">
                                <set attributeName="fill" to="#808080" begin="zoomminus.mouseover" end="zoomminus.mouseout"/>
                        </use>
                        <path d="M-4,0h8" fill="none" stroke="white" stroke-width="1.5" pointer-events="none"/>
                </g>
                <g id="dirArrow">
                        <path fill="none" stroke="white" stroke-width="1.5" d="M0,-3.0v7 M-2.5,-0.5L0,-3.0L2.5,-0.5"/>
                </g>
               <g id="resetDef">
                       <use xlink:href="#rim2" fill="#404040">
                               <set attributeName="fill" to="#808080" begin="reset.mouseover" end="reset.mouseout"/>
                       </use>
               </g>
        </defs>

<script type="text/javascript">
var viewWidth = 2096;
var viewHeight = 483;
var sectionId = 'dynsection-6';
</script>
<script xlink:href="../../svgpan.js"/>
<svg id="graph" class="graph">
<g id="viewport">
<title>userInterface.UI.initialize</title>
<polygon fill="white" stroke="none" points="-4,4 -4,-479 2092,-479 2092,4 -4,4"/>
<!-- Node1 -->
<g id="node1" class="node"><title>Node1</title>
<polygon fill="#bfbfbf" stroke="black" points="0,-303.5 0,-322.5 134,-322.5 134,-303.5 0,-303.5"/>
<text text-anchor="middle" x="67" y="-310.5" font-family="Helvetica,sans-Serif" font-size="10.00">userInterface.UI.initialize</text>
</g>
<!-- Node2 -->
<g id="node2" class="node"><title>Node2</title>
<g id="a_node2"><a xlink:href="../../dc/d1b/classuser_interface_1_1_left_panel.html#a8b31bed29bdfa95820342c6d3facc020" target="_top" xlink:title="userInterface.LeftPanel.get\lInstance">
<polygon fill="white" stroke="black" points="184.5,-445 184.5,-475 329.5,-475 329.5,-445 184.5,-445"/>
<text text-anchor="start" x="192.5" y="-463" font-family="Helvetica,sans-Serif" font-size="10.00">userInterface.LeftPanel.get</text>
<text text-anchor="middle" x="257" y="-452" font-family="Helvetica,sans-Serif" font-size="10.00">Instance</text>
</a>
</g>
</g>
<!-- Node1&#45;&gt;Node2 -->
<g id="edge1" class="edge"><title>Node1&#45;&gt;Node2</title>
<path fill="none" stroke="midnightblue" d="M73.2723,-322.581C86.4348,-345.595 123.08,-404.349 170,-435 173.112,-437.033 176.393,-438.904 179.783,-440.626"/>
<polygon fill="midnightblue" stroke="midnightblue" points="178.427,-443.855 188.976,-444.845 181.347,-437.493 178.427,-443.855"/>
</g>
<!-- Node4 -->
<g id="node4" class="node"><title>Node4</title>
<g id="a_node4"><a xlink:href="../../de/df4/classuser_interface_1_1_right_panel.html#a458f970045d0dde26df4c9c4c1085fb7" target="_top" xlink:title="userInterface.RightPanel.get\lInstance">
<polygon fill="white" stroke="black" points="181.5,-396 181.5,-426 332.5,-426 332.5,-396 181.5,-396"/>
<text text-anchor="start" x="189.5" y="-414" font-family="Helvetica,sans-Serif" font-size="10.00">userInterface.RightPanel.get</text>
<text text-anchor="middle" x="257" y="-403" font-family="Helvetica,sans-Serif" font-size="10.00">Instance</text>
</a>
</g>
</g>
<!-- Node1&#45;&gt;Node4 -->
<g id="edge3" class="edge"><title>Node1&#45;&gt;Node4</title>
<path fill="none" stroke="midnightblue" d="M78.8228,-322.67C96.6306,-338.116 133.76,-368.403 170,-386 174.688,-388.276 179.622,-390.385 184.658,-392.331"/>
<polygon fill="midnightblue" stroke="midnightblue" points="183.836,-395.756 194.43,-395.874 186.222,-389.175 183.836,-395.756"/>
</g>
<!-- Node6 -->
<g id="node6" class="node"><title>Node6</title>
<g id="a_node6"><a xlink:href="../../dc/d1b/classuser_interface_1_1_left_panel.html#a91b78c25a31b4542abda2aec48abbbf3" target="_top" xlink:title="userInterface.LeftPanel.get\lPanel">
<polygon fill="white" stroke="black" points="184.5,-347 184.5,-377 329.5,-377 329.5,-347 184.5,-347"/>
<text text-anchor="start" x="192.5" y="-365" font-family="Helvetica,sans-Serif" font-size="10.00">userInterface.LeftPanel.get</text>
<text text-anchor="middle" x="257" y="-354" font-family="Helvetica,sans-Serif" font-size="10.00">Panel</text>
</a>
</g>
</g>
<!-- Node1&#45;&gt;Node6 -->
<g id="edge5" class="edge"><title>Node1&#45;&gt;Node6</title>
<path fill="none" stroke="midnightblue" d="M104.695,-322.564C128.496,-328.768 160.224,-337.037 188.477,-344.401"/>
<polygon fill="midnightblue" stroke="midnightblue" points="187.748,-347.828 198.307,-346.963 189.513,-341.054 187.748,-347.828"/>
</g>
<!-- Node7 -->
<g id="node7" class="node"><title>Node7</title>
<g id="a_node7"><a xlink:href="../../de/df4/classuser_interface_1_1_right_panel.html#ae098bace463240ddbdf7d5694755b7e3" target="_top" xlink:title="userInterface.RightPanel.get\lPanel">
<polygon fill="white" stroke="black" points="181.5,-298 181.5,-328 332.5,-328 332.5,-298 181.5,-298"/>
<text text-anchor="start" x="189.5" y="-316" font-family="Helvetica,sans-Serif" font-size="10.00">userInterface.RightPanel.get</text>
<text text-anchor="middle" x="257" y="-305" font-family="Helvetica,sans-Serif" font-size="10.00">Panel</text>
</a>
</g>
</g>
<!-- Node1&#45;&gt;Node7 -->
<g id="edge6" class="edge"><title>Node1&#45;&gt;Node7</title>
<path fill="none" stroke="midnightblue" d="M134.017,-313C146.123,-313 158.909,-313 171.468,-313"/>
<polygon fill="midnightblue" stroke="midnightblue" points="171.473,-316.5 181.473,-313 171.473,-309.5 171.473,-316.5"/>
</g>
<!-- Node8 -->
<g id="node8" class="node"><title>Node8</title>
<g id="a_node8"><a xlink:href="../../d0/d7c/classuser_interface_1_1_u_i.html#a9f7eaa121e1405b45e262f03859f9ff0" target="_top" xlink:title="userInterface.UI.setUpCommand\lField">
<polygon fill="white" stroke="black" points="170,-249 170,-279 344,-279 344,-249 170,-249"/>
<text text-anchor="start" x="178" y="-267" font-family="Helvetica,sans-Serif" font-size="10.00">userInterface.UI.setUpCommand</text>
<text text-anchor="middle" x="257" y="-256" font-family="Helvetica,sans-Serif" font-size="10.00">Field</text>
</a>
</g>
</g>
<!-- Node1&#45;&gt;Node8 -->
<g id="edge7" class="edge"><title>Node1&#45;&gt;Node8</title>
<path fill="none" stroke="midnightblue" d="M104.695,-303.436C128.496,-297.232 160.224,-288.963 188.477,-281.599"/>
<polygon fill="midnightblue" stroke="midnightblue" points="189.513,-284.946 198.307,-279.037 187.748,-278.172 189.513,-284.946"/>
</g>
<!-- Node40 -->
<g id="node40" class="node"><title>Node40</title>
<g id="a_node40"><a xlink:href="../../d0/d7c/classuser_interface_1_1_u_i.html#a83df006468b1ce0b6b4f302393cc1ff3" target="_top" xlink:title="userInterface.UI.setUpController">
<polygon fill="white" stroke="black" points="172,-210.5 172,-229.5 342,-229.5 342,-210.5 172,-210.5"/>
<text text-anchor="middle" x="257" y="-217.5" font-family="Helvetica,sans-Serif" font-size="10.00">userInterface.UI.setUpController</text>
</a>
</g>
</g>
<!-- Node1&#45;&gt;Node40 -->
<g id="edge50" class="edge"><title>Node1&#45;&gt;Node40</title>
<path fill="none" stroke="midnightblue" d="M78.4308,-303.355C95.9734,-287.666 133.097,-256.695 170,-240 176.529,-237.046 183.542,-234.504 190.643,-232.322"/>
<polygon fill="midnightblue" stroke="midnightblue" points="191.683,-235.665 200.346,-229.565 189.77,-228.932 191.683,-235.665"/>
</g>
<!-- Node41 -->
<g id="node41" class="node"><title>Node41</title>
<g id="a_node41"><a xlink:href="../../d0/d7c/classuser_interface_1_1_u_i.html#ad3435fb6061c1b8ebcade613c318fd27" target="_top" xlink:title="userInterface.UI.setUpPane">
<polygon fill="white" stroke="black" points="183.5,-172.5 183.5,-191.5 330.5,-191.5 330.5,-172.5 183.5,-172.5"/>
<text text-anchor="middle" x="257" y="-179.5" font-family="Helvetica,sans-Serif" font-size="10.00">userInterface.UI.setUpPane</text>
</a>
</g>
</g>
<!-- Node1&#45;&gt;Node41 -->
<g id="edge51" class="edge"><title>Node1&#45;&gt;Node41</title>
<path fill="none" stroke="midnightblue" d="M73.7662,-303.38C87.4622,-281.425 124.251,-227.485 170,-201 173.902,-198.741 178.045,-196.751 182.324,-194.997"/>
<polygon fill="midnightblue" stroke="midnightblue" points="183.665,-198.233 191.863,-191.522 181.269,-191.656 183.665,-198.233"/>
</g>
<!-- Node3 -->
<g id="node3" class="node"><title>Node3</title>
<g id="a_node3"><a xlink:href="../../dc/d1b/classuser_interface_1_1_left_panel.html#a0fcdcf8b427a868a7069ac627eea1b43" target="_top" xlink:title="userInterface.LeftPanel.\lLeftPanel">
<polygon fill="white" stroke="black" points="385.5,-445 385.5,-475 514.5,-475 514.5,-445 385.5,-445"/>
<text text-anchor="start" x="393.5" y="-463" font-family="Helvetica,sans-Serif" font-size="10.00">userInterface.LeftPanel.</text>
<text text-anchor="middle" x="450" y="-452" font-family="Helvetica,sans-Serif" font-size="10.00">LeftPanel</text>
</a>
</g>
</g>
<!-- Node2&#45;&gt;Node3 -->
<g id="edge2" class="edge"><title>Node2&#45;&gt;Node3</title>
<path fill="none" stroke="midnightblue" d="M329.665,-460C344.544,-460 360.247,-460 375.202,-460"/>
<polygon fill="midnightblue" stroke="midnightblue" points="375.415,-463.5 385.415,-460 375.415,-456.5 375.415,-463.5"/>
</g>
<!-- Node5 -->
<g id="node5" class="node"><title>Node5</title>
<g id="a_node5"><a xlink:href="../../de/df4/classuser_interface_1_1_right_panel.html#a444679df7a56d1cfea2ed417f0ed4f7d" target="_top" xlink:title="userInterface.RightPanel.\lRightPanel">
<polygon fill="white" stroke="black" points="382.5,-396 382.5,-426 517.5,-426 517.5,-396 382.5,-396"/>
<text text-anchor="start" x="390.5" y="-414" font-family="Helvetica,sans-Serif" font-size="10.00">userInterface.RightPanel.</text>
<text text-anchor="middle" x="450" y="-403" font-family="Helvetica,sans-Serif" font-size="10.00">RightPanel</text>
</a>
</g>
</g>
<!-- Node4&#45;&gt;Node5 -->
<g id="edge4" class="edge"><title>Node4&#45;&gt;Node5</title>
<path fill="none" stroke="midnightblue" d="M332.666,-411C345.628,-411 359.128,-411 372.147,-411"/>
<polygon fill="midnightblue" stroke="midnightblue" points="372.465,-414.5 382.465,-411 372.465,-407.5 372.465,-414.5"/>
</g>
<!-- Node9 -->
<g id="node9" class="node"><title>Node9</title>
<g id="a_node9"><a xlink:href="../../d0/d7c/classuser_interface_1_1_u_i.html#a02bd34909b5d6037ea8ebe812879b90a" target="_top" xlink:title="userInterface.UI.makeRun\lButton">
<polygon fill="white" stroke="black" points="380,-249 380,-279 520,-279 520,-249 380,-249"/>
<text text-anchor="start" x="388" y="-267" font-family="Helvetica,sans-Serif" font-size="10.00">userInterface.UI.makeRun</text>
<text text-anchor="middle" x="450" y="-256" font-family="Helvetica,sans-Serif" font-size="10.00">Button</text>
</a>
</g>
</g>
<!-- Node8&#45;&gt;Node9 -->
<g id="edge8" class="edge"><title>Node8&#45;&gt;Node9</title>
<path fill="none" stroke="midnightblue" d="M344.001,-264C352.519,-264 361.139,-264 369.585,-264"/>
<polygon fill="midnightblue" stroke="midnightblue" points="369.784,-267.5 379.784,-264 369.784,-260.5 369.784,-267.5"/>
</g>
<!-- Node10 -->
<g id="node10" class="node"><title>Node10</title>
<g id="a_node10"><a xlink:href="../../d0/d7c/classuser_interface_1_1_u_i.html#ab17592b00ba0b808f524b4fc223303ec" target="_top" xlink:title="userInterface.UI.runCommand">
<polygon fill="white" stroke="black" points="556.5,-254.5 556.5,-273.5 717.5,-273.5 717.5,-254.5 556.5,-254.5"/>
<text text-anchor="middle" x="637" y="-261.5" font-family="Helvetica,sans-Serif" font-size="10.00">userInterface.UI.runCommand</text>
</a>
</g>
</g>
<!-- Node9&#45;&gt;Node10 -->
<g id="edge9" class="edge"><title>Node9&#45;&gt;Node10</title>
<path fill="none" stroke="midnightblue" d="M520.15,-264C528.633,-264 537.397,-264 546.129,-264"/>
<polygon fill="midnightblue" stroke="midnightblue" points="546.346,-267.5 556.346,-264 546.346,-260.5 546.346,-267.5"/>
</g>
<!-- Node11 -->
<g id="node11" class="node"><title>Node11</title>
<g id="a_node11"><a xlink:href="../../d8/d08/classworld_controller_1_1_world_controller.html#a178425d68e3e669c386706153ce44999" target="_top" xlink:title="worldController.WorldController.update">
<polygon fill="white" stroke="black" points="754,-254.5 754,-273.5 952,-273.5 952,-254.5 754,-254.5"/>
<text text-anchor="middle" x="853" y="-261.5" font-family="Helvetica,sans-Serif" font-size="10.00">worldController.WorldController.update</text>
</a>
</g>
</g>
<!-- Node10&#45;&gt;Node11 -->
<g id="edge10" class="edge"><title>Node10&#45;&gt;Node11</title>
<path fill="none" stroke="midnightblue" d="M717.686,-264C726.142,-264 734.841,-264 743.554,-264"/>
<polygon fill="midnightblue" stroke="midnightblue" points="743.774,-267.5 753.773,-264 743.773,-260.5 743.774,-267.5"/>
</g>
<!-- Node12 -->
<g id="node12" class="node"><title>Node12</title>
<g id="a_node12"><a xlink:href="../../df/dcb/classturtle_1_1_turtle.html#a610aafaf658c4b351330b7c16c66881c" target="_top" xlink:title="turtle.Turtle.updatePenAttributes">
<polygon fill="white" stroke="black" points="988.5,-329.5 988.5,-348.5 1161.5,-348.5 1161.5,-329.5 988.5,-329.5"/>
<text text-anchor="middle" x="1075" y="-336.5" font-family="Helvetica,sans-Serif" font-size="10.00">turtle.Turtle.updatePenAttributes</text>
</a>
</g>
</g>
<!-- Node11&#45;&gt;Node12 -->
<g id="edge11" class="edge"><title>Node11&#45;&gt;Node12</title>
<path fill="none" stroke="midnightblue" d="M882.311,-273.651C921.501,-287.012 992.383,-311.176 1036.1,-326.081"/>
<polygon fill="midnightblue" stroke="midnightblue" points="1035.2,-329.472 1045.8,-329.386 1037.46,-322.846 1035.2,-329.472"/>
</g>
<!-- Node15 -->
<g id="node15" class="node"><title>Node15</title>
<g id="a_node15"><a xlink:href="../../d9/dd0/classworld_1_1_world.html#ae370733f7784c42741a6ba66c7d2ecf5" target="_top" xlink:title="world.World.listen">
<polygon fill="white" stroke="black" points="1026,-179.5 1026,-198.5 1124,-198.5 1124,-179.5 1026,-179.5"/>
<text text-anchor="middle" x="1075" y="-186.5" font-family="Helvetica,sans-Serif" font-size="10.00">world.World.listen</text>
</a>
</g>
</g>
<!-- Node11&#45;&gt;Node15 -->
<g id="edge14" class="edge"><title>Node11&#45;&gt;Node15</title>
<path fill="none" stroke="midnightblue" d="M882.311,-254.349C921.501,-240.988 992.383,-216.824 1036.1,-201.919"/>
<polygon fill="midnightblue" stroke="midnightblue" points="1037.46,-205.154 1045.8,-198.614 1035.2,-198.528 1037.46,-205.154"/>
</g>
<!-- Node13 -->
<g id="node13" class="node"><title>Node13</title>
<g id="a_node13"><a xlink:href="../../de/d57/classturtle_1_1_pen.html#ac9a08745a9f3615b9e47c1c8e5af8f1b" target="_top" xlink:title="turtle.Pen.getColor">
<polygon fill="white" stroke="black" points="1238.5,-367.5 1238.5,-386.5 1345.5,-386.5 1345.5,-367.5 1238.5,-367.5"/>
<text text-anchor="middle" x="1292" y="-374.5" font-family="Helvetica,sans-Serif" font-size="10.00">turtle.Pen.getColor</text>
</a>
</g>
</g>
<!-- Node12&#45;&gt;Node13 -->
<g id="edge12" class="edge"><title>Node12&#45;&gt;Node13</title>
<path fill="none" stroke="midnightblue" d="M1129.98,-348.54C1159.94,-353.837 1197.36,-360.45 1228.59,-365.969"/>
<polygon fill="midnightblue" stroke="midnightblue" points="1228.03,-369.425 1238.49,-367.719 1229.25,-362.532 1228.03,-369.425"/>
</g>
<!-- Node14 -->
<g id="node14" class="node"><title>Node14</title>
<g id="a_node14"><a xlink:href="../../de/d57/classturtle_1_1_pen.html#a76c8dc4e66927e7d3774ea00b2266640" target="_top" xlink:title="turtle.Pen.getSize">
<polygon fill="white" stroke="black" points="1241,-329.5 1241,-348.5 1343,-348.5 1343,-329.5 1241,-329.5"/>
<text text-anchor="middle" x="1292" y="-336.5" font-family="Helvetica,sans-Serif" font-size="10.00">turtle.Pen.getSize</text>
</a>
</g>
</g>
<!-- Node12&#45;&gt;Node14 -->
<g id="edge13" class="edge"><title>Node12&#45;&gt;Node14</title>
<path fill="none" stroke="midnightblue" d="M1161.59,-339C1184.74,-339 1209.3,-339 1230.73,-339"/>
<polygon fill="midnightblue" stroke="midnightblue" points="1230.98,-342.5 1240.98,-339 1230.98,-335.5 1230.98,-342.5"/>
</g>
<!-- Node16 -->
<g id="node16" class="node"><title>Node16</title>
<g id="a_node16"><a xlink:href="../../d6/d95/classparser_1_1_parser.html#a240c75608624a9c67402a296855c4d1d" target="_top" xlink:title="parser.Parser.initialize\lCommands">
<polygon fill="white" stroke="black" points="1232,-280 1232,-310 1352,-310 1352,-280 1232,-280"/>
<text text-anchor="start" x="1240" y="-298" font-family="Helvetica,sans-Serif" font-size="10.00">parser.Parser.initialize</text>
<text text-anchor="middle" x="1292" y="-287" font-family="Helvetica,sans-Serif" font-size="10.00">Commands</text>
</a>
</g>
</g>
<!-- Node15&#45;&gt;Node16 -->
<g id="edge15" class="edge"><title>Node15&#45;&gt;Node16</title>
<path fill="none" stroke="midnightblue" d="M1087.7,-198.675C1108.58,-215.494 1154.21,-250.216 1198,-270 1205.67,-273.463 1213.91,-276.531 1222.21,-279.225"/>
<polygon fill="midnightblue" stroke="midnightblue" points="1221.36,-282.625 1231.95,-282.217 1223.42,-275.934 1221.36,-282.625"/>
</g>
<!-- Node20 -->
<g id="node20" class="node"><title>Node20</title>
<g id="a_node20"><a xlink:href="../../d6/d95/classparser_1_1_parser.html#a4ecbffc246c3add017c4720eed4c6da9" target="_top" xlink:title="parser.Parser.parse">
<polygon fill="white" stroke="black" points="1237.5,-241.5 1237.5,-260.5 1346.5,-260.5 1346.5,-241.5 1237.5,-241.5"/>
<text text-anchor="middle" x="1292" y="-248.5" font-family="Helvetica,sans-Serif" font-size="10.00">parser.Parser.parse</text>
</a>
</g>
</g>
<!-- Node15&#45;&gt;Node20 -->
<g id="edge19" class="edge"><title>Node15&#45;&gt;Node20</title>
<path fill="none" stroke="midnightblue" d="M1109.12,-198.552C1146.45,-209.315 1207.24,-226.845 1248.15,-238.643"/>
<polygon fill="midnightblue" stroke="midnightblue" points="1247.26,-242.03 1257.84,-241.438 1249.2,-235.304 1247.26,-242.03"/>
</g>
<!-- Node33 -->
<g id="node33" class="node"><title>Node33</title>
<g id="a_node33"><a xlink:href="../../d7/d35/classcommand_1_1_command.html#a957099a70dd30b5dc897e0caf07d2d99" target="_top" xlink:title="command.Command.getCommand\lValues">
<polygon fill="white" stroke="black" points="1198,-174 1198,-204 1386,-204 1386,-174 1198,-174"/>
<text text-anchor="start" x="1206" y="-192" font-family="Helvetica,sans-Serif" font-size="10.00">command.Command.getCommand</text>
<text text-anchor="middle" x="1292" y="-181" font-family="Helvetica,sans-Serif" font-size="10.00">Values</text>
</a>
</g>
</g>
<!-- Node15&#45;&gt;Node33 -->
<g id="edge43" class="edge"><title>Node15&#45;&gt;Node33</title>
<path fill="none" stroke="midnightblue" d="M1124.25,-189C1143.15,-189 1165.59,-189 1187.8,-189"/>
<polygon fill="midnightblue" stroke="midnightblue" points="1187.97,-192.5 1197.97,-189 1187.97,-185.5 1187.97,-192.5"/>
</g>
<!-- Node35 -->
<g id="node35" class="node"><title>Node35</title>
<g id="a_node35"><a xlink:href="../../d6/d95/classparser_1_1_parser.html#a8679d61f4ae6c55910ef113bcdda2c75" target="_top" xlink:title="parser.Parser.updateVariable">
<polygon fill="white" stroke="black" points="1215,-135.5 1215,-154.5 1369,-154.5 1369,-135.5 1215,-135.5"/>
<text text-anchor="middle" x="1292" y="-142.5" font-family="Helvetica,sans-Serif" font-size="10.00">parser.Parser.updateVariable</text>
</a>
</g>
</g>
<!-- Node15&#45;&gt;Node35 -->
<g id="edge45" class="edge"><title>Node15&#45;&gt;Node35</title>
<path fill="none" stroke="midnightblue" d="M1122.65,-179.453C1155.47,-172.735 1199.58,-163.709 1234.41,-156.58"/>
<polygon fill="midnightblue" stroke="midnightblue" points="1235.34,-159.963 1244.44,-154.529 1233.94,-153.105 1235.34,-159.963"/>
</g>
<!-- Node37 -->
<g id="node37" class="node"><title>Node37</title>
<g id="a_node37"><a xlink:href="../../d9/dd0/classworld_1_1_world.html#adcbcb8328c7e832fcb710a91457e6772" target="_top" xlink:title="world.World.runCommand">
<polygon fill="white" stroke="black" points="1222.5,-97.5 1222.5,-116.5 1361.5,-116.5 1361.5,-97.5 1222.5,-97.5"/>
<text text-anchor="middle" x="1292" y="-104.5" font-family="Helvetica,sans-Serif" font-size="10.00">world.World.runCommand</text>
</a>
</g>
</g>
<!-- Node15&#45;&gt;Node37 -->
<g id="edge47" class="edge"><title>Node15&#45;&gt;Node37</title>
<path fill="none" stroke="midnightblue" d="M1091.17,-179.413C1113.66,-165.621 1157.54,-140.273 1198,-126 1205.62,-123.311 1213.74,-120.955 1221.88,-118.903"/>
<polygon fill="midnightblue" stroke="midnightblue" points="1222.87,-122.265 1231.79,-116.549 1221.25,-115.455 1222.87,-122.265"/>
</g>
<!-- Node38 -->
<g id="node38" class="node"><title>Node38</title>
<g id="a_node38"><a xlink:href="../../d6/d95/classparser_1_1_parser.html#acebafe1593fc1f09ac31c7104438e4b1" target="_top" xlink:title="parser.Parser.resetRepcount">
<polygon fill="white" stroke="black" points="1216.5,-24.5 1216.5,-43.5 1367.5,-43.5 1367.5,-24.5 1216.5,-24.5"/>
<text text-anchor="middle" x="1292" y="-31.5" font-family="Helvetica,sans-Serif" font-size="10.00">parser.Parser.resetRepcount</text>
</a>
</g>
</g>
<!-- Node15&#45;&gt;Node38 -->
<g id="edge48" class="edge"><title>Node15&#45;&gt;Node38</title>
<path fill="none" stroke="midnightblue" d="M1086.3,-179.465C1106.74,-160.779 1154.24,-118.506 1198,-88 1219.09,-73.2945 1244.41,-58.7819 1263.3,-48.5112"/>
<polygon fill="midnightblue" stroke="midnightblue" points="1265.12,-51.5059 1272.27,-43.6882 1261.81,-45.3402 1265.12,-51.5059"/>
</g>
<!-- Node17 -->
<g id="node17" class="node"><title>Node17</title>
<g id="a_node17"><a xlink:href="../../d6/d95/classparser_1_1_parser.html#a4f582c65390bddc57219c0b5c31ef5e7" target="_top" xlink:title="parser.Parser.makeTree">
<polygon fill="white" stroke="black" points="1452,-410.5 1452,-429.5 1580,-429.5 1580,-410.5 1452,-410.5"/>
<text text-anchor="middle" x="1516" y="-417.5" font-family="Helvetica,sans-Serif" font-size="10.00">parser.Parser.makeTree</text>
</a>
</g>
</g>
<!-- Node16&#45;&gt;Node17 -->
<g id="edge16" class="edge"><title>Node16&#45;&gt;Node17</title>
<path fill="none" stroke="midnightblue" d="M1352.44,-302.597C1364.54,-306.329 1376.47,-311.849 1386,-320 1415.94,-345.607 1391.29,-376.319 1422,-401 1427.92,-405.756 1434.71,-409.415 1441.89,-412.219"/>
<polygon fill="midnightblue" stroke="midnightblue" points="1441.25,-415.697 1451.85,-415.534 1443.46,-409.055 1441.25,-415.697"/>
</g>
<!-- Node18 -->
<g id="node18" class="node"><title>Node18</title>
<g id="a_node18"><a xlink:href="../../d9/d1b/classcommand_1_1_command_factory.html#a87bf7e648425bb22124367cabedb3327" target="_top" xlink:title="command.CommandFactory.get\lNumParameters">
<polygon fill="white" stroke="black" points="1665,-400 1665,-430 1835,-430 1835,-400 1665,-400"/>
<text text-anchor="start" x="1673" y="-418" font-family="Helvetica,sans-Serif" font-size="10.00">command.CommandFactory.get</text>
<text text-anchor="middle" x="1750" y="-407" font-family="Helvetica,sans-Serif" font-size="10.00">NumParameters</text>
</a>
</g>
</g>
<!-- Node17&#45;&gt;Node18 -->
<g id="edge17" class="edge"><title>Node17&#45;&gt;Node18</title>
<path fill="none" stroke="midnightblue" d="M1580.09,-418.64C1602.97,-418.147 1629.34,-417.579 1654.34,-417.04"/>
<polygon fill="midnightblue" stroke="midnightblue" points="1654.67,-420.534 1664.59,-416.819 1654.51,-413.536 1654.67,-420.534"/>
</g>
<!-- Node19 -->
<g id="node19" class="node"><title>Node19</title>
<g id="a_node19"><a xlink:href="../../d9/d1b/classcommand_1_1_command_factory.html#a947fdc151e857ea74564d0d1fe268246" target="_top" xlink:title="command.CommandFactory.translate\lCommand">
<polygon fill="white" stroke="black" points="1890.5,-243 1890.5,-273 2087.5,-273 2087.5,-243 1890.5,-243"/>
<text text-anchor="start" x="1898.5" y="-261" font-family="Helvetica,sans-Serif" font-size="10.00">command.CommandFactory.translate</text>
<text text-anchor="middle" x="1989" y="-250" font-family="Helvetica,sans-Serif" font-size="10.00">Command</text>
</a>
</g>
</g>
<!-- Node18&#45;&gt;Node19 -->
<g id="edge18" class="edge"><title>Node18&#45;&gt;Node19</title>
<path fill="none" stroke="midnightblue" d="M1824.3,-399.992C1834.61,-396.489 1844.81,-392.211 1854,-387 1902.57,-359.451 1946.67,-310.257 1970.17,-281.232"/>
<polygon fill="midnightblue" stroke="midnightblue" points="1973.02,-283.269 1976.51,-273.266 1967.55,-278.909 1973.02,-283.269"/>
</g>
<!-- Node20&#45;&gt;Node17 -->
<g id="edge42" class="edge"><title>Node20&#45;&gt;Node17</title>
<path fill="none" stroke="midnightblue" d="M1346.93,-252.651C1361.14,-255.548 1375.43,-261.028 1386,-271 1429.61,-312.138 1378.18,-360.087 1422,-401 1427.84,-406.456 1434.81,-410.527 1442.27,-413.541"/>
<polygon fill="midnightblue" stroke="midnightblue" points="1441.34,-416.92 1451.93,-416.818 1443.59,-410.291 1441.34,-416.92"/>
</g>
<!-- Node21 -->
<g id="node21" class="node"><title>Node21</title>
<g id="a_node21"><a xlink:href="../../d9/d1b/classcommand_1_1_command_factory.html#ab25bb047b051661d31adf73b2dae5649" target="_top" xlink:title="command.CommandFactory.create\lCommand">
<polygon fill="white" stroke="black" points="1423.5,-138 1423.5,-168 1608.5,-168 1608.5,-138 1423.5,-138"/>
<text text-anchor="start" x="1431.5" y="-156" font-family="Helvetica,sans-Serif" font-size="10.00">command.CommandFactory.create</text>
<text text-anchor="middle" x="1516" y="-145" font-family="Helvetica,sans-Serif" font-size="10.00">Command</text>
</a>
</g>
</g>
<!-- Node20&#45;&gt;Node21 -->
<g id="edge20" class="edge"><title>Node20&#45;&gt;Node21</title>
<path fill="none" stroke="midnightblue" d="M1324.62,-241.47C1343.34,-235.024 1367.03,-225.419 1386,-213 1404.67,-200.778 1402.6,-189.029 1422,-178 1425.95,-175.755 1430.11,-173.704 1434.39,-171.833"/>
<polygon fill="midnightblue" stroke="midnightblue" points="1435.93,-174.985 1443.91,-168.016 1433.33,-168.487 1435.93,-174.985"/>
</g>
<!-- Node23 -->
<g id="node23" class="node"><title>Node23</title>
<g id="a_node23"><a xlink:href="../../d6/d95/classparser_1_1_parser.html#aac1cff62f68138c7e977a67d39671701" target="_top" xlink:title="parser.Parser.generateCommand\lInput">
<polygon fill="white" stroke="black" points="1428,-285 1428,-315 1604,-315 1604,-285 1428,-285"/>
<text text-anchor="start" x="1436" y="-303" font-family="Helvetica,sans-Serif" font-size="10.00">parser.Parser.generateCommand</text>
<text text-anchor="middle" x="1516" y="-292" font-family="Helvetica,sans-Serif" font-size="10.00">Input</text>
</a>
</g>
</g>
<!-- Node20&#45;&gt;Node23 -->
<g id="edge23" class="edge"><title>Node20&#45;&gt;Node23</title>
<path fill="none" stroke="midnightblue" d="M1337.96,-260.58C1353.21,-263.854 1370.35,-267.559 1386,-271 1403.05,-274.751 1421.36,-278.833 1438.68,-282.719"/>
<polygon fill="midnightblue" stroke="midnightblue" points="1438.21,-286.202 1448.74,-284.98 1439.75,-279.372 1438.21,-286.202"/>
</g>
<!-- Node26 -->
<g id="node26" class="node"><title>Node26</title>
<g id="a_node26"><a xlink:href="../../d3/dcc/classparser_1_1_node.html#a9c12e8d4375a7517eae0a35724b253c4" target="_top" xlink:title="parser.Node.getValue">
<polygon fill="white" stroke="black" points="1690,-358.5 1690,-377.5 1810,-377.5 1810,-358.5 1690,-358.5"/>
<text text-anchor="middle" x="1750" y="-365.5" font-family="Helvetica,sans-Serif" font-size="10.00">parser.Node.getValue</text>
</a>
</g>
</g>
<!-- Node20&#45;&gt;Node26 -->
<g id="edge39" class="edge"><title>Node20&#45;&gt;Node26</title>
<path fill="none" stroke="midnightblue" d="M1346.95,-255.454C1360.53,-258.429 1374.5,-263.248 1386,-271 1409.61,-286.913 1397.78,-309.02 1422,-324 1463.86,-349.889 1596.85,-360.847 1679.77,-365.254"/>
<polygon fill="midnightblue" stroke="midnightblue" points="1679.71,-368.756 1689.88,-365.772 1680.07,-361.765 1679.71,-368.756"/>
</g>
<!-- Node28 -->
<g id="node28" class="node"><title>Node28</title>
<g id="a_node28"><a xlink:href="../../d6/d95/classparser_1_1_parser.html#a3efcd1192e76101919526b4a5e0046f4" target="_top" xlink:title="parser.Parser.getNodeBefore\lToReplace">
<polygon fill="white" stroke="black" points="1438.5,-236 1438.5,-266 1593.5,-266 1593.5,-236 1438.5,-236"/>
<text text-anchor="start" x="1446.5" y="-254" font-family="Helvetica,sans-Serif" font-size="10.00">parser.Parser.getNodeBefore</text>
<text text-anchor="middle" x="1516" y="-243" font-family="Helvetica,sans-Serif" font-size="10.00">ToReplace</text>
</a>
</g>
</g>
<!-- Node20&#45;&gt;Node28 -->
<g id="edge28" class="edge"><title>Node20&#45;&gt;Node28</title>
<path fill="none" stroke="midnightblue" d="M1346.74,-251C1371.2,-251 1400.76,-251 1428.24,-251"/>
<polygon fill="midnightblue" stroke="midnightblue" points="1428.26,-254.5 1438.26,-251 1428.26,-247.5 1428.26,-254.5"/>
</g>
<!-- Node31 -->
<g id="node31" class="node"><title>Node31</title>
<g id="a_node31"><a xlink:href="../../d6/d95/classparser_1_1_parser.html#a447c473b62ba23b7c144df9bb38a9a41" target="_top" xlink:title="parser.Parser.getNodeFor\lCommand">
<polygon fill="white" stroke="black" points="1447,-187 1447,-217 1585,-217 1585,-187 1447,-187"/>
<text text-anchor="start" x="1455" y="-205" font-family="Helvetica,sans-Serif" font-size="10.00">parser.Parser.getNodeFor</text>
<text text-anchor="middle" x="1516" y="-194" font-family="Helvetica,sans-Serif" font-size="10.00">Command</text>
</a>
</g>
</g>
<!-- Node20&#45;&gt;Node31 -->
<g id="edge34" class="edge"><title>Node20&#45;&gt;Node31</title>
<path fill="none" stroke="midnightblue" d="M1336.07,-241.494C1364.64,-235.187 1402.98,-226.725 1436.84,-219.252"/>
<polygon fill="midnightblue" stroke="midnightblue" points="1437.71,-222.644 1446.72,-217.071 1436.2,-215.809 1437.71,-222.644"/>
</g>
<!-- Node32 -->
<g id="node32" class="node"><title>Node32</title>
<g id="a_node32"><a xlink:href="../../d3/dcc/classparser_1_1_node.html#a066da2b478008f39a02440d7afceb9ee" target="_top" xlink:title="parser.Node.insertChild">
<polygon fill="white" stroke="black" points="1452,-372.5 1452,-391.5 1580,-391.5 1580,-372.5 1452,-372.5"/>
<text text-anchor="middle" x="1516" y="-379.5" font-family="Helvetica,sans-Serif" font-size="10.00">parser.Node.insertChild</text>
</a>
</g>
</g>
<!-- Node20&#45;&gt;Node32 -->
<g id="edge40" class="edge"><title>Node20&#45;&gt;Node32</title>
<path fill="none" stroke="midnightblue" d="M1346.65,-253.609C1360.69,-256.54 1374.97,-261.797 1386,-271 1418.14,-297.802 1390.42,-330.549 1422,-358 1427.93,-363.153 1434.83,-367.222 1442.13,-370.432"/>
<polygon fill="midnightblue" stroke="midnightblue" points="1440.97,-373.737 1451.56,-374.055 1443.48,-367.202 1440.97,-373.737"/>
</g>
<!-- Node21&#45;&gt;Node19 -->
<g id="edge22" class="edge"><title>Node21&#45;&gt;Node19</title>
<path fill="none" stroke="midnightblue" d="M1571.85,-137.989C1600.09,-130.543 1631.57,-122.763 1646,-121 1737.76,-109.789 1768.79,-85.1509 1854,-121 1908.66,-143.997 1952.17,-201.384 1973.55,-234.125"/>
<polygon fill="midnightblue" stroke="midnightblue" points="1970.66,-236.104 1978.99,-242.657 1976.57,-232.342 1970.66,-236.104"/>
</g>
<!-- Node22 -->
<g id="node22" class="node"><title>Node22</title>
<g id="a_node22"><a xlink:href="../../d9/d1b/classcommand_1_1_command_factory.html#abd97ea3e22afc09e07ed1d4fd039d11f" target="_top" xlink:title="command.CommandFactory.reflectCMD">
<polygon fill="white" stroke="black" points="1646.5,-130.5 1646.5,-149.5 1853.5,-149.5 1853.5,-130.5 1646.5,-130.5"/>
<text text-anchor="middle" x="1750" y="-137.5" font-family="Helvetica,sans-Serif" font-size="10.00">command.CommandFactory.reflectCMD</text>
</a>
</g>
</g>
<!-- Node21&#45;&gt;Node22 -->
<g id="edge21" class="edge"><title>Node21&#45;&gt;Node22</title>
<path fill="none" stroke="midnightblue" d="M1608.69,-147.862C1617.81,-147.351 1627.13,-146.829 1636.43,-146.308"/>
<polygon fill="midnightblue" stroke="midnightblue" points="1636.7,-149.798 1646.49,-145.744 1636.31,-142.809 1636.7,-149.798"/>
</g>
<!-- Node24 -->
<g id="node24" class="node"><title>Node24</title>
<g id="a_node24"><a xlink:href="../../d3/dcc/classparser_1_1_node.html#aa67bc0d39227232943abec9b95b23235" target="_top" xlink:title="parser.Node.getChild1">
<polygon fill="white" stroke="black" points="1688.5,-282.5 1688.5,-301.5 1811.5,-301.5 1811.5,-282.5 1688.5,-282.5"/>
<text text-anchor="middle" x="1750" y="-289.5" font-family="Helvetica,sans-Serif" font-size="10.00">parser.Node.getChild1</text>
</a>
</g>
</g>
<!-- Node23&#45;&gt;Node24 -->
<g id="edge24" class="edge"><title>Node23&#45;&gt;Node24</title>
<path fill="none" stroke="midnightblue" d="M1604.05,-296.998C1628.46,-296.156 1654.71,-295.251 1678.07,-294.446"/>
<polygon fill="midnightblue" stroke="midnightblue" points="1678.36,-297.938 1688.23,-294.095 1678.12,-290.942 1678.36,-297.938"/>
</g>
<!-- Node25 -->
<g id="node25" class="node"><title>Node25</title>
<g id="a_node25"><a xlink:href="../../d3/dcc/classparser_1_1_node.html#a0f13775acc62af77cdde90dbeaf26bbc" target="_top" xlink:title="parser.Node.getChild2">
<polygon fill="white" stroke="black" points="1688.5,-244.5 1688.5,-263.5 1811.5,-263.5 1811.5,-244.5 1688.5,-244.5"/>
<text text-anchor="middle" x="1750" y="-251.5" font-family="Helvetica,sans-Serif" font-size="10.00">parser.Node.getChild2</text>
</a>
</g>
</g>
<!-- Node23&#45;&gt;Node25 -->
<g id="edge25" class="edge"><title>Node23&#45;&gt;Node25</title>
<path fill="none" stroke="midnightblue" d="M1587.24,-284.981C1606.29,-280.995 1626.92,-276.757 1646,-273 1658.94,-270.453 1672.81,-267.825 1686.05,-265.365"/>
<polygon fill="midnightblue" stroke="midnightblue" points="1686.83,-268.781 1696.03,-263.521 1685.56,-261.897 1686.83,-268.781"/>
</g>
<!-- Node23&#45;&gt;Node26 -->
<g id="edge26" class="edge"><title>Node23&#45;&gt;Node26</title>
<path fill="none" stroke="midnightblue" d="M1569.23,-315.093C1582.69,-319.456 1597.02,-324.532 1610,-330 1626.67,-337.026 1628.91,-343.069 1646,-349 1656.76,-352.735 1668.43,-355.779 1679.9,-358.248"/>
<polygon fill="midnightblue" stroke="midnightblue" points="1679.42,-361.721 1689.92,-360.272 1680.81,-354.86 1679.42,-361.721"/>
</g>
<!-- Node27 -->
<g id="node27" class="node"><title>Node27</title>
<g id="a_node27"><a xlink:href="../../d3/dcc/classparser_1_1_node.html#a6bbc0c61aaa261077eb87cfc4e2b45dc" target="_top" xlink:title="parser.Node.numChildren">
<polygon fill="white" stroke="black" points="1680.5,-320.5 1680.5,-339.5 1819.5,-339.5 1819.5,-320.5 1680.5,-320.5"/>
<text text-anchor="middle" x="1750" y="-327.5" font-family="Helvetica,sans-Serif" font-size="10.00">parser.Node.numChildren</text>
</a>
</g>
</g>
<!-- Node23&#45;&gt;Node27 -->
<g id="edge27" class="edge"><title>Node23&#45;&gt;Node27</title>
<path fill="none" stroke="midnightblue" d="M1604.05,-311.256C1625.8,-314.069 1649.01,-317.07 1670.33,-319.828"/>
<polygon fill="midnightblue" stroke="midnightblue" points="1669.94,-323.306 1680.31,-321.118 1670.84,-316.364 1669.94,-323.306"/>
</g>
<!-- Node28&#45;&gt;Node24 -->
<g id="edge29" class="edge"><title>Node28&#45;&gt;Node24</title>
<path fill="none" stroke="midnightblue" d="M1593.61,-264.539C1623.23,-269.774 1656.74,-275.696 1685.04,-280.697"/>
<polygon fill="midnightblue" stroke="midnightblue" points="1684.76,-284.201 1695.21,-282.495 1685.98,-277.308 1684.76,-284.201"/>
</g>
<!-- Node28&#45;&gt;Node25 -->
<g id="edge30" class="edge"><title>Node28&#45;&gt;Node25</title>
<path fill="none" stroke="midnightblue" d="M1593.61,-251.991C1620.88,-252.343 1651.44,-252.738 1678.2,-253.085"/>
<polygon fill="midnightblue" stroke="midnightblue" points="1678.21,-256.585 1688.26,-253.215 1678.3,-249.585 1678.21,-256.585"/>
</g>
<!-- Node28&#45;&gt;Node26 -->
<g id="edge31" class="edge"><title>Node28&#45;&gt;Node26</title>
<path fill="none" stroke="midnightblue" d="M1593.78,-265.739C1599.59,-268.581 1605.09,-271.968 1610,-276 1637.95,-298.961 1617.15,-327.179 1646,-349 1655.9,-356.487 1667.84,-361.332 1680.03,-364.412"/>
<polygon fill="midnightblue" stroke="midnightblue" points="1679.32,-367.838 1689.83,-366.52 1680.79,-360.994 1679.32,-367.838"/>
</g>
<!-- Node29 -->
<g id="node29" class="node"><title>Node29</title>
<g id="a_node29"><a xlink:href="../../d3/dcc/classparser_1_1_node.html#ab14db24c0724dec4387e29d513008e2e" target="_top" xlink:title="parser.Node.hasChildren">
<polygon fill="white" stroke="black" points="1683,-206.5 1683,-225.5 1817,-225.5 1817,-206.5 1683,-206.5"/>
<text text-anchor="middle" x="1750" y="-213.5" font-family="Helvetica,sans-Serif" font-size="10.00">parser.Node.hasChildren</text>
</a>
</g>
</g>
<!-- Node28&#45;&gt;Node29 -->
<g id="edge32" class="edge"><title>Node28&#45;&gt;Node29</title>
<path fill="none" stroke="midnightblue" d="M1593.61,-239.443C1620.06,-235.452 1649.61,-230.994 1675.78,-227.046"/>
<polygon fill="midnightblue" stroke="midnightblue" points="1676.64,-230.456 1686.01,-225.503 1675.6,-223.534 1676.64,-230.456"/>
</g>
<!-- Node30 -->
<g id="node30" class="node"><title>Node30</title>
<g id="a_node30"><a xlink:href="../../d3/dcc/classparser_1_1_node.html#aa92667a825777b3d757bc3b1a247ac20" target="_top" xlink:title="parser.Node.isLeaf">
<polygon fill="white" stroke="black" points="1697,-168.5 1697,-187.5 1803,-187.5 1803,-168.5 1697,-168.5"/>
<text text-anchor="middle" x="1750" y="-175.5" font-family="Helvetica,sans-Serif" font-size="10.00">parser.Node.isLeaf</text>
</a>
</g>
</g>
<!-- Node28&#45;&gt;Node30 -->
<g id="edge33" class="edge"><title>Node28&#45;&gt;Node30</title>
<path fill="none" stroke="midnightblue" d="M1586.27,-235.848C1594.46,-233.051 1602.55,-229.789 1610,-226 1628.31,-216.688 1627.33,-205.57 1646,-197 1658.7,-191.171 1673.06,-187.13 1686.93,-184.328"/>
<polygon fill="midnightblue" stroke="midnightblue" points="1687.71,-187.743 1696.92,-182.499 1686.45,-180.858 1687.71,-187.743"/>
</g>
<!-- Node31&#45;&gt;Node24 -->
<g id="edge35" class="edge"><title>Node31&#45;&gt;Node24</title>
<path fill="none" stroke="midnightblue" d="M1585.27,-214.825C1593.98,-218.024 1602.47,-222.017 1610,-227 1631.65,-241.329 1623.79,-259.551 1646,-273 1655.8,-278.938 1667.02,-283.104 1678.37,-286.01"/>
<polygon fill="midnightblue" stroke="midnightblue" points="1677.82,-289.473 1688.34,-288.253 1679.35,-282.643 1677.82,-289.473"/>
</g>
<!-- Node31&#45;&gt;Node25 -->
<g id="edge36" class="edge"><title>Node31&#45;&gt;Node25</title>
<path fill="none" stroke="midnightblue" d="M1572.36,-217.043C1595.09,-222.99 1621.73,-229.663 1646,-235 1658.12,-237.665 1671.1,-240.26 1683.62,-242.632"/>
<polygon fill="midnightblue" stroke="midnightblue" points="1683.06,-246.088 1693.54,-244.484 1684.35,-239.207 1683.06,-246.088"/>
</g>
<!-- Node31&#45;&gt;Node29 -->
<g id="edge37" class="edge"><title>Node31&#45;&gt;Node29</title>
<path fill="none" stroke="midnightblue" d="M1585.04,-206.106C1612.55,-207.766 1644.42,-209.689 1672.71,-211.396"/>
<polygon fill="midnightblue" stroke="midnightblue" points="1672.77,-214.906 1682.96,-212.015 1673.19,-207.919 1672.77,-214.906"/>
</g>
<!-- Node31&#45;&gt;Node30 -->
<g id="edge38" class="edge"><title>Node31&#45;&gt;Node30</title>
<path fill="none" stroke="midnightblue" d="M1585.04,-194.961C1617.25,-191.629 1655.45,-187.677 1686.88,-184.427"/>
<polygon fill="midnightblue" stroke="midnightblue" points="1687.24,-187.908 1696.82,-183.398 1686.52,-180.945 1687.24,-187.908"/>
</g>
<!-- Node32&#45;&gt;Node26 -->
<g id="edge41" class="edge"><title>Node32&#45;&gt;Node26</title>
<path fill="none" stroke="midnightblue" d="M1580.09,-378.193C1610.96,-376.33 1648.2,-374.083 1679.85,-372.173"/>
<polygon fill="midnightblue" stroke="midnightblue" points="1680.14,-375.662 1689.91,-371.566 1679.72,-368.674 1680.14,-375.662"/>
</g>
<!-- Node34 -->
<g id="node34" class="node"><title>Node34</title>
<g id="a_node34"><a xlink:href="../../d7/d35/classcommand_1_1_command.html#a7e1387db1d0d35d4dcd3a3ebe2ff902a" target="_top" xlink:title="command.Command.makeString">
<polygon fill="white" stroke="black" points="1427.5,-99.5 1427.5,-118.5 1604.5,-118.5 1604.5,-99.5 1427.5,-99.5"/>
<text text-anchor="middle" x="1516" y="-106.5" font-family="Helvetica,sans-Serif" font-size="10.00">command.Command.makeString</text>
</a>
</g>
</g>
<!-- Node33&#45;&gt;Node34 -->
<g id="edge44" class="edge"><title>Node33&#45;&gt;Node34</title>
<path fill="none" stroke="midnightblue" d="M1364.09,-173.984C1371.71,-171.184 1379.17,-167.884 1386,-164 1405.4,-152.971 1402.33,-139.533 1422,-129 1427.22,-126.203 1432.81,-123.798 1438.55,-121.729"/>
<polygon fill="midnightblue" stroke="midnightblue" points="1439.9,-124.971 1448.33,-118.554 1437.74,-118.313 1439.9,-124.971"/>
</g>
<!-- Node36 -->
<g id="node36" class="node"><title>Node36</title>
<g id="a_node36"><a xlink:href="../../d9/d1b/classcommand_1_1_command_factory.html#a8347db76764ea8308d029789b49519dd" target="_top" xlink:title="command.CommandFactory.update\lVariable">
<polygon fill="white" stroke="black" points="1422,-50 1422,-80 1610,-80 1610,-50 1422,-50"/>
<text text-anchor="start" x="1430" y="-68" font-family="Helvetica,sans-Serif" font-size="10.00">command.CommandFactory.update</text>
<text text-anchor="middle" x="1516" y="-57" font-family="Helvetica,sans-Serif" font-size="10.00">Variable</text>
</a>
</g>
</g>
<!-- Node35&#45;&gt;Node36 -->
<g id="edge46" class="edge"><title>Node35&#45;&gt;Node36</title>
<path fill="none" stroke="midnightblue" d="M1362.65,-135.473C1370.77,-133.006 1378.74,-129.903 1386,-126 1405.93,-115.282 1402.41,-101.322 1422,-90 1425.85,-87.7753 1429.9,-85.7431 1434.08,-83.8873"/>
<polygon fill="midnightblue" stroke="midnightblue" points="1435.43,-87.1147 1443.37,-80.1003 1432.79,-80.6321 1435.43,-87.1147"/>
</g>
<!-- Node39 -->
<g id="node39" class="node"><title>Node39</title>
<g id="a_node39"><a xlink:href="../../d9/d1b/classcommand_1_1_command_factory.html#a0d59e4f0f925b5046957c0e054ce8bef" target="_top" xlink:title="command.CommandFactory.reset\lRepcount">
<polygon fill="white" stroke="black" points="1426.5,-1 1426.5,-31 1605.5,-31 1605.5,-1 1426.5,-1"/>
<text text-anchor="start" x="1434.5" y="-19" font-family="Helvetica,sans-Serif" font-size="10.00">command.CommandFactory.reset</text>
<text text-anchor="middle" x="1516" y="-8" font-family="Helvetica,sans-Serif" font-size="10.00">Repcount</text>
</a>
</g>
</g>
<!-- Node38&#45;&gt;Node39 -->
<g id="edge49" class="edge"><title>Node38&#45;&gt;Node39</title>
<path fill="none" stroke="midnightblue" d="M1367.54,-27.9562C1383.19,-26.6875 1399.92,-25.3307 1416.29,-24.0031"/>
<polygon fill="midnightblue" stroke="midnightblue" points="1416.75,-27.4782 1426.43,-23.1814 1416.18,-20.5011 1416.75,-27.4782"/>
</g>
</g>
</svg>
        <g id="navigator" transform="translate(0 0)" fill="#404254">
                <rect fill="#f2f5e9" fill-opacity="0.5" stroke="#606060" stroke-width=".5" x="0" y="0" width="60" height="60"/>
                <use id="zoomplus" xlink:href="#zoomPlus" x="17" y="9" onmousedown="handleZoom(evt,'in')"/>
                <use id="zoomminus" xlink:href="#zoomMin" x="42" y="9" onmousedown="handleZoom(evt,'out')"/>
                <use id="reset" xlink:href="#resetDef" x="30" y="36" onmousedown="handleReset()"/>
                <g id="arrowUp" xlink:href="#dirArrow" transform="translate(30 24)" onmousedown="handlePan(0,-1)">
                  <use xlink:href="#rim" fill="#404040">
                        <set attributeName="fill" to="#808080" begin="arrowUp.mouseover" end="arrowUp.mouseout"/>
                  </use>
                  <path fill="none" stroke="white" stroke-width="1.5" d="M0,-3.0v7 M-2.5,-0.5L0,-3.0L2.5,-0.5"/>
                </g>
                <g id="arrowRight" xlink:href="#dirArrow" transform="rotate(90) translate(36 -43)" onmousedown="handlePan(1,0)">
                  <use xlink:href="#rim" fill="#404040">
                        <set attributeName="fill" to="#808080" begin="arrowRight.mouseover" end="arrowRight.mouseout"/>
                  </use>
                  <path fill="none" stroke="white" stroke-width="1.5" d="M0,-3.0v7 M-2.5,-0.5L0,-3.0L2.5,-0.5"/>
                </g>
                <g id="arrowDown" xlink:href="#dirArrow" transform="rotate(180) translate(-30 -48)" onmousedown="handlePan(0,1)">
                  <use xlink:href="#rim" fill="#404040">
                        <set attributeName="fill" to="#808080" begin="arrowDown.mouseover" end="arrowDown.mouseout"/>
                  </use>
                  <path fill="none" stroke="white" stroke-width="1.5" d="M0,-3.0v7 M-2.5,-0.5L0,-3.0L2.5,-0.5"/>
                </g>
                <g id="arrowLeft" xlink:href="#dirArrow" transform="rotate(270) translate(-36 17)" onmousedown="handlePan(-1,0)">
                  <use xlink:href="#rim" fill="#404040">
                        <set attributeName="fill" to="#808080" begin="arrowLeft.mouseover" end="arrowLeft.mouseout"/>
                  </use>
                  <path fill="none" stroke="white" stroke-width="1.5" d="M0,-3.0v7 M-2.5,-0.5L0,-3.0L2.5,-0.5"/>
                </g>
        </g>
        <svg viewBox="0 0 15 15" width="100%" height="30px" preserveAspectRatio="xMaxYMin meet">
         <g id="arrow_out" transform="scale(0.3 0.3)">
          <a xlink:href="classuser_interface_1_1_u_i_a3bbaba49b5a758cdab6fb4182e5dec4c_cgraph_org.svg" target="_base">
           <rect id="button" ry="5" rx="5" y="6" x="6" height="38" width="38"
                fill="#f2f5e9" fill-opacity="0.5" stroke="#606060" stroke-width="1.0"/>
           <path id="arrow"
             d="M 11.500037,31.436501 C 11.940474,20.09759 22.043105,11.32322 32.158766,21.979434 L 37.068811,17.246167 C 37.068811,17.246167 37.088388,32 37.088388,32 L 22.160133,31.978069 C 22.160133,31.978069 26.997745,27.140456 26.997745,27.140456 C 18.528582,18.264221 13.291696,25.230495 11.500037,31.436501 z"
             style="fill:#404040;"/>
          </a>
         </g>
        </svg>
</svg>
