<?xml version="1.0" encoding="UTF-8" standalone="no"?>
<!DOCTYPE svg PUBLIC "-//W3C//DTD SVG 1.1//EN"
 "http://www.w3.org/Graphics/SVG/1.1/DTD/svg11.dtd">
<!-- Generated by graphviz version 2.36.0 (20140111.2315)
 -->
<!-- Title: userInterface.UI.getUI Pages: 1 -->
<svg width="910pt" height="60pt"
 viewBox="0.00 0.00 910.00 60.00" xmlns="http://www.w3.org/2000/svg" xmlns:xlink="http://www.w3.org/1999/xlink">
<g id="graph0" class="graph" transform="scale(1 1) rotate(0) translate(4 56)">
<title>userInterface.UI.getUI</title>
<polygon fill="white" stroke="none" points="-4,4 -4,-56 906,-56 906,4 -4,4"/>
<!-- Node1 -->
<g id="node1" class="node"><title>Node1</title>
<polygon fill="#bfbfbf" stroke="black" points="0.5,-27.5 0.5,-46.5 121.5,-46.5 121.5,-27.5 0.5,-27.5"/>
<text text-anchor="middle" x="61" y="-34.5" font-family="Helvetica,sans-Serif" font-size="10.00">userInterface.UI.getUI</text>
</g>
<!-- Node2 -->
<g id="node2" class="node"><title>Node2</title>
<g id="a_node2"><a xlink:href="../../d6/dce/classuser_interface_1_1_u_i_manager.html#a60bda212a94f5f989e12a498da0409d1" target="_top" xlink:title="userInterface.UIManager.addTab">
<polygon fill="white" stroke="black" points="158,-27.5 158,-46.5 328,-46.5 328,-27.5 158,-27.5"/>
<text text-anchor="middle" x="243" y="-34.5" font-family="Helvetica,sans-Serif" font-size="10.00">userInterface.UIManager.addTab</text>
</a>
</g>
</g>
<!-- Node1&#45;&gt;Node2 -->
<g id="edge1" class="edge"><title>Node1&#45;&gt;Node2</title>
<path fill="none" stroke="midnightblue" d="M132.125,-37C140.595,-37 149.312,-37 157.956,-37"/>
<polygon fill="midnightblue" stroke="midnightblue" points="131.937,-33.5001 121.937,-37 131.937,-40.5001 131.937,-33.5001"/>
</g>
<!-- Node3 -->
<g id="node3" class="node"><title>Node3</title>
<g id="a_node3"><a xlink:href="../../d6/dce/classuser_interface_1_1_u_i_manager.html#af4b635ffad2c9d940376a3cb5684551b" target="_top" xlink:title="userInterface.UIManager.initialize">
<polygon fill="white" stroke="black" points="552.5,-27.5 552.5,-46.5 727.5,-46.5 727.5,-27.5 552.5,-27.5"/>
<text text-anchor="middle" x="640" y="-34.5" font-family="Helvetica,sans-Serif" font-size="10.00">userInterface.UIManager.initialize</text>
</a>
</g>
</g>
<!-- Node2&#45;&gt;Node3 -->
<g id="edge2" class="edge"><title>Node2&#45;&gt;Node3</title>
<path fill="none" stroke="midnightblue" d="M338.398,-38.7214C347.054,-38.8345 355.689,-38.9307 364,-39 431.553,-39.5629 448.447,-39.5492 516,-39 527.746,-38.9045 540.122,-38.7577 552.316,-38.5861"/>
<polygon fill="midnightblue" stroke="midnightblue" points="338.293,-35.2197 328.245,-38.5814 338.196,-42.219 338.293,-35.2197"/>
</g>
<!-- Node5 -->
<g id="node5" class="node"><title>Node5</title>
<g id="a_node5"><a xlink:href="../../d6/dce/classuser_interface_1_1_u_i_manager.html#a1f1dccc66bb1147bfba04eedac265ce1" target="_top" xlink:title="userInterface.UIManager.set\lUpEventHandlers">
<polygon fill="white" stroke="black" points="364,-0 364,-30 516,-30 516,-0 364,-0"/>
<text text-anchor="start" x="372" y="-18" font-family="Helvetica,sans-Serif" font-size="10.00">userInterface.UIManager.set</text>
<text text-anchor="middle" x="440" y="-7" font-family="Helvetica,sans-Serif" font-size="10.00">UpEventHandlers</text>
</a>
</g>
</g>
<!-- Node2&#45;&gt;Node5 -->
<g id="edge4" class="edge"><title>Node2&#45;&gt;Node5</title>
<path fill="none" stroke="midnightblue" d="M338.162,-26.3766C346.75,-25.4077 355.373,-24.4349 363.763,-23.4883"/>
<polygon fill="midnightblue" stroke="midnightblue" points="337.657,-22.9113 328.112,-27.5104 338.442,-29.8671 337.657,-22.9113"/>
</g>
<!-- Node4 -->
<g id="node4" class="node"><title>Node4</title>
<g id="a_node4"><a xlink:href="../../d6/dce/classuser_interface_1_1_u_i_manager.html#afe957d9e6d2d7d741debbc3bfcd7d8ff" target="_top" xlink:title="userInterface.UIManager.\lUIManager">
<polygon fill="white" stroke="black" points="764.5,-22 764.5,-52 901.5,-52 901.5,-22 764.5,-22"/>
<text text-anchor="start" x="772.5" y="-40" font-family="Helvetica,sans-Serif" font-size="10.00">userInterface.UIManager.</text>
<text text-anchor="middle" x="833" y="-29" font-family="Helvetica,sans-Serif" font-size="10.00">UIManager</text>
</a>
</g>
</g>
<!-- Node3&#45;&gt;Node4 -->
<g id="edge3" class="edge"><title>Node3&#45;&gt;Node4</title>
<path fill="none" stroke="midnightblue" d="M737.708,-37C746.706,-37 755.691,-37 764.341,-37"/>
<polygon fill="midnightblue" stroke="midnightblue" points="737.559,-33.5001 727.559,-37 737.558,-40.5001 737.559,-33.5001"/>
</g>
<!-- Node5&#45;&gt;Node3 -->
<g id="edge5" class="edge"><title>Node5&#45;&gt;Node3</title>
<path fill="none" stroke="midnightblue" d="M526.197,-24.4663C535.179,-25.4644 544.316,-26.4796 553.304,-27.4782"/>
<polygon fill="midnightblue" stroke="midnightblue" points="526.463,-20.9744 516.138,-23.3486 525.69,-27.9316 526.463,-20.9744"/>
</g>
</g>
</svg>
