<?xml version="1.0" encoding="UTF-8" standalone="no"?>
<!DOCTYPE svg PUBLIC "-//W3C//DTD SVG 1.1//EN"
 "http://www.w3.org/Graphics/SVG/1.1/DTD/svg11.dtd">
<!-- Generated by graphviz version 2.36.0 (20140111.2315)
 -->
<!-- Title: userInterface.UI.makeRunButton Pages: 1 -->
<!--zoomable 437 -->
<svg id="main" version="1.1" xmlns="http://www.w3.org/2000/svg" xmlns:xlink="http://www.w3.org/1999/xlink" xml:space="preserve" onload="init(evt)">
<style type="text/css"><![CDATA[
.edge:hover path { stroke: red; }
.edge:hover polygon { stroke: red; fill: red; }
]]></style>
<script type="text/javascript"><![CDATA[
var edges = document.getElementsByTagName('g');
if (edges && edges.length) {
  for (var i=0;i<edges.length;i++) {
    if (edges[i].id.substr(0,4)=='edge') {
      edges[i].setAttribute('class','edge');
    }
  }
}
]]></script>
        <defs>
                <circle id="rim" cx="0" cy="0" r="7"/>
                <circle id="rim2" cx="0" cy="0" r="3.5"/>
                <g id="zoomPlus">
                        <use xlink:href="#rim" fill="#404040">
                                <set attributeName="fill" to="#808080" begin="zoomplus.mouseover" end="zoomplus.mouseout"/>
                        </use>
                        <path d="M-4,0h8M0,-4v8" fill="none" stroke="white" stroke-width="1.5" pointer-events="none"/>
                </g>
                <g id="zoomMin">
                        <use xlink:href="#rim" fill="#404040">
                                <set attributeName="fill" to="#808080" begin="zoomminus.mouseover" end="zoomminus.mouseout"/>
                        </use>
                        <path d="M-4,0h8" fill="none" stroke="white" stroke-width="1.5" pointer-events="none"/>
                </g>
                <g id="dirArrow">
                        <path fill="none" stroke="white" stroke-width="1.5" d="M0,-3.0v7 M-2.5,-0.5L0,-3.0L2.5,-0.5"/>
                </g>
               <g id="resetDef">
                       <use xlink:href="#rim2" fill="#404040">
                               <set attributeName="fill" to="#808080" begin="reset.mouseover" end="reset.mouseout"/>
                       </use>
               </g>
        </defs>

<script type="text/javascript">
var viewWidth = 1716;
var viewHeight = 437;
var sectionId = 'dynsection-8';
</script>
<script xlink:href="../../svgpan.js"/>
<svg id="graph" class="graph">
<g id="viewport">
<title>userInterface.UI.makeRunButton</title>
<polygon fill="white" stroke="none" points="-4,4 -4,-433 1712,-433 1712,4 -4,4"/>
<!-- Node1 -->
<g id="node1" class="node"><title>Node1</title>
<polygon fill="#bfbfbf" stroke="black" points="0,-248 0,-278 140,-278 140,-248 0,-248"/>
<text text-anchor="start" x="8" y="-266" font-family="Helvetica,sans-Serif" font-size="10.00">userInterface.UI.makeRun</text>
<text text-anchor="middle" x="70" y="-255" font-family="Helvetica,sans-Serif" font-size="10.00">Button</text>
</g>
<!-- Node2 -->
<g id="node2" class="node"><title>Node2</title>
<g id="a_node2"><a xlink:href="../../d0/d7c/classuser_interface_1_1_u_i.html#ab17592b00ba0b808f524b4fc223303ec" target="_top" xlink:title="userInterface.UI.runCommand">
<polygon fill="white" stroke="black" points="176.5,-253.5 176.5,-272.5 337.5,-272.5 337.5,-253.5 176.5,-253.5"/>
<text text-anchor="middle" x="257" y="-260.5" font-family="Helvetica,sans-Serif" font-size="10.00">userInterface.UI.runCommand</text>
</a>
</g>
</g>
<!-- Node1&#45;&gt;Node2 -->
<g id="edge1" class="edge"><title>Node1&#45;&gt;Node2</title>
<path fill="none" stroke="midnightblue" d="M140.15,-263C148.633,-263 157.397,-263 166.129,-263"/>
<polygon fill="midnightblue" stroke="midnightblue" points="166.346,-266.5 176.346,-263 166.346,-259.5 166.346,-266.5"/>
</g>
<!-- Node3 -->
<g id="node3" class="node"><title>Node3</title>
<g id="a_node3"><a xlink:href="../../d8/d08/classworld_controller_1_1_world_controller.html#a178425d68e3e669c386706153ce44999" target="_top" xlink:title="worldController.WorldController.update">
<polygon fill="white" stroke="black" points="374,-253.5 374,-272.5 572,-272.5 572,-253.5 374,-253.5"/>
<text text-anchor="middle" x="473" y="-260.5" font-family="Helvetica,sans-Serif" font-size="10.00">worldController.WorldController.update</text>
</a>
</g>
</g>
<!-- Node2&#45;&gt;Node3 -->
<g id="edge2" class="edge"><title>Node2&#45;&gt;Node3</title>
<path fill="none" stroke="midnightblue" d="M337.686,-263C346.142,-263 354.841,-263 363.554,-263"/>
<polygon fill="midnightblue" stroke="midnightblue" points="363.774,-266.5 373.773,-263 363.773,-259.5 363.774,-266.5"/>
</g>
<!-- Node4 -->
<g id="node4" class="node"><title>Node4</title>
<g id="a_node4"><a xlink:href="../../df/dcb/classturtle_1_1_turtle.html#a610aafaf658c4b351330b7c16c66881c" target="_top" xlink:title="turtle.Turtle.updatePenAttributes">
<polygon fill="white" stroke="black" points="608.5,-328.5 608.5,-347.5 781.5,-347.5 781.5,-328.5 608.5,-328.5"/>
<text text-anchor="middle" x="695" y="-335.5" font-family="Helvetica,sans-Serif" font-size="10.00">turtle.Turtle.updatePenAttributes</text>
</a>
</g>
</g>
<!-- Node3&#45;&gt;Node4 -->
<g id="edge3" class="edge"><title>Node3&#45;&gt;Node4</title>
<path fill="none" stroke="midnightblue" d="M502.311,-272.651C541.501,-286.012 612.383,-310.176 656.103,-325.081"/>
<polygon fill="midnightblue" stroke="midnightblue" points="655.203,-328.472 665.798,-328.386 657.462,-321.846 655.203,-328.472"/>
</g>
<!-- Node7 -->
<g id="node7" class="node"><title>Node7</title>
<g id="a_node7"><a xlink:href="../../d9/dd0/classworld_1_1_world.html#ae370733f7784c42741a6ba66c7d2ecf5" target="_top" xlink:title="world.World.listen">
<polygon fill="white" stroke="black" points="646,-178.5 646,-197.5 744,-197.5 744,-178.5 646,-178.5"/>
<text text-anchor="middle" x="695" y="-185.5" font-family="Helvetica,sans-Serif" font-size="10.00">world.World.listen</text>
</a>
</g>
</g>
<!-- Node3&#45;&gt;Node7 -->
<g id="edge6" class="edge"><title>Node3&#45;&gt;Node7</title>
<path fill="none" stroke="midnightblue" d="M502.311,-253.349C541.501,-239.988 612.383,-215.824 656.103,-200.919"/>
<polygon fill="midnightblue" stroke="midnightblue" points="657.462,-204.154 665.798,-197.614 655.203,-197.528 657.462,-204.154"/>
</g>
<!-- Node5 -->
<g id="node5" class="node"><title>Node5</title>
<g id="a_node5"><a xlink:href="../../de/d57/classturtle_1_1_pen.html#ac9a08745a9f3615b9e47c1c8e5af8f1b" target="_top" xlink:title="turtle.Pen.getColor">
<polygon fill="white" stroke="black" points="858.5,-366.5 858.5,-385.5 965.5,-385.5 965.5,-366.5 858.5,-366.5"/>
<text text-anchor="middle" x="912" y="-373.5" font-family="Helvetica,sans-Serif" font-size="10.00">turtle.Pen.getColor</text>
</a>
</g>
</g>
<!-- Node4&#45;&gt;Node5 -->
<g id="edge4" class="edge"><title>Node4&#45;&gt;Node5</title>
<path fill="none" stroke="midnightblue" d="M749.976,-347.54C779.945,-352.837 817.364,-359.45 848.586,-364.969"/>
<polygon fill="midnightblue" stroke="midnightblue" points="848.032,-368.425 858.488,-366.719 849.25,-361.532 848.032,-368.425"/>
</g>
<!-- Node6 -->
<g id="node6" class="node"><title>Node6</title>
<g id="a_node6"><a xlink:href="../../de/d57/classturtle_1_1_pen.html#a76c8dc4e66927e7d3774ea00b2266640" target="_top" xlink:title="turtle.Pen.getSize">
<polygon fill="white" stroke="black" points="861,-328.5 861,-347.5 963,-347.5 963,-328.5 861,-328.5"/>
<text text-anchor="middle" x="912" y="-335.5" font-family="Helvetica,sans-Serif" font-size="10.00">turtle.Pen.getSize</text>
</a>
</g>
</g>
<!-- Node4&#45;&gt;Node6 -->
<g id="edge5" class="edge"><title>Node4&#45;&gt;Node6</title>
<path fill="none" stroke="midnightblue" d="M781.591,-338C804.738,-338 829.299,-338 850.733,-338"/>
<polygon fill="midnightblue" stroke="midnightblue" points="850.984,-341.5 860.984,-338 850.984,-334.5 850.984,-341.5"/>
</g>
<!-- Node8 -->
<g id="node8" class="node"><title>Node8</title>
<g id="a_node8"><a xlink:href="../../d6/d95/classparser_1_1_parser.html#a240c75608624a9c67402a296855c4d1d" target="_top" xlink:title="parser.Parser.initialize\lCommands">
<polygon fill="white" stroke="black" points="852,-279 852,-309 972,-309 972,-279 852,-279"/>
<text text-anchor="start" x="860" y="-297" font-family="Helvetica,sans-Serif" font-size="10.00">parser.Parser.initialize</text>
<text text-anchor="middle" x="912" y="-286" font-family="Helvetica,sans-Serif" font-size="10.00">Commands</text>
</a>
</g>
</g>
<!-- Node7&#45;&gt;Node8 -->
<g id="edge7" class="edge"><title>Node7&#45;&gt;Node8</title>
<path fill="none" stroke="midnightblue" d="M707.697,-197.675C728.582,-214.494 774.211,-249.216 818,-269 825.666,-272.463 833.91,-275.531 842.21,-278.225"/>
<polygon fill="midnightblue" stroke="midnightblue" points="841.361,-281.625 851.948,-281.217 843.417,-274.934 841.361,-281.625"/>
</g>
<!-- Node12 -->
<g id="node12" class="node"><title>Node12</title>
<g id="a_node12"><a xlink:href="../../d6/d95/classparser_1_1_parser.html#a4ecbffc246c3add017c4720eed4c6da9" target="_top" xlink:title="parser.Parser.parse">
<polygon fill="white" stroke="black" points="857.5,-240.5 857.5,-259.5 966.5,-259.5 966.5,-240.5 857.5,-240.5"/>
<text text-anchor="middle" x="912" y="-247.5" font-family="Helvetica,sans-Serif" font-size="10.00">parser.Parser.parse</text>
</a>
</g>
</g>
<!-- Node7&#45;&gt;Node12 -->
<g id="edge11" class="edge"><title>Node7&#45;&gt;Node12</title>
<path fill="none" stroke="midnightblue" d="M729.123,-197.552C766.448,-208.315 827.236,-225.845 868.149,-237.643"/>
<polygon fill="midnightblue" stroke="midnightblue" points="867.262,-241.03 877.84,-240.438 869.201,-234.304 867.262,-241.03"/>
</g>
<!-- Node25 -->
<g id="node25" class="node"><title>Node25</title>
<g id="a_node25"><a xlink:href="../../d7/d35/classcommand_1_1_command.html#a957099a70dd30b5dc897e0caf07d2d99" target="_top" xlink:title="command.Command.getCommand\lValues">
<polygon fill="white" stroke="black" points="818,-173 818,-203 1006,-203 1006,-173 818,-173"/>
<text text-anchor="start" x="826" y="-191" font-family="Helvetica,sans-Serif" font-size="10.00">command.Command.getCommand</text>
<text text-anchor="middle" x="912" y="-180" font-family="Helvetica,sans-Serif" font-size="10.00">Values</text>
</a>
</g>
</g>
<!-- Node7&#45;&gt;Node25 -->
<g id="edge35" class="edge"><title>Node7&#45;&gt;Node25</title>
<path fill="none" stroke="midnightblue" d="M744.25,-188C763.146,-188 785.594,-188 807.797,-188"/>
<polygon fill="midnightblue" stroke="midnightblue" points="807.968,-191.5 817.968,-188 807.968,-184.5 807.968,-191.5"/>
</g>
<!-- Node27 -->
<g id="node27" class="node"><title>Node27</title>
<g id="a_node27"><a xlink:href="../../d6/d95/classparser_1_1_parser.html#a8679d61f4ae6c55910ef113bcdda2c75" target="_top" xlink:title="parser.Parser.updateVariable">
<polygon fill="white" stroke="black" points="835,-134.5 835,-153.5 989,-153.5 989,-134.5 835,-134.5"/>
<text text-anchor="middle" x="912" y="-141.5" font-family="Helvetica,sans-Serif" font-size="10.00">parser.Parser.updateVariable</text>
</a>
</g>
</g>
<!-- Node7&#45;&gt;Node27 -->
<g id="edge37" class="edge"><title>Node7&#45;&gt;Node27</title>
<path fill="none" stroke="midnightblue" d="M742.344,-178.496C765.132,-173.825 793.005,-168.114 818,-163 829.73,-160.6 842.293,-158.032 854.271,-155.584"/>
<polygon fill="midnightblue" stroke="midnightblue" points="855.067,-158.994 864.164,-153.563 853.666,-152.136 855.067,-158.994"/>
</g>
<!-- Node29 -->
<g id="node29" class="node"><title>Node29</title>
<g id="a_node29"><a xlink:href="../../d9/dd0/classworld_1_1_world.html#adcbcb8328c7e832fcb710a91457e6772" target="_top" xlink:title="world.World.runCommand">
<polygon fill="white" stroke="black" points="842.5,-96.5 842.5,-115.5 981.5,-115.5 981.5,-96.5 842.5,-96.5"/>
<text text-anchor="middle" x="912" y="-103.5" font-family="Helvetica,sans-Serif" font-size="10.00">world.World.runCommand</text>
</a>
</g>
</g>
<!-- Node7&#45;&gt;Node29 -->
<g id="edge39" class="edge"><title>Node7&#45;&gt;Node29</title>
<path fill="none" stroke="midnightblue" d="M711.174,-178.413C733.659,-164.621 777.535,-139.273 818,-125 825.624,-122.311 833.74,-119.955 841.881,-117.903"/>
<polygon fill="midnightblue" stroke="midnightblue" points="842.871,-121.265 851.792,-115.549 841.254,-114.455 842.871,-121.265"/>
</g>
<!-- Node30 -->
<g id="node30" class="node"><title>Node30</title>
<g id="a_node30"><a xlink:href="../../d6/d95/classparser_1_1_parser.html#acebafe1593fc1f09ac31c7104438e4b1" target="_top" xlink:title="parser.Parser.resetRepcount">
<polygon fill="white" stroke="black" points="836.5,-23.5 836.5,-42.5 987.5,-42.5 987.5,-23.5 836.5,-23.5"/>
<text text-anchor="middle" x="912" y="-30.5" font-family="Helvetica,sans-Serif" font-size="10.00">parser.Parser.resetRepcount</text>
</a>
</g>
</g>
<!-- Node7&#45;&gt;Node30 -->
<g id="edge40" class="edge"><title>Node7&#45;&gt;Node30</title>
<path fill="none" stroke="midnightblue" d="M706.301,-178.465C726.741,-159.779 774.24,-117.506 818,-87 839.095,-72.2945 864.41,-57.7819 883.299,-47.5112"/>
<polygon fill="midnightblue" stroke="midnightblue" points="885.12,-50.5059 892.271,-42.6882 881.806,-44.3402 885.12,-50.5059"/>
</g>
<!-- Node9 -->
<g id="node9" class="node"><title>Node9</title>
<g id="a_node9"><a xlink:href="../../d6/d95/classparser_1_1_parser.html#a4f582c65390bddc57219c0b5c31ef5e7" target="_top" xlink:title="parser.Parser.makeTree">
<polygon fill="white" stroke="black" points="1072,-409.5 1072,-428.5 1200,-428.5 1200,-409.5 1072,-409.5"/>
<text text-anchor="middle" x="1136" y="-416.5" font-family="Helvetica,sans-Serif" font-size="10.00">parser.Parser.makeTree</text>
</a>
</g>
</g>
<!-- Node8&#45;&gt;Node9 -->
<g id="edge8" class="edge"><title>Node8&#45;&gt;Node9</title>
<path fill="none" stroke="midnightblue" d="M972.44,-301.597C984.543,-305.329 996.471,-310.849 1006,-319 1035.94,-344.607 1011.29,-375.319 1042,-400 1047.92,-404.756 1054.71,-408.415 1061.89,-411.219"/>
<polygon fill="midnightblue" stroke="midnightblue" points="1061.25,-414.697 1071.85,-414.534 1063.46,-408.055 1061.25,-414.697"/>
</g>
<!-- Node10 -->
<g id="node10" class="node"><title>Node10</title>
<g id="a_node10"><a xlink:href="../../d9/d1b/classcommand_1_1_command_factory.html#a87bf7e648425bb22124367cabedb3327" target="_top" xlink:title="command.CommandFactory.get\lNumParameters">
<polygon fill="white" stroke="black" points="1285,-399 1285,-429 1455,-429 1455,-399 1285,-399"/>
<text text-anchor="start" x="1293" y="-417" font-family="Helvetica,sans-Serif" font-size="10.00">command.CommandFactory.get</text>
<text text-anchor="middle" x="1370" y="-406" font-family="Helvetica,sans-Serif" font-size="10.00">NumParameters</text>
</a>
</g>
</g>
<!-- Node9&#45;&gt;Node10 -->
<g id="edge9" class="edge"><title>Node9&#45;&gt;Node10</title>
<path fill="none" stroke="midnightblue" d="M1200.09,-417.64C1222.97,-417.147 1249.34,-416.579 1274.34,-416.04"/>
<polygon fill="midnightblue" stroke="midnightblue" points="1274.67,-419.534 1284.59,-415.819 1274.51,-412.536 1274.67,-419.534"/>
</g>
<!-- Node11 -->
<g id="node11" class="node"><title>Node11</title>
<g id="a_node11"><a xlink:href="../../d9/d1b/classcommand_1_1_command_factory.html#a947fdc151e857ea74564d0d1fe268246" target="_top" xlink:title="command.CommandFactory.translate\lCommand">
<polygon fill="white" stroke="black" points="1510.5,-242 1510.5,-272 1707.5,-272 1707.5,-242 1510.5,-242"/>
<text text-anchor="start" x="1518.5" y="-260" font-family="Helvetica,sans-Serif" font-size="10.00">command.CommandFactory.translate</text>
<text text-anchor="middle" x="1609" y="-249" font-family="Helvetica,sans-Serif" font-size="10.00">Command</text>
</a>
</g>
</g>
<!-- Node10&#45;&gt;Node11 -->
<g id="edge10" class="edge"><title>Node10&#45;&gt;Node11</title>
<path fill="none" stroke="midnightblue" d="M1444.3,-398.992C1454.61,-395.489 1464.81,-391.211 1474,-386 1522.57,-358.451 1566.67,-309.257 1590.17,-280.232"/>
<polygon fill="midnightblue" stroke="midnightblue" points="1593.02,-282.269 1596.51,-272.266 1587.55,-277.909 1593.02,-282.269"/>
</g>
<!-- Node12&#45;&gt;Node9 -->
<g id="edge34" class="edge"><title>Node12&#45;&gt;Node9</title>
<path fill="none" stroke="midnightblue" d="M966.905,-251.008C981.111,-253.752 995.41,-259.093 1006,-269 1050.09,-310.249 997.905,-358.751 1042,-400 1047.84,-405.462 1054.8,-409.536 1062.26,-412.552"/>
<polygon fill="midnightblue" stroke="midnightblue" points="1061.32,-415.93 1071.92,-415.831 1063.58,-409.302 1061.32,-415.93"/>
</g>
<!-- Node13 -->
<g id="node13" class="node"><title>Node13</title>
<g id="a_node13"><a xlink:href="../../d9/d1b/classcommand_1_1_command_factory.html#ab25bb047b051661d31adf73b2dae5649" target="_top" xlink:title="command.CommandFactory.create\lCommand">
<polygon fill="white" stroke="black" points="1043.5,-137 1043.5,-167 1228.5,-167 1228.5,-137 1043.5,-137"/>
<text text-anchor="start" x="1051.5" y="-155" font-family="Helvetica,sans-Serif" font-size="10.00">command.CommandFactory.create</text>
<text text-anchor="middle" x="1136" y="-144" font-family="Helvetica,sans-Serif" font-size="10.00">Command</text>
</a>
</g>
</g>
<!-- Node12&#45;&gt;Node13 -->
<g id="edge12" class="edge"><title>Node12&#45;&gt;Node13</title>
<path fill="none" stroke="midnightblue" d="M945.12,-240.419C963.794,-234.007 987.262,-224.455 1006,-212 1024.84,-199.474 1022.35,-187.223 1042,-176 1045.06,-174.252 1048.25,-172.628 1051.53,-171.121"/>
<polygon fill="midnightblue" stroke="midnightblue" points="1053.08,-174.265 1060.95,-167.175 1050.38,-167.808 1053.08,-174.265"/>
</g>
<!-- Node15 -->
<g id="node15" class="node"><title>Node15</title>
<g id="a_node15"><a xlink:href="../../d6/d95/classparser_1_1_parser.html#aac1cff62f68138c7e977a67d39671701" target="_top" xlink:title="parser.Parser.generateCommand\lInput">
<polygon fill="white" stroke="black" points="1048,-284 1048,-314 1224,-314 1224,-284 1048,-284"/>
<text text-anchor="start" x="1056" y="-302" font-family="Helvetica,sans-Serif" font-size="10.00">parser.Parser.generateCommand</text>
<text text-anchor="middle" x="1136" y="-291" font-family="Helvetica,sans-Serif" font-size="10.00">Input</text>
</a>
</g>
</g>
<!-- Node12&#45;&gt;Node15 -->
<g id="edge15" class="edge"><title>Node12&#45;&gt;Node15</title>
<path fill="none" stroke="midnightblue" d="M960.842,-259.517C975.363,-262.475 991.349,-265.8 1006,-269 1024.1,-272.953 1043.59,-277.39 1061.79,-281.614"/>
<polygon fill="midnightblue" stroke="midnightblue" points="1061.23,-285.076 1071.76,-283.935 1062.81,-278.258 1061.23,-285.076"/>
</g>
<!-- Node18 -->
<g id="node18" class="node"><title>Node18</title>
<g id="a_node18"><a xlink:href="../../d3/dcc/classparser_1_1_node.html#a9c12e8d4375a7517eae0a35724b253c4" target="_top" xlink:title="parser.Node.getValue">
<polygon fill="white" stroke="black" points="1310,-357.5 1310,-376.5 1430,-376.5 1430,-357.5 1310,-357.5"/>
<text text-anchor="middle" x="1370" y="-364.5" font-family="Helvetica,sans-Serif" font-size="10.00">parser.Node.getValue</text>
</a>
</g>
</g>
<!-- Node12&#45;&gt;Node18 -->
<g id="edge31" class="edge"><title>Node12&#45;&gt;Node18</title>
<path fill="none" stroke="midnightblue" d="M966.978,-253.742C980.553,-256.572 994.514,-261.274 1006,-269 1029.93,-285.1 1017.54,-307.72 1042,-323 1083.74,-349.07 1216.77,-359.966 1299.74,-364.313"/>
<polygon fill="midnightblue" stroke="midnightblue" points="1299.68,-367.815 1309.85,-364.823 1300.04,-360.824 1299.68,-367.815"/>
</g>
<!-- Node20 -->
<g id="node20" class="node"><title>Node20</title>
<g id="a_node20"><a xlink:href="../../d6/d95/classparser_1_1_parser.html#a3efcd1192e76101919526b4a5e0046f4" target="_top" xlink:title="parser.Parser.getNodeBefore\lToReplace">
<polygon fill="white" stroke="black" points="1058.5,-235 1058.5,-265 1213.5,-265 1213.5,-235 1058.5,-235"/>
<text text-anchor="start" x="1066.5" y="-253" font-family="Helvetica,sans-Serif" font-size="10.00">parser.Parser.getNodeBefore</text>
<text text-anchor="middle" x="1136" y="-242" font-family="Helvetica,sans-Serif" font-size="10.00">ToReplace</text>
</a>
</g>
</g>
<!-- Node12&#45;&gt;Node20 -->
<g id="edge20" class="edge"><title>Node12&#45;&gt;Node20</title>
<path fill="none" stroke="midnightblue" d="M966.74,-250C991.198,-250 1020.76,-250 1048.24,-250"/>
<polygon fill="midnightblue" stroke="midnightblue" points="1048.26,-253.5 1058.26,-250 1048.26,-246.5 1048.26,-253.5"/>
</g>
<!-- Node23 -->
<g id="node23" class="node"><title>Node23</title>
<g id="a_node23"><a xlink:href="../../d6/d95/classparser_1_1_parser.html#a447c473b62ba23b7c144df9bb38a9a41" target="_top" xlink:title="parser.Parser.getNodeFor\lCommand">
<polygon fill="white" stroke="black" points="1067,-186 1067,-216 1205,-216 1205,-186 1067,-186"/>
<text text-anchor="start" x="1075" y="-204" font-family="Helvetica,sans-Serif" font-size="10.00">parser.Parser.getNodeFor</text>
<text text-anchor="middle" x="1136" y="-193" font-family="Helvetica,sans-Serif" font-size="10.00">Command</text>
</a>
</g>
</g>
<!-- Node12&#45;&gt;Node23 -->
<g id="edge26" class="edge"><title>Node12&#45;&gt;Node23</title>
<path fill="none" stroke="midnightblue" d="M956.067,-240.494C984.643,-234.187 1022.98,-225.725 1056.84,-218.252"/>
<polygon fill="midnightblue" stroke="midnightblue" points="1057.71,-221.644 1066.72,-216.071 1056.2,-214.809 1057.71,-221.644"/>
</g>
<!-- Node24 -->
<g id="node24" class="node"><title>Node24</title>
<g id="a_node24"><a xlink:href="../../d3/dcc/classparser_1_1_node.html#a066da2b478008f39a02440d7afceb9ee" target="_top" xlink:title="parser.Node.insertChild">
<polygon fill="white" stroke="black" points="1072,-371.5 1072,-390.5 1200,-390.5 1200,-371.5 1072,-371.5"/>
<text text-anchor="middle" x="1136" y="-378.5" font-family="Helvetica,sans-Serif" font-size="10.00">parser.Node.insertChild</text>
</a>
</g>
</g>
<!-- Node12&#45;&gt;Node24 -->
<g id="edge32" class="edge"><title>Node12&#45;&gt;Node24</title>
<path fill="none" stroke="midnightblue" d="M966.645,-251.948C980.684,-254.727 994.961,-259.852 1006,-269 1038.54,-295.964 1010.16,-329.215 1042,-357 1047.92,-362.165 1054.81,-366.242 1062.11,-369.456"/>
<polygon fill="midnightblue" stroke="midnightblue" points="1060.95,-372.76 1071.54,-373.083 1063.46,-366.226 1060.95,-372.76"/>
</g>
<!-- Node13&#45;&gt;Node11 -->
<g id="edge14" class="edge"><title>Node13&#45;&gt;Node11</title>
<path fill="none" stroke="midnightblue" d="M1191.85,-136.989C1220.09,-129.543 1251.57,-121.763 1266,-120 1357.76,-108.789 1388.79,-84.1509 1474,-120 1528.66,-142.997 1572.17,-200.384 1593.55,-233.125"/>
<polygon fill="midnightblue" stroke="midnightblue" points="1590.66,-235.104 1598.99,-241.657 1596.57,-231.342 1590.66,-235.104"/>
</g>
<!-- Node14 -->
<g id="node14" class="node"><title>Node14</title>
<g id="a_node14"><a xlink:href="../../d9/d1b/classcommand_1_1_command_factory.html#abd97ea3e22afc09e07ed1d4fd039d11f" target="_top" xlink:title="command.CommandFactory.reflectCMD">
<polygon fill="white" stroke="black" points="1266.5,-129.5 1266.5,-148.5 1473.5,-148.5 1473.5,-129.5 1266.5,-129.5"/>
<text text-anchor="middle" x="1370" y="-136.5" font-family="Helvetica,sans-Serif" font-size="10.00">command.CommandFactory.reflectCMD</text>
</a>
</g>
</g>
<!-- Node13&#45;&gt;Node14 -->
<g id="edge13" class="edge"><title>Node13&#45;&gt;Node14</title>
<path fill="none" stroke="midnightblue" d="M1228.69,-146.862C1237.81,-146.351 1247.13,-145.829 1256.43,-145.308"/>
<polygon fill="midnightblue" stroke="midnightblue" points="1256.7,-148.798 1266.49,-144.744 1256.31,-141.809 1256.7,-148.798"/>
</g>
<!-- Node16 -->
<g id="node16" class="node"><title>Node16</title>
<g id="a_node16"><a xlink:href="../../d3/dcc/classparser_1_1_node.html#aa67bc0d39227232943abec9b95b23235" target="_top" xlink:title="parser.Node.getChild1">
<polygon fill="white" stroke="black" points="1308.5,-281.5 1308.5,-300.5 1431.5,-300.5 1431.5,-281.5 1308.5,-281.5"/>
<text text-anchor="middle" x="1370" y="-288.5" font-family="Helvetica,sans-Serif" font-size="10.00">parser.Node.getChild1</text>
</a>
</g>
</g>
<!-- Node15&#45;&gt;Node16 -->
<g id="edge16" class="edge"><title>Node15&#45;&gt;Node16</title>
<path fill="none" stroke="midnightblue" d="M1224.05,-295.998C1248.46,-295.156 1274.71,-294.251 1298.07,-293.446"/>
<polygon fill="midnightblue" stroke="midnightblue" points="1298.36,-296.938 1308.23,-293.095 1298.12,-289.942 1298.36,-296.938"/>
</g>
<!-- Node17 -->
<g id="node17" class="node"><title>Node17</title>
<g id="a_node17"><a xlink:href="../../d3/dcc/classparser_1_1_node.html#a0f13775acc62af77cdde90dbeaf26bbc" target="_top" xlink:title="parser.Node.getChild2">
<polygon fill="white" stroke="black" points="1308.5,-243.5 1308.5,-262.5 1431.5,-262.5 1431.5,-243.5 1308.5,-243.5"/>
<text text-anchor="middle" x="1370" y="-250.5" font-family="Helvetica,sans-Serif" font-size="10.00">parser.Node.getChild2</text>
</a>
</g>
</g>
<!-- Node15&#45;&gt;Node17 -->
<g id="edge17" class="edge"><title>Node15&#45;&gt;Node17</title>
<path fill="none" stroke="midnightblue" d="M1207.24,-283.981C1226.29,-279.995 1246.92,-275.757 1266,-272 1278.94,-269.453 1292.81,-266.825 1306.05,-264.365"/>
<polygon fill="midnightblue" stroke="midnightblue" points="1306.83,-267.781 1316.03,-262.521 1305.56,-260.897 1306.83,-267.781"/>
</g>
<!-- Node15&#45;&gt;Node18 -->
<g id="edge18" class="edge"><title>Node15&#45;&gt;Node18</title>
<path fill="none" stroke="midnightblue" d="M1189.23,-314.093C1202.69,-318.456 1217.02,-323.532 1230,-329 1246.67,-336.026 1248.91,-342.069 1266,-348 1276.76,-351.735 1288.43,-354.779 1299.9,-357.248"/>
<polygon fill="midnightblue" stroke="midnightblue" points="1299.42,-360.721 1309.92,-359.272 1300.81,-353.86 1299.42,-360.721"/>
</g>
<!-- Node19 -->
<g id="node19" class="node"><title>Node19</title>
<g id="a_node19"><a xlink:href="../../d3/dcc/classparser_1_1_node.html#a6bbc0c61aaa261077eb87cfc4e2b45dc" target="_top" xlink:title="parser.Node.numChildren">
<polygon fill="white" stroke="black" points="1300.5,-319.5 1300.5,-338.5 1439.5,-338.5 1439.5,-319.5 1300.5,-319.5"/>
<text text-anchor="middle" x="1370" y="-326.5" font-family="Helvetica,sans-Serif" font-size="10.00">parser.Node.numChildren</text>
</a>
</g>
</g>
<!-- Node15&#45;&gt;Node19 -->
<g id="edge19" class="edge"><title>Node15&#45;&gt;Node19</title>
<path fill="none" stroke="midnightblue" d="M1224.05,-310.256C1245.8,-313.069 1269.01,-316.07 1290.33,-318.828"/>
<polygon fill="midnightblue" stroke="midnightblue" points="1289.94,-322.306 1300.31,-320.118 1290.84,-315.364 1289.94,-322.306"/>
</g>
<!-- Node20&#45;&gt;Node16 -->
<g id="edge21" class="edge"><title>Node20&#45;&gt;Node16</title>
<path fill="none" stroke="midnightblue" d="M1213.61,-263.539C1243.23,-268.774 1276.74,-274.696 1305.04,-279.697"/>
<polygon fill="midnightblue" stroke="midnightblue" points="1304.76,-283.201 1315.21,-281.495 1305.98,-276.308 1304.76,-283.201"/>
</g>
<!-- Node20&#45;&gt;Node17 -->
<g id="edge22" class="edge"><title>Node20&#45;&gt;Node17</title>
<path fill="none" stroke="midnightblue" d="M1213.61,-250.991C1240.88,-251.343 1271.44,-251.738 1298.2,-252.085"/>
<polygon fill="midnightblue" stroke="midnightblue" points="1298.21,-255.585 1308.26,-252.215 1298.3,-248.585 1298.21,-255.585"/>
</g>
<!-- Node20&#45;&gt;Node18 -->
<g id="edge23" class="edge"><title>Node20&#45;&gt;Node18</title>
<path fill="none" stroke="midnightblue" d="M1213.79,-263.846C1219.6,-266.641 1225.09,-269.99 1230,-274 1258.32,-297.148 1236.89,-325.859 1266,-348 1275.88,-355.513 1287.81,-360.371 1300,-363.454"/>
<polygon fill="midnightblue" stroke="midnightblue" points="1299.28,-366.88 1309.8,-365.564 1300.76,-360.037 1299.28,-366.88"/>
</g>
<!-- Node21 -->
<g id="node21" class="node"><title>Node21</title>
<g id="a_node21"><a xlink:href="../../d3/dcc/classparser_1_1_node.html#ab14db24c0724dec4387e29d513008e2e" target="_top" xlink:title="parser.Node.hasChildren">
<polygon fill="white" stroke="black" points="1303,-205.5 1303,-224.5 1437,-224.5 1437,-205.5 1303,-205.5"/>
<text text-anchor="middle" x="1370" y="-212.5" font-family="Helvetica,sans-Serif" font-size="10.00">parser.Node.hasChildren</text>
</a>
</g>
</g>
<!-- Node20&#45;&gt;Node21 -->
<g id="edge24" class="edge"><title>Node20&#45;&gt;Node21</title>
<path fill="none" stroke="midnightblue" d="M1213.61,-238.443C1240.06,-234.452 1269.61,-229.994 1295.78,-226.046"/>
<polygon fill="midnightblue" stroke="midnightblue" points="1296.64,-229.456 1306.01,-224.503 1295.6,-222.534 1296.64,-229.456"/>
</g>
<!-- Node22 -->
<g id="node22" class="node"><title>Node22</title>
<g id="a_node22"><a xlink:href="../../d3/dcc/classparser_1_1_node.html#aa92667a825777b3d757bc3b1a247ac20" target="_top" xlink:title="parser.Node.isLeaf">
<polygon fill="white" stroke="black" points="1317,-167.5 1317,-186.5 1423,-186.5 1423,-167.5 1317,-167.5"/>
<text text-anchor="middle" x="1370" y="-174.5" font-family="Helvetica,sans-Serif" font-size="10.00">parser.Node.isLeaf</text>
</a>
</g>
</g>
<!-- Node20&#45;&gt;Node22 -->
<g id="edge25" class="edge"><title>Node20&#45;&gt;Node22</title>
<path fill="none" stroke="midnightblue" d="M1206.27,-234.848C1214.46,-232.051 1222.55,-228.789 1230,-225 1248.31,-215.688 1247.33,-204.57 1266,-196 1278.7,-190.171 1293.06,-186.13 1306.93,-183.328"/>
<polygon fill="midnightblue" stroke="midnightblue" points="1307.71,-186.743 1316.92,-181.499 1306.45,-179.858 1307.71,-186.743"/>
</g>
<!-- Node23&#45;&gt;Node16 -->
<g id="edge27" class="edge"><title>Node23&#45;&gt;Node16</title>
<path fill="none" stroke="midnightblue" d="M1205.31,-212.961C1214.01,-216.087 1222.49,-220.029 1230,-225 1251.94,-239.527 1243.57,-258.252 1266,-272 1275.77,-277.989 1286.98,-282.181 1298.32,-285.097"/>
<polygon fill="midnightblue" stroke="midnightblue" points="1297.76,-288.559 1308.28,-287.344 1299.3,-281.73 1297.76,-288.559"/>
</g>
<!-- Node23&#45;&gt;Node17 -->
<g id="edge28" class="edge"><title>Node23&#45;&gt;Node17</title>
<path fill="none" stroke="midnightblue" d="M1195.49,-216.056C1227.83,-224.366 1262.26,-233.178 1266,-234 1278.12,-236.665 1291.1,-239.26 1303.62,-241.632"/>
<polygon fill="midnightblue" stroke="midnightblue" points="1303.06,-245.088 1313.54,-243.484 1304.35,-238.207 1303.06,-245.088"/>
</g>
<!-- Node23&#45;&gt;Node21 -->
<g id="edge29" class="edge"><title>Node23&#45;&gt;Node21</title>
<path fill="none" stroke="midnightblue" d="M1205.04,-205.106C1232.55,-206.766 1264.42,-208.689 1292.71,-210.396"/>
<polygon fill="midnightblue" stroke="midnightblue" points="1292.77,-213.906 1302.96,-211.015 1293.19,-206.919 1292.77,-213.906"/>
</g>
<!-- Node23&#45;&gt;Node22 -->
<g id="edge30" class="edge"><title>Node23&#45;&gt;Node22</title>
<path fill="none" stroke="midnightblue" d="M1205.04,-193.961C1237.25,-190.629 1275.45,-186.677 1306.88,-183.427"/>
<polygon fill="midnightblue" stroke="midnightblue" points="1307.24,-186.908 1316.82,-182.398 1306.52,-179.945 1307.24,-186.908"/>
</g>
<!-- Node24&#45;&gt;Node18 -->
<g id="edge33" class="edge"><title>Node24&#45;&gt;Node18</title>
<path fill="none" stroke="midnightblue" d="M1200.09,-377.193C1230.96,-375.33 1268.2,-373.083 1299.85,-371.173"/>
<polygon fill="midnightblue" stroke="midnightblue" points="1300.14,-374.662 1309.91,-370.566 1299.72,-367.674 1300.14,-374.662"/>
</g>
<!-- Node26 -->
<g id="node26" class="node"><title>Node26</title>
<g id="a_node26"><a xlink:href="../../d7/d35/classcommand_1_1_command.html#a7e1387db1d0d35d4dcd3a3ebe2ff902a" target="_top" xlink:title="command.Command.makeString">
<polygon fill="white" stroke="black" points="1047.5,-98.5 1047.5,-117.5 1224.5,-117.5 1224.5,-98.5 1047.5,-98.5"/>
<text text-anchor="middle" x="1136" y="-105.5" font-family="Helvetica,sans-Serif" font-size="10.00">command.Command.makeString</text>
</a>
</g>
</g>
<!-- Node25&#45;&gt;Node26 -->
<g id="edge36" class="edge"><title>Node25&#45;&gt;Node26</title>
<path fill="none" stroke="midnightblue" d="M984.628,-172.9C992.073,-170.12 999.341,-166.848 1006,-163 1025.59,-151.678 1022.07,-137.718 1042,-127 1046.31,-124.683 1050.87,-122.647 1055.56,-120.86"/>
<polygon fill="midnightblue" stroke="midnightblue" points="1057.02,-124.063 1065.35,-117.527 1054.76,-117.436 1057.02,-124.063"/>
</g>
<!-- Node28 -->
<g id="node28" class="node"><title>Node28</title>
<g id="a_node28"><a xlink:href="../../d9/d1b/classcommand_1_1_command_factory.html#a8347db76764ea8308d029789b49519dd" target="_top" xlink:title="command.CommandFactory.update\lVariable">
<polygon fill="white" stroke="black" points="1042,-49 1042,-79 1230,-79 1230,-49 1042,-49"/>
<text text-anchor="start" x="1050" y="-67" font-family="Helvetica,sans-Serif" font-size="10.00">command.CommandFactory.update</text>
<text text-anchor="middle" x="1136" y="-56" font-family="Helvetica,sans-Serif" font-size="10.00">Variable</text>
</a>
</g>
</g>
<!-- Node27&#45;&gt;Node28 -->
<g id="edge38" class="edge"><title>Node27&#45;&gt;Node28</title>
<path fill="none" stroke="midnightblue" d="M982.646,-134.473C990.774,-132.006 998.743,-128.903 1006,-125 1025.93,-114.282 1022.41,-100.322 1042,-89 1045.85,-86.7753 1049.9,-84.7431 1054.08,-82.8873"/>
<polygon fill="midnightblue" stroke="midnightblue" points="1055.43,-86.1147 1063.37,-79.1003 1052.79,-79.6321 1055.43,-86.1147"/>
</g>
<!-- Node31 -->
<g id="node31" class="node"><title>Node31</title>
<g id="a_node31"><a xlink:href="../../d9/d1b/classcommand_1_1_command_factory.html#a0d59e4f0f925b5046957c0e054ce8bef" target="_top" xlink:title="command.CommandFactory.reset\lRepcount">
<polygon fill="white" stroke="black" points="1046.5,-0 1046.5,-30 1225.5,-30 1225.5,-0 1046.5,-0"/>
<text text-anchor="start" x="1054.5" y="-18" font-family="Helvetica,sans-Serif" font-size="10.00">command.CommandFactory.reset</text>
<text text-anchor="middle" x="1136" y="-7" font-family="Helvetica,sans-Serif" font-size="10.00">Repcount</text>
</a>
</g>
</g>
<!-- Node30&#45;&gt;Node31 -->
<g id="edge41" class="edge"><title>Node30&#45;&gt;Node31</title>
<path fill="none" stroke="midnightblue" d="M987.54,-26.9562C1003.19,-25.6875 1019.92,-24.3307 1036.29,-23.0031"/>
<polygon fill="midnightblue" stroke="midnightblue" points="1036.75,-26.4782 1046.43,-22.1814 1036.18,-19.5011 1036.75,-26.4782"/>
</g>
</g>
</svg>
        <g id="navigator" transform="translate(0 0)" fill="#404254">
                <rect fill="#f2f5e9" fill-opacity="0.5" stroke="#606060" stroke-width=".5" x="0" y="0" width="60" height="60"/>
                <use id="zoomplus" xlink:href="#zoomPlus" x="17" y="9" onmousedown="handleZoom(evt,'in')"/>
                <use id="zoomminus" xlink:href="#zoomMin" x="42" y="9" onmousedown="handleZoom(evt,'out')"/>
                <use id="reset" xlink:href="#resetDef" x="30" y="36" onmousedown="handleReset()"/>
                <g id="arrowUp" xlink:href="#dirArrow" transform="translate(30 24)" onmousedown="handlePan(0,-1)">
                  <use xlink:href="#rim" fill="#404040">
                        <set attributeName="fill" to="#808080" begin="arrowUp.mouseover" end="arrowUp.mouseout"/>
                  </use>
                  <path fill="none" stroke="white" stroke-width="1.5" d="M0,-3.0v7 M-2.5,-0.5L0,-3.0L2.5,-0.5"/>
                </g>
                <g id="arrowRight" xlink:href="#dirArrow" transform="rotate(90) translate(36 -43)" onmousedown="handlePan(1,0)">
                  <use xlink:href="#rim" fill="#404040">
                        <set attributeName="fill" to="#808080" begin="arrowRight.mouseover" end="arrowRight.mouseout"/>
                  </use>
                  <path fill="none" stroke="white" stroke-width="1.5" d="M0,-3.0v7 M-2.5,-0.5L0,-3.0L2.5,-0.5"/>
                </g>
                <g id="arrowDown" xlink:href="#dirArrow" transform="rotate(180) translate(-30 -48)" onmousedown="handlePan(0,1)">
                  <use xlink:href="#rim" fill="#404040">
                        <set attributeName="fill" to="#808080" begin="arrowDown.mouseover" end="arrowDown.mouseout"/>
                  </use>
                  <path fill="none" stroke="white" stroke-width="1.5" d="M0,-3.0v7 M-2.5,-0.5L0,-3.0L2.5,-0.5"/>
                </g>
                <g id="arrowLeft" xlink:href="#dirArrow" transform="rotate(270) translate(-36 17)" onmousedown="handlePan(-1,0)">
                  <use xlink:href="#rim" fill="#404040">
                        <set attributeName="fill" to="#808080" begin="arrowLeft.mouseover" end="arrowLeft.mouseout"/>
                  </use>
                  <path fill="none" stroke="white" stroke-width="1.5" d="M0,-3.0v7 M-2.5,-0.5L0,-3.0L2.5,-0.5"/>
                </g>
        </g>
        <svg viewBox="0 0 15 15" width="100%" height="30px" preserveAspectRatio="xMaxYMin meet">
         <g id="arrow_out" transform="scale(0.3 0.3)">
          <a xlink:href="classuser_interface_1_1_u_i_a02bd34909b5d6037ea8ebe812879b90a_cgraph_org.svg" target="_base">
           <rect id="button" ry="5" rx="5" y="6" x="6" height="38" width="38"
                fill="#f2f5e9" fill-opacity="0.5" stroke="#606060" stroke-width="1.0"/>
           <path id="arrow"
             d="M 11.500037,31.436501 C 11.940474,20.09759 22.043105,11.32322 32.158766,21.979434 L 37.068811,17.246167 C 37.068811,17.246167 37.088388,32 37.088388,32 L 22.160133,31.978069 C 22.160133,31.978069 26.997745,27.140456 26.997745,27.140456 C 18.528582,18.264221 13.291696,25.230495 11.500037,31.436501 z"
             style="fill:#404040;"/>
          </a>
         </g>
        </svg>
</svg>
