<?xml version="1.0" encoding="UTF-8" standalone="no"?>
<!DOCTYPE svg PUBLIC "-//W3C//DTD SVG 1.1//EN"
 "http://www.w3.org/Graphics/SVG/1.1/DTD/svg11.dtd">
<!-- Generated by graphviz version 2.36.0 (20140111.2315)
 -->
<!-- Title: userInterface.UI.makeRunButton Pages: 1 -->
<svg width="1728pt" height="431pt"
 viewBox="0.00 0.00 1728.00 431.00" xmlns="http://www.w3.org/2000/svg" xmlns:xlink="http://www.w3.org/1999/xlink">
<g id="graph0" class="graph" transform="scale(1 1) rotate(0) translate(4 427)">
<title>userInterface.UI.makeRunButton</title>
<polygon fill="white" stroke="none" points="-4,4 -4,-427 1724,-427 1724,4 -4,4"/>
<!-- Node1 -->
<g id="node1" class="node"><title>Node1</title>
<polygon fill="#bfbfbf" stroke="black" points="0,-126 0,-156 140,-156 140,-126 0,-126"/>
<text text-anchor="start" x="8" y="-144" font-family="Helvetica,sans-Serif" font-size="10.00">userInterface.UI.makeRun</text>
<text text-anchor="middle" x="70" y="-133" font-family="Helvetica,sans-Serif" font-size="10.00">Button</text>
</g>
<!-- Node2 -->
<g id="node2" class="node"><title>Node2</title>
<g id="a_node2"><a xlink:href="../../d0/d7c/classuser_interface_1_1_u_i.html#ab17592b00ba0b808f524b4fc223303ec" target="_top" xlink:title="userInterface.UI.runCommand">
<polygon fill="white" stroke="black" points="176.5,-131.5 176.5,-150.5 337.5,-150.5 337.5,-131.5 176.5,-131.5"/>
<text text-anchor="middle" x="257" y="-138.5" font-family="Helvetica,sans-Serif" font-size="10.00">userInterface.UI.runCommand</text>
</a>
</g>
</g>
<!-- Node1&#45;&gt;Node2 -->
<g id="edge1" class="edge"><title>Node1&#45;&gt;Node2</title>
<path fill="none" stroke="midnightblue" d="M140.15,-141C148.633,-141 157.397,-141 166.129,-141"/>
<polygon fill="midnightblue" stroke="midnightblue" points="166.346,-144.5 176.346,-141 166.346,-137.5 166.346,-144.5"/>
</g>
<!-- Node3 -->
<g id="node3" class="node"><title>Node3</title>
<g id="a_node3"><a xlink:href="../../d8/d08/classworld_controller_1_1_world_controller.html#a178425d68e3e669c386706153ce44999" target="_top" xlink:title="worldController.WorldController.update">
<polygon fill="white" stroke="black" points="374,-131.5 374,-150.5 572,-150.5 572,-131.5 374,-131.5"/>
<text text-anchor="middle" x="473" y="-138.5" font-family="Helvetica,sans-Serif" font-size="10.00">worldController.WorldController.update</text>
</a>
</g>
</g>
<!-- Node2&#45;&gt;Node3 -->
<g id="edge2" class="edge"><title>Node2&#45;&gt;Node3</title>
<path fill="none" stroke="midnightblue" d="M337.686,-141C346.142,-141 354.841,-141 363.554,-141"/>
<polygon fill="midnightblue" stroke="midnightblue" points="363.774,-144.5 373.773,-141 363.773,-137.5 363.774,-144.5"/>
</g>
<!-- Node4 -->
<g id="node4" class="node"><title>Node4</title>
<g id="a_node4"><a xlink:href="../../df/dcb/classturtle_1_1_turtle.html#a610aafaf658c4b351330b7c16c66881c" target="_top" xlink:title="turtle.Turtle.updatePenAttributes">
<polygon fill="white" stroke="black" points="615.5,-251.5 615.5,-270.5 788.5,-270.5 788.5,-251.5 615.5,-251.5"/>
<text text-anchor="middle" x="702" y="-258.5" font-family="Helvetica,sans-Serif" font-size="10.00">turtle.Turtle.updatePenAttributes</text>
</a>
</g>
</g>
<!-- Node3&#45;&gt;Node4 -->
<g id="edge3" class="edge"><title>Node3&#45;&gt;Node4</title>
<path fill="none" stroke="midnightblue" d="M492.193,-150.617C531.957,-171.638 626.802,-221.776 673.736,-246.587"/>
<polygon fill="midnightblue" stroke="midnightblue" points="672.244,-249.758 682.721,-251.337 675.516,-243.569 672.244,-249.758"/>
</g>
<!-- Node7 -->
<g id="node7" class="node"><title>Node7</title>
<g id="a_node7"><a xlink:href="../../d9/dd0/classworld_1_1_world.html#ae370733f7784c42741a6ba66c7d2ecf5" target="_top" xlink:title="world.World.listen">
<polygon fill="white" stroke="black" points="653,-131.5 653,-150.5 751,-150.5 751,-131.5 653,-131.5"/>
<text text-anchor="middle" x="702" y="-138.5" font-family="Helvetica,sans-Serif" font-size="10.00">world.World.listen</text>
</a>
</g>
</g>
<!-- Node3&#45;&gt;Node7 -->
<g id="edge6" class="edge"><title>Node3&#45;&gt;Node7</title>
<path fill="none" stroke="midnightblue" d="M572.245,-141C596.238,-141 621.157,-141 642.608,-141"/>
<polygon fill="midnightblue" stroke="midnightblue" points="642.841,-144.5 652.841,-141 642.841,-137.5 642.841,-144.5"/>
</g>
<!-- Node30 -->
<g id="node30" class="node"><title>Node30</title>
<g id="a_node30"><a xlink:href="../../d8/d08/classworld_controller_1_1_world_controller.html#a9380abb3ed5334498510f1d6a88a826d" target="_top" xlink:title="worldController.WorldController.draw\lTurtle">
<polygon fill="white" stroke="black" points="608.5,-39 608.5,-69 795.5,-69 795.5,-39 608.5,-39"/>
<text text-anchor="start" x="616.5" y="-57" font-family="Helvetica,sans-Serif" font-size="10.00">worldController.WorldController.draw</text>
<text text-anchor="middle" x="702" y="-46" font-family="Helvetica,sans-Serif" font-size="10.00">Turtle</text>
</a>
</g>
</g>
<!-- Node3&#45;&gt;Node30 -->
<g id="edge40" class="edge"><title>Node3&#45;&gt;Node30</title>
<path fill="none" stroke="midnightblue" d="M499.16,-131.357C535.986,-117.243 605.283,-90.6846 652.288,-72.6692"/>
<polygon fill="midnightblue" stroke="midnightblue" points="653.583,-75.9213 661.668,-69.0743 651.078,-69.3849 653.583,-75.9213"/>
</g>
<!-- Node5 -->
<g id="node5" class="node"><title>Node5</title>
<g id="a_node5"><a xlink:href="../../de/d57/classturtle_1_1_pen.html#ac9a08745a9f3615b9e47c1c8e5af8f1b" target="_top" xlink:title="turtle.Pen.getColor">
<polygon fill="white" stroke="black" points="872.5,-289.5 872.5,-308.5 979.5,-308.5 979.5,-289.5 872.5,-289.5"/>
<text text-anchor="middle" x="926" y="-296.5" font-family="Helvetica,sans-Serif" font-size="10.00">turtle.Pen.getColor</text>
</a>
</g>
</g>
<!-- Node4&#45;&gt;Node5 -->
<g id="edge4" class="edge"><title>Node4&#45;&gt;Node5</title>
<path fill="none" stroke="midnightblue" d="M758.733,-270.54C790.277,-275.939 829.815,-282.707 862.421,-288.288"/>
<polygon fill="midnightblue" stroke="midnightblue" points="861.853,-291.742 872.301,-289.979 863.034,-284.842 861.853,-291.742"/>
</g>
<!-- Node6 -->
<g id="node6" class="node"><title>Node6</title>
<g id="a_node6"><a xlink:href="../../de/d57/classturtle_1_1_pen.html#a76c8dc4e66927e7d3774ea00b2266640" target="_top" xlink:title="turtle.Pen.getSize">
<polygon fill="white" stroke="black" points="875,-251.5 875,-270.5 977,-270.5 977,-251.5 875,-251.5"/>
<text text-anchor="middle" x="926" y="-258.5" font-family="Helvetica,sans-Serif" font-size="10.00">turtle.Pen.getSize</text>
</a>
</g>
</g>
<!-- Node4&#45;&gt;Node6 -->
<g id="edge5" class="edge"><title>Node4&#45;&gt;Node6</title>
<path fill="none" stroke="midnightblue" d="M788.513,-261C813.943,-261 841.259,-261 864.723,-261"/>
<polygon fill="midnightblue" stroke="midnightblue" points="864.868,-264.5 874.868,-261 864.868,-257.5 864.868,-264.5"/>
</g>
<!-- Node8 -->
<g id="node8" class="node"><title>Node8</title>
<g id="a_node8"><a xlink:href="../../d6/d95/classparser_1_1_parser.html#a240c75608624a9c67402a296855c4d1d" target="_top" xlink:title="parser.Parser.initialize\lCommands">
<polygon fill="white" stroke="black" points="866,-126 866,-156 986,-156 986,-126 866,-126"/>
<text text-anchor="start" x="874" y="-144" font-family="Helvetica,sans-Serif" font-size="10.00">parser.Parser.initialize</text>
<text text-anchor="middle" x="926" y="-133" font-family="Helvetica,sans-Serif" font-size="10.00">Commands</text>
</a>
</g>
</g>
<!-- Node7&#45;&gt;Node8 -->
<g id="edge7" class="edge"><title>Node7&#45;&gt;Node8</title>
<path fill="none" stroke="midnightblue" d="M751.171,-141C781.681,-141 821.633,-141 855.542,-141"/>
<polygon fill="midnightblue" stroke="midnightblue" points="855.854,-144.5 865.854,-141 855.854,-137.5 855.854,-144.5"/>
</g>
<!-- Node12 -->
<g id="node12" class="node"><title>Node12</title>
<g id="a_node12"><a xlink:href="../../d6/d95/classparser_1_1_parser.html#a4ecbffc246c3add017c4720eed4c6da9" target="_top" xlink:title="parser.Parser.parse">
<polygon fill="white" stroke="black" points="871.5,-175.5 871.5,-194.5 980.5,-194.5 980.5,-175.5 871.5,-175.5"/>
<text text-anchor="middle" x="926" y="-182.5" font-family="Helvetica,sans-Serif" font-size="10.00">parser.Parser.parse</text>
</a>
</g>
</g>
<!-- Node7&#45;&gt;Node12 -->
<g id="edge11" class="edge"><title>Node7&#45;&gt;Node12</title>
<path fill="none" stroke="midnightblue" d="M751.171,-150.547C785.207,-157.293 830.996,-166.369 867.035,-173.511"/>
<polygon fill="midnightblue" stroke="midnightblue" points="866.434,-176.96 876.923,-175.471 867.795,-170.094 866.434,-176.96"/>
</g>
<!-- Node25 -->
<g id="node25" class="node"><title>Node25</title>
<g id="a_node25"><a xlink:href="../../d7/d35/classcommand_1_1_command.html#a957099a70dd30b5dc897e0caf07d2d99" target="_top" xlink:title="command.Command.getCommand\lValues">
<polygon fill="white" stroke="black" points="832,-77 832,-107 1020,-107 1020,-77 832,-77"/>
<text text-anchor="start" x="840" y="-95" font-family="Helvetica,sans-Serif" font-size="10.00">command.Command.getCommand</text>
<text text-anchor="middle" x="926" y="-84" font-family="Helvetica,sans-Serif" font-size="10.00">Values</text>
</a>
</g>
</g>
<!-- Node7&#45;&gt;Node25 -->
<g id="edge35" class="edge"><title>Node7&#45;&gt;Node25</title>
<path fill="none" stroke="midnightblue" d="M746.067,-131.494C774.643,-125.187 812.979,-116.725 846.836,-109.252"/>
<polygon fill="midnightblue" stroke="midnightblue" points="847.707,-112.644 856.718,-107.071 846.199,-105.809 847.707,-112.644"/>
</g>
<!-- Node27 -->
<g id="node27" class="node"><title>Node27</title>
<g id="a_node27"><a xlink:href="../../d9/dd0/classworld_1_1_world.html#adcbcb8328c7e832fcb710a91457e6772" target="_top" xlink:title="world.World.runCommand">
<polygon fill="white" stroke="black" points="856.5,-38.5 856.5,-57.5 995.5,-57.5 995.5,-38.5 856.5,-38.5"/>
<text text-anchor="middle" x="926" y="-45.5" font-family="Helvetica,sans-Serif" font-size="10.00">world.World.runCommand</text>
</a>
</g>
</g>
<!-- Node7&#45;&gt;Node27 -->
<g id="edge37" class="edge"><title>Node7&#45;&gt;Node27</title>
<path fill="none" stroke="midnightblue" d="M716.219,-131.489C738.82,-115.682 786.833,-84.0613 832,-67 839.154,-64.2976 846.77,-61.9506 854.446,-59.919"/>
<polygon fill="midnightblue" stroke="midnightblue" points="855.305,-63.3121 864.171,-57.5112 853.623,-56.5173 855.305,-63.3121"/>
</g>
<!-- Node28 -->
<g id="node28" class="node"><title>Node28</title>
<g id="a_node28"><a xlink:href="../../d6/d95/classparser_1_1_parser.html#acebafe1593fc1f09ac31c7104438e4b1" target="_top" xlink:title="parser.Parser.resetRepcount">
<polygon fill="white" stroke="black" points="850.5,-213.5 850.5,-232.5 1001.5,-232.5 1001.5,-213.5 850.5,-213.5"/>
<text text-anchor="middle" x="926" y="-220.5" font-family="Helvetica,sans-Serif" font-size="10.00">parser.Parser.resetRepcount</text>
</a>
</g>
</g>
<!-- Node7&#45;&gt;Node28 -->
<g id="edge38" class="edge"><title>Node7&#45;&gt;Node28</title>
<path fill="none" stroke="midnightblue" d="M719.128,-150.54C743.006,-164.275 789.527,-189.551 832,-204 839.962,-206.708 848.444,-209.092 856.925,-211.173"/>
<polygon fill="midnightblue" stroke="midnightblue" points="856.314,-214.624 866.847,-213.478 857.898,-207.806 856.314,-214.624"/>
</g>
<!-- Node9 -->
<g id="node9" class="node"><title>Node9</title>
<g id="a_node9"><a xlink:href="../../d6/d95/classparser_1_1_parser.html#a4f582c65390bddc57219c0b5c31ef5e7" target="_top" xlink:title="parser.Parser.makeTree">
<polygon fill="white" stroke="black" points="1085,-81.5 1085,-100.5 1213,-100.5 1213,-81.5 1085,-81.5"/>
<text text-anchor="middle" x="1149" y="-88.5" font-family="Helvetica,sans-Serif" font-size="10.00">parser.Parser.makeTree</text>
</a>
</g>
</g>
<!-- Node8&#45;&gt;Node9 -->
<g id="edge8" class="edge"><title>Node8&#45;&gt;Node9</title>
<path fill="none" stroke="midnightblue" d="M986.312,-126.324C1008.18,-121.025 1033.18,-115.096 1056,-110 1067.08,-107.525 1078.94,-104.992 1090.33,-102.614"/>
<polygon fill="midnightblue" stroke="midnightblue" points="1091.11,-106.027 1100.19,-100.57 1089.69,-99.1728 1091.11,-106.027"/>
</g>
<!-- Node10 -->
<g id="node10" class="node"><title>Node10</title>
<g id="a_node10"><a xlink:href="../../d9/d1b/classcommand_1_1_command_factory.html#a87bf7e648425bb22124367cabedb3327" target="_top" xlink:title="command.CommandFactory.get\lNumParameters">
<polygon fill="white" stroke="black" points="1297,-74 1297,-104 1467,-104 1467,-74 1297,-74"/>
<text text-anchor="start" x="1305" y="-92" font-family="Helvetica,sans-Serif" font-size="10.00">command.CommandFactory.get</text>
<text text-anchor="middle" x="1382" y="-81" font-family="Helvetica,sans-Serif" font-size="10.00">NumParameters</text>
</a>
</g>
</g>
<!-- Node9&#45;&gt;Node10 -->
<g id="edge9" class="edge"><title>Node9&#45;&gt;Node10</title>
<path fill="none" stroke="midnightblue" d="M1213.12,-90.4535C1235.78,-90.2573 1261.85,-90.0316 1286.59,-89.8174"/>
<polygon fill="midnightblue" stroke="midnightblue" points="1286.76,-93.3162 1296.73,-89.7297 1286.7,-86.3165 1286.76,-93.3162"/>
</g>
<!-- Node11 -->
<g id="node11" class="node"><title>Node11</title>
<g id="a_node11"><a xlink:href="../../d9/d1b/classcommand_1_1_command_factory.html#a947fdc151e857ea74564d0d1fe268246" target="_top" xlink:title="command.CommandFactory.translate\lCommand">
<polygon fill="white" stroke="black" points="1522.5,-115 1522.5,-145 1719.5,-145 1719.5,-115 1522.5,-115"/>
<text text-anchor="start" x="1530.5" y="-133" font-family="Helvetica,sans-Serif" font-size="10.00">command.CommandFactory.translate</text>
<text text-anchor="middle" x="1621" y="-122" font-family="Helvetica,sans-Serif" font-size="10.00">Command</text>
</a>
</g>
</g>
<!-- Node10&#45;&gt;Node11 -->
<g id="edge10" class="edge"><title>Node10&#45;&gt;Node11</title>
<path fill="none" stroke="midnightblue" d="M1467.22,-103.571C1485.38,-106.712 1504.71,-110.056 1523.3,-113.272"/>
<polygon fill="midnightblue" stroke="midnightblue" points="1522.79,-116.736 1533.25,-114.992 1523.99,-109.838 1522.79,-116.736"/>
</g>
<!-- Node12&#45;&gt;Node9 -->
<g id="edge34" class="edge"><title>Node12&#45;&gt;Node9</title>
<path fill="none" stroke="midnightblue" d="M980.558,-180.784C994.286,-177.818 1008.43,-172.944 1020,-165 1044.09,-148.467 1031.85,-126.435 1056,-110 1061.8,-106.055 1068.24,-102.899 1074.96,-100.379"/>
<polygon fill="midnightblue" stroke="midnightblue" points="1076.52,-103.552 1084.94,-97.1228 1074.35,-96.8967 1076.52,-103.552"/>
</g>
<!-- Node13 -->
<g id="node13" class="node"><title>Node13</title>
<g id="a_node13"><a xlink:href="../../d9/d1b/classcommand_1_1_command_factory.html#ab25bb047b051661d31adf73b2dae5649" target="_top" xlink:title="command.CommandFactory.create\lCommand">
<polygon fill="white" stroke="black" points="1056.5,-120 1056.5,-150 1241.5,-150 1241.5,-120 1056.5,-120"/>
<text text-anchor="start" x="1064.5" y="-138" font-family="Helvetica,sans-Serif" font-size="10.00">command.CommandFactory.create</text>
<text text-anchor="middle" x="1149" y="-127" font-family="Helvetica,sans-Serif" font-size="10.00">Command</text>
</a>
</g>
</g>
<!-- Node12&#45;&gt;Node13 -->
<g id="edge12" class="edge"><title>Node12&#45;&gt;Node13</title>
<path fill="none" stroke="midnightblue" d="M972.447,-175.401C987.586,-172.157 1004.53,-168.476 1020,-165 1037.85,-160.989 1057.07,-156.549 1075.05,-152.341"/>
<polygon fill="midnightblue" stroke="midnightblue" points="1075.96,-155.723 1084.9,-150.032 1074.37,-148.908 1075.96,-155.723"/>
</g>
<!-- Node15 -->
<g id="node15" class="node"><title>Node15</title>
<g id="a_node15"><a xlink:href="../../d6/d95/classparser_1_1_parser.html#aac1cff62f68138c7e977a67d39671701" target="_top" xlink:title="parser.Parser.generateCommand\lInput">
<polygon fill="white" stroke="black" points="1061,-246 1061,-276 1237,-276 1237,-246 1061,-246"/>
<text text-anchor="start" x="1069" y="-264" font-family="Helvetica,sans-Serif" font-size="10.00">parser.Parser.generateCommand</text>
<text text-anchor="middle" x="1149" y="-253" font-family="Helvetica,sans-Serif" font-size="10.00">Input</text>
</a>
</g>
</g>
<!-- Node12&#45;&gt;Node15 -->
<g id="edge15" class="edge"><title>Node12&#45;&gt;Node15</title>
<path fill="none" stroke="midnightblue" d="M980.893,-191.824C994.045,-194.615 1007.83,-198.526 1020,-204 1038.24,-212.201 1038.25,-221.776 1056,-231 1064.3,-235.313 1073.34,-239.169 1082.4,-242.562"/>
<polygon fill="midnightblue" stroke="midnightblue" points="1081.23,-245.862 1091.83,-245.931 1083.59,-239.27 1081.23,-245.862"/>
</g>
<!-- Node18 -->
<g id="node18" class="node"><title>Node18</title>
<g id="a_node18"><a xlink:href="../../d3/dcc/classparser_1_1_node.html#a9c12e8d4375a7517eae0a35724b253c4" target="_top" xlink:title="parser.Node.getValue">
<polygon fill="white" stroke="black" points="1322,-199.5 1322,-218.5 1442,-218.5 1442,-199.5 1322,-199.5"/>
<text text-anchor="middle" x="1382" y="-206.5" font-family="Helvetica,sans-Serif" font-size="10.00">parser.Node.getValue</text>
</a>
</g>
</g>
<!-- Node12&#45;&gt;Node18 -->
<g id="edge31" class="edge"><title>Node12&#45;&gt;Node18</title>
<path fill="none" stroke="midnightblue" d="M980.595,-191.208C1003.76,-193.681 1031.18,-196.331 1056,-198 1144.09,-203.923 1245.83,-206.714 1311.68,-207.99"/>
<polygon fill="midnightblue" stroke="midnightblue" points="1311.87,-211.494 1321.93,-208.182 1312,-204.495 1311.87,-211.494"/>
</g>
<!-- Node20 -->
<g id="node20" class="node"><title>Node20</title>
<g id="a_node20"><a xlink:href="../../d6/d95/classparser_1_1_parser.html#a3efcd1192e76101919526b4a5e0046f4" target="_top" xlink:title="parser.Parser.getNodeBefore\lToReplace">
<polygon fill="white" stroke="black" points="1071.5,-295 1071.5,-325 1226.5,-325 1226.5,-295 1071.5,-295"/>
<text text-anchor="start" x="1079.5" y="-313" font-family="Helvetica,sans-Serif" font-size="10.00">parser.Parser.getNodeBefore</text>
<text text-anchor="middle" x="1149" y="-302" font-family="Helvetica,sans-Serif" font-size="10.00">ToReplace</text>
</a>
</g>
</g>
<!-- Node12&#45;&gt;Node20 -->
<g id="edge20" class="edge"><title>Node12&#45;&gt;Node20</title>
<path fill="none" stroke="midnightblue" d="M980.952,-187.262C994.834,-190.064 1008.95,-195.121 1020,-204 1050.71,-228.681 1026.1,-259.352 1056,-285 1058.03,-286.744 1060.18,-288.368 1062.41,-289.879"/>
<polygon fill="midnightblue" stroke="midnightblue" points="1061.02,-293.122 1071.42,-295.169 1064.57,-287.086 1061.02,-293.122"/>
</g>
<!-- Node23 -->
<g id="node23" class="node"><title>Node23</title>
<g id="a_node23"><a xlink:href="../../d6/d95/classparser_1_1_parser.html#a447c473b62ba23b7c144df9bb38a9a41" target="_top" xlink:title="parser.Parser.getNodeFor\lCommand">
<polygon fill="white" stroke="black" points="1080,-344 1080,-374 1218,-374 1218,-344 1080,-344"/>
<text text-anchor="start" x="1088" y="-362" font-family="Helvetica,sans-Serif" font-size="10.00">parser.Parser.getNodeFor</text>
<text text-anchor="middle" x="1149" y="-351" font-family="Helvetica,sans-Serif" font-size="10.00">Command</text>
</a>
</g>
</g>
<!-- Node12&#45;&gt;Node23 -->
<g id="edge26" class="edge"><title>Node12&#45;&gt;Node23</title>
<path fill="none" stroke="midnightblue" d="M980.892,-186.022C995.098,-188.766 1009.4,-194.103 1020,-204 1063.82,-244.913 1013.51,-291.71 1056,-334 1060.28,-338.263 1065.22,-341.819 1070.53,-344.782"/>
<polygon fill="midnightblue" stroke="midnightblue" points="1069.25,-348.049 1079.77,-349.23 1072.28,-341.741 1069.25,-348.049"/>
</g>
<!-- Node24 -->
<g id="node24" class="node"><title>Node24</title>
<g id="a_node24"><a xlink:href="../../d3/dcc/classparser_1_1_node.html#a066da2b478008f39a02440d7afceb9ee" target="_top" xlink:title="parser.Node.insertChild">
<polygon fill="white" stroke="black" points="1085,-169.5 1085,-188.5 1213,-188.5 1213,-169.5 1085,-169.5"/>
<text text-anchor="middle" x="1149" y="-176.5" font-family="Helvetica,sans-Serif" font-size="10.00">parser.Node.insertChild</text>
</a>
</g>
</g>
<!-- Node12&#45;&gt;Node24 -->
<g id="edge32" class="edge"><title>Node12&#45;&gt;Node24</title>
<path fill="none" stroke="midnightblue" d="M980.78,-183.54C1009.02,-182.773 1044.04,-181.823 1074.72,-180.989"/>
<polygon fill="midnightblue" stroke="midnightblue" points="1075.04,-184.482 1084.94,-180.712 1074.85,-177.485 1075.04,-184.482"/>
</g>
<!-- Node13&#45;&gt;Node11 -->
<g id="edge14" class="edge"><title>Node13&#45;&gt;Node11</title>
<path fill="none" stroke="midnightblue" d="M1241.8,-148.676C1253.95,-150.051 1266.26,-151.224 1278,-152 1370.24,-158.099 1393.86,-159.513 1486,-152 1500.94,-150.782 1516.72,-148.812 1532.01,-146.539"/>
<polygon fill="midnightblue" stroke="midnightblue" points="1532.62,-149.986 1541.97,-145.006 1531.55,-143.068 1532.62,-149.986"/>
</g>
<!-- Node14 -->
<g id="node14" class="node"><title>Node14</title>
<g id="a_node14"><a xlink:href="../../d9/d1b/classcommand_1_1_command_factory.html#abd97ea3e22afc09e07ed1d4fd039d11f" target="_top" xlink:title="command.CommandFactory.reflectCMD">
<polygon fill="white" stroke="black" points="1278.5,-123.5 1278.5,-142.5 1485.5,-142.5 1485.5,-123.5 1278.5,-123.5"/>
<text text-anchor="middle" x="1382" y="-130.5" font-family="Helvetica,sans-Serif" font-size="10.00">command.CommandFactory.reflectCMD</text>
</a>
</g>
</g>
<!-- Node13&#45;&gt;Node14 -->
<g id="edge13" class="edge"><title>Node13&#45;&gt;Node14</title>
<path fill="none" stroke="midnightblue" d="M1241.63,-134.207C1250.42,-134.131 1259.39,-134.053 1268.35,-133.975"/>
<polygon fill="midnightblue" stroke="midnightblue" points="1268.47,-137.475 1278.44,-133.888 1268.41,-130.475 1268.47,-137.475"/>
</g>
<!-- Node16 -->
<g id="node16" class="node"><title>Node16</title>
<g id="a_node16"><a xlink:href="../../d3/dcc/classparser_1_1_node.html#aa67bc0d39227232943abec9b95b23235" target="_top" xlink:title="parser.Node.getChild1">
<polygon fill="white" stroke="black" points="1320.5,-313.5 1320.5,-332.5 1443.5,-332.5 1443.5,-313.5 1320.5,-313.5"/>
<text text-anchor="middle" x="1382" y="-320.5" font-family="Helvetica,sans-Serif" font-size="10.00">parser.Node.getChild1</text>
</a>
</g>
</g>
<!-- Node15&#45;&gt;Node16 -->
<g id="edge16" class="edge"><title>Node15&#45;&gt;Node16</title>
<path fill="none" stroke="midnightblue" d="M1215.43,-276.075C1224.46,-278.732 1233.54,-281.714 1242,-285 1258.86,-291.549 1260.91,-298.069 1278,-304 1288.26,-307.56 1299.34,-310.493 1310.29,-312.898"/>
<polygon fill="midnightblue" stroke="midnightblue" points="1309.79,-316.368 1320.29,-314.961 1311.21,-309.513 1309.79,-316.368"/>
</g>
<!-- Node17 -->
<g id="node17" class="node"><title>Node17</title>
<g id="a_node17"><a xlink:href="../../d3/dcc/classparser_1_1_node.html#a0f13775acc62af77cdde90dbeaf26bbc" target="_top" xlink:title="parser.Node.getChild2">
<polygon fill="white" stroke="black" points="1320.5,-275.5 1320.5,-294.5 1443.5,-294.5 1443.5,-275.5 1320.5,-275.5"/>
<text text-anchor="middle" x="1382" y="-282.5" font-family="Helvetica,sans-Serif" font-size="10.00">parser.Node.getChild2</text>
</a>
</g>
</g>
<!-- Node15&#45;&gt;Node17 -->
<g id="edge17" class="edge"><title>Node15&#45;&gt;Node17</title>
<path fill="none" stroke="midnightblue" d="M1237,-270.039C1261.18,-272.551 1287.13,-275.247 1310.25,-277.649"/>
<polygon fill="midnightblue" stroke="midnightblue" points="1310.01,-281.143 1320.32,-278.695 1310.73,-274.18 1310.01,-281.143"/>
</g>
<!-- Node15&#45;&gt;Node18 -->
<g id="edge18" class="edge"><title>Node15&#45;&gt;Node18</title>
<path fill="none" stroke="midnightblue" d="M1204.93,-245.941C1227.48,-239.991 1253.91,-233.32 1278,-228 1290.05,-225.339 1302.95,-222.754 1315.4,-220.391"/>
<polygon fill="midnightblue" stroke="midnightblue" points="1316.08,-223.825 1325.26,-218.546 1314.79,-216.944 1316.08,-223.825"/>
</g>
<!-- Node19 -->
<g id="node19" class="node"><title>Node19</title>
<g id="a_node19"><a xlink:href="../../d3/dcc/classparser_1_1_node.html#a6bbc0c61aaa261077eb87cfc4e2b45dc" target="_top" xlink:title="parser.Node.numChildren">
<polygon fill="white" stroke="black" points="1312.5,-237.5 1312.5,-256.5 1451.5,-256.5 1451.5,-237.5 1312.5,-237.5"/>
<text text-anchor="middle" x="1382" y="-244.5" font-family="Helvetica,sans-Serif" font-size="10.00">parser.Node.numChildren</text>
</a>
</g>
</g>
<!-- Node15&#45;&gt;Node19 -->
<g id="edge19" class="edge"><title>Node15&#45;&gt;Node19</title>
<path fill="none" stroke="midnightblue" d="M1237,-255.727C1258.43,-254.428 1281.26,-253.045 1302.28,-251.771"/>
<polygon fill="midnightblue" stroke="midnightblue" points="1302.66,-255.254 1312.43,-251.155 1302.24,-248.267 1302.66,-255.254"/>
</g>
<!-- Node20&#45;&gt;Node16 -->
<g id="edge21" class="edge"><title>Node20&#45;&gt;Node16</title>
<path fill="none" stroke="midnightblue" d="M1226.6,-314.311C1253.5,-315.825 1283.58,-317.518 1310,-319.004"/>
<polygon fill="midnightblue" stroke="midnightblue" points="1310.13,-322.517 1320.31,-319.585 1310.52,-315.528 1310.13,-322.517"/>
</g>
<!-- Node20&#45;&gt;Node17 -->
<g id="edge22" class="edge"><title>Node20&#45;&gt;Node17</title>
<path fill="none" stroke="midnightblue" d="M1226.6,-301.71C1253.62,-298.786 1283.85,-295.514 1310.35,-292.646"/>
<polygon fill="midnightblue" stroke="midnightblue" points="1310.75,-296.124 1320.31,-291.568 1309.99,-289.164 1310.75,-296.124"/>
</g>
<!-- Node20&#45;&gt;Node18 -->
<g id="edge23" class="edge"><title>Node20&#45;&gt;Node18</title>
<path fill="none" stroke="midnightblue" d="M1225.05,-294.833C1231.06,-292.084 1236.81,-288.836 1242,-285 1266.1,-267.193 1253.19,-244.793 1278,-228 1288.06,-221.193 1299.88,-216.644 1311.86,-213.639"/>
<polygon fill="midnightblue" stroke="midnightblue" points="1312.89,-216.997 1321.93,-211.462 1311.41,-210.155 1312.89,-216.997"/>
</g>
<!-- Node21 -->
<g id="node21" class="node"><title>Node21</title>
<g id="a_node21"><a xlink:href="../../d3/dcc/classparser_1_1_node.html#ab14db24c0724dec4387e29d513008e2e" target="_top" xlink:title="parser.Node.hasChildren">
<polygon fill="white" stroke="black" points="1315,-389.5 1315,-408.5 1449,-408.5 1449,-389.5 1315,-389.5"/>
<text text-anchor="middle" x="1382" y="-396.5" font-family="Helvetica,sans-Serif" font-size="10.00">parser.Node.hasChildren</text>
</a>
</g>
</g>
<!-- Node20&#45;&gt;Node21 -->
<g id="edge24" class="edge"><title>Node20&#45;&gt;Node21</title>
<path fill="none" stroke="midnightblue" d="M1225.11,-325.081C1231.04,-327.608 1236.76,-330.557 1242,-334 1263.7,-348.248 1255.79,-366.551 1278,-380 1286.25,-384.999 1295.51,-388.742 1305,-391.535"/>
<polygon fill="midnightblue" stroke="midnightblue" points="1304.39,-394.991 1314.94,-394.114 1306.14,-388.215 1304.39,-394.991"/>
</g>
<!-- Node22 -->
<g id="node22" class="node"><title>Node22</title>
<g id="a_node22"><a xlink:href="../../d3/dcc/classparser_1_1_node.html#aa92667a825777b3d757bc3b1a247ac20" target="_top" xlink:title="parser.Node.isLeaf">
<polygon fill="white" stroke="black" points="1329,-351.5 1329,-370.5 1435,-370.5 1435,-351.5 1329,-351.5"/>
<text text-anchor="middle" x="1382" y="-358.5" font-family="Helvetica,sans-Serif" font-size="10.00">parser.Node.isLeaf</text>
</a>
</g>
</g>
<!-- Node20&#45;&gt;Node22 -->
<g id="edge25" class="edge"><title>Node20&#45;&gt;Node22</title>
<path fill="none" stroke="midnightblue" d="M1206.85,-325.023C1228.98,-330.659 1254.61,-336.924 1278,-342 1291.1,-344.843 1305.19,-347.623 1318.62,-350.142"/>
<polygon fill="midnightblue" stroke="midnightblue" points="1318.27,-353.636 1328.74,-352.014 1319.54,-346.753 1318.27,-353.636"/>
</g>
<!-- Node23&#45;&gt;Node16 -->
<g id="edge27" class="edge"><title>Node23&#45;&gt;Node16</title>
<path fill="none" stroke="midnightblue" d="M1218.06,-348.394C1247.11,-343.867 1281,-338.585 1310.33,-334.014"/>
<polygon fill="midnightblue" stroke="midnightblue" points="1311.15,-337.427 1320.5,-332.429 1310.08,-330.511 1311.15,-337.427"/>
</g>
<!-- Node23&#45;&gt;Node17 -->
<g id="edge28" class="edge"><title>Node23&#45;&gt;Node17</title>
<path fill="none" stroke="midnightblue" d="M1218.1,-344.081C1226.36,-341.235 1234.51,-337.898 1242,-334 1260.47,-324.382 1259.14,-312.844 1278,-304 1288.12,-299.252 1299.32,-295.689 1310.5,-293.015"/>
<polygon fill="midnightblue" stroke="midnightblue" points="1311.27,-296.431 1320.29,-290.887 1309.78,-289.591 1311.27,-296.431"/>
</g>
<!-- Node23&#45;&gt;Node21 -->
<g id="edge29" class="edge"><title>Node23&#45;&gt;Node21</title>
<path fill="none" stroke="midnightblue" d="M1218.06,-370.785C1248.91,-376.127 1285.22,-382.415 1315.73,-387.697"/>
<polygon fill="midnightblue" stroke="midnightblue" points="1315.38,-391.19 1325.83,-389.448 1316.58,-384.293 1315.38,-391.19"/>
</g>
<!-- Node23&#45;&gt;Node22 -->
<g id="edge30" class="edge"><title>Node23&#45;&gt;Node22</title>
<path fill="none" stroke="midnightblue" d="M1218.06,-359.589C1249.86,-359.865 1287.48,-360.19 1318.55,-360.459"/>
<polygon fill="midnightblue" stroke="midnightblue" points="1318.79,-363.961 1328.82,-360.548 1318.85,-356.962 1318.79,-363.961"/>
</g>
<!-- Node24&#45;&gt;Node18 -->
<g id="edge33" class="edge"><title>Node24&#45;&gt;Node18</title>
<path fill="none" stroke="midnightblue" d="M1213.12,-187.198C1243.74,-191.174 1280.59,-195.959 1311.95,-200.032"/>
<polygon fill="midnightblue" stroke="midnightblue" points="1311.56,-203.511 1321.92,-201.328 1312.46,-196.569 1311.56,-203.511"/>
</g>
<!-- Node26 -->
<g id="node26" class="node"><title>Node26</title>
<g id="a_node26"><a xlink:href="../../d7/d35/classcommand_1_1_command.html#a7e1387db1d0d35d4dcd3a3ebe2ff902a" target="_top" xlink:title="command.Command.makeString">
<polygon fill="white" stroke="black" points="1060.5,-43.5 1060.5,-62.5 1237.5,-62.5 1237.5,-43.5 1060.5,-43.5"/>
<text text-anchor="middle" x="1149" y="-50.5" font-family="Helvetica,sans-Serif" font-size="10.00">command.Command.makeString</text>
</a>
</g>
</g>
<!-- Node25&#45;&gt;Node26 -->
<g id="edge36" class="edge"><title>Node25&#45;&gt;Node26</title>
<path fill="none" stroke="midnightblue" d="M1012.13,-76.9774C1035.96,-72.772 1061.45,-68.2728 1083.85,-64.3211"/>
<polygon fill="midnightblue" stroke="midnightblue" points="1084.66,-67.7316 1093.9,-62.5469 1083.44,-60.8381 1084.66,-67.7316"/>
</g>
<!-- Node29 -->
<g id="node29" class="node"><title>Node29</title>
<g id="a_node29"><a xlink:href="../../d9/d1b/classcommand_1_1_command_factory.html#a0d59e4f0f925b5046957c0e054ce8bef" target="_top" xlink:title="command.CommandFactory.reset\lRepcount">
<polygon fill="white" stroke="black" points="1059.5,-393 1059.5,-423 1238.5,-423 1238.5,-393 1059.5,-393"/>
<text text-anchor="start" x="1067.5" y="-411" font-family="Helvetica,sans-Serif" font-size="10.00">command.CommandFactory.reset</text>
<text text-anchor="middle" x="1149" y="-400" font-family="Helvetica,sans-Serif" font-size="10.00">Repcount</text>
</a>
</g>
</g>
<!-- Node28&#45;&gt;Node29 -->
<g id="edge39" class="edge"><title>Node28&#45;&gt;Node29</title>
<path fill="none" stroke="midnightblue" d="M1001.9,-230.219C1008.56,-233.155 1014.75,-236.999 1020,-242 1066.83,-286.612 1010.62,-336.917 1056,-383 1057.44,-384.459 1058.95,-385.836 1060.53,-387.135"/>
<polygon fill="midnightblue" stroke="midnightblue" points="1058.72,-390.137 1068.92,-392.998 1062.73,-384.4 1058.72,-390.137"/>
</g>
<!-- Node31 -->
<g id="node31" class="node"><title>Node31</title>
<g id="a_node31"><a xlink:href="../../df/dcb/classturtle_1_1_turtle.html#a432dcb17f8c2751445c2c98e9b2f7fba" target="_top" xlink:title="turtle.Turtle.previousDrawLine">
<polygon fill="white" stroke="black" points="847,-0.5 847,-19.5 1005,-19.5 1005,-0.5 847,-0.5"/>
<text text-anchor="middle" x="926" y="-7.5" font-family="Helvetica,sans-Serif" font-size="10.00">turtle.Turtle.previousDrawLine</text>
</a>
</g>
</g>
<!-- Node30&#45;&gt;Node31 -->
<g id="edge41" class="edge"><title>Node30&#45;&gt;Node31</title>
<path fill="none" stroke="midnightblue" d="M778.779,-38.9808C807.626,-33.2633 840.014,-26.844 866.962,-21.5029"/>
<polygon fill="midnightblue" stroke="midnightblue" points="867.877,-24.8899 877.006,-19.5124 866.516,-18.0234 867.877,-24.8899"/>
</g>
<!-- Node32 -->
<g id="node32" class="node"><title>Node32</title>
<g id="a_node32"><a xlink:href="../../de/d57/classturtle_1_1_pen.html#a361f4e030646d953185a8afe94427ce2" target="_top" xlink:title="turtle.Pen.penReady">
<polygon fill="white" stroke="black" points="1092.5,-0.5 1092.5,-19.5 1205.5,-19.5 1205.5,-0.5 1092.5,-0.5"/>
<text text-anchor="middle" x="1149" y="-7.5" font-family="Helvetica,sans-Serif" font-size="10.00">turtle.Pen.penReady</text>
</a>
</g>
</g>
<!-- Node31&#45;&gt;Node32 -->
<g id="edge42" class="edge"><title>Node31&#45;&gt;Node32</title>
<path fill="none" stroke="midnightblue" d="M1005.23,-10C1030.43,-10 1058.1,-10 1082.3,-10"/>
<polygon fill="midnightblue" stroke="midnightblue" points="1082.45,-13.5001 1092.45,-10 1082.45,-6.5001 1082.45,-13.5001"/>
</g>
</g>
</svg>
