<?xml version="1.0" encoding="UTF-8" standalone="no"?>
<!DOCTYPE svg PUBLIC "-//W3C//DTD SVG 1.1//EN"
 "http://www.w3.org/Graphics/SVG/1.1/DTD/svg11.dtd">
<!-- Generated by graphviz version 2.36.0 (20140111.2315)
 -->
<!-- Title: userInterface.UI.runCommand Pages: 1 -->
<svg width="1552pt" height="431pt"
 viewBox="0.00 0.00 1552.00 431.00" xmlns="http://www.w3.org/2000/svg" xmlns:xlink="http://www.w3.org/1999/xlink">
<g id="graph0" class="graph" transform="scale(1 1) rotate(0) translate(4 427)">
<title>userInterface.UI.runCommand</title>
<polygon fill="white" stroke="none" points="-4,4 -4,-427 1548,-427 1548,4 -4,4"/>
<!-- Node1 -->
<g id="node1" class="node"><title>Node1</title>
<polygon fill="#bfbfbf" stroke="black" points="0.5,-131.5 0.5,-150.5 161.5,-150.5 161.5,-131.5 0.5,-131.5"/>
<text text-anchor="middle" x="81" y="-138.5" font-family="Helvetica,sans-Serif" font-size="10.00">userInterface.UI.runCommand</text>
</g>
<!-- Node2 -->
<g id="node2" class="node"><title>Node2</title>
<g id="a_node2"><a xlink:href="../../d8/d08/classworld_controller_1_1_world_controller.html#a178425d68e3e669c386706153ce44999" target="_top" xlink:title="worldController.WorldController.update">
<polygon fill="white" stroke="black" points="198,-131.5 198,-150.5 396,-150.5 396,-131.5 198,-131.5"/>
<text text-anchor="middle" x="297" y="-138.5" font-family="Helvetica,sans-Serif" font-size="10.00">worldController.WorldController.update</text>
</a>
</g>
</g>
<!-- Node1&#45;&gt;Node2 -->
<g id="edge1" class="edge"><title>Node1&#45;&gt;Node2</title>
<path fill="none" stroke="midnightblue" d="M161.686,-141C170.142,-141 178.841,-141 187.554,-141"/>
<polygon fill="midnightblue" stroke="midnightblue" points="187.774,-144.5 197.773,-141 187.773,-137.5 187.774,-144.5"/>
</g>
<!-- Node3 -->
<g id="node3" class="node"><title>Node3</title>
<g id="a_node3"><a xlink:href="../../df/dcb/classturtle_1_1_turtle.html#a610aafaf658c4b351330b7c16c66881c" target="_top" xlink:title="turtle.Turtle.updatePenAttributes">
<polygon fill="white" stroke="black" points="439.5,-251.5 439.5,-270.5 612.5,-270.5 612.5,-251.5 439.5,-251.5"/>
<text text-anchor="middle" x="526" y="-258.5" font-family="Helvetica,sans-Serif" font-size="10.00">turtle.Turtle.updatePenAttributes</text>
</a>
</g>
</g>
<!-- Node2&#45;&gt;Node3 -->
<g id="edge2" class="edge"><title>Node2&#45;&gt;Node3</title>
<path fill="none" stroke="midnightblue" d="M316.193,-150.617C355.957,-171.638 450.802,-221.776 497.736,-246.587"/>
<polygon fill="midnightblue" stroke="midnightblue" points="496.244,-249.758 506.721,-251.337 499.516,-243.569 496.244,-249.758"/>
</g>
<!-- Node6 -->
<g id="node6" class="node"><title>Node6</title>
<g id="a_node6"><a xlink:href="../../d9/dd0/classworld_1_1_world.html#ae370733f7784c42741a6ba66c7d2ecf5" target="_top" xlink:title="world.World.listen">
<polygon fill="white" stroke="black" points="477,-131.5 477,-150.5 575,-150.5 575,-131.5 477,-131.5"/>
<text text-anchor="middle" x="526" y="-138.5" font-family="Helvetica,sans-Serif" font-size="10.00">world.World.listen</text>
</a>
</g>
</g>
<!-- Node2&#45;&gt;Node6 -->
<g id="edge5" class="edge"><title>Node2&#45;&gt;Node6</title>
<path fill="none" stroke="midnightblue" d="M396.245,-141C420.238,-141 445.157,-141 466.608,-141"/>
<polygon fill="midnightblue" stroke="midnightblue" points="466.841,-144.5 476.841,-141 466.841,-137.5 466.841,-144.5"/>
</g>
<!-- Node29 -->
<g id="node29" class="node"><title>Node29</title>
<g id="a_node29"><a xlink:href="../../d8/d08/classworld_controller_1_1_world_controller.html#a9380abb3ed5334498510f1d6a88a826d" target="_top" xlink:title="worldController.WorldController.draw\lTurtle">
<polygon fill="white" stroke="black" points="432.5,-39 432.5,-69 619.5,-69 619.5,-39 432.5,-39"/>
<text text-anchor="start" x="440.5" y="-57" font-family="Helvetica,sans-Serif" font-size="10.00">worldController.WorldController.draw</text>
<text text-anchor="middle" x="526" y="-46" font-family="Helvetica,sans-Serif" font-size="10.00">Turtle</text>
</a>
</g>
</g>
<!-- Node2&#45;&gt;Node29 -->
<g id="edge39" class="edge"><title>Node2&#45;&gt;Node29</title>
<path fill="none" stroke="midnightblue" d="M323.16,-131.357C359.986,-117.243 429.283,-90.6846 476.288,-72.6692"/>
<polygon fill="midnightblue" stroke="midnightblue" points="477.583,-75.9213 485.668,-69.0743 475.078,-69.3849 477.583,-75.9213"/>
</g>
<!-- Node4 -->
<g id="node4" class="node"><title>Node4</title>
<g id="a_node4"><a xlink:href="../../de/d57/classturtle_1_1_pen.html#ac9a08745a9f3615b9e47c1c8e5af8f1b" target="_top" xlink:title="turtle.Pen.getColor">
<polygon fill="white" stroke="black" points="696.5,-289.5 696.5,-308.5 803.5,-308.5 803.5,-289.5 696.5,-289.5"/>
<text text-anchor="middle" x="750" y="-296.5" font-family="Helvetica,sans-Serif" font-size="10.00">turtle.Pen.getColor</text>
</a>
</g>
</g>
<!-- Node3&#45;&gt;Node4 -->
<g id="edge3" class="edge"><title>Node3&#45;&gt;Node4</title>
<path fill="none" stroke="midnightblue" d="M582.733,-270.54C614.277,-275.939 653.815,-282.707 686.421,-288.288"/>
<polygon fill="midnightblue" stroke="midnightblue" points="685.853,-291.742 696.301,-289.979 687.034,-284.842 685.853,-291.742"/>
</g>
<!-- Node5 -->
<g id="node5" class="node"><title>Node5</title>
<g id="a_node5"><a xlink:href="../../de/d57/classturtle_1_1_pen.html#a76c8dc4e66927e7d3774ea00b2266640" target="_top" xlink:title="turtle.Pen.getSize">
<polygon fill="white" stroke="black" points="699,-251.5 699,-270.5 801,-270.5 801,-251.5 699,-251.5"/>
<text text-anchor="middle" x="750" y="-258.5" font-family="Helvetica,sans-Serif" font-size="10.00">turtle.Pen.getSize</text>
</a>
</g>
</g>
<!-- Node3&#45;&gt;Node5 -->
<g id="edge4" class="edge"><title>Node3&#45;&gt;Node5</title>
<path fill="none" stroke="midnightblue" d="M612.513,-261C637.943,-261 665.259,-261 688.723,-261"/>
<polygon fill="midnightblue" stroke="midnightblue" points="688.868,-264.5 698.868,-261 688.868,-257.5 688.868,-264.5"/>
</g>
<!-- Node7 -->
<g id="node7" class="node"><title>Node7</title>
<g id="a_node7"><a xlink:href="../../d6/d95/classparser_1_1_parser.html#a240c75608624a9c67402a296855c4d1d" target="_top" xlink:title="parser.Parser.initialize\lCommands">
<polygon fill="white" stroke="black" points="690,-126 690,-156 810,-156 810,-126 690,-126"/>
<text text-anchor="start" x="698" y="-144" font-family="Helvetica,sans-Serif" font-size="10.00">parser.Parser.initialize</text>
<text text-anchor="middle" x="750" y="-133" font-family="Helvetica,sans-Serif" font-size="10.00">Commands</text>
</a>
</g>
</g>
<!-- Node6&#45;&gt;Node7 -->
<g id="edge6" class="edge"><title>Node6&#45;&gt;Node7</title>
<path fill="none" stroke="midnightblue" d="M575.171,-141C605.681,-141 645.633,-141 679.542,-141"/>
<polygon fill="midnightblue" stroke="midnightblue" points="679.854,-144.5 689.854,-141 679.854,-137.5 679.854,-144.5"/>
</g>
<!-- Node11 -->
<g id="node11" class="node"><title>Node11</title>
<g id="a_node11"><a xlink:href="../../d6/d95/classparser_1_1_parser.html#a4ecbffc246c3add017c4720eed4c6da9" target="_top" xlink:title="parser.Parser.parse">
<polygon fill="white" stroke="black" points="695.5,-175.5 695.5,-194.5 804.5,-194.5 804.5,-175.5 695.5,-175.5"/>
<text text-anchor="middle" x="750" y="-182.5" font-family="Helvetica,sans-Serif" font-size="10.00">parser.Parser.parse</text>
</a>
</g>
</g>
<!-- Node6&#45;&gt;Node11 -->
<g id="edge10" class="edge"><title>Node6&#45;&gt;Node11</title>
<path fill="none" stroke="midnightblue" d="M575.171,-150.547C609.207,-157.293 654.996,-166.369 691.035,-173.511"/>
<polygon fill="midnightblue" stroke="midnightblue" points="690.434,-176.96 700.923,-175.471 691.795,-170.094 690.434,-176.96"/>
</g>
<!-- Node24 -->
<g id="node24" class="node"><title>Node24</title>
<g id="a_node24"><a xlink:href="../../d7/d35/classcommand_1_1_command.html#a957099a70dd30b5dc897e0caf07d2d99" target="_top" xlink:title="command.Command.getCommand\lValues">
<polygon fill="white" stroke="black" points="656,-77 656,-107 844,-107 844,-77 656,-77"/>
<text text-anchor="start" x="664" y="-95" font-family="Helvetica,sans-Serif" font-size="10.00">command.Command.getCommand</text>
<text text-anchor="middle" x="750" y="-84" font-family="Helvetica,sans-Serif" font-size="10.00">Values</text>
</a>
</g>
</g>
<!-- Node6&#45;&gt;Node24 -->
<g id="edge34" class="edge"><title>Node6&#45;&gt;Node24</title>
<path fill="none" stroke="midnightblue" d="M570.067,-131.494C598.643,-125.187 636.979,-116.725 670.836,-109.252"/>
<polygon fill="midnightblue" stroke="midnightblue" points="671.707,-112.644 680.718,-107.071 670.199,-105.809 671.707,-112.644"/>
</g>
<!-- Node26 -->
<g id="node26" class="node"><title>Node26</title>
<g id="a_node26"><a xlink:href="../../d9/dd0/classworld_1_1_world.html#adcbcb8328c7e832fcb710a91457e6772" target="_top" xlink:title="world.World.runCommand">
<polygon fill="white" stroke="black" points="680.5,-38.5 680.5,-57.5 819.5,-57.5 819.5,-38.5 680.5,-38.5"/>
<text text-anchor="middle" x="750" y="-45.5" font-family="Helvetica,sans-Serif" font-size="10.00">world.World.runCommand</text>
</a>
</g>
</g>
<!-- Node6&#45;&gt;Node26 -->
<g id="edge36" class="edge"><title>Node6&#45;&gt;Node26</title>
<path fill="none" stroke="midnightblue" d="M540.219,-131.489C562.82,-115.682 610.833,-84.0613 656,-67 663.154,-64.2976 670.77,-61.9506 678.446,-59.919"/>
<polygon fill="midnightblue" stroke="midnightblue" points="679.305,-63.3121 688.171,-57.5112 677.623,-56.5173 679.305,-63.3121"/>
</g>
<!-- Node27 -->
<g id="node27" class="node"><title>Node27</title>
<g id="a_node27"><a xlink:href="../../d6/d95/classparser_1_1_parser.html#acebafe1593fc1f09ac31c7104438e4b1" target="_top" xlink:title="parser.Parser.resetRepcount">
<polygon fill="white" stroke="black" points="674.5,-213.5 674.5,-232.5 825.5,-232.5 825.5,-213.5 674.5,-213.5"/>
<text text-anchor="middle" x="750" y="-220.5" font-family="Helvetica,sans-Serif" font-size="10.00">parser.Parser.resetRepcount</text>
</a>
</g>
</g>
<!-- Node6&#45;&gt;Node27 -->
<g id="edge37" class="edge"><title>Node6&#45;&gt;Node27</title>
<path fill="none" stroke="midnightblue" d="M543.128,-150.54C567.006,-164.275 613.527,-189.551 656,-204 663.962,-206.708 672.444,-209.092 680.925,-211.173"/>
<polygon fill="midnightblue" stroke="midnightblue" points="680.314,-214.624 690.847,-213.478 681.898,-207.806 680.314,-214.624"/>
</g>
<!-- Node8 -->
<g id="node8" class="node"><title>Node8</title>
<g id="a_node8"><a xlink:href="../../d6/d95/classparser_1_1_parser.html#a4f582c65390bddc57219c0b5c31ef5e7" target="_top" xlink:title="parser.Parser.makeTree">
<polygon fill="white" stroke="black" points="909,-81.5 909,-100.5 1037,-100.5 1037,-81.5 909,-81.5"/>
<text text-anchor="middle" x="973" y="-88.5" font-family="Helvetica,sans-Serif" font-size="10.00">parser.Parser.makeTree</text>
</a>
</g>
</g>
<!-- Node7&#45;&gt;Node8 -->
<g id="edge7" class="edge"><title>Node7&#45;&gt;Node8</title>
<path fill="none" stroke="midnightblue" d="M810.312,-126.324C832.181,-121.025 857.183,-115.096 880,-110 891.08,-107.525 902.936,-104.992 914.328,-102.614"/>
<polygon fill="midnightblue" stroke="midnightblue" points="915.106,-106.027 924.188,-100.57 913.685,-99.1728 915.106,-106.027"/>
</g>
<!-- Node9 -->
<g id="node9" class="node"><title>Node9</title>
<g id="a_node9"><a xlink:href="../../d9/d1b/classcommand_1_1_command_factory.html#a87bf7e648425bb22124367cabedb3327" target="_top" xlink:title="command.CommandFactory.get\lNumParameters">
<polygon fill="white" stroke="black" points="1121,-74 1121,-104 1291,-104 1291,-74 1121,-74"/>
<text text-anchor="start" x="1129" y="-92" font-family="Helvetica,sans-Serif" font-size="10.00">command.CommandFactory.get</text>
<text text-anchor="middle" x="1206" y="-81" font-family="Helvetica,sans-Serif" font-size="10.00">NumParameters</text>
</a>
</g>
</g>
<!-- Node8&#45;&gt;Node9 -->
<g id="edge8" class="edge"><title>Node8&#45;&gt;Node9</title>
<path fill="none" stroke="midnightblue" d="M1037.12,-90.4535C1059.78,-90.2573 1085.85,-90.0316 1110.59,-89.8174"/>
<polygon fill="midnightblue" stroke="midnightblue" points="1110.76,-93.3162 1120.73,-89.7297 1110.7,-86.3165 1110.76,-93.3162"/>
</g>
<!-- Node10 -->
<g id="node10" class="node"><title>Node10</title>
<g id="a_node10"><a xlink:href="../../d9/d1b/classcommand_1_1_command_factory.html#a947fdc151e857ea74564d0d1fe268246" target="_top" xlink:title="command.CommandFactory.translate\lCommand">
<polygon fill="white" stroke="black" points="1346.5,-115 1346.5,-145 1543.5,-145 1543.5,-115 1346.5,-115"/>
<text text-anchor="start" x="1354.5" y="-133" font-family="Helvetica,sans-Serif" font-size="10.00">command.CommandFactory.translate</text>
<text text-anchor="middle" x="1445" y="-122" font-family="Helvetica,sans-Serif" font-size="10.00">Command</text>
</a>
</g>
</g>
<!-- Node9&#45;&gt;Node10 -->
<g id="edge9" class="edge"><title>Node9&#45;&gt;Node10</title>
<path fill="none" stroke="midnightblue" d="M1291.22,-103.571C1309.38,-106.712 1328.71,-110.056 1347.3,-113.272"/>
<polygon fill="midnightblue" stroke="midnightblue" points="1346.79,-116.736 1357.25,-114.992 1347.99,-109.838 1346.79,-116.736"/>
</g>
<!-- Node11&#45;&gt;Node8 -->
<g id="edge33" class="edge"><title>Node11&#45;&gt;Node8</title>
<path fill="none" stroke="midnightblue" d="M804.558,-180.784C818.286,-177.818 832.426,-172.944 844,-165 868.087,-148.467 855.846,-126.435 880,-110 885.798,-106.055 892.244,-102.899 898.957,-100.379"/>
<polygon fill="midnightblue" stroke="midnightblue" points="900.516,-103.552 908.938,-97.1228 898.345,-96.8967 900.516,-103.552"/>
</g>
<!-- Node12 -->
<g id="node12" class="node"><title>Node12</title>
<g id="a_node12"><a xlink:href="../../d9/d1b/classcommand_1_1_command_factory.html#ab25bb047b051661d31adf73b2dae5649" target="_top" xlink:title="command.CommandFactory.create\lCommand">
<polygon fill="white" stroke="black" points="880.5,-120 880.5,-150 1065.5,-150 1065.5,-120 880.5,-120"/>
<text text-anchor="start" x="888.5" y="-138" font-family="Helvetica,sans-Serif" font-size="10.00">command.CommandFactory.create</text>
<text text-anchor="middle" x="973" y="-127" font-family="Helvetica,sans-Serif" font-size="10.00">Command</text>
</a>
</g>
</g>
<!-- Node11&#45;&gt;Node12 -->
<g id="edge11" class="edge"><title>Node11&#45;&gt;Node12</title>
<path fill="none" stroke="midnightblue" d="M796.447,-175.401C811.586,-172.157 828.531,-168.476 844,-165 861.85,-160.989 881.071,-156.549 899.054,-152.341"/>
<polygon fill="midnightblue" stroke="midnightblue" points="899.964,-155.723 908.901,-150.032 898.366,-148.908 899.964,-155.723"/>
</g>
<!-- Node14 -->
<g id="node14" class="node"><title>Node14</title>
<g id="a_node14"><a xlink:href="../../d6/d95/classparser_1_1_parser.html#aac1cff62f68138c7e977a67d39671701" target="_top" xlink:title="parser.Parser.generateCommand\lInput">
<polygon fill="white" stroke="black" points="885,-246 885,-276 1061,-276 1061,-246 885,-246"/>
<text text-anchor="start" x="893" y="-264" font-family="Helvetica,sans-Serif" font-size="10.00">parser.Parser.generateCommand</text>
<text text-anchor="middle" x="973" y="-253" font-family="Helvetica,sans-Serif" font-size="10.00">Input</text>
</a>
</g>
</g>
<!-- Node11&#45;&gt;Node14 -->
<g id="edge14" class="edge"><title>Node11&#45;&gt;Node14</title>
<path fill="none" stroke="midnightblue" d="M804.893,-191.824C818.045,-194.615 831.826,-198.526 844,-204 862.241,-212.201 862.254,-221.776 880,-231 888.298,-235.313 897.336,-239.169 906.402,-242.562"/>
<polygon fill="midnightblue" stroke="midnightblue" points="905.234,-245.862 915.829,-245.931 907.59,-239.27 905.234,-245.862"/>
</g>
<!-- Node17 -->
<g id="node17" class="node"><title>Node17</title>
<g id="a_node17"><a xlink:href="../../d3/dcc/classparser_1_1_node.html#a9c12e8d4375a7517eae0a35724b253c4" target="_top" xlink:title="parser.Node.getValue">
<polygon fill="white" stroke="black" points="1146,-199.5 1146,-218.5 1266,-218.5 1266,-199.5 1146,-199.5"/>
<text text-anchor="middle" x="1206" y="-206.5" font-family="Helvetica,sans-Serif" font-size="10.00">parser.Node.getValue</text>
</a>
</g>
</g>
<!-- Node11&#45;&gt;Node17 -->
<g id="edge30" class="edge"><title>Node11&#45;&gt;Node17</title>
<path fill="none" stroke="midnightblue" d="M804.595,-191.208C827.756,-193.681 855.183,-196.331 880,-198 968.089,-203.923 1069.83,-206.714 1135.68,-207.99"/>
<polygon fill="midnightblue" stroke="midnightblue" points="1135.87,-211.494 1145.93,-208.182 1136,-204.495 1135.87,-211.494"/>
</g>
<!-- Node19 -->
<g id="node19" class="node"><title>Node19</title>
<g id="a_node19"><a xlink:href="../../d6/d95/classparser_1_1_parser.html#a3efcd1192e76101919526b4a5e0046f4" target="_top" xlink:title="parser.Parser.getNodeBefore\lToReplace">
<polygon fill="white" stroke="black" points="895.5,-295 895.5,-325 1050.5,-325 1050.5,-295 895.5,-295"/>
<text text-anchor="start" x="903.5" y="-313" font-family="Helvetica,sans-Serif" font-size="10.00">parser.Parser.getNodeBefore</text>
<text text-anchor="middle" x="973" y="-302" font-family="Helvetica,sans-Serif" font-size="10.00">ToReplace</text>
</a>
</g>
</g>
<!-- Node11&#45;&gt;Node19 -->
<g id="edge19" class="edge"><title>Node11&#45;&gt;Node19</title>
<path fill="none" stroke="midnightblue" d="M804.952,-187.262C818.834,-190.064 832.954,-195.121 844,-204 874.706,-228.681 850.097,-259.352 880,-285 882.034,-286.744 884.178,-288.368 886.411,-289.879"/>
<polygon fill="midnightblue" stroke="midnightblue" points="885.02,-293.122 895.415,-295.169 888.566,-287.086 885.02,-293.122"/>
</g>
<!-- Node22 -->
<g id="node22" class="node"><title>Node22</title>
<g id="a_node22"><a xlink:href="../../d6/d95/classparser_1_1_parser.html#a447c473b62ba23b7c144df9bb38a9a41" target="_top" xlink:title="parser.Parser.getNodeFor\lCommand">
<polygon fill="white" stroke="black" points="904,-344 904,-374 1042,-374 1042,-344 904,-344"/>
<text text-anchor="start" x="912" y="-362" font-family="Helvetica,sans-Serif" font-size="10.00">parser.Parser.getNodeFor</text>
<text text-anchor="middle" x="973" y="-351" font-family="Helvetica,sans-Serif" font-size="10.00">Command</text>
</a>
</g>
</g>
<!-- Node11&#45;&gt;Node22 -->
<g id="edge25" class="edge"><title>Node11&#45;&gt;Node22</title>
<path fill="none" stroke="midnightblue" d="M804.892,-186.022C819.098,-188.766 833.4,-194.103 844,-204 887.822,-244.913 837.505,-291.71 880,-334 884.284,-338.263 889.218,-341.819 894.528,-344.782"/>
<polygon fill="midnightblue" stroke="midnightblue" points="893.245,-348.049 903.774,-349.23 896.28,-341.741 893.245,-348.049"/>
</g>
<!-- Node23 -->
<g id="node23" class="node"><title>Node23</title>
<g id="a_node23"><a xlink:href="../../d3/dcc/classparser_1_1_node.html#a066da2b478008f39a02440d7afceb9ee" target="_top" xlink:title="parser.Node.insertChild">
<polygon fill="white" stroke="black" points="909,-169.5 909,-188.5 1037,-188.5 1037,-169.5 909,-169.5"/>
<text text-anchor="middle" x="973" y="-176.5" font-family="Helvetica,sans-Serif" font-size="10.00">parser.Node.insertChild</text>
</a>
</g>
</g>
<!-- Node11&#45;&gt;Node23 -->
<g id="edge31" class="edge"><title>Node11&#45;&gt;Node23</title>
<path fill="none" stroke="midnightblue" d="M804.78,-183.54C833.019,-182.773 868.037,-181.823 898.721,-180.989"/>
<polygon fill="midnightblue" stroke="midnightblue" points="899.043,-184.482 908.944,-180.712 898.853,-177.485 899.043,-184.482"/>
</g>
<!-- Node12&#45;&gt;Node10 -->
<g id="edge13" class="edge"><title>Node12&#45;&gt;Node10</title>
<path fill="none" stroke="midnightblue" d="M1065.8,-148.676C1077.95,-150.051 1090.26,-151.224 1102,-152 1194.24,-158.099 1217.86,-159.513 1310,-152 1324.94,-150.782 1340.72,-148.812 1356.01,-146.539"/>
<polygon fill="midnightblue" stroke="midnightblue" points="1356.62,-149.986 1365.97,-145.006 1355.55,-143.068 1356.62,-149.986"/>
</g>
<!-- Node13 -->
<g id="node13" class="node"><title>Node13</title>
<g id="a_node13"><a xlink:href="../../d9/d1b/classcommand_1_1_command_factory.html#abd97ea3e22afc09e07ed1d4fd039d11f" target="_top" xlink:title="command.CommandFactory.reflectCMD">
<polygon fill="white" stroke="black" points="1102.5,-123.5 1102.5,-142.5 1309.5,-142.5 1309.5,-123.5 1102.5,-123.5"/>
<text text-anchor="middle" x="1206" y="-130.5" font-family="Helvetica,sans-Serif" font-size="10.00">command.CommandFactory.reflectCMD</text>
</a>
</g>
</g>
<!-- Node12&#45;&gt;Node13 -->
<g id="edge12" class="edge"><title>Node12&#45;&gt;Node13</title>
<path fill="none" stroke="midnightblue" d="M1065.63,-134.207C1074.42,-134.131 1083.39,-134.053 1092.35,-133.975"/>
<polygon fill="midnightblue" stroke="midnightblue" points="1092.47,-137.475 1102.44,-133.888 1092.41,-130.475 1092.47,-137.475"/>
</g>
<!-- Node15 -->
<g id="node15" class="node"><title>Node15</title>
<g id="a_node15"><a xlink:href="../../d3/dcc/classparser_1_1_node.html#aa67bc0d39227232943abec9b95b23235" target="_top" xlink:title="parser.Node.getChild1">
<polygon fill="white" stroke="black" points="1144.5,-313.5 1144.5,-332.5 1267.5,-332.5 1267.5,-313.5 1144.5,-313.5"/>
<text text-anchor="middle" x="1206" y="-320.5" font-family="Helvetica,sans-Serif" font-size="10.00">parser.Node.getChild1</text>
</a>
</g>
</g>
<!-- Node14&#45;&gt;Node15 -->
<g id="edge15" class="edge"><title>Node14&#45;&gt;Node15</title>
<path fill="none" stroke="midnightblue" d="M1039.43,-276.075C1048.46,-278.732 1057.54,-281.714 1066,-285 1082.86,-291.549 1084.91,-298.069 1102,-304 1112.26,-307.56 1123.34,-310.493 1134.29,-312.898"/>
<polygon fill="midnightblue" stroke="midnightblue" points="1133.79,-316.368 1144.29,-314.961 1135.21,-309.513 1133.79,-316.368"/>
</g>
<!-- Node16 -->
<g id="node16" class="node"><title>Node16</title>
<g id="a_node16"><a xlink:href="../../d3/dcc/classparser_1_1_node.html#a0f13775acc62af77cdde90dbeaf26bbc" target="_top" xlink:title="parser.Node.getChild2">
<polygon fill="white" stroke="black" points="1144.5,-275.5 1144.5,-294.5 1267.5,-294.5 1267.5,-275.5 1144.5,-275.5"/>
<text text-anchor="middle" x="1206" y="-282.5" font-family="Helvetica,sans-Serif" font-size="10.00">parser.Node.getChild2</text>
</a>
</g>
</g>
<!-- Node14&#45;&gt;Node16 -->
<g id="edge16" class="edge"><title>Node14&#45;&gt;Node16</title>
<path fill="none" stroke="midnightblue" d="M1061,-270.039C1085.18,-272.551 1111.13,-275.247 1134.25,-277.649"/>
<polygon fill="midnightblue" stroke="midnightblue" points="1134.01,-281.143 1144.32,-278.695 1134.73,-274.18 1134.01,-281.143"/>
</g>
<!-- Node14&#45;&gt;Node17 -->
<g id="edge17" class="edge"><title>Node14&#45;&gt;Node17</title>
<path fill="none" stroke="midnightblue" d="M1028.93,-245.941C1051.48,-239.991 1077.91,-233.32 1102,-228 1114.05,-225.339 1126.95,-222.754 1139.4,-220.391"/>
<polygon fill="midnightblue" stroke="midnightblue" points="1140.08,-223.825 1149.26,-218.546 1138.79,-216.944 1140.08,-223.825"/>
</g>
<!-- Node18 -->
<g id="node18" class="node"><title>Node18</title>
<g id="a_node18"><a xlink:href="../../d3/dcc/classparser_1_1_node.html#a6bbc0c61aaa261077eb87cfc4e2b45dc" target="_top" xlink:title="parser.Node.numChildren">
<polygon fill="white" stroke="black" points="1136.5,-237.5 1136.5,-256.5 1275.5,-256.5 1275.5,-237.5 1136.5,-237.5"/>
<text text-anchor="middle" x="1206" y="-244.5" font-family="Helvetica,sans-Serif" font-size="10.00">parser.Node.numChildren</text>
</a>
</g>
</g>
<!-- Node14&#45;&gt;Node18 -->
<g id="edge18" class="edge"><title>Node14&#45;&gt;Node18</title>
<path fill="none" stroke="midnightblue" d="M1061,-255.727C1082.43,-254.428 1105.26,-253.045 1126.28,-251.771"/>
<polygon fill="midnightblue" stroke="midnightblue" points="1126.66,-255.254 1136.43,-251.155 1126.24,-248.267 1126.66,-255.254"/>
</g>
<!-- Node19&#45;&gt;Node15 -->
<g id="edge20" class="edge"><title>Node19&#45;&gt;Node15</title>
<path fill="none" stroke="midnightblue" d="M1050.6,-314.311C1077.5,-315.825 1107.58,-317.518 1134,-319.004"/>
<polygon fill="midnightblue" stroke="midnightblue" points="1134.13,-322.517 1144.31,-319.585 1134.52,-315.528 1134.13,-322.517"/>
</g>
<!-- Node19&#45;&gt;Node16 -->
<g id="edge21" class="edge"><title>Node19&#45;&gt;Node16</title>
<path fill="none" stroke="midnightblue" d="M1050.6,-301.71C1077.62,-298.786 1107.85,-295.514 1134.35,-292.646"/>
<polygon fill="midnightblue" stroke="midnightblue" points="1134.75,-296.124 1144.31,-291.568 1133.99,-289.164 1134.75,-296.124"/>
</g>
<!-- Node19&#45;&gt;Node17 -->
<g id="edge22" class="edge"><title>Node19&#45;&gt;Node17</title>
<path fill="none" stroke="midnightblue" d="M1049.05,-294.833C1055.06,-292.084 1060.81,-288.836 1066,-285 1090.1,-267.193 1077.19,-244.793 1102,-228 1112.06,-221.193 1123.88,-216.644 1135.86,-213.639"/>
<polygon fill="midnightblue" stroke="midnightblue" points="1136.89,-216.997 1145.93,-211.462 1135.41,-210.155 1136.89,-216.997"/>
</g>
<!-- Node20 -->
<g id="node20" class="node"><title>Node20</title>
<g id="a_node20"><a xlink:href="../../d3/dcc/classparser_1_1_node.html#ab14db24c0724dec4387e29d513008e2e" target="_top" xlink:title="parser.Node.hasChildren">
<polygon fill="white" stroke="black" points="1139,-389.5 1139,-408.5 1273,-408.5 1273,-389.5 1139,-389.5"/>
<text text-anchor="middle" x="1206" y="-396.5" font-family="Helvetica,sans-Serif" font-size="10.00">parser.Node.hasChildren</text>
</a>
</g>
</g>
<!-- Node19&#45;&gt;Node20 -->
<g id="edge23" class="edge"><title>Node19&#45;&gt;Node20</title>
<path fill="none" stroke="midnightblue" d="M1049.11,-325.081C1055.04,-327.608 1060.76,-330.557 1066,-334 1087.7,-348.248 1079.79,-366.551 1102,-380 1110.25,-384.999 1119.51,-388.742 1129,-391.535"/>
<polygon fill="midnightblue" stroke="midnightblue" points="1128.39,-394.991 1138.94,-394.114 1130.14,-388.215 1128.39,-394.991"/>
</g>
<!-- Node21 -->
<g id="node21" class="node"><title>Node21</title>
<g id="a_node21"><a xlink:href="../../d3/dcc/classparser_1_1_node.html#aa92667a825777b3d757bc3b1a247ac20" target="_top" xlink:title="parser.Node.isLeaf">
<polygon fill="white" stroke="black" points="1153,-351.5 1153,-370.5 1259,-370.5 1259,-351.5 1153,-351.5"/>
<text text-anchor="middle" x="1206" y="-358.5" font-family="Helvetica,sans-Serif" font-size="10.00">parser.Node.isLeaf</text>
</a>
</g>
</g>
<!-- Node19&#45;&gt;Node21 -->
<g id="edge24" class="edge"><title>Node19&#45;&gt;Node21</title>
<path fill="none" stroke="midnightblue" d="M1030.85,-325.023C1052.98,-330.659 1078.61,-336.924 1102,-342 1115.1,-344.843 1129.19,-347.623 1142.62,-350.142"/>
<polygon fill="midnightblue" stroke="midnightblue" points="1142.27,-353.636 1152.74,-352.014 1143.54,-346.753 1142.27,-353.636"/>
</g>
<!-- Node22&#45;&gt;Node15 -->
<g id="edge26" class="edge"><title>Node22&#45;&gt;Node15</title>
<path fill="none" stroke="midnightblue" d="M1042.06,-348.394C1071.11,-343.867 1105,-338.585 1134.33,-334.014"/>
<polygon fill="midnightblue" stroke="midnightblue" points="1135.15,-337.427 1144.5,-332.429 1134.08,-330.511 1135.15,-337.427"/>
</g>
<!-- Node22&#45;&gt;Node16 -->
<g id="edge27" class="edge"><title>Node22&#45;&gt;Node16</title>
<path fill="none" stroke="midnightblue" d="M1042.1,-344.081C1050.36,-341.235 1058.51,-337.898 1066,-334 1084.47,-324.382 1083.14,-312.844 1102,-304 1112.12,-299.252 1123.32,-295.689 1134.5,-293.015"/>
<polygon fill="midnightblue" stroke="midnightblue" points="1135.27,-296.431 1144.29,-290.887 1133.78,-289.591 1135.27,-296.431"/>
</g>
<!-- Node22&#45;&gt;Node20 -->
<g id="edge28" class="edge"><title>Node22&#45;&gt;Node20</title>
<path fill="none" stroke="midnightblue" d="M1042.06,-370.785C1072.91,-376.127 1109.22,-382.415 1139.73,-387.697"/>
<polygon fill="midnightblue" stroke="midnightblue" points="1139.38,-391.19 1149.83,-389.448 1140.58,-384.293 1139.38,-391.19"/>
</g>
<!-- Node22&#45;&gt;Node21 -->
<g id="edge29" class="edge"><title>Node22&#45;&gt;Node21</title>
<path fill="none" stroke="midnightblue" d="M1042.06,-359.589C1073.86,-359.865 1111.48,-360.19 1142.55,-360.459"/>
<polygon fill="midnightblue" stroke="midnightblue" points="1142.79,-363.961 1152.82,-360.548 1142.85,-356.962 1142.79,-363.961"/>
</g>
<!-- Node23&#45;&gt;Node17 -->
<g id="edge32" class="edge"><title>Node23&#45;&gt;Node17</title>
<path fill="none" stroke="midnightblue" d="M1037.12,-187.198C1067.74,-191.174 1104.59,-195.959 1135.95,-200.032"/>
<polygon fill="midnightblue" stroke="midnightblue" points="1135.56,-203.511 1145.92,-201.328 1136.46,-196.569 1135.56,-203.511"/>
</g>
<!-- Node25 -->
<g id="node25" class="node"><title>Node25</title>
<g id="a_node25"><a xlink:href="../../d7/d35/classcommand_1_1_command.html#a7e1387db1d0d35d4dcd3a3ebe2ff902a" target="_top" xlink:title="command.Command.makeString">
<polygon fill="white" stroke="black" points="884.5,-43.5 884.5,-62.5 1061.5,-62.5 1061.5,-43.5 884.5,-43.5"/>
<text text-anchor="middle" x="973" y="-50.5" font-family="Helvetica,sans-Serif" font-size="10.00">command.Command.makeString</text>
</a>
</g>
</g>
<!-- Node24&#45;&gt;Node25 -->
<g id="edge35" class="edge"><title>Node24&#45;&gt;Node25</title>
<path fill="none" stroke="midnightblue" d="M836.128,-76.9774C859.959,-72.772 885.454,-68.2728 907.847,-64.3211"/>
<polygon fill="midnightblue" stroke="midnightblue" points="908.661,-67.7316 917.901,-62.5469 907.445,-60.8381 908.661,-67.7316"/>
</g>
<!-- Node28 -->
<g id="node28" class="node"><title>Node28</title>
<g id="a_node28"><a xlink:href="../../d9/d1b/classcommand_1_1_command_factory.html#a0d59e4f0f925b5046957c0e054ce8bef" target="_top" xlink:title="command.CommandFactory.reset\lRepcount">
<polygon fill="white" stroke="black" points="883.5,-393 883.5,-423 1062.5,-423 1062.5,-393 883.5,-393"/>
<text text-anchor="start" x="891.5" y="-411" font-family="Helvetica,sans-Serif" font-size="10.00">command.CommandFactory.reset</text>
<text text-anchor="middle" x="973" y="-400" font-family="Helvetica,sans-Serif" font-size="10.00">Repcount</text>
</a>
</g>
</g>
<!-- Node27&#45;&gt;Node28 -->
<g id="edge38" class="edge"><title>Node27&#45;&gt;Node28</title>
<path fill="none" stroke="midnightblue" d="M825.902,-230.219C832.558,-233.155 838.75,-236.999 844,-242 890.828,-286.612 834.619,-336.917 880,-383 881.437,-384.459 882.95,-385.836 884.529,-387.135"/>
<polygon fill="midnightblue" stroke="midnightblue" points="882.715,-390.137 892.916,-392.998 886.726,-384.4 882.715,-390.137"/>
</g>
<!-- Node30 -->
<g id="node30" class="node"><title>Node30</title>
<g id="a_node30"><a xlink:href="../../df/dcb/classturtle_1_1_turtle.html#a432dcb17f8c2751445c2c98e9b2f7fba" target="_top" xlink:title="turtle.Turtle.previousDrawLine">
<polygon fill="white" stroke="black" points="671,-0.5 671,-19.5 829,-19.5 829,-0.5 671,-0.5"/>
<text text-anchor="middle" x="750" y="-7.5" font-family="Helvetica,sans-Serif" font-size="10.00">turtle.Turtle.previousDrawLine</text>
</a>
</g>
</g>
<!-- Node29&#45;&gt;Node30 -->
<g id="edge40" class="edge"><title>Node29&#45;&gt;Node30</title>
<path fill="none" stroke="midnightblue" d="M602.779,-38.9808C631.626,-33.2633 664.014,-26.844 690.962,-21.5029"/>
<polygon fill="midnightblue" stroke="midnightblue" points="691.877,-24.8899 701.006,-19.5124 690.516,-18.0234 691.877,-24.8899"/>
</g>
<!-- Node31 -->
<g id="node31" class="node"><title>Node31</title>
<g id="a_node31"><a xlink:href="../../de/d57/classturtle_1_1_pen.html#a361f4e030646d953185a8afe94427ce2" target="_top" xlink:title="turtle.Pen.penReady">
<polygon fill="white" stroke="black" points="916.5,-0.5 916.5,-19.5 1029.5,-19.5 1029.5,-0.5 916.5,-0.5"/>
<text text-anchor="middle" x="973" y="-7.5" font-family="Helvetica,sans-Serif" font-size="10.00">turtle.Pen.penReady</text>
</a>
</g>
</g>
<!-- Node30&#45;&gt;Node31 -->
<g id="edge41" class="edge"><title>Node30&#45;&gt;Node31</title>
<path fill="none" stroke="midnightblue" d="M829.227,-10C854.434,-10 882.096,-10 906.304,-10"/>
<polygon fill="midnightblue" stroke="midnightblue" points="906.451,-13.5001 916.451,-10 906.451,-6.5001 906.451,-13.5001"/>
</g>
</g>
</svg>
