<?xml version="1.0" encoding="UTF-8" standalone="no"?>
<!DOCTYPE svg PUBLIC "-//W3C//DTD SVG 1.1//EN"
 "http://www.w3.org/Graphics/SVG/1.1/DTD/svg11.dtd">
<!-- Generated by graphviz version 2.36.0 (20140111.2315)
 -->
<!-- Title: userInterface.UI.makeRunButton Pages: 1 -->
<!--zoomable 548 -->
<svg id="main" version="1.1" xmlns="http://www.w3.org/2000/svg" xmlns:xlink="http://www.w3.org/1999/xlink" xml:space="preserve" onload="init(evt)">
<style type="text/css"><![CDATA[
.edge:hover path { stroke: red; }
.edge:hover polygon { stroke: red; fill: red; }
]]></style>
<script type="text/javascript"><![CDATA[
var edges = document.getElementsByTagName('g');
if (edges && edges.length) {
  for (var i=0;i<edges.length;i++) {
    if (edges[i].id.substr(0,4)=='edge') {
      edges[i].setAttribute('class','edge');
    }
  }
}
]]></script>
        <defs>
                <circle id="rim" cx="0" cy="0" r="7"/>
                <circle id="rim2" cx="0" cy="0" r="3.5"/>
                <g id="zoomPlus">
                        <use xlink:href="#rim" fill="#404040">
                                <set attributeName="fill" to="#808080" begin="zoomplus.mouseover" end="zoomplus.mouseout"/>
                        </use>
                        <path d="M-4,0h8M0,-4v8" fill="none" stroke="white" stroke-width="1.5" pointer-events="none"/>
                </g>
                <g id="zoomMin">
                        <use xlink:href="#rim" fill="#404040">
                                <set attributeName="fill" to="#808080" begin="zoomminus.mouseover" end="zoomminus.mouseout"/>
                        </use>
                        <path d="M-4,0h8" fill="none" stroke="white" stroke-width="1.5" pointer-events="none"/>
                </g>
                <g id="dirArrow">
                        <path fill="none" stroke="white" stroke-width="1.5" d="M0,-3.0v7 M-2.5,-0.5L0,-3.0L2.5,-0.5"/>
                </g>
               <g id="resetDef">
                       <use xlink:href="#rim2" fill="#404040">
                               <set attributeName="fill" to="#808080" begin="reset.mouseover" end="reset.mouseout"/>
                       </use>
               </g>
        </defs>

<script type="text/javascript">
var viewWidth = 1728;
var viewHeight = 548;
var sectionId = 'dynsection-8';
</script>
<script xlink:href="../../svgpan.js"/>
<svg id="graph" class="graph">
<g id="viewport">
<title>userInterface.UI.makeRunButton</title>
<polygon fill="white" stroke="none" points="-4,4 -4,-544 1724,-544 1724,4 -4,4"/>
<!-- Node1 -->
<g id="node1" class="node"><title>Node1</title>
<polygon fill="#bfbfbf" stroke="black" points="0,-351 0,-381 140,-381 140,-351 0,-351"/>
<text text-anchor="start" x="8" y="-369" font-family="Helvetica,sans-Serif" font-size="10.00">userInterface.UI.makeRun</text>
<text text-anchor="middle" x="70" y="-358" font-family="Helvetica,sans-Serif" font-size="10.00">Button</text>
</g>
<!-- Node2 -->
<g id="node2" class="node"><title>Node2</title>
<g id="a_node2"><a xlink:href="../../d0/d7c/classuser_interface_1_1_u_i.html#ab17592b00ba0b808f524b4fc223303ec" target="_top" xlink:title="userInterface.UI.runCommand">
<polygon fill="white" stroke="black" points="176.5,-356.5 176.5,-375.5 337.5,-375.5 337.5,-356.5 176.5,-356.5"/>
<text text-anchor="middle" x="257" y="-363.5" font-family="Helvetica,sans-Serif" font-size="10.00">userInterface.UI.runCommand</text>
</a>
</g>
</g>
<!-- Node1&#45;&gt;Node2 -->
<g id="edge1" class="edge"><title>Node1&#45;&gt;Node2</title>
<path fill="none" stroke="midnightblue" d="M140.15,-366C148.633,-366 157.397,-366 166.129,-366"/>
<polygon fill="midnightblue" stroke="midnightblue" points="166.346,-369.5 176.346,-366 166.346,-362.5 166.346,-369.5"/>
</g>
<!-- Node3 -->
<g id="node3" class="node"><title>Node3</title>
<g id="a_node3"><a xlink:href="../../d8/d08/classworld_controller_1_1_world_controller.html#a178425d68e3e669c386706153ce44999" target="_top" xlink:title="worldController.WorldController.update">
<polygon fill="white" stroke="black" points="374,-356.5 374,-375.5 572,-375.5 572,-356.5 374,-356.5"/>
<text text-anchor="middle" x="473" y="-363.5" font-family="Helvetica,sans-Serif" font-size="10.00">worldController.WorldController.update</text>
</a>
</g>
</g>
<!-- Node2&#45;&gt;Node3 -->
<g id="edge2" class="edge"><title>Node2&#45;&gt;Node3</title>
<path fill="none" stroke="midnightblue" d="M337.686,-366C346.142,-366 354.841,-366 363.554,-366"/>
<polygon fill="midnightblue" stroke="midnightblue" points="363.774,-369.5 373.773,-366 363.773,-362.5 363.774,-369.5"/>
</g>
<!-- Node4 -->
<g id="node4" class="node"><title>Node4</title>
<g id="a_node4"><a xlink:href="../../df/dcb/classturtle_1_1_turtle.html#a610aafaf658c4b351330b7c16c66881c" target="_top" xlink:title="turtle.Turtle.updatePenAttributes">
<polygon fill="white" stroke="black" points="615.5,-482.5 615.5,-501.5 788.5,-501.5 788.5,-482.5 615.5,-482.5"/>
<text text-anchor="middle" x="702" y="-489.5" font-family="Helvetica,sans-Serif" font-size="10.00">turtle.Turtle.updatePenAttributes</text>
</a>
</g>
</g>
<!-- Node3&#45;&gt;Node4 -->
<g id="edge3" class="edge"><title>Node3&#45;&gt;Node4</title>
<path fill="none" stroke="midnightblue" d="M491.435,-375.678C531.063,-397.674 628.079,-451.524 674.891,-477.508"/>
<polygon fill="midnightblue" stroke="midnightblue" points="673.374,-480.669 683.816,-482.462 676.771,-474.548 673.374,-480.669"/>
</g>
<!-- Node7 -->
<g id="node7" class="node"><title>Node7</title>
<g id="a_node7"><a xlink:href="../../d9/dd0/classworld_1_1_world.html#ae370733f7784c42741a6ba66c7d2ecf5" target="_top" xlink:title="world.World.listen">
<polygon fill="white" stroke="black" points="653,-356.5 653,-375.5 751,-375.5 751,-356.5 653,-356.5"/>
<text text-anchor="middle" x="702" y="-363.5" font-family="Helvetica,sans-Serif" font-size="10.00">world.World.listen</text>
</a>
</g>
</g>
<!-- Node3&#45;&gt;Node7 -->
<g id="edge6" class="edge"><title>Node3&#45;&gt;Node7</title>
<path fill="none" stroke="midnightblue" d="M572.245,-366C596.238,-366 621.157,-366 642.608,-366"/>
<polygon fill="midnightblue" stroke="midnightblue" points="642.841,-369.5 652.841,-366 642.841,-362.5 642.841,-369.5"/>
</g>
<!-- Node30 -->
<g id="node30" class="node"><title>Node30</title>
<g id="a_node30"><a xlink:href="../../d8/d08/classworld_controller_1_1_world_controller.html#a9380abb3ed5334498510f1d6a88a826d" target="_top" xlink:title="worldController.WorldController.draw\lTurtle">
<polygon fill="white" stroke="black" points="608.5,-198 608.5,-228 795.5,-228 795.5,-198 608.5,-198"/>
<text text-anchor="start" x="616.5" y="-216" font-family="Helvetica,sans-Serif" font-size="10.00">worldController.WorldController.draw</text>
<text text-anchor="middle" x="702" y="-205" font-family="Helvetica,sans-Serif" font-size="10.00">Turtle</text>
</a>
</g>
</g>
<!-- Node3&#45;&gt;Node30 -->
<g id="edge40" class="edge"><title>Node3&#45;&gt;Node30</title>
<path fill="none" stroke="midnightblue" d="M488.2,-356.429C524.276,-332.113 620.118,-267.515 669.941,-233.934"/>
<polygon fill="midnightblue" stroke="midnightblue" points="672.059,-236.728 678.395,-228.236 668.146,-230.923 672.059,-236.728"/>
</g>
<!-- Node5 -->
<g id="node5" class="node"><title>Node5</title>
<g id="a_node5"><a xlink:href="../../de/d57/classturtle_1_1_pen.html#ac9a08745a9f3615b9e47c1c8e5af8f1b" target="_top" xlink:title="turtle.Pen.getColor">
<polygon fill="white" stroke="black" points="872.5,-520.5 872.5,-539.5 979.5,-539.5 979.5,-520.5 872.5,-520.5"/>
<text text-anchor="middle" x="926" y="-527.5" font-family="Helvetica,sans-Serif" font-size="10.00">turtle.Pen.getColor</text>
</a>
</g>
</g>
<!-- Node4&#45;&gt;Node5 -->
<g id="edge4" class="edge"><title>Node4&#45;&gt;Node5</title>
<path fill="none" stroke="midnightblue" d="M758.733,-501.54C790.277,-506.939 829.815,-513.707 862.421,-519.288"/>
<polygon fill="midnightblue" stroke="midnightblue" points="861.853,-522.742 872.301,-520.979 863.034,-515.842 861.853,-522.742"/>
</g>
<!-- Node6 -->
<g id="node6" class="node"><title>Node6</title>
<g id="a_node6"><a xlink:href="../../de/d57/classturtle_1_1_pen.html#a76c8dc4e66927e7d3774ea00b2266640" target="_top" xlink:title="turtle.Pen.getSize">
<polygon fill="white" stroke="black" points="875,-482.5 875,-501.5 977,-501.5 977,-482.5 875,-482.5"/>
<text text-anchor="middle" x="926" y="-489.5" font-family="Helvetica,sans-Serif" font-size="10.00">turtle.Pen.getSize</text>
</a>
</g>
</g>
<!-- Node4&#45;&gt;Node6 -->
<g id="edge5" class="edge"><title>Node4&#45;&gt;Node6</title>
<path fill="none" stroke="midnightblue" d="M788.513,-492C813.943,-492 841.259,-492 864.723,-492"/>
<polygon fill="midnightblue" stroke="midnightblue" points="864.868,-495.5 874.868,-492 864.868,-488.5 864.868,-495.5"/>
</g>
<!-- Node8 -->
<g id="node8" class="node"><title>Node8</title>
<g id="a_node8"><a xlink:href="../../d6/d95/classparser_1_1_parser.html#a240c75608624a9c67402a296855c4d1d" target="_top" xlink:title="parser.Parser.initialize\lCommands">
<polygon fill="white" stroke="black" points="866,-307 866,-337 986,-337 986,-307 866,-307"/>
<text text-anchor="start" x="874" y="-325" font-family="Helvetica,sans-Serif" font-size="10.00">parser.Parser.initialize</text>
<text text-anchor="middle" x="926" y="-314" font-family="Helvetica,sans-Serif" font-size="10.00">Commands</text>
</a>
</g>
</g>
<!-- Node7&#45;&gt;Node8 -->
<g id="edge7" class="edge"><title>Node7&#45;&gt;Node8</title>
<path fill="none" stroke="midnightblue" d="M751.171,-356.453C781.812,-350.38 821.978,-342.419 855.98,-335.68"/>
<polygon fill="midnightblue" stroke="midnightblue" points="856.726,-339.1 865.854,-333.723 855.365,-332.234 856.726,-339.1"/>
</g>
<!-- Node12 -->
<g id="node12" class="node"><title>Node12</title>
<g id="a_node12"><a xlink:href="../../d6/d95/classparser_1_1_parser.html#a4ecbffc246c3add017c4720eed4c6da9" target="_top" xlink:title="parser.Parser.parse">
<polygon fill="white" stroke="black" points="871.5,-202.5 871.5,-221.5 980.5,-221.5 980.5,-202.5 871.5,-202.5"/>
<text text-anchor="middle" x="926" y="-209.5" font-family="Helvetica,sans-Serif" font-size="10.00">parser.Parser.parse</text>
</a>
</g>
</g>
<!-- Node7&#45;&gt;Node12 -->
<g id="edge11" class="edge"><title>Node7&#45;&gt;Node12</title>
<path fill="none" stroke="midnightblue" d="M716.887,-356.367C754.264,-330.439 857.235,-259.008 902.806,-227.396"/>
<polygon fill="midnightblue" stroke="midnightblue" points="904.896,-230.205 911.118,-221.63 900.907,-224.454 904.896,-230.205"/>
</g>
<!-- Node25 -->
<g id="node25" class="node"><title>Node25</title>
<g id="a_node25"><a xlink:href="../../d7/d35/classcommand_1_1_command.html#a957099a70dd30b5dc897e0caf07d2d99" target="_top" xlink:title="command.Command.getCommand\lValues">
<polygon fill="white" stroke="black" points="832,-433 832,-463 1020,-463 1020,-433 832,-433"/>
<text text-anchor="start" x="840" y="-451" font-family="Helvetica,sans-Serif" font-size="10.00">command.Command.getCommand</text>
<text text-anchor="middle" x="926" y="-440" font-family="Helvetica,sans-Serif" font-size="10.00">Values</text>
</a>
</g>
</g>
<!-- Node7&#45;&gt;Node25 -->
<g id="edge35" class="edge"><title>Node7&#45;&gt;Node25</title>
<path fill="none" stroke="midnightblue" d="M722.291,-375.644C747.188,-387.827 792.057,-408.9 832,-423 839.016,-425.476 846.402,-427.847 853.819,-430.075"/>
<polygon fill="midnightblue" stroke="midnightblue" points="852.978,-433.475 863.558,-432.917 854.939,-426.755 852.978,-433.475"/>
</g>
<!-- Node27 -->
<g id="node27" class="node"><title>Node27</title>
<g id="a_node27"><a xlink:href="../../d9/dd0/classworld_1_1_world.html#adcbcb8328c7e832fcb710a91457e6772" target="_top" xlink:title="world.World.runCommand">
<polygon fill="white" stroke="black" points="856.5,-356.5 856.5,-375.5 995.5,-375.5 995.5,-356.5 856.5,-356.5"/>
<text text-anchor="middle" x="926" y="-363.5" font-family="Helvetica,sans-Serif" font-size="10.00">world.World.runCommand</text>
</a>
</g>
</g>
<!-- Node7&#45;&gt;Node27 -->
<g id="edge37" class="edge"><title>Node7&#45;&gt;Node27</title>
<path fill="none" stroke="midnightblue" d="M751.171,-366C778.903,-366 814.436,-366 846.141,-366"/>
<polygon fill="midnightblue" stroke="midnightblue" points="846.285,-369.5 856.285,-366 846.285,-362.5 846.285,-369.5"/>
</g>
<!-- Node28 -->
<g id="node28" class="node"><title>Node28</title>
<g id="a_node28"><a xlink:href="../../d6/d95/classparser_1_1_parser.html#acebafe1593fc1f09ac31c7104438e4b1" target="_top" xlink:title="parser.Parser.resetRepcount">
<polygon fill="white" stroke="black" points="850.5,-394.5 850.5,-413.5 1001.5,-413.5 1001.5,-394.5 850.5,-394.5"/>
<text text-anchor="middle" x="926" y="-401.5" font-family="Helvetica,sans-Serif" font-size="10.00">parser.Parser.resetRepcount</text>
</a>
</g>
</g>
<!-- Node7&#45;&gt;Node28 -->
<g id="edge38" class="edge"><title>Node7&#45;&gt;Node28</title>
<path fill="none" stroke="midnightblue" d="M751.171,-374.245C782.857,-379.669 824.728,-386.836 859.436,-392.777"/>
<polygon fill="midnightblue" stroke="midnightblue" points="859.041,-396.261 869.488,-394.498 860.222,-389.361 859.041,-396.261"/>
</g>
<!-- Node9 -->
<g id="node9" class="node"><title>Node9</title>
<g id="a_node9"><a xlink:href="../../d6/d95/classparser_1_1_parser.html#a4f582c65390bddc57219c0b5c31ef5e7" target="_top" xlink:title="parser.Parser.makeTree">
<polygon fill="white" stroke="black" points="1085,-350.5 1085,-369.5 1213,-369.5 1213,-350.5 1085,-350.5"/>
<text text-anchor="middle" x="1149" y="-357.5" font-family="Helvetica,sans-Serif" font-size="10.00">parser.Parser.makeTree</text>
</a>
</g>
</g>
<!-- Node8&#45;&gt;Node9 -->
<g id="edge8" class="edge"><title>Node8&#45;&gt;Node9</title>
<path fill="none" stroke="midnightblue" d="M986.224,-332.183C1015.86,-337.279 1051.82,-343.462 1082.3,-348.704"/>
<polygon fill="midnightblue" stroke="midnightblue" points="1081.97,-352.197 1092.42,-350.442 1083.15,-345.298 1081.97,-352.197"/>
</g>
<!-- Node10 -->
<g id="node10" class="node"><title>Node10</title>
<g id="a_node10"><a xlink:href="../../d9/d1b/classcommand_1_1_command_factory.html#a87bf7e648425bb22124367cabedb3327" target="_top" xlink:title="command.CommandFactory.get\lNumParameters">
<polygon fill="white" stroke="black" points="1297,-345 1297,-375 1467,-375 1467,-345 1297,-345"/>
<text text-anchor="start" x="1305" y="-363" font-family="Helvetica,sans-Serif" font-size="10.00">command.CommandFactory.get</text>
<text text-anchor="middle" x="1382" y="-352" font-family="Helvetica,sans-Serif" font-size="10.00">NumParameters</text>
</a>
</g>
</g>
<!-- Node9&#45;&gt;Node10 -->
<g id="edge9" class="edge"><title>Node9&#45;&gt;Node10</title>
<path fill="none" stroke="midnightblue" d="M1213.12,-360C1235.78,-360 1261.85,-360 1286.59,-360"/>
<polygon fill="midnightblue" stroke="midnightblue" points="1286.73,-363.5 1296.73,-360 1286.73,-356.5 1286.73,-363.5"/>
</g>
<!-- Node11 -->
<g id="node11" class="node"><title>Node11</title>
<g id="a_node11"><a xlink:href="../../d9/d1b/classcommand_1_1_command_factory.html#a947fdc151e857ea74564d0d1fe268246" target="_top" xlink:title="command.CommandFactory.translate\lCommand">
<polygon fill="white" stroke="black" points="1522.5,-323 1522.5,-353 1719.5,-353 1719.5,-323 1522.5,-323"/>
<text text-anchor="start" x="1530.5" y="-341" font-family="Helvetica,sans-Serif" font-size="10.00">command.CommandFactory.translate</text>
<text text-anchor="middle" x="1621" y="-330" font-family="Helvetica,sans-Serif" font-size="10.00">Command</text>
</a>
</g>
</g>
<!-- Node10&#45;&gt;Node11 -->
<g id="edge10" class="edge"><title>Node10&#45;&gt;Node11</title>
<path fill="none" stroke="midnightblue" d="M1467.22,-352.182C1481.71,-350.837 1496.94,-349.423 1511.95,-348.03"/>
<polygon fill="midnightblue" stroke="midnightblue" points="1512.66,-351.479 1522.29,-347.07 1512.01,-344.509 1512.66,-351.479"/>
</g>
<!-- Node13 -->
<g id="node13" class="node"><title>Node13</title>
<g id="a_node13"><a xlink:href="../../d9/d1b/classcommand_1_1_command_factory.html#ab25bb047b051661d31adf73b2dae5649" target="_top" xlink:title="command.CommandFactory.create\lCommand">
<polygon fill="white" stroke="black" points="1056.5,-301 1056.5,-331 1241.5,-331 1241.5,-301 1056.5,-301"/>
<text text-anchor="start" x="1064.5" y="-319" font-family="Helvetica,sans-Serif" font-size="10.00">command.CommandFactory.create</text>
<text text-anchor="middle" x="1149" y="-308" font-family="Helvetica,sans-Serif" font-size="10.00">Command</text>
</a>
</g>
</g>
<!-- Node12&#45;&gt;Node13 -->
<g id="edge12" class="edge"><title>Node12&#45;&gt;Node13</title>
<path fill="none" stroke="midnightblue" d="M941.57,-221.691C964.937,-236.923 1012.58,-266.715 1056,-286 1065.42,-290.186 1075.62,-294.09 1085.67,-297.605"/>
<polygon fill="midnightblue" stroke="midnightblue" points="1084.64,-300.952 1095.24,-300.854 1086.89,-294.324 1084.64,-300.952"/>
</g>
<!-- Node15 -->
<g id="node15" class="node"><title>Node15</title>
<g id="a_node15"><a xlink:href="../../d6/d95/classparser_1_1_parser.html#aac1cff62f68138c7e977a67d39671701" target="_top" xlink:title="parser.Parser.generateCommand\lInput">
<polygon fill="white" stroke="black" points="1061,-175 1061,-205 1237,-205 1237,-175 1061,-175"/>
<text text-anchor="start" x="1069" y="-193" font-family="Helvetica,sans-Serif" font-size="10.00">parser.Parser.generateCommand</text>
<text text-anchor="middle" x="1149" y="-182" font-family="Helvetica,sans-Serif" font-size="10.00">Input</text>
</a>
</g>
</g>
<!-- Node12&#45;&gt;Node15 -->
<g id="edge15" class="edge"><title>Node12&#45;&gt;Node15</title>
<path fill="none" stroke="midnightblue" d="M980.78,-206.646C1001.8,-204.554 1026.57,-202.088 1050.52,-199.704"/>
<polygon fill="midnightblue" stroke="midnightblue" points="1051.11,-203.162 1060.72,-198.689 1050.42,-196.197 1051.11,-203.162"/>
</g>
<!-- Node18 -->
<g id="node18" class="node"><title>Node18</title>
<g id="a_node18"><a xlink:href="../../d3/dcc/classparser_1_1_node.html#a9c12e8d4375a7517eae0a35724b253c4" target="_top" xlink:title="parser.Node.getValue">
<polygon fill="white" stroke="black" points="1322,-229.5 1322,-248.5 1442,-248.5 1442,-229.5 1322,-229.5"/>
<text text-anchor="middle" x="1382" y="-236.5" font-family="Helvetica,sans-Serif" font-size="10.00">parser.Node.getValue</text>
</a>
</g>
</g>
<!-- Node12&#45;&gt;Node18 -->
<g id="edge31" class="edge"><title>Node12&#45;&gt;Node18</title>
<path fill="none" stroke="midnightblue" d="M949.787,-221.606C975.17,-231.743 1017.68,-247.057 1056,-253 1143.41,-266.556 1245.51,-258.285 1311.61,-249.82"/>
<polygon fill="midnightblue" stroke="midnightblue" points="1312.45,-253.24 1321.9,-248.463 1311.53,-246.3 1312.45,-253.24"/>
</g>
<!-- Node20 -->
<g id="node20" class="node"><title>Node20</title>
<g id="a_node20"><a xlink:href="../../d6/d95/classparser_1_1_parser.html#a3efcd1192e76101919526b4a5e0046f4" target="_top" xlink:title="parser.Parser.getNodeBefore\lToReplace">
<polygon fill="white" stroke="black" points="1071.5,-126 1071.5,-156 1226.5,-156 1226.5,-126 1071.5,-126"/>
<text text-anchor="start" x="1079.5" y="-144" font-family="Helvetica,sans-Serif" font-size="10.00">parser.Parser.getNodeBefore</text>
<text text-anchor="middle" x="1149" y="-133" font-family="Helvetica,sans-Serif" font-size="10.00">ToReplace</text>
</a>
</g>
</g>
<!-- Node12&#45;&gt;Node20 -->
<g id="edge20" class="edge"><title>Node12&#45;&gt;Node20</title>
<path fill="none" stroke="midnightblue" d="M951.019,-202.478C976.753,-192.458 1018.91,-176.567 1056,-165 1062.83,-162.872 1069.97,-160.776 1077.14,-158.764"/>
<polygon fill="midnightblue" stroke="midnightblue" points="1078.19,-162.106 1086.9,-156.076 1076.33,-155.358 1078.19,-162.106"/>
</g>
<!-- Node22 -->
<g id="node22" class="node"><title>Node22</title>
<g id="a_node22"><a xlink:href="../../d3/dcc/classparser_1_1_node.html#aa92667a825777b3d757bc3b1a247ac20" target="_top" xlink:title="parser.Node.isLeaf">
<polygon fill="white" stroke="black" points="1329,-39.5 1329,-58.5 1435,-58.5 1435,-39.5 1329,-39.5"/>
<text text-anchor="middle" x="1382" y="-46.5" font-family="Helvetica,sans-Serif" font-size="10.00">parser.Node.isLeaf</text>
</a>
</g>
</g>
<!-- Node12&#45;&gt;Node22 -->
<g id="edge34" class="edge"><title>Node12&#45;&gt;Node22</title>
<path fill="none" stroke="midnightblue" d="M938.382,-202.465C956.744,-186.773 993.52,-154.04 1020,-122 1038.61,-99.4805 1030.69,-81.5996 1056,-67 1140.04,-18.5167 1257.53,-26.9682 1325.81,-37.7942"/>
<polygon fill="midnightblue" stroke="midnightblue" points="1325.49,-41.2883 1335.92,-39.4729 1326.63,-34.3828 1325.49,-41.2883"/>
</g>
<!-- Node23 -->
<g id="node23" class="node"><title>Node23</title>
<g id="a_node23"><a xlink:href="../../d6/d95/classparser_1_1_parser.html#a447c473b62ba23b7c144df9bb38a9a41" target="_top" xlink:title="parser.Parser.getNodeFor\lCommand">
<polygon fill="white" stroke="black" points="1080,-77 1080,-107 1218,-107 1218,-77 1080,-77"/>
<text text-anchor="start" x="1088" y="-95" font-family="Helvetica,sans-Serif" font-size="10.00">parser.Parser.getNodeFor</text>
<text text-anchor="middle" x="1149" y="-84" font-family="Helvetica,sans-Serif" font-size="10.00">Command</text>
</a>
</g>
</g>
<!-- Node12&#45;&gt;Node23 -->
<g id="edge26" class="edge"><title>Node12&#45;&gt;Node23</title>
<path fill="none" stroke="midnightblue" d="M937.123,-202.258C957.763,-182.926 1006.92,-139.555 1056,-116 1060.53,-113.824 1065.29,-111.826 1070.16,-109.994"/>
<polygon fill="midnightblue" stroke="midnightblue" points="1071.34,-113.289 1079.61,-106.674 1069.02,-106.685 1071.34,-113.289"/>
</g>
<!-- Node24 -->
<g id="node24" class="node"><title>Node24</title>
<g id="a_node24"><a xlink:href="../../d3/dcc/classparser_1_1_node.html#a066da2b478008f39a02440d7afceb9ee" target="_top" xlink:title="parser.Node.insertChild">
<polygon fill="white" stroke="black" points="1085,-224.5 1085,-243.5 1213,-243.5 1213,-224.5 1085,-224.5"/>
<text text-anchor="middle" x="1149" y="-231.5" font-family="Helvetica,sans-Serif" font-size="10.00">parser.Node.insertChild</text>
</a>
</g>
</g>
<!-- Node12&#45;&gt;Node24 -->
<g id="edge32" class="edge"><title>Node12&#45;&gt;Node24</title>
<path fill="none" stroke="midnightblue" d="M980.78,-217.354C1009.02,-220.165 1044.04,-223.651 1074.72,-226.705"/>
<polygon fill="midnightblue" stroke="midnightblue" points="1074.65,-230.215 1084.94,-227.723 1075.34,-223.249 1074.65,-230.215"/>
</g>
<!-- Node13&#45;&gt;Node11 -->
<g id="edge14" class="edge"><title>Node13&#45;&gt;Node11</title>
<path fill="none" stroke="midnightblue" d="M1241.74,-320.294C1319.23,-323.922 1430.34,-329.122 1512.1,-332.949"/>
<polygon fill="midnightblue" stroke="midnightblue" points="1512.27,-336.461 1522.42,-333.433 1512.6,-329.469 1512.27,-336.461"/>
</g>
<!-- Node14 -->
<g id="node14" class="node"><title>Node14</title>
<g id="a_node14"><a xlink:href="../../d9/d1b/classcommand_1_1_command_factory.html#abd97ea3e22afc09e07ed1d4fd039d11f" target="_top" xlink:title="command.CommandFactory.reflectCMD">
<polygon fill="white" stroke="black" points="1278.5,-268.5 1278.5,-287.5 1485.5,-287.5 1485.5,-268.5 1278.5,-268.5"/>
<text text-anchor="middle" x="1382" y="-275.5" font-family="Helvetica,sans-Serif" font-size="10.00">command.CommandFactory.reflectCMD</text>
</a>
</g>
</g>
<!-- Node13&#45;&gt;Node14 -->
<g id="edge13" class="edge"><title>Node13&#45;&gt;Node14</title>
<path fill="none" stroke="midnightblue" d="M1241.3,-300.981C1265.25,-297.042 1290.65,-292.863 1313.14,-289.164"/>
<polygon fill="midnightblue" stroke="midnightblue" points="1313.95,-292.578 1323.24,-287.501 1312.81,-285.671 1313.95,-292.578"/>
</g>
<!-- Node16 -->
<g id="node16" class="node"><title>Node16</title>
<g id="a_node16"><a xlink:href="../../d3/dcc/classparser_1_1_node.html#aa67bc0d39227232943abec9b95b23235" target="_top" xlink:title="parser.Node.getChild1">
<polygon fill="white" stroke="black" points="1320.5,-153.5 1320.5,-172.5 1443.5,-172.5 1443.5,-153.5 1320.5,-153.5"/>
<text text-anchor="middle" x="1382" y="-160.5" font-family="Helvetica,sans-Serif" font-size="10.00">parser.Node.getChild1</text>
</a>
</g>
</g>
<!-- Node15&#45;&gt;Node16 -->
<g id="edge16" class="edge"><title>Node15&#45;&gt;Node16</title>
<path fill="none" stroke="midnightblue" d="M1237,-179.831C1261.18,-177.005 1287.13,-173.972 1310.25,-171.269"/>
<polygon fill="midnightblue" stroke="midnightblue" points="1310.79,-174.73 1320.32,-170.093 1309.98,-167.778 1310.79,-174.73"/>
</g>
<!-- Node17 -->
<g id="node17" class="node"><title>Node17</title>
<g id="a_node17"><a xlink:href="../../d3/dcc/classparser_1_1_node.html#a0f13775acc62af77cdde90dbeaf26bbc" target="_top" xlink:title="parser.Node.getChild2">
<polygon fill="white" stroke="black" points="1320.5,-115.5 1320.5,-134.5 1443.5,-134.5 1443.5,-115.5 1320.5,-115.5"/>
<text text-anchor="middle" x="1382" y="-122.5" font-family="Helvetica,sans-Serif" font-size="10.00">parser.Node.getChild2</text>
</a>
</g>
</g>
<!-- Node15&#45;&gt;Node17 -->
<g id="edge17" class="edge"><title>Node15&#45;&gt;Node17</title>
<path fill="none" stroke="midnightblue" d="M1214.08,-174.925C1223.58,-172.021 1233.15,-168.709 1242,-165 1259.08,-157.843 1260.63,-150.443 1278,-144 1288.25,-140.199 1299.36,-137.135 1310.37,-134.672"/>
<polygon fill="midnightblue" stroke="midnightblue" points="1311.34,-138.044 1320.42,-132.576 1309.91,-131.192 1311.34,-138.044"/>
</g>
<!-- Node15&#45;&gt;Node18 -->
<g id="edge18" class="edge"><title>Node15&#45;&gt;Node18</title>
<path fill="none" stroke="midnightblue" d="M1211.39,-205.017C1232.46,-210.003 1256.22,-215.441 1278,-220 1290.43,-222.601 1303.74,-225.197 1316.53,-227.597"/>
<polygon fill="midnightblue" stroke="midnightblue" points="1316.18,-231.091 1326.65,-229.476 1317.45,-224.209 1316.18,-231.091"/>
</g>
<!-- Node19 -->
<g id="node19" class="node"><title>Node19</title>
<g id="a_node19"><a xlink:href="../../d3/dcc/classparser_1_1_node.html#a6bbc0c61aaa261077eb87cfc4e2b45dc" target="_top" xlink:title="parser.Node.numChildren">
<polygon fill="white" stroke="black" points="1312.5,-191.5 1312.5,-210.5 1451.5,-210.5 1451.5,-191.5 1312.5,-191.5"/>
<text text-anchor="middle" x="1382" y="-198.5" font-family="Helvetica,sans-Serif" font-size="10.00">parser.Node.numChildren</text>
</a>
</g>
</g>
<!-- Node15&#45;&gt;Node19 -->
<g id="edge19" class="edge"><title>Node15&#45;&gt;Node19</title>
<path fill="none" stroke="midnightblue" d="M1237,-194.143C1258.43,-195.164 1281.26,-196.251 1302.28,-197.251"/>
<polygon fill="midnightblue" stroke="midnightblue" points="1302.28,-200.755 1312.43,-197.735 1302.61,-193.763 1302.28,-200.755"/>
</g>
<!-- Node20&#45;&gt;Node16 -->
<g id="edge21" class="edge"><title>Node20&#45;&gt;Node16</title>
<path fill="none" stroke="midnightblue" d="M1226.6,-148.295C1253.62,-150.868 1283.85,-153.748 1310.35,-156.272"/>
<polygon fill="midnightblue" stroke="midnightblue" points="1310.03,-159.756 1320.31,-157.22 1310.69,-152.788 1310.03,-159.756"/>
</g>
<!-- Node20&#45;&gt;Node17 -->
<g id="edge22" class="edge"><title>Node20&#45;&gt;Node17</title>
<path fill="none" stroke="midnightblue" d="M1226.6,-135.694C1253.5,-133.831 1283.58,-131.748 1310,-129.918"/>
<polygon fill="midnightblue" stroke="midnightblue" points="1310.58,-133.386 1320.31,-129.203 1310.09,-126.403 1310.58,-133.386"/>
</g>
<!-- Node20&#45;&gt;Node18 -->
<g id="edge23" class="edge"><title>Node20&#45;&gt;Node18</title>
<path fill="none" stroke="midnightblue" d="M1226.36,-156.025C1231.89,-158.564 1237.17,-161.532 1242,-165 1265.72,-182.051 1253.67,-203.823 1278,-220 1288.05,-226.686 1299.82,-231.182 1311.74,-234.174"/>
<polygon fill="midnightblue" stroke="midnightblue" points="1311.24,-237.646 1321.75,-236.349 1312.72,-230.806 1311.24,-237.646"/>
</g>
<!-- Node21 -->
<g id="node21" class="node"><title>Node21</title>
<g id="a_node21"><a xlink:href="../../d3/dcc/classparser_1_1_node.html#ab14db24c0724dec4387e29d513008e2e" target="_top" xlink:title="parser.Node.hasChildren">
<polygon fill="white" stroke="black" points="1315,-77.5 1315,-96.5 1449,-96.5 1449,-77.5 1315,-77.5"/>
<text text-anchor="middle" x="1382" y="-84.5" font-family="Helvetica,sans-Serif" font-size="10.00">parser.Node.hasChildren</text>
</a>
</g>
</g>
<!-- Node20&#45;&gt;Node21 -->
<g id="edge24" class="edge"><title>Node20&#45;&gt;Node21</title>
<path fill="none" stroke="midnightblue" d="M1205.47,-125.979C1217.52,-122.703 1230.19,-119.245 1242,-116 1258.01,-111.6 1261.82,-109.732 1278,-106 1289.7,-103.302 1302.21,-100.732 1314.34,-98.4037"/>
<polygon fill="midnightblue" stroke="midnightblue" points="1315.24,-101.797 1324.42,-96.5069 1313.94,-94.9177 1315.24,-101.797"/>
</g>
<!-- Node20&#45;&gt;Node22 -->
<g id="edge25" class="edge"><title>Node20&#45;&gt;Node22</title>
<path fill="none" stroke="midnightblue" d="M1223.33,-125.982C1229.91,-123.2 1236.25,-119.904 1242,-116 1264.06,-101.024 1255.33,-82.0485 1278,-68 1290.13,-60.4842 1304.49,-55.7906 1318.59,-52.8952"/>
<polygon fill="midnightblue" stroke="midnightblue" points="1319.54,-56.2823 1328.77,-51.0902 1318.31,-49.3898 1319.54,-56.2823"/>
</g>
<!-- Node23&#45;&gt;Node16 -->
<g id="edge27" class="edge"><title>Node23&#45;&gt;Node16</title>
<path fill="none" stroke="midnightblue" d="M1218.46,-106.52C1226.58,-109.21 1234.6,-112.35 1242,-116 1260.18,-124.964 1259.51,-135.703 1278,-144 1288.2,-148.577 1299.44,-152.051 1310.64,-154.688"/>
<polygon fill="midnightblue" stroke="midnightblue" points="1309.93,-158.115 1320.44,-156.797 1311.4,-151.272 1309.93,-158.115"/>
</g>
<!-- Node23&#45;&gt;Node17 -->
<g id="edge28" class="edge"><title>Node23&#45;&gt;Node17</title>
<path fill="none" stroke="midnightblue" d="M1218.06,-101.723C1247.11,-105.872 1281,-110.714 1310.33,-114.904"/>
<polygon fill="midnightblue" stroke="midnightblue" points="1310.1,-118.407 1320.5,-116.357 1311.09,-111.477 1310.1,-118.407"/>
</g>
<!-- Node23&#45;&gt;Node21 -->
<g id="edge29" class="edge"><title>Node23&#45;&gt;Node21</title>
<path fill="none" stroke="midnightblue" d="M1218.06,-90.5269C1245.2,-89.9394 1276.58,-89.2603 1304.5,-88.6558"/>
<polygon fill="midnightblue" stroke="midnightblue" points="1304.7,-92.1525 1314.62,-88.4368 1304.55,-85.1541 1304.7,-92.1525"/>
</g>
<!-- Node23&#45;&gt;Node22 -->
<g id="edge30" class="edge"><title>Node23&#45;&gt;Node22</title>
<path fill="none" stroke="midnightblue" d="M1218.08,-79.1962C1237.44,-75.5657 1258.55,-71.6173 1278,-68 1291.25,-65.536 1305.46,-62.9063 1318.96,-60.4134"/>
<polygon fill="midnightblue" stroke="midnightblue" points="1319.93,-63.7949 1329.12,-58.5387 1318.66,-56.9111 1319.93,-63.7949"/>
</g>
<!-- Node24&#45;&gt;Node18 -->
<g id="edge33" class="edge"><title>Node24&#45;&gt;Node18</title>
<path fill="none" stroke="midnightblue" d="M1213.12,-235.366C1243.61,-236.026 1280.27,-236.82 1311.54,-237.497"/>
<polygon fill="midnightblue" stroke="midnightblue" points="1311.85,-241.004 1321.92,-237.721 1312,-234.006 1311.85,-241.004"/>
</g>
<!-- Node26 -->
<g id="node26" class="node"><title>Node26</title>
<g id="a_node26"><a xlink:href="../../d7/d35/classcommand_1_1_command.html#a7e1387db1d0d35d4dcd3a3ebe2ff902a" target="_top" xlink:title="command.Command.makeString">
<polygon fill="white" stroke="black" points="1060.5,-438.5 1060.5,-457.5 1237.5,-457.5 1237.5,-438.5 1060.5,-438.5"/>
<text text-anchor="middle" x="1149" y="-445.5" font-family="Helvetica,sans-Serif" font-size="10.00">command.Command.makeString</text>
</a>
</g>
</g>
<!-- Node25&#45;&gt;Node26 -->
<g id="edge36" class="edge"><title>Node25&#45;&gt;Node26</title>
<path fill="none" stroke="midnightblue" d="M1020.08,-448C1029.98,-448 1040.06,-448 1050.01,-448"/>
<polygon fill="midnightblue" stroke="midnightblue" points="1050.31,-451.5 1060.31,-448 1050.31,-444.5 1050.31,-451.5"/>
</g>
<!-- Node29 -->
<g id="node29" class="node"><title>Node29</title>
<g id="a_node29"><a xlink:href="../../d9/d1b/classcommand_1_1_command_factory.html#a0d59e4f0f925b5046957c0e054ce8bef" target="_top" xlink:title="command.CommandFactory.reset\lRepcount">
<polygon fill="white" stroke="black" points="1059.5,-389 1059.5,-419 1238.5,-419 1238.5,-389 1059.5,-389"/>
<text text-anchor="start" x="1067.5" y="-407" font-family="Helvetica,sans-Serif" font-size="10.00">command.CommandFactory.reset</text>
<text text-anchor="middle" x="1149" y="-396" font-family="Helvetica,sans-Serif" font-size="10.00">Repcount</text>
</a>
</g>
</g>
<!-- Node28&#45;&gt;Node29 -->
<g id="edge39" class="edge"><title>Node28&#45;&gt;Node29</title>
<path fill="none" stroke="midnightblue" d="M1001.51,-404C1016.73,-404 1032.96,-404 1048.88,-404"/>
<polygon fill="midnightblue" stroke="midnightblue" points="1049.28,-407.5 1059.28,-404 1049.28,-400.5 1049.28,-407.5"/>
</g>
<!-- Node31 -->
<g id="node31" class="node"><title>Node31</title>
<g id="a_node31"><a xlink:href="../../df/dcb/classturtle_1_1_turtle.html#a432dcb17f8c2751445c2c98e9b2f7fba" target="_top" xlink:title="turtle.Turtle.previousDrawLine">
<polygon fill="white" stroke="black" points="847,-93.5 847,-112.5 1005,-112.5 1005,-93.5 847,-93.5"/>
<text text-anchor="middle" x="926" y="-100.5" font-family="Helvetica,sans-Serif" font-size="10.00">turtle.Turtle.previousDrawLine</text>
</a>
</g>
</g>
<!-- Node30&#45;&gt;Node31 -->
<g id="edge41" class="edge"><title>Node30&#45;&gt;Node31</title>
<path fill="none" stroke="midnightblue" d="M733.403,-197.936C776.479,-176.592 854.69,-137.838 896.628,-117.058"/>
<polygon fill="midnightblue" stroke="midnightblue" points="898.328,-120.122 905.735,-112.546 895.221,-113.85 898.328,-120.122"/>
</g>
<!-- Node32 -->
<g id="node32" class="node"><title>Node32</title>
<g id="a_node32"><a xlink:href="../../de/d57/classturtle_1_1_pen.html#a361f4e030646d953185a8afe94427ce2" target="_top" xlink:title="turtle.Pen.penReady">
<polygon fill="white" stroke="black" points="1092.5,-0.5 1092.5,-19.5 1205.5,-19.5 1205.5,-0.5 1092.5,-0.5"/>
<text text-anchor="middle" x="1149" y="-7.5" font-family="Helvetica,sans-Serif" font-size="10.00">turtle.Pen.penReady</text>
</a>
</g>
</g>
<!-- Node31&#45;&gt;Node32 -->
<g id="edge42" class="edge"><title>Node31&#45;&gt;Node32</title>
<path fill="none" stroke="midnightblue" d="M942.315,-93.2612C965.915,-78.6176 1012.96,-50.8523 1056,-34 1067.76,-29.394 1080.72,-25.3968 1093.1,-22.0562"/>
<polygon fill="midnightblue" stroke="midnightblue" points="1094.07,-25.4198 1102.87,-19.5187 1092.31,-18.6445 1094.07,-25.4198"/>
</g>
</g>
</svg>
        <g id="navigator" transform="translate(0 0)" fill="#404254">
                <rect fill="#f2f5e9" fill-opacity="0.5" stroke="#606060" stroke-width=".5" x="0" y="0" width="60" height="60"/>
                <use id="zoomplus" xlink:href="#zoomPlus" x="17" y="9" onmousedown="handleZoom(evt,'in')"/>
                <use id="zoomminus" xlink:href="#zoomMin" x="42" y="9" onmousedown="handleZoom(evt,'out')"/>
                <use id="reset" xlink:href="#resetDef" x="30" y="36" onmousedown="handleReset()"/>
                <g id="arrowUp" xlink:href="#dirArrow" transform="translate(30 24)" onmousedown="handlePan(0,-1)">
                  <use xlink:href="#rim" fill="#404040">
                        <set attributeName="fill" to="#808080" begin="arrowUp.mouseover" end="arrowUp.mouseout"/>
                  </use>
                  <path fill="none" stroke="white" stroke-width="1.5" d="M0,-3.0v7 M-2.5,-0.5L0,-3.0L2.5,-0.5"/>
                </g>
                <g id="arrowRight" xlink:href="#dirArrow" transform="rotate(90) translate(36 -43)" onmousedown="handlePan(1,0)">
                  <use xlink:href="#rim" fill="#404040">
                        <set attributeName="fill" to="#808080" begin="arrowRight.mouseover" end="arrowRight.mouseout"/>
                  </use>
                  <path fill="none" stroke="white" stroke-width="1.5" d="M0,-3.0v7 M-2.5,-0.5L0,-3.0L2.5,-0.5"/>
                </g>
                <g id="arrowDown" xlink:href="#dirArrow" transform="rotate(180) translate(-30 -48)" onmousedown="handlePan(0,1)">
                  <use xlink:href="#rim" fill="#404040">
                        <set attributeName="fill" to="#808080" begin="arrowDown.mouseover" end="arrowDown.mouseout"/>
                  </use>
                  <path fill="none" stroke="white" stroke-width="1.5" d="M0,-3.0v7 M-2.5,-0.5L0,-3.0L2.5,-0.5"/>
                </g>
                <g id="arrowLeft" xlink:href="#dirArrow" transform="rotate(270) translate(-36 17)" onmousedown="handlePan(-1,0)">
                  <use xlink:href="#rim" fill="#404040">
                        <set attributeName="fill" to="#808080" begin="arrowLeft.mouseover" end="arrowLeft.mouseout"/>
                  </use>
                  <path fill="none" stroke="white" stroke-width="1.5" d="M0,-3.0v7 M-2.5,-0.5L0,-3.0L2.5,-0.5"/>
                </g>
        </g>
        <svg viewBox="0 0 15 15" width="100%" height="30px" preserveAspectRatio="xMaxYMin meet">
         <g id="arrow_out" transform="scale(0.3 0.3)">
          <a xlink:href="classuser_interface_1_1_u_i_a02bd34909b5d6037ea8ebe812879b90a_cgraph_org.svg" target="_base">
           <rect id="button" ry="5" rx="5" y="6" x="6" height="38" width="38"
                fill="#f2f5e9" fill-opacity="0.5" stroke="#606060" stroke-width="1.0"/>
           <path id="arrow"
             d="M 11.500037,31.436501 C 11.940474,20.09759 22.043105,11.32322 32.158766,21.979434 L 37.068811,17.246167 C 37.068811,17.246167 37.088388,32 37.088388,32 L 22.160133,31.978069 C 22.160133,31.978069 26.997745,27.140456 26.997745,27.140456 C 18.528582,18.264221 13.291696,25.230495 11.500037,31.436501 z"
             style="fill:#404040;"/>
          </a>
         </g>
        </svg>
</svg>
