<?xml version="1.0" encoding="UTF-8" standalone="no"?>
<!DOCTYPE svg PUBLIC "-//W3C//DTD SVG 1.1//EN"
 "http://www.w3.org/Graphics/SVG/1.1/DTD/svg11.dtd">
<!-- Generated by graphviz version 2.36.0 (20140111.2315)
 -->
<!-- Title: userInterface.UI.UI Pages: 1 -->
<!--zoomable 546 -->
<svg id="main" version="1.1" xmlns="http://www.w3.org/2000/svg" xmlns:xlink="http://www.w3.org/1999/xlink" xml:space="preserve" onload="init(evt)">
<style type="text/css"><![CDATA[
.edge:hover path { stroke: red; }
.edge:hover polygon { stroke: red; fill: red; }
]]></style>
<script type="text/javascript"><![CDATA[
var edges = document.getElementsByTagName('g');
if (edges && edges.length) {
  for (var i=0;i<edges.length;i++) {
    if (edges[i].id.substr(0,4)=='edge') {
      edges[i].setAttribute('class','edge');
    }
  }
}
]]></script>
        <defs>
                <circle id="rim" cx="0" cy="0" r="7"/>
                <circle id="rim2" cx="0" cy="0" r="3.5"/>
                <g id="zoomPlus">
                        <use xlink:href="#rim" fill="#404040">
                                <set attributeName="fill" to="#808080" begin="zoomplus.mouseover" end="zoomplus.mouseout"/>
                        </use>
                        <path d="M-4,0h8M0,-4v8" fill="none" stroke="white" stroke-width="1.5" pointer-events="none"/>
                </g>
                <g id="zoomMin">
                        <use xlink:href="#rim" fill="#404040">
                                <set attributeName="fill" to="#808080" begin="zoomminus.mouseover" end="zoomminus.mouseout"/>
                        </use>
                        <path d="M-4,0h8" fill="none" stroke="white" stroke-width="1.5" pointer-events="none"/>
                </g>
                <g id="dirArrow">
                        <path fill="none" stroke="white" stroke-width="1.5" d="M0,-3.0v7 M-2.5,-0.5L0,-3.0L2.5,-0.5"/>
                </g>
               <g id="resetDef">
                       <use xlink:href="#rim2" fill="#404040">
                               <set attributeName="fill" to="#808080" begin="reset.mouseover" end="reset.mouseout"/>
                       </use>
               </g>
        </defs>

<script type="text/javascript">
var viewWidth = 2238;
var viewHeight = 546;
var sectionId = 'dynsection-1';
</script>
<script xlink:href="../../svgpan.js"/>
<svg id="graph" class="graph">
<g id="viewport">
<title>userInterface.UI.UI</title>
<polygon fill="white" stroke="none" points="-4,4 -4,-542 2234,-542 2234,4 -4,4"/>
<!-- Node1 -->
<g id="node1" class="node"><title>Node1</title>
<polygon fill="#bfbfbf" stroke="black" points="0.5,-152.5 0.5,-171.5 105.5,-171.5 105.5,-152.5 0.5,-152.5"/>
<text text-anchor="middle" x="53" y="-159.5" font-family="Helvetica,sans-Serif" font-size="10.00">userInterface.UI.UI</text>
</g>
<!-- Node2 -->
<g id="node2" class="node"><title>Node2</title>
<g id="a_node2"><a xlink:href="../../d0/d7c/classuser_interface_1_1_u_i.html#a3bbaba49b5a758cdab6fb4182e5dec4c" target="_top" xlink:title="userInterface.UI.initialize">
<polygon fill="white" stroke="black" points="142,-152.5 142,-171.5 276,-171.5 276,-152.5 142,-152.5"/>
<text text-anchor="middle" x="209" y="-159.5" font-family="Helvetica,sans-Serif" font-size="10.00">userInterface.UI.initialize</text>
</a>
</g>
</g>
<!-- Node1&#45;&gt;Node2 -->
<g id="edge1" class="edge"><title>Node1&#45;&gt;Node2</title>
<path fill="none" stroke="midnightblue" d="M105.708,-162C114.061,-162 122.861,-162 131.649,-162"/>
<polygon fill="midnightblue" stroke="midnightblue" points="131.934,-165.5 141.934,-162 131.933,-158.5 131.934,-165.5"/>
</g>
<!-- Node3 -->
<g id="node3" class="node"><title>Node3</title>
<g id="a_node3"><a xlink:href="../../d0/d7c/classuser_interface_1_1_u_i.html#a9f7eaa121e1405b45e262f03859f9ff0" target="_top" xlink:title="userInterface.UI.setUpCommand\lField">
<polygon fill="white" stroke="black" points="312,-273 312,-303 486,-303 486,-273 312,-273"/>
<text text-anchor="start" x="320" y="-291" font-family="Helvetica,sans-Serif" font-size="10.00">userInterface.UI.setUpCommand</text>
<text text-anchor="middle" x="399" y="-280" font-family="Helvetica,sans-Serif" font-size="10.00">Field</text>
</a>
</g>
</g>
<!-- Node2&#45;&gt;Node3 -->
<g id="edge2" class="edge"><title>Node2&#45;&gt;Node3</title>
<path fill="none" stroke="midnightblue" d="M217.013,-171.655C232.092,-191.717 269.683,-238.11 312,-263 315.694,-265.173 319.589,-267.167 323.6,-268.997"/>
<polygon fill="midnightblue" stroke="midnightblue" points="322.551,-272.352 333.127,-272.974 325.247,-265.892 322.551,-272.352"/>
</g>
<!-- Node35 -->
<g id="node35" class="node"><title>Node35</title>
<g id="a_node35"><a xlink:href="../../d0/d7c/classuser_interface_1_1_u_i.html#ad3435fb6061c1b8ebcade613c318fd27" target="_top" xlink:title="userInterface.UI.setUpPane">
<polygon fill="white" stroke="black" points="325.5,-234.5 325.5,-253.5 472.5,-253.5 472.5,-234.5 325.5,-234.5"/>
<text text-anchor="middle" x="399" y="-241.5" font-family="Helvetica,sans-Serif" font-size="10.00">userInterface.UI.setUpPane</text>
</a>
</g>
</g>
<!-- Node2&#45;&gt;Node35 -->
<g id="edge44" class="edge"><title>Node2&#45;&gt;Node35</title>
<path fill="none" stroke="midnightblue" d="M222.452,-171.637C240.959,-185.492 277.283,-210.917 312,-225 318.283,-227.549 324.97,-229.785 331.732,-231.739"/>
<polygon fill="midnightblue" stroke="midnightblue" points="331.089,-235.191 341.655,-234.406 332.906,-228.431 331.089,-235.191"/>
</g>
<!-- Node36 -->
<g id="node36" class="node"><title>Node36</title>
<g id="a_node36"><a xlink:href="../../d0/d7c/classuser_interface_1_1_u_i.html#a83df006468b1ce0b6b4f302393cc1ff3" target="_top" xlink:title="userInterface.UI.setUpController">
<polygon fill="white" stroke="black" points="314,-196.5 314,-215.5 484,-215.5 484,-196.5 314,-196.5"/>
<text text-anchor="middle" x="399" y="-203.5" font-family="Helvetica,sans-Serif" font-size="10.00">userInterface.UI.setUpController</text>
</a>
</g>
</g>
<!-- Node2&#45;&gt;Node36 -->
<g id="edge45" class="edge"><title>Node2&#45;&gt;Node36</title>
<path fill="none" stroke="midnightblue" d="M250.694,-171.601C269.371,-176 291.806,-181.276 312,-186 323.313,-188.647 335.467,-191.479 346.971,-194.156"/>
<polygon fill="midnightblue" stroke="midnightblue" points="346.342,-197.603 356.875,-196.459 347.928,-190.785 346.342,-197.603"/>
</g>
<!-- Node37 -->
<g id="node37" class="node"><title>Node37</title>
<g id="a_node37"><a xlink:href="../../de/df4/classuser_interface_1_1_right_panel.html#a458f970045d0dde26df4c9c4c1085fb7" target="_top" xlink:title="userInterface.RightPanel.get\lInstance">
<polygon fill="white" stroke="black" points="323.5,-147 323.5,-177 474.5,-177 474.5,-147 323.5,-147"/>
<text text-anchor="start" x="331.5" y="-165" font-family="Helvetica,sans-Serif" font-size="10.00">userInterface.RightPanel.get</text>
<text text-anchor="middle" x="399" y="-154" font-family="Helvetica,sans-Serif" font-size="10.00">Instance</text>
</a>
</g>
</g>
<!-- Node2&#45;&gt;Node37 -->
<g id="edge46" class="edge"><title>Node2&#45;&gt;Node37</title>
<path fill="none" stroke="midnightblue" d="M276.017,-162C288.123,-162 300.909,-162 313.468,-162"/>
<polygon fill="midnightblue" stroke="midnightblue" points="313.473,-165.5 323.473,-162 313.473,-158.5 313.473,-165.5"/>
</g>
<!-- Node39 -->
<g id="node39" class="node"><title>Node39</title>
<g id="a_node39"><a xlink:href="../../de/df4/classuser_interface_1_1_right_panel.html#ae098bace463240ddbdf7d5694755b7e3" target="_top" xlink:title="userInterface.RightPanel.get\lPanel">
<polygon fill="white" stroke="black" points="323.5,-98 323.5,-128 474.5,-128 474.5,-98 323.5,-98"/>
<text text-anchor="start" x="331.5" y="-116" font-family="Helvetica,sans-Serif" font-size="10.00">userInterface.RightPanel.get</text>
<text text-anchor="middle" x="399" y="-105" font-family="Helvetica,sans-Serif" font-size="10.00">Panel</text>
</a>
</g>
</g>
<!-- Node2&#45;&gt;Node39 -->
<g id="edge48" class="edge"><title>Node2&#45;&gt;Node39</title>
<path fill="none" stroke="midnightblue" d="M246.695,-152.436C270.496,-146.232 302.224,-137.963 330.477,-130.599"/>
<polygon fill="midnightblue" stroke="midnightblue" points="331.513,-133.946 340.307,-128.037 329.748,-127.172 331.513,-133.946"/>
</g>
<!-- Node40 -->
<g id="node40" class="node"><title>Node40</title>
<g id="a_node40"><a xlink:href="../../dc/d1b/classuser_interface_1_1_left_panel.html#a8b31bed29bdfa95820342c6d3facc020" target="_top" xlink:title="userInterface.LeftPanel.get\lInstance">
<polygon fill="white" stroke="black" points="326.5,-49 326.5,-79 471.5,-79 471.5,-49 326.5,-49"/>
<text text-anchor="start" x="334.5" y="-67" font-family="Helvetica,sans-Serif" font-size="10.00">userInterface.LeftPanel.get</text>
<text text-anchor="middle" x="399" y="-56" font-family="Helvetica,sans-Serif" font-size="10.00">Instance</text>
</a>
</g>
</g>
<!-- Node2&#45;&gt;Node40 -->
<g id="edge49" class="edge"><title>Node2&#45;&gt;Node40</title>
<path fill="none" stroke="midnightblue" d="M220.489,-152.396C238.115,-136.741 275.356,-105.696 312,-88 316.035,-86.0515 320.255,-84.237 324.567,-82.5511"/>
<polygon fill="midnightblue" stroke="midnightblue" points="325.925,-85.7814 334.118,-79.0638 323.524,-79.206 325.925,-85.7814"/>
</g>
<!-- Node42 -->
<g id="node42" class="node"><title>Node42</title>
<g id="a_node42"><a xlink:href="../../dc/d1b/classuser_interface_1_1_left_panel.html#a91b78c25a31b4542abda2aec48abbbf3" target="_top" xlink:title="userInterface.LeftPanel.get\lPanel">
<polygon fill="white" stroke="black" points="326.5,-0 326.5,-30 471.5,-30 471.5,-0 326.5,-0"/>
<text text-anchor="start" x="334.5" y="-18" font-family="Helvetica,sans-Serif" font-size="10.00">userInterface.LeftPanel.get</text>
<text text-anchor="middle" x="399" y="-7" font-family="Helvetica,sans-Serif" font-size="10.00">Panel</text>
</a>
</g>
</g>
<!-- Node2&#45;&gt;Node42 -->
<g id="edge51" class="edge"><title>Node2&#45;&gt;Node42</title>
<path fill="none" stroke="midnightblue" d="M215.23,-152.307C228.298,-129.029 264.75,-69.6404 312,-39 314.583,-37.3251 317.283,-35.7656 320.065,-34.3137"/>
<polygon fill="midnightblue" stroke="midnightblue" points="321.626,-37.4476 329.195,-30.0334 318.654,-31.1096 321.626,-37.4476"/>
</g>
<!-- Node4 -->
<g id="node4" class="node"><title>Node4</title>
<g id="a_node4"><a xlink:href="../../d0/d7c/classuser_interface_1_1_u_i.html#a02bd34909b5d6037ea8ebe812879b90a" target="_top" xlink:title="userInterface.UI.makeRun\lButton">
<polygon fill="white" stroke="black" points="522,-273 522,-303 662,-303 662,-273 522,-273"/>
<text text-anchor="start" x="530" y="-291" font-family="Helvetica,sans-Serif" font-size="10.00">userInterface.UI.makeRun</text>
<text text-anchor="middle" x="592" y="-280" font-family="Helvetica,sans-Serif" font-size="10.00">Button</text>
</a>
</g>
</g>
<!-- Node3&#45;&gt;Node4 -->
<g id="edge3" class="edge"><title>Node3&#45;&gt;Node4</title>
<path fill="none" stroke="midnightblue" d="M486.001,-288C494.519,-288 503.139,-288 511.585,-288"/>
<polygon fill="midnightblue" stroke="midnightblue" points="511.784,-291.5 521.784,-288 511.784,-284.5 511.784,-291.5"/>
</g>
<!-- Node5 -->
<g id="node5" class="node"><title>Node5</title>
<g id="a_node5"><a xlink:href="../../d0/d7c/classuser_interface_1_1_u_i.html#ab17592b00ba0b808f524b4fc223303ec" target="_top" xlink:title="userInterface.UI.runCommand">
<polygon fill="white" stroke="black" points="698.5,-278.5 698.5,-297.5 859.5,-297.5 859.5,-278.5 698.5,-278.5"/>
<text text-anchor="middle" x="779" y="-285.5" font-family="Helvetica,sans-Serif" font-size="10.00">userInterface.UI.runCommand</text>
</a>
</g>
</g>
<!-- Node4&#45;&gt;Node5 -->
<g id="edge4" class="edge"><title>Node4&#45;&gt;Node5</title>
<path fill="none" stroke="midnightblue" d="M662.15,-288C670.633,-288 679.397,-288 688.129,-288"/>
<polygon fill="midnightblue" stroke="midnightblue" points="688.346,-291.5 698.346,-288 688.346,-284.5 688.346,-291.5"/>
</g>
<!-- Node6 -->
<g id="node6" class="node"><title>Node6</title>
<g id="a_node6"><a xlink:href="../../d8/d08/classworld_controller_1_1_world_controller.html#a178425d68e3e669c386706153ce44999" target="_top" xlink:title="worldController.WorldController.update">
<polygon fill="white" stroke="black" points="896,-278.5 896,-297.5 1094,-297.5 1094,-278.5 896,-278.5"/>
<text text-anchor="middle" x="995" y="-285.5" font-family="Helvetica,sans-Serif" font-size="10.00">worldController.WorldController.update</text>
</a>
</g>
</g>
<!-- Node5&#45;&gt;Node6 -->
<g id="edge5" class="edge"><title>Node5&#45;&gt;Node6</title>
<path fill="none" stroke="midnightblue" d="M859.686,-288C868.142,-288 876.841,-288 885.554,-288"/>
<polygon fill="midnightblue" stroke="midnightblue" points="885.774,-291.5 895.773,-288 885.773,-284.5 885.774,-291.5"/>
</g>
<!-- Node7 -->
<g id="node7" class="node"><title>Node7</title>
<g id="a_node7"><a xlink:href="../../df/dcb/classturtle_1_1_turtle.html#a610aafaf658c4b351330b7c16c66881c" target="_top" xlink:title="turtle.Turtle.updatePenAttributes">
<polygon fill="white" stroke="black" points="1130.5,-363.5 1130.5,-382.5 1303.5,-382.5 1303.5,-363.5 1130.5,-363.5"/>
<text text-anchor="middle" x="1217" y="-370.5" font-family="Helvetica,sans-Serif" font-size="10.00">turtle.Turtle.updatePenAttributes</text>
</a>
</g>
</g>
<!-- Node6&#45;&gt;Node7 -->
<g id="edge6" class="edge"><title>Node6&#45;&gt;Node7</title>
<path fill="none" stroke="midnightblue" d="M1020.81,-297.585C1060.2,-312.803 1137.13,-342.526 1181.74,-359.764"/>
<polygon fill="midnightblue" stroke="midnightblue" points="1180.69,-363.11 1191.28,-363.45 1183.21,-356.581 1180.69,-363.11"/>
</g>
<!-- Node10 -->
<g id="node10" class="node"><title>Node10</title>
<g id="a_node10"><a xlink:href="../../d9/dd0/classworld_1_1_world.html#ae370733f7784c42741a6ba66c7d2ecf5" target="_top" xlink:title="world.World.listen">
<polygon fill="white" stroke="black" points="1168,-213.5 1168,-232.5 1266,-232.5 1266,-213.5 1168,-213.5"/>
<text text-anchor="middle" x="1217" y="-220.5" font-family="Helvetica,sans-Serif" font-size="10.00">world.World.listen</text>
</a>
</g>
</g>
<!-- Node6&#45;&gt;Node10 -->
<g id="edge9" class="edge"><title>Node6&#45;&gt;Node10</title>
<path fill="none" stroke="midnightblue" d="M1028.46,-278.409C1067.08,-266.999 1131.64,-247.924 1174.02,-235.402"/>
<polygon fill="midnightblue" stroke="midnightblue" points="1175.16,-238.715 1183.76,-232.524 1173.18,-232.001 1175.16,-238.715"/>
</g>
<!-- Node8 -->
<g id="node8" class="node"><title>Node8</title>
<g id="a_node8"><a xlink:href="../../de/d57/classturtle_1_1_pen.html#ac9a08745a9f3615b9e47c1c8e5af8f1b" target="_top" xlink:title="turtle.Pen.getColor">
<polygon fill="white" stroke="black" points="1380.5,-401.5 1380.5,-420.5 1487.5,-420.5 1487.5,-401.5 1380.5,-401.5"/>
<text text-anchor="middle" x="1434" y="-408.5" font-family="Helvetica,sans-Serif" font-size="10.00">turtle.Pen.getColor</text>
</a>
</g>
</g>
<!-- Node7&#45;&gt;Node8 -->
<g id="edge7" class="edge"><title>Node7&#45;&gt;Node8</title>
<path fill="none" stroke="midnightblue" d="M1271.98,-382.54C1301.94,-387.837 1339.36,-394.45 1370.59,-399.969"/>
<polygon fill="midnightblue" stroke="midnightblue" points="1370.03,-403.425 1380.49,-401.719 1371.25,-396.532 1370.03,-403.425"/>
</g>
<!-- Node9 -->
<g id="node9" class="node"><title>Node9</title>
<g id="a_node9"><a xlink:href="../../de/d57/classturtle_1_1_pen.html#a76c8dc4e66927e7d3774ea00b2266640" target="_top" xlink:title="turtle.Pen.getSize">
<polygon fill="white" stroke="black" points="1383,-363.5 1383,-382.5 1485,-382.5 1485,-363.5 1383,-363.5"/>
<text text-anchor="middle" x="1434" y="-370.5" font-family="Helvetica,sans-Serif" font-size="10.00">turtle.Pen.getSize</text>
</a>
</g>
</g>
<!-- Node7&#45;&gt;Node9 -->
<g id="edge8" class="edge"><title>Node7&#45;&gt;Node9</title>
<path fill="none" stroke="midnightblue" d="M1303.59,-373C1326.74,-373 1351.3,-373 1372.73,-373"/>
<polygon fill="midnightblue" stroke="midnightblue" points="1372.98,-376.5 1382.98,-373 1372.98,-369.5 1372.98,-376.5"/>
</g>
<!-- Node11 -->
<g id="node11" class="node"><title>Node11</title>
<g id="a_node11"><a xlink:href="../../d6/d95/classparser_1_1_parser.html#a240c75608624a9c67402a296855c4d1d" target="_top" xlink:title="parser.Parser.initialize\lCommands">
<polygon fill="white" stroke="black" points="1374,-257 1374,-287 1494,-287 1494,-257 1374,-257"/>
<text text-anchor="start" x="1382" y="-275" font-family="Helvetica,sans-Serif" font-size="10.00">parser.Parser.initialize</text>
<text text-anchor="middle" x="1434" y="-264" font-family="Helvetica,sans-Serif" font-size="10.00">Commands</text>
</a>
</g>
</g>
<!-- Node10&#45;&gt;Node11 -->
<g id="edge10" class="edge"><title>Node10&#45;&gt;Node11</title>
<path fill="none" stroke="midnightblue" d="M1259.71,-232.506C1289.27,-239.244 1329.62,-248.44 1363.95,-256.263"/>
<polygon fill="midnightblue" stroke="midnightblue" points="1363.4,-259.727 1373.92,-258.536 1364.95,-252.902 1363.4,-259.727"/>
</g>
<!-- Node15 -->
<g id="node15" class="node"><title>Node15</title>
<g id="a_node15"><a xlink:href="../../d6/d95/classparser_1_1_parser.html#a4ecbffc246c3add017c4720eed4c6da9" target="_top" xlink:title="parser.Parser.parse">
<polygon fill="white" stroke="black" points="1379.5,-325.5 1379.5,-344.5 1488.5,-344.5 1488.5,-325.5 1379.5,-325.5"/>
<text text-anchor="middle" x="1434" y="-332.5" font-family="Helvetica,sans-Serif" font-size="10.00">parser.Parser.parse</text>
</a>
</g>
</g>
<!-- Node10&#45;&gt;Node15 -->
<g id="edge14" class="edge"><title>Node10&#45;&gt;Node15</title>
<path fill="none" stroke="midnightblue" d="M1232.64,-232.691C1255.16,-247.385 1299.91,-275.729 1340,-296 1358.72,-305.465 1380.29,-314.613 1397.94,-321.668"/>
<polygon fill="midnightblue" stroke="midnightblue" points="1396.71,-324.946 1407.3,-325.36 1399.28,-318.435 1396.71,-324.946"/>
</g>
<!-- Node28 -->
<g id="node28" class="node"><title>Node28</title>
<g id="a_node28"><a xlink:href="../../d7/d35/classcommand_1_1_command.html#a957099a70dd30b5dc897e0caf07d2d99" target="_top" xlink:title="command.Command.getCommand\lValues">
<polygon fill="white" stroke="black" points="1340,-208 1340,-238 1528,-238 1528,-208 1340,-208"/>
<text text-anchor="start" x="1348" y="-226" font-family="Helvetica,sans-Serif" font-size="10.00">command.Command.getCommand</text>
<text text-anchor="middle" x="1434" y="-215" font-family="Helvetica,sans-Serif" font-size="10.00">Values</text>
</a>
</g>
</g>
<!-- Node10&#45;&gt;Node28 -->
<g id="edge37" class="edge"><title>Node10&#45;&gt;Node28</title>
<path fill="none" stroke="midnightblue" d="M1266.25,-223C1285.15,-223 1307.59,-223 1329.8,-223"/>
<polygon fill="midnightblue" stroke="midnightblue" points="1329.97,-226.5 1339.97,-223 1329.97,-219.5 1329.97,-226.5"/>
</g>
<!-- Node30 -->
<g id="node30" class="node"><title>Node30</title>
<g id="a_node30"><a xlink:href="../../d6/d95/classparser_1_1_parser.html#a8679d61f4ae6c55910ef113bcdda2c75" target="_top" xlink:title="parser.Parser.updateVariable">
<polygon fill="white" stroke="black" points="1357,-169.5 1357,-188.5 1511,-188.5 1511,-169.5 1357,-169.5"/>
<text text-anchor="middle" x="1434" y="-176.5" font-family="Helvetica,sans-Serif" font-size="10.00">parser.Parser.updateVariable</text>
</a>
</g>
</g>
<!-- Node10&#45;&gt;Node30 -->
<g id="edge39" class="edge"><title>Node10&#45;&gt;Node30</title>
<path fill="none" stroke="midnightblue" d="M1264.34,-213.496C1287.13,-208.825 1315.01,-203.114 1340,-198 1351.73,-195.6 1364.29,-193.032 1376.27,-190.584"/>
<polygon fill="midnightblue" stroke="midnightblue" points="1377.07,-193.994 1386.16,-188.563 1375.67,-187.136 1377.07,-193.994"/>
</g>
<!-- Node32 -->
<g id="node32" class="node"><title>Node32</title>
<g id="a_node32"><a xlink:href="../../d9/dd0/classworld_1_1_world.html#adcbcb8328c7e832fcb710a91457e6772" target="_top" xlink:title="world.World.runCommand">
<polygon fill="white" stroke="black" points="1364.5,-131.5 1364.5,-150.5 1503.5,-150.5 1503.5,-131.5 1364.5,-131.5"/>
<text text-anchor="middle" x="1434" y="-138.5" font-family="Helvetica,sans-Serif" font-size="10.00">world.World.runCommand</text>
</a>
</g>
</g>
<!-- Node10&#45;&gt;Node32 -->
<g id="edge41" class="edge"><title>Node10&#45;&gt;Node32</title>
<path fill="none" stroke="midnightblue" d="M1233.17,-213.413C1255.66,-199.621 1299.54,-174.273 1340,-160 1347.62,-157.311 1355.74,-154.955 1363.88,-152.903"/>
<polygon fill="midnightblue" stroke="midnightblue" points="1364.87,-156.265 1373.79,-150.549 1363.25,-149.455 1364.87,-156.265"/>
</g>
<!-- Node33 -->
<g id="node33" class="node"><title>Node33</title>
<g id="a_node33"><a xlink:href="../../d6/d95/classparser_1_1_parser.html#acebafe1593fc1f09ac31c7104438e4b1" target="_top" xlink:title="parser.Parser.resetRepcount">
<polygon fill="white" stroke="black" points="1358.5,-93.5 1358.5,-112.5 1509.5,-112.5 1509.5,-93.5 1358.5,-93.5"/>
<text text-anchor="middle" x="1434" y="-100.5" font-family="Helvetica,sans-Serif" font-size="10.00">parser.Parser.resetRepcount</text>
</a>
</g>
</g>
<!-- Node10&#45;&gt;Node33 -->
<g id="edge42" class="edge"><title>Node10&#45;&gt;Node33</title>
<path fill="none" stroke="midnightblue" d="M1226.39,-213.416C1244.77,-193.072 1290.89,-145.51 1340,-122 1345.24,-119.493 1350.79,-117.316 1356.48,-115.425"/>
<polygon fill="midnightblue" stroke="midnightblue" points="1357.59,-118.748 1366.15,-112.507 1355.57,-112.046 1357.59,-118.748"/>
</g>
<!-- Node12 -->
<g id="node12" class="node"><title>Node12</title>
<g id="a_node12"><a xlink:href="../../d6/d95/classparser_1_1_parser.html#a4f582c65390bddc57219c0b5c31ef5e7" target="_top" xlink:title="parser.Parser.makeTree">
<polygon fill="white" stroke="black" points="1594,-251.5 1594,-270.5 1722,-270.5 1722,-251.5 1594,-251.5"/>
<text text-anchor="middle" x="1658" y="-258.5" font-family="Helvetica,sans-Serif" font-size="10.00">parser.Parser.makeTree</text>
</a>
</g>
</g>
<!-- Node11&#45;&gt;Node12 -->
<g id="edge11" class="edge"><title>Node11&#45;&gt;Node12</title>
<path fill="none" stroke="midnightblue" d="M1494.2,-269.067C1521.66,-267.706 1554.57,-266.075 1583.6,-264.637"/>
<polygon fill="midnightblue" stroke="midnightblue" points="1583.87,-268.128 1593.69,-264.137 1583.53,-261.136 1583.87,-268.128"/>
</g>
<!-- Node13 -->
<g id="node13" class="node"><title>Node13</title>
<g id="a_node13"><a xlink:href="../../d9/d1b/classcommand_1_1_command_factory.html#a87bf7e648425bb22124367cabedb3327" target="_top" xlink:title="command.CommandFactory.get\lNumParameters">
<polygon fill="white" stroke="black" points="1807,-203 1807,-233 1977,-233 1977,-203 1807,-203"/>
<text text-anchor="start" x="1815" y="-221" font-family="Helvetica,sans-Serif" font-size="10.00">command.CommandFactory.get</text>
<text text-anchor="middle" x="1892" y="-210" font-family="Helvetica,sans-Serif" font-size="10.00">NumParameters</text>
</a>
</g>
</g>
<!-- Node12&#45;&gt;Node13 -->
<g id="edge12" class="edge"><title>Node12&#45;&gt;Node13</title>
<path fill="none" stroke="midnightblue" d="M1710.49,-251.457C1736.75,-246.589 1769.49,-240.521 1799.85,-234.895"/>
<polygon fill="midnightblue" stroke="midnightblue" points="1800.84,-238.27 1810.04,-233.006 1799.57,-231.387 1800.84,-238.27"/>
</g>
<!-- Node14 -->
<g id="node14" class="node"><title>Node14</title>
<g id="a_node14"><a xlink:href="../../d9/d1b/classcommand_1_1_command_factory.html#a947fdc151e857ea74564d0d1fe268246" target="_top" xlink:title="command.CommandFactory.translate\lCommand">
<polygon fill="white" stroke="black" points="2032.5,-225 2032.5,-255 2229.5,-255 2229.5,-225 2032.5,-225"/>
<text text-anchor="start" x="2040.5" y="-243" font-family="Helvetica,sans-Serif" font-size="10.00">command.CommandFactory.translate</text>
<text text-anchor="middle" x="2131" y="-232" font-family="Helvetica,sans-Serif" font-size="10.00">Command</text>
</a>
</g>
</g>
<!-- Node13&#45;&gt;Node14 -->
<g id="edge13" class="edge"><title>Node13&#45;&gt;Node14</title>
<path fill="none" stroke="midnightblue" d="M1977.22,-225.818C1991.71,-227.163 2006.94,-228.577 2021.95,-229.97"/>
<polygon fill="midnightblue" stroke="midnightblue" points="2022.01,-233.491 2032.29,-230.93 2022.66,-226.521 2022.01,-233.491"/>
</g>
<!-- Node15&#45;&gt;Node12 -->
<g id="edge36" class="edge"><title>Node15&#45;&gt;Node12</title>
<path fill="none" stroke="midnightblue" d="M1458.37,-325.359C1477.21,-317.548 1504.37,-306.203 1528,-296 1544.07,-289.058 1547.32,-285.339 1564,-280 1572.53,-277.269 1581.63,-274.841 1590.67,-272.711"/>
<polygon fill="midnightblue" stroke="midnightblue" points="1591.44,-276.125 1600.43,-270.516 1589.91,-269.296 1591.44,-276.125"/>
</g>
<!-- Node16 -->
<g id="node16" class="node"><title>Node16</title>
<g id="a_node16"><a xlink:href="../../d9/d1b/classcommand_1_1_command_factory.html#ab25bb047b051661d31adf73b2dae5649" target="_top" xlink:title="command.CommandFactory.create\lCommand">
<polygon fill="white" stroke="black" points="1565.5,-290 1565.5,-320 1750.5,-320 1750.5,-290 1565.5,-290"/>
<text text-anchor="start" x="1573.5" y="-308" font-family="Helvetica,sans-Serif" font-size="10.00">command.CommandFactory.create</text>
<text text-anchor="middle" x="1658" y="-297" font-family="Helvetica,sans-Serif" font-size="10.00">Command</text>
</a>
</g>
</g>
<!-- Node15&#45;&gt;Node16 -->
<g id="edge15" class="edge"><title>Node15&#45;&gt;Node16</title>
<path fill="none" stroke="midnightblue" d="M1488.74,-327.738C1508.75,-325.034 1532.18,-321.868 1555.08,-318.772"/>
<polygon fill="midnightblue" stroke="midnightblue" points="1555.77,-322.212 1565.21,-317.404 1554.83,-315.275 1555.77,-322.212"/>
</g>
<!-- Node18 -->
<g id="node18" class="node"><title>Node18</title>
<g id="a_node18"><a xlink:href="../../d6/d95/classparser_1_1_parser.html#aac1cff62f68138c7e977a67d39671701" target="_top" xlink:title="parser.Parser.generateCommand\lInput">
<polygon fill="white" stroke="black" points="1570,-437 1570,-467 1746,-467 1746,-437 1570,-437"/>
<text text-anchor="start" x="1578" y="-455" font-family="Helvetica,sans-Serif" font-size="10.00">parser.Parser.generateCommand</text>
<text text-anchor="middle" x="1658" y="-444" font-family="Helvetica,sans-Serif" font-size="10.00">Input</text>
</a>
</g>
</g>
<!-- Node15&#45;&gt;Node18 -->
<g id="edge18" class="edge"><title>Node15&#45;&gt;Node18</title>
<path fill="none" stroke="midnightblue" d="M1488.72,-337.556C1502.6,-340.359 1516.78,-345.343 1528,-354 1556.64,-376.096 1536.05,-404.039 1564,-427 1566.03,-428.671 1568.17,-430.232 1570.39,-431.688"/>
<polygon fill="midnightblue" stroke="midnightblue" points="1568.89,-434.863 1579.3,-436.808 1572.38,-428.793 1568.89,-434.863"/>
</g>
<!-- Node23 -->
<g id="node23" class="node"><title>Node23</title>
<g id="a_node23"><a xlink:href="../../d6/d95/classparser_1_1_parser.html#a3efcd1192e76101919526b4a5e0046f4" target="_top" xlink:title="parser.Parser.getNodeBefore\lToReplace">
<polygon fill="white" stroke="black" points="1580.5,-388 1580.5,-418 1735.5,-418 1735.5,-388 1580.5,-388"/>
<text text-anchor="start" x="1588.5" y="-406" font-family="Helvetica,sans-Serif" font-size="10.00">parser.Parser.getNodeBefore</text>
<text text-anchor="middle" x="1658" y="-395" font-family="Helvetica,sans-Serif" font-size="10.00">ToReplace</text>
</a>
</g>
</g>
<!-- Node15&#45;&gt;Node23 -->
<g id="edge23" class="edge"><title>Node15&#45;&gt;Node23</title>
<path fill="none" stroke="midnightblue" d="M1488.69,-342.3C1501.84,-345.079 1515.68,-348.866 1528,-354 1545.75,-361.396 1546.48,-370.066 1564,-378 1569.37,-380.431 1575.02,-382.666 1580.77,-384.713"/>
<polygon fill="midnightblue" stroke="midnightblue" points="1579.93,-388.122 1590.52,-387.983 1582.16,-381.485 1579.93,-388.122"/>
</g>
<!-- Node26 -->
<g id="node26" class="node"><title>Node26</title>
<g id="a_node26"><a xlink:href="../../d6/d95/classparser_1_1_parser.html#a447c473b62ba23b7c144df9bb38a9a41" target="_top" xlink:title="parser.Parser.getNodeFor\lCommand">
<polygon fill="white" stroke="black" points="1589,-339 1589,-369 1727,-369 1727,-339 1589,-339"/>
<text text-anchor="start" x="1597" y="-357" font-family="Helvetica,sans-Serif" font-size="10.00">parser.Parser.getNodeFor</text>
<text text-anchor="middle" x="1658" y="-346" font-family="Helvetica,sans-Serif" font-size="10.00">Command</text>
</a>
</g>
</g>
<!-- Node15&#45;&gt;Node26 -->
<g id="edge29" class="edge"><title>Node15&#45;&gt;Node26</title>
<path fill="none" stroke="midnightblue" d="M1488.74,-339.599C1515.6,-341.898 1548.62,-344.724 1578.28,-347.262"/>
<polygon fill="midnightblue" stroke="midnightblue" points="1578.35,-350.781 1588.61,-348.147 1578.94,-343.807 1578.35,-350.781"/>
</g>
<!-- Node27 -->
<g id="node27" class="node"><title>Node27</title>
<g id="a_node27"><a xlink:href="../../d3/dcc/classparser_1_1_node.html#a066da2b478008f39a02440d7afceb9ee" target="_top" xlink:title="parser.Node.insertChild">
<polygon fill="white" stroke="black" points="1594,-486.5 1594,-505.5 1722,-505.5 1722,-486.5 1594,-486.5"/>
<text text-anchor="middle" x="1658" y="-493.5" font-family="Helvetica,sans-Serif" font-size="10.00">parser.Node.insertChild</text>
</a>
</g>
</g>
<!-- Node15&#45;&gt;Node27 -->
<g id="edge34" class="edge"><title>Node15&#45;&gt;Node27</title>
<path fill="none" stroke="midnightblue" d="M1488.79,-336.137C1502.99,-338.883 1517.32,-344.193 1528,-354 1569.65,-392.232 1522.55,-437.554 1564,-476 1569.79,-481.37 1576.66,-485.432 1584.01,-488.486"/>
<polygon fill="midnightblue" stroke="midnightblue" points="1582.93,-491.817 1593.52,-491.84 1585.25,-485.215 1582.93,-491.817"/>
</g>
<!-- Node16&#45;&gt;Node14 -->
<g id="edge17" class="edge"><title>Node16&#45;&gt;Node14</title>
<path fill="none" stroke="midnightblue" d="M1735.26,-289.968C1752.56,-286.793 1770.89,-283.615 1788,-281 1866.16,-269.058 1954.8,-258.515 2022.26,-251.111"/>
<polygon fill="midnightblue" stroke="midnightblue" points="2022.92,-254.561 2032.48,-249.996 2022.16,-247.602 2022.92,-254.561"/>
</g>
<!-- Node17 -->
<g id="node17" class="node"><title>Node17</title>
<g id="a_node17"><a xlink:href="../../d9/d1b/classcommand_1_1_command_factory.html#abd97ea3e22afc09e07ed1d4fd039d11f" target="_top" xlink:title="command.CommandFactory.reflectCMD">
<polygon fill="white" stroke="black" points="1788.5,-290.5 1788.5,-309.5 1995.5,-309.5 1995.5,-290.5 1788.5,-290.5"/>
<text text-anchor="middle" x="1892" y="-297.5" font-family="Helvetica,sans-Serif" font-size="10.00">command.CommandFactory.reflectCMD</text>
</a>
</g>
</g>
<!-- Node16&#45;&gt;Node17 -->
<g id="edge16" class="edge"><title>Node16&#45;&gt;Node17</title>
<path fill="none" stroke="midnightblue" d="M1750.69,-303.024C1759.81,-302.827 1769.13,-302.626 1778.43,-302.426"/>
<polygon fill="midnightblue" stroke="midnightblue" points="1778.57,-305.924 1788.49,-302.209 1778.42,-298.926 1778.57,-305.924"/>
</g>
<!-- Node19 -->
<g id="node19" class="node"><title>Node19</title>
<g id="a_node19"><a xlink:href="../../d3/dcc/classparser_1_1_node.html#aa67bc0d39227232943abec9b95b23235" target="_top" xlink:title="parser.Node.getChild1">
<polygon fill="white" stroke="black" points="1830.5,-404.5 1830.5,-423.5 1953.5,-423.5 1953.5,-404.5 1830.5,-404.5"/>
<text text-anchor="middle" x="1892" y="-411.5" font-family="Helvetica,sans-Serif" font-size="10.00">parser.Node.getChild1</text>
</a>
</g>
</g>
<!-- Node18&#45;&gt;Node19 -->
<g id="edge19" class="edge"><title>Node18&#45;&gt;Node19</title>
<path fill="none" stroke="midnightblue" d="M1746.05,-437.742C1771.36,-433.596 1798.64,-429.128 1822.63,-425.199"/>
<polygon fill="midnightblue" stroke="midnightblue" points="1823.39,-428.621 1832.69,-423.55 1822.26,-421.713 1823.39,-428.621"/>
</g>
<!-- Node20 -->
<g id="node20" class="node"><title>Node20</title>
<g id="a_node20"><a xlink:href="../../d3/dcc/classparser_1_1_node.html#a0f13775acc62af77cdde90dbeaf26bbc" target="_top" xlink:title="parser.Node.getChild2">
<polygon fill="white" stroke="black" points="1830.5,-442.5 1830.5,-461.5 1953.5,-461.5 1953.5,-442.5 1830.5,-442.5"/>
<text text-anchor="middle" x="1892" y="-449.5" font-family="Helvetica,sans-Serif" font-size="10.00">parser.Node.getChild2</text>
</a>
</g>
</g>
<!-- Node18&#45;&gt;Node20 -->
<g id="edge20" class="edge"><title>Node18&#45;&gt;Node20</title>
<path fill="none" stroke="midnightblue" d="M1746.05,-452C1770.46,-452 1796.71,-452 1820.07,-452"/>
<polygon fill="midnightblue" stroke="midnightblue" points="1820.23,-455.5 1830.23,-452 1820.23,-448.5 1820.23,-455.5"/>
</g>
<!-- Node21 -->
<g id="node21" class="node"><title>Node21</title>
<g id="a_node21"><a xlink:href="../../d3/dcc/classparser_1_1_node.html#a9c12e8d4375a7517eae0a35724b253c4" target="_top" xlink:title="parser.Node.getValue">
<polygon fill="white" stroke="black" points="1832,-480.5 1832,-499.5 1952,-499.5 1952,-480.5 1832,-480.5"/>
<text text-anchor="middle" x="1892" y="-487.5" font-family="Helvetica,sans-Serif" font-size="10.00">parser.Node.getValue</text>
</a>
</g>
</g>
<!-- Node18&#45;&gt;Node21 -->
<g id="edge21" class="edge"><title>Node18&#45;&gt;Node21</title>
<path fill="none" stroke="midnightblue" d="M1746.05,-466.258C1771.36,-470.404 1798.64,-474.872 1822.63,-478.801"/>
<polygon fill="midnightblue" stroke="midnightblue" points="1822.26,-482.287 1832.69,-480.45 1823.39,-475.379 1822.26,-482.287"/>
</g>
<!-- Node22 -->
<g id="node22" class="node"><title>Node22</title>
<g id="a_node22"><a xlink:href="../../d3/dcc/classparser_1_1_node.html#a6bbc0c61aaa261077eb87cfc4e2b45dc" target="_top" xlink:title="parser.Node.numChildren">
<polygon fill="white" stroke="black" points="1822.5,-518.5 1822.5,-537.5 1961.5,-537.5 1961.5,-518.5 1822.5,-518.5"/>
<text text-anchor="middle" x="1892" y="-525.5" font-family="Helvetica,sans-Serif" font-size="10.00">parser.Node.numChildren</text>
</a>
</g>
</g>
<!-- Node18&#45;&gt;Node22 -->
<g id="edge22" class="edge"><title>Node18&#45;&gt;Node22</title>
<path fill="none" stroke="midnightblue" d="M1729.43,-467.148C1737.25,-469.931 1744.94,-473.19 1752,-477 1770.84,-487.162 1768.77,-499.601 1788,-509 1795.63,-512.73 1803.91,-515.731 1812.34,-518.145"/>
<polygon fill="midnightblue" stroke="midnightblue" points="1811.72,-521.601 1822.28,-520.718 1813.48,-514.824 1811.72,-521.601"/>
</g>
<!-- Node23&#45;&gt;Node19 -->
<g id="edge24" class="edge"><title>Node23&#45;&gt;Node19</title>
<path fill="none" stroke="midnightblue" d="M1735.61,-406.632C1762.88,-407.925 1793.44,-409.374 1820.2,-410.643"/>
<polygon fill="midnightblue" stroke="midnightblue" points="1820.1,-414.142 1830.26,-411.12 1820.43,-407.15 1820.1,-414.142"/>
</g>
<!-- Node23&#45;&gt;Node20 -->
<g id="edge25" class="edge"><title>Node23&#45;&gt;Node20</title>
<path fill="none" stroke="midnightblue" d="M1720.88,-418C1742.11,-422.985 1766.05,-428.426 1788,-433 1800.43,-435.591 1813.74,-438.182 1826.53,-440.58"/>
<polygon fill="midnightblue" stroke="midnightblue" points="1826.18,-444.074 1836.65,-442.459 1827.46,-437.192 1826.18,-444.074"/>
</g>
<!-- Node23&#45;&gt;Node21 -->
<g id="edge26" class="edge"><title>Node23&#45;&gt;Node21</title>
<path fill="none" stroke="midnightblue" d="M1734.85,-418.146C1740.86,-420.658 1746.66,-423.587 1752,-427 1773.29,-440.61 1766.25,-458.145 1788,-471 1798.27,-477.071 1810.05,-481.278 1821.88,-484.178"/>
<polygon fill="midnightblue" stroke="midnightblue" points="1821.29,-487.63 1831.8,-486.318 1822.76,-480.788 1821.29,-487.63"/>
</g>
<!-- Node24 -->
<g id="node24" class="node"><title>Node24</title>
<g id="a_node24"><a xlink:href="../../d3/dcc/classparser_1_1_node.html#ab14db24c0724dec4387e29d513008e2e" target="_top" xlink:title="parser.Node.hasChildren">
<polygon fill="white" stroke="black" points="1825,-328.5 1825,-347.5 1959,-347.5 1959,-328.5 1825,-328.5"/>
<text text-anchor="middle" x="1892" y="-335.5" font-family="Helvetica,sans-Serif" font-size="10.00">parser.Node.hasChildren</text>
</a>
</g>
</g>
<!-- Node23&#45;&gt;Node24 -->
<g id="edge27" class="edge"><title>Node23&#45;&gt;Node24</title>
<path fill="none" stroke="midnightblue" d="M1723.78,-387.97C1733.38,-385.06 1743.05,-381.735 1752,-378 1769.09,-370.866 1770.63,-363.443 1788,-357 1796.58,-353.818 1805.76,-351.154 1814.98,-348.925"/>
<polygon fill="midnightblue" stroke="midnightblue" points="1815.98,-352.286 1824.97,-346.675 1814.45,-345.458 1815.98,-352.286"/>
</g>
<!-- Node25 -->
<g id="node25" class="node"><title>Node25</title>
<g id="a_node25"><a xlink:href="../../d3/dcc/classparser_1_1_node.html#aa92667a825777b3d757bc3b1a247ac20" target="_top" xlink:title="parser.Node.isLeaf">
<polygon fill="white" stroke="black" points="1839,-366.5 1839,-385.5 1945,-385.5 1945,-366.5 1839,-366.5"/>
<text text-anchor="middle" x="1892" y="-373.5" font-family="Helvetica,sans-Serif" font-size="10.00">parser.Node.isLeaf</text>
</a>
</g>
</g>
<!-- Node23&#45;&gt;Node25 -->
<g id="edge28" class="edge"><title>Node23&#45;&gt;Node25</title>
<path fill="none" stroke="midnightblue" d="M1735.61,-394.084C1765.7,-390.582 1799.81,-386.613 1828.38,-383.287"/>
<polygon fill="midnightblue" stroke="midnightblue" points="1829.12,-386.726 1838.65,-382.093 1828.31,-379.773 1829.12,-386.726"/>
</g>
<!-- Node26&#45;&gt;Node19 -->
<g id="edge30" class="edge"><title>Node26&#45;&gt;Node19</title>
<path fill="none" stroke="midnightblue" d="M1724.02,-369.103C1733.49,-371.787 1743.06,-374.769 1752,-378 1768.64,-384.015 1771.16,-389.572 1788,-395 1798.34,-398.331 1809.45,-401.142 1820.43,-403.494"/>
<polygon fill="midnightblue" stroke="midnightblue" points="1819.94,-406.967 1830.44,-405.527 1821.33,-400.107 1819.94,-406.967"/>
</g>
<!-- Node26&#45;&gt;Node20 -->
<g id="edge31" class="edge"><title>Node26&#45;&gt;Node20</title>
<path fill="none" stroke="midnightblue" d="M1727.18,-365.271C1736,-368.502 1744.55,-372.657 1752,-378 1775.75,-395.02 1763.67,-416.823 1788,-433 1797.66,-439.425 1808.91,-443.827 1820.34,-446.816"/>
<polygon fill="midnightblue" stroke="midnightblue" points="1819.88,-450.3 1830.41,-449.094 1821.43,-443.473 1819.88,-450.3"/>
</g>
<!-- Node26&#45;&gt;Node24 -->
<g id="edge32" class="edge"><title>Node26&#45;&gt;Node24</title>
<path fill="none" stroke="midnightblue" d="M1727.04,-349.308C1754.55,-347.411 1786.42,-345.212 1814.71,-343.261"/>
<polygon fill="midnightblue" stroke="midnightblue" points="1815.22,-346.734 1824.96,-342.555 1814.74,-339.751 1815.22,-346.734"/>
</g>
<!-- Node26&#45;&gt;Node25 -->
<g id="edge33" class="edge"><title>Node26&#45;&gt;Node25</title>
<path fill="none" stroke="midnightblue" d="M1727.04,-360.452C1759.11,-363.494 1797.12,-367.098 1828.47,-370.07"/>
<polygon fill="midnightblue" stroke="midnightblue" points="1828.54,-373.592 1838.82,-371.052 1829.2,-366.624 1828.54,-373.592"/>
</g>
<!-- Node27&#45;&gt;Node21 -->
<g id="edge35" class="edge"><title>Node27&#45;&gt;Node21</title>
<path fill="none" stroke="midnightblue" d="M1722.09,-494.368C1752.96,-493.57 1790.2,-492.607 1821.85,-491.788"/>
<polygon fill="midnightblue" stroke="midnightblue" points="1822.01,-495.286 1831.91,-491.528 1821.82,-488.288 1822.01,-495.286"/>
</g>
<!-- Node29 -->
<g id="node29" class="node"><title>Node29</title>
<g id="a_node29"><a xlink:href="../../d7/d35/classcommand_1_1_command.html#a7e1387db1d0d35d4dcd3a3ebe2ff902a" target="_top" xlink:title="command.Command.makeString">
<polygon fill="white" stroke="black" points="1569.5,-213.5 1569.5,-232.5 1746.5,-232.5 1746.5,-213.5 1569.5,-213.5"/>
<text text-anchor="middle" x="1658" y="-220.5" font-family="Helvetica,sans-Serif" font-size="10.00">command.Command.makeString</text>
</a>
</g>
</g>
<!-- Node28&#45;&gt;Node29 -->
<g id="edge38" class="edge"><title>Node28&#45;&gt;Node29</title>
<path fill="none" stroke="midnightblue" d="M1528.18,-223C1538.42,-223 1548.86,-223 1559.15,-223"/>
<polygon fill="midnightblue" stroke="midnightblue" points="1559.37,-226.5 1569.37,-223 1559.37,-219.5 1559.37,-226.5"/>
</g>
<!-- Node31 -->
<g id="node31" class="node"><title>Node31</title>
<g id="a_node31"><a xlink:href="../../d9/d1b/classcommand_1_1_command_factory.html#a8347db76764ea8308d029789b49519dd" target="_top" xlink:title="command.CommandFactory.update\lVariable">
<polygon fill="white" stroke="black" points="1564,-164 1564,-194 1752,-194 1752,-164 1564,-164"/>
<text text-anchor="start" x="1572" y="-182" font-family="Helvetica,sans-Serif" font-size="10.00">command.CommandFactory.update</text>
<text text-anchor="middle" x="1658" y="-171" font-family="Helvetica,sans-Serif" font-size="10.00">Variable</text>
</a>
</g>
</g>
<!-- Node30&#45;&gt;Node31 -->
<g id="edge40" class="edge"><title>Node30&#45;&gt;Node31</title>
<path fill="none" stroke="midnightblue" d="M1511.09,-179C1524.72,-179 1539.14,-179 1553.4,-179"/>
<polygon fill="midnightblue" stroke="midnightblue" points="1553.73,-182.5 1563.73,-179 1553.73,-175.5 1553.73,-182.5"/>
</g>
<!-- Node34 -->
<g id="node34" class="node"><title>Node34</title>
<g id="a_node34"><a xlink:href="../../d9/d1b/classcommand_1_1_command_factory.html#a0d59e4f0f925b5046957c0e054ce8bef" target="_top" xlink:title="command.CommandFactory.reset\lRepcount">
<polygon fill="white" stroke="black" points="1568.5,-88 1568.5,-118 1747.5,-118 1747.5,-88 1568.5,-88"/>
<text text-anchor="start" x="1576.5" y="-106" font-family="Helvetica,sans-Serif" font-size="10.00">command.CommandFactory.reset</text>
<text text-anchor="middle" x="1658" y="-95" font-family="Helvetica,sans-Serif" font-size="10.00">Repcount</text>
</a>
</g>
</g>
<!-- Node33&#45;&gt;Node34 -->
<g id="edge43" class="edge"><title>Node33&#45;&gt;Node34</title>
<path fill="none" stroke="midnightblue" d="M1509.54,-103C1525.19,-103 1541.92,-103 1558.29,-103"/>
<polygon fill="midnightblue" stroke="midnightblue" points="1558.43,-106.5 1568.43,-103 1558.43,-99.5001 1558.43,-106.5"/>
</g>
<!-- Node38 -->
<g id="node38" class="node"><title>Node38</title>
<g id="a_node38"><a xlink:href="../../de/df4/classuser_interface_1_1_right_panel.html#a444679df7a56d1cfea2ed417f0ed4f7d" target="_top" xlink:title="userInterface.RightPanel.\lRightPanel">
<polygon fill="white" stroke="black" points="524.5,-147 524.5,-177 659.5,-177 659.5,-147 524.5,-147"/>
<text text-anchor="start" x="532.5" y="-165" font-family="Helvetica,sans-Serif" font-size="10.00">userInterface.RightPanel.</text>
<text text-anchor="middle" x="592" y="-154" font-family="Helvetica,sans-Serif" font-size="10.00">RightPanel</text>
</a>
</g>
</g>
<!-- Node37&#45;&gt;Node38 -->
<g id="edge47" class="edge"><title>Node37&#45;&gt;Node38</title>
<path fill="none" stroke="midnightblue" d="M474.666,-162C487.628,-162 501.128,-162 514.147,-162"/>
<polygon fill="midnightblue" stroke="midnightblue" points="514.465,-165.5 524.465,-162 514.465,-158.5 514.465,-165.5"/>
</g>
<!-- Node41 -->
<g id="node41" class="node"><title>Node41</title>
<g id="a_node41"><a xlink:href="../../dc/d1b/classuser_interface_1_1_left_panel.html#a0fcdcf8b427a868a7069ac627eea1b43" target="_top" xlink:title="userInterface.LeftPanel.\lLeftPanel">
<polygon fill="white" stroke="black" points="527.5,-49 527.5,-79 656.5,-79 656.5,-49 527.5,-49"/>
<text text-anchor="start" x="535.5" y="-67" font-family="Helvetica,sans-Serif" font-size="10.00">userInterface.LeftPanel.</text>
<text text-anchor="middle" x="592" y="-56" font-family="Helvetica,sans-Serif" font-size="10.00">LeftPanel</text>
</a>
</g>
</g>
<!-- Node40&#45;&gt;Node41 -->
<g id="edge50" class="edge"><title>Node40&#45;&gt;Node41</title>
<path fill="none" stroke="midnightblue" d="M471.665,-64C486.544,-64 502.247,-64 517.202,-64"/>
<polygon fill="midnightblue" stroke="midnightblue" points="517.415,-67.5001 527.415,-64 517.415,-60.5001 517.415,-67.5001"/>
</g>
</g>
</svg>
        <g id="navigator" transform="translate(0 0)" fill="#404254">
                <rect fill="#f2f5e9" fill-opacity="0.5" stroke="#606060" stroke-width=".5" x="0" y="0" width="60" height="60"/>
                <use id="zoomplus" xlink:href="#zoomPlus" x="17" y="9" onmousedown="handleZoom(evt,'in')"/>
                <use id="zoomminus" xlink:href="#zoomMin" x="42" y="9" onmousedown="handleZoom(evt,'out')"/>
                <use id="reset" xlink:href="#resetDef" x="30" y="36" onmousedown="handleReset()"/>
                <g id="arrowUp" xlink:href="#dirArrow" transform="translate(30 24)" onmousedown="handlePan(0,-1)">
                  <use xlink:href="#rim" fill="#404040">
                        <set attributeName="fill" to="#808080" begin="arrowUp.mouseover" end="arrowUp.mouseout"/>
                  </use>
                  <path fill="none" stroke="white" stroke-width="1.5" d="M0,-3.0v7 M-2.5,-0.5L0,-3.0L2.5,-0.5"/>
                </g>
                <g id="arrowRight" xlink:href="#dirArrow" transform="rotate(90) translate(36 -43)" onmousedown="handlePan(1,0)">
                  <use xlink:href="#rim" fill="#404040">
                        <set attributeName="fill" to="#808080" begin="arrowRight.mouseover" end="arrowRight.mouseout"/>
                  </use>
                  <path fill="none" stroke="white" stroke-width="1.5" d="M0,-3.0v7 M-2.5,-0.5L0,-3.0L2.5,-0.5"/>
                </g>
                <g id="arrowDown" xlink:href="#dirArrow" transform="rotate(180) translate(-30 -48)" onmousedown="handlePan(0,1)">
                  <use xlink:href="#rim" fill="#404040">
                        <set attributeName="fill" to="#808080" begin="arrowDown.mouseover" end="arrowDown.mouseout"/>
                  </use>
                  <path fill="none" stroke="white" stroke-width="1.5" d="M0,-3.0v7 M-2.5,-0.5L0,-3.0L2.5,-0.5"/>
                </g>
                <g id="arrowLeft" xlink:href="#dirArrow" transform="rotate(270) translate(-36 17)" onmousedown="handlePan(-1,0)">
                  <use xlink:href="#rim" fill="#404040">
                        <set attributeName="fill" to="#808080" begin="arrowLeft.mouseover" end="arrowLeft.mouseout"/>
                  </use>
                  <path fill="none" stroke="white" stroke-width="1.5" d="M0,-3.0v7 M-2.5,-0.5L0,-3.0L2.5,-0.5"/>
                </g>
        </g>
        <svg viewBox="0 0 15 15" width="100%" height="30px" preserveAspectRatio="xMaxYMin meet">
         <g id="arrow_out" transform="scale(0.3 0.3)">
          <a xlink:href="classuser_interface_1_1_u_i_aad82f35446d97cd94d5003a2b995e264_cgraph_org.svg" target="_base">
           <rect id="button" ry="5" rx="5" y="6" x="6" height="38" width="38"
                fill="#f2f5e9" fill-opacity="0.5" stroke="#606060" stroke-width="1.0"/>
           <path id="arrow"
             d="M 11.500037,31.436501 C 11.940474,20.09759 22.043105,11.32322 32.158766,21.979434 L 37.068811,17.246167 C 37.068811,17.246167 37.088388,32 37.088388,32 L 22.160133,31.978069 C 22.160133,31.978069 26.997745,27.140456 26.997745,27.140456 C 18.528582,18.264221 13.291696,25.230495 11.500037,31.436501 z"
             style="fill:#404040;"/>
          </a>
         </g>
        </svg>
</svg>
