<?xml version="1.0" encoding="UTF-8" standalone="no"?>
<!DOCTYPE svg PUBLIC "-//W3C//DTD SVG 1.1//EN"
 "http://www.w3.org/Graphics/SVG/1.1/DTD/svg11.dtd">
<!-- Generated by graphviz version 2.36.0 (20140111.2315)
 -->
<!-- Title: userInterface.UI.runCommand Pages: 1 -->
<svg width="1552pt" height="548pt"
 viewBox="0.00 0.00 1552.00 548.00" xmlns="http://www.w3.org/2000/svg" xmlns:xlink="http://www.w3.org/1999/xlink">
<g id="graph0" class="graph" transform="scale(1 1) rotate(0) translate(4 544)">
<title>userInterface.UI.runCommand</title>
<polygon fill="white" stroke="none" points="-4,4 -4,-544 1548,-544 1548,4 -4,4"/>
<!-- Node1 -->
<g id="node1" class="node"><title>Node1</title>
<polygon fill="#bfbfbf" stroke="black" points="0.5,-356.5 0.5,-375.5 161.5,-375.5 161.5,-356.5 0.5,-356.5"/>
<text text-anchor="middle" x="81" y="-363.5" font-family="Helvetica,sans-Serif" font-size="10.00">userInterface.UI.runCommand</text>
</g>
<!-- Node2 -->
<g id="node2" class="node"><title>Node2</title>
<g id="a_node2"><a xlink:href="../../d8/d08/classworld_controller_1_1_world_controller.html#a178425d68e3e669c386706153ce44999" target="_top" xlink:title="worldController.WorldController.update">
<polygon fill="white" stroke="black" points="198,-356.5 198,-375.5 396,-375.5 396,-356.5 198,-356.5"/>
<text text-anchor="middle" x="297" y="-363.5" font-family="Helvetica,sans-Serif" font-size="10.00">worldController.WorldController.update</text>
</a>
</g>
</g>
<!-- Node1&#45;&gt;Node2 -->
<g id="edge1" class="edge"><title>Node1&#45;&gt;Node2</title>
<path fill="none" stroke="midnightblue" d="M161.686,-366C170.142,-366 178.841,-366 187.554,-366"/>
<polygon fill="midnightblue" stroke="midnightblue" points="187.774,-369.5 197.773,-366 187.773,-362.5 187.774,-369.5"/>
</g>
<!-- Node3 -->
<g id="node3" class="node"><title>Node3</title>
<g id="a_node3"><a xlink:href="../../df/dcb/classturtle_1_1_turtle.html#a610aafaf658c4b351330b7c16c66881c" target="_top" xlink:title="turtle.Turtle.updatePenAttributes">
<polygon fill="white" stroke="black" points="439.5,-482.5 439.5,-501.5 612.5,-501.5 612.5,-482.5 439.5,-482.5"/>
<text text-anchor="middle" x="526" y="-489.5" font-family="Helvetica,sans-Serif" font-size="10.00">turtle.Turtle.updatePenAttributes</text>
</a>
</g>
</g>
<!-- Node2&#45;&gt;Node3 -->
<g id="edge2" class="edge"><title>Node2&#45;&gt;Node3</title>
<path fill="none" stroke="midnightblue" d="M315.435,-375.678C355.063,-397.674 452.079,-451.524 498.891,-477.508"/>
<polygon fill="midnightblue" stroke="midnightblue" points="497.374,-480.669 507.816,-482.462 500.771,-474.548 497.374,-480.669"/>
</g>
<!-- Node6 -->
<g id="node6" class="node"><title>Node6</title>
<g id="a_node6"><a xlink:href="../../d9/dd0/classworld_1_1_world.html#ae370733f7784c42741a6ba66c7d2ecf5" target="_top" xlink:title="world.World.listen">
<polygon fill="white" stroke="black" points="477,-356.5 477,-375.5 575,-375.5 575,-356.5 477,-356.5"/>
<text text-anchor="middle" x="526" y="-363.5" font-family="Helvetica,sans-Serif" font-size="10.00">world.World.listen</text>
</a>
</g>
</g>
<!-- Node2&#45;&gt;Node6 -->
<g id="edge5" class="edge"><title>Node2&#45;&gt;Node6</title>
<path fill="none" stroke="midnightblue" d="M396.245,-366C420.238,-366 445.157,-366 466.608,-366"/>
<polygon fill="midnightblue" stroke="midnightblue" points="466.841,-369.5 476.841,-366 466.841,-362.5 466.841,-369.5"/>
</g>
<!-- Node29 -->
<g id="node29" class="node"><title>Node29</title>
<g id="a_node29"><a xlink:href="../../d8/d08/classworld_controller_1_1_world_controller.html#a9380abb3ed5334498510f1d6a88a826d" target="_top" xlink:title="worldController.WorldController.draw\lTurtle">
<polygon fill="white" stroke="black" points="432.5,-198 432.5,-228 619.5,-228 619.5,-198 432.5,-198"/>
<text text-anchor="start" x="440.5" y="-216" font-family="Helvetica,sans-Serif" font-size="10.00">worldController.WorldController.draw</text>
<text text-anchor="middle" x="526" y="-205" font-family="Helvetica,sans-Serif" font-size="10.00">Turtle</text>
</a>
</g>
</g>
<!-- Node2&#45;&gt;Node29 -->
<g id="edge39" class="edge"><title>Node2&#45;&gt;Node29</title>
<path fill="none" stroke="midnightblue" d="M312.2,-356.429C348.276,-332.113 444.118,-267.515 493.941,-233.934"/>
<polygon fill="midnightblue" stroke="midnightblue" points="496.059,-236.728 502.395,-228.236 492.146,-230.923 496.059,-236.728"/>
</g>
<!-- Node4 -->
<g id="node4" class="node"><title>Node4</title>
<g id="a_node4"><a xlink:href="../../de/d57/classturtle_1_1_pen.html#ac9a08745a9f3615b9e47c1c8e5af8f1b" target="_top" xlink:title="turtle.Pen.getColor">
<polygon fill="white" stroke="black" points="696.5,-520.5 696.5,-539.5 803.5,-539.5 803.5,-520.5 696.5,-520.5"/>
<text text-anchor="middle" x="750" y="-527.5" font-family="Helvetica,sans-Serif" font-size="10.00">turtle.Pen.getColor</text>
</a>
</g>
</g>
<!-- Node3&#45;&gt;Node4 -->
<g id="edge3" class="edge"><title>Node3&#45;&gt;Node4</title>
<path fill="none" stroke="midnightblue" d="M582.733,-501.54C614.277,-506.939 653.815,-513.707 686.421,-519.288"/>
<polygon fill="midnightblue" stroke="midnightblue" points="685.853,-522.742 696.301,-520.979 687.034,-515.842 685.853,-522.742"/>
</g>
<!-- Node5 -->
<g id="node5" class="node"><title>Node5</title>
<g id="a_node5"><a xlink:href="../../de/d57/classturtle_1_1_pen.html#a76c8dc4e66927e7d3774ea00b2266640" target="_top" xlink:title="turtle.Pen.getSize">
<polygon fill="white" stroke="black" points="699,-482.5 699,-501.5 801,-501.5 801,-482.5 699,-482.5"/>
<text text-anchor="middle" x="750" y="-489.5" font-family="Helvetica,sans-Serif" font-size="10.00">turtle.Pen.getSize</text>
</a>
</g>
</g>
<!-- Node3&#45;&gt;Node5 -->
<g id="edge4" class="edge"><title>Node3&#45;&gt;Node5</title>
<path fill="none" stroke="midnightblue" d="M612.513,-492C637.943,-492 665.259,-492 688.723,-492"/>
<polygon fill="midnightblue" stroke="midnightblue" points="688.868,-495.5 698.868,-492 688.868,-488.5 688.868,-495.5"/>
</g>
<!-- Node7 -->
<g id="node7" class="node"><title>Node7</title>
<g id="a_node7"><a xlink:href="../../d6/d95/classparser_1_1_parser.html#a240c75608624a9c67402a296855c4d1d" target="_top" xlink:title="parser.Parser.initialize\lCommands">
<polygon fill="white" stroke="black" points="690,-307 690,-337 810,-337 810,-307 690,-307"/>
<text text-anchor="start" x="698" y="-325" font-family="Helvetica,sans-Serif" font-size="10.00">parser.Parser.initialize</text>
<text text-anchor="middle" x="750" y="-314" font-family="Helvetica,sans-Serif" font-size="10.00">Commands</text>
</a>
</g>
</g>
<!-- Node6&#45;&gt;Node7 -->
<g id="edge6" class="edge"><title>Node6&#45;&gt;Node7</title>
<path fill="none" stroke="midnightblue" d="M575.171,-356.453C605.812,-350.38 645.978,-342.419 679.98,-335.68"/>
<polygon fill="midnightblue" stroke="midnightblue" points="680.726,-339.1 689.854,-333.723 679.365,-332.234 680.726,-339.1"/>
</g>
<!-- Node11 -->
<g id="node11" class="node"><title>Node11</title>
<g id="a_node11"><a xlink:href="../../d6/d95/classparser_1_1_parser.html#a4ecbffc246c3add017c4720eed4c6da9" target="_top" xlink:title="parser.Parser.parse">
<polygon fill="white" stroke="black" points="695.5,-202.5 695.5,-221.5 804.5,-221.5 804.5,-202.5 695.5,-202.5"/>
<text text-anchor="middle" x="750" y="-209.5" font-family="Helvetica,sans-Serif" font-size="10.00">parser.Parser.parse</text>
</a>
</g>
</g>
<!-- Node6&#45;&gt;Node11 -->
<g id="edge10" class="edge"><title>Node6&#45;&gt;Node11</title>
<path fill="none" stroke="midnightblue" d="M540.887,-356.367C578.264,-330.439 681.235,-259.008 726.806,-227.396"/>
<polygon fill="midnightblue" stroke="midnightblue" points="728.896,-230.205 735.118,-221.63 724.907,-224.454 728.896,-230.205"/>
</g>
<!-- Node24 -->
<g id="node24" class="node"><title>Node24</title>
<g id="a_node24"><a xlink:href="../../d7/d35/classcommand_1_1_command.html#a957099a70dd30b5dc897e0caf07d2d99" target="_top" xlink:title="command.Command.getCommand\lValues">
<polygon fill="white" stroke="black" points="656,-433 656,-463 844,-463 844,-433 656,-433"/>
<text text-anchor="start" x="664" y="-451" font-family="Helvetica,sans-Serif" font-size="10.00">command.Command.getCommand</text>
<text text-anchor="middle" x="750" y="-440" font-family="Helvetica,sans-Serif" font-size="10.00">Values</text>
</a>
</g>
</g>
<!-- Node6&#45;&gt;Node24 -->
<g id="edge34" class="edge"><title>Node6&#45;&gt;Node24</title>
<path fill="none" stroke="midnightblue" d="M546.291,-375.644C571.188,-387.827 616.057,-408.9 656,-423 663.016,-425.476 670.402,-427.847 677.819,-430.075"/>
<polygon fill="midnightblue" stroke="midnightblue" points="676.978,-433.475 687.558,-432.917 678.939,-426.755 676.978,-433.475"/>
</g>
<!-- Node26 -->
<g id="node26" class="node"><title>Node26</title>
<g id="a_node26"><a xlink:href="../../d9/dd0/classworld_1_1_world.html#adcbcb8328c7e832fcb710a91457e6772" target="_top" xlink:title="world.World.runCommand">
<polygon fill="white" stroke="black" points="680.5,-356.5 680.5,-375.5 819.5,-375.5 819.5,-356.5 680.5,-356.5"/>
<text text-anchor="middle" x="750" y="-363.5" font-family="Helvetica,sans-Serif" font-size="10.00">world.World.runCommand</text>
</a>
</g>
</g>
<!-- Node6&#45;&gt;Node26 -->
<g id="edge36" class="edge"><title>Node6&#45;&gt;Node26</title>
<path fill="none" stroke="midnightblue" d="M575.171,-366C602.903,-366 638.436,-366 670.141,-366"/>
<polygon fill="midnightblue" stroke="midnightblue" points="670.285,-369.5 680.285,-366 670.285,-362.5 670.285,-369.5"/>
</g>
<!-- Node27 -->
<g id="node27" class="node"><title>Node27</title>
<g id="a_node27"><a xlink:href="../../d6/d95/classparser_1_1_parser.html#acebafe1593fc1f09ac31c7104438e4b1" target="_top" xlink:title="parser.Parser.resetRepcount">
<polygon fill="white" stroke="black" points="674.5,-394.5 674.5,-413.5 825.5,-413.5 825.5,-394.5 674.5,-394.5"/>
<text text-anchor="middle" x="750" y="-401.5" font-family="Helvetica,sans-Serif" font-size="10.00">parser.Parser.resetRepcount</text>
</a>
</g>
</g>
<!-- Node6&#45;&gt;Node27 -->
<g id="edge37" class="edge"><title>Node6&#45;&gt;Node27</title>
<path fill="none" stroke="midnightblue" d="M575.171,-374.245C606.857,-379.669 648.728,-386.836 683.436,-392.777"/>
<polygon fill="midnightblue" stroke="midnightblue" points="683.041,-396.261 693.488,-394.498 684.222,-389.361 683.041,-396.261"/>
</g>
<!-- Node8 -->
<g id="node8" class="node"><title>Node8</title>
<g id="a_node8"><a xlink:href="../../d6/d95/classparser_1_1_parser.html#a4f582c65390bddc57219c0b5c31ef5e7" target="_top" xlink:title="parser.Parser.makeTree">
<polygon fill="white" stroke="black" points="909,-350.5 909,-369.5 1037,-369.5 1037,-350.5 909,-350.5"/>
<text text-anchor="middle" x="973" y="-357.5" font-family="Helvetica,sans-Serif" font-size="10.00">parser.Parser.makeTree</text>
</a>
</g>
</g>
<!-- Node7&#45;&gt;Node8 -->
<g id="edge7" class="edge"><title>Node7&#45;&gt;Node8</title>
<path fill="none" stroke="midnightblue" d="M810.224,-332.183C839.861,-337.279 875.821,-343.462 906.304,-348.704"/>
<polygon fill="midnightblue" stroke="midnightblue" points="905.967,-352.197 916.415,-350.442 907.153,-345.298 905.967,-352.197"/>
</g>
<!-- Node9 -->
<g id="node9" class="node"><title>Node9</title>
<g id="a_node9"><a xlink:href="../../d9/d1b/classcommand_1_1_command_factory.html#a87bf7e648425bb22124367cabedb3327" target="_top" xlink:title="command.CommandFactory.get\lNumParameters">
<polygon fill="white" stroke="black" points="1121,-345 1121,-375 1291,-375 1291,-345 1121,-345"/>
<text text-anchor="start" x="1129" y="-363" font-family="Helvetica,sans-Serif" font-size="10.00">command.CommandFactory.get</text>
<text text-anchor="middle" x="1206" y="-352" font-family="Helvetica,sans-Serif" font-size="10.00">NumParameters</text>
</a>
</g>
</g>
<!-- Node8&#45;&gt;Node9 -->
<g id="edge8" class="edge"><title>Node8&#45;&gt;Node9</title>
<path fill="none" stroke="midnightblue" d="M1037.12,-360C1059.78,-360 1085.85,-360 1110.59,-360"/>
<polygon fill="midnightblue" stroke="midnightblue" points="1110.73,-363.5 1120.73,-360 1110.73,-356.5 1110.73,-363.5"/>
</g>
<!-- Node10 -->
<g id="node10" class="node"><title>Node10</title>
<g id="a_node10"><a xlink:href="../../d9/d1b/classcommand_1_1_command_factory.html#a947fdc151e857ea74564d0d1fe268246" target="_top" xlink:title="command.CommandFactory.translate\lCommand">
<polygon fill="white" stroke="black" points="1346.5,-323 1346.5,-353 1543.5,-353 1543.5,-323 1346.5,-323"/>
<text text-anchor="start" x="1354.5" y="-341" font-family="Helvetica,sans-Serif" font-size="10.00">command.CommandFactory.translate</text>
<text text-anchor="middle" x="1445" y="-330" font-family="Helvetica,sans-Serif" font-size="10.00">Command</text>
</a>
</g>
</g>
<!-- Node9&#45;&gt;Node10 -->
<g id="edge9" class="edge"><title>Node9&#45;&gt;Node10</title>
<path fill="none" stroke="midnightblue" d="M1291.22,-352.182C1305.71,-350.837 1320.94,-349.423 1335.95,-348.03"/>
<polygon fill="midnightblue" stroke="midnightblue" points="1336.66,-351.479 1346.29,-347.07 1336.01,-344.509 1336.66,-351.479"/>
</g>
<!-- Node12 -->
<g id="node12" class="node"><title>Node12</title>
<g id="a_node12"><a xlink:href="../../d9/d1b/classcommand_1_1_command_factory.html#ab25bb047b051661d31adf73b2dae5649" target="_top" xlink:title="command.CommandFactory.create\lCommand">
<polygon fill="white" stroke="black" points="880.5,-301 880.5,-331 1065.5,-331 1065.5,-301 880.5,-301"/>
<text text-anchor="start" x="888.5" y="-319" font-family="Helvetica,sans-Serif" font-size="10.00">command.CommandFactory.create</text>
<text text-anchor="middle" x="973" y="-308" font-family="Helvetica,sans-Serif" font-size="10.00">Command</text>
</a>
</g>
</g>
<!-- Node11&#45;&gt;Node12 -->
<g id="edge11" class="edge"><title>Node11&#45;&gt;Node12</title>
<path fill="none" stroke="midnightblue" d="M765.57,-221.691C788.937,-236.923 836.583,-266.715 880,-286 889.424,-290.186 899.619,-294.09 909.672,-297.605"/>
<polygon fill="midnightblue" stroke="midnightblue" points="908.643,-300.952 919.237,-300.854 910.894,-294.324 908.643,-300.952"/>
</g>
<!-- Node14 -->
<g id="node14" class="node"><title>Node14</title>
<g id="a_node14"><a xlink:href="../../d6/d95/classparser_1_1_parser.html#aac1cff62f68138c7e977a67d39671701" target="_top" xlink:title="parser.Parser.generateCommand\lInput">
<polygon fill="white" stroke="black" points="885,-175 885,-205 1061,-205 1061,-175 885,-175"/>
<text text-anchor="start" x="893" y="-193" font-family="Helvetica,sans-Serif" font-size="10.00">parser.Parser.generateCommand</text>
<text text-anchor="middle" x="973" y="-182" font-family="Helvetica,sans-Serif" font-size="10.00">Input</text>
</a>
</g>
</g>
<!-- Node11&#45;&gt;Node14 -->
<g id="edge14" class="edge"><title>Node11&#45;&gt;Node14</title>
<path fill="none" stroke="midnightblue" d="M804.78,-206.646C825.798,-204.554 850.571,-202.088 874.518,-199.704"/>
<polygon fill="midnightblue" stroke="midnightblue" points="875.113,-203.162 884.717,-198.689 874.419,-196.197 875.113,-203.162"/>
</g>
<!-- Node17 -->
<g id="node17" class="node"><title>Node17</title>
<g id="a_node17"><a xlink:href="../../d3/dcc/classparser_1_1_node.html#a9c12e8d4375a7517eae0a35724b253c4" target="_top" xlink:title="parser.Node.getValue">
<polygon fill="white" stroke="black" points="1146,-229.5 1146,-248.5 1266,-248.5 1266,-229.5 1146,-229.5"/>
<text text-anchor="middle" x="1206" y="-236.5" font-family="Helvetica,sans-Serif" font-size="10.00">parser.Node.getValue</text>
</a>
</g>
</g>
<!-- Node11&#45;&gt;Node17 -->
<g id="edge30" class="edge"><title>Node11&#45;&gt;Node17</title>
<path fill="none" stroke="midnightblue" d="M773.787,-221.606C799.17,-231.743 841.683,-247.057 880,-253 967.408,-266.556 1069.51,-258.285 1135.61,-249.82"/>
<polygon fill="midnightblue" stroke="midnightblue" points="1136.45,-253.24 1145.9,-248.463 1135.53,-246.3 1136.45,-253.24"/>
</g>
<!-- Node19 -->
<g id="node19" class="node"><title>Node19</title>
<g id="a_node19"><a xlink:href="../../d6/d95/classparser_1_1_parser.html#a3efcd1192e76101919526b4a5e0046f4" target="_top" xlink:title="parser.Parser.getNodeBefore\lToReplace">
<polygon fill="white" stroke="black" points="895.5,-126 895.5,-156 1050.5,-156 1050.5,-126 895.5,-126"/>
<text text-anchor="start" x="903.5" y="-144" font-family="Helvetica,sans-Serif" font-size="10.00">parser.Parser.getNodeBefore</text>
<text text-anchor="middle" x="973" y="-133" font-family="Helvetica,sans-Serif" font-size="10.00">ToReplace</text>
</a>
</g>
</g>
<!-- Node11&#45;&gt;Node19 -->
<g id="edge19" class="edge"><title>Node11&#45;&gt;Node19</title>
<path fill="none" stroke="midnightblue" d="M775.019,-202.478C800.753,-192.458 842.909,-176.567 880,-165 886.825,-162.872 893.975,-160.776 901.143,-158.764"/>
<polygon fill="midnightblue" stroke="midnightblue" points="902.189,-162.106 910.901,-156.076 900.33,-155.358 902.189,-162.106"/>
</g>
<!-- Node21 -->
<g id="node21" class="node"><title>Node21</title>
<g id="a_node21"><a xlink:href="../../d3/dcc/classparser_1_1_node.html#aa92667a825777b3d757bc3b1a247ac20" target="_top" xlink:title="parser.Node.isLeaf">
<polygon fill="white" stroke="black" points="1153,-39.5 1153,-58.5 1259,-58.5 1259,-39.5 1153,-39.5"/>
<text text-anchor="middle" x="1206" y="-46.5" font-family="Helvetica,sans-Serif" font-size="10.00">parser.Node.isLeaf</text>
</a>
</g>
</g>
<!-- Node11&#45;&gt;Node21 -->
<g id="edge33" class="edge"><title>Node11&#45;&gt;Node21</title>
<path fill="none" stroke="midnightblue" d="M762.382,-202.465C780.744,-186.773 817.52,-154.04 844,-122 862.612,-99.4805 854.694,-81.5996 880,-67 964.037,-18.5167 1081.53,-26.9682 1149.81,-37.7942"/>
<polygon fill="midnightblue" stroke="midnightblue" points="1149.49,-41.2883 1159.92,-39.4729 1150.63,-34.3828 1149.49,-41.2883"/>
</g>
<!-- Node22 -->
<g id="node22" class="node"><title>Node22</title>
<g id="a_node22"><a xlink:href="../../d6/d95/classparser_1_1_parser.html#a447c473b62ba23b7c144df9bb38a9a41" target="_top" xlink:title="parser.Parser.getNodeFor\lCommand">
<polygon fill="white" stroke="black" points="904,-77 904,-107 1042,-107 1042,-77 904,-77"/>
<text text-anchor="start" x="912" y="-95" font-family="Helvetica,sans-Serif" font-size="10.00">parser.Parser.getNodeFor</text>
<text text-anchor="middle" x="973" y="-84" font-family="Helvetica,sans-Serif" font-size="10.00">Command</text>
</a>
</g>
</g>
<!-- Node11&#45;&gt;Node22 -->
<g id="edge25" class="edge"><title>Node11&#45;&gt;Node22</title>
<path fill="none" stroke="midnightblue" d="M761.123,-202.258C781.763,-182.926 830.922,-139.555 880,-116 884.534,-113.824 889.292,-111.826 894.157,-109.994"/>
<polygon fill="midnightblue" stroke="midnightblue" points="895.336,-113.289 903.612,-106.674 893.017,-106.685 895.336,-113.289"/>
</g>
<!-- Node23 -->
<g id="node23" class="node"><title>Node23</title>
<g id="a_node23"><a xlink:href="../../d3/dcc/classparser_1_1_node.html#a066da2b478008f39a02440d7afceb9ee" target="_top" xlink:title="parser.Node.insertChild">
<polygon fill="white" stroke="black" points="909,-224.5 909,-243.5 1037,-243.5 1037,-224.5 909,-224.5"/>
<text text-anchor="middle" x="973" y="-231.5" font-family="Helvetica,sans-Serif" font-size="10.00">parser.Node.insertChild</text>
</a>
</g>
</g>
<!-- Node11&#45;&gt;Node23 -->
<g id="edge31" class="edge"><title>Node11&#45;&gt;Node23</title>
<path fill="none" stroke="midnightblue" d="M804.78,-217.354C833.019,-220.165 868.037,-223.651 898.721,-226.705"/>
<polygon fill="midnightblue" stroke="midnightblue" points="898.647,-230.215 908.944,-227.723 899.34,-223.249 898.647,-230.215"/>
</g>
<!-- Node12&#45;&gt;Node10 -->
<g id="edge13" class="edge"><title>Node12&#45;&gt;Node10</title>
<path fill="none" stroke="midnightblue" d="M1065.74,-320.294C1143.23,-323.922 1254.34,-329.122 1336.1,-332.949"/>
<polygon fill="midnightblue" stroke="midnightblue" points="1336.27,-336.461 1346.42,-333.433 1336.6,-329.469 1336.27,-336.461"/>
</g>
<!-- Node13 -->
<g id="node13" class="node"><title>Node13</title>
<g id="a_node13"><a xlink:href="../../d9/d1b/classcommand_1_1_command_factory.html#abd97ea3e22afc09e07ed1d4fd039d11f" target="_top" xlink:title="command.CommandFactory.reflectCMD">
<polygon fill="white" stroke="black" points="1102.5,-268.5 1102.5,-287.5 1309.5,-287.5 1309.5,-268.5 1102.5,-268.5"/>
<text text-anchor="middle" x="1206" y="-275.5" font-family="Helvetica,sans-Serif" font-size="10.00">command.CommandFactory.reflectCMD</text>
</a>
</g>
</g>
<!-- Node12&#45;&gt;Node13 -->
<g id="edge12" class="edge"><title>Node12&#45;&gt;Node13</title>
<path fill="none" stroke="midnightblue" d="M1065.3,-300.981C1089.25,-297.042 1114.65,-292.863 1137.14,-289.164"/>
<polygon fill="midnightblue" stroke="midnightblue" points="1137.95,-292.578 1147.24,-287.501 1136.81,-285.671 1137.95,-292.578"/>
</g>
<!-- Node15 -->
<g id="node15" class="node"><title>Node15</title>
<g id="a_node15"><a xlink:href="../../d3/dcc/classparser_1_1_node.html#aa67bc0d39227232943abec9b95b23235" target="_top" xlink:title="parser.Node.getChild1">
<polygon fill="white" stroke="black" points="1144.5,-153.5 1144.5,-172.5 1267.5,-172.5 1267.5,-153.5 1144.5,-153.5"/>
<text text-anchor="middle" x="1206" y="-160.5" font-family="Helvetica,sans-Serif" font-size="10.00">parser.Node.getChild1</text>
</a>
</g>
</g>
<!-- Node14&#45;&gt;Node15 -->
<g id="edge15" class="edge"><title>Node14&#45;&gt;Node15</title>
<path fill="none" stroke="midnightblue" d="M1061,-179.831C1085.18,-177.005 1111.13,-173.972 1134.25,-171.269"/>
<polygon fill="midnightblue" stroke="midnightblue" points="1134.79,-174.73 1144.32,-170.093 1133.98,-167.778 1134.79,-174.73"/>
</g>
<!-- Node16 -->
<g id="node16" class="node"><title>Node16</title>
<g id="a_node16"><a xlink:href="../../d3/dcc/classparser_1_1_node.html#a0f13775acc62af77cdde90dbeaf26bbc" target="_top" xlink:title="parser.Node.getChild2">
<polygon fill="white" stroke="black" points="1144.5,-115.5 1144.5,-134.5 1267.5,-134.5 1267.5,-115.5 1144.5,-115.5"/>
<text text-anchor="middle" x="1206" y="-122.5" font-family="Helvetica,sans-Serif" font-size="10.00">parser.Node.getChild2</text>
</a>
</g>
</g>
<!-- Node14&#45;&gt;Node16 -->
<g id="edge16" class="edge"><title>Node14&#45;&gt;Node16</title>
<path fill="none" stroke="midnightblue" d="M1038.08,-174.925C1047.58,-172.021 1057.15,-168.709 1066,-165 1083.08,-157.843 1084.63,-150.443 1102,-144 1112.25,-140.199 1123.36,-137.135 1134.37,-134.672"/>
<polygon fill="midnightblue" stroke="midnightblue" points="1135.34,-138.044 1144.42,-132.576 1133.91,-131.192 1135.34,-138.044"/>
</g>
<!-- Node14&#45;&gt;Node17 -->
<g id="edge17" class="edge"><title>Node14&#45;&gt;Node17</title>
<path fill="none" stroke="midnightblue" d="M1035.39,-205.017C1056.46,-210.003 1080.22,-215.441 1102,-220 1114.43,-222.601 1127.74,-225.197 1140.53,-227.597"/>
<polygon fill="midnightblue" stroke="midnightblue" points="1140.18,-231.091 1150.65,-229.476 1141.45,-224.209 1140.18,-231.091"/>
</g>
<!-- Node18 -->
<g id="node18" class="node"><title>Node18</title>
<g id="a_node18"><a xlink:href="../../d3/dcc/classparser_1_1_node.html#a6bbc0c61aaa261077eb87cfc4e2b45dc" target="_top" xlink:title="parser.Node.numChildren">
<polygon fill="white" stroke="black" points="1136.5,-191.5 1136.5,-210.5 1275.5,-210.5 1275.5,-191.5 1136.5,-191.5"/>
<text text-anchor="middle" x="1206" y="-198.5" font-family="Helvetica,sans-Serif" font-size="10.00">parser.Node.numChildren</text>
</a>
</g>
</g>
<!-- Node14&#45;&gt;Node18 -->
<g id="edge18" class="edge"><title>Node14&#45;&gt;Node18</title>
<path fill="none" stroke="midnightblue" d="M1061,-194.143C1082.43,-195.164 1105.26,-196.251 1126.28,-197.251"/>
<polygon fill="midnightblue" stroke="midnightblue" points="1126.28,-200.755 1136.43,-197.735 1126.61,-193.763 1126.28,-200.755"/>
</g>
<!-- Node19&#45;&gt;Node15 -->
<g id="edge20" class="edge"><title>Node19&#45;&gt;Node15</title>
<path fill="none" stroke="midnightblue" d="M1050.6,-148.295C1077.62,-150.868 1107.85,-153.748 1134.35,-156.272"/>
<polygon fill="midnightblue" stroke="midnightblue" points="1134.03,-159.756 1144.31,-157.22 1134.69,-152.788 1134.03,-159.756"/>
</g>
<!-- Node19&#45;&gt;Node16 -->
<g id="edge21" class="edge"><title>Node19&#45;&gt;Node16</title>
<path fill="none" stroke="midnightblue" d="M1050.6,-135.694C1077.5,-133.831 1107.58,-131.748 1134,-129.918"/>
<polygon fill="midnightblue" stroke="midnightblue" points="1134.58,-133.386 1144.31,-129.203 1134.09,-126.403 1134.58,-133.386"/>
</g>
<!-- Node19&#45;&gt;Node17 -->
<g id="edge22" class="edge"><title>Node19&#45;&gt;Node17</title>
<path fill="none" stroke="midnightblue" d="M1050.36,-156.025C1055.89,-158.564 1061.17,-161.532 1066,-165 1089.72,-182.051 1077.67,-203.823 1102,-220 1112.05,-226.686 1123.82,-231.182 1135.74,-234.174"/>
<polygon fill="midnightblue" stroke="midnightblue" points="1135.24,-237.646 1145.75,-236.349 1136.72,-230.806 1135.24,-237.646"/>
</g>
<!-- Node20 -->
<g id="node20" class="node"><title>Node20</title>
<g id="a_node20"><a xlink:href="../../d3/dcc/classparser_1_1_node.html#ab14db24c0724dec4387e29d513008e2e" target="_top" xlink:title="parser.Node.hasChildren">
<polygon fill="white" stroke="black" points="1139,-77.5 1139,-96.5 1273,-96.5 1273,-77.5 1139,-77.5"/>
<text text-anchor="middle" x="1206" y="-84.5" font-family="Helvetica,sans-Serif" font-size="10.00">parser.Node.hasChildren</text>
</a>
</g>
</g>
<!-- Node19&#45;&gt;Node20 -->
<g id="edge23" class="edge"><title>Node19&#45;&gt;Node20</title>
<path fill="none" stroke="midnightblue" d="M1029.47,-125.979C1041.52,-122.703 1054.19,-119.245 1066,-116 1082.01,-111.6 1085.82,-109.732 1102,-106 1113.7,-103.302 1126.21,-100.732 1138.34,-98.4037"/>
<polygon fill="midnightblue" stroke="midnightblue" points="1139.24,-101.797 1148.42,-96.5069 1137.94,-94.9177 1139.24,-101.797"/>
</g>
<!-- Node19&#45;&gt;Node21 -->
<g id="edge24" class="edge"><title>Node19&#45;&gt;Node21</title>
<path fill="none" stroke="midnightblue" d="M1047.33,-125.982C1053.91,-123.2 1060.25,-119.904 1066,-116 1088.06,-101.024 1079.33,-82.0485 1102,-68 1114.13,-60.4842 1128.49,-55.7906 1142.59,-52.8952"/>
<polygon fill="midnightblue" stroke="midnightblue" points="1143.54,-56.2823 1152.77,-51.0902 1142.31,-49.3898 1143.54,-56.2823"/>
</g>
<!-- Node22&#45;&gt;Node15 -->
<g id="edge26" class="edge"><title>Node22&#45;&gt;Node15</title>
<path fill="none" stroke="midnightblue" d="M1042.46,-106.52C1050.58,-109.21 1058.6,-112.35 1066,-116 1084.18,-124.964 1083.51,-135.703 1102,-144 1112.2,-148.577 1123.44,-152.051 1134.64,-154.688"/>
<polygon fill="midnightblue" stroke="midnightblue" points="1133.93,-158.115 1144.44,-156.797 1135.4,-151.272 1133.93,-158.115"/>
</g>
<!-- Node22&#45;&gt;Node16 -->
<g id="edge27" class="edge"><title>Node22&#45;&gt;Node16</title>
<path fill="none" stroke="midnightblue" d="M1042.06,-101.723C1071.11,-105.872 1105,-110.714 1134.33,-114.904"/>
<polygon fill="midnightblue" stroke="midnightblue" points="1134.1,-118.407 1144.5,-116.357 1135.09,-111.477 1134.1,-118.407"/>
</g>
<!-- Node22&#45;&gt;Node20 -->
<g id="edge28" class="edge"><title>Node22&#45;&gt;Node20</title>
<path fill="none" stroke="midnightblue" d="M1042.06,-90.5269C1069.2,-89.9394 1100.58,-89.2603 1128.5,-88.6558"/>
<polygon fill="midnightblue" stroke="midnightblue" points="1128.7,-92.1525 1138.62,-88.4368 1128.55,-85.1541 1128.7,-92.1525"/>
</g>
<!-- Node22&#45;&gt;Node21 -->
<g id="edge29" class="edge"><title>Node22&#45;&gt;Node21</title>
<path fill="none" stroke="midnightblue" d="M1042.08,-79.1962C1061.44,-75.5657 1082.55,-71.6173 1102,-68 1115.25,-65.536 1129.46,-62.9063 1142.96,-60.4134"/>
<polygon fill="midnightblue" stroke="midnightblue" points="1143.93,-63.7949 1153.12,-58.5387 1142.66,-56.9111 1143.93,-63.7949"/>
</g>
<!-- Node23&#45;&gt;Node17 -->
<g id="edge32" class="edge"><title>Node23&#45;&gt;Node17</title>
<path fill="none" stroke="midnightblue" d="M1037.12,-235.366C1067.61,-236.026 1104.27,-236.82 1135.54,-237.497"/>
<polygon fill="midnightblue" stroke="midnightblue" points="1135.85,-241.004 1145.92,-237.721 1136,-234.006 1135.85,-241.004"/>
</g>
<!-- Node25 -->
<g id="node25" class="node"><title>Node25</title>
<g id="a_node25"><a xlink:href="../../d7/d35/classcommand_1_1_command.html#a7e1387db1d0d35d4dcd3a3ebe2ff902a" target="_top" xlink:title="command.Command.makeString">
<polygon fill="white" stroke="black" points="884.5,-438.5 884.5,-457.5 1061.5,-457.5 1061.5,-438.5 884.5,-438.5"/>
<text text-anchor="middle" x="973" y="-445.5" font-family="Helvetica,sans-Serif" font-size="10.00">command.Command.makeString</text>
</a>
</g>
</g>
<!-- Node24&#45;&gt;Node25 -->
<g id="edge35" class="edge"><title>Node24&#45;&gt;Node25</title>
<path fill="none" stroke="midnightblue" d="M844.083,-448C853.977,-448 864.061,-448 874.009,-448"/>
<polygon fill="midnightblue" stroke="midnightblue" points="874.312,-451.5 884.311,-448 874.311,-444.5 874.312,-451.5"/>
</g>
<!-- Node28 -->
<g id="node28" class="node"><title>Node28</title>
<g id="a_node28"><a xlink:href="../../d9/d1b/classcommand_1_1_command_factory.html#a0d59e4f0f925b5046957c0e054ce8bef" target="_top" xlink:title="command.CommandFactory.reset\lRepcount">
<polygon fill="white" stroke="black" points="883.5,-389 883.5,-419 1062.5,-419 1062.5,-389 883.5,-389"/>
<text text-anchor="start" x="891.5" y="-407" font-family="Helvetica,sans-Serif" font-size="10.00">command.CommandFactory.reset</text>
<text text-anchor="middle" x="973" y="-396" font-family="Helvetica,sans-Serif" font-size="10.00">Repcount</text>
</a>
</g>
</g>
<!-- Node27&#45;&gt;Node28 -->
<g id="edge38" class="edge"><title>Node27&#45;&gt;Node28</title>
<path fill="none" stroke="midnightblue" d="M825.512,-404C840.726,-404 856.961,-404 872.878,-404"/>
<polygon fill="midnightblue" stroke="midnightblue" points="873.277,-407.5 883.277,-404 873.277,-400.5 873.277,-407.5"/>
</g>
<!-- Node30 -->
<g id="node30" class="node"><title>Node30</title>
<g id="a_node30"><a xlink:href="../../df/dcb/classturtle_1_1_turtle.html#a432dcb17f8c2751445c2c98e9b2f7fba" target="_top" xlink:title="turtle.Turtle.previousDrawLine">
<polygon fill="white" stroke="black" points="671,-93.5 671,-112.5 829,-112.5 829,-93.5 671,-93.5"/>
<text text-anchor="middle" x="750" y="-100.5" font-family="Helvetica,sans-Serif" font-size="10.00">turtle.Turtle.previousDrawLine</text>
</a>
</g>
</g>
<!-- Node29&#45;&gt;Node30 -->
<g id="edge40" class="edge"><title>Node29&#45;&gt;Node30</title>
<path fill="none" stroke="midnightblue" d="M557.403,-197.936C600.479,-176.592 678.69,-137.838 720.628,-117.058"/>
<polygon fill="midnightblue" stroke="midnightblue" points="722.328,-120.122 729.735,-112.546 719.221,-113.85 722.328,-120.122"/>
</g>
<!-- Node31 -->
<g id="node31" class="node"><title>Node31</title>
<g id="a_node31"><a xlink:href="../../de/d57/classturtle_1_1_pen.html#a361f4e030646d953185a8afe94427ce2" target="_top" xlink:title="turtle.Pen.penReady">
<polygon fill="white" stroke="black" points="916.5,-0.5 916.5,-19.5 1029.5,-19.5 1029.5,-0.5 916.5,-0.5"/>
<text text-anchor="middle" x="973" y="-7.5" font-family="Helvetica,sans-Serif" font-size="10.00">turtle.Pen.penReady</text>
</a>
</g>
</g>
<!-- Node30&#45;&gt;Node31 -->
<g id="edge41" class="edge"><title>Node30&#45;&gt;Node31</title>
<path fill="none" stroke="midnightblue" d="M766.315,-93.2612C789.915,-78.6176 836.957,-50.8523 880,-34 891.765,-29.394 904.718,-25.3968 917.098,-22.0562"/>
<polygon fill="midnightblue" stroke="midnightblue" points="918.071,-25.4198 926.87,-19.5187 916.312,-18.6445 918.071,-25.4198"/>
</g>
</g>
</svg>
