<?xml version="1.0" encoding="UTF-8" standalone="no"?>
<!DOCTYPE svg PUBLIC "-//W3C//DTD SVG 1.1//EN"
 "http://www.w3.org/Graphics/SVG/1.1/DTD/svg11.dtd">
<!-- Generated by graphviz version 2.36.0 (20140111.2315)
 -->
<!-- Title: userInterface.UI.setUpCommandField Pages: 1 -->
<svg width="1926pt" height="458pt"
 viewBox="0.00 0.00 1926.00 458.00" xmlns="http://www.w3.org/2000/svg" xmlns:xlink="http://www.w3.org/1999/xlink">
<g id="graph0" class="graph" transform="scale(1 1) rotate(0) translate(4 454)">
<title>userInterface.UI.setUpCommandField</title>
<polygon fill="white" stroke="none" points="-4,4 -4,-454 1922,-454 1922,4 -4,4"/>
<!-- Node1 -->
<g id="node1" class="node"><title>Node1</title>
<polygon fill="#bfbfbf" stroke="black" points="0,-195 0,-225 174,-225 174,-195 0,-195"/>
<text text-anchor="start" x="8" y="-213" font-family="Helvetica,sans-Serif" font-size="10.00">userInterface.UI.setUpCommand</text>
<text text-anchor="middle" x="87" y="-202" font-family="Helvetica,sans-Serif" font-size="10.00">Field</text>
</g>
<!-- Node2 -->
<g id="node2" class="node"><title>Node2</title>
<g id="a_node2"><a xlink:href="../../d0/d7c/classuser_interface_1_1_u_i.html#a02bd34909b5d6037ea8ebe812879b90a" target="_top" xlink:title="userInterface.UI.makeRun\lButton">
<polygon fill="white" stroke="black" points="210,-195 210,-225 350,-225 350,-195 210,-195"/>
<text text-anchor="start" x="218" y="-213" font-family="Helvetica,sans-Serif" font-size="10.00">userInterface.UI.makeRun</text>
<text text-anchor="middle" x="280" y="-202" font-family="Helvetica,sans-Serif" font-size="10.00">Button</text>
</a>
</g>
</g>
<!-- Node1&#45;&gt;Node2 -->
<g id="edge1" class="edge"><title>Node1&#45;&gt;Node2</title>
<path fill="none" stroke="midnightblue" d="M174.001,-210C182.519,-210 191.139,-210 199.585,-210"/>
<polygon fill="midnightblue" stroke="midnightblue" points="199.784,-213.5 209.784,-210 199.784,-206.5 199.784,-213.5"/>
</g>
<!-- Node3 -->
<g id="node3" class="node"><title>Node3</title>
<g id="a_node3"><a xlink:href="../../d0/d7c/classuser_interface_1_1_u_i.html#ab17592b00ba0b808f524b4fc223303ec" target="_top" xlink:title="userInterface.UI.runCommand">
<polygon fill="white" stroke="black" points="386.5,-200.5 386.5,-219.5 547.5,-219.5 547.5,-200.5 386.5,-200.5"/>
<text text-anchor="middle" x="467" y="-207.5" font-family="Helvetica,sans-Serif" font-size="10.00">userInterface.UI.runCommand</text>
</a>
</g>
</g>
<!-- Node2&#45;&gt;Node3 -->
<g id="edge2" class="edge"><title>Node2&#45;&gt;Node3</title>
<path fill="none" stroke="midnightblue" d="M350.15,-210C358.633,-210 367.397,-210 376.129,-210"/>
<polygon fill="midnightblue" stroke="midnightblue" points="376.346,-213.5 386.346,-210 376.346,-206.5 376.346,-213.5"/>
</g>
<!-- Node4 -->
<g id="node4" class="node"><title>Node4</title>
<g id="a_node4"><a xlink:href="../../d8/d08/classworld_controller_1_1_world_controller.html#a178425d68e3e669c386706153ce44999" target="_top" xlink:title="worldController.WorldController.update">
<polygon fill="white" stroke="black" points="584,-200.5 584,-219.5 782,-219.5 782,-200.5 584,-200.5"/>
<text text-anchor="middle" x="683" y="-207.5" font-family="Helvetica,sans-Serif" font-size="10.00">worldController.WorldController.update</text>
</a>
</g>
</g>
<!-- Node3&#45;&gt;Node4 -->
<g id="edge3" class="edge"><title>Node3&#45;&gt;Node4</title>
<path fill="none" stroke="midnightblue" d="M547.686,-210C556.142,-210 564.841,-210 573.554,-210"/>
<polygon fill="midnightblue" stroke="midnightblue" points="573.774,-213.5 583.773,-210 573.773,-206.5 573.774,-213.5"/>
</g>
<!-- Node5 -->
<g id="node5" class="node"><title>Node5</title>
<g id="a_node5"><a xlink:href="../../df/dcb/classturtle_1_1_turtle.html#a610aafaf658c4b351330b7c16c66881c" target="_top" xlink:title="turtle.Turtle.updatePenAttributes">
<polygon fill="white" stroke="black" points="818.5,-275.5 818.5,-294.5 991.5,-294.5 991.5,-275.5 818.5,-275.5"/>
<text text-anchor="middle" x="905" y="-282.5" font-family="Helvetica,sans-Serif" font-size="10.00">turtle.Turtle.updatePenAttributes</text>
</a>
</g>
</g>
<!-- Node4&#45;&gt;Node5 -->
<g id="edge4" class="edge"><title>Node4&#45;&gt;Node5</title>
<path fill="none" stroke="midnightblue" d="M712.311,-219.651C751.501,-233.012 822.383,-257.176 866.103,-272.081"/>
<polygon fill="midnightblue" stroke="midnightblue" points="865.203,-275.472 875.798,-275.386 867.462,-268.846 865.203,-275.472"/>
</g>
<!-- Node8 -->
<g id="node8" class="node"><title>Node8</title>
<g id="a_node8"><a xlink:href="../../d9/dd0/classworld_1_1_world.html#ae370733f7784c42741a6ba66c7d2ecf5" target="_top" xlink:title="world.World.listen">
<polygon fill="white" stroke="black" points="856,-125.5 856,-144.5 954,-144.5 954,-125.5 856,-125.5"/>
<text text-anchor="middle" x="905" y="-132.5" font-family="Helvetica,sans-Serif" font-size="10.00">world.World.listen</text>
</a>
</g>
</g>
<!-- Node4&#45;&gt;Node8 -->
<g id="edge7" class="edge"><title>Node4&#45;&gt;Node8</title>
<path fill="none" stroke="midnightblue" d="M712.311,-200.349C751.501,-186.988 822.383,-162.824 866.103,-147.919"/>
<polygon fill="midnightblue" stroke="midnightblue" points="867.462,-151.154 875.798,-144.614 865.203,-144.528 867.462,-151.154"/>
</g>
<!-- Node6 -->
<g id="node6" class="node"><title>Node6</title>
<g id="a_node6"><a xlink:href="../../de/d57/classturtle_1_1_pen.html#ac9a08745a9f3615b9e47c1c8e5af8f1b" target="_top" xlink:title="turtle.Pen.getColor">
<polygon fill="white" stroke="black" points="1068.5,-313.5 1068.5,-332.5 1175.5,-332.5 1175.5,-313.5 1068.5,-313.5"/>
<text text-anchor="middle" x="1122" y="-320.5" font-family="Helvetica,sans-Serif" font-size="10.00">turtle.Pen.getColor</text>
</a>
</g>
</g>
<!-- Node5&#45;&gt;Node6 -->
<g id="edge5" class="edge"><title>Node5&#45;&gt;Node6</title>
<path fill="none" stroke="midnightblue" d="M959.976,-294.54C989.945,-299.837 1027.36,-306.45 1058.59,-311.969"/>
<polygon fill="midnightblue" stroke="midnightblue" points="1058.03,-315.425 1068.49,-313.719 1059.25,-308.532 1058.03,-315.425"/>
</g>
<!-- Node7 -->
<g id="node7" class="node"><title>Node7</title>
<g id="a_node7"><a xlink:href="../../de/d57/classturtle_1_1_pen.html#a76c8dc4e66927e7d3774ea00b2266640" target="_top" xlink:title="turtle.Pen.getSize">
<polygon fill="white" stroke="black" points="1071,-275.5 1071,-294.5 1173,-294.5 1173,-275.5 1071,-275.5"/>
<text text-anchor="middle" x="1122" y="-282.5" font-family="Helvetica,sans-Serif" font-size="10.00">turtle.Pen.getSize</text>
</a>
</g>
</g>
<!-- Node5&#45;&gt;Node7 -->
<g id="edge6" class="edge"><title>Node5&#45;&gt;Node7</title>
<path fill="none" stroke="midnightblue" d="M991.591,-285C1014.74,-285 1039.3,-285 1060.73,-285"/>
<polygon fill="midnightblue" stroke="midnightblue" points="1060.98,-288.5 1070.98,-285 1060.98,-281.5 1060.98,-288.5"/>
</g>
<!-- Node9 -->
<g id="node9" class="node"><title>Node9</title>
<g id="a_node9"><a xlink:href="../../d6/d95/classparser_1_1_parser.html#a240c75608624a9c67402a296855c4d1d" target="_top" xlink:title="parser.Parser.initialize\lCommands">
<polygon fill="white" stroke="black" points="1062,-169 1062,-199 1182,-199 1182,-169 1062,-169"/>
<text text-anchor="start" x="1070" y="-187" font-family="Helvetica,sans-Serif" font-size="10.00">parser.Parser.initialize</text>
<text text-anchor="middle" x="1122" y="-176" font-family="Helvetica,sans-Serif" font-size="10.00">Commands</text>
</a>
</g>
</g>
<!-- Node8&#45;&gt;Node9 -->
<g id="edge8" class="edge"><title>Node8&#45;&gt;Node9</title>
<path fill="none" stroke="midnightblue" d="M947.709,-144.506C977.273,-151.244 1017.62,-160.44 1051.95,-168.263"/>
<polygon fill="midnightblue" stroke="midnightblue" points="1051.4,-171.727 1061.92,-170.536 1052.95,-164.902 1051.4,-171.727"/>
</g>
<!-- Node13 -->
<g id="node13" class="node"><title>Node13</title>
<g id="a_node13"><a xlink:href="../../d6/d95/classparser_1_1_parser.html#a4ecbffc246c3add017c4720eed4c6da9" target="_top" xlink:title="parser.Parser.parse">
<polygon fill="white" stroke="black" points="1067.5,-237.5 1067.5,-256.5 1176.5,-256.5 1176.5,-237.5 1067.5,-237.5"/>
<text text-anchor="middle" x="1122" y="-244.5" font-family="Helvetica,sans-Serif" font-size="10.00">parser.Parser.parse</text>
</a>
</g>
</g>
<!-- Node8&#45;&gt;Node13 -->
<g id="edge12" class="edge"><title>Node8&#45;&gt;Node13</title>
<path fill="none" stroke="midnightblue" d="M920.639,-144.691C943.161,-159.385 987.911,-187.729 1028,-208 1046.72,-217.465 1068.29,-226.613 1085.94,-233.668"/>
<polygon fill="midnightblue" stroke="midnightblue" points="1084.71,-236.946 1095.3,-237.36 1087.28,-230.435 1084.71,-236.946"/>
</g>
<!-- Node26 -->
<g id="node26" class="node"><title>Node26</title>
<g id="a_node26"><a xlink:href="../../d7/d35/classcommand_1_1_command.html#a957099a70dd30b5dc897e0caf07d2d99" target="_top" xlink:title="command.Command.getCommand\lValues">
<polygon fill="white" stroke="black" points="1028,-120 1028,-150 1216,-150 1216,-120 1028,-120"/>
<text text-anchor="start" x="1036" y="-138" font-family="Helvetica,sans-Serif" font-size="10.00">command.Command.getCommand</text>
<text text-anchor="middle" x="1122" y="-127" font-family="Helvetica,sans-Serif" font-size="10.00">Values</text>
</a>
</g>
</g>
<!-- Node8&#45;&gt;Node26 -->
<g id="edge35" class="edge"><title>Node8&#45;&gt;Node26</title>
<path fill="none" stroke="midnightblue" d="M954.25,-135C973.146,-135 995.594,-135 1017.8,-135"/>
<polygon fill="midnightblue" stroke="midnightblue" points="1017.97,-138.5 1027.97,-135 1017.97,-131.5 1017.97,-138.5"/>
</g>
<!-- Node28 -->
<g id="node28" class="node"><title>Node28</title>
<g id="a_node28"><a xlink:href="../../d6/d95/classparser_1_1_parser.html#a8679d61f4ae6c55910ef113bcdda2c75" target="_top" xlink:title="parser.Parser.updateVariable">
<polygon fill="white" stroke="black" points="1045,-81.5 1045,-100.5 1199,-100.5 1199,-81.5 1045,-81.5"/>
<text text-anchor="middle" x="1122" y="-88.5" font-family="Helvetica,sans-Serif" font-size="10.00">parser.Parser.updateVariable</text>
</a>
</g>
</g>
<!-- Node8&#45;&gt;Node28 -->
<g id="edge37" class="edge"><title>Node8&#45;&gt;Node28</title>
<path fill="none" stroke="midnightblue" d="M952.344,-125.496C975.132,-120.825 1003.01,-115.114 1028,-110 1039.73,-107.6 1052.29,-105.032 1064.27,-102.584"/>
<polygon fill="midnightblue" stroke="midnightblue" points="1065.07,-105.994 1074.16,-100.563 1063.67,-99.1356 1065.07,-105.994"/>
</g>
<!-- Node30 -->
<g id="node30" class="node"><title>Node30</title>
<g id="a_node30"><a xlink:href="../../d9/dd0/classworld_1_1_world.html#adcbcb8328c7e832fcb710a91457e6772" target="_top" xlink:title="world.World.runCommand">
<polygon fill="white" stroke="black" points="1052.5,-43.5 1052.5,-62.5 1191.5,-62.5 1191.5,-43.5 1052.5,-43.5"/>
<text text-anchor="middle" x="1122" y="-50.5" font-family="Helvetica,sans-Serif" font-size="10.00">world.World.runCommand</text>
</a>
</g>
</g>
<!-- Node8&#45;&gt;Node30 -->
<g id="edge39" class="edge"><title>Node8&#45;&gt;Node30</title>
<path fill="none" stroke="midnightblue" d="M921.174,-125.413C943.659,-111.621 987.535,-86.273 1028,-72 1035.62,-69.311 1043.74,-66.9548 1051.88,-64.9028"/>
<polygon fill="midnightblue" stroke="midnightblue" points="1052.87,-68.265 1061.79,-62.5485 1051.25,-61.4545 1052.87,-68.265"/>
</g>
<!-- Node31 -->
<g id="node31" class="node"><title>Node31</title>
<g id="a_node31"><a xlink:href="../../d6/d95/classparser_1_1_parser.html#acebafe1593fc1f09ac31c7104438e4b1" target="_top" xlink:title="parser.Parser.resetRepcount">
<polygon fill="white" stroke="black" points="1046.5,-5.5 1046.5,-24.5 1197.5,-24.5 1197.5,-5.5 1046.5,-5.5"/>
<text text-anchor="middle" x="1122" y="-12.5" font-family="Helvetica,sans-Serif" font-size="10.00">parser.Parser.resetRepcount</text>
</a>
</g>
</g>
<!-- Node8&#45;&gt;Node31 -->
<g id="edge40" class="edge"><title>Node8&#45;&gt;Node31</title>
<path fill="none" stroke="midnightblue" d="M914.387,-125.416C932.768,-105.072 978.894,-57.5103 1028,-34 1033.24,-31.4926 1038.79,-29.3156 1044.48,-27.4254"/>
<polygon fill="midnightblue" stroke="midnightblue" points="1045.59,-30.7476 1054.15,-24.5074 1043.57,-24.0461 1045.59,-30.7476"/>
</g>
<!-- Node10 -->
<g id="node10" class="node"><title>Node10</title>
<g id="a_node10"><a xlink:href="../../d6/d95/classparser_1_1_parser.html#a4f582c65390bddc57219c0b5c31ef5e7" target="_top" xlink:title="parser.Parser.makeTree">
<polygon fill="white" stroke="black" points="1282,-163.5 1282,-182.5 1410,-182.5 1410,-163.5 1282,-163.5"/>
<text text-anchor="middle" x="1346" y="-170.5" font-family="Helvetica,sans-Serif" font-size="10.00">parser.Parser.makeTree</text>
</a>
</g>
</g>
<!-- Node9&#45;&gt;Node10 -->
<g id="edge9" class="edge"><title>Node9&#45;&gt;Node10</title>
<path fill="none" stroke="midnightblue" d="M1182.2,-181.067C1209.66,-179.706 1242.57,-178.075 1271.6,-176.637"/>
<polygon fill="midnightblue" stroke="midnightblue" points="1271.87,-180.128 1281.69,-176.137 1271.53,-173.136 1271.87,-180.128"/>
</g>
<!-- Node11 -->
<g id="node11" class="node"><title>Node11</title>
<g id="a_node11"><a xlink:href="../../d9/d1b/classcommand_1_1_command_factory.html#a87bf7e648425bb22124367cabedb3327" target="_top" xlink:title="command.CommandFactory.get\lNumParameters">
<polygon fill="white" stroke="black" points="1495,-115 1495,-145 1665,-145 1665,-115 1495,-115"/>
<text text-anchor="start" x="1503" y="-133" font-family="Helvetica,sans-Serif" font-size="10.00">command.CommandFactory.get</text>
<text text-anchor="middle" x="1580" y="-122" font-family="Helvetica,sans-Serif" font-size="10.00">NumParameters</text>
</a>
</g>
</g>
<!-- Node10&#45;&gt;Node11 -->
<g id="edge10" class="edge"><title>Node10&#45;&gt;Node11</title>
<path fill="none" stroke="midnightblue" d="M1398.49,-163.457C1424.75,-158.589 1457.49,-152.521 1487.85,-146.895"/>
<polygon fill="midnightblue" stroke="midnightblue" points="1488.84,-150.27 1498.04,-145.006 1487.57,-143.387 1488.84,-150.27"/>
</g>
<!-- Node12 -->
<g id="node12" class="node"><title>Node12</title>
<g id="a_node12"><a xlink:href="../../d9/d1b/classcommand_1_1_command_factory.html#a947fdc151e857ea74564d0d1fe268246" target="_top" xlink:title="command.CommandFactory.translate\lCommand">
<polygon fill="white" stroke="black" points="1720.5,-137 1720.5,-167 1917.5,-167 1917.5,-137 1720.5,-137"/>
<text text-anchor="start" x="1728.5" y="-155" font-family="Helvetica,sans-Serif" font-size="10.00">command.CommandFactory.translate</text>
<text text-anchor="middle" x="1819" y="-144" font-family="Helvetica,sans-Serif" font-size="10.00">Command</text>
</a>
</g>
</g>
<!-- Node11&#45;&gt;Node12 -->
<g id="edge11" class="edge"><title>Node11&#45;&gt;Node12</title>
<path fill="none" stroke="midnightblue" d="M1665.22,-137.818C1679.71,-139.163 1694.94,-140.577 1709.95,-141.97"/>
<polygon fill="midnightblue" stroke="midnightblue" points="1710.01,-145.491 1720.29,-142.93 1710.66,-138.521 1710.01,-145.491"/>
</g>
<!-- Node13&#45;&gt;Node10 -->
<g id="edge34" class="edge"><title>Node13&#45;&gt;Node10</title>
<path fill="none" stroke="midnightblue" d="M1146.37,-237.359C1165.21,-229.548 1192.37,-218.203 1216,-208 1232.07,-201.058 1235.32,-197.339 1252,-192 1260.53,-189.269 1269.63,-186.841 1278.67,-184.711"/>
<polygon fill="midnightblue" stroke="midnightblue" points="1279.44,-188.125 1288.43,-182.516 1277.91,-181.296 1279.44,-188.125"/>
</g>
<!-- Node14 -->
<g id="node14" class="node"><title>Node14</title>
<g id="a_node14"><a xlink:href="../../d9/d1b/classcommand_1_1_command_factory.html#ab25bb047b051661d31adf73b2dae5649" target="_top" xlink:title="command.CommandFactory.create\lCommand">
<polygon fill="white" stroke="black" points="1253.5,-202 1253.5,-232 1438.5,-232 1438.5,-202 1253.5,-202"/>
<text text-anchor="start" x="1261.5" y="-220" font-family="Helvetica,sans-Serif" font-size="10.00">command.CommandFactory.create</text>
<text text-anchor="middle" x="1346" y="-209" font-family="Helvetica,sans-Serif" font-size="10.00">Command</text>
</a>
</g>
</g>
<!-- Node13&#45;&gt;Node14 -->
<g id="edge13" class="edge"><title>Node13&#45;&gt;Node14</title>
<path fill="none" stroke="midnightblue" d="M1176.74,-239.738C1196.75,-237.034 1220.18,-233.868 1243.08,-230.772"/>
<polygon fill="midnightblue" stroke="midnightblue" points="1243.77,-234.212 1253.21,-229.404 1242.83,-227.275 1243.77,-234.212"/>
</g>
<!-- Node16 -->
<g id="node16" class="node"><title>Node16</title>
<g id="a_node16"><a xlink:href="../../d6/d95/classparser_1_1_parser.html#aac1cff62f68138c7e977a67d39671701" target="_top" xlink:title="parser.Parser.generateCommand\lInput">
<polygon fill="white" stroke="black" points="1258,-349 1258,-379 1434,-379 1434,-349 1258,-349"/>
<text text-anchor="start" x="1266" y="-367" font-family="Helvetica,sans-Serif" font-size="10.00">parser.Parser.generateCommand</text>
<text text-anchor="middle" x="1346" y="-356" font-family="Helvetica,sans-Serif" font-size="10.00">Input</text>
</a>
</g>
</g>
<!-- Node13&#45;&gt;Node16 -->
<g id="edge16" class="edge"><title>Node13&#45;&gt;Node16</title>
<path fill="none" stroke="midnightblue" d="M1176.72,-249.556C1190.6,-252.359 1204.78,-257.343 1216,-266 1244.64,-288.096 1224.05,-316.039 1252,-339 1254.03,-340.671 1256.17,-342.232 1258.39,-343.688"/>
<polygon fill="midnightblue" stroke="midnightblue" points="1256.89,-346.863 1267.3,-348.808 1260.38,-340.793 1256.89,-346.863"/>
</g>
<!-- Node21 -->
<g id="node21" class="node"><title>Node21</title>
<g id="a_node21"><a xlink:href="../../d6/d95/classparser_1_1_parser.html#a3efcd1192e76101919526b4a5e0046f4" target="_top" xlink:title="parser.Parser.getNodeBefore\lToReplace">
<polygon fill="white" stroke="black" points="1268.5,-300 1268.5,-330 1423.5,-330 1423.5,-300 1268.5,-300"/>
<text text-anchor="start" x="1276.5" y="-318" font-family="Helvetica,sans-Serif" font-size="10.00">parser.Parser.getNodeBefore</text>
<text text-anchor="middle" x="1346" y="-307" font-family="Helvetica,sans-Serif" font-size="10.00">ToReplace</text>
</a>
</g>
</g>
<!-- Node13&#45;&gt;Node21 -->
<g id="edge21" class="edge"><title>Node13&#45;&gt;Node21</title>
<path fill="none" stroke="midnightblue" d="M1176.69,-254.3C1189.84,-257.079 1203.68,-260.866 1216,-266 1233.75,-273.396 1234.48,-282.066 1252,-290 1257.37,-292.431 1263.02,-294.666 1268.77,-296.713"/>
<polygon fill="midnightblue" stroke="midnightblue" points="1267.93,-300.122 1278.52,-299.983 1270.16,-293.485 1267.93,-300.122"/>
</g>
<!-- Node24 -->
<g id="node24" class="node"><title>Node24</title>
<g id="a_node24"><a xlink:href="../../d6/d95/classparser_1_1_parser.html#a447c473b62ba23b7c144df9bb38a9a41" target="_top" xlink:title="parser.Parser.getNodeFor\lCommand">
<polygon fill="white" stroke="black" points="1277,-251 1277,-281 1415,-281 1415,-251 1277,-251"/>
<text text-anchor="start" x="1285" y="-269" font-family="Helvetica,sans-Serif" font-size="10.00">parser.Parser.getNodeFor</text>
<text text-anchor="middle" x="1346" y="-258" font-family="Helvetica,sans-Serif" font-size="10.00">Command</text>
</a>
</g>
</g>
<!-- Node13&#45;&gt;Node24 -->
<g id="edge27" class="edge"><title>Node13&#45;&gt;Node24</title>
<path fill="none" stroke="midnightblue" d="M1176.74,-251.599C1203.6,-253.898 1236.62,-256.724 1266.28,-259.262"/>
<polygon fill="midnightblue" stroke="midnightblue" points="1266.35,-262.781 1276.61,-260.147 1266.94,-255.807 1266.35,-262.781"/>
</g>
<!-- Node25 -->
<g id="node25" class="node"><title>Node25</title>
<g id="a_node25"><a xlink:href="../../d3/dcc/classparser_1_1_node.html#a066da2b478008f39a02440d7afceb9ee" target="_top" xlink:title="parser.Node.insertChild">
<polygon fill="white" stroke="black" points="1282,-398.5 1282,-417.5 1410,-417.5 1410,-398.5 1282,-398.5"/>
<text text-anchor="middle" x="1346" y="-405.5" font-family="Helvetica,sans-Serif" font-size="10.00">parser.Node.insertChild</text>
</a>
</g>
</g>
<!-- Node13&#45;&gt;Node25 -->
<g id="edge32" class="edge"><title>Node13&#45;&gt;Node25</title>
<path fill="none" stroke="midnightblue" d="M1176.79,-248.137C1190.99,-250.883 1205.32,-256.193 1216,-266 1257.65,-304.232 1210.55,-349.554 1252,-388 1257.79,-393.37 1264.66,-397.432 1272.01,-400.486"/>
<polygon fill="midnightblue" stroke="midnightblue" points="1270.93,-403.817 1281.52,-403.84 1273.25,-397.215 1270.93,-403.817"/>
</g>
<!-- Node14&#45;&gt;Node12 -->
<g id="edge15" class="edge"><title>Node14&#45;&gt;Node12</title>
<path fill="none" stroke="midnightblue" d="M1423.26,-201.968C1440.56,-198.793 1458.89,-195.615 1476,-193 1554.16,-181.058 1642.8,-170.515 1710.26,-163.111"/>
<polygon fill="midnightblue" stroke="midnightblue" points="1710.92,-166.561 1720.48,-161.996 1710.16,-159.602 1710.92,-166.561"/>
</g>
<!-- Node15 -->
<g id="node15" class="node"><title>Node15</title>
<g id="a_node15"><a xlink:href="../../d9/d1b/classcommand_1_1_command_factory.html#abd97ea3e22afc09e07ed1d4fd039d11f" target="_top" xlink:title="command.CommandFactory.reflectCMD">
<polygon fill="white" stroke="black" points="1476.5,-202.5 1476.5,-221.5 1683.5,-221.5 1683.5,-202.5 1476.5,-202.5"/>
<text text-anchor="middle" x="1580" y="-209.5" font-family="Helvetica,sans-Serif" font-size="10.00">command.CommandFactory.reflectCMD</text>
</a>
</g>
</g>
<!-- Node14&#45;&gt;Node15 -->
<g id="edge14" class="edge"><title>Node14&#45;&gt;Node15</title>
<path fill="none" stroke="midnightblue" d="M1438.69,-215.024C1447.81,-214.827 1457.13,-214.626 1466.43,-214.426"/>
<polygon fill="midnightblue" stroke="midnightblue" points="1466.57,-217.924 1476.49,-214.209 1466.42,-210.926 1466.57,-217.924"/>
</g>
<!-- Node17 -->
<g id="node17" class="node"><title>Node17</title>
<g id="a_node17"><a xlink:href="../../d3/dcc/classparser_1_1_node.html#aa67bc0d39227232943abec9b95b23235" target="_top" xlink:title="parser.Node.getChild1">
<polygon fill="white" stroke="black" points="1518.5,-316.5 1518.5,-335.5 1641.5,-335.5 1641.5,-316.5 1518.5,-316.5"/>
<text text-anchor="middle" x="1580" y="-323.5" font-family="Helvetica,sans-Serif" font-size="10.00">parser.Node.getChild1</text>
</a>
</g>
</g>
<!-- Node16&#45;&gt;Node17 -->
<g id="edge17" class="edge"><title>Node16&#45;&gt;Node17</title>
<path fill="none" stroke="midnightblue" d="M1434.05,-349.742C1459.36,-345.596 1486.64,-341.128 1510.63,-337.199"/>
<polygon fill="midnightblue" stroke="midnightblue" points="1511.39,-340.621 1520.69,-335.55 1510.26,-333.713 1511.39,-340.621"/>
</g>
<!-- Node18 -->
<g id="node18" class="node"><title>Node18</title>
<g id="a_node18"><a xlink:href="../../d3/dcc/classparser_1_1_node.html#a0f13775acc62af77cdde90dbeaf26bbc" target="_top" xlink:title="parser.Node.getChild2">
<polygon fill="white" stroke="black" points="1518.5,-354.5 1518.5,-373.5 1641.5,-373.5 1641.5,-354.5 1518.5,-354.5"/>
<text text-anchor="middle" x="1580" y="-361.5" font-family="Helvetica,sans-Serif" font-size="10.00">parser.Node.getChild2</text>
</a>
</g>
</g>
<!-- Node16&#45;&gt;Node18 -->
<g id="edge18" class="edge"><title>Node16&#45;&gt;Node18</title>
<path fill="none" stroke="midnightblue" d="M1434.05,-364C1458.46,-364 1484.71,-364 1508.07,-364"/>
<polygon fill="midnightblue" stroke="midnightblue" points="1508.23,-367.5 1518.23,-364 1508.23,-360.5 1508.23,-367.5"/>
</g>
<!-- Node19 -->
<g id="node19" class="node"><title>Node19</title>
<g id="a_node19"><a xlink:href="../../d3/dcc/classparser_1_1_node.html#a9c12e8d4375a7517eae0a35724b253c4" target="_top" xlink:title="parser.Node.getValue">
<polygon fill="white" stroke="black" points="1520,-392.5 1520,-411.5 1640,-411.5 1640,-392.5 1520,-392.5"/>
<text text-anchor="middle" x="1580" y="-399.5" font-family="Helvetica,sans-Serif" font-size="10.00">parser.Node.getValue</text>
</a>
</g>
</g>
<!-- Node16&#45;&gt;Node19 -->
<g id="edge19" class="edge"><title>Node16&#45;&gt;Node19</title>
<path fill="none" stroke="midnightblue" d="M1434.05,-378.258C1459.36,-382.404 1486.64,-386.872 1510.63,-390.801"/>
<polygon fill="midnightblue" stroke="midnightblue" points="1510.26,-394.287 1520.69,-392.45 1511.39,-387.379 1510.26,-394.287"/>
</g>
<!-- Node20 -->
<g id="node20" class="node"><title>Node20</title>
<g id="a_node20"><a xlink:href="../../d3/dcc/classparser_1_1_node.html#a6bbc0c61aaa261077eb87cfc4e2b45dc" target="_top" xlink:title="parser.Node.numChildren">
<polygon fill="white" stroke="black" points="1510.5,-430.5 1510.5,-449.5 1649.5,-449.5 1649.5,-430.5 1510.5,-430.5"/>
<text text-anchor="middle" x="1580" y="-437.5" font-family="Helvetica,sans-Serif" font-size="10.00">parser.Node.numChildren</text>
</a>
</g>
</g>
<!-- Node16&#45;&gt;Node20 -->
<g id="edge20" class="edge"><title>Node16&#45;&gt;Node20</title>
<path fill="none" stroke="midnightblue" d="M1417.43,-379.148C1425.25,-381.931 1432.94,-385.19 1440,-389 1458.84,-399.162 1456.77,-411.601 1476,-421 1483.63,-424.73 1491.91,-427.731 1500.34,-430.145"/>
<polygon fill="midnightblue" stroke="midnightblue" points="1499.72,-433.601 1510.28,-432.718 1501.48,-426.824 1499.72,-433.601"/>
</g>
<!-- Node21&#45;&gt;Node17 -->
<g id="edge22" class="edge"><title>Node21&#45;&gt;Node17</title>
<path fill="none" stroke="midnightblue" d="M1423.61,-318.632C1450.88,-319.925 1481.44,-321.374 1508.2,-322.643"/>
<polygon fill="midnightblue" stroke="midnightblue" points="1508.1,-326.142 1518.26,-323.12 1508.43,-319.15 1508.1,-326.142"/>
</g>
<!-- Node21&#45;&gt;Node18 -->
<g id="edge23" class="edge"><title>Node21&#45;&gt;Node18</title>
<path fill="none" stroke="midnightblue" d="M1408.88,-330C1430.11,-334.985 1454.05,-340.426 1476,-345 1488.43,-347.591 1501.74,-350.182 1514.53,-352.58"/>
<polygon fill="midnightblue" stroke="midnightblue" points="1514.18,-356.074 1524.65,-354.459 1515.46,-349.192 1514.18,-356.074"/>
</g>
<!-- Node21&#45;&gt;Node19 -->
<g id="edge24" class="edge"><title>Node21&#45;&gt;Node19</title>
<path fill="none" stroke="midnightblue" d="M1422.85,-330.146C1428.86,-332.658 1434.66,-335.587 1440,-339 1461.29,-352.61 1454.25,-370.145 1476,-383 1486.27,-389.071 1498.05,-393.278 1509.88,-396.178"/>
<polygon fill="midnightblue" stroke="midnightblue" points="1509.29,-399.63 1519.8,-398.318 1510.76,-392.788 1509.29,-399.63"/>
</g>
<!-- Node22 -->
<g id="node22" class="node"><title>Node22</title>
<g id="a_node22"><a xlink:href="../../d3/dcc/classparser_1_1_node.html#ab14db24c0724dec4387e29d513008e2e" target="_top" xlink:title="parser.Node.hasChildren">
<polygon fill="white" stroke="black" points="1513,-240.5 1513,-259.5 1647,-259.5 1647,-240.5 1513,-240.5"/>
<text text-anchor="middle" x="1580" y="-247.5" font-family="Helvetica,sans-Serif" font-size="10.00">parser.Node.hasChildren</text>
</a>
</g>
</g>
<!-- Node21&#45;&gt;Node22 -->
<g id="edge25" class="edge"><title>Node21&#45;&gt;Node22</title>
<path fill="none" stroke="midnightblue" d="M1411.78,-299.97C1421.38,-297.06 1431.05,-293.735 1440,-290 1457.09,-282.866 1458.63,-275.443 1476,-269 1484.58,-265.818 1493.76,-263.154 1502.98,-260.925"/>
<polygon fill="midnightblue" stroke="midnightblue" points="1503.98,-264.286 1512.97,-258.675 1502.45,-257.458 1503.98,-264.286"/>
</g>
<!-- Node23 -->
<g id="node23" class="node"><title>Node23</title>
<g id="a_node23"><a xlink:href="../../d3/dcc/classparser_1_1_node.html#aa92667a825777b3d757bc3b1a247ac20" target="_top" xlink:title="parser.Node.isLeaf">
<polygon fill="white" stroke="black" points="1527,-278.5 1527,-297.5 1633,-297.5 1633,-278.5 1527,-278.5"/>
<text text-anchor="middle" x="1580" y="-285.5" font-family="Helvetica,sans-Serif" font-size="10.00">parser.Node.isLeaf</text>
</a>
</g>
</g>
<!-- Node21&#45;&gt;Node23 -->
<g id="edge26" class="edge"><title>Node21&#45;&gt;Node23</title>
<path fill="none" stroke="midnightblue" d="M1423.61,-306.084C1453.7,-302.582 1487.81,-298.613 1516.38,-295.287"/>
<polygon fill="midnightblue" stroke="midnightblue" points="1517.12,-298.726 1526.65,-294.093 1516.31,-291.773 1517.12,-298.726"/>
</g>
<!-- Node24&#45;&gt;Node17 -->
<g id="edge28" class="edge"><title>Node24&#45;&gt;Node17</title>
<path fill="none" stroke="midnightblue" d="M1412.02,-281.103C1421.49,-283.787 1431.06,-286.769 1440,-290 1456.64,-296.015 1459.16,-301.572 1476,-307 1486.34,-310.331 1497.45,-313.142 1508.43,-315.494"/>
<polygon fill="midnightblue" stroke="midnightblue" points="1507.94,-318.967 1518.44,-317.527 1509.33,-312.107 1507.94,-318.967"/>
</g>
<!-- Node24&#45;&gt;Node18 -->
<g id="edge29" class="edge"><title>Node24&#45;&gt;Node18</title>
<path fill="none" stroke="midnightblue" d="M1415.18,-277.271C1424,-280.502 1432.55,-284.657 1440,-290 1463.75,-307.02 1451.67,-328.823 1476,-345 1485.66,-351.425 1496.91,-355.827 1508.34,-358.816"/>
<polygon fill="midnightblue" stroke="midnightblue" points="1507.88,-362.3 1518.41,-361.094 1509.43,-355.473 1507.88,-362.3"/>
</g>
<!-- Node24&#45;&gt;Node22 -->
<g id="edge30" class="edge"><title>Node24&#45;&gt;Node22</title>
<path fill="none" stroke="midnightblue" d="M1415.04,-261.308C1442.55,-259.411 1474.42,-257.212 1502.71,-255.261"/>
<polygon fill="midnightblue" stroke="midnightblue" points="1503.22,-258.734 1512.96,-254.555 1502.74,-251.751 1503.22,-258.734"/>
</g>
<!-- Node24&#45;&gt;Node23 -->
<g id="edge31" class="edge"><title>Node24&#45;&gt;Node23</title>
<path fill="none" stroke="midnightblue" d="M1415.04,-272.452C1447.11,-275.494 1485.12,-279.098 1516.47,-282.07"/>
<polygon fill="midnightblue" stroke="midnightblue" points="1516.54,-285.592 1526.82,-283.052 1517.2,-278.624 1516.54,-285.592"/>
</g>
<!-- Node25&#45;&gt;Node19 -->
<g id="edge33" class="edge"><title>Node25&#45;&gt;Node19</title>
<path fill="none" stroke="midnightblue" d="M1410.09,-406.368C1440.96,-405.57 1478.2,-404.607 1509.85,-403.788"/>
<polygon fill="midnightblue" stroke="midnightblue" points="1510.01,-407.286 1519.91,-403.528 1509.82,-400.288 1510.01,-407.286"/>
</g>
<!-- Node27 -->
<g id="node27" class="node"><title>Node27</title>
<g id="a_node27"><a xlink:href="../../d7/d35/classcommand_1_1_command.html#a7e1387db1d0d35d4dcd3a3ebe2ff902a" target="_top" xlink:title="command.Command.makeString">
<polygon fill="white" stroke="black" points="1257.5,-125.5 1257.5,-144.5 1434.5,-144.5 1434.5,-125.5 1257.5,-125.5"/>
<text text-anchor="middle" x="1346" y="-132.5" font-family="Helvetica,sans-Serif" font-size="10.00">command.Command.makeString</text>
</a>
</g>
</g>
<!-- Node26&#45;&gt;Node27 -->
<g id="edge36" class="edge"><title>Node26&#45;&gt;Node27</title>
<path fill="none" stroke="midnightblue" d="M1216.18,-135C1226.42,-135 1236.86,-135 1247.15,-135"/>
<polygon fill="midnightblue" stroke="midnightblue" points="1247.37,-138.5 1257.37,-135 1247.37,-131.5 1247.37,-138.5"/>
</g>
<!-- Node29 -->
<g id="node29" class="node"><title>Node29</title>
<g id="a_node29"><a xlink:href="../../d9/d1b/classcommand_1_1_command_factory.html#a8347db76764ea8308d029789b49519dd" target="_top" xlink:title="command.CommandFactory.update\lVariable">
<polygon fill="white" stroke="black" points="1252,-76 1252,-106 1440,-106 1440,-76 1252,-76"/>
<text text-anchor="start" x="1260" y="-94" font-family="Helvetica,sans-Serif" font-size="10.00">command.CommandFactory.update</text>
<text text-anchor="middle" x="1346" y="-83" font-family="Helvetica,sans-Serif" font-size="10.00">Variable</text>
</a>
</g>
</g>
<!-- Node28&#45;&gt;Node29 -->
<g id="edge38" class="edge"><title>Node28&#45;&gt;Node29</title>
<path fill="none" stroke="midnightblue" d="M1199.09,-91C1212.72,-91 1227.14,-91 1241.4,-91"/>
<polygon fill="midnightblue" stroke="midnightblue" points="1241.73,-94.5001 1251.73,-91 1241.73,-87.5001 1241.73,-94.5001"/>
</g>
<!-- Node32 -->
<g id="node32" class="node"><title>Node32</title>
<g id="a_node32"><a xlink:href="../../d9/d1b/classcommand_1_1_command_factory.html#a0d59e4f0f925b5046957c0e054ce8bef" target="_top" xlink:title="command.CommandFactory.reset\lRepcount">
<polygon fill="white" stroke="black" points="1256.5,-0 1256.5,-30 1435.5,-30 1435.5,-0 1256.5,-0"/>
<text text-anchor="start" x="1264.5" y="-18" font-family="Helvetica,sans-Serif" font-size="10.00">command.CommandFactory.reset</text>
<text text-anchor="middle" x="1346" y="-7" font-family="Helvetica,sans-Serif" font-size="10.00">Repcount</text>
</a>
</g>
</g>
<!-- Node31&#45;&gt;Node32 -->
<g id="edge41" class="edge"><title>Node31&#45;&gt;Node32</title>
<path fill="none" stroke="midnightblue" d="M1197.54,-15C1213.19,-15 1229.92,-15 1246.29,-15"/>
<polygon fill="midnightblue" stroke="midnightblue" points="1246.43,-18.5001 1256.43,-15 1246.43,-11.5001 1246.43,-18.5001"/>
</g>
</g>
</svg>
