<?xml version="1.0" encoding="UTF-8" standalone="no"?>
<!DOCTYPE svg PUBLIC "-//W3C//DTD SVG 1.1//EN"
 "http://www.w3.org/Graphics/SVG/1.1/DTD/svg11.dtd">
<!-- Generated by graphviz version 2.36.0 (20140111.2315)
 -->
<!-- Title: userInterface.UI.UI Pages: 1 -->
<!--zoomable 489 -->
<svg id="main" version="1.1" xmlns="http://www.w3.org/2000/svg" xmlns:xlink="http://www.w3.org/1999/xlink" xml:space="preserve" onload="init(evt)">
<style type="text/css"><![CDATA[
.edge:hover path { stroke: red; }
.edge:hover polygon { stroke: red; fill: red; }
]]></style>
<script type="text/javascript"><![CDATA[
var edges = document.getElementsByTagName('g');
if (edges && edges.length) {
  for (var i=0;i<edges.length;i++) {
    if (edges[i].id.substr(0,4)=='edge') {
      edges[i].setAttribute('class','edge');
    }
  }
}
]]></script>
        <defs>
                <circle id="rim" cx="0" cy="0" r="7"/>
                <circle id="rim2" cx="0" cy="0" r="3.5"/>
                <g id="zoomPlus">
                        <use xlink:href="#rim" fill="#404040">
                                <set attributeName="fill" to="#808080" begin="zoomplus.mouseover" end="zoomplus.mouseout"/>
                        </use>
                        <path d="M-4,0h8M0,-4v8" fill="none" stroke="white" stroke-width="1.5" pointer-events="none"/>
                </g>
                <g id="zoomMin">
                        <use xlink:href="#rim" fill="#404040">
                                <set attributeName="fill" to="#808080" begin="zoomminus.mouseover" end="zoomminus.mouseout"/>
                        </use>
                        <path d="M-4,0h8" fill="none" stroke="white" stroke-width="1.5" pointer-events="none"/>
                </g>
                <g id="dirArrow">
                        <path fill="none" stroke="white" stroke-width="1.5" d="M0,-3.0v7 M-2.5,-0.5L0,-3.0L2.5,-0.5"/>
                </g>
               <g id="resetDef">
                       <use xlink:href="#rim2" fill="#404040">
                               <set attributeName="fill" to="#808080" begin="reset.mouseover" end="reset.mouseout"/>
                       </use>
               </g>
        </defs>

<script type="text/javascript">
var viewWidth = 2238;
var viewHeight = 489;
var sectionId = 'dynsection-1';
</script>
<script xlink:href="../../svgpan.js"/>
<svg id="graph" class="graph">
<g id="viewport">
<title>userInterface.UI.UI</title>
<polygon fill="white" stroke="none" points="-4,4 -4,-485 2234,-485 2234,4 -4,4"/>
<!-- Node1 -->
<g id="node1" class="node"><title>Node1</title>
<polygon fill="#bfbfbf" stroke="black" points="0.5,-152.5 0.5,-171.5 105.5,-171.5 105.5,-152.5 0.5,-152.5"/>
<text text-anchor="middle" x="53" y="-159.5" font-family="Helvetica,sans-Serif" font-size="10.00">userInterface.UI.UI</text>
</g>
<!-- Node2 -->
<g id="node2" class="node"><title>Node2</title>
<g id="a_node2"><a xlink:href="../../d0/d7c/classuser_interface_1_1_u_i.html#a3bbaba49b5a758cdab6fb4182e5dec4c" target="_top" xlink:title="userInterface.UI.initialize">
<polygon fill="white" stroke="black" points="142,-152.5 142,-171.5 276,-171.5 276,-152.5 142,-152.5"/>
<text text-anchor="middle" x="209" y="-159.5" font-family="Helvetica,sans-Serif" font-size="10.00">userInterface.UI.initialize</text>
</a>
</g>
</g>
<!-- Node1&#45;&gt;Node2 -->
<g id="edge1" class="edge"><title>Node1&#45;&gt;Node2</title>
<path fill="none" stroke="midnightblue" d="M105.708,-162C114.061,-162 122.861,-162 131.649,-162"/>
<polygon fill="midnightblue" stroke="midnightblue" points="131.934,-165.5 141.934,-162 131.933,-158.5 131.934,-165.5"/>
</g>
<!-- Node3 -->
<g id="node3" class="node"><title>Node3</title>
<g id="a_node3"><a xlink:href="../../d0/d7c/classuser_interface_1_1_u_i.html#a9f7eaa121e1405b45e262f03859f9ff0" target="_top" xlink:title="userInterface.UI.setUpCommand\lField">
<polygon fill="white" stroke="black" points="312,-273 312,-303 486,-303 486,-273 312,-273"/>
<text text-anchor="start" x="320" y="-291" font-family="Helvetica,sans-Serif" font-size="10.00">userInterface.UI.setUpCommand</text>
<text text-anchor="middle" x="399" y="-280" font-family="Helvetica,sans-Serif" font-size="10.00">Field</text>
</a>
</g>
</g>
<!-- Node2&#45;&gt;Node3 -->
<g id="edge2" class="edge"><title>Node2&#45;&gt;Node3</title>
<path fill="none" stroke="midnightblue" d="M217.013,-171.655C232.092,-191.717 269.683,-238.11 312,-263 315.694,-265.173 319.589,-267.167 323.6,-268.997"/>
<polygon fill="midnightblue" stroke="midnightblue" points="322.551,-272.352 333.127,-272.974 325.247,-265.892 322.551,-272.352"/>
</g>
<!-- Node35 -->
<g id="node35" class="node"><title>Node35</title>
<g id="a_node35"><a xlink:href="../../d0/d7c/classuser_interface_1_1_u_i.html#ad3435fb6061c1b8ebcade613c318fd27" target="_top" xlink:title="userInterface.UI.setUpPane">
<polygon fill="white" stroke="black" points="325.5,-234.5 325.5,-253.5 472.5,-253.5 472.5,-234.5 325.5,-234.5"/>
<text text-anchor="middle" x="399" y="-241.5" font-family="Helvetica,sans-Serif" font-size="10.00">userInterface.UI.setUpPane</text>
</a>
</g>
</g>
<!-- Node2&#45;&gt;Node35 -->
<g id="edge45" class="edge"><title>Node2&#45;&gt;Node35</title>
<path fill="none" stroke="midnightblue" d="M222.452,-171.637C240.959,-185.492 277.283,-210.917 312,-225 318.283,-227.549 324.97,-229.785 331.732,-231.739"/>
<polygon fill="midnightblue" stroke="midnightblue" points="331.089,-235.191 341.655,-234.406 332.906,-228.431 331.089,-235.191"/>
</g>
<!-- Node36 -->
<g id="node36" class="node"><title>Node36</title>
<g id="a_node36"><a xlink:href="../../d0/d7c/classuser_interface_1_1_u_i.html#a83df006468b1ce0b6b4f302393cc1ff3" target="_top" xlink:title="userInterface.UI.setUpController">
<polygon fill="white" stroke="black" points="314,-196.5 314,-215.5 484,-215.5 484,-196.5 314,-196.5"/>
<text text-anchor="middle" x="399" y="-203.5" font-family="Helvetica,sans-Serif" font-size="10.00">userInterface.UI.setUpController</text>
</a>
</g>
</g>
<!-- Node2&#45;&gt;Node36 -->
<g id="edge46" class="edge"><title>Node2&#45;&gt;Node36</title>
<path fill="none" stroke="midnightblue" d="M250.694,-171.601C269.371,-176 291.806,-181.276 312,-186 323.313,-188.647 335.467,-191.479 346.971,-194.156"/>
<polygon fill="midnightblue" stroke="midnightblue" points="346.342,-197.603 356.875,-196.459 347.928,-190.785 346.342,-197.603"/>
</g>
<!-- Node37 -->
<g id="node37" class="node"><title>Node37</title>
<g id="a_node37"><a xlink:href="../../de/df4/classuser_interface_1_1_right_panel.html#a458f970045d0dde26df4c9c4c1085fb7" target="_top" xlink:title="userInterface.RightPanel.get\lInstance">
<polygon fill="white" stroke="black" points="323.5,-147 323.5,-177 474.5,-177 474.5,-147 323.5,-147"/>
<text text-anchor="start" x="331.5" y="-165" font-family="Helvetica,sans-Serif" font-size="10.00">userInterface.RightPanel.get</text>
<text text-anchor="middle" x="399" y="-154" font-family="Helvetica,sans-Serif" font-size="10.00">Instance</text>
</a>
</g>
</g>
<!-- Node2&#45;&gt;Node37 -->
<g id="edge47" class="edge"><title>Node2&#45;&gt;Node37</title>
<path fill="none" stroke="midnightblue" d="M276.017,-162C288.123,-162 300.909,-162 313.468,-162"/>
<polygon fill="midnightblue" stroke="midnightblue" points="313.473,-165.5 323.473,-162 313.473,-158.5 313.473,-165.5"/>
</g>
<!-- Node39 -->
<g id="node39" class="node"><title>Node39</title>
<g id="a_node39"><a xlink:href="../../de/df4/classuser_interface_1_1_right_panel.html#ae098bace463240ddbdf7d5694755b7e3" target="_top" xlink:title="userInterface.RightPanel.get\lPanel">
<polygon fill="white" stroke="black" points="323.5,-98 323.5,-128 474.5,-128 474.5,-98 323.5,-98"/>
<text text-anchor="start" x="331.5" y="-116" font-family="Helvetica,sans-Serif" font-size="10.00">userInterface.RightPanel.get</text>
<text text-anchor="middle" x="399" y="-105" font-family="Helvetica,sans-Serif" font-size="10.00">Panel</text>
</a>
</g>
</g>
<!-- Node2&#45;&gt;Node39 -->
<g id="edge49" class="edge"><title>Node2&#45;&gt;Node39</title>
<path fill="none" stroke="midnightblue" d="M246.695,-152.436C270.496,-146.232 302.224,-137.963 330.477,-130.599"/>
<polygon fill="midnightblue" stroke="midnightblue" points="331.513,-133.946 340.307,-128.037 329.748,-127.172 331.513,-133.946"/>
</g>
<!-- Node40 -->
<g id="node40" class="node"><title>Node40</title>
<g id="a_node40"><a xlink:href="../../dc/d1b/classuser_interface_1_1_left_panel.html#a8b31bed29bdfa95820342c6d3facc020" target="_top" xlink:title="userInterface.LeftPanel.get\lInstance">
<polygon fill="white" stroke="black" points="326.5,-49 326.5,-79 471.5,-79 471.5,-49 326.5,-49"/>
<text text-anchor="start" x="334.5" y="-67" font-family="Helvetica,sans-Serif" font-size="10.00">userInterface.LeftPanel.get</text>
<text text-anchor="middle" x="399" y="-56" font-family="Helvetica,sans-Serif" font-size="10.00">Instance</text>
</a>
</g>
</g>
<!-- Node2&#45;&gt;Node40 -->
<g id="edge50" class="edge"><title>Node2&#45;&gt;Node40</title>
<path fill="none" stroke="midnightblue" d="M220.489,-152.396C238.115,-136.741 275.356,-105.696 312,-88 316.035,-86.0515 320.255,-84.237 324.567,-82.5511"/>
<polygon fill="midnightblue" stroke="midnightblue" points="325.925,-85.7814 334.118,-79.0638 323.524,-79.206 325.925,-85.7814"/>
</g>
<!-- Node42 -->
<g id="node42" class="node"><title>Node42</title>
<g id="a_node42"><a xlink:href="../../dc/d1b/classuser_interface_1_1_left_panel.html#a91b78c25a31b4542abda2aec48abbbf3" target="_top" xlink:title="userInterface.LeftPanel.get\lPanel">
<polygon fill="white" stroke="black" points="326.5,-0 326.5,-30 471.5,-30 471.5,-0 326.5,-0"/>
<text text-anchor="start" x="334.5" y="-18" font-family="Helvetica,sans-Serif" font-size="10.00">userInterface.LeftPanel.get</text>
<text text-anchor="middle" x="399" y="-7" font-family="Helvetica,sans-Serif" font-size="10.00">Panel</text>
</a>
</g>
</g>
<!-- Node2&#45;&gt;Node42 -->
<g id="edge52" class="edge"><title>Node2&#45;&gt;Node42</title>
<path fill="none" stroke="midnightblue" d="M215.23,-152.307C228.298,-129.029 264.75,-69.6404 312,-39 314.583,-37.3251 317.283,-35.7656 320.065,-34.3137"/>
<polygon fill="midnightblue" stroke="midnightblue" points="321.626,-37.4476 329.195,-30.0334 318.654,-31.1096 321.626,-37.4476"/>
</g>
<!-- Node4 -->
<g id="node4" class="node"><title>Node4</title>
<g id="a_node4"><a xlink:href="../../d0/d7c/classuser_interface_1_1_u_i.html#a02bd34909b5d6037ea8ebe812879b90a" target="_top" xlink:title="userInterface.UI.makeRun\lButton">
<polygon fill="white" stroke="black" points="522,-273 522,-303 662,-303 662,-273 522,-273"/>
<text text-anchor="start" x="530" y="-291" font-family="Helvetica,sans-Serif" font-size="10.00">userInterface.UI.makeRun</text>
<text text-anchor="middle" x="592" y="-280" font-family="Helvetica,sans-Serif" font-size="10.00">Button</text>
</a>
</g>
</g>
<!-- Node3&#45;&gt;Node4 -->
<g id="edge3" class="edge"><title>Node3&#45;&gt;Node4</title>
<path fill="none" stroke="midnightblue" d="M486.001,-288C494.519,-288 503.139,-288 511.585,-288"/>
<polygon fill="midnightblue" stroke="midnightblue" points="511.784,-291.5 521.784,-288 511.784,-284.5 511.784,-291.5"/>
</g>
<!-- Node5 -->
<g id="node5" class="node"><title>Node5</title>
<g id="a_node5"><a xlink:href="../../d0/d7c/classuser_interface_1_1_u_i.html#ab17592b00ba0b808f524b4fc223303ec" target="_top" xlink:title="userInterface.UI.runCommand">
<polygon fill="white" stroke="black" points="698.5,-278.5 698.5,-297.5 859.5,-297.5 859.5,-278.5 698.5,-278.5"/>
<text text-anchor="middle" x="779" y="-285.5" font-family="Helvetica,sans-Serif" font-size="10.00">userInterface.UI.runCommand</text>
</a>
</g>
</g>
<!-- Node4&#45;&gt;Node5 -->
<g id="edge4" class="edge"><title>Node4&#45;&gt;Node5</title>
<path fill="none" stroke="midnightblue" d="M662.15,-288C670.633,-288 679.397,-288 688.129,-288"/>
<polygon fill="midnightblue" stroke="midnightblue" points="688.346,-291.5 698.346,-288 688.346,-284.5 688.346,-291.5"/>
</g>
<!-- Node6 -->
<g id="node6" class="node"><title>Node6</title>
<g id="a_node6"><a xlink:href="../../d8/d08/classworld_controller_1_1_world_controller.html#a178425d68e3e669c386706153ce44999" target="_top" xlink:title="worldController.WorldController.update">
<polygon fill="white" stroke="black" points="896,-278.5 896,-297.5 1094,-297.5 1094,-278.5 896,-278.5"/>
<text text-anchor="middle" x="995" y="-285.5" font-family="Helvetica,sans-Serif" font-size="10.00">worldController.WorldController.update</text>
</a>
</g>
</g>
<!-- Node5&#45;&gt;Node6 -->
<g id="edge5" class="edge"><title>Node5&#45;&gt;Node6</title>
<path fill="none" stroke="midnightblue" d="M859.686,-288C868.142,-288 876.841,-288 885.554,-288"/>
<polygon fill="midnightblue" stroke="midnightblue" points="885.774,-291.5 895.773,-288 885.773,-284.5 885.774,-291.5"/>
</g>
<!-- Node7 -->
<g id="node7" class="node"><title>Node7</title>
<g id="a_node7"><a xlink:href="../../df/dcb/classturtle_1_1_turtle.html#a610aafaf658c4b351330b7c16c66881c" target="_top" xlink:title="turtle.Turtle.updatePenAttributes">
<polygon fill="white" stroke="black" points="1130.5,-379.5 1130.5,-398.5 1303.5,-398.5 1303.5,-379.5 1130.5,-379.5"/>
<text text-anchor="middle" x="1217" y="-386.5" font-family="Helvetica,sans-Serif" font-size="10.00">turtle.Turtle.updatePenAttributes</text>
</a>
</g>
</g>
<!-- Node6&#45;&gt;Node7 -->
<g id="edge6" class="edge"><title>Node6&#45;&gt;Node7</title>
<path fill="none" stroke="midnightblue" d="M1016.7,-297.502C1055.76,-315.436 1140.5,-354.338 1185.88,-375.171"/>
<polygon fill="midnightblue" stroke="midnightblue" points="1184.65,-378.458 1195.2,-379.45 1187.57,-372.097 1184.65,-378.458"/>
</g>
<!-- Node10 -->
<g id="node10" class="node"><title>Node10</title>
<g id="a_node10"><a xlink:href="../../d9/dd0/classworld_1_1_world.html#ae370733f7784c42741a6ba66c7d2ecf5" target="_top" xlink:title="world.World.listen">
<polygon fill="white" stroke="black" points="1168,-212.5 1168,-231.5 1266,-231.5 1266,-212.5 1168,-212.5"/>
<text text-anchor="middle" x="1217" y="-219.5" font-family="Helvetica,sans-Serif" font-size="10.00">world.World.listen</text>
</a>
</g>
</g>
<!-- Node6&#45;&gt;Node10 -->
<g id="edge9" class="edge"><title>Node6&#45;&gt;Node10</title>
<path fill="none" stroke="midnightblue" d="M1027.99,-278.403C1066.71,-266.786 1132.02,-247.195 1174.56,-234.432"/>
<polygon fill="midnightblue" stroke="midnightblue" points="1175.76,-237.727 1184.33,-231.501 1173.74,-231.023 1175.76,-237.727"/>
</g>
<!-- Node8 -->
<g id="node8" class="node"><title>Node8</title>
<g id="a_node8"><a xlink:href="../../de/d57/classturtle_1_1_pen.html#ac9a08745a9f3615b9e47c1c8e5af8f1b" target="_top" xlink:title="turtle.Pen.getColor">
<polygon fill="white" stroke="black" points="1380.5,-417.5 1380.5,-436.5 1487.5,-436.5 1487.5,-417.5 1380.5,-417.5"/>
<text text-anchor="middle" x="1434" y="-424.5" font-family="Helvetica,sans-Serif" font-size="10.00">turtle.Pen.getColor</text>
</a>
</g>
</g>
<!-- Node7&#45;&gt;Node8 -->
<g id="edge7" class="edge"><title>Node7&#45;&gt;Node8</title>
<path fill="none" stroke="midnightblue" d="M1271.98,-398.54C1301.94,-403.837 1339.36,-410.45 1370.59,-415.969"/>
<polygon fill="midnightblue" stroke="midnightblue" points="1370.03,-419.425 1380.49,-417.719 1371.25,-412.532 1370.03,-419.425"/>
</g>
<!-- Node9 -->
<g id="node9" class="node"><title>Node9</title>
<g id="a_node9"><a xlink:href="../../de/d57/classturtle_1_1_pen.html#a76c8dc4e66927e7d3774ea00b2266640" target="_top" xlink:title="turtle.Pen.getSize">
<polygon fill="white" stroke="black" points="1383,-379.5 1383,-398.5 1485,-398.5 1485,-379.5 1383,-379.5"/>
<text text-anchor="middle" x="1434" y="-386.5" font-family="Helvetica,sans-Serif" font-size="10.00">turtle.Pen.getSize</text>
</a>
</g>
</g>
<!-- Node7&#45;&gt;Node9 -->
<g id="edge8" class="edge"><title>Node7&#45;&gt;Node9</title>
<path fill="none" stroke="midnightblue" d="M1303.59,-389C1326.74,-389 1351.3,-389 1372.73,-389"/>
<polygon fill="midnightblue" stroke="midnightblue" points="1372.98,-392.5 1382.98,-389 1372.98,-385.5 1372.98,-392.5"/>
</g>
<!-- Node11 -->
<g id="node11" class="node"><title>Node11</title>
<g id="a_node11"><a xlink:href="../../d6/d95/classparser_1_1_parser.html#a240c75608624a9c67402a296855c4d1d" target="_top" xlink:title="parser.Parser.initialize\lCommands">
<polygon fill="white" stroke="black" points="1374,-330 1374,-360 1494,-360 1494,-330 1374,-330"/>
<text text-anchor="start" x="1382" y="-348" font-family="Helvetica,sans-Serif" font-size="10.00">parser.Parser.initialize</text>
<text text-anchor="middle" x="1434" y="-337" font-family="Helvetica,sans-Serif" font-size="10.00">Commands</text>
</a>
</g>
</g>
<!-- Node10&#45;&gt;Node11 -->
<g id="edge10" class="edge"><title>Node10&#45;&gt;Node11</title>
<path fill="none" stroke="midnightblue" d="M1227.14,-231.655C1246.23,-251.257 1292.52,-295.9 1340,-320 1347.5,-323.807 1355.65,-327.083 1363.89,-329.89"/>
<polygon fill="midnightblue" stroke="midnightblue" points="1362.99,-333.278 1373.58,-332.974 1365.12,-326.607 1362.99,-333.278"/>
</g>
<!-- Node15 -->
<g id="node15" class="node"><title>Node15</title>
<g id="a_node15"><a xlink:href="../../d6/d95/classparser_1_1_parser.html#a4ecbffc246c3add017c4720eed4c6da9" target="_top" xlink:title="parser.Parser.parse">
<polygon fill="white" stroke="black" points="1379.5,-291.5 1379.5,-310.5 1488.5,-310.5 1488.5,-291.5 1379.5,-291.5"/>
<text text-anchor="middle" x="1434" y="-298.5" font-family="Helvetica,sans-Serif" font-size="10.00">parser.Parser.parse</text>
</a>
</g>
</g>
<!-- Node10&#45;&gt;Node15 -->
<g id="edge14" class="edge"><title>Node10&#45;&gt;Node15</title>
<path fill="none" stroke="midnightblue" d="M1243.93,-231.529C1282.27,-245.616 1354.19,-272.04 1397.42,-287.927"/>
<polygon fill="midnightblue" stroke="midnightblue" points="1396.38,-291.273 1406.97,-291.437 1398.79,-284.703 1396.38,-291.273"/>
</g>
<!-- Node28 -->
<g id="node28" class="node"><title>Node28</title>
<g id="a_node28"><a xlink:href="../../d7/d35/classcommand_1_1_command.html#a957099a70dd30b5dc897e0caf07d2d99" target="_top" xlink:title="command.Command.getCommand\lValues">
<polygon fill="white" stroke="black" points="1340,-207 1340,-237 1528,-237 1528,-207 1340,-207"/>
<text text-anchor="start" x="1348" y="-225" font-family="Helvetica,sans-Serif" font-size="10.00">command.Command.getCommand</text>
<text text-anchor="middle" x="1434" y="-214" font-family="Helvetica,sans-Serif" font-size="10.00">Values</text>
</a>
</g>
</g>
<!-- Node10&#45;&gt;Node28 -->
<g id="edge38" class="edge"><title>Node10&#45;&gt;Node28</title>
<path fill="none" stroke="midnightblue" d="M1266.25,-222C1285.15,-222 1307.59,-222 1329.8,-222"/>
<polygon fill="midnightblue" stroke="midnightblue" points="1329.97,-225.5 1339.97,-222 1329.97,-218.5 1329.97,-225.5"/>
</g>
<!-- Node30 -->
<g id="node30" class="node"><title>Node30</title>
<g id="a_node30"><a xlink:href="../../d6/d95/classparser_1_1_parser.html#a8679d61f4ae6c55910ef113bcdda2c75" target="_top" xlink:title="parser.Parser.updateVariable">
<polygon fill="white" stroke="black" points="1357,-168.5 1357,-187.5 1511,-187.5 1511,-168.5 1357,-168.5"/>
<text text-anchor="middle" x="1434" y="-175.5" font-family="Helvetica,sans-Serif" font-size="10.00">parser.Parser.updateVariable</text>
</a>
</g>
</g>
<!-- Node10&#45;&gt;Node30 -->
<g id="edge40" class="edge"><title>Node10&#45;&gt;Node30</title>
<path fill="none" stroke="midnightblue" d="M1264.34,-212.496C1287.13,-207.825 1315.01,-202.114 1340,-197 1351.73,-194.6 1364.29,-192.032 1376.27,-189.584"/>
<polygon fill="midnightblue" stroke="midnightblue" points="1377.07,-192.994 1386.16,-187.563 1375.67,-186.136 1377.07,-192.994"/>
</g>
<!-- Node32 -->
<g id="node32" class="node"><title>Node32</title>
<g id="a_node32"><a xlink:href="../../d9/dd0/classworld_1_1_world.html#adcbcb8328c7e832fcb710a91457e6772" target="_top" xlink:title="world.World.runCommand">
<polygon fill="white" stroke="black" points="1364.5,-130.5 1364.5,-149.5 1503.5,-149.5 1503.5,-130.5 1364.5,-130.5"/>
<text text-anchor="middle" x="1434" y="-137.5" font-family="Helvetica,sans-Serif" font-size="10.00">world.World.runCommand</text>
</a>
</g>
</g>
<!-- Node10&#45;&gt;Node32 -->
<g id="edge42" class="edge"><title>Node10&#45;&gt;Node32</title>
<path fill="none" stroke="midnightblue" d="M1233.17,-212.413C1255.66,-198.621 1299.54,-173.273 1340,-159 1347.62,-156.311 1355.74,-153.955 1363.88,-151.903"/>
<polygon fill="midnightblue" stroke="midnightblue" points="1364.87,-155.265 1373.79,-149.549 1363.25,-148.455 1364.87,-155.265"/>
</g>
<!-- Node33 -->
<g id="node33" class="node"><title>Node33</title>
<g id="a_node33"><a xlink:href="../../d6/d95/classparser_1_1_parser.html#acebafe1593fc1f09ac31c7104438e4b1" target="_top" xlink:title="parser.Parser.resetRepcount">
<polygon fill="white" stroke="black" points="1358.5,-74.5 1358.5,-93.5 1509.5,-93.5 1509.5,-74.5 1358.5,-74.5"/>
<text text-anchor="middle" x="1434" y="-81.5" font-family="Helvetica,sans-Serif" font-size="10.00">parser.Parser.resetRepcount</text>
</a>
</g>
</g>
<!-- Node10&#45;&gt;Node33 -->
<g id="edge43" class="edge"><title>Node10&#45;&gt;Node33</title>
<path fill="none" stroke="midnightblue" d="M1227.32,-212.485C1246.75,-193.086 1293.64,-148.481 1340,-121 1356.37,-111.297 1375.75,-103.125 1392.57,-96.9493"/>
<polygon fill="midnightblue" stroke="midnightblue" points="1393.89,-100.196 1402.14,-93.5475 1391.55,-93.6002 1393.89,-100.196"/>
</g>
<!-- Node12 -->
<g id="node12" class="node"><title>Node12</title>
<g id="a_node12"><a xlink:href="../../d6/d95/classparser_1_1_parser.html#a4f582c65390bddc57219c0b5c31ef5e7" target="_top" xlink:title="parser.Parser.makeTree">
<polygon fill="white" stroke="black" points="1594,-460.5 1594,-479.5 1722,-479.5 1722,-460.5 1594,-460.5"/>
<text text-anchor="middle" x="1658" y="-467.5" font-family="Helvetica,sans-Serif" font-size="10.00">parser.Parser.makeTree</text>
</a>
</g>
</g>
<!-- Node11&#45;&gt;Node12 -->
<g id="edge11" class="edge"><title>Node11&#45;&gt;Node12</title>
<path fill="none" stroke="midnightblue" d="M1494.44,-352.597C1506.54,-356.329 1518.47,-361.849 1528,-370 1557.94,-395.607 1533.29,-426.319 1564,-451 1569.92,-455.756 1576.71,-459.415 1583.89,-462.219"/>
<polygon fill="midnightblue" stroke="midnightblue" points="1583.25,-465.697 1593.85,-465.534 1585.46,-459.055 1583.25,-465.697"/>
</g>
<!-- Node13 -->
<g id="node13" class="node"><title>Node13</title>
<g id="a_node13"><a xlink:href="../../d9/d1b/classcommand_1_1_command_factory.html#a87bf7e648425bb22124367cabedb3327" target="_top" xlink:title="command.CommandFactory.get\lNumParameters">
<polygon fill="white" stroke="black" points="1807,-450 1807,-480 1977,-480 1977,-450 1807,-450"/>
<text text-anchor="start" x="1815" y="-468" font-family="Helvetica,sans-Serif" font-size="10.00">command.CommandFactory.get</text>
<text text-anchor="middle" x="1892" y="-457" font-family="Helvetica,sans-Serif" font-size="10.00">NumParameters</text>
</a>
</g>
</g>
<!-- Node12&#45;&gt;Node13 -->
<g id="edge12" class="edge"><title>Node12&#45;&gt;Node13</title>
<path fill="none" stroke="midnightblue" d="M1722.09,-468.64C1744.97,-468.147 1771.34,-467.579 1796.34,-467.04"/>
<polygon fill="midnightblue" stroke="midnightblue" points="1796.67,-470.534 1806.59,-466.819 1796.51,-463.536 1796.67,-470.534"/>
</g>
<!-- Node14 -->
<g id="node14" class="node"><title>Node14</title>
<g id="a_node14"><a xlink:href="../../d9/d1b/classcommand_1_1_command_factory.html#a947fdc151e857ea74564d0d1fe268246" target="_top" xlink:title="command.CommandFactory.translate\lCommand">
<polygon fill="white" stroke="black" points="2032.5,-293 2032.5,-323 2229.5,-323 2229.5,-293 2032.5,-293"/>
<text text-anchor="start" x="2040.5" y="-311" font-family="Helvetica,sans-Serif" font-size="10.00">command.CommandFactory.translate</text>
<text text-anchor="middle" x="2131" y="-300" font-family="Helvetica,sans-Serif" font-size="10.00">Command</text>
</a>
</g>
</g>
<!-- Node13&#45;&gt;Node14 -->
<g id="edge13" class="edge"><title>Node13&#45;&gt;Node14</title>
<path fill="none" stroke="midnightblue" d="M1966.3,-449.992C1976.61,-446.489 1986.81,-442.211 1996,-437 2044.57,-409.451 2088.67,-360.257 2112.17,-331.232"/>
<polygon fill="midnightblue" stroke="midnightblue" points="2115.02,-333.269 2118.51,-323.266 2109.55,-328.909 2115.02,-333.269"/>
</g>
<!-- Node15&#45;&gt;Node12 -->
<g id="edge37" class="edge"><title>Node15&#45;&gt;Node12</title>
<path fill="none" stroke="midnightblue" d="M1488.9,-302.008C1503.11,-304.752 1517.41,-310.093 1528,-320 1572.09,-361.249 1519.91,-409.751 1564,-451 1569.84,-456.462 1576.8,-460.536 1584.26,-463.552"/>
<polygon fill="midnightblue" stroke="midnightblue" points="1583.32,-466.93 1593.92,-466.831 1585.58,-460.302 1583.32,-466.93"/>
</g>
<!-- Node16 -->
<g id="node16" class="node"><title>Node16</title>
<g id="a_node16"><a xlink:href="../../d9/d1b/classcommand_1_1_command_factory.html#ab25bb047b051661d31adf73b2dae5649" target="_top" xlink:title="command.CommandFactory.create\lCommand">
<polygon fill="white" stroke="black" points="1565.5,-188 1565.5,-218 1750.5,-218 1750.5,-188 1565.5,-188"/>
<text text-anchor="start" x="1573.5" y="-206" font-family="Helvetica,sans-Serif" font-size="10.00">command.CommandFactory.create</text>
<text text-anchor="middle" x="1658" y="-195" font-family="Helvetica,sans-Serif" font-size="10.00">Command</text>
</a>
</g>
</g>
<!-- Node15&#45;&gt;Node16 -->
<g id="edge15" class="edge"><title>Node15&#45;&gt;Node16</title>
<path fill="none" stroke="midnightblue" d="M1451.01,-291.497C1482.89,-272.614 1552.28,-231.771 1564,-227 1569.12,-224.917 1574.46,-222.971 1579.9,-221.162"/>
<polygon fill="midnightblue" stroke="midnightblue" points="1581.27,-224.401 1589.75,-218.053 1579.16,-217.726 1581.27,-224.401"/>
</g>
<!-- Node18 -->
<g id="node18" class="node"><title>Node18</title>
<g id="a_node18"><a xlink:href="../../d6/d95/classparser_1_1_parser.html#aac1cff62f68138c7e977a67d39671701" target="_top" xlink:title="parser.Parser.generateCommand\lInput">
<polygon fill="white" stroke="black" points="1570,-335 1570,-365 1746,-365 1746,-335 1570,-335"/>
<text text-anchor="start" x="1578" y="-353" font-family="Helvetica,sans-Serif" font-size="10.00">parser.Parser.generateCommand</text>
<text text-anchor="middle" x="1658" y="-342" font-family="Helvetica,sans-Serif" font-size="10.00">Input</text>
</a>
</g>
</g>
<!-- Node15&#45;&gt;Node18 -->
<g id="edge18" class="edge"><title>Node15&#45;&gt;Node18</title>
<path fill="none" stroke="midnightblue" d="M1482.84,-310.517C1497.36,-313.475 1513.35,-316.8 1528,-320 1546.1,-323.953 1565.59,-328.39 1583.79,-332.614"/>
<polygon fill="midnightblue" stroke="midnightblue" points="1583.23,-336.076 1593.76,-334.935 1584.81,-329.258 1583.23,-336.076"/>
</g>
<!-- Node21 -->
<g id="node21" class="node"><title>Node21</title>
<g id="a_node21"><a xlink:href="../../d3/dcc/classparser_1_1_node.html#a9c12e8d4375a7517eae0a35724b253c4" target="_top" xlink:title="parser.Node.getValue">
<polygon fill="white" stroke="black" points="1832,-408.5 1832,-427.5 1952,-427.5 1952,-408.5 1832,-408.5"/>
<text text-anchor="middle" x="1892" y="-415.5" font-family="Helvetica,sans-Serif" font-size="10.00">parser.Node.getValue</text>
</a>
</g>
</g>
<!-- Node15&#45;&gt;Node21 -->
<g id="edge34" class="edge"><title>Node15&#45;&gt;Node21</title>
<path fill="none" stroke="midnightblue" d="M1488.98,-304.742C1502.55,-307.572 1516.51,-312.274 1528,-320 1551.93,-336.1 1539.54,-358.72 1564,-374 1605.74,-400.07 1738.77,-410.966 1821.74,-415.313"/>
<polygon fill="midnightblue" stroke="midnightblue" points="1821.68,-418.815 1831.85,-415.823 1822.04,-411.824 1821.68,-418.815"/>
</g>
<!-- Node23 -->
<g id="node23" class="node"><title>Node23</title>
<g id="a_node23"><a xlink:href="../../d6/d95/classparser_1_1_parser.html#a3efcd1192e76101919526b4a5e0046f4" target="_top" xlink:title="parser.Parser.getNodeBefore\lToReplace">
<polygon fill="white" stroke="black" points="1580.5,-286 1580.5,-316 1735.5,-316 1735.5,-286 1580.5,-286"/>
<text text-anchor="start" x="1588.5" y="-304" font-family="Helvetica,sans-Serif" font-size="10.00">parser.Parser.getNodeBefore</text>
<text text-anchor="middle" x="1658" y="-293" font-family="Helvetica,sans-Serif" font-size="10.00">ToReplace</text>
</a>
</g>
</g>
<!-- Node15&#45;&gt;Node23 -->
<g id="edge23" class="edge"><title>Node15&#45;&gt;Node23</title>
<path fill="none" stroke="midnightblue" d="M1488.74,-301C1513.2,-301 1542.76,-301 1570.24,-301"/>
<polygon fill="midnightblue" stroke="midnightblue" points="1570.26,-304.5 1580.26,-301 1570.26,-297.5 1570.26,-304.5"/>
</g>
<!-- Node26 -->
<g id="node26" class="node"><title>Node26</title>
<g id="a_node26"><a xlink:href="../../d6/d95/classparser_1_1_parser.html#a447c473b62ba23b7c144df9bb38a9a41" target="_top" xlink:title="parser.Parser.getNodeFor\lCommand">
<polygon fill="white" stroke="black" points="1589,-237 1589,-267 1727,-267 1727,-237 1589,-237"/>
<text text-anchor="start" x="1597" y="-255" font-family="Helvetica,sans-Serif" font-size="10.00">parser.Parser.getNodeFor</text>
<text text-anchor="middle" x="1658" y="-244" font-family="Helvetica,sans-Serif" font-size="10.00">Command</text>
</a>
</g>
</g>
<!-- Node15&#45;&gt;Node26 -->
<g id="edge29" class="edge"><title>Node15&#45;&gt;Node26</title>
<path fill="none" stroke="midnightblue" d="M1478.07,-291.494C1506.64,-285.187 1544.98,-276.725 1578.84,-269.252"/>
<polygon fill="midnightblue" stroke="midnightblue" points="1579.71,-272.644 1588.72,-267.071 1578.2,-265.809 1579.71,-272.644"/>
</g>
<!-- Node27 -->
<g id="node27" class="node"><title>Node27</title>
<g id="a_node27"><a xlink:href="../../d3/dcc/classparser_1_1_node.html#a066da2b478008f39a02440d7afceb9ee" target="_top" xlink:title="parser.Node.insertChild">
<polygon fill="white" stroke="black" points="1594,-422.5 1594,-441.5 1722,-441.5 1722,-422.5 1594,-422.5"/>
<text text-anchor="middle" x="1658" y="-429.5" font-family="Helvetica,sans-Serif" font-size="10.00">parser.Node.insertChild</text>
</a>
</g>
</g>
<!-- Node15&#45;&gt;Node27 -->
<g id="edge35" class="edge"><title>Node15&#45;&gt;Node27</title>
<path fill="none" stroke="midnightblue" d="M1488.65,-302.948C1502.68,-305.727 1516.96,-310.852 1528,-320 1560.54,-346.964 1532.16,-380.215 1564,-408 1569.92,-413.165 1576.81,-417.242 1584.11,-420.456"/>
<polygon fill="midnightblue" stroke="midnightblue" points="1582.95,-423.76 1593.54,-424.083 1585.46,-417.226 1582.95,-423.76"/>
</g>
<!-- Node16&#45;&gt;Node14 -->
<g id="edge17" class="edge"><title>Node16&#45;&gt;Node14</title>
<path fill="none" stroke="midnightblue" d="M1713.85,-187.989C1742.09,-180.543 1773.57,-172.763 1788,-171 1879.76,-159.789 1910.79,-135.151 1996,-171 2050.66,-193.997 2094.17,-251.384 2115.55,-284.125"/>
<polygon fill="midnightblue" stroke="midnightblue" points="2112.66,-286.104 2120.99,-292.657 2118.57,-282.342 2112.66,-286.104"/>
</g>
<!-- Node17 -->
<g id="node17" class="node"><title>Node17</title>
<g id="a_node17"><a xlink:href="../../d9/d1b/classcommand_1_1_command_factory.html#abd97ea3e22afc09e07ed1d4fd039d11f" target="_top" xlink:title="command.CommandFactory.reflectCMD">
<polygon fill="white" stroke="black" points="1788.5,-180.5 1788.5,-199.5 1995.5,-199.5 1995.5,-180.5 1788.5,-180.5"/>
<text text-anchor="middle" x="1892" y="-187.5" font-family="Helvetica,sans-Serif" font-size="10.00">command.CommandFactory.reflectCMD</text>
</a>
</g>
</g>
<!-- Node16&#45;&gt;Node17 -->
<g id="edge16" class="edge"><title>Node16&#45;&gt;Node17</title>
<path fill="none" stroke="midnightblue" d="M1750.69,-197.862C1759.81,-197.351 1769.13,-196.829 1778.43,-196.308"/>
<polygon fill="midnightblue" stroke="midnightblue" points="1778.7,-199.798 1788.49,-195.744 1778.31,-192.809 1778.7,-199.798"/>
</g>
<!-- Node19 -->
<g id="node19" class="node"><title>Node19</title>
<g id="a_node19"><a xlink:href="../../d3/dcc/classparser_1_1_node.html#aa67bc0d39227232943abec9b95b23235" target="_top" xlink:title="parser.Node.getChild1">
<polygon fill="white" stroke="black" points="1830.5,-332.5 1830.5,-351.5 1953.5,-351.5 1953.5,-332.5 1830.5,-332.5"/>
<text text-anchor="middle" x="1892" y="-339.5" font-family="Helvetica,sans-Serif" font-size="10.00">parser.Node.getChild1</text>
</a>
</g>
</g>
<!-- Node18&#45;&gt;Node19 -->
<g id="edge19" class="edge"><title>Node18&#45;&gt;Node19</title>
<path fill="none" stroke="midnightblue" d="M1746.05,-346.998C1770.46,-346.156 1796.71,-345.251 1820.07,-344.446"/>
<polygon fill="midnightblue" stroke="midnightblue" points="1820.36,-347.938 1830.23,-344.095 1820.12,-340.942 1820.36,-347.938"/>
</g>
<!-- Node20 -->
<g id="node20" class="node"><title>Node20</title>
<g id="a_node20"><a xlink:href="../../d3/dcc/classparser_1_1_node.html#a0f13775acc62af77cdde90dbeaf26bbc" target="_top" xlink:title="parser.Node.getChild2">
<polygon fill="white" stroke="black" points="1830.5,-294.5 1830.5,-313.5 1953.5,-313.5 1953.5,-294.5 1830.5,-294.5"/>
<text text-anchor="middle" x="1892" y="-301.5" font-family="Helvetica,sans-Serif" font-size="10.00">parser.Node.getChild2</text>
</a>
</g>
</g>
<!-- Node18&#45;&gt;Node20 -->
<g id="edge20" class="edge"><title>Node18&#45;&gt;Node20</title>
<path fill="none" stroke="midnightblue" d="M1729.24,-334.981C1748.29,-330.995 1768.92,-326.757 1788,-323 1800.94,-320.453 1814.81,-317.825 1828.05,-315.365"/>
<polygon fill="midnightblue" stroke="midnightblue" points="1828.83,-318.781 1838.03,-313.521 1827.56,-311.897 1828.83,-318.781"/>
</g>
<!-- Node18&#45;&gt;Node21 -->
<g id="edge21" class="edge"><title>Node18&#45;&gt;Node21</title>
<path fill="none" stroke="midnightblue" d="M1711.23,-365.093C1724.69,-369.456 1739.02,-374.532 1752,-380 1768.67,-387.026 1770.91,-393.069 1788,-399 1798.76,-402.735 1810.43,-405.779 1821.9,-408.248"/>
<polygon fill="midnightblue" stroke="midnightblue" points="1821.42,-411.721 1831.92,-410.272 1822.81,-404.86 1821.42,-411.721"/>
</g>
<!-- Node22 -->
<g id="node22" class="node"><title>Node22</title>
<g id="a_node22"><a xlink:href="../../d3/dcc/classparser_1_1_node.html#a6bbc0c61aaa261077eb87cfc4e2b45dc" target="_top" xlink:title="parser.Node.numChildren">
<polygon fill="white" stroke="black" points="1822.5,-370.5 1822.5,-389.5 1961.5,-389.5 1961.5,-370.5 1822.5,-370.5"/>
<text text-anchor="middle" x="1892" y="-377.5" font-family="Helvetica,sans-Serif" font-size="10.00">parser.Node.numChildren</text>
</a>
</g>
</g>
<!-- Node18&#45;&gt;Node22 -->
<g id="edge22" class="edge"><title>Node18&#45;&gt;Node22</title>
<path fill="none" stroke="midnightblue" d="M1746.05,-361.256C1767.8,-364.069 1791.01,-367.07 1812.33,-369.828"/>
<polygon fill="midnightblue" stroke="midnightblue" points="1811.94,-373.306 1822.31,-371.118 1812.84,-366.364 1811.94,-373.306"/>
</g>
<!-- Node23&#45;&gt;Node19 -->
<g id="edge24" class="edge"><title>Node23&#45;&gt;Node19</title>
<path fill="none" stroke="midnightblue" d="M1735.61,-314.539C1765.23,-319.774 1798.74,-325.696 1827.04,-330.697"/>
<polygon fill="midnightblue" stroke="midnightblue" points="1826.76,-334.201 1837.21,-332.495 1827.98,-327.308 1826.76,-334.201"/>
</g>
<!-- Node23&#45;&gt;Node20 -->
<g id="edge25" class="edge"><title>Node23&#45;&gt;Node20</title>
<path fill="none" stroke="midnightblue" d="M1735.61,-301.991C1762.88,-302.343 1793.44,-302.738 1820.2,-303.085"/>
<polygon fill="midnightblue" stroke="midnightblue" points="1820.21,-306.585 1830.26,-303.215 1820.3,-299.585 1820.21,-306.585"/>
</g>
<!-- Node23&#45;&gt;Node21 -->
<g id="edge26" class="edge"><title>Node23&#45;&gt;Node21</title>
<path fill="none" stroke="midnightblue" d="M1735.79,-314.846C1741.6,-317.641 1747.09,-320.99 1752,-325 1780.32,-348.148 1758.89,-376.859 1788,-399 1797.88,-406.513 1809.81,-411.371 1822,-414.454"/>
<polygon fill="midnightblue" stroke="midnightblue" points="1821.28,-417.88 1831.8,-416.564 1822.76,-411.037 1821.28,-417.88"/>
</g>
<!-- Node24 -->
<g id="node24" class="node"><title>Node24</title>
<g id="a_node24"><a xlink:href="../../d3/dcc/classparser_1_1_node.html#ab14db24c0724dec4387e29d513008e2e" target="_top" xlink:title="parser.Node.hasChildren">
<polygon fill="white" stroke="black" points="1825,-256.5 1825,-275.5 1959,-275.5 1959,-256.5 1825,-256.5"/>
<text text-anchor="middle" x="1892" y="-263.5" font-family="Helvetica,sans-Serif" font-size="10.00">parser.Node.hasChildren</text>
</a>
</g>
</g>
<!-- Node23&#45;&gt;Node24 -->
<g id="edge27" class="edge"><title>Node23&#45;&gt;Node24</title>
<path fill="none" stroke="midnightblue" d="M1735.61,-289.443C1762.06,-285.452 1791.61,-280.994 1817.78,-277.046"/>
<polygon fill="midnightblue" stroke="midnightblue" points="1818.64,-280.456 1828.01,-275.503 1817.6,-273.534 1818.64,-280.456"/>
</g>
<!-- Node25 -->
<g id="node25" class="node"><title>Node25</title>
<g id="a_node25"><a xlink:href="../../d3/dcc/classparser_1_1_node.html#aa92667a825777b3d757bc3b1a247ac20" target="_top" xlink:title="parser.Node.isLeaf">
<polygon fill="white" stroke="black" points="1839,-218.5 1839,-237.5 1945,-237.5 1945,-218.5 1839,-218.5"/>
<text text-anchor="middle" x="1892" y="-225.5" font-family="Helvetica,sans-Serif" font-size="10.00">parser.Node.isLeaf</text>
</a>
</g>
</g>
<!-- Node23&#45;&gt;Node25 -->
<g id="edge28" class="edge"><title>Node23&#45;&gt;Node25</title>
<path fill="none" stroke="midnightblue" d="M1728.27,-285.848C1736.46,-283.051 1744.55,-279.789 1752,-276 1770.31,-266.688 1769.33,-255.57 1788,-247 1800.7,-241.171 1815.06,-237.13 1828.93,-234.328"/>
<polygon fill="midnightblue" stroke="midnightblue" points="1829.71,-237.743 1838.92,-232.499 1828.45,-230.858 1829.71,-237.743"/>
</g>
<!-- Node26&#45;&gt;Node19 -->
<g id="edge30" class="edge"><title>Node26&#45;&gt;Node19</title>
<path fill="none" stroke="midnightblue" d="M1727.31,-263.961C1736.01,-267.087 1744.49,-271.029 1752,-276 1773.94,-290.527 1765.57,-309.252 1788,-323 1797.77,-328.989 1808.98,-333.181 1820.32,-336.097"/>
<polygon fill="midnightblue" stroke="midnightblue" points="1819.76,-339.559 1830.28,-338.344 1821.3,-332.73 1819.76,-339.559"/>
</g>
<!-- Node26&#45;&gt;Node20 -->
<g id="edge31" class="edge"><title>Node26&#45;&gt;Node20</title>
<path fill="none" stroke="midnightblue" d="M1717.49,-267.056C1749.83,-275.366 1784.26,-284.178 1788,-285 1800.12,-287.665 1813.1,-290.26 1825.62,-292.632"/>
<polygon fill="midnightblue" stroke="midnightblue" points="1825.06,-296.088 1835.54,-294.484 1826.35,-289.207 1825.06,-296.088"/>
</g>
<!-- Node26&#45;&gt;Node24 -->
<g id="edge32" class="edge"><title>Node26&#45;&gt;Node24</title>
<path fill="none" stroke="midnightblue" d="M1727.04,-256.106C1754.55,-257.766 1786.42,-259.689 1814.71,-261.396"/>
<polygon fill="midnightblue" stroke="midnightblue" points="1814.77,-264.906 1824.96,-262.015 1815.19,-257.919 1814.77,-264.906"/>
</g>
<!-- Node26&#45;&gt;Node25 -->
<g id="edge33" class="edge"><title>Node26&#45;&gt;Node25</title>
<path fill="none" stroke="midnightblue" d="M1727.04,-244.961C1759.25,-241.629 1797.45,-237.677 1828.88,-234.427"/>
<polygon fill="midnightblue" stroke="midnightblue" points="1829.24,-237.908 1838.82,-233.398 1828.52,-230.945 1829.24,-237.908"/>
</g>
<!-- Node27&#45;&gt;Node21 -->
<g id="edge36" class="edge"><title>Node27&#45;&gt;Node21</title>
<path fill="none" stroke="midnightblue" d="M1722.09,-428.193C1752.96,-426.33 1790.2,-424.083 1821.85,-422.173"/>
<polygon fill="midnightblue" stroke="midnightblue" points="1822.14,-425.662 1831.91,-421.566 1821.72,-418.674 1822.14,-425.662"/>
</g>
<!-- Node29 -->
<g id="node29" class="node"><title>Node29</title>
<g id="a_node29"><a xlink:href="../../d7/d35/classcommand_1_1_command.html#a7e1387db1d0d35d4dcd3a3ebe2ff902a" target="_top" xlink:title="command.Command.makeString">
<polygon fill="white" stroke="black" points="1569.5,-149.5 1569.5,-168.5 1746.5,-168.5 1746.5,-149.5 1569.5,-149.5"/>
<text text-anchor="middle" x="1658" y="-156.5" font-family="Helvetica,sans-Serif" font-size="10.00">command.Command.makeString</text>
</a>
</g>
</g>
<!-- Node28&#45;&gt;Node29 -->
<g id="edge39" class="edge"><title>Node28&#45;&gt;Node29</title>
<path fill="none" stroke="midnightblue" d="M1498.65,-206.923C1508.59,-203.987 1518.66,-200.666 1528,-197 1544.84,-190.388 1546.97,-184.094 1564,-178 1571.5,-175.316 1579.49,-172.969 1587.5,-170.926"/>
<polygon fill="midnightblue" stroke="midnightblue" points="1588.36,-174.319 1597.27,-168.583 1586.73,-167.512 1588.36,-174.319"/>
</g>
<!-- Node31 -->
<g id="node31" class="node"><title>Node31</title>
<g id="a_node31"><a xlink:href="../../d9/d1b/classcommand_1_1_command_factory.html#a8347db76764ea8308d029789b49519dd" target="_top" xlink:title="command.CommandFactory.update\lVariable">
<polygon fill="white" stroke="black" points="1564,-100 1564,-130 1752,-130 1752,-100 1564,-100"/>
<text text-anchor="start" x="1572" y="-118" font-family="Helvetica,sans-Serif" font-size="10.00">command.CommandFactory.update</text>
<text text-anchor="middle" x="1658" y="-107" font-family="Helvetica,sans-Serif" font-size="10.00">Variable</text>
</a>
</g>
</g>
<!-- Node30&#45;&gt;Node31 -->
<g id="edge41" class="edge"><title>Node30&#45;&gt;Node31</title>
<path fill="none" stroke="midnightblue" d="M1494.73,-168.417C1505.94,-165.885 1517.45,-162.775 1528,-159 1545.03,-152.906 1547.16,-146.612 1564,-140 1570.27,-137.537 1576.88,-135.23 1583.55,-133.09"/>
<polygon fill="midnightblue" stroke="midnightblue" points="1584.82,-136.362 1593.35,-130.077 1582.76,-129.671 1584.82,-136.362"/>
</g>
<!-- Node34 -->
<g id="node34" class="node"><title>Node34</title>
<g id="a_node34"><a xlink:href="../../d9/d1b/classcommand_1_1_command_factory.html#a0d59e4f0f925b5046957c0e054ce8bef" target="_top" xlink:title="command.CommandFactory.reset\lRepcount">
<polygon fill="white" stroke="black" points="1568.5,-51 1568.5,-81 1747.5,-81 1747.5,-51 1568.5,-51"/>
<text text-anchor="start" x="1576.5" y="-69" font-family="Helvetica,sans-Serif" font-size="10.00">command.CommandFactory.reset</text>
<text text-anchor="middle" x="1658" y="-58" font-family="Helvetica,sans-Serif" font-size="10.00">Repcount</text>
</a>
</g>
</g>
<!-- Node33&#45;&gt;Node34 -->
<g id="edge44" class="edge"><title>Node33&#45;&gt;Node34</title>
<path fill="none" stroke="midnightblue" d="M1509.54,-77.9562C1525.19,-76.6875 1541.92,-75.3307 1558.29,-74.0031"/>
<polygon fill="midnightblue" stroke="midnightblue" points="1558.75,-77.4782 1568.43,-73.1814 1558.18,-70.5011 1558.75,-77.4782"/>
</g>
<!-- Node38 -->
<g id="node38" class="node"><title>Node38</title>
<g id="a_node38"><a xlink:href="../../de/df4/classuser_interface_1_1_right_panel.html#a444679df7a56d1cfea2ed417f0ed4f7d" target="_top" xlink:title="userInterface.RightPanel.\lRightPanel">
<polygon fill="white" stroke="black" points="524.5,-147 524.5,-177 659.5,-177 659.5,-147 524.5,-147"/>
<text text-anchor="start" x="532.5" y="-165" font-family="Helvetica,sans-Serif" font-size="10.00">userInterface.RightPanel.</text>
<text text-anchor="middle" x="592" y="-154" font-family="Helvetica,sans-Serif" font-size="10.00">RightPanel</text>
</a>
</g>
</g>
<!-- Node37&#45;&gt;Node38 -->
<g id="edge48" class="edge"><title>Node37&#45;&gt;Node38</title>
<path fill="none" stroke="midnightblue" d="M474.666,-162C487.628,-162 501.128,-162 514.147,-162"/>
<polygon fill="midnightblue" stroke="midnightblue" points="514.465,-165.5 524.465,-162 514.465,-158.5 514.465,-165.5"/>
</g>
<!-- Node41 -->
<g id="node41" class="node"><title>Node41</title>
<g id="a_node41"><a xlink:href="../../dc/d1b/classuser_interface_1_1_left_panel.html#a0fcdcf8b427a868a7069ac627eea1b43" target="_top" xlink:title="userInterface.LeftPanel.\lLeftPanel">
<polygon fill="white" stroke="black" points="527.5,-49 527.5,-79 656.5,-79 656.5,-49 527.5,-49"/>
<text text-anchor="start" x="535.5" y="-67" font-family="Helvetica,sans-Serif" font-size="10.00">userInterface.LeftPanel.</text>
<text text-anchor="middle" x="592" y="-56" font-family="Helvetica,sans-Serif" font-size="10.00">LeftPanel</text>
</a>
</g>
</g>
<!-- Node40&#45;&gt;Node41 -->
<g id="edge51" class="edge"><title>Node40&#45;&gt;Node41</title>
<path fill="none" stroke="midnightblue" d="M471.665,-64C486.544,-64 502.247,-64 517.202,-64"/>
<polygon fill="midnightblue" stroke="midnightblue" points="517.415,-67.5001 527.415,-64 517.415,-60.5001 517.415,-67.5001"/>
</g>
</g>
</svg>
        <g id="navigator" transform="translate(0 0)" fill="#404254">
                <rect fill="#f2f5e9" fill-opacity="0.5" stroke="#606060" stroke-width=".5" x="0" y="0" width="60" height="60"/>
                <use id="zoomplus" xlink:href="#zoomPlus" x="17" y="9" onmousedown="handleZoom(evt,'in')"/>
                <use id="zoomminus" xlink:href="#zoomMin" x="42" y="9" onmousedown="handleZoom(evt,'out')"/>
                <use id="reset" xlink:href="#resetDef" x="30" y="36" onmousedown="handleReset()"/>
                <g id="arrowUp" xlink:href="#dirArrow" transform="translate(30 24)" onmousedown="handlePan(0,-1)">
                  <use xlink:href="#rim" fill="#404040">
                        <set attributeName="fill" to="#808080" begin="arrowUp.mouseover" end="arrowUp.mouseout"/>
                  </use>
                  <path fill="none" stroke="white" stroke-width="1.5" d="M0,-3.0v7 M-2.5,-0.5L0,-3.0L2.5,-0.5"/>
                </g>
                <g id="arrowRight" xlink:href="#dirArrow" transform="rotate(90) translate(36 -43)" onmousedown="handlePan(1,0)">
                  <use xlink:href="#rim" fill="#404040">
                        <set attributeName="fill" to="#808080" begin="arrowRight.mouseover" end="arrowRight.mouseout"/>
                  </use>
                  <path fill="none" stroke="white" stroke-width="1.5" d="M0,-3.0v7 M-2.5,-0.5L0,-3.0L2.5,-0.5"/>
                </g>
                <g id="arrowDown" xlink:href="#dirArrow" transform="rotate(180) translate(-30 -48)" onmousedown="handlePan(0,1)">
                  <use xlink:href="#rim" fill="#404040">
                        <set attributeName="fill" to="#808080" begin="arrowDown.mouseover" end="arrowDown.mouseout"/>
                  </use>
                  <path fill="none" stroke="white" stroke-width="1.5" d="M0,-3.0v7 M-2.5,-0.5L0,-3.0L2.5,-0.5"/>
                </g>
                <g id="arrowLeft" xlink:href="#dirArrow" transform="rotate(270) translate(-36 17)" onmousedown="handlePan(-1,0)">
                  <use xlink:href="#rim" fill="#404040">
                        <set attributeName="fill" to="#808080" begin="arrowLeft.mouseover" end="arrowLeft.mouseout"/>
                  </use>
                  <path fill="none" stroke="white" stroke-width="1.5" d="M0,-3.0v7 M-2.5,-0.5L0,-3.0L2.5,-0.5"/>
                </g>
        </g>
        <svg viewBox="0 0 15 15" width="100%" height="30px" preserveAspectRatio="xMaxYMin meet">
         <g id="arrow_out" transform="scale(0.3 0.3)">
          <a xlink:href="classuser_interface_1_1_u_i_aad82f35446d97cd94d5003a2b995e264_cgraph_org.svg" target="_base">
           <rect id="button" ry="5" rx="5" y="6" x="6" height="38" width="38"
                fill="#f2f5e9" fill-opacity="0.5" stroke="#606060" stroke-width="1.0"/>
           <path id="arrow"
             d="M 11.500037,31.436501 C 11.940474,20.09759 22.043105,11.32322 32.158766,21.979434 L 37.068811,17.246167 C 37.068811,17.246167 37.088388,32 37.088388,32 L 22.160133,31.978069 C 22.160133,31.978069 26.997745,27.140456 26.997745,27.140456 C 18.528582,18.264221 13.291696,25.230495 11.500037,31.436501 z"
             style="fill:#404040;"/>
          </a>
         </g>
        </svg>
</svg>
