<?xml version="1.0" encoding="UTF-8" standalone="no"?>
<!DOCTYPE svg PUBLIC "-//W3C//DTD SVG 1.1//EN"
 "http://www.w3.org/Graphics/SVG/1.1/DTD/svg11.dtd">
<!-- Generated by graphviz version 2.36.0 (20140111.2315)
 -->
<!-- Title: userInterface.UI.runCommand Pages: 1 -->
<svg width="1540pt" height="458pt"
 viewBox="0.00 0.00 1540.00 458.00" xmlns="http://www.w3.org/2000/svg" xmlns:xlink="http://www.w3.org/1999/xlink">
<g id="graph0" class="graph" transform="scale(1 1) rotate(0) translate(4 454)">
<title>userInterface.UI.runCommand</title>
<polygon fill="white" stroke="none" points="-4,4 -4,-454 1536,-454 1536,4 -4,4"/>
<!-- Node1 -->
<g id="node1" class="node"><title>Node1</title>
<polygon fill="#bfbfbf" stroke="black" points="0.5,-200.5 0.5,-219.5 161.5,-219.5 161.5,-200.5 0.5,-200.5"/>
<text text-anchor="middle" x="81" y="-207.5" font-family="Helvetica,sans-Serif" font-size="10.00">userInterface.UI.runCommand</text>
</g>
<!-- Node2 -->
<g id="node2" class="node"><title>Node2</title>
<g id="a_node2"><a xlink:href="../../d8/d08/classworld_controller_1_1_world_controller.html#a178425d68e3e669c386706153ce44999" target="_top" xlink:title="worldController.WorldController.update">
<polygon fill="white" stroke="black" points="198,-200.5 198,-219.5 396,-219.5 396,-200.5 198,-200.5"/>
<text text-anchor="middle" x="297" y="-207.5" font-family="Helvetica,sans-Serif" font-size="10.00">worldController.WorldController.update</text>
</a>
</g>
</g>
<!-- Node1&#45;&gt;Node2 -->
<g id="edge1" class="edge"><title>Node1&#45;&gt;Node2</title>
<path fill="none" stroke="midnightblue" d="M161.686,-210C170.142,-210 178.841,-210 187.554,-210"/>
<polygon fill="midnightblue" stroke="midnightblue" points="187.774,-213.5 197.773,-210 187.773,-206.5 187.774,-213.5"/>
</g>
<!-- Node3 -->
<g id="node3" class="node"><title>Node3</title>
<g id="a_node3"><a xlink:href="../../df/dcb/classturtle_1_1_turtle.html#a610aafaf658c4b351330b7c16c66881c" target="_top" xlink:title="turtle.Turtle.updatePenAttributes">
<polygon fill="white" stroke="black" points="432.5,-275.5 432.5,-294.5 605.5,-294.5 605.5,-275.5 432.5,-275.5"/>
<text text-anchor="middle" x="519" y="-282.5" font-family="Helvetica,sans-Serif" font-size="10.00">turtle.Turtle.updatePenAttributes</text>
</a>
</g>
</g>
<!-- Node2&#45;&gt;Node3 -->
<g id="edge2" class="edge"><title>Node2&#45;&gt;Node3</title>
<path fill="none" stroke="midnightblue" d="M326.311,-219.651C365.501,-233.012 436.383,-257.176 480.103,-272.081"/>
<polygon fill="midnightblue" stroke="midnightblue" points="479.203,-275.472 489.798,-275.386 481.462,-268.846 479.203,-275.472"/>
</g>
<!-- Node6 -->
<g id="node6" class="node"><title>Node6</title>
<g id="a_node6"><a xlink:href="../../d9/dd0/classworld_1_1_world.html#ae370733f7784c42741a6ba66c7d2ecf5" target="_top" xlink:title="world.World.listen">
<polygon fill="white" stroke="black" points="470,-125.5 470,-144.5 568,-144.5 568,-125.5 470,-125.5"/>
<text text-anchor="middle" x="519" y="-132.5" font-family="Helvetica,sans-Serif" font-size="10.00">world.World.listen</text>
</a>
</g>
</g>
<!-- Node2&#45;&gt;Node6 -->
<g id="edge5" class="edge"><title>Node2&#45;&gt;Node6</title>
<path fill="none" stroke="midnightblue" d="M326.311,-200.349C365.501,-186.988 436.383,-162.824 480.103,-147.919"/>
<polygon fill="midnightblue" stroke="midnightblue" points="481.462,-151.154 489.798,-144.614 479.203,-144.528 481.462,-151.154"/>
</g>
<!-- Node4 -->
<g id="node4" class="node"><title>Node4</title>
<g id="a_node4"><a xlink:href="../../de/d57/classturtle_1_1_pen.html#ac9a08745a9f3615b9e47c1c8e5af8f1b" target="_top" xlink:title="turtle.Pen.getColor">
<polygon fill="white" stroke="black" points="682.5,-313.5 682.5,-332.5 789.5,-332.5 789.5,-313.5 682.5,-313.5"/>
<text text-anchor="middle" x="736" y="-320.5" font-family="Helvetica,sans-Serif" font-size="10.00">turtle.Pen.getColor</text>
</a>
</g>
</g>
<!-- Node3&#45;&gt;Node4 -->
<g id="edge3" class="edge"><title>Node3&#45;&gt;Node4</title>
<path fill="none" stroke="midnightblue" d="M573.976,-294.54C603.945,-299.837 641.364,-306.45 672.586,-311.969"/>
<polygon fill="midnightblue" stroke="midnightblue" points="672.032,-315.425 682.488,-313.719 673.25,-308.532 672.032,-315.425"/>
</g>
<!-- Node5 -->
<g id="node5" class="node"><title>Node5</title>
<g id="a_node5"><a xlink:href="../../de/d57/classturtle_1_1_pen.html#a76c8dc4e66927e7d3774ea00b2266640" target="_top" xlink:title="turtle.Pen.getSize">
<polygon fill="white" stroke="black" points="685,-275.5 685,-294.5 787,-294.5 787,-275.5 685,-275.5"/>
<text text-anchor="middle" x="736" y="-282.5" font-family="Helvetica,sans-Serif" font-size="10.00">turtle.Pen.getSize</text>
</a>
</g>
</g>
<!-- Node3&#45;&gt;Node5 -->
<g id="edge4" class="edge"><title>Node3&#45;&gt;Node5</title>
<path fill="none" stroke="midnightblue" d="M605.591,-285C628.738,-285 653.299,-285 674.733,-285"/>
<polygon fill="midnightblue" stroke="midnightblue" points="674.984,-288.5 684.984,-285 674.984,-281.5 674.984,-288.5"/>
</g>
<!-- Node7 -->
<g id="node7" class="node"><title>Node7</title>
<g id="a_node7"><a xlink:href="../../d6/d95/classparser_1_1_parser.html#a240c75608624a9c67402a296855c4d1d" target="_top" xlink:title="parser.Parser.initialize\lCommands">
<polygon fill="white" stroke="black" points="676,-169 676,-199 796,-199 796,-169 676,-169"/>
<text text-anchor="start" x="684" y="-187" font-family="Helvetica,sans-Serif" font-size="10.00">parser.Parser.initialize</text>
<text text-anchor="middle" x="736" y="-176" font-family="Helvetica,sans-Serif" font-size="10.00">Commands</text>
</a>
</g>
</g>
<!-- Node6&#45;&gt;Node7 -->
<g id="edge6" class="edge"><title>Node6&#45;&gt;Node7</title>
<path fill="none" stroke="midnightblue" d="M561.709,-144.506C591.273,-151.244 631.625,-160.44 665.952,-168.263"/>
<polygon fill="midnightblue" stroke="midnightblue" points="665.397,-171.727 675.925,-170.536 666.953,-164.902 665.397,-171.727"/>
</g>
<!-- Node11 -->
<g id="node11" class="node"><title>Node11</title>
<g id="a_node11"><a xlink:href="../../d6/d95/classparser_1_1_parser.html#a4ecbffc246c3add017c4720eed4c6da9" target="_top" xlink:title="parser.Parser.parse">
<polygon fill="white" stroke="black" points="681.5,-237.5 681.5,-256.5 790.5,-256.5 790.5,-237.5 681.5,-237.5"/>
<text text-anchor="middle" x="736" y="-244.5" font-family="Helvetica,sans-Serif" font-size="10.00">parser.Parser.parse</text>
</a>
</g>
</g>
<!-- Node6&#45;&gt;Node11 -->
<g id="edge10" class="edge"><title>Node6&#45;&gt;Node11</title>
<path fill="none" stroke="midnightblue" d="M534.639,-144.691C557.161,-159.385 601.911,-187.729 642,-208 660.72,-217.465 682.288,-226.613 699.938,-233.668"/>
<polygon fill="midnightblue" stroke="midnightblue" points="698.711,-236.946 709.297,-237.36 701.28,-230.435 698.711,-236.946"/>
</g>
<!-- Node24 -->
<g id="node24" class="node"><title>Node24</title>
<g id="a_node24"><a xlink:href="../../d7/d35/classcommand_1_1_command.html#a957099a70dd30b5dc897e0caf07d2d99" target="_top" xlink:title="command.Command.getCommand\lValues">
<polygon fill="white" stroke="black" points="642,-120 642,-150 830,-150 830,-120 642,-120"/>
<text text-anchor="start" x="650" y="-138" font-family="Helvetica,sans-Serif" font-size="10.00">command.Command.getCommand</text>
<text text-anchor="middle" x="736" y="-127" font-family="Helvetica,sans-Serif" font-size="10.00">Values</text>
</a>
</g>
</g>
<!-- Node6&#45;&gt;Node24 -->
<g id="edge33" class="edge"><title>Node6&#45;&gt;Node24</title>
<path fill="none" stroke="midnightblue" d="M568.25,-135C587.146,-135 609.594,-135 631.797,-135"/>
<polygon fill="midnightblue" stroke="midnightblue" points="631.968,-138.5 641.968,-135 631.968,-131.5 631.968,-138.5"/>
</g>
<!-- Node26 -->
<g id="node26" class="node"><title>Node26</title>
<g id="a_node26"><a xlink:href="../../d6/d95/classparser_1_1_parser.html#a8679d61f4ae6c55910ef113bcdda2c75" target="_top" xlink:title="parser.Parser.updateVariable">
<polygon fill="white" stroke="black" points="659,-81.5 659,-100.5 813,-100.5 813,-81.5 659,-81.5"/>
<text text-anchor="middle" x="736" y="-88.5" font-family="Helvetica,sans-Serif" font-size="10.00">parser.Parser.updateVariable</text>
</a>
</g>
</g>
<!-- Node6&#45;&gt;Node26 -->
<g id="edge35" class="edge"><title>Node6&#45;&gt;Node26</title>
<path fill="none" stroke="midnightblue" d="M566.344,-125.496C589.132,-120.825 617.005,-115.114 642,-110 653.73,-107.6 666.293,-105.032 678.271,-102.584"/>
<polygon fill="midnightblue" stroke="midnightblue" points="679.067,-105.994 688.164,-100.563 677.666,-99.1356 679.067,-105.994"/>
</g>
<!-- Node28 -->
<g id="node28" class="node"><title>Node28</title>
<g id="a_node28"><a xlink:href="../../d9/dd0/classworld_1_1_world.html#adcbcb8328c7e832fcb710a91457e6772" target="_top" xlink:title="world.World.runCommand">
<polygon fill="white" stroke="black" points="666.5,-43.5 666.5,-62.5 805.5,-62.5 805.5,-43.5 666.5,-43.5"/>
<text text-anchor="middle" x="736" y="-50.5" font-family="Helvetica,sans-Serif" font-size="10.00">world.World.runCommand</text>
</a>
</g>
</g>
<!-- Node6&#45;&gt;Node28 -->
<g id="edge37" class="edge"><title>Node6&#45;&gt;Node28</title>
<path fill="none" stroke="midnightblue" d="M535.174,-125.413C557.659,-111.621 601.535,-86.273 642,-72 649.624,-69.311 657.74,-66.9548 665.881,-64.9028"/>
<polygon fill="midnightblue" stroke="midnightblue" points="666.871,-68.265 675.792,-62.5485 665.254,-61.4545 666.871,-68.265"/>
</g>
<!-- Node29 -->
<g id="node29" class="node"><title>Node29</title>
<g id="a_node29"><a xlink:href="../../d6/d95/classparser_1_1_parser.html#acebafe1593fc1f09ac31c7104438e4b1" target="_top" xlink:title="parser.Parser.resetRepcount">
<polygon fill="white" stroke="black" points="660.5,-5.5 660.5,-24.5 811.5,-24.5 811.5,-5.5 660.5,-5.5"/>
<text text-anchor="middle" x="736" y="-12.5" font-family="Helvetica,sans-Serif" font-size="10.00">parser.Parser.resetRepcount</text>
</a>
</g>
</g>
<!-- Node6&#45;&gt;Node29 -->
<g id="edge38" class="edge"><title>Node6&#45;&gt;Node29</title>
<path fill="none" stroke="midnightblue" d="M528.387,-125.416C546.768,-105.072 592.894,-57.5103 642,-34 647.237,-31.4926 652.794,-29.3156 658.484,-27.4254"/>
<polygon fill="midnightblue" stroke="midnightblue" points="659.59,-30.7476 668.152,-24.5074 657.568,-24.0461 659.59,-30.7476"/>
</g>
<!-- Node8 -->
<g id="node8" class="node"><title>Node8</title>
<g id="a_node8"><a xlink:href="../../d6/d95/classparser_1_1_parser.html#a4f582c65390bddc57219c0b5c31ef5e7" target="_top" xlink:title="parser.Parser.makeTree">
<polygon fill="white" stroke="black" points="896,-163.5 896,-182.5 1024,-182.5 1024,-163.5 896,-163.5"/>
<text text-anchor="middle" x="960" y="-170.5" font-family="Helvetica,sans-Serif" font-size="10.00">parser.Parser.makeTree</text>
</a>
</g>
</g>
<!-- Node7&#45;&gt;Node8 -->
<g id="edge7" class="edge"><title>Node7&#45;&gt;Node8</title>
<path fill="none" stroke="midnightblue" d="M796.2,-181.067C823.661,-179.706 856.574,-178.075 885.599,-176.637"/>
<polygon fill="midnightblue" stroke="midnightblue" points="885.873,-180.128 895.687,-176.137 885.526,-173.136 885.873,-180.128"/>
</g>
<!-- Node9 -->
<g id="node9" class="node"><title>Node9</title>
<g id="a_node9"><a xlink:href="../../d9/d1b/classcommand_1_1_command_factory.html#a87bf7e648425bb22124367cabedb3327" target="_top" xlink:title="command.CommandFactory.get\lNumParameters">
<polygon fill="white" stroke="black" points="1109,-115 1109,-145 1279,-145 1279,-115 1109,-115"/>
<text text-anchor="start" x="1117" y="-133" font-family="Helvetica,sans-Serif" font-size="10.00">command.CommandFactory.get</text>
<text text-anchor="middle" x="1194" y="-122" font-family="Helvetica,sans-Serif" font-size="10.00">NumParameters</text>
</a>
</g>
</g>
<!-- Node8&#45;&gt;Node9 -->
<g id="edge8" class="edge"><title>Node8&#45;&gt;Node9</title>
<path fill="none" stroke="midnightblue" d="M1012.49,-163.457C1038.75,-158.589 1071.49,-152.521 1101.85,-146.895"/>
<polygon fill="midnightblue" stroke="midnightblue" points="1102.84,-150.27 1112.04,-145.006 1101.57,-143.387 1102.84,-150.27"/>
</g>
<!-- Node10 -->
<g id="node10" class="node"><title>Node10</title>
<g id="a_node10"><a xlink:href="../../d9/d1b/classcommand_1_1_command_factory.html#a947fdc151e857ea74564d0d1fe268246" target="_top" xlink:title="command.CommandFactory.translate\lCommand">
<polygon fill="white" stroke="black" points="1334.5,-137 1334.5,-167 1531.5,-167 1531.5,-137 1334.5,-137"/>
<text text-anchor="start" x="1342.5" y="-155" font-family="Helvetica,sans-Serif" font-size="10.00">command.CommandFactory.translate</text>
<text text-anchor="middle" x="1433" y="-144" font-family="Helvetica,sans-Serif" font-size="10.00">Command</text>
</a>
</g>
</g>
<!-- Node9&#45;&gt;Node10 -->
<g id="edge9" class="edge"><title>Node9&#45;&gt;Node10</title>
<path fill="none" stroke="midnightblue" d="M1279.22,-137.818C1293.71,-139.163 1308.94,-140.577 1323.95,-141.97"/>
<polygon fill="midnightblue" stroke="midnightblue" points="1324.01,-145.491 1334.29,-142.93 1324.66,-138.521 1324.01,-145.491"/>
</g>
<!-- Node11&#45;&gt;Node8 -->
<g id="edge32" class="edge"><title>Node11&#45;&gt;Node8</title>
<path fill="none" stroke="midnightblue" d="M760.372,-237.359C779.215,-229.548 806.372,-218.203 830,-208 846.074,-201.058 849.325,-197.339 866,-192 874.529,-189.269 883.628,-186.841 892.67,-184.711"/>
<polygon fill="midnightblue" stroke="midnightblue" points="893.442,-188.125 902.43,-182.516 891.906,-181.296 893.442,-188.125"/>
</g>
<!-- Node12 -->
<g id="node12" class="node"><title>Node12</title>
<g id="a_node12"><a xlink:href="../../d9/d1b/classcommand_1_1_command_factory.html#ab25bb047b051661d31adf73b2dae5649" target="_top" xlink:title="command.CommandFactory.create\lCommand">
<polygon fill="white" stroke="black" points="867.5,-202 867.5,-232 1052.5,-232 1052.5,-202 867.5,-202"/>
<text text-anchor="start" x="875.5" y="-220" font-family="Helvetica,sans-Serif" font-size="10.00">command.CommandFactory.create</text>
<text text-anchor="middle" x="960" y="-209" font-family="Helvetica,sans-Serif" font-size="10.00">Command</text>
</a>
</g>
</g>
<!-- Node11&#45;&gt;Node12 -->
<g id="edge11" class="edge"><title>Node11&#45;&gt;Node12</title>
<path fill="none" stroke="midnightblue" d="M790.74,-239.738C810.749,-237.034 834.176,-233.868 857.084,-230.772"/>
<polygon fill="midnightblue" stroke="midnightblue" points="857.766,-234.212 867.207,-229.404 856.828,-227.275 857.766,-234.212"/>
</g>
<!-- Node14 -->
<g id="node14" class="node"><title>Node14</title>
<g id="a_node14"><a xlink:href="../../d6/d95/classparser_1_1_parser.html#aac1cff62f68138c7e977a67d39671701" target="_top" xlink:title="parser.Parser.generateCommand\lInput">
<polygon fill="white" stroke="black" points="872,-349 872,-379 1048,-379 1048,-349 872,-349"/>
<text text-anchor="start" x="880" y="-367" font-family="Helvetica,sans-Serif" font-size="10.00">parser.Parser.generateCommand</text>
<text text-anchor="middle" x="960" y="-356" font-family="Helvetica,sans-Serif" font-size="10.00">Input</text>
</a>
</g>
</g>
<!-- Node11&#45;&gt;Node14 -->
<g id="edge14" class="edge"><title>Node11&#45;&gt;Node14</title>
<path fill="none" stroke="midnightblue" d="M790.72,-249.556C804.601,-252.359 818.779,-257.343 830,-266 858.643,-288.096 838.045,-316.039 866,-339 868.035,-340.671 870.171,-342.232 872.389,-343.688"/>
<polygon fill="midnightblue" stroke="midnightblue" points="870.89,-346.863 881.305,-348.808 874.376,-340.793 870.89,-346.863"/>
</g>
<!-- Node19 -->
<g id="node19" class="node"><title>Node19</title>
<g id="a_node19"><a xlink:href="../../d6/d95/classparser_1_1_parser.html#a3efcd1192e76101919526b4a5e0046f4" target="_top" xlink:title="parser.Parser.getNodeBefore\lToReplace">
<polygon fill="white" stroke="black" points="882.5,-300 882.5,-330 1037.5,-330 1037.5,-300 882.5,-300"/>
<text text-anchor="start" x="890.5" y="-318" font-family="Helvetica,sans-Serif" font-size="10.00">parser.Parser.getNodeBefore</text>
<text text-anchor="middle" x="960" y="-307" font-family="Helvetica,sans-Serif" font-size="10.00">ToReplace</text>
</a>
</g>
</g>
<!-- Node11&#45;&gt;Node19 -->
<g id="edge19" class="edge"><title>Node11&#45;&gt;Node19</title>
<path fill="none" stroke="midnightblue" d="M790.687,-254.3C803.844,-257.079 817.678,-260.866 830,-266 847.751,-273.396 848.484,-282.066 866,-290 871.366,-292.431 877.017,-294.666 882.772,-296.713"/>
<polygon fill="midnightblue" stroke="midnightblue" points="881.931,-300.122 892.525,-299.983 884.156,-293.485 881.931,-300.122"/>
</g>
<!-- Node22 -->
<g id="node22" class="node"><title>Node22</title>
<g id="a_node22"><a xlink:href="../../d6/d95/classparser_1_1_parser.html#a447c473b62ba23b7c144df9bb38a9a41" target="_top" xlink:title="parser.Parser.getNodeFor\lCommand">
<polygon fill="white" stroke="black" points="891,-251 891,-281 1029,-281 1029,-251 891,-251"/>
<text text-anchor="start" x="899" y="-269" font-family="Helvetica,sans-Serif" font-size="10.00">parser.Parser.getNodeFor</text>
<text text-anchor="middle" x="960" y="-258" font-family="Helvetica,sans-Serif" font-size="10.00">Command</text>
</a>
</g>
</g>
<!-- Node11&#45;&gt;Node22 -->
<g id="edge25" class="edge"><title>Node11&#45;&gt;Node22</title>
<path fill="none" stroke="midnightblue" d="M790.74,-251.599C817.601,-253.898 850.622,-256.724 880.276,-259.262"/>
<polygon fill="midnightblue" stroke="midnightblue" points="880.348,-262.781 890.61,-260.147 880.945,-255.807 880.348,-262.781"/>
</g>
<!-- Node23 -->
<g id="node23" class="node"><title>Node23</title>
<g id="a_node23"><a xlink:href="../../d3/dcc/classparser_1_1_node.html#a066da2b478008f39a02440d7afceb9ee" target="_top" xlink:title="parser.Node.insertChild">
<polygon fill="white" stroke="black" points="896,-398.5 896,-417.5 1024,-417.5 1024,-398.5 896,-398.5"/>
<text text-anchor="middle" x="960" y="-405.5" font-family="Helvetica,sans-Serif" font-size="10.00">parser.Node.insertChild</text>
</a>
</g>
</g>
<!-- Node11&#45;&gt;Node23 -->
<g id="edge30" class="edge"><title>Node11&#45;&gt;Node23</title>
<path fill="none" stroke="midnightblue" d="M790.785,-248.137C804.99,-250.883 819.317,-256.193 830,-266 871.645,-304.232 824.552,-349.554 866,-388 871.789,-393.37 878.66,-397.432 886.006,-400.486"/>
<polygon fill="midnightblue" stroke="midnightblue" points="884.926,-403.817 895.52,-403.84 887.253,-397.215 884.926,-403.817"/>
</g>
<!-- Node12&#45;&gt;Node10 -->
<g id="edge13" class="edge"><title>Node12&#45;&gt;Node10</title>
<path fill="none" stroke="midnightblue" d="M1037.26,-201.968C1054.56,-198.793 1072.89,-195.615 1090,-193 1168.16,-181.058 1256.8,-170.515 1324.26,-163.111"/>
<polygon fill="midnightblue" stroke="midnightblue" points="1324.92,-166.561 1334.48,-161.996 1324.16,-159.602 1324.92,-166.561"/>
</g>
<!-- Node13 -->
<g id="node13" class="node"><title>Node13</title>
<g id="a_node13"><a xlink:href="../../d9/d1b/classcommand_1_1_command_factory.html#abd97ea3e22afc09e07ed1d4fd039d11f" target="_top" xlink:title="command.CommandFactory.reflectCMD">
<polygon fill="white" stroke="black" points="1090.5,-202.5 1090.5,-221.5 1297.5,-221.5 1297.5,-202.5 1090.5,-202.5"/>
<text text-anchor="middle" x="1194" y="-209.5" font-family="Helvetica,sans-Serif" font-size="10.00">command.CommandFactory.reflectCMD</text>
</a>
</g>
</g>
<!-- Node12&#45;&gt;Node13 -->
<g id="edge12" class="edge"><title>Node12&#45;&gt;Node13</title>
<path fill="none" stroke="midnightblue" d="M1052.69,-215.024C1061.81,-214.827 1071.13,-214.626 1080.43,-214.426"/>
<polygon fill="midnightblue" stroke="midnightblue" points="1080.57,-217.924 1090.49,-214.209 1080.42,-210.926 1080.57,-217.924"/>
</g>
<!-- Node15 -->
<g id="node15" class="node"><title>Node15</title>
<g id="a_node15"><a xlink:href="../../d3/dcc/classparser_1_1_node.html#aa67bc0d39227232943abec9b95b23235" target="_top" xlink:title="parser.Node.getChild1">
<polygon fill="white" stroke="black" points="1132.5,-316.5 1132.5,-335.5 1255.5,-335.5 1255.5,-316.5 1132.5,-316.5"/>
<text text-anchor="middle" x="1194" y="-323.5" font-family="Helvetica,sans-Serif" font-size="10.00">parser.Node.getChild1</text>
</a>
</g>
</g>
<!-- Node14&#45;&gt;Node15 -->
<g id="edge15" class="edge"><title>Node14&#45;&gt;Node15</title>
<path fill="none" stroke="midnightblue" d="M1048.05,-349.742C1073.36,-345.596 1100.64,-341.128 1124.63,-337.199"/>
<polygon fill="midnightblue" stroke="midnightblue" points="1125.39,-340.621 1134.69,-335.55 1124.26,-333.713 1125.39,-340.621"/>
</g>
<!-- Node16 -->
<g id="node16" class="node"><title>Node16</title>
<g id="a_node16"><a xlink:href="../../d3/dcc/classparser_1_1_node.html#a0f13775acc62af77cdde90dbeaf26bbc" target="_top" xlink:title="parser.Node.getChild2">
<polygon fill="white" stroke="black" points="1132.5,-354.5 1132.5,-373.5 1255.5,-373.5 1255.5,-354.5 1132.5,-354.5"/>
<text text-anchor="middle" x="1194" y="-361.5" font-family="Helvetica,sans-Serif" font-size="10.00">parser.Node.getChild2</text>
</a>
</g>
</g>
<!-- Node14&#45;&gt;Node16 -->
<g id="edge16" class="edge"><title>Node14&#45;&gt;Node16</title>
<path fill="none" stroke="midnightblue" d="M1048.05,-364C1072.46,-364 1098.71,-364 1122.07,-364"/>
<polygon fill="midnightblue" stroke="midnightblue" points="1122.23,-367.5 1132.23,-364 1122.23,-360.5 1122.23,-367.5"/>
</g>
<!-- Node17 -->
<g id="node17" class="node"><title>Node17</title>
<g id="a_node17"><a xlink:href="../../d3/dcc/classparser_1_1_node.html#a9c12e8d4375a7517eae0a35724b253c4" target="_top" xlink:title="parser.Node.getValue">
<polygon fill="white" stroke="black" points="1134,-392.5 1134,-411.5 1254,-411.5 1254,-392.5 1134,-392.5"/>
<text text-anchor="middle" x="1194" y="-399.5" font-family="Helvetica,sans-Serif" font-size="10.00">parser.Node.getValue</text>
</a>
</g>
</g>
<!-- Node14&#45;&gt;Node17 -->
<g id="edge17" class="edge"><title>Node14&#45;&gt;Node17</title>
<path fill="none" stroke="midnightblue" d="M1048.05,-378.258C1073.36,-382.404 1100.64,-386.872 1124.63,-390.801"/>
<polygon fill="midnightblue" stroke="midnightblue" points="1124.26,-394.287 1134.69,-392.45 1125.39,-387.379 1124.26,-394.287"/>
</g>
<!-- Node18 -->
<g id="node18" class="node"><title>Node18</title>
<g id="a_node18"><a xlink:href="../../d3/dcc/classparser_1_1_node.html#a6bbc0c61aaa261077eb87cfc4e2b45dc" target="_top" xlink:title="parser.Node.numChildren">
<polygon fill="white" stroke="black" points="1124.5,-430.5 1124.5,-449.5 1263.5,-449.5 1263.5,-430.5 1124.5,-430.5"/>
<text text-anchor="middle" x="1194" y="-437.5" font-family="Helvetica,sans-Serif" font-size="10.00">parser.Node.numChildren</text>
</a>
</g>
</g>
<!-- Node14&#45;&gt;Node18 -->
<g id="edge18" class="edge"><title>Node14&#45;&gt;Node18</title>
<path fill="none" stroke="midnightblue" d="M1031.43,-379.148C1039.25,-381.931 1046.94,-385.19 1054,-389 1072.84,-399.162 1070.77,-411.601 1090,-421 1097.63,-424.73 1105.91,-427.731 1114.34,-430.145"/>
<polygon fill="midnightblue" stroke="midnightblue" points="1113.72,-433.601 1124.28,-432.718 1115.48,-426.824 1113.72,-433.601"/>
</g>
<!-- Node19&#45;&gt;Node15 -->
<g id="edge20" class="edge"><title>Node19&#45;&gt;Node15</title>
<path fill="none" stroke="midnightblue" d="M1037.61,-318.632C1064.88,-319.925 1095.44,-321.374 1122.2,-322.643"/>
<polygon fill="midnightblue" stroke="midnightblue" points="1122.1,-326.142 1132.26,-323.12 1122.43,-319.15 1122.1,-326.142"/>
</g>
<!-- Node19&#45;&gt;Node16 -->
<g id="edge21" class="edge"><title>Node19&#45;&gt;Node16</title>
<path fill="none" stroke="midnightblue" d="M1022.88,-330C1044.11,-334.985 1068.05,-340.426 1090,-345 1102.43,-347.591 1115.74,-350.182 1128.53,-352.58"/>
<polygon fill="midnightblue" stroke="midnightblue" points="1128.18,-356.074 1138.65,-354.459 1129.46,-349.192 1128.18,-356.074"/>
</g>
<!-- Node19&#45;&gt;Node17 -->
<g id="edge22" class="edge"><title>Node19&#45;&gt;Node17</title>
<path fill="none" stroke="midnightblue" d="M1036.85,-330.146C1042.86,-332.658 1048.66,-335.587 1054,-339 1075.29,-352.61 1068.25,-370.145 1090,-383 1100.27,-389.071 1112.05,-393.278 1123.88,-396.178"/>
<polygon fill="midnightblue" stroke="midnightblue" points="1123.29,-399.63 1133.8,-398.318 1124.76,-392.788 1123.29,-399.63"/>
</g>
<!-- Node20 -->
<g id="node20" class="node"><title>Node20</title>
<g id="a_node20"><a xlink:href="../../d3/dcc/classparser_1_1_node.html#ab14db24c0724dec4387e29d513008e2e" target="_top" xlink:title="parser.Node.hasChildren">
<polygon fill="white" stroke="black" points="1127,-240.5 1127,-259.5 1261,-259.5 1261,-240.5 1127,-240.5"/>
<text text-anchor="middle" x="1194" y="-247.5" font-family="Helvetica,sans-Serif" font-size="10.00">parser.Node.hasChildren</text>
</a>
</g>
</g>
<!-- Node19&#45;&gt;Node20 -->
<g id="edge23" class="edge"><title>Node19&#45;&gt;Node20</title>
<path fill="none" stroke="midnightblue" d="M1025.78,-299.97C1035.38,-297.06 1045.05,-293.735 1054,-290 1071.09,-282.866 1072.63,-275.443 1090,-269 1098.58,-265.818 1107.76,-263.154 1116.98,-260.925"/>
<polygon fill="midnightblue" stroke="midnightblue" points="1117.98,-264.286 1126.97,-258.675 1116.45,-257.458 1117.98,-264.286"/>
</g>
<!-- Node21 -->
<g id="node21" class="node"><title>Node21</title>
<g id="a_node21"><a xlink:href="../../d3/dcc/classparser_1_1_node.html#aa92667a825777b3d757bc3b1a247ac20" target="_top" xlink:title="parser.Node.isLeaf">
<polygon fill="white" stroke="black" points="1141,-278.5 1141,-297.5 1247,-297.5 1247,-278.5 1141,-278.5"/>
<text text-anchor="middle" x="1194" y="-285.5" font-family="Helvetica,sans-Serif" font-size="10.00">parser.Node.isLeaf</text>
</a>
</g>
</g>
<!-- Node19&#45;&gt;Node21 -->
<g id="edge24" class="edge"><title>Node19&#45;&gt;Node21</title>
<path fill="none" stroke="midnightblue" d="M1037.61,-306.084C1067.7,-302.582 1101.81,-298.613 1130.38,-295.287"/>
<polygon fill="midnightblue" stroke="midnightblue" points="1131.12,-298.726 1140.65,-294.093 1130.31,-291.773 1131.12,-298.726"/>
</g>
<!-- Node22&#45;&gt;Node15 -->
<g id="edge26" class="edge"><title>Node22&#45;&gt;Node15</title>
<path fill="none" stroke="midnightblue" d="M1026.02,-281.103C1035.49,-283.787 1045.06,-286.769 1054,-290 1070.64,-296.015 1073.16,-301.572 1090,-307 1100.34,-310.331 1111.45,-313.142 1122.43,-315.494"/>
<polygon fill="midnightblue" stroke="midnightblue" points="1121.94,-318.967 1132.44,-317.527 1123.33,-312.107 1121.94,-318.967"/>
</g>
<!-- Node22&#45;&gt;Node16 -->
<g id="edge27" class="edge"><title>Node22&#45;&gt;Node16</title>
<path fill="none" stroke="midnightblue" d="M1029.18,-277.271C1038,-280.502 1046.55,-284.657 1054,-290 1077.75,-307.02 1065.67,-328.823 1090,-345 1099.66,-351.425 1110.91,-355.827 1122.34,-358.816"/>
<polygon fill="midnightblue" stroke="midnightblue" points="1121.88,-362.3 1132.41,-361.094 1123.43,-355.473 1121.88,-362.3"/>
</g>
<!-- Node22&#45;&gt;Node20 -->
<g id="edge28" class="edge"><title>Node22&#45;&gt;Node20</title>
<path fill="none" stroke="midnightblue" d="M1029.04,-261.308C1056.55,-259.411 1088.42,-257.212 1116.71,-255.261"/>
<polygon fill="midnightblue" stroke="midnightblue" points="1117.22,-258.734 1126.96,-254.555 1116.74,-251.751 1117.22,-258.734"/>
</g>
<!-- Node22&#45;&gt;Node21 -->
<g id="edge29" class="edge"><title>Node22&#45;&gt;Node21</title>
<path fill="none" stroke="midnightblue" d="M1029.04,-272.452C1061.11,-275.494 1099.12,-279.098 1130.47,-282.07"/>
<polygon fill="midnightblue" stroke="midnightblue" points="1130.54,-285.592 1140.82,-283.052 1131.2,-278.624 1130.54,-285.592"/>
</g>
<!-- Node23&#45;&gt;Node17 -->
<g id="edge31" class="edge"><title>Node23&#45;&gt;Node17</title>
<path fill="none" stroke="midnightblue" d="M1024.09,-406.368C1054.96,-405.57 1092.2,-404.607 1123.85,-403.788"/>
<polygon fill="midnightblue" stroke="midnightblue" points="1124.01,-407.286 1133.91,-403.528 1123.82,-400.288 1124.01,-407.286"/>
</g>
<!-- Node25 -->
<g id="node25" class="node"><title>Node25</title>
<g id="a_node25"><a xlink:href="../../d7/d35/classcommand_1_1_command.html#a7e1387db1d0d35d4dcd3a3ebe2ff902a" target="_top" xlink:title="command.Command.makeString">
<polygon fill="white" stroke="black" points="871.5,-125.5 871.5,-144.5 1048.5,-144.5 1048.5,-125.5 871.5,-125.5"/>
<text text-anchor="middle" x="960" y="-132.5" font-family="Helvetica,sans-Serif" font-size="10.00">command.Command.makeString</text>
</a>
</g>
</g>
<!-- Node24&#45;&gt;Node25 -->
<g id="edge34" class="edge"><title>Node24&#45;&gt;Node25</title>
<path fill="none" stroke="midnightblue" d="M830.183,-135C840.417,-135 850.859,-135 861.148,-135"/>
<polygon fill="midnightblue" stroke="midnightblue" points="861.372,-138.5 871.372,-135 861.372,-131.5 861.372,-138.5"/>
</g>
<!-- Node27 -->
<g id="node27" class="node"><title>Node27</title>
<g id="a_node27"><a xlink:href="../../d9/d1b/classcommand_1_1_command_factory.html#a8347db76764ea8308d029789b49519dd" target="_top" xlink:title="command.CommandFactory.update\lVariable">
<polygon fill="white" stroke="black" points="866,-76 866,-106 1054,-106 1054,-76 866,-76"/>
<text text-anchor="start" x="874" y="-94" font-family="Helvetica,sans-Serif" font-size="10.00">command.CommandFactory.update</text>
<text text-anchor="middle" x="960" y="-83" font-family="Helvetica,sans-Serif" font-size="10.00">Variable</text>
</a>
</g>
</g>
<!-- Node26&#45;&gt;Node27 -->
<g id="edge36" class="edge"><title>Node26&#45;&gt;Node27</title>
<path fill="none" stroke="midnightblue" d="M813.089,-91C826.724,-91 841.142,-91 855.396,-91"/>
<polygon fill="midnightblue" stroke="midnightblue" points="855.733,-94.5001 865.733,-91 855.733,-87.5001 855.733,-94.5001"/>
</g>
<!-- Node30 -->
<g id="node30" class="node"><title>Node30</title>
<g id="a_node30"><a xlink:href="../../d9/d1b/classcommand_1_1_command_factory.html#a0d59e4f0f925b5046957c0e054ce8bef" target="_top" xlink:title="command.CommandFactory.reset\lRepcount">
<polygon fill="white" stroke="black" points="870.5,-0 870.5,-30 1049.5,-30 1049.5,-0 870.5,-0"/>
<text text-anchor="start" x="878.5" y="-18" font-family="Helvetica,sans-Serif" font-size="10.00">command.CommandFactory.reset</text>
<text text-anchor="middle" x="960" y="-7" font-family="Helvetica,sans-Serif" font-size="10.00">Repcount</text>
</a>
</g>
</g>
<!-- Node29&#45;&gt;Node30 -->
<g id="edge39" class="edge"><title>Node29&#45;&gt;Node30</title>
<path fill="none" stroke="midnightblue" d="M811.54,-15C827.187,-15 843.922,-15 860.295,-15"/>
<polygon fill="midnightblue" stroke="midnightblue" points="860.43,-18.5001 870.43,-15 860.43,-11.5001 860.43,-18.5001"/>
</g>
</g>
</svg>
