<?xml version="1.0" encoding="UTF-8" standalone="no"?>
<!DOCTYPE svg PUBLIC "-//W3C//DTD SVG 1.1//EN"
 "http://www.w3.org/Graphics/SVG/1.1/DTD/svg11.dtd">
<!-- Generated by graphviz version 2.36.0 (20140111.2315)
 -->
<!-- Title: userInterface.UI.setUpCommandField Pages: 1 -->
<!--zoomable 437 -->
<svg id="main" version="1.1" xmlns="http://www.w3.org/2000/svg" xmlns:xlink="http://www.w3.org/1999/xlink" xml:space="preserve" onload="init(evt)">
<style type="text/css"><![CDATA[
.edge:hover path { stroke: red; }
.edge:hover polygon { stroke: red; fill: red; }
]]></style>
<script type="text/javascript"><![CDATA[
var edges = document.getElementsByTagName('g');
if (edges && edges.length) {
  for (var i=0;i<edges.length;i++) {
    if (edges[i].id.substr(0,4)=='edge') {
      edges[i].setAttribute('class','edge');
    }
  }
}
]]></script>
        <defs>
                <circle id="rim" cx="0" cy="0" r="7"/>
                <circle id="rim2" cx="0" cy="0" r="3.5"/>
                <g id="zoomPlus">
                        <use xlink:href="#rim" fill="#404040">
                                <set attributeName="fill" to="#808080" begin="zoomplus.mouseover" end="zoomplus.mouseout"/>
                        </use>
                        <path d="M-4,0h8M0,-4v8" fill="none" stroke="white" stroke-width="1.5" pointer-events="none"/>
                </g>
                <g id="zoomMin">
                        <use xlink:href="#rim" fill="#404040">
                                <set attributeName="fill" to="#808080" begin="zoomminus.mouseover" end="zoomminus.mouseout"/>
                        </use>
                        <path d="M-4,0h8" fill="none" stroke="white" stroke-width="1.5" pointer-events="none"/>
                </g>
                <g id="dirArrow">
                        <path fill="none" stroke="white" stroke-width="1.5" d="M0,-3.0v7 M-2.5,-0.5L0,-3.0L2.5,-0.5"/>
                </g>
               <g id="resetDef">
                       <use xlink:href="#rim2" fill="#404040">
                               <set attributeName="fill" to="#808080" begin="reset.mouseover" end="reset.mouseout"/>
                       </use>
               </g>
        </defs>

<script type="text/javascript">
var viewWidth = 1926;
var viewHeight = 437;
var sectionId = 'dynsection-12';
</script>
<script xlink:href="../../svgpan.js"/>
<svg id="graph" class="graph">
<g id="viewport">
<title>userInterface.UI.setUpCommandField</title>
<polygon fill="white" stroke="none" points="-4,4 -4,-433 1922,-433 1922,4 -4,4"/>
<!-- Node1 -->
<g id="node1" class="node"><title>Node1</title>
<polygon fill="#bfbfbf" stroke="black" points="0,-248 0,-278 174,-278 174,-248 0,-248"/>
<text text-anchor="start" x="8" y="-266" font-family="Helvetica,sans-Serif" font-size="10.00">userInterface.UI.setUpCommand</text>
<text text-anchor="middle" x="87" y="-255" font-family="Helvetica,sans-Serif" font-size="10.00">Field</text>
</g>
<!-- Node2 -->
<g id="node2" class="node"><title>Node2</title>
<g id="a_node2"><a xlink:href="../../d0/d7c/classuser_interface_1_1_u_i.html#a02bd34909b5d6037ea8ebe812879b90a" target="_top" xlink:title="userInterface.UI.makeRun\lButton">
<polygon fill="white" stroke="black" points="210,-248 210,-278 350,-278 350,-248 210,-248"/>
<text text-anchor="start" x="218" y="-266" font-family="Helvetica,sans-Serif" font-size="10.00">userInterface.UI.makeRun</text>
<text text-anchor="middle" x="280" y="-255" font-family="Helvetica,sans-Serif" font-size="10.00">Button</text>
</a>
</g>
</g>
<!-- Node1&#45;&gt;Node2 -->
<g id="edge1" class="edge"><title>Node1&#45;&gt;Node2</title>
<path fill="none" stroke="midnightblue" d="M174.001,-263C182.519,-263 191.139,-263 199.585,-263"/>
<polygon fill="midnightblue" stroke="midnightblue" points="199.784,-266.5 209.784,-263 199.784,-259.5 199.784,-266.5"/>
</g>
<!-- Node3 -->
<g id="node3" class="node"><title>Node3</title>
<g id="a_node3"><a xlink:href="../../d0/d7c/classuser_interface_1_1_u_i.html#ab17592b00ba0b808f524b4fc223303ec" target="_top" xlink:title="userInterface.UI.runCommand">
<polygon fill="white" stroke="black" points="386.5,-253.5 386.5,-272.5 547.5,-272.5 547.5,-253.5 386.5,-253.5"/>
<text text-anchor="middle" x="467" y="-260.5" font-family="Helvetica,sans-Serif" font-size="10.00">userInterface.UI.runCommand</text>
</a>
</g>
</g>
<!-- Node2&#45;&gt;Node3 -->
<g id="edge2" class="edge"><title>Node2&#45;&gt;Node3</title>
<path fill="none" stroke="midnightblue" d="M350.15,-263C358.633,-263 367.397,-263 376.129,-263"/>
<polygon fill="midnightblue" stroke="midnightblue" points="376.346,-266.5 386.346,-263 376.346,-259.5 376.346,-266.5"/>
</g>
<!-- Node4 -->
<g id="node4" class="node"><title>Node4</title>
<g id="a_node4"><a xlink:href="../../d8/d08/classworld_controller_1_1_world_controller.html#a178425d68e3e669c386706153ce44999" target="_top" xlink:title="worldController.WorldController.update">
<polygon fill="white" stroke="black" points="584,-253.5 584,-272.5 782,-272.5 782,-253.5 584,-253.5"/>
<text text-anchor="middle" x="683" y="-260.5" font-family="Helvetica,sans-Serif" font-size="10.00">worldController.WorldController.update</text>
</a>
</g>
</g>
<!-- Node3&#45;&gt;Node4 -->
<g id="edge3" class="edge"><title>Node3&#45;&gt;Node4</title>
<path fill="none" stroke="midnightblue" d="M547.686,-263C556.142,-263 564.841,-263 573.554,-263"/>
<polygon fill="midnightblue" stroke="midnightblue" points="573.774,-266.5 583.773,-263 573.773,-259.5 573.774,-266.5"/>
</g>
<!-- Node5 -->
<g id="node5" class="node"><title>Node5</title>
<g id="a_node5"><a xlink:href="../../df/dcb/classturtle_1_1_turtle.html#a610aafaf658c4b351330b7c16c66881c" target="_top" xlink:title="turtle.Turtle.updatePenAttributes">
<polygon fill="white" stroke="black" points="818.5,-328.5 818.5,-347.5 991.5,-347.5 991.5,-328.5 818.5,-328.5"/>
<text text-anchor="middle" x="905" y="-335.5" font-family="Helvetica,sans-Serif" font-size="10.00">turtle.Turtle.updatePenAttributes</text>
</a>
</g>
</g>
<!-- Node4&#45;&gt;Node5 -->
<g id="edge4" class="edge"><title>Node4&#45;&gt;Node5</title>
<path fill="none" stroke="midnightblue" d="M712.311,-272.651C751.501,-286.012 822.383,-310.176 866.103,-325.081"/>
<polygon fill="midnightblue" stroke="midnightblue" points="865.203,-328.472 875.798,-328.386 867.462,-321.846 865.203,-328.472"/>
</g>
<!-- Node8 -->
<g id="node8" class="node"><title>Node8</title>
<g id="a_node8"><a xlink:href="../../d9/dd0/classworld_1_1_world.html#ae370733f7784c42741a6ba66c7d2ecf5" target="_top" xlink:title="world.World.listen">
<polygon fill="white" stroke="black" points="856,-178.5 856,-197.5 954,-197.5 954,-178.5 856,-178.5"/>
<text text-anchor="middle" x="905" y="-185.5" font-family="Helvetica,sans-Serif" font-size="10.00">world.World.listen</text>
</a>
</g>
</g>
<!-- Node4&#45;&gt;Node8 -->
<g id="edge7" class="edge"><title>Node4&#45;&gt;Node8</title>
<path fill="none" stroke="midnightblue" d="M712.311,-253.349C751.501,-239.988 822.383,-215.824 866.103,-200.919"/>
<polygon fill="midnightblue" stroke="midnightblue" points="867.462,-204.154 875.798,-197.614 865.203,-197.528 867.462,-204.154"/>
</g>
<!-- Node6 -->
<g id="node6" class="node"><title>Node6</title>
<g id="a_node6"><a xlink:href="../../de/d57/classturtle_1_1_pen.html#ac9a08745a9f3615b9e47c1c8e5af8f1b" target="_top" xlink:title="turtle.Pen.getColor">
<polygon fill="white" stroke="black" points="1068.5,-366.5 1068.5,-385.5 1175.5,-385.5 1175.5,-366.5 1068.5,-366.5"/>
<text text-anchor="middle" x="1122" y="-373.5" font-family="Helvetica,sans-Serif" font-size="10.00">turtle.Pen.getColor</text>
</a>
</g>
</g>
<!-- Node5&#45;&gt;Node6 -->
<g id="edge5" class="edge"><title>Node5&#45;&gt;Node6</title>
<path fill="none" stroke="midnightblue" d="M959.976,-347.54C989.945,-352.837 1027.36,-359.45 1058.59,-364.969"/>
<polygon fill="midnightblue" stroke="midnightblue" points="1058.03,-368.425 1068.49,-366.719 1059.25,-361.532 1058.03,-368.425"/>
</g>
<!-- Node7 -->
<g id="node7" class="node"><title>Node7</title>
<g id="a_node7"><a xlink:href="../../de/d57/classturtle_1_1_pen.html#a76c8dc4e66927e7d3774ea00b2266640" target="_top" xlink:title="turtle.Pen.getSize">
<polygon fill="white" stroke="black" points="1071,-328.5 1071,-347.5 1173,-347.5 1173,-328.5 1071,-328.5"/>
<text text-anchor="middle" x="1122" y="-335.5" font-family="Helvetica,sans-Serif" font-size="10.00">turtle.Pen.getSize</text>
</a>
</g>
</g>
<!-- Node5&#45;&gt;Node7 -->
<g id="edge6" class="edge"><title>Node5&#45;&gt;Node7</title>
<path fill="none" stroke="midnightblue" d="M991.591,-338C1014.74,-338 1039.3,-338 1060.73,-338"/>
<polygon fill="midnightblue" stroke="midnightblue" points="1060.98,-341.5 1070.98,-338 1060.98,-334.5 1060.98,-341.5"/>
</g>
<!-- Node9 -->
<g id="node9" class="node"><title>Node9</title>
<g id="a_node9"><a xlink:href="../../d6/d95/classparser_1_1_parser.html#a240c75608624a9c67402a296855c4d1d" target="_top" xlink:title="parser.Parser.initialize\lCommands">
<polygon fill="white" stroke="black" points="1062,-279 1062,-309 1182,-309 1182,-279 1062,-279"/>
<text text-anchor="start" x="1070" y="-297" font-family="Helvetica,sans-Serif" font-size="10.00">parser.Parser.initialize</text>
<text text-anchor="middle" x="1122" y="-286" font-family="Helvetica,sans-Serif" font-size="10.00">Commands</text>
</a>
</g>
</g>
<!-- Node8&#45;&gt;Node9 -->
<g id="edge8" class="edge"><title>Node8&#45;&gt;Node9</title>
<path fill="none" stroke="midnightblue" d="M917.697,-197.675C938.582,-214.494 984.211,-249.216 1028,-269 1035.67,-272.463 1043.91,-275.531 1052.21,-278.225"/>
<polygon fill="midnightblue" stroke="midnightblue" points="1051.36,-281.625 1061.95,-281.217 1053.42,-274.934 1051.36,-281.625"/>
</g>
<!-- Node13 -->
<g id="node13" class="node"><title>Node13</title>
<g id="a_node13"><a xlink:href="../../d6/d95/classparser_1_1_parser.html#a4ecbffc246c3add017c4720eed4c6da9" target="_top" xlink:title="parser.Parser.parse">
<polygon fill="white" stroke="black" points="1067.5,-240.5 1067.5,-259.5 1176.5,-259.5 1176.5,-240.5 1067.5,-240.5"/>
<text text-anchor="middle" x="1122" y="-247.5" font-family="Helvetica,sans-Serif" font-size="10.00">parser.Parser.parse</text>
</a>
</g>
</g>
<!-- Node8&#45;&gt;Node13 -->
<g id="edge12" class="edge"><title>Node8&#45;&gt;Node13</title>
<path fill="none" stroke="midnightblue" d="M939.123,-197.552C976.448,-208.315 1037.24,-225.845 1078.15,-237.643"/>
<polygon fill="midnightblue" stroke="midnightblue" points="1077.26,-241.03 1087.84,-240.438 1079.2,-234.304 1077.26,-241.03"/>
</g>
<!-- Node26 -->
<g id="node26" class="node"><title>Node26</title>
<g id="a_node26"><a xlink:href="../../d7/d35/classcommand_1_1_command.html#a957099a70dd30b5dc897e0caf07d2d99" target="_top" xlink:title="command.Command.getCommand\lValues">
<polygon fill="white" stroke="black" points="1028,-173 1028,-203 1216,-203 1216,-173 1028,-173"/>
<text text-anchor="start" x="1036" y="-191" font-family="Helvetica,sans-Serif" font-size="10.00">command.Command.getCommand</text>
<text text-anchor="middle" x="1122" y="-180" font-family="Helvetica,sans-Serif" font-size="10.00">Values</text>
</a>
</g>
</g>
<!-- Node8&#45;&gt;Node26 -->
<g id="edge36" class="edge"><title>Node8&#45;&gt;Node26</title>
<path fill="none" stroke="midnightblue" d="M954.25,-188C973.146,-188 995.594,-188 1017.8,-188"/>
<polygon fill="midnightblue" stroke="midnightblue" points="1017.97,-191.5 1027.97,-188 1017.97,-184.5 1017.97,-191.5"/>
</g>
<!-- Node28 -->
<g id="node28" class="node"><title>Node28</title>
<g id="a_node28"><a xlink:href="../../d6/d95/classparser_1_1_parser.html#a8679d61f4ae6c55910ef113bcdda2c75" target="_top" xlink:title="parser.Parser.updateVariable">
<polygon fill="white" stroke="black" points="1045,-134.5 1045,-153.5 1199,-153.5 1199,-134.5 1045,-134.5"/>
<text text-anchor="middle" x="1122" y="-141.5" font-family="Helvetica,sans-Serif" font-size="10.00">parser.Parser.updateVariable</text>
</a>
</g>
</g>
<!-- Node8&#45;&gt;Node28 -->
<g id="edge38" class="edge"><title>Node8&#45;&gt;Node28</title>
<path fill="none" stroke="midnightblue" d="M952.344,-178.496C975.132,-173.825 1003.01,-168.114 1028,-163 1039.73,-160.6 1052.29,-158.032 1064.27,-155.584"/>
<polygon fill="midnightblue" stroke="midnightblue" points="1065.07,-158.994 1074.16,-153.563 1063.67,-152.136 1065.07,-158.994"/>
</g>
<!-- Node30 -->
<g id="node30" class="node"><title>Node30</title>
<g id="a_node30"><a xlink:href="../../d9/dd0/classworld_1_1_world.html#adcbcb8328c7e832fcb710a91457e6772" target="_top" xlink:title="world.World.runCommand">
<polygon fill="white" stroke="black" points="1052.5,-96.5 1052.5,-115.5 1191.5,-115.5 1191.5,-96.5 1052.5,-96.5"/>
<text text-anchor="middle" x="1122" y="-103.5" font-family="Helvetica,sans-Serif" font-size="10.00">world.World.runCommand</text>
</a>
</g>
</g>
<!-- Node8&#45;&gt;Node30 -->
<g id="edge40" class="edge"><title>Node8&#45;&gt;Node30</title>
<path fill="none" stroke="midnightblue" d="M921.174,-178.413C943.659,-164.621 987.535,-139.273 1028,-125 1035.62,-122.311 1043.74,-119.955 1051.88,-117.903"/>
<polygon fill="midnightblue" stroke="midnightblue" points="1052.87,-121.265 1061.79,-115.549 1051.25,-114.455 1052.87,-121.265"/>
</g>
<!-- Node31 -->
<g id="node31" class="node"><title>Node31</title>
<g id="a_node31"><a xlink:href="../../d6/d95/classparser_1_1_parser.html#acebafe1593fc1f09ac31c7104438e4b1" target="_top" xlink:title="parser.Parser.resetRepcount">
<polygon fill="white" stroke="black" points="1046.5,-23.5 1046.5,-42.5 1197.5,-42.5 1197.5,-23.5 1046.5,-23.5"/>
<text text-anchor="middle" x="1122" y="-30.5" font-family="Helvetica,sans-Serif" font-size="10.00">parser.Parser.resetRepcount</text>
</a>
</g>
</g>
<!-- Node8&#45;&gt;Node31 -->
<g id="edge41" class="edge"><title>Node8&#45;&gt;Node31</title>
<path fill="none" stroke="midnightblue" d="M916.301,-178.465C936.741,-159.779 984.24,-117.506 1028,-87 1049.09,-72.2945 1074.41,-57.7819 1093.3,-47.5112"/>
<polygon fill="midnightblue" stroke="midnightblue" points="1095.12,-50.5059 1102.27,-42.6882 1091.81,-44.3402 1095.12,-50.5059"/>
</g>
<!-- Node10 -->
<g id="node10" class="node"><title>Node10</title>
<g id="a_node10"><a xlink:href="../../d6/d95/classparser_1_1_parser.html#a4f582c65390bddc57219c0b5c31ef5e7" target="_top" xlink:title="parser.Parser.makeTree">
<polygon fill="white" stroke="black" points="1282,-409.5 1282,-428.5 1410,-428.5 1410,-409.5 1282,-409.5"/>
<text text-anchor="middle" x="1346" y="-416.5" font-family="Helvetica,sans-Serif" font-size="10.00">parser.Parser.makeTree</text>
</a>
</g>
</g>
<!-- Node9&#45;&gt;Node10 -->
<g id="edge9" class="edge"><title>Node9&#45;&gt;Node10</title>
<path fill="none" stroke="midnightblue" d="M1182.44,-301.597C1194.54,-305.329 1206.47,-310.849 1216,-319 1245.94,-344.607 1221.29,-375.319 1252,-400 1257.92,-404.756 1264.71,-408.415 1271.89,-411.219"/>
<polygon fill="midnightblue" stroke="midnightblue" points="1271.25,-414.697 1281.85,-414.534 1273.46,-408.055 1271.25,-414.697"/>
</g>
<!-- Node11 -->
<g id="node11" class="node"><title>Node11</title>
<g id="a_node11"><a xlink:href="../../d9/d1b/classcommand_1_1_command_factory.html#a87bf7e648425bb22124367cabedb3327" target="_top" xlink:title="command.CommandFactory.get\lNumParameters">
<polygon fill="white" stroke="black" points="1495,-399 1495,-429 1665,-429 1665,-399 1495,-399"/>
<text text-anchor="start" x="1503" y="-417" font-family="Helvetica,sans-Serif" font-size="10.00">command.CommandFactory.get</text>
<text text-anchor="middle" x="1580" y="-406" font-family="Helvetica,sans-Serif" font-size="10.00">NumParameters</text>
</a>
</g>
</g>
<!-- Node10&#45;&gt;Node11 -->
<g id="edge10" class="edge"><title>Node10&#45;&gt;Node11</title>
<path fill="none" stroke="midnightblue" d="M1410.09,-417.64C1432.97,-417.147 1459.34,-416.579 1484.34,-416.04"/>
<polygon fill="midnightblue" stroke="midnightblue" points="1484.67,-419.534 1494.59,-415.819 1484.51,-412.536 1484.67,-419.534"/>
</g>
<!-- Node12 -->
<g id="node12" class="node"><title>Node12</title>
<g id="a_node12"><a xlink:href="../../d9/d1b/classcommand_1_1_command_factory.html#a947fdc151e857ea74564d0d1fe268246" target="_top" xlink:title="command.CommandFactory.translate\lCommand">
<polygon fill="white" stroke="black" points="1720.5,-242 1720.5,-272 1917.5,-272 1917.5,-242 1720.5,-242"/>
<text text-anchor="start" x="1728.5" y="-260" font-family="Helvetica,sans-Serif" font-size="10.00">command.CommandFactory.translate</text>
<text text-anchor="middle" x="1819" y="-249" font-family="Helvetica,sans-Serif" font-size="10.00">Command</text>
</a>
</g>
</g>
<!-- Node11&#45;&gt;Node12 -->
<g id="edge11" class="edge"><title>Node11&#45;&gt;Node12</title>
<path fill="none" stroke="midnightblue" d="M1654.3,-398.992C1664.61,-395.489 1674.81,-391.211 1684,-386 1732.57,-358.451 1776.67,-309.257 1800.17,-280.232"/>
<polygon fill="midnightblue" stroke="midnightblue" points="1803.02,-282.269 1806.51,-272.266 1797.55,-277.909 1803.02,-282.269"/>
</g>
<!-- Node13&#45;&gt;Node10 -->
<g id="edge35" class="edge"><title>Node13&#45;&gt;Node10</title>
<path fill="none" stroke="midnightblue" d="M1176.9,-251.008C1191.11,-253.752 1205.41,-259.093 1216,-269 1260.09,-310.249 1207.91,-358.751 1252,-400 1257.84,-405.462 1264.8,-409.536 1272.26,-412.552"/>
<polygon fill="midnightblue" stroke="midnightblue" points="1271.32,-415.93 1281.92,-415.831 1273.58,-409.302 1271.32,-415.93"/>
</g>
<!-- Node14 -->
<g id="node14" class="node"><title>Node14</title>
<g id="a_node14"><a xlink:href="../../d9/d1b/classcommand_1_1_command_factory.html#ab25bb047b051661d31adf73b2dae5649" target="_top" xlink:title="command.CommandFactory.create\lCommand">
<polygon fill="white" stroke="black" points="1253.5,-137 1253.5,-167 1438.5,-167 1438.5,-137 1253.5,-137"/>
<text text-anchor="start" x="1261.5" y="-155" font-family="Helvetica,sans-Serif" font-size="10.00">command.CommandFactory.create</text>
<text text-anchor="middle" x="1346" y="-144" font-family="Helvetica,sans-Serif" font-size="10.00">Command</text>
</a>
</g>
</g>
<!-- Node13&#45;&gt;Node14 -->
<g id="edge13" class="edge"><title>Node13&#45;&gt;Node14</title>
<path fill="none" stroke="midnightblue" d="M1155.12,-240.419C1173.79,-234.007 1197.26,-224.455 1216,-212 1234.84,-199.474 1232.35,-187.223 1252,-176 1255.06,-174.252 1258.25,-172.628 1261.53,-171.121"/>
<polygon fill="midnightblue" stroke="midnightblue" points="1263.08,-174.265 1270.95,-167.175 1260.38,-167.808 1263.08,-174.265"/>
</g>
<!-- Node16 -->
<g id="node16" class="node"><title>Node16</title>
<g id="a_node16"><a xlink:href="../../d6/d95/classparser_1_1_parser.html#aac1cff62f68138c7e977a67d39671701" target="_top" xlink:title="parser.Parser.generateCommand\lInput">
<polygon fill="white" stroke="black" points="1258,-284 1258,-314 1434,-314 1434,-284 1258,-284"/>
<text text-anchor="start" x="1266" y="-302" font-family="Helvetica,sans-Serif" font-size="10.00">parser.Parser.generateCommand</text>
<text text-anchor="middle" x="1346" y="-291" font-family="Helvetica,sans-Serif" font-size="10.00">Input</text>
</a>
</g>
</g>
<!-- Node13&#45;&gt;Node16 -->
<g id="edge16" class="edge"><title>Node13&#45;&gt;Node16</title>
<path fill="none" stroke="midnightblue" d="M1170.84,-259.517C1185.36,-262.475 1201.35,-265.8 1216,-269 1234.1,-272.953 1253.59,-277.39 1271.79,-281.614"/>
<polygon fill="midnightblue" stroke="midnightblue" points="1271.23,-285.076 1281.76,-283.935 1272.81,-278.258 1271.23,-285.076"/>
</g>
<!-- Node19 -->
<g id="node19" class="node"><title>Node19</title>
<g id="a_node19"><a xlink:href="../../d3/dcc/classparser_1_1_node.html#a9c12e8d4375a7517eae0a35724b253c4" target="_top" xlink:title="parser.Node.getValue">
<polygon fill="white" stroke="black" points="1520,-357.5 1520,-376.5 1640,-376.5 1640,-357.5 1520,-357.5"/>
<text text-anchor="middle" x="1580" y="-364.5" font-family="Helvetica,sans-Serif" font-size="10.00">parser.Node.getValue</text>
</a>
</g>
</g>
<!-- Node13&#45;&gt;Node19 -->
<g id="edge32" class="edge"><title>Node13&#45;&gt;Node19</title>
<path fill="none" stroke="midnightblue" d="M1176.98,-253.742C1190.55,-256.572 1204.51,-261.274 1216,-269 1239.93,-285.1 1227.54,-307.72 1252,-323 1293.74,-349.07 1426.77,-359.966 1509.74,-364.313"/>
<polygon fill="midnightblue" stroke="midnightblue" points="1509.68,-367.815 1519.85,-364.823 1510.04,-360.824 1509.68,-367.815"/>
</g>
<!-- Node21 -->
<g id="node21" class="node"><title>Node21</title>
<g id="a_node21"><a xlink:href="../../d6/d95/classparser_1_1_parser.html#a3efcd1192e76101919526b4a5e0046f4" target="_top" xlink:title="parser.Parser.getNodeBefore\lToReplace">
<polygon fill="white" stroke="black" points="1268.5,-235 1268.5,-265 1423.5,-265 1423.5,-235 1268.5,-235"/>
<text text-anchor="start" x="1276.5" y="-253" font-family="Helvetica,sans-Serif" font-size="10.00">parser.Parser.getNodeBefore</text>
<text text-anchor="middle" x="1346" y="-242" font-family="Helvetica,sans-Serif" font-size="10.00">ToReplace</text>
</a>
</g>
</g>
<!-- Node13&#45;&gt;Node21 -->
<g id="edge21" class="edge"><title>Node13&#45;&gt;Node21</title>
<path fill="none" stroke="midnightblue" d="M1176.74,-250C1201.2,-250 1230.76,-250 1258.24,-250"/>
<polygon fill="midnightblue" stroke="midnightblue" points="1258.26,-253.5 1268.26,-250 1258.26,-246.5 1258.26,-253.5"/>
</g>
<!-- Node24 -->
<g id="node24" class="node"><title>Node24</title>
<g id="a_node24"><a xlink:href="../../d6/d95/classparser_1_1_parser.html#a447c473b62ba23b7c144df9bb38a9a41" target="_top" xlink:title="parser.Parser.getNodeFor\lCommand">
<polygon fill="white" stroke="black" points="1277,-186 1277,-216 1415,-216 1415,-186 1277,-186"/>
<text text-anchor="start" x="1285" y="-204" font-family="Helvetica,sans-Serif" font-size="10.00">parser.Parser.getNodeFor</text>
<text text-anchor="middle" x="1346" y="-193" font-family="Helvetica,sans-Serif" font-size="10.00">Command</text>
</a>
</g>
</g>
<!-- Node13&#45;&gt;Node24 -->
<g id="edge27" class="edge"><title>Node13&#45;&gt;Node24</title>
<path fill="none" stroke="midnightblue" d="M1166.07,-240.494C1194.64,-234.187 1232.98,-225.725 1266.84,-218.252"/>
<polygon fill="midnightblue" stroke="midnightblue" points="1267.71,-221.644 1276.72,-216.071 1266.2,-214.809 1267.71,-221.644"/>
</g>
<!-- Node25 -->
<g id="node25" class="node"><title>Node25</title>
<g id="a_node25"><a xlink:href="../../d3/dcc/classparser_1_1_node.html#a066da2b478008f39a02440d7afceb9ee" target="_top" xlink:title="parser.Node.insertChild">
<polygon fill="white" stroke="black" points="1282,-371.5 1282,-390.5 1410,-390.5 1410,-371.5 1282,-371.5"/>
<text text-anchor="middle" x="1346" y="-378.5" font-family="Helvetica,sans-Serif" font-size="10.00">parser.Node.insertChild</text>
</a>
</g>
</g>
<!-- Node13&#45;&gt;Node25 -->
<g id="edge33" class="edge"><title>Node13&#45;&gt;Node25</title>
<path fill="none" stroke="midnightblue" d="M1176.65,-251.948C1190.68,-254.727 1204.96,-259.852 1216,-269 1248.54,-295.964 1220.16,-329.215 1252,-357 1257.92,-362.165 1264.81,-366.242 1272.11,-369.456"/>
<polygon fill="midnightblue" stroke="midnightblue" points="1270.95,-372.76 1281.54,-373.083 1273.46,-366.226 1270.95,-372.76"/>
</g>
<!-- Node14&#45;&gt;Node12 -->
<g id="edge15" class="edge"><title>Node14&#45;&gt;Node12</title>
<path fill="none" stroke="midnightblue" d="M1401.85,-136.989C1430.09,-129.543 1461.57,-121.763 1476,-120 1567.76,-108.789 1598.79,-84.1509 1684,-120 1738.66,-142.997 1782.17,-200.384 1803.55,-233.125"/>
<polygon fill="midnightblue" stroke="midnightblue" points="1800.66,-235.104 1808.99,-241.657 1806.57,-231.342 1800.66,-235.104"/>
</g>
<!-- Node15 -->
<g id="node15" class="node"><title>Node15</title>
<g id="a_node15"><a xlink:href="../../d9/d1b/classcommand_1_1_command_factory.html#abd97ea3e22afc09e07ed1d4fd039d11f" target="_top" xlink:title="command.CommandFactory.reflectCMD">
<polygon fill="white" stroke="black" points="1476.5,-129.5 1476.5,-148.5 1683.5,-148.5 1683.5,-129.5 1476.5,-129.5"/>
<text text-anchor="middle" x="1580" y="-136.5" font-family="Helvetica,sans-Serif" font-size="10.00">command.CommandFactory.reflectCMD</text>
</a>
</g>
</g>
<!-- Node14&#45;&gt;Node15 -->
<g id="edge14" class="edge"><title>Node14&#45;&gt;Node15</title>
<path fill="none" stroke="midnightblue" d="M1438.69,-146.862C1447.81,-146.351 1457.13,-145.829 1466.43,-145.308"/>
<polygon fill="midnightblue" stroke="midnightblue" points="1466.7,-148.798 1476.49,-144.744 1466.31,-141.809 1466.7,-148.798"/>
</g>
<!-- Node17 -->
<g id="node17" class="node"><title>Node17</title>
<g id="a_node17"><a xlink:href="../../d3/dcc/classparser_1_1_node.html#aa67bc0d39227232943abec9b95b23235" target="_top" xlink:title="parser.Node.getChild1">
<polygon fill="white" stroke="black" points="1518.5,-281.5 1518.5,-300.5 1641.5,-300.5 1641.5,-281.5 1518.5,-281.5"/>
<text text-anchor="middle" x="1580" y="-288.5" font-family="Helvetica,sans-Serif" font-size="10.00">parser.Node.getChild1</text>
</a>
</g>
</g>
<!-- Node16&#45;&gt;Node17 -->
<g id="edge17" class="edge"><title>Node16&#45;&gt;Node17</title>
<path fill="none" stroke="midnightblue" d="M1434.05,-295.998C1458.46,-295.156 1484.71,-294.251 1508.07,-293.446"/>
<polygon fill="midnightblue" stroke="midnightblue" points="1508.36,-296.938 1518.23,-293.095 1508.12,-289.942 1508.36,-296.938"/>
</g>
<!-- Node18 -->
<g id="node18" class="node"><title>Node18</title>
<g id="a_node18"><a xlink:href="../../d3/dcc/classparser_1_1_node.html#a0f13775acc62af77cdde90dbeaf26bbc" target="_top" xlink:title="parser.Node.getChild2">
<polygon fill="white" stroke="black" points="1518.5,-243.5 1518.5,-262.5 1641.5,-262.5 1641.5,-243.5 1518.5,-243.5"/>
<text text-anchor="middle" x="1580" y="-250.5" font-family="Helvetica,sans-Serif" font-size="10.00">parser.Node.getChild2</text>
</a>
</g>
</g>
<!-- Node16&#45;&gt;Node18 -->
<g id="edge18" class="edge"><title>Node16&#45;&gt;Node18</title>
<path fill="none" stroke="midnightblue" d="M1417.24,-283.981C1436.29,-279.995 1456.92,-275.757 1476,-272 1488.94,-269.453 1502.81,-266.825 1516.05,-264.365"/>
<polygon fill="midnightblue" stroke="midnightblue" points="1516.83,-267.781 1526.03,-262.521 1515.56,-260.897 1516.83,-267.781"/>
</g>
<!-- Node16&#45;&gt;Node19 -->
<g id="edge19" class="edge"><title>Node16&#45;&gt;Node19</title>
<path fill="none" stroke="midnightblue" d="M1399.23,-314.093C1412.69,-318.456 1427.02,-323.532 1440,-329 1456.67,-336.026 1458.91,-342.069 1476,-348 1486.76,-351.735 1498.43,-354.779 1509.9,-357.248"/>
<polygon fill="midnightblue" stroke="midnightblue" points="1509.42,-360.721 1519.92,-359.272 1510.81,-353.86 1509.42,-360.721"/>
</g>
<!-- Node20 -->
<g id="node20" class="node"><title>Node20</title>
<g id="a_node20"><a xlink:href="../../d3/dcc/classparser_1_1_node.html#a6bbc0c61aaa261077eb87cfc4e2b45dc" target="_top" xlink:title="parser.Node.numChildren">
<polygon fill="white" stroke="black" points="1510.5,-319.5 1510.5,-338.5 1649.5,-338.5 1649.5,-319.5 1510.5,-319.5"/>
<text text-anchor="middle" x="1580" y="-326.5" font-family="Helvetica,sans-Serif" font-size="10.00">parser.Node.numChildren</text>
</a>
</g>
</g>
<!-- Node16&#45;&gt;Node20 -->
<g id="edge20" class="edge"><title>Node16&#45;&gt;Node20</title>
<path fill="none" stroke="midnightblue" d="M1434.05,-310.256C1455.8,-313.069 1479.01,-316.07 1500.33,-318.828"/>
<polygon fill="midnightblue" stroke="midnightblue" points="1499.94,-322.306 1510.31,-320.118 1500.84,-315.364 1499.94,-322.306"/>
</g>
<!-- Node21&#45;&gt;Node17 -->
<g id="edge22" class="edge"><title>Node21&#45;&gt;Node17</title>
<path fill="none" stroke="midnightblue" d="M1423.61,-263.539C1453.23,-268.774 1486.74,-274.696 1515.04,-279.697"/>
<polygon fill="midnightblue" stroke="midnightblue" points="1514.76,-283.201 1525.21,-281.495 1515.98,-276.308 1514.76,-283.201"/>
</g>
<!-- Node21&#45;&gt;Node18 -->
<g id="edge23" class="edge"><title>Node21&#45;&gt;Node18</title>
<path fill="none" stroke="midnightblue" d="M1423.61,-250.991C1450.88,-251.343 1481.44,-251.738 1508.2,-252.085"/>
<polygon fill="midnightblue" stroke="midnightblue" points="1508.21,-255.585 1518.26,-252.215 1508.3,-248.585 1508.21,-255.585"/>
</g>
<!-- Node21&#45;&gt;Node19 -->
<g id="edge24" class="edge"><title>Node21&#45;&gt;Node19</title>
<path fill="none" stroke="midnightblue" d="M1423.79,-263.846C1429.6,-266.641 1435.09,-269.99 1440,-274 1468.32,-297.148 1446.89,-325.859 1476,-348 1485.88,-355.513 1497.81,-360.371 1510,-363.454"/>
<polygon fill="midnightblue" stroke="midnightblue" points="1509.28,-366.88 1519.8,-365.564 1510.76,-360.037 1509.28,-366.88"/>
</g>
<!-- Node22 -->
<g id="node22" class="node"><title>Node22</title>
<g id="a_node22"><a xlink:href="../../d3/dcc/classparser_1_1_node.html#ab14db24c0724dec4387e29d513008e2e" target="_top" xlink:title="parser.Node.hasChildren">
<polygon fill="white" stroke="black" points="1513,-205.5 1513,-224.5 1647,-224.5 1647,-205.5 1513,-205.5"/>
<text text-anchor="middle" x="1580" y="-212.5" font-family="Helvetica,sans-Serif" font-size="10.00">parser.Node.hasChildren</text>
</a>
</g>
</g>
<!-- Node21&#45;&gt;Node22 -->
<g id="edge25" class="edge"><title>Node21&#45;&gt;Node22</title>
<path fill="none" stroke="midnightblue" d="M1423.61,-238.443C1450.06,-234.452 1479.61,-229.994 1505.78,-226.046"/>
<polygon fill="midnightblue" stroke="midnightblue" points="1506.64,-229.456 1516.01,-224.503 1505.6,-222.534 1506.64,-229.456"/>
</g>
<!-- Node23 -->
<g id="node23" class="node"><title>Node23</title>
<g id="a_node23"><a xlink:href="../../d3/dcc/classparser_1_1_node.html#aa92667a825777b3d757bc3b1a247ac20" target="_top" xlink:title="parser.Node.isLeaf">
<polygon fill="white" stroke="black" points="1527,-167.5 1527,-186.5 1633,-186.5 1633,-167.5 1527,-167.5"/>
<text text-anchor="middle" x="1580" y="-174.5" font-family="Helvetica,sans-Serif" font-size="10.00">parser.Node.isLeaf</text>
</a>
</g>
</g>
<!-- Node21&#45;&gt;Node23 -->
<g id="edge26" class="edge"><title>Node21&#45;&gt;Node23</title>
<path fill="none" stroke="midnightblue" d="M1416.27,-234.848C1424.46,-232.051 1432.55,-228.789 1440,-225 1458.31,-215.688 1457.33,-204.57 1476,-196 1488.7,-190.171 1503.06,-186.13 1516.93,-183.328"/>
<polygon fill="midnightblue" stroke="midnightblue" points="1517.71,-186.743 1526.92,-181.499 1516.45,-179.858 1517.71,-186.743"/>
</g>
<!-- Node24&#45;&gt;Node17 -->
<g id="edge28" class="edge"><title>Node24&#45;&gt;Node17</title>
<path fill="none" stroke="midnightblue" d="M1415.31,-212.961C1424.01,-216.087 1432.49,-220.029 1440,-225 1461.94,-239.527 1453.57,-258.252 1476,-272 1485.77,-277.989 1496.98,-282.181 1508.32,-285.097"/>
<polygon fill="midnightblue" stroke="midnightblue" points="1507.76,-288.559 1518.28,-287.344 1509.3,-281.73 1507.76,-288.559"/>
</g>
<!-- Node24&#45;&gt;Node18 -->
<g id="edge29" class="edge"><title>Node24&#45;&gt;Node18</title>
<path fill="none" stroke="midnightblue" d="M1405.49,-216.056C1437.83,-224.366 1472.26,-233.178 1476,-234 1488.12,-236.665 1501.1,-239.26 1513.62,-241.632"/>
<polygon fill="midnightblue" stroke="midnightblue" points="1513.06,-245.088 1523.54,-243.484 1514.35,-238.207 1513.06,-245.088"/>
</g>
<!-- Node24&#45;&gt;Node22 -->
<g id="edge30" class="edge"><title>Node24&#45;&gt;Node22</title>
<path fill="none" stroke="midnightblue" d="M1415.04,-205.106C1442.55,-206.766 1474.42,-208.689 1502.71,-210.396"/>
<polygon fill="midnightblue" stroke="midnightblue" points="1502.77,-213.906 1512.96,-211.015 1503.19,-206.919 1502.77,-213.906"/>
</g>
<!-- Node24&#45;&gt;Node23 -->
<g id="edge31" class="edge"><title>Node24&#45;&gt;Node23</title>
<path fill="none" stroke="midnightblue" d="M1415.04,-193.961C1447.25,-190.629 1485.45,-186.677 1516.88,-183.427"/>
<polygon fill="midnightblue" stroke="midnightblue" points="1517.24,-186.908 1526.82,-182.398 1516.52,-179.945 1517.24,-186.908"/>
</g>
<!-- Node25&#45;&gt;Node19 -->
<g id="edge34" class="edge"><title>Node25&#45;&gt;Node19</title>
<path fill="none" stroke="midnightblue" d="M1410.09,-377.193C1440.96,-375.33 1478.2,-373.083 1509.85,-371.173"/>
<polygon fill="midnightblue" stroke="midnightblue" points="1510.14,-374.662 1519.91,-370.566 1509.72,-367.674 1510.14,-374.662"/>
</g>
<!-- Node27 -->
<g id="node27" class="node"><title>Node27</title>
<g id="a_node27"><a xlink:href="../../d7/d35/classcommand_1_1_command.html#a7e1387db1d0d35d4dcd3a3ebe2ff902a" target="_top" xlink:title="command.Command.makeString">
<polygon fill="white" stroke="black" points="1257.5,-98.5 1257.5,-117.5 1434.5,-117.5 1434.5,-98.5 1257.5,-98.5"/>
<text text-anchor="middle" x="1346" y="-105.5" font-family="Helvetica,sans-Serif" font-size="10.00">command.Command.makeString</text>
</a>
</g>
</g>
<!-- Node26&#45;&gt;Node27 -->
<g id="edge37" class="edge"><title>Node26&#45;&gt;Node27</title>
<path fill="none" stroke="midnightblue" d="M1194.63,-172.9C1202.07,-170.12 1209.34,-166.848 1216,-163 1235.59,-151.678 1232.07,-137.718 1252,-127 1256.31,-124.683 1260.87,-122.647 1265.56,-120.86"/>
<polygon fill="midnightblue" stroke="midnightblue" points="1267.02,-124.063 1275.35,-117.527 1264.76,-117.436 1267.02,-124.063"/>
</g>
<!-- Node29 -->
<g id="node29" class="node"><title>Node29</title>
<g id="a_node29"><a xlink:href="../../d9/d1b/classcommand_1_1_command_factory.html#a8347db76764ea8308d029789b49519dd" target="_top" xlink:title="command.CommandFactory.update\lVariable">
<polygon fill="white" stroke="black" points="1252,-49 1252,-79 1440,-79 1440,-49 1252,-49"/>
<text text-anchor="start" x="1260" y="-67" font-family="Helvetica,sans-Serif" font-size="10.00">command.CommandFactory.update</text>
<text text-anchor="middle" x="1346" y="-56" font-family="Helvetica,sans-Serif" font-size="10.00">Variable</text>
</a>
</g>
</g>
<!-- Node28&#45;&gt;Node29 -->
<g id="edge39" class="edge"><title>Node28&#45;&gt;Node29</title>
<path fill="none" stroke="midnightblue" d="M1192.65,-134.473C1200.77,-132.006 1208.74,-128.903 1216,-125 1235.93,-114.282 1232.41,-100.322 1252,-89 1255.85,-86.7753 1259.9,-84.7431 1264.08,-82.8873"/>
<polygon fill="midnightblue" stroke="midnightblue" points="1265.43,-86.1147 1273.37,-79.1003 1262.79,-79.6321 1265.43,-86.1147"/>
</g>
<!-- Node32 -->
<g id="node32" class="node"><title>Node32</title>
<g id="a_node32"><a xlink:href="../../d9/d1b/classcommand_1_1_command_factory.html#a0d59e4f0f925b5046957c0e054ce8bef" target="_top" xlink:title="command.CommandFactory.reset\lRepcount">
<polygon fill="white" stroke="black" points="1256.5,-0 1256.5,-30 1435.5,-30 1435.5,-0 1256.5,-0"/>
<text text-anchor="start" x="1264.5" y="-18" font-family="Helvetica,sans-Serif" font-size="10.00">command.CommandFactory.reset</text>
<text text-anchor="middle" x="1346" y="-7" font-family="Helvetica,sans-Serif" font-size="10.00">Repcount</text>
</a>
</g>
</g>
<!-- Node31&#45;&gt;Node32 -->
<g id="edge42" class="edge"><title>Node31&#45;&gt;Node32</title>
<path fill="none" stroke="midnightblue" d="M1197.54,-26.9562C1213.19,-25.6875 1229.92,-24.3307 1246.29,-23.0031"/>
<polygon fill="midnightblue" stroke="midnightblue" points="1246.75,-26.4782 1256.43,-22.1814 1246.18,-19.5011 1246.75,-26.4782"/>
</g>
</g>
</svg>
        <g id="navigator" transform="translate(0 0)" fill="#404254">
                <rect fill="#f2f5e9" fill-opacity="0.5" stroke="#606060" stroke-width=".5" x="0" y="0" width="60" height="60"/>
                <use id="zoomplus" xlink:href="#zoomPlus" x="17" y="9" onmousedown="handleZoom(evt,'in')"/>
                <use id="zoomminus" xlink:href="#zoomMin" x="42" y="9" onmousedown="handleZoom(evt,'out')"/>
                <use id="reset" xlink:href="#resetDef" x="30" y="36" onmousedown="handleReset()"/>
                <g id="arrowUp" xlink:href="#dirArrow" transform="translate(30 24)" onmousedown="handlePan(0,-1)">
                  <use xlink:href="#rim" fill="#404040">
                        <set attributeName="fill" to="#808080" begin="arrowUp.mouseover" end="arrowUp.mouseout"/>
                  </use>
                  <path fill="none" stroke="white" stroke-width="1.5" d="M0,-3.0v7 M-2.5,-0.5L0,-3.0L2.5,-0.5"/>
                </g>
                <g id="arrowRight" xlink:href="#dirArrow" transform="rotate(90) translate(36 -43)" onmousedown="handlePan(1,0)">
                  <use xlink:href="#rim" fill="#404040">
                        <set attributeName="fill" to="#808080" begin="arrowRight.mouseover" end="arrowRight.mouseout"/>
                  </use>
                  <path fill="none" stroke="white" stroke-width="1.5" d="M0,-3.0v7 M-2.5,-0.5L0,-3.0L2.5,-0.5"/>
                </g>
                <g id="arrowDown" xlink:href="#dirArrow" transform="rotate(180) translate(-30 -48)" onmousedown="handlePan(0,1)">
                  <use xlink:href="#rim" fill="#404040">
                        <set attributeName="fill" to="#808080" begin="arrowDown.mouseover" end="arrowDown.mouseout"/>
                  </use>
                  <path fill="none" stroke="white" stroke-width="1.5" d="M0,-3.0v7 M-2.5,-0.5L0,-3.0L2.5,-0.5"/>
                </g>
                <g id="arrowLeft" xlink:href="#dirArrow" transform="rotate(270) translate(-36 17)" onmousedown="handlePan(-1,0)">
                  <use xlink:href="#rim" fill="#404040">
                        <set attributeName="fill" to="#808080" begin="arrowLeft.mouseover" end="arrowLeft.mouseout"/>
                  </use>
                  <path fill="none" stroke="white" stroke-width="1.5" d="M0,-3.0v7 M-2.5,-0.5L0,-3.0L2.5,-0.5"/>
                </g>
        </g>
        <svg viewBox="0 0 15 15" width="100%" height="30px" preserveAspectRatio="xMaxYMin meet">
         <g id="arrow_out" transform="scale(0.3 0.3)">
          <a xlink:href="classuser_interface_1_1_u_i_a9f7eaa121e1405b45e262f03859f9ff0_cgraph_org.svg" target="_base">
           <rect id="button" ry="5" rx="5" y="6" x="6" height="38" width="38"
                fill="#f2f5e9" fill-opacity="0.5" stroke="#606060" stroke-width="1.0"/>
           <path id="arrow"
             d="M 11.500037,31.436501 C 11.940474,20.09759 22.043105,11.32322 32.158766,21.979434 L 37.068811,17.246167 C 37.068811,17.246167 37.088388,32 37.088388,32 L 22.160133,31.978069 C 22.160133,31.978069 26.997745,27.140456 26.997745,27.140456 C 18.528582,18.264221 13.291696,25.230495 11.500037,31.436501 z"
             style="fill:#404040;"/>
          </a>
         </g>
        </svg>
</svg>
