<?xml version="1.0" encoding="UTF-8" standalone="no"?>
<!DOCTYPE svg PUBLIC "-//W3C//DTD SVG 1.1//EN"
 "http://www.w3.org/Graphics/SVG/1.1/DTD/svg11.dtd">
<!-- Generated by graphviz version 2.36.0 (20140111.2315)
 -->
<!-- Title: userInterface.UI.setUpCommandField Pages: 1 -->
<!--zoomable 431 -->
<svg id="main" version="1.1" xmlns="http://www.w3.org/2000/svg" xmlns:xlink="http://www.w3.org/1999/xlink" xml:space="preserve" onload="init(evt)">
<style type="text/css"><![CDATA[
.edge:hover path { stroke: red; }
.edge:hover polygon { stroke: red; fill: red; }
]]></style>
<script type="text/javascript"><![CDATA[
var edges = document.getElementsByTagName('g');
if (edges && edges.length) {
  for (var i=0;i<edges.length;i++) {
    if (edges[i].id.substr(0,4)=='edge') {
      edges[i].setAttribute('class','edge');
    }
  }
}
]]></script>
        <defs>
                <circle id="rim" cx="0" cy="0" r="7"/>
                <circle id="rim2" cx="0" cy="0" r="3.5"/>
                <g id="zoomPlus">
                        <use xlink:href="#rim" fill="#404040">
                                <set attributeName="fill" to="#808080" begin="zoomplus.mouseover" end="zoomplus.mouseout"/>
                        </use>
                        <path d="M-4,0h8M0,-4v8" fill="none" stroke="white" stroke-width="1.5" pointer-events="none"/>
                </g>
                <g id="zoomMin">
                        <use xlink:href="#rim" fill="#404040">
                                <set attributeName="fill" to="#808080" begin="zoomminus.mouseover" end="zoomminus.mouseout"/>
                        </use>
                        <path d="M-4,0h8" fill="none" stroke="white" stroke-width="1.5" pointer-events="none"/>
                </g>
                <g id="dirArrow">
                        <path fill="none" stroke="white" stroke-width="1.5" d="M0,-3.0v7 M-2.5,-0.5L0,-3.0L2.5,-0.5"/>
                </g>
               <g id="resetDef">
                       <use xlink:href="#rim2" fill="#404040">
                               <set attributeName="fill" to="#808080" begin="reset.mouseover" end="reset.mouseout"/>
                       </use>
               </g>
        </defs>

<script type="text/javascript">
var viewWidth = 1938;
var viewHeight = 431;
var sectionId = 'dynsection-12';
</script>
<script xlink:href="../../svgpan.js"/>
<svg id="graph" class="graph">
<g id="viewport">
<title>userInterface.UI.setUpCommandField</title>
<polygon fill="white" stroke="none" points="-4,4 -4,-427 1934,-427 1934,4 -4,4"/>
<!-- Node1 -->
<g id="node1" class="node"><title>Node1</title>
<polygon fill="#bfbfbf" stroke="black" points="0,-126 0,-156 174,-156 174,-126 0,-126"/>
<text text-anchor="start" x="8" y="-144" font-family="Helvetica,sans-Serif" font-size="10.00">userInterface.UI.setUpCommand</text>
<text text-anchor="middle" x="87" y="-133" font-family="Helvetica,sans-Serif" font-size="10.00">Field</text>
</g>
<!-- Node2 -->
<g id="node2" class="node"><title>Node2</title>
<g id="a_node2"><a xlink:href="../../d0/d7c/classuser_interface_1_1_u_i.html#a02bd34909b5d6037ea8ebe812879b90a" target="_top" xlink:title="userInterface.UI.makeRun\lButton">
<polygon fill="white" stroke="black" points="210,-126 210,-156 350,-156 350,-126 210,-126"/>
<text text-anchor="start" x="218" y="-144" font-family="Helvetica,sans-Serif" font-size="10.00">userInterface.UI.makeRun</text>
<text text-anchor="middle" x="280" y="-133" font-family="Helvetica,sans-Serif" font-size="10.00">Button</text>
</a>
</g>
</g>
<!-- Node1&#45;&gt;Node2 -->
<g id="edge1" class="edge"><title>Node1&#45;&gt;Node2</title>
<path fill="none" stroke="midnightblue" d="M174.001,-141C182.519,-141 191.139,-141 199.585,-141"/>
<polygon fill="midnightblue" stroke="midnightblue" points="199.784,-144.5 209.784,-141 199.784,-137.5 199.784,-144.5"/>
</g>
<!-- Node3 -->
<g id="node3" class="node"><title>Node3</title>
<g id="a_node3"><a xlink:href="../../d0/d7c/classuser_interface_1_1_u_i.html#ab17592b00ba0b808f524b4fc223303ec" target="_top" xlink:title="userInterface.UI.runCommand">
<polygon fill="white" stroke="black" points="386.5,-131.5 386.5,-150.5 547.5,-150.5 547.5,-131.5 386.5,-131.5"/>
<text text-anchor="middle" x="467" y="-138.5" font-family="Helvetica,sans-Serif" font-size="10.00">userInterface.UI.runCommand</text>
</a>
</g>
</g>
<!-- Node2&#45;&gt;Node3 -->
<g id="edge2" class="edge"><title>Node2&#45;&gt;Node3</title>
<path fill="none" stroke="midnightblue" d="M350.15,-141C358.633,-141 367.397,-141 376.129,-141"/>
<polygon fill="midnightblue" stroke="midnightblue" points="376.346,-144.5 386.346,-141 376.346,-137.5 376.346,-144.5"/>
</g>
<!-- Node4 -->
<g id="node4" class="node"><title>Node4</title>
<g id="a_node4"><a xlink:href="../../d8/d08/classworld_controller_1_1_world_controller.html#a178425d68e3e669c386706153ce44999" target="_top" xlink:title="worldController.WorldController.update">
<polygon fill="white" stroke="black" points="584,-131.5 584,-150.5 782,-150.5 782,-131.5 584,-131.5"/>
<text text-anchor="middle" x="683" y="-138.5" font-family="Helvetica,sans-Serif" font-size="10.00">worldController.WorldController.update</text>
</a>
</g>
</g>
<!-- Node3&#45;&gt;Node4 -->
<g id="edge3" class="edge"><title>Node3&#45;&gt;Node4</title>
<path fill="none" stroke="midnightblue" d="M547.686,-141C556.142,-141 564.841,-141 573.554,-141"/>
<polygon fill="midnightblue" stroke="midnightblue" points="573.774,-144.5 583.773,-141 573.773,-137.5 573.774,-144.5"/>
</g>
<!-- Node5 -->
<g id="node5" class="node"><title>Node5</title>
<g id="a_node5"><a xlink:href="../../df/dcb/classturtle_1_1_turtle.html#a610aafaf658c4b351330b7c16c66881c" target="_top" xlink:title="turtle.Turtle.updatePenAttributes">
<polygon fill="white" stroke="black" points="825.5,-251.5 825.5,-270.5 998.5,-270.5 998.5,-251.5 825.5,-251.5"/>
<text text-anchor="middle" x="912" y="-258.5" font-family="Helvetica,sans-Serif" font-size="10.00">turtle.Turtle.updatePenAttributes</text>
</a>
</g>
</g>
<!-- Node4&#45;&gt;Node5 -->
<g id="edge4" class="edge"><title>Node4&#45;&gt;Node5</title>
<path fill="none" stroke="midnightblue" d="M702.193,-150.617C741.957,-171.638 836.802,-221.776 883.736,-246.587"/>
<polygon fill="midnightblue" stroke="midnightblue" points="882.244,-249.758 892.721,-251.337 885.516,-243.569 882.244,-249.758"/>
</g>
<!-- Node8 -->
<g id="node8" class="node"><title>Node8</title>
<g id="a_node8"><a xlink:href="../../d9/dd0/classworld_1_1_world.html#ae370733f7784c42741a6ba66c7d2ecf5" target="_top" xlink:title="world.World.listen">
<polygon fill="white" stroke="black" points="863,-131.5 863,-150.5 961,-150.5 961,-131.5 863,-131.5"/>
<text text-anchor="middle" x="912" y="-138.5" font-family="Helvetica,sans-Serif" font-size="10.00">world.World.listen</text>
</a>
</g>
</g>
<!-- Node4&#45;&gt;Node8 -->
<g id="edge7" class="edge"><title>Node4&#45;&gt;Node8</title>
<path fill="none" stroke="midnightblue" d="M782.245,-141C806.238,-141 831.157,-141 852.608,-141"/>
<polygon fill="midnightblue" stroke="midnightblue" points="852.841,-144.5 862.841,-141 852.841,-137.5 852.841,-144.5"/>
</g>
<!-- Node31 -->
<g id="node31" class="node"><title>Node31</title>
<g id="a_node31"><a xlink:href="../../d8/d08/classworld_controller_1_1_world_controller.html#a9380abb3ed5334498510f1d6a88a826d" target="_top" xlink:title="worldController.WorldController.draw\lTurtle">
<polygon fill="white" stroke="black" points="818.5,-39 818.5,-69 1005.5,-69 1005.5,-39 818.5,-39"/>
<text text-anchor="start" x="826.5" y="-57" font-family="Helvetica,sans-Serif" font-size="10.00">worldController.WorldController.draw</text>
<text text-anchor="middle" x="912" y="-46" font-family="Helvetica,sans-Serif" font-size="10.00">Turtle</text>
</a>
</g>
</g>
<!-- Node4&#45;&gt;Node31 -->
<g id="edge41" class="edge"><title>Node4&#45;&gt;Node31</title>
<path fill="none" stroke="midnightblue" d="M709.16,-131.357C745.986,-117.243 815.283,-90.6846 862.288,-72.6692"/>
<polygon fill="midnightblue" stroke="midnightblue" points="863.583,-75.9213 871.668,-69.0743 861.078,-69.3849 863.583,-75.9213"/>
</g>
<!-- Node6 -->
<g id="node6" class="node"><title>Node6</title>
<g id="a_node6"><a xlink:href="../../de/d57/classturtle_1_1_pen.html#ac9a08745a9f3615b9e47c1c8e5af8f1b" target="_top" xlink:title="turtle.Pen.getColor">
<polygon fill="white" stroke="black" points="1082.5,-289.5 1082.5,-308.5 1189.5,-308.5 1189.5,-289.5 1082.5,-289.5"/>
<text text-anchor="middle" x="1136" y="-296.5" font-family="Helvetica,sans-Serif" font-size="10.00">turtle.Pen.getColor</text>
</a>
</g>
</g>
<!-- Node5&#45;&gt;Node6 -->
<g id="edge5" class="edge"><title>Node5&#45;&gt;Node6</title>
<path fill="none" stroke="midnightblue" d="M968.733,-270.54C1000.28,-275.939 1039.82,-282.707 1072.42,-288.288"/>
<polygon fill="midnightblue" stroke="midnightblue" points="1071.85,-291.742 1082.3,-289.979 1073.03,-284.842 1071.85,-291.742"/>
</g>
<!-- Node7 -->
<g id="node7" class="node"><title>Node7</title>
<g id="a_node7"><a xlink:href="../../de/d57/classturtle_1_1_pen.html#a76c8dc4e66927e7d3774ea00b2266640" target="_top" xlink:title="turtle.Pen.getSize">
<polygon fill="white" stroke="black" points="1085,-251.5 1085,-270.5 1187,-270.5 1187,-251.5 1085,-251.5"/>
<text text-anchor="middle" x="1136" y="-258.5" font-family="Helvetica,sans-Serif" font-size="10.00">turtle.Pen.getSize</text>
</a>
</g>
</g>
<!-- Node5&#45;&gt;Node7 -->
<g id="edge6" class="edge"><title>Node5&#45;&gt;Node7</title>
<path fill="none" stroke="midnightblue" d="M998.513,-261C1023.94,-261 1051.26,-261 1074.72,-261"/>
<polygon fill="midnightblue" stroke="midnightblue" points="1074.87,-264.5 1084.87,-261 1074.87,-257.5 1074.87,-264.5"/>
</g>
<!-- Node9 -->
<g id="node9" class="node"><title>Node9</title>
<g id="a_node9"><a xlink:href="../../d6/d95/classparser_1_1_parser.html#a240c75608624a9c67402a296855c4d1d" target="_top" xlink:title="parser.Parser.initialize\lCommands">
<polygon fill="white" stroke="black" points="1076,-126 1076,-156 1196,-156 1196,-126 1076,-126"/>
<text text-anchor="start" x="1084" y="-144" font-family="Helvetica,sans-Serif" font-size="10.00">parser.Parser.initialize</text>
<text text-anchor="middle" x="1136" y="-133" font-family="Helvetica,sans-Serif" font-size="10.00">Commands</text>
</a>
</g>
</g>
<!-- Node8&#45;&gt;Node9 -->
<g id="edge8" class="edge"><title>Node8&#45;&gt;Node9</title>
<path fill="none" stroke="midnightblue" d="M961.171,-141C991.681,-141 1031.63,-141 1065.54,-141"/>
<polygon fill="midnightblue" stroke="midnightblue" points="1065.85,-144.5 1075.85,-141 1065.85,-137.5 1065.85,-144.5"/>
</g>
<!-- Node13 -->
<g id="node13" class="node"><title>Node13</title>
<g id="a_node13"><a xlink:href="../../d6/d95/classparser_1_1_parser.html#a4ecbffc246c3add017c4720eed4c6da9" target="_top" xlink:title="parser.Parser.parse">
<polygon fill="white" stroke="black" points="1081.5,-175.5 1081.5,-194.5 1190.5,-194.5 1190.5,-175.5 1081.5,-175.5"/>
<text text-anchor="middle" x="1136" y="-182.5" font-family="Helvetica,sans-Serif" font-size="10.00">parser.Parser.parse</text>
</a>
</g>
</g>
<!-- Node8&#45;&gt;Node13 -->
<g id="edge12" class="edge"><title>Node8&#45;&gt;Node13</title>
<path fill="none" stroke="midnightblue" d="M961.171,-150.547C995.207,-157.293 1041,-166.369 1077.04,-173.511"/>
<polygon fill="midnightblue" stroke="midnightblue" points="1076.43,-176.96 1086.92,-175.471 1077.79,-170.094 1076.43,-176.96"/>
</g>
<!-- Node26 -->
<g id="node26" class="node"><title>Node26</title>
<g id="a_node26"><a xlink:href="../../d7/d35/classcommand_1_1_command.html#a957099a70dd30b5dc897e0caf07d2d99" target="_top" xlink:title="command.Command.getCommand\lValues">
<polygon fill="white" stroke="black" points="1042,-77 1042,-107 1230,-107 1230,-77 1042,-77"/>
<text text-anchor="start" x="1050" y="-95" font-family="Helvetica,sans-Serif" font-size="10.00">command.Command.getCommand</text>
<text text-anchor="middle" x="1136" y="-84" font-family="Helvetica,sans-Serif" font-size="10.00">Values</text>
</a>
</g>
</g>
<!-- Node8&#45;&gt;Node26 -->
<g id="edge36" class="edge"><title>Node8&#45;&gt;Node26</title>
<path fill="none" stroke="midnightblue" d="M956.067,-131.494C984.643,-125.187 1022.98,-116.725 1056.84,-109.252"/>
<polygon fill="midnightblue" stroke="midnightblue" points="1057.71,-112.644 1066.72,-107.071 1056.2,-105.809 1057.71,-112.644"/>
</g>
<!-- Node28 -->
<g id="node28" class="node"><title>Node28</title>
<g id="a_node28"><a xlink:href="../../d9/dd0/classworld_1_1_world.html#adcbcb8328c7e832fcb710a91457e6772" target="_top" xlink:title="world.World.runCommand">
<polygon fill="white" stroke="black" points="1066.5,-38.5 1066.5,-57.5 1205.5,-57.5 1205.5,-38.5 1066.5,-38.5"/>
<text text-anchor="middle" x="1136" y="-45.5" font-family="Helvetica,sans-Serif" font-size="10.00">world.World.runCommand</text>
</a>
</g>
</g>
<!-- Node8&#45;&gt;Node28 -->
<g id="edge38" class="edge"><title>Node8&#45;&gt;Node28</title>
<path fill="none" stroke="midnightblue" d="M926.219,-131.489C948.82,-115.682 996.833,-84.0613 1042,-67 1049.15,-64.2976 1056.77,-61.9506 1064.45,-59.919"/>
<polygon fill="midnightblue" stroke="midnightblue" points="1065.31,-63.3121 1074.17,-57.5112 1063.62,-56.5173 1065.31,-63.3121"/>
</g>
<!-- Node29 -->
<g id="node29" class="node"><title>Node29</title>
<g id="a_node29"><a xlink:href="../../d6/d95/classparser_1_1_parser.html#acebafe1593fc1f09ac31c7104438e4b1" target="_top" xlink:title="parser.Parser.resetRepcount">
<polygon fill="white" stroke="black" points="1060.5,-213.5 1060.5,-232.5 1211.5,-232.5 1211.5,-213.5 1060.5,-213.5"/>
<text text-anchor="middle" x="1136" y="-220.5" font-family="Helvetica,sans-Serif" font-size="10.00">parser.Parser.resetRepcount</text>
</a>
</g>
</g>
<!-- Node8&#45;&gt;Node29 -->
<g id="edge39" class="edge"><title>Node8&#45;&gt;Node29</title>
<path fill="none" stroke="midnightblue" d="M929.128,-150.54C953.006,-164.275 999.527,-189.551 1042,-204 1049.96,-206.708 1058.44,-209.092 1066.92,-211.173"/>
<polygon fill="midnightblue" stroke="midnightblue" points="1066.31,-214.624 1076.85,-213.478 1067.9,-207.806 1066.31,-214.624"/>
</g>
<!-- Node10 -->
<g id="node10" class="node"><title>Node10</title>
<g id="a_node10"><a xlink:href="../../d6/d95/classparser_1_1_parser.html#a4f582c65390bddc57219c0b5c31ef5e7" target="_top" xlink:title="parser.Parser.makeTree">
<polygon fill="white" stroke="black" points="1295,-81.5 1295,-100.5 1423,-100.5 1423,-81.5 1295,-81.5"/>
<text text-anchor="middle" x="1359" y="-88.5" font-family="Helvetica,sans-Serif" font-size="10.00">parser.Parser.makeTree</text>
</a>
</g>
</g>
<!-- Node9&#45;&gt;Node10 -->
<g id="edge9" class="edge"><title>Node9&#45;&gt;Node10</title>
<path fill="none" stroke="midnightblue" d="M1196.31,-126.324C1218.18,-121.025 1243.18,-115.096 1266,-110 1277.08,-107.525 1288.94,-104.992 1300.33,-102.614"/>
<polygon fill="midnightblue" stroke="midnightblue" points="1301.11,-106.027 1310.19,-100.57 1299.69,-99.1728 1301.11,-106.027"/>
</g>
<!-- Node11 -->
<g id="node11" class="node"><title>Node11</title>
<g id="a_node11"><a xlink:href="../../d9/d1b/classcommand_1_1_command_factory.html#a87bf7e648425bb22124367cabedb3327" target="_top" xlink:title="command.CommandFactory.get\lNumParameters">
<polygon fill="white" stroke="black" points="1507,-74 1507,-104 1677,-104 1677,-74 1507,-74"/>
<text text-anchor="start" x="1515" y="-92" font-family="Helvetica,sans-Serif" font-size="10.00">command.CommandFactory.get</text>
<text text-anchor="middle" x="1592" y="-81" font-family="Helvetica,sans-Serif" font-size="10.00">NumParameters</text>
</a>
</g>
</g>
<!-- Node10&#45;&gt;Node11 -->
<g id="edge10" class="edge"><title>Node10&#45;&gt;Node11</title>
<path fill="none" stroke="midnightblue" d="M1423.12,-90.4535C1445.78,-90.2573 1471.85,-90.0316 1496.59,-89.8174"/>
<polygon fill="midnightblue" stroke="midnightblue" points="1496.76,-93.3162 1506.73,-89.7297 1496.7,-86.3165 1496.76,-93.3162"/>
</g>
<!-- Node12 -->
<g id="node12" class="node"><title>Node12</title>
<g id="a_node12"><a xlink:href="../../d9/d1b/classcommand_1_1_command_factory.html#a947fdc151e857ea74564d0d1fe268246" target="_top" xlink:title="command.CommandFactory.translate\lCommand">
<polygon fill="white" stroke="black" points="1732.5,-115 1732.5,-145 1929.5,-145 1929.5,-115 1732.5,-115"/>
<text text-anchor="start" x="1740.5" y="-133" font-family="Helvetica,sans-Serif" font-size="10.00">command.CommandFactory.translate</text>
<text text-anchor="middle" x="1831" y="-122" font-family="Helvetica,sans-Serif" font-size="10.00">Command</text>
</a>
</g>
</g>
<!-- Node11&#45;&gt;Node12 -->
<g id="edge11" class="edge"><title>Node11&#45;&gt;Node12</title>
<path fill="none" stroke="midnightblue" d="M1677.22,-103.571C1695.38,-106.712 1714.71,-110.056 1733.3,-113.272"/>
<polygon fill="midnightblue" stroke="midnightblue" points="1732.79,-116.736 1743.25,-114.992 1733.99,-109.838 1732.79,-116.736"/>
</g>
<!-- Node13&#45;&gt;Node10 -->
<g id="edge35" class="edge"><title>Node13&#45;&gt;Node10</title>
<path fill="none" stroke="midnightblue" d="M1190.56,-180.784C1204.29,-177.818 1218.43,-172.944 1230,-165 1254.09,-148.467 1241.85,-126.435 1266,-110 1271.8,-106.055 1278.24,-102.899 1284.96,-100.379"/>
<polygon fill="midnightblue" stroke="midnightblue" points="1286.52,-103.552 1294.94,-97.1228 1284.35,-96.8967 1286.52,-103.552"/>
</g>
<!-- Node14 -->
<g id="node14" class="node"><title>Node14</title>
<g id="a_node14"><a xlink:href="../../d9/d1b/classcommand_1_1_command_factory.html#ab25bb047b051661d31adf73b2dae5649" target="_top" xlink:title="command.CommandFactory.create\lCommand">
<polygon fill="white" stroke="black" points="1266.5,-120 1266.5,-150 1451.5,-150 1451.5,-120 1266.5,-120"/>
<text text-anchor="start" x="1274.5" y="-138" font-family="Helvetica,sans-Serif" font-size="10.00">command.CommandFactory.create</text>
<text text-anchor="middle" x="1359" y="-127" font-family="Helvetica,sans-Serif" font-size="10.00">Command</text>
</a>
</g>
</g>
<!-- Node13&#45;&gt;Node14 -->
<g id="edge13" class="edge"><title>Node13&#45;&gt;Node14</title>
<path fill="none" stroke="midnightblue" d="M1182.45,-175.401C1197.59,-172.157 1214.53,-168.476 1230,-165 1247.85,-160.989 1267.07,-156.549 1285.05,-152.341"/>
<polygon fill="midnightblue" stroke="midnightblue" points="1285.96,-155.723 1294.9,-150.032 1284.37,-148.908 1285.96,-155.723"/>
</g>
<!-- Node16 -->
<g id="node16" class="node"><title>Node16</title>
<g id="a_node16"><a xlink:href="../../d6/d95/classparser_1_1_parser.html#aac1cff62f68138c7e977a67d39671701" target="_top" xlink:title="parser.Parser.generateCommand\lInput">
<polygon fill="white" stroke="black" points="1271,-246 1271,-276 1447,-276 1447,-246 1271,-246"/>
<text text-anchor="start" x="1279" y="-264" font-family="Helvetica,sans-Serif" font-size="10.00">parser.Parser.generateCommand</text>
<text text-anchor="middle" x="1359" y="-253" font-family="Helvetica,sans-Serif" font-size="10.00">Input</text>
</a>
</g>
</g>
<!-- Node13&#45;&gt;Node16 -->
<g id="edge16" class="edge"><title>Node13&#45;&gt;Node16</title>
<path fill="none" stroke="midnightblue" d="M1190.89,-191.824C1204.04,-194.615 1217.83,-198.526 1230,-204 1248.24,-212.201 1248.25,-221.776 1266,-231 1274.3,-235.313 1283.34,-239.169 1292.4,-242.562"/>
<polygon fill="midnightblue" stroke="midnightblue" points="1291.23,-245.862 1301.83,-245.931 1293.59,-239.27 1291.23,-245.862"/>
</g>
<!-- Node19 -->
<g id="node19" class="node"><title>Node19</title>
<g id="a_node19"><a xlink:href="../../d3/dcc/classparser_1_1_node.html#a9c12e8d4375a7517eae0a35724b253c4" target="_top" xlink:title="parser.Node.getValue">
<polygon fill="white" stroke="black" points="1532,-199.5 1532,-218.5 1652,-218.5 1652,-199.5 1532,-199.5"/>
<text text-anchor="middle" x="1592" y="-206.5" font-family="Helvetica,sans-Serif" font-size="10.00">parser.Node.getValue</text>
</a>
</g>
</g>
<!-- Node13&#45;&gt;Node19 -->
<g id="edge32" class="edge"><title>Node13&#45;&gt;Node19</title>
<path fill="none" stroke="midnightblue" d="M1190.6,-191.208C1213.76,-193.681 1241.18,-196.331 1266,-198 1354.09,-203.923 1455.83,-206.714 1521.68,-207.99"/>
<polygon fill="midnightblue" stroke="midnightblue" points="1521.87,-211.494 1531.93,-208.182 1522,-204.495 1521.87,-211.494"/>
</g>
<!-- Node21 -->
<g id="node21" class="node"><title>Node21</title>
<g id="a_node21"><a xlink:href="../../d6/d95/classparser_1_1_parser.html#a3efcd1192e76101919526b4a5e0046f4" target="_top" xlink:title="parser.Parser.getNodeBefore\lToReplace">
<polygon fill="white" stroke="black" points="1281.5,-295 1281.5,-325 1436.5,-325 1436.5,-295 1281.5,-295"/>
<text text-anchor="start" x="1289.5" y="-313" font-family="Helvetica,sans-Serif" font-size="10.00">parser.Parser.getNodeBefore</text>
<text text-anchor="middle" x="1359" y="-302" font-family="Helvetica,sans-Serif" font-size="10.00">ToReplace</text>
</a>
</g>
</g>
<!-- Node13&#45;&gt;Node21 -->
<g id="edge21" class="edge"><title>Node13&#45;&gt;Node21</title>
<path fill="none" stroke="midnightblue" d="M1190.95,-187.262C1204.83,-190.064 1218.95,-195.121 1230,-204 1260.71,-228.681 1236.1,-259.352 1266,-285 1268.03,-286.744 1270.18,-288.368 1272.41,-289.879"/>
<polygon fill="midnightblue" stroke="midnightblue" points="1271.02,-293.122 1281.42,-295.169 1274.57,-287.086 1271.02,-293.122"/>
</g>
<!-- Node24 -->
<g id="node24" class="node"><title>Node24</title>
<g id="a_node24"><a xlink:href="../../d6/d95/classparser_1_1_parser.html#a447c473b62ba23b7c144df9bb38a9a41" target="_top" xlink:title="parser.Parser.getNodeFor\lCommand">
<polygon fill="white" stroke="black" points="1290,-344 1290,-374 1428,-374 1428,-344 1290,-344"/>
<text text-anchor="start" x="1298" y="-362" font-family="Helvetica,sans-Serif" font-size="10.00">parser.Parser.getNodeFor</text>
<text text-anchor="middle" x="1359" y="-351" font-family="Helvetica,sans-Serif" font-size="10.00">Command</text>
</a>
</g>
</g>
<!-- Node13&#45;&gt;Node24 -->
<g id="edge27" class="edge"><title>Node13&#45;&gt;Node24</title>
<path fill="none" stroke="midnightblue" d="M1190.89,-186.022C1205.1,-188.766 1219.4,-194.103 1230,-204 1273.82,-244.913 1223.51,-291.71 1266,-334 1270.28,-338.263 1275.22,-341.819 1280.53,-344.782"/>
<polygon fill="midnightblue" stroke="midnightblue" points="1279.25,-348.049 1289.77,-349.23 1282.28,-341.741 1279.25,-348.049"/>
</g>
<!-- Node25 -->
<g id="node25" class="node"><title>Node25</title>
<g id="a_node25"><a xlink:href="../../d3/dcc/classparser_1_1_node.html#a066da2b478008f39a02440d7afceb9ee" target="_top" xlink:title="parser.Node.insertChild">
<polygon fill="white" stroke="black" points="1295,-169.5 1295,-188.5 1423,-188.5 1423,-169.5 1295,-169.5"/>
<text text-anchor="middle" x="1359" y="-176.5" font-family="Helvetica,sans-Serif" font-size="10.00">parser.Node.insertChild</text>
</a>
</g>
</g>
<!-- Node13&#45;&gt;Node25 -->
<g id="edge33" class="edge"><title>Node13&#45;&gt;Node25</title>
<path fill="none" stroke="midnightblue" d="M1190.78,-183.54C1219.02,-182.773 1254.04,-181.823 1284.72,-180.989"/>
<polygon fill="midnightblue" stroke="midnightblue" points="1285.04,-184.482 1294.94,-180.712 1284.85,-177.485 1285.04,-184.482"/>
</g>
<!-- Node14&#45;&gt;Node12 -->
<g id="edge15" class="edge"><title>Node14&#45;&gt;Node12</title>
<path fill="none" stroke="midnightblue" d="M1451.8,-148.676C1463.95,-150.051 1476.26,-151.224 1488,-152 1580.24,-158.099 1603.86,-159.513 1696,-152 1710.94,-150.782 1726.72,-148.812 1742.01,-146.539"/>
<polygon fill="midnightblue" stroke="midnightblue" points="1742.62,-149.986 1751.97,-145.006 1741.55,-143.068 1742.62,-149.986"/>
</g>
<!-- Node15 -->
<g id="node15" class="node"><title>Node15</title>
<g id="a_node15"><a xlink:href="../../d9/d1b/classcommand_1_1_command_factory.html#abd97ea3e22afc09e07ed1d4fd039d11f" target="_top" xlink:title="command.CommandFactory.reflectCMD">
<polygon fill="white" stroke="black" points="1488.5,-123.5 1488.5,-142.5 1695.5,-142.5 1695.5,-123.5 1488.5,-123.5"/>
<text text-anchor="middle" x="1592" y="-130.5" font-family="Helvetica,sans-Serif" font-size="10.00">command.CommandFactory.reflectCMD</text>
</a>
</g>
</g>
<!-- Node14&#45;&gt;Node15 -->
<g id="edge14" class="edge"><title>Node14&#45;&gt;Node15</title>
<path fill="none" stroke="midnightblue" d="M1451.63,-134.207C1460.42,-134.131 1469.39,-134.053 1478.35,-133.975"/>
<polygon fill="midnightblue" stroke="midnightblue" points="1478.47,-137.475 1488.44,-133.888 1478.41,-130.475 1478.47,-137.475"/>
</g>
<!-- Node17 -->
<g id="node17" class="node"><title>Node17</title>
<g id="a_node17"><a xlink:href="../../d3/dcc/classparser_1_1_node.html#aa67bc0d39227232943abec9b95b23235" target="_top" xlink:title="parser.Node.getChild1">
<polygon fill="white" stroke="black" points="1530.5,-313.5 1530.5,-332.5 1653.5,-332.5 1653.5,-313.5 1530.5,-313.5"/>
<text text-anchor="middle" x="1592" y="-320.5" font-family="Helvetica,sans-Serif" font-size="10.00">parser.Node.getChild1</text>
</a>
</g>
</g>
<!-- Node16&#45;&gt;Node17 -->
<g id="edge17" class="edge"><title>Node16&#45;&gt;Node17</title>
<path fill="none" stroke="midnightblue" d="M1425.43,-276.075C1434.46,-278.732 1443.54,-281.714 1452,-285 1468.86,-291.549 1470.91,-298.069 1488,-304 1498.26,-307.56 1509.34,-310.493 1520.29,-312.898"/>
<polygon fill="midnightblue" stroke="midnightblue" points="1519.79,-316.368 1530.29,-314.961 1521.21,-309.513 1519.79,-316.368"/>
</g>
<!-- Node18 -->
<g id="node18" class="node"><title>Node18</title>
<g id="a_node18"><a xlink:href="../../d3/dcc/classparser_1_1_node.html#a0f13775acc62af77cdde90dbeaf26bbc" target="_top" xlink:title="parser.Node.getChild2">
<polygon fill="white" stroke="black" points="1530.5,-275.5 1530.5,-294.5 1653.5,-294.5 1653.5,-275.5 1530.5,-275.5"/>
<text text-anchor="middle" x="1592" y="-282.5" font-family="Helvetica,sans-Serif" font-size="10.00">parser.Node.getChild2</text>
</a>
</g>
</g>
<!-- Node16&#45;&gt;Node18 -->
<g id="edge18" class="edge"><title>Node16&#45;&gt;Node18</title>
<path fill="none" stroke="midnightblue" d="M1447,-270.039C1471.18,-272.551 1497.13,-275.247 1520.25,-277.649"/>
<polygon fill="midnightblue" stroke="midnightblue" points="1520.01,-281.143 1530.32,-278.695 1520.73,-274.18 1520.01,-281.143"/>
</g>
<!-- Node16&#45;&gt;Node19 -->
<g id="edge19" class="edge"><title>Node16&#45;&gt;Node19</title>
<path fill="none" stroke="midnightblue" d="M1414.93,-245.941C1437.48,-239.991 1463.91,-233.32 1488,-228 1500.05,-225.339 1512.95,-222.754 1525.4,-220.391"/>
<polygon fill="midnightblue" stroke="midnightblue" points="1526.08,-223.825 1535.26,-218.546 1524.79,-216.944 1526.08,-223.825"/>
</g>
<!-- Node20 -->
<g id="node20" class="node"><title>Node20</title>
<g id="a_node20"><a xlink:href="../../d3/dcc/classparser_1_1_node.html#a6bbc0c61aaa261077eb87cfc4e2b45dc" target="_top" xlink:title="parser.Node.numChildren">
<polygon fill="white" stroke="black" points="1522.5,-237.5 1522.5,-256.5 1661.5,-256.5 1661.5,-237.5 1522.5,-237.5"/>
<text text-anchor="middle" x="1592" y="-244.5" font-family="Helvetica,sans-Serif" font-size="10.00">parser.Node.numChildren</text>
</a>
</g>
</g>
<!-- Node16&#45;&gt;Node20 -->
<g id="edge20" class="edge"><title>Node16&#45;&gt;Node20</title>
<path fill="none" stroke="midnightblue" d="M1447,-255.727C1468.43,-254.428 1491.26,-253.045 1512.28,-251.771"/>
<polygon fill="midnightblue" stroke="midnightblue" points="1512.66,-255.254 1522.43,-251.155 1512.24,-248.267 1512.66,-255.254"/>
</g>
<!-- Node21&#45;&gt;Node17 -->
<g id="edge22" class="edge"><title>Node21&#45;&gt;Node17</title>
<path fill="none" stroke="midnightblue" d="M1436.6,-314.311C1463.5,-315.825 1493.58,-317.518 1520,-319.004"/>
<polygon fill="midnightblue" stroke="midnightblue" points="1520.13,-322.517 1530.31,-319.585 1520.52,-315.528 1520.13,-322.517"/>
</g>
<!-- Node21&#45;&gt;Node18 -->
<g id="edge23" class="edge"><title>Node21&#45;&gt;Node18</title>
<path fill="none" stroke="midnightblue" d="M1436.6,-301.71C1463.62,-298.786 1493.85,-295.514 1520.35,-292.646"/>
<polygon fill="midnightblue" stroke="midnightblue" points="1520.75,-296.124 1530.31,-291.568 1519.99,-289.164 1520.75,-296.124"/>
</g>
<!-- Node21&#45;&gt;Node19 -->
<g id="edge24" class="edge"><title>Node21&#45;&gt;Node19</title>
<path fill="none" stroke="midnightblue" d="M1435.05,-294.833C1441.06,-292.084 1446.81,-288.836 1452,-285 1476.1,-267.193 1463.19,-244.793 1488,-228 1498.06,-221.193 1509.88,-216.644 1521.86,-213.639"/>
<polygon fill="midnightblue" stroke="midnightblue" points="1522.89,-216.997 1531.93,-211.462 1521.41,-210.155 1522.89,-216.997"/>
</g>
<!-- Node22 -->
<g id="node22" class="node"><title>Node22</title>
<g id="a_node22"><a xlink:href="../../d3/dcc/classparser_1_1_node.html#ab14db24c0724dec4387e29d513008e2e" target="_top" xlink:title="parser.Node.hasChildren">
<polygon fill="white" stroke="black" points="1525,-389.5 1525,-408.5 1659,-408.5 1659,-389.5 1525,-389.5"/>
<text text-anchor="middle" x="1592" y="-396.5" font-family="Helvetica,sans-Serif" font-size="10.00">parser.Node.hasChildren</text>
</a>
</g>
</g>
<!-- Node21&#45;&gt;Node22 -->
<g id="edge25" class="edge"><title>Node21&#45;&gt;Node22</title>
<path fill="none" stroke="midnightblue" d="M1435.11,-325.081C1441.04,-327.608 1446.76,-330.557 1452,-334 1473.7,-348.248 1465.79,-366.551 1488,-380 1496.25,-384.999 1505.51,-388.742 1515,-391.535"/>
<polygon fill="midnightblue" stroke="midnightblue" points="1514.39,-394.991 1524.94,-394.114 1516.14,-388.215 1514.39,-394.991"/>
</g>
<!-- Node23 -->
<g id="node23" class="node"><title>Node23</title>
<g id="a_node23"><a xlink:href="../../d3/dcc/classparser_1_1_node.html#aa92667a825777b3d757bc3b1a247ac20" target="_top" xlink:title="parser.Node.isLeaf">
<polygon fill="white" stroke="black" points="1539,-351.5 1539,-370.5 1645,-370.5 1645,-351.5 1539,-351.5"/>
<text text-anchor="middle" x="1592" y="-358.5" font-family="Helvetica,sans-Serif" font-size="10.00">parser.Node.isLeaf</text>
</a>
</g>
</g>
<!-- Node21&#45;&gt;Node23 -->
<g id="edge26" class="edge"><title>Node21&#45;&gt;Node23</title>
<path fill="none" stroke="midnightblue" d="M1416.85,-325.023C1438.98,-330.659 1464.61,-336.924 1488,-342 1501.1,-344.843 1515.19,-347.623 1528.62,-350.142"/>
<polygon fill="midnightblue" stroke="midnightblue" points="1528.27,-353.636 1538.74,-352.014 1529.54,-346.753 1528.27,-353.636"/>
</g>
<!-- Node24&#45;&gt;Node17 -->
<g id="edge28" class="edge"><title>Node24&#45;&gt;Node17</title>
<path fill="none" stroke="midnightblue" d="M1428.06,-348.394C1457.11,-343.867 1491,-338.585 1520.33,-334.014"/>
<polygon fill="midnightblue" stroke="midnightblue" points="1521.15,-337.427 1530.5,-332.429 1520.08,-330.511 1521.15,-337.427"/>
</g>
<!-- Node24&#45;&gt;Node18 -->
<g id="edge29" class="edge"><title>Node24&#45;&gt;Node18</title>
<path fill="none" stroke="midnightblue" d="M1428.1,-344.081C1436.36,-341.235 1444.51,-337.898 1452,-334 1470.47,-324.382 1469.14,-312.844 1488,-304 1498.12,-299.252 1509.32,-295.689 1520.5,-293.015"/>
<polygon fill="midnightblue" stroke="midnightblue" points="1521.27,-296.431 1530.29,-290.887 1519.78,-289.591 1521.27,-296.431"/>
</g>
<!-- Node24&#45;&gt;Node22 -->
<g id="edge30" class="edge"><title>Node24&#45;&gt;Node22</title>
<path fill="none" stroke="midnightblue" d="M1428.06,-370.785C1458.91,-376.127 1495.22,-382.415 1525.73,-387.697"/>
<polygon fill="midnightblue" stroke="midnightblue" points="1525.38,-391.19 1535.83,-389.448 1526.58,-384.293 1525.38,-391.19"/>
</g>
<!-- Node24&#45;&gt;Node23 -->
<g id="edge31" class="edge"><title>Node24&#45;&gt;Node23</title>
<path fill="none" stroke="midnightblue" d="M1428.06,-359.589C1459.86,-359.865 1497.48,-360.19 1528.55,-360.459"/>
<polygon fill="midnightblue" stroke="midnightblue" points="1528.79,-363.961 1538.82,-360.548 1528.85,-356.962 1528.79,-363.961"/>
</g>
<!-- Node25&#45;&gt;Node19 -->
<g id="edge34" class="edge"><title>Node25&#45;&gt;Node19</title>
<path fill="none" stroke="midnightblue" d="M1423.12,-187.198C1453.74,-191.174 1490.59,-195.959 1521.95,-200.032"/>
<polygon fill="midnightblue" stroke="midnightblue" points="1521.56,-203.511 1531.92,-201.328 1522.46,-196.569 1521.56,-203.511"/>
</g>
<!-- Node27 -->
<g id="node27" class="node"><title>Node27</title>
<g id="a_node27"><a xlink:href="../../d7/d35/classcommand_1_1_command.html#a7e1387db1d0d35d4dcd3a3ebe2ff902a" target="_top" xlink:title="command.Command.makeString">
<polygon fill="white" stroke="black" points="1270.5,-43.5 1270.5,-62.5 1447.5,-62.5 1447.5,-43.5 1270.5,-43.5"/>
<text text-anchor="middle" x="1359" y="-50.5" font-family="Helvetica,sans-Serif" font-size="10.00">command.Command.makeString</text>
</a>
</g>
</g>
<!-- Node26&#45;&gt;Node27 -->
<g id="edge37" class="edge"><title>Node26&#45;&gt;Node27</title>
<path fill="none" stroke="midnightblue" d="M1222.13,-76.9774C1245.96,-72.772 1271.45,-68.2728 1293.85,-64.3211"/>
<polygon fill="midnightblue" stroke="midnightblue" points="1294.66,-67.7316 1303.9,-62.5469 1293.44,-60.8381 1294.66,-67.7316"/>
</g>
<!-- Node30 -->
<g id="node30" class="node"><title>Node30</title>
<g id="a_node30"><a xlink:href="../../d9/d1b/classcommand_1_1_command_factory.html#a0d59e4f0f925b5046957c0e054ce8bef" target="_top" xlink:title="command.CommandFactory.reset\lRepcount">
<polygon fill="white" stroke="black" points="1269.5,-393 1269.5,-423 1448.5,-423 1448.5,-393 1269.5,-393"/>
<text text-anchor="start" x="1277.5" y="-411" font-family="Helvetica,sans-Serif" font-size="10.00">command.CommandFactory.reset</text>
<text text-anchor="middle" x="1359" y="-400" font-family="Helvetica,sans-Serif" font-size="10.00">Repcount</text>
</a>
</g>
</g>
<!-- Node29&#45;&gt;Node30 -->
<g id="edge40" class="edge"><title>Node29&#45;&gt;Node30</title>
<path fill="none" stroke="midnightblue" d="M1211.9,-230.219C1218.56,-233.155 1224.75,-236.999 1230,-242 1276.83,-286.612 1220.62,-336.917 1266,-383 1267.44,-384.459 1268.95,-385.836 1270.53,-387.135"/>
<polygon fill="midnightblue" stroke="midnightblue" points="1268.72,-390.137 1278.92,-392.998 1272.73,-384.4 1268.72,-390.137"/>
</g>
<!-- Node32 -->
<g id="node32" class="node"><title>Node32</title>
<g id="a_node32"><a xlink:href="../../df/dcb/classturtle_1_1_turtle.html#a432dcb17f8c2751445c2c98e9b2f7fba" target="_top" xlink:title="turtle.Turtle.previousDrawLine">
<polygon fill="white" stroke="black" points="1057,-0.5 1057,-19.5 1215,-19.5 1215,-0.5 1057,-0.5"/>
<text text-anchor="middle" x="1136" y="-7.5" font-family="Helvetica,sans-Serif" font-size="10.00">turtle.Turtle.previousDrawLine</text>
</a>
</g>
</g>
<!-- Node31&#45;&gt;Node32 -->
<g id="edge42" class="edge"><title>Node31&#45;&gt;Node32</title>
<path fill="none" stroke="midnightblue" d="M988.779,-38.9808C1017.63,-33.2633 1050.01,-26.844 1076.96,-21.5029"/>
<polygon fill="midnightblue" stroke="midnightblue" points="1077.88,-24.8899 1087.01,-19.5124 1076.52,-18.0234 1077.88,-24.8899"/>
</g>
<!-- Node33 -->
<g id="node33" class="node"><title>Node33</title>
<g id="a_node33"><a xlink:href="../../de/d57/classturtle_1_1_pen.html#a361f4e030646d953185a8afe94427ce2" target="_top" xlink:title="turtle.Pen.penReady">
<polygon fill="white" stroke="black" points="1302.5,-0.5 1302.5,-19.5 1415.5,-19.5 1415.5,-0.5 1302.5,-0.5"/>
<text text-anchor="middle" x="1359" y="-7.5" font-family="Helvetica,sans-Serif" font-size="10.00">turtle.Pen.penReady</text>
</a>
</g>
</g>
<!-- Node32&#45;&gt;Node33 -->
<g id="edge43" class="edge"><title>Node32&#45;&gt;Node33</title>
<path fill="none" stroke="midnightblue" d="M1215.23,-10C1240.43,-10 1268.1,-10 1292.3,-10"/>
<polygon fill="midnightblue" stroke="midnightblue" points="1292.45,-13.5001 1302.45,-10 1292.45,-6.5001 1292.45,-13.5001"/>
</g>
</g>
</svg>
        <g id="navigator" transform="translate(0 0)" fill="#404254">
                <rect fill="#f2f5e9" fill-opacity="0.5" stroke="#606060" stroke-width=".5" x="0" y="0" width="60" height="60"/>
                <use id="zoomplus" xlink:href="#zoomPlus" x="17" y="9" onmousedown="handleZoom(evt,'in')"/>
                <use id="zoomminus" xlink:href="#zoomMin" x="42" y="9" onmousedown="handleZoom(evt,'out')"/>
                <use id="reset" xlink:href="#resetDef" x="30" y="36" onmousedown="handleReset()"/>
                <g id="arrowUp" xlink:href="#dirArrow" transform="translate(30 24)" onmousedown="handlePan(0,-1)">
                  <use xlink:href="#rim" fill="#404040">
                        <set attributeName="fill" to="#808080" begin="arrowUp.mouseover" end="arrowUp.mouseout"/>
                  </use>
                  <path fill="none" stroke="white" stroke-width="1.5" d="M0,-3.0v7 M-2.5,-0.5L0,-3.0L2.5,-0.5"/>
                </g>
                <g id="arrowRight" xlink:href="#dirArrow" transform="rotate(90) translate(36 -43)" onmousedown="handlePan(1,0)">
                  <use xlink:href="#rim" fill="#404040">
                        <set attributeName="fill" to="#808080" begin="arrowRight.mouseover" end="arrowRight.mouseout"/>
                  </use>
                  <path fill="none" stroke="white" stroke-width="1.5" d="M0,-3.0v7 M-2.5,-0.5L0,-3.0L2.5,-0.5"/>
                </g>
                <g id="arrowDown" xlink:href="#dirArrow" transform="rotate(180) translate(-30 -48)" onmousedown="handlePan(0,1)">
                  <use xlink:href="#rim" fill="#404040">
                        <set attributeName="fill" to="#808080" begin="arrowDown.mouseover" end="arrowDown.mouseout"/>
                  </use>
                  <path fill="none" stroke="white" stroke-width="1.5" d="M0,-3.0v7 M-2.5,-0.5L0,-3.0L2.5,-0.5"/>
                </g>
                <g id="arrowLeft" xlink:href="#dirArrow" transform="rotate(270) translate(-36 17)" onmousedown="handlePan(-1,0)">
                  <use xlink:href="#rim" fill="#404040">
                        <set attributeName="fill" to="#808080" begin="arrowLeft.mouseover" end="arrowLeft.mouseout"/>
                  </use>
                  <path fill="none" stroke="white" stroke-width="1.5" d="M0,-3.0v7 M-2.5,-0.5L0,-3.0L2.5,-0.5"/>
                </g>
        </g>
        <svg viewBox="0 0 15 15" width="100%" height="30px" preserveAspectRatio="xMaxYMin meet">
         <g id="arrow_out" transform="scale(0.3 0.3)">
          <a xlink:href="classuser_interface_1_1_u_i_a9f7eaa121e1405b45e262f03859f9ff0_cgraph_org.svg" target="_base">
           <rect id="button" ry="5" rx="5" y="6" x="6" height="38" width="38"
                fill="#f2f5e9" fill-opacity="0.5" stroke="#606060" stroke-width="1.0"/>
           <path id="arrow"
             d="M 11.500037,31.436501 C 11.940474,20.09759 22.043105,11.32322 32.158766,21.979434 L 37.068811,17.246167 C 37.068811,17.246167 37.088388,32 37.088388,32 L 22.160133,31.978069 C 22.160133,31.978069 26.997745,27.140456 26.997745,27.140456 C 18.528582,18.264221 13.291696,25.230495 11.500037,31.436501 z"
             style="fill:#404040;"/>
          </a>
         </g>
        </svg>
</svg>
