<?xml version="1.0" encoding="UTF-8" standalone="no"?>
<!DOCTYPE svg PUBLIC "-//W3C//DTD SVG 1.1//EN"
 "http://www.w3.org/Graphics/SVG/1.1/DTD/svg11.dtd">
<!-- Generated by graphviz version 2.36.0 (20140111.2315)
 -->
<!-- Title: userInterface.UI.UI Pages: 1 -->
<svg width="2250pt" height="481pt"
 viewBox="0.00 0.00 2250.00 481.00" xmlns="http://www.w3.org/2000/svg" xmlns:xlink="http://www.w3.org/1999/xlink">
<g id="graph0" class="graph" transform="scale(1 1) rotate(0) translate(4 477)">
<title>userInterface.UI.UI</title>
<polygon fill="white" stroke="none" points="-4,4 -4,-477 2246,-477 2246,4 -4,4"/>
<!-- Node1 -->
<g id="node1" class="node"><title>Node1</title>
<polygon fill="#bfbfbf" stroke="black" points="0.5,-99.5 0.5,-118.5 105.5,-118.5 105.5,-99.5 0.5,-99.5"/>
<text text-anchor="middle" x="53" y="-106.5" font-family="Helvetica,sans-Serif" font-size="10.00">userInterface.UI.UI</text>
</g>
<!-- Node2 -->
<g id="node2" class="node"><title>Node2</title>
<g id="a_node2"><a xlink:href="../../d0/d7c/classuser_interface_1_1_u_i.html#a8b1a665c129df3827e48e2739afe870d" target="_top" xlink:title="userInterface.UI.initialize">
<polygon fill="white" stroke="black" points="142,-99.5 142,-118.5 276,-118.5 276,-99.5 142,-99.5"/>
<text text-anchor="middle" x="209" y="-106.5" font-family="Helvetica,sans-Serif" font-size="10.00">userInterface.UI.initialize</text>
</a>
</g>
</g>
<!-- Node1&#45;&gt;Node2 -->
<g id="edge1" class="edge"><title>Node1&#45;&gt;Node2</title>
<path fill="none" stroke="midnightblue" d="M105.708,-109C114.061,-109 122.861,-109 131.649,-109"/>
<polygon fill="midnightblue" stroke="midnightblue" points="131.934,-112.5 141.934,-109 131.933,-105.5 131.934,-112.5"/>
</g>
<!-- Node3 -->
<g id="node3" class="node"><title>Node3</title>
<g id="a_node3"><a xlink:href="../../d0/d7c/classuser_interface_1_1_u_i.html#a9f7eaa121e1405b45e262f03859f9ff0" target="_top" xlink:title="userInterface.UI.setUpCommand\lField">
<polygon fill="white" stroke="black" points="312,-176 312,-206 486,-206 486,-176 312,-176"/>
<text text-anchor="start" x="320" y="-194" font-family="Helvetica,sans-Serif" font-size="10.00">userInterface.UI.setUpCommand</text>
<text text-anchor="middle" x="399" y="-183" font-family="Helvetica,sans-Serif" font-size="10.00">Field</text>
</a>
</g>
</g>
<!-- Node2&#45;&gt;Node3 -->
<g id="edge2" class="edge"><title>Node2&#45;&gt;Node3</title>
<path fill="none" stroke="midnightblue" d="M224.669,-118.605C244.018,-130.94 279.438,-152.377 312,-166 317.742,-168.402 323.791,-170.665 329.911,-172.772"/>
<polygon fill="midnightblue" stroke="midnightblue" points="328.959,-176.143 339.552,-175.954 331.153,-169.496 328.959,-176.143"/>
</g>
<!-- Node36 -->
<g id="node36" class="node"><title>Node36</title>
<g id="a_node36"><a xlink:href="../../d0/d7c/classuser_interface_1_1_u_i.html#ad3435fb6061c1b8ebcade613c318fd27" target="_top" xlink:title="userInterface.UI.setUpPane">
<polygon fill="white" stroke="black" points="325.5,-137.5 325.5,-156.5 472.5,-156.5 472.5,-137.5 325.5,-137.5"/>
<text text-anchor="middle" x="399" y="-144.5" font-family="Helvetica,sans-Serif" font-size="10.00">userInterface.UI.setUpPane</text>
</a>
</g>
</g>
<!-- Node2&#45;&gt;Node36 -->
<g id="edge46" class="edge"><title>Node2&#45;&gt;Node36</title>
<path fill="none" stroke="midnightblue" d="M257.44,-118.589C282.808,-123.716 314.227,-130.067 340.923,-135.463"/>
<polygon fill="midnightblue" stroke="midnightblue" points="340.406,-138.929 350.901,-137.48 341.792,-132.068 340.406,-138.929"/>
</g>
<!-- Node37 -->
<g id="node37" class="node"><title>Node37</title>
<g id="a_node37"><a xlink:href="../../d0/d7c/classuser_interface_1_1_u_i.html#a83df006468b1ce0b6b4f302393cc1ff3" target="_top" xlink:title="userInterface.UI.setUpController">
<polygon fill="white" stroke="black" points="314,-99.5 314,-118.5 484,-118.5 484,-99.5 314,-99.5"/>
<text text-anchor="middle" x="399" y="-106.5" font-family="Helvetica,sans-Serif" font-size="10.00">userInterface.UI.setUpController</text>
</a>
</g>
</g>
<!-- Node2&#45;&gt;Node37 -->
<g id="edge47" class="edge"><title>Node2&#45;&gt;Node37</title>
<path fill="none" stroke="midnightblue" d="M276.017,-109C285.03,-109 294.421,-109 303.814,-109"/>
<polygon fill="midnightblue" stroke="midnightblue" points="303.99,-112.5 313.99,-109 303.99,-105.5 303.99,-112.5"/>
</g>
<!-- Node38 -->
<g id="node38" class="node"><title>Node38</title>
<g id="a_node38"><a xlink:href="../../de/df4/classuser_interface_1_1_right_panel.html#ae098bace463240ddbdf7d5694755b7e3" target="_top" xlink:title="userInterface.RightPanel.get\lPanel">
<polygon fill="white" stroke="black" points="323.5,-50 323.5,-80 474.5,-80 474.5,-50 323.5,-50"/>
<text text-anchor="start" x="331.5" y="-68" font-family="Helvetica,sans-Serif" font-size="10.00">userInterface.RightPanel.get</text>
<text text-anchor="middle" x="399" y="-57" font-family="Helvetica,sans-Serif" font-size="10.00">Panel</text>
</a>
</g>
</g>
<!-- Node2&#45;&gt;Node38 -->
<g id="edge48" class="edge"><title>Node2&#45;&gt;Node38</title>
<path fill="none" stroke="midnightblue" d="M250.793,-99.4527C272.149,-94.4545 298.967,-88.1778 323.843,-82.3558"/>
<polygon fill="midnightblue" stroke="midnightblue" points="324.691,-85.7522 333.63,-80.0654 323.095,-78.9364 324.691,-85.7522"/>
</g>
<!-- Node39 -->
<g id="node39" class="node"><title>Node39</title>
<g id="a_node39"><a xlink:href="../../dc/d1b/classuser_interface_1_1_left_panel.html#a91b78c25a31b4542abda2aec48abbbf3" target="_top" xlink:title="userInterface.LeftPanel.get\lPanel">
<polygon fill="white" stroke="black" points="326.5,-1 326.5,-31 471.5,-31 471.5,-1 326.5,-1"/>
<text text-anchor="start" x="334.5" y="-19" font-family="Helvetica,sans-Serif" font-size="10.00">userInterface.LeftPanel.get</text>
<text text-anchor="middle" x="399" y="-8" font-family="Helvetica,sans-Serif" font-size="10.00">Panel</text>
</a>
</g>
</g>
<!-- Node2&#45;&gt;Node39 -->
<g id="edge49" class="edge"><title>Node2&#45;&gt;Node39</title>
<path fill="none" stroke="midnightblue" d="M221.838,-99.3349C240.142,-84.8154 276.88,-57.339 312,-41 317.022,-38.6635 322.312,-36.4931 327.698,-34.4879"/>
<polygon fill="midnightblue" stroke="midnightblue" points="329.186,-37.675 337.459,-31.0567 326.864,-31.0711 329.186,-37.675"/>
</g>
<!-- Node4 -->
<g id="node4" class="node"><title>Node4</title>
<g id="a_node4"><a xlink:href="../../d0/d7c/classuser_interface_1_1_u_i.html#a02bd34909b5d6037ea8ebe812879b90a" target="_top" xlink:title="userInterface.UI.makeRun\lButton">
<polygon fill="white" stroke="black" points="522,-176 522,-206 662,-206 662,-176 522,-176"/>
<text text-anchor="start" x="530" y="-194" font-family="Helvetica,sans-Serif" font-size="10.00">userInterface.UI.makeRun</text>
<text text-anchor="middle" x="592" y="-183" font-family="Helvetica,sans-Serif" font-size="10.00">Button</text>
</a>
</g>
</g>
<!-- Node3&#45;&gt;Node4 -->
<g id="edge3" class="edge"><title>Node3&#45;&gt;Node4</title>
<path fill="none" stroke="midnightblue" d="M486.001,-191C494.519,-191 503.139,-191 511.585,-191"/>
<polygon fill="midnightblue" stroke="midnightblue" points="511.784,-194.5 521.784,-191 511.784,-187.5 511.784,-194.5"/>
</g>
<!-- Node5 -->
<g id="node5" class="node"><title>Node5</title>
<g id="a_node5"><a xlink:href="../../d0/d7c/classuser_interface_1_1_u_i.html#ab17592b00ba0b808f524b4fc223303ec" target="_top" xlink:title="userInterface.UI.runCommand">
<polygon fill="white" stroke="black" points="698.5,-181.5 698.5,-200.5 859.5,-200.5 859.5,-181.5 698.5,-181.5"/>
<text text-anchor="middle" x="779" y="-188.5" font-family="Helvetica,sans-Serif" font-size="10.00">userInterface.UI.runCommand</text>
</a>
</g>
</g>
<!-- Node4&#45;&gt;Node5 -->
<g id="edge4" class="edge"><title>Node4&#45;&gt;Node5</title>
<path fill="none" stroke="midnightblue" d="M662.15,-191C670.633,-191 679.397,-191 688.129,-191"/>
<polygon fill="midnightblue" stroke="midnightblue" points="688.346,-194.5 698.346,-191 688.346,-187.5 688.346,-194.5"/>
</g>
<!-- Node6 -->
<g id="node6" class="node"><title>Node6</title>
<g id="a_node6"><a xlink:href="../../d8/d08/classworld_controller_1_1_world_controller.html#a178425d68e3e669c386706153ce44999" target="_top" xlink:title="worldController.WorldController.update">
<polygon fill="white" stroke="black" points="896,-181.5 896,-200.5 1094,-200.5 1094,-181.5 896,-181.5"/>
<text text-anchor="middle" x="995" y="-188.5" font-family="Helvetica,sans-Serif" font-size="10.00">worldController.WorldController.update</text>
</a>
</g>
</g>
<!-- Node5&#45;&gt;Node6 -->
<g id="edge5" class="edge"><title>Node5&#45;&gt;Node6</title>
<path fill="none" stroke="midnightblue" d="M859.686,-191C868.142,-191 876.841,-191 885.554,-191"/>
<polygon fill="midnightblue" stroke="midnightblue" points="885.774,-194.5 895.773,-191 885.773,-187.5 885.774,-194.5"/>
</g>
<!-- Node7 -->
<g id="node7" class="node"><title>Node7</title>
<g id="a_node7"><a xlink:href="../../df/dcb/classturtle_1_1_turtle.html#a610aafaf658c4b351330b7c16c66881c" target="_top" xlink:title="turtle.Turtle.updatePenAttributes">
<polygon fill="white" stroke="black" points="1137.5,-301.5 1137.5,-320.5 1310.5,-320.5 1310.5,-301.5 1137.5,-301.5"/>
<text text-anchor="middle" x="1224" y="-308.5" font-family="Helvetica,sans-Serif" font-size="10.00">turtle.Turtle.updatePenAttributes</text>
</a>
</g>
</g>
<!-- Node6&#45;&gt;Node7 -->
<g id="edge6" class="edge"><title>Node6&#45;&gt;Node7</title>
<path fill="none" stroke="midnightblue" d="M1014.19,-200.617C1053.96,-221.638 1148.8,-271.776 1195.74,-296.587"/>
<polygon fill="midnightblue" stroke="midnightblue" points="1194.24,-299.758 1204.72,-301.337 1197.52,-293.569 1194.24,-299.758"/>
</g>
<!-- Node10 -->
<g id="node10" class="node"><title>Node10</title>
<g id="a_node10"><a xlink:href="../../d9/dd0/classworld_1_1_world.html#ae370733f7784c42741a6ba66c7d2ecf5" target="_top" xlink:title="world.World.listen">
<polygon fill="white" stroke="black" points="1175,-181.5 1175,-200.5 1273,-200.5 1273,-181.5 1175,-181.5"/>
<text text-anchor="middle" x="1224" y="-188.5" font-family="Helvetica,sans-Serif" font-size="10.00">world.World.listen</text>
</a>
</g>
</g>
<!-- Node6&#45;&gt;Node10 -->
<g id="edge9" class="edge"><title>Node6&#45;&gt;Node10</title>
<path fill="none" stroke="midnightblue" d="M1094.25,-191C1118.24,-191 1143.16,-191 1164.61,-191"/>
<polygon fill="midnightblue" stroke="midnightblue" points="1164.84,-194.5 1174.84,-191 1164.84,-187.5 1164.84,-194.5"/>
</g>
<!-- Node33 -->
<g id="node33" class="node"><title>Node33</title>
<g id="a_node33"><a xlink:href="../../d8/d08/classworld_controller_1_1_world_controller.html#a9380abb3ed5334498510f1d6a88a826d" target="_top" xlink:title="worldController.WorldController.draw\lTurtle">
<polygon fill="white" stroke="black" points="1130.5,-89 1130.5,-119 1317.5,-119 1317.5,-89 1130.5,-89"/>
<text text-anchor="start" x="1138.5" y="-107" font-family="Helvetica,sans-Serif" font-size="10.00">worldController.WorldController.draw</text>
<text text-anchor="middle" x="1224" y="-96" font-family="Helvetica,sans-Serif" font-size="10.00">Turtle</text>
</a>
</g>
</g>
<!-- Node6&#45;&gt;Node33 -->
<g id="edge43" class="edge"><title>Node6&#45;&gt;Node33</title>
<path fill="none" stroke="midnightblue" d="M1021.16,-181.357C1057.99,-167.243 1127.28,-140.685 1174.29,-122.669"/>
<polygon fill="midnightblue" stroke="midnightblue" points="1175.58,-125.921 1183.67,-119.074 1173.08,-119.385 1175.58,-125.921"/>
</g>
<!-- Node8 -->
<g id="node8" class="node"><title>Node8</title>
<g id="a_node8"><a xlink:href="../../de/d57/classturtle_1_1_pen.html#ac9a08745a9f3615b9e47c1c8e5af8f1b" target="_top" xlink:title="turtle.Pen.getColor">
<polygon fill="white" stroke="black" points="1394.5,-339.5 1394.5,-358.5 1501.5,-358.5 1501.5,-339.5 1394.5,-339.5"/>
<text text-anchor="middle" x="1448" y="-346.5" font-family="Helvetica,sans-Serif" font-size="10.00">turtle.Pen.getColor</text>
</a>
</g>
</g>
<!-- Node7&#45;&gt;Node8 -->
<g id="edge7" class="edge"><title>Node7&#45;&gt;Node8</title>
<path fill="none" stroke="midnightblue" d="M1280.73,-320.54C1312.28,-325.939 1351.82,-332.707 1384.42,-338.288"/>
<polygon fill="midnightblue" stroke="midnightblue" points="1383.85,-341.742 1394.3,-339.979 1385.03,-334.842 1383.85,-341.742"/>
</g>
<!-- Node9 -->
<g id="node9" class="node"><title>Node9</title>
<g id="a_node9"><a xlink:href="../../de/d57/classturtle_1_1_pen.html#a76c8dc4e66927e7d3774ea00b2266640" target="_top" xlink:title="turtle.Pen.getSize">
<polygon fill="white" stroke="black" points="1397,-301.5 1397,-320.5 1499,-320.5 1499,-301.5 1397,-301.5"/>
<text text-anchor="middle" x="1448" y="-308.5" font-family="Helvetica,sans-Serif" font-size="10.00">turtle.Pen.getSize</text>
</a>
</g>
</g>
<!-- Node7&#45;&gt;Node9 -->
<g id="edge8" class="edge"><title>Node7&#45;&gt;Node9</title>
<path fill="none" stroke="midnightblue" d="M1310.51,-311C1335.94,-311 1363.26,-311 1386.72,-311"/>
<polygon fill="midnightblue" stroke="midnightblue" points="1386.87,-314.5 1396.87,-311 1386.87,-307.5 1386.87,-314.5"/>
</g>
<!-- Node11 -->
<g id="node11" class="node"><title>Node11</title>
<g id="a_node11"><a xlink:href="../../d6/d95/classparser_1_1_parser.html#a240c75608624a9c67402a296855c4d1d" target="_top" xlink:title="parser.Parser.initialize\lCommands">
<polygon fill="white" stroke="black" points="1388,-176 1388,-206 1508,-206 1508,-176 1388,-176"/>
<text text-anchor="start" x="1396" y="-194" font-family="Helvetica,sans-Serif" font-size="10.00">parser.Parser.initialize</text>
<text text-anchor="middle" x="1448" y="-183" font-family="Helvetica,sans-Serif" font-size="10.00">Commands</text>
</a>
</g>
</g>
<!-- Node10&#45;&gt;Node11 -->
<g id="edge10" class="edge"><title>Node10&#45;&gt;Node11</title>
<path fill="none" stroke="midnightblue" d="M1273.17,-191C1303.68,-191 1343.63,-191 1377.54,-191"/>
<polygon fill="midnightblue" stroke="midnightblue" points="1377.85,-194.5 1387.85,-191 1377.85,-187.5 1377.85,-194.5"/>
</g>
<!-- Node15 -->
<g id="node15" class="node"><title>Node15</title>
<g id="a_node15"><a xlink:href="../../d6/d95/classparser_1_1_parser.html#a4ecbffc246c3add017c4720eed4c6da9" target="_top" xlink:title="parser.Parser.parse">
<polygon fill="white" stroke="black" points="1393.5,-225.5 1393.5,-244.5 1502.5,-244.5 1502.5,-225.5 1393.5,-225.5"/>
<text text-anchor="middle" x="1448" y="-232.5" font-family="Helvetica,sans-Serif" font-size="10.00">parser.Parser.parse</text>
</a>
</g>
</g>
<!-- Node10&#45;&gt;Node15 -->
<g id="edge14" class="edge"><title>Node10&#45;&gt;Node15</title>
<path fill="none" stroke="midnightblue" d="M1273.17,-200.547C1307.21,-207.293 1353,-216.369 1389.04,-223.511"/>
<polygon fill="midnightblue" stroke="midnightblue" points="1388.43,-226.96 1398.92,-225.471 1389.79,-220.094 1388.43,-226.96"/>
</g>
<!-- Node28 -->
<g id="node28" class="node"><title>Node28</title>
<g id="a_node28"><a xlink:href="../../d7/d35/classcommand_1_1_command.html#a957099a70dd30b5dc897e0caf07d2d99" target="_top" xlink:title="command.Command.getCommand\lValues">
<polygon fill="white" stroke="black" points="1354,-127 1354,-157 1542,-157 1542,-127 1354,-127"/>
<text text-anchor="start" x="1362" y="-145" font-family="Helvetica,sans-Serif" font-size="10.00">command.Command.getCommand</text>
<text text-anchor="middle" x="1448" y="-134" font-family="Helvetica,sans-Serif" font-size="10.00">Values</text>
</a>
</g>
</g>
<!-- Node10&#45;&gt;Node28 -->
<g id="edge38" class="edge"><title>Node10&#45;&gt;Node28</title>
<path fill="none" stroke="midnightblue" d="M1268.07,-181.494C1296.64,-175.187 1334.98,-166.725 1368.84,-159.252"/>
<polygon fill="midnightblue" stroke="midnightblue" points="1369.71,-162.644 1378.72,-157.071 1368.2,-155.809 1369.71,-162.644"/>
</g>
<!-- Node30 -->
<g id="node30" class="node"><title>Node30</title>
<g id="a_node30"><a xlink:href="../../d9/dd0/classworld_1_1_world.html#adcbcb8328c7e832fcb710a91457e6772" target="_top" xlink:title="world.World.runCommand">
<polygon fill="white" stroke="black" points="1378.5,-88.5 1378.5,-107.5 1517.5,-107.5 1517.5,-88.5 1378.5,-88.5"/>
<text text-anchor="middle" x="1448" y="-95.5" font-family="Helvetica,sans-Serif" font-size="10.00">world.World.runCommand</text>
</a>
</g>
</g>
<!-- Node10&#45;&gt;Node30 -->
<g id="edge40" class="edge"><title>Node10&#45;&gt;Node30</title>
<path fill="none" stroke="midnightblue" d="M1238.63,-181.427C1261.44,-165.84 1309.26,-135.013 1354,-118 1362.08,-114.929 1370.73,-112.278 1379.4,-110.004"/>
<polygon fill="midnightblue" stroke="midnightblue" points="1380.29,-113.39 1389.16,-107.593 1378.61,-106.594 1380.29,-113.39"/>
</g>
<!-- Node31 -->
<g id="node31" class="node"><title>Node31</title>
<g id="a_node31"><a xlink:href="../../d6/d95/classparser_1_1_parser.html#acebafe1593fc1f09ac31c7104438e4b1" target="_top" xlink:title="parser.Parser.resetRepcount">
<polygon fill="white" stroke="black" points="1372.5,-263.5 1372.5,-282.5 1523.5,-282.5 1523.5,-263.5 1372.5,-263.5"/>
<text text-anchor="middle" x="1448" y="-270.5" font-family="Helvetica,sans-Serif" font-size="10.00">parser.Parser.resetRepcount</text>
</a>
</g>
</g>
<!-- Node10&#45;&gt;Node31 -->
<g id="edge41" class="edge"><title>Node10&#45;&gt;Node31</title>
<path fill="none" stroke="midnightblue" d="M1241.13,-200.54C1265.01,-214.275 1311.53,-239.551 1354,-254 1361.96,-256.708 1370.44,-259.092 1378.92,-261.173"/>
<polygon fill="midnightblue" stroke="midnightblue" points="1378.31,-264.624 1388.85,-263.478 1379.9,-257.806 1378.31,-264.624"/>
</g>
<!-- Node12 -->
<g id="node12" class="node"><title>Node12</title>
<g id="a_node12"><a xlink:href="../../d6/d95/classparser_1_1_parser.html#a4f582c65390bddc57219c0b5c31ef5e7" target="_top" xlink:title="parser.Parser.makeTree">
<polygon fill="white" stroke="black" points="1607,-131.5 1607,-150.5 1735,-150.5 1735,-131.5 1607,-131.5"/>
<text text-anchor="middle" x="1671" y="-138.5" font-family="Helvetica,sans-Serif" font-size="10.00">parser.Parser.makeTree</text>
</a>
</g>
</g>
<!-- Node11&#45;&gt;Node12 -->
<g id="edge11" class="edge"><title>Node11&#45;&gt;Node12</title>
<path fill="none" stroke="midnightblue" d="M1508.04,-177.081C1529.99,-171.956 1555.12,-166.147 1578,-161 1590.08,-158.281 1603.08,-155.42 1615.38,-152.738"/>
<polygon fill="midnightblue" stroke="midnightblue" points="1616.49,-156.079 1625.52,-150.535 1615,-149.238 1616.49,-156.079"/>
</g>
<!-- Node13 -->
<g id="node13" class="node"><title>Node13</title>
<g id="a_node13"><a xlink:href="../../d9/d1b/classcommand_1_1_command_factory.html#a87bf7e648425bb22124367cabedb3327" target="_top" xlink:title="command.CommandFactory.get\lNumParameters">
<polygon fill="white" stroke="black" points="1819,-124 1819,-154 1989,-154 1989,-124 1819,-124"/>
<text text-anchor="start" x="1827" y="-142" font-family="Helvetica,sans-Serif" font-size="10.00">command.CommandFactory.get</text>
<text text-anchor="middle" x="1904" y="-131" font-family="Helvetica,sans-Serif" font-size="10.00">NumParameters</text>
</a>
</g>
</g>
<!-- Node12&#45;&gt;Node13 -->
<g id="edge12" class="edge"><title>Node12&#45;&gt;Node13</title>
<path fill="none" stroke="midnightblue" d="M1735.12,-140.453C1757.78,-140.257 1783.85,-140.032 1808.59,-139.817"/>
<polygon fill="midnightblue" stroke="midnightblue" points="1808.76,-143.316 1818.73,-139.73 1808.7,-136.316 1808.76,-143.316"/>
</g>
<!-- Node14 -->
<g id="node14" class="node"><title>Node14</title>
<g id="a_node14"><a xlink:href="../../d9/d1b/classcommand_1_1_command_factory.html#a947fdc151e857ea74564d0d1fe268246" target="_top" xlink:title="command.CommandFactory.translate\lCommand">
<polygon fill="white" stroke="black" points="2044.5,-165 2044.5,-195 2241.5,-195 2241.5,-165 2044.5,-165"/>
<text text-anchor="start" x="2052.5" y="-183" font-family="Helvetica,sans-Serif" font-size="10.00">command.CommandFactory.translate</text>
<text text-anchor="middle" x="2143" y="-172" font-family="Helvetica,sans-Serif" font-size="10.00">Command</text>
</a>
</g>
</g>
<!-- Node13&#45;&gt;Node14 -->
<g id="edge13" class="edge"><title>Node13&#45;&gt;Node14</title>
<path fill="none" stroke="midnightblue" d="M1989.22,-153.571C2007.38,-156.712 2026.71,-160.056 2045.3,-163.272"/>
<polygon fill="midnightblue" stroke="midnightblue" points="2044.79,-166.736 2055.25,-164.992 2045.99,-159.838 2044.79,-166.736"/>
</g>
<!-- Node15&#45;&gt;Node12 -->
<g id="edge37" class="edge"><title>Node15&#45;&gt;Node12</title>
<path fill="none" stroke="midnightblue" d="M1502.51,-230.718C1516.24,-227.752 1530.39,-222.895 1542,-215 1565.85,-198.777 1554.17,-177.249 1578,-161 1583.94,-156.948 1590.56,-153.699 1597.44,-151.095"/>
<polygon fill="midnightblue" stroke="midnightblue" points="1598.58,-154.407 1606.96,-147.93 1596.37,-147.765 1598.58,-154.407"/>
</g>
<!-- Node16 -->
<g id="node16" class="node"><title>Node16</title>
<g id="a_node16"><a xlink:href="../../d9/d1b/classcommand_1_1_command_factory.html#ab25bb047b051661d31adf73b2dae5649" target="_top" xlink:title="command.CommandFactory.create\lCommand">
<polygon fill="white" stroke="black" points="1578.5,-170 1578.5,-200 1763.5,-200 1763.5,-170 1578.5,-170"/>
<text text-anchor="start" x="1586.5" y="-188" font-family="Helvetica,sans-Serif" font-size="10.00">command.CommandFactory.create</text>
<text text-anchor="middle" x="1671" y="-177" font-family="Helvetica,sans-Serif" font-size="10.00">Command</text>
</a>
</g>
</g>
<!-- Node15&#45;&gt;Node16 -->
<g id="edge15" class="edge"><title>Node15&#45;&gt;Node16</title>
<path fill="none" stroke="midnightblue" d="M1494.45,-225.401C1509.59,-222.157 1526.53,-218.476 1542,-215 1559.85,-210.989 1579.07,-206.549 1597.05,-202.341"/>
<polygon fill="midnightblue" stroke="midnightblue" points="1597.96,-205.723 1606.9,-200.032 1596.37,-198.908 1597.96,-205.723"/>
</g>
<!-- Node18 -->
<g id="node18" class="node"><title>Node18</title>
<g id="a_node18"><a xlink:href="../../d6/d95/classparser_1_1_parser.html#aac1cff62f68138c7e977a67d39671701" target="_top" xlink:title="parser.Parser.generateCommand\lInput">
<polygon fill="white" stroke="black" points="1583,-296 1583,-326 1759,-326 1759,-296 1583,-296"/>
<text text-anchor="start" x="1591" y="-314" font-family="Helvetica,sans-Serif" font-size="10.00">parser.Parser.generateCommand</text>
<text text-anchor="middle" x="1671" y="-303" font-family="Helvetica,sans-Serif" font-size="10.00">Input</text>
</a>
</g>
</g>
<!-- Node15&#45;&gt;Node18 -->
<g id="edge18" class="edge"><title>Node15&#45;&gt;Node18</title>
<path fill="none" stroke="midnightblue" d="M1502.89,-241.824C1516.04,-244.615 1529.83,-248.526 1542,-254 1560.24,-262.201 1560.25,-271.776 1578,-281 1586.3,-285.313 1595.34,-289.169 1604.4,-292.562"/>
<polygon fill="midnightblue" stroke="midnightblue" points="1603.23,-295.862 1613.83,-295.931 1605.59,-289.27 1603.23,-295.862"/>
</g>
<!-- Node21 -->
<g id="node21" class="node"><title>Node21</title>
<g id="a_node21"><a xlink:href="../../d3/dcc/classparser_1_1_node.html#a9c12e8d4375a7517eae0a35724b253c4" target="_top" xlink:title="parser.Node.getValue">
<polygon fill="white" stroke="black" points="1844,-249.5 1844,-268.5 1964,-268.5 1964,-249.5 1844,-249.5"/>
<text text-anchor="middle" x="1904" y="-256.5" font-family="Helvetica,sans-Serif" font-size="10.00">parser.Node.getValue</text>
</a>
</g>
</g>
<!-- Node15&#45;&gt;Node21 -->
<g id="edge34" class="edge"><title>Node15&#45;&gt;Node21</title>
<path fill="none" stroke="midnightblue" d="M1502.6,-241.208C1525.76,-243.681 1553.18,-246.331 1578,-248 1666.09,-253.923 1767.83,-256.714 1833.68,-257.99"/>
<polygon fill="midnightblue" stroke="midnightblue" points="1833.87,-261.494 1843.93,-258.182 1834,-254.495 1833.87,-261.494"/>
</g>
<!-- Node23 -->
<g id="node23" class="node"><title>Node23</title>
<g id="a_node23"><a xlink:href="../../d6/d95/classparser_1_1_parser.html#a3efcd1192e76101919526b4a5e0046f4" target="_top" xlink:title="parser.Parser.getNodeBefore\lToReplace">
<polygon fill="white" stroke="black" points="1593.5,-345 1593.5,-375 1748.5,-375 1748.5,-345 1593.5,-345"/>
<text text-anchor="start" x="1601.5" y="-363" font-family="Helvetica,sans-Serif" font-size="10.00">parser.Parser.getNodeBefore</text>
<text text-anchor="middle" x="1671" y="-352" font-family="Helvetica,sans-Serif" font-size="10.00">ToReplace</text>
</a>
</g>
</g>
<!-- Node15&#45;&gt;Node23 -->
<g id="edge23" class="edge"><title>Node15&#45;&gt;Node23</title>
<path fill="none" stroke="midnightblue" d="M1502.95,-237.262C1516.83,-240.064 1530.95,-245.121 1542,-254 1572.71,-278.681 1548.1,-309.352 1578,-335 1580.03,-336.744 1582.18,-338.368 1584.41,-339.879"/>
<polygon fill="midnightblue" stroke="midnightblue" points="1583.02,-343.122 1593.42,-345.169 1586.57,-337.086 1583.02,-343.122"/>
</g>
<!-- Node26 -->
<g id="node26" class="node"><title>Node26</title>
<g id="a_node26"><a xlink:href="../../d6/d95/classparser_1_1_parser.html#a447c473b62ba23b7c144df9bb38a9a41" target="_top" xlink:title="parser.Parser.getNodeFor\lCommand">
<polygon fill="white" stroke="black" points="1602,-394 1602,-424 1740,-424 1740,-394 1602,-394"/>
<text text-anchor="start" x="1610" y="-412" font-family="Helvetica,sans-Serif" font-size="10.00">parser.Parser.getNodeFor</text>
<text text-anchor="middle" x="1671" y="-401" font-family="Helvetica,sans-Serif" font-size="10.00">Command</text>
</a>
</g>
</g>
<!-- Node15&#45;&gt;Node26 -->
<g id="edge29" class="edge"><title>Node15&#45;&gt;Node26</title>
<path fill="none" stroke="midnightblue" d="M1502.89,-236.022C1517.1,-238.766 1531.4,-244.103 1542,-254 1585.82,-294.913 1535.51,-341.71 1578,-384 1582.28,-388.263 1587.22,-391.819 1592.53,-394.782"/>
<polygon fill="midnightblue" stroke="midnightblue" points="1591.25,-398.049 1601.77,-399.23 1594.28,-391.741 1591.25,-398.049"/>
</g>
<!-- Node27 -->
<g id="node27" class="node"><title>Node27</title>
<g id="a_node27"><a xlink:href="../../d3/dcc/classparser_1_1_node.html#a066da2b478008f39a02440d7afceb9ee" target="_top" xlink:title="parser.Node.insertChild">
<polygon fill="white" stroke="black" points="1607,-219.5 1607,-238.5 1735,-238.5 1735,-219.5 1607,-219.5"/>
<text text-anchor="middle" x="1671" y="-226.5" font-family="Helvetica,sans-Serif" font-size="10.00">parser.Node.insertChild</text>
</a>
</g>
</g>
<!-- Node15&#45;&gt;Node27 -->
<g id="edge35" class="edge"><title>Node15&#45;&gt;Node27</title>
<path fill="none" stroke="midnightblue" d="M1502.78,-233.54C1531.02,-232.773 1566.04,-231.823 1596.72,-230.989"/>
<polygon fill="midnightblue" stroke="midnightblue" points="1597.04,-234.482 1606.94,-230.712 1596.85,-227.485 1597.04,-234.482"/>
</g>
<!-- Node16&#45;&gt;Node14 -->
<g id="edge17" class="edge"><title>Node16&#45;&gt;Node14</title>
<path fill="none" stroke="midnightblue" d="M1763.8,-198.676C1775.95,-200.051 1788.26,-201.224 1800,-202 1892.24,-208.099 1915.86,-209.513 2008,-202 2022.94,-200.782 2038.72,-198.812 2054.01,-196.539"/>
<polygon fill="midnightblue" stroke="midnightblue" points="2054.62,-199.986 2063.97,-195.006 2053.55,-193.068 2054.62,-199.986"/>
</g>
<!-- Node17 -->
<g id="node17" class="node"><title>Node17</title>
<g id="a_node17"><a xlink:href="../../d9/d1b/classcommand_1_1_command_factory.html#abd97ea3e22afc09e07ed1d4fd039d11f" target="_top" xlink:title="command.CommandFactory.reflectCMD">
<polygon fill="white" stroke="black" points="1800.5,-173.5 1800.5,-192.5 2007.5,-192.5 2007.5,-173.5 1800.5,-173.5"/>
<text text-anchor="middle" x="1904" y="-180.5" font-family="Helvetica,sans-Serif" font-size="10.00">command.CommandFactory.reflectCMD</text>
</a>
</g>
</g>
<!-- Node16&#45;&gt;Node17 -->
<g id="edge16" class="edge"><title>Node16&#45;&gt;Node17</title>
<path fill="none" stroke="midnightblue" d="M1763.63,-184.207C1772.42,-184.131 1781.39,-184.053 1790.35,-183.975"/>
<polygon fill="midnightblue" stroke="midnightblue" points="1790.47,-187.475 1800.44,-183.888 1790.41,-180.475 1790.47,-187.475"/>
</g>
<!-- Node19 -->
<g id="node19" class="node"><title>Node19</title>
<g id="a_node19"><a xlink:href="../../d3/dcc/classparser_1_1_node.html#aa67bc0d39227232943abec9b95b23235" target="_top" xlink:title="parser.Node.getChild1">
<polygon fill="white" stroke="black" points="1842.5,-363.5 1842.5,-382.5 1965.5,-382.5 1965.5,-363.5 1842.5,-363.5"/>
<text text-anchor="middle" x="1904" y="-370.5" font-family="Helvetica,sans-Serif" font-size="10.00">parser.Node.getChild1</text>
</a>
</g>
</g>
<!-- Node18&#45;&gt;Node19 -->
<g id="edge19" class="edge"><title>Node18&#45;&gt;Node19</title>
<path fill="none" stroke="midnightblue" d="M1733.91,-326.009C1744.07,-328.989 1754.41,-332.342 1764,-336 1780.71,-342.377 1783.04,-348.321 1800,-354 1810.3,-357.447 1821.4,-360.32 1832.36,-362.699"/>
<polygon fill="midnightblue" stroke="midnightblue" points="1831.87,-366.17 1842.37,-364.747 1833.27,-359.313 1831.87,-366.17"/>
</g>
<!-- Node20 -->
<g id="node20" class="node"><title>Node20</title>
<g id="a_node20"><a xlink:href="../../d3/dcc/classparser_1_1_node.html#a0f13775acc62af77cdde90dbeaf26bbc" target="_top" xlink:title="parser.Node.getChild2">
<polygon fill="white" stroke="black" points="1842.5,-325.5 1842.5,-344.5 1965.5,-344.5 1965.5,-325.5 1842.5,-325.5"/>
<text text-anchor="middle" x="1904" y="-332.5" font-family="Helvetica,sans-Serif" font-size="10.00">parser.Node.getChild2</text>
</a>
</g>
</g>
<!-- Node18&#45;&gt;Node20 -->
<g id="edge20" class="edge"><title>Node18&#45;&gt;Node20</title>
<path fill="none" stroke="midnightblue" d="M1759,-320.039C1783.18,-322.551 1809.13,-325.247 1832.25,-327.649"/>
<polygon fill="midnightblue" stroke="midnightblue" points="1832.01,-331.143 1842.32,-328.695 1832.73,-324.18 1832.01,-331.143"/>
</g>
<!-- Node18&#45;&gt;Node21 -->
<g id="edge21" class="edge"><title>Node18&#45;&gt;Node21</title>
<path fill="none" stroke="midnightblue" d="M1726.93,-295.941C1749.48,-289.991 1775.91,-283.32 1800,-278 1812.05,-275.339 1824.95,-272.754 1837.4,-270.391"/>
<polygon fill="midnightblue" stroke="midnightblue" points="1838.08,-273.825 1847.26,-268.546 1836.79,-266.944 1838.08,-273.825"/>
</g>
<!-- Node22 -->
<g id="node22" class="node"><title>Node22</title>
<g id="a_node22"><a xlink:href="../../d3/dcc/classparser_1_1_node.html#a6bbc0c61aaa261077eb87cfc4e2b45dc" target="_top" xlink:title="parser.Node.numChildren">
<polygon fill="white" stroke="black" points="1834.5,-287.5 1834.5,-306.5 1973.5,-306.5 1973.5,-287.5 1834.5,-287.5"/>
<text text-anchor="middle" x="1904" y="-294.5" font-family="Helvetica,sans-Serif" font-size="10.00">parser.Node.numChildren</text>
</a>
</g>
</g>
<!-- Node18&#45;&gt;Node22 -->
<g id="edge22" class="edge"><title>Node18&#45;&gt;Node22</title>
<path fill="none" stroke="midnightblue" d="M1759,-305.727C1780.43,-304.428 1803.26,-303.045 1824.28,-301.771"/>
<polygon fill="midnightblue" stroke="midnightblue" points="1824.66,-305.254 1834.43,-301.155 1824.24,-298.267 1824.66,-305.254"/>
</g>
<!-- Node23&#45;&gt;Node19 -->
<g id="edge24" class="edge"><title>Node23&#45;&gt;Node19</title>
<path fill="none" stroke="midnightblue" d="M1748.6,-364.311C1775.5,-365.825 1805.58,-367.518 1832,-369.004"/>
<polygon fill="midnightblue" stroke="midnightblue" points="1832.13,-372.517 1842.31,-369.585 1832.52,-365.528 1832.13,-372.517"/>
</g>
<!-- Node23&#45;&gt;Node20 -->
<g id="edge25" class="edge"><title>Node23&#45;&gt;Node20</title>
<path fill="none" stroke="midnightblue" d="M1748.6,-351.71C1775.62,-348.786 1805.85,-345.514 1832.35,-342.646"/>
<polygon fill="midnightblue" stroke="midnightblue" points="1832.75,-346.124 1842.31,-341.568 1831.99,-339.164 1832.75,-346.124"/>
</g>
<!-- Node23&#45;&gt;Node21 -->
<g id="edge26" class="edge"><title>Node23&#45;&gt;Node21</title>
<path fill="none" stroke="midnightblue" d="M1747.05,-344.833C1753.06,-342.084 1758.81,-338.836 1764,-335 1788.1,-317.193 1775.19,-294.793 1800,-278 1810.06,-271.193 1821.88,-266.644 1833.86,-263.639"/>
<polygon fill="midnightblue" stroke="midnightblue" points="1834.89,-266.997 1843.93,-261.462 1833.41,-260.155 1834.89,-266.997"/>
</g>
<!-- Node24 -->
<g id="node24" class="node"><title>Node24</title>
<g id="a_node24"><a xlink:href="../../d3/dcc/classparser_1_1_node.html#ab14db24c0724dec4387e29d513008e2e" target="_top" xlink:title="parser.Node.hasChildren">
<polygon fill="white" stroke="black" points="1837,-439.5 1837,-458.5 1971,-458.5 1971,-439.5 1837,-439.5"/>
<text text-anchor="middle" x="1904" y="-446.5" font-family="Helvetica,sans-Serif" font-size="10.00">parser.Node.hasChildren</text>
</a>
</g>
</g>
<!-- Node23&#45;&gt;Node24 -->
<g id="edge27" class="edge"><title>Node23&#45;&gt;Node24</title>
<path fill="none" stroke="midnightblue" d="M1744.73,-375.012C1751.5,-377.797 1758.05,-381.096 1764,-385 1785.41,-399.051 1778.02,-416.848 1800,-430 1808.22,-434.92 1817.42,-438.62 1826.85,-441.393"/>
<polygon fill="midnightblue" stroke="midnightblue" points="1826.17,-444.832 1836.73,-443.96 1827.93,-438.057 1826.17,-444.832"/>
</g>
<!-- Node25 -->
<g id="node25" class="node"><title>Node25</title>
<g id="a_node25"><a xlink:href="../../d3/dcc/classparser_1_1_node.html#aa92667a825777b3d757bc3b1a247ac20" target="_top" xlink:title="parser.Node.isLeaf">
<polygon fill="white" stroke="black" points="1851,-401.5 1851,-420.5 1957,-420.5 1957,-401.5 1851,-401.5"/>
<text text-anchor="middle" x="1904" y="-408.5" font-family="Helvetica,sans-Serif" font-size="10.00">parser.Node.isLeaf</text>
</a>
</g>
</g>
<!-- Node23&#45;&gt;Node25 -->
<g id="edge28" class="edge"><title>Node23&#45;&gt;Node25</title>
<path fill="none" stroke="midnightblue" d="M1728.85,-375.023C1750.98,-380.659 1776.61,-386.924 1800,-392 1813.1,-394.843 1827.19,-397.623 1840.62,-400.142"/>
<polygon fill="midnightblue" stroke="midnightblue" points="1840.27,-403.636 1850.74,-402.014 1841.54,-396.753 1840.27,-403.636"/>
</g>
<!-- Node26&#45;&gt;Node19 -->
<g id="edge30" class="edge"><title>Node26&#45;&gt;Node19</title>
<path fill="none" stroke="midnightblue" d="M1740.06,-398.394C1769.11,-393.867 1803,-388.585 1832.33,-384.014"/>
<polygon fill="midnightblue" stroke="midnightblue" points="1833.15,-387.427 1842.5,-382.429 1832.08,-380.511 1833.15,-387.427"/>
</g>
<!-- Node26&#45;&gt;Node20 -->
<g id="edge31" class="edge"><title>Node26&#45;&gt;Node20</title>
<path fill="none" stroke="midnightblue" d="M1740.1,-394.081C1748.36,-391.235 1756.51,-387.898 1764,-384 1782.47,-374.382 1781.14,-362.844 1800,-354 1810.12,-349.252 1821.32,-345.689 1832.5,-343.015"/>
<polygon fill="midnightblue" stroke="midnightblue" points="1833.27,-346.431 1842.29,-340.887 1831.78,-339.591 1833.27,-346.431"/>
</g>
<!-- Node26&#45;&gt;Node24 -->
<g id="edge32" class="edge"><title>Node26&#45;&gt;Node24</title>
<path fill="none" stroke="midnightblue" d="M1740.06,-420.785C1770.91,-426.127 1807.22,-432.415 1837.73,-437.697"/>
<polygon fill="midnightblue" stroke="midnightblue" points="1837.38,-441.19 1847.83,-439.448 1838.58,-434.293 1837.38,-441.19"/>
</g>
<!-- Node26&#45;&gt;Node25 -->
<g id="edge33" class="edge"><title>Node26&#45;&gt;Node25</title>
<path fill="none" stroke="midnightblue" d="M1740.06,-409.589C1771.86,-409.865 1809.48,-410.19 1840.55,-410.459"/>
<polygon fill="midnightblue" stroke="midnightblue" points="1840.79,-413.961 1850.82,-410.548 1840.85,-406.962 1840.79,-413.961"/>
</g>
<!-- Node27&#45;&gt;Node21 -->
<g id="edge36" class="edge"><title>Node27&#45;&gt;Node21</title>
<path fill="none" stroke="midnightblue" d="M1735.12,-237.198C1765.74,-241.174 1802.59,-245.959 1833.95,-250.032"/>
<polygon fill="midnightblue" stroke="midnightblue" points="1833.56,-253.511 1843.92,-251.328 1834.46,-246.569 1833.56,-253.511"/>
</g>
<!-- Node29 -->
<g id="node29" class="node"><title>Node29</title>
<g id="a_node29"><a xlink:href="../../d7/d35/classcommand_1_1_command.html#a7e1387db1d0d35d4dcd3a3ebe2ff902a" target="_top" xlink:title="command.Command.makeString">
<polygon fill="white" stroke="black" points="1582.5,-93.5 1582.5,-112.5 1759.5,-112.5 1759.5,-93.5 1582.5,-93.5"/>
<text text-anchor="middle" x="1671" y="-100.5" font-family="Helvetica,sans-Serif" font-size="10.00">command.Command.makeString</text>
</a>
</g>
</g>
<!-- Node28&#45;&gt;Node29 -->
<g id="edge39" class="edge"><title>Node28&#45;&gt;Node29</title>
<path fill="none" stroke="midnightblue" d="M1534.13,-126.977C1557.96,-122.772 1583.45,-118.273 1605.85,-114.321"/>
<polygon fill="midnightblue" stroke="midnightblue" points="1606.66,-117.732 1615.9,-112.547 1605.44,-110.838 1606.66,-117.732"/>
</g>
<!-- Node32 -->
<g id="node32" class="node"><title>Node32</title>
<g id="a_node32"><a xlink:href="../../d9/d1b/classcommand_1_1_command_factory.html#a0d59e4f0f925b5046957c0e054ce8bef" target="_top" xlink:title="command.CommandFactory.reset\lRepcount">
<polygon fill="white" stroke="black" points="1581.5,-443 1581.5,-473 1760.5,-473 1760.5,-443 1581.5,-443"/>
<text text-anchor="start" x="1589.5" y="-461" font-family="Helvetica,sans-Serif" font-size="10.00">command.CommandFactory.reset</text>
<text text-anchor="middle" x="1671" y="-450" font-family="Helvetica,sans-Serif" font-size="10.00">Repcount</text>
</a>
</g>
</g>
<!-- Node31&#45;&gt;Node32 -->
<g id="edge42" class="edge"><title>Node31&#45;&gt;Node32</title>
<path fill="none" stroke="midnightblue" d="M1523.9,-280.219C1530.56,-283.155 1536.75,-286.999 1542,-292 1588.83,-336.612 1532.62,-386.917 1578,-433 1579.44,-434.459 1580.95,-435.836 1582.53,-437.135"/>
<polygon fill="midnightblue" stroke="midnightblue" points="1580.72,-440.137 1590.92,-442.998 1584.73,-434.4 1580.72,-440.137"/>
</g>
<!-- Node34 -->
<g id="node34" class="node"><title>Node34</title>
<g id="a_node34"><a xlink:href="../../df/dcb/classturtle_1_1_turtle.html#a432dcb17f8c2751445c2c98e9b2f7fba" target="_top" xlink:title="turtle.Turtle.previousDrawLine">
<polygon fill="white" stroke="black" points="1369,-50.5 1369,-69.5 1527,-69.5 1527,-50.5 1369,-50.5"/>
<text text-anchor="middle" x="1448" y="-57.5" font-family="Helvetica,sans-Serif" font-size="10.00">turtle.Turtle.previousDrawLine</text>
</a>
</g>
</g>
<!-- Node33&#45;&gt;Node34 -->
<g id="edge44" class="edge"><title>Node33&#45;&gt;Node34</title>
<path fill="none" stroke="midnightblue" d="M1300.78,-88.9808C1329.63,-83.2633 1362.01,-76.844 1388.96,-71.5029"/>
<polygon fill="midnightblue" stroke="midnightblue" points="1389.88,-74.8899 1399.01,-69.5124 1388.52,-68.0234 1389.88,-74.8899"/>
</g>
<!-- Node35 -->
<g id="node35" class="node"><title>Node35</title>
<g id="a_node35"><a xlink:href="../../de/d57/classturtle_1_1_pen.html#a361f4e030646d953185a8afe94427ce2" target="_top" xlink:title="turtle.Pen.penReady">
<polygon fill="white" stroke="black" points="1614.5,-50.5 1614.5,-69.5 1727.5,-69.5 1727.5,-50.5 1614.5,-50.5"/>
<text text-anchor="middle" x="1671" y="-57.5" font-family="Helvetica,sans-Serif" font-size="10.00">turtle.Pen.penReady</text>
</a>
</g>
</g>
<!-- Node34&#45;&gt;Node35 -->
<g id="edge45" class="edge"><title>Node34&#45;&gt;Node35</title>
<path fill="none" stroke="midnightblue" d="M1527.23,-60C1552.43,-60 1580.1,-60 1604.3,-60"/>
<polygon fill="midnightblue" stroke="midnightblue" points="1604.45,-63.5001 1614.45,-60 1604.45,-56.5001 1604.45,-63.5001"/>
</g>
</g>
</svg>
