<?xml version="1.0" encoding="UTF-8" standalone="no"?>
<!DOCTYPE svg PUBLIC "-//W3C//DTD SVG 1.1//EN"
 "http://www.w3.org/Graphics/SVG/1.1/DTD/svg11.dtd">
<!-- Generated by graphviz version 2.36.0 (20140111.2315)
 -->
<!-- Title: userInterface.UI.makeRunButton Pages: 1 -->
<!--zoomable 458 -->
<svg id="main" version="1.1" xmlns="http://www.w3.org/2000/svg" xmlns:xlink="http://www.w3.org/1999/xlink" xml:space="preserve" onload="init(evt)">
<style type="text/css"><![CDATA[
.edge:hover path { stroke: red; }
.edge:hover polygon { stroke: red; fill: red; }
]]></style>
<script type="text/javascript"><![CDATA[
var edges = document.getElementsByTagName('g');
if (edges && edges.length) {
  for (var i=0;i<edges.length;i++) {
    if (edges[i].id.substr(0,4)=='edge') {
      edges[i].setAttribute('class','edge');
    }
  }
}
]]></script>
        <defs>
                <circle id="rim" cx="0" cy="0" r="7"/>
                <circle id="rim2" cx="0" cy="0" r="3.5"/>
                <g id="zoomPlus">
                        <use xlink:href="#rim" fill="#404040">
                                <set attributeName="fill" to="#808080" begin="zoomplus.mouseover" end="zoomplus.mouseout"/>
                        </use>
                        <path d="M-4,0h8M0,-4v8" fill="none" stroke="white" stroke-width="1.5" pointer-events="none"/>
                </g>
                <g id="zoomMin">
                        <use xlink:href="#rim" fill="#404040">
                                <set attributeName="fill" to="#808080" begin="zoomminus.mouseover" end="zoomminus.mouseout"/>
                        </use>
                        <path d="M-4,0h8" fill="none" stroke="white" stroke-width="1.5" pointer-events="none"/>
                </g>
                <g id="dirArrow">
                        <path fill="none" stroke="white" stroke-width="1.5" d="M0,-3.0v7 M-2.5,-0.5L0,-3.0L2.5,-0.5"/>
                </g>
               <g id="resetDef">
                       <use xlink:href="#rim2" fill="#404040">
                               <set attributeName="fill" to="#808080" begin="reset.mouseover" end="reset.mouseout"/>
                       </use>
               </g>
        </defs>

<script type="text/javascript">
var viewWidth = 1716;
var viewHeight = 458;
var sectionId = 'dynsection-8';
</script>
<script xlink:href="../../svgpan.js"/>
<svg id="graph" class="graph">
<g id="viewport">
<title>userInterface.UI.makeRunButton</title>
<polygon fill="white" stroke="none" points="-4,4 -4,-454 1712,-454 1712,4 -4,4"/>
<!-- Node1 -->
<g id="node1" class="node"><title>Node1</title>
<polygon fill="#bfbfbf" stroke="black" points="0,-195 0,-225 140,-225 140,-195 0,-195"/>
<text text-anchor="start" x="8" y="-213" font-family="Helvetica,sans-Serif" font-size="10.00">userInterface.UI.makeRun</text>
<text text-anchor="middle" x="70" y="-202" font-family="Helvetica,sans-Serif" font-size="10.00">Button</text>
</g>
<!-- Node2 -->
<g id="node2" class="node"><title>Node2</title>
<g id="a_node2"><a xlink:href="../../d0/d7c/classuser_interface_1_1_u_i.html#ab17592b00ba0b808f524b4fc223303ec" target="_top" xlink:title="userInterface.UI.runCommand">
<polygon fill="white" stroke="black" points="176.5,-200.5 176.5,-219.5 337.5,-219.5 337.5,-200.5 176.5,-200.5"/>
<text text-anchor="middle" x="257" y="-207.5" font-family="Helvetica,sans-Serif" font-size="10.00">userInterface.UI.runCommand</text>
</a>
</g>
</g>
<!-- Node1&#45;&gt;Node2 -->
<g id="edge1" class="edge"><title>Node1&#45;&gt;Node2</title>
<path fill="none" stroke="midnightblue" d="M140.15,-210C148.633,-210 157.397,-210 166.129,-210"/>
<polygon fill="midnightblue" stroke="midnightblue" points="166.346,-213.5 176.346,-210 166.346,-206.5 166.346,-213.5"/>
</g>
<!-- Node3 -->
<g id="node3" class="node"><title>Node3</title>
<g id="a_node3"><a xlink:href="../../d8/d08/classworld_controller_1_1_world_controller.html#a178425d68e3e669c386706153ce44999" target="_top" xlink:title="worldController.WorldController.update">
<polygon fill="white" stroke="black" points="374,-200.5 374,-219.5 572,-219.5 572,-200.5 374,-200.5"/>
<text text-anchor="middle" x="473" y="-207.5" font-family="Helvetica,sans-Serif" font-size="10.00">worldController.WorldController.update</text>
</a>
</g>
</g>
<!-- Node2&#45;&gt;Node3 -->
<g id="edge2" class="edge"><title>Node2&#45;&gt;Node3</title>
<path fill="none" stroke="midnightblue" d="M337.686,-210C346.142,-210 354.841,-210 363.554,-210"/>
<polygon fill="midnightblue" stroke="midnightblue" points="363.774,-213.5 373.773,-210 363.773,-206.5 363.774,-213.5"/>
</g>
<!-- Node4 -->
<g id="node4" class="node"><title>Node4</title>
<g id="a_node4"><a xlink:href="../../df/dcb/classturtle_1_1_turtle.html#a610aafaf658c4b351330b7c16c66881c" target="_top" xlink:title="turtle.Turtle.updatePenAttributes">
<polygon fill="white" stroke="black" points="608.5,-275.5 608.5,-294.5 781.5,-294.5 781.5,-275.5 608.5,-275.5"/>
<text text-anchor="middle" x="695" y="-282.5" font-family="Helvetica,sans-Serif" font-size="10.00">turtle.Turtle.updatePenAttributes</text>
</a>
</g>
</g>
<!-- Node3&#45;&gt;Node4 -->
<g id="edge3" class="edge"><title>Node3&#45;&gt;Node4</title>
<path fill="none" stroke="midnightblue" d="M502.311,-219.651C541.501,-233.012 612.383,-257.176 656.103,-272.081"/>
<polygon fill="midnightblue" stroke="midnightblue" points="655.203,-275.472 665.798,-275.386 657.462,-268.846 655.203,-275.472"/>
</g>
<!-- Node7 -->
<g id="node7" class="node"><title>Node7</title>
<g id="a_node7"><a xlink:href="../../d9/dd0/classworld_1_1_world.html#ae370733f7784c42741a6ba66c7d2ecf5" target="_top" xlink:title="world.World.listen">
<polygon fill="white" stroke="black" points="646,-125.5 646,-144.5 744,-144.5 744,-125.5 646,-125.5"/>
<text text-anchor="middle" x="695" y="-132.5" font-family="Helvetica,sans-Serif" font-size="10.00">world.World.listen</text>
</a>
</g>
</g>
<!-- Node3&#45;&gt;Node7 -->
<g id="edge6" class="edge"><title>Node3&#45;&gt;Node7</title>
<path fill="none" stroke="midnightblue" d="M502.311,-200.349C541.501,-186.988 612.383,-162.824 656.103,-147.919"/>
<polygon fill="midnightblue" stroke="midnightblue" points="657.462,-151.154 665.798,-144.614 655.203,-144.528 657.462,-151.154"/>
</g>
<!-- Node5 -->
<g id="node5" class="node"><title>Node5</title>
<g id="a_node5"><a xlink:href="../../de/d57/classturtle_1_1_pen.html#ac9a08745a9f3615b9e47c1c8e5af8f1b" target="_top" xlink:title="turtle.Pen.getColor">
<polygon fill="white" stroke="black" points="858.5,-313.5 858.5,-332.5 965.5,-332.5 965.5,-313.5 858.5,-313.5"/>
<text text-anchor="middle" x="912" y="-320.5" font-family="Helvetica,sans-Serif" font-size="10.00">turtle.Pen.getColor</text>
</a>
</g>
</g>
<!-- Node4&#45;&gt;Node5 -->
<g id="edge4" class="edge"><title>Node4&#45;&gt;Node5</title>
<path fill="none" stroke="midnightblue" d="M749.976,-294.54C779.945,-299.837 817.364,-306.45 848.586,-311.969"/>
<polygon fill="midnightblue" stroke="midnightblue" points="848.032,-315.425 858.488,-313.719 849.25,-308.532 848.032,-315.425"/>
</g>
<!-- Node6 -->
<g id="node6" class="node"><title>Node6</title>
<g id="a_node6"><a xlink:href="../../de/d57/classturtle_1_1_pen.html#a76c8dc4e66927e7d3774ea00b2266640" target="_top" xlink:title="turtle.Pen.getSize">
<polygon fill="white" stroke="black" points="861,-275.5 861,-294.5 963,-294.5 963,-275.5 861,-275.5"/>
<text text-anchor="middle" x="912" y="-282.5" font-family="Helvetica,sans-Serif" font-size="10.00">turtle.Pen.getSize</text>
</a>
</g>
</g>
<!-- Node4&#45;&gt;Node6 -->
<g id="edge5" class="edge"><title>Node4&#45;&gt;Node6</title>
<path fill="none" stroke="midnightblue" d="M781.591,-285C804.738,-285 829.299,-285 850.733,-285"/>
<polygon fill="midnightblue" stroke="midnightblue" points="850.984,-288.5 860.984,-285 850.984,-281.5 850.984,-288.5"/>
</g>
<!-- Node8 -->
<g id="node8" class="node"><title>Node8</title>
<g id="a_node8"><a xlink:href="../../d6/d95/classparser_1_1_parser.html#a240c75608624a9c67402a296855c4d1d" target="_top" xlink:title="parser.Parser.initialize\lCommands">
<polygon fill="white" stroke="black" points="852,-169 852,-199 972,-199 972,-169 852,-169"/>
<text text-anchor="start" x="860" y="-187" font-family="Helvetica,sans-Serif" font-size="10.00">parser.Parser.initialize</text>
<text text-anchor="middle" x="912" y="-176" font-family="Helvetica,sans-Serif" font-size="10.00">Commands</text>
</a>
</g>
</g>
<!-- Node7&#45;&gt;Node8 -->
<g id="edge7" class="edge"><title>Node7&#45;&gt;Node8</title>
<path fill="none" stroke="midnightblue" d="M737.709,-144.506C767.273,-151.244 807.625,-160.44 841.952,-168.263"/>
<polygon fill="midnightblue" stroke="midnightblue" points="841.397,-171.727 851.925,-170.536 842.953,-164.902 841.397,-171.727"/>
</g>
<!-- Node12 -->
<g id="node12" class="node"><title>Node12</title>
<g id="a_node12"><a xlink:href="../../d6/d95/classparser_1_1_parser.html#a4ecbffc246c3add017c4720eed4c6da9" target="_top" xlink:title="parser.Parser.parse">
<polygon fill="white" stroke="black" points="857.5,-237.5 857.5,-256.5 966.5,-256.5 966.5,-237.5 857.5,-237.5"/>
<text text-anchor="middle" x="912" y="-244.5" font-family="Helvetica,sans-Serif" font-size="10.00">parser.Parser.parse</text>
</a>
</g>
</g>
<!-- Node7&#45;&gt;Node12 -->
<g id="edge11" class="edge"><title>Node7&#45;&gt;Node12</title>
<path fill="none" stroke="midnightblue" d="M710.639,-144.691C733.161,-159.385 777.911,-187.729 818,-208 836.72,-217.465 858.288,-226.613 875.938,-233.668"/>
<polygon fill="midnightblue" stroke="midnightblue" points="874.711,-236.946 885.297,-237.36 877.28,-230.435 874.711,-236.946"/>
</g>
<!-- Node25 -->
<g id="node25" class="node"><title>Node25</title>
<g id="a_node25"><a xlink:href="../../d7/d35/classcommand_1_1_command.html#a957099a70dd30b5dc897e0caf07d2d99" target="_top" xlink:title="command.Command.getCommand\lValues">
<polygon fill="white" stroke="black" points="818,-120 818,-150 1006,-150 1006,-120 818,-120"/>
<text text-anchor="start" x="826" y="-138" font-family="Helvetica,sans-Serif" font-size="10.00">command.Command.getCommand</text>
<text text-anchor="middle" x="912" y="-127" font-family="Helvetica,sans-Serif" font-size="10.00">Values</text>
</a>
</g>
</g>
<!-- Node7&#45;&gt;Node25 -->
<g id="edge34" class="edge"><title>Node7&#45;&gt;Node25</title>
<path fill="none" stroke="midnightblue" d="M744.25,-135C763.146,-135 785.594,-135 807.797,-135"/>
<polygon fill="midnightblue" stroke="midnightblue" points="807.968,-138.5 817.968,-135 807.968,-131.5 807.968,-138.5"/>
</g>
<!-- Node27 -->
<g id="node27" class="node"><title>Node27</title>
<g id="a_node27"><a xlink:href="../../d6/d95/classparser_1_1_parser.html#a8679d61f4ae6c55910ef113bcdda2c75" target="_top" xlink:title="parser.Parser.updateVariable">
<polygon fill="white" stroke="black" points="835,-81.5 835,-100.5 989,-100.5 989,-81.5 835,-81.5"/>
<text text-anchor="middle" x="912" y="-88.5" font-family="Helvetica,sans-Serif" font-size="10.00">parser.Parser.updateVariable</text>
</a>
</g>
</g>
<!-- Node7&#45;&gt;Node27 -->
<g id="edge36" class="edge"><title>Node7&#45;&gt;Node27</title>
<path fill="none" stroke="midnightblue" d="M742.344,-125.496C765.132,-120.825 793.005,-115.114 818,-110 829.73,-107.6 842.293,-105.032 854.271,-102.584"/>
<polygon fill="midnightblue" stroke="midnightblue" points="855.067,-105.994 864.164,-100.563 853.666,-99.1356 855.067,-105.994"/>
</g>
<!-- Node29 -->
<g id="node29" class="node"><title>Node29</title>
<g id="a_node29"><a xlink:href="../../d9/dd0/classworld_1_1_world.html#adcbcb8328c7e832fcb710a91457e6772" target="_top" xlink:title="world.World.runCommand">
<polygon fill="white" stroke="black" points="842.5,-43.5 842.5,-62.5 981.5,-62.5 981.5,-43.5 842.5,-43.5"/>
<text text-anchor="middle" x="912" y="-50.5" font-family="Helvetica,sans-Serif" font-size="10.00">world.World.runCommand</text>
</a>
</g>
</g>
<!-- Node7&#45;&gt;Node29 -->
<g id="edge38" class="edge"><title>Node7&#45;&gt;Node29</title>
<path fill="none" stroke="midnightblue" d="M711.174,-125.413C733.659,-111.621 777.535,-86.273 818,-72 825.624,-69.311 833.74,-66.9548 841.881,-64.9028"/>
<polygon fill="midnightblue" stroke="midnightblue" points="842.871,-68.265 851.792,-62.5485 841.254,-61.4545 842.871,-68.265"/>
</g>
<!-- Node30 -->
<g id="node30" class="node"><title>Node30</title>
<g id="a_node30"><a xlink:href="../../d6/d95/classparser_1_1_parser.html#acebafe1593fc1f09ac31c7104438e4b1" target="_top" xlink:title="parser.Parser.resetRepcount">
<polygon fill="white" stroke="black" points="836.5,-5.5 836.5,-24.5 987.5,-24.5 987.5,-5.5 836.5,-5.5"/>
<text text-anchor="middle" x="912" y="-12.5" font-family="Helvetica,sans-Serif" font-size="10.00">parser.Parser.resetRepcount</text>
</a>
</g>
</g>
<!-- Node7&#45;&gt;Node30 -->
<g id="edge39" class="edge"><title>Node7&#45;&gt;Node30</title>
<path fill="none" stroke="midnightblue" d="M704.387,-125.416C722.768,-105.072 768.894,-57.5103 818,-34 823.237,-31.4926 828.794,-29.3156 834.484,-27.4254"/>
<polygon fill="midnightblue" stroke="midnightblue" points="835.59,-30.7476 844.152,-24.5074 833.568,-24.0461 835.59,-30.7476"/>
</g>
<!-- Node9 -->
<g id="node9" class="node"><title>Node9</title>
<g id="a_node9"><a xlink:href="../../d6/d95/classparser_1_1_parser.html#a4f582c65390bddc57219c0b5c31ef5e7" target="_top" xlink:title="parser.Parser.makeTree">
<polygon fill="white" stroke="black" points="1072,-163.5 1072,-182.5 1200,-182.5 1200,-163.5 1072,-163.5"/>
<text text-anchor="middle" x="1136" y="-170.5" font-family="Helvetica,sans-Serif" font-size="10.00">parser.Parser.makeTree</text>
</a>
</g>
</g>
<!-- Node8&#45;&gt;Node9 -->
<g id="edge8" class="edge"><title>Node8&#45;&gt;Node9</title>
<path fill="none" stroke="midnightblue" d="M972.2,-181.067C999.661,-179.706 1032.57,-178.075 1061.6,-176.637"/>
<polygon fill="midnightblue" stroke="midnightblue" points="1061.87,-180.128 1071.69,-176.137 1061.53,-173.136 1061.87,-180.128"/>
</g>
<!-- Node10 -->
<g id="node10" class="node"><title>Node10</title>
<g id="a_node10"><a xlink:href="../../d9/d1b/classcommand_1_1_command_factory.html#a87bf7e648425bb22124367cabedb3327" target="_top" xlink:title="command.CommandFactory.get\lNumParameters">
<polygon fill="white" stroke="black" points="1285,-115 1285,-145 1455,-145 1455,-115 1285,-115"/>
<text text-anchor="start" x="1293" y="-133" font-family="Helvetica,sans-Serif" font-size="10.00">command.CommandFactory.get</text>
<text text-anchor="middle" x="1370" y="-122" font-family="Helvetica,sans-Serif" font-size="10.00">NumParameters</text>
</a>
</g>
</g>
<!-- Node9&#45;&gt;Node10 -->
<g id="edge9" class="edge"><title>Node9&#45;&gt;Node10</title>
<path fill="none" stroke="midnightblue" d="M1188.49,-163.457C1214.75,-158.589 1247.49,-152.521 1277.85,-146.895"/>
<polygon fill="midnightblue" stroke="midnightblue" points="1278.84,-150.27 1288.04,-145.006 1277.57,-143.387 1278.84,-150.27"/>
</g>
<!-- Node11 -->
<g id="node11" class="node"><title>Node11</title>
<g id="a_node11"><a xlink:href="../../d9/d1b/classcommand_1_1_command_factory.html#a947fdc151e857ea74564d0d1fe268246" target="_top" xlink:title="command.CommandFactory.translate\lCommand">
<polygon fill="white" stroke="black" points="1510.5,-137 1510.5,-167 1707.5,-167 1707.5,-137 1510.5,-137"/>
<text text-anchor="start" x="1518.5" y="-155" font-family="Helvetica,sans-Serif" font-size="10.00">command.CommandFactory.translate</text>
<text text-anchor="middle" x="1609" y="-144" font-family="Helvetica,sans-Serif" font-size="10.00">Command</text>
</a>
</g>
</g>
<!-- Node10&#45;&gt;Node11 -->
<g id="edge10" class="edge"><title>Node10&#45;&gt;Node11</title>
<path fill="none" stroke="midnightblue" d="M1455.22,-137.818C1469.71,-139.163 1484.94,-140.577 1499.95,-141.97"/>
<polygon fill="midnightblue" stroke="midnightblue" points="1500.01,-145.491 1510.29,-142.93 1500.66,-138.521 1500.01,-145.491"/>
</g>
<!-- Node12&#45;&gt;Node9 -->
<g id="edge33" class="edge"><title>Node12&#45;&gt;Node9</title>
<path fill="none" stroke="midnightblue" d="M936.372,-237.359C955.215,-229.548 982.372,-218.203 1006,-208 1022.07,-201.058 1025.32,-197.339 1042,-192 1050.53,-189.269 1059.63,-186.841 1068.67,-184.711"/>
<polygon fill="midnightblue" stroke="midnightblue" points="1069.44,-188.125 1078.43,-182.516 1067.91,-181.296 1069.44,-188.125"/>
</g>
<!-- Node13 -->
<g id="node13" class="node"><title>Node13</title>
<g id="a_node13"><a xlink:href="../../d9/d1b/classcommand_1_1_command_factory.html#ab25bb047b051661d31adf73b2dae5649" target="_top" xlink:title="command.CommandFactory.create\lCommand">
<polygon fill="white" stroke="black" points="1043.5,-202 1043.5,-232 1228.5,-232 1228.5,-202 1043.5,-202"/>
<text text-anchor="start" x="1051.5" y="-220" font-family="Helvetica,sans-Serif" font-size="10.00">command.CommandFactory.create</text>
<text text-anchor="middle" x="1136" y="-209" font-family="Helvetica,sans-Serif" font-size="10.00">Command</text>
</a>
</g>
</g>
<!-- Node12&#45;&gt;Node13 -->
<g id="edge12" class="edge"><title>Node12&#45;&gt;Node13</title>
<path fill="none" stroke="midnightblue" d="M966.74,-239.738C986.749,-237.034 1010.18,-233.868 1033.08,-230.772"/>
<polygon fill="midnightblue" stroke="midnightblue" points="1033.77,-234.212 1043.21,-229.404 1032.83,-227.275 1033.77,-234.212"/>
</g>
<!-- Node15 -->
<g id="node15" class="node"><title>Node15</title>
<g id="a_node15"><a xlink:href="../../d6/d95/classparser_1_1_parser.html#aac1cff62f68138c7e977a67d39671701" target="_top" xlink:title="parser.Parser.generateCommand\lInput">
<polygon fill="white" stroke="black" points="1048,-349 1048,-379 1224,-379 1224,-349 1048,-349"/>
<text text-anchor="start" x="1056" y="-367" font-family="Helvetica,sans-Serif" font-size="10.00">parser.Parser.generateCommand</text>
<text text-anchor="middle" x="1136" y="-356" font-family="Helvetica,sans-Serif" font-size="10.00">Input</text>
</a>
</g>
</g>
<!-- Node12&#45;&gt;Node15 -->
<g id="edge15" class="edge"><title>Node12&#45;&gt;Node15</title>
<path fill="none" stroke="midnightblue" d="M966.72,-249.556C980.601,-252.359 994.779,-257.343 1006,-266 1034.64,-288.096 1014.05,-316.039 1042,-339 1044.03,-340.671 1046.17,-342.232 1048.39,-343.688"/>
<polygon fill="midnightblue" stroke="midnightblue" points="1046.89,-346.863 1057.3,-348.808 1050.38,-340.793 1046.89,-346.863"/>
</g>
<!-- Node20 -->
<g id="node20" class="node"><title>Node20</title>
<g id="a_node20"><a xlink:href="../../d6/d95/classparser_1_1_parser.html#a3efcd1192e76101919526b4a5e0046f4" target="_top" xlink:title="parser.Parser.getNodeBefore\lToReplace">
<polygon fill="white" stroke="black" points="1058.5,-300 1058.5,-330 1213.5,-330 1213.5,-300 1058.5,-300"/>
<text text-anchor="start" x="1066.5" y="-318" font-family="Helvetica,sans-Serif" font-size="10.00">parser.Parser.getNodeBefore</text>
<text text-anchor="middle" x="1136" y="-307" font-family="Helvetica,sans-Serif" font-size="10.00">ToReplace</text>
</a>
</g>
</g>
<!-- Node12&#45;&gt;Node20 -->
<g id="edge20" class="edge"><title>Node12&#45;&gt;Node20</title>
<path fill="none" stroke="midnightblue" d="M966.687,-254.3C979.844,-257.079 993.678,-260.866 1006,-266 1023.75,-273.396 1024.48,-282.066 1042,-290 1047.37,-292.431 1053.02,-294.666 1058.77,-296.713"/>
<polygon fill="midnightblue" stroke="midnightblue" points="1057.93,-300.122 1068.52,-299.983 1060.16,-293.485 1057.93,-300.122"/>
</g>
<!-- Node23 -->
<g id="node23" class="node"><title>Node23</title>
<g id="a_node23"><a xlink:href="../../d6/d95/classparser_1_1_parser.html#a447c473b62ba23b7c144df9bb38a9a41" target="_top" xlink:title="parser.Parser.getNodeFor\lCommand">
<polygon fill="white" stroke="black" points="1067,-251 1067,-281 1205,-281 1205,-251 1067,-251"/>
<text text-anchor="start" x="1075" y="-269" font-family="Helvetica,sans-Serif" font-size="10.00">parser.Parser.getNodeFor</text>
<text text-anchor="middle" x="1136" y="-258" font-family="Helvetica,sans-Serif" font-size="10.00">Command</text>
</a>
</g>
</g>
<!-- Node12&#45;&gt;Node23 -->
<g id="edge26" class="edge"><title>Node12&#45;&gt;Node23</title>
<path fill="none" stroke="midnightblue" d="M966.74,-251.599C993.601,-253.898 1026.62,-256.724 1056.28,-259.262"/>
<polygon fill="midnightblue" stroke="midnightblue" points="1056.35,-262.781 1066.61,-260.147 1056.94,-255.807 1056.35,-262.781"/>
</g>
<!-- Node24 -->
<g id="node24" class="node"><title>Node24</title>
<g id="a_node24"><a xlink:href="../../d3/dcc/classparser_1_1_node.html#a066da2b478008f39a02440d7afceb9ee" target="_top" xlink:title="parser.Node.insertChild">
<polygon fill="white" stroke="black" points="1072,-398.5 1072,-417.5 1200,-417.5 1200,-398.5 1072,-398.5"/>
<text text-anchor="middle" x="1136" y="-405.5" font-family="Helvetica,sans-Serif" font-size="10.00">parser.Node.insertChild</text>
</a>
</g>
</g>
<!-- Node12&#45;&gt;Node24 -->
<g id="edge31" class="edge"><title>Node12&#45;&gt;Node24</title>
<path fill="none" stroke="midnightblue" d="M966.785,-248.137C980.99,-250.883 995.317,-256.193 1006,-266 1047.65,-304.232 1000.55,-349.554 1042,-388 1047.79,-393.37 1054.66,-397.432 1062.01,-400.486"/>
<polygon fill="midnightblue" stroke="midnightblue" points="1060.93,-403.817 1071.52,-403.84 1063.25,-397.215 1060.93,-403.817"/>
</g>
<!-- Node13&#45;&gt;Node11 -->
<g id="edge14" class="edge"><title>Node13&#45;&gt;Node11</title>
<path fill="none" stroke="midnightblue" d="M1213.26,-201.968C1230.56,-198.793 1248.89,-195.615 1266,-193 1344.16,-181.058 1432.8,-170.515 1500.26,-163.111"/>
<polygon fill="midnightblue" stroke="midnightblue" points="1500.92,-166.561 1510.48,-161.996 1500.16,-159.602 1500.92,-166.561"/>
</g>
<!-- Node14 -->
<g id="node14" class="node"><title>Node14</title>
<g id="a_node14"><a xlink:href="../../d9/d1b/classcommand_1_1_command_factory.html#abd97ea3e22afc09e07ed1d4fd039d11f" target="_top" xlink:title="command.CommandFactory.reflectCMD">
<polygon fill="white" stroke="black" points="1266.5,-202.5 1266.5,-221.5 1473.5,-221.5 1473.5,-202.5 1266.5,-202.5"/>
<text text-anchor="middle" x="1370" y="-209.5" font-family="Helvetica,sans-Serif" font-size="10.00">command.CommandFactory.reflectCMD</text>
</a>
</g>
</g>
<!-- Node13&#45;&gt;Node14 -->
<g id="edge13" class="edge"><title>Node13&#45;&gt;Node14</title>
<path fill="none" stroke="midnightblue" d="M1228.69,-215.024C1237.81,-214.827 1247.13,-214.626 1256.43,-214.426"/>
<polygon fill="midnightblue" stroke="midnightblue" points="1256.57,-217.924 1266.49,-214.209 1256.42,-210.926 1256.57,-217.924"/>
</g>
<!-- Node16 -->
<g id="node16" class="node"><title>Node16</title>
<g id="a_node16"><a xlink:href="../../d3/dcc/classparser_1_1_node.html#aa67bc0d39227232943abec9b95b23235" target="_top" xlink:title="parser.Node.getChild1">
<polygon fill="white" stroke="black" points="1308.5,-316.5 1308.5,-335.5 1431.5,-335.5 1431.5,-316.5 1308.5,-316.5"/>
<text text-anchor="middle" x="1370" y="-323.5" font-family="Helvetica,sans-Serif" font-size="10.00">parser.Node.getChild1</text>
</a>
</g>
</g>
<!-- Node15&#45;&gt;Node16 -->
<g id="edge16" class="edge"><title>Node15&#45;&gt;Node16</title>
<path fill="none" stroke="midnightblue" d="M1224.05,-349.742C1249.36,-345.596 1276.64,-341.128 1300.63,-337.199"/>
<polygon fill="midnightblue" stroke="midnightblue" points="1301.39,-340.621 1310.69,-335.55 1300.26,-333.713 1301.39,-340.621"/>
</g>
<!-- Node17 -->
<g id="node17" class="node"><title>Node17</title>
<g id="a_node17"><a xlink:href="../../d3/dcc/classparser_1_1_node.html#a0f13775acc62af77cdde90dbeaf26bbc" target="_top" xlink:title="parser.Node.getChild2">
<polygon fill="white" stroke="black" points="1308.5,-354.5 1308.5,-373.5 1431.5,-373.5 1431.5,-354.5 1308.5,-354.5"/>
<text text-anchor="middle" x="1370" y="-361.5" font-family="Helvetica,sans-Serif" font-size="10.00">parser.Node.getChild2</text>
</a>
</g>
</g>
<!-- Node15&#45;&gt;Node17 -->
<g id="edge17" class="edge"><title>Node15&#45;&gt;Node17</title>
<path fill="none" stroke="midnightblue" d="M1224.05,-364C1248.46,-364 1274.71,-364 1298.07,-364"/>
<polygon fill="midnightblue" stroke="midnightblue" points="1298.23,-367.5 1308.23,-364 1298.23,-360.5 1298.23,-367.5"/>
</g>
<!-- Node18 -->
<g id="node18" class="node"><title>Node18</title>
<g id="a_node18"><a xlink:href="../../d3/dcc/classparser_1_1_node.html#a9c12e8d4375a7517eae0a35724b253c4" target="_top" xlink:title="parser.Node.getValue">
<polygon fill="white" stroke="black" points="1310,-392.5 1310,-411.5 1430,-411.5 1430,-392.5 1310,-392.5"/>
<text text-anchor="middle" x="1370" y="-399.5" font-family="Helvetica,sans-Serif" font-size="10.00">parser.Node.getValue</text>
</a>
</g>
</g>
<!-- Node15&#45;&gt;Node18 -->
<g id="edge18" class="edge"><title>Node15&#45;&gt;Node18</title>
<path fill="none" stroke="midnightblue" d="M1224.05,-378.258C1249.36,-382.404 1276.64,-386.872 1300.63,-390.801"/>
<polygon fill="midnightblue" stroke="midnightblue" points="1300.26,-394.287 1310.69,-392.45 1301.39,-387.379 1300.26,-394.287"/>
</g>
<!-- Node19 -->
<g id="node19" class="node"><title>Node19</title>
<g id="a_node19"><a xlink:href="../../d3/dcc/classparser_1_1_node.html#a6bbc0c61aaa261077eb87cfc4e2b45dc" target="_top" xlink:title="parser.Node.numChildren">
<polygon fill="white" stroke="black" points="1300.5,-430.5 1300.5,-449.5 1439.5,-449.5 1439.5,-430.5 1300.5,-430.5"/>
<text text-anchor="middle" x="1370" y="-437.5" font-family="Helvetica,sans-Serif" font-size="10.00">parser.Node.numChildren</text>
</a>
</g>
</g>
<!-- Node15&#45;&gt;Node19 -->
<g id="edge19" class="edge"><title>Node15&#45;&gt;Node19</title>
<path fill="none" stroke="midnightblue" d="M1207.43,-379.148C1215.25,-381.931 1222.94,-385.19 1230,-389 1248.84,-399.162 1246.77,-411.601 1266,-421 1273.63,-424.73 1281.91,-427.731 1290.34,-430.145"/>
<polygon fill="midnightblue" stroke="midnightblue" points="1289.72,-433.601 1300.28,-432.718 1291.48,-426.824 1289.72,-433.601"/>
</g>
<!-- Node20&#45;&gt;Node16 -->
<g id="edge21" class="edge"><title>Node20&#45;&gt;Node16</title>
<path fill="none" stroke="midnightblue" d="M1213.61,-318.632C1240.88,-319.925 1271.44,-321.374 1298.2,-322.643"/>
<polygon fill="midnightblue" stroke="midnightblue" points="1298.1,-326.142 1308.26,-323.12 1298.43,-319.15 1298.1,-326.142"/>
</g>
<!-- Node20&#45;&gt;Node17 -->
<g id="edge22" class="edge"><title>Node20&#45;&gt;Node17</title>
<path fill="none" stroke="midnightblue" d="M1198.88,-330C1220.11,-334.985 1244.05,-340.426 1266,-345 1278.43,-347.591 1291.74,-350.182 1304.53,-352.58"/>
<polygon fill="midnightblue" stroke="midnightblue" points="1304.18,-356.074 1314.65,-354.459 1305.46,-349.192 1304.18,-356.074"/>
</g>
<!-- Node20&#45;&gt;Node18 -->
<g id="edge23" class="edge"><title>Node20&#45;&gt;Node18</title>
<path fill="none" stroke="midnightblue" d="M1212.85,-330.146C1218.86,-332.658 1224.66,-335.587 1230,-339 1251.29,-352.61 1244.25,-370.145 1266,-383 1276.27,-389.071 1288.05,-393.278 1299.88,-396.178"/>
<polygon fill="midnightblue" stroke="midnightblue" points="1299.29,-399.63 1309.8,-398.318 1300.76,-392.788 1299.29,-399.63"/>
</g>
<!-- Node21 -->
<g id="node21" class="node"><title>Node21</title>
<g id="a_node21"><a xlink:href="../../d3/dcc/classparser_1_1_node.html#ab14db24c0724dec4387e29d513008e2e" target="_top" xlink:title="parser.Node.hasChildren">
<polygon fill="white" stroke="black" points="1303,-240.5 1303,-259.5 1437,-259.5 1437,-240.5 1303,-240.5"/>
<text text-anchor="middle" x="1370" y="-247.5" font-family="Helvetica,sans-Serif" font-size="10.00">parser.Node.hasChildren</text>
</a>
</g>
</g>
<!-- Node20&#45;&gt;Node21 -->
<g id="edge24" class="edge"><title>Node20&#45;&gt;Node21</title>
<path fill="none" stroke="midnightblue" d="M1201.78,-299.97C1211.38,-297.06 1221.05,-293.735 1230,-290 1247.09,-282.866 1248.63,-275.443 1266,-269 1274.58,-265.818 1283.76,-263.154 1292.98,-260.925"/>
<polygon fill="midnightblue" stroke="midnightblue" points="1293.98,-264.286 1302.97,-258.675 1292.45,-257.458 1293.98,-264.286"/>
</g>
<!-- Node22 -->
<g id="node22" class="node"><title>Node22</title>
<g id="a_node22"><a xlink:href="../../d3/dcc/classparser_1_1_node.html#aa92667a825777b3d757bc3b1a247ac20" target="_top" xlink:title="parser.Node.isLeaf">
<polygon fill="white" stroke="black" points="1317,-278.5 1317,-297.5 1423,-297.5 1423,-278.5 1317,-278.5"/>
<text text-anchor="middle" x="1370" y="-285.5" font-family="Helvetica,sans-Serif" font-size="10.00">parser.Node.isLeaf</text>
</a>
</g>
</g>
<!-- Node20&#45;&gt;Node22 -->
<g id="edge25" class="edge"><title>Node20&#45;&gt;Node22</title>
<path fill="none" stroke="midnightblue" d="M1213.61,-306.084C1243.7,-302.582 1277.81,-298.613 1306.38,-295.287"/>
<polygon fill="midnightblue" stroke="midnightblue" points="1307.12,-298.726 1316.65,-294.093 1306.31,-291.773 1307.12,-298.726"/>
</g>
<!-- Node23&#45;&gt;Node16 -->
<g id="edge27" class="edge"><title>Node23&#45;&gt;Node16</title>
<path fill="none" stroke="midnightblue" d="M1202.02,-281.103C1211.49,-283.787 1221.06,-286.769 1230,-290 1246.64,-296.015 1249.16,-301.572 1266,-307 1276.34,-310.331 1287.45,-313.142 1298.43,-315.494"/>
<polygon fill="midnightblue" stroke="midnightblue" points="1297.94,-318.967 1308.44,-317.527 1299.33,-312.107 1297.94,-318.967"/>
</g>
<!-- Node23&#45;&gt;Node17 -->
<g id="edge28" class="edge"><title>Node23&#45;&gt;Node17</title>
<path fill="none" stroke="midnightblue" d="M1205.18,-277.271C1214,-280.502 1222.55,-284.657 1230,-290 1253.75,-307.02 1241.67,-328.823 1266,-345 1275.66,-351.425 1286.91,-355.827 1298.34,-358.816"/>
<polygon fill="midnightblue" stroke="midnightblue" points="1297.88,-362.3 1308.41,-361.094 1299.43,-355.473 1297.88,-362.3"/>
</g>
<!-- Node23&#45;&gt;Node21 -->
<g id="edge29" class="edge"><title>Node23&#45;&gt;Node21</title>
<path fill="none" stroke="midnightblue" d="M1205.04,-261.308C1232.55,-259.411 1264.42,-257.212 1292.71,-255.261"/>
<polygon fill="midnightblue" stroke="midnightblue" points="1293.22,-258.734 1302.96,-254.555 1292.74,-251.751 1293.22,-258.734"/>
</g>
<!-- Node23&#45;&gt;Node22 -->
<g id="edge30" class="edge"><title>Node23&#45;&gt;Node22</title>
<path fill="none" stroke="midnightblue" d="M1205.04,-272.452C1237.11,-275.494 1275.12,-279.098 1306.47,-282.07"/>
<polygon fill="midnightblue" stroke="midnightblue" points="1306.54,-285.592 1316.82,-283.052 1307.2,-278.624 1306.54,-285.592"/>
</g>
<!-- Node24&#45;&gt;Node18 -->
<g id="edge32" class="edge"><title>Node24&#45;&gt;Node18</title>
<path fill="none" stroke="midnightblue" d="M1200.09,-406.368C1230.96,-405.57 1268.2,-404.607 1299.85,-403.788"/>
<polygon fill="midnightblue" stroke="midnightblue" points="1300.01,-407.286 1309.91,-403.528 1299.82,-400.288 1300.01,-407.286"/>
</g>
<!-- Node26 -->
<g id="node26" class="node"><title>Node26</title>
<g id="a_node26"><a xlink:href="../../d7/d35/classcommand_1_1_command.html#a7e1387db1d0d35d4dcd3a3ebe2ff902a" target="_top" xlink:title="command.Command.makeString">
<polygon fill="white" stroke="black" points="1047.5,-125.5 1047.5,-144.5 1224.5,-144.5 1224.5,-125.5 1047.5,-125.5"/>
<text text-anchor="middle" x="1136" y="-132.5" font-family="Helvetica,sans-Serif" font-size="10.00">command.Command.makeString</text>
</a>
</g>
</g>
<!-- Node25&#45;&gt;Node26 -->
<g id="edge35" class="edge"><title>Node25&#45;&gt;Node26</title>
<path fill="none" stroke="midnightblue" d="M1006.18,-135C1016.42,-135 1026.86,-135 1037.15,-135"/>
<polygon fill="midnightblue" stroke="midnightblue" points="1037.37,-138.5 1047.37,-135 1037.37,-131.5 1037.37,-138.5"/>
</g>
<!-- Node28 -->
<g id="node28" class="node"><title>Node28</title>
<g id="a_node28"><a xlink:href="../../d9/d1b/classcommand_1_1_command_factory.html#a8347db76764ea8308d029789b49519dd" target="_top" xlink:title="command.CommandFactory.update\lVariable">
<polygon fill="white" stroke="black" points="1042,-76 1042,-106 1230,-106 1230,-76 1042,-76"/>
<text text-anchor="start" x="1050" y="-94" font-family="Helvetica,sans-Serif" font-size="10.00">command.CommandFactory.update</text>
<text text-anchor="middle" x="1136" y="-83" font-family="Helvetica,sans-Serif" font-size="10.00">Variable</text>
</a>
</g>
</g>
<!-- Node27&#45;&gt;Node28 -->
<g id="edge37" class="edge"><title>Node27&#45;&gt;Node28</title>
<path fill="none" stroke="midnightblue" d="M989.089,-91C1002.72,-91 1017.14,-91 1031.4,-91"/>
<polygon fill="midnightblue" stroke="midnightblue" points="1031.73,-94.5001 1041.73,-91 1031.73,-87.5001 1031.73,-94.5001"/>
</g>
<!-- Node31 -->
<g id="node31" class="node"><title>Node31</title>
<g id="a_node31"><a xlink:href="../../d9/d1b/classcommand_1_1_command_factory.html#a0d59e4f0f925b5046957c0e054ce8bef" target="_top" xlink:title="command.CommandFactory.reset\lRepcount">
<polygon fill="white" stroke="black" points="1046.5,-0 1046.5,-30 1225.5,-30 1225.5,-0 1046.5,-0"/>
<text text-anchor="start" x="1054.5" y="-18" font-family="Helvetica,sans-Serif" font-size="10.00">command.CommandFactory.reset</text>
<text text-anchor="middle" x="1136" y="-7" font-family="Helvetica,sans-Serif" font-size="10.00">Repcount</text>
</a>
</g>
</g>
<!-- Node30&#45;&gt;Node31 -->
<g id="edge40" class="edge"><title>Node30&#45;&gt;Node31</title>
<path fill="none" stroke="midnightblue" d="M987.54,-15C1003.19,-15 1019.92,-15 1036.29,-15"/>
<polygon fill="midnightblue" stroke="midnightblue" points="1036.43,-18.5001 1046.43,-15 1036.43,-11.5001 1036.43,-18.5001"/>
</g>
</g>
</svg>
        <g id="navigator" transform="translate(0 0)" fill="#404254">
                <rect fill="#f2f5e9" fill-opacity="0.5" stroke="#606060" stroke-width=".5" x="0" y="0" width="60" height="60"/>
                <use id="zoomplus" xlink:href="#zoomPlus" x="17" y="9" onmousedown="handleZoom(evt,'in')"/>
                <use id="zoomminus" xlink:href="#zoomMin" x="42" y="9" onmousedown="handleZoom(evt,'out')"/>
                <use id="reset" xlink:href="#resetDef" x="30" y="36" onmousedown="handleReset()"/>
                <g id="arrowUp" xlink:href="#dirArrow" transform="translate(30 24)" onmousedown="handlePan(0,-1)">
                  <use xlink:href="#rim" fill="#404040">
                        <set attributeName="fill" to="#808080" begin="arrowUp.mouseover" end="arrowUp.mouseout"/>
                  </use>
                  <path fill="none" stroke="white" stroke-width="1.5" d="M0,-3.0v7 M-2.5,-0.5L0,-3.0L2.5,-0.5"/>
                </g>
                <g id="arrowRight" xlink:href="#dirArrow" transform="rotate(90) translate(36 -43)" onmousedown="handlePan(1,0)">
                  <use xlink:href="#rim" fill="#404040">
                        <set attributeName="fill" to="#808080" begin="arrowRight.mouseover" end="arrowRight.mouseout"/>
                  </use>
                  <path fill="none" stroke="white" stroke-width="1.5" d="M0,-3.0v7 M-2.5,-0.5L0,-3.0L2.5,-0.5"/>
                </g>
                <g id="arrowDown" xlink:href="#dirArrow" transform="rotate(180) translate(-30 -48)" onmousedown="handlePan(0,1)">
                  <use xlink:href="#rim" fill="#404040">
                        <set attributeName="fill" to="#808080" begin="arrowDown.mouseover" end="arrowDown.mouseout"/>
                  </use>
                  <path fill="none" stroke="white" stroke-width="1.5" d="M0,-3.0v7 M-2.5,-0.5L0,-3.0L2.5,-0.5"/>
                </g>
                <g id="arrowLeft" xlink:href="#dirArrow" transform="rotate(270) translate(-36 17)" onmousedown="handlePan(-1,0)">
                  <use xlink:href="#rim" fill="#404040">
                        <set attributeName="fill" to="#808080" begin="arrowLeft.mouseover" end="arrowLeft.mouseout"/>
                  </use>
                  <path fill="none" stroke="white" stroke-width="1.5" d="M0,-3.0v7 M-2.5,-0.5L0,-3.0L2.5,-0.5"/>
                </g>
        </g>
        <svg viewBox="0 0 15 15" width="100%" height="30px" preserveAspectRatio="xMaxYMin meet">
         <g id="arrow_out" transform="scale(0.3 0.3)">
          <a xlink:href="classuser_interface_1_1_u_i_a02bd34909b5d6037ea8ebe812879b90a_cgraph_org.svg" target="_base">
           <rect id="button" ry="5" rx="5" y="6" x="6" height="38" width="38"
                fill="#f2f5e9" fill-opacity="0.5" stroke="#606060" stroke-width="1.0"/>
           <path id="arrow"
             d="M 11.500037,31.436501 C 11.940474,20.09759 22.043105,11.32322 32.158766,21.979434 L 37.068811,17.246167 C 37.068811,17.246167 37.088388,32 37.088388,32 L 22.160133,31.978069 C 22.160133,31.978069 26.997745,27.140456 26.997745,27.140456 C 18.528582,18.264221 13.291696,25.230495 11.500037,31.436501 z"
             style="fill:#404040;"/>
          </a>
         </g>
        </svg>
</svg>
