<?xml version="1.0" encoding="UTF-8" standalone="no"?>
<!DOCTYPE svg PUBLIC "-//W3C//DTD SVG 1.1//EN"
 "http://www.w3.org/Graphics/SVG/1.1/DTD/svg11.dtd">
<!-- Generated by graphviz version 2.36.0 (20140111.2315)
 -->
<!-- Title: userInterface.Topbar.createLanguageOptions Pages: 1 -->
<svg width="532pt" height="38pt"
 viewBox="0.00 0.00 532.00 38.00" xmlns="http://www.w3.org/2000/svg" xmlns:xlink="http://www.w3.org/1999/xlink">
<g id="graph0" class="graph" transform="scale(1 1) rotate(0) translate(4 34)">
<title>userInterface.Topbar.createLanguageOptions</title>
<polygon fill="white" stroke="none" points="-4,4 -4,-34 528,-34 528,4 -4,4"/>
<!-- Node1 -->
<g id="node1" class="node"><title>Node1</title>
<polygon fill="#bfbfbf" stroke="black" points="0.5,-0 0.5,-30 147.5,-30 147.5,-0 0.5,-0"/>
<text text-anchor="start" x="8.5" y="-18" font-family="Helvetica,sans-Serif" font-size="10.00">userInterface.Topbar.create</text>
<text text-anchor="middle" x="74" y="-7" font-family="Helvetica,sans-Serif" font-size="10.00">LanguageOptions</text>
</g>
<!-- Node2 -->
<g id="node2" class="node"><title>Node2</title>
<g id="a_node2"><a xlink:href="../../d9/d3d/classuser_interface_1_1_topbar.html#adfe0dbb4c55d1051295c404c6341439b" target="_top" xlink:title="userInterface.Topbar.initialize">
<polygon fill="white" stroke="black" points="184.5,-5.5 184.5,-24.5 339.5,-24.5 339.5,-5.5 184.5,-5.5"/>
<text text-anchor="middle" x="262" y="-12.5" font-family="Helvetica,sans-Serif" font-size="10.00">userInterface.Topbar.initialize</text>
</a>
</g>
</g>
<!-- Node1&#45;&gt;Node2 -->
<g id="edge1" class="edge"><title>Node1&#45;&gt;Node2</title>
<path fill="none" stroke="midnightblue" d="M157.95,-15C166.735,-15 175.641,-15 184.349,-15"/>
<polygon fill="midnightblue" stroke="midnightblue" points="157.712,-11.5001 147.712,-15 157.712,-18.5001 157.712,-11.5001"/>
</g>
<!-- Node3 -->
<g id="node3" class="node"><title>Node3</title>
<g id="a_node3"><a xlink:href="../../d9/d3d/classuser_interface_1_1_topbar.html#a9fee687207722f9319ee1074107a63e5" target="_top" xlink:title="userInterface.Topbar.Topbar">
<polygon fill="white" stroke="black" points="376,-5.5 376,-24.5 524,-24.5 524,-5.5 376,-5.5"/>
<text text-anchor="middle" x="450" y="-12.5" font-family="Helvetica,sans-Serif" font-size="10.00">userInterface.Topbar.Topbar</text>
</a>
</g>
</g>
<!-- Node2&#45;&gt;Node3 -->
<g id="edge2" class="edge"><title>Node2&#45;&gt;Node3</title>
<path fill="none" stroke="midnightblue" d="M349.844,-15C358.505,-15 367.238,-15 375.74,-15"/>
<polygon fill="midnightblue" stroke="midnightblue" points="349.727,-11.5001 339.727,-15 349.727,-18.5001 349.727,-11.5001"/>
</g>
</g>
</svg>
