<?xml version="1.0" encoding="UTF-8" standalone="no"?>
<!DOCTYPE svg PUBLIC "-//W3C//DTD SVG 1.1//EN"
 "http://www.w3.org/Graphics/SVG/1.1/DTD/svg11.dtd">
<!-- Generated by graphviz version 2.36.0 (20140111.2315)
 -->
<!-- Title: userInterface.Topbar.initialize Pages: 1 -->
<svg width="534pt" height="136pt"
 viewBox="0.00 0.00 534.00 136.00" xmlns="http://www.w3.org/2000/svg" xmlns:xlink="http://www.w3.org/1999/xlink">
<g id="graph0" class="graph" transform="scale(1 1) rotate(0) translate(4 132)">
<title>userInterface.Topbar.initialize</title>
<polygon fill="white" stroke="none" points="-4,4 -4,-132 530,-132 530,4 -4,4"/>
<!-- Node1 -->
<g id="node1" class="node"><title>Node1</title>
<polygon fill="#bfbfbf" stroke="black" points="0.5,-54.5 0.5,-73.5 155.5,-73.5 155.5,-54.5 0.5,-54.5"/>
<text text-anchor="middle" x="78" y="-61.5" font-family="Helvetica,sans-Serif" font-size="10.00">userInterface.Topbar.initialize</text>
</g>
<!-- Node2 -->
<g id="node2" class="node"><title>Node2</title>
<g id="a_node2"><a xlink:href="../../d9/d3d/classuser_interface_1_1_topbar.html#a6022a8893568f91dfc36b8223a257c8e" target="_top" xlink:title="userInterface.Topbar.create\lColorChoices">
<polygon fill="white" stroke="black" points="192.5,-98 192.5,-128 339.5,-128 339.5,-98 192.5,-98"/>
<text text-anchor="start" x="200.5" y="-116" font-family="Helvetica,sans-Serif" font-size="10.00">userInterface.Topbar.create</text>
<text text-anchor="middle" x="266" y="-105" font-family="Helvetica,sans-Serif" font-size="10.00">ColorChoices</text>
</a>
</g>
</g>
<!-- Node1&#45;&gt;Node2 -->
<g id="edge1" class="edge"><title>Node1&#45;&gt;Node2</title>
<path fill="none" stroke="midnightblue" d="M115.304,-73.564C138.852,-79.7676 170.243,-88.0371 198.196,-95.401"/>
<polygon fill="midnightblue" stroke="midnightblue" points="197.359,-98.8 207.921,-97.963 199.142,-92.0309 197.359,-98.8"/>
</g>
<!-- Node3 -->
<g id="node3" class="node"><title>Node3</title>
<g id="a_node3"><a xlink:href="../../d9/d3d/classuser_interface_1_1_topbar.html#a1be294bda4285f829743c901cbb06b88" target="_top" xlink:title="userInterface.Topbar.create\lHelpLink">
<polygon fill="white" stroke="black" points="192.5,-49 192.5,-79 339.5,-79 339.5,-49 192.5,-49"/>
<text text-anchor="start" x="200.5" y="-67" font-family="Helvetica,sans-Serif" font-size="10.00">userInterface.Topbar.create</text>
<text text-anchor="middle" x="266" y="-56" font-family="Helvetica,sans-Serif" font-size="10.00">HelpLink</text>
</a>
</g>
</g>
<!-- Node1&#45;&gt;Node3 -->
<g id="edge2" class="edge"><title>Node1&#45;&gt;Node3</title>
<path fill="none" stroke="midnightblue" d="M155.727,-64C164.43,-64 173.329,-64 182.107,-64"/>
<polygon fill="midnightblue" stroke="midnightblue" points="182.336,-67.5001 192.336,-64 182.336,-60.5001 182.336,-67.5001"/>
</g>
<!-- Node5 -->
<g id="node5" class="node"><title>Node5</title>
<g id="a_node5"><a xlink:href="../../d9/d3d/classuser_interface_1_1_topbar.html#a8f3abe8a9910713096b4316e1a613fb2" target="_top" xlink:title="userInterface.Topbar.create\lLanguageOptions">
<polygon fill="white" stroke="black" points="192.5,-0 192.5,-30 339.5,-30 339.5,-0 192.5,-0"/>
<text text-anchor="start" x="200.5" y="-18" font-family="Helvetica,sans-Serif" font-size="10.00">userInterface.Topbar.create</text>
<text text-anchor="middle" x="266" y="-7" font-family="Helvetica,sans-Serif" font-size="10.00">LanguageOptions</text>
</a>
</g>
</g>
<!-- Node1&#45;&gt;Node5 -->
<g id="edge4" class="edge"><title>Node1&#45;&gt;Node5</title>
<path fill="none" stroke="midnightblue" d="M115.304,-54.436C138.852,-48.2324 170.243,-39.9629 198.196,-32.599"/>
<polygon fill="midnightblue" stroke="midnightblue" points="199.142,-35.9691 207.921,-30.037 197.359,-29.2 199.142,-35.9691"/>
</g>
<!-- Node4 -->
<g id="node4" class="node"><title>Node4</title>
<g id="a_node4"><a xlink:href="../../d9/d3d/classuser_interface_1_1_topbar.html#aadc633ad6218538f0974b286a4b3b3be" target="_top" xlink:title="userInterface.Topbar.display\lWebpage">
<polygon fill="white" stroke="black" points="376.5,-49 376.5,-79 525.5,-79 525.5,-49 376.5,-49"/>
<text text-anchor="start" x="384.5" y="-67" font-family="Helvetica,sans-Serif" font-size="10.00">userInterface.Topbar.display</text>
<text text-anchor="middle" x="451" y="-56" font-family="Helvetica,sans-Serif" font-size="10.00">Webpage</text>
</a>
</g>
</g>
<!-- Node3&#45;&gt;Node4 -->
<g id="edge3" class="edge"><title>Node3&#45;&gt;Node4</title>
<path fill="none" stroke="midnightblue" d="M339.589,-64C348.362,-64 357.378,-64 366.294,-64"/>
<polygon fill="midnightblue" stroke="midnightblue" points="366.3,-67.5001 376.3,-64 366.3,-60.5001 366.3,-67.5001"/>
</g>
</g>
</svg>
