<?xml version="1.0" encoding="UTF-8" standalone="no"?>
<!DOCTYPE svg PUBLIC "-//W3C//DTD SVG 1.1//EN"
 "http://www.w3.org/Graphics/SVG/1.1/DTD/svg11.dtd">
<!-- Generated by graphviz version 2.36.0 (20140111.2315)
 -->
<!-- Title: userInterface.UserInterface.runCommand Pages: 1 -->
<svg width="788pt" height="87pt"
 viewBox="0.00 0.00 788.00 87.00" xmlns="http://www.w3.org/2000/svg" xmlns:xlink="http://www.w3.org/1999/xlink">
<g id="graph0" class="graph" transform="scale(1 1) rotate(0) translate(4 83)">
<title>userInterface.UserInterface.runCommand</title>
<polygon fill="white" stroke="none" points="-4,4 -4,-83 784,-83 784,4 -4,4"/>
<!-- Node1 -->
<g id="node1" class="node"><title>Node1</title>
<polygon fill="#bfbfbf" stroke="black" points="0,-24 0,-54 166,-54 166,-24 0,-24"/>
<text text-anchor="start" x="8" y="-42" font-family="Helvetica,sans-Serif" font-size="10.00">userInterface.UserInterface.run</text>
<text text-anchor="middle" x="83" y="-31" font-family="Helvetica,sans-Serif" font-size="10.00">Command</text>
</g>
<!-- Node2 -->
<g id="node2" class="node"><title>Node2</title>
<g id="a_node2"><a xlink:href="../../dd/d8e/classuser_interface_1_1_user_interface.html#a4316649a1f81fcc1dcaf93c812bf6f3a" target="_top" xlink:title="userInterface.UserInterface.make\lRunButton">
<polygon fill="white" stroke="black" points="202.5,-47 202.5,-77 379.5,-77 379.5,-47 202.5,-47"/>
<text text-anchor="start" x="210.5" y="-65" font-family="Helvetica,sans-Serif" font-size="10.00">userInterface.UserInterface.make</text>
<text text-anchor="middle" x="291" y="-54" font-family="Helvetica,sans-Serif" font-size="10.00">RunButton</text>
</a>
</g>
</g>
<!-- Node1&#45;&gt;Node2 -->
<g id="edge1" class="edge"><title>Node1&#45;&gt;Node2</title>
<path fill="none" stroke="midnightblue" d="M176.121,-49.2854C184.789,-50.2531 193.561,-51.2325 202.187,-52.1956"/>
<polygon fill="midnightblue" stroke="midnightblue" points="176.335,-45.7876 166.009,-48.1563 175.558,-52.7444 176.335,-45.7876"/>
</g>
<!-- Node5 -->
<g id="node5" class="node"><title>Node5</title>
<g id="a_node5"><a xlink:href="../../dd/d8e/classuser_interface_1_1_user_interface.html#a560c36977fddeee87002333870c54ed6" target="_top" xlink:title="userInterface.UserInterface.set\lUpResponses">
<polygon fill="white" stroke="black" points="422.5,-0 422.5,-30 587.5,-30 587.5,-0 422.5,-0"/>
<text text-anchor="start" x="430.5" y="-18" font-family="Helvetica,sans-Serif" font-size="10.00">userInterface.UserInterface.set</text>
<text text-anchor="middle" x="505" y="-7" font-family="Helvetica,sans-Serif" font-size="10.00">UpResponses</text>
</a>
</g>
</g>
<!-- Node1&#45;&gt;Node5 -->
<g id="edge4" class="edge"><title>Node1&#45;&gt;Node5</title>
<path fill="none" stroke="midnightblue" d="M176.405,-33.7197C249.911,-29.5193 351.786,-23.698 422.328,-19.667"/>
<polygon fill="midnightblue" stroke="midnightblue" points="176.011,-30.2364 166.227,-34.3013 176.411,-37.225 176.011,-30.2364"/>
</g>
<!-- Node3 -->
<g id="node3" class="node"><title>Node3</title>
<g id="a_node3"><a xlink:href="../../dd/d8e/classuser_interface_1_1_user_interface.html#a6d39ee7d7ae35fc0539bb714bce6221a" target="_top" xlink:title="userInterface.UserInterface.make\lFunctionButtons">
<polygon fill="white" stroke="black" points="416.5,-49 416.5,-79 593.5,-79 593.5,-49 416.5,-49"/>
<text text-anchor="start" x="424.5" y="-67" font-family="Helvetica,sans-Serif" font-size="10.00">userInterface.UserInterface.make</text>
<text text-anchor="middle" x="505" y="-56" font-family="Helvetica,sans-Serif" font-size="10.00">FunctionButtons</text>
</a>
</g>
</g>
<!-- Node2&#45;&gt;Node3 -->
<g id="edge2" class="edge"><title>Node2&#45;&gt;Node3</title>
<path fill="none" stroke="midnightblue" d="M390.01,-62.9246C398.783,-63.0074 407.629,-63.0908 416.307,-63.1727"/>
<polygon fill="midnightblue" stroke="midnightblue" points="389.791,-59.4225 379.759,-62.8279 389.725,-66.4222 389.791,-59.4225"/>
</g>
<!-- Node4 -->
<g id="node4" class="node"><title>Node4</title>
<g id="a_node4"><a xlink:href="../../dd/d8e/classuser_interface_1_1_user_interface.html#af296b064499e62c4fbfbf73da6456532" target="_top" xlink:title="userInterface.UserInterface.\lUserInterface">
<polygon fill="white" stroke="black" points="630,-24 630,-54 780,-54 780,-24 630,-24"/>
<text text-anchor="start" x="638" y="-42" font-family="Helvetica,sans-Serif" font-size="10.00">userInterface.UserInterface.</text>
<text text-anchor="middle" x="705" y="-31" font-family="Helvetica,sans-Serif" font-size="10.00">UserInterface</text>
</a>
</g>
</g>
<!-- Node3&#45;&gt;Node4 -->
<g id="edge3" class="edge"><title>Node3&#45;&gt;Node4</title>
<path fill="none" stroke="midnightblue" d="M603.674,-51.6674C612.518,-50.5507 621.376,-49.4323 629.966,-48.3478"/>
<polygon fill="midnightblue" stroke="midnightblue" points="603.193,-48.2003 593.71,-52.9255 604.07,-55.1451 603.193,-48.2003"/>
</g>
<!-- Node5&#45;&gt;Node4 -->
<g id="edge5" class="edge"><title>Node5&#45;&gt;Node4</title>
<path fill="none" stroke="midnightblue" d="M597.883,-26.1374C608.581,-27.4341 619.39,-28.7443 629.808,-30.007"/>
<polygon fill="midnightblue" stroke="midnightblue" points="598.026,-22.6291 587.677,-24.9003 597.183,-29.5782 598.026,-22.6291"/>
</g>
</g>
</svg>
