<?xml version="1.0" encoding="UTF-8" standalone="no"?>
<!DOCTYPE svg PUBLIC "-//W3C//DTD SVG 1.1//EN"
 "http://www.w3.org/Graphics/SVG/1.1/DTD/svg11.dtd">
<!-- Generated by graphviz version 2.36.0 (20140111.2315)
 -->
<!-- Title: userInterface.UserInterface.runCommand Pages: 1 -->
<!--zoomable 410 -->
<svg id="main" version="1.1" xmlns="http://www.w3.org/2000/svg" xmlns:xlink="http://www.w3.org/1999/xlink" xml:space="preserve" onload="init(evt)">
<style type="text/css"><![CDATA[
.edge:hover path { stroke: red; }
.edge:hover polygon { stroke: red; fill: red; }
]]></style>
<script type="text/javascript"><![CDATA[
var edges = document.getElementsByTagName('g');
if (edges && edges.length) {
  for (var i=0;i<edges.length;i++) {
    if (edges[i].id.substr(0,4)=='edge') {
      edges[i].setAttribute('class','edge');
    }
  }
}
]]></script>
        <defs>
                <circle id="rim" cx="0" cy="0" r="7"/>
                <circle id="rim2" cx="0" cy="0" r="3.5"/>
                <g id="zoomPlus">
                        <use xlink:href="#rim" fill="#404040">
                                <set attributeName="fill" to="#808080" begin="zoomplus.mouseover" end="zoomplus.mouseout"/>
                        </use>
                        <path d="M-4,0h8M0,-4v8" fill="none" stroke="white" stroke-width="1.5" pointer-events="none"/>
                </g>
                <g id="zoomMin">
                        <use xlink:href="#rim" fill="#404040">
                                <set attributeName="fill" to="#808080" begin="zoomminus.mouseover" end="zoomminus.mouseout"/>
                        </use>
                        <path d="M-4,0h8" fill="none" stroke="white" stroke-width="1.5" pointer-events="none"/>
                </g>
                <g id="dirArrow">
                        <path fill="none" stroke="white" stroke-width="1.5" d="M0,-3.0v7 M-2.5,-0.5L0,-3.0L2.5,-0.5"/>
                </g>
               <g id="resetDef">
                       <use xlink:href="#rim2" fill="#404040">
                               <set attributeName="fill" to="#808080" begin="reset.mouseover" end="reset.mouseout"/>
                       </use>
               </g>
        </defs>

<script type="text/javascript">
var viewWidth = 1508;
var viewHeight = 410;
var sectionId = 'dynsection-20';
</script>
<script xlink:href="../../svgpan.js"/>
<svg id="graph" class="graph">
<g id="viewport">
<title>userInterface.UserInterface.runCommand</title>
<polygon fill="white" stroke="none" points="-4,4 -4,-406 1504,-406 1504,4 -4,4"/>
<!-- Node1 -->
<g id="node1" class="node"><title>Node1</title>
<polygon fill="#bfbfbf" stroke="black" points="0,-148 0,-178 166,-178 166,-148 0,-148"/>
<text text-anchor="start" x="8" y="-166" font-family="Helvetica,sans-Serif" font-size="10.00">userInterface.UserInterface.run</text>
<text text-anchor="middle" x="83" y="-155" font-family="Helvetica,sans-Serif" font-size="10.00">Command</text>
</g>
<!-- Node2 -->
<g id="node2" class="node"><title>Node2</title>
<g id="a_node2"><a xlink:href="../../d8/d08/classworld_controller_1_1_world_controller.html#a178425d68e3e669c386706153ce44999" target="_top" xlink:title="worldController.WorldController.update">
<polygon fill="white" stroke="black" points="202,-153.5 202,-172.5 400,-172.5 400,-153.5 202,-153.5"/>
<text text-anchor="middle" x="301" y="-160.5" font-family="Helvetica,sans-Serif" font-size="10.00">worldController.WorldController.update</text>
</a>
</g>
</g>
<!-- Node1&#45;&gt;Node2 -->
<g id="edge1" class="edge"><title>Node1&#45;&gt;Node2</title>
<path fill="none" stroke="midnightblue" d="M166.277,-163C174.589,-163 183.116,-163 191.647,-163"/>
<polygon fill="midnightblue" stroke="midnightblue" points="191.65,-166.5 201.65,-163 191.65,-159.5 191.65,-166.5"/>
</g>
<!-- Node3 -->
<g id="node3" class="node"><title>Node3</title>
<g id="a_node3"><a xlink:href="../../df/dcb/classturtle_1_1_turtle.html#a610aafaf658c4b351330b7c16c66881c" target="_top" xlink:title="turtle.Turtle.updatePenAttributes">
<polygon fill="white" stroke="black" points="436.5,-344.5 436.5,-363.5 609.5,-363.5 609.5,-344.5 436.5,-344.5"/>
<text text-anchor="middle" x="523" y="-351.5" font-family="Helvetica,sans-Serif" font-size="10.00">turtle.Turtle.updatePenAttributes</text>
</a>
</g>
</g>
<!-- Node2&#45;&gt;Node3 -->
<g id="edge2" class="edge"><title>Node2&#45;&gt;Node3</title>
<path fill="none" stroke="midnightblue" d="M313.212,-172.734C348.666,-203.515 458.622,-298.977 503.07,-337.565"/>
<polygon fill="midnightblue" stroke="midnightblue" points="500.964,-340.372 510.81,-344.285 505.554,-335.086 500.964,-340.372"/>
</g>
<!-- Node6 -->
<g id="node6" class="node"><title>Node6</title>
<g id="a_node6"><a xlink:href="../../d9/dd0/classworld_1_1_world.html#ae370733f7784c42741a6ba66c7d2ecf5" target="_top" xlink:title="world.World.listen">
<polygon fill="white" stroke="black" points="474,-175.5 474,-194.5 572,-194.5 572,-175.5 474,-175.5"/>
<text text-anchor="middle" x="523" y="-182.5" font-family="Helvetica,sans-Serif" font-size="10.00">world.World.listen</text>
</a>
</g>
</g>
<!-- Node2&#45;&gt;Node6 -->
<g id="edge5" class="edge"><title>Node2&#45;&gt;Node6</title>
<path fill="none" stroke="midnightblue" d="M397.216,-172.522C419.866,-174.787 443.368,-177.137 463.786,-179.179"/>
<polygon fill="midnightblue" stroke="midnightblue" points="463.553,-182.673 473.852,-180.185 464.25,-175.707 463.553,-182.673"/>
</g>
<!-- Node30 -->
<g id="node30" class="node"><title>Node30</title>
<g id="a_node30"><a xlink:href="../../dd/d8e/classuser_interface_1_1_user_interface.html#a06489ec50d4d8ff415e0b1ec2b02d39a" target="_top" xlink:title="userInterface.UserInterface.get\lSidebar">
<polygon fill="white" stroke="black" points="440,-126 440,-156 606,-156 606,-126 440,-126"/>
<text text-anchor="start" x="448" y="-144" font-family="Helvetica,sans-Serif" font-size="10.00">userInterface.UserInterface.get</text>
<text text-anchor="middle" x="523" y="-133" font-family="Helvetica,sans-Serif" font-size="10.00">Sidebar</text>
</a>
</g>
</g>
<!-- Node2&#45;&gt;Node30 -->
<g id="edge39" class="edge"><title>Node2&#45;&gt;Node30</title>
<path fill="none" stroke="midnightblue" d="M397.216,-153.478C407.952,-152.405 418.88,-151.312 429.58,-150.242"/>
<polygon fill="midnightblue" stroke="midnightblue" points="430.153,-153.702 439.755,-149.224 429.456,-146.737 430.153,-153.702"/>
</g>
<!-- Node31 -->
<g id="node31" class="node"><title>Node31</title>
<g id="a_node31"><a xlink:href="../../d1/d68/classuser_interface_1_1_sidebar.html#a7a3c7a302a3b54e74a26d97c4749444d" target="_top" xlink:title="userInterface.Sidebar.add\lResult">
<polygon fill="white" stroke="black" points="453,-77 453,-107 593,-107 593,-77 453,-77"/>
<text text-anchor="start" x="461" y="-95" font-family="Helvetica,sans-Serif" font-size="10.00">userInterface.Sidebar.add</text>
<text text-anchor="middle" x="523" y="-84" font-family="Helvetica,sans-Serif" font-size="10.00">Result</text>
</a>
</g>
</g>
<!-- Node2&#45;&gt;Node31 -->
<g id="edge40" class="edge"><title>Node2&#45;&gt;Node31</title>
<path fill="none" stroke="midnightblue" d="M327.523,-153.49C354.361,-143.622 397.902,-127.983 436,-116 442.458,-113.969 449.215,-111.932 455.981,-109.951"/>
<polygon fill="midnightblue" stroke="midnightblue" points="457.232,-113.233 465.868,-107.095 455.29,-106.508 457.232,-113.233"/>
</g>
<!-- Node4 -->
<g id="node4" class="node"><title>Node4</title>
<g id="a_node4"><a xlink:href="../../de/d57/classturtle_1_1_pen.html#ac9a08745a9f3615b9e47c1c8e5af8f1b" target="_top" xlink:title="turtle.Pen.getColor">
<polygon fill="white" stroke="black" points="669.5,-382.5 669.5,-401.5 776.5,-401.5 776.5,-382.5 669.5,-382.5"/>
<text text-anchor="middle" x="723" y="-389.5" font-family="Helvetica,sans-Serif" font-size="10.00">turtle.Pen.getColor</text>
</a>
</g>
</g>
<!-- Node3&#45;&gt;Node4 -->
<g id="edge3" class="edge"><title>Node3&#45;&gt;Node4</title>
<path fill="none" stroke="midnightblue" d="M573.708,-363.54C600.541,-368.69 633.859,-375.084 662.113,-380.506"/>
<polygon fill="midnightblue" stroke="midnightblue" points="661.791,-384.009 672.271,-382.456 663.11,-377.134 661.791,-384.009"/>
</g>
<!-- Node5 -->
<g id="node5" class="node"><title>Node5</title>
<g id="a_node5"><a xlink:href="../../de/d57/classturtle_1_1_pen.html#a76c8dc4e66927e7d3774ea00b2266640" target="_top" xlink:title="turtle.Pen.getSize">
<polygon fill="white" stroke="black" points="672,-344.5 672,-363.5 774,-363.5 774,-344.5 672,-344.5"/>
<text text-anchor="middle" x="723" y="-351.5" font-family="Helvetica,sans-Serif" font-size="10.00">turtle.Pen.getSize</text>
</a>
</g>
</g>
<!-- Node3&#45;&gt;Node5 -->
<g id="edge4" class="edge"><title>Node3&#45;&gt;Node5</title>
<path fill="none" stroke="midnightblue" d="M609.694,-354C627.098,-354 645.061,-354 661.379,-354"/>
<polygon fill="midnightblue" stroke="midnightblue" points="661.841,-357.5 671.841,-354 661.841,-350.5 661.841,-357.5"/>
</g>
<!-- Node7 -->
<g id="node7" class="node"><title>Node7</title>
<g id="a_node7"><a xlink:href="../../d6/d95/classparser_1_1_parser.html#a240c75608624a9c67402a296855c4d1d" target="_top" xlink:title="parser.Parser.initialize\lCommands">
<polygon fill="white" stroke="black" points="663,-295 663,-325 783,-325 783,-295 663,-295"/>
<text text-anchor="start" x="671" y="-313" font-family="Helvetica,sans-Serif" font-size="10.00">parser.Parser.initialize</text>
<text text-anchor="middle" x="723" y="-302" font-family="Helvetica,sans-Serif" font-size="10.00">Commands</text>
</a>
</g>
</g>
<!-- Node6&#45;&gt;Node7 -->
<g id="edge6" class="edge"><title>Node6&#45;&gt;Node7</title>
<path fill="none" stroke="midnightblue" d="M539.208,-194.601C571.232,-214.818 646.221,-262.16 689.546,-289.512"/>
<polygon fill="midnightblue" stroke="midnightblue" points="687.701,-292.486 698.026,-294.865 691.438,-286.567 687.701,-292.486"/>
</g>
<!-- Node12 -->
<g id="node12" class="node"><title>Node12</title>
<g id="a_node12"><a xlink:href="../../d6/d95/classparser_1_1_parser.html#a4ecbffc246c3add017c4720eed4c6da9" target="_top" xlink:title="parser.Parser.parse">
<polygon fill="white" stroke="black" points="668.5,-213.5 668.5,-232.5 777.5,-232.5 777.5,-213.5 668.5,-213.5"/>
<text text-anchor="middle" x="723" y="-220.5" font-family="Helvetica,sans-Serif" font-size="10.00">parser.Parser.parse</text>
</a>
</g>
</g>
<!-- Node6&#45;&gt;Node12 -->
<g id="edge11" class="edge"><title>Node6&#45;&gt;Node12</title>
<path fill="none" stroke="midnightblue" d="M572.183,-194.247C599.318,-199.455 633.441,-206.004 662.265,-211.536"/>
<polygon fill="midnightblue" stroke="midnightblue" points="661.739,-214.999 672.219,-213.446 663.058,-208.124 661.739,-214.999"/>
</g>
<!-- Node24 -->
<g id="node24" class="node"><title>Node24</title>
<g id="a_node24"><a xlink:href="../../d7/d35/classcommand_1_1_command.html#abab1a56440721aacda6f82ca3e3f761d" target="_top" xlink:title="command.Command.isLoop">
<polygon fill="white" stroke="black" points="647,-175.5 647,-194.5 799,-194.5 799,-175.5 647,-175.5"/>
<text text-anchor="middle" x="723" y="-182.5" font-family="Helvetica,sans-Serif" font-size="10.00">command.Command.isLoop</text>
</a>
</g>
</g>
<!-- Node6&#45;&gt;Node24 -->
<g id="edge33" class="edge"><title>Node6&#45;&gt;Node24</title>
<path fill="none" stroke="midnightblue" d="M572.183,-185C591.639,-185 614.688,-185 636.8,-185"/>
<polygon fill="midnightblue" stroke="midnightblue" points="636.878,-188.5 646.878,-185 636.878,-181.5 636.878,-188.5"/>
</g>
<!-- Node25 -->
<g id="node25" class="node"><title>Node25</title>
<g id="a_node25"><a xlink:href="../../d6/d95/classparser_1_1_parser.html#a8679d61f4ae6c55910ef113bcdda2c75" target="_top" xlink:title="parser.Parser.updateVariable">
<polygon fill="white" stroke="black" points="646,-137.5 646,-156.5 800,-156.5 800,-137.5 646,-137.5"/>
<text text-anchor="middle" x="723" y="-144.5" font-family="Helvetica,sans-Serif" font-size="10.00">parser.Parser.updateVariable</text>
</a>
</g>
</g>
<!-- Node6&#45;&gt;Node25 -->
<g id="edge34" class="edge"><title>Node6&#45;&gt;Node25</title>
<path fill="none" stroke="midnightblue" d="M572.183,-175.753C599.318,-170.545 633.441,-163.996 662.265,-158.464"/>
<polygon fill="midnightblue" stroke="midnightblue" points="663.058,-161.876 672.219,-156.554 661.739,-155.001 663.058,-161.876"/>
</g>
<!-- Node26 -->
<g id="node26" class="node"><title>Node26</title>
<g id="a_node26"><a xlink:href="../../df/dcb/classturtle_1_1_turtle.html#aa53d992fb81cd039a22a301af9b32aba" target="_top" xlink:title="turtle.Turtle.act">
<polygon fill="white" stroke="black" points="678.5,-74.5 678.5,-93.5 767.5,-93.5 767.5,-74.5 678.5,-74.5"/>
<text text-anchor="middle" x="723" y="-81.5" font-family="Helvetica,sans-Serif" font-size="10.00">turtle.Turtle.act</text>
</a>
</g>
</g>
<!-- Node6&#45;&gt;Node26 -->
<g id="edge35" class="edge"><title>Node6&#45;&gt;Node26</title>
<path fill="none" stroke="midnightblue" d="M572.216,-178.826C585.047,-175.862 598.519,-171.479 610,-165 629.981,-153.723 627.902,-142.102 646,-128 660.502,-116.7 678.205,-106.283 692.875,-98.4239"/>
<polygon fill="midnightblue" stroke="midnightblue" points="694.774,-101.381 702.014,-93.6455 691.53,-95.1776 694.774,-101.381"/>
</g>
<!-- Node28 -->
<g id="node28" class="node"><title>Node28</title>
<g id="a_node28"><a xlink:href="../../d6/d95/classparser_1_1_parser.html#acebafe1593fc1f09ac31c7104438e4b1" target="_top" xlink:title="parser.Parser.resetRepcount">
<polygon fill="white" stroke="black" points="647.5,-33.5 647.5,-52.5 798.5,-52.5 798.5,-33.5 647.5,-33.5"/>
<text text-anchor="middle" x="723" y="-40.5" font-family="Helvetica,sans-Serif" font-size="10.00">parser.Parser.resetRepcount</text>
</a>
</g>
</g>
<!-- Node6&#45;&gt;Node28 -->
<g id="edge37" class="edge"><title>Node6&#45;&gt;Node28</title>
<path fill="none" stroke="midnightblue" d="M572.134,-182.337C585.696,-179.477 599.576,-174.27 610,-165 645.298,-133.61 611.551,-97.3194 646,-65 649.301,-61.903 653.012,-59.2387 656.972,-56.9472"/>
<polygon fill="midnightblue" stroke="midnightblue" points="658.559,-60.0671 665.977,-52.5025 655.46,-53.79 658.559,-60.0671"/>
</g>
<!-- Node8 -->
<g id="node8" class="node"><title>Node8</title>
<g id="a_node8"><a xlink:href="../../d3/dcc/classparser_1_1_node.html#a9c12e8d4375a7517eae0a35724b253c4" target="_top" xlink:title="parser.Node.getValue">
<polygon fill="white" stroke="black" points="1102,-305.5 1102,-324.5 1222,-324.5 1222,-305.5 1102,-305.5"/>
<text text-anchor="middle" x="1162" y="-312.5" font-family="Helvetica,sans-Serif" font-size="10.00">parser.Node.getValue</text>
</a>
</g>
</g>
<!-- Node7&#45;&gt;Node8 -->
<g id="edge7" class="edge"><title>Node7&#45;&gt;Node8</title>
<path fill="none" stroke="midnightblue" d="M772.098,-325.011C781.415,-328.147 791.058,-331.552 800,-335 816.337,-341.299 818.872,-347.365 836,-351 916.866,-368.161 941.134,-368.161 1022,-351 1039.13,-347.365 1041.3,-340.258 1058,-335 1068.82,-331.594 1080.47,-328.662 1091.9,-326.174"/>
<polygon fill="midnightblue" stroke="midnightblue" points="1092.79,-329.564 1101.87,-324.102 1091.37,-322.711 1092.79,-329.564"/>
</g>
<!-- Node9 -->
<g id="node9" class="node"><title>Node9</title>
<g id="a_node9"><a xlink:href="../../d6/d95/classparser_1_1_parser.html#a4f582c65390bddc57219c0b5c31ef5e7" target="_top" xlink:title="parser.Parser.makeTree">
<polygon fill="white" stroke="black" points="865,-322.5 865,-341.5 993,-341.5 993,-322.5 865,-322.5"/>
<text text-anchor="middle" x="929" y="-329.5" font-family="Helvetica,sans-Serif" font-size="10.00">parser.Parser.makeTree</text>
</a>
</g>
</g>
<!-- Node7&#45;&gt;Node9 -->
<g id="edge8" class="edge"><title>Node7&#45;&gt;Node9</title>
<path fill="none" stroke="midnightblue" d="M783.005,-316.363C805.452,-318.784 831.298,-321.571 854.895,-324.116"/>
<polygon fill="midnightblue" stroke="midnightblue" points="854.537,-327.598 864.855,-325.19 855.287,-320.638 854.537,-327.598"/>
</g>
<!-- Node10 -->
<g id="node10" class="node"><title>Node10</title>
<g id="a_node10"><a xlink:href="../../d9/d1b/classcommand_1_1_command_factory.html#a87bf7e648425bb22124367cabedb3327" target="_top" xlink:title="command.CommandFactory.get\lNumParameters">
<polygon fill="white" stroke="black" points="1077,-344 1077,-374 1247,-374 1247,-344 1077,-344"/>
<text text-anchor="start" x="1085" y="-362" font-family="Helvetica,sans-Serif" font-size="10.00">command.CommandFactory.get</text>
<text text-anchor="middle" x="1162" y="-351" font-family="Helvetica,sans-Serif" font-size="10.00">NumParameters</text>
</a>
</g>
</g>
<!-- Node9&#45;&gt;Node10 -->
<g id="edge9" class="edge"><title>Node9&#45;&gt;Node10</title>
<path fill="none" stroke="midnightblue" d="M993.122,-339.378C1015.78,-342.026 1041.85,-345.074 1066.59,-347.965"/>
<polygon fill="midnightblue" stroke="midnightblue" points="1066.39,-351.465 1076.73,-349.15 1067.2,-344.512 1066.39,-351.465"/>
</g>
<!-- Node11 -->
<g id="node11" class="node"><title>Node11</title>
<g id="a_node11"><a xlink:href="../../d9/d1b/classcommand_1_1_command_factory.html#a947fdc151e857ea74564d0d1fe268246" target="_top" xlink:title="command.CommandFactory.translate\lCommand">
<polygon fill="white" stroke="black" points="1302.5,-189 1302.5,-219 1499.5,-219 1499.5,-189 1302.5,-189"/>
<text text-anchor="start" x="1310.5" y="-207" font-family="Helvetica,sans-Serif" font-size="10.00">command.CommandFactory.translate</text>
<text text-anchor="middle" x="1401" y="-196" font-family="Helvetica,sans-Serif" font-size="10.00">Command</text>
</a>
</g>
</g>
<!-- Node10&#45;&gt;Node11 -->
<g id="edge10" class="edge"><title>Node10&#45;&gt;Node11</title>
<path fill="none" stroke="midnightblue" d="M1243.6,-343.913C1251.39,-341.141 1258.99,-337.867 1266,-334 1315.34,-306.78 1359.46,-256.582 1382.7,-227.164"/>
<polygon fill="midnightblue" stroke="midnightblue" points="1385.59,-229.148 1388.95,-219.103 1380.06,-224.857 1385.59,-229.148"/>
</g>
<!-- Node12&#45;&gt;Node9 -->
<g id="edge32" class="edge"><title>Node12&#45;&gt;Node9</title>
<path fill="none" stroke="midnightblue" d="M735.678,-232.629C763.204,-255.291 830.274,-310.302 836,-313 842.047,-315.849 848.515,-318.272 855.116,-320.334"/>
<polygon fill="midnightblue" stroke="midnightblue" points="854.271,-323.732 864.847,-323.103 856.187,-317 854.271,-323.732"/>
</g>
<!-- Node13 -->
<g id="node13" class="node"><title>Node13</title>
<g id="a_node13"><a xlink:href="../../d9/d1b/classcommand_1_1_command_factory.html#ab25bb047b051661d31adf73b2dae5649" target="_top" xlink:title="command.CommandFactory.create\lCommand">
<polygon fill="white" stroke="black" points="836.5,-88 836.5,-118 1021.5,-118 1021.5,-88 836.5,-88"/>
<text text-anchor="start" x="844.5" y="-106" font-family="Helvetica,sans-Serif" font-size="10.00">command.CommandFactory.create</text>
<text text-anchor="middle" x="929" y="-95" font-family="Helvetica,sans-Serif" font-size="10.00">Command</text>
</a>
</g>
</g>
<!-- Node12&#45;&gt;Node13 -->
<g id="edge12" class="edge"><title>Node12&#45;&gt;Node13</title>
<path fill="none" stroke="midnightblue" d="M777.574,-216.042C785.679,-213.242 793.492,-209.362 800,-204 829.155,-179.976 806.968,-151.173 836,-127 837.395,-125.838 838.841,-124.732 840.329,-123.678"/>
<polygon fill="midnightblue" stroke="midnightblue" points="842.572,-126.409 849.277,-118.206 838.92,-120.438 842.572,-126.409"/>
</g>
<!-- Node15 -->
<g id="node15" class="node"><title>Node15</title>
<g id="a_node15"><a xlink:href="../../d6/d95/classparser_1_1_parser.html#aac1cff62f68138c7e977a67d39671701" target="_top" xlink:title="parser.Parser.generateCommand\lInput">
<polygon fill="white" stroke="black" points="841,-235 841,-265 1017,-265 1017,-235 841,-235"/>
<text text-anchor="start" x="849" y="-253" font-family="Helvetica,sans-Serif" font-size="10.00">parser.Parser.generateCommand</text>
<text text-anchor="middle" x="929" y="-242" font-family="Helvetica,sans-Serif" font-size="10.00">Input</text>
</a>
</g>
</g>
<!-- Node12&#45;&gt;Node15 -->
<g id="edge15" class="edge"><title>Node12&#45;&gt;Node15</title>
<path fill="none" stroke="midnightblue" d="M777.599,-230.094C793.934,-232.256 812.425,-234.703 830.714,-237.124"/>
<polygon fill="midnightblue" stroke="midnightblue" points="830.466,-240.621 840.838,-238.464 831.384,-233.682 830.466,-240.621"/>
</g>
<!-- Node19 -->
<g id="node19" class="node"><title>Node19</title>
<g id="a_node19"><a xlink:href="../../d6/d95/classparser_1_1_parser.html#a3efcd1192e76101919526b4a5e0046f4" target="_top" xlink:title="parser.Parser.getNodeBefore\lToReplace">
<polygon fill="white" stroke="black" points="851.5,-137 851.5,-167 1006.5,-167 1006.5,-137 851.5,-137"/>
<text text-anchor="start" x="859.5" y="-155" font-family="Helvetica,sans-Serif" font-size="10.00">parser.Parser.getNodeBefore</text>
<text text-anchor="middle" x="929" y="-144" font-family="Helvetica,sans-Serif" font-size="10.00">ToReplace</text>
</a>
</g>
</g>
<!-- Node12&#45;&gt;Node19 -->
<g id="edge20" class="edge"><title>Node12&#45;&gt;Node19</title>
<path fill="none" stroke="midnightblue" d="M774.459,-213.397C783.189,-210.894 792.018,-207.799 800,-204 818.059,-195.405 818.03,-185.779 836,-177 840.833,-174.639 845.922,-172.474 851.124,-170.494"/>
<polygon fill="midnightblue" stroke="midnightblue" points="852.332,-173.78 860.578,-167.128 849.983,-167.185 852.332,-173.78"/>
</g>
<!-- Node22 -->
<g id="node22" class="node"><title>Node22</title>
<g id="a_node22"><a xlink:href="../../d6/d95/classparser_1_1_parser.html#a447c473b62ba23b7c144df9bb38a9a41" target="_top" xlink:title="parser.Parser.getNodeFor\lCommand">
<polygon fill="white" stroke="black" points="860,-186 860,-216 998,-216 998,-186 860,-186"/>
<text text-anchor="start" x="868" y="-204" font-family="Helvetica,sans-Serif" font-size="10.00">parser.Parser.getNodeFor</text>
<text text-anchor="middle" x="929" y="-193" font-family="Helvetica,sans-Serif" font-size="10.00">Command</text>
</a>
</g>
</g>
<!-- Node12&#45;&gt;Node22 -->
<g id="edge25" class="edge"><title>Node12&#45;&gt;Node22</title>
<path fill="none" stroke="midnightblue" d="M777.599,-217.22C799.6,-214.847 825.513,-212.053 849.574,-209.458"/>
<polygon fill="midnightblue" stroke="midnightblue" points="850.189,-212.912 859.756,-208.36 849.439,-205.952 850.189,-212.912"/>
</g>
<!-- Node23 -->
<g id="node23" class="node"><title>Node23</title>
<g id="a_node23"><a xlink:href="../../d3/dcc/classparser_1_1_node.html#a066da2b478008f39a02440d7afceb9ee" target="_top" xlink:title="parser.Node.insertChild">
<polygon fill="white" stroke="black" points="865,-284.5 865,-303.5 993,-303.5 993,-284.5 865,-284.5"/>
<text text-anchor="middle" x="929" y="-291.5" font-family="Helvetica,sans-Serif" font-size="10.00">parser.Node.insertChild</text>
</a>
</g>
</g>
<!-- Node12&#45;&gt;Node23 -->
<g id="edge30" class="edge"><title>Node12&#45;&gt;Node23</title>
<path fill="none" stroke="midnightblue" d="M741.757,-232.523C763.451,-243.818 801.53,-262.551 836,-274 845.307,-277.091 855.305,-279.832 865.159,-282.217"/>
<polygon fill="midnightblue" stroke="midnightblue" points="864.402,-285.634 874.934,-284.483 865.983,-278.815 864.402,-285.634"/>
</g>
<!-- Node13&#45;&gt;Node11 -->
<g id="edge14" class="edge"><title>Node13&#45;&gt;Node11</title>
<path fill="none" stroke="midnightblue" d="M985.474,-87.9795C997.52,-84.7029 1010.19,-81.245 1022,-78 1126.66,-49.2448 1165.88,-26.0942 1266,-68 1320.5,-90.8114 1364.07,-147.787 1385.51,-180.294"/>
<polygon fill="midnightblue" stroke="midnightblue" points="1382.6,-182.25 1390.96,-188.765 1388.49,-178.462 1382.6,-182.25"/>
</g>
<!-- Node14 -->
<g id="node14" class="node"><title>Node14</title>
<g id="a_node14"><a xlink:href="../../d9/d1b/classcommand_1_1_command_factory.html#abd97ea3e22afc09e07ed1d4fd039d11f" target="_top" xlink:title="command.CommandFactory.reflectCMD">
<polygon fill="white" stroke="black" points="1058.5,-77.5 1058.5,-96.5 1265.5,-96.5 1265.5,-77.5 1058.5,-77.5"/>
<text text-anchor="middle" x="1162" y="-84.5" font-family="Helvetica,sans-Serif" font-size="10.00">command.CommandFactory.reflectCMD</text>
</a>
</g>
</g>
<!-- Node13&#45;&gt;Node14 -->
<g id="edge13" class="edge"><title>Node13&#45;&gt;Node14</title>
<path fill="none" stroke="midnightblue" d="M1021.63,-96.6534C1030.42,-96.0448 1039.39,-95.4229 1048.35,-94.8026"/>
<polygon fill="midnightblue" stroke="midnightblue" points="1048.71,-98.2864 1058.44,-94.1037 1048.22,-91.3032 1048.71,-98.2864"/>
</g>
<!-- Node15&#45;&gt;Node8 -->
<g id="edge18" class="edge"><title>Node15&#45;&gt;Node8</title>
<path fill="none" stroke="midnightblue" d="M994.083,-265.075C1003.58,-267.979 1013.15,-271.291 1022,-275 1039.08,-282.157 1040.63,-289.557 1058,-296 1068.68,-299.962 1080.3,-303.123 1091.76,-305.638"/>
<polygon fill="midnightblue" stroke="midnightblue" points="1091.27,-309.109 1101.77,-307.685 1092.67,-302.251 1091.27,-309.109"/>
</g>
<!-- Node16 -->
<g id="node16" class="node"><title>Node16</title>
<g id="a_node16"><a xlink:href="../../d3/dcc/classparser_1_1_node.html#aa67bc0d39227232943abec9b95b23235" target="_top" xlink:title="parser.Node.getChild1">
<polygon fill="white" stroke="black" points="1100.5,-191.5 1100.5,-210.5 1223.5,-210.5 1223.5,-191.5 1100.5,-191.5"/>
<text text-anchor="middle" x="1162" y="-198.5" font-family="Helvetica,sans-Serif" font-size="10.00">parser.Node.getChild1</text>
</a>
</g>
</g>
<!-- Node15&#45;&gt;Node16 -->
<g id="edge16" class="edge"><title>Node15&#45;&gt;Node16</title>
<path fill="none" stroke="midnightblue" d="M991.393,-234.983C1012.46,-229.997 1036.22,-224.559 1058,-220 1070.43,-217.399 1083.74,-214.803 1096.53,-212.403"/>
<polygon fill="midnightblue" stroke="midnightblue" points="1097.45,-215.791 1106.65,-210.524 1096.18,-208.909 1097.45,-215.791"/>
</g>
<!-- Node17 -->
<g id="node17" class="node"><title>Node17</title>
<g id="a_node17"><a xlink:href="../../d3/dcc/classparser_1_1_node.html#a0f13775acc62af77cdde90dbeaf26bbc" target="_top" xlink:title="parser.Node.getChild2">
<polygon fill="white" stroke="black" points="1100.5,-229.5 1100.5,-248.5 1223.5,-248.5 1223.5,-229.5 1100.5,-229.5"/>
<text text-anchor="middle" x="1162" y="-236.5" font-family="Helvetica,sans-Serif" font-size="10.00">parser.Node.getChild2</text>
</a>
</g>
</g>
<!-- Node15&#45;&gt;Node17 -->
<g id="edge17" class="edge"><title>Node15&#45;&gt;Node17</title>
<path fill="none" stroke="midnightblue" d="M1017,-245.857C1041.18,-244.706 1067.13,-243.47 1090.25,-242.369"/>
<polygon fill="midnightblue" stroke="midnightblue" points="1090.49,-245.862 1100.32,-241.89 1090.16,-238.869 1090.49,-245.862"/>
</g>
<!-- Node18 -->
<g id="node18" class="node"><title>Node18</title>
<g id="a_node18"><a xlink:href="../../d3/dcc/classparser_1_1_node.html#a6bbc0c61aaa261077eb87cfc4e2b45dc" target="_top" xlink:title="parser.Node.numChildren">
<polygon fill="white" stroke="black" points="1092.5,-267.5 1092.5,-286.5 1231.5,-286.5 1231.5,-267.5 1092.5,-267.5"/>
<text text-anchor="middle" x="1162" y="-274.5" font-family="Helvetica,sans-Serif" font-size="10.00">parser.Node.numChildren</text>
</a>
</g>
</g>
<!-- Node15&#45;&gt;Node18 -->
<g id="edge19" class="edge"><title>Node15&#45;&gt;Node18</title>
<path fill="none" stroke="midnightblue" d="M1017,-260.169C1038.43,-262.674 1061.26,-265.342 1082.28,-267.799"/>
<polygon fill="midnightblue" stroke="midnightblue" points="1082.1,-271.301 1092.43,-268.986 1082.91,-264.348 1082.1,-271.301"/>
</g>
<!-- Node19&#45;&gt;Node16 -->
<g id="edge21" class="edge"><title>Node19&#45;&gt;Node16</title>
<path fill="none" stroke="midnightblue" d="M991.393,-167.017C1012.46,-172.003 1036.22,-177.441 1058,-182 1070.43,-184.601 1083.74,-187.197 1096.53,-189.597"/>
<polygon fill="midnightblue" stroke="midnightblue" points="1096.18,-193.091 1106.65,-191.476 1097.45,-186.209 1096.18,-193.091"/>
</g>
<!-- Node19&#45;&gt;Node17 -->
<g id="edge22" class="edge"><title>Node19&#45;&gt;Node17</title>
<path fill="none" stroke="midnightblue" d="M1002.64,-167.15C1009.43,-169.908 1016.01,-173.162 1022,-177 1042.99,-190.441 1036.47,-207.441 1058,-220 1067.84,-225.74 1079.03,-229.809 1090.33,-232.68"/>
<polygon fill="midnightblue" stroke="midnightblue" points="1089.72,-236.131 1100.24,-234.907 1091.25,-229.301 1089.72,-236.131"/>
</g>
<!-- Node20 -->
<g id="node20" class="node"><title>Node20</title>
<g id="a_node20"><a xlink:href="../../d3/dcc/classparser_1_1_node.html#ab14db24c0724dec4387e29d513008e2e" target="_top" xlink:title="parser.Node.hasChildren">
<polygon fill="white" stroke="black" points="1095,-115.5 1095,-134.5 1229,-134.5 1229,-115.5 1095,-115.5"/>
<text text-anchor="middle" x="1162" y="-122.5" font-family="Helvetica,sans-Serif" font-size="10.00">parser.Node.hasChildren</text>
</a>
</g>
</g>
<!-- Node19&#45;&gt;Node20 -->
<g id="edge23" class="edge"><title>Node19&#45;&gt;Node20</title>
<path fill="none" stroke="midnightblue" d="M1006.6,-143.047C1031.65,-140.119 1059.46,-136.868 1084.5,-133.942"/>
<polygon fill="midnightblue" stroke="midnightblue" points="1085.15,-137.389 1094.68,-132.752 1084.34,-130.437 1085.15,-137.389"/>
</g>
<!-- Node21 -->
<g id="node21" class="node"><title>Node21</title>
<g id="a_node21"><a xlink:href="../../d3/dcc/classparser_1_1_node.html#aa92667a825777b3d757bc3b1a247ac20" target="_top" xlink:title="parser.Node.isLeaf">
<polygon fill="white" stroke="black" points="1109,-153.5 1109,-172.5 1215,-172.5 1215,-153.5 1109,-153.5"/>
<text text-anchor="middle" x="1162" y="-160.5" font-family="Helvetica,sans-Serif" font-size="10.00">parser.Node.isLeaf</text>
</a>
</g>
</g>
<!-- Node19&#45;&gt;Node21 -->
<g id="edge24" class="edge"><title>Node19&#45;&gt;Node21</title>
<path fill="none" stroke="midnightblue" d="M1006.6,-155.648C1036.43,-157.068 1070.17,-158.675 1098.49,-160.023"/>
<polygon fill="midnightblue" stroke="midnightblue" points="1098.51,-163.528 1108.66,-160.508 1098.84,-156.536 1098.51,-163.528"/>
</g>
<!-- Node22&#45;&gt;Node16 -->
<g id="edge26" class="edge"><title>Node22&#45;&gt;Node16</title>
<path fill="none" stroke="midnightblue" d="M998.058,-201C1027.11,-201 1061,-201 1090.33,-201"/>
<polygon fill="midnightblue" stroke="midnightblue" points="1090.5,-204.5 1100.5,-201 1090.5,-197.5 1090.5,-204.5"/>
</g>
<!-- Node22&#45;&gt;Node17 -->
<g id="edge27" class="edge"><title>Node22&#45;&gt;Node17</title>
<path fill="none" stroke="midnightblue" d="M998.058,-212.196C1028.07,-217.133 1063.25,-222.921 1093.23,-227.852"/>
<polygon fill="midnightblue" stroke="midnightblue" points="1092.75,-231.319 1103.18,-229.489 1093.88,-224.412 1092.75,-231.319"/>
</g>
<!-- Node22&#45;&gt;Node20 -->
<g id="edge28" class="edge"><title>Node22&#45;&gt;Node20</title>
<path fill="none" stroke="midnightblue" d="M998.219,-186.309C1006.46,-183.426 1014.58,-180.017 1022,-176 1040.83,-165.812 1038.77,-153.399 1058,-144 1066.43,-139.882 1075.64,-136.652 1084.98,-134.12"/>
<polygon fill="midnightblue" stroke="midnightblue" points="1085.85,-137.509 1094.73,-131.725 1084.19,-130.711 1085.85,-137.509"/>
</g>
<!-- Node22&#45;&gt;Node21 -->
<g id="edge29" class="edge"><title>Node22&#45;&gt;Node21</title>
<path fill="none" stroke="midnightblue" d="M998.058,-189.804C1029.86,-184.572 1067.48,-178.385 1098.55,-173.273"/>
<polygon fill="midnightblue" stroke="midnightblue" points="1099.52,-176.661 1108.82,-171.584 1098.38,-169.754 1099.52,-176.661"/>
</g>
<!-- Node23&#45;&gt;Node8 -->
<g id="edge31" class="edge"><title>Node23&#45;&gt;Node8</title>
<path fill="none" stroke="midnightblue" d="M993.122,-299.738C1023.74,-302.522 1060.59,-305.871 1091.95,-308.723"/>
<polygon fill="midnightblue" stroke="midnightblue" points="1091.65,-312.21 1101.92,-309.629 1092.28,-305.238 1091.65,-312.21"/>
</g>
<!-- Node27 -->
<g id="node27" class="node"><title>Node27</title>
<g id="a_node27"><a xlink:href="../../d7/d35/classcommand_1_1_command.html#a1de2ff02a0e6aa6553a129f9b14e6bb3" target="_top" xlink:title="command.Command.run">
<polygon fill="white" stroke="black" points="860.5,-49.5 860.5,-68.5 997.5,-68.5 997.5,-49.5 860.5,-49.5"/>
<text text-anchor="middle" x="929" y="-56.5" font-family="Helvetica,sans-Serif" font-size="10.00">command.Command.run</text>
</a>
</g>
</g>
<!-- Node26&#45;&gt;Node27 -->
<g id="edge36" class="edge"><title>Node26&#45;&gt;Node27</title>
<path fill="none" stroke="midnightblue" d="M767.513,-78.6675C791.587,-75.7172 822.227,-71.9624 850.269,-68.5259"/>
<polygon fill="midnightblue" stroke="midnightblue" points="850.965,-71.9668 860.465,-67.2763 850.114,-65.0188 850.965,-71.9668"/>
</g>
<!-- Node29 -->
<g id="node29" class="node"><title>Node29</title>
<g id="a_node29"><a xlink:href="../../d9/d1b/classcommand_1_1_command_factory.html#a0d59e4f0f925b5046957c0e054ce8bef" target="_top" xlink:title="command.CommandFactory.reset\lRepcount">
<polygon fill="white" stroke="black" points="839.5,-0 839.5,-30 1018.5,-30 1018.5,-0 839.5,-0"/>
<text text-anchor="start" x="847.5" y="-18" font-family="Helvetica,sans-Serif" font-size="10.00">command.CommandFactory.reset</text>
<text text-anchor="middle" x="929" y="-7" font-family="Helvetica,sans-Serif" font-size="10.00">Repcount</text>
</a>
</g>
</g>
<!-- Node28&#45;&gt;Node29 -->
<g id="edge38" class="edge"><title>Node28&#45;&gt;Node29</title>
<path fill="none" stroke="midnightblue" d="M793.35,-33.4814C804.901,-31.896 817.076,-30.2249 829.191,-28.562"/>
<polygon fill="midnightblue" stroke="midnightblue" points="829.907,-31.9966 839.339,-27.1692 828.955,-25.0616 829.907,-31.9966"/>
</g>
</g>
</svg>
        <g id="navigator" transform="translate(0 0)" fill="#404254">
                <rect fill="#f2f5e9" fill-opacity="0.5" stroke="#606060" stroke-width=".5" x="0" y="0" width="60" height="60"/>
                <use id="zoomplus" xlink:href="#zoomPlus" x="17" y="9" onmousedown="handleZoom(evt,'in')"/>
                <use id="zoomminus" xlink:href="#zoomMin" x="42" y="9" onmousedown="handleZoom(evt,'out')"/>
                <use id="reset" xlink:href="#resetDef" x="30" y="36" onmousedown="handleReset()"/>
                <g id="arrowUp" xlink:href="#dirArrow" transform="translate(30 24)" onmousedown="handlePan(0,-1)">
                  <use xlink:href="#rim" fill="#404040">
                        <set attributeName="fill" to="#808080" begin="arrowUp.mouseover" end="arrowUp.mouseout"/>
                  </use>
                  <path fill="none" stroke="white" stroke-width="1.5" d="M0,-3.0v7 M-2.5,-0.5L0,-3.0L2.5,-0.5"/>
                </g>
                <g id="arrowRight" xlink:href="#dirArrow" transform="rotate(90) translate(36 -43)" onmousedown="handlePan(1,0)">
                  <use xlink:href="#rim" fill="#404040">
                        <set attributeName="fill" to="#808080" begin="arrowRight.mouseover" end="arrowRight.mouseout"/>
                  </use>
                  <path fill="none" stroke="white" stroke-width="1.5" d="M0,-3.0v7 M-2.5,-0.5L0,-3.0L2.5,-0.5"/>
                </g>
                <g id="arrowDown" xlink:href="#dirArrow" transform="rotate(180) translate(-30 -48)" onmousedown="handlePan(0,1)">
                  <use xlink:href="#rim" fill="#404040">
                        <set attributeName="fill" to="#808080" begin="arrowDown.mouseover" end="arrowDown.mouseout"/>
                  </use>
                  <path fill="none" stroke="white" stroke-width="1.5" d="M0,-3.0v7 M-2.5,-0.5L0,-3.0L2.5,-0.5"/>
                </g>
                <g id="arrowLeft" xlink:href="#dirArrow" transform="rotate(270) translate(-36 17)" onmousedown="handlePan(-1,0)">
                  <use xlink:href="#rim" fill="#404040">
                        <set attributeName="fill" to="#808080" begin="arrowLeft.mouseover" end="arrowLeft.mouseout"/>
                  </use>
                  <path fill="none" stroke="white" stroke-width="1.5" d="M0,-3.0v7 M-2.5,-0.5L0,-3.0L2.5,-0.5"/>
                </g>
        </g>
        <svg viewBox="0 0 15 15" width="100%" height="30px" preserveAspectRatio="xMaxYMin meet">
         <g id="arrow_out" transform="scale(0.3 0.3)">
          <a xlink:href="classuser_interface_1_1_user_interface_a95e324c85888faea808be269e44ed5b8_cgraph_org.svg" target="_base">
           <rect id="button" ry="5" rx="5" y="6" x="6" height="38" width="38"
                fill="#f2f5e9" fill-opacity="0.5" stroke="#606060" stroke-width="1.0"/>
           <path id="arrow"
             d="M 11.500037,31.436501 C 11.940474,20.09759 22.043105,11.32322 32.158766,21.979434 L 37.068811,17.246167 C 37.068811,17.246167 37.088388,32 37.088388,32 L 22.160133,31.978069 C 22.160133,31.978069 26.997745,27.140456 26.997745,27.140456 C 18.528582,18.264221 13.291696,25.230495 11.500037,31.436501 z"
             style="fill:#404040;"/>
          </a>
         </g>
        </svg>
</svg>
