<?xml version="1.0" encoding="UTF-8" standalone="no"?>
<!DOCTYPE svg PUBLIC "-//W3C//DTD SVG 1.1//EN"
 "http://www.w3.org/Graphics/SVG/1.1/DTD/svg11.dtd">
<!-- Generated by graphviz version 2.36.0 (20140111.2315)
 -->
<!-- Title: userInterface.UserInterface.setUpResponses Pages: 1 -->
<svg width="1732pt" height="410pt"
 viewBox="0.00 0.00 1732.00 410.00" xmlns="http://www.w3.org/2000/svg" xmlns:xlink="http://www.w3.org/1999/xlink">
<g id="graph0" class="graph" transform="scale(1 1) rotate(0) translate(4 406)">
<title>userInterface.UserInterface.setUpResponses</title>
<polygon fill="white" stroke="none" points="-4,4 -4,-406 1728,-406 1728,4 -4,4"/>
<!-- Node1 -->
<g id="node1" class="node"><title>Node1</title>
<polygon fill="#bfbfbf" stroke="black" points="0.5,-170 0.5,-200 165.5,-200 165.5,-170 0.5,-170"/>
<text text-anchor="start" x="8.5" y="-188" font-family="Helvetica,sans-Serif" font-size="10.00">userInterface.UserInterface.set</text>
<text text-anchor="middle" x="83" y="-177" font-family="Helvetica,sans-Serif" font-size="10.00">UpResponses</text>
</g>
<!-- Node2 -->
<g id="node2" class="node"><title>Node2</title>
<g id="a_node2"><a xlink:href="../../d1/d68/classuser_interface_1_1_sidebar.html#a34f50f33f2409c9746c29a4b41aaaeae" target="_top" xlink:title="userInterface.Sidebar.addItem">
<polygon fill="white" stroke="black" points="215.5,-235.5 215.5,-254.5 376.5,-254.5 376.5,-235.5 215.5,-235.5"/>
<text text-anchor="middle" x="296" y="-242.5" font-family="Helvetica,sans-Serif" font-size="10.00">userInterface.Sidebar.addItem</text>
</a>
</g>
</g>
<!-- Node1&#45;&gt;Node2 -->
<g id="edge1" class="edge"><title>Node1&#45;&gt;Node2</title>
<path fill="none" stroke="midnightblue" d="M123.191,-200.086C145.961,-208.48 175.335,-218.679 202,-226 211.654,-228.651 221.963,-231.113 232.073,-233.328"/>
<polygon fill="midnightblue" stroke="midnightblue" points="231.575,-236.8 242.085,-235.457 233.032,-229.953 231.575,-236.8"/>
</g>
<!-- Node3 -->
<g id="node3" class="node"><title>Node3</title>
<g id="a_node3"><a xlink:href="../../d4/db9/classuser_interface_1_1_command_saver.html#a32d811ce9d25cbd4817398286639cbb7" target="_top" xlink:title="userInterface.CommandSaver.close">
<polygon fill="white" stroke="black" points="202,-197.5 202,-216.5 390,-216.5 390,-197.5 202,-197.5"/>
<text text-anchor="middle" x="296" y="-204.5" font-family="Helvetica,sans-Serif" font-size="10.00">userInterface.CommandSaver.close</text>
</a>
</g>
</g>
<!-- Node1&#45;&gt;Node3 -->
<g id="edge2" class="edge"><title>Node1&#45;&gt;Node3</title>
<path fill="none" stroke="midnightblue" d="M165.578,-193.506C174.776,-194.465 184.23,-195.45 193.639,-196.432"/>
<polygon fill="midnightblue" stroke="midnightblue" points="193.509,-199.937 203.818,-197.493 194.235,-192.975 193.509,-199.937"/>
</g>
<!-- Node4 -->
<g id="node4" class="node"><title>Node4</title>
<g id="a_node4"><a xlink:href="../../dd/d8e/classuser_interface_1_1_user_interface.html#a95e324c85888faea808be269e44ed5b8" target="_top" xlink:title="userInterface.UserInterface.run\lCommand">
<polygon fill="white" stroke="black" points="213,-148 213,-178 379,-178 379,-148 213,-148"/>
<text text-anchor="start" x="221" y="-166" font-family="Helvetica,sans-Serif" font-size="10.00">userInterface.UserInterface.run</text>
<text text-anchor="middle" x="296" y="-155" font-family="Helvetica,sans-Serif" font-size="10.00">Command</text>
</a>
</g>
</g>
<!-- Node1&#45;&gt;Node4 -->
<g id="edge3" class="edge"><title>Node1&#45;&gt;Node4</title>
<path fill="none" stroke="midnightblue" d="M165.578,-176.494C177.718,-175.228 190.305,-173.916 202.648,-172.629"/>
<polygon fill="midnightblue" stroke="midnightblue" points="203.36,-176.074 212.943,-171.556 202.634,-169.112 203.36,-176.074"/>
</g>
<!-- Node35 -->
<g id="node35" class="node"><title>Node35</title>
<g id="a_node35"><a xlink:href="../../d4/db9/classuser_interface_1_1_command_saver.html#a5fd7c4d0fc21bf4b40492a52bb65efd8" target="_top" xlink:title="userInterface.CommandSaver.save\lCommand">
<polygon fill="white" stroke="black" points="203.5,-99 203.5,-129 388.5,-129 388.5,-99 203.5,-99"/>
<text text-anchor="start" x="211.5" y="-117" font-family="Helvetica,sans-Serif" font-size="10.00">userInterface.CommandSaver.save</text>
<text text-anchor="middle" x="296" y="-106" font-family="Helvetica,sans-Serif" font-size="10.00">Command</text>
</a>
</g>
</g>
<!-- Node1&#45;&gt;Node35 -->
<g id="edge44" class="edge"><title>Node1&#45;&gt;Node35</title>
<path fill="none" stroke="midnightblue" d="M119.522,-169.983C142.756,-160.452 173.902,-148.223 202,-139 209.567,-136.516 217.537,-134.091 225.499,-131.789"/>
<polygon fill="midnightblue" stroke="midnightblue" points="226.512,-135.14 235.179,-129.047 224.604,-128.405 226.512,-135.14"/>
</g>
<!-- Node5 -->
<g id="node5" class="node"><title>Node5</title>
<g id="a_node5"><a xlink:href="../../d8/d08/classworld_controller_1_1_world_controller.html#a178425d68e3e669c386706153ce44999" target="_top" xlink:title="worldController.WorldController.update">
<polygon fill="white" stroke="black" points="426,-153.5 426,-172.5 624,-172.5 624,-153.5 426,-153.5"/>
<text text-anchor="middle" x="525" y="-160.5" font-family="Helvetica,sans-Serif" font-size="10.00">worldController.WorldController.update</text>
</a>
</g>
</g>
<!-- Node4&#45;&gt;Node5 -->
<g id="edge4" class="edge"><title>Node4&#45;&gt;Node5</title>
<path fill="none" stroke="midnightblue" d="M379.273,-163C391.069,-163 403.353,-163 415.559,-163"/>
<polygon fill="midnightblue" stroke="midnightblue" points="415.781,-166.5 425.781,-163 415.781,-159.5 415.781,-166.5"/>
</g>
<!-- Node6 -->
<g id="node6" class="node"><title>Node6</title>
<g id="a_node6"><a xlink:href="../../df/dcb/classturtle_1_1_turtle.html#a610aafaf658c4b351330b7c16c66881c" target="_top" xlink:title="turtle.Turtle.updatePenAttributes">
<polygon fill="white" stroke="black" points="660.5,-344.5 660.5,-363.5 833.5,-363.5 833.5,-344.5 660.5,-344.5"/>
<text text-anchor="middle" x="747" y="-351.5" font-family="Helvetica,sans-Serif" font-size="10.00">turtle.Turtle.updatePenAttributes</text>
</a>
</g>
</g>
<!-- Node5&#45;&gt;Node6 -->
<g id="edge5" class="edge"><title>Node5&#45;&gt;Node6</title>
<path fill="none" stroke="midnightblue" d="M537.212,-172.734C572.666,-203.515 682.622,-298.977 727.07,-337.565"/>
<polygon fill="midnightblue" stroke="midnightblue" points="724.964,-340.372 734.81,-344.285 729.554,-335.086 724.964,-340.372"/>
</g>
<!-- Node9 -->
<g id="node9" class="node"><title>Node9</title>
<g id="a_node9"><a xlink:href="../../d9/dd0/classworld_1_1_world.html#ae370733f7784c42741a6ba66c7d2ecf5" target="_top" xlink:title="world.World.listen">
<polygon fill="white" stroke="black" points="698,-175.5 698,-194.5 796,-194.5 796,-175.5 698,-175.5"/>
<text text-anchor="middle" x="747" y="-182.5" font-family="Helvetica,sans-Serif" font-size="10.00">world.World.listen</text>
</a>
</g>
</g>
<!-- Node5&#45;&gt;Node9 -->
<g id="edge8" class="edge"><title>Node5&#45;&gt;Node9</title>
<path fill="none" stroke="midnightblue" d="M621.216,-172.522C643.866,-174.787 667.368,-177.137 687.786,-179.179"/>
<polygon fill="midnightblue" stroke="midnightblue" points="687.553,-182.673 697.852,-180.185 688.25,-175.707 687.553,-182.673"/>
</g>
<!-- Node33 -->
<g id="node33" class="node"><title>Node33</title>
<g id="a_node33"><a xlink:href="../../dd/d8e/classuser_interface_1_1_user_interface.html#a06489ec50d4d8ff415e0b1ec2b02d39a" target="_top" xlink:title="userInterface.UserInterface.get\lSidebar">
<polygon fill="white" stroke="black" points="664,-126 664,-156 830,-156 830,-126 664,-126"/>
<text text-anchor="start" x="672" y="-144" font-family="Helvetica,sans-Serif" font-size="10.00">userInterface.UserInterface.get</text>
<text text-anchor="middle" x="747" y="-133" font-family="Helvetica,sans-Serif" font-size="10.00">Sidebar</text>
</a>
</g>
</g>
<!-- Node5&#45;&gt;Node33 -->
<g id="edge42" class="edge"><title>Node5&#45;&gt;Node33</title>
<path fill="none" stroke="midnightblue" d="M621.216,-153.478C631.952,-152.405 642.88,-151.312 653.58,-150.242"/>
<polygon fill="midnightblue" stroke="midnightblue" points="654.153,-153.702 663.755,-149.224 653.456,-146.737 654.153,-153.702"/>
</g>
<!-- Node34 -->
<g id="node34" class="node"><title>Node34</title>
<g id="a_node34"><a xlink:href="../../d1/d68/classuser_interface_1_1_sidebar.html#a7a3c7a302a3b54e74a26d97c4749444d" target="_top" xlink:title="userInterface.Sidebar.add\lResult">
<polygon fill="white" stroke="black" points="677,-77 677,-107 817,-107 817,-77 677,-77"/>
<text text-anchor="start" x="685" y="-95" font-family="Helvetica,sans-Serif" font-size="10.00">userInterface.Sidebar.add</text>
<text text-anchor="middle" x="747" y="-84" font-family="Helvetica,sans-Serif" font-size="10.00">Result</text>
</a>
</g>
</g>
<!-- Node5&#45;&gt;Node34 -->
<g id="edge43" class="edge"><title>Node5&#45;&gt;Node34</title>
<path fill="none" stroke="midnightblue" d="M552.571,-153.459C579.519,-143.883 622.483,-128.885 660,-117 667.4,-114.656 675.184,-112.275 682.921,-109.962"/>
<polygon fill="midnightblue" stroke="midnightblue" points="684.07,-113.271 692.664,-107.074 682.082,-106.56 684.07,-113.271"/>
</g>
<!-- Node7 -->
<g id="node7" class="node"><title>Node7</title>
<g id="a_node7"><a xlink:href="../../de/d57/classturtle_1_1_pen.html#ac9a08745a9f3615b9e47c1c8e5af8f1b" target="_top" xlink:title="turtle.Pen.getColor">
<polygon fill="white" stroke="black" points="893.5,-382.5 893.5,-401.5 1000.5,-401.5 1000.5,-382.5 893.5,-382.5"/>
<text text-anchor="middle" x="947" y="-389.5" font-family="Helvetica,sans-Serif" font-size="10.00">turtle.Pen.getColor</text>
</a>
</g>
</g>
<!-- Node6&#45;&gt;Node7 -->
<g id="edge6" class="edge"><title>Node6&#45;&gt;Node7</title>
<path fill="none" stroke="midnightblue" d="M797.708,-363.54C824.541,-368.69 857.859,-375.084 886.113,-380.506"/>
<polygon fill="midnightblue" stroke="midnightblue" points="885.791,-384.009 896.271,-382.456 887.11,-377.134 885.791,-384.009"/>
</g>
<!-- Node8 -->
<g id="node8" class="node"><title>Node8</title>
<g id="a_node8"><a xlink:href="../../de/d57/classturtle_1_1_pen.html#a76c8dc4e66927e7d3774ea00b2266640" target="_top" xlink:title="turtle.Pen.getSize">
<polygon fill="white" stroke="black" points="896,-344.5 896,-363.5 998,-363.5 998,-344.5 896,-344.5"/>
<text text-anchor="middle" x="947" y="-351.5" font-family="Helvetica,sans-Serif" font-size="10.00">turtle.Pen.getSize</text>
</a>
</g>
</g>
<!-- Node6&#45;&gt;Node8 -->
<g id="edge7" class="edge"><title>Node6&#45;&gt;Node8</title>
<path fill="none" stroke="midnightblue" d="M833.694,-354C851.098,-354 869.061,-354 885.379,-354"/>
<polygon fill="midnightblue" stroke="midnightblue" points="885.841,-357.5 895.841,-354 885.841,-350.5 885.841,-357.5"/>
</g>
<!-- Node10 -->
<g id="node10" class="node"><title>Node10</title>
<g id="a_node10"><a xlink:href="../../d6/d95/classparser_1_1_parser.html#a240c75608624a9c67402a296855c4d1d" target="_top" xlink:title="parser.Parser.initialize\lCommands">
<polygon fill="white" stroke="black" points="887,-295 887,-325 1007,-325 1007,-295 887,-295"/>
<text text-anchor="start" x="895" y="-313" font-family="Helvetica,sans-Serif" font-size="10.00">parser.Parser.initialize</text>
<text text-anchor="middle" x="947" y="-302" font-family="Helvetica,sans-Serif" font-size="10.00">Commands</text>
</a>
</g>
</g>
<!-- Node9&#45;&gt;Node10 -->
<g id="edge9" class="edge"><title>Node9&#45;&gt;Node10</title>
<path fill="none" stroke="midnightblue" d="M763.208,-194.601C795.232,-214.818 870.221,-262.16 913.546,-289.512"/>
<polygon fill="midnightblue" stroke="midnightblue" points="911.701,-292.486 922.026,-294.865 915.438,-286.567 911.701,-292.486"/>
</g>
<!-- Node15 -->
<g id="node15" class="node"><title>Node15</title>
<g id="a_node15"><a xlink:href="../../d6/d95/classparser_1_1_parser.html#a4ecbffc246c3add017c4720eed4c6da9" target="_top" xlink:title="parser.Parser.parse">
<polygon fill="white" stroke="black" points="892.5,-213.5 892.5,-232.5 1001.5,-232.5 1001.5,-213.5 892.5,-213.5"/>
<text text-anchor="middle" x="947" y="-220.5" font-family="Helvetica,sans-Serif" font-size="10.00">parser.Parser.parse</text>
</a>
</g>
</g>
<!-- Node9&#45;&gt;Node15 -->
<g id="edge14" class="edge"><title>Node9&#45;&gt;Node15</title>
<path fill="none" stroke="midnightblue" d="M796.183,-194.247C823.318,-199.455 857.441,-206.004 886.265,-211.536"/>
<polygon fill="midnightblue" stroke="midnightblue" points="885.739,-214.999 896.219,-213.446 887.058,-208.124 885.739,-214.999"/>
</g>
<!-- Node27 -->
<g id="node27" class="node"><title>Node27</title>
<g id="a_node27"><a xlink:href="../../d7/d35/classcommand_1_1_command.html#abab1a56440721aacda6f82ca3e3f761d" target="_top" xlink:title="command.Command.isLoop">
<polygon fill="white" stroke="black" points="871,-175.5 871,-194.5 1023,-194.5 1023,-175.5 871,-175.5"/>
<text text-anchor="middle" x="947" y="-182.5" font-family="Helvetica,sans-Serif" font-size="10.00">command.Command.isLoop</text>
</a>
</g>
</g>
<!-- Node9&#45;&gt;Node27 -->
<g id="edge36" class="edge"><title>Node9&#45;&gt;Node27</title>
<path fill="none" stroke="midnightblue" d="M796.183,-185C815.639,-185 838.688,-185 860.8,-185"/>
<polygon fill="midnightblue" stroke="midnightblue" points="860.878,-188.5 870.878,-185 860.878,-181.5 860.878,-188.5"/>
</g>
<!-- Node28 -->
<g id="node28" class="node"><title>Node28</title>
<g id="a_node28"><a xlink:href="../../d6/d95/classparser_1_1_parser.html#a8679d61f4ae6c55910ef113bcdda2c75" target="_top" xlink:title="parser.Parser.updateVariable">
<polygon fill="white" stroke="black" points="870,-137.5 870,-156.5 1024,-156.5 1024,-137.5 870,-137.5"/>
<text text-anchor="middle" x="947" y="-144.5" font-family="Helvetica,sans-Serif" font-size="10.00">parser.Parser.updateVariable</text>
</a>
</g>
</g>
<!-- Node9&#45;&gt;Node28 -->
<g id="edge37" class="edge"><title>Node9&#45;&gt;Node28</title>
<path fill="none" stroke="midnightblue" d="M796.183,-175.753C823.318,-170.545 857.441,-163.996 886.265,-158.464"/>
<polygon fill="midnightblue" stroke="midnightblue" points="887.058,-161.876 896.219,-156.554 885.739,-155.001 887.058,-161.876"/>
</g>
<!-- Node29 -->
<g id="node29" class="node"><title>Node29</title>
<g id="a_node29"><a xlink:href="../../df/dcb/classturtle_1_1_turtle.html#aa53d992fb81cd039a22a301af9b32aba" target="_top" xlink:title="turtle.Turtle.act">
<polygon fill="white" stroke="black" points="902.5,-74.5 902.5,-93.5 991.5,-93.5 991.5,-74.5 902.5,-74.5"/>
<text text-anchor="middle" x="947" y="-81.5" font-family="Helvetica,sans-Serif" font-size="10.00">turtle.Turtle.act</text>
</a>
</g>
</g>
<!-- Node9&#45;&gt;Node29 -->
<g id="edge38" class="edge"><title>Node9&#45;&gt;Node29</title>
<path fill="none" stroke="midnightblue" d="M796.216,-178.826C809.047,-175.862 822.519,-171.479 834,-165 853.981,-153.723 851.902,-142.102 870,-128 884.502,-116.7 902.205,-106.283 916.875,-98.4239"/>
<polygon fill="midnightblue" stroke="midnightblue" points="918.774,-101.381 926.014,-93.6455 915.53,-95.1776 918.774,-101.381"/>
</g>
<!-- Node31 -->
<g id="node31" class="node"><title>Node31</title>
<g id="a_node31"><a xlink:href="../../d6/d95/classparser_1_1_parser.html#acebafe1593fc1f09ac31c7104438e4b1" target="_top" xlink:title="parser.Parser.resetRepcount">
<polygon fill="white" stroke="black" points="871.5,-33.5 871.5,-52.5 1022.5,-52.5 1022.5,-33.5 871.5,-33.5"/>
<text text-anchor="middle" x="947" y="-40.5" font-family="Helvetica,sans-Serif" font-size="10.00">parser.Parser.resetRepcount</text>
</a>
</g>
</g>
<!-- Node9&#45;&gt;Node31 -->
<g id="edge40" class="edge"><title>Node9&#45;&gt;Node31</title>
<path fill="none" stroke="midnightblue" d="M796.134,-182.337C809.696,-179.477 823.576,-174.27 834,-165 869.298,-133.61 835.551,-97.3194 870,-65 873.301,-61.903 877.012,-59.2387 880.972,-56.9472"/>
<polygon fill="midnightblue" stroke="midnightblue" points="882.559,-60.0671 889.977,-52.5025 879.46,-53.79 882.559,-60.0671"/>
</g>
<!-- Node11 -->
<g id="node11" class="node"><title>Node11</title>
<g id="a_node11"><a xlink:href="../../d3/dcc/classparser_1_1_node.html#a9c12e8d4375a7517eae0a35724b253c4" target="_top" xlink:title="parser.Node.getValue">
<polygon fill="white" stroke="black" points="1326,-305.5 1326,-324.5 1446,-324.5 1446,-305.5 1326,-305.5"/>
<text text-anchor="middle" x="1386" y="-312.5" font-family="Helvetica,sans-Serif" font-size="10.00">parser.Node.getValue</text>
</a>
</g>
</g>
<!-- Node10&#45;&gt;Node11 -->
<g id="edge10" class="edge"><title>Node10&#45;&gt;Node11</title>
<path fill="none" stroke="midnightblue" d="M996.098,-325.011C1005.41,-328.147 1015.06,-331.552 1024,-335 1040.34,-341.299 1042.87,-347.365 1060,-351 1140.87,-368.161 1165.13,-368.161 1246,-351 1263.13,-347.365 1265.3,-340.258 1282,-335 1292.82,-331.594 1304.47,-328.662 1315.9,-326.174"/>
<polygon fill="midnightblue" stroke="midnightblue" points="1316.79,-329.564 1325.87,-324.102 1315.37,-322.711 1316.79,-329.564"/>
</g>
<!-- Node12 -->
<g id="node12" class="node"><title>Node12</title>
<g id="a_node12"><a xlink:href="../../d6/d95/classparser_1_1_parser.html#a4f582c65390bddc57219c0b5c31ef5e7" target="_top" xlink:title="parser.Parser.makeTree">
<polygon fill="white" stroke="black" points="1089,-322.5 1089,-341.5 1217,-341.5 1217,-322.5 1089,-322.5"/>
<text text-anchor="middle" x="1153" y="-329.5" font-family="Helvetica,sans-Serif" font-size="10.00">parser.Parser.makeTree</text>
</a>
</g>
</g>
<!-- Node10&#45;&gt;Node12 -->
<g id="edge11" class="edge"><title>Node10&#45;&gt;Node12</title>
<path fill="none" stroke="midnightblue" d="M1007.01,-316.363C1029.45,-318.784 1055.3,-321.571 1078.9,-324.116"/>
<polygon fill="midnightblue" stroke="midnightblue" points="1078.54,-327.598 1088.85,-325.19 1079.29,-320.638 1078.54,-327.598"/>
</g>
<!-- Node13 -->
<g id="node13" class="node"><title>Node13</title>
<g id="a_node13"><a xlink:href="../../d9/d1b/classcommand_1_1_command_factory.html#a87bf7e648425bb22124367cabedb3327" target="_top" xlink:title="command.CommandFactory.get\lNumParameters">
<polygon fill="white" stroke="black" points="1301,-344 1301,-374 1471,-374 1471,-344 1301,-344"/>
<text text-anchor="start" x="1309" y="-362" font-family="Helvetica,sans-Serif" font-size="10.00">command.CommandFactory.get</text>
<text text-anchor="middle" x="1386" y="-351" font-family="Helvetica,sans-Serif" font-size="10.00">NumParameters</text>
</a>
</g>
</g>
<!-- Node12&#45;&gt;Node13 -->
<g id="edge12" class="edge"><title>Node12&#45;&gt;Node13</title>
<path fill="none" stroke="midnightblue" d="M1217.12,-339.378C1239.78,-342.026 1265.85,-345.074 1290.59,-347.965"/>
<polygon fill="midnightblue" stroke="midnightblue" points="1290.39,-351.465 1300.73,-349.15 1291.2,-344.512 1290.39,-351.465"/>
</g>
<!-- Node14 -->
<g id="node14" class="node"><title>Node14</title>
<g id="a_node14"><a xlink:href="../../d9/d1b/classcommand_1_1_command_factory.html#a947fdc151e857ea74564d0d1fe268246" target="_top" xlink:title="command.CommandFactory.translate\lCommand">
<polygon fill="white" stroke="black" points="1526.5,-189 1526.5,-219 1723.5,-219 1723.5,-189 1526.5,-189"/>
<text text-anchor="start" x="1534.5" y="-207" font-family="Helvetica,sans-Serif" font-size="10.00">command.CommandFactory.translate</text>
<text text-anchor="middle" x="1625" y="-196" font-family="Helvetica,sans-Serif" font-size="10.00">Command</text>
</a>
</g>
</g>
<!-- Node13&#45;&gt;Node14 -->
<g id="edge13" class="edge"><title>Node13&#45;&gt;Node14</title>
<path fill="none" stroke="midnightblue" d="M1467.6,-343.913C1475.39,-341.141 1482.99,-337.867 1490,-334 1539.34,-306.78 1583.46,-256.582 1606.7,-227.164"/>
<polygon fill="midnightblue" stroke="midnightblue" points="1609.59,-229.148 1612.95,-219.103 1604.06,-224.857 1609.59,-229.148"/>
</g>
<!-- Node15&#45;&gt;Node12 -->
<g id="edge35" class="edge"><title>Node15&#45;&gt;Node12</title>
<path fill="none" stroke="midnightblue" d="M959.678,-232.629C987.204,-255.291 1054.27,-310.302 1060,-313 1066.05,-315.849 1072.52,-318.272 1079.12,-320.334"/>
<polygon fill="midnightblue" stroke="midnightblue" points="1078.27,-323.732 1088.85,-323.103 1080.19,-317 1078.27,-323.732"/>
</g>
<!-- Node16 -->
<g id="node16" class="node"><title>Node16</title>
<g id="a_node16"><a xlink:href="../../d9/d1b/classcommand_1_1_command_factory.html#ab25bb047b051661d31adf73b2dae5649" target="_top" xlink:title="command.CommandFactory.create\lCommand">
<polygon fill="white" stroke="black" points="1060.5,-88 1060.5,-118 1245.5,-118 1245.5,-88 1060.5,-88"/>
<text text-anchor="start" x="1068.5" y="-106" font-family="Helvetica,sans-Serif" font-size="10.00">command.CommandFactory.create</text>
<text text-anchor="middle" x="1153" y="-95" font-family="Helvetica,sans-Serif" font-size="10.00">Command</text>
</a>
</g>
</g>
<!-- Node15&#45;&gt;Node16 -->
<g id="edge15" class="edge"><title>Node15&#45;&gt;Node16</title>
<path fill="none" stroke="midnightblue" d="M1001.55,-216.014C1009.66,-213.217 1017.48,-209.346 1024,-204 1052.9,-180.304 1031.34,-151.989 1060,-128 1062,-126.327 1064.1,-124.765 1066.28,-123.307"/>
<polygon fill="midnightblue" stroke="midnightblue" points="1068.19,-126.244 1075.07,-118.183 1064.67,-120.197 1068.19,-126.244"/>
</g>
<!-- Node18 -->
<g id="node18" class="node"><title>Node18</title>
<g id="a_node18"><a xlink:href="../../d6/d95/classparser_1_1_parser.html#aac1cff62f68138c7e977a67d39671701" target="_top" xlink:title="parser.Parser.generateCommand\lInput">
<polygon fill="white" stroke="black" points="1065,-235 1065,-265 1241,-265 1241,-235 1065,-235"/>
<text text-anchor="start" x="1073" y="-253" font-family="Helvetica,sans-Serif" font-size="10.00">parser.Parser.generateCommand</text>
<text text-anchor="middle" x="1153" y="-242" font-family="Helvetica,sans-Serif" font-size="10.00">Input</text>
</a>
</g>
</g>
<!-- Node15&#45;&gt;Node18 -->
<g id="edge18" class="edge"><title>Node15&#45;&gt;Node18</title>
<path fill="none" stroke="midnightblue" d="M1001.6,-230.094C1017.93,-232.256 1036.43,-234.703 1054.71,-237.124"/>
<polygon fill="midnightblue" stroke="midnightblue" points="1054.47,-240.621 1064.84,-238.464 1055.38,-233.682 1054.47,-240.621"/>
</g>
<!-- Node22 -->
<g id="node22" class="node"><title>Node22</title>
<g id="a_node22"><a xlink:href="../../d6/d95/classparser_1_1_parser.html#a3efcd1192e76101919526b4a5e0046f4" target="_top" xlink:title="parser.Parser.getNodeBefore\lToReplace">
<polygon fill="white" stroke="black" points="1075.5,-137 1075.5,-167 1230.5,-167 1230.5,-137 1075.5,-137"/>
<text text-anchor="start" x="1083.5" y="-155" font-family="Helvetica,sans-Serif" font-size="10.00">parser.Parser.getNodeBefore</text>
<text text-anchor="middle" x="1153" y="-144" font-family="Helvetica,sans-Serif" font-size="10.00">ToReplace</text>
</a>
</g>
</g>
<!-- Node15&#45;&gt;Node22 -->
<g id="edge23" class="edge"><title>Node15&#45;&gt;Node22</title>
<path fill="none" stroke="midnightblue" d="M998.459,-213.397C1007.19,-210.894 1016.02,-207.799 1024,-204 1042.06,-195.405 1042.03,-185.779 1060,-177 1064.83,-174.639 1069.92,-172.474 1075.12,-170.494"/>
<polygon fill="midnightblue" stroke="midnightblue" points="1076.33,-173.78 1084.58,-167.128 1073.98,-167.185 1076.33,-173.78"/>
</g>
<!-- Node25 -->
<g id="node25" class="node"><title>Node25</title>
<g id="a_node25"><a xlink:href="../../d6/d95/classparser_1_1_parser.html#a447c473b62ba23b7c144df9bb38a9a41" target="_top" xlink:title="parser.Parser.getNodeFor\lCommand">
<polygon fill="white" stroke="black" points="1084,-186 1084,-216 1222,-216 1222,-186 1084,-186"/>
<text text-anchor="start" x="1092" y="-204" font-family="Helvetica,sans-Serif" font-size="10.00">parser.Parser.getNodeFor</text>
<text text-anchor="middle" x="1153" y="-193" font-family="Helvetica,sans-Serif" font-size="10.00">Command</text>
</a>
</g>
</g>
<!-- Node15&#45;&gt;Node25 -->
<g id="edge28" class="edge"><title>Node15&#45;&gt;Node25</title>
<path fill="none" stroke="midnightblue" d="M1001.6,-217.22C1023.6,-214.847 1049.51,-212.053 1073.57,-209.458"/>
<polygon fill="midnightblue" stroke="midnightblue" points="1074.19,-212.912 1083.76,-208.36 1073.44,-205.952 1074.19,-212.912"/>
</g>
<!-- Node26 -->
<g id="node26" class="node"><title>Node26</title>
<g id="a_node26"><a xlink:href="../../d3/dcc/classparser_1_1_node.html#a066da2b478008f39a02440d7afceb9ee" target="_top" xlink:title="parser.Node.insertChild">
<polygon fill="white" stroke="black" points="1089,-284.5 1089,-303.5 1217,-303.5 1217,-284.5 1089,-284.5"/>
<text text-anchor="middle" x="1153" y="-291.5" font-family="Helvetica,sans-Serif" font-size="10.00">parser.Node.insertChild</text>
</a>
</g>
</g>
<!-- Node15&#45;&gt;Node26 -->
<g id="edge33" class="edge"><title>Node15&#45;&gt;Node26</title>
<path fill="none" stroke="midnightblue" d="M965.757,-232.523C987.451,-243.818 1025.53,-262.551 1060,-274 1069.31,-277.091 1079.31,-279.832 1089.16,-282.217"/>
<polygon fill="midnightblue" stroke="midnightblue" points="1088.4,-285.634 1098.93,-284.483 1089.98,-278.815 1088.4,-285.634"/>
</g>
<!-- Node16&#45;&gt;Node14 -->
<g id="edge17" class="edge"><title>Node16&#45;&gt;Node14</title>
<path fill="none" stroke="midnightblue" d="M1209.47,-87.9795C1221.52,-84.7029 1234.19,-81.245 1246,-78 1350.66,-49.2448 1389.88,-26.0942 1490,-68 1544.5,-90.8114 1588.07,-147.787 1609.51,-180.294"/>
<polygon fill="midnightblue" stroke="midnightblue" points="1606.6,-182.25 1614.96,-188.765 1612.49,-178.462 1606.6,-182.25"/>
</g>
<!-- Node17 -->
<g id="node17" class="node"><title>Node17</title>
<g id="a_node17"><a xlink:href="../../d9/d1b/classcommand_1_1_command_factory.html#abd97ea3e22afc09e07ed1d4fd039d11f" target="_top" xlink:title="command.CommandFactory.reflectCMD">
<polygon fill="white" stroke="black" points="1282.5,-77.5 1282.5,-96.5 1489.5,-96.5 1489.5,-77.5 1282.5,-77.5"/>
<text text-anchor="middle" x="1386" y="-84.5" font-family="Helvetica,sans-Serif" font-size="10.00">command.CommandFactory.reflectCMD</text>
</a>
</g>
</g>
<!-- Node16&#45;&gt;Node17 -->
<g id="edge16" class="edge"><title>Node16&#45;&gt;Node17</title>
<path fill="none" stroke="midnightblue" d="M1245.63,-96.6534C1254.42,-96.0448 1263.39,-95.4229 1272.35,-94.8026"/>
<polygon fill="midnightblue" stroke="midnightblue" points="1272.71,-98.2864 1282.44,-94.1037 1272.22,-91.3032 1272.71,-98.2864"/>
</g>
<!-- Node18&#45;&gt;Node11 -->
<g id="edge21" class="edge"><title>Node18&#45;&gt;Node11</title>
<path fill="none" stroke="midnightblue" d="M1218.08,-265.075C1227.58,-267.979 1237.15,-271.291 1246,-275 1263.08,-282.157 1264.63,-289.557 1282,-296 1292.68,-299.962 1304.3,-303.123 1315.76,-305.638"/>
<polygon fill="midnightblue" stroke="midnightblue" points="1315.27,-309.109 1325.77,-307.685 1316.67,-302.251 1315.27,-309.109"/>
</g>
<!-- Node19 -->
<g id="node19" class="node"><title>Node19</title>
<g id="a_node19"><a xlink:href="../../d3/dcc/classparser_1_1_node.html#aa67bc0d39227232943abec9b95b23235" target="_top" xlink:title="parser.Node.getChild1">
<polygon fill="white" stroke="black" points="1324.5,-191.5 1324.5,-210.5 1447.5,-210.5 1447.5,-191.5 1324.5,-191.5"/>
<text text-anchor="middle" x="1386" y="-198.5" font-family="Helvetica,sans-Serif" font-size="10.00">parser.Node.getChild1</text>
</a>
</g>
</g>
<!-- Node18&#45;&gt;Node19 -->
<g id="edge19" class="edge"><title>Node18&#45;&gt;Node19</title>
<path fill="none" stroke="midnightblue" d="M1215.39,-234.983C1236.46,-229.997 1260.22,-224.559 1282,-220 1294.43,-217.399 1307.74,-214.803 1320.53,-212.403"/>
<polygon fill="midnightblue" stroke="midnightblue" points="1321.45,-215.791 1330.65,-210.524 1320.18,-208.909 1321.45,-215.791"/>
</g>
<!-- Node20 -->
<g id="node20" class="node"><title>Node20</title>
<g id="a_node20"><a xlink:href="../../d3/dcc/classparser_1_1_node.html#a0f13775acc62af77cdde90dbeaf26bbc" target="_top" xlink:title="parser.Node.getChild2">
<polygon fill="white" stroke="black" points="1324.5,-229.5 1324.5,-248.5 1447.5,-248.5 1447.5,-229.5 1324.5,-229.5"/>
<text text-anchor="middle" x="1386" y="-236.5" font-family="Helvetica,sans-Serif" font-size="10.00">parser.Node.getChild2</text>
</a>
</g>
</g>
<!-- Node18&#45;&gt;Node20 -->
<g id="edge20" class="edge"><title>Node18&#45;&gt;Node20</title>
<path fill="none" stroke="midnightblue" d="M1241,-245.857C1265.18,-244.706 1291.13,-243.47 1314.25,-242.369"/>
<polygon fill="midnightblue" stroke="midnightblue" points="1314.49,-245.862 1324.32,-241.89 1314.16,-238.869 1314.49,-245.862"/>
</g>
<!-- Node21 -->
<g id="node21" class="node"><title>Node21</title>
<g id="a_node21"><a xlink:href="../../d3/dcc/classparser_1_1_node.html#a6bbc0c61aaa261077eb87cfc4e2b45dc" target="_top" xlink:title="parser.Node.numChildren">
<polygon fill="white" stroke="black" points="1316.5,-267.5 1316.5,-286.5 1455.5,-286.5 1455.5,-267.5 1316.5,-267.5"/>
<text text-anchor="middle" x="1386" y="-274.5" font-family="Helvetica,sans-Serif" font-size="10.00">parser.Node.numChildren</text>
</a>
</g>
</g>
<!-- Node18&#45;&gt;Node21 -->
<g id="edge22" class="edge"><title>Node18&#45;&gt;Node21</title>
<path fill="none" stroke="midnightblue" d="M1241,-260.169C1262.43,-262.674 1285.26,-265.342 1306.28,-267.799"/>
<polygon fill="midnightblue" stroke="midnightblue" points="1306.1,-271.301 1316.43,-268.986 1306.91,-264.348 1306.1,-271.301"/>
</g>
<!-- Node22&#45;&gt;Node19 -->
<g id="edge24" class="edge"><title>Node22&#45;&gt;Node19</title>
<path fill="none" stroke="midnightblue" d="M1215.39,-167.017C1236.46,-172.003 1260.22,-177.441 1282,-182 1294.43,-184.601 1307.74,-187.197 1320.53,-189.597"/>
<polygon fill="midnightblue" stroke="midnightblue" points="1320.18,-193.091 1330.65,-191.476 1321.45,-186.209 1320.18,-193.091"/>
</g>
<!-- Node22&#45;&gt;Node20 -->
<g id="edge25" class="edge"><title>Node22&#45;&gt;Node20</title>
<path fill="none" stroke="midnightblue" d="M1226.64,-167.15C1233.43,-169.908 1240.01,-173.162 1246,-177 1266.99,-190.441 1260.47,-207.441 1282,-220 1291.84,-225.74 1303.03,-229.809 1314.33,-232.68"/>
<polygon fill="midnightblue" stroke="midnightblue" points="1313.72,-236.131 1324.24,-234.907 1315.25,-229.301 1313.72,-236.131"/>
</g>
<!-- Node23 -->
<g id="node23" class="node"><title>Node23</title>
<g id="a_node23"><a xlink:href="../../d3/dcc/classparser_1_1_node.html#ab14db24c0724dec4387e29d513008e2e" target="_top" xlink:title="parser.Node.hasChildren">
<polygon fill="white" stroke="black" points="1319,-115.5 1319,-134.5 1453,-134.5 1453,-115.5 1319,-115.5"/>
<text text-anchor="middle" x="1386" y="-122.5" font-family="Helvetica,sans-Serif" font-size="10.00">parser.Node.hasChildren</text>
</a>
</g>
</g>
<!-- Node22&#45;&gt;Node23 -->
<g id="edge26" class="edge"><title>Node22&#45;&gt;Node23</title>
<path fill="none" stroke="midnightblue" d="M1230.6,-143.047C1255.65,-140.119 1283.46,-136.868 1308.5,-133.942"/>
<polygon fill="midnightblue" stroke="midnightblue" points="1309.15,-137.389 1318.68,-132.752 1308.34,-130.437 1309.15,-137.389"/>
</g>
<!-- Node24 -->
<g id="node24" class="node"><title>Node24</title>
<g id="a_node24"><a xlink:href="../../d3/dcc/classparser_1_1_node.html#aa92667a825777b3d757bc3b1a247ac20" target="_top" xlink:title="parser.Node.isLeaf">
<polygon fill="white" stroke="black" points="1333,-153.5 1333,-172.5 1439,-172.5 1439,-153.5 1333,-153.5"/>
<text text-anchor="middle" x="1386" y="-160.5" font-family="Helvetica,sans-Serif" font-size="10.00">parser.Node.isLeaf</text>
</a>
</g>
</g>
<!-- Node22&#45;&gt;Node24 -->
<g id="edge27" class="edge"><title>Node22&#45;&gt;Node24</title>
<path fill="none" stroke="midnightblue" d="M1230.6,-155.648C1260.43,-157.068 1294.17,-158.675 1322.49,-160.023"/>
<polygon fill="midnightblue" stroke="midnightblue" points="1322.51,-163.528 1332.66,-160.508 1322.84,-156.536 1322.51,-163.528"/>
</g>
<!-- Node25&#45;&gt;Node19 -->
<g id="edge29" class="edge"><title>Node25&#45;&gt;Node19</title>
<path fill="none" stroke="midnightblue" d="M1222.06,-201C1251.11,-201 1285,-201 1314.33,-201"/>
<polygon fill="midnightblue" stroke="midnightblue" points="1314.5,-204.5 1324.5,-201 1314.5,-197.5 1314.5,-204.5"/>
</g>
<!-- Node25&#45;&gt;Node20 -->
<g id="edge30" class="edge"><title>Node25&#45;&gt;Node20</title>
<path fill="none" stroke="midnightblue" d="M1222.06,-212.196C1252.07,-217.133 1287.25,-222.921 1317.23,-227.852"/>
<polygon fill="midnightblue" stroke="midnightblue" points="1316.75,-231.319 1327.18,-229.489 1317.88,-224.412 1316.75,-231.319"/>
</g>
<!-- Node25&#45;&gt;Node23 -->
<g id="edge31" class="edge"><title>Node25&#45;&gt;Node23</title>
<path fill="none" stroke="midnightblue" d="M1222.22,-186.309C1230.46,-183.426 1238.58,-180.017 1246,-176 1264.83,-165.812 1262.77,-153.399 1282,-144 1290.43,-139.882 1299.64,-136.652 1308.98,-134.12"/>
<polygon fill="midnightblue" stroke="midnightblue" points="1309.85,-137.509 1318.73,-131.725 1308.19,-130.711 1309.85,-137.509"/>
</g>
<!-- Node25&#45;&gt;Node24 -->
<g id="edge32" class="edge"><title>Node25&#45;&gt;Node24</title>
<path fill="none" stroke="midnightblue" d="M1222.06,-189.804C1253.86,-184.572 1291.48,-178.385 1322.55,-173.273"/>
<polygon fill="midnightblue" stroke="midnightblue" points="1323.52,-176.661 1332.82,-171.584 1322.38,-169.754 1323.52,-176.661"/>
</g>
<!-- Node26&#45;&gt;Node11 -->
<g id="edge34" class="edge"><title>Node26&#45;&gt;Node11</title>
<path fill="none" stroke="midnightblue" d="M1217.12,-299.738C1247.74,-302.522 1284.59,-305.871 1315.95,-308.723"/>
<polygon fill="midnightblue" stroke="midnightblue" points="1315.65,-312.21 1325.92,-309.629 1316.28,-305.238 1315.65,-312.21"/>
</g>
<!-- Node30 -->
<g id="node30" class="node"><title>Node30</title>
<g id="a_node30"><a xlink:href="../../d7/d35/classcommand_1_1_command.html#a1de2ff02a0e6aa6553a129f9b14e6bb3" target="_top" xlink:title="command.Command.run">
<polygon fill="white" stroke="black" points="1084.5,-49.5 1084.5,-68.5 1221.5,-68.5 1221.5,-49.5 1084.5,-49.5"/>
<text text-anchor="middle" x="1153" y="-56.5" font-family="Helvetica,sans-Serif" font-size="10.00">command.Command.run</text>
</a>
</g>
</g>
<!-- Node29&#45;&gt;Node30 -->
<g id="edge39" class="edge"><title>Node29&#45;&gt;Node30</title>
<path fill="none" stroke="midnightblue" d="M991.513,-78.6675C1015.59,-75.7172 1046.23,-71.9624 1074.27,-68.5259"/>
<polygon fill="midnightblue" stroke="midnightblue" points="1074.97,-71.9668 1084.47,-67.2763 1074.11,-65.0188 1074.97,-71.9668"/>
</g>
<!-- Node32 -->
<g id="node32" class="node"><title>Node32</title>
<g id="a_node32"><a xlink:href="../../d9/d1b/classcommand_1_1_command_factory.html#a0d59e4f0f925b5046957c0e054ce8bef" target="_top" xlink:title="command.CommandFactory.reset\lRepcount">
<polygon fill="white" stroke="black" points="1063.5,-0 1063.5,-30 1242.5,-30 1242.5,-0 1063.5,-0"/>
<text text-anchor="start" x="1071.5" y="-18" font-family="Helvetica,sans-Serif" font-size="10.00">command.CommandFactory.reset</text>
<text text-anchor="middle" x="1153" y="-7" font-family="Helvetica,sans-Serif" font-size="10.00">Repcount</text>
</a>
</g>
</g>
<!-- Node31&#45;&gt;Node32 -->
<g id="edge41" class="edge"><title>Node31&#45;&gt;Node32</title>
<path fill="none" stroke="midnightblue" d="M1017.35,-33.4814C1028.9,-31.896 1041.08,-30.2249 1053.19,-28.562"/>
<polygon fill="midnightblue" stroke="midnightblue" points="1053.91,-31.9966 1063.34,-27.1692 1052.96,-25.0616 1053.91,-31.9966"/>
</g>
</g>
</svg>
