<?xml version="1.0" encoding="UTF-8" standalone="no"?>
<!DOCTYPE svg PUBLIC "-//W3C//DTD SVG 1.1//EN"
 "http://www.w3.org/Graphics/SVG/1.1/DTD/svg11.dtd">
<!-- Generated by graphviz version 2.36.0 (20140111.2315)
 -->
<!-- Title: userInterface.UserInterface.getCanvas Pages: 1 -->
<svg width="374pt" height="38pt"
 viewBox="0.00 0.00 374.00 38.00" xmlns="http://www.w3.org/2000/svg" xmlns:xlink="http://www.w3.org/1999/xlink">
<g id="graph0" class="graph" transform="scale(1 1) rotate(0) translate(4 34)">
<title>userInterface.UserInterface.getCanvas</title>
<polygon fill="white" stroke="none" points="-4,4 -4,-34 370,-34 370,4 -4,4"/>
<!-- Node1 -->
<g id="node1" class="node"><title>Node1</title>
<polygon fill="#bfbfbf" stroke="black" points="0,-0 0,-30 166,-30 166,-0 0,-0"/>
<text text-anchor="start" x="8" y="-18" font-family="Helvetica,sans-Serif" font-size="10.00">userInterface.UserInterface.get</text>
<text text-anchor="middle" x="83" y="-7" font-family="Helvetica,sans-Serif" font-size="10.00">Canvas</text>
</g>
<!-- Node2 -->
<g id="node2" class="node"><title>Node2</title>
<g id="a_node2"><a xlink:href="../../d8/d08/classworld_controller_1_1_world_controller.html#a459942e2c6b4d6f4259804ccef912a0c" target="_top" xlink:title="worldController.WorldController.\lWorldController">
<polygon fill="white" stroke="black" points="202,-0 202,-30 366,-30 366,-0 202,-0"/>
<text text-anchor="start" x="210" y="-18" font-family="Helvetica,sans-Serif" font-size="10.00">worldController.WorldController.</text>
<text text-anchor="middle" x="284" y="-7" font-family="Helvetica,sans-Serif" font-size="10.00">WorldController</text>
</a>
</g>
</g>
<!-- Node1&#45;&gt;Node2 -->
<g id="edge1" class="edge"><title>Node1&#45;&gt;Node2</title>
<path fill="none" stroke="midnightblue" d="M176.091,-15C184.653,-15 193.288,-15 201.741,-15"/>
<polygon fill="midnightblue" stroke="midnightblue" points="176.09,-11.5001 166.09,-15 176.09,-18.5001 176.09,-11.5001"/>
</g>
</g>
</svg>
