<?xml version="1.0" encoding="UTF-8" standalone="no"?>
<!DOCTYPE svg PUBLIC "-//W3C//DTD SVG 1.1//EN"
 "http://www.w3.org/Graphics/SVG/1.1/DTD/svg11.dtd">
<!-- Generated by graphviz version 2.36.0 (20140111.2315)
 -->
<!-- Title: userInterface.UserInterface.setUpResponses Pages: 1 -->
<!--zoomable 574 -->
<svg id="main" version="1.1" xmlns="http://www.w3.org/2000/svg" xmlns:xlink="http://www.w3.org/1999/xlink" xml:space="preserve" onload="init(evt)">
<style type="text/css"><![CDATA[
.edge:hover path { stroke: red; }
.edge:hover polygon { stroke: red; fill: red; }
]]></style>
<script type="text/javascript"><![CDATA[
var edges = document.getElementsByTagName('g');
if (edges && edges.length) {
  for (var i=0;i<edges.length;i++) {
    if (edges[i].id.substr(0,4)=='edge') {
      edges[i].setAttribute('class','edge');
    }
  }
}
]]></script>
        <defs>
                <circle id="rim" cx="0" cy="0" r="7"/>
                <circle id="rim2" cx="0" cy="0" r="3.5"/>
                <g id="zoomPlus">
                        <use xlink:href="#rim" fill="#404040">
                                <set attributeName="fill" to="#808080" begin="zoomplus.mouseover" end="zoomplus.mouseout"/>
                        </use>
                        <path d="M-4,0h8M0,-4v8" fill="none" stroke="white" stroke-width="1.5" pointer-events="none"/>
                </g>
                <g id="zoomMin">
                        <use xlink:href="#rim" fill="#404040">
                                <set attributeName="fill" to="#808080" begin="zoomminus.mouseover" end="zoomminus.mouseout"/>
                        </use>
                        <path d="M-4,0h8" fill="none" stroke="white" stroke-width="1.5" pointer-events="none"/>
                </g>
                <g id="dirArrow">
                        <path fill="none" stroke="white" stroke-width="1.5" d="M0,-3.0v7 M-2.5,-0.5L0,-3.0L2.5,-0.5"/>
                </g>
               <g id="resetDef">
                       <use xlink:href="#rim2" fill="#404040">
                               <set attributeName="fill" to="#808080" begin="reset.mouseover" end="reset.mouseout"/>
                       </use>
               </g>
        </defs>

<script type="text/javascript">
var viewWidth = 1480;
var viewHeight = 574;
var sectionId = 'dynsection-26';
</script>
<script xlink:href="../../svgpan.js"/>
<svg id="graph" class="graph">
<g id="viewport">
<title>userInterface.UserInterface.setUpResponses</title>
<polygon fill="white" stroke="none" points="-4,4 -4,-570 1476,-570 1476,4 -4,4"/>
<!-- Node1 -->
<g id="node1" class="node"><title>Node1</title>
<polygon fill="#bfbfbf" stroke="black" points="0.5,-191 0.5,-221 165.5,-221 165.5,-191 0.5,-191"/>
<text text-anchor="start" x="8.5" y="-209" font-family="Helvetica,sans-Serif" font-size="10.00">userInterface.UserInterface.set</text>
<text text-anchor="middle" x="83" y="-198" font-family="Helvetica,sans-Serif" font-size="10.00">UpResponses</text>
</g>
<!-- Node2 -->
<g id="node2" class="node"><title>Node2</title>
<g id="a_node2"><a xlink:href="../../d1/d68/classuser_interface_1_1_sidebar.html#a34f50f33f2409c9746c29a4b41aaaeae" target="_top" xlink:title="userInterface.Sidebar.addItem">
<polygon fill="white" stroke="black" points="215.5,-256.5 215.5,-275.5 376.5,-275.5 376.5,-256.5 215.5,-256.5"/>
<text text-anchor="middle" x="296" y="-263.5" font-family="Helvetica,sans-Serif" font-size="10.00">userInterface.Sidebar.addItem</text>
</a>
</g>
</g>
<!-- Node1&#45;&gt;Node2 -->
<g id="edge1" class="edge"><title>Node1&#45;&gt;Node2</title>
<path fill="none" stroke="midnightblue" d="M123.191,-221.086C145.961,-229.48 175.335,-239.679 202,-247 211.654,-249.651 221.963,-252.113 232.073,-254.328"/>
<polygon fill="midnightblue" stroke="midnightblue" points="231.575,-257.8 242.085,-256.457 233.032,-250.953 231.575,-257.8"/>
</g>
<!-- Node3 -->
<g id="node3" class="node"><title>Node3</title>
<g id="a_node3"><a xlink:href="../../d4/db9/classuser_interface_1_1_command_saver.html#a32d811ce9d25cbd4817398286639cbb7" target="_top" xlink:title="userInterface.CommandSaver.close">
<polygon fill="white" stroke="black" points="202,-218.5 202,-237.5 390,-237.5 390,-218.5 202,-218.5"/>
<text text-anchor="middle" x="296" y="-225.5" font-family="Helvetica,sans-Serif" font-size="10.00">userInterface.CommandSaver.close</text>
</a>
</g>
</g>
<!-- Node1&#45;&gt;Node3 -->
<g id="edge2" class="edge"><title>Node1&#45;&gt;Node3</title>
<path fill="none" stroke="midnightblue" d="M165.578,-214.506C174.776,-215.465 184.23,-216.45 193.639,-217.432"/>
<polygon fill="midnightblue" stroke="midnightblue" points="193.509,-220.937 203.818,-218.493 194.235,-213.975 193.509,-220.937"/>
</g>
<!-- Node4 -->
<g id="node4" class="node"><title>Node4</title>
<g id="a_node4"><a xlink:href="../../dd/d8e/classuser_interface_1_1_user_interface.html#a95e324c85888faea808be269e44ed5b8" target="_top" xlink:title="userInterface.UserInterface.run\lCommand">
<polygon fill="white" stroke="black" points="213,-169 213,-199 379,-199 379,-169 213,-169"/>
<text text-anchor="start" x="221" y="-187" font-family="Helvetica,sans-Serif" font-size="10.00">userInterface.UserInterface.run</text>
<text text-anchor="middle" x="296" y="-176" font-family="Helvetica,sans-Serif" font-size="10.00">Command</text>
</a>
</g>
</g>
<!-- Node1&#45;&gt;Node4 -->
<g id="edge3" class="edge"><title>Node1&#45;&gt;Node4</title>
<path fill="none" stroke="midnightblue" d="M165.578,-197.494C177.718,-196.228 190.305,-194.916 202.648,-193.629"/>
<polygon fill="midnightblue" stroke="midnightblue" points="203.36,-197.074 212.943,-192.556 202.634,-190.112 203.36,-197.074"/>
</g>
<!-- Node38 -->
<g id="node38" class="node"><title>Node38</title>
<g id="a_node38"><a xlink:href="../../d4/db9/classuser_interface_1_1_command_saver.html#a5fd7c4d0fc21bf4b40492a52bb65efd8" target="_top" xlink:title="userInterface.CommandSaver.save\lCommand">
<polygon fill="white" stroke="black" points="203.5,-120 203.5,-150 388.5,-150 388.5,-120 203.5,-120"/>
<text text-anchor="start" x="211.5" y="-138" font-family="Helvetica,sans-Serif" font-size="10.00">userInterface.CommandSaver.save</text>
<text text-anchor="middle" x="296" y="-127" font-family="Helvetica,sans-Serif" font-size="10.00">Command</text>
</a>
</g>
</g>
<!-- Node1&#45;&gt;Node38 -->
<g id="edge46" class="edge"><title>Node1&#45;&gt;Node38</title>
<path fill="none" stroke="midnightblue" d="M119.522,-190.983C142.756,-181.452 173.902,-169.223 202,-160 209.567,-157.516 217.537,-155.091 225.499,-152.789"/>
<polygon fill="midnightblue" stroke="midnightblue" points="226.512,-156.14 235.179,-150.047 224.604,-149.405 226.512,-156.14"/>
</g>
<!-- Node5 -->
<g id="node5" class="node"><title>Node5</title>
<g id="a_node5"><a xlink:href="../../d8/d08/classworld_controller_1_1_world_controller.html#a178425d68e3e669c386706153ce44999" target="_top" xlink:title="worldController.WorldController.update">
<polygon fill="white" stroke="black" points="426,-174.5 426,-193.5 624,-193.5 624,-174.5 426,-174.5"/>
<text text-anchor="middle" x="525" y="-181.5" font-family="Helvetica,sans-Serif" font-size="10.00">worldController.WorldController.update</text>
</a>
</g>
</g>
<!-- Node4&#45;&gt;Node5 -->
<g id="edge4" class="edge"><title>Node4&#45;&gt;Node5</title>
<path fill="none" stroke="midnightblue" d="M379.273,-184C391.069,-184 403.353,-184 415.559,-184"/>
<polygon fill="midnightblue" stroke="midnightblue" points="415.781,-187.5 425.781,-184 415.781,-180.5 415.781,-187.5"/>
</g>
<!-- Node6 -->
<g id="node6" class="node"><title>Node6</title>
<g id="a_node6"><a xlink:href="../../d9/dd0/classworld_1_1_world.html#ae370733f7784c42741a6ba66c7d2ecf5" target="_top" xlink:title="world.World.listen">
<polygon fill="white" stroke="black" points="705,-256.5 705,-275.5 803,-275.5 803,-256.5 705,-256.5"/>
<text text-anchor="middle" x="754" y="-263.5" font-family="Helvetica,sans-Serif" font-size="10.00">world.World.listen</text>
</a>
</g>
</g>
<!-- Node5&#45;&gt;Node6 -->
<g id="edge5" class="edge"><title>Node5&#45;&gt;Node6</title>
<path fill="none" stroke="midnightblue" d="M551.912,-193.559C578.884,-203.489 622.363,-219.442 660,-233 678.459,-239.65 699.015,-246.954 716.096,-252.997"/>
<polygon fill="midnightblue" stroke="midnightblue" points="715.116,-256.362 725.711,-256.394 717.448,-249.762 715.116,-256.362"/>
</g>
<!-- Node31 -->
<g id="node31" class="node"><title>Node31</title>
<g id="a_node31"><a xlink:href="../../dd/d8e/classuser_interface_1_1_user_interface.html#a06489ec50d4d8ff415e0b1ec2b02d39a" target="_top" xlink:title="userInterface.UserInterface.get\lSidebar">
<polygon fill="white" stroke="black" points="671,-194 671,-224 837,-224 837,-194 671,-194"/>
<text text-anchor="start" x="679" y="-212" font-family="Helvetica,sans-Serif" font-size="10.00">userInterface.UserInterface.get</text>
<text text-anchor="middle" x="754" y="-201" font-family="Helvetica,sans-Serif" font-size="10.00">Sidebar</text>
</a>
</g>
</g>
<!-- Node5&#45;&gt;Node31 -->
<g id="edge39" class="edge"><title>Node5&#45;&gt;Node31</title>
<path fill="none" stroke="midnightblue" d="M612.467,-193.523C628.192,-195.255 644.652,-197.067 660.542,-198.817"/>
<polygon fill="midnightblue" stroke="midnightblue" points="660.566,-202.341 670.889,-199.957 661.332,-195.383 660.566,-202.341"/>
</g>
<!-- Node32 -->
<g id="node32" class="node"><title>Node32</title>
<g id="a_node32"><a xlink:href="../../d1/d68/classuser_interface_1_1_sidebar.html#a7a3c7a302a3b54e74a26d97c4749444d" target="_top" xlink:title="userInterface.Sidebar.add\lResult">
<polygon fill="white" stroke="black" points="684,-145 684,-175 824,-175 824,-145 684,-145"/>
<text text-anchor="start" x="692" y="-163" font-family="Helvetica,sans-Serif" font-size="10.00">userInterface.Sidebar.add</text>
<text text-anchor="middle" x="754" y="-152" font-family="Helvetica,sans-Serif" font-size="10.00">Result</text>
</a>
</g>
</g>
<!-- Node5&#45;&gt;Node32 -->
<g id="edge40" class="edge"><title>Node5&#45;&gt;Node32</title>
<path fill="none" stroke="midnightblue" d="M616.042,-174.48C635.051,-172.47 654.977,-170.364 673.561,-168.399"/>
<polygon fill="midnightblue" stroke="midnightblue" points="674.156,-171.856 683.733,-167.323 673.42,-164.894 674.156,-171.856"/>
</g>
<!-- Node33 -->
<g id="node33" class="node"><title>Node33</title>
<g id="a_node33"><a xlink:href="../../d8/d08/classworld_controller_1_1_world_controller.html#a9380abb3ed5334498510f1d6a88a826d" target="_top" xlink:title="worldController.WorldController.draw\lTurtle">
<polygon fill="white" stroke="black" points="660.5,-69 660.5,-99 847.5,-99 847.5,-69 660.5,-69"/>
<text text-anchor="start" x="668.5" y="-87" font-family="Helvetica,sans-Serif" font-size="10.00">worldController.WorldController.draw</text>
<text text-anchor="middle" x="754" y="-76" font-family="Helvetica,sans-Serif" font-size="10.00">Turtle</text>
</a>
</g>
</g>
<!-- Node5&#45;&gt;Node33 -->
<g id="edge41" class="edge"><title>Node5&#45;&gt;Node33</title>
<path fill="none" stroke="midnightblue" d="M547.766,-174.412C584.906,-158.05 661.188,-124.446 709.568,-103.133"/>
<polygon fill="midnightblue" stroke="midnightblue" points="711.112,-106.277 718.853,-99.0429 708.29,-99.8714 711.112,-106.277"/>
</g>
<!-- Node7 -->
<g id="node7" class="node"><title>Node7</title>
<g id="a_node7"><a xlink:href="../../d6/d95/classparser_1_1_parser.html#a240c75608624a9c67402a296855c4d1d" target="_top" xlink:title="parser.Parser.initialize\lCommands">
<polygon fill="white" stroke="black" points="924,-317 924,-347 1044,-347 1044,-317 924,-317"/>
<text text-anchor="start" x="932" y="-335" font-family="Helvetica,sans-Serif" font-size="10.00">parser.Parser.initialize</text>
<text text-anchor="middle" x="984" y="-324" font-family="Helvetica,sans-Serif" font-size="10.00">Commands</text>
</a>
</g>
</g>
<!-- Node6&#45;&gt;Node7 -->
<g id="edge6" class="edge"><title>Node6&#45;&gt;Node7</title>
<path fill="none" stroke="midnightblue" d="M783.289,-275.533C809.326,-284.178 849.082,-297.052 884,-307 893.654,-309.75 903.881,-312.507 913.955,-315.133"/>
<polygon fill="midnightblue" stroke="midnightblue" points="913.393,-318.603 923.951,-317.71 915.141,-311.824 913.393,-318.603"/>
</g>
<!-- Node10 -->
<g id="node10" class="node"><title>Node10</title>
<g id="a_node10"><a xlink:href="../../d6/d95/classparser_1_1_parser.html#a4ecbffc246c3add017c4720eed4c6da9" target="_top" xlink:title="parser.Parser.parse">
<polygon fill="white" stroke="black" points="929.5,-366.5 929.5,-385.5 1038.5,-385.5 1038.5,-366.5 929.5,-366.5"/>
<text text-anchor="middle" x="984" y="-373.5" font-family="Helvetica,sans-Serif" font-size="10.00">parser.Parser.parse</text>
</a>
</g>
</g>
<!-- Node6&#45;&gt;Node10 -->
<g id="edge9" class="edge"><title>Node6&#45;&gt;Node10</title>
<path fill="none" stroke="midnightblue" d="M765.464,-275.613C786.325,-294.222 835.293,-335.163 884,-356 895.083,-360.742 907.354,-364.379 919.374,-367.163"/>
<polygon fill="midnightblue" stroke="midnightblue" points="918.87,-370.634 929.381,-369.307 920.336,-363.79 918.87,-370.634"/>
</g>
<!-- Node20 -->
<g id="node20" class="node"><title>Node20</title>
<g id="a_node20"><a xlink:href="../../d7/d35/classcommand_1_1_command.html#abab1a56440721aacda6f82ca3e3f761d" target="_top" xlink:title="command.Command.isLoop">
<polygon fill="white" stroke="black" points="908,-278.5 908,-297.5 1060,-297.5 1060,-278.5 908,-278.5"/>
<text text-anchor="middle" x="984" y="-285.5" font-family="Helvetica,sans-Serif" font-size="10.00">command.Command.isLoop</text>
</a>
</g>
</g>
<!-- Node6&#45;&gt;Node20 -->
<g id="edge28" class="edge"><title>Node6&#45;&gt;Node20</title>
<path fill="none" stroke="midnightblue" d="M803.074,-270.639C830.425,-273.278 865.489,-276.661 897.387,-279.739"/>
<polygon fill="midnightblue" stroke="midnightblue" points="897.329,-283.25 907.618,-280.726 898.001,-276.282 897.329,-283.25"/>
</g>
<!-- Node21 -->
<g id="node21" class="node"><title>Node21</title>
<g id="a_node21"><a xlink:href="../../d3/d0c/classcommand_1_1_loop_command.html#ada1d22f47d490bc6dab4de647cc1f48c" target="_top" xlink:title="command.LoopCommand.read\lValues">
<polygon fill="white" stroke="black" points="900.5,-229 900.5,-259 1067.5,-259 1067.5,-229 900.5,-229"/>
<text text-anchor="start" x="908.5" y="-247" font-family="Helvetica,sans-Serif" font-size="10.00">command.LoopCommand.read</text>
<text text-anchor="middle" x="984" y="-236" font-family="Helvetica,sans-Serif" font-size="10.00">Values</text>
</a>
</g>
</g>
<!-- Node6&#45;&gt;Node21 -->
<g id="edge29" class="edge"><title>Node6&#45;&gt;Node21</title>
<path fill="none" stroke="midnightblue" d="M803.074,-261.361C828.429,-258.915 860.411,-255.829 890.356,-252.939"/>
<polygon fill="midnightblue" stroke="midnightblue" points="890.802,-256.413 900.42,-251.968 890.13,-249.445 890.802,-256.413"/>
</g>
<!-- Node22 -->
<g id="node22" class="node"><title>Node22</title>
<g id="a_node22"><a xlink:href="../../d3/d0c/classcommand_1_1_loop_command.html#acafb991a0b502838282d37c6d34d93ea" target="_top" xlink:title="command.LoopCommand.getStart">
<polygon fill="white" stroke="black" points="891.5,-190.5 891.5,-209.5 1076.5,-209.5 1076.5,-190.5 891.5,-190.5"/>
<text text-anchor="middle" x="984" y="-197.5" font-family="Helvetica,sans-Serif" font-size="10.00">command.LoopCommand.getStart</text>
</a>
</g>
</g>
<!-- Node6&#45;&gt;Node22 -->
<g id="edge30" class="edge"><title>Node6&#45;&gt;Node22</title>
<path fill="none" stroke="midnightblue" d="M782.279,-256.365C800.821,-249.805 825.902,-240.91 848,-233 864.016,-227.267 867.618,-224.586 884,-220 895.036,-216.911 906.889,-214.095 918.423,-211.615"/>
<polygon fill="midnightblue" stroke="midnightblue" points="919.374,-214.992 928.449,-209.524 917.945,-208.14 919.374,-214.992"/>
</g>
<!-- Node23 -->
<g id="node23" class="node"><title>Node23</title>
<g id="a_node23"><a xlink:href="../../d3/d0c/classcommand_1_1_loop_command.html#a38d345572574f40b34185027fed74590" target="_top" xlink:title="command.LoopCommand.getIncr">
<polygon fill="white" stroke="black" points="895,-152.5 895,-171.5 1073,-171.5 1073,-152.5 895,-152.5"/>
<text text-anchor="middle" x="984" y="-159.5" font-family="Helvetica,sans-Serif" font-size="10.00">command.LoopCommand.getIncr</text>
</a>
</g>
</g>
<!-- Node6&#45;&gt;Node23 -->
<g id="edge31" class="edge"><title>Node6&#45;&gt;Node23</title>
<path fill="none" stroke="midnightblue" d="M799.459,-256.365C815.848,-251.303 833.849,-243.827 848,-233 870.324,-215.919 860.448,-196.344 884,-181 887.116,-178.97 890.397,-177.146 893.794,-175.508"/>
<polygon fill="midnightblue" stroke="midnightblue" points="895.184,-178.72 903.023,-171.592 892.45,-172.276 895.184,-178.72"/>
</g>
<!-- Node24 -->
<g id="node24" class="node"><title>Node24</title>
<g id="a_node24"><a xlink:href="../../d3/d0c/classcommand_1_1_loop_command.html#a00fbe9457b4fbcf10374d777d567e50b" target="_top" xlink:title="command.LoopCommand.getEnd">
<polygon fill="white" stroke="black" points="894.5,-114.5 894.5,-133.5 1073.5,-133.5 1073.5,-114.5 894.5,-114.5"/>
<text text-anchor="middle" x="984" y="-121.5" font-family="Helvetica,sans-Serif" font-size="10.00">command.LoopCommand.getEnd</text>
</a>
</g>
</g>
<!-- Node6&#45;&gt;Node24 -->
<g id="edge32" class="edge"><title>Node6&#45;&gt;Node24</title>
<path fill="none" stroke="midnightblue" d="M803.235,-257.251C819.094,-252.352 835.772,-244.754 848,-233 879.059,-203.145 850.772,-170.421 884,-143 886.008,-141.343 888.117,-139.814 890.308,-138.405"/>
<polygon fill="midnightblue" stroke="midnightblue" points="892.063,-141.434 899.129,-133.539 888.682,-135.305 892.063,-141.434"/>
</g>
<!-- Node25 -->
<g id="node25" class="node"><title>Node25</title>
<g id="a_node25"><a xlink:href="../../d6/d95/classparser_1_1_parser.html#a8679d61f4ae6c55910ef113bcdda2c75" target="_top" xlink:title="parser.Parser.updateVariable">
<polygon fill="white" stroke="black" points="907,-76.5 907,-95.5 1061,-95.5 1061,-76.5 907,-76.5"/>
<text text-anchor="middle" x="984" y="-83.5" font-family="Helvetica,sans-Serif" font-size="10.00">parser.Parser.updateVariable</text>
</a>
</g>
</g>
<!-- Node6&#45;&gt;Node25 -->
<g id="edge33" class="edge"><title>Node6&#45;&gt;Node25</title>
<path fill="none" stroke="midnightblue" d="M803.477,-258.111C819.546,-253.285 836.297,-245.512 848,-233 888.368,-189.84 840.484,-144.984 884,-105 888.108,-101.226 892.727,-98.0966 897.668,-95.5108"/>
<polygon fill="midnightblue" stroke="midnightblue" points="899.15,-98.682 906.866,-91.4208 896.306,-92.2859 899.15,-98.682"/>
</g>
<!-- Node26 -->
<g id="node26" class="node"><title>Node26</title>
<g id="a_node26"><a xlink:href="../../d3/d0c/classcommand_1_1_loop_command.html#a5b6c248f45758e6515fcc46e2eae4562" target="_top" xlink:title="command.LoopCommand.getVariable">
<polygon fill="white" stroke="black" points="884.5,-513.5 884.5,-532.5 1083.5,-532.5 1083.5,-513.5 884.5,-513.5"/>
<text text-anchor="middle" x="984" y="-520.5" font-family="Helvetica,sans-Serif" font-size="10.00">command.LoopCommand.getVariable</text>
</a>
</g>
</g>
<!-- Node6&#45;&gt;Node26 -->
<g id="edge34" class="edge"><title>Node6&#45;&gt;Node26</title>
<path fill="none" stroke="midnightblue" d="M757.1,-275.668C765.586,-312.252 800.945,-443.207 884,-504 886.531,-505.853 889.193,-507.539 891.955,-509.073"/>
<polygon fill="midnightblue" stroke="midnightblue" points="890.551,-512.282 901.078,-513.473 893.591,-505.977 890.551,-512.282"/>
</g>
<!-- Node27 -->
<g id="node27" class="node"><title>Node27</title>
<g id="a_node27"><a xlink:href="../../df/dcb/classturtle_1_1_turtle.html#aa53d992fb81cd039a22a301af9b32aba" target="_top" xlink:title="turtle.Turtle.act">
<polygon fill="white" stroke="black" points="939.5,-475.5 939.5,-494.5 1028.5,-494.5 1028.5,-475.5 939.5,-475.5"/>
<text text-anchor="middle" x="984" y="-482.5" font-family="Helvetica,sans-Serif" font-size="10.00">turtle.Turtle.act</text>
</a>
</g>
</g>
<!-- Node6&#45;&gt;Node27 -->
<g id="edge35" class="edge"><title>Node6&#45;&gt;Node27</title>
<path fill="none" stroke="midnightblue" d="M760.518,-275.842C776.486,-303.614 825.356,-383.769 884,-433 903.295,-449.198 928.467,-462.336 948.599,-471.354"/>
<polygon fill="midnightblue" stroke="midnightblue" points="947.463,-474.676 958.03,-475.445 950.249,-468.254 947.463,-474.676"/>
</g>
<!-- Node30 -->
<g id="node30" class="node"><title>Node30</title>
<g id="a_node30"><a xlink:href="../../d6/d95/classparser_1_1_parser.html#acebafe1593fc1f09ac31c7104438e4b1" target="_top" xlink:title="parser.Parser.resetRepcount">
<polygon fill="white" stroke="black" points="908.5,-404.5 908.5,-423.5 1059.5,-423.5 1059.5,-404.5 908.5,-404.5"/>
<text text-anchor="middle" x="984" y="-411.5" font-family="Helvetica,sans-Serif" font-size="10.00">parser.Parser.resetRepcount</text>
</a>
</g>
</g>
<!-- Node6&#45;&gt;Node30 -->
<g id="edge38" class="edge"><title>Node6&#45;&gt;Node30</title>
<path fill="none" stroke="midnightblue" d="M761.489,-275.698C778.422,-300.161 826.635,-364.586 884,-395 888.617,-397.448 893.504,-399.583 898.535,-401.446"/>
<polygon fill="midnightblue" stroke="midnightblue" points="897.76,-404.876 908.354,-404.701 899.963,-398.232 897.76,-404.876"/>
</g>
<!-- Node8 -->
<g id="node8" class="node"><title>Node8</title>
<g id="a_node8"><a xlink:href="../../d3/dcc/classparser_1_1_node.html#a9c12e8d4375a7517eae0a35724b253c4" target="_top" xlink:title="parser.Node.getValue">
<polygon fill="white" stroke="black" points="1342,-306.5 1342,-325.5 1462,-325.5 1462,-306.5 1342,-306.5"/>
<text text-anchor="middle" x="1402" y="-313.5" font-family="Helvetica,sans-Serif" font-size="10.00">parser.Node.getValue</text>
</a>
</g>
</g>
<!-- Node7&#45;&gt;Node8 -->
<g id="edge7" class="edge"><title>Node7&#45;&gt;Node8</title>
<path fill="none" stroke="midnightblue" d="M1044.05,-322.003C1057.64,-318.381 1071.7,-313.512 1084,-307 1102.92,-296.982 1099.99,-282.608 1120,-275 1193.12,-247.201 1219.13,-260.524 1296,-275 1323.39,-280.159 1352.81,-292.27 1373.52,-302"/>
<polygon fill="midnightblue" stroke="midnightblue" points="1372.13,-305.216 1382.66,-306.406 1375.17,-298.911 1372.13,-305.216"/>
</g>
<!-- Node9 -->
<g id="node9" class="node"><title>Node9</title>
<g id="a_node9"><a xlink:href="../../d6/d95/classparser_1_1_parser.html#a4f582c65390bddc57219c0b5c31ef5e7" target="_top" xlink:title="parser.Parser.makeTree">
<polygon fill="white" stroke="black" points="1144,-284.5 1144,-303.5 1272,-303.5 1272,-284.5 1144,-284.5"/>
<text text-anchor="middle" x="1208" y="-291.5" font-family="Helvetica,sans-Serif" font-size="10.00">parser.Parser.makeTree</text>
</a>
</g>
</g>
<!-- Node7&#45;&gt;Node9 -->
<g id="edge8" class="edge"><title>Node7&#45;&gt;Node9</title>
<path fill="none" stroke="midnightblue" d="M1044.2,-321.867C1074.09,-316.751 1110.44,-310.529 1141.2,-305.263"/>
<polygon fill="midnightblue" stroke="midnightblue" points="1142.13,-308.654 1151.4,-303.517 1140.95,-301.755 1142.13,-308.654"/>
</g>
<!-- Node10&#45;&gt;Node9 -->
<g id="edge27" class="edge"><title>Node10&#45;&gt;Node9</title>
<path fill="none" stroke="midnightblue" d="M1038.53,-371.902C1053.99,-368.988 1070.36,-364.112 1084,-356 1105.42,-343.259 1098.68,-325.908 1120,-313 1124.43,-310.316 1129.2,-308.01 1134.13,-306.028"/>
<polygon fill="midnightblue" stroke="midnightblue" points="1135.52,-309.246 1143.77,-302.601 1133.18,-302.65 1135.52,-309.246"/>
</g>
<!-- Node11 -->
<g id="node11" class="node"><title>Node11</title>
<g id="a_node11"><a xlink:href="../../d6/d95/classparser_1_1_parser.html#aac1cff62f68138c7e977a67d39671701" target="_top" xlink:title="parser.Parser.generateCommand\lInput">
<polygon fill="white" stroke="black" points="1120,-361 1120,-391 1296,-391 1296,-361 1120,-361"/>
<text text-anchor="start" x="1128" y="-379" font-family="Helvetica,sans-Serif" font-size="10.00">parser.Parser.generateCommand</text>
<text text-anchor="middle" x="1208" y="-368" font-family="Helvetica,sans-Serif" font-size="10.00">Input</text>
</a>
</g>
</g>
<!-- Node10&#45;&gt;Node11 -->
<g id="edge10" class="edge"><title>Node10&#45;&gt;Node11</title>
<path fill="none" stroke="midnightblue" d="M1038.74,-376C1060.17,-376 1085.52,-376 1109.95,-376"/>
<polygon fill="midnightblue" stroke="midnightblue" points="1109.99,-379.5 1119.99,-376 1109.99,-372.5 1109.99,-379.5"/>
</g>
<!-- Node15 -->
<g id="node15" class="node"><title>Node15</title>
<g id="a_node15"><a xlink:href="../../d6/d95/classparser_1_1_parser.html#a3efcd1192e76101919526b4a5e0046f4" target="_top" xlink:title="parser.Parser.getNodeBefore\lToReplace">
<polygon fill="white" stroke="black" points="1130.5,-459 1130.5,-489 1285.5,-489 1285.5,-459 1130.5,-459"/>
<text text-anchor="start" x="1138.5" y="-477" font-family="Helvetica,sans-Serif" font-size="10.00">parser.Parser.getNodeBefore</text>
<text text-anchor="middle" x="1208" y="-466" font-family="Helvetica,sans-Serif" font-size="10.00">ToReplace</text>
</a>
</g>
</g>
<!-- Node10&#45;&gt;Node15 -->
<g id="edge15" class="edge"><title>Node10&#45;&gt;Node15</title>
<path fill="none" stroke="midnightblue" d="M1038.57,-378.48C1054.21,-381.188 1070.66,-386.141 1084,-395 1108.03,-410.957 1096.72,-431.976 1120,-449 1122.66,-450.948 1125.48,-452.744 1128.4,-454.401"/>
<polygon fill="midnightblue" stroke="midnightblue" points="1126.92,-457.579 1137.43,-458.965 1130.08,-451.331 1126.92,-457.579"/>
</g>
<!-- Node18 -->
<g id="node18" class="node"><title>Node18</title>
<g id="a_node18"><a xlink:href="../../d6/d95/classparser_1_1_parser.html#a447c473b62ba23b7c144df9bb38a9a41" target="_top" xlink:title="parser.Parser.getNodeFor\lCommand">
<polygon fill="white" stroke="black" points="1139,-410 1139,-440 1277,-440 1277,-410 1139,-410"/>
<text text-anchor="start" x="1147" y="-428" font-family="Helvetica,sans-Serif" font-size="10.00">parser.Parser.getNodeFor</text>
<text text-anchor="middle" x="1208" y="-417" font-family="Helvetica,sans-Serif" font-size="10.00">Command</text>
</a>
</g>
</g>
<!-- Node10&#45;&gt;Node18 -->
<g id="edge20" class="edge"><title>Node10&#45;&gt;Node18</title>
<path fill="none" stroke="midnightblue" d="M1037.25,-385.525C1052.36,-388.417 1068.87,-391.704 1084,-395 1101.5,-398.812 1120.33,-403.238 1137.86,-407.5"/>
<polygon fill="midnightblue" stroke="midnightblue" points="1137.47,-411.007 1148.02,-409.984 1139.13,-404.207 1137.47,-411.007"/>
</g>
<!-- Node19 -->
<g id="node19" class="node"><title>Node19</title>
<g id="a_node19"><a xlink:href="../../d3/dcc/classparser_1_1_node.html#a066da2b478008f39a02440d7afceb9ee" target="_top" xlink:title="parser.Node.insertChild">
<polygon fill="white" stroke="black" points="1144,-322.5 1144,-341.5 1272,-341.5 1272,-322.5 1144,-322.5"/>
<text text-anchor="middle" x="1208" y="-329.5" font-family="Helvetica,sans-Serif" font-size="10.00">parser.Node.insertChild</text>
</a>
</g>
</g>
<!-- Node10&#45;&gt;Node19 -->
<g id="edge25" class="edge"><title>Node10&#45;&gt;Node19</title>
<path fill="none" stroke="midnightblue" d="M1033.17,-366.453C1067.21,-359.707 1113,-350.631 1149.04,-343.489"/>
<polygon fill="midnightblue" stroke="midnightblue" points="1149.79,-346.906 1158.92,-341.529 1148.43,-340.04 1149.79,-346.906"/>
</g>
<!-- Node11&#45;&gt;Node8 -->
<g id="edge13" class="edge"><title>Node11&#45;&gt;Node8</title>
<path fill="none" stroke="midnightblue" d="M1265.53,-360.99C1275.75,-357.927 1286.25,-354.547 1296,-351 1312.45,-345.012 1315.51,-340.896 1332,-335 1338.52,-332.667 1345.48,-330.448 1352.37,-328.406"/>
<polygon fill="midnightblue" stroke="midnightblue" points="1353.71,-331.663 1362.36,-325.545 1351.78,-324.933 1353.71,-331.663"/>
</g>
<!-- Node12 -->
<g id="node12" class="node"><title>Node12</title>
<g id="a_node12"><a xlink:href="../../d3/dcc/classparser_1_1_node.html#aa67bc0d39227232943abec9b95b23235" target="_top" xlink:title="parser.Node.getChild1">
<polygon fill="white" stroke="black" points="1340.5,-382.5 1340.5,-401.5 1463.5,-401.5 1463.5,-382.5 1340.5,-382.5"/>
<text text-anchor="middle" x="1402" y="-389.5" font-family="Helvetica,sans-Serif" font-size="10.00">parser.Node.getChild1</text>
</a>
</g>
</g>
<!-- Node11&#45;&gt;Node12 -->
<g id="edge11" class="edge"><title>Node11&#45;&gt;Node12</title>
<path fill="none" stroke="midnightblue" d="M1296.01,-383.251C1307.48,-384.207 1319.13,-385.177 1330.28,-386.107"/>
<polygon fill="midnightblue" stroke="midnightblue" points="1330.11,-389.604 1340.37,-386.947 1330.69,-382.629 1330.11,-389.604"/>
</g>
<!-- Node13 -->
<g id="node13" class="node"><title>Node13</title>
<g id="a_node13"><a xlink:href="../../d3/dcc/classparser_1_1_node.html#a0f13775acc62af77cdde90dbeaf26bbc" target="_top" xlink:title="parser.Node.getChild2">
<polygon fill="white" stroke="black" points="1340.5,-420.5 1340.5,-439.5 1463.5,-439.5 1463.5,-420.5 1340.5,-420.5"/>
<text text-anchor="middle" x="1402" y="-427.5" font-family="Helvetica,sans-Serif" font-size="10.00">parser.Node.getChild2</text>
</a>
</g>
</g>
<!-- Node11&#45;&gt;Node13 -->
<g id="edge12" class="edge"><title>Node11&#45;&gt;Node13</title>
<path fill="none" stroke="midnightblue" d="M1261.34,-391C1283.17,-397.23 1308.8,-404.506 1332,-411 1339.91,-413.215 1348.34,-415.553 1356.49,-417.803"/>
<polygon fill="midnightblue" stroke="midnightblue" points="1355.67,-421.207 1366.24,-420.489 1357.53,-414.458 1355.67,-421.207"/>
</g>
<!-- Node14 -->
<g id="node14" class="node"><title>Node14</title>
<g id="a_node14"><a xlink:href="../../d3/dcc/classparser_1_1_node.html#a6bbc0c61aaa261077eb87cfc4e2b45dc" target="_top" xlink:title="parser.Node.numChildren">
<polygon fill="white" stroke="black" points="1332.5,-344.5 1332.5,-363.5 1471.5,-363.5 1471.5,-344.5 1332.5,-344.5"/>
<text text-anchor="middle" x="1402" y="-351.5" font-family="Helvetica,sans-Serif" font-size="10.00">parser.Node.numChildren</text>
</a>
</g>
</g>
<!-- Node11&#45;&gt;Node14 -->
<g id="edge14" class="edge"><title>Node11&#45;&gt;Node14</title>
<path fill="none" stroke="midnightblue" d="M1296.01,-366.03C1304.78,-365.025 1313.66,-364.008 1322.33,-363.014"/>
<polygon fill="midnightblue" stroke="midnightblue" points="1322.88,-366.475 1332.41,-361.859 1322.08,-359.52 1322.88,-366.475"/>
</g>
<!-- Node15&#45;&gt;Node12 -->
<g id="edge16" class="edge"><title>Node15&#45;&gt;Node12</title>
<path fill="none" stroke="midnightblue" d="M1275.66,-458.889C1282.76,-456.106 1289.69,-452.836 1296,-449 1315.88,-436.917 1312.05,-422.972 1332,-411 1335.6,-408.842 1339.44,-406.923 1343.41,-405.217"/>
<polygon fill="midnightblue" stroke="midnightblue" points="1344.75,-408.454 1352.83,-401.612 1342.24,-401.916 1344.75,-408.454"/>
</g>
<!-- Node15&#45;&gt;Node13 -->
<g id="edge17" class="edge"><title>Node15&#45;&gt;Node13</title>
<path fill="none" stroke="midnightblue" d="M1274.54,-458.981C1299.05,-453.364 1326.51,-447.07 1349.57,-441.786"/>
<polygon fill="midnightblue" stroke="midnightblue" points="1350.53,-445.158 1359.49,-439.512 1348.96,-438.335 1350.53,-445.158"/>
</g>
<!-- Node16 -->
<g id="node16" class="node"><title>Node16</title>
<g id="a_node16"><a xlink:href="../../d3/dcc/classparser_1_1_node.html#ab14db24c0724dec4387e29d513008e2e" target="_top" xlink:title="parser.Node.hasChildren">
<polygon fill="white" stroke="black" points="1335,-496.5 1335,-515.5 1469,-515.5 1469,-496.5 1335,-496.5"/>
<text text-anchor="middle" x="1402" y="-503.5" font-family="Helvetica,sans-Serif" font-size="10.00">parser.Node.hasChildren</text>
</a>
</g>
</g>
<!-- Node15&#45;&gt;Node16 -->
<g id="edge18" class="edge"><title>Node15&#45;&gt;Node16</title>
<path fill="none" stroke="midnightblue" d="M1285.71,-486.785C1301.65,-489.441 1318.33,-492.221 1333.89,-494.814"/>
<polygon fill="midnightblue" stroke="midnightblue" points="1333.49,-498.297 1343.93,-496.488 1334.64,-491.392 1333.49,-498.297"/>
</g>
<!-- Node17 -->
<g id="node17" class="node"><title>Node17</title>
<g id="a_node17"><a xlink:href="../../d3/dcc/classparser_1_1_node.html#aa92667a825777b3d757bc3b1a247ac20" target="_top" xlink:title="parser.Node.isLeaf">
<polygon fill="white" stroke="black" points="1349,-458.5 1349,-477.5 1455,-477.5 1455,-458.5 1349,-458.5"/>
<text text-anchor="middle" x="1402" y="-465.5" font-family="Helvetica,sans-Serif" font-size="10.00">parser.Node.isLeaf</text>
</a>
</g>
</g>
<!-- Node15&#45;&gt;Node17 -->
<g id="edge19" class="edge"><title>Node15&#45;&gt;Node17</title>
<path fill="none" stroke="midnightblue" d="M1285.71,-471.603C1303.27,-471.054 1321.73,-470.477 1338.6,-469.95"/>
<polygon fill="midnightblue" stroke="midnightblue" points="1338.99,-473.44 1348.88,-469.629 1338.77,-466.443 1338.99,-473.44"/>
</g>
<!-- Node18&#45;&gt;Node12 -->
<g id="edge21" class="edge"><title>Node18&#45;&gt;Node12</title>
<path fill="none" stroke="midnightblue" d="M1277.23,-413.273C1296.24,-410.006 1316.83,-406.467 1335.66,-403.23"/>
<polygon fill="midnightblue" stroke="midnightblue" points="1336.36,-406.661 1345.63,-401.517 1335.18,-399.762 1336.36,-406.661"/>
</g>
<!-- Node18&#45;&gt;Node13 -->
<g id="edge22" class="edge"><title>Node18&#45;&gt;Node13</title>
<path fill="none" stroke="midnightblue" d="M1277.23,-426.777C1294.44,-427.225 1312.95,-427.707 1330.28,-428.158"/>
<polygon fill="midnightblue" stroke="midnightblue" points="1330.24,-431.658 1340.33,-428.42 1330.42,-424.661 1330.24,-431.658"/>
</g>
<!-- Node18&#45;&gt;Node16 -->
<g id="edge23" class="edge"><title>Node18&#45;&gt;Node16</title>
<path fill="none" stroke="midnightblue" d="M1275.15,-440.019C1282.42,-442.825 1289.53,-446.125 1296,-450 1315.69,-461.786 1312.25,-475.324 1332,-487 1335.67,-489.17 1339.6,-491.099 1343.64,-492.813"/>
<polygon fill="midnightblue" stroke="midnightblue" points="1342.65,-496.18 1353.24,-496.436 1345.12,-489.631 1342.65,-496.18"/>
</g>
<!-- Node18&#45;&gt;Node17 -->
<g id="edge24" class="edge"><title>Node18&#45;&gt;Node17</title>
<path fill="none" stroke="midnightblue" d="M1276.15,-440.039C1299.88,-445.353 1326.19,-451.247 1348.53,-456.248"/>
<polygon fill="midnightblue" stroke="midnightblue" points="1347.96,-459.708 1358.48,-458.478 1349.49,-452.877 1347.96,-459.708"/>
</g>
<!-- Node19&#45;&gt;Node8 -->
<g id="edge26" class="edge"><title>Node19&#45;&gt;Node8</title>
<path fill="none" stroke="midnightblue" d="M1272.13,-326.739C1291.21,-325.149 1312.26,-323.395 1331.72,-321.773"/>
<polygon fill="midnightblue" stroke="midnightblue" points="1332.06,-325.257 1341.73,-320.939 1331.48,-318.281 1332.06,-325.257"/>
</g>
<!-- Node28 -->
<g id="node28" class="node"><title>Node28</title>
<g id="a_node28"><a xlink:href="../../d7/d35/classcommand_1_1_command.html#a1de2ff02a0e6aa6553a129f9b14e6bb3" target="_top" xlink:title="command.Command.run">
<polygon fill="white" stroke="black" points="1139.5,-508.5 1139.5,-527.5 1276.5,-527.5 1276.5,-508.5 1139.5,-508.5"/>
<text text-anchor="middle" x="1208" y="-515.5" font-family="Helvetica,sans-Serif" font-size="10.00">command.Command.run</text>
</a>
</g>
</g>
<!-- Node27&#45;&gt;Node28 -->
<g id="edge36" class="edge"><title>Node27&#45;&gt;Node28</title>
<path fill="none" stroke="midnightblue" d="M1028.6,-491.48C1058.25,-495.888 1098.23,-501.831 1132.82,-506.974"/>
<polygon fill="midnightblue" stroke="midnightblue" points="1132.49,-510.463 1142.9,-508.471 1133.52,-503.539 1132.49,-510.463"/>
</g>
<!-- Node29 -->
<g id="node29" class="node"><title>Node29</title>
<g id="a_node29"><a xlink:href="../../df/dcb/classturtle_1_1_turtle.html#ae954e0c7f03c3bb4558761d04c34c1d3" target="_top" xlink:title="turtle.Turtle.truncate">
<polygon fill="white" stroke="black" points="1151,-546.5 1151,-565.5 1265,-565.5 1265,-546.5 1151,-546.5"/>
<text text-anchor="middle" x="1208" y="-553.5" font-family="Helvetica,sans-Serif" font-size="10.00">turtle.Turtle.truncate</text>
</a>
</g>
</g>
<!-- Node27&#45;&gt;Node29 -->
<g id="edge37" class="edge"><title>Node27&#45;&gt;Node29</title>
<path fill="none" stroke="midnightblue" d="M1028.58,-488.125C1046.48,-490.716 1066.96,-495.432 1084,-504 1103.39,-513.748 1100.73,-527.006 1120,-537 1126.51,-540.377 1133.6,-543.154 1140.82,-545.439"/>
<polygon fill="midnightblue" stroke="midnightblue" points="1140.14,-548.884 1150.71,-548.259 1142.05,-542.152 1140.14,-548.884"/>
</g>
<!-- Node34 -->
<g id="node34" class="node"><title>Node34</title>
<g id="a_node34"><a xlink:href="../../df/dcb/classturtle_1_1_turtle.html#ac5df386a63f84a7108ee50e2d663a23c" target="_top" xlink:title="turtle.Turtle.drawLine">
<polygon fill="white" stroke="black" points="926,-38.5 926,-57.5 1042,-57.5 1042,-38.5 926,-38.5"/>
<text text-anchor="middle" x="984" y="-45.5" font-family="Helvetica,sans-Serif" font-size="10.00">turtle.Turtle.drawLine</text>
</a>
</g>
</g>
<!-- Node33&#45;&gt;Node34 -->
<g id="edge42" class="edge"><title>Node33&#45;&gt;Node34</title>
<path fill="none" stroke="midnightblue" d="M847.736,-69.3574C870.513,-65.7612 894.463,-61.9795 915.775,-58.6145"/>
<polygon fill="midnightblue" stroke="midnightblue" points="916.355,-62.0663 925.687,-57.0495 915.263,-55.152 916.355,-62.0663"/>
</g>
<!-- Node35 -->
<g id="node35" class="node"><title>Node35</title>
<g id="a_node35"><a xlink:href="../../de/d57/classturtle_1_1_pen.html#ac9a08745a9f3615b9e47c1c8e5af8f1b" target="_top" xlink:title="turtle.Pen.getColor">
<polygon fill="white" stroke="black" points="1154.5,-76.5 1154.5,-95.5 1261.5,-95.5 1261.5,-76.5 1154.5,-76.5"/>
<text text-anchor="middle" x="1208" y="-83.5" font-family="Helvetica,sans-Serif" font-size="10.00">turtle.Pen.getColor</text>
</a>
</g>
</g>
<!-- Node34&#45;&gt;Node35 -->
<g id="edge43" class="edge"><title>Node34&#45;&gt;Node35</title>
<path fill="none" stroke="midnightblue" d="M1040.73,-57.54C1072.28,-62.9393 1111.82,-69.7071 1144.42,-75.2882"/>
<polygon fill="midnightblue" stroke="midnightblue" points="1143.85,-78.742 1154.3,-76.9794 1145.03,-71.8423 1143.85,-78.742"/>
</g>
<!-- Node36 -->
<g id="node36" class="node"><title>Node36</title>
<g id="a_node36"><a xlink:href="../../de/d57/classturtle_1_1_pen.html#a76c8dc4e66927e7d3774ea00b2266640" target="_top" xlink:title="turtle.Pen.getSize">
<polygon fill="white" stroke="black" points="1157,-38.5 1157,-57.5 1259,-57.5 1259,-38.5 1157,-38.5"/>
<text text-anchor="middle" x="1208" y="-45.5" font-family="Helvetica,sans-Serif" font-size="10.00">turtle.Pen.getSize</text>
</a>
</g>
</g>
<!-- Node34&#45;&gt;Node36 -->
<g id="edge44" class="edge"><title>Node34&#45;&gt;Node36</title>
<path fill="none" stroke="midnightblue" d="M1042.17,-48C1074.17,-48 1114.03,-48 1146.55,-48"/>
<polygon fill="midnightblue" stroke="midnightblue" points="1146.82,-51.5001 1156.82,-48 1146.82,-44.5001 1146.82,-51.5001"/>
</g>
<!-- Node37 -->
<g id="node37" class="node"><title>Node37</title>
<g id="a_node37"><a xlink:href="../../de/d57/classturtle_1_1_pen.html#a361f4e030646d953185a8afe94427ce2" target="_top" xlink:title="turtle.Pen.penReady">
<polygon fill="white" stroke="black" points="1151.5,-0.5 1151.5,-19.5 1264.5,-19.5 1264.5,-0.5 1151.5,-0.5"/>
<text text-anchor="middle" x="1208" y="-7.5" font-family="Helvetica,sans-Serif" font-size="10.00">turtle.Pen.penReady</text>
</a>
</g>
</g>
<!-- Node34&#45;&gt;Node37 -->
<g id="edge45" class="edge"><title>Node34&#45;&gt;Node37</title>
<path fill="none" stroke="midnightblue" d="M1040.73,-38.46C1071.21,-33.2426 1109.16,-26.7475 1141.1,-21.28"/>
<polygon fill="midnightblue" stroke="midnightblue" points="1141.98,-24.681 1151.24,-19.5439 1140.8,-17.7813 1141.98,-24.681"/>
</g>
</g>
</svg>
        <g id="navigator" transform="translate(0 0)" fill="#404254">
                <rect fill="#f2f5e9" fill-opacity="0.5" stroke="#606060" stroke-width=".5" x="0" y="0" width="60" height="60"/>
                <use id="zoomplus" xlink:href="#zoomPlus" x="17" y="9" onmousedown="handleZoom(evt,'in')"/>
                <use id="zoomminus" xlink:href="#zoomMin" x="42" y="9" onmousedown="handleZoom(evt,'out')"/>
                <use id="reset" xlink:href="#resetDef" x="30" y="36" onmousedown="handleReset()"/>
                <g id="arrowUp" xlink:href="#dirArrow" transform="translate(30 24)" onmousedown="handlePan(0,-1)">
                  <use xlink:href="#rim" fill="#404040">
                        <set attributeName="fill" to="#808080" begin="arrowUp.mouseover" end="arrowUp.mouseout"/>
                  </use>
                  <path fill="none" stroke="white" stroke-width="1.5" d="M0,-3.0v7 M-2.5,-0.5L0,-3.0L2.5,-0.5"/>
                </g>
                <g id="arrowRight" xlink:href="#dirArrow" transform="rotate(90) translate(36 -43)" onmousedown="handlePan(1,0)">
                  <use xlink:href="#rim" fill="#404040">
                        <set attributeName="fill" to="#808080" begin="arrowRight.mouseover" end="arrowRight.mouseout"/>
                  </use>
                  <path fill="none" stroke="white" stroke-width="1.5" d="M0,-3.0v7 M-2.5,-0.5L0,-3.0L2.5,-0.5"/>
                </g>
                <g id="arrowDown" xlink:href="#dirArrow" transform="rotate(180) translate(-30 -48)" onmousedown="handlePan(0,1)">
                  <use xlink:href="#rim" fill="#404040">
                        <set attributeName="fill" to="#808080" begin="arrowDown.mouseover" end="arrowDown.mouseout"/>
                  </use>
                  <path fill="none" stroke="white" stroke-width="1.5" d="M0,-3.0v7 M-2.5,-0.5L0,-3.0L2.5,-0.5"/>
                </g>
                <g id="arrowLeft" xlink:href="#dirArrow" transform="rotate(270) translate(-36 17)" onmousedown="handlePan(-1,0)">
                  <use xlink:href="#rim" fill="#404040">
                        <set attributeName="fill" to="#808080" begin="arrowLeft.mouseover" end="arrowLeft.mouseout"/>
                  </use>
                  <path fill="none" stroke="white" stroke-width="1.5" d="M0,-3.0v7 M-2.5,-0.5L0,-3.0L2.5,-0.5"/>
                </g>
        </g>
        <svg viewBox="0 0 15 15" width="100%" height="30px" preserveAspectRatio="xMaxYMin meet">
         <g id="arrow_out" transform="scale(0.3 0.3)">
          <a xlink:href="classuser_interface_1_1_user_interface_a560c36977fddeee87002333870c54ed6_cgraph_org.svg" target="_base">
           <rect id="button" ry="5" rx="5" y="6" x="6" height="38" width="38"
                fill="#f2f5e9" fill-opacity="0.5" stroke="#606060" stroke-width="1.0"/>
           <path id="arrow"
             d="M 11.500037,31.436501 C 11.940474,20.09759 22.043105,11.32322 32.158766,21.979434 L 37.068811,17.246167 C 37.068811,17.246167 37.088388,32 37.088388,32 L 22.160133,31.978069 C 22.160133,31.978069 26.997745,27.140456 26.997745,27.140456 C 18.528582,18.264221 13.291696,25.230495 11.500037,31.436501 z"
             style="fill:#404040;"/>
          </a>
         </g>
        </svg>
</svg>
