<?xml version="1.0" encoding="UTF-8" standalone="no"?>
<!DOCTYPE svg PUBLIC "-//W3C//DTD SVG 1.1//EN"
 "http://www.w3.org/Graphics/SVG/1.1/DTD/svg11.dtd">
<!-- Generated by graphviz version 2.36.0 (20140111.2315)
 -->
<!-- Title: userInterface.UserInterface.makeFunctionButtons Pages: 1 -->
<!--zoomable 574 -->
<svg id="main" version="1.1" xmlns="http://www.w3.org/2000/svg" xmlns:xlink="http://www.w3.org/1999/xlink" xml:space="preserve" onload="init(evt)">
<style type="text/css"><![CDATA[
.edge:hover path { stroke: red; }
.edge:hover polygon { stroke: red; fill: red; }
]]></style>
<script type="text/javascript"><![CDATA[
var edges = document.getElementsByTagName('g');
if (edges && edges.length) {
  for (var i=0;i<edges.length;i++) {
    if (edges[i].id.substr(0,4)=='edge') {
      edges[i].setAttribute('class','edge');
    }
  }
}
]]></script>
        <defs>
                <circle id="rim" cx="0" cy="0" r="7"/>
                <circle id="rim2" cx="0" cy="0" r="3.5"/>
                <g id="zoomPlus">
                        <use xlink:href="#rim" fill="#404040">
                                <set attributeName="fill" to="#808080" begin="zoomplus.mouseover" end="zoomplus.mouseout"/>
                        </use>
                        <path d="M-4,0h8M0,-4v8" fill="none" stroke="white" stroke-width="1.5" pointer-events="none"/>
                </g>
                <g id="zoomMin">
                        <use xlink:href="#rim" fill="#404040">
                                <set attributeName="fill" to="#808080" begin="zoomminus.mouseover" end="zoomminus.mouseout"/>
                        </use>
                        <path d="M-4,0h8" fill="none" stroke="white" stroke-width="1.5" pointer-events="none"/>
                </g>
                <g id="dirArrow">
                        <path fill="none" stroke="white" stroke-width="1.5" d="M0,-3.0v7 M-2.5,-0.5L0,-3.0L2.5,-0.5"/>
                </g>
               <g id="resetDef">
                       <use xlink:href="#rim2" fill="#404040">
                               <set attributeName="fill" to="#808080" begin="reset.mouseover" end="reset.mouseout"/>
                       </use>
               </g>
        </defs>

<script type="text/javascript">
var viewWidth = 1704;
var viewHeight = 574;
var sectionId = 'dynsection-12';
</script>
<script xlink:href="../../svgpan.js"/>
<svg id="graph" class="graph">
<g id="viewport">
<title>userInterface.UserInterface.makeFunctionButtons</title>
<polygon fill="white" stroke="none" points="-4,4 -4,-570 1700,-570 1700,4 -4,4"/>
<!-- Node1 -->
<g id="node1" class="node"><title>Node1</title>
<polygon fill="#bfbfbf" stroke="black" points="0.5,-234 0.5,-264 177.5,-264 177.5,-234 0.5,-234"/>
<text text-anchor="start" x="8.5" y="-252" font-family="Helvetica,sans-Serif" font-size="10.00">userInterface.UserInterface.make</text>
<text text-anchor="middle" x="89" y="-241" font-family="Helvetica,sans-Serif" font-size="10.00">FunctionButtons</text>
</g>
<!-- Node2 -->
<g id="node2" class="node"><title>Node2</title>
<g id="a_node2"><a xlink:href="../../dd/d8e/classuser_interface_1_1_user_interface.html#a4316649a1f81fcc1dcaf93c812bf6f3a" target="_top" xlink:title="userInterface.UserInterface.make\lRunButton">
<polygon fill="white" stroke="black" points="214.5,-210 214.5,-240 391.5,-240 391.5,-210 214.5,-210"/>
<text text-anchor="start" x="222.5" y="-228" font-family="Helvetica,sans-Serif" font-size="10.00">userInterface.UserInterface.make</text>
<text text-anchor="middle" x="303" y="-217" font-family="Helvetica,sans-Serif" font-size="10.00">RunButton</text>
</a>
</g>
</g>
<!-- Node1&#45;&gt;Node2 -->
<g id="edge1" class="edge"><title>Node1&#45;&gt;Node2</title>
<path fill="none" stroke="midnightblue" d="M177.759,-239.065C186.532,-238.072 195.477,-237.059 204.343,-236.056"/>
<polygon fill="midnightblue" stroke="midnightblue" points="204.764,-239.53 214.307,-234.928 203.977,-232.575 204.764,-239.53"/>
</g>
<!-- Node39 -->
<g id="node39" class="node"><title>Node39</title>
<g id="a_node39"><a xlink:href="../../dd/d8e/classuser_interface_1_1_user_interface.html#a74a997815f6027ba1fdee49c56becb16" target="_top" xlink:title="userInterface.UserInterface.make\lSwitchTurtle">
<polygon fill="white" stroke="black" points="214.5,-259 214.5,-289 391.5,-289 391.5,-259 214.5,-259"/>
<text text-anchor="start" x="222.5" y="-277" font-family="Helvetica,sans-Serif" font-size="10.00">userInterface.UserInterface.make</text>
<text text-anchor="middle" x="303" y="-266" font-family="Helvetica,sans-Serif" font-size="10.00">SwitchTurtle</text>
</a>
</g>
</g>
<!-- Node1&#45;&gt;Node39 -->
<g id="edge47" class="edge"><title>Node1&#45;&gt;Node39</title>
<path fill="none" stroke="midnightblue" d="M177.759,-259.349C186.532,-260.383 195.477,-261.438 204.343,-262.484"/>
<polygon fill="midnightblue" stroke="midnightblue" points="203.966,-265.964 214.307,-263.659 204.786,-259.012 203.966,-265.964"/>
</g>
<!-- Node3 -->
<g id="node3" class="node"><title>Node3</title>
<g id="a_node3"><a xlink:href="../../dd/d8e/classuser_interface_1_1_user_interface.html#abc4f9421a71a0c5236fac830a5b94ae3" target="_top" xlink:title="userInterface.UserInterface.make\lUIButton">
<polygon fill="white" stroke="black" points="432.5,-257 432.5,-287 609.5,-287 609.5,-257 432.5,-257"/>
<text text-anchor="start" x="440.5" y="-275" font-family="Helvetica,sans-Serif" font-size="10.00">userInterface.UserInterface.make</text>
<text text-anchor="middle" x="521" y="-264" font-family="Helvetica,sans-Serif" font-size="10.00">UIButton</text>
</a>
</g>
</g>
<!-- Node2&#45;&gt;Node3 -->
<g id="edge2" class="edge"><title>Node2&#45;&gt;Node3</title>
<path fill="none" stroke="midnightblue" d="M372.938,-240C394.663,-244.728 418.825,-249.985 441.183,-254.85"/>
<polygon fill="midnightblue" stroke="midnightblue" points="440.461,-258.275 450.976,-256.981 441.949,-251.435 440.461,-258.275"/>
</g>
<!-- Node4 -->
<g id="node4" class="node"><title>Node4</title>
<g id="a_node4"><a xlink:href="../../dd/d8e/classuser_interface_1_1_user_interface.html#a95e324c85888faea808be269e44ed5b8" target="_top" xlink:title="userInterface.UserInterface.run\lCommand">
<polygon fill="white" stroke="black" points="438,-169 438,-199 604,-199 604,-169 438,-169"/>
<text text-anchor="start" x="446" y="-187" font-family="Helvetica,sans-Serif" font-size="10.00">userInterface.UserInterface.run</text>
<text text-anchor="middle" x="521" y="-176" font-family="Helvetica,sans-Serif" font-size="10.00">Command</text>
</a>
</g>
</g>
<!-- Node2&#45;&gt;Node4 -->
<g id="edge3" class="edge"><title>Node2&#45;&gt;Node4</title>
<path fill="none" stroke="midnightblue" d="M383.204,-209.966C398.612,-207.041 414.863,-203.957 430.574,-200.974"/>
<polygon fill="midnightblue" stroke="midnightblue" points="431.634,-204.336 440.806,-199.032 430.328,-197.459 431.634,-204.336"/>
</g>
<!-- Node38 -->
<g id="node38" class="node"><title>Node38</title>
<g id="a_node38"><a xlink:href="../../d1/d68/classuser_interface_1_1_sidebar.html#aed3ba3f7fa5f4c1cf329340e138fe145" target="_top" xlink:title="userInterface.Sidebar.add">
<polygon fill="white" stroke="black" points="451,-218.5 451,-237.5 591,-237.5 591,-218.5 451,-218.5"/>
<text text-anchor="middle" x="521" y="-225.5" font-family="Helvetica,sans-Serif" font-size="10.00">userInterface.Sidebar.add</text>
</a>
</g>
</g>
<!-- Node2&#45;&gt;Node38 -->
<g id="edge46" class="edge"><title>Node2&#45;&gt;Node38</title>
<path fill="none" stroke="midnightblue" d="M391.544,-226.216C407.756,-226.441 424.607,-226.675 440.561,-226.897"/>
<polygon fill="midnightblue" stroke="midnightblue" points="440.853,-230.401 450.9,-227.04 440.95,-223.402 440.853,-230.401"/>
</g>
<!-- Node5 -->
<g id="node5" class="node"><title>Node5</title>
<g id="a_node5"><a xlink:href="../../d8/d08/classworld_controller_1_1_world_controller.html#a178425d68e3e669c386706153ce44999" target="_top" xlink:title="worldController.WorldController.update">
<polygon fill="white" stroke="black" points="650,-174.5 650,-193.5 848,-193.5 848,-174.5 650,-174.5"/>
<text text-anchor="middle" x="749" y="-181.5" font-family="Helvetica,sans-Serif" font-size="10.00">worldController.WorldController.update</text>
</a>
</g>
</g>
<!-- Node4&#45;&gt;Node5 -->
<g id="edge4" class="edge"><title>Node4&#45;&gt;Node5</title>
<path fill="none" stroke="midnightblue" d="M604.231,-184C615.651,-184 627.526,-184 639.338,-184"/>
<polygon fill="midnightblue" stroke="midnightblue" points="639.688,-187.5 649.688,-184 639.688,-180.5 639.688,-187.5"/>
</g>
<!-- Node6 -->
<g id="node6" class="node"><title>Node6</title>
<g id="a_node6"><a xlink:href="../../d9/dd0/classworld_1_1_world.html#ae370733f7784c42741a6ba66c7d2ecf5" target="_top" xlink:title="world.World.listen">
<polygon fill="white" stroke="black" points="929,-256.5 929,-275.5 1027,-275.5 1027,-256.5 929,-256.5"/>
<text text-anchor="middle" x="978" y="-263.5" font-family="Helvetica,sans-Serif" font-size="10.00">world.World.listen</text>
</a>
</g>
</g>
<!-- Node5&#45;&gt;Node6 -->
<g id="edge5" class="edge"><title>Node5&#45;&gt;Node6</title>
<path fill="none" stroke="midnightblue" d="M775.912,-193.559C802.884,-203.489 846.363,-219.442 884,-233 902.459,-239.65 923.015,-246.954 940.096,-252.997"/>
<polygon fill="midnightblue" stroke="midnightblue" points="939.116,-256.362 949.711,-256.394 941.448,-249.762 939.116,-256.362"/>
</g>
<!-- Node31 -->
<g id="node31" class="node"><title>Node31</title>
<g id="a_node31"><a xlink:href="../../dd/d8e/classuser_interface_1_1_user_interface.html#a06489ec50d4d8ff415e0b1ec2b02d39a" target="_top" xlink:title="userInterface.UserInterface.get\lSidebar">
<polygon fill="white" stroke="black" points="895,-194 895,-224 1061,-224 1061,-194 895,-194"/>
<text text-anchor="start" x="903" y="-212" font-family="Helvetica,sans-Serif" font-size="10.00">userInterface.UserInterface.get</text>
<text text-anchor="middle" x="978" y="-201" font-family="Helvetica,sans-Serif" font-size="10.00">Sidebar</text>
</a>
</g>
</g>
<!-- Node5&#45;&gt;Node31 -->
<g id="edge39" class="edge"><title>Node5&#45;&gt;Node31</title>
<path fill="none" stroke="midnightblue" d="M836.467,-193.523C852.192,-195.255 868.652,-197.067 884.542,-198.817"/>
<polygon fill="midnightblue" stroke="midnightblue" points="884.566,-202.341 894.889,-199.957 885.332,-195.383 884.566,-202.341"/>
</g>
<!-- Node32 -->
<g id="node32" class="node"><title>Node32</title>
<g id="a_node32"><a xlink:href="../../d1/d68/classuser_interface_1_1_sidebar.html#a7a3c7a302a3b54e74a26d97c4749444d" target="_top" xlink:title="userInterface.Sidebar.add\lResult">
<polygon fill="white" stroke="black" points="908,-145 908,-175 1048,-175 1048,-145 908,-145"/>
<text text-anchor="start" x="916" y="-163" font-family="Helvetica,sans-Serif" font-size="10.00">userInterface.Sidebar.add</text>
<text text-anchor="middle" x="978" y="-152" font-family="Helvetica,sans-Serif" font-size="10.00">Result</text>
</a>
</g>
</g>
<!-- Node5&#45;&gt;Node32 -->
<g id="edge40" class="edge"><title>Node5&#45;&gt;Node32</title>
<path fill="none" stroke="midnightblue" d="M840.042,-174.48C859.051,-172.47 878.977,-170.364 897.561,-168.399"/>
<polygon fill="midnightblue" stroke="midnightblue" points="898.156,-171.856 907.733,-167.323 897.42,-164.894 898.156,-171.856"/>
</g>
<!-- Node33 -->
<g id="node33" class="node"><title>Node33</title>
<g id="a_node33"><a xlink:href="../../d8/d08/classworld_controller_1_1_world_controller.html#a9380abb3ed5334498510f1d6a88a826d" target="_top" xlink:title="worldController.WorldController.draw\lTurtle">
<polygon fill="white" stroke="black" points="884.5,-69 884.5,-99 1071.5,-99 1071.5,-69 884.5,-69"/>
<text text-anchor="start" x="892.5" y="-87" font-family="Helvetica,sans-Serif" font-size="10.00">worldController.WorldController.draw</text>
<text text-anchor="middle" x="978" y="-76" font-family="Helvetica,sans-Serif" font-size="10.00">Turtle</text>
</a>
</g>
</g>
<!-- Node5&#45;&gt;Node33 -->
<g id="edge41" class="edge"><title>Node5&#45;&gt;Node33</title>
<path fill="none" stroke="midnightblue" d="M771.766,-174.412C808.906,-158.05 885.188,-124.446 933.568,-103.133"/>
<polygon fill="midnightblue" stroke="midnightblue" points="935.112,-106.277 942.853,-99.0429 932.29,-99.8714 935.112,-106.277"/>
</g>
<!-- Node7 -->
<g id="node7" class="node"><title>Node7</title>
<g id="a_node7"><a xlink:href="../../d6/d95/classparser_1_1_parser.html#a240c75608624a9c67402a296855c4d1d" target="_top" xlink:title="parser.Parser.initialize\lCommands">
<polygon fill="white" stroke="black" points="1148,-317 1148,-347 1268,-347 1268,-317 1148,-317"/>
<text text-anchor="start" x="1156" y="-335" font-family="Helvetica,sans-Serif" font-size="10.00">parser.Parser.initialize</text>
<text text-anchor="middle" x="1208" y="-324" font-family="Helvetica,sans-Serif" font-size="10.00">Commands</text>
</a>
</g>
</g>
<!-- Node6&#45;&gt;Node7 -->
<g id="edge6" class="edge"><title>Node6&#45;&gt;Node7</title>
<path fill="none" stroke="midnightblue" d="M1007.29,-275.533C1033.33,-284.178 1073.08,-297.052 1108,-307 1117.65,-309.75 1127.88,-312.507 1137.95,-315.133"/>
<polygon fill="midnightblue" stroke="midnightblue" points="1137.39,-318.603 1147.95,-317.71 1139.14,-311.824 1137.39,-318.603"/>
</g>
<!-- Node10 -->
<g id="node10" class="node"><title>Node10</title>
<g id="a_node10"><a xlink:href="../../d6/d95/classparser_1_1_parser.html#a4ecbffc246c3add017c4720eed4c6da9" target="_top" xlink:title="parser.Parser.parse">
<polygon fill="white" stroke="black" points="1153.5,-366.5 1153.5,-385.5 1262.5,-385.5 1262.5,-366.5 1153.5,-366.5"/>
<text text-anchor="middle" x="1208" y="-373.5" font-family="Helvetica,sans-Serif" font-size="10.00">parser.Parser.parse</text>
</a>
</g>
</g>
<!-- Node6&#45;&gt;Node10 -->
<g id="edge9" class="edge"><title>Node6&#45;&gt;Node10</title>
<path fill="none" stroke="midnightblue" d="M989.464,-275.613C1010.33,-294.222 1059.29,-335.163 1108,-356 1119.08,-360.742 1131.35,-364.379 1143.37,-367.163"/>
<polygon fill="midnightblue" stroke="midnightblue" points="1142.87,-370.634 1153.38,-369.307 1144.34,-363.79 1142.87,-370.634"/>
</g>
<!-- Node20 -->
<g id="node20" class="node"><title>Node20</title>
<g id="a_node20"><a xlink:href="../../d7/d35/classcommand_1_1_command.html#abab1a56440721aacda6f82ca3e3f761d" target="_top" xlink:title="command.Command.isLoop">
<polygon fill="white" stroke="black" points="1132,-278.5 1132,-297.5 1284,-297.5 1284,-278.5 1132,-278.5"/>
<text text-anchor="middle" x="1208" y="-285.5" font-family="Helvetica,sans-Serif" font-size="10.00">command.Command.isLoop</text>
</a>
</g>
</g>
<!-- Node6&#45;&gt;Node20 -->
<g id="edge28" class="edge"><title>Node6&#45;&gt;Node20</title>
<path fill="none" stroke="midnightblue" d="M1027.07,-270.639C1054.43,-273.278 1089.49,-276.661 1121.39,-279.739"/>
<polygon fill="midnightblue" stroke="midnightblue" points="1121.33,-283.25 1131.62,-280.726 1122,-276.282 1121.33,-283.25"/>
</g>
<!-- Node21 -->
<g id="node21" class="node"><title>Node21</title>
<g id="a_node21"><a xlink:href="../../d3/d0c/classcommand_1_1_loop_command.html#ada1d22f47d490bc6dab4de647cc1f48c" target="_top" xlink:title="command.LoopCommand.read\lValues">
<polygon fill="white" stroke="black" points="1124.5,-229 1124.5,-259 1291.5,-259 1291.5,-229 1124.5,-229"/>
<text text-anchor="start" x="1132.5" y="-247" font-family="Helvetica,sans-Serif" font-size="10.00">command.LoopCommand.read</text>
<text text-anchor="middle" x="1208" y="-236" font-family="Helvetica,sans-Serif" font-size="10.00">Values</text>
</a>
</g>
</g>
<!-- Node6&#45;&gt;Node21 -->
<g id="edge29" class="edge"><title>Node6&#45;&gt;Node21</title>
<path fill="none" stroke="midnightblue" d="M1027.07,-261.361C1052.43,-258.915 1084.41,-255.829 1114.36,-252.939"/>
<polygon fill="midnightblue" stroke="midnightblue" points="1114.8,-256.413 1124.42,-251.968 1114.13,-249.445 1114.8,-256.413"/>
</g>
<!-- Node22 -->
<g id="node22" class="node"><title>Node22</title>
<g id="a_node22"><a xlink:href="../../d3/d0c/classcommand_1_1_loop_command.html#acafb991a0b502838282d37c6d34d93ea" target="_top" xlink:title="command.LoopCommand.getStart">
<polygon fill="white" stroke="black" points="1115.5,-190.5 1115.5,-209.5 1300.5,-209.5 1300.5,-190.5 1115.5,-190.5"/>
<text text-anchor="middle" x="1208" y="-197.5" font-family="Helvetica,sans-Serif" font-size="10.00">command.LoopCommand.getStart</text>
</a>
</g>
</g>
<!-- Node6&#45;&gt;Node22 -->
<g id="edge30" class="edge"><title>Node6&#45;&gt;Node22</title>
<path fill="none" stroke="midnightblue" d="M1006.75,-256.397C1025.28,-249.925 1050.16,-241.119 1072,-233 1088.09,-227.018 1091.5,-223.748 1108,-219 1117.59,-216.241 1127.81,-213.768 1137.92,-211.592"/>
<polygon fill="midnightblue" stroke="midnightblue" points="1138.87,-214.969 1147.95,-209.514 1137.45,-208.114 1138.87,-214.969"/>
</g>
<!-- Node23 -->
<g id="node23" class="node"><title>Node23</title>
<g id="a_node23"><a xlink:href="../../d3/d0c/classcommand_1_1_loop_command.html#a38d345572574f40b34185027fed74590" target="_top" xlink:title="command.LoopCommand.getIncr">
<polygon fill="white" stroke="black" points="1119,-152.5 1119,-171.5 1297,-171.5 1297,-152.5 1119,-152.5"/>
<text text-anchor="middle" x="1208" y="-159.5" font-family="Helvetica,sans-Serif" font-size="10.00">command.LoopCommand.getIncr</text>
</a>
</g>
</g>
<!-- Node6&#45;&gt;Node23 -->
<g id="edge31" class="edge"><title>Node6&#45;&gt;Node23</title>
<path fill="none" stroke="midnightblue" d="M1023.46,-256.365C1039.85,-251.303 1057.85,-243.827 1072,-233 1094.32,-215.919 1084.45,-196.344 1108,-181 1111.12,-178.97 1114.4,-177.146 1117.79,-175.508"/>
<polygon fill="midnightblue" stroke="midnightblue" points="1119.18,-178.72 1127.02,-171.592 1116.45,-172.276 1119.18,-178.72"/>
</g>
<!-- Node24 -->
<g id="node24" class="node"><title>Node24</title>
<g id="a_node24"><a xlink:href="../../d3/d0c/classcommand_1_1_loop_command.html#a00fbe9457b4fbcf10374d777d567e50b" target="_top" xlink:title="command.LoopCommand.getEnd">
<polygon fill="white" stroke="black" points="1118.5,-114.5 1118.5,-133.5 1297.5,-133.5 1297.5,-114.5 1118.5,-114.5"/>
<text text-anchor="middle" x="1208" y="-121.5" font-family="Helvetica,sans-Serif" font-size="10.00">command.LoopCommand.getEnd</text>
</a>
</g>
</g>
<!-- Node6&#45;&gt;Node24 -->
<g id="edge32" class="edge"><title>Node6&#45;&gt;Node24</title>
<path fill="none" stroke="midnightblue" d="M1027.24,-257.251C1043.09,-252.352 1059.77,-244.754 1072,-233 1103.06,-203.145 1074.77,-170.421 1108,-143 1110.01,-141.343 1112.12,-139.814 1114.31,-138.405"/>
<polygon fill="midnightblue" stroke="midnightblue" points="1116.06,-141.434 1123.13,-133.539 1112.68,-135.305 1116.06,-141.434"/>
</g>
<!-- Node25 -->
<g id="node25" class="node"><title>Node25</title>
<g id="a_node25"><a xlink:href="../../d6/d95/classparser_1_1_parser.html#a8679d61f4ae6c55910ef113bcdda2c75" target="_top" xlink:title="parser.Parser.updateVariable">
<polygon fill="white" stroke="black" points="1131,-76.5 1131,-95.5 1285,-95.5 1285,-76.5 1131,-76.5"/>
<text text-anchor="middle" x="1208" y="-83.5" font-family="Helvetica,sans-Serif" font-size="10.00">parser.Parser.updateVariable</text>
</a>
</g>
</g>
<!-- Node6&#45;&gt;Node25 -->
<g id="edge33" class="edge"><title>Node6&#45;&gt;Node25</title>
<path fill="none" stroke="midnightblue" d="M1027.48,-258.111C1043.55,-253.285 1060.3,-245.512 1072,-233 1112.37,-189.84 1064.48,-144.984 1108,-105 1112.11,-101.226 1116.73,-98.0966 1121.67,-95.5108"/>
<polygon fill="midnightblue" stroke="midnightblue" points="1123.15,-98.682 1130.87,-91.4208 1120.31,-92.2859 1123.15,-98.682"/>
</g>
<!-- Node26 -->
<g id="node26" class="node"><title>Node26</title>
<g id="a_node26"><a xlink:href="../../d3/d0c/classcommand_1_1_loop_command.html#a5b6c248f45758e6515fcc46e2eae4562" target="_top" xlink:title="command.LoopCommand.getVariable">
<polygon fill="white" stroke="black" points="1108.5,-513.5 1108.5,-532.5 1307.5,-532.5 1307.5,-513.5 1108.5,-513.5"/>
<text text-anchor="middle" x="1208" y="-520.5" font-family="Helvetica,sans-Serif" font-size="10.00">command.LoopCommand.getVariable</text>
</a>
</g>
</g>
<!-- Node6&#45;&gt;Node26 -->
<g id="edge34" class="edge"><title>Node6&#45;&gt;Node26</title>
<path fill="none" stroke="midnightblue" d="M981.1,-275.668C989.586,-312.252 1024.95,-443.207 1108,-504 1110.53,-505.853 1113.19,-507.539 1115.95,-509.073"/>
<polygon fill="midnightblue" stroke="midnightblue" points="1114.55,-512.282 1125.08,-513.473 1117.59,-505.977 1114.55,-512.282"/>
</g>
<!-- Node27 -->
<g id="node27" class="node"><title>Node27</title>
<g id="a_node27"><a xlink:href="../../df/dcb/classturtle_1_1_turtle.html#aa53d992fb81cd039a22a301af9b32aba" target="_top" xlink:title="turtle.Turtle.act">
<polygon fill="white" stroke="black" points="1163.5,-475.5 1163.5,-494.5 1252.5,-494.5 1252.5,-475.5 1163.5,-475.5"/>
<text text-anchor="middle" x="1208" y="-482.5" font-family="Helvetica,sans-Serif" font-size="10.00">turtle.Turtle.act</text>
</a>
</g>
</g>
<!-- Node6&#45;&gt;Node27 -->
<g id="edge35" class="edge"><title>Node6&#45;&gt;Node27</title>
<path fill="none" stroke="midnightblue" d="M984.518,-275.842C1000.49,-303.614 1049.36,-383.769 1108,-433 1127.3,-449.198 1152.47,-462.336 1172.6,-471.354"/>
<polygon fill="midnightblue" stroke="midnightblue" points="1171.46,-474.676 1182.03,-475.445 1174.25,-468.254 1171.46,-474.676"/>
</g>
<!-- Node30 -->
<g id="node30" class="node"><title>Node30</title>
<g id="a_node30"><a xlink:href="../../d6/d95/classparser_1_1_parser.html#acebafe1593fc1f09ac31c7104438e4b1" target="_top" xlink:title="parser.Parser.resetRepcount">
<polygon fill="white" stroke="black" points="1132.5,-404.5 1132.5,-423.5 1283.5,-423.5 1283.5,-404.5 1132.5,-404.5"/>
<text text-anchor="middle" x="1208" y="-411.5" font-family="Helvetica,sans-Serif" font-size="10.00">parser.Parser.resetRepcount</text>
</a>
</g>
</g>
<!-- Node6&#45;&gt;Node30 -->
<g id="edge38" class="edge"><title>Node6&#45;&gt;Node30</title>
<path fill="none" stroke="midnightblue" d="M985.489,-275.698C1002.42,-300.161 1050.64,-364.586 1108,-395 1112.62,-397.448 1117.5,-399.583 1122.53,-401.446"/>
<polygon fill="midnightblue" stroke="midnightblue" points="1121.76,-404.876 1132.35,-404.701 1123.96,-398.232 1121.76,-404.876"/>
</g>
<!-- Node8 -->
<g id="node8" class="node"><title>Node8</title>
<g id="a_node8"><a xlink:href="../../d3/dcc/classparser_1_1_node.html#a9c12e8d4375a7517eae0a35724b253c4" target="_top" xlink:title="parser.Node.getValue">
<polygon fill="white" stroke="black" points="1566,-306.5 1566,-325.5 1686,-325.5 1686,-306.5 1566,-306.5"/>
<text text-anchor="middle" x="1626" y="-313.5" font-family="Helvetica,sans-Serif" font-size="10.00">parser.Node.getValue</text>
</a>
</g>
</g>
<!-- Node7&#45;&gt;Node8 -->
<g id="edge7" class="edge"><title>Node7&#45;&gt;Node8</title>
<path fill="none" stroke="midnightblue" d="M1268.05,-322.003C1281.64,-318.381 1295.7,-313.512 1308,-307 1326.92,-296.982 1323.99,-282.608 1344,-275 1417.12,-247.201 1443.13,-260.524 1520,-275 1547.39,-280.159 1576.81,-292.27 1597.52,-302"/>
<polygon fill="midnightblue" stroke="midnightblue" points="1596.13,-305.216 1606.66,-306.406 1599.17,-298.911 1596.13,-305.216"/>
</g>
<!-- Node9 -->
<g id="node9" class="node"><title>Node9</title>
<g id="a_node9"><a xlink:href="../../d6/d95/classparser_1_1_parser.html#a4f582c65390bddc57219c0b5c31ef5e7" target="_top" xlink:title="parser.Parser.makeTree">
<polygon fill="white" stroke="black" points="1368,-284.5 1368,-303.5 1496,-303.5 1496,-284.5 1368,-284.5"/>
<text text-anchor="middle" x="1432" y="-291.5" font-family="Helvetica,sans-Serif" font-size="10.00">parser.Parser.makeTree</text>
</a>
</g>
</g>
<!-- Node7&#45;&gt;Node9 -->
<g id="edge8" class="edge"><title>Node7&#45;&gt;Node9</title>
<path fill="none" stroke="midnightblue" d="M1268.2,-321.867C1298.09,-316.751 1334.44,-310.529 1365.2,-305.263"/>
<polygon fill="midnightblue" stroke="midnightblue" points="1366.13,-308.654 1375.4,-303.517 1364.95,-301.755 1366.13,-308.654"/>
</g>
<!-- Node10&#45;&gt;Node9 -->
<g id="edge27" class="edge"><title>Node10&#45;&gt;Node9</title>
<path fill="none" stroke="midnightblue" d="M1262.53,-371.902C1277.99,-368.988 1294.36,-364.112 1308,-356 1329.42,-343.259 1322.68,-325.908 1344,-313 1348.43,-310.316 1353.2,-308.01 1358.13,-306.028"/>
<polygon fill="midnightblue" stroke="midnightblue" points="1359.52,-309.246 1367.77,-302.601 1357.18,-302.65 1359.52,-309.246"/>
</g>
<!-- Node11 -->
<g id="node11" class="node"><title>Node11</title>
<g id="a_node11"><a xlink:href="../../d6/d95/classparser_1_1_parser.html#aac1cff62f68138c7e977a67d39671701" target="_top" xlink:title="parser.Parser.generateCommand\lInput">
<polygon fill="white" stroke="black" points="1344,-361 1344,-391 1520,-391 1520,-361 1344,-361"/>
<text text-anchor="start" x="1352" y="-379" font-family="Helvetica,sans-Serif" font-size="10.00">parser.Parser.generateCommand</text>
<text text-anchor="middle" x="1432" y="-368" font-family="Helvetica,sans-Serif" font-size="10.00">Input</text>
</a>
</g>
</g>
<!-- Node10&#45;&gt;Node11 -->
<g id="edge10" class="edge"><title>Node10&#45;&gt;Node11</title>
<path fill="none" stroke="midnightblue" d="M1262.74,-376C1284.17,-376 1309.52,-376 1333.95,-376"/>
<polygon fill="midnightblue" stroke="midnightblue" points="1333.99,-379.5 1343.99,-376 1333.99,-372.5 1333.99,-379.5"/>
</g>
<!-- Node15 -->
<g id="node15" class="node"><title>Node15</title>
<g id="a_node15"><a xlink:href="../../d6/d95/classparser_1_1_parser.html#a3efcd1192e76101919526b4a5e0046f4" target="_top" xlink:title="parser.Parser.getNodeBefore\lToReplace">
<polygon fill="white" stroke="black" points="1354.5,-459 1354.5,-489 1509.5,-489 1509.5,-459 1354.5,-459"/>
<text text-anchor="start" x="1362.5" y="-477" font-family="Helvetica,sans-Serif" font-size="10.00">parser.Parser.getNodeBefore</text>
<text text-anchor="middle" x="1432" y="-466" font-family="Helvetica,sans-Serif" font-size="10.00">ToReplace</text>
</a>
</g>
</g>
<!-- Node10&#45;&gt;Node15 -->
<g id="edge15" class="edge"><title>Node10&#45;&gt;Node15</title>
<path fill="none" stroke="midnightblue" d="M1262.57,-378.48C1278.21,-381.188 1294.66,-386.141 1308,-395 1332.03,-410.957 1320.72,-431.976 1344,-449 1346.66,-450.948 1349.48,-452.744 1352.4,-454.401"/>
<polygon fill="midnightblue" stroke="midnightblue" points="1350.92,-457.579 1361.43,-458.965 1354.08,-451.331 1350.92,-457.579"/>
</g>
<!-- Node18 -->
<g id="node18" class="node"><title>Node18</title>
<g id="a_node18"><a xlink:href="../../d6/d95/classparser_1_1_parser.html#a447c473b62ba23b7c144df9bb38a9a41" target="_top" xlink:title="parser.Parser.getNodeFor\lCommand">
<polygon fill="white" stroke="black" points="1363,-410 1363,-440 1501,-440 1501,-410 1363,-410"/>
<text text-anchor="start" x="1371" y="-428" font-family="Helvetica,sans-Serif" font-size="10.00">parser.Parser.getNodeFor</text>
<text text-anchor="middle" x="1432" y="-417" font-family="Helvetica,sans-Serif" font-size="10.00">Command</text>
</a>
</g>
</g>
<!-- Node10&#45;&gt;Node18 -->
<g id="edge20" class="edge"><title>Node10&#45;&gt;Node18</title>
<path fill="none" stroke="midnightblue" d="M1261.25,-385.525C1276.36,-388.417 1292.87,-391.704 1308,-395 1325.5,-398.812 1344.33,-403.238 1361.86,-407.5"/>
<polygon fill="midnightblue" stroke="midnightblue" points="1361.47,-411.007 1372.02,-409.984 1363.13,-404.207 1361.47,-411.007"/>
</g>
<!-- Node19 -->
<g id="node19" class="node"><title>Node19</title>
<g id="a_node19"><a xlink:href="../../d3/dcc/classparser_1_1_node.html#a066da2b478008f39a02440d7afceb9ee" target="_top" xlink:title="parser.Node.insertChild">
<polygon fill="white" stroke="black" points="1368,-322.5 1368,-341.5 1496,-341.5 1496,-322.5 1368,-322.5"/>
<text text-anchor="middle" x="1432" y="-329.5" font-family="Helvetica,sans-Serif" font-size="10.00">parser.Node.insertChild</text>
</a>
</g>
</g>
<!-- Node10&#45;&gt;Node19 -->
<g id="edge25" class="edge"><title>Node10&#45;&gt;Node19</title>
<path fill="none" stroke="midnightblue" d="M1257.17,-366.453C1291.21,-359.707 1337,-350.631 1373.04,-343.489"/>
<polygon fill="midnightblue" stroke="midnightblue" points="1373.79,-346.906 1382.92,-341.529 1372.43,-340.04 1373.79,-346.906"/>
</g>
<!-- Node11&#45;&gt;Node8 -->
<g id="edge13" class="edge"><title>Node11&#45;&gt;Node8</title>
<path fill="none" stroke="midnightblue" d="M1489.53,-360.99C1499.75,-357.927 1510.25,-354.547 1520,-351 1536.45,-345.012 1539.51,-340.896 1556,-335 1562.52,-332.667 1569.48,-330.448 1576.37,-328.406"/>
<polygon fill="midnightblue" stroke="midnightblue" points="1577.71,-331.663 1586.36,-325.545 1575.78,-324.933 1577.71,-331.663"/>
</g>
<!-- Node12 -->
<g id="node12" class="node"><title>Node12</title>
<g id="a_node12"><a xlink:href="../../d3/dcc/classparser_1_1_node.html#aa67bc0d39227232943abec9b95b23235" target="_top" xlink:title="parser.Node.getChild1">
<polygon fill="white" stroke="black" points="1564.5,-382.5 1564.5,-401.5 1687.5,-401.5 1687.5,-382.5 1564.5,-382.5"/>
<text text-anchor="middle" x="1626" y="-389.5" font-family="Helvetica,sans-Serif" font-size="10.00">parser.Node.getChild1</text>
</a>
</g>
</g>
<!-- Node11&#45;&gt;Node12 -->
<g id="edge11" class="edge"><title>Node11&#45;&gt;Node12</title>
<path fill="none" stroke="midnightblue" d="M1520.01,-383.251C1531.48,-384.207 1543.13,-385.177 1554.28,-386.107"/>
<polygon fill="midnightblue" stroke="midnightblue" points="1554.11,-389.604 1564.37,-386.947 1554.69,-382.629 1554.11,-389.604"/>
</g>
<!-- Node13 -->
<g id="node13" class="node"><title>Node13</title>
<g id="a_node13"><a xlink:href="../../d3/dcc/classparser_1_1_node.html#a0f13775acc62af77cdde90dbeaf26bbc" target="_top" xlink:title="parser.Node.getChild2">
<polygon fill="white" stroke="black" points="1564.5,-420.5 1564.5,-439.5 1687.5,-439.5 1687.5,-420.5 1564.5,-420.5"/>
<text text-anchor="middle" x="1626" y="-427.5" font-family="Helvetica,sans-Serif" font-size="10.00">parser.Node.getChild2</text>
</a>
</g>
</g>
<!-- Node11&#45;&gt;Node13 -->
<g id="edge12" class="edge"><title>Node11&#45;&gt;Node13</title>
<path fill="none" stroke="midnightblue" d="M1485.34,-391C1507.17,-397.23 1532.8,-404.506 1556,-411 1563.91,-413.215 1572.34,-415.553 1580.49,-417.803"/>
<polygon fill="midnightblue" stroke="midnightblue" points="1579.67,-421.207 1590.24,-420.489 1581.53,-414.458 1579.67,-421.207"/>
</g>
<!-- Node14 -->
<g id="node14" class="node"><title>Node14</title>
<g id="a_node14"><a xlink:href="../../d3/dcc/classparser_1_1_node.html#a6bbc0c61aaa261077eb87cfc4e2b45dc" target="_top" xlink:title="parser.Node.numChildren">
<polygon fill="white" stroke="black" points="1556.5,-344.5 1556.5,-363.5 1695.5,-363.5 1695.5,-344.5 1556.5,-344.5"/>
<text text-anchor="middle" x="1626" y="-351.5" font-family="Helvetica,sans-Serif" font-size="10.00">parser.Node.numChildren</text>
</a>
</g>
</g>
<!-- Node11&#45;&gt;Node14 -->
<g id="edge14" class="edge"><title>Node11&#45;&gt;Node14</title>
<path fill="none" stroke="midnightblue" d="M1520.01,-366.03C1528.78,-365.025 1537.66,-364.008 1546.33,-363.014"/>
<polygon fill="midnightblue" stroke="midnightblue" points="1546.88,-366.475 1556.41,-361.859 1546.08,-359.52 1546.88,-366.475"/>
</g>
<!-- Node15&#45;&gt;Node12 -->
<g id="edge16" class="edge"><title>Node15&#45;&gt;Node12</title>
<path fill="none" stroke="midnightblue" d="M1499.66,-458.889C1506.76,-456.106 1513.69,-452.836 1520,-449 1539.88,-436.917 1536.05,-422.972 1556,-411 1559.6,-408.842 1563.44,-406.923 1567.41,-405.217"/>
<polygon fill="midnightblue" stroke="midnightblue" points="1568.75,-408.454 1576.83,-401.612 1566.24,-401.916 1568.75,-408.454"/>
</g>
<!-- Node15&#45;&gt;Node13 -->
<g id="edge17" class="edge"><title>Node15&#45;&gt;Node13</title>
<path fill="none" stroke="midnightblue" d="M1498.54,-458.981C1523.05,-453.364 1550.51,-447.07 1573.57,-441.786"/>
<polygon fill="midnightblue" stroke="midnightblue" points="1574.53,-445.158 1583.49,-439.512 1572.96,-438.335 1574.53,-445.158"/>
</g>
<!-- Node16 -->
<g id="node16" class="node"><title>Node16</title>
<g id="a_node16"><a xlink:href="../../d3/dcc/classparser_1_1_node.html#ab14db24c0724dec4387e29d513008e2e" target="_top" xlink:title="parser.Node.hasChildren">
<polygon fill="white" stroke="black" points="1559,-496.5 1559,-515.5 1693,-515.5 1693,-496.5 1559,-496.5"/>
<text text-anchor="middle" x="1626" y="-503.5" font-family="Helvetica,sans-Serif" font-size="10.00">parser.Node.hasChildren</text>
</a>
</g>
</g>
<!-- Node15&#45;&gt;Node16 -->
<g id="edge18" class="edge"><title>Node15&#45;&gt;Node16</title>
<path fill="none" stroke="midnightblue" d="M1509.71,-486.785C1525.65,-489.441 1542.33,-492.221 1557.89,-494.814"/>
<polygon fill="midnightblue" stroke="midnightblue" points="1557.49,-498.297 1567.93,-496.488 1558.64,-491.392 1557.49,-498.297"/>
</g>
<!-- Node17 -->
<g id="node17" class="node"><title>Node17</title>
<g id="a_node17"><a xlink:href="../../d3/dcc/classparser_1_1_node.html#aa92667a825777b3d757bc3b1a247ac20" target="_top" xlink:title="parser.Node.isLeaf">
<polygon fill="white" stroke="black" points="1573,-458.5 1573,-477.5 1679,-477.5 1679,-458.5 1573,-458.5"/>
<text text-anchor="middle" x="1626" y="-465.5" font-family="Helvetica,sans-Serif" font-size="10.00">parser.Node.isLeaf</text>
</a>
</g>
</g>
<!-- Node15&#45;&gt;Node17 -->
<g id="edge19" class="edge"><title>Node15&#45;&gt;Node17</title>
<path fill="none" stroke="midnightblue" d="M1509.71,-471.603C1527.27,-471.054 1545.73,-470.477 1562.6,-469.95"/>
<polygon fill="midnightblue" stroke="midnightblue" points="1562.99,-473.44 1572.88,-469.629 1562.77,-466.443 1562.99,-473.44"/>
</g>
<!-- Node18&#45;&gt;Node12 -->
<g id="edge21" class="edge"><title>Node18&#45;&gt;Node12</title>
<path fill="none" stroke="midnightblue" d="M1501.23,-413.273C1520.24,-410.006 1540.83,-406.467 1559.66,-403.23"/>
<polygon fill="midnightblue" stroke="midnightblue" points="1560.36,-406.661 1569.63,-401.517 1559.18,-399.762 1560.36,-406.661"/>
</g>
<!-- Node18&#45;&gt;Node13 -->
<g id="edge22" class="edge"><title>Node18&#45;&gt;Node13</title>
<path fill="none" stroke="midnightblue" d="M1501.23,-426.777C1518.44,-427.225 1536.95,-427.707 1554.28,-428.158"/>
<polygon fill="midnightblue" stroke="midnightblue" points="1554.24,-431.658 1564.33,-428.42 1554.42,-424.661 1554.24,-431.658"/>
</g>
<!-- Node18&#45;&gt;Node16 -->
<g id="edge23" class="edge"><title>Node18&#45;&gt;Node16</title>
<path fill="none" stroke="midnightblue" d="M1499.15,-440.019C1506.42,-442.825 1513.53,-446.125 1520,-450 1539.69,-461.786 1536.25,-475.324 1556,-487 1559.67,-489.17 1563.6,-491.099 1567.64,-492.813"/>
<polygon fill="midnightblue" stroke="midnightblue" points="1566.65,-496.18 1577.24,-496.436 1569.12,-489.631 1566.65,-496.18"/>
</g>
<!-- Node18&#45;&gt;Node17 -->
<g id="edge24" class="edge"><title>Node18&#45;&gt;Node17</title>
<path fill="none" stroke="midnightblue" d="M1500.15,-440.039C1523.88,-445.353 1550.19,-451.247 1572.53,-456.248"/>
<polygon fill="midnightblue" stroke="midnightblue" points="1571.96,-459.708 1582.48,-458.478 1573.49,-452.877 1571.96,-459.708"/>
</g>
<!-- Node19&#45;&gt;Node8 -->
<g id="edge26" class="edge"><title>Node19&#45;&gt;Node8</title>
<path fill="none" stroke="midnightblue" d="M1496.13,-326.739C1515.21,-325.149 1536.26,-323.395 1555.72,-321.773"/>
<polygon fill="midnightblue" stroke="midnightblue" points="1556.06,-325.257 1565.73,-320.939 1555.48,-318.281 1556.06,-325.257"/>
</g>
<!-- Node28 -->
<g id="node28" class="node"><title>Node28</title>
<g id="a_node28"><a xlink:href="../../d7/d35/classcommand_1_1_command.html#a1de2ff02a0e6aa6553a129f9b14e6bb3" target="_top" xlink:title="command.Command.run">
<polygon fill="white" stroke="black" points="1363.5,-508.5 1363.5,-527.5 1500.5,-527.5 1500.5,-508.5 1363.5,-508.5"/>
<text text-anchor="middle" x="1432" y="-515.5" font-family="Helvetica,sans-Serif" font-size="10.00">command.Command.run</text>
</a>
</g>
</g>
<!-- Node27&#45;&gt;Node28 -->
<g id="edge36" class="edge"><title>Node27&#45;&gt;Node28</title>
<path fill="none" stroke="midnightblue" d="M1252.6,-491.48C1282.25,-495.888 1322.23,-501.831 1356.82,-506.974"/>
<polygon fill="midnightblue" stroke="midnightblue" points="1356.49,-510.463 1366.9,-508.471 1357.52,-503.539 1356.49,-510.463"/>
</g>
<!-- Node29 -->
<g id="node29" class="node"><title>Node29</title>
<g id="a_node29"><a xlink:href="../../df/dcb/classturtle_1_1_turtle.html#ae954e0c7f03c3bb4558761d04c34c1d3" target="_top" xlink:title="turtle.Turtle.truncate">
<polygon fill="white" stroke="black" points="1375,-546.5 1375,-565.5 1489,-565.5 1489,-546.5 1375,-546.5"/>
<text text-anchor="middle" x="1432" y="-553.5" font-family="Helvetica,sans-Serif" font-size="10.00">turtle.Turtle.truncate</text>
</a>
</g>
</g>
<!-- Node27&#45;&gt;Node29 -->
<g id="edge37" class="edge"><title>Node27&#45;&gt;Node29</title>
<path fill="none" stroke="midnightblue" d="M1252.58,-488.125C1270.48,-490.716 1290.96,-495.432 1308,-504 1327.39,-513.748 1324.73,-527.006 1344,-537 1350.51,-540.377 1357.6,-543.154 1364.82,-545.439"/>
<polygon fill="midnightblue" stroke="midnightblue" points="1364.14,-548.884 1374.71,-548.259 1366.05,-542.152 1364.14,-548.884"/>
</g>
<!-- Node34 -->
<g id="node34" class="node"><title>Node34</title>
<g id="a_node34"><a xlink:href="../../df/dcb/classturtle_1_1_turtle.html#ac5df386a63f84a7108ee50e2d663a23c" target="_top" xlink:title="turtle.Turtle.drawLine">
<polygon fill="white" stroke="black" points="1150,-38.5 1150,-57.5 1266,-57.5 1266,-38.5 1150,-38.5"/>
<text text-anchor="middle" x="1208" y="-45.5" font-family="Helvetica,sans-Serif" font-size="10.00">turtle.Turtle.drawLine</text>
</a>
</g>
</g>
<!-- Node33&#45;&gt;Node34 -->
<g id="edge42" class="edge"><title>Node33&#45;&gt;Node34</title>
<path fill="none" stroke="midnightblue" d="M1071.74,-69.3574C1094.51,-65.7612 1118.46,-61.9795 1139.77,-58.6145"/>
<polygon fill="midnightblue" stroke="midnightblue" points="1140.36,-62.0663 1149.69,-57.0495 1139.26,-55.152 1140.36,-62.0663"/>
</g>
<!-- Node35 -->
<g id="node35" class="node"><title>Node35</title>
<g id="a_node35"><a xlink:href="../../de/d57/classturtle_1_1_pen.html#ac9a08745a9f3615b9e47c1c8e5af8f1b" target="_top" xlink:title="turtle.Pen.getColor">
<polygon fill="white" stroke="black" points="1378.5,-76.5 1378.5,-95.5 1485.5,-95.5 1485.5,-76.5 1378.5,-76.5"/>
<text text-anchor="middle" x="1432" y="-83.5" font-family="Helvetica,sans-Serif" font-size="10.00">turtle.Pen.getColor</text>
</a>
</g>
</g>
<!-- Node34&#45;&gt;Node35 -->
<g id="edge43" class="edge"><title>Node34&#45;&gt;Node35</title>
<path fill="none" stroke="midnightblue" d="M1264.73,-57.54C1296.28,-62.9393 1335.82,-69.7071 1368.42,-75.2882"/>
<polygon fill="midnightblue" stroke="midnightblue" points="1367.85,-78.742 1378.3,-76.9794 1369.03,-71.8423 1367.85,-78.742"/>
</g>
<!-- Node36 -->
<g id="node36" class="node"><title>Node36</title>
<g id="a_node36"><a xlink:href="../../de/d57/classturtle_1_1_pen.html#a76c8dc4e66927e7d3774ea00b2266640" target="_top" xlink:title="turtle.Pen.getSize">
<polygon fill="white" stroke="black" points="1381,-38.5 1381,-57.5 1483,-57.5 1483,-38.5 1381,-38.5"/>
<text text-anchor="middle" x="1432" y="-45.5" font-family="Helvetica,sans-Serif" font-size="10.00">turtle.Pen.getSize</text>
</a>
</g>
</g>
<!-- Node34&#45;&gt;Node36 -->
<g id="edge44" class="edge"><title>Node34&#45;&gt;Node36</title>
<path fill="none" stroke="midnightblue" d="M1266.17,-48C1298.17,-48 1338.03,-48 1370.55,-48"/>
<polygon fill="midnightblue" stroke="midnightblue" points="1370.82,-51.5001 1380.82,-48 1370.82,-44.5001 1370.82,-51.5001"/>
</g>
<!-- Node37 -->
<g id="node37" class="node"><title>Node37</title>
<g id="a_node37"><a xlink:href="../../de/d57/classturtle_1_1_pen.html#a361f4e030646d953185a8afe94427ce2" target="_top" xlink:title="turtle.Pen.penReady">
<polygon fill="white" stroke="black" points="1375.5,-0.5 1375.5,-19.5 1488.5,-19.5 1488.5,-0.5 1375.5,-0.5"/>
<text text-anchor="middle" x="1432" y="-7.5" font-family="Helvetica,sans-Serif" font-size="10.00">turtle.Pen.penReady</text>
</a>
</g>
</g>
<!-- Node34&#45;&gt;Node37 -->
<g id="edge45" class="edge"><title>Node34&#45;&gt;Node37</title>
<path fill="none" stroke="midnightblue" d="M1264.73,-38.46C1295.21,-33.2426 1333.16,-26.7475 1365.1,-21.28"/>
<polygon fill="midnightblue" stroke="midnightblue" points="1365.98,-24.681 1375.24,-19.5439 1364.8,-17.7813 1365.98,-24.681"/>
</g>
<!-- Node39&#45;&gt;Node3 -->
<g id="edge48" class="edge"><title>Node39&#45;&gt;Node3</title>
<path fill="none" stroke="midnightblue" d="M391.544,-273.189C401.63,-273.096 411.964,-273 422.175,-272.906"/>
<polygon fill="midnightblue" stroke="midnightblue" points="422.364,-276.404 432.331,-272.812 422.299,-269.405 422.364,-276.404"/>
</g>
<!-- Node39&#45;&gt;Node38 -->
<g id="edge50" class="edge"><title>Node39&#45;&gt;Node38</title>
<path fill="none" stroke="midnightblue" d="M372.516,-258.944C390.555,-255.017 410.004,-250.818 428,-247 439.352,-244.592 451.502,-242.055 463.128,-239.646"/>
<polygon fill="midnightblue" stroke="midnightblue" points="464.092,-243.021 473.177,-237.569 462.675,-236.165 464.092,-243.021"/>
</g>
<!-- Node40 -->
<g id="node40" class="node"><title>Node40</title>
<g id="a_node40"><a xlink:href="../../dd/d8e/classuser_interface_1_1_user_interface.html#ac805f157b4dbb4e8112aa131ebb181c0" target="_top" xlink:title="userInterface.UserInterface.change\lTurtle">
<polygon fill="white" stroke="black" points="428.5,-306 428.5,-336 613.5,-336 613.5,-306 428.5,-306"/>
<text text-anchor="start" x="436.5" y="-324" font-family="Helvetica,sans-Serif" font-size="10.00">userInterface.UserInterface.change</text>
<text text-anchor="middle" x="521" y="-313" font-family="Helvetica,sans-Serif" font-size="10.00">Turtle</text>
</a>
</g>
</g>
<!-- Node39&#45;&gt;Node40 -->
<g id="edge49" class="edge"><title>Node39&#45;&gt;Node40</title>
<path fill="none" stroke="midnightblue" d="M372.938,-289C394.663,-293.728 418.825,-298.985 441.183,-303.85"/>
<polygon fill="midnightblue" stroke="midnightblue" points="440.461,-307.275 450.976,-305.981 441.949,-300.435 440.461,-307.275"/>
</g>
</g>
</svg>
        <g id="navigator" transform="translate(0 0)" fill="#404254">
                <rect fill="#f2f5e9" fill-opacity="0.5" stroke="#606060" stroke-width=".5" x="0" y="0" width="60" height="60"/>
                <use id="zoomplus" xlink:href="#zoomPlus" x="17" y="9" onmousedown="handleZoom(evt,'in')"/>
                <use id="zoomminus" xlink:href="#zoomMin" x="42" y="9" onmousedown="handleZoom(evt,'out')"/>
                <use id="reset" xlink:href="#resetDef" x="30" y="36" onmousedown="handleReset()"/>
                <g id="arrowUp" xlink:href="#dirArrow" transform="translate(30 24)" onmousedown="handlePan(0,-1)">
                  <use xlink:href="#rim" fill="#404040">
                        <set attributeName="fill" to="#808080" begin="arrowUp.mouseover" end="arrowUp.mouseout"/>
                  </use>
                  <path fill="none" stroke="white" stroke-width="1.5" d="M0,-3.0v7 M-2.5,-0.5L0,-3.0L2.5,-0.5"/>
                </g>
                <g id="arrowRight" xlink:href="#dirArrow" transform="rotate(90) translate(36 -43)" onmousedown="handlePan(1,0)">
                  <use xlink:href="#rim" fill="#404040">
                        <set attributeName="fill" to="#808080" begin="arrowRight.mouseover" end="arrowRight.mouseout"/>
                  </use>
                  <path fill="none" stroke="white" stroke-width="1.5" d="M0,-3.0v7 M-2.5,-0.5L0,-3.0L2.5,-0.5"/>
                </g>
                <g id="arrowDown" xlink:href="#dirArrow" transform="rotate(180) translate(-30 -48)" onmousedown="handlePan(0,1)">
                  <use xlink:href="#rim" fill="#404040">
                        <set attributeName="fill" to="#808080" begin="arrowDown.mouseover" end="arrowDown.mouseout"/>
                  </use>
                  <path fill="none" stroke="white" stroke-width="1.5" d="M0,-3.0v7 M-2.5,-0.5L0,-3.0L2.5,-0.5"/>
                </g>
                <g id="arrowLeft" xlink:href="#dirArrow" transform="rotate(270) translate(-36 17)" onmousedown="handlePan(-1,0)">
                  <use xlink:href="#rim" fill="#404040">
                        <set attributeName="fill" to="#808080" begin="arrowLeft.mouseover" end="arrowLeft.mouseout"/>
                  </use>
                  <path fill="none" stroke="white" stroke-width="1.5" d="M0,-3.0v7 M-2.5,-0.5L0,-3.0L2.5,-0.5"/>
                </g>
        </g>
        <svg viewBox="0 0 15 15" width="100%" height="30px" preserveAspectRatio="xMaxYMin meet">
         <g id="arrow_out" transform="scale(0.3 0.3)">
          <a xlink:href="classuser_interface_1_1_user_interface_a6d39ee7d7ae35fc0539bb714bce6221a_cgraph_org.svg" target="_base">
           <rect id="button" ry="5" rx="5" y="6" x="6" height="38" width="38"
                fill="#f2f5e9" fill-opacity="0.5" stroke="#606060" stroke-width="1.0"/>
           <path id="arrow"
             d="M 11.500037,31.436501 C 11.940474,20.09759 22.043105,11.32322 32.158766,21.979434 L 37.068811,17.246167 C 37.068811,17.246167 37.088388,32 37.088388,32 L 22.160133,31.978069 C 22.160133,31.978069 26.997745,27.140456 26.997745,27.140456 C 18.528582,18.264221 13.291696,25.230495 11.500037,31.436501 z"
             style="fill:#404040;"/>
          </a>
         </g>
        </svg>
</svg>
