<?xml version="1.0" encoding="UTF-8" standalone="no"?>
<!DOCTYPE svg PUBLIC "-//W3C//DTD SVG 1.1//EN"
 "http://www.w3.org/Graphics/SVG/1.1/DTD/svg11.dtd">
<!-- Generated by graphviz version 2.36.0 (20140111.2315)
 -->
<!-- Title: userInterface.UserInterface.makeUIButton Pages: 1 -->
<svg width="800pt" height="87pt"
 viewBox="0.00 0.00 800.00 87.00" xmlns="http://www.w3.org/2000/svg" xmlns:xlink="http://www.w3.org/1999/xlink">
<g id="graph0" class="graph" transform="scale(1 1) rotate(0) translate(4 83)">
<title>userInterface.UserInterface.makeUIButton</title>
<polygon fill="white" stroke="none" points="-4,4 -4,-83 796,-83 796,4 -4,4"/>
<!-- Node1 -->
<g id="node1" class="node"><title>Node1</title>
<polygon fill="#bfbfbf" stroke="black" points="0.5,-24 0.5,-54 177.5,-54 177.5,-24 0.5,-24"/>
<text text-anchor="start" x="8.5" y="-42" font-family="Helvetica,sans-Serif" font-size="10.00">userInterface.UserInterface.make</text>
<text text-anchor="middle" x="89" y="-31" font-family="Helvetica,sans-Serif" font-size="10.00">UIButton</text>
</g>
<!-- Node2 -->
<g id="node2" class="node"><title>Node2</title>
<g id="a_node2"><a xlink:href="../../dd/d8e/classuser_interface_1_1_user_interface.html#a4316649a1f81fcc1dcaf93c812bf6f3a" target="_top" xlink:title="userInterface.UserInterface.make\lRunButton">
<polygon fill="white" stroke="black" points="214.5,-49 214.5,-79 391.5,-79 391.5,-49 214.5,-49"/>
<text text-anchor="start" x="222.5" y="-67" font-family="Helvetica,sans-Serif" font-size="10.00">userInterface.UserInterface.make</text>
<text text-anchor="middle" x="303" y="-56" font-family="Helvetica,sans-Serif" font-size="10.00">RunButton</text>
</a>
</g>
</g>
<!-- Node1&#45;&gt;Node2 -->
<g id="edge1" class="edge"><title>Node1&#45;&gt;Node2</title>
<path fill="none" stroke="midnightblue" d="M187.723,-50.524C196.59,-51.5696 205.535,-52.6244 214.307,-53.6588"/>
<polygon fill="midnightblue" stroke="midnightblue" points="188.1,-47.0442 177.759,-49.3489 187.28,-53.9961 188.1,-47.0442"/>
</g>
<!-- Node5 -->
<g id="node5" class="node"><title>Node5</title>
<g id="a_node5"><a xlink:href="../../dd/d8e/classuser_interface_1_1_user_interface.html#a74a997815f6027ba1fdee49c56becb16" target="_top" xlink:title="userInterface.UserInterface.make\lSwitchTurtle">
<polygon fill="white" stroke="black" points="214.5,-0 214.5,-30 391.5,-30 391.5,-0 214.5,-0"/>
<text text-anchor="start" x="222.5" y="-18" font-family="Helvetica,sans-Serif" font-size="10.00">userInterface.UserInterface.make</text>
<text text-anchor="middle" x="303" y="-7" font-family="Helvetica,sans-Serif" font-size="10.00">SwitchTurtle</text>
</a>
</g>
</g>
<!-- Node1&#45;&gt;Node5 -->
<g id="edge4" class="edge"><title>Node1&#45;&gt;Node5</title>
<path fill="none" stroke="midnightblue" d="M187.723,-27.937C196.59,-26.9332 205.535,-25.9206 214.307,-24.9275"/>
<polygon fill="midnightblue" stroke="midnightblue" points="187.302,-24.4623 177.759,-29.065 188.089,-31.4178 187.302,-24.4623"/>
</g>
<!-- Node3 -->
<g id="node3" class="node"><title>Node3</title>
<g id="a_node3"><a xlink:href="../../dd/d8e/classuser_interface_1_1_user_interface.html#a6d39ee7d7ae35fc0539bb714bce6221a" target="_top" xlink:title="userInterface.UserInterface.make\lFunctionButtons">
<polygon fill="white" stroke="black" points="428.5,-24 428.5,-54 605.5,-54 605.5,-24 428.5,-24"/>
<text text-anchor="start" x="436.5" y="-42" font-family="Helvetica,sans-Serif" font-size="10.00">userInterface.UserInterface.make</text>
<text text-anchor="middle" x="517" y="-31" font-family="Helvetica,sans-Serif" font-size="10.00">FunctionButtons</text>
</a>
</g>
</g>
<!-- Node2&#45;&gt;Node3 -->
<g id="edge2" class="edge"><title>Node2&#45;&gt;Node3</title>
<path fill="none" stroke="midnightblue" d="M401.723,-52.476C410.59,-51.4304 419.535,-50.3756 428.307,-49.3412"/>
<polygon fill="midnightblue" stroke="midnightblue" points="401.28,-49.0039 391.759,-53.6511 402.1,-55.9558 401.28,-49.0039"/>
</g>
<!-- Node4 -->
<g id="node4" class="node"><title>Node4</title>
<g id="a_node4"><a xlink:href="../../dd/d8e/classuser_interface_1_1_user_interface.html#af296b064499e62c4fbfbf73da6456532" target="_top" xlink:title="userInterface.UserInterface.\lUserInterface">
<polygon fill="white" stroke="black" points="642,-24 642,-54 792,-54 792,-24 642,-24"/>
<text text-anchor="start" x="650" y="-42" font-family="Helvetica,sans-Serif" font-size="10.00">userInterface.UserInterface.</text>
<text text-anchor="middle" x="717" y="-31" font-family="Helvetica,sans-Serif" font-size="10.00">UserInterface</text>
</a>
</g>
</g>
<!-- Node3&#45;&gt;Node4 -->
<g id="edge3" class="edge"><title>Node3&#45;&gt;Node4</title>
<path fill="none" stroke="midnightblue" d="M615.96,-39C624.709,-39 633.468,-39 641.966,-39"/>
<polygon fill="midnightblue" stroke="midnightblue" points="615.71,-35.5001 605.71,-39 615.71,-42.5001 615.71,-35.5001"/>
</g>
<!-- Node5&#45;&gt;Node3 -->
<g id="edge5" class="edge"><title>Node5&#45;&gt;Node3</title>
<path fill="none" stroke="midnightblue" d="M401.723,-26.063C410.59,-27.0668 419.535,-28.0794 428.307,-29.0725"/>
<polygon fill="midnightblue" stroke="midnightblue" points="402.089,-22.5822 391.759,-24.935 401.302,-29.5377 402.089,-22.5822"/>
</g>
</g>
</svg>
