<?xml version="1.0" encoding="UTF-8" standalone="no"?>
<!DOCTYPE svg PUBLIC "-//W3C//DTD SVG 1.1//EN"
 "http://www.w3.org/Graphics/SVG/1.1/DTD/svg11.dtd">
<!-- Generated by graphviz version 2.36.0 (20140111.2315)
 -->
<!-- Title: userInterface.UserInterface.makeFunctionButtons Pages: 1 -->
<!--zoomable 410 -->
<svg id="main" version="1.1" xmlns="http://www.w3.org/2000/svg" xmlns:xlink="http://www.w3.org/1999/xlink" xml:space="preserve" onload="init(evt)">
<style type="text/css"><![CDATA[
.edge:hover path { stroke: red; }
.edge:hover polygon { stroke: red; fill: red; }
]]></style>
<script type="text/javascript"><![CDATA[
var edges = document.getElementsByTagName('g');
if (edges && edges.length) {
  for (var i=0;i<edges.length;i++) {
    if (edges[i].id.substr(0,4)=='edge') {
      edges[i].setAttribute('class','edge');
    }
  }
}
]]></script>
        <defs>
                <circle id="rim" cx="0" cy="0" r="7"/>
                <circle id="rim2" cx="0" cy="0" r="3.5"/>
                <g id="zoomPlus">
                        <use xlink:href="#rim" fill="#404040">
                                <set attributeName="fill" to="#808080" begin="zoomplus.mouseover" end="zoomplus.mouseout"/>
                        </use>
                        <path d="M-4,0h8M0,-4v8" fill="none" stroke="white" stroke-width="1.5" pointer-events="none"/>
                </g>
                <g id="zoomMin">
                        <use xlink:href="#rim" fill="#404040">
                                <set attributeName="fill" to="#808080" begin="zoomminus.mouseover" end="zoomminus.mouseout"/>
                        </use>
                        <path d="M-4,0h8" fill="none" stroke="white" stroke-width="1.5" pointer-events="none"/>
                </g>
                <g id="dirArrow">
                        <path fill="none" stroke="white" stroke-width="1.5" d="M0,-3.0v7 M-2.5,-0.5L0,-3.0L2.5,-0.5"/>
                </g>
               <g id="resetDef">
                       <use xlink:href="#rim2" fill="#404040">
                               <set attributeName="fill" to="#808080" begin="reset.mouseover" end="reset.mouseout"/>
                       </use>
               </g>
        </defs>

<script type="text/javascript">
var viewWidth = 1956;
var viewHeight = 410;
var sectionId = 'dynsection-11';
</script>
<script xlink:href="../../svgpan.js"/>
<svg id="graph" class="graph">
<g id="viewport">
<title>userInterface.UserInterface.makeFunctionButtons</title>
<polygon fill="white" stroke="none" points="-4,4 -4,-406 1952,-406 1952,4 -4,4"/>
<!-- Node1 -->
<g id="node1" class="node"><title>Node1</title>
<polygon fill="#bfbfbf" stroke="black" points="0.5,-218 0.5,-248 177.5,-248 177.5,-218 0.5,-218"/>
<text text-anchor="start" x="8.5" y="-236" font-family="Helvetica,sans-Serif" font-size="10.00">userInterface.UserInterface.make</text>
<text text-anchor="middle" x="89" y="-225" font-family="Helvetica,sans-Serif" font-size="10.00">FunctionButtons</text>
</g>
<!-- Node2 -->
<g id="node2" class="node"><title>Node2</title>
<g id="a_node2"><a xlink:href="../../dd/d8e/classuser_interface_1_1_user_interface.html#a4316649a1f81fcc1dcaf93c812bf6f3a" target="_top" xlink:title="userInterface.UserInterface.make\lRunButton">
<polygon fill="white" stroke="black" points="214.5,-194 214.5,-224 391.5,-224 391.5,-194 214.5,-194"/>
<text text-anchor="start" x="222.5" y="-212" font-family="Helvetica,sans-Serif" font-size="10.00">userInterface.UserInterface.make</text>
<text text-anchor="middle" x="303" y="-201" font-family="Helvetica,sans-Serif" font-size="10.00">RunButton</text>
</a>
</g>
</g>
<!-- Node1&#45;&gt;Node2 -->
<g id="edge1" class="edge"><title>Node1&#45;&gt;Node2</title>
<path fill="none" stroke="midnightblue" d="M177.759,-223.065C186.532,-222.072 195.477,-221.059 204.343,-220.056"/>
<polygon fill="midnightblue" stroke="midnightblue" points="204.764,-223.53 214.307,-218.928 203.977,-216.575 204.764,-223.53"/>
</g>
<!-- Node36 -->
<g id="node36" class="node"><title>Node36</title>
<g id="a_node36"><a xlink:href="../../dd/d8e/classuser_interface_1_1_user_interface.html#a74a997815f6027ba1fdee49c56becb16" target="_top" xlink:title="userInterface.UserInterface.make\lSwitchTurtle">
<polygon fill="white" stroke="black" points="214.5,-243 214.5,-273 391.5,-273 391.5,-243 214.5,-243"/>
<text text-anchor="start" x="222.5" y="-261" font-family="Helvetica,sans-Serif" font-size="10.00">userInterface.UserInterface.make</text>
<text text-anchor="middle" x="303" y="-250" font-family="Helvetica,sans-Serif" font-size="10.00">SwitchTurtle</text>
</a>
</g>
</g>
<!-- Node1&#45;&gt;Node36 -->
<g id="edge45" class="edge"><title>Node1&#45;&gt;Node36</title>
<path fill="none" stroke="midnightblue" d="M177.759,-243.349C186.532,-244.383 195.477,-245.438 204.343,-246.484"/>
<polygon fill="midnightblue" stroke="midnightblue" points="203.966,-249.964 214.307,-247.659 204.786,-243.012 203.966,-249.964"/>
</g>
<!-- Node3 -->
<g id="node3" class="node"><title>Node3</title>
<g id="a_node3"><a xlink:href="../../dd/d8e/classuser_interface_1_1_user_interface.html#abc4f9421a71a0c5236fac830a5b94ae3" target="_top" xlink:title="userInterface.UserInterface.make\lUIButton">
<polygon fill="white" stroke="black" points="432.5,-197 432.5,-227 609.5,-227 609.5,-197 432.5,-197"/>
<text text-anchor="start" x="440.5" y="-215" font-family="Helvetica,sans-Serif" font-size="10.00">userInterface.UserInterface.make</text>
<text text-anchor="middle" x="521" y="-204" font-family="Helvetica,sans-Serif" font-size="10.00">UIButton</text>
</a>
</g>
</g>
<!-- Node2&#45;&gt;Node3 -->
<g id="edge2" class="edge"><title>Node2&#45;&gt;Node3</title>
<path fill="none" stroke="midnightblue" d="M391.544,-210.216C401.63,-210.356 411.964,-210.499 422.175,-210.641"/>
<polygon fill="midnightblue" stroke="midnightblue" points="422.284,-214.143 432.331,-210.782 422.381,-207.144 422.284,-214.143"/>
</g>
<!-- Node4 -->
<g id="node4" class="node"><title>Node4</title>
<g id="a_node4"><a xlink:href="../../dd/d8e/classuser_interface_1_1_user_interface.html#a95e324c85888faea808be269e44ed5b8" target="_top" xlink:title="userInterface.UserInterface.run\lCommand">
<polygon fill="white" stroke="black" points="438,-148 438,-178 604,-178 604,-148 438,-148"/>
<text text-anchor="start" x="446" y="-166" font-family="Helvetica,sans-Serif" font-size="10.00">userInterface.UserInterface.run</text>
<text text-anchor="middle" x="521" y="-155" font-family="Helvetica,sans-Serif" font-size="10.00">Command</text>
</a>
</g>
</g>
<!-- Node2&#45;&gt;Node4 -->
<g id="edge3" class="edge"><title>Node2&#45;&gt;Node4</title>
<path fill="none" stroke="midnightblue" d="M374.726,-193.938C395.438,-189.527 418.235,-184.672 439.506,-180.142"/>
<polygon fill="midnightblue" stroke="midnightblue" points="440.432,-183.524 449.484,-178.017 438.974,-176.677 440.432,-183.524"/>
</g>
<!-- Node35 -->
<g id="node35" class="node"><title>Node35</title>
<g id="a_node35"><a xlink:href="../../d1/d68/classuser_interface_1_1_sidebar.html#aed3ba3f7fa5f4c1cf329340e138fe145" target="_top" xlink:title="userInterface.Sidebar.add">
<polygon fill="white" stroke="black" points="451,-246.5 451,-265.5 591,-265.5 591,-246.5 451,-246.5"/>
<text text-anchor="middle" x="521" y="-253.5" font-family="Helvetica,sans-Serif" font-size="10.00">userInterface.Sidebar.add</text>
</a>
</g>
</g>
<!-- Node2&#45;&gt;Node35 -->
<g id="edge44" class="edge"><title>Node2&#45;&gt;Node35</title>
<path fill="none" stroke="midnightblue" d="M373.192,-224.07C391.047,-227.958 410.239,-232.136 428,-236 440.351,-238.687 453.634,-241.576 466.16,-244.299"/>
<polygon fill="midnightblue" stroke="midnightblue" points="465.496,-247.736 476.011,-246.44 466.983,-240.896 465.496,-247.736"/>
</g>
<!-- Node5 -->
<g id="node5" class="node"><title>Node5</title>
<g id="a_node5"><a xlink:href="../../d8/d08/classworld_controller_1_1_world_controller.html#a178425d68e3e669c386706153ce44999" target="_top" xlink:title="worldController.WorldController.update">
<polygon fill="white" stroke="black" points="650,-153.5 650,-172.5 848,-172.5 848,-153.5 650,-153.5"/>
<text text-anchor="middle" x="749" y="-160.5" font-family="Helvetica,sans-Serif" font-size="10.00">worldController.WorldController.update</text>
</a>
</g>
</g>
<!-- Node4&#45;&gt;Node5 -->
<g id="edge4" class="edge"><title>Node4&#45;&gt;Node5</title>
<path fill="none" stroke="midnightblue" d="M604.231,-163C615.651,-163 627.526,-163 639.338,-163"/>
<polygon fill="midnightblue" stroke="midnightblue" points="639.688,-166.5 649.688,-163 639.688,-159.5 639.688,-166.5"/>
</g>
<!-- Node6 -->
<g id="node6" class="node"><title>Node6</title>
<g id="a_node6"><a xlink:href="../../df/dcb/classturtle_1_1_turtle.html#a610aafaf658c4b351330b7c16c66881c" target="_top" xlink:title="turtle.Turtle.updatePenAttributes">
<polygon fill="white" stroke="black" points="884.5,-344.5 884.5,-363.5 1057.5,-363.5 1057.5,-344.5 884.5,-344.5"/>
<text text-anchor="middle" x="971" y="-351.5" font-family="Helvetica,sans-Serif" font-size="10.00">turtle.Turtle.updatePenAttributes</text>
</a>
</g>
</g>
<!-- Node5&#45;&gt;Node6 -->
<g id="edge5" class="edge"><title>Node5&#45;&gt;Node6</title>
<path fill="none" stroke="midnightblue" d="M761.212,-172.734C796.666,-203.515 906.622,-298.977 951.07,-337.565"/>
<polygon fill="midnightblue" stroke="midnightblue" points="948.964,-340.372 958.81,-344.285 953.554,-335.086 948.964,-340.372"/>
</g>
<!-- Node9 -->
<g id="node9" class="node"><title>Node9</title>
<g id="a_node9"><a xlink:href="../../d9/dd0/classworld_1_1_world.html#ae370733f7784c42741a6ba66c7d2ecf5" target="_top" xlink:title="world.World.listen">
<polygon fill="white" stroke="black" points="922,-175.5 922,-194.5 1020,-194.5 1020,-175.5 922,-175.5"/>
<text text-anchor="middle" x="971" y="-182.5" font-family="Helvetica,sans-Serif" font-size="10.00">world.World.listen</text>
</a>
</g>
</g>
<!-- Node5&#45;&gt;Node9 -->
<g id="edge8" class="edge"><title>Node5&#45;&gt;Node9</title>
<path fill="none" stroke="midnightblue" d="M845.216,-172.522C867.866,-174.787 891.368,-177.137 911.786,-179.179"/>
<polygon fill="midnightblue" stroke="midnightblue" points="911.553,-182.673 921.852,-180.185 912.25,-175.707 911.553,-182.673"/>
</g>
<!-- Node33 -->
<g id="node33" class="node"><title>Node33</title>
<g id="a_node33"><a xlink:href="../../dd/d8e/classuser_interface_1_1_user_interface.html#a06489ec50d4d8ff415e0b1ec2b02d39a" target="_top" xlink:title="userInterface.UserInterface.get\lSidebar">
<polygon fill="white" stroke="black" points="888,-126 888,-156 1054,-156 1054,-126 888,-126"/>
<text text-anchor="start" x="896" y="-144" font-family="Helvetica,sans-Serif" font-size="10.00">userInterface.UserInterface.get</text>
<text text-anchor="middle" x="971" y="-133" font-family="Helvetica,sans-Serif" font-size="10.00">Sidebar</text>
</a>
</g>
</g>
<!-- Node5&#45;&gt;Node33 -->
<g id="edge42" class="edge"><title>Node5&#45;&gt;Node33</title>
<path fill="none" stroke="midnightblue" d="M845.216,-153.478C855.952,-152.405 866.88,-151.312 877.58,-150.242"/>
<polygon fill="midnightblue" stroke="midnightblue" points="878.153,-153.702 887.755,-149.224 877.456,-146.737 878.153,-153.702"/>
</g>
<!-- Node34 -->
<g id="node34" class="node"><title>Node34</title>
<g id="a_node34"><a xlink:href="../../d1/d68/classuser_interface_1_1_sidebar.html#a7a3c7a302a3b54e74a26d97c4749444d" target="_top" xlink:title="userInterface.Sidebar.add\lResult">
<polygon fill="white" stroke="black" points="901,-77 901,-107 1041,-107 1041,-77 901,-77"/>
<text text-anchor="start" x="909" y="-95" font-family="Helvetica,sans-Serif" font-size="10.00">userInterface.Sidebar.add</text>
<text text-anchor="middle" x="971" y="-84" font-family="Helvetica,sans-Serif" font-size="10.00">Result</text>
</a>
</g>
</g>
<!-- Node5&#45;&gt;Node34 -->
<g id="edge43" class="edge"><title>Node5&#45;&gt;Node34</title>
<path fill="none" stroke="midnightblue" d="M775.523,-153.49C802.361,-143.622 845.902,-127.983 884,-116 890.458,-113.969 897.215,-111.932 903.981,-109.951"/>
<polygon fill="midnightblue" stroke="midnightblue" points="905.232,-113.233 913.868,-107.095 903.29,-106.508 905.232,-113.233"/>
</g>
<!-- Node7 -->
<g id="node7" class="node"><title>Node7</title>
<g id="a_node7"><a xlink:href="../../de/d57/classturtle_1_1_pen.html#ac9a08745a9f3615b9e47c1c8e5af8f1b" target="_top" xlink:title="turtle.Pen.getColor">
<polygon fill="white" stroke="black" points="1117.5,-382.5 1117.5,-401.5 1224.5,-401.5 1224.5,-382.5 1117.5,-382.5"/>
<text text-anchor="middle" x="1171" y="-389.5" font-family="Helvetica,sans-Serif" font-size="10.00">turtle.Pen.getColor</text>
</a>
</g>
</g>
<!-- Node6&#45;&gt;Node7 -->
<g id="edge6" class="edge"><title>Node6&#45;&gt;Node7</title>
<path fill="none" stroke="midnightblue" d="M1021.71,-363.54C1048.54,-368.69 1081.86,-375.084 1110.11,-380.506"/>
<polygon fill="midnightblue" stroke="midnightblue" points="1109.79,-384.009 1120.27,-382.456 1111.11,-377.134 1109.79,-384.009"/>
</g>
<!-- Node8 -->
<g id="node8" class="node"><title>Node8</title>
<g id="a_node8"><a xlink:href="../../de/d57/classturtle_1_1_pen.html#a76c8dc4e66927e7d3774ea00b2266640" target="_top" xlink:title="turtle.Pen.getSize">
<polygon fill="white" stroke="black" points="1120,-344.5 1120,-363.5 1222,-363.5 1222,-344.5 1120,-344.5"/>
<text text-anchor="middle" x="1171" y="-351.5" font-family="Helvetica,sans-Serif" font-size="10.00">turtle.Pen.getSize</text>
</a>
</g>
</g>
<!-- Node6&#45;&gt;Node8 -->
<g id="edge7" class="edge"><title>Node6&#45;&gt;Node8</title>
<path fill="none" stroke="midnightblue" d="M1057.69,-354C1075.1,-354 1093.06,-354 1109.38,-354"/>
<polygon fill="midnightblue" stroke="midnightblue" points="1109.84,-357.5 1119.84,-354 1109.84,-350.5 1109.84,-357.5"/>
</g>
<!-- Node10 -->
<g id="node10" class="node"><title>Node10</title>
<g id="a_node10"><a xlink:href="../../d6/d95/classparser_1_1_parser.html#a240c75608624a9c67402a296855c4d1d" target="_top" xlink:title="parser.Parser.initialize\lCommands">
<polygon fill="white" stroke="black" points="1111,-295 1111,-325 1231,-325 1231,-295 1111,-295"/>
<text text-anchor="start" x="1119" y="-313" font-family="Helvetica,sans-Serif" font-size="10.00">parser.Parser.initialize</text>
<text text-anchor="middle" x="1171" y="-302" font-family="Helvetica,sans-Serif" font-size="10.00">Commands</text>
</a>
</g>
</g>
<!-- Node9&#45;&gt;Node10 -->
<g id="edge9" class="edge"><title>Node9&#45;&gt;Node10</title>
<path fill="none" stroke="midnightblue" d="M987.208,-194.601C1019.23,-214.818 1094.22,-262.16 1137.55,-289.512"/>
<polygon fill="midnightblue" stroke="midnightblue" points="1135.7,-292.486 1146.03,-294.865 1139.44,-286.567 1135.7,-292.486"/>
</g>
<!-- Node15 -->
<g id="node15" class="node"><title>Node15</title>
<g id="a_node15"><a xlink:href="../../d6/d95/classparser_1_1_parser.html#a4ecbffc246c3add017c4720eed4c6da9" target="_top" xlink:title="parser.Parser.parse">
<polygon fill="white" stroke="black" points="1116.5,-213.5 1116.5,-232.5 1225.5,-232.5 1225.5,-213.5 1116.5,-213.5"/>
<text text-anchor="middle" x="1171" y="-220.5" font-family="Helvetica,sans-Serif" font-size="10.00">parser.Parser.parse</text>
</a>
</g>
</g>
<!-- Node9&#45;&gt;Node15 -->
<g id="edge14" class="edge"><title>Node9&#45;&gt;Node15</title>
<path fill="none" stroke="midnightblue" d="M1020.18,-194.247C1047.32,-199.455 1081.44,-206.004 1110.27,-211.536"/>
<polygon fill="midnightblue" stroke="midnightblue" points="1109.74,-214.999 1120.22,-213.446 1111.06,-208.124 1109.74,-214.999"/>
</g>
<!-- Node27 -->
<g id="node27" class="node"><title>Node27</title>
<g id="a_node27"><a xlink:href="../../d7/d35/classcommand_1_1_command.html#abab1a56440721aacda6f82ca3e3f761d" target="_top" xlink:title="command.Command.isLoop">
<polygon fill="white" stroke="black" points="1095,-175.5 1095,-194.5 1247,-194.5 1247,-175.5 1095,-175.5"/>
<text text-anchor="middle" x="1171" y="-182.5" font-family="Helvetica,sans-Serif" font-size="10.00">command.Command.isLoop</text>
</a>
</g>
</g>
<!-- Node9&#45;&gt;Node27 -->
<g id="edge36" class="edge"><title>Node9&#45;&gt;Node27</title>
<path fill="none" stroke="midnightblue" d="M1020.18,-185C1039.64,-185 1062.69,-185 1084.8,-185"/>
<polygon fill="midnightblue" stroke="midnightblue" points="1084.88,-188.5 1094.88,-185 1084.88,-181.5 1084.88,-188.5"/>
</g>
<!-- Node28 -->
<g id="node28" class="node"><title>Node28</title>
<g id="a_node28"><a xlink:href="../../d6/d95/classparser_1_1_parser.html#a8679d61f4ae6c55910ef113bcdda2c75" target="_top" xlink:title="parser.Parser.updateVariable">
<polygon fill="white" stroke="black" points="1094,-137.5 1094,-156.5 1248,-156.5 1248,-137.5 1094,-137.5"/>
<text text-anchor="middle" x="1171" y="-144.5" font-family="Helvetica,sans-Serif" font-size="10.00">parser.Parser.updateVariable</text>
</a>
</g>
</g>
<!-- Node9&#45;&gt;Node28 -->
<g id="edge37" class="edge"><title>Node9&#45;&gt;Node28</title>
<path fill="none" stroke="midnightblue" d="M1020.18,-175.753C1047.32,-170.545 1081.44,-163.996 1110.27,-158.464"/>
<polygon fill="midnightblue" stroke="midnightblue" points="1111.06,-161.876 1120.22,-156.554 1109.74,-155.001 1111.06,-161.876"/>
</g>
<!-- Node29 -->
<g id="node29" class="node"><title>Node29</title>
<g id="a_node29"><a xlink:href="../../df/dcb/classturtle_1_1_turtle.html#aa53d992fb81cd039a22a301af9b32aba" target="_top" xlink:title="turtle.Turtle.act">
<polygon fill="white" stroke="black" points="1126.5,-74.5 1126.5,-93.5 1215.5,-93.5 1215.5,-74.5 1126.5,-74.5"/>
<text text-anchor="middle" x="1171" y="-81.5" font-family="Helvetica,sans-Serif" font-size="10.00">turtle.Turtle.act</text>
</a>
</g>
</g>
<!-- Node9&#45;&gt;Node29 -->
<g id="edge38" class="edge"><title>Node9&#45;&gt;Node29</title>
<path fill="none" stroke="midnightblue" d="M1020.22,-178.826C1033.05,-175.862 1046.52,-171.479 1058,-165 1077.98,-153.723 1075.9,-142.102 1094,-128 1108.5,-116.7 1126.2,-106.283 1140.87,-98.4239"/>
<polygon fill="midnightblue" stroke="midnightblue" points="1142.77,-101.381 1150.01,-93.6455 1139.53,-95.1776 1142.77,-101.381"/>
</g>
<!-- Node31 -->
<g id="node31" class="node"><title>Node31</title>
<g id="a_node31"><a xlink:href="../../d6/d95/classparser_1_1_parser.html#acebafe1593fc1f09ac31c7104438e4b1" target="_top" xlink:title="parser.Parser.resetRepcount">
<polygon fill="white" stroke="black" points="1095.5,-33.5 1095.5,-52.5 1246.5,-52.5 1246.5,-33.5 1095.5,-33.5"/>
<text text-anchor="middle" x="1171" y="-40.5" font-family="Helvetica,sans-Serif" font-size="10.00">parser.Parser.resetRepcount</text>
</a>
</g>
</g>
<!-- Node9&#45;&gt;Node31 -->
<g id="edge40" class="edge"><title>Node9&#45;&gt;Node31</title>
<path fill="none" stroke="midnightblue" d="M1020.13,-182.337C1033.7,-179.477 1047.58,-174.27 1058,-165 1093.3,-133.61 1059.55,-97.3194 1094,-65 1097.3,-61.903 1101.01,-59.2387 1104.97,-56.9472"/>
<polygon fill="midnightblue" stroke="midnightblue" points="1106.56,-60.0671 1113.98,-52.5025 1103.46,-53.79 1106.56,-60.0671"/>
</g>
<!-- Node11 -->
<g id="node11" class="node"><title>Node11</title>
<g id="a_node11"><a xlink:href="../../d3/dcc/classparser_1_1_node.html#a9c12e8d4375a7517eae0a35724b253c4" target="_top" xlink:title="parser.Node.getValue">
<polygon fill="white" stroke="black" points="1550,-305.5 1550,-324.5 1670,-324.5 1670,-305.5 1550,-305.5"/>
<text text-anchor="middle" x="1610" y="-312.5" font-family="Helvetica,sans-Serif" font-size="10.00">parser.Node.getValue</text>
</a>
</g>
</g>
<!-- Node10&#45;&gt;Node11 -->
<g id="edge10" class="edge"><title>Node10&#45;&gt;Node11</title>
<path fill="none" stroke="midnightblue" d="M1220.1,-325.011C1229.41,-328.147 1239.06,-331.552 1248,-335 1264.34,-341.299 1266.87,-347.365 1284,-351 1364.87,-368.161 1389.13,-368.161 1470,-351 1487.13,-347.365 1489.3,-340.258 1506,-335 1516.82,-331.594 1528.47,-328.662 1539.9,-326.174"/>
<polygon fill="midnightblue" stroke="midnightblue" points="1540.79,-329.564 1549.87,-324.102 1539.37,-322.711 1540.79,-329.564"/>
</g>
<!-- Node12 -->
<g id="node12" class="node"><title>Node12</title>
<g id="a_node12"><a xlink:href="../../d6/d95/classparser_1_1_parser.html#a4f582c65390bddc57219c0b5c31ef5e7" target="_top" xlink:title="parser.Parser.makeTree">
<polygon fill="white" stroke="black" points="1313,-322.5 1313,-341.5 1441,-341.5 1441,-322.5 1313,-322.5"/>
<text text-anchor="middle" x="1377" y="-329.5" font-family="Helvetica,sans-Serif" font-size="10.00">parser.Parser.makeTree</text>
</a>
</g>
</g>
<!-- Node10&#45;&gt;Node12 -->
<g id="edge11" class="edge"><title>Node10&#45;&gt;Node12</title>
<path fill="none" stroke="midnightblue" d="M1231.01,-316.363C1253.45,-318.784 1279.3,-321.571 1302.9,-324.116"/>
<polygon fill="midnightblue" stroke="midnightblue" points="1302.54,-327.598 1312.85,-325.19 1303.29,-320.638 1302.54,-327.598"/>
</g>
<!-- Node13 -->
<g id="node13" class="node"><title>Node13</title>
<g id="a_node13"><a xlink:href="../../d9/d1b/classcommand_1_1_command_factory.html#a87bf7e648425bb22124367cabedb3327" target="_top" xlink:title="command.CommandFactory.get\lNumParameters">
<polygon fill="white" stroke="black" points="1525,-344 1525,-374 1695,-374 1695,-344 1525,-344"/>
<text text-anchor="start" x="1533" y="-362" font-family="Helvetica,sans-Serif" font-size="10.00">command.CommandFactory.get</text>
<text text-anchor="middle" x="1610" y="-351" font-family="Helvetica,sans-Serif" font-size="10.00">NumParameters</text>
</a>
</g>
</g>
<!-- Node12&#45;&gt;Node13 -->
<g id="edge12" class="edge"><title>Node12&#45;&gt;Node13</title>
<path fill="none" stroke="midnightblue" d="M1441.12,-339.378C1463.78,-342.026 1489.85,-345.074 1514.59,-347.965"/>
<polygon fill="midnightblue" stroke="midnightblue" points="1514.39,-351.465 1524.73,-349.15 1515.2,-344.512 1514.39,-351.465"/>
</g>
<!-- Node14 -->
<g id="node14" class="node"><title>Node14</title>
<g id="a_node14"><a xlink:href="../../d9/d1b/classcommand_1_1_command_factory.html#a947fdc151e857ea74564d0d1fe268246" target="_top" xlink:title="command.CommandFactory.translate\lCommand">
<polygon fill="white" stroke="black" points="1750.5,-189 1750.5,-219 1947.5,-219 1947.5,-189 1750.5,-189"/>
<text text-anchor="start" x="1758.5" y="-207" font-family="Helvetica,sans-Serif" font-size="10.00">command.CommandFactory.translate</text>
<text text-anchor="middle" x="1849" y="-196" font-family="Helvetica,sans-Serif" font-size="10.00">Command</text>
</a>
</g>
</g>
<!-- Node13&#45;&gt;Node14 -->
<g id="edge13" class="edge"><title>Node13&#45;&gt;Node14</title>
<path fill="none" stroke="midnightblue" d="M1691.6,-343.913C1699.39,-341.141 1706.99,-337.867 1714,-334 1763.34,-306.78 1807.46,-256.582 1830.7,-227.164"/>
<polygon fill="midnightblue" stroke="midnightblue" points="1833.59,-229.148 1836.95,-219.103 1828.06,-224.857 1833.59,-229.148"/>
</g>
<!-- Node15&#45;&gt;Node12 -->
<g id="edge35" class="edge"><title>Node15&#45;&gt;Node12</title>
<path fill="none" stroke="midnightblue" d="M1183.68,-232.629C1211.2,-255.291 1278.27,-310.302 1284,-313 1290.05,-315.849 1296.52,-318.272 1303.12,-320.334"/>
<polygon fill="midnightblue" stroke="midnightblue" points="1302.27,-323.732 1312.85,-323.103 1304.19,-317 1302.27,-323.732"/>
</g>
<!-- Node16 -->
<g id="node16" class="node"><title>Node16</title>
<g id="a_node16"><a xlink:href="../../d9/d1b/classcommand_1_1_command_factory.html#ab25bb047b051661d31adf73b2dae5649" target="_top" xlink:title="command.CommandFactory.create\lCommand">
<polygon fill="white" stroke="black" points="1284.5,-88 1284.5,-118 1469.5,-118 1469.5,-88 1284.5,-88"/>
<text text-anchor="start" x="1292.5" y="-106" font-family="Helvetica,sans-Serif" font-size="10.00">command.CommandFactory.create</text>
<text text-anchor="middle" x="1377" y="-95" font-family="Helvetica,sans-Serif" font-size="10.00">Command</text>
</a>
</g>
</g>
<!-- Node15&#45;&gt;Node16 -->
<g id="edge15" class="edge"><title>Node15&#45;&gt;Node16</title>
<path fill="none" stroke="midnightblue" d="M1225.57,-216.042C1233.68,-213.242 1241.49,-209.362 1248,-204 1277.15,-179.976 1254.97,-151.173 1284,-127 1285.4,-125.838 1286.84,-124.732 1288.33,-123.678"/>
<polygon fill="midnightblue" stroke="midnightblue" points="1290.57,-126.409 1297.28,-118.206 1286.92,-120.438 1290.57,-126.409"/>
</g>
<!-- Node18 -->
<g id="node18" class="node"><title>Node18</title>
<g id="a_node18"><a xlink:href="../../d6/d95/classparser_1_1_parser.html#aac1cff62f68138c7e977a67d39671701" target="_top" xlink:title="parser.Parser.generateCommand\lInput">
<polygon fill="white" stroke="black" points="1289,-235 1289,-265 1465,-265 1465,-235 1289,-235"/>
<text text-anchor="start" x="1297" y="-253" font-family="Helvetica,sans-Serif" font-size="10.00">parser.Parser.generateCommand</text>
<text text-anchor="middle" x="1377" y="-242" font-family="Helvetica,sans-Serif" font-size="10.00">Input</text>
</a>
</g>
</g>
<!-- Node15&#45;&gt;Node18 -->
<g id="edge18" class="edge"><title>Node15&#45;&gt;Node18</title>
<path fill="none" stroke="midnightblue" d="M1225.6,-230.094C1241.93,-232.256 1260.43,-234.703 1278.71,-237.124"/>
<polygon fill="midnightblue" stroke="midnightblue" points="1278.47,-240.621 1288.84,-238.464 1279.38,-233.682 1278.47,-240.621"/>
</g>
<!-- Node22 -->
<g id="node22" class="node"><title>Node22</title>
<g id="a_node22"><a xlink:href="../../d6/d95/classparser_1_1_parser.html#a3efcd1192e76101919526b4a5e0046f4" target="_top" xlink:title="parser.Parser.getNodeBefore\lToReplace">
<polygon fill="white" stroke="black" points="1299.5,-137 1299.5,-167 1454.5,-167 1454.5,-137 1299.5,-137"/>
<text text-anchor="start" x="1307.5" y="-155" font-family="Helvetica,sans-Serif" font-size="10.00">parser.Parser.getNodeBefore</text>
<text text-anchor="middle" x="1377" y="-144" font-family="Helvetica,sans-Serif" font-size="10.00">ToReplace</text>
</a>
</g>
</g>
<!-- Node15&#45;&gt;Node22 -->
<g id="edge23" class="edge"><title>Node15&#45;&gt;Node22</title>
<path fill="none" stroke="midnightblue" d="M1222.92,-213.398C1231.51,-210.902 1240.17,-207.81 1248,-204 1266.23,-195.128 1265.82,-184.964 1284,-176 1288.02,-174.016 1292.23,-172.183 1296.53,-170.492"/>
<polygon fill="midnightblue" stroke="midnightblue" points="1297.88,-173.724 1306.08,-167.009 1295.48,-167.148 1297.88,-173.724"/>
</g>
<!-- Node25 -->
<g id="node25" class="node"><title>Node25</title>
<g id="a_node25"><a xlink:href="../../d6/d95/classparser_1_1_parser.html#a447c473b62ba23b7c144df9bb38a9a41" target="_top" xlink:title="parser.Parser.getNodeFor\lCommand">
<polygon fill="white" stroke="black" points="1308,-186 1308,-216 1446,-216 1446,-186 1308,-186"/>
<text text-anchor="start" x="1316" y="-204" font-family="Helvetica,sans-Serif" font-size="10.00">parser.Parser.getNodeFor</text>
<text text-anchor="middle" x="1377" y="-193" font-family="Helvetica,sans-Serif" font-size="10.00">Command</text>
</a>
</g>
</g>
<!-- Node15&#45;&gt;Node25 -->
<g id="edge28" class="edge"><title>Node15&#45;&gt;Node25</title>
<path fill="none" stroke="midnightblue" d="M1225.6,-217.22C1247.6,-214.847 1273.51,-212.053 1297.57,-209.458"/>
<polygon fill="midnightblue" stroke="midnightblue" points="1298.19,-212.912 1307.76,-208.36 1297.44,-205.952 1298.19,-212.912"/>
</g>
<!-- Node26 -->
<g id="node26" class="node"><title>Node26</title>
<g id="a_node26"><a xlink:href="../../d3/dcc/classparser_1_1_node.html#a066da2b478008f39a02440d7afceb9ee" target="_top" xlink:title="parser.Node.insertChild">
<polygon fill="white" stroke="black" points="1313,-284.5 1313,-303.5 1441,-303.5 1441,-284.5 1313,-284.5"/>
<text text-anchor="middle" x="1377" y="-291.5" font-family="Helvetica,sans-Serif" font-size="10.00">parser.Node.insertChild</text>
</a>
</g>
</g>
<!-- Node15&#45;&gt;Node26 -->
<g id="edge33" class="edge"><title>Node15&#45;&gt;Node26</title>
<path fill="none" stroke="midnightblue" d="M1189.76,-232.523C1211.45,-243.818 1249.53,-262.551 1284,-274 1293.31,-277.091 1303.31,-279.832 1313.16,-282.217"/>
<polygon fill="midnightblue" stroke="midnightblue" points="1312.4,-285.634 1322.93,-284.483 1313.98,-278.815 1312.4,-285.634"/>
</g>
<!-- Node16&#45;&gt;Node14 -->
<g id="edge17" class="edge"><title>Node16&#45;&gt;Node14</title>
<path fill="none" stroke="midnightblue" d="M1433.47,-87.9795C1445.52,-84.7029 1458.19,-81.245 1470,-78 1574.66,-49.2448 1613.88,-26.0942 1714,-68 1768.5,-90.8114 1812.07,-147.787 1833.51,-180.294"/>
<polygon fill="midnightblue" stroke="midnightblue" points="1830.6,-182.25 1838.96,-188.765 1836.49,-178.462 1830.6,-182.25"/>
</g>
<!-- Node17 -->
<g id="node17" class="node"><title>Node17</title>
<g id="a_node17"><a xlink:href="../../d9/d1b/classcommand_1_1_command_factory.html#abd97ea3e22afc09e07ed1d4fd039d11f" target="_top" xlink:title="command.CommandFactory.reflectCMD">
<polygon fill="white" stroke="black" points="1506.5,-77.5 1506.5,-96.5 1713.5,-96.5 1713.5,-77.5 1506.5,-77.5"/>
<text text-anchor="middle" x="1610" y="-84.5" font-family="Helvetica,sans-Serif" font-size="10.00">command.CommandFactory.reflectCMD</text>
</a>
</g>
</g>
<!-- Node16&#45;&gt;Node17 -->
<g id="edge16" class="edge"><title>Node16&#45;&gt;Node17</title>
<path fill="none" stroke="midnightblue" d="M1469.63,-96.6534C1478.42,-96.0448 1487.39,-95.4229 1496.35,-94.8026"/>
<polygon fill="midnightblue" stroke="midnightblue" points="1496.71,-98.2864 1506.44,-94.1037 1496.22,-91.3032 1496.71,-98.2864"/>
</g>
<!-- Node18&#45;&gt;Node11 -->
<g id="edge21" class="edge"><title>Node18&#45;&gt;Node11</title>
<path fill="none" stroke="midnightblue" d="M1442.08,-265.075C1451.58,-267.979 1461.15,-271.291 1470,-275 1487.08,-282.157 1488.63,-289.557 1506,-296 1516.68,-299.962 1528.3,-303.123 1539.76,-305.638"/>
<polygon fill="midnightblue" stroke="midnightblue" points="1539.27,-309.109 1549.77,-307.685 1540.67,-302.251 1539.27,-309.109"/>
</g>
<!-- Node19 -->
<g id="node19" class="node"><title>Node19</title>
<g id="a_node19"><a xlink:href="../../d3/dcc/classparser_1_1_node.html#aa67bc0d39227232943abec9b95b23235" target="_top" xlink:title="parser.Node.getChild1">
<polygon fill="white" stroke="black" points="1548.5,-191.5 1548.5,-210.5 1671.5,-210.5 1671.5,-191.5 1548.5,-191.5"/>
<text text-anchor="middle" x="1610" y="-198.5" font-family="Helvetica,sans-Serif" font-size="10.00">parser.Node.getChild1</text>
</a>
</g>
</g>
<!-- Node18&#45;&gt;Node19 -->
<g id="edge19" class="edge"><title>Node18&#45;&gt;Node19</title>
<path fill="none" stroke="midnightblue" d="M1439.39,-234.983C1460.46,-229.997 1484.22,-224.559 1506,-220 1518.43,-217.399 1531.74,-214.803 1544.53,-212.403"/>
<polygon fill="midnightblue" stroke="midnightblue" points="1545.45,-215.791 1554.65,-210.524 1544.18,-208.909 1545.45,-215.791"/>
</g>
<!-- Node20 -->
<g id="node20" class="node"><title>Node20</title>
<g id="a_node20"><a xlink:href="../../d3/dcc/classparser_1_1_node.html#a0f13775acc62af77cdde90dbeaf26bbc" target="_top" xlink:title="parser.Node.getChild2">
<polygon fill="white" stroke="black" points="1548.5,-229.5 1548.5,-248.5 1671.5,-248.5 1671.5,-229.5 1548.5,-229.5"/>
<text text-anchor="middle" x="1610" y="-236.5" font-family="Helvetica,sans-Serif" font-size="10.00">parser.Node.getChild2</text>
</a>
</g>
</g>
<!-- Node18&#45;&gt;Node20 -->
<g id="edge20" class="edge"><title>Node18&#45;&gt;Node20</title>
<path fill="none" stroke="midnightblue" d="M1465,-245.857C1489.18,-244.706 1515.13,-243.47 1538.25,-242.369"/>
<polygon fill="midnightblue" stroke="midnightblue" points="1538.49,-245.862 1548.32,-241.89 1538.16,-238.869 1538.49,-245.862"/>
</g>
<!-- Node21 -->
<g id="node21" class="node"><title>Node21</title>
<g id="a_node21"><a xlink:href="../../d3/dcc/classparser_1_1_node.html#a6bbc0c61aaa261077eb87cfc4e2b45dc" target="_top" xlink:title="parser.Node.numChildren">
<polygon fill="white" stroke="black" points="1540.5,-267.5 1540.5,-286.5 1679.5,-286.5 1679.5,-267.5 1540.5,-267.5"/>
<text text-anchor="middle" x="1610" y="-274.5" font-family="Helvetica,sans-Serif" font-size="10.00">parser.Node.numChildren</text>
</a>
</g>
</g>
<!-- Node18&#45;&gt;Node21 -->
<g id="edge22" class="edge"><title>Node18&#45;&gt;Node21</title>
<path fill="none" stroke="midnightblue" d="M1465,-260.169C1486.43,-262.674 1509.26,-265.342 1530.28,-267.799"/>
<polygon fill="midnightblue" stroke="midnightblue" points="1530.1,-271.301 1540.43,-268.986 1530.91,-264.348 1530.1,-271.301"/>
</g>
<!-- Node22&#45;&gt;Node19 -->
<g id="edge24" class="edge"><title>Node22&#45;&gt;Node19</title>
<path fill="none" stroke="midnightblue" d="M1439.39,-167.017C1460.46,-172.003 1484.22,-177.441 1506,-182 1518.43,-184.601 1531.74,-187.197 1544.53,-189.597"/>
<polygon fill="midnightblue" stroke="midnightblue" points="1544.18,-193.091 1554.65,-191.476 1545.45,-186.209 1544.18,-193.091"/>
</g>
<!-- Node22&#45;&gt;Node20 -->
<g id="edge25" class="edge"><title>Node22&#45;&gt;Node20</title>
<path fill="none" stroke="midnightblue" d="M1452.56,-167.009C1458.68,-169.552 1464.58,-172.525 1470,-176 1491.27,-189.638 1484.25,-207.145 1506,-220 1515.87,-225.831 1527.12,-229.943 1538.48,-232.828"/>
<polygon fill="midnightblue" stroke="midnightblue" points="1537.93,-236.292 1548.46,-235.06 1539.46,-229.461 1537.93,-236.292"/>
</g>
<!-- Node23 -->
<g id="node23" class="node"><title>Node23</title>
<g id="a_node23"><a xlink:href="../../d3/dcc/classparser_1_1_node.html#ab14db24c0724dec4387e29d513008e2e" target="_top" xlink:title="parser.Node.hasChildren">
<polygon fill="white" stroke="black" points="1543,-115.5 1543,-134.5 1677,-134.5 1677,-115.5 1543,-115.5"/>
<text text-anchor="middle" x="1610" y="-122.5" font-family="Helvetica,sans-Serif" font-size="10.00">parser.Node.hasChildren</text>
</a>
</g>
</g>
<!-- Node22&#45;&gt;Node23 -->
<g id="edge26" class="edge"><title>Node22&#45;&gt;Node23</title>
<path fill="none" stroke="midnightblue" d="M1454.6,-143.047C1479.65,-140.119 1507.46,-136.868 1532.5,-133.942"/>
<polygon fill="midnightblue" stroke="midnightblue" points="1533.15,-137.389 1542.68,-132.752 1532.34,-130.437 1533.15,-137.389"/>
</g>
<!-- Node24 -->
<g id="node24" class="node"><title>Node24</title>
<g id="a_node24"><a xlink:href="../../d3/dcc/classparser_1_1_node.html#aa92667a825777b3d757bc3b1a247ac20" target="_top" xlink:title="parser.Node.isLeaf">
<polygon fill="white" stroke="black" points="1557,-153.5 1557,-172.5 1663,-172.5 1663,-153.5 1557,-153.5"/>
<text text-anchor="middle" x="1610" y="-160.5" font-family="Helvetica,sans-Serif" font-size="10.00">parser.Node.isLeaf</text>
</a>
</g>
</g>
<!-- Node22&#45;&gt;Node24 -->
<g id="edge27" class="edge"><title>Node22&#45;&gt;Node24</title>
<path fill="none" stroke="midnightblue" d="M1454.6,-155.648C1484.43,-157.068 1518.17,-158.675 1546.49,-160.023"/>
<polygon fill="midnightblue" stroke="midnightblue" points="1546.51,-163.528 1556.66,-160.508 1546.84,-156.536 1546.51,-163.528"/>
</g>
<!-- Node25&#45;&gt;Node19 -->
<g id="edge29" class="edge"><title>Node25&#45;&gt;Node19</title>
<path fill="none" stroke="midnightblue" d="M1446.06,-201C1475.11,-201 1509,-201 1538.33,-201"/>
<polygon fill="midnightblue" stroke="midnightblue" points="1538.5,-204.5 1548.5,-201 1538.5,-197.5 1538.5,-204.5"/>
</g>
<!-- Node25&#45;&gt;Node20 -->
<g id="edge30" class="edge"><title>Node25&#45;&gt;Node20</title>
<path fill="none" stroke="midnightblue" d="M1446.06,-212.196C1476.07,-217.133 1511.25,-222.921 1541.23,-227.852"/>
<polygon fill="midnightblue" stroke="midnightblue" points="1540.75,-231.319 1551.18,-229.489 1541.88,-224.412 1540.75,-231.319"/>
</g>
<!-- Node25&#45;&gt;Node23 -->
<g id="edge31" class="edge"><title>Node25&#45;&gt;Node23</title>
<path fill="none" stroke="midnightblue" d="M1446.22,-186.309C1454.46,-183.426 1462.58,-180.017 1470,-176 1488.83,-165.812 1486.77,-153.399 1506,-144 1514.43,-139.882 1523.64,-136.652 1532.98,-134.12"/>
<polygon fill="midnightblue" stroke="midnightblue" points="1533.85,-137.509 1542.73,-131.725 1532.19,-130.711 1533.85,-137.509"/>
</g>
<!-- Node25&#45;&gt;Node24 -->
<g id="edge32" class="edge"><title>Node25&#45;&gt;Node24</title>
<path fill="none" stroke="midnightblue" d="M1446.06,-189.804C1477.86,-184.572 1515.48,-178.385 1546.55,-173.273"/>
<polygon fill="midnightblue" stroke="midnightblue" points="1547.52,-176.661 1556.82,-171.584 1546.38,-169.754 1547.52,-176.661"/>
</g>
<!-- Node26&#45;&gt;Node11 -->
<g id="edge34" class="edge"><title>Node26&#45;&gt;Node11</title>
<path fill="none" stroke="midnightblue" d="M1441.12,-299.738C1471.74,-302.522 1508.59,-305.871 1539.95,-308.723"/>
<polygon fill="midnightblue" stroke="midnightblue" points="1539.65,-312.21 1549.92,-309.629 1540.28,-305.238 1539.65,-312.21"/>
</g>
<!-- Node30 -->
<g id="node30" class="node"><title>Node30</title>
<g id="a_node30"><a xlink:href="../../d7/d35/classcommand_1_1_command.html#a1de2ff02a0e6aa6553a129f9b14e6bb3" target="_top" xlink:title="command.Command.run">
<polygon fill="white" stroke="black" points="1308.5,-49.5 1308.5,-68.5 1445.5,-68.5 1445.5,-49.5 1308.5,-49.5"/>
<text text-anchor="middle" x="1377" y="-56.5" font-family="Helvetica,sans-Serif" font-size="10.00">command.Command.run</text>
</a>
</g>
</g>
<!-- Node29&#45;&gt;Node30 -->
<g id="edge39" class="edge"><title>Node29&#45;&gt;Node30</title>
<path fill="none" stroke="midnightblue" d="M1215.51,-78.6675C1239.59,-75.7172 1270.23,-71.9624 1298.27,-68.5259"/>
<polygon fill="midnightblue" stroke="midnightblue" points="1298.97,-71.9668 1308.47,-67.2763 1298.11,-65.0188 1298.97,-71.9668"/>
</g>
<!-- Node32 -->
<g id="node32" class="node"><title>Node32</title>
<g id="a_node32"><a xlink:href="../../d9/d1b/classcommand_1_1_command_factory.html#a0d59e4f0f925b5046957c0e054ce8bef" target="_top" xlink:title="command.CommandFactory.reset\lRepcount">
<polygon fill="white" stroke="black" points="1287.5,-0 1287.5,-30 1466.5,-30 1466.5,-0 1287.5,-0"/>
<text text-anchor="start" x="1295.5" y="-18" font-family="Helvetica,sans-Serif" font-size="10.00">command.CommandFactory.reset</text>
<text text-anchor="middle" x="1377" y="-7" font-family="Helvetica,sans-Serif" font-size="10.00">Repcount</text>
</a>
</g>
</g>
<!-- Node31&#45;&gt;Node32 -->
<g id="edge41" class="edge"><title>Node31&#45;&gt;Node32</title>
<path fill="none" stroke="midnightblue" d="M1241.35,-33.4814C1252.9,-31.896 1265.08,-30.2249 1277.19,-28.562"/>
<polygon fill="midnightblue" stroke="midnightblue" points="1277.91,-31.9966 1287.34,-27.1692 1276.96,-25.0616 1277.91,-31.9966"/>
</g>
<!-- Node36&#45;&gt;Node3 -->
<g id="edge46" class="edge"><title>Node36&#45;&gt;Node3</title>
<path fill="none" stroke="midnightblue" d="M374.726,-242.938C395.438,-238.527 418.235,-233.672 439.506,-229.142"/>
<polygon fill="midnightblue" stroke="midnightblue" points="440.432,-232.524 449.484,-227.017 438.974,-225.677 440.432,-232.524"/>
</g>
<!-- Node36&#45;&gt;Node35 -->
<g id="edge48" class="edge"><title>Node36&#45;&gt;Node35</title>
<path fill="none" stroke="midnightblue" d="M391.544,-257.189C407.756,-257.039 424.607,-256.883 440.561,-256.736"/>
<polygon fill="midnightblue" stroke="midnightblue" points="440.933,-260.232 450.9,-256.64 440.868,-253.233 440.933,-260.232"/>
</g>
<!-- Node37 -->
<g id="node37" class="node"><title>Node37</title>
<g id="a_node37"><a xlink:href="../../dd/d8e/classuser_interface_1_1_user_interface.html#ac805f157b4dbb4e8112aa131ebb181c0" target="_top" xlink:title="userInterface.UserInterface.change\lTurtle">
<polygon fill="white" stroke="black" points="428.5,-285 428.5,-315 613.5,-315 613.5,-285 428.5,-285"/>
<text text-anchor="start" x="436.5" y="-303" font-family="Helvetica,sans-Serif" font-size="10.00">userInterface.UserInterface.change</text>
<text text-anchor="middle" x="521" y="-292" font-family="Helvetica,sans-Serif" font-size="10.00">Turtle</text>
</a>
</g>
</g>
<!-- Node36&#45;&gt;Node37 -->
<g id="edge47" class="edge"><title>Node36&#45;&gt;Node37</title>
<path fill="none" stroke="midnightblue" d="M381.371,-273.044C398.068,-276.291 415.829,-279.745 432.87,-283.058"/>
<polygon fill="midnightblue" stroke="midnightblue" points="432.322,-286.517 442.807,-284.99 433.658,-279.646 432.322,-286.517"/>
</g>
</g>
</svg>
        <g id="navigator" transform="translate(0 0)" fill="#404254">
                <rect fill="#f2f5e9" fill-opacity="0.5" stroke="#606060" stroke-width=".5" x="0" y="0" width="60" height="60"/>
                <use id="zoomplus" xlink:href="#zoomPlus" x="17" y="9" onmousedown="handleZoom(evt,'in')"/>
                <use id="zoomminus" xlink:href="#zoomMin" x="42" y="9" onmousedown="handleZoom(evt,'out')"/>
                <use id="reset" xlink:href="#resetDef" x="30" y="36" onmousedown="handleReset()"/>
                <g id="arrowUp" xlink:href="#dirArrow" transform="translate(30 24)" onmousedown="handlePan(0,-1)">
                  <use xlink:href="#rim" fill="#404040">
                        <set attributeName="fill" to="#808080" begin="arrowUp.mouseover" end="arrowUp.mouseout"/>
                  </use>
                  <path fill="none" stroke="white" stroke-width="1.5" d="M0,-3.0v7 M-2.5,-0.5L0,-3.0L2.5,-0.5"/>
                </g>
                <g id="arrowRight" xlink:href="#dirArrow" transform="rotate(90) translate(36 -43)" onmousedown="handlePan(1,0)">
                  <use xlink:href="#rim" fill="#404040">
                        <set attributeName="fill" to="#808080" begin="arrowRight.mouseover" end="arrowRight.mouseout"/>
                  </use>
                  <path fill="none" stroke="white" stroke-width="1.5" d="M0,-3.0v7 M-2.5,-0.5L0,-3.0L2.5,-0.5"/>
                </g>
                <g id="arrowDown" xlink:href="#dirArrow" transform="rotate(180) translate(-30 -48)" onmousedown="handlePan(0,1)">
                  <use xlink:href="#rim" fill="#404040">
                        <set attributeName="fill" to="#808080" begin="arrowDown.mouseover" end="arrowDown.mouseout"/>
                  </use>
                  <path fill="none" stroke="white" stroke-width="1.5" d="M0,-3.0v7 M-2.5,-0.5L0,-3.0L2.5,-0.5"/>
                </g>
                <g id="arrowLeft" xlink:href="#dirArrow" transform="rotate(270) translate(-36 17)" onmousedown="handlePan(-1,0)">
                  <use xlink:href="#rim" fill="#404040">
                        <set attributeName="fill" to="#808080" begin="arrowLeft.mouseover" end="arrowLeft.mouseout"/>
                  </use>
                  <path fill="none" stroke="white" stroke-width="1.5" d="M0,-3.0v7 M-2.5,-0.5L0,-3.0L2.5,-0.5"/>
                </g>
        </g>
        <svg viewBox="0 0 15 15" width="100%" height="30px" preserveAspectRatio="xMaxYMin meet">
         <g id="arrow_out" transform="scale(0.3 0.3)">
          <a xlink:href="classuser_interface_1_1_user_interface_a6d39ee7d7ae35fc0539bb714bce6221a_cgraph_org.svg" target="_base">
           <rect id="button" ry="5" rx="5" y="6" x="6" height="38" width="38"
                fill="#f2f5e9" fill-opacity="0.5" stroke="#606060" stroke-width="1.0"/>
           <path id="arrow"
             d="M 11.500037,31.436501 C 11.940474,20.09759 22.043105,11.32322 32.158766,21.979434 L 37.068811,17.246167 C 37.068811,17.246167 37.088388,32 37.088388,32 L 22.160133,31.978069 C 22.160133,31.978069 26.997745,27.140456 26.997745,27.140456 C 18.528582,18.264221 13.291696,25.230495 11.500037,31.436501 z"
             style="fill:#404040;"/>
          </a>
         </g>
        </svg>
</svg>
