<?xml version="1.0" encoding="UTF-8" standalone="no"?>
<!DOCTYPE svg PUBLIC "-//W3C//DTD SVG 1.1//EN"
 "http://www.w3.org/Graphics/SVG/1.1/DTD/svg11.dtd">
<!-- Generated by graphviz version 2.36.0 (20140111.2315)
 -->
<!-- Title: userInterface.UserInterface.makeRunButton Pages: 1 -->
<svg width="2204pt" height="678pt"
 viewBox="0.00 0.00 2204.00 678.00" xmlns="http://www.w3.org/2000/svg" xmlns:xlink="http://www.w3.org/1999/xlink">
<g id="graph0" class="graph" transform="scale(1 1) rotate(0) translate(4 674)">
<title>userInterface.UserInterface.makeRunButton</title>
<polygon fill="white" stroke="none" points="-4,4 -4,-674 2200,-674 2200,4 -4,4"/>
<!-- Node1 -->
<g id="node1" class="node"><title>Node1</title>
<polygon fill="#bfbfbf" stroke="black" points="0.5,-425 0.5,-455 177.5,-455 177.5,-425 0.5,-425"/>
<text text-anchor="start" x="8.5" y="-443" font-family="Helvetica,sans-Serif" font-size="10.00">userInterface.UserInterface.make</text>
<text text-anchor="middle" x="89" y="-432" font-family="Helvetica,sans-Serif" font-size="10.00">RunButton</text>
</g>
<!-- Node2 -->
<g id="node2" class="node"><title>Node2</title>
<g id="a_node2"><a xlink:href="../../d1/d68/classuser_interface_1_1_sidebar.html#aed3ba3f7fa5f4c1cf329340e138fe145" target="_top" xlink:title="userInterface.Sidebar.add">
<polygon fill="white" stroke="black" points="233,-474.5 233,-493.5 373,-493.5 373,-474.5 233,-474.5"/>
<text text-anchor="middle" x="303" y="-481.5" font-family="Helvetica,sans-Serif" font-size="10.00">userInterface.Sidebar.add</text>
</a>
</g>
</g>
<!-- Node1&#45;&gt;Node2 -->
<g id="edge1" class="edge"><title>Node1&#45;&gt;Node2</title>
<path fill="none" stroke="midnightblue" d="M162.365,-455.019C189.792,-460.712 220.57,-467.099 246.236,-472.426"/>
<polygon fill="midnightblue" stroke="midnightblue" points="245.665,-475.882 256.167,-474.488 247.087,-469.028 245.665,-475.882"/>
</g>
<!-- Node3 -->
<g id="node3" class="node"><title>Node3</title>
<g id="a_node3"><a xlink:href="../../dd/d8e/classuser_interface_1_1_user_interface.html#abc4f9421a71a0c5236fac830a5b94ae3" target="_top" xlink:title="userInterface.UserInterface.make\lUIButton">
<polygon fill="white" stroke="black" points="214.5,-425 214.5,-455 391.5,-455 391.5,-425 214.5,-425"/>
<text text-anchor="start" x="222.5" y="-443" font-family="Helvetica,sans-Serif" font-size="10.00">userInterface.UserInterface.make</text>
<text text-anchor="middle" x="303" y="-432" font-family="Helvetica,sans-Serif" font-size="10.00">UIButton</text>
</a>
</g>
</g>
<!-- Node1&#45;&gt;Node3 -->
<g id="edge2" class="edge"><title>Node1&#45;&gt;Node3</title>
<path fill="none" stroke="midnightblue" d="M177.759,-440C186.437,-440 195.284,-440 204.057,-440"/>
<polygon fill="midnightblue" stroke="midnightblue" points="204.307,-443.5 214.307,-440 204.307,-436.5 204.307,-443.5"/>
</g>
<!-- Node4 -->
<g id="node4" class="node"><title>Node4</title>
<g id="a_node4"><a xlink:href="../../dd/d8e/classuser_interface_1_1_user_interface.html#a95e324c85888faea808be269e44ed5b8" target="_top" xlink:title="userInterface.UserInterface.run\lCommand">
<polygon fill="white" stroke="black" points="220,-376 220,-406 386,-406 386,-376 220,-376"/>
<text text-anchor="start" x="228" y="-394" font-family="Helvetica,sans-Serif" font-size="10.00">userInterface.UserInterface.run</text>
<text text-anchor="middle" x="303" y="-383" font-family="Helvetica,sans-Serif" font-size="10.00">Command</text>
</a>
</g>
</g>
<!-- Node1&#45;&gt;Node4 -->
<g id="edge3" class="edge"><title>Node1&#45;&gt;Node4</title>
<path fill="none" stroke="midnightblue" d="M155.048,-424.965C177.839,-419.698 203.615,-413.74 227.144,-408.302"/>
<polygon fill="midnightblue" stroke="midnightblue" points="228.12,-411.668 237.075,-406.006 226.544,-404.848 228.12,-411.668"/>
</g>
<!-- Node5 -->
<g id="node5" class="node"><title>Node5</title>
<g id="a_node5"><a xlink:href="../../d8/d08/classworld_controller_1_1_world_controller.html#a178425d68e3e669c386706153ce44999" target="_top" xlink:title="worldController.WorldController.update">
<polygon fill="white" stroke="black" points="428,-381.5 428,-400.5 626,-400.5 626,-381.5 428,-381.5"/>
<text text-anchor="middle" x="527" y="-388.5" font-family="Helvetica,sans-Serif" font-size="10.00">worldController.WorldController.update</text>
</a>
</g>
</g>
<!-- Node4&#45;&gt;Node5 -->
<g id="edge4" class="edge"><title>Node4&#45;&gt;Node5</title>
<path fill="none" stroke="midnightblue" d="M386.034,-391C396.33,-391 406.984,-391 417.605,-391"/>
<polygon fill="midnightblue" stroke="midnightblue" points="417.767,-394.5 427.767,-391 417.767,-387.5 417.767,-394.5"/>
</g>
<!-- Node6 -->
<g id="node6" class="node"><title>Node6</title>
<g id="a_node6"><a xlink:href="../../df/dcb/classturtle_1_1_turtle.html#a610aafaf658c4b351330b7c16c66881c" target="_top" xlink:title="turtle.Turtle.updatePenAttributes">
<polygon fill="white" stroke="black" points="662.5,-612.5 662.5,-631.5 835.5,-631.5 835.5,-612.5 662.5,-612.5"/>
<text text-anchor="middle" x="749" y="-619.5" font-family="Helvetica,sans-Serif" font-size="10.00">turtle.Turtle.updatePenAttributes</text>
</a>
</g>
</g>
<!-- Node5&#45;&gt;Node6 -->
<g id="edge5" class="edge"><title>Node5&#45;&gt;Node6</title>
<path fill="none" stroke="midnightblue" d="M537.173,-400.632C570.928,-436.074 688.515,-559.541 731.824,-605.016"/>
<polygon fill="midnightblue" stroke="midnightblue" points="729.357,-607.5 738.788,-612.327 734.426,-602.672 729.357,-607.5"/>
</g>
<!-- Node9 -->
<g id="node9" class="node"><title>Node9</title>
<g id="a_node9"><a xlink:href="../../d9/dd0/classworld_1_1_world.html#ae370733f7784c42741a6ba66c7d2ecf5" target="_top" xlink:title="world.World.listen">
<polygon fill="white" stroke="black" points="700,-403.5 700,-422.5 798,-422.5 798,-403.5 700,-403.5"/>
<text text-anchor="middle" x="749" y="-410.5" font-family="Helvetica,sans-Serif" font-size="10.00">world.World.listen</text>
</a>
</g>
</g>
<!-- Node5&#45;&gt;Node9 -->
<g id="edge8" class="edge"><title>Node5&#45;&gt;Node9</title>
<path fill="none" stroke="midnightblue" d="M623.216,-400.522C645.866,-402.787 669.368,-405.137 689.786,-407.179"/>
<polygon fill="midnightblue" stroke="midnightblue" points="689.553,-410.673 699.852,-408.185 690.25,-403.707 689.553,-410.673"/>
</g>
<!-- Node49 -->
<g id="node49" class="node"><title>Node49</title>
<g id="a_node49"><a xlink:href="../../dd/d8e/classuser_interface_1_1_user_interface.html#a06489ec50d4d8ff415e0b1ec2b02d39a" target="_top" xlink:title="userInterface.UserInterface.get\lSidebar">
<polygon fill="white" stroke="black" points="666,-354 666,-384 832,-384 832,-354 666,-354"/>
<text text-anchor="start" x="674" y="-372" font-family="Helvetica,sans-Serif" font-size="10.00">userInterface.UserInterface.get</text>
<text text-anchor="middle" x="749" y="-361" font-family="Helvetica,sans-Serif" font-size="10.00">Sidebar</text>
</a>
</g>
</g>
<!-- Node5&#45;&gt;Node49 -->
<g id="edge58" class="edge"><title>Node5&#45;&gt;Node49</title>
<path fill="none" stroke="midnightblue" d="M623.216,-381.478C633.952,-380.405 644.88,-379.312 655.58,-378.242"/>
<polygon fill="midnightblue" stroke="midnightblue" points="656.153,-381.702 665.755,-377.224 655.456,-374.737 656.153,-381.702"/>
</g>
<!-- Node50 -->
<g id="node50" class="node"><title>Node50</title>
<g id="a_node50"><a xlink:href="../../d1/d68/classuser_interface_1_1_sidebar.html#a7a3c7a302a3b54e74a26d97c4749444d" target="_top" xlink:title="userInterface.Sidebar.add\lResult">
<polygon fill="white" stroke="black" points="679,-305 679,-335 819,-335 819,-305 679,-305"/>
<text text-anchor="start" x="687" y="-323" font-family="Helvetica,sans-Serif" font-size="10.00">userInterface.Sidebar.add</text>
<text text-anchor="middle" x="749" y="-312" font-family="Helvetica,sans-Serif" font-size="10.00">Result</text>
</a>
</g>
</g>
<!-- Node5&#45;&gt;Node50 -->
<g id="edge59" class="edge"><title>Node5&#45;&gt;Node50</title>
<path fill="none" stroke="midnightblue" d="M553.523,-381.49C580.361,-371.622 623.902,-355.983 662,-344 668.458,-341.969 675.215,-339.932 681.981,-337.951"/>
<polygon fill="midnightblue" stroke="midnightblue" points="683.232,-341.233 691.868,-335.095 681.29,-334.508 683.232,-341.233"/>
</g>
<!-- Node7 -->
<g id="node7" class="node"><title>Node7</title>
<g id="a_node7"><a xlink:href="../../de/d57/classturtle_1_1_pen.html#ac9a08745a9f3615b9e47c1c8e5af8f1b" target="_top" xlink:title="turtle.Pen.getColor">
<polygon fill="white" stroke="black" points="918.5,-612.5 918.5,-631.5 1025.5,-631.5 1025.5,-612.5 918.5,-612.5"/>
<text text-anchor="middle" x="972" y="-619.5" font-family="Helvetica,sans-Serif" font-size="10.00">turtle.Pen.getColor</text>
</a>
</g>
</g>
<!-- Node6&#45;&gt;Node7 -->
<g id="edge6" class="edge"><title>Node6&#45;&gt;Node7</title>
<path fill="none" stroke="midnightblue" d="M835.761,-622C859.855,-622 885.604,-622 908.099,-622"/>
<polygon fill="midnightblue" stroke="midnightblue" points="908.188,-625.5 918.188,-622 908.188,-618.5 908.188,-625.5"/>
</g>
<!-- Node8 -->
<g id="node8" class="node"><title>Node8</title>
<g id="a_node8"><a xlink:href="../../de/d57/classturtle_1_1_pen.html#a76c8dc4e66927e7d3774ea00b2266640" target="_top" xlink:title="turtle.Pen.getSize">
<polygon fill="white" stroke="black" points="921,-650.5 921,-669.5 1023,-669.5 1023,-650.5 921,-650.5"/>
<text text-anchor="middle" x="972" y="-657.5" font-family="Helvetica,sans-Serif" font-size="10.00">turtle.Pen.getSize</text>
</a>
</g>
</g>
<!-- Node6&#45;&gt;Node8 -->
<g id="edge7" class="edge"><title>Node6&#45;&gt;Node8</title>
<path fill="none" stroke="midnightblue" d="M805.482,-631.54C837.579,-637.059 877.991,-644.008 910.848,-649.657"/>
<polygon fill="midnightblue" stroke="midnightblue" points="910.337,-653.121 920.785,-651.366 911.523,-646.222 910.337,-653.121"/>
</g>
<!-- Node10 -->
<g id="node10" class="node"><title>Node10</title>
<g id="a_node10"><a xlink:href="../../d6/d95/classparser_1_1_parser.html#a240c75608624a9c67402a296855c4d1d" target="_top" xlink:title="parser.Parser.initialize\lCommands">
<polygon fill="white" stroke="black" points="912,-335 912,-365 1032,-365 1032,-335 912,-335"/>
<text text-anchor="start" x="920" y="-353" font-family="Helvetica,sans-Serif" font-size="10.00">parser.Parser.initialize</text>
<text text-anchor="middle" x="972" y="-342" font-family="Helvetica,sans-Serif" font-size="10.00">Commands</text>
</a>
</g>
</g>
<!-- Node9&#45;&gt;Node10 -->
<g id="edge9" class="edge"><title>Node9&#45;&gt;Node10</title>
<path fill="none" stroke="midnightblue" d="M798.344,-403.857C810.783,-400.935 824.031,-397.316 836,-393 852.828,-386.932 855.23,-381.226 872,-375 881.634,-371.423 891.982,-368.184 902.226,-365.313"/>
<polygon fill="midnightblue" stroke="midnightblue" points="903.248,-368.663 911.989,-362.675 901.422,-361.905 903.248,-368.663"/>
</g>
<!-- Node19 -->
<g id="node19" class="node"><title>Node19</title>
<g id="a_node19"><a xlink:href="../../d6/d95/classparser_1_1_parser.html#a4ecbffc246c3add017c4720eed4c6da9" target="_top" xlink:title="parser.Parser.parse">
<polygon fill="white" stroke="black" points="917.5,-296.5 917.5,-315.5 1026.5,-315.5 1026.5,-296.5 917.5,-296.5"/>
<text text-anchor="middle" x="972" y="-303.5" font-family="Helvetica,sans-Serif" font-size="10.00">parser.Parser.parse</text>
</a>
</g>
</g>
<!-- Node9&#45;&gt;Node19 -->
<g id="edge18" class="edge"><title>Node9&#45;&gt;Node19</title>
<path fill="none" stroke="midnightblue" d="M798.244,-409.197C811.503,-406.277 825.191,-401.324 836,-393 863.094,-372.137 844.505,-345.333 872,-325 882.271,-317.405 894.732,-312.596 907.3,-309.602"/>
<polygon fill="midnightblue" stroke="midnightblue" points="908.253,-312.981 917.363,-307.572 906.868,-306.119 908.253,-312.981"/>
</g>
<!-- Node37 -->
<g id="node37" class="node"><title>Node37</title>
<g id="a_node37"><a xlink:href="../../d7/d35/classcommand_1_1_command.html#abab1a56440721aacda6f82ca3e3f761d" target="_top" xlink:title="command.Command.isLoop">
<polygon fill="white" stroke="black" points="896,-258.5 896,-277.5 1048,-277.5 1048,-258.5 896,-258.5"/>
<text text-anchor="middle" x="972" y="-265.5" font-family="Helvetica,sans-Serif" font-size="10.00">command.Command.isLoop</text>
</a>
</g>
</g>
<!-- Node9&#45;&gt;Node37 -->
<g id="edge46" class="edge"><title>Node9&#45;&gt;Node37</title>
<path fill="none" stroke="midnightblue" d="M798.24,-410.455C811.805,-407.598 825.661,-402.364 836,-393 872.877,-359.601 834.48,-319.676 872,-287 876.331,-283.229 881.177,-280.112 886.337,-277.544"/>
<polygon fill="midnightblue" stroke="midnightblue" points="888.072,-280.61 895.918,-273.491 885.345,-274.163 888.072,-280.61"/>
</g>
<!-- Node38 -->
<g id="node38" class="node"><title>Node38</title>
<g id="a_node38"><a xlink:href="../../d3/d0c/classcommand_1_1_loop_command.html#ada1d22f47d490bc6dab4de647cc1f48c" target="_top" xlink:title="command.LoopCommand.read\lValues">
<polygon fill="white" stroke="black" points="888.5,-209 888.5,-239 1055.5,-239 1055.5,-209 888.5,-209"/>
<text text-anchor="start" x="896.5" y="-227" font-family="Helvetica,sans-Serif" font-size="10.00">command.LoopCommand.read</text>
<text text-anchor="middle" x="972" y="-216" font-family="Helvetica,sans-Serif" font-size="10.00">Values</text>
</a>
</g>
</g>
<!-- Node9&#45;&gt;Node38 -->
<g id="edge47" class="edge"><title>Node9&#45;&gt;Node38</title>
<path fill="none" stroke="midnightblue" d="M798.284,-411.069C812.011,-408.254 825.946,-402.89 836,-393 883.03,-346.738 825.408,-295.703 872,-249 874.379,-246.616 876.95,-244.447 879.671,-242.476"/>
<polygon fill="midnightblue" stroke="midnightblue" points="881.608,-245.394 888.246,-237.136 877.908,-239.452 881.608,-245.394"/>
</g>
<!-- Node39 -->
<g id="node39" class="node"><title>Node39</title>
<g id="a_node39"><a xlink:href="../../d3/d0c/classcommand_1_1_loop_command.html#acafb991a0b502838282d37c6d34d93ea" target="_top" xlink:title="command.LoopCommand.getStart">
<polygon fill="white" stroke="black" points="879.5,-170.5 879.5,-189.5 1064.5,-189.5 1064.5,-170.5 879.5,-170.5"/>
<text text-anchor="middle" x="972" y="-177.5" font-family="Helvetica,sans-Serif" font-size="10.00">command.LoopCommand.getStart</text>
</a>
</g>
</g>
<!-- Node9&#45;&gt;Node39 -->
<g id="edge48" class="edge"><title>Node9&#45;&gt;Node39</title>
<path fill="none" stroke="midnightblue" d="M798.216,-411.534C812.106,-408.762 826.149,-403.305 836,-393 896.598,-329.611 810.181,-261.199 872,-199 873.272,-197.72 874.603,-196.512 875.985,-195.373"/>
<polygon fill="midnightblue" stroke="midnightblue" points="878.16,-198.124 884.414,-189.572 874.192,-192.358 878.16,-198.124"/>
</g>
<!-- Node40 -->
<g id="node40" class="node"><title>Node40</title>
<g id="a_node40"><a xlink:href="../../d3/d0c/classcommand_1_1_loop_command.html#a38d345572574f40b34185027fed74590" target="_top" xlink:title="command.LoopCommand.getIncr">
<polygon fill="white" stroke="black" points="883,-574.5 883,-593.5 1061,-593.5 1061,-574.5 883,-574.5"/>
<text text-anchor="middle" x="972" y="-581.5" font-family="Helvetica,sans-Serif" font-size="10.00">command.LoopCommand.getIncr</text>
</a>
</g>
</g>
<!-- Node9&#45;&gt;Node40 -->
<g id="edge49" class="edge"><title>Node9&#45;&gt;Node40</title>
<path fill="none" stroke="midnightblue" d="M754.7,-422.8C768.439,-450.293 811.416,-528.517 872,-565 875.626,-567.184 879.451,-569.124 883.405,-570.849"/>
<polygon fill="midnightblue" stroke="midnightblue" points="882.241,-574.151 892.83,-574.491 884.764,-567.622 882.241,-574.151"/>
</g>
<!-- Node41 -->
<g id="node41" class="node"><title>Node41</title>
<g id="a_node41"><a xlink:href="../../d3/d0c/classcommand_1_1_loop_command.html#a00fbe9457b4fbcf10374d777d567e50b" target="_top" xlink:title="command.LoopCommand.getEnd">
<polygon fill="white" stroke="black" points="882.5,-536.5 882.5,-555.5 1061.5,-555.5 1061.5,-536.5 882.5,-536.5"/>
<text text-anchor="middle" x="972" y="-543.5" font-family="Helvetica,sans-Serif" font-size="10.00">command.LoopCommand.getEnd</text>
</a>
</g>
</g>
<!-- Node9&#45;&gt;Node41 -->
<g id="edge50" class="edge"><title>Node9&#45;&gt;Node41</title>
<path fill="none" stroke="midnightblue" d="M757.028,-422.533C774.022,-444.821 819.808,-500.451 872,-527 876.658,-529.369 881.576,-531.444 886.63,-533.262"/>
<polygon fill="midnightblue" stroke="midnightblue" points="885.893,-536.702 896.485,-536.448 888.047,-530.041 885.893,-536.702"/>
</g>
<!-- Node42 -->
<g id="node42" class="node"><title>Node42</title>
<g id="a_node42"><a xlink:href="../../d6/d95/classparser_1_1_parser.html#a8679d61f4ae6c55910ef113bcdda2c75" target="_top" xlink:title="parser.Parser.updateVariable">
<polygon fill="white" stroke="black" points="895,-498.5 895,-517.5 1049,-517.5 1049,-498.5 895,-498.5"/>
<text text-anchor="middle" x="972" y="-505.5" font-family="Helvetica,sans-Serif" font-size="10.00">parser.Parser.updateVariable</text>
</a>
</g>
</g>
<!-- Node9&#45;&gt;Node42 -->
<g id="edge51" class="edge"><title>Node9&#45;&gt;Node42</title>
<path fill="none" stroke="midnightblue" d="M762.005,-422.616C782.999,-438.922 828.318,-471.888 872,-489 878.778,-491.655 885.967,-493.949 893.254,-495.929"/>
<polygon fill="midnightblue" stroke="midnightblue" points="892.671,-499.392 903.223,-498.439 894.38,-492.603 892.671,-499.392"/>
</g>
<!-- Node44 -->
<g id="node44" class="node"><title>Node44</title>
<g id="a_node44"><a xlink:href="../../d3/d0c/classcommand_1_1_loop_command.html#a5b6c248f45758e6515fcc46e2eae4562" target="_top" xlink:title="command.LoopCommand.getVariable">
<polygon fill="white" stroke="black" points="872.5,-460.5 872.5,-479.5 1071.5,-479.5 1071.5,-460.5 872.5,-460.5"/>
<text text-anchor="middle" x="972" y="-467.5" font-family="Helvetica,sans-Serif" font-size="10.00">command.LoopCommand.getVariable</text>
</a>
</g>
</g>
<!-- Node9&#45;&gt;Node44 -->
<g id="edge53" class="edge"><title>Node9&#45;&gt;Node44</title>
<path fill="none" stroke="midnightblue" d="M777.851,-422.657C802.416,-430.937 839.293,-442.795 872,-451 882.832,-453.717 894.414,-456.26 905.7,-458.547"/>
<polygon fill="midnightblue" stroke="midnightblue" points="905.027,-461.982 915.516,-460.489 906.385,-455.115 905.027,-461.982"/>
</g>
<!-- Node45 -->
<g id="node45" class="node"><title>Node45</title>
<g id="a_node45"><a xlink:href="../../df/dcb/classturtle_1_1_turtle.html#aa53d992fb81cd039a22a301af9b32aba" target="_top" xlink:title="turtle.Turtle.act">
<polygon fill="white" stroke="black" points="927.5,-422.5 927.5,-441.5 1016.5,-441.5 1016.5,-422.5 927.5,-422.5"/>
<text text-anchor="middle" x="972" y="-429.5" font-family="Helvetica,sans-Serif" font-size="10.00">turtle.Turtle.act</text>
</a>
</g>
</g>
<!-- Node9&#45;&gt;Node45 -->
<g id="edge54" class="edge"><title>Node9&#45;&gt;Node45</title>
<path fill="none" stroke="midnightblue" d="M798.226,-417.146C833.252,-420.157 880.671,-424.234 916.971,-427.355"/>
<polygon fill="midnightblue" stroke="midnightblue" points="917.11,-430.88 927.373,-428.249 917.71,-423.905 917.11,-430.88"/>
</g>
<!-- Node47 -->
<g id="node47" class="node"><title>Node47</title>
<g id="a_node47"><a xlink:href="../../d6/d95/classparser_1_1_parser.html#acebafe1593fc1f09ac31c7104438e4b1" target="_top" xlink:title="parser.Parser.resetRepcount">
<polygon fill="white" stroke="black" points="896.5,-384.5 896.5,-403.5 1047.5,-403.5 1047.5,-384.5 896.5,-384.5"/>
<text text-anchor="middle" x="972" y="-391.5" font-family="Helvetica,sans-Serif" font-size="10.00">parser.Parser.resetRepcount</text>
</a>
</g>
</g>
<!-- Node9&#45;&gt;Node47 -->
<g id="edge56" class="edge"><title>Node9&#45;&gt;Node47</title>
<path fill="none" stroke="midnightblue" d="M798.226,-408.854C824.014,-406.637 856.521,-403.842 886.362,-401.277"/>
<polygon fill="midnightblue" stroke="midnightblue" points="886.703,-404.76 896.366,-400.416 886.103,-397.786 886.703,-404.76"/>
</g>
<!-- Node11 -->
<g id="node11" class="node"><title>Node11</title>
<g id="a_node11"><a xlink:href="../../d3/dcc/classparser_1_1_node.html#a9c12e8d4375a7517eae0a35724b253c4" target="_top" xlink:title="parser.Node.getValue">
<polygon fill="white" stroke="black" points="1376,-317.5 1376,-336.5 1496,-336.5 1496,-317.5 1376,-317.5"/>
<text text-anchor="middle" x="1436" y="-324.5" font-family="Helvetica,sans-Serif" font-size="10.00">parser.Node.getValue</text>
</a>
</g>
</g>
<!-- Node10&#45;&gt;Node11 -->
<g id="edge10" class="edge"><title>Node10&#45;&gt;Node11</title>
<path fill="none" stroke="midnightblue" d="M1032.45,-347.04C1117.87,-342.788 1274.98,-334.966 1365.6,-330.455"/>
<polygon fill="midnightblue" stroke="midnightblue" points="1365.96,-333.941 1375.78,-329.948 1365.61,-326.95 1365.96,-333.941"/>
</g>
<!-- Node12 -->
<g id="node12" class="node"><title>Node12</title>
<g id="a_node12"><a xlink:href="../../d6/d95/classparser_1_1_parser.html#a4f582c65390bddc57219c0b5c31ef5e7" target="_top" xlink:title="parser.Parser.makeTree">
<polygon fill="white" stroke="black" points="1138,-372.5 1138,-391.5 1266,-391.5 1266,-372.5 1138,-372.5"/>
<text text-anchor="middle" x="1202" y="-379.5" font-family="Helvetica,sans-Serif" font-size="10.00">parser.Parser.makeTree</text>
</a>
</g>
</g>
<!-- Node10&#45;&gt;Node12 -->
<g id="edge11" class="edge"><title>Node10&#45;&gt;Node12</title>
<path fill="none" stroke="midnightblue" d="M1032.01,-358.282C1061.17,-362.375 1096.65,-367.354 1127.55,-371.691"/>
<polygon fill="midnightblue" stroke="midnightblue" points="1127.45,-375.212 1137.84,-373.136 1128.42,-368.28 1127.45,-375.212"/>
</g>
<!-- Node13 -->
<g id="node13" class="node"><title>Node13</title>
<g id="a_node13"><a xlink:href="../../d9/d1b/classcommand_1_1_command_factory.html#a87bf7e648425bb22124367cabedb3327" target="_top" xlink:title="command.CommandFactory.get\lNumParameters">
<polygon fill="white" stroke="black" points="1351,-356 1351,-386 1521,-386 1521,-356 1351,-356"/>
<text text-anchor="start" x="1359" y="-374" font-family="Helvetica,sans-Serif" font-size="10.00">command.CommandFactory.get</text>
<text text-anchor="middle" x="1436" y="-363" font-family="Helvetica,sans-Serif" font-size="10.00">NumParameters</text>
</a>
</g>
</g>
<!-- Node12&#45;&gt;Node13 -->
<g id="edge12" class="edge"><title>Node12&#45;&gt;Node13</title>
<path fill="none" stroke="midnightblue" d="M1266.09,-379.009C1288.97,-377.924 1315.34,-376.674 1340.34,-375.488"/>
<polygon fill="midnightblue" stroke="midnightblue" points="1340.76,-378.972 1350.59,-375.002 1340.43,-371.98 1340.76,-378.972"/>
</g>
<!-- Node15 -->
<g id="node15" class="node"><title>Node15</title>
<g id="a_node15"><a xlink:href="../../d9/d1b/classcommand_1_1_command_factory.html#a0fca3b89ecf4ce07546cd4dc0f3820ea" target="_top" xlink:title="command.CommandFactory.initialize\lLoopVariables">
<polygon fill="white" stroke="black" points="1339.5,-405 1339.5,-435 1532.5,-435 1532.5,-405 1339.5,-405"/>
<text text-anchor="start" x="1347.5" y="-423" font-family="Helvetica,sans-Serif" font-size="10.00">command.CommandFactory.initialize</text>
<text text-anchor="middle" x="1436" y="-412" font-family="Helvetica,sans-Serif" font-size="10.00">LoopVariables</text>
</a>
</g>
</g>
<!-- Node12&#45;&gt;Node15 -->
<g id="edge14" class="edge"><title>Node12&#45;&gt;Node15</title>
<path fill="none" stroke="midnightblue" d="M1261.24,-391.54C1283.07,-395.115 1308.56,-399.289 1333.18,-403.322"/>
<polygon fill="midnightblue" stroke="midnightblue" points="1332.86,-406.816 1343.29,-404.979 1333.99,-399.908 1332.86,-406.816"/>
</g>
<!-- Node14 -->
<g id="node14" class="node"><title>Node14</title>
<g id="a_node14"><a xlink:href="../../d9/d1b/classcommand_1_1_command_factory.html#a947fdc151e857ea74564d0d1fe268246" target="_top" xlink:title="command.CommandFactory.translate\lCommand">
<polygon fill="white" stroke="black" points="1576.5,-205 1576.5,-235 1773.5,-235 1773.5,-205 1576.5,-205"/>
<text text-anchor="start" x="1584.5" y="-223" font-family="Helvetica,sans-Serif" font-size="10.00">command.CommandFactory.translate</text>
<text text-anchor="middle" x="1675" y="-212" font-family="Helvetica,sans-Serif" font-size="10.00">Command</text>
</a>
</g>
</g>
<!-- Node13&#45;&gt;Node14 -->
<g id="edge13" class="edge"><title>Node13&#45;&gt;Node14</title>
<path fill="none" stroke="midnightblue" d="M1517,-355.989C1524.99,-353.199 1532.8,-349.9 1540,-346 1588.56,-319.701 1632.66,-271.437 1656.17,-242.884"/>
<polygon fill="midnightblue" stroke="midnightblue" points="1658.94,-245.02 1662.51,-235.045 1653.5,-240.616 1658.94,-245.02"/>
</g>
<!-- Node16 -->
<g id="node16" class="node"><title>Node16</title>
<g id="a_node16"><a xlink:href="../../d9/d1b/classcommand_1_1_command_factory.html#a8227888e11d7f80629e7d855aa7894a8" target="_top" xlink:title="command.CommandFactory.check\lDotimes">
<polygon fill="white" stroke="black" points="1584,-449 1584,-479 1766,-479 1766,-449 1584,-449"/>
<text text-anchor="start" x="1592" y="-467" font-family="Helvetica,sans-Serif" font-size="10.00">command.CommandFactory.check</text>
<text text-anchor="middle" x="1675" y="-456" font-family="Helvetica,sans-Serif" font-size="10.00">Dotimes</text>
</a>
</g>
</g>
<!-- Node15&#45;&gt;Node16 -->
<g id="edge15" class="edge"><title>Node15&#45;&gt;Node16</title>
<path fill="none" stroke="midnightblue" d="M1517.9,-435.019C1538.85,-438.909 1561.55,-443.124 1582.99,-447.103"/>
<polygon fill="midnightblue" stroke="midnightblue" points="1582.59,-450.59 1593.06,-448.974 1583.87,-443.707 1582.59,-450.59"/>
</g>
<!-- Node17 -->
<g id="node17" class="node"><title>Node17</title>
<g id="a_node17"><a xlink:href="../../d9/d1b/classcommand_1_1_command_factory.html#a5f698c7496a9d533d6350fac6c3ee567" target="_top" xlink:title="command.CommandFactory.checkFor">
<polygon fill="white" stroke="black" points="1576.5,-410.5 1576.5,-429.5 1773.5,-429.5 1773.5,-410.5 1576.5,-410.5"/>
<text text-anchor="middle" x="1675" y="-417.5" font-family="Helvetica,sans-Serif" font-size="10.00">command.CommandFactory.checkFor</text>
</a>
</g>
</g>
<!-- Node15&#45;&gt;Node17 -->
<g id="edge16" class="edge"><title>Node15&#45;&gt;Node17</title>
<path fill="none" stroke="midnightblue" d="M1532.71,-420C1543.73,-420 1555.02,-420 1566.18,-420"/>
<polygon fill="midnightblue" stroke="midnightblue" points="1566.38,-423.5 1576.38,-420 1566.38,-416.5 1566.38,-423.5"/>
</g>
<!-- Node18 -->
<g id="node18" class="node"><title>Node18</title>
<g id="a_node18"><a xlink:href="../../d9/d1b/classcommand_1_1_command_factory.html#afb06a581338dad8003d851d2d490fc5e" target="_top" xlink:title="command.CommandFactory.check\lRepeat">
<polygon fill="white" stroke="black" points="1584,-361 1584,-391 1766,-391 1766,-361 1584,-361"/>
<text text-anchor="start" x="1592" y="-379" font-family="Helvetica,sans-Serif" font-size="10.00">command.CommandFactory.check</text>
<text text-anchor="middle" x="1675" y="-368" font-family="Helvetica,sans-Serif" font-size="10.00">Repeat</text>
</a>
</g>
</g>
<!-- Node15&#45;&gt;Node18 -->
<g id="edge17" class="edge"><title>Node15&#45;&gt;Node18</title>
<path fill="none" stroke="midnightblue" d="M1517.9,-404.981C1538.85,-401.091 1561.55,-396.876 1582.99,-392.897"/>
<polygon fill="midnightblue" stroke="midnightblue" points="1583.87,-396.293 1593.06,-391.026 1582.59,-389.41 1583.87,-396.293"/>
</g>
<!-- Node19&#45;&gt;Node12 -->
<g id="edge45" class="edge"><title>Node19&#45;&gt;Node12</title>
<path fill="none" stroke="midnightblue" d="M1026.73,-314.021C1041.56,-316.852 1057.55,-320.485 1072,-325 1108.27,-336.331 1147.96,-354.869 1173.61,-367.713"/>
<polygon fill="midnightblue" stroke="midnightblue" points="1172.21,-370.928 1182.71,-372.33 1175.38,-364.685 1172.21,-370.928"/>
</g>
<!-- Node20 -->
<g id="node20" class="node"><title>Node20</title>
<g id="a_node20"><a xlink:href="../../d9/d1b/classcommand_1_1_command_factory.html#ab25bb047b051661d31adf73b2dae5649" target="_top" xlink:title="command.CommandFactory.create\lCommand">
<polygon fill="white" stroke="black" points="1109.5,-65 1109.5,-95 1294.5,-95 1294.5,-65 1109.5,-65"/>
<text text-anchor="start" x="1117.5" y="-83" font-family="Helvetica,sans-Serif" font-size="10.00">command.CommandFactory.create</text>
<text text-anchor="middle" x="1202" y="-72" font-family="Helvetica,sans-Serif" font-size="10.00">Command</text>
</a>
</g>
</g>
<!-- Node19&#45;&gt;Node20 -->
<g id="edge19" class="edge"><title>Node19&#45;&gt;Node20</title>
<path fill="none" stroke="midnightblue" d="M1026.67,-306.55C1043.05,-304.096 1059.9,-298.525 1072,-287 1121.03,-240.319 1068.55,-194.016 1108,-139 1119.95,-122.327 1138.23,-109.265 1155.42,-99.7174"/>
<polygon fill="midnightblue" stroke="midnightblue" points="1157.06,-102.808 1164.27,-95.0441 1153.79,-96.6172 1157.06,-102.808"/>
</g>
<!-- Node28 -->
<g id="node28" class="node"><title>Node28</title>
<g id="a_node28"><a xlink:href="../../d6/d95/classparser_1_1_parser.html#aac1cff62f68138c7e977a67d39671701" target="_top" xlink:title="parser.Parser.generateCommand\lInput">
<polygon fill="white" stroke="black" points="1114,-247 1114,-277 1290,-277 1290,-247 1114,-247"/>
<text text-anchor="start" x="1122" y="-265" font-family="Helvetica,sans-Serif" font-size="10.00">parser.Parser.generateCommand</text>
<text text-anchor="middle" x="1202" y="-254" font-family="Helvetica,sans-Serif" font-size="10.00">Input</text>
</a>
</g>
</g>
<!-- Node19&#45;&gt;Node28 -->
<g id="edge28" class="edge"><title>Node19&#45;&gt;Node28</title>
<path fill="none" stroke="midnightblue" d="M1022.61,-296.498C1038.4,-293.468 1055.93,-290.099 1072,-287 1085.43,-284.41 1099.64,-281.662 1113.54,-278.973"/>
<polygon fill="midnightblue" stroke="midnightblue" points="1114.43,-282.365 1123.58,-277.027 1113.1,-275.492 1114.43,-282.365"/>
</g>
<!-- Node32 -->
<g id="node32" class="node"><title>Node32</title>
<g id="a_node32"><a xlink:href="../../d6/d95/classparser_1_1_parser.html#a3efcd1192e76101919526b4a5e0046f4" target="_top" xlink:title="parser.Parser.getNodeBefore\lToReplace">
<polygon fill="white" stroke="black" points="1124.5,-149 1124.5,-179 1279.5,-179 1279.5,-149 1124.5,-149"/>
<text text-anchor="start" x="1132.5" y="-167" font-family="Helvetica,sans-Serif" font-size="10.00">parser.Parser.getNodeBefore</text>
<text text-anchor="middle" x="1202" y="-156" font-family="Helvetica,sans-Serif" font-size="10.00">ToReplace</text>
</a>
</g>
</g>
<!-- Node19&#45;&gt;Node32 -->
<g id="edge33" class="edge"><title>Node19&#45;&gt;Node32</title>
<path fill="none" stroke="midnightblue" d="M1026.72,-305.624C1042.81,-303.067 1059.48,-297.671 1072,-287 1107.63,-256.631 1073.34,-219.476 1108,-188 1110.33,-185.882 1112.83,-183.946 1115.45,-182.177"/>
<polygon fill="midnightblue" stroke="midnightblue" points="1117.32,-185.136 1124.19,-177.075 1113.79,-179.089 1117.32,-185.136"/>
</g>
<!-- Node35 -->
<g id="node35" class="node"><title>Node35</title>
<g id="a_node35"><a xlink:href="../../d6/d95/classparser_1_1_parser.html#a447c473b62ba23b7c144df9bb38a9a41" target="_top" xlink:title="parser.Parser.getNodeFor\lCommand">
<polygon fill="white" stroke="black" points="1133,-198 1133,-228 1271,-228 1271,-198 1133,-198"/>
<text text-anchor="start" x="1141" y="-216" font-family="Helvetica,sans-Serif" font-size="10.00">parser.Parser.getNodeFor</text>
<text text-anchor="middle" x="1202" y="-205" font-family="Helvetica,sans-Serif" font-size="10.00">Command</text>
</a>
</g>
</g>
<!-- Node19&#45;&gt;Node35 -->
<g id="edge38" class="edge"><title>Node19&#45;&gt;Node35</title>
<path fill="none" stroke="midnightblue" d="M1026.64,-303.176C1042.19,-300.448 1058.58,-295.57 1072,-287 1095.08,-272.265 1085.39,-252.454 1108,-237 1112.65,-233.824 1117.68,-231.068 1122.93,-228.677"/>
<polygon fill="midnightblue" stroke="midnightblue" points="1124.61,-231.77 1132.55,-224.755 1121.97,-225.287 1124.61,-231.77"/>
</g>
<!-- Node36 -->
<g id="node36" class="node"><title>Node36</title>
<g id="a_node36"><a xlink:href="../../d3/dcc/classparser_1_1_node.html#a066da2b478008f39a02440d7afceb9ee" target="_top" xlink:title="parser.Node.insertChild">
<polygon fill="white" stroke="black" points="1138,-296.5 1138,-315.5 1266,-315.5 1266,-296.5 1138,-296.5"/>
<text text-anchor="middle" x="1202" y="-303.5" font-family="Helvetica,sans-Serif" font-size="10.00">parser.Node.insertChild</text>
</a>
</g>
</g>
<!-- Node19&#45;&gt;Node36 -->
<g id="edge43" class="edge"><title>Node19&#45;&gt;Node36</title>
<path fill="none" stroke="midnightblue" d="M1026.74,-306C1056.93,-306 1095.03,-306 1127.89,-306"/>
<polygon fill="midnightblue" stroke="midnightblue" points="1127.91,-309.5 1137.91,-306 1127.91,-302.5 1127.91,-309.5"/>
</g>
<!-- Node20&#45;&gt;Node14 -->
<g id="edge27" class="edge"><title>Node20&#45;&gt;Node14</title>
<path fill="none" stroke="midnightblue" d="M1294.77,-84.8559C1378.95,-90.3007 1496.9,-100.712 1540,-118 1584.81,-135.973 1627.56,-173.199 1652.27,-197.362"/>
<polygon fill="midnightblue" stroke="midnightblue" points="1650.09,-200.125 1659.64,-204.707 1655.03,-195.168 1650.09,-200.125"/>
</g>
<!-- Node21 -->
<g id="node21" class="node"><title>Node21</title>
<g id="a_node21"><a xlink:href="../../d9/d1b/classcommand_1_1_command_factory.html#a279e89b924975cea17afc7770530eabc" target="_top" xlink:title="command.CommandFactory.checkMake">
<polygon fill="white" stroke="black" points="1332,-8.5 1332,-27.5 1540,-27.5 1540,-8.5 1332,-8.5"/>
<text text-anchor="middle" x="1436" y="-15.5" font-family="Helvetica,sans-Serif" font-size="10.00">command.CommandFactory.checkMake</text>
</a>
</g>
</g>
<!-- Node20&#45;&gt;Node21 -->
<g id="edge20" class="edge"><title>Node20&#45;&gt;Node21</title>
<path fill="none" stroke="midnightblue" d="M1251.51,-64.991C1275.62,-57.7165 1305.25,-49.051 1332,-42 1348.1,-37.7567 1365.72,-33.5083 1381.76,-29.7907"/>
<polygon fill="midnightblue" stroke="midnightblue" points="1382.55,-33.1997 1391.51,-27.5494 1380.98,-26.3774 1382.55,-33.1997"/>
</g>
<!-- Node23 -->
<g id="node23" class="node"><title>Node23</title>
<g id="a_node23"><a xlink:href="../../d9/d1b/classcommand_1_1_command_factory.html#abd97ea3e22afc09e07ed1d4fd039d11f" target="_top" xlink:title="command.CommandFactory.reflectCMD">
<polygon fill="white" stroke="black" points="1332.5,-51.5 1332.5,-70.5 1539.5,-70.5 1539.5,-51.5 1332.5,-51.5"/>
<text text-anchor="middle" x="1436" y="-58.5" font-family="Helvetica,sans-Serif" font-size="10.00">command.CommandFactory.reflectCMD</text>
</a>
</g>
</g>
<!-- Node20&#45;&gt;Node23 -->
<g id="edge22" class="edge"><title>Node20&#45;&gt;Node23</title>
<path fill="none" stroke="midnightblue" d="M1294.69,-72.4907C1303.81,-71.7442 1313.13,-70.9805 1322.43,-70.2192"/>
<polygon fill="midnightblue" stroke="midnightblue" points="1322.81,-73.6997 1332.49,-69.395 1322.24,-66.723 1322.81,-73.6997"/>
</g>
<!-- Node22 -->
<g id="node22" class="node"><title>Node22</title>
<g id="a_node22"><a xlink:href="../../d9/d1b/classcommand_1_1_command_factory.html#a469ad48137c966b10612f72713a295f0" target="_top" xlink:title="command.CommandFactory.add\lVariable">
<polygon fill="white" stroke="black" points="1588.5,-0 1588.5,-30 1761.5,-30 1761.5,-0 1588.5,-0"/>
<text text-anchor="start" x="1596.5" y="-18" font-family="Helvetica,sans-Serif" font-size="10.00">command.CommandFactory.add</text>
<text text-anchor="middle" x="1675" y="-7" font-family="Helvetica,sans-Serif" font-size="10.00">Variable</text>
</a>
</g>
</g>
<!-- Node21&#45;&gt;Node22 -->
<g id="edge21" class="edge"><title>Node21&#45;&gt;Node22</title>
<path fill="none" stroke="midnightblue" d="M1540.26,-16.6929C1552.83,-16.5338 1565.64,-16.3717 1578.1,-16.214"/>
<polygon fill="midnightblue" stroke="midnightblue" points="1578.51,-19.7091 1588.47,-16.0827 1578.42,-12.7097 1578.51,-19.7091"/>
</g>
<!-- Node24 -->
<g id="node24" class="node"><title>Node24</title>
<g id="a_node24"><a xlink:href="../../d9/d1b/classcommand_1_1_command_factory.html#aed43691d920feaca374f4692bd238680" target="_top" xlink:title="command.CommandFactory.make\lParams">
<polygon fill="white" stroke="black" points="1584,-49 1584,-79 1766,-79 1766,-49 1584,-49"/>
<text text-anchor="start" x="1592" y="-67" font-family="Helvetica,sans-Serif" font-size="10.00">command.CommandFactory.make</text>
<text text-anchor="middle" x="1675" y="-56" font-family="Helvetica,sans-Serif" font-size="10.00">Params</text>
</a>
</g>
</g>
<!-- Node23&#45;&gt;Node24 -->
<g id="edge23" class="edge"><title>Node23&#45;&gt;Node24</title>
<path fill="none" stroke="midnightblue" d="M1539.57,-62.2984C1550.88,-62.4415 1562.37,-62.587 1573.65,-62.7297"/>
<polygon fill="midnightblue" stroke="midnightblue" points="1573.88,-66.2329 1583.93,-62.8598 1573.97,-59.2335 1573.88,-66.2329"/>
</g>
<!-- Node25 -->
<g id="node25" class="node"><title>Node25</title>
<g id="a_node25"><a xlink:href="../../d9/d1b/classcommand_1_1_command_factory.html#a3a7f93181d4b08336437520928c5108b" target="_top" xlink:title="command.CommandFactory.add\lParam">
<polygon fill="white" stroke="black" points="1810.5,-49 1810.5,-79 1983.5,-79 1983.5,-49 1810.5,-49"/>
<text text-anchor="start" x="1818.5" y="-67" font-family="Helvetica,sans-Serif" font-size="10.00">command.CommandFactory.add</text>
<text text-anchor="middle" x="1897" y="-56" font-family="Helvetica,sans-Serif" font-size="10.00">Param</text>
</a>
</g>
</g>
<!-- Node24&#45;&gt;Node25 -->
<g id="edge24" class="edge"><title>Node24&#45;&gt;Node25</title>
<path fill="none" stroke="midnightblue" d="M1766.12,-64C1777.29,-64 1788.75,-64 1800.01,-64"/>
<polygon fill="midnightblue" stroke="midnightblue" points="1800.28,-67.5001 1810.28,-64 1800.28,-60.5001 1800.28,-67.5001"/>
</g>
<!-- Node26 -->
<g id="node26" class="node"><title>Node26</title>
<g id="a_node26"><a xlink:href="../../d9/d1b/classcommand_1_1_command_factory.html#aac2ddc62b74ef8c562cb19841b6a21c6" target="_top" xlink:title="command.CommandFactory.is\lVariable">
<polygon fill="white" stroke="black" points="2027,-74 2027,-104 2189,-104 2189,-74 2027,-74"/>
<text text-anchor="start" x="2035" y="-92" font-family="Helvetica,sans-Serif" font-size="10.00">command.CommandFactory.is</text>
<text text-anchor="middle" x="2108" y="-81" font-family="Helvetica,sans-Serif" font-size="10.00">Variable</text>
</a>
</g>
</g>
<!-- Node25&#45;&gt;Node26 -->
<g id="edge25" class="edge"><title>Node25&#45;&gt;Node26</title>
<path fill="none" stroke="midnightblue" d="M1983.61,-74.2406C1994.57,-75.5518 2005.82,-76.8972 2016.85,-78.2167"/>
<polygon fill="midnightblue" stroke="midnightblue" points="2016.56,-81.7068 2026.91,-79.4194 2017.39,-74.7564 2016.56,-81.7068"/>
</g>
<!-- Node27 -->
<g id="node27" class="node"><title>Node27</title>
<g id="a_node27"><a xlink:href="../../d9/d1b/classcommand_1_1_command_factory.html#a4a093c2b17212339a5c43b581f818682" target="_top" xlink:title="command.CommandFactory.read\lVariable">
<polygon fill="white" stroke="black" points="2020,-25 2020,-55 2196,-55 2196,-25 2020,-25"/>
<text text-anchor="start" x="2028" y="-43" font-family="Helvetica,sans-Serif" font-size="10.00">command.CommandFactory.read</text>
<text text-anchor="middle" x="2108" y="-32" font-family="Helvetica,sans-Serif" font-size="10.00">Variable</text>
</a>
</g>
</g>
<!-- Node25&#45;&gt;Node27 -->
<g id="edge26" class="edge"><title>Node25&#45;&gt;Node27</title>
<path fill="none" stroke="midnightblue" d="M1983.61,-54.169C1992.2,-53.1828 2000.96,-52.1763 2009.66,-51.1774"/>
<polygon fill="midnightblue" stroke="midnightblue" points="2010.29,-54.6281 2019.83,-50.0101 2009.49,-47.6738 2010.29,-54.6281"/>
</g>
<!-- Node28&#45;&gt;Node11 -->
<g id="edge31" class="edge"><title>Node28&#45;&gt;Node11</title>
<path fill="none" stroke="midnightblue" d="M1267.78,-277.03C1277.38,-279.94 1287.05,-283.265 1296,-287 1313.09,-294.134 1314.63,-301.557 1332,-308 1342.68,-311.962 1354.3,-315.123 1365.76,-317.638"/>
<polygon fill="midnightblue" stroke="midnightblue" points="1365.27,-321.109 1375.77,-319.685 1366.67,-314.251 1365.27,-321.109"/>
</g>
<!-- Node29 -->
<g id="node29" class="node"><title>Node29</title>
<g id="a_node29"><a xlink:href="../../d3/dcc/classparser_1_1_node.html#aa67bc0d39227232943abec9b95b23235" target="_top" xlink:title="parser.Node.getChild1">
<polygon fill="white" stroke="black" points="1374.5,-241.5 1374.5,-260.5 1497.5,-260.5 1497.5,-241.5 1374.5,-241.5"/>
<text text-anchor="middle" x="1436" y="-248.5" font-family="Helvetica,sans-Serif" font-size="10.00">parser.Node.getChild1</text>
</a>
</g>
</g>
<!-- Node28&#45;&gt;Node29 -->
<g id="edge29" class="edge"><title>Node28&#45;&gt;Node29</title>
<path fill="none" stroke="midnightblue" d="M1290.05,-257.873C1314.46,-256.715 1340.71,-255.471 1364.07,-254.363"/>
<polygon fill="midnightblue" stroke="midnightblue" points="1364.41,-257.851 1374.23,-253.881 1364.08,-250.859 1364.41,-257.851"/>
</g>
<!-- Node30 -->
<g id="node30" class="node"><title>Node30</title>
<g id="a_node30"><a xlink:href="../../d3/dcc/classparser_1_1_node.html#a0f13775acc62af77cdde90dbeaf26bbc" target="_top" xlink:title="parser.Node.getChild2">
<polygon fill="white" stroke="black" points="1374.5,-203.5 1374.5,-222.5 1497.5,-222.5 1497.5,-203.5 1374.5,-203.5"/>
<text text-anchor="middle" x="1436" y="-210.5" font-family="Helvetica,sans-Serif" font-size="10.00">parser.Node.getChild2</text>
</a>
</g>
</g>
<!-- Node28&#45;&gt;Node30 -->
<g id="edge30" class="edge"><title>Node28&#45;&gt;Node30</title>
<path fill="none" stroke="midnightblue" d="M1264.88,-247C1286.11,-242.015 1310.05,-236.574 1332,-232 1344.43,-229.409 1357.74,-226.818 1370.53,-224.42"/>
<polygon fill="midnightblue" stroke="midnightblue" points="1371.46,-227.808 1380.65,-222.541 1370.18,-220.926 1371.46,-227.808"/>
</g>
<!-- Node31 -->
<g id="node31" class="node"><title>Node31</title>
<g id="a_node31"><a xlink:href="../../d3/dcc/classparser_1_1_node.html#a6bbc0c61aaa261077eb87cfc4e2b45dc" target="_top" xlink:title="parser.Node.numChildren">
<polygon fill="white" stroke="black" points="1366.5,-279.5 1366.5,-298.5 1505.5,-298.5 1505.5,-279.5 1366.5,-279.5"/>
<text text-anchor="middle" x="1436" y="-286.5" font-family="Helvetica,sans-Serif" font-size="10.00">parser.Node.numChildren</text>
</a>
</g>
</g>
<!-- Node28&#45;&gt;Node31 -->
<g id="edge32" class="edge"><title>Node28&#45;&gt;Node31</title>
<path fill="none" stroke="midnightblue" d="M1290.05,-272.131C1311.8,-274.663 1335.01,-277.363 1356.33,-279.845"/>
<polygon fill="midnightblue" stroke="midnightblue" points="1355.97,-283.326 1366.31,-281.006 1356.78,-276.373 1355.97,-283.326"/>
</g>
<!-- Node32&#45;&gt;Node29 -->
<g id="edge34" class="edge"><title>Node32&#45;&gt;Node29</title>
<path fill="none" stroke="midnightblue" d="M1278.85,-179.146C1284.86,-181.658 1290.66,-184.587 1296,-188 1317.29,-201.61 1310.25,-219.145 1332,-232 1341.87,-237.831 1353.12,-241.943 1364.48,-244.828"/>
<polygon fill="midnightblue" stroke="midnightblue" points="1363.93,-248.292 1374.46,-247.06 1365.46,-241.461 1363.93,-248.292"/>
</g>
<!-- Node32&#45;&gt;Node30 -->
<g id="edge35" class="edge"><title>Node32&#45;&gt;Node30</title>
<path fill="none" stroke="midnightblue" d="M1264.88,-179C1286.11,-183.985 1310.05,-189.426 1332,-194 1344.43,-196.591 1357.74,-199.182 1370.53,-201.58"/>
<polygon fill="midnightblue" stroke="midnightblue" points="1370.18,-205.074 1380.65,-203.459 1371.46,-198.192 1370.18,-205.074"/>
</g>
<!-- Node33 -->
<g id="node33" class="node"><title>Node33</title>
<g id="a_node33"><a xlink:href="../../d3/dcc/classparser_1_1_node.html#ab14db24c0724dec4387e29d513008e2e" target="_top" xlink:title="parser.Node.hasChildren">
<polygon fill="white" stroke="black" points="1369,-165.5 1369,-184.5 1503,-184.5 1503,-165.5 1369,-165.5"/>
<text text-anchor="middle" x="1436" y="-172.5" font-family="Helvetica,sans-Serif" font-size="10.00">parser.Node.hasChildren</text>
</a>
</g>
</g>
<!-- Node32&#45;&gt;Node33 -->
<g id="edge36" class="edge"><title>Node32&#45;&gt;Node33</title>
<path fill="none" stroke="midnightblue" d="M1279.61,-167.632C1305.01,-168.837 1333.28,-170.177 1358.66,-171.381"/>
<polygon fill="midnightblue" stroke="midnightblue" points="1358.82,-174.892 1368.98,-171.87 1359.15,-167.9 1358.82,-174.892"/>
</g>
<!-- Node34 -->
<g id="node34" class="node"><title>Node34</title>
<g id="a_node34"><a xlink:href="../../d3/dcc/classparser_1_1_node.html#aa92667a825777b3d757bc3b1a247ac20" target="_top" xlink:title="parser.Node.isLeaf">
<polygon fill="white" stroke="black" points="1383,-127.5 1383,-146.5 1489,-146.5 1489,-127.5 1383,-127.5"/>
<text text-anchor="middle" x="1436" y="-134.5" font-family="Helvetica,sans-Serif" font-size="10.00">parser.Node.isLeaf</text>
</a>
</g>
</g>
<!-- Node32&#45;&gt;Node34 -->
<g id="edge37" class="edge"><title>Node32&#45;&gt;Node34</title>
<path fill="none" stroke="midnightblue" d="M1279.61,-155.084C1309.7,-151.582 1343.81,-147.613 1372.38,-144.287"/>
<polygon fill="midnightblue" stroke="midnightblue" points="1373.12,-147.726 1382.65,-143.093 1372.31,-140.773 1373.12,-147.726"/>
</g>
<!-- Node35&#45;&gt;Node29 -->
<g id="edge39" class="edge"><title>Node35&#45;&gt;Node29</title>
<path fill="none" stroke="midnightblue" d="M1271.04,-224.144C1301.19,-229.083 1336.59,-234.881 1366.76,-239.823"/>
<polygon fill="midnightblue" stroke="midnightblue" points="1366.35,-243.302 1376.78,-241.464 1367.48,-236.394 1366.35,-243.302"/>
</g>
<!-- Node35&#45;&gt;Node30 -->
<g id="edge40" class="edge"><title>Node35&#45;&gt;Node30</title>
<path fill="none" stroke="midnightblue" d="M1271.04,-213C1300.34,-213 1334.6,-213 1364.2,-213"/>
<polygon fill="midnightblue" stroke="midnightblue" points="1364.46,-216.5 1374.46,-213 1364.46,-209.5 1364.46,-216.5"/>
</g>
<!-- Node35&#45;&gt;Node33 -->
<g id="edge41" class="edge"><title>Node35&#45;&gt;Node33</title>
<path fill="none" stroke="midnightblue" d="M1271.04,-201.856C1301.19,-196.917 1336.59,-191.119 1366.76,-186.177"/>
<polygon fill="midnightblue" stroke="midnightblue" points="1367.48,-189.606 1376.78,-184.536 1366.35,-182.698 1367.48,-189.606"/>
</g>
<!-- Node35&#45;&gt;Node34 -->
<g id="edge42" class="edge"><title>Node35&#45;&gt;Node34</title>
<path fill="none" stroke="midnightblue" d="M1271.47,-198.538C1279.97,-195.609 1288.35,-192.127 1296,-188 1314.84,-177.838 1312.77,-165.399 1332,-156 1344.62,-149.833 1359,-145.658 1372.94,-142.834"/>
<polygon fill="midnightblue" stroke="midnightblue" points="1373.76,-146.242 1382.97,-141.007 1372.5,-139.355 1373.76,-146.242"/>
</g>
<!-- Node36&#45;&gt;Node11 -->
<g id="edge44" class="edge"><title>Node36&#45;&gt;Node11</title>
<path fill="none" stroke="midnightblue" d="M1266.09,-311.711C1296.96,-314.505 1334.2,-317.876 1365.85,-320.741"/>
<polygon fill="midnightblue" stroke="midnightblue" points="1365.64,-324.236 1375.91,-321.652 1366.27,-317.264 1365.64,-324.236"/>
</g>
<!-- Node43 -->
<g id="node43" class="node"><title>Node43</title>
<g id="a_node43"><a xlink:href="../../d9/d1b/classcommand_1_1_command_factory.html#ad885534ec7b5c00d2b33c9e83f1f9b6f" target="_top" xlink:title="command.CommandFactory.update\lVariable">
<polygon fill="white" stroke="black" points="1108,-499 1108,-529 1296,-529 1296,-499 1108,-499"/>
<text text-anchor="start" x="1116" y="-517" font-family="Helvetica,sans-Serif" font-size="10.00">command.CommandFactory.update</text>
<text text-anchor="middle" x="1202" y="-506" font-family="Helvetica,sans-Serif" font-size="10.00">Variable</text>
</a>
</g>
</g>
<!-- Node42&#45;&gt;Node43 -->
<g id="edge52" class="edge"><title>Node42&#45;&gt;Node43</title>
<path fill="none" stroke="midnightblue" d="M1049.24,-510.006C1064.78,-510.415 1081.38,-510.852 1097.69,-511.281"/>
<polygon fill="midnightblue" stroke="midnightblue" points="1097.7,-514.783 1107.79,-511.547 1097.89,-507.785 1097.7,-514.783"/>
</g>
<!-- Node46 -->
<g id="node46" class="node"><title>Node46</title>
<g id="a_node46"><a xlink:href="../../d7/d35/classcommand_1_1_command.html#a1de2ff02a0e6aa6553a129f9b14e6bb3" target="_top" xlink:title="command.Command.run">
<polygon fill="white" stroke="black" points="1133.5,-460.5 1133.5,-479.5 1270.5,-479.5 1270.5,-460.5 1133.5,-460.5"/>
<text text-anchor="middle" x="1202" y="-467.5" font-family="Helvetica,sans-Serif" font-size="10.00">command.Command.run</text>
</a>
</g>
</g>
<!-- Node45&#45;&gt;Node46 -->
<g id="edge55" class="edge"><title>Node45&#45;&gt;Node46</title>
<path fill="none" stroke="midnightblue" d="M1016.69,-439.282C1049.81,-444.801 1095.91,-452.485 1133.72,-458.787"/>
<polygon fill="midnightblue" stroke="midnightblue" points="1133.21,-462.249 1143.64,-460.441 1134.36,-455.344 1133.21,-462.249"/>
</g>
<!-- Node48 -->
<g id="node48" class="node"><title>Node48</title>
<g id="a_node48"><a xlink:href="../../d9/d1b/classcommand_1_1_command_factory.html#a0d59e4f0f925b5046957c0e054ce8bef" target="_top" xlink:title="command.CommandFactory.reset\lRepcount">
<polygon fill="white" stroke="black" points="1112.5,-411 1112.5,-441 1291.5,-441 1291.5,-411 1112.5,-411"/>
<text text-anchor="start" x="1120.5" y="-429" font-family="Helvetica,sans-Serif" font-size="10.00">command.CommandFactory.reset</text>
<text text-anchor="middle" x="1202" y="-418" font-family="Helvetica,sans-Serif" font-size="10.00">Repcount</text>
</a>
</g>
</g>
<!-- Node47&#45;&gt;Node48 -->
<g id="edge57" class="edge"><title>Node47&#45;&gt;Node48</title>
<path fill="none" stroke="midnightblue" d="M1040.79,-403.514C1060.08,-406.222 1081.49,-409.227 1102.23,-412.137"/>
<polygon fill="midnightblue" stroke="midnightblue" points="1101.95,-415.632 1112.34,-413.556 1102.92,-408.7 1101.95,-415.632"/>
</g>
</g>
</svg>
