<?xml version="1.0" encoding="UTF-8" standalone="no"?>
<!DOCTYPE svg PUBLIC "-//W3C//DTD SVG 1.1//EN"
 "http://www.w3.org/Graphics/SVG/1.1/DTD/svg11.dtd">
<!-- Generated by graphviz version 2.36.0 (20140111.2315)
 -->
<!-- Title: parser.Parser.makeTree Pages: 1 -->
<svg width="600pt" height="175pt"
 viewBox="0.00 0.00 600.00 175.00" xmlns="http://www.w3.org/2000/svg" xmlns:xlink="http://www.w3.org/1999/xlink">
<g id="graph0" class="graph" transform="scale(1 1) rotate(0) translate(4 171)">
<title>parser.Parser.makeTree</title>
<polygon fill="white" stroke="none" points="-4,4 -4,-171 596,-171 596,4 -4,4"/>
<!-- Node1 -->
<g id="node1" class="node"><title>Node1</title>
<polygon fill="#bfbfbf" stroke="black" points="0,-95.5 0,-114.5 128,-114.5 128,-95.5 0,-95.5"/>
<text text-anchor="middle" x="64" y="-102.5" font-family="Helvetica,sans-Serif" font-size="10.00">parser.Parser.makeTree</text>
</g>
<!-- Node2 -->
<g id="node2" class="node"><title>Node2</title>
<g id="a_node2"><a xlink:href="../../d9/d1b/classcommand_1_1_command_factory.html#a87bf7e648425bb22124367cabedb3327" target="_top" xlink:title="command.CommandFactory.get\lNumParameters">
<polygon fill="white" stroke="black" points="176,-126 176,-156 346,-156 346,-126 176,-126"/>
<text text-anchor="start" x="184" y="-144" font-family="Helvetica,sans-Serif" font-size="10.00">command.CommandFactory.get</text>
<text text-anchor="middle" x="261" y="-133" font-family="Helvetica,sans-Serif" font-size="10.00">NumParameters</text>
</a>
</g>
</g>
<!-- Node1&#45;&gt;Node2 -->
<g id="edge1" class="edge"><title>Node1&#45;&gt;Node2</title>
<path fill="none" stroke="midnightblue" d="M116.489,-114.506C132.579,-117.476 150.838,-120.847 168.81,-124.165"/>
<polygon fill="midnightblue" stroke="midnightblue" points="168.28,-127.626 178.749,-126 169.551,-120.742 168.28,-127.626"/>
</g>
<!-- Node4 -->
<g id="node4" class="node"><title>Node4</title>
<g id="a_node4"><a xlink:href="../../d9/d1b/classcommand_1_1_command_factory.html#a0fca3b89ecf4ce07546cd4dc0f3820ea" target="_top" xlink:title="command.CommandFactory.initialize\lLoopVariables">
<polygon fill="white" stroke="black" points="164.5,-55 164.5,-85 357.5,-85 357.5,-55 164.5,-55"/>
<text text-anchor="start" x="172.5" y="-73" font-family="Helvetica,sans-Serif" font-size="10.00">command.CommandFactory.initialize</text>
<text text-anchor="middle" x="261" y="-62" font-family="Helvetica,sans-Serif" font-size="10.00">LoopVariables</text>
</a>
</g>
</g>
<!-- Node1&#45;&gt;Node4 -->
<g id="edge3" class="edge"><title>Node1&#45;&gt;Node4</title>
<path fill="none" stroke="midnightblue" d="M118.027,-95.4823C132.877,-92.817 149.479,-89.8372 165.949,-86.881"/>
<polygon fill="midnightblue" stroke="midnightblue" points="166.946,-90.258 176.17,-85.0464 165.709,-83.3681 166.946,-90.258"/>
</g>
<!-- Node3 -->
<g id="node3" class="node"><title>Node3</title>
<g id="a_node3"><a xlink:href="../../d9/d1b/classcommand_1_1_command_factory.html#a947fdc151e857ea74564d0d1fe268246" target="_top" xlink:title="command.CommandFactory.translate\lCommand">
<polygon fill="white" stroke="black" points="394.5,-137 394.5,-167 591.5,-167 591.5,-137 394.5,-137"/>
<text text-anchor="start" x="402.5" y="-155" font-family="Helvetica,sans-Serif" font-size="10.00">command.CommandFactory.translate</text>
<text text-anchor="middle" x="493" y="-144" font-family="Helvetica,sans-Serif" font-size="10.00">Command</text>
</a>
</g>
</g>
<!-- Node2&#45;&gt;Node3 -->
<g id="edge2" class="edge"><title>Node2&#45;&gt;Node3</title>
<path fill="none" stroke="midnightblue" d="M346.012,-145.018C358.365,-145.609 371.234,-146.224 383.988,-146.834"/>
<polygon fill="midnightblue" stroke="midnightblue" points="384.023,-150.34 394.179,-147.322 384.358,-143.348 384.023,-150.34"/>
</g>
<!-- Node5 -->
<g id="node5" class="node"><title>Node5</title>
<g id="a_node5"><a xlink:href="../../d9/d1b/classcommand_1_1_command_factory.html#a8227888e11d7f80629e7d855aa7894a8" target="_top" xlink:title="command.CommandFactory.check\lDotimes">
<polygon fill="white" stroke="black" points="402,-88 402,-118 584,-118 584,-88 402,-88"/>
<text text-anchor="start" x="410" y="-106" font-family="Helvetica,sans-Serif" font-size="10.00">command.CommandFactory.check</text>
<text text-anchor="middle" x="493" y="-95" font-family="Helvetica,sans-Serif" font-size="10.00">Dotimes</text>
</a>
</g>
</g>
<!-- Node4&#45;&gt;Node5 -->
<g id="edge4" class="edge"><title>Node4&#45;&gt;Node5</title>
<path fill="none" stroke="midnightblue" d="M357.543,-83.7083C368.902,-85.3381 380.523,-87.0054 391.943,-88.644"/>
<polygon fill="midnightblue" stroke="midnightblue" points="391.521,-92.1192 401.917,-90.075 392.515,-85.1901 391.521,-92.1192"/>
</g>
<!-- Node6 -->
<g id="node6" class="node"><title>Node6</title>
<g id="a_node6"><a xlink:href="../../d9/d1b/classcommand_1_1_command_factory.html#a5f698c7496a9d533d6350fac6c3ee567" target="_top" xlink:title="command.CommandFactory.checkFor">
<polygon fill="white" stroke="black" points="394.5,-49.5 394.5,-68.5 591.5,-68.5 591.5,-49.5 394.5,-49.5"/>
<text text-anchor="middle" x="493" y="-56.5" font-family="Helvetica,sans-Serif" font-size="10.00">command.CommandFactory.checkFor</text>
</a>
</g>
</g>
<!-- Node4&#45;&gt;Node6 -->
<g id="edge5" class="edge"><title>Node4&#45;&gt;Node6</title>
<path fill="none" stroke="midnightblue" d="M357.543,-65.4306C366.331,-65.0103 375.275,-64.5825 384.162,-64.1575"/>
<polygon fill="midnightblue" stroke="midnightblue" points="384.338,-67.6531 394.16,-63.6793 384.004,-60.6611 384.338,-67.6531"/>
</g>
<!-- Node7 -->
<g id="node7" class="node"><title>Node7</title>
<g id="a_node7"><a xlink:href="../../d9/d1b/classcommand_1_1_command_factory.html#afb06a581338dad8003d851d2d490fc5e" target="_top" xlink:title="command.CommandFactory.check\lRepeat">
<polygon fill="white" stroke="black" points="402,-0 402,-30 584,-30 584,-0 402,-0"/>
<text text-anchor="start" x="410" y="-18" font-family="Helvetica,sans-Serif" font-size="10.00">command.CommandFactory.check</text>
<text text-anchor="middle" x="493" y="-7" font-family="Helvetica,sans-Serif" font-size="10.00">Repeat</text>
</a>
</g>
</g>
<!-- Node4&#45;&gt;Node7 -->
<g id="edge6" class="edge"><title>Node4&#45;&gt;Node7</title>
<path fill="none" stroke="midnightblue" d="M324.849,-54.971C354.006,-47.9986 388.838,-39.6693 419.14,-32.4231"/>
<polygon fill="midnightblue" stroke="midnightblue" points="420.316,-35.7407 429.227,-30.0108 418.688,-28.9326 420.316,-35.7407"/>
</g>
</g>
</svg>
