<?xml version="1.0" encoding="UTF-8" standalone="no"?>
<!DOCTYPE svg PUBLIC "-//W3C//DTD SVG 1.1//EN"
 "http://www.w3.org/Graphics/SVG/1.1/DTD/svg11.dtd">
<!-- Generated by graphviz version 2.36.0 (20140111.2315)
 -->
<!-- Title: parser.Parser.parse Pages: 1 -->
<svg width="818pt" height="320pt"
 viewBox="0.00 0.00 818.00 320.46" xmlns="http://www.w3.org/2000/svg" xmlns:xlink="http://www.w3.org/1999/xlink">
<g id="graph0" class="graph" transform="scale(1 1) rotate(0) translate(4 316.458)">
<title>parser.Parser.parse</title>
<polygon fill="white" stroke="none" points="-4,4 -4,-316.458 814,-316.458 814,4 -4,4"/>
<!-- Node1 -->
<g id="node1" class="node"><title>Node1</title>
<polygon fill="#bfbfbf" stroke="black" points="0.5,-144.5 0.5,-163.5 109.5,-163.5 109.5,-144.5 0.5,-144.5"/>
<text text-anchor="middle" x="55" y="-151.5" font-family="Helvetica,sans-Serif" font-size="10.00">parser.Parser.parse</text>
</g>
<!-- Node2 -->
<g id="node2" class="node"><title>Node2</title>
<g id="a_node2"><a xlink:href="../../d9/d1b/classcommand_1_1_command_factory.html#ab25bb047b051661d31adf73b2dae5649" target="_top" xlink:title="command.CommandFactory.create\lCommand">
<polygon fill="white" stroke="black" points="146.5,-273 146.5,-303 331.5,-303 331.5,-273 146.5,-273"/>
<text text-anchor="start" x="154.5" y="-291" font-family="Helvetica,sans-Serif" font-size="10.00">command.CommandFactory.create</text>
<text text-anchor="middle" x="239" y="-280" font-family="Helvetica,sans-Serif" font-size="10.00">Command</text>
</a>
</g>
</g>
<!-- Node1&#45;&gt;Node2 -->
<g id="edge1" class="edge"><title>Node1&#45;&gt;Node2</title>
<path fill="none" stroke="midnightblue" d="M62.2261,-163.8C75.3577,-183.725 107.843,-229.249 146,-255 154.123,-260.482 163.262,-265.17 172.547,-269.143"/>
<polygon fill="midnightblue" stroke="midnightblue" points="171.264,-272.399 181.848,-272.881 173.874,-265.904 171.264,-272.399"/>
</g>
<!-- Node5 -->
<g id="node5" class="node"><title>Node5</title>
<g id="a_node5"><a xlink:href="../../d6/d95/classparser_1_1_parser.html#aac1cff62f68138c7e977a67d39671701" target="_top" xlink:title="parser.Parser.generateCommand\lInput">
<polygon fill="white" stroke="black" points="151,-66 151,-96 327,-96 327,-66 151,-66"/>
<text text-anchor="start" x="159" y="-84" font-family="Helvetica,sans-Serif" font-size="10.00">parser.Parser.generateCommand</text>
<text text-anchor="middle" x="239" y="-73" font-family="Helvetica,sans-Serif" font-size="10.00">Input</text>
</a>
</g>
</g>
<!-- Node1&#45;&gt;Node5 -->
<g id="edge4" class="edge"><title>Node1&#45;&gt;Node5</title>
<path fill="none" stroke="midnightblue" d="M71.0532,-144.315C88.492,-133.455 118.375,-115.934 146,-105 151.18,-102.95 156.593,-101.023 162.088,-99.2227"/>
<polygon fill="midnightblue" stroke="midnightblue" points="163.531,-102.439 172.035,-96.1196 161.446,-95.7568 163.531,-102.439"/>
</g>
<!-- Node10 -->
<g id="node10" class="node"><title>Node10</title>
<g id="a_node10"><a xlink:href="../../d6/d95/classparser_1_1_parser.html#a3efcd1192e76101919526b4a5e0046f4" target="_top" xlink:title="parser.Parser.getNodeBefore\lToReplace">
<polygon fill="white" stroke="black" points="161.5,-115 161.5,-145 316.5,-145 316.5,-115 161.5,-115"/>
<text text-anchor="start" x="169.5" y="-133" font-family="Helvetica,sans-Serif" font-size="10.00">parser.Parser.getNodeBefore</text>
<text text-anchor="middle" x="239" y="-122" font-family="Helvetica,sans-Serif" font-size="10.00">ToReplace</text>
</a>
</g>
</g>
<!-- Node1&#45;&gt;Node10 -->
<g id="edge9" class="edge"><title>Node1&#45;&gt;Node10</title>
<path fill="none" stroke="midnightblue" d="M109.622,-146.929C122.7,-145.204 137.025,-143.315 151.213,-141.445"/>
<polygon fill="midnightblue" stroke="midnightblue" points="152.043,-144.865 161.5,-140.088 151.128,-137.925 152.043,-144.865"/>
</g>
<!-- Node13 -->
<g id="node13" class="node"><title>Node13</title>
<g id="a_node13"><a xlink:href="../../d6/d95/classparser_1_1_parser.html#a447c473b62ba23b7c144df9bb38a9a41" target="_top" xlink:title="parser.Parser.getNodeFor\lCommand">
<polygon fill="white" stroke="black" points="170,-164 170,-194 308,-194 308,-164 170,-164"/>
<text text-anchor="start" x="178" y="-182" font-family="Helvetica,sans-Serif" font-size="10.00">parser.Parser.getNodeFor</text>
<text text-anchor="middle" x="239" y="-171" font-family="Helvetica,sans-Serif" font-size="10.00">Command</text>
</a>
</g>
</g>
<!-- Node1&#45;&gt;Node13 -->
<g id="edge15" class="edge"><title>Node1&#45;&gt;Node13</title>
<path fill="none" stroke="midnightblue" d="M109.622,-161.366C125.252,-163.513 142.662,-165.904 159.491,-168.216"/>
<polygon fill="midnightblue" stroke="midnightblue" points="159.491,-171.749 169.874,-169.642 160.443,-164.814 159.491,-171.749"/>
</g>
<!-- Node14 -->
<g id="node14" class="node"><title>Node14</title>
<g id="a_node14"><a xlink:href="../../d3/dcc/classparser_1_1_node.html#a066da2b478008f39a02440d7afceb9ee" target="_top" xlink:title="parser.Node.insertChild">
<polygon fill="white" stroke="black" points="175,-27.5 175,-46.5 303,-46.5 303,-27.5 175,-27.5"/>
<text text-anchor="middle" x="239" y="-34.5" font-family="Helvetica,sans-Serif" font-size="10.00">parser.Node.insertChild</text>
</a>
</g>
</g>
<!-- Node1&#45;&gt;Node14 -->
<g id="edge20" class="edge"><title>Node1&#45;&gt;Node14</title>
<path fill="none" stroke="midnightblue" d="M61.8297,-144.36C74.4569,-124.379 106.413,-78.4452 146,-56 151.91,-52.6491 158.333,-49.8857 164.944,-47.6072"/>
<polygon fill="midnightblue" stroke="midnightblue" points="166.196,-50.8841 174.729,-44.6041 164.143,-44.1922 166.196,-50.8841"/>
</g>
<!-- Node15 -->
<g id="node15" class="node"><title>Node15</title>
<g id="a_node15"><a xlink:href="../../d6/d95/classparser_1_1_parser.html#a4f582c65390bddc57219c0b5c31ef5e7" target="_top" xlink:title="parser.Parser.makeTree">
<polygon fill="white" stroke="black" points="175,-226.5 175,-245.5 303,-245.5 303,-226.5 175,-226.5"/>
<text text-anchor="middle" x="239" y="-233.5" font-family="Helvetica,sans-Serif" font-size="10.00">parser.Parser.makeTree</text>
</a>
</g>
</g>
<!-- Node1&#45;&gt;Node15 -->
<g id="edge22" class="edge"><title>Node1&#45;&gt;Node15</title>
<path fill="none" stroke="midnightblue" d="M71.878,-163.62C89.5693,-174.106 119.214,-190.991 146,-203 162.669,-210.474 181.588,-217.497 197.917,-223.128"/>
<polygon fill="midnightblue" stroke="midnightblue" points="197.112,-226.551 207.706,-226.445 199.359,-219.921 197.112,-226.551"/>
</g>
<!-- Node3 -->
<g id="node3" class="node"><title>Node3</title>
<g id="a_node3"><a xlink:href="../../d9/d1b/classcommand_1_1_command_factory.html#abd97ea3e22afc09e07ed1d4fd039d11f" target="_top" xlink:title="command.CommandFactory.reflectCMD">
<polygon fill="white" stroke="black" points="368.5,-278.5 368.5,-297.5 575.5,-297.5 575.5,-278.5 368.5,-278.5"/>
<text text-anchor="middle" x="472" y="-285.5" font-family="Helvetica,sans-Serif" font-size="10.00">command.CommandFactory.reflectCMD</text>
</a>
</g>
</g>
<!-- Node2&#45;&gt;Node3 -->
<g id="edge2" class="edge"><title>Node2&#45;&gt;Node3</title>
<path fill="none" stroke="midnightblue" d="M331.629,-288C340.415,-288 349.394,-288 358.35,-288"/>
<polygon fill="midnightblue" stroke="midnightblue" points="358.44,-291.5 368.44,-288 358.44,-284.5 358.44,-291.5"/>
</g>
<!-- Node4 -->
<g id="node4" class="node"><title>Node4</title>
<g id="a_node4"><a xlink:href="../../d9/d1b/classcommand_1_1_command_factory.html#a947fdc151e857ea74564d0d1fe268246" target="_top" xlink:title="command.CommandFactory.translate\lCommand">
<polygon fill="white" stroke="black" points="612.5,-270 612.5,-300 809.5,-300 809.5,-270 612.5,-270"/>
<text text-anchor="start" x="620.5" y="-288" font-family="Helvetica,sans-Serif" font-size="10.00">command.CommandFactory.translate</text>
<text text-anchor="middle" x="711" y="-277" font-family="Helvetica,sans-Serif" font-size="10.00">Command</text>
</a>
</g>
</g>
<!-- Node2&#45;&gt;Node4 -->
<g id="edge3" class="edge"><title>Node2&#45;&gt;Node4</title>
<path fill="none" stroke="midnightblue" d="M329.678,-303.019C342.506,-304.669 355.565,-306.082 368,-307 460.194,-313.805 483.861,-314.513 576,-307 590.938,-305.782 606.721,-303.812 622.008,-301.539"/>
<polygon fill="midnightblue" stroke="midnightblue" points="622.616,-304.986 631.967,-300.006 621.551,-298.068 622.616,-304.986"/>
</g>
<!-- Node6 -->
<g id="node6" class="node"><title>Node6</title>
<g id="a_node6"><a xlink:href="../../d3/dcc/classparser_1_1_node.html#aa67bc0d39227232943abec9b95b23235" target="_top" xlink:title="parser.Node.getChild1">
<polygon fill="white" stroke="black" points="410.5,-76.5 410.5,-95.5 533.5,-95.5 533.5,-76.5 410.5,-76.5"/>
<text text-anchor="middle" x="472" y="-83.5" font-family="Helvetica,sans-Serif" font-size="10.00">parser.Node.getChild1</text>
</a>
</g>
</g>
<!-- Node5&#45;&gt;Node6 -->
<g id="edge5" class="edge"><title>Node5&#45;&gt;Node6</title>
<path fill="none" stroke="midnightblue" d="M327.002,-82.8832C351.177,-83.4064 377.13,-83.9682 400.251,-84.4686"/>
<polygon fill="midnightblue" stroke="midnightblue" points="400.242,-87.9692 410.315,-84.6865 400.393,-80.9708 400.242,-87.9692"/>
</g>
<!-- Node7 -->
<g id="node7" class="node"><title>Node7</title>
<g id="a_node7"><a xlink:href="../../d3/dcc/classparser_1_1_node.html#a0f13775acc62af77cdde90dbeaf26bbc" target="_top" xlink:title="parser.Node.getChild2">
<polygon fill="white" stroke="black" points="410.5,-114.5 410.5,-133.5 533.5,-133.5 533.5,-114.5 410.5,-114.5"/>
<text text-anchor="middle" x="472" y="-121.5" font-family="Helvetica,sans-Serif" font-size="10.00">parser.Node.getChild2</text>
</a>
</g>
</g>
<!-- Node5&#45;&gt;Node7 -->
<g id="edge6" class="edge"><title>Node5&#45;&gt;Node7</title>
<path fill="none" stroke="midnightblue" d="M319.881,-96.0151C335.819,-99.0004 352.44,-102.106 368,-105 381.249,-107.464 395.458,-110.094 408.963,-112.587"/>
<polygon fill="midnightblue" stroke="midnightblue" points="408.655,-116.089 419.124,-114.461 409.925,-109.205 408.655,-116.089"/>
</g>
<!-- Node8 -->
<g id="node8" class="node"><title>Node8</title>
<g id="a_node8"><a xlink:href="../../d3/dcc/classparser_1_1_node.html#a9c12e8d4375a7517eae0a35724b253c4" target="_top" xlink:title="parser.Node.getValue">
<polygon fill="white" stroke="black" points="412,-38.5 412,-57.5 532,-57.5 532,-38.5 412,-38.5"/>
<text text-anchor="middle" x="472" y="-45.5" font-family="Helvetica,sans-Serif" font-size="10.00">parser.Node.getValue</text>
</a>
</g>
</g>
<!-- Node5&#45;&gt;Node8 -->
<g id="edge7" class="edge"><title>Node5&#45;&gt;Node8</title>
<path fill="none" stroke="midnightblue" d="M327.002,-68.5711C351.623,-65.0539 378.087,-61.2733 401.527,-57.9247"/>
<polygon fill="midnightblue" stroke="midnightblue" points="402.314,-61.3479 411.719,-56.4688 401.324,-54.4182 402.314,-61.3479"/>
</g>
<!-- Node9 -->
<g id="node9" class="node"><title>Node9</title>
<g id="a_node9"><a xlink:href="../../d3/dcc/classparser_1_1_node.html#a6bbc0c61aaa261077eb87cfc4e2b45dc" target="_top" xlink:title="parser.Node.numChildren">
<polygon fill="white" stroke="black" points="402.5,-0.5 402.5,-19.5 541.5,-19.5 541.5,-0.5 402.5,-0.5"/>
<text text-anchor="middle" x="472" y="-7.5" font-family="Helvetica,sans-Serif" font-size="10.00">parser.Node.numChildren</text>
</a>
</g>
</g>
<!-- Node5&#45;&gt;Node9 -->
<g id="edge8" class="edge"><title>Node5&#45;&gt;Node9</title>
<path fill="none" stroke="midnightblue" d="M307.422,-65.8723C315.879,-63.0524 324.267,-59.7778 332,-56 349.97,-47.2212 349.681,-37.0264 368,-29 375.721,-25.6169 384.024,-22.8361 392.444,-20.5503"/>
<polygon fill="midnightblue" stroke="midnightblue" points="393.493,-23.8959 402.354,-18.0879 391.805,-17.1025 393.493,-23.8959"/>
</g>
<!-- Node10&#45;&gt;Node6 -->
<g id="edge10" class="edge"><title>Node10&#45;&gt;Node6</title>
<path fill="none" stroke="midnightblue" d="M316.119,-114.997C333.184,-111.672 351.205,-108.189 368,-105 381.168,-102.5 395.292,-99.8639 408.73,-97.3781"/>
<polygon fill="midnightblue" stroke="midnightblue" points="409.647,-100.768 418.846,-95.5111 408.377,-93.8844 409.647,-100.768"/>
</g>
<!-- Node10&#45;&gt;Node7 -->
<g id="edge11" class="edge"><title>Node10&#45;&gt;Node7</title>
<path fill="none" stroke="midnightblue" d="M316.599,-128.01C343.497,-127.312 373.583,-126.53 400.001,-125.844"/>
<polygon fill="midnightblue" stroke="midnightblue" points="400.406,-129.335 410.312,-125.576 400.225,-122.337 400.406,-129.335"/>
</g>
<!-- Node10&#45;&gt;Node8 -->
<g id="edge12" class="edge"><title>Node10&#45;&gt;Node8</title>
<path fill="none" stroke="midnightblue" d="M311.443,-114.835C318.619,-112.073 325.607,-108.822 332,-105 351.968,-93.0614 347.555,-78.1008 368,-67 378.425,-61.34 390.224,-57.3308 402.022,-54.4986"/>
<polygon fill="midnightblue" stroke="midnightblue" points="402.854,-57.8999 411.901,-52.3861 401.39,-51.0547 402.854,-57.8999"/>
</g>
<!-- Node11 -->
<g id="node11" class="node"><title>Node11</title>
<g id="a_node11"><a xlink:href="../../d3/dcc/classparser_1_1_node.html#ab14db24c0724dec4387e29d513008e2e" target="_top" xlink:title="parser.Node.hasChildren">
<polygon fill="white" stroke="black" points="405,-152.5 405,-171.5 539,-171.5 539,-152.5 405,-152.5"/>
<text text-anchor="middle" x="472" y="-159.5" font-family="Helvetica,sans-Serif" font-size="10.00">parser.Node.hasChildren</text>
</a>
</g>
</g>
<!-- Node10&#45;&gt;Node11 -->
<g id="edge13" class="edge"><title>Node10&#45;&gt;Node11</title>
<path fill="none" stroke="midnightblue" d="M316.599,-140.611C341.647,-144.081 369.458,-147.934 394.499,-151.402"/>
<polygon fill="midnightblue" stroke="midnightblue" points="394.291,-154.907 404.677,-152.812 395.252,-147.973 394.291,-154.907"/>
</g>
<!-- Node12 -->
<g id="node12" class="node"><title>Node12</title>
<g id="a_node12"><a xlink:href="../../d3/dcc/classparser_1_1_node.html#aa92667a825777b3d757bc3b1a247ac20" target="_top" xlink:title="parser.Node.isLeaf">
<polygon fill="white" stroke="black" points="419,-190.5 419,-209.5 525,-209.5 525,-190.5 419,-190.5"/>
<text text-anchor="middle" x="472" y="-197.5" font-family="Helvetica,sans-Serif" font-size="10.00">parser.Node.isLeaf</text>
</a>
</g>
</g>
<!-- Node10&#45;&gt;Node12 -->
<g id="edge14" class="edge"><title>Node10&#45;&gt;Node12</title>
<path fill="none" stroke="midnightblue" d="M309.863,-145.132C317.489,-147.689 325.012,-150.63 332,-154 350.015,-162.687 349.681,-172.974 368,-181 380.732,-186.579 395.045,-190.52 408.859,-193.304"/>
<polygon fill="midnightblue" stroke="midnightblue" points="408.331,-196.765 418.8,-195.134 409.598,-189.881 408.331,-196.765"/>
</g>
<!-- Node13&#45;&gt;Node6 -->
<g id="edge16" class="edge"><title>Node13&#45;&gt;Node6</title>
<path fill="none" stroke="midnightblue" d="M308.157,-166.132C316.584,-162.941 324.766,-158.962 332,-154 354.284,-138.714 345.101,-119.35 368,-105 377.772,-98.8762 389.024,-94.6205 400.423,-91.6831"/>
<polygon fill="midnightblue" stroke="midnightblue" points="401.457,-95.038 410.444,-89.4274 399.92,-88.2089 401.457,-95.038"/>
</g>
<!-- Node13&#45;&gt;Node7 -->
<g id="edge17" class="edge"><title>Node13&#45;&gt;Node7</title>
<path fill="none" stroke="midnightblue" d="M296.516,-163.941C308.264,-160.727 320.55,-157.304 332,-154 348.074,-149.361 351.747,-146.968 368,-143 379.135,-140.281 391.031,-137.749 402.639,-135.477"/>
<polygon fill="midnightblue" stroke="midnightblue" points="403.572,-138.862 412.739,-133.549 402.26,-131.986 403.572,-138.862"/>
</g>
<!-- Node13&#45;&gt;Node11 -->
<g id="edge18" class="edge"><title>Node13&#45;&gt;Node11</title>
<path fill="none" stroke="midnightblue" d="M308.058,-173.991C335.201,-171.994 366.575,-169.685 394.502,-167.63"/>
<polygon fill="midnightblue" stroke="midnightblue" points="394.905,-171.11 404.621,-166.885 394.391,-164.129 394.905,-171.11"/>
</g>
<!-- Node13&#45;&gt;Node12 -->
<g id="edge19" class="edge"><title>Node13&#45;&gt;Node12</title>
<path fill="none" stroke="midnightblue" d="M308.058,-185.187C339.863,-188.078 377.478,-191.498 408.549,-194.323"/>
<polygon fill="midnightblue" stroke="midnightblue" points="408.541,-197.836 418.817,-195.256 409.175,-190.865 408.541,-197.836"/>
</g>
<!-- Node14&#45;&gt;Node8 -->
<g id="edge21" class="edge"><title>Node14&#45;&gt;Node8</title>
<path fill="none" stroke="midnightblue" d="M303.122,-40.0058C333.606,-41.4574 370.266,-43.2031 401.541,-44.6924"/>
<polygon fill="midnightblue" stroke="midnightblue" points="401.769,-48.2072 411.924,-45.1869 402.102,-41.2151 401.769,-48.2072"/>
</g>
<!-- Node16 -->
<g id="node16" class="node"><title>Node16</title>
<g id="a_node16"><a xlink:href="../../d9/d1b/classcommand_1_1_command_factory.html#a87bf7e648425bb22124367cabedb3327" target="_top" xlink:title="command.CommandFactory.get\lNumParameters">
<polygon fill="white" stroke="black" points="387,-229 387,-259 557,-259 557,-229 387,-229"/>
<text text-anchor="start" x="395" y="-247" font-family="Helvetica,sans-Serif" font-size="10.00">command.CommandFactory.get</text>
<text text-anchor="middle" x="472" y="-236" font-family="Helvetica,sans-Serif" font-size="10.00">NumParameters</text>
</a>
</g>
</g>
<!-- Node15&#45;&gt;Node16 -->
<g id="edge23" class="edge"><title>Node15&#45;&gt;Node16</title>
<path fill="none" stroke="midnightblue" d="M303.122,-238.186C325.781,-238.971 351.853,-239.874 376.59,-240.73"/>
<polygon fill="midnightblue" stroke="midnightblue" points="376.61,-244.233 386.725,-241.081 376.853,-237.237 376.61,-244.233"/>
</g>
<!-- Node16&#45;&gt;Node4 -->
<g id="edge24" class="edge"><title>Node16&#45;&gt;Node4</title>
<path fill="none" stroke="midnightblue" d="M557.225,-258.571C575.382,-261.712 594.714,-265.056 613.305,-268.272"/>
<polygon fill="midnightblue" stroke="midnightblue" points="612.795,-271.736 623.245,-269.992 613.988,-264.838 612.795,-271.736"/>
</g>
</g>
</svg>
