<?xml version="1.0" encoding="UTF-8" standalone="no"?>
<!DOCTYPE svg PUBLIC "-//W3C//DTD SVG 1.1//EN"
 "http://www.w3.org/Graphics/SVG/1.1/DTD/svg11.dtd">
<!-- Generated by graphviz version 2.36.0 (20140111.2315)
 -->
<!-- Title: parser.Parser.main Pages: 1 -->
<!--zoomable 354 -->
<svg id="main" version="1.1" xmlns="http://www.w3.org/2000/svg" xmlns:xlink="http://www.w3.org/1999/xlink" xml:space="preserve" onload="init(evt)">
<style type="text/css"><![CDATA[
.edge:hover path { stroke: red; }
.edge:hover polygon { stroke: red; fill: red; }
]]></style>
<script type="text/javascript"><![CDATA[
var edges = document.getElementsByTagName('g');
if (edges && edges.length) {
  for (var i=0;i<edges.length;i++) {
    if (edges[i].id.substr(0,4)=='edge') {
      edges[i].setAttribute('class','edge');
    }
  }
}
]]></script>
        <defs>
                <circle id="rim" cx="0" cy="0" r="7"/>
                <circle id="rim2" cx="0" cy="0" r="3.5"/>
                <g id="zoomPlus">
                        <use xlink:href="#rim" fill="#404040">
                                <set attributeName="fill" to="#808080" begin="zoomplus.mouseover" end="zoomplus.mouseout"/>
                        </use>
                        <path d="M-4,0h8M0,-4v8" fill="none" stroke="white" stroke-width="1.5" pointer-events="none"/>
                </g>
                <g id="zoomMin">
                        <use xlink:href="#rim" fill="#404040">
                                <set attributeName="fill" to="#808080" begin="zoomminus.mouseover" end="zoomminus.mouseout"/>
                        </use>
                        <path d="M-4,0h8" fill="none" stroke="white" stroke-width="1.5" pointer-events="none"/>
                </g>
                <g id="dirArrow">
                        <path fill="none" stroke="white" stroke-width="1.5" d="M0,-3.0v7 M-2.5,-0.5L0,-3.0L2.5,-0.5"/>
                </g>
               <g id="resetDef">
                       <use xlink:href="#rim2" fill="#404040">
                               <set attributeName="fill" to="#808080" begin="reset.mouseover" end="reset.mouseout"/>
                       </use>
               </g>
        </defs>

<script type="text/javascript">
var viewWidth = 970;
var viewHeight = 354;
var sectionId = 'dynsection-10';
</script>
<script xlink:href="../../svgpan.js"/>
<svg id="graph" class="graph">
<g id="viewport">
<title>parser.Parser.main</title>
<polygon fill="white" stroke="none" points="-4,4 -4,-349.643 966,-349.643 966,4 -4,4"/>
<!-- Node1 -->
<g id="node1" class="node"><title>Node1</title>
<polygon fill="#bfbfbf" stroke="black" points="0,-44.5 0,-63.5 106,-63.5 106,-44.5 0,-44.5"/>
<text text-anchor="middle" x="53" y="-51.5" font-family="Helvetica,sans-Serif" font-size="10.00">parser.Parser.main</text>
</g>
<!-- Node2 -->
<g id="node2" class="node"><title>Node2</title>
<g id="a_node2"><a xlink:href="../../d6/d95/classparser_1_1_parser.html#a240c75608624a9c67402a296855c4d1d" target="_top" xlink:title="parser.Parser.initialize\lCommands">
<polygon fill="white" stroke="black" points="142,-39 142,-69 262,-69 262,-39 142,-39"/>
<text text-anchor="start" x="150" y="-57" font-family="Helvetica,sans-Serif" font-size="10.00">parser.Parser.initialize</text>
<text text-anchor="middle" x="202" y="-46" font-family="Helvetica,sans-Serif" font-size="10.00">Commands</text>
</a>
</g>
</g>
<!-- Node1&#45;&gt;Node2 -->
<g id="edge1" class="edge"><title>Node1&#45;&gt;Node2</title>
<path fill="none" stroke="midnightblue" d="M106.241,-54C114.545,-54 123.245,-54 131.864,-54"/>
<polygon fill="midnightblue" stroke="midnightblue" points="131.918,-57.5001 141.918,-54 131.918,-50.5001 131.918,-57.5001"/>
</g>
<!-- Node7 -->
<g id="node7" class="node"><title>Node7</title>
<g id="a_node7"><a xlink:href="../../d6/d95/classparser_1_1_parser.html#a4ecbffc246c3add017c4720eed4c6da9" target="_top" xlink:title="parser.Parser.parse">
<polygon fill="white" stroke="black" points="147.5,-126.5 147.5,-145.5 256.5,-145.5 256.5,-126.5 147.5,-126.5"/>
<text text-anchor="middle" x="202" y="-133.5" font-family="Helvetica,sans-Serif" font-size="10.00">parser.Parser.parse</text>
</a>
</g>
</g>
<!-- Node1&#45;&gt;Node7 -->
<g id="edge6" class="edge"><title>Node1&#45;&gt;Node7</title>
<path fill="none" stroke="midnightblue" d="M71.1505,-63.5669C96.7097,-77.8245 144.989,-104.756 174.933,-121.459"/>
<polygon fill="midnightblue" stroke="midnightblue" points="173.521,-124.679 183.959,-126.494 176.931,-118.566 173.521,-124.679"/>
</g>
<!-- Node19 -->
<g id="node19" class="node"><title>Node19</title>
<g id="a_node19"><a xlink:href="../../d6/d95/classparser_1_1_parser.html#a4811b7bbe9944e2eb2440a1926568f3f" target="_top" xlink:title="parser.Parser.Parser">
<polygon fill="white" stroke="black" points="146,-0.5 146,-19.5 258,-19.5 258,-0.5 146,-0.5"/>
<text text-anchor="middle" x="202" y="-7.5" font-family="Helvetica,sans-Serif" font-size="10.00">parser.Parser.Parser</text>
</a>
</g>
</g>
<!-- Node1&#45;&gt;Node19 -->
<g id="edge28" class="edge"><title>Node1&#45;&gt;Node19</title>
<path fill="none" stroke="midnightblue" d="M85.8968,-44.4527C107.472,-37.9949 136.177,-29.4028 159.524,-22.4146"/>
<polygon fill="midnightblue" stroke="midnightblue" points="160.589,-25.7493 169.165,-19.5287 158.582,-19.0433 160.589,-25.7493"/>
</g>
<!-- Node3 -->
<g id="node3" class="node"><title>Node3</title>
<g id="a_node3"><a xlink:href="../../d3/dcc/classparser_1_1_node.html#a9c12e8d4375a7517eae0a35724b253c4" target="_top" xlink:title="parser.Node.getValue">
<polygon fill="white" stroke="black" points="564,-67.5 564,-86.5 684,-86.5 684,-67.5 564,-67.5"/>
<text text-anchor="middle" x="624" y="-74.5" font-family="Helvetica,sans-Serif" font-size="10.00">parser.Node.getValue</text>
</a>
</g>
</g>
<!-- Node2&#45;&gt;Node3 -->
<g id="edge2" class="edge"><title>Node2&#45;&gt;Node3</title>
<path fill="none" stroke="midnightblue" d="M262.02,-40.3222C273.872,-38.1065 286.284,-36.1602 298,-35 380.264,-26.8542 404.423,-12.6098 484,-35 502.05,-40.0787 502.519,-50.2164 520,-57 530.705,-61.154 542.383,-64.475 553.905,-67.1212"/>
<polygon fill="midnightblue" stroke="midnightblue" points="553.452,-70.6034 563.963,-69.277 554.919,-63.7588 553.452,-70.6034"/>
</g>
<!-- Node4 -->
<g id="node4" class="node"><title>Node4</title>
<g id="a_node4"><a xlink:href="../../d6/d95/classparser_1_1_parser.html#a4f582c65390bddc57219c0b5c31ef5e7" target="_top" xlink:title="parser.Parser.makeTree">
<polygon fill="white" stroke="black" points="327,-44.5 327,-63.5 455,-63.5 455,-44.5 327,-44.5"/>
<text text-anchor="middle" x="391" y="-51.5" font-family="Helvetica,sans-Serif" font-size="10.00">parser.Parser.makeTree</text>
</a>
</g>
</g>
<!-- Node2&#45;&gt;Node4 -->
<g id="edge3" class="edge"><title>Node2&#45;&gt;Node4</title>
<path fill="none" stroke="midnightblue" d="M262.168,-54C279.422,-54 298.488,-54 316.512,-54"/>
<polygon fill="midnightblue" stroke="midnightblue" points="316.69,-57.5001 326.69,-54 316.69,-50.5001 316.69,-57.5001"/>
</g>
<!-- Node5 -->
<g id="node5" class="node"><title>Node5</title>
<g id="a_node5"><a xlink:href="../../d9/d1b/classcommand_1_1_command_factory.html#a87bf7e648425bb22124367cabedb3327" target="_top" xlink:title="command.CommandFactory.get\lNumParameters">
<polygon fill="white" stroke="black" points="539,-18 539,-48 709,-48 709,-18 539,-18"/>
<text text-anchor="start" x="547" y="-36" font-family="Helvetica,sans-Serif" font-size="10.00">command.CommandFactory.get</text>
<text text-anchor="middle" x="624" y="-25" font-family="Helvetica,sans-Serif" font-size="10.00">NumParameters</text>
</a>
</g>
</g>
<!-- Node4&#45;&gt;Node5 -->
<g id="edge4" class="edge"><title>Node4&#45;&gt;Node5</title>
<path fill="none" stroke="midnightblue" d="M455.122,-48.2617C477.781,-46.2017 503.853,-43.8315 528.59,-41.5828"/>
<polygon fill="midnightblue" stroke="midnightblue" points="529.083,-45.0524 538.725,-40.6613 528.45,-38.0811 529.083,-45.0524"/>
</g>
<!-- Node6 -->
<g id="node6" class="node"><title>Node6</title>
<g id="a_node6"><a xlink:href="../../d9/d1b/classcommand_1_1_command_factory.html#a947fdc151e857ea74564d0d1fe268246" target="_top" xlink:title="command.CommandFactory.translate\lCommand">
<polygon fill="white" stroke="black" points="764.5,-173 764.5,-203 961.5,-203 961.5,-173 764.5,-173"/>
<text text-anchor="start" x="772.5" y="-191" font-family="Helvetica,sans-Serif" font-size="10.00">command.CommandFactory.translate</text>
<text text-anchor="middle" x="863" y="-180" font-family="Helvetica,sans-Serif" font-size="10.00">Command</text>
</a>
</g>
</g>
<!-- Node5&#45;&gt;Node6 -->
<g id="edge5" class="edge"><title>Node5&#45;&gt;Node6</title>
<path fill="none" stroke="midnightblue" d="M705.602,-48.0866C713.391,-50.8585 720.991,-54.1331 728,-58 777.335,-85.2204 821.458,-135.418 844.698,-164.836"/>
<polygon fill="midnightblue" stroke="midnightblue" points="842.058,-167.143 850.954,-172.897 847.588,-162.852 842.058,-167.143"/>
</g>
<!-- Node7&#45;&gt;Node4 -->
<g id="edge12" class="edge"><title>Node7&#45;&gt;Node4</title>
<path fill="none" stroke="midnightblue" d="M214.17,-126.492C231.135,-112.562 264.933,-86.7711 298,-73 304.171,-70.4302 310.723,-68.1963 317.378,-66.2565"/>
<polygon fill="midnightblue" stroke="midnightblue" points="318.422,-69.6002 327.168,-63.6202 316.601,-62.841 318.422,-69.6002"/>
</g>
<!-- Node8 -->
<g id="node8" class="node"><title>Node8</title>
<g id="a_node8"><a xlink:href="../../d6/d95/classparser_1_1_parser.html#a447c473b62ba23b7c144df9bb38a9a41" target="_top" xlink:title="parser.Parser.getNodeFor\lCommand">
<polygon fill="white" stroke="black" points="322,-170 322,-200 460,-200 460,-170 322,-170"/>
<text text-anchor="start" x="330" y="-188" font-family="Helvetica,sans-Serif" font-size="10.00">parser.Parser.getNodeFor</text>
<text text-anchor="middle" x="391" y="-177" font-family="Helvetica,sans-Serif" font-size="10.00">Command</text>
</a>
</g>
</g>
<!-- Node7&#45;&gt;Node8 -->
<g id="edge7" class="edge"><title>Node7&#45;&gt;Node8</title>
<path fill="none" stroke="midnightblue" d="M239.499,-145.564C263.174,-151.768 294.733,-160.037 322.836,-167.401"/>
<polygon fill="midnightblue" stroke="midnightblue" points="322.053,-170.814 332.614,-169.963 323.828,-164.043 322.053,-170.814"/>
</g>
<!-- Node13 -->
<g id="node13" class="node"><title>Node13</title>
<g id="a_node13"><a xlink:href="../../d6/d95/classparser_1_1_parser.html#a3efcd1192e76101919526b4a5e0046f4" target="_top" xlink:title="parser.Parser.getNodeBefore\lToReplace">
<polygon fill="white" stroke="black" points="313.5,-219 313.5,-249 468.5,-249 468.5,-219 313.5,-219"/>
<text text-anchor="start" x="321.5" y="-237" font-family="Helvetica,sans-Serif" font-size="10.00">parser.Parser.getNodeBefore</text>
<text text-anchor="middle" x="391" y="-226" font-family="Helvetica,sans-Serif" font-size="10.00">ToReplace</text>
</a>
</g>
</g>
<!-- Node7&#45;&gt;Node13 -->
<g id="edge13" class="edge"><title>Node7&#45;&gt;Node13</title>
<path fill="none" stroke="midnightblue" d="M212.65,-145.535C228.894,-161.066 263.338,-191.816 298,-209 302.819,-211.389 307.898,-213.575 313.092,-215.57"/>
<polygon fill="midnightblue" stroke="midnightblue" points="311.941,-218.875 322.535,-218.958 314.305,-212.287 311.941,-218.875"/>
</g>
<!-- Node14 -->
<g id="node14" class="node"><title>Node14</title>
<g id="a_node14"><a xlink:href="../../d3/dcc/classparser_1_1_node.html#a066da2b478008f39a02440d7afceb9ee" target="_top" xlink:title="parser.Node.insertChild">
<polygon fill="white" stroke="black" points="327,-82.5 327,-101.5 455,-101.5 455,-82.5 327,-82.5"/>
<text text-anchor="middle" x="391" y="-89.5" font-family="Helvetica,sans-Serif" font-size="10.00">parser.Node.insertChild</text>
</a>
</g>
</g>
<!-- Node7&#45;&gt;Node14 -->
<g id="edge18" class="edge"><title>Node7&#45;&gt;Node14</title>
<path fill="none" stroke="midnightblue" d="M237.632,-126.409C255.588,-121.557 277.91,-115.714 298,-111 308.698,-108.49 320.137,-105.985 331.186,-103.656"/>
<polygon fill="midnightblue" stroke="midnightblue" points="332.116,-107.038 341.192,-101.572 330.688,-100.185 332.116,-107.038"/>
</g>
<!-- Node15 -->
<g id="node15" class="node"><title>Node15</title>
<g id="a_node15"><a xlink:href="../../d6/d95/classparser_1_1_parser.html#aac1cff62f68138c7e977a67d39671701" target="_top" xlink:title="parser.Parser.generateCommand\lInput">
<polygon fill="white" stroke="black" points="303,-121 303,-151 479,-151 479,-121 303,-121"/>
<text text-anchor="start" x="311" y="-139" font-family="Helvetica,sans-Serif" font-size="10.00">parser.Parser.generateCommand</text>
<text text-anchor="middle" x="391" y="-128" font-family="Helvetica,sans-Serif" font-size="10.00">Input</text>
</a>
</g>
</g>
<!-- Node7&#45;&gt;Node15 -->
<g id="edge20" class="edge"><title>Node7&#45;&gt;Node15</title>
<path fill="none" stroke="midnightblue" d="M256.587,-136C267.998,-136 280.386,-136 292.861,-136"/>
<polygon fill="midnightblue" stroke="midnightblue" points="292.867,-139.5 302.867,-136 292.866,-132.5 292.867,-139.5"/>
</g>
<!-- Node17 -->
<g id="node17" class="node"><title>Node17</title>
<g id="a_node17"><a xlink:href="../../d9/d1b/classcommand_1_1_command_factory.html#ab25bb047b051661d31adf73b2dae5649" target="_top" xlink:title="command.CommandFactory.create\lCommand">
<polygon fill="white" stroke="black" points="298.5,-290 298.5,-320 483.5,-320 483.5,-290 298.5,-290"/>
<text text-anchor="start" x="306.5" y="-308" font-family="Helvetica,sans-Serif" font-size="10.00">command.CommandFactory.create</text>
<text text-anchor="middle" x="391" y="-297" font-family="Helvetica,sans-Serif" font-size="10.00">Command</text>
</a>
</g>
</g>
<!-- Node7&#45;&gt;Node17 -->
<g id="edge25" class="edge"><title>Node7&#45;&gt;Node17</title>
<path fill="none" stroke="midnightblue" d="M208.512,-145.714C221.565,-168.019 256.411,-223.623 298,-258 311.166,-268.883 327.268,-278.173 342.299,-285.549"/>
<polygon fill="midnightblue" stroke="midnightblue" points="340.948,-288.782 351.485,-289.892 343.94,-282.453 340.948,-288.782"/>
</g>
<!-- Node9 -->
<g id="node9" class="node"><title>Node9</title>
<g id="a_node9"><a xlink:href="../../d3/dcc/classparser_1_1_node.html#aa67bc0d39227232943abec9b95b23235" target="_top" xlink:title="parser.Node.getChild1">
<polygon fill="white" stroke="black" points="562.5,-143.5 562.5,-162.5 685.5,-162.5 685.5,-143.5 562.5,-143.5"/>
<text text-anchor="middle" x="624" y="-150.5" font-family="Helvetica,sans-Serif" font-size="10.00">parser.Node.getChild1</text>
</a>
</g>
</g>
<!-- Node8&#45;&gt;Node9 -->
<g id="edge8" class="edge"><title>Node8&#45;&gt;Node9</title>
<path fill="none" stroke="midnightblue" d="M460.058,-175.572C489.106,-171.548 522.999,-166.853 552.328,-162.79"/>
<polygon fill="midnightblue" stroke="midnightblue" points="553.071,-166.221 562.496,-161.381 552.11,-159.287 553.071,-166.221"/>
</g>
<!-- Node10 -->
<g id="node10" class="node"><title>Node10</title>
<g id="a_node10"><a xlink:href="../../d3/dcc/classparser_1_1_node.html#a0f13775acc62af77cdde90dbeaf26bbc" target="_top" xlink:title="parser.Node.getChild2">
<polygon fill="white" stroke="black" points="562.5,-181.5 562.5,-200.5 685.5,-200.5 685.5,-181.5 562.5,-181.5"/>
<text text-anchor="middle" x="624" y="-188.5" font-family="Helvetica,sans-Serif" font-size="10.00">parser.Node.getChild2</text>
</a>
</g>
</g>
<!-- Node8&#45;&gt;Node10 -->
<g id="edge9" class="edge"><title>Node8&#45;&gt;Node10</title>
<path fill="none" stroke="midnightblue" d="M460.058,-186.768C489.106,-187.522 522.999,-188.403 552.328,-189.164"/>
<polygon fill="midnightblue" stroke="midnightblue" points="552.409,-192.668 562.496,-189.428 552.59,-185.67 552.409,-192.668"/>
</g>
<!-- Node11 -->
<g id="node11" class="node"><title>Node11</title>
<g id="a_node11"><a xlink:href="../../d3/dcc/classparser_1_1_node.html#ab14db24c0724dec4387e29d513008e2e" target="_top" xlink:title="parser.Node.hasChildren">
<polygon fill="white" stroke="black" points="557,-219.5 557,-238.5 691,-238.5 691,-219.5 557,-219.5"/>
<text text-anchor="middle" x="624" y="-226.5" font-family="Helvetica,sans-Serif" font-size="10.00">parser.Node.hasChildren</text>
</a>
</g>
</g>
<!-- Node8&#45;&gt;Node11 -->
<g id="edge10" class="edge"><title>Node8&#45;&gt;Node11</title>
<path fill="none" stroke="midnightblue" d="M460.064,-198.431C479.424,-202.214 500.536,-206.304 520,-210 533.168,-212.5 547.292,-215.136 560.73,-217.622"/>
<polygon fill="midnightblue" stroke="midnightblue" points="560.377,-221.116 570.846,-219.489 561.647,-214.232 560.377,-221.116"/>
</g>
<!-- Node12 -->
<g id="node12" class="node"><title>Node12</title>
<g id="a_node12"><a xlink:href="../../d3/dcc/classparser_1_1_node.html#aa92667a825777b3d757bc3b1a247ac20" target="_top" xlink:title="parser.Node.isLeaf">
<polygon fill="white" stroke="black" points="571,-257.5 571,-276.5 677,-276.5 677,-257.5 571,-257.5"/>
<text text-anchor="middle" x="624" y="-264.5" font-family="Helvetica,sans-Serif" font-size="10.00">parser.Node.isLeaf</text>
</a>
</g>
</g>
<!-- Node8&#45;&gt;Node12 -->
<g id="edge11" class="edge"><title>Node8&#45;&gt;Node12</title>
<path fill="none" stroke="midnightblue" d="M460.082,-198.911C468.431,-201.929 476.613,-205.583 484,-210 503.968,-221.939 499.555,-236.899 520,-248 532.409,-254.737 546.767,-259.136 560.749,-261.994"/>
<polygon fill="midnightblue" stroke="midnightblue" points="560.369,-265.482 570.832,-263.815 561.613,-258.593 560.369,-265.482"/>
</g>
<!-- Node13&#45;&gt;Node9 -->
<g id="edge14" class="edge"><title>Node13&#45;&gt;Node9</title>
<path fill="none" stroke="midnightblue" d="M462.912,-218.931C470.266,-216.146 477.439,-212.863 484,-209 503.77,-197.357 499.764,-182.813 520,-172 529.985,-166.664 541.206,-162.8 552.471,-160.007"/>
<polygon fill="midnightblue" stroke="midnightblue" points="553.345,-163.399 562.351,-157.819 551.831,-156.564 553.345,-163.399"/>
</g>
<!-- Node13&#45;&gt;Node10 -->
<g id="edge15" class="edge"><title>Node13&#45;&gt;Node10</title>
<path fill="none" stroke="midnightblue" d="M468.816,-219.559C485.678,-216.4 503.44,-213.08 520,-210 533.249,-207.536 547.458,-204.906 560.963,-202.413"/>
<polygon fill="midnightblue" stroke="midnightblue" points="561.925,-205.795 571.124,-200.539 560.655,-198.911 561.925,-205.795"/>
</g>
<!-- Node13&#45;&gt;Node11 -->
<g id="edge16" class="edge"><title>Node13&#45;&gt;Node11</title>
<path fill="none" stroke="midnightblue" d="M468.599,-232.342C493.647,-231.8 521.458,-231.198 546.499,-230.656"/>
<polygon fill="midnightblue" stroke="midnightblue" points="546.755,-234.151 556.677,-230.436 546.604,-227.153 546.755,-234.151"/>
</g>
<!-- Node13&#45;&gt;Node12 -->
<g id="edge17" class="edge"><title>Node13&#45;&gt;Node12</title>
<path fill="none" stroke="midnightblue" d="M468.599,-244.943C498.426,-249.204 532.171,-254.024 560.49,-258.07"/>
<polygon fill="midnightblue" stroke="midnightblue" points="560.266,-261.574 570.661,-259.523 561.256,-254.644 560.266,-261.574"/>
</g>
<!-- Node14&#45;&gt;Node3 -->
<g id="edge19" class="edge"><title>Node14&#45;&gt;Node3</title>
<path fill="none" stroke="midnightblue" d="M455.122,-87.9012C485.606,-85.9217 522.266,-83.5412 553.541,-81.5103"/>
<polygon fill="midnightblue" stroke="midnightblue" points="554.172,-84.9768 563.924,-80.8361 553.718,-77.9915 554.172,-84.9768"/>
</g>
<!-- Node15&#45;&gt;Node3 -->
<g id="edge23" class="edge"><title>Node15&#45;&gt;Node3</title>
<path fill="none" stroke="midnightblue" d="M451.73,-120.979C462.545,-117.917 473.666,-114.54 484,-111 500.398,-105.382 503.384,-100.933 520,-96 530.853,-92.7778 542.52,-89.999 553.962,-87.6386"/>
<polygon fill="midnightblue" stroke="midnightblue" points="554.8,-91.0408 563.934,-85.6714 553.445,-84.1732 554.8,-91.0408"/>
</g>
<!-- Node15&#45;&gt;Node9 -->
<g id="edge21" class="edge"><title>Node15&#45;&gt;Node9</title>
<path fill="none" stroke="midnightblue" d="M479.002,-142.403C503.177,-144.182 529.13,-146.092 552.251,-147.793"/>
<polygon fill="midnightblue" stroke="midnightblue" points="552.085,-151.291 562.315,-148.534 552.599,-144.309 552.085,-151.291"/>
</g>
<!-- Node15&#45;&gt;Node10 -->
<g id="edge22" class="edge"><title>Node15&#45;&gt;Node10</title>
<path fill="none" stroke="midnightblue" d="M448.516,-151.059C460.264,-154.273 472.55,-157.696 484,-161 500.074,-165.639 503.747,-168.032 520,-172 531.135,-174.719 543.031,-177.251 554.639,-179.523"/>
<polygon fill="midnightblue" stroke="midnightblue" points="554.26,-183.014 564.739,-181.451 555.572,-176.138 554.26,-183.014"/>
</g>
<!-- Node16 -->
<g id="node16" class="node"><title>Node16</title>
<g id="a_node16"><a xlink:href="../../d3/dcc/classparser_1_1_node.html#a6bbc0c61aaa261077eb87cfc4e2b45dc" target="_top" xlink:title="parser.Node.numChildren">
<polygon fill="white" stroke="black" points="554.5,-105.5 554.5,-124.5 693.5,-124.5 693.5,-105.5 554.5,-105.5"/>
<text text-anchor="middle" x="624" y="-112.5" font-family="Helvetica,sans-Serif" font-size="10.00">parser.Node.numChildren</text>
</a>
</g>
</g>
<!-- Node15&#45;&gt;Node16 -->
<g id="edge24" class="edge"><title>Node15&#45;&gt;Node16</title>
<path fill="none" stroke="midnightblue" d="M479.002,-128.091C500.434,-126.142 523.263,-124.067 544.278,-122.157"/>
<polygon fill="midnightblue" stroke="midnightblue" points="544.792,-125.624 554.434,-121.233 544.158,-118.653 544.792,-125.624"/>
</g>
<!-- Node17&#45;&gt;Node6 -->
<g id="edge27" class="edge"><title>Node17&#45;&gt;Node6</title>
<path fill="none" stroke="midnightblue" d="M438.443,-320.003C505.341,-338.931 631.392,-364.436 728,-324 782.5,-301.189 826.068,-244.213 847.506,-211.706"/>
<polygon fill="midnightblue" stroke="midnightblue" points="850.489,-213.538 852.957,-203.235 844.603,-209.75 850.489,-213.538"/>
</g>
<!-- Node18 -->
<g id="node18" class="node"><title>Node18</title>
<g id="a_node18"><a xlink:href="../../d9/d1b/classcommand_1_1_command_factory.html#abd97ea3e22afc09e07ed1d4fd039d11f" target="_top" xlink:title="command.CommandFactory.reflectCMD">
<polygon fill="white" stroke="black" points="520.5,-295.5 520.5,-314.5 727.5,-314.5 727.5,-295.5 520.5,-295.5"/>
<text text-anchor="middle" x="624" y="-302.5" font-family="Helvetica,sans-Serif" font-size="10.00">command.CommandFactory.reflectCMD</text>
</a>
</g>
</g>
<!-- Node17&#45;&gt;Node18 -->
<g id="edge26" class="edge"><title>Node17&#45;&gt;Node18</title>
<path fill="none" stroke="midnightblue" d="M483.629,-305C492.415,-305 501.394,-305 510.35,-305"/>
<polygon fill="midnightblue" stroke="midnightblue" points="510.44,-308.5 520.44,-305 510.44,-301.5 510.44,-308.5"/>
</g>
</g>
</svg>
        <g id="navigator" transform="translate(0 0)" fill="#404254">
                <rect fill="#f2f5e9" fill-opacity="0.5" stroke="#606060" stroke-width=".5" x="0" y="0" width="60" height="60"/>
                <use id="zoomplus" xlink:href="#zoomPlus" x="17" y="9" onmousedown="handleZoom(evt,'in')"/>
                <use id="zoomminus" xlink:href="#zoomMin" x="42" y="9" onmousedown="handleZoom(evt,'out')"/>
                <use id="reset" xlink:href="#resetDef" x="30" y="36" onmousedown="handleReset()"/>
                <g id="arrowUp" xlink:href="#dirArrow" transform="translate(30 24)" onmousedown="handlePan(0,-1)">
                  <use xlink:href="#rim" fill="#404040">
                        <set attributeName="fill" to="#808080" begin="arrowUp.mouseover" end="arrowUp.mouseout"/>
                  </use>
                  <path fill="none" stroke="white" stroke-width="1.5" d="M0,-3.0v7 M-2.5,-0.5L0,-3.0L2.5,-0.5"/>
                </g>
                <g id="arrowRight" xlink:href="#dirArrow" transform="rotate(90) translate(36 -43)" onmousedown="handlePan(1,0)">
                  <use xlink:href="#rim" fill="#404040">
                        <set attributeName="fill" to="#808080" begin="arrowRight.mouseover" end="arrowRight.mouseout"/>
                  </use>
                  <path fill="none" stroke="white" stroke-width="1.5" d="M0,-3.0v7 M-2.5,-0.5L0,-3.0L2.5,-0.5"/>
                </g>
                <g id="arrowDown" xlink:href="#dirArrow" transform="rotate(180) translate(-30 -48)" onmousedown="handlePan(0,1)">
                  <use xlink:href="#rim" fill="#404040">
                        <set attributeName="fill" to="#808080" begin="arrowDown.mouseover" end="arrowDown.mouseout"/>
                  </use>
                  <path fill="none" stroke="white" stroke-width="1.5" d="M0,-3.0v7 M-2.5,-0.5L0,-3.0L2.5,-0.5"/>
                </g>
                <g id="arrowLeft" xlink:href="#dirArrow" transform="rotate(270) translate(-36 17)" onmousedown="handlePan(-1,0)">
                  <use xlink:href="#rim" fill="#404040">
                        <set attributeName="fill" to="#808080" begin="arrowLeft.mouseover" end="arrowLeft.mouseout"/>
                  </use>
                  <path fill="none" stroke="white" stroke-width="1.5" d="M0,-3.0v7 M-2.5,-0.5L0,-3.0L2.5,-0.5"/>
                </g>
        </g>
        <svg viewBox="0 0 15 15" width="100%" height="30px" preserveAspectRatio="xMaxYMin meet">
         <g id="arrow_out" transform="scale(0.3 0.3)">
          <a xlink:href="classparser_1_1_parser_a6b2d7b2b182d99537ce332ed0dfd3e03_cgraph_org.svg" target="_base">
           <rect id="button" ry="5" rx="5" y="6" x="6" height="38" width="38"
                fill="#f2f5e9" fill-opacity="0.5" stroke="#606060" stroke-width="1.0"/>
           <path id="arrow"
             d="M 11.500037,31.436501 C 11.940474,20.09759 22.043105,11.32322 32.158766,21.979434 L 37.068811,17.246167 C 37.068811,17.246167 37.088388,32 37.088388,32 L 22.160133,31.978069 C 22.160133,31.978069 26.997745,27.140456 26.997745,27.140456 C 18.528582,18.264221 13.291696,25.230495 11.500037,31.436501 z"
             style="fill:#404040;"/>
          </a>
         </g>
        </svg>
</svg>
