<?xml version="1.0" encoding="UTF-8" standalone="no"?>
<!DOCTYPE svg PUBLIC "-//W3C//DTD SVG 1.1//EN"
 "http://www.w3.org/Graphics/SVG/1.1/DTD/svg11.dtd">
<!-- Generated by graphviz version 2.36.0 (20140111.2315)
 -->
<!-- Title: parser.Parser.parse Pages: 1 -->
<svg width="1240pt" height="473pt"
 viewBox="0.00 0.00 1240.00 473.00" xmlns="http://www.w3.org/2000/svg" xmlns:xlink="http://www.w3.org/1999/xlink">
<g id="graph0" class="graph" transform="scale(1 1) rotate(0) translate(4 469)">
<title>parser.Parser.parse</title>
<polygon fill="white" stroke="none" points="-4,4 -4,-469 1236,-469 1236,4 -4,4"/>
<!-- Node1 -->
<g id="node1" class="node"><title>Node1</title>
<polygon fill="#bfbfbf" stroke="black" points="0.5,-138.5 0.5,-157.5 109.5,-157.5 109.5,-138.5 0.5,-138.5"/>
<text text-anchor="middle" x="55" y="-145.5" font-family="Helvetica,sans-Serif" font-size="10.00">parser.Parser.parse</text>
</g>
<!-- Node2 -->
<g id="node2" class="node"><title>Node2</title>
<g id="a_node2"><a xlink:href="../../d9/d1b/classcommand_1_1_command_factory.html#ab25bb047b051661d31adf73b2dae5649" target="_top" xlink:title="command.CommandFactory.create\lCommand">
<polygon fill="white" stroke="black" points="146.5,-341 146.5,-371 331.5,-371 331.5,-341 146.5,-341"/>
<text text-anchor="start" x="154.5" y="-359" font-family="Helvetica,sans-Serif" font-size="10.00">command.CommandFactory.create</text>
<text text-anchor="middle" x="239" y="-348" font-family="Helvetica,sans-Serif" font-size="10.00">Command</text>
</a>
</g>
</g>
<!-- Node1&#45;&gt;Node2 -->
<g id="edge1" class="edge"><title>Node1&#45;&gt;Node2</title>
<path fill="none" stroke="midnightblue" d="M62.878,-157.537C77.4891,-177.623 112.992,-225.518 146,-263 168.163,-288.167 195.366,-315.241 214.422,-333.65"/>
<polygon fill="midnightblue" stroke="midnightblue" points="212.163,-336.334 221.8,-340.738 217.013,-331.286 212.163,-336.334"/>
</g>
<!-- Node11 -->
<g id="node11" class="node"><title>Node11</title>
<g id="a_node11"><a xlink:href="../../d6/d95/classparser_1_1_parser.html#aac1cff62f68138c7e977a67d39671701" target="_top" xlink:title="parser.Parser.generateCommand\lInput">
<polygon fill="white" stroke="black" points="151,-60 151,-90 327,-90 327,-60 151,-60"/>
<text text-anchor="start" x="159" y="-78" font-family="Helvetica,sans-Serif" font-size="10.00">parser.Parser.generateCommand</text>
<text text-anchor="middle" x="239" y="-67" font-family="Helvetica,sans-Serif" font-size="10.00">Input</text>
</a>
</g>
</g>
<!-- Node1&#45;&gt;Node11 -->
<g id="edge10" class="edge"><title>Node1&#45;&gt;Node11</title>
<path fill="none" stroke="midnightblue" d="M71.0532,-138.315C88.492,-127.455 118.375,-109.934 146,-99 151.18,-96.9498 156.593,-95.023 162.088,-93.2227"/>
<polygon fill="midnightblue" stroke="midnightblue" points="163.531,-96.4391 172.035,-90.1196 161.446,-89.7568 163.531,-96.4391"/>
</g>
<!-- Node16 -->
<g id="node16" class="node"><title>Node16</title>
<g id="a_node16"><a xlink:href="../../d6/d95/classparser_1_1_parser.html#a3efcd1192e76101919526b4a5e0046f4" target="_top" xlink:title="parser.Parser.getNodeBefore\lToReplace">
<polygon fill="white" stroke="black" points="161.5,-158 161.5,-188 316.5,-188 316.5,-158 161.5,-158"/>
<text text-anchor="start" x="169.5" y="-176" font-family="Helvetica,sans-Serif" font-size="10.00">parser.Parser.getNodeBefore</text>
<text text-anchor="middle" x="239" y="-165" font-family="Helvetica,sans-Serif" font-size="10.00">ToReplace</text>
</a>
</g>
</g>
<!-- Node1&#45;&gt;Node16 -->
<g id="edge15" class="edge"><title>Node1&#45;&gt;Node16</title>
<path fill="none" stroke="midnightblue" d="M109.622,-155.366C122.7,-157.162 137.025,-159.13 151.213,-161.079"/>
<polygon fill="midnightblue" stroke="midnightblue" points="151.116,-164.598 161.5,-162.492 152.069,-157.663 151.116,-164.598"/>
</g>
<!-- Node19 -->
<g id="node19" class="node"><title>Node19</title>
<g id="a_node19"><a xlink:href="../../d6/d95/classparser_1_1_parser.html#a447c473b62ba23b7c144df9bb38a9a41" target="_top" xlink:title="parser.Parser.getNodeFor\lCommand">
<polygon fill="white" stroke="black" points="170,-109 170,-139 308,-139 308,-109 170,-109"/>
<text text-anchor="start" x="178" y="-127" font-family="Helvetica,sans-Serif" font-size="10.00">parser.Parser.getNodeFor</text>
<text text-anchor="middle" x="239" y="-116" font-family="Helvetica,sans-Serif" font-size="10.00">Command</text>
</a>
</g>
</g>
<!-- Node1&#45;&gt;Node19 -->
<g id="edge20" class="edge"><title>Node1&#45;&gt;Node19</title>
<path fill="none" stroke="midnightblue" d="M109.622,-140.929C125.252,-138.868 142.662,-136.572 159.491,-134.353"/>
<polygon fill="midnightblue" stroke="midnightblue" points="160.417,-137.761 169.874,-132.984 159.502,-130.821 160.417,-137.761"/>
</g>
<!-- Node20 -->
<g id="node20" class="node"><title>Node20</title>
<g id="a_node20"><a xlink:href="../../d3/dcc/classparser_1_1_node.html#a066da2b478008f39a02440d7afceb9ee" target="_top" xlink:title="parser.Node.insertChild">
<polygon fill="white" stroke="black" points="175,-11.5 175,-30.5 303,-30.5 303,-11.5 175,-11.5"/>
<text text-anchor="middle" x="239" y="-18.5" font-family="Helvetica,sans-Serif" font-size="10.00">parser.Node.insertChild</text>
</a>
</g>
</g>
<!-- Node1&#45;&gt;Node20 -->
<g id="edge25" class="edge"><title>Node1&#45;&gt;Node20</title>
<path fill="none" stroke="midnightblue" d="M62.219,-138.379C75.3375,-118.838 107.8,-74.3043 146,-50 156.815,-43.1193 169.386,-37.7607 181.698,-33.6291"/>
<polygon fill="midnightblue" stroke="midnightblue" points="182.976,-36.8966 191.477,-30.5731 180.888,-30.2152 182.976,-36.8966"/>
</g>
<!-- Node21 -->
<g id="node21" class="node"><title>Node21</title>
<g id="a_node21"><a xlink:href="../../d6/d95/classparser_1_1_parser.html#a4f582c65390bddc57219c0b5c31ef5e7" target="_top" xlink:title="parser.Parser.makeTree">
<polygon fill="white" stroke="black" points="175,-234.5 175,-253.5 303,-253.5 303,-234.5 175,-234.5"/>
<text text-anchor="middle" x="239" y="-241.5" font-family="Helvetica,sans-Serif" font-size="10.00">parser.Parser.makeTree</text>
</a>
</g>
</g>
<!-- Node1&#45;&gt;Node21 -->
<g id="edge27" class="edge"><title>Node1&#45;&gt;Node21</title>
<path fill="none" stroke="midnightblue" d="M73.1813,-157.529C91.2392,-167.502 120.509,-183.552 146,-197 167.344,-208.26 191.665,-220.667 209.939,-229.905"/>
<polygon fill="midnightblue" stroke="midnightblue" points="208.39,-233.044 218.895,-234.424 211.544,-226.794 208.39,-233.044"/>
</g>
<!-- Node3 -->
<g id="node3" class="node"><title>Node3</title>
<g id="a_node3"><a xlink:href="../../d9/d1b/classcommand_1_1_command_factory.html#a279e89b924975cea17afc7770530eabc" target="_top" xlink:title="command.CommandFactory.checkMake">
<polygon fill="white" stroke="black" points="368,-365.5 368,-384.5 576,-384.5 576,-365.5 368,-365.5"/>
<text text-anchor="middle" x="472" y="-372.5" font-family="Helvetica,sans-Serif" font-size="10.00">command.CommandFactory.checkMake</text>
</a>
</g>
</g>
<!-- Node2&#45;&gt;Node3 -->
<g id="edge2" class="edge"><title>Node2&#45;&gt;Node3</title>
<path fill="none" stroke="midnightblue" d="M331.629,-363.537C340.14,-364.237 348.831,-364.951 357.507,-365.665"/>
<polygon fill="midnightblue" stroke="midnightblue" points="357.42,-369.17 367.673,-366.501 357.994,-362.193 357.42,-369.17"/>
</g>
<!-- Node5 -->
<g id="node5" class="node"><title>Node5</title>
<g id="a_node5"><a xlink:href="../../d9/d1b/classcommand_1_1_command_factory.html#abd97ea3e22afc09e07ed1d4fd039d11f" target="_top" xlink:title="command.CommandFactory.reflectCMD">
<polygon fill="white" stroke="black" points="368.5,-408.5 368.5,-427.5 575.5,-427.5 575.5,-408.5 368.5,-408.5"/>
<text text-anchor="middle" x="472" y="-415.5" font-family="Helvetica,sans-Serif" font-size="10.00">command.CommandFactory.reflectCMD</text>
</a>
</g>
</g>
<!-- Node2&#45;&gt;Node5 -->
<g id="edge4" class="edge"><title>Node2&#45;&gt;Node5</title>
<path fill="none" stroke="midnightblue" d="M288.13,-371.028C312.048,-378.307 341.445,-386.971 368,-394 384.095,-398.26 401.712,-402.514 417.752,-406.231"/>
<polygon fill="midnightblue" stroke="midnightblue" points="416.978,-409.644 427.508,-408.471 418.545,-402.822 416.978,-409.644"/>
</g>
<!-- Node10 -->
<g id="node10" class="node"><title>Node10</title>
<g id="a_node10"><a xlink:href="../../d9/d1b/classcommand_1_1_command_factory.html#a947fdc151e857ea74564d0d1fe268246" target="_top" xlink:title="command.CommandFactory.translate\lCommand">
<polygon fill="white" stroke="black" points="612.5,-311 612.5,-341 809.5,-341 809.5,-311 612.5,-311"/>
<text text-anchor="start" x="620.5" y="-329" font-family="Helvetica,sans-Serif" font-size="10.00">command.CommandFactory.translate</text>
<text text-anchor="middle" x="711" y="-318" font-family="Helvetica,sans-Serif" font-size="10.00">Command</text>
</a>
</g>
</g>
<!-- Node2&#45;&gt;Node10 -->
<g id="edge9" class="edge"><title>Node2&#45;&gt;Node10</title>
<path fill="none" stroke="midnightblue" d="M331.736,-350.144C409.233,-345.198 520.344,-338.106 602.099,-332.887"/>
<polygon fill="midnightblue" stroke="midnightblue" points="602.666,-336.358 612.423,-332.228 602.22,-329.373 602.666,-336.358"/>
</g>
<!-- Node4 -->
<g id="node4" class="node"><title>Node4</title>
<g id="a_node4"><a xlink:href="../../d9/d1b/classcommand_1_1_command_factory.html#a469ad48137c966b10612f72713a295f0" target="_top" xlink:title="command.CommandFactory.add\lVariable">
<polygon fill="white" stroke="black" points="624.5,-360 624.5,-390 797.5,-390 797.5,-360 624.5,-360"/>
<text text-anchor="start" x="632.5" y="-378" font-family="Helvetica,sans-Serif" font-size="10.00">command.CommandFactory.add</text>
<text text-anchor="middle" x="711" y="-367" font-family="Helvetica,sans-Serif" font-size="10.00">Variable</text>
</a>
</g>
</g>
<!-- Node3&#45;&gt;Node4 -->
<g id="edge3" class="edge"><title>Node3&#45;&gt;Node4</title>
<path fill="none" stroke="midnightblue" d="M576.262,-375C588.834,-375 601.638,-375 614.096,-375"/>
<polygon fill="midnightblue" stroke="midnightblue" points="614.466,-378.5 624.466,-375 614.466,-371.5 614.466,-378.5"/>
</g>
<!-- Node6 -->
<g id="node6" class="node"><title>Node6</title>
<g id="a_node6"><a xlink:href="../../d9/d1b/classcommand_1_1_command_factory.html#aed43691d920feaca374f4692bd238680" target="_top" xlink:title="command.CommandFactory.make\lParams">
<polygon fill="white" stroke="black" points="620,-409 620,-439 802,-439 802,-409 620,-409"/>
<text text-anchor="start" x="628" y="-427" font-family="Helvetica,sans-Serif" font-size="10.00">command.CommandFactory.make</text>
<text text-anchor="middle" x="711" y="-416" font-family="Helvetica,sans-Serif" font-size="10.00">Params</text>
</a>
</g>
</g>
<!-- Node5&#45;&gt;Node6 -->
<g id="edge5" class="edge"><title>Node5&#45;&gt;Node6</title>
<path fill="none" stroke="midnightblue" d="M575.573,-420.597C586.875,-420.883 598.374,-421.174 609.649,-421.459"/>
<polygon fill="midnightblue" stroke="midnightblue" points="609.842,-424.965 619.928,-421.72 610.02,-417.968 609.842,-424.965"/>
</g>
<!-- Node7 -->
<g id="node7" class="node"><title>Node7</title>
<g id="a_node7"><a xlink:href="../../d9/d1b/classcommand_1_1_command_factory.html#a3a7f93181d4b08336437520928c5108b" target="_top" xlink:title="command.CommandFactory.add\lParam">
<polygon fill="white" stroke="black" points="846.5,-409 846.5,-439 1019.5,-439 1019.5,-409 846.5,-409"/>
<text text-anchor="start" x="854.5" y="-427" font-family="Helvetica,sans-Serif" font-size="10.00">command.CommandFactory.add</text>
<text text-anchor="middle" x="933" y="-416" font-family="Helvetica,sans-Serif" font-size="10.00">Param</text>
</a>
</g>
</g>
<!-- Node6&#45;&gt;Node7 -->
<g id="edge6" class="edge"><title>Node6&#45;&gt;Node7</title>
<path fill="none" stroke="midnightblue" d="M802.117,-424C813.292,-424 824.75,-424 836.009,-424"/>
<polygon fill="midnightblue" stroke="midnightblue" points="836.279,-427.5 846.279,-424 836.279,-420.5 836.279,-427.5"/>
</g>
<!-- Node8 -->
<g id="node8" class="node"><title>Node8</title>
<g id="a_node8"><a xlink:href="../../d9/d1b/classcommand_1_1_command_factory.html#aac2ddc62b74ef8c562cb19841b6a21c6" target="_top" xlink:title="command.CommandFactory.is\lVariable">
<polygon fill="white" stroke="black" points="1063,-434 1063,-464 1225,-464 1225,-434 1063,-434"/>
<text text-anchor="start" x="1071" y="-452" font-family="Helvetica,sans-Serif" font-size="10.00">command.CommandFactory.is</text>
<text text-anchor="middle" x="1144" y="-441" font-family="Helvetica,sans-Serif" font-size="10.00">Variable</text>
</a>
</g>
</g>
<!-- Node7&#45;&gt;Node8 -->
<g id="edge7" class="edge"><title>Node7&#45;&gt;Node8</title>
<path fill="none" stroke="midnightblue" d="M1019.61,-434.241C1030.57,-435.552 1041.82,-436.897 1052.85,-438.217"/>
<polygon fill="midnightblue" stroke="midnightblue" points="1052.56,-441.707 1062.91,-439.419 1053.39,-434.756 1052.56,-441.707"/>
</g>
<!-- Node9 -->
<g id="node9" class="node"><title>Node9</title>
<g id="a_node9"><a xlink:href="../../d9/d1b/classcommand_1_1_command_factory.html#a4a093c2b17212339a5c43b581f818682" target="_top" xlink:title="command.CommandFactory.read\lVariable">
<polygon fill="white" stroke="black" points="1056,-385 1056,-415 1232,-415 1232,-385 1056,-385"/>
<text text-anchor="start" x="1064" y="-403" font-family="Helvetica,sans-Serif" font-size="10.00">command.CommandFactory.read</text>
<text text-anchor="middle" x="1144" y="-392" font-family="Helvetica,sans-Serif" font-size="10.00">Variable</text>
</a>
</g>
</g>
<!-- Node7&#45;&gt;Node9 -->
<g id="edge8" class="edge"><title>Node7&#45;&gt;Node9</title>
<path fill="none" stroke="midnightblue" d="M1019.61,-414.169C1028.2,-413.183 1036.96,-412.176 1045.66,-411.177"/>
<polygon fill="midnightblue" stroke="midnightblue" points="1046.29,-414.628 1055.83,-410.01 1045.49,-407.674 1046.29,-414.628"/>
</g>
<!-- Node12 -->
<g id="node12" class="node"><title>Node12</title>
<g id="a_node12"><a xlink:href="../../d3/dcc/classparser_1_1_node.html#aa67bc0d39227232943abec9b95b23235" target="_top" xlink:title="parser.Node.getChild1">
<polygon fill="white" stroke="black" points="410.5,-76.5 410.5,-95.5 533.5,-95.5 533.5,-76.5 410.5,-76.5"/>
<text text-anchor="middle" x="472" y="-83.5" font-family="Helvetica,sans-Serif" font-size="10.00">parser.Node.getChild1</text>
</a>
</g>
</g>
<!-- Node11&#45;&gt;Node12 -->
<g id="edge11" class="edge"><title>Node11&#45;&gt;Node12</title>
<path fill="none" stroke="midnightblue" d="M327.002,-79.143C351.177,-80.2942 377.13,-81.53 400.251,-82.631"/>
<polygon fill="midnightblue" stroke="midnightblue" points="400.16,-86.1305 410.315,-83.1102 400.493,-79.1385 400.16,-86.1305"/>
</g>
<!-- Node13 -->
<g id="node13" class="node"><title>Node13</title>
<g id="a_node13"><a xlink:href="../../d3/dcc/classparser_1_1_node.html#a0f13775acc62af77cdde90dbeaf26bbc" target="_top" xlink:title="parser.Node.getChild2">
<polygon fill="white" stroke="black" points="410.5,-114.5 410.5,-133.5 533.5,-133.5 533.5,-114.5 410.5,-114.5"/>
<text text-anchor="middle" x="472" y="-121.5" font-family="Helvetica,sans-Serif" font-size="10.00">parser.Node.getChild2</text>
</a>
</g>
</g>
<!-- Node11&#45;&gt;Node13 -->
<g id="edge12" class="edge"><title>Node11&#45;&gt;Node13</title>
<path fill="none" stroke="midnightblue" d="M301.393,-90.0172C322.461,-95.0033 346.218,-100.441 368,-105 380.429,-107.601 393.741,-110.197 406.53,-112.597"/>
<polygon fill="midnightblue" stroke="midnightblue" points="406.176,-116.091 416.647,-114.476 407.455,-109.209 406.176,-116.091"/>
</g>
<!-- Node14 -->
<g id="node14" class="node"><title>Node14</title>
<g id="a_node14"><a xlink:href="../../d3/dcc/classparser_1_1_node.html#a9c12e8d4375a7517eae0a35724b253c4" target="_top" xlink:title="parser.Node.getValue">
<polygon fill="white" stroke="black" points="412,-0.5 412,-19.5 532,-19.5 532,-0.5 412,-0.5"/>
<text text-anchor="middle" x="472" y="-7.5" font-family="Helvetica,sans-Serif" font-size="10.00">parser.Node.getValue</text>
</a>
</g>
</g>
<!-- Node11&#45;&gt;Node14 -->
<g id="edge13" class="edge"><title>Node11&#45;&gt;Node14</title>
<path fill="none" stroke="midnightblue" d="M279.802,-59.8958C310.713,-48.3169 351.073,-33.5702 368,-29 378.862,-26.0672 390.491,-23.4422 401.881,-21.1475"/>
<polygon fill="midnightblue" stroke="midnightblue" points="402.656,-24.5624 411.803,-19.2166 401.319,-17.6913 402.656,-24.5624"/>
</g>
<!-- Node15 -->
<g id="node15" class="node"><title>Node15</title>
<g id="a_node15"><a xlink:href="../../d3/dcc/classparser_1_1_node.html#a6bbc0c61aaa261077eb87cfc4e2b45dc" target="_top" xlink:title="parser.Node.numChildren">
<polygon fill="white" stroke="black" points="402.5,-38.5 402.5,-57.5 541.5,-57.5 541.5,-38.5 402.5,-38.5"/>
<text text-anchor="middle" x="472" y="-45.5" font-family="Helvetica,sans-Serif" font-size="10.00">parser.Node.numChildren</text>
</a>
</g>
</g>
<!-- Node11&#45;&gt;Node15 -->
<g id="edge14" class="edge"><title>Node11&#45;&gt;Node15</title>
<path fill="none" stroke="midnightblue" d="M327.002,-64.8309C348.434,-62.3259 371.263,-59.6576 392.278,-57.2013"/>
<polygon fill="midnightblue" stroke="midnightblue" points="392.908,-60.6515 402.434,-56.0142 392.096,-53.6989 392.908,-60.6515"/>
</g>
<!-- Node16&#45;&gt;Node12 -->
<g id="edge16" class="edge"><title>Node16&#45;&gt;Node12</title>
<path fill="none" stroke="midnightblue" d="M312.637,-157.85C319.431,-155.092 326.006,-151.838 332,-148 352.99,-134.559 346.471,-117.559 368,-105 377.84,-99.2598 389.032,-95.1912 400.326,-92.3199"/>
<polygon fill="midnightblue" stroke="midnightblue" points="401.255,-95.6986 410.245,-90.0928 399.721,-88.8686 401.255,-95.6986"/>
</g>
<!-- Node16&#45;&gt;Node13 -->
<g id="edge17" class="edge"><title>Node16&#45;&gt;Node13</title>
<path fill="none" stroke="midnightblue" d="M301.393,-157.983C322.461,-152.997 346.218,-147.559 368,-143 380.429,-140.399 393.741,-137.803 406.53,-135.403"/>
<polygon fill="midnightblue" stroke="midnightblue" points="407.455,-138.791 416.647,-133.524 406.176,-131.909 407.455,-138.791"/>
</g>
<!-- Node17 -->
<g id="node17" class="node"><title>Node17</title>
<g id="a_node17"><a xlink:href="../../d3/dcc/classparser_1_1_node.html#ab14db24c0724dec4387e29d513008e2e" target="_top" xlink:title="parser.Node.hasChildren">
<polygon fill="white" stroke="black" points="405,-152.5 405,-171.5 539,-171.5 539,-152.5 405,-152.5"/>
<text text-anchor="middle" x="472" y="-159.5" font-family="Helvetica,sans-Serif" font-size="10.00">parser.Node.hasChildren</text>
</a>
</g>
</g>
<!-- Node16&#45;&gt;Node17 -->
<g id="edge18" class="edge"><title>Node16&#45;&gt;Node17</title>
<path fill="none" stroke="midnightblue" d="M316.599,-169.352C341.647,-168.16 369.458,-166.835 394.499,-165.643"/>
<polygon fill="midnightblue" stroke="midnightblue" points="394.855,-169.13 404.677,-165.158 394.522,-162.138 394.855,-169.13"/>
</g>
<!-- Node18 -->
<g id="node18" class="node"><title>Node18</title>
<g id="a_node18"><a xlink:href="../../d3/dcc/classparser_1_1_node.html#aa92667a825777b3d757bc3b1a247ac20" target="_top" xlink:title="parser.Node.isLeaf">
<polygon fill="white" stroke="black" points="419,-190.5 419,-209.5 525,-209.5 525,-190.5 419,-190.5"/>
<text text-anchor="middle" x="472" y="-197.5" font-family="Helvetica,sans-Serif" font-size="10.00">parser.Node.isLeaf</text>
</a>
</g>
</g>
<!-- Node16&#45;&gt;Node18 -->
<g id="edge19" class="edge"><title>Node16&#45;&gt;Node18</title>
<path fill="none" stroke="midnightblue" d="M316.599,-181.953C346.426,-185.439 380.171,-189.384 408.49,-192.694"/>
<polygon fill="midnightblue" stroke="midnightblue" points="408.322,-196.198 418.661,-193.882 409.135,-189.245 408.322,-196.198"/>
</g>
<!-- Node19&#45;&gt;Node12 -->
<g id="edge21" class="edge"><title>Node19&#45;&gt;Node12</title>
<path fill="none" stroke="midnightblue" d="M308.058,-112.804C338.07,-107.867 373.254,-102.079 403.232,-97.148"/>
<polygon fill="midnightblue" stroke="midnightblue" points="403.885,-100.588 413.184,-95.5109 402.748,-93.6806 403.885,-100.588"/>
</g>
<!-- Node19&#45;&gt;Node13 -->
<g id="edge22" class="edge"><title>Node19&#45;&gt;Node13</title>
<path fill="none" stroke="midnightblue" d="M308.058,-124C337.106,-124 370.999,-124 400.328,-124"/>
<polygon fill="midnightblue" stroke="midnightblue" points="400.496,-127.5 410.496,-124 400.496,-120.5 400.496,-127.5"/>
</g>
<!-- Node19&#45;&gt;Node17 -->
<g id="edge23" class="edge"><title>Node19&#45;&gt;Node17</title>
<path fill="none" stroke="midnightblue" d="M308.058,-135.196C338.07,-140.133 373.254,-145.921 403.232,-150.852"/>
<polygon fill="midnightblue" stroke="midnightblue" points="402.748,-154.319 413.184,-152.489 403.885,-147.412 402.748,-154.319"/>
</g>
<!-- Node19&#45;&gt;Node18 -->
<g id="edge24" class="edge"><title>Node19&#45;&gt;Node18</title>
<path fill="none" stroke="midnightblue" d="M308.277,-137.778C316.507,-140.601 324.606,-143.975 332,-148 351.063,-158.379 348.572,-171.322 368,-181 380.573,-187.264 394.937,-191.477 408.866,-194.307"/>
<polygon fill="midnightblue" stroke="midnightblue" points="408.435,-197.786 418.9,-196.133 409.688,-190.899 408.435,-197.786"/>
</g>
<!-- Node20&#45;&gt;Node14 -->
<g id="edge26" class="edge"><title>Node20&#45;&gt;Node14</title>
<path fill="none" stroke="midnightblue" d="M303.122,-17.9942C333.606,-16.5426 370.266,-14.7969 401.541,-13.3076"/>
<polygon fill="midnightblue" stroke="midnightblue" points="402.102,-16.7849 411.924,-12.8131 401.769,-9.79284 402.102,-16.7849"/>
</g>
<!-- Node22 -->
<g id="node22" class="node"><title>Node22</title>
<g id="a_node22"><a xlink:href="../../d9/d1b/classcommand_1_1_command_factory.html#a87bf7e648425bb22124367cabedb3327" target="_top" xlink:title="command.CommandFactory.get\lNumParameters">
<polygon fill="white" stroke="black" points="387,-278 387,-308 557,-308 557,-278 387,-278"/>
<text text-anchor="start" x="395" y="-296" font-family="Helvetica,sans-Serif" font-size="10.00">command.CommandFactory.get</text>
<text text-anchor="middle" x="472" y="-285" font-family="Helvetica,sans-Serif" font-size="10.00">NumParameters</text>
</a>
</g>
</g>
<!-- Node21&#45;&gt;Node22 -->
<g id="edge28" class="edge"><title>Node21&#45;&gt;Node22</title>
<path fill="none" stroke="midnightblue" d="M284.813,-253.506C314.675,-259.84 354.78,-268.347 390.121,-275.844"/>
<polygon fill="midnightblue" stroke="midnightblue" points="389.441,-279.277 399.95,-277.929 390.894,-272.43 389.441,-279.277"/>
</g>
<!-- Node23 -->
<g id="node23" class="node"><title>Node23</title>
<g id="a_node23"><a xlink:href="../../d9/d1b/classcommand_1_1_command_factory.html#a0fca3b89ecf4ce07546cd4dc0f3820ea" target="_top" xlink:title="command.CommandFactory.initialize\lLoopVariables">
<polygon fill="white" stroke="black" points="375.5,-229 375.5,-259 568.5,-259 568.5,-229 375.5,-229"/>
<text text-anchor="start" x="383.5" y="-247" font-family="Helvetica,sans-Serif" font-size="10.00">command.CommandFactory.initialize</text>
<text text-anchor="middle" x="472" y="-236" font-family="Helvetica,sans-Serif" font-size="10.00">LoopVariables</text>
</a>
</g>
</g>
<!-- Node21&#45;&gt;Node23 -->
<g id="edge30" class="edge"><title>Node21&#45;&gt;Node23</title>
<path fill="none" stroke="midnightblue" d="M303.122,-244C322.38,-244 344.104,-244 365.377,-244"/>
<polygon fill="midnightblue" stroke="midnightblue" points="365.439,-247.5 375.439,-244 365.439,-240.5 365.439,-247.5"/>
</g>
<!-- Node22&#45;&gt;Node10 -->
<g id="edge29" class="edge"><title>Node22&#45;&gt;Node10</title>
<path fill="none" stroke="midnightblue" d="M557.225,-304.727C571.85,-306.764 587.237,-308.906 602.384,-311.016"/>
<polygon fill="midnightblue" stroke="midnightblue" points="601.906,-314.483 612.294,-312.395 602.872,-307.55 601.906,-314.483"/>
</g>
<!-- Node24 -->
<g id="node24" class="node"><title>Node24</title>
<g id="a_node24"><a xlink:href="../../d9/d1b/classcommand_1_1_command_factory.html#a8227888e11d7f80629e7d855aa7894a8" target="_top" xlink:title="command.CommandFactory.check\lDotimes">
<polygon fill="white" stroke="black" points="620,-262 620,-292 802,-292 802,-262 620,-262"/>
<text text-anchor="start" x="628" y="-280" font-family="Helvetica,sans-Serif" font-size="10.00">command.CommandFactory.check</text>
<text text-anchor="middle" x="711" y="-269" font-family="Helvetica,sans-Serif" font-size="10.00">Dotimes</text>
</a>
</g>
</g>
<!-- Node23&#45;&gt;Node24 -->
<g id="edge31" class="edge"><title>Node23&#45;&gt;Node24</title>
<path fill="none" stroke="midnightblue" d="M568.714,-257.327C582.125,-259.195 595.94,-261.118 609.438,-262.998"/>
<polygon fill="midnightblue" stroke="midnightblue" points="609.299,-266.512 619.686,-264.425 610.264,-259.579 609.299,-266.512"/>
</g>
<!-- Node25 -->
<g id="node25" class="node"><title>Node25</title>
<g id="a_node25"><a xlink:href="../../d9/d1b/classcommand_1_1_command_factory.html#a5f698c7496a9d533d6350fac6c3ee567" target="_top" xlink:title="command.CommandFactory.checkFor">
<polygon fill="white" stroke="black" points="612.5,-223.5 612.5,-242.5 809.5,-242.5 809.5,-223.5 612.5,-223.5"/>
<text text-anchor="middle" x="711" y="-230.5" font-family="Helvetica,sans-Serif" font-size="10.00">command.CommandFactory.checkFor</text>
</a>
</g>
</g>
<!-- Node23&#45;&gt;Node25 -->
<g id="edge32" class="edge"><title>Node23&#45;&gt;Node25</title>
<path fill="none" stroke="midnightblue" d="M568.714,-239.558C579.73,-239.046 591.019,-238.522 602.181,-238.004"/>
<polygon fill="midnightblue" stroke="midnightblue" points="602.558,-241.491 612.385,-237.531 602.233,-234.498 602.558,-241.491"/>
</g>
<!-- Node26 -->
<g id="node26" class="node"><title>Node26</title>
<g id="a_node26"><a xlink:href="../../d9/d1b/classcommand_1_1_command_factory.html#afb06a581338dad8003d851d2d490fc5e" target="_top" xlink:title="command.CommandFactory.check\lRepeat">
<polygon fill="white" stroke="black" points="620,-174 620,-204 802,-204 802,-174 620,-174"/>
<text text-anchor="start" x="628" y="-192" font-family="Helvetica,sans-Serif" font-size="10.00">command.CommandFactory.check</text>
<text text-anchor="middle" x="711" y="-181" font-family="Helvetica,sans-Serif" font-size="10.00">Repeat</text>
</a>
</g>
</g>
<!-- Node23&#45;&gt;Node26 -->
<g id="edge33" class="edge"><title>Node23&#45;&gt;Node26</title>
<path fill="none" stroke="midnightblue" d="M537.761,-228.971C567.937,-221.968 604.01,-213.597 635.329,-206.329"/>
<polygon fill="midnightblue" stroke="midnightblue" points="636.367,-209.681 645.317,-204.011 634.785,-202.862 636.367,-209.681"/>
</g>
</g>
</svg>
