<?xml version="1.0" encoding="UTF-8" standalone="no"?>
<!DOCTYPE svg PUBLIC "-//W3C//DTD SVG 1.1//EN"
 "http://www.w3.org/Graphics/SVG/1.1/DTD/svg11.dtd">
<!-- Generated by graphviz version 2.36.0 (20140111.2315)
 -->
<!-- Title: parser.Parser.getNodeBeforeToReplace Pages: 1 -->
<svg width="334pt" height="180pt"
 viewBox="0.00 0.00 334.00 180.00" xmlns="http://www.w3.org/2000/svg" xmlns:xlink="http://www.w3.org/1999/xlink">
<g id="graph0" class="graph" transform="scale(1 1) rotate(0) translate(4 176)">
<title>parser.Parser.getNodeBeforeToReplace</title>
<polygon fill="white" stroke="none" points="-4,4 -4,-176 330,-176 330,4 -4,4"/>
<!-- Node1 -->
<g id="node1" class="node"><title>Node1</title>
<polygon fill="#bfbfbf" stroke="black" points="0.5,-71 0.5,-101 155.5,-101 155.5,-71 0.5,-71"/>
<text text-anchor="start" x="8.5" y="-89" font-family="Helvetica,sans-Serif" font-size="10.00">parser.Parser.getNodeBefore</text>
<text text-anchor="middle" x="78" y="-78" font-family="Helvetica,sans-Serif" font-size="10.00">ToReplace</text>
</g>
<!-- Node2 -->
<g id="node2" class="node"><title>Node2</title>
<g id="a_node2"><a xlink:href="../../d3/dcc/classparser_1_1_node.html#aa67bc0d39227232943abec9b95b23235" target="_top" xlink:title="parser.Node.getChild1">
<polygon fill="white" stroke="black" points="197.5,-152.5 197.5,-171.5 320.5,-171.5 320.5,-152.5 197.5,-152.5"/>
<text text-anchor="middle" x="259" y="-159.5" font-family="Helvetica,sans-Serif" font-size="10.00">parser.Node.getChild1</text>
</a>
</g>
</g>
<!-- Node1&#45;&gt;Node2 -->
<g id="edge1" class="edge"><title>Node1&#45;&gt;Node2</title>
<path fill="none" stroke="midnightblue" d="M105.295,-101.035C127.795,-113.466 161.316,-130.967 192,-143 197.901,-145.314 204.196,-147.486 210.469,-149.476"/>
<polygon fill="midnightblue" stroke="midnightblue" points="209.661,-152.888 220.246,-152.446 211.695,-146.19 209.661,-152.888"/>
</g>
<!-- Node3 -->
<g id="node3" class="node"><title>Node3</title>
<g id="a_node3"><a xlink:href="../../d3/dcc/classparser_1_1_node.html#a0f13775acc62af77cdde90dbeaf26bbc" target="_top" xlink:title="parser.Node.getChild2">
<polygon fill="white" stroke="black" points="197.5,-114.5 197.5,-133.5 320.5,-133.5 320.5,-114.5 197.5,-114.5"/>
<text text-anchor="middle" x="259" y="-121.5" font-family="Helvetica,sans-Serif" font-size="10.00">parser.Node.getChild2</text>
</a>
</g>
</g>
<!-- Node1&#45;&gt;Node3 -->
<g id="edge2" class="edge"><title>Node1&#45;&gt;Node3</title>
<path fill="none" stroke="midnightblue" d="M149.746,-101.019C167.468,-104.781 186.218,-108.761 203.044,-112.333"/>
<polygon fill="midnightblue" stroke="midnightblue" points="202.737,-115.846 213.246,-114.499 204.19,-108.999 202.737,-115.846"/>
</g>
<!-- Node4 -->
<g id="node4" class="node"><title>Node4</title>
<g id="a_node4"><a xlink:href="../../d3/dcc/classparser_1_1_node.html#a9c12e8d4375a7517eae0a35724b253c4" target="_top" xlink:title="parser.Node.getValue">
<polygon fill="white" stroke="black" points="199,-76.5 199,-95.5 319,-95.5 319,-76.5 199,-76.5"/>
<text text-anchor="middle" x="259" y="-83.5" font-family="Helvetica,sans-Serif" font-size="10.00">parser.Node.getValue</text>
</a>
</g>
</g>
<!-- Node1&#45;&gt;Node4 -->
<g id="edge3" class="edge"><title>Node1&#45;&gt;Node4</title>
<path fill="none" stroke="midnightblue" d="M155.691,-86C166.621,-86 177.812,-86 188.592,-86"/>
<polygon fill="midnightblue" stroke="midnightblue" points="188.78,-89.5001 198.78,-86 188.78,-82.5001 188.78,-89.5001"/>
</g>
<!-- Node5 -->
<g id="node5" class="node"><title>Node5</title>
<g id="a_node5"><a xlink:href="../../d3/dcc/classparser_1_1_node.html#ab14db24c0724dec4387e29d513008e2e" target="_top" xlink:title="parser.Node.hasChildren">
<polygon fill="white" stroke="black" points="192,-38.5 192,-57.5 326,-57.5 326,-38.5 192,-38.5"/>
<text text-anchor="middle" x="259" y="-45.5" font-family="Helvetica,sans-Serif" font-size="10.00">parser.Node.hasChildren</text>
</a>
</g>
</g>
<!-- Node1&#45;&gt;Node5 -->
<g id="edge4" class="edge"><title>Node1&#45;&gt;Node5</title>
<path fill="none" stroke="midnightblue" d="M149.746,-70.9814C167.468,-67.219 186.218,-63.2386 203.044,-59.6666"/>
<polygon fill="midnightblue" stroke="midnightblue" points="204.19,-63.0013 213.246,-57.5009 202.737,-56.1539 204.19,-63.0013"/>
</g>
<!-- Node6 -->
<g id="node6" class="node"><title>Node6</title>
<g id="a_node6"><a xlink:href="../../d3/dcc/classparser_1_1_node.html#aa92667a825777b3d757bc3b1a247ac20" target="_top" xlink:title="parser.Node.isLeaf">
<polygon fill="white" stroke="black" points="206,-0.5 206,-19.5 312,-19.5 312,-0.5 206,-0.5"/>
<text text-anchor="middle" x="259" y="-7.5" font-family="Helvetica,sans-Serif" font-size="10.00">parser.Node.isLeaf</text>
</a>
</g>
</g>
<!-- Node1&#45;&gt;Node6 -->
<g id="edge5" class="edge"><title>Node1&#45;&gt;Node6</title>
<path fill="none" stroke="midnightblue" d="M105.295,-70.9646C127.795,-58.5345 161.316,-41.0333 192,-29 197.901,-26.6859 204.196,-24.5137 210.469,-22.5241"/>
<polygon fill="midnightblue" stroke="midnightblue" points="211.695,-25.8095 220.246,-19.5539 209.661,-19.1118 211.695,-25.8095"/>
</g>
</g>
</svg>
