<?xml version="1.0" encoding="UTF-8" standalone="no"?>
<!DOCTYPE svg PUBLIC "-//W3C//DTD SVG 1.1//EN"
 "http://www.w3.org/Graphics/SVG/1.1/DTD/svg11.dtd">
<!-- Generated by graphviz version 2.36.0 (20140111.2315)
 -->
<!-- Title: parser.Parser.main Pages: 1 -->
<!--zoomable 487 -->
<svg id="main" version="1.1" xmlns="http://www.w3.org/2000/svg" xmlns:xlink="http://www.w3.org/1999/xlink" xml:space="preserve" onload="init(evt)">
<style type="text/css"><![CDATA[
.edge:hover path { stroke: red; }
.edge:hover polygon { stroke: red; fill: red; }
]]></style>
<script type="text/javascript"><![CDATA[
var edges = document.getElementsByTagName('g');
if (edges && edges.length) {
  for (var i=0;i<edges.length;i++) {
    if (edges[i].id.substr(0,4)=='edge') {
      edges[i].setAttribute('class','edge');
    }
  }
}
]]></script>
        <defs>
                <circle id="rim" cx="0" cy="0" r="7"/>
                <circle id="rim2" cx="0" cy="0" r="3.5"/>
                <g id="zoomPlus">
                        <use xlink:href="#rim" fill="#404040">
                                <set attributeName="fill" to="#808080" begin="zoomplus.mouseover" end="zoomplus.mouseout"/>
                        </use>
                        <path d="M-4,0h8M0,-4v8" fill="none" stroke="white" stroke-width="1.5" pointer-events="none"/>
                </g>
                <g id="zoomMin">
                        <use xlink:href="#rim" fill="#404040">
                                <set attributeName="fill" to="#808080" begin="zoomminus.mouseover" end="zoomminus.mouseout"/>
                        </use>
                        <path d="M-4,0h8" fill="none" stroke="white" stroke-width="1.5" pointer-events="none"/>
                </g>
                <g id="dirArrow">
                        <path fill="none" stroke="white" stroke-width="1.5" d="M0,-3.0v7 M-2.5,-0.5L0,-3.0L2.5,-0.5"/>
                </g>
               <g id="resetDef">
                       <use xlink:href="#rim2" fill="#404040">
                               <set attributeName="fill" to="#808080" begin="reset.mouseover" end="reset.mouseout"/>
                       </use>
               </g>
        </defs>

<script type="text/javascript">
var viewWidth = 1392;
var viewHeight = 487;
var sectionId = 'dynsection-10';
</script>
<script xlink:href="../../svgpan.js"/>
<svg id="graph" class="graph">
<g id="viewport">
<title>parser.Parser.main</title>
<polygon fill="white" stroke="none" points="-4,4 -4,-483 1388,-483 1388,4 -4,4"/>
<!-- Node1 -->
<g id="node1" class="node"><title>Node1</title>
<polygon fill="#bfbfbf" stroke="black" points="0,-125.5 0,-144.5 106,-144.5 106,-125.5 0,-125.5"/>
<text text-anchor="middle" x="53" y="-132.5" font-family="Helvetica,sans-Serif" font-size="10.00">parser.Parser.main</text>
</g>
<!-- Node2 -->
<g id="node2" class="node"><title>Node2</title>
<g id="a_node2"><a xlink:href="../../d6/d95/classparser_1_1_parser.html#a240c75608624a9c67402a296855c4d1d" target="_top" xlink:title="parser.Parser.initialize\lCommands">
<polygon fill="white" stroke="black" points="142,-120 142,-150 262,-150 262,-120 142,-120"/>
<text text-anchor="start" x="150" y="-138" font-family="Helvetica,sans-Serif" font-size="10.00">parser.Parser.initialize</text>
<text text-anchor="middle" x="202" y="-127" font-family="Helvetica,sans-Serif" font-size="10.00">Commands</text>
</a>
</g>
</g>
<!-- Node1&#45;&gt;Node2 -->
<g id="edge1" class="edge"><title>Node1&#45;&gt;Node2</title>
<path fill="none" stroke="midnightblue" d="M106.241,-135C114.545,-135 123.245,-135 131.864,-135"/>
<polygon fill="midnightblue" stroke="midnightblue" points="131.918,-138.5 141.918,-135 131.918,-131.5 131.918,-138.5"/>
</g>
<!-- Node11 -->
<g id="node11" class="node"><title>Node11</title>
<g id="a_node11"><a xlink:href="../../d6/d95/classparser_1_1_parser.html#a4ecbffc246c3add017c4720eed4c6da9" target="_top" xlink:title="parser.Parser.parse">
<polygon fill="white" stroke="black" points="147.5,-207.5 147.5,-226.5 256.5,-226.5 256.5,-207.5 147.5,-207.5"/>
<text text-anchor="middle" x="202" y="-214.5" font-family="Helvetica,sans-Serif" font-size="10.00">parser.Parser.parse</text>
</a>
</g>
</g>
<!-- Node1&#45;&gt;Node11 -->
<g id="edge10" class="edge"><title>Node1&#45;&gt;Node11</title>
<path fill="none" stroke="midnightblue" d="M71.1505,-144.567C96.7097,-158.824 144.989,-185.756 174.933,-202.459"/>
<polygon fill="midnightblue" stroke="midnightblue" points="173.521,-205.679 183.959,-207.494 176.931,-199.566 173.521,-205.679"/>
</g>
<!-- Node29 -->
<g id="node29" class="node"><title>Node29</title>
<g id="a_node29"><a xlink:href="../../d6/d95/classparser_1_1_parser.html#a4811b7bbe9944e2eb2440a1926568f3f" target="_top" xlink:title="parser.Parser.Parser">
<polygon fill="white" stroke="black" points="146,-81.5 146,-100.5 258,-100.5 258,-81.5 146,-81.5"/>
<text text-anchor="middle" x="202" y="-88.5" font-family="Helvetica,sans-Serif" font-size="10.00">parser.Parser.Parser</text>
</a>
</g>
</g>
<!-- Node1&#45;&gt;Node29 -->
<g id="edge38" class="edge"><title>Node1&#45;&gt;Node29</title>
<path fill="none" stroke="midnightblue" d="M85.8968,-125.453C107.472,-118.995 136.177,-110.403 159.524,-103.415"/>
<polygon fill="midnightblue" stroke="midnightblue" points="160.589,-106.749 169.165,-100.529 158.582,-100.043 160.589,-106.749"/>
</g>
<!-- Node3 -->
<g id="node3" class="node"><title>Node3</title>
<g id="a_node3"><a xlink:href="../../d3/dcc/classparser_1_1_node.html#a9c12e8d4375a7517eae0a35724b253c4" target="_top" xlink:title="parser.Node.getValue">
<polygon fill="white" stroke="black" points="564,-142.5 564,-161.5 684,-161.5 684,-142.5 564,-142.5"/>
<text text-anchor="middle" x="624" y="-149.5" font-family="Helvetica,sans-Serif" font-size="10.00">parser.Node.getValue</text>
</a>
</g>
</g>
<!-- Node2&#45;&gt;Node3 -->
<g id="edge2" class="edge"><title>Node2&#45;&gt;Node3</title>
<path fill="none" stroke="midnightblue" d="M262.285,-137.4C338.94,-140.502 472.221,-145.897 553.538,-149.188"/>
<polygon fill="midnightblue" stroke="midnightblue" points="553.544,-152.691 563.678,-149.599 553.828,-145.697 553.544,-152.691"/>
</g>
<!-- Node4 -->
<g id="node4" class="node"><title>Node4</title>
<g id="a_node4"><a xlink:href="../../d6/d95/classparser_1_1_parser.html#a4f582c65390bddc57219c0b5c31ef5e7" target="_top" xlink:title="parser.Parser.makeTree">
<polygon fill="white" stroke="black" points="327,-87.5 327,-106.5 455,-106.5 455,-87.5 327,-87.5"/>
<text text-anchor="middle" x="391" y="-94.5" font-family="Helvetica,sans-Serif" font-size="10.00">parser.Parser.makeTree</text>
</a>
</g>
</g>
<!-- Node2&#45;&gt;Node4 -->
<g id="edge3" class="edge"><title>Node2&#45;&gt;Node4</title>
<path fill="none" stroke="midnightblue" d="M262.168,-122.977C284.809,-118.376 310.569,-113.141 333.003,-108.582"/>
<polygon fill="midnightblue" stroke="midnightblue" points="333.951,-111.961 343.053,-106.54 332.557,-105.102 333.951,-111.961"/>
</g>
<!-- Node5 -->
<g id="node5" class="node"><title>Node5</title>
<g id="a_node5"><a xlink:href="../../d9/d1b/classcommand_1_1_command_factory.html#a0fca3b89ecf4ce07546cd4dc0f3820ea" target="_top" xlink:title="command.CommandFactory.initialize\lLoopVariables">
<polygon fill="white" stroke="black" points="527.5,-44 527.5,-74 720.5,-74 720.5,-44 527.5,-44"/>
<text text-anchor="start" x="535.5" y="-62" font-family="Helvetica,sans-Serif" font-size="10.00">command.CommandFactory.initialize</text>
<text text-anchor="middle" x="624" y="-51" font-family="Helvetica,sans-Serif" font-size="10.00">LoopVariables</text>
</a>
</g>
</g>
<!-- Node4&#45;&gt;Node5 -->
<g id="edge4" class="edge"><title>Node4&#45;&gt;Node5</title>
<path fill="none" stroke="midnightblue" d="M449.993,-87.46C471.723,-83.8853 497.1,-79.7108 521.616,-75.678"/>
<polygon fill="midnightblue" stroke="midnightblue" points="522.389,-79.0979 531.688,-74.0211 521.252,-72.1908 522.389,-79.0979"/>
</g>
<!-- Node9 -->
<g id="node9" class="node"><title>Node9</title>
<g id="a_node9"><a xlink:href="../../d9/d1b/classcommand_1_1_command_factory.html#a87bf7e648425bb22124367cabedb3327" target="_top" xlink:title="command.CommandFactory.get\lNumParameters">
<polygon fill="white" stroke="black" points="539,-93 539,-123 709,-123 709,-93 539,-93"/>
<text text-anchor="start" x="547" y="-111" font-family="Helvetica,sans-Serif" font-size="10.00">command.CommandFactory.get</text>
<text text-anchor="middle" x="624" y="-100" font-family="Helvetica,sans-Serif" font-size="10.00">NumParameters</text>
</a>
</g>
</g>
<!-- Node4&#45;&gt;Node9 -->
<g id="edge8" class="edge"><title>Node4&#45;&gt;Node9</title>
<path fill="none" stroke="midnightblue" d="M455.122,-100.006C477.781,-101.085 503.853,-102.326 528.59,-103.504"/>
<polygon fill="midnightblue" stroke="midnightblue" points="528.57,-107.007 538.725,-103.987 528.903,-100.015 528.57,-107.007"/>
</g>
<!-- Node6 -->
<g id="node6" class="node"><title>Node6</title>
<g id="a_node6"><a xlink:href="../../d9/d1b/classcommand_1_1_command_factory.html#a8227888e11d7f80629e7d855aa7894a8" target="_top" xlink:title="command.CommandFactory.check\lDotimes">
<polygon fill="white" stroke="black" points="772,-88 772,-118 954,-118 954,-88 772,-88"/>
<text text-anchor="start" x="780" y="-106" font-family="Helvetica,sans-Serif" font-size="10.00">command.CommandFactory.check</text>
<text text-anchor="middle" x="863" y="-95" font-family="Helvetica,sans-Serif" font-size="10.00">Dotimes</text>
</a>
</g>
</g>
<!-- Node5&#45;&gt;Node6 -->
<g id="edge5" class="edge"><title>Node5&#45;&gt;Node6</title>
<path fill="none" stroke="midnightblue" d="M705.899,-74.0192C726.852,-77.9092 749.555,-82.1241 770.988,-86.1032"/>
<polygon fill="midnightblue" stroke="midnightblue" points="770.593,-89.5896 781.063,-87.9738 771.87,-82.7072 770.593,-89.5896"/>
</g>
<!-- Node7 -->
<g id="node7" class="node"><title>Node7</title>
<g id="a_node7"><a xlink:href="../../d9/d1b/classcommand_1_1_command_factory.html#a5f698c7496a9d533d6350fac6c3ee567" target="_top" xlink:title="command.CommandFactory.checkFor">
<polygon fill="white" stroke="black" points="764.5,-49.5 764.5,-68.5 961.5,-68.5 961.5,-49.5 764.5,-49.5"/>
<text text-anchor="middle" x="863" y="-56.5" font-family="Helvetica,sans-Serif" font-size="10.00">command.CommandFactory.checkFor</text>
</a>
</g>
</g>
<!-- Node5&#45;&gt;Node7 -->
<g id="edge6" class="edge"><title>Node5&#45;&gt;Node7</title>
<path fill="none" stroke="midnightblue" d="M720.714,-59C731.73,-59 743.019,-59 754.181,-59"/>
<polygon fill="midnightblue" stroke="midnightblue" points="754.385,-62.5001 764.385,-59 754.384,-55.5001 754.385,-62.5001"/>
</g>
<!-- Node8 -->
<g id="node8" class="node"><title>Node8</title>
<g id="a_node8"><a xlink:href="../../d9/d1b/classcommand_1_1_command_factory.html#afb06a581338dad8003d851d2d490fc5e" target="_top" xlink:title="command.CommandFactory.check\lRepeat">
<polygon fill="white" stroke="black" points="772,-0 772,-30 954,-30 954,-0 772,-0"/>
<text text-anchor="start" x="780" y="-18" font-family="Helvetica,sans-Serif" font-size="10.00">command.CommandFactory.check</text>
<text text-anchor="middle" x="863" y="-7" font-family="Helvetica,sans-Serif" font-size="10.00">Repeat</text>
</a>
</g>
</g>
<!-- Node5&#45;&gt;Node8 -->
<g id="edge7" class="edge"><title>Node5&#45;&gt;Node8</title>
<path fill="none" stroke="midnightblue" d="M705.899,-43.9808C726.852,-40.0908 749.555,-35.8759 770.988,-31.8968"/>
<polygon fill="midnightblue" stroke="midnightblue" points="771.87,-35.2928 781.063,-30.0262 770.593,-28.4104 771.87,-35.2928"/>
</g>
<!-- Node10 -->
<g id="node10" class="node"><title>Node10</title>
<g id="a_node10"><a xlink:href="../../d9/d1b/classcommand_1_1_command_factory.html#a947fdc151e857ea74564d0d1fe268246" target="_top" xlink:title="command.CommandFactory.translate\lCommand">
<polygon fill="white" stroke="black" points="764.5,-246 764.5,-276 961.5,-276 961.5,-246 764.5,-246"/>
<text text-anchor="start" x="772.5" y="-264" font-family="Helvetica,sans-Serif" font-size="10.00">command.CommandFactory.translate</text>
<text text-anchor="middle" x="863" y="-253" font-family="Helvetica,sans-Serif" font-size="10.00">Command</text>
</a>
</g>
</g>
<!-- Node9&#45;&gt;Node10 -->
<g id="edge9" class="edge"><title>Node9&#45;&gt;Node10</title>
<path fill="none" stroke="midnightblue" d="M705.302,-123.048C713.191,-125.829 720.896,-129.116 728,-133 776.816,-159.688 820.826,-208.728 844.248,-237.744"/>
<polygon fill="midnightblue" stroke="midnightblue" points="841.611,-240.051 850.567,-245.71 847.095,-235.701 841.611,-240.051"/>
</g>
<!-- Node11&#45;&gt;Node4 -->
<g id="edge16" class="edge"><title>Node11&#45;&gt;Node4</title>
<path fill="none" stroke="midnightblue" d="M217.074,-207.47C235.542,-195.011 269.012,-172.586 298,-154 320.733,-139.425 346.937,-123.25 365.55,-111.865"/>
<polygon fill="midnightblue" stroke="midnightblue" points="367.569,-114.734 374.281,-106.536 363.922,-108.759 367.569,-114.734"/>
</g>
<!-- Node12 -->
<g id="node12" class="node"><title>Node12</title>
<g id="a_node12"><a xlink:href="../../d6/d95/classparser_1_1_parser.html#a447c473b62ba23b7c144df9bb38a9a41" target="_top" xlink:title="parser.Parser.getNodeFor\lCommand">
<polygon fill="white" stroke="black" points="322,-300 322,-330 460,-330 460,-300 322,-300"/>
<text text-anchor="start" x="330" y="-318" font-family="Helvetica,sans-Serif" font-size="10.00">parser.Parser.getNodeFor</text>
<text text-anchor="middle" x="391" y="-307" font-family="Helvetica,sans-Serif" font-size="10.00">Command</text>
</a>
</g>
</g>
<!-- Node11&#45;&gt;Node12 -->
<g id="edge11" class="edge"><title>Node11&#45;&gt;Node12</title>
<path fill="none" stroke="midnightblue" d="M212.65,-226.535C228.894,-242.066 263.338,-272.816 298,-290 302.819,-292.389 307.898,-294.575 313.092,-296.57"/>
<polygon fill="midnightblue" stroke="midnightblue" points="311.941,-299.875 322.535,-299.958 314.305,-293.287 311.941,-299.875"/>
</g>
<!-- Node17 -->
<g id="node17" class="node"><title>Node17</title>
<g id="a_node17"><a xlink:href="../../d6/d95/classparser_1_1_parser.html#a3efcd1192e76101919526b4a5e0046f4" target="_top" xlink:title="parser.Parser.getNodeBefore\lToReplace">
<polygon fill="white" stroke="black" points="313.5,-251 313.5,-281 468.5,-281 468.5,-251 313.5,-251"/>
<text text-anchor="start" x="321.5" y="-269" font-family="Helvetica,sans-Serif" font-size="10.00">parser.Parser.getNodeBefore</text>
<text text-anchor="middle" x="391" y="-258" font-family="Helvetica,sans-Serif" font-size="10.00">ToReplace</text>
</a>
</g>
</g>
<!-- Node11&#45;&gt;Node17 -->
<g id="edge17" class="edge"><title>Node11&#45;&gt;Node17</title>
<path fill="none" stroke="midnightblue" d="M239.499,-226.564C263.174,-232.768 294.733,-241.037 322.836,-248.401"/>
<polygon fill="midnightblue" stroke="midnightblue" points="322.053,-251.814 332.614,-250.963 323.828,-245.043 322.053,-251.814"/>
</g>
<!-- Node18 -->
<g id="node18" class="node"><title>Node18</title>
<g id="a_node18"><a xlink:href="../../d3/dcc/classparser_1_1_node.html#a066da2b478008f39a02440d7afceb9ee" target="_top" xlink:title="parser.Node.insertChild">
<polygon fill="white" stroke="black" points="327,-163.5 327,-182.5 455,-182.5 455,-163.5 327,-163.5"/>
<text text-anchor="middle" x="391" y="-170.5" font-family="Helvetica,sans-Serif" font-size="10.00">parser.Node.insertChild</text>
</a>
</g>
</g>
<!-- Node11&#45;&gt;Node18 -->
<g id="edge22" class="edge"><title>Node11&#45;&gt;Node18</title>
<path fill="none" stroke="midnightblue" d="M237.632,-207.409C255.588,-202.557 277.91,-196.714 298,-192 308.698,-189.49 320.137,-186.985 331.186,-184.656"/>
<polygon fill="midnightblue" stroke="midnightblue" points="332.116,-188.038 341.192,-182.572 330.688,-181.185 332.116,-188.038"/>
</g>
<!-- Node19 -->
<g id="node19" class="node"><title>Node19</title>
<g id="a_node19"><a xlink:href="../../d6/d95/classparser_1_1_parser.html#aac1cff62f68138c7e977a67d39671701" target="_top" xlink:title="parser.Parser.generateCommand\lInput">
<polygon fill="white" stroke="black" points="303,-202 303,-232 479,-232 479,-202 303,-202"/>
<text text-anchor="start" x="311" y="-220" font-family="Helvetica,sans-Serif" font-size="10.00">parser.Parser.generateCommand</text>
<text text-anchor="middle" x="391" y="-209" font-family="Helvetica,sans-Serif" font-size="10.00">Input</text>
</a>
</g>
</g>
<!-- Node11&#45;&gt;Node19 -->
<g id="edge24" class="edge"><title>Node11&#45;&gt;Node19</title>
<path fill="none" stroke="midnightblue" d="M256.587,-217C267.998,-217 280.386,-217 292.861,-217"/>
<polygon fill="midnightblue" stroke="midnightblue" points="292.867,-220.5 302.867,-217 292.866,-213.5 292.867,-220.5"/>
</g>
<!-- Node21 -->
<g id="node21" class="node"><title>Node21</title>
<g id="a_node21"><a xlink:href="../../d9/d1b/classcommand_1_1_command_factory.html#ab25bb047b051661d31adf73b2dae5649" target="_top" xlink:title="command.CommandFactory.create\lCommand">
<polygon fill="white" stroke="black" points="298.5,-384 298.5,-414 483.5,-414 483.5,-384 298.5,-384"/>
<text text-anchor="start" x="306.5" y="-402" font-family="Helvetica,sans-Serif" font-size="10.00">command.CommandFactory.create</text>
<text text-anchor="middle" x="391" y="-391" font-family="Helvetica,sans-Serif" font-size="10.00">Command</text>
</a>
</g>
</g>
<!-- Node11&#45;&gt;Node21 -->
<g id="edge29" class="edge"><title>Node11&#45;&gt;Node21</title>
<path fill="none" stroke="midnightblue" d="M208.976,-226.742C222.727,-248.637 258.481,-302.658 298,-339 314.495,-354.169 335.232,-368.054 352.841,-378.639"/>
<polygon fill="midnightblue" stroke="midnightblue" points="351.331,-381.811 361.726,-383.862 354.879,-375.777 351.331,-381.811"/>
</g>
<!-- Node13 -->
<g id="node13" class="node"><title>Node13</title>
<g id="a_node13"><a xlink:href="../../d3/dcc/classparser_1_1_node.html#aa67bc0d39227232943abec9b95b23235" target="_top" xlink:title="parser.Node.getChild1">
<polygon fill="white" stroke="black" points="562.5,-218.5 562.5,-237.5 685.5,-237.5 685.5,-218.5 562.5,-218.5"/>
<text text-anchor="middle" x="624" y="-225.5" font-family="Helvetica,sans-Serif" font-size="10.00">parser.Node.getChild1</text>
</a>
</g>
</g>
<!-- Node12&#45;&gt;Node13 -->
<g id="edge12" class="edge"><title>Node12&#45;&gt;Node13</title>
<path fill="none" stroke="midnightblue" d="M460.347,-301.517C468.652,-298.428 476.752,-294.641 484,-290 504.99,-276.559 498.471,-259.559 520,-247 529.84,-241.26 541.032,-237.191 552.326,-234.32"/>
<polygon fill="midnightblue" stroke="midnightblue" points="553.255,-237.699 562.245,-232.093 551.721,-230.869 553.255,-237.699"/>
</g>
<!-- Node14 -->
<g id="node14" class="node"><title>Node14</title>
<g id="a_node14"><a xlink:href="../../d3/dcc/classparser_1_1_node.html#a0f13775acc62af77cdde90dbeaf26bbc" target="_top" xlink:title="parser.Node.getChild2">
<polygon fill="white" stroke="black" points="562.5,-256.5 562.5,-275.5 685.5,-275.5 685.5,-256.5 562.5,-256.5"/>
<text text-anchor="middle" x="624" y="-263.5" font-family="Helvetica,sans-Serif" font-size="10.00">parser.Node.getChild2</text>
</a>
</g>
</g>
<!-- Node12&#45;&gt;Node14 -->
<g id="edge13" class="edge"><title>Node12&#45;&gt;Node14</title>
<path fill="none" stroke="midnightblue" d="M453.393,-299.983C474.461,-294.997 498.218,-289.559 520,-285 532.429,-282.399 545.741,-279.803 558.53,-277.403"/>
<polygon fill="midnightblue" stroke="midnightblue" points="559.455,-280.791 568.647,-275.524 558.176,-273.909 559.455,-280.791"/>
</g>
<!-- Node15 -->
<g id="node15" class="node"><title>Node15</title>
<g id="a_node15"><a xlink:href="../../d3/dcc/classparser_1_1_node.html#ab14db24c0724dec4387e29d513008e2e" target="_top" xlink:title="parser.Node.hasChildren">
<polygon fill="white" stroke="black" points="557,-294.5 557,-313.5 691,-313.5 691,-294.5 557,-294.5"/>
<text text-anchor="middle" x="624" y="-301.5" font-family="Helvetica,sans-Serif" font-size="10.00">parser.Node.hasChildren</text>
</a>
</g>
</g>
<!-- Node12&#45;&gt;Node15 -->
<g id="edge14" class="edge"><title>Node12&#45;&gt;Node15</title>
<path fill="none" stroke="midnightblue" d="M460.058,-311.759C487.201,-310.467 518.575,-308.973 546.502,-307.643"/>
<polygon fill="midnightblue" stroke="midnightblue" points="546.799,-311.133 556.621,-307.161 546.466,-304.141 546.799,-311.133"/>
</g>
<!-- Node16 -->
<g id="node16" class="node"><title>Node16</title>
<g id="a_node16"><a xlink:href="../../d3/dcc/classparser_1_1_node.html#aa92667a825777b3d757bc3b1a247ac20" target="_top" xlink:title="parser.Node.isLeaf">
<polygon fill="white" stroke="black" points="571,-332.5 571,-351.5 677,-351.5 677,-332.5 571,-332.5"/>
<text text-anchor="middle" x="624" y="-339.5" font-family="Helvetica,sans-Serif" font-size="10.00">parser.Node.isLeaf</text>
</a>
</g>
</g>
<!-- Node12&#45;&gt;Node16 -->
<g id="edge15" class="edge"><title>Node12&#45;&gt;Node16</title>
<path fill="none" stroke="midnightblue" d="M460.058,-322.955C491.863,-326.672 529.478,-331.069 560.549,-334.7"/>
<polygon fill="midnightblue" stroke="midnightblue" points="560.478,-338.216 570.817,-335.901 561.291,-331.263 560.478,-338.216"/>
</g>
<!-- Node17&#45;&gt;Node13 -->
<g id="edge18" class="edge"><title>Node17&#45;&gt;Node13</title>
<path fill="none" stroke="midnightblue" d="M468.599,-253.399C496.431,-248.821 527.676,-243.681 554.74,-239.229"/>
<polygon fill="midnightblue" stroke="midnightblue" points="555.593,-242.636 564.892,-237.559 554.457,-235.729 555.593,-242.636"/>
</g>
<!-- Node17&#45;&gt;Node14 -->
<g id="edge19" class="edge"><title>Node17&#45;&gt;Node14</title>
<path fill="none" stroke="midnightblue" d="M468.599,-266C495.497,-266 525.583,-266 552.001,-266"/>
<polygon fill="midnightblue" stroke="midnightblue" points="552.312,-269.5 562.312,-266 552.312,-262.5 552.312,-269.5"/>
</g>
<!-- Node17&#45;&gt;Node15 -->
<g id="edge20" class="edge"><title>Node17&#45;&gt;Node15</title>
<path fill="none" stroke="midnightblue" d="M468.599,-278.601C496.431,-283.179 527.676,-288.319 554.74,-292.771"/>
<polygon fill="midnightblue" stroke="midnightblue" points="554.457,-296.271 564.892,-294.441 555.593,-289.364 554.457,-296.271"/>
</g>
<!-- Node17&#45;&gt;Node16 -->
<g id="edge21" class="edge"><title>Node17&#45;&gt;Node16</title>
<path fill="none" stroke="midnightblue" d="M461.188,-281.032C469.094,-283.842 476.867,-287.14 484,-291 502.828,-301.188 500.766,-313.601 520,-323 532.621,-329.167 547.003,-333.342 560.936,-336.166"/>
<polygon fill="midnightblue" stroke="midnightblue" points="560.504,-339.645 570.969,-337.993 561.758,-332.758 560.504,-339.645"/>
</g>
<!-- Node18&#45;&gt;Node3 -->
<g id="edge23" class="edge"><title>Node18&#45;&gt;Node3</title>
<path fill="none" stroke="midnightblue" d="M455.122,-167.262C485.739,-164.478 522.585,-161.129 553.949,-158.277"/>
<polygon fill="midnightblue" stroke="midnightblue" points="554.282,-161.762 563.924,-157.371 553.648,-154.79 554.282,-161.762"/>
</g>
<!-- Node19&#45;&gt;Node3 -->
<g id="edge27" class="edge"><title>Node19&#45;&gt;Node3</title>
<path fill="none" stroke="midnightblue" d="M456.083,-201.925C465.581,-199.021 475.146,-195.709 484,-192 501.085,-184.843 502.633,-177.443 520,-171 530.68,-167.038 542.302,-163.877 553.764,-161.362"/>
<polygon fill="midnightblue" stroke="midnightblue" points="554.673,-164.749 563.769,-159.315 553.27,-157.891 554.673,-164.749"/>
</g>
<!-- Node19&#45;&gt;Node13 -->
<g id="edge25" class="edge"><title>Node19&#45;&gt;Node13</title>
<path fill="none" stroke="midnightblue" d="M479.002,-221.143C503.177,-222.294 529.13,-223.53 552.251,-224.631"/>
<polygon fill="midnightblue" stroke="midnightblue" points="552.16,-228.131 562.315,-225.11 552.493,-221.138 552.16,-228.131"/>
</g>
<!-- Node19&#45;&gt;Node14 -->
<g id="edge26" class="edge"><title>Node19&#45;&gt;Node14</title>
<path fill="none" stroke="midnightblue" d="M453.393,-232.017C474.461,-237.003 498.218,-242.441 520,-247 532.429,-249.601 545.741,-252.197 558.53,-254.597"/>
<polygon fill="midnightblue" stroke="midnightblue" points="558.176,-258.091 568.647,-256.476 559.455,-251.209 558.176,-258.091"/>
</g>
<!-- Node20 -->
<g id="node20" class="node"><title>Node20</title>
<g id="a_node20"><a xlink:href="../../d3/dcc/classparser_1_1_node.html#a6bbc0c61aaa261077eb87cfc4e2b45dc" target="_top" xlink:title="parser.Node.numChildren">
<polygon fill="white" stroke="black" points="554.5,-180.5 554.5,-199.5 693.5,-199.5 693.5,-180.5 554.5,-180.5"/>
<text text-anchor="middle" x="624" y="-187.5" font-family="Helvetica,sans-Serif" font-size="10.00">parser.Node.numChildren</text>
</a>
</g>
</g>
<!-- Node19&#45;&gt;Node20 -->
<g id="edge28" class="edge"><title>Node19&#45;&gt;Node20</title>
<path fill="none" stroke="midnightblue" d="M479.002,-206.831C500.434,-204.326 523.263,-201.658 544.278,-199.201"/>
<polygon fill="midnightblue" stroke="midnightblue" points="544.908,-202.652 554.434,-198.014 544.096,-195.699 544.908,-202.652"/>
</g>
<!-- Node21&#45;&gt;Node10 -->
<g id="edge37" class="edge"><title>Node21&#45;&gt;Node10</title>
<path fill="none" stroke="midnightblue" d="M483.859,-394.008C567.74,-388.476 685.014,-378.013 728,-361 772.326,-343.457 814.927,-307.268 839.774,-283.576"/>
<polygon fill="midnightblue" stroke="midnightblue" points="842.464,-285.842 847.197,-276.363 837.586,-280.822 842.464,-285.842"/>
</g>
<!-- Node22 -->
<g id="node22" class="node"><title>Node22</title>
<g id="a_node22"><a xlink:href="../../d9/d1b/classcommand_1_1_command_factory.html#a279e89b924975cea17afc7770530eabc" target="_top" xlink:title="command.CommandFactory.checkMake">
<polygon fill="white" stroke="black" points="520,-451.5 520,-470.5 728,-470.5 728,-451.5 520,-451.5"/>
<text text-anchor="middle" x="624" y="-458.5" font-family="Helvetica,sans-Serif" font-size="10.00">command.CommandFactory.checkMake</text>
</a>
</g>
</g>
<!-- Node21&#45;&gt;Node22 -->
<g id="edge30" class="edge"><title>Node21&#45;&gt;Node22</title>
<path fill="none" stroke="midnightblue" d="M440.13,-414.028C464.048,-421.307 493.445,-429.971 520,-437 536.095,-441.26 553.712,-445.514 569.752,-449.231"/>
<polygon fill="midnightblue" stroke="midnightblue" points="568.978,-452.644 579.508,-451.471 570.545,-445.822 568.978,-452.644"/>
</g>
<!-- Node24 -->
<g id="node24" class="node"><title>Node24</title>
<g id="a_node24"><a xlink:href="../../d9/d1b/classcommand_1_1_command_factory.html#abd97ea3e22afc09e07ed1d4fd039d11f" target="_top" xlink:title="command.CommandFactory.reflectCMD">
<polygon fill="white" stroke="black" points="520.5,-408.5 520.5,-427.5 727.5,-427.5 727.5,-408.5 520.5,-408.5"/>
<text text-anchor="middle" x="624" y="-415.5" font-family="Helvetica,sans-Serif" font-size="10.00">command.CommandFactory.reflectCMD</text>
</a>
</g>
</g>
<!-- Node21&#45;&gt;Node24 -->
<g id="edge32" class="edge"><title>Node21&#45;&gt;Node24</title>
<path fill="none" stroke="midnightblue" d="M483.629,-406.537C492.415,-407.259 501.394,-407.998 510.35,-408.734"/>
<polygon fill="midnightblue" stroke="midnightblue" points="510.187,-412.233 520.44,-409.564 510.761,-405.256 510.187,-412.233"/>
</g>
<!-- Node23 -->
<g id="node23" class="node"><title>Node23</title>
<g id="a_node23"><a xlink:href="../../d9/d1b/classcommand_1_1_command_factory.html#a469ad48137c966b10612f72713a295f0" target="_top" xlink:title="command.CommandFactory.add\lVariable">
<polygon fill="white" stroke="black" points="776.5,-449 776.5,-479 949.5,-479 949.5,-449 776.5,-449"/>
<text text-anchor="start" x="784.5" y="-467" font-family="Helvetica,sans-Serif" font-size="10.00">command.CommandFactory.add</text>
<text text-anchor="middle" x="863" y="-456" font-family="Helvetica,sans-Serif" font-size="10.00">Variable</text>
</a>
</g>
</g>
<!-- Node22&#45;&gt;Node23 -->
<g id="edge31" class="edge"><title>Node22&#45;&gt;Node23</title>
<path fill="none" stroke="midnightblue" d="M728.262,-462.307C740.834,-462.466 753.638,-462.628 766.096,-462.786"/>
<polygon fill="midnightblue" stroke="midnightblue" points="766.423,-466.29 776.466,-462.917 766.511,-459.291 766.423,-466.29"/>
</g>
<!-- Node25 -->
<g id="node25" class="node"><title>Node25</title>
<g id="a_node25"><a xlink:href="../../d9/d1b/classcommand_1_1_command_factory.html#aed43691d920feaca374f4692bd238680" target="_top" xlink:title="command.CommandFactory.make\lParams">
<polygon fill="white" stroke="black" points="772,-400 772,-430 954,-430 954,-400 772,-400"/>
<text text-anchor="start" x="780" y="-418" font-family="Helvetica,sans-Serif" font-size="10.00">command.CommandFactory.make</text>
<text text-anchor="middle" x="863" y="-407" font-family="Helvetica,sans-Serif" font-size="10.00">Params</text>
</a>
</g>
</g>
<!-- Node24&#45;&gt;Node25 -->
<g id="edge33" class="edge"><title>Node24&#45;&gt;Node25</title>
<path fill="none" stroke="midnightblue" d="M727.573,-416.702C738.875,-416.559 750.374,-416.413 761.649,-416.27"/>
<polygon fill="midnightblue" stroke="midnightblue" points="761.973,-419.767 771.928,-416.14 761.884,-412.767 761.973,-419.767"/>
</g>
<!-- Node26 -->
<g id="node26" class="node"><title>Node26</title>
<g id="a_node26"><a xlink:href="../../d9/d1b/classcommand_1_1_command_factory.html#a3a7f93181d4b08336437520928c5108b" target="_top" xlink:title="command.CommandFactory.add\lParam">
<polygon fill="white" stroke="black" points="998.5,-400 998.5,-430 1171.5,-430 1171.5,-400 998.5,-400"/>
<text text-anchor="start" x="1006.5" y="-418" font-family="Helvetica,sans-Serif" font-size="10.00">command.CommandFactory.add</text>
<text text-anchor="middle" x="1085" y="-407" font-family="Helvetica,sans-Serif" font-size="10.00">Param</text>
</a>
</g>
</g>
<!-- Node25&#45;&gt;Node26 -->
<g id="edge34" class="edge"><title>Node25&#45;&gt;Node26</title>
<path fill="none" stroke="midnightblue" d="M954.117,-415C965.292,-415 976.75,-415 988.009,-415"/>
<polygon fill="midnightblue" stroke="midnightblue" points="988.279,-418.5 998.279,-415 988.279,-411.5 988.279,-418.5"/>
</g>
<!-- Node27 -->
<g id="node27" class="node"><title>Node27</title>
<g id="a_node27"><a xlink:href="../../d9/d1b/classcommand_1_1_command_factory.html#aac2ddc62b74ef8c562cb19841b6a21c6" target="_top" xlink:title="command.CommandFactory.is\lVariable">
<polygon fill="white" stroke="black" points="1215,-425 1215,-455 1377,-455 1377,-425 1215,-425"/>
<text text-anchor="start" x="1223" y="-443" font-family="Helvetica,sans-Serif" font-size="10.00">command.CommandFactory.is</text>
<text text-anchor="middle" x="1296" y="-432" font-family="Helvetica,sans-Serif" font-size="10.00">Variable</text>
</a>
</g>
</g>
<!-- Node26&#45;&gt;Node27 -->
<g id="edge35" class="edge"><title>Node26&#45;&gt;Node27</title>
<path fill="none" stroke="midnightblue" d="M1171.61,-425.241C1182.57,-426.552 1193.82,-427.897 1204.85,-429.217"/>
<polygon fill="midnightblue" stroke="midnightblue" points="1204.56,-432.707 1214.91,-430.419 1205.39,-425.756 1204.56,-432.707"/>
</g>
<!-- Node28 -->
<g id="node28" class="node"><title>Node28</title>
<g id="a_node28"><a xlink:href="../../d9/d1b/classcommand_1_1_command_factory.html#a4a093c2b17212339a5c43b581f818682" target="_top" xlink:title="command.CommandFactory.read\lVariable">
<polygon fill="white" stroke="black" points="1208,-376 1208,-406 1384,-406 1384,-376 1208,-376"/>
<text text-anchor="start" x="1216" y="-394" font-family="Helvetica,sans-Serif" font-size="10.00">command.CommandFactory.read</text>
<text text-anchor="middle" x="1296" y="-383" font-family="Helvetica,sans-Serif" font-size="10.00">Variable</text>
</a>
</g>
</g>
<!-- Node26&#45;&gt;Node28 -->
<g id="edge36" class="edge"><title>Node26&#45;&gt;Node28</title>
<path fill="none" stroke="midnightblue" d="M1171.61,-405.169C1180.2,-404.183 1188.96,-403.176 1197.66,-402.177"/>
<polygon fill="midnightblue" stroke="midnightblue" points="1198.29,-405.628 1207.83,-401.01 1197.49,-398.674 1198.29,-405.628"/>
</g>
</g>
</svg>
        <g id="navigator" transform="translate(0 0)" fill="#404254">
                <rect fill="#f2f5e9" fill-opacity="0.5" stroke="#606060" stroke-width=".5" x="0" y="0" width="60" height="60"/>
                <use id="zoomplus" xlink:href="#zoomPlus" x="17" y="9" onmousedown="handleZoom(evt,'in')"/>
                <use id="zoomminus" xlink:href="#zoomMin" x="42" y="9" onmousedown="handleZoom(evt,'out')"/>
                <use id="reset" xlink:href="#resetDef" x="30" y="36" onmousedown="handleReset()"/>
                <g id="arrowUp" xlink:href="#dirArrow" transform="translate(30 24)" onmousedown="handlePan(0,-1)">
                  <use xlink:href="#rim" fill="#404040">
                        <set attributeName="fill" to="#808080" begin="arrowUp.mouseover" end="arrowUp.mouseout"/>
                  </use>
                  <path fill="none" stroke="white" stroke-width="1.5" d="M0,-3.0v7 M-2.5,-0.5L0,-3.0L2.5,-0.5"/>
                </g>
                <g id="arrowRight" xlink:href="#dirArrow" transform="rotate(90) translate(36 -43)" onmousedown="handlePan(1,0)">
                  <use xlink:href="#rim" fill="#404040">
                        <set attributeName="fill" to="#808080" begin="arrowRight.mouseover" end="arrowRight.mouseout"/>
                  </use>
                  <path fill="none" stroke="white" stroke-width="1.5" d="M0,-3.0v7 M-2.5,-0.5L0,-3.0L2.5,-0.5"/>
                </g>
                <g id="arrowDown" xlink:href="#dirArrow" transform="rotate(180) translate(-30 -48)" onmousedown="handlePan(0,1)">
                  <use xlink:href="#rim" fill="#404040">
                        <set attributeName="fill" to="#808080" begin="arrowDown.mouseover" end="arrowDown.mouseout"/>
                  </use>
                  <path fill="none" stroke="white" stroke-width="1.5" d="M0,-3.0v7 M-2.5,-0.5L0,-3.0L2.5,-0.5"/>
                </g>
                <g id="arrowLeft" xlink:href="#dirArrow" transform="rotate(270) translate(-36 17)" onmousedown="handlePan(-1,0)">
                  <use xlink:href="#rim" fill="#404040">
                        <set attributeName="fill" to="#808080" begin="arrowLeft.mouseover" end="arrowLeft.mouseout"/>
                  </use>
                  <path fill="none" stroke="white" stroke-width="1.5" d="M0,-3.0v7 M-2.5,-0.5L0,-3.0L2.5,-0.5"/>
                </g>
        </g>
        <svg viewBox="0 0 15 15" width="100%" height="30px" preserveAspectRatio="xMaxYMin meet">
         <g id="arrow_out" transform="scale(0.3 0.3)">
          <a xlink:href="classparser_1_1_parser_a6b2d7b2b182d99537ce332ed0dfd3e03_cgraph_org.svg" target="_base">
           <rect id="button" ry="5" rx="5" y="6" x="6" height="38" width="38"
                fill="#f2f5e9" fill-opacity="0.5" stroke="#606060" stroke-width="1.0"/>
           <path id="arrow"
             d="M 11.500037,31.436501 C 11.940474,20.09759 22.043105,11.32322 32.158766,21.979434 L 37.068811,17.246167 C 37.068811,17.246167 37.088388,32 37.088388,32 L 22.160133,31.978069 C 22.160133,31.978069 26.997745,27.140456 26.997745,27.140456 C 18.528582,18.264221 13.291696,25.230495 11.500037,31.436501 z"
             style="fill:#404040;"/>
          </a>
         </g>
        </svg>
</svg>
