<?xml version="1.0" encoding="UTF-8" standalone="no"?>
<!DOCTYPE svg PUBLIC "-//W3C//DTD SVG 1.1//EN"
 "http://www.w3.org/Graphics/SVG/1.1/DTD/svg11.dtd">
<!-- Generated by graphviz version 2.36.0 (20140111.2315)
 -->
<!-- Title: parser.Parser.main Pages: 1 -->
<!--zoomable 343 -->
<svg id="main" version="1.1" xmlns="http://www.w3.org/2000/svg" xmlns:xlink="http://www.w3.org/1999/xlink" xml:space="preserve" onload="init(evt)">
<style type="text/css"><![CDATA[
.edge:hover path { stroke: red; }
.edge:hover polygon { stroke: red; fill: red; }
]]></style>
<script type="text/javascript"><![CDATA[
var edges = document.getElementsByTagName('g');
if (edges && edges.length) {
  for (var i=0;i<edges.length;i++) {
    if (edges[i].id.substr(0,4)=='edge') {
      edges[i].setAttribute('class','edge');
    }
  }
}
]]></script>
        <defs>
                <circle id="rim" cx="0" cy="0" r="7"/>
                <circle id="rim2" cx="0" cy="0" r="3.5"/>
                <g id="zoomPlus">
                        <use xlink:href="#rim" fill="#404040">
                                <set attributeName="fill" to="#808080" begin="zoomplus.mouseover" end="zoomplus.mouseout"/>
                        </use>
                        <path d="M-4,0h8M0,-4v8" fill="none" stroke="white" stroke-width="1.5" pointer-events="none"/>
                </g>
                <g id="zoomMin">
                        <use xlink:href="#rim" fill="#404040">
                                <set attributeName="fill" to="#808080" begin="zoomminus.mouseover" end="zoomminus.mouseout"/>
                        </use>
                        <path d="M-4,0h8" fill="none" stroke="white" stroke-width="1.5" pointer-events="none"/>
                </g>
                <g id="dirArrow">
                        <path fill="none" stroke="white" stroke-width="1.5" d="M0,-3.0v7 M-2.5,-0.5L0,-3.0L2.5,-0.5"/>
                </g>
               <g id="resetDef">
                       <use xlink:href="#rim2" fill="#404040">
                               <set attributeName="fill" to="#808080" begin="reset.mouseover" end="reset.mouseout"/>
                       </use>
               </g>
        </defs>

<script type="text/javascript">
var viewWidth = 970;
var viewHeight = 343;
var sectionId = 'dynsection-10';
</script>
<script xlink:href="../../svgpan.js"/>
<svg id="graph" class="graph">
<g id="viewport">
<title>parser.Parser.main</title>
<polygon fill="white" stroke="none" points="-4,4 -4,-339 966,-339 966,4 -4,4"/>
<!-- Node1 -->
<g id="node1" class="node"><title>Node1</title>
<polygon fill="#bfbfbf" stroke="black" points="0,-174.5 0,-193.5 106,-193.5 106,-174.5 0,-174.5"/>
<text text-anchor="middle" x="53" y="-181.5" font-family="Helvetica,sans-Serif" font-size="10.00">parser.Parser.main</text>
</g>
<!-- Node2 -->
<g id="node2" class="node"><title>Node2</title>
<g id="a_node2"><a xlink:href="../../d6/d95/classparser_1_1_parser.html#a240c75608624a9c67402a296855c4d1d" target="_top" xlink:title="parser.Parser.initialize\lCommands">
<polygon fill="white" stroke="black" points="142,-240 142,-270 262,-270 262,-240 142,-240"/>
<text text-anchor="start" x="150" y="-258" font-family="Helvetica,sans-Serif" font-size="10.00">parser.Parser.initialize</text>
<text text-anchor="middle" x="202" y="-247" font-family="Helvetica,sans-Serif" font-size="10.00">Commands</text>
</a>
</g>
</g>
<!-- Node1&#45;&gt;Node2 -->
<g id="edge1" class="edge"><title>Node1&#45;&gt;Node2</title>
<path fill="none" stroke="midnightblue" d="M73.8251,-193.575C95.9336,-204.254 132.288,-221.813 160.478,-235.428"/>
<polygon fill="midnightblue" stroke="midnightblue" points="159.166,-238.681 169.693,-239.879 162.21,-232.378 159.166,-238.681"/>
</g>
<!-- Node6 -->
<g id="node6" class="node"><title>Node6</title>
<g id="a_node6"><a xlink:href="../../d6/d95/classparser_1_1_parser.html#a4ecbffc246c3add017c4720eed4c6da9" target="_top" xlink:title="parser.Parser.parse">
<polygon fill="white" stroke="black" points="147.5,-174.5 147.5,-193.5 256.5,-193.5 256.5,-174.5 147.5,-174.5"/>
<text text-anchor="middle" x="202" y="-181.5" font-family="Helvetica,sans-Serif" font-size="10.00">parser.Parser.parse</text>
</a>
</g>
</g>
<!-- Node1&#45;&gt;Node6 -->
<g id="edge5" class="edge"><title>Node1&#45;&gt;Node6</title>
<path fill="none" stroke="midnightblue" d="M106.241,-184C116.267,-184 126.871,-184 137.214,-184"/>
<polygon fill="midnightblue" stroke="midnightblue" points="137.439,-187.5 147.439,-184 137.439,-180.5 137.439,-187.5"/>
</g>
<!-- Node19 -->
<g id="node19" class="node"><title>Node19</title>
<g id="a_node19"><a xlink:href="../../d6/d95/classparser_1_1_parser.html#a24f979ba60237b04fe1b62c8cefe4681" target="_top" xlink:title="parser.Parser.Parser">
<polygon fill="white" stroke="black" points="146,-136.5 146,-155.5 258,-155.5 258,-136.5 146,-136.5"/>
<text text-anchor="middle" x="202" y="-143.5" font-family="Helvetica,sans-Serif" font-size="10.00">parser.Parser.Parser</text>
</a>
</g>
</g>
<!-- Node1&#45;&gt;Node19 -->
<g id="edge28" class="edge"><title>Node1&#45;&gt;Node19</title>
<path fill="none" stroke="midnightblue" d="M91.0943,-174.411C110.318,-169.442 133.986,-163.323 154.429,-158.039"/>
<polygon fill="midnightblue" stroke="midnightblue" points="155.367,-161.412 164.172,-155.52 153.615,-154.634 155.367,-161.412"/>
</g>
<!-- Node3 -->
<g id="node3" class="node"><title>Node3</title>
<g id="a_node3"><a xlink:href="../../d6/d95/classparser_1_1_parser.html#a4f582c65390bddc57219c0b5c31ef5e7" target="_top" xlink:title="parser.Parser.makeTree">
<polygon fill="white" stroke="black" points="327,-270.5 327,-289.5 455,-289.5 455,-270.5 327,-270.5"/>
<text text-anchor="middle" x="391" y="-277.5" font-family="Helvetica,sans-Serif" font-size="10.00">parser.Parser.makeTree</text>
</a>
</g>
</g>
<!-- Node2&#45;&gt;Node3 -->
<g id="edge2" class="edge"><title>Node2&#45;&gt;Node3</title>
<path fill="none" stroke="midnightblue" d="M262.168,-262.91C279.502,-265.228 298.665,-267.789 316.763,-270.209"/>
<polygon fill="midnightblue" stroke="midnightblue" points="316.315,-273.68 326.69,-271.536 317.242,-266.742 316.315,-273.68"/>
</g>
<!-- Node4 -->
<g id="node4" class="node"><title>Node4</title>
<g id="a_node4"><a xlink:href="../../d9/d1b/classcommand_1_1_command_factory.html#a87bf7e648425bb22124367cabedb3327" target="_top" xlink:title="command.CommandFactory.get\lNumParameters">
<polygon fill="white" stroke="black" points="539,-305 539,-335 709,-335 709,-305 539,-305"/>
<text text-anchor="start" x="547" y="-323" font-family="Helvetica,sans-Serif" font-size="10.00">command.CommandFactory.get</text>
<text text-anchor="middle" x="624" y="-312" font-family="Helvetica,sans-Serif" font-size="10.00">NumParameters</text>
</a>
</g>
</g>
<!-- Node3&#45;&gt;Node4 -->
<g id="edge3" class="edge"><title>Node3&#45;&gt;Node4</title>
<path fill="none" stroke="midnightblue" d="M447.037,-289.53C471.401,-293.749 500.765,-298.834 528.464,-303.63"/>
<polygon fill="midnightblue" stroke="midnightblue" points="528.131,-307.124 538.582,-305.382 529.325,-300.227 528.131,-307.124"/>
</g>
<!-- Node5 -->
<g id="node5" class="node"><title>Node5</title>
<g id="a_node5"><a xlink:href="../../d9/d1b/classcommand_1_1_command_factory.html#a947fdc151e857ea74564d0d1fe268246" target="_top" xlink:title="command.CommandFactory.translate\lCommand">
<polygon fill="white" stroke="black" points="764.5,-283 764.5,-313 961.5,-313 961.5,-283 764.5,-283"/>
<text text-anchor="start" x="772.5" y="-301" font-family="Helvetica,sans-Serif" font-size="10.00">command.CommandFactory.translate</text>
<text text-anchor="middle" x="863" y="-290" font-family="Helvetica,sans-Serif" font-size="10.00">Command</text>
</a>
</g>
</g>
<!-- Node4&#45;&gt;Node5 -->
<g id="edge4" class="edge"><title>Node4&#45;&gt;Node5</title>
<path fill="none" stroke="midnightblue" d="M709.225,-312.182C723.71,-310.837 738.944,-309.423 753.951,-308.03"/>
<polygon fill="midnightblue" stroke="midnightblue" points="754.66,-311.479 764.294,-307.07 754.013,-304.509 754.66,-311.479"/>
</g>
<!-- Node6&#45;&gt;Node3 -->
<g id="edge11" class="edge"><title>Node6&#45;&gt;Node3</title>
<path fill="none" stroke="midnightblue" d="M215.754,-193.752C227.767,-202.984 246.226,-217.283 262,-230 278.215,-243.071 279.286,-250.858 298,-260 304.019,-262.94 310.469,-265.452 317.058,-267.596"/>
<polygon fill="midnightblue" stroke="midnightblue" points="316.193,-270.991 326.776,-270.483 318.186,-264.28 316.193,-270.991"/>
</g>
<!-- Node7 -->
<g id="node7" class="node"><title>Node7</title>
<g id="a_node7"><a xlink:href="../../d6/d95/classparser_1_1_parser.html#a447c473b62ba23b7c144df9bb38a9a41" target="_top" xlink:title="parser.Parser.getNodeFor\lCommand">
<polygon fill="white" stroke="black" points="322,-169 322,-199 460,-199 460,-169 322,-169"/>
<text text-anchor="start" x="330" y="-187" font-family="Helvetica,sans-Serif" font-size="10.00">parser.Parser.getNodeFor</text>
<text text-anchor="middle" x="391" y="-176" font-family="Helvetica,sans-Serif" font-size="10.00">Command</text>
</a>
</g>
</g>
<!-- Node6&#45;&gt;Node7 -->
<g id="edge6" class="edge"><title>Node6&#45;&gt;Node7</title>
<path fill="none" stroke="midnightblue" d="M256.587,-184C273.706,-184 293.024,-184 311.534,-184"/>
<polygon fill="midnightblue" stroke="midnightblue" points="311.716,-187.5 321.716,-184 311.716,-180.5 311.716,-187.5"/>
</g>
<!-- Node12 -->
<g id="node12" class="node"><title>Node12</title>
<g id="a_node12"><a xlink:href="../../d6/d95/classparser_1_1_parser.html#a3efcd1192e76101919526b4a5e0046f4" target="_top" xlink:title="parser.Parser.getNodeBefore\lToReplace">
<polygon fill="white" stroke="black" points="313.5,-120 313.5,-150 468.5,-150 468.5,-120 313.5,-120"/>
<text text-anchor="start" x="321.5" y="-138" font-family="Helvetica,sans-Serif" font-size="10.00">parser.Parser.getNodeBefore</text>
<text text-anchor="middle" x="391" y="-127" font-family="Helvetica,sans-Serif" font-size="10.00">ToReplace</text>
</a>
</g>
</g>
<!-- Node6&#45;&gt;Node12 -->
<g id="edge12" class="edge"><title>Node6&#45;&gt;Node12</title>
<path fill="none" stroke="midnightblue" d="M239.084,-174.485C256.828,-169.811 278.533,-164.101 298,-159 305.833,-156.948 314.042,-154.801 322.196,-152.671"/>
<polygon fill="midnightblue" stroke="midnightblue" points="323.293,-156.001 332.084,-150.088 321.525,-149.228 323.293,-156.001"/>
</g>
<!-- Node14 -->
<g id="node14" class="node"><title>Node14</title>
<g id="a_node14"><a xlink:href="../../d3/dcc/classparser_1_1_node.html#a066da2b478008f39a02440d7afceb9ee" target="_top" xlink:title="parser.Node.insertChild">
<polygon fill="white" stroke="black" points="327,-32.5 327,-51.5 455,-51.5 455,-32.5 327,-32.5"/>
<text text-anchor="middle" x="391" y="-39.5" font-family="Helvetica,sans-Serif" font-size="10.00">parser.Node.insertChild</text>
</a>
</g>
</g>
<!-- Node6&#45;&gt;Node14 -->
<g id="edge18" class="edge"><title>Node6&#45;&gt;Node14</title>
<path fill="none" stroke="midnightblue" d="M248.067,-174.489C253.191,-172.021 258.001,-168.914 262,-165 296.96,-130.79 261.246,-93.2748 298,-61 303.561,-56.117 310.04,-52.368 316.939,-49.5045"/>
<polygon fill="midnightblue" stroke="midnightblue" points="318.283,-52.742 326.558,-46.1253 315.963,-46.1376 318.283,-52.742"/>
</g>
<!-- Node15 -->
<g id="node15" class="node"><title>Node15</title>
<g id="a_node15"><a xlink:href="../../d6/d95/classparser_1_1_parser.html#aac1cff62f68138c7e977a67d39671701" target="_top" xlink:title="parser.Parser.generateCommand\lInput">
<polygon fill="white" stroke="black" points="303,-71 303,-101 479,-101 479,-71 303,-71"/>
<text text-anchor="start" x="311" y="-89" font-family="Helvetica,sans-Serif" font-size="10.00">parser.Parser.generateCommand</text>
<text text-anchor="middle" x="391" y="-78" font-family="Helvetica,sans-Serif" font-size="10.00">Input</text>
</a>
</g>
</g>
<!-- Node6&#45;&gt;Node15 -->
<g id="edge20" class="edge"><title>Node6&#45;&gt;Node15</title>
<path fill="none" stroke="midnightblue" d="M245.073,-174.401C251.095,-171.934 256.951,-168.849 262,-165 285.233,-147.287 274.277,-127.051 298,-110 300.111,-108.483 302.311,-107.061 304.58,-105.729"/>
<polygon fill="midnightblue" stroke="midnightblue" points="306.376,-108.741 313.637,-101.025 303.149,-102.528 306.376,-108.741"/>
</g>
<!-- Node17 -->
<g id="node17" class="node"><title>Node17</title>
<g id="a_node17"><a xlink:href="../../d9/d1b/classcommand_1_1_command_factory.html#ab25bb047b051661d31adf73b2dae5649" target="_top" xlink:title="command.CommandFactory.create\lCommand">
<polygon fill="white" stroke="black" points="298.5,-221 298.5,-251 483.5,-251 483.5,-221 298.5,-221"/>
<text text-anchor="start" x="306.5" y="-239" font-family="Helvetica,sans-Serif" font-size="10.00">command.CommandFactory.create</text>
<text text-anchor="middle" x="391" y="-228" font-family="Helvetica,sans-Serif" font-size="10.00">Command</text>
</a>
</g>
</g>
<!-- Node6&#45;&gt;Node17 -->
<g id="edge25" class="edge"><title>Node6&#45;&gt;Node17</title>
<path fill="none" stroke="midnightblue" d="M237.299,-193.538C262.024,-200.413 296.131,-209.897 325.841,-218.159"/>
<polygon fill="midnightblue" stroke="midnightblue" points="325.155,-221.601 335.727,-220.908 327.031,-214.857 325.155,-221.601"/>
</g>
<!-- Node8 -->
<g id="node8" class="node"><title>Node8</title>
<g id="a_node8"><a xlink:href="../../d3/dcc/classparser_1_1_node.html#aa67bc0d39227232943abec9b95b23235" target="_top" xlink:title="parser.Node.getChild1">
<polygon fill="white" stroke="black" points="562.5,-76.5 562.5,-95.5 685.5,-95.5 685.5,-76.5 562.5,-76.5"/>
<text text-anchor="middle" x="624" y="-83.5" font-family="Helvetica,sans-Serif" font-size="10.00">parser.Node.getChild1</text>
</a>
</g>
</g>
<!-- Node7&#45;&gt;Node8 -->
<g id="edge7" class="edge"><title>Node7&#45;&gt;Node8</title>
<path fill="none" stroke="midnightblue" d="M460.374,-171.441C468.767,-168.201 476.881,-164.126 484,-159 507.408,-142.145 495.914,-120.87 520,-105 529.689,-98.6162 540.947,-94.2343 552.389,-91.253"/>
<polygon fill="midnightblue" stroke="midnightblue" points="553.475,-94.596 562.458,-88.9785 551.933,-87.7681 553.475,-94.596"/>
</g>
<!-- Node9 -->
<g id="node9" class="node"><title>Node9</title>
<g id="a_node9"><a xlink:href="../../d3/dcc/classparser_1_1_node.html#a0f13775acc62af77cdde90dbeaf26bbc" target="_top" xlink:title="parser.Node.getChild2">
<polygon fill="white" stroke="black" points="562.5,-114.5 562.5,-133.5 685.5,-133.5 685.5,-114.5 562.5,-114.5"/>
<text text-anchor="middle" x="624" y="-121.5" font-family="Helvetica,sans-Serif" font-size="10.00">parser.Node.getChild2</text>
</a>
</g>
</g>
<!-- Node7&#45;&gt;Node9 -->
<g id="edge8" class="edge"><title>Node7&#45;&gt;Node9</title>
<path fill="none" stroke="midnightblue" d="M452.783,-168.897C463.28,-165.888 474.02,-162.55 484,-159 500.496,-153.132 503.275,-148.18 520,-143 530.307,-139.808 541.369,-137.075 552.283,-134.76"/>
<polygon fill="midnightblue" stroke="midnightblue" points="553.129,-138.16 562.238,-132.75 551.743,-131.298 553.129,-138.16"/>
</g>
<!-- Node10 -->
<g id="node10" class="node"><title>Node10</title>
<g id="a_node10"><a xlink:href="../../d3/dcc/classparser_1_1_node.html#ab14db24c0724dec4387e29d513008e2e" target="_top" xlink:title="parser.Node.hasChildren">
<polygon fill="white" stroke="black" points="557,-152.5 557,-171.5 691,-171.5 691,-152.5 557,-152.5"/>
<text text-anchor="middle" x="624" y="-159.5" font-family="Helvetica,sans-Serif" font-size="10.00">parser.Node.hasChildren</text>
</a>
</g>
</g>
<!-- Node7&#45;&gt;Node10 -->
<g id="edge9" class="edge"><title>Node7&#45;&gt;Node10</title>
<path fill="none" stroke="midnightblue" d="M460.058,-177.518C487.201,-174.933 518.575,-171.945 546.502,-169.286"/>
<polygon fill="midnightblue" stroke="midnightblue" points="546.998,-172.754 556.621,-168.322 546.334,-165.786 546.998,-172.754"/>
</g>
<!-- Node11 -->
<g id="node11" class="node"><title>Node11</title>
<g id="a_node11"><a xlink:href="../../d3/dcc/classparser_1_1_node.html#aa92667a825777b3d757bc3b1a247ac20" target="_top" xlink:title="parser.Node.isLeaf">
<polygon fill="white" stroke="black" points="571,-190.5 571,-209.5 677,-209.5 677,-190.5 571,-190.5"/>
<text text-anchor="middle" x="624" y="-197.5" font-family="Helvetica,sans-Serif" font-size="10.00">parser.Node.isLeaf</text>
</a>
</g>
</g>
<!-- Node7&#45;&gt;Node11 -->
<g id="edge10" class="edge"><title>Node7&#45;&gt;Node11</title>
<path fill="none" stroke="midnightblue" d="M460.058,-188.714C491.863,-190.917 529.478,-193.522 560.549,-195.674"/>
<polygon fill="midnightblue" stroke="midnightblue" points="560.599,-199.186 570.817,-196.386 561.083,-192.203 560.599,-199.186"/>
</g>
<!-- Node12&#45;&gt;Node8 -->
<g id="edge13" class="edge"><title>Node12&#45;&gt;Node8</title>
<path fill="none" stroke="midnightblue" d="M453.393,-119.983C474.461,-114.997 498.218,-109.559 520,-105 532.429,-102.399 545.741,-99.8028 558.53,-97.4029"/>
<polygon fill="midnightblue" stroke="midnightblue" points="559.455,-100.791 568.647,-95.5239 558.176,-93.9088 559.455,-100.791"/>
</g>
<!-- Node12&#45;&gt;Node9 -->
<g id="edge14" class="edge"><title>Node12&#45;&gt;Node9</title>
<path fill="none" stroke="midnightblue" d="M468.599,-131.352C495.497,-130.072 525.583,-128.639 552.001,-127.381"/>
<polygon fill="midnightblue" stroke="midnightblue" points="552.49,-130.862 562.312,-126.89 552.157,-123.87 552.49,-130.862"/>
</g>
<!-- Node12&#45;&gt;Node10 -->
<g id="edge16" class="edge"><title>Node12&#45;&gt;Node10</title>
<path fill="none" stroke="midnightblue" d="M468.599,-143.953C493.647,-146.881 521.458,-150.132 546.499,-153.058"/>
<polygon fill="midnightblue" stroke="midnightblue" points="546.338,-156.563 556.677,-154.248 547.151,-149.611 546.338,-156.563"/>
</g>
<!-- Node12&#45;&gt;Node11 -->
<g id="edge17" class="edge"><title>Node12&#45;&gt;Node11</title>
<path fill="none" stroke="midnightblue" d="M459.105,-150.036C467.614,-152.659 476.1,-155.643 484,-159 501.257,-166.334 502.487,-174.298 520,-181 532.914,-185.942 547.244,-189.624 561.01,-192.36"/>
<polygon fill="midnightblue" stroke="midnightblue" points="560.436,-195.813 570.905,-194.188 561.708,-188.929 560.436,-195.813"/>
</g>
<!-- Node13 -->
<g id="node13" class="node"><title>Node13</title>
<g id="a_node13"><a xlink:href="../../d3/dcc/classparser_1_1_node.html#a9c12e8d4375a7517eae0a35724b253c4" target="_top" xlink:title="parser.Node.getValue">
<polygon fill="white" stroke="black" points="564,-38.5 564,-57.5 684,-57.5 684,-38.5 564,-38.5"/>
<text text-anchor="middle" x="624" y="-45.5" font-family="Helvetica,sans-Serif" font-size="10.00">parser.Node.getValue</text>
</a>
</g>
</g>
<!-- Node12&#45;&gt;Node13 -->
<g id="edge15" class="edge"><title>Node12&#45;&gt;Node13</title>
<path fill="none" stroke="midnightblue" d="M464.637,-119.85C471.431,-117.092 478.006,-113.838 484,-110 504.99,-96.5593 498.471,-79.5592 520,-67 530.307,-60.9871 542.099,-56.8084 553.936,-53.9187"/>
<polygon fill="midnightblue" stroke="midnightblue" points="554.819,-57.3088 563.858,-51.7825 553.346,-50.4656 554.819,-57.3088"/>
</g>
<!-- Node14&#45;&gt;Node13 -->
<g id="edge19" class="edge"><title>Node14&#45;&gt;Node13</title>
<path fill="none" stroke="midnightblue" d="M455.122,-43.6395C485.606,-44.4313 522.266,-45.3835 553.541,-46.1959"/>
<polygon fill="midnightblue" stroke="midnightblue" points="553.837,-49.7046 563.924,-46.4656 554.018,-42.707 553.837,-49.7046"/>
</g>
<!-- Node15&#45;&gt;Node8 -->
<g id="edge21" class="edge"><title>Node15&#45;&gt;Node8</title>
<path fill="none" stroke="midnightblue" d="M479.002,-86C503.177,-86 529.13,-86 552.251,-86"/>
<polygon fill="midnightblue" stroke="midnightblue" points="552.315,-89.5001 562.315,-86 552.315,-82.5001 552.315,-89.5001"/>
</g>
<!-- Node15&#45;&gt;Node9 -->
<g id="edge22" class="edge"><title>Node15&#45;&gt;Node9</title>
<path fill="none" stroke="midnightblue" d="M479.002,-100.312C504.181,-104.454 531.287,-108.913 555.116,-112.833"/>
<polygon fill="midnightblue" stroke="midnightblue" points="554.677,-116.308 565.112,-114.477 555.813,-109.4 554.677,-116.308"/>
</g>
<!-- Node15&#45;&gt;Node13 -->
<g id="edge23" class="edge"><title>Node15&#45;&gt;Node13</title>
<path fill="none" stroke="midnightblue" d="M479.002,-71.688C504.181,-67.546 531.287,-63.0869 555.116,-59.1671"/>
<polygon fill="midnightblue" stroke="midnightblue" points="555.813,-62.5995 565.112,-57.5226 554.677,-55.6923 555.813,-62.5995"/>
</g>
<!-- Node16 -->
<g id="node16" class="node"><title>Node16</title>
<g id="a_node16"><a xlink:href="../../d3/dcc/classparser_1_1_node.html#a6bbc0c61aaa261077eb87cfc4e2b45dc" target="_top" xlink:title="parser.Node.numChildren">
<polygon fill="white" stroke="black" points="554.5,-0.5 554.5,-19.5 693.5,-19.5 693.5,-0.5 554.5,-0.5"/>
<text text-anchor="middle" x="624" y="-7.5" font-family="Helvetica,sans-Serif" font-size="10.00">parser.Node.numChildren</text>
</a>
</g>
</g>
<!-- Node15&#45;&gt;Node16 -->
<g id="edge24" class="edge"><title>Node15&#45;&gt;Node16</title>
<path fill="none" stroke="midnightblue" d="M461.188,-70.9677C469.094,-68.1577 476.867,-64.8596 484,-61 502.828,-50.8123 500.766,-38.3986 520,-29 527.633,-25.2703 535.91,-22.2691 544.342,-19.8547"/>
<polygon fill="midnightblue" stroke="midnightblue" points="545.479,-23.1759 554.283,-17.2816 543.725,-16.3993 545.479,-23.1759"/>
</g>
<!-- Node17&#45;&gt;Node5 -->
<g id="edge27" class="edge"><title>Node17&#45;&gt;Node5</title>
<path fill="none" stroke="midnightblue" d="M480.405,-251.016C493.661,-253.119 507.18,-255.181 520,-257 598.138,-268.088 686.605,-278.64 753.984,-286.262"/>
<polygon fill="midnightblue" stroke="midnightblue" points="753.86,-289.77 764.189,-287.413 754.644,-282.815 753.86,-289.77"/>
</g>
<!-- Node18 -->
<g id="node18" class="node"><title>Node18</title>
<g id="a_node18"><a xlink:href="../../d9/d1b/classcommand_1_1_command_factory.html#abd97ea3e22afc09e07ed1d4fd039d11f" target="_top" xlink:title="command.CommandFactory.reflectCMD">
<polygon fill="white" stroke="black" points="520.5,-228.5 520.5,-247.5 727.5,-247.5 727.5,-228.5 520.5,-228.5"/>
<text text-anchor="middle" x="624" y="-235.5" font-family="Helvetica,sans-Serif" font-size="10.00">command.CommandFactory.reflectCMD</text>
</a>
</g>
</g>
<!-- Node17&#45;&gt;Node18 -->
<g id="edge26" class="edge"><title>Node17&#45;&gt;Node18</title>
<path fill="none" stroke="midnightblue" d="M483.629,-236.793C492.415,-236.869 501.394,-236.947 510.35,-237.025"/>
<polygon fill="midnightblue" stroke="midnightblue" points="510.41,-240.525 520.44,-237.112 510.471,-233.525 510.41,-240.525"/>
</g>
</g>
</svg>
        <g id="navigator" transform="translate(0 0)" fill="#404254">
                <rect fill="#f2f5e9" fill-opacity="0.5" stroke="#606060" stroke-width=".5" x="0" y="0" width="60" height="60"/>
                <use id="zoomplus" xlink:href="#zoomPlus" x="17" y="9" onmousedown="handleZoom(evt,'in')"/>
                <use id="zoomminus" xlink:href="#zoomMin" x="42" y="9" onmousedown="handleZoom(evt,'out')"/>
                <use id="reset" xlink:href="#resetDef" x="30" y="36" onmousedown="handleReset()"/>
                <g id="arrowUp" xlink:href="#dirArrow" transform="translate(30 24)" onmousedown="handlePan(0,-1)">
                  <use xlink:href="#rim" fill="#404040">
                        <set attributeName="fill" to="#808080" begin="arrowUp.mouseover" end="arrowUp.mouseout"/>
                  </use>
                  <path fill="none" stroke="white" stroke-width="1.5" d="M0,-3.0v7 M-2.5,-0.5L0,-3.0L2.5,-0.5"/>
                </g>
                <g id="arrowRight" xlink:href="#dirArrow" transform="rotate(90) translate(36 -43)" onmousedown="handlePan(1,0)">
                  <use xlink:href="#rim" fill="#404040">
                        <set attributeName="fill" to="#808080" begin="arrowRight.mouseover" end="arrowRight.mouseout"/>
                  </use>
                  <path fill="none" stroke="white" stroke-width="1.5" d="M0,-3.0v7 M-2.5,-0.5L0,-3.0L2.5,-0.5"/>
                </g>
                <g id="arrowDown" xlink:href="#dirArrow" transform="rotate(180) translate(-30 -48)" onmousedown="handlePan(0,1)">
                  <use xlink:href="#rim" fill="#404040">
                        <set attributeName="fill" to="#808080" begin="arrowDown.mouseover" end="arrowDown.mouseout"/>
                  </use>
                  <path fill="none" stroke="white" stroke-width="1.5" d="M0,-3.0v7 M-2.5,-0.5L0,-3.0L2.5,-0.5"/>
                </g>
                <g id="arrowLeft" xlink:href="#dirArrow" transform="rotate(270) translate(-36 17)" onmousedown="handlePan(-1,0)">
                  <use xlink:href="#rim" fill="#404040">
                        <set attributeName="fill" to="#808080" begin="arrowLeft.mouseover" end="arrowLeft.mouseout"/>
                  </use>
                  <path fill="none" stroke="white" stroke-width="1.5" d="M0,-3.0v7 M-2.5,-0.5L0,-3.0L2.5,-0.5"/>
                </g>
        </g>
        <svg viewBox="0 0 15 15" width="100%" height="30px" preserveAspectRatio="xMaxYMin meet">
         <g id="arrow_out" transform="scale(0.3 0.3)">
          <a xlink:href="classparser_1_1_parser_a6b2d7b2b182d99537ce332ed0dfd3e03_cgraph_org.svg" target="_base">
           <rect id="button" ry="5" rx="5" y="6" x="6" height="38" width="38"
                fill="#f2f5e9" fill-opacity="0.5" stroke="#606060" stroke-width="1.0"/>
           <path id="arrow"
             d="M 11.500037,31.436501 C 11.940474,20.09759 22.043105,11.32322 32.158766,21.979434 L 37.068811,17.246167 C 37.068811,17.246167 37.088388,32 37.088388,32 L 22.160133,31.978069 C 22.160133,31.978069 26.997745,27.140456 26.997745,27.140456 C 18.528582,18.264221 13.291696,25.230495 11.500037,31.436501 z"
             style="fill:#404040;"/>
          </a>
         </g>
        </svg>
</svg>
