<?xml version="1.0" encoding="UTF-8" standalone="no"?>
<!DOCTYPE svg PUBLIC "-//W3C//DTD SVG 1.1//EN"
 "http://www.w3.org/Graphics/SVG/1.1/DTD/svg11.dtd">
<!-- Generated by graphviz version 2.36.0 (20140111.2315)
 -->
<!-- Title: parser.Parser.makeTree Pages: 1 -->
<svg width="1564pt" height="77pt"
 viewBox="0.00 0.00 1564.00 77.00" xmlns="http://www.w3.org/2000/svg" xmlns:xlink="http://www.w3.org/1999/xlink">
<g id="graph0" class="graph" transform="scale(1 1) rotate(0) translate(4 73)">
<title>parser.Parser.makeTree</title>
<polygon fill="white" stroke="none" points="-4,4 -4,-73 1560,-73 1560,4 -4,4"/>
<!-- Node1 -->
<g id="node1" class="node"><title>Node1</title>
<polygon fill="#bfbfbf" stroke="black" points="0,-22.5 0,-41.5 128,-41.5 128,-22.5 0,-22.5"/>
<text text-anchor="middle" x="64" y="-29.5" font-family="Helvetica,sans-Serif" font-size="10.00">parser.Parser.makeTree</text>
</g>
<!-- Node2 -->
<g id="node2" class="node"><title>Node2</title>
<g id="a_node2"><a xlink:href="../../d6/d95/classparser_1_1_parser.html#a240c75608624a9c67402a296855c4d1d" target="_top" xlink:title="parser.Parser.initialize\lCommands">
<polygon fill="white" stroke="black" points="164,-39 164,-69 284,-69 284,-39 164,-39"/>
<text text-anchor="start" x="172" y="-57" font-family="Helvetica,sans-Serif" font-size="10.00">parser.Parser.initialize</text>
<text text-anchor="middle" x="224" y="-46" font-family="Helvetica,sans-Serif" font-size="10.00">Commands</text>
</a>
</g>
</g>
<!-- Node1&#45;&gt;Node2 -->
<g id="edge1" class="edge"><title>Node1&#45;&gt;Node2</title>
<path fill="none" stroke="midnightblue" d="M138.368,-42.2158C146.954,-43.4114 155.63,-44.6193 163.986,-45.7828"/>
<polygon fill="midnightblue" stroke="midnightblue" points="138.741,-38.7341 128.354,-40.8215 137.776,-45.6672 138.741,-38.7341"/>
</g>
<!-- Node11 -->
<g id="node11" class="node"><title>Node11</title>
<g id="a_node11"><a xlink:href="../../d6/d95/classparser_1_1_parser.html#a4ecbffc246c3add017c4720eed4c6da9" target="_top" xlink:title="parser.Parser.parse">
<polygon fill="white" stroke="black" points="169.5,-0.5 169.5,-19.5 278.5,-19.5 278.5,-0.5 169.5,-0.5"/>
<text text-anchor="middle" x="224" y="-7.5" font-family="Helvetica,sans-Serif" font-size="10.00">parser.Parser.parse</text>
</a>
</g>
</g>
<!-- Node1&#45;&gt;Node11 -->
<g id="edge10" class="edge"><title>Node1&#45;&gt;Node11</title>
<path fill="none" stroke="midnightblue" d="M138.299,-21.7938C148.739,-20.3402 159.312,-18.8679 169.284,-17.4794"/>
<polygon fill="midnightblue" stroke="midnightblue" points="137.776,-18.3328 128.354,-23.1785 138.741,-25.2659 137.776,-18.3328"/>
</g>
<!-- Node3 -->
<g id="node3" class="node"><title>Node3</title>
<g id="a_node3"><a xlink:href="../../d9/dd0/classworld_1_1_world.html#ae370733f7784c42741a6ba66c7d2ecf5" target="_top" xlink:title="world.World.listen">
<polygon fill="white" stroke="black" points="324,-42.5 324,-61.5 422,-61.5 422,-42.5 324,-42.5"/>
<text text-anchor="middle" x="373" y="-49.5" font-family="Helvetica,sans-Serif" font-size="10.00">world.World.listen</text>
</a>
</g>
</g>
<!-- Node2&#45;&gt;Node3 -->
<g id="edge2" class="edge"><title>Node2&#45;&gt;Node3</title>
<path fill="none" stroke="midnightblue" d="M294.568,-53.0535C304.418,-52.9195 314.363,-52.7842 323.692,-52.6573"/>
<polygon fill="midnightblue" stroke="midnightblue" points="294.318,-49.5565 284.367,-53.1923 294.414,-56.5558 294.318,-49.5565"/>
</g>
<!-- Node10 -->
<g id="node10" class="node"><title>Node10</title>
<g id="a_node10"><a xlink:href="../../d6/d95/classparser_1_1_parser.html#a6b2d7b2b182d99537ce332ed0dfd3e03" target="_top" xlink:title="parser.Parser.main">
<polygon fill="white" stroke="black" points="320,-3.5 320,-22.5 426,-22.5 426,-3.5 320,-3.5"/>
<text text-anchor="middle" x="373" y="-10.5" font-family="Helvetica,sans-Serif" font-size="10.00">parser.Parser.main</text>
</a>
</g>
</g>
<!-- Node2&#45;&gt;Node10 -->
<g id="edge9" class="edge"><title>Node2&#45;&gt;Node10</title>
<path fill="none" stroke="midnightblue" d="M288.718,-36.2284C305.571,-31.5278 323.123,-26.6324 337.744,-22.5545"/>
<polygon fill="midnightblue" stroke="midnightblue" points="287.595,-32.9079 278.903,-38.9659 289.475,-39.6506 287.595,-32.9079"/>
</g>
<!-- Node4 -->
<g id="node4" class="node"><title>Node4</title>
<g id="a_node4"><a xlink:href="../../d8/d08/classworld_controller_1_1_world_controller.html#a178425d68e3e669c386706153ce44999" target="_top" xlink:title="worldController.WorldController.update">
<polygon fill="white" stroke="black" points="462,-42.5 462,-61.5 660,-61.5 660,-42.5 462,-42.5"/>
<text text-anchor="middle" x="561" y="-49.5" font-family="Helvetica,sans-Serif" font-size="10.00">worldController.WorldController.update</text>
</a>
</g>
</g>
<!-- Node3&#45;&gt;Node4 -->
<g id="edge3" class="edge"><title>Node3&#45;&gt;Node4</title>
<path fill="none" stroke="midnightblue" d="M432.637,-52C441.94,-52 451.777,-52 461.695,-52"/>
<polygon fill="midnightblue" stroke="midnightblue" points="432.384,-48.5001 422.384,-52 432.384,-55.5001 432.384,-48.5001"/>
</g>
<!-- Node5 -->
<g id="node5" class="node"><title>Node5</title>
<g id="a_node5"><a xlink:href="../../d0/d7c/classuser_interface_1_1_u_i.html#ab17592b00ba0b808f524b4fc223303ec" target="_top" xlink:title="userInterface.UI.runCommand">
<polygon fill="white" stroke="black" points="696.5,-42.5 696.5,-61.5 857.5,-61.5 857.5,-42.5 696.5,-42.5"/>
<text text-anchor="middle" x="777" y="-49.5" font-family="Helvetica,sans-Serif" font-size="10.00">userInterface.UI.runCommand</text>
</a>
</g>
</g>
<!-- Node4&#45;&gt;Node5 -->
<g id="edge4" class="edge"><title>Node4&#45;&gt;Node5</title>
<path fill="none" stroke="midnightblue" d="M670.451,-52C679.164,-52 687.863,-52 696.319,-52"/>
<polygon fill="midnightblue" stroke="midnightblue" points="670.231,-48.5001 660.231,-52 670.231,-55.5001 670.231,-48.5001"/>
</g>
<!-- Node6 -->
<g id="node6" class="node"><title>Node6</title>
<g id="a_node6"><a xlink:href="../../d0/d7c/classuser_interface_1_1_u_i.html#a02bd34909b5d6037ea8ebe812879b90a" target="_top" xlink:title="userInterface.UI.makeRun\lButton">
<polygon fill="white" stroke="black" points="894,-37 894,-67 1034,-67 1034,-37 894,-37"/>
<text text-anchor="start" x="902" y="-55" font-family="Helvetica,sans-Serif" font-size="10.00">userInterface.UI.makeRun</text>
<text text-anchor="middle" x="964" y="-44" font-family="Helvetica,sans-Serif" font-size="10.00">Button</text>
</a>
</g>
</g>
<!-- Node5&#45;&gt;Node6 -->
<g id="edge5" class="edge"><title>Node5&#45;&gt;Node6</title>
<path fill="none" stroke="midnightblue" d="M867.746,-52C876.477,-52 885.241,-52 893.726,-52"/>
<polygon fill="midnightblue" stroke="midnightblue" points="867.53,-48.5001 857.53,-52 867.53,-55.5001 867.53,-48.5001"/>
</g>
<!-- Node7 -->
<g id="node7" class="node"><title>Node7</title>
<g id="a_node7"><a xlink:href="../../d0/d7c/classuser_interface_1_1_u_i.html#a9f7eaa121e1405b45e262f03859f9ff0" target="_top" xlink:title="userInterface.UI.setUpCommand\lField">
<polygon fill="white" stroke="black" points="1070,-37 1070,-67 1244,-67 1244,-37 1070,-37"/>
<text text-anchor="start" x="1078" y="-55" font-family="Helvetica,sans-Serif" font-size="10.00">userInterface.UI.setUpCommand</text>
<text text-anchor="middle" x="1157" y="-44" font-family="Helvetica,sans-Serif" font-size="10.00">Field</text>
</a>
</g>
</g>
<!-- Node6&#45;&gt;Node7 -->
<g id="edge6" class="edge"><title>Node6&#45;&gt;Node7</title>
<path fill="none" stroke="midnightblue" d="M1044.34,-52C1052.73,-52 1061.28,-52 1069.73,-52"/>
<polygon fill="midnightblue" stroke="midnightblue" points="1044.23,-48.5001 1034.23,-52 1044.23,-55.5001 1044.23,-48.5001"/>
</g>
<!-- Node8 -->
<g id="node8" class="node"><title>Node8</title>
<g id="a_node8"><a xlink:href="../../d0/d7c/classuser_interface_1_1_u_i.html#a8b1a665c129df3827e48e2739afe870d" target="_top" xlink:title="userInterface.UI.initialize">
<polygon fill="white" stroke="black" points="1280,-42.5 1280,-61.5 1414,-61.5 1414,-42.5 1280,-42.5"/>
<text text-anchor="middle" x="1347" y="-49.5" font-family="Helvetica,sans-Serif" font-size="10.00">userInterface.UI.initialize</text>
</a>
</g>
</g>
<!-- Node7&#45;&gt;Node8 -->
<g id="edge7" class="edge"><title>Node7&#45;&gt;Node8</title>
<path fill="none" stroke="midnightblue" d="M1254.16,-52C1262.8,-52 1271.42,-52 1279.72,-52"/>
<polygon fill="midnightblue" stroke="midnightblue" points="1254.02,-48.5001 1244.02,-52 1254.02,-55.5001 1254.02,-48.5001"/>
</g>
<!-- Node9 -->
<g id="node9" class="node"><title>Node9</title>
<g id="a_node9"><a xlink:href="../../d0/d7c/classuser_interface_1_1_u_i.html#a378fe4fa2136ee8c5196e86189c0d484" target="_top" xlink:title="userInterface.UI.UI">
<polygon fill="white" stroke="black" points="1450.5,-42.5 1450.5,-61.5 1555.5,-61.5 1555.5,-42.5 1450.5,-42.5"/>
<text text-anchor="middle" x="1503" y="-49.5" font-family="Helvetica,sans-Serif" font-size="10.00">userInterface.UI.UI</text>
</a>
</g>
</g>
<!-- Node8&#45;&gt;Node9 -->
<g id="edge8" class="edge"><title>Node8&#45;&gt;Node9</title>
<path fill="none" stroke="midnightblue" d="M1424.44,-52C1433.19,-52 1441.95,-52 1450.27,-52"/>
<polygon fill="midnightblue" stroke="midnightblue" points="1424.2,-48.5001 1414.2,-52 1424.2,-55.5001 1424.2,-48.5001"/>
</g>
<!-- Node11&#45;&gt;Node3 -->
<g id="edge12" class="edge"><title>Node11&#45;&gt;Node3</title>
<path fill="none" stroke="midnightblue" d="M268.002,-22.2862C290.493,-28.7122 317.615,-36.4613 338.521,-42.4347"/>
<polygon fill="midnightblue" stroke="midnightblue" points="268.933,-18.9124 258.357,-19.5305 267.01,-25.6431 268.933,-18.9124"/>
</g>
<!-- Node11&#45;&gt;Node10 -->
<g id="edge11" class="edge"><title>Node11&#45;&gt;Node10</title>
<path fill="none" stroke="midnightblue" d="M289.001,-11.3061C299.212,-11.5145 309.672,-11.728 319.575,-11.9301"/>
<polygon fill="midnightblue" stroke="midnightblue" points="288.972,-7.80492 278.903,-11.1001 288.829,-14.8035 288.972,-7.80492"/>
</g>
</g>
</svg>
