<?xml version="1.0" encoding="UTF-8" standalone="no"?>
<!DOCTYPE svg PUBLIC "-//W3C//DTD SVG 1.1//EN"
 "http://www.w3.org/Graphics/SVG/1.1/DTD/svg11.dtd">
<!-- Generated by graphviz version 2.36.0 (20140111.2315)
 -->
<!-- Title: parser.Parser.parse Pages: 1 -->
<!--zoomable 71 -->
<svg id="main" version="1.1" xmlns="http://www.w3.org/2000/svg" xmlns:xlink="http://www.w3.org/1999/xlink" xml:space="preserve" onload="init(evt)">
<style type="text/css"><![CDATA[
.edge:hover path { stroke: red; }
.edge:hover polygon { stroke: red; fill: red; }
]]></style>
<script type="text/javascript"><![CDATA[
var edges = document.getElementsByTagName('g');
if (edges && edges.length) {
  for (var i=0;i<edges.length;i++) {
    if (edges[i].id.substr(0,4)=='edge') {
      edges[i].setAttribute('class','edge');
    }
  }
}
]]></script>
        <defs>
                <circle id="rim" cx="0" cy="0" r="7"/>
                <circle id="rim2" cx="0" cy="0" r="3.5"/>
                <g id="zoomPlus">
                        <use xlink:href="#rim" fill="#404040">
                                <set attributeName="fill" to="#808080" begin="zoomplus.mouseover" end="zoomplus.mouseout"/>
                        </use>
                        <path d="M-4,0h8M0,-4v8" fill="none" stroke="white" stroke-width="1.5" pointer-events="none"/>
                </g>
                <g id="zoomMin">
                        <use xlink:href="#rim" fill="#404040">
                                <set attributeName="fill" to="#808080" begin="zoomminus.mouseover" end="zoomminus.mouseout"/>
                        </use>
                        <path d="M-4,0h8" fill="none" stroke="white" stroke-width="1.5" pointer-events="none"/>
                </g>
                <g id="dirArrow">
                        <path fill="none" stroke="white" stroke-width="1.5" d="M0,-3.0v7 M-2.5,-0.5L0,-3.0L2.5,-0.5"/>
                </g>
               <g id="resetDef">
                       <use xlink:href="#rim2" fill="#404040">
                               <set attributeName="fill" to="#808080" begin="reset.mouseover" end="reset.mouseout"/>
                       </use>
               </g>
        </defs>

<script type="text/javascript">
var viewWidth = 1390;
var viewHeight = 71;
var sectionId = 'dynsection-14';
</script>
<script xlink:href="../../svgpan.js"/>
<svg id="graph" class="graph">
<g id="viewport">
<title>parser.Parser.parse</title>
<polygon fill="white" stroke="none" points="-4,4 -4,-67 1386,-67 1386,4 -4,4"/>
<!-- Node1 -->
<g id="node1" class="node"><title>Node1</title>
<polygon fill="#bfbfbf" stroke="black" points="0.5,-19.5 0.5,-38.5 109.5,-38.5 109.5,-19.5 0.5,-19.5"/>
<text text-anchor="middle" x="55" y="-26.5" font-family="Helvetica,sans-Serif" font-size="10.00">parser.Parser.parse</text>
</g>
<!-- Node2 -->
<g id="node2" class="node"><title>Node2</title>
<g id="a_node2"><a xlink:href="../../d9/dd0/classworld_1_1_world.html#ae370733f7784c42741a6ba66c7d2ecf5" target="_top" xlink:title="world.World.listen">
<polygon fill="white" stroke="black" points="150,-38.5 150,-57.5 248,-57.5 248,-38.5 150,-38.5"/>
<text text-anchor="middle" x="199" y="-45.5" font-family="Helvetica,sans-Serif" font-size="10.00">world.World.listen</text>
</a>
</g>
</g>
<!-- Node1&#45;&gt;Node2 -->
<g id="edge1" class="edge"><title>Node1&#45;&gt;Node2</title>
<path fill="none" stroke="midnightblue" d="M119.708,-37.5244C129.83,-38.8787 140.152,-40.2598 149.839,-41.5559"/>
<polygon fill="midnightblue" stroke="midnightblue" points="120.06,-34.0403 109.684,-36.1831 119.132,-40.9785 120.06,-34.0403"/>
</g>
<!-- Node9 -->
<g id="node9" class="node"><title>Node9</title>
<g id="a_node9"><a xlink:href="../../d6/d95/classparser_1_1_parser.html#a6b2d7b2b182d99537ce332ed0dfd3e03" target="_top" xlink:title="parser.Parser.main">
<polygon fill="white" stroke="black" points="146,-0.5 146,-19.5 252,-19.5 252,-0.5 146,-0.5"/>
<text text-anchor="middle" x="199" y="-7.5" font-family="Helvetica,sans-Serif" font-size="10.00">parser.Parser.main</text>
</a>
</g>
</g>
<!-- Node1&#45;&gt;Node9 -->
<g id="edge8" class="edge"><title>Node1&#45;&gt;Node9</title>
<path fill="none" stroke="midnightblue" d="M119.754,-20.4696C128.415,-19.3107 137.222,-18.1323 145.651,-17.0045"/>
<polygon fill="midnightblue" stroke="midnightblue" points="119.132,-17.0215 109.684,-21.8169 120.06,-23.9597 119.132,-17.0215"/>
</g>
<!-- Node3 -->
<g id="node3" class="node"><title>Node3</title>
<g id="a_node3"><a xlink:href="../../d8/d08/classworld_controller_1_1_world_controller.html#a178425d68e3e669c386706153ce44999" target="_top" xlink:title="worldController.WorldController.update">
<polygon fill="white" stroke="black" points="288,-38.5 288,-57.5 486,-57.5 486,-38.5 288,-38.5"/>
<text text-anchor="middle" x="387" y="-45.5" font-family="Helvetica,sans-Serif" font-size="10.00">worldController.WorldController.update</text>
</a>
</g>
</g>
<!-- Node2&#45;&gt;Node3 -->
<g id="edge2" class="edge"><title>Node2&#45;&gt;Node3</title>
<path fill="none" stroke="midnightblue" d="M258.637,-48C267.94,-48 277.777,-48 287.695,-48"/>
<polygon fill="midnightblue" stroke="midnightblue" points="258.384,-44.5001 248.384,-48 258.384,-51.5001 258.384,-44.5001"/>
</g>
<!-- Node4 -->
<g id="node4" class="node"><title>Node4</title>
<g id="a_node4"><a xlink:href="../../d0/d7c/classuser_interface_1_1_u_i.html#ab17592b00ba0b808f524b4fc223303ec" target="_top" xlink:title="userInterface.UI.runCommand">
<polygon fill="white" stroke="black" points="522.5,-38.5 522.5,-57.5 683.5,-57.5 683.5,-38.5 522.5,-38.5"/>
<text text-anchor="middle" x="603" y="-45.5" font-family="Helvetica,sans-Serif" font-size="10.00">userInterface.UI.runCommand</text>
</a>
</g>
</g>
<!-- Node3&#45;&gt;Node4 -->
<g id="edge3" class="edge"><title>Node3&#45;&gt;Node4</title>
<path fill="none" stroke="midnightblue" d="M496.451,-48C505.164,-48 513.863,-48 522.319,-48"/>
<polygon fill="midnightblue" stroke="midnightblue" points="496.231,-44.5001 486.231,-48 496.231,-51.5001 496.231,-44.5001"/>
</g>
<!-- Node5 -->
<g id="node5" class="node"><title>Node5</title>
<g id="a_node5"><a xlink:href="../../d0/d7c/classuser_interface_1_1_u_i.html#a02bd34909b5d6037ea8ebe812879b90a" target="_top" xlink:title="userInterface.UI.makeRun\lButton">
<polygon fill="white" stroke="black" points="720,-33 720,-63 860,-63 860,-33 720,-33"/>
<text text-anchor="start" x="728" y="-51" font-family="Helvetica,sans-Serif" font-size="10.00">userInterface.UI.makeRun</text>
<text text-anchor="middle" x="790" y="-40" font-family="Helvetica,sans-Serif" font-size="10.00">Button</text>
</a>
</g>
</g>
<!-- Node4&#45;&gt;Node5 -->
<g id="edge4" class="edge"><title>Node4&#45;&gt;Node5</title>
<path fill="none" stroke="midnightblue" d="M693.746,-48C702.477,-48 711.241,-48 719.726,-48"/>
<polygon fill="midnightblue" stroke="midnightblue" points="693.53,-44.5001 683.53,-48 693.53,-51.5001 693.53,-44.5001"/>
</g>
<!-- Node6 -->
<g id="node6" class="node"><title>Node6</title>
<g id="a_node6"><a xlink:href="../../d0/d7c/classuser_interface_1_1_u_i.html#a9f7eaa121e1405b45e262f03859f9ff0" target="_top" xlink:title="userInterface.UI.setUpCommand\lField">
<polygon fill="white" stroke="black" points="896,-33 896,-63 1070,-63 1070,-33 896,-33"/>
<text text-anchor="start" x="904" y="-51" font-family="Helvetica,sans-Serif" font-size="10.00">userInterface.UI.setUpCommand</text>
<text text-anchor="middle" x="983" y="-40" font-family="Helvetica,sans-Serif" font-size="10.00">Field</text>
</a>
</g>
</g>
<!-- Node5&#45;&gt;Node6 -->
<g id="edge5" class="edge"><title>Node5&#45;&gt;Node6</title>
<path fill="none" stroke="midnightblue" d="M870.345,-48C878.726,-48 887.277,-48 895.731,-48"/>
<polygon fill="midnightblue" stroke="midnightblue" points="870.225,-44.5001 860.225,-48 870.225,-51.5001 870.225,-44.5001"/>
</g>
<!-- Node7 -->
<g id="node7" class="node"><title>Node7</title>
<g id="a_node7"><a xlink:href="../../d0/d7c/classuser_interface_1_1_u_i.html#a3bbaba49b5a758cdab6fb4182e5dec4c" target="_top" xlink:title="userInterface.UI.initialize">
<polygon fill="white" stroke="black" points="1106,-38.5 1106,-57.5 1240,-57.5 1240,-38.5 1106,-38.5"/>
<text text-anchor="middle" x="1173" y="-45.5" font-family="Helvetica,sans-Serif" font-size="10.00">userInterface.UI.initialize</text>
</a>
</g>
</g>
<!-- Node6&#45;&gt;Node7 -->
<g id="edge6" class="edge"><title>Node6&#45;&gt;Node7</title>
<path fill="none" stroke="midnightblue" d="M1080.16,-48C1088.8,-48 1097.42,-48 1105.72,-48"/>
<polygon fill="midnightblue" stroke="midnightblue" points="1080.02,-44.5001 1070.02,-48 1080.02,-51.5001 1080.02,-44.5001"/>
</g>
<!-- Node8 -->
<g id="node8" class="node"><title>Node8</title>
<g id="a_node8"><a xlink:href="../../d0/d7c/classuser_interface_1_1_u_i.html#aad82f35446d97cd94d5003a2b995e264" target="_top" xlink:title="userInterface.UI.UI">
<polygon fill="white" stroke="black" points="1276.5,-38.5 1276.5,-57.5 1381.5,-57.5 1381.5,-38.5 1276.5,-38.5"/>
<text text-anchor="middle" x="1329" y="-45.5" font-family="Helvetica,sans-Serif" font-size="10.00">userInterface.UI.UI</text>
</a>
</g>
</g>
<!-- Node7&#45;&gt;Node8 -->
<g id="edge7" class="edge"><title>Node7&#45;&gt;Node8</title>
<path fill="none" stroke="midnightblue" d="M1250.44,-48C1259.19,-48 1267.95,-48 1276.27,-48"/>
<polygon fill="midnightblue" stroke="midnightblue" points="1250.2,-44.5001 1240.2,-48 1250.2,-51.5001 1250.2,-44.5001"/>
</g>
</g>
</svg>
        <g id="navigator" transform="translate(0 0)" fill="#404254">
                <rect fill="#f2f5e9" fill-opacity="0.5" stroke="#606060" stroke-width=".5" x="0" y="0" width="60" height="60"/>
                <use id="zoomplus" xlink:href="#zoomPlus" x="17" y="9" onmousedown="handleZoom(evt,'in')"/>
                <use id="zoomminus" xlink:href="#zoomMin" x="42" y="9" onmousedown="handleZoom(evt,'out')"/>
                <use id="reset" xlink:href="#resetDef" x="30" y="36" onmousedown="handleReset()"/>
                <g id="arrowUp" xlink:href="#dirArrow" transform="translate(30 24)" onmousedown="handlePan(0,-1)">
                  <use xlink:href="#rim" fill="#404040">
                        <set attributeName="fill" to="#808080" begin="arrowUp.mouseover" end="arrowUp.mouseout"/>
                  </use>
                  <path fill="none" stroke="white" stroke-width="1.5" d="M0,-3.0v7 M-2.5,-0.5L0,-3.0L2.5,-0.5"/>
                </g>
                <g id="arrowRight" xlink:href="#dirArrow" transform="rotate(90) translate(36 -43)" onmousedown="handlePan(1,0)">
                  <use xlink:href="#rim" fill="#404040">
                        <set attributeName="fill" to="#808080" begin="arrowRight.mouseover" end="arrowRight.mouseout"/>
                  </use>
                  <path fill="none" stroke="white" stroke-width="1.5" d="M0,-3.0v7 M-2.5,-0.5L0,-3.0L2.5,-0.5"/>
                </g>
                <g id="arrowDown" xlink:href="#dirArrow" transform="rotate(180) translate(-30 -48)" onmousedown="handlePan(0,1)">
                  <use xlink:href="#rim" fill="#404040">
                        <set attributeName="fill" to="#808080" begin="arrowDown.mouseover" end="arrowDown.mouseout"/>
                  </use>
                  <path fill="none" stroke="white" stroke-width="1.5" d="M0,-3.0v7 M-2.5,-0.5L0,-3.0L2.5,-0.5"/>
                </g>
                <g id="arrowLeft" xlink:href="#dirArrow" transform="rotate(270) translate(-36 17)" onmousedown="handlePan(-1,0)">
                  <use xlink:href="#rim" fill="#404040">
                        <set attributeName="fill" to="#808080" begin="arrowLeft.mouseover" end="arrowLeft.mouseout"/>
                  </use>
                  <path fill="none" stroke="white" stroke-width="1.5" d="M0,-3.0v7 M-2.5,-0.5L0,-3.0L2.5,-0.5"/>
                </g>
        </g>
        <svg viewBox="0 0 15 15" width="100%" height="30px" preserveAspectRatio="xMaxYMin meet">
         <g id="arrow_out" transform="scale(0.3 0.3)">
          <a xlink:href="classparser_1_1_parser_a4ecbffc246c3add017c4720eed4c6da9_icgraph_org.svg" target="_base">
           <rect id="button" ry="5" rx="5" y="6" x="6" height="38" width="38"
                fill="#f2f5e9" fill-opacity="0.5" stroke="#606060" stroke-width="1.0"/>
           <path id="arrow"
             d="M 11.500037,31.436501 C 11.940474,20.09759 22.043105,11.32322 32.158766,21.979434 L 37.068811,17.246167 C 37.068811,17.246167 37.088388,32 37.088388,32 L 22.160133,31.978069 C 22.160133,31.978069 26.997745,27.140456 26.997745,27.140456 C 18.528582,18.264221 13.291696,25.230495 11.500037,31.436501 z"
             style="fill:#404040;"/>
          </a>
         </g>
        </svg>
</svg>
