<?xml version="1.0" encoding="UTF-8" standalone="no"?>
<!DOCTYPE svg PUBLIC "-//W3C//DTD SVG 1.1//EN"
 "http://www.w3.org/Graphics/SVG/1.1/DTD/svg11.dtd">
<!-- Generated by graphviz version 2.36.0 (20140111.2315)
 -->
<!-- Title: parser.Parser.generateCommandInput Pages: 1 -->
<svg width="1522pt" height="95pt"
 viewBox="0.00 0.00 1522.00 95.00" xmlns="http://www.w3.org/2000/svg" xmlns:xlink="http://www.w3.org/1999/xlink">
<g id="graph0" class="graph" transform="scale(1 1) rotate(0) translate(4 91)">
<title>parser.Parser.generateCommandInput</title>
<polygon fill="white" stroke="none" points="-4,4 -4,-91 1518,-91 1518,4 -4,4"/>
<!-- Node1 -->
<g id="node1" class="node"><title>Node1</title>
<polygon fill="#bfbfbf" stroke="black" points="0,-43 0,-73 176,-73 176,-43 0,-43"/>
<text text-anchor="start" x="8" y="-61" font-family="Helvetica,sans-Serif" font-size="10.00">parser.Parser.generateCommand</text>
<text text-anchor="middle" x="88" y="-50" font-family="Helvetica,sans-Serif" font-size="10.00">Input</text>
</g>
<!-- Node2 -->
<g id="node2" class="node"><title>Node2</title>
<g id="a_node2"><a xlink:href="../../d6/d95/classparser_1_1_parser.html#a4ecbffc246c3add017c4720eed4c6da9" target="_top" xlink:title="parser.Parser.parse">
<polygon fill="white" stroke="black" points="212.5,-48.5 212.5,-67.5 321.5,-67.5 321.5,-48.5 212.5,-48.5"/>
<text text-anchor="middle" x="267" y="-55.5" font-family="Helvetica,sans-Serif" font-size="10.00">parser.Parser.parse</text>
</a>
</g>
</g>
<!-- Node1&#45;&gt;Node2 -->
<g id="edge1" class="edge"><title>Node1&#45;&gt;Node2</title>
<path fill="none" stroke="midnightblue" d="M186.213,-58C195.052,-58 203.774,-58 212.021,-58"/>
<polygon fill="midnightblue" stroke="midnightblue" points="186.204,-54.5001 176.204,-58 186.204,-61.5001 186.204,-54.5001"/>
</g>
<!-- Node3 -->
<g id="node3" class="node"><title>Node3</title>
<g id="a_node3"><a xlink:href="../../d6/d95/classparser_1_1_parser.html#a6b2d7b2b182d99537ce332ed0dfd3e03" target="_top" xlink:title="parser.Parser.main">
<polygon fill="white" stroke="black" points="358,-67.5 358,-86.5 464,-86.5 464,-67.5 358,-67.5"/>
<text text-anchor="middle" x="411" y="-74.5" font-family="Helvetica,sans-Serif" font-size="10.00">parser.Parser.main</text>
</a>
</g>
</g>
<!-- Node2&#45;&gt;Node3 -->
<g id="edge2" class="edge"><title>Node2&#45;&gt;Node3</title>
<path fill="none" stroke="midnightblue" d="M331.754,-66.5304C340.415,-67.6893 349.222,-68.8677 357.651,-69.9955"/>
<polygon fill="midnightblue" stroke="midnightblue" points="332.06,-63.0403 321.684,-65.1831 331.132,-69.9785 332.06,-63.0403"/>
</g>
<!-- Node4 -->
<g id="node4" class="node"><title>Node4</title>
<g id="a_node4"><a xlink:href="../../d9/dd0/classworld_1_1_world.html#ae370733f7784c42741a6ba66c7d2ecf5" target="_top" xlink:title="world.World.listen">
<polygon fill="white" stroke="black" points="362,-29.5 362,-48.5 460,-48.5 460,-29.5 362,-29.5"/>
<text text-anchor="middle" x="411" y="-36.5" font-family="Helvetica,sans-Serif" font-size="10.00">world.World.listen</text>
</a>
</g>
</g>
<!-- Node2&#45;&gt;Node4 -->
<g id="edge3" class="edge"><title>Node2&#45;&gt;Node4</title>
<path fill="none" stroke="midnightblue" d="M331.708,-49.4756C341.83,-48.1213 352.152,-46.7402 361.839,-45.4441"/>
<polygon fill="midnightblue" stroke="midnightblue" points="331.132,-46.0215 321.684,-50.8169 332.06,-52.9597 331.132,-46.0215"/>
</g>
<!-- Node5 -->
<g id="node5" class="node"><title>Node5</title>
<g id="a_node5"><a xlink:href="../../d8/d08/classworld_controller_1_1_world_controller.html#a178425d68e3e669c386706153ce44999" target="_top" xlink:title="worldController.WorldController.update">
<polygon fill="white" stroke="black" points="500,-29.5 500,-48.5 698,-48.5 698,-29.5 500,-29.5"/>
<text text-anchor="middle" x="599" y="-36.5" font-family="Helvetica,sans-Serif" font-size="10.00">worldController.WorldController.update</text>
</a>
</g>
</g>
<!-- Node4&#45;&gt;Node5 -->
<g id="edge4" class="edge"><title>Node4&#45;&gt;Node5</title>
<path fill="none" stroke="midnightblue" d="M470.637,-39C479.94,-39 489.777,-39 499.695,-39"/>
<polygon fill="midnightblue" stroke="midnightblue" points="470.384,-35.5001 460.384,-39 470.384,-42.5001 470.384,-35.5001"/>
</g>
<!-- Node6 -->
<g id="node6" class="node"><title>Node6</title>
<g id="a_node6"><a xlink:href="../../dd/d8e/classuser_interface_1_1_user_interface.html#a95e324c85888faea808be269e44ed5b8" target="_top" xlink:title="userInterface.UserInterface.run\lCommand">
<polygon fill="white" stroke="black" points="734,-24 734,-54 900,-54 900,-24 734,-24"/>
<text text-anchor="start" x="742" y="-42" font-family="Helvetica,sans-Serif" font-size="10.00">userInterface.UserInterface.run</text>
<text text-anchor="middle" x="817" y="-31" font-family="Helvetica,sans-Serif" font-size="10.00">Command</text>
</a>
</g>
</g>
<!-- Node5&#45;&gt;Node6 -->
<g id="edge5" class="edge"><title>Node5&#45;&gt;Node6</title>
<path fill="none" stroke="midnightblue" d="M708.29,-39C716.892,-39 725.492,-39 733.871,-39"/>
<polygon fill="midnightblue" stroke="midnightblue" points="708.203,-35.5001 698.203,-39 708.203,-42.5001 708.203,-35.5001"/>
</g>
<!-- Node7 -->
<g id="node7" class="node"><title>Node7</title>
<g id="a_node7"><a xlink:href="../../dd/d8e/classuser_interface_1_1_user_interface.html#a560c36977fddeee87002333870c54ed6" target="_top" xlink:title="userInterface.UserInterface.set\lUpResponses">
<polygon fill="white" stroke="black" points="1156.5,-49 1156.5,-79 1321.5,-79 1321.5,-49 1156.5,-49"/>
<text text-anchor="start" x="1164.5" y="-67" font-family="Helvetica,sans-Serif" font-size="10.00">userInterface.UserInterface.set</text>
<text text-anchor="middle" x="1239" y="-56" font-family="Helvetica,sans-Serif" font-size="10.00">UpResponses</text>
</a>
</g>
</g>
<!-- Node6&#45;&gt;Node7 -->
<g id="edge6" class="edge"><title>Node6&#45;&gt;Node7</title>
<path fill="none" stroke="midnightblue" d="M910.405,-44.5003C983.911,-48.8757 1085.79,-54.9396 1156.33,-59.1386"/>
<polygon fill="midnightblue" stroke="midnightblue" points="910.418,-40.9949 900.227,-43.8945 910.002,-47.9826 910.418,-40.9949"/>
</g>
<!-- Node9 -->
<g id="node9" class="node"><title>Node9</title>
<g id="a_node9"><a xlink:href="../../dd/d8e/classuser_interface_1_1_user_interface.html#a4316649a1f81fcc1dcaf93c812bf6f3a" target="_top" xlink:title="userInterface.UserInterface.make\lRunButton">
<polygon fill="white" stroke="black" points="936.5,-2 936.5,-32 1113.5,-32 1113.5,-2 936.5,-2"/>
<text text-anchor="start" x="944.5" y="-20" font-family="Helvetica,sans-Serif" font-size="10.00">userInterface.UserInterface.make</text>
<text text-anchor="middle" x="1025" y="-9" font-family="Helvetica,sans-Serif" font-size="10.00">RunButton</text>
</a>
</g>
</g>
<!-- Node6&#45;&gt;Node9 -->
<g id="edge8" class="edge"><title>Node6&#45;&gt;Node9</title>
<path fill="none" stroke="midnightblue" d="M910.121,-29.1618C918.789,-28.2361 927.561,-27.2994 936.187,-26.3781"/>
<polygon fill="midnightblue" stroke="midnightblue" points="909.58,-25.6996 900.009,-30.2418 910.324,-32.66 909.58,-25.6996"/>
</g>
<!-- Node8 -->
<g id="node8" class="node"><title>Node8</title>
<g id="a_node8"><a xlink:href="../../dd/d8e/classuser_interface_1_1_user_interface.html#af296b064499e62c4fbfbf73da6456532" target="_top" xlink:title="userInterface.UserInterface.\lUserInterface">
<polygon fill="white" stroke="black" points="1364,-24 1364,-54 1514,-54 1514,-24 1364,-24"/>
<text text-anchor="start" x="1372" y="-42" font-family="Helvetica,sans-Serif" font-size="10.00">userInterface.UserInterface.</text>
<text text-anchor="middle" x="1439" y="-31" font-family="Helvetica,sans-Serif" font-size="10.00">UserInterface</text>
</a>
</g>
</g>
<!-- Node7&#45;&gt;Node8 -->
<g id="edge7" class="edge"><title>Node7&#45;&gt;Node8</title>
<path fill="none" stroke="midnightblue" d="M1331.88,-52.3986C1342.58,-51.0478 1353.39,-49.683 1363.81,-48.3677"/>
<polygon fill="midnightblue" stroke="midnightblue" points="1331.16,-48.962 1321.68,-53.6872 1332.04,-55.9069 1331.16,-48.962"/>
</g>
<!-- Node10 -->
<g id="node10" class="node"><title>Node10</title>
<g id="a_node10"><a xlink:href="../../dd/d8e/classuser_interface_1_1_user_interface.html#a6d39ee7d7ae35fc0539bb714bce6221a" target="_top" xlink:title="userInterface.UserInterface.make\lFunctionButtons">
<polygon fill="white" stroke="black" points="1150.5,-0 1150.5,-30 1327.5,-30 1327.5,-0 1150.5,-0"/>
<text text-anchor="start" x="1158.5" y="-18" font-family="Helvetica,sans-Serif" font-size="10.00">userInterface.UserInterface.make</text>
<text text-anchor="middle" x="1239" y="-7" font-family="Helvetica,sans-Serif" font-size="10.00">FunctionButtons</text>
</a>
</g>
</g>
<!-- Node9&#45;&gt;Node10 -->
<g id="edge9" class="edge"><title>Node9&#45;&gt;Node10</title>
<path fill="none" stroke="midnightblue" d="M1124.01,-16.0754C1132.78,-15.9926 1141.63,-15.9092 1150.31,-15.8273"/>
<polygon fill="midnightblue" stroke="midnightblue" points="1123.73,-12.5778 1113.76,-16.1721 1123.79,-19.5775 1123.73,-12.5778"/>
</g>
<!-- Node10&#45;&gt;Node8 -->
<g id="edge10" class="edge"><title>Node10&#45;&gt;Node8</title>
<path fill="none" stroke="midnightblue" d="M1337.67,-26.8393C1346.52,-27.9113 1355.38,-28.985 1363.97,-30.0262"/>
<polygon fill="midnightblue" stroke="midnightblue" points="1338.06,-23.3604 1327.71,-25.6316 1337.22,-30.3095 1338.06,-23.3604"/>
</g>
</g>
</svg>
