<?xml version="1.0" encoding="UTF-8" standalone="no"?>
<!DOCTYPE svg PUBLIC "-//W3C//DTD SVG 1.1//EN"
 "http://www.w3.org/Graphics/SVG/1.1/DTD/svg11.dtd">
<!-- Generated by graphviz version 2.36.0 (20140111.2315)
 -->
<!-- Title: parser.Parser.getNodeForCommand Pages: 1 -->
<svg width="1484pt" height="95pt"
 viewBox="0.00 0.00 1484.00 95.00" xmlns="http://www.w3.org/2000/svg" xmlns:xlink="http://www.w3.org/1999/xlink">
<g id="graph0" class="graph" transform="scale(1 1) rotate(0) translate(4 91)">
<title>parser.Parser.getNodeForCommand</title>
<polygon fill="white" stroke="none" points="-4,4 -4,-91 1480,-91 1480,4 -4,4"/>
<!-- Node1 -->
<g id="node1" class="node"><title>Node1</title>
<polygon fill="#bfbfbf" stroke="black" points="0,-43 0,-73 138,-73 138,-43 0,-43"/>
<text text-anchor="start" x="8" y="-61" font-family="Helvetica,sans-Serif" font-size="10.00">parser.Parser.getNodeFor</text>
<text text-anchor="middle" x="69" y="-50" font-family="Helvetica,sans-Serif" font-size="10.00">Command</text>
</g>
<!-- Node2 -->
<g id="node2" class="node"><title>Node2</title>
<g id="a_node2"><a xlink:href="../../d6/d95/classparser_1_1_parser.html#a4ecbffc246c3add017c4720eed4c6da9" target="_top" xlink:title="parser.Parser.parse">
<polygon fill="white" stroke="black" points="174.5,-48.5 174.5,-67.5 283.5,-67.5 283.5,-48.5 174.5,-48.5"/>
<text text-anchor="middle" x="229" y="-55.5" font-family="Helvetica,sans-Serif" font-size="10.00">parser.Parser.parse</text>
</a>
</g>
</g>
<!-- Node1&#45;&gt;Node2 -->
<g id="edge1" class="edge"><title>Node1&#45;&gt;Node2</title>
<path fill="none" stroke="midnightblue" d="M148.569,-58C157.271,-58 165.98,-58 174.274,-58"/>
<polygon fill="midnightblue" stroke="midnightblue" points="148.382,-54.5001 138.382,-58 148.382,-61.5001 148.382,-54.5001"/>
</g>
<!-- Node3 -->
<g id="node3" class="node"><title>Node3</title>
<g id="a_node3"><a xlink:href="../../d6/d95/classparser_1_1_parser.html#a6b2d7b2b182d99537ce332ed0dfd3e03" target="_top" xlink:title="parser.Parser.main">
<polygon fill="white" stroke="black" points="320,-67.5 320,-86.5 426,-86.5 426,-67.5 320,-67.5"/>
<text text-anchor="middle" x="373" y="-74.5" font-family="Helvetica,sans-Serif" font-size="10.00">parser.Parser.main</text>
</a>
</g>
</g>
<!-- Node2&#45;&gt;Node3 -->
<g id="edge2" class="edge"><title>Node2&#45;&gt;Node3</title>
<path fill="none" stroke="midnightblue" d="M293.754,-66.5304C302.415,-67.6893 311.222,-68.8677 319.651,-69.9955"/>
<polygon fill="midnightblue" stroke="midnightblue" points="294.06,-63.0403 283.684,-65.1831 293.132,-69.9785 294.06,-63.0403"/>
</g>
<!-- Node4 -->
<g id="node4" class="node"><title>Node4</title>
<g id="a_node4"><a xlink:href="../../d9/dd0/classworld_1_1_world.html#ae370733f7784c42741a6ba66c7d2ecf5" target="_top" xlink:title="world.World.listen">
<polygon fill="white" stroke="black" points="324,-29.5 324,-48.5 422,-48.5 422,-29.5 324,-29.5"/>
<text text-anchor="middle" x="373" y="-36.5" font-family="Helvetica,sans-Serif" font-size="10.00">world.World.listen</text>
</a>
</g>
</g>
<!-- Node2&#45;&gt;Node4 -->
<g id="edge3" class="edge"><title>Node2&#45;&gt;Node4</title>
<path fill="none" stroke="midnightblue" d="M293.708,-49.4756C303.83,-48.1213 314.152,-46.7402 323.839,-45.4441"/>
<polygon fill="midnightblue" stroke="midnightblue" points="293.132,-46.0215 283.684,-50.8169 294.06,-52.9597 293.132,-46.0215"/>
</g>
<!-- Node5 -->
<g id="node5" class="node"><title>Node5</title>
<g id="a_node5"><a xlink:href="../../d8/d08/classworld_controller_1_1_world_controller.html#a178425d68e3e669c386706153ce44999" target="_top" xlink:title="worldController.WorldController.update">
<polygon fill="white" stroke="black" points="462,-29.5 462,-48.5 660,-48.5 660,-29.5 462,-29.5"/>
<text text-anchor="middle" x="561" y="-36.5" font-family="Helvetica,sans-Serif" font-size="10.00">worldController.WorldController.update</text>
</a>
</g>
</g>
<!-- Node4&#45;&gt;Node5 -->
<g id="edge4" class="edge"><title>Node4&#45;&gt;Node5</title>
<path fill="none" stroke="midnightblue" d="M432.637,-39C441.94,-39 451.777,-39 461.695,-39"/>
<polygon fill="midnightblue" stroke="midnightblue" points="432.384,-35.5001 422.384,-39 432.384,-42.5001 432.384,-35.5001"/>
</g>
<!-- Node6 -->
<g id="node6" class="node"><title>Node6</title>
<g id="a_node6"><a xlink:href="../../dd/d8e/classuser_interface_1_1_user_interface.html#a95e324c85888faea808be269e44ed5b8" target="_top" xlink:title="userInterface.UserInterface.run\lCommand">
<polygon fill="white" stroke="black" points="696,-24 696,-54 862,-54 862,-24 696,-24"/>
<text text-anchor="start" x="704" y="-42" font-family="Helvetica,sans-Serif" font-size="10.00">userInterface.UserInterface.run</text>
<text text-anchor="middle" x="779" y="-31" font-family="Helvetica,sans-Serif" font-size="10.00">Command</text>
</a>
</g>
</g>
<!-- Node5&#45;&gt;Node6 -->
<g id="edge5" class="edge"><title>Node5&#45;&gt;Node6</title>
<path fill="none" stroke="midnightblue" d="M670.29,-39C678.892,-39 687.492,-39 695.871,-39"/>
<polygon fill="midnightblue" stroke="midnightblue" points="670.203,-35.5001 660.203,-39 670.203,-42.5001 670.203,-35.5001"/>
</g>
<!-- Node7 -->
<g id="node7" class="node"><title>Node7</title>
<g id="a_node7"><a xlink:href="../../dd/d8e/classuser_interface_1_1_user_interface.html#a560c36977fddeee87002333870c54ed6" target="_top" xlink:title="userInterface.UserInterface.set\lUpResponses">
<polygon fill="white" stroke="black" points="1118.5,-49 1118.5,-79 1283.5,-79 1283.5,-49 1118.5,-49"/>
<text text-anchor="start" x="1126.5" y="-67" font-family="Helvetica,sans-Serif" font-size="10.00">userInterface.UserInterface.set</text>
<text text-anchor="middle" x="1201" y="-56" font-family="Helvetica,sans-Serif" font-size="10.00">UpResponses</text>
</a>
</g>
</g>
<!-- Node6&#45;&gt;Node7 -->
<g id="edge6" class="edge"><title>Node6&#45;&gt;Node7</title>
<path fill="none" stroke="midnightblue" d="M872.405,-44.5003C945.911,-48.8757 1047.79,-54.9396 1118.33,-59.1386"/>
<polygon fill="midnightblue" stroke="midnightblue" points="872.418,-40.9949 862.227,-43.8945 872.002,-47.9826 872.418,-40.9949"/>
</g>
<!-- Node9 -->
<g id="node9" class="node"><title>Node9</title>
<g id="a_node9"><a xlink:href="../../dd/d8e/classuser_interface_1_1_user_interface.html#a4316649a1f81fcc1dcaf93c812bf6f3a" target="_top" xlink:title="userInterface.UserInterface.make\lRunButton">
<polygon fill="white" stroke="black" points="898.5,-2 898.5,-32 1075.5,-32 1075.5,-2 898.5,-2"/>
<text text-anchor="start" x="906.5" y="-20" font-family="Helvetica,sans-Serif" font-size="10.00">userInterface.UserInterface.make</text>
<text text-anchor="middle" x="987" y="-9" font-family="Helvetica,sans-Serif" font-size="10.00">RunButton</text>
</a>
</g>
</g>
<!-- Node6&#45;&gt;Node9 -->
<g id="edge8" class="edge"><title>Node6&#45;&gt;Node9</title>
<path fill="none" stroke="midnightblue" d="M872.121,-29.1618C880.789,-28.2361 889.561,-27.2994 898.187,-26.3781"/>
<polygon fill="midnightblue" stroke="midnightblue" points="871.58,-25.6996 862.009,-30.2418 872.324,-32.66 871.58,-25.6996"/>
</g>
<!-- Node8 -->
<g id="node8" class="node"><title>Node8</title>
<g id="a_node8"><a xlink:href="../../dd/d8e/classuser_interface_1_1_user_interface.html#af296b064499e62c4fbfbf73da6456532" target="_top" xlink:title="userInterface.UserInterface.\lUserInterface">
<polygon fill="white" stroke="black" points="1326,-24 1326,-54 1476,-54 1476,-24 1326,-24"/>
<text text-anchor="start" x="1334" y="-42" font-family="Helvetica,sans-Serif" font-size="10.00">userInterface.UserInterface.</text>
<text text-anchor="middle" x="1401" y="-31" font-family="Helvetica,sans-Serif" font-size="10.00">UserInterface</text>
</a>
</g>
</g>
<!-- Node7&#45;&gt;Node8 -->
<g id="edge7" class="edge"><title>Node7&#45;&gt;Node8</title>
<path fill="none" stroke="midnightblue" d="M1293.88,-52.3986C1304.58,-51.0478 1315.39,-49.683 1325.81,-48.3677"/>
<polygon fill="midnightblue" stroke="midnightblue" points="1293.16,-48.962 1283.68,-53.6872 1294.04,-55.9069 1293.16,-48.962"/>
</g>
<!-- Node10 -->
<g id="node10" class="node"><title>Node10</title>
<g id="a_node10"><a xlink:href="../../dd/d8e/classuser_interface_1_1_user_interface.html#a6d39ee7d7ae35fc0539bb714bce6221a" target="_top" xlink:title="userInterface.UserInterface.make\lFunctionButtons">
<polygon fill="white" stroke="black" points="1112.5,-0 1112.5,-30 1289.5,-30 1289.5,-0 1112.5,-0"/>
<text text-anchor="start" x="1120.5" y="-18" font-family="Helvetica,sans-Serif" font-size="10.00">userInterface.UserInterface.make</text>
<text text-anchor="middle" x="1201" y="-7" font-family="Helvetica,sans-Serif" font-size="10.00">FunctionButtons</text>
</a>
</g>
</g>
<!-- Node9&#45;&gt;Node10 -->
<g id="edge9" class="edge"><title>Node9&#45;&gt;Node10</title>
<path fill="none" stroke="midnightblue" d="M1086.01,-16.0754C1094.78,-15.9926 1103.63,-15.9092 1112.31,-15.8273"/>
<polygon fill="midnightblue" stroke="midnightblue" points="1085.73,-12.5778 1075.76,-16.1721 1085.79,-19.5775 1085.73,-12.5778"/>
</g>
<!-- Node10&#45;&gt;Node8 -->
<g id="edge10" class="edge"><title>Node10&#45;&gt;Node8</title>
<path fill="none" stroke="midnightblue" d="M1299.67,-26.8393C1308.52,-27.9113 1317.38,-28.985 1325.97,-30.0262"/>
<polygon fill="midnightblue" stroke="midnightblue" points="1300.06,-23.3604 1289.71,-25.6316 1299.22,-30.3095 1300.06,-23.3604"/>
</g>
</g>
</svg>
