<?xml version="1.0" encoding="UTF-8" standalone="no"?>
<!DOCTYPE svg PUBLIC "-//W3C//DTD SVG 1.1//EN"
 "http://www.w3.org/Graphics/SVG/1.1/DTD/svg11.dtd">
<!-- Generated by graphviz version 2.36.0 (20140111.2315)
 -->
<!-- Title: parser.Parser.initializeCommands Pages: 1 -->
<svg width="1400pt" height="71pt"
 viewBox="0.00 0.00 1400.00 71.00" xmlns="http://www.w3.org/2000/svg" xmlns:xlink="http://www.w3.org/1999/xlink">
<g id="graph0" class="graph" transform="scale(1 1) rotate(0) translate(4 67)">
<title>parser.Parser.initializeCommands</title>
<polygon fill="white" stroke="none" points="-4,4 -4,-67 1396,-67 1396,4 -4,4"/>
<!-- Node1 -->
<g id="node1" class="node"><title>Node1</title>
<polygon fill="#bfbfbf" stroke="black" points="0,-14 0,-44 120,-44 120,-14 0,-14"/>
<text text-anchor="start" x="8" y="-32" font-family="Helvetica,sans-Serif" font-size="10.00">parser.Parser.initialize</text>
<text text-anchor="middle" x="60" y="-21" font-family="Helvetica,sans-Serif" font-size="10.00">Commands</text>
</g>
<!-- Node2 -->
<g id="node2" class="node"><title>Node2</title>
<g id="a_node2"><a xlink:href="../../d9/dd0/classworld_1_1_world.html#ae370733f7784c42741a6ba66c7d2ecf5" target="_top" xlink:title="world.World.listen">
<polygon fill="white" stroke="black" points="160,-38.5 160,-57.5 258,-57.5 258,-38.5 160,-38.5"/>
<text text-anchor="middle" x="209" y="-45.5" font-family="Helvetica,sans-Serif" font-size="10.00">world.World.listen</text>
</a>
</g>
</g>
<!-- Node1&#45;&gt;Node2 -->
<g id="edge1" class="edge"><title>Node1&#45;&gt;Node2</title>
<path fill="none" stroke="midnightblue" d="M130.568,-37.9918C140.418,-39.2649 150.363,-40.5503 159.692,-41.7561"/>
<polygon fill="midnightblue" stroke="midnightblue" points="130.733,-34.4841 120.367,-36.6733 129.836,-41.4263 130.733,-34.4841"/>
</g>
<!-- Node9 -->
<g id="node9" class="node"><title>Node9</title>
<g id="a_node9"><a xlink:href="../../d6/d95/classparser_1_1_parser.html#a6b2d7b2b182d99537ce332ed0dfd3e03" target="_top" xlink:title="parser.Parser.main">
<polygon fill="white" stroke="black" points="156,-0.5 156,-19.5 262,-19.5 262,-0.5 156,-0.5"/>
<text text-anchor="middle" x="209" y="-7.5" font-family="Helvetica,sans-Serif" font-size="10.00">parser.Parser.main</text>
</a>
</g>
</g>
<!-- Node1&#45;&gt;Node9 -->
<g id="edge8" class="edge"><title>Node1&#45;&gt;Node9</title>
<path fill="none" stroke="midnightblue" d="M130.409,-20.0288C139.016,-18.9163 147.699,-17.794 155.983,-16.7233"/>
<polygon fill="midnightblue" stroke="midnightblue" points="129.836,-16.5737 120.367,-21.3267 130.733,-23.5159 129.836,-16.5737"/>
</g>
<!-- Node3 -->
<g id="node3" class="node"><title>Node3</title>
<g id="a_node3"><a xlink:href="../../d8/d08/classworld_controller_1_1_world_controller.html#a178425d68e3e669c386706153ce44999" target="_top" xlink:title="worldController.WorldController.update">
<polygon fill="white" stroke="black" points="298,-38.5 298,-57.5 496,-57.5 496,-38.5 298,-38.5"/>
<text text-anchor="middle" x="397" y="-45.5" font-family="Helvetica,sans-Serif" font-size="10.00">worldController.WorldController.update</text>
</a>
</g>
</g>
<!-- Node2&#45;&gt;Node3 -->
<g id="edge2" class="edge"><title>Node2&#45;&gt;Node3</title>
<path fill="none" stroke="midnightblue" d="M268.637,-48C277.94,-48 287.777,-48 297.695,-48"/>
<polygon fill="midnightblue" stroke="midnightblue" points="268.384,-44.5001 258.384,-48 268.384,-51.5001 268.384,-44.5001"/>
</g>
<!-- Node4 -->
<g id="node4" class="node"><title>Node4</title>
<g id="a_node4"><a xlink:href="../../d0/d7c/classuser_interface_1_1_u_i.html#ab17592b00ba0b808f524b4fc223303ec" target="_top" xlink:title="userInterface.UI.runCommand">
<polygon fill="white" stroke="black" points="532.5,-38.5 532.5,-57.5 693.5,-57.5 693.5,-38.5 532.5,-38.5"/>
<text text-anchor="middle" x="613" y="-45.5" font-family="Helvetica,sans-Serif" font-size="10.00">userInterface.UI.runCommand</text>
</a>
</g>
</g>
<!-- Node3&#45;&gt;Node4 -->
<g id="edge3" class="edge"><title>Node3&#45;&gt;Node4</title>
<path fill="none" stroke="midnightblue" d="M506.451,-48C515.164,-48 523.863,-48 532.319,-48"/>
<polygon fill="midnightblue" stroke="midnightblue" points="506.231,-44.5001 496.231,-48 506.231,-51.5001 506.231,-44.5001"/>
</g>
<!-- Node5 -->
<g id="node5" class="node"><title>Node5</title>
<g id="a_node5"><a xlink:href="../../d0/d7c/classuser_interface_1_1_u_i.html#a02bd34909b5d6037ea8ebe812879b90a" target="_top" xlink:title="userInterface.UI.makeRun\lButton">
<polygon fill="white" stroke="black" points="730,-33 730,-63 870,-63 870,-33 730,-33"/>
<text text-anchor="start" x="738" y="-51" font-family="Helvetica,sans-Serif" font-size="10.00">userInterface.UI.makeRun</text>
<text text-anchor="middle" x="800" y="-40" font-family="Helvetica,sans-Serif" font-size="10.00">Button</text>
</a>
</g>
</g>
<!-- Node4&#45;&gt;Node5 -->
<g id="edge4" class="edge"><title>Node4&#45;&gt;Node5</title>
<path fill="none" stroke="midnightblue" d="M703.746,-48C712.477,-48 721.241,-48 729.726,-48"/>
<polygon fill="midnightblue" stroke="midnightblue" points="703.53,-44.5001 693.53,-48 703.53,-51.5001 703.53,-44.5001"/>
</g>
<!-- Node6 -->
<g id="node6" class="node"><title>Node6</title>
<g id="a_node6"><a xlink:href="../../d0/d7c/classuser_interface_1_1_u_i.html#a9f7eaa121e1405b45e262f03859f9ff0" target="_top" xlink:title="userInterface.UI.setUpCommand\lField">
<polygon fill="white" stroke="black" points="906,-33 906,-63 1080,-63 1080,-33 906,-33"/>
<text text-anchor="start" x="914" y="-51" font-family="Helvetica,sans-Serif" font-size="10.00">userInterface.UI.setUpCommand</text>
<text text-anchor="middle" x="993" y="-40" font-family="Helvetica,sans-Serif" font-size="10.00">Field</text>
</a>
</g>
</g>
<!-- Node5&#45;&gt;Node6 -->
<g id="edge5" class="edge"><title>Node5&#45;&gt;Node6</title>
<path fill="none" stroke="midnightblue" d="M880.345,-48C888.726,-48 897.277,-48 905.731,-48"/>
<polygon fill="midnightblue" stroke="midnightblue" points="880.225,-44.5001 870.225,-48 880.225,-51.5001 880.225,-44.5001"/>
</g>
<!-- Node7 -->
<g id="node7" class="node"><title>Node7</title>
<g id="a_node7"><a xlink:href="../../d0/d7c/classuser_interface_1_1_u_i.html#a8b1a665c129df3827e48e2739afe870d" target="_top" xlink:title="userInterface.UI.initialize">
<polygon fill="white" stroke="black" points="1116,-38.5 1116,-57.5 1250,-57.5 1250,-38.5 1116,-38.5"/>
<text text-anchor="middle" x="1183" y="-45.5" font-family="Helvetica,sans-Serif" font-size="10.00">userInterface.UI.initialize</text>
</a>
</g>
</g>
<!-- Node6&#45;&gt;Node7 -->
<g id="edge6" class="edge"><title>Node6&#45;&gt;Node7</title>
<path fill="none" stroke="midnightblue" d="M1090.16,-48C1098.8,-48 1107.42,-48 1115.72,-48"/>
<polygon fill="midnightblue" stroke="midnightblue" points="1090.02,-44.5001 1080.02,-48 1090.02,-51.5001 1090.02,-44.5001"/>
</g>
<!-- Node8 -->
<g id="node8" class="node"><title>Node8</title>
<g id="a_node8"><a xlink:href="../../d0/d7c/classuser_interface_1_1_u_i.html#a378fe4fa2136ee8c5196e86189c0d484" target="_top" xlink:title="userInterface.UI.UI">
<polygon fill="white" stroke="black" points="1286.5,-38.5 1286.5,-57.5 1391.5,-57.5 1391.5,-38.5 1286.5,-38.5"/>
<text text-anchor="middle" x="1339" y="-45.5" font-family="Helvetica,sans-Serif" font-size="10.00">userInterface.UI.UI</text>
</a>
</g>
</g>
<!-- Node7&#45;&gt;Node8 -->
<g id="edge7" class="edge"><title>Node7&#45;&gt;Node8</title>
<path fill="none" stroke="midnightblue" d="M1260.44,-48C1269.19,-48 1277.95,-48 1286.27,-48"/>
<polygon fill="midnightblue" stroke="midnightblue" points="1260.2,-44.5001 1250.2,-48 1260.2,-51.5001 1260.2,-44.5001"/>
</g>
</g>
</svg>
