<?xml version="1.0" encoding="UTF-8" standalone="no"?>
<!DOCTYPE svg PUBLIC "-//W3C//DTD SVG 1.1//EN"
 "http://www.w3.org/Graphics/SVG/1.1/DTD/svg11.dtd">
<!-- Generated by graphviz version 2.36.0 (20140111.2315)
 -->
<!-- Title: parser.Parser.initializeCommands Pages: 1 -->
<!--zoomable 175 -->
<svg id="main" version="1.1" xmlns="http://www.w3.org/2000/svg" xmlns:xlink="http://www.w3.org/1999/xlink" xml:space="preserve" onload="init(evt)">
<style type="text/css"><![CDATA[
.edge:hover path { stroke: red; }
.edge:hover polygon { stroke: red; fill: red; }
]]></style>
<script type="text/javascript"><![CDATA[
var edges = document.getElementsByTagName('g');
if (edges && edges.length) {
  for (var i=0;i<edges.length;i++) {
    if (edges[i].id.substr(0,4)=='edge') {
      edges[i].setAttribute('class','edge');
    }
  }
}
]]></script>
        <defs>
                <circle id="rim" cx="0" cy="0" r="7"/>
                <circle id="rim2" cx="0" cy="0" r="3.5"/>
                <g id="zoomPlus">
                        <use xlink:href="#rim" fill="#404040">
                                <set attributeName="fill" to="#808080" begin="zoomplus.mouseover" end="zoomplus.mouseout"/>
                        </use>
                        <path d="M-4,0h8M0,-4v8" fill="none" stroke="white" stroke-width="1.5" pointer-events="none"/>
                </g>
                <g id="zoomMin">
                        <use xlink:href="#rim" fill="#404040">
                                <set attributeName="fill" to="#808080" begin="zoomminus.mouseover" end="zoomminus.mouseout"/>
                        </use>
                        <path d="M-4,0h8" fill="none" stroke="white" stroke-width="1.5" pointer-events="none"/>
                </g>
                <g id="dirArrow">
                        <path fill="none" stroke="white" stroke-width="1.5" d="M0,-3.0v7 M-2.5,-0.5L0,-3.0L2.5,-0.5"/>
                </g>
               <g id="resetDef">
                       <use xlink:href="#rim2" fill="#404040">
                               <set attributeName="fill" to="#808080" begin="reset.mouseover" end="reset.mouseout"/>
                       </use>
               </g>
        </defs>

<script type="text/javascript">
var viewWidth = 756;
var viewHeight = 175;
var sectionId = 'dynsection-8';
</script>
<script xlink:href="../../svgpan.js"/>
<svg id="graph" class="graph">
<g id="viewport">
<title>parser.Parser.initializeCommands</title>
<polygon fill="white" stroke="none" points="-4,4 -4,-171 752,-171 752,4 -4,4"/>
<!-- Node1 -->
<g id="node1" class="node"><title>Node1</title>
<polygon fill="#bfbfbf" stroke="black" points="0,-71 0,-101 120,-101 120,-71 0,-71"/>
<text text-anchor="start" x="8" y="-89" font-family="Helvetica,sans-Serif" font-size="10.00">parser.Parser.initialize</text>
<text text-anchor="middle" x="60" y="-78" font-family="Helvetica,sans-Serif" font-size="10.00">Commands</text>
</g>
<!-- Node2 -->
<g id="node2" class="node"><title>Node2</title>
<g id="a_node2"><a xlink:href="../../d3/dcc/classparser_1_1_node.html#a9c12e8d4375a7517eae0a35724b253c4" target="_top" xlink:title="parser.Node.getValue">
<polygon fill="white" stroke="black" points="160,-95.5 160,-114.5 280,-114.5 280,-95.5 160,-95.5"/>
<text text-anchor="middle" x="220" y="-102.5" font-family="Helvetica,sans-Serif" font-size="10.00">parser.Node.getValue</text>
</a>
</g>
</g>
<!-- Node1&#45;&gt;Node2 -->
<g id="edge1" class="edge"><title>Node1&#45;&gt;Node2</title>
<path fill="none" stroke="midnightblue" d="M120.283,-93.129C129.901,-94.2856 139.936,-95.4923 149.766,-96.6745"/>
<polygon fill="midnightblue" stroke="midnightblue" points="149.564,-100.175 159.91,-97.8943 150.4,-93.2253 149.564,-100.175"/>
</g>
<!-- Node3 -->
<g id="node3" class="node"><title>Node3</title>
<g id="a_node3"><a xlink:href="../../d6/d95/classparser_1_1_parser.html#a4f582c65390bddc57219c0b5c31ef5e7" target="_top" xlink:title="parser.Parser.makeTree">
<polygon fill="white" stroke="black" points="156,-57.5 156,-76.5 284,-76.5 284,-57.5 156,-57.5"/>
<text text-anchor="middle" x="220" y="-64.5" font-family="Helvetica,sans-Serif" font-size="10.00">parser.Parser.makeTree</text>
</a>
</g>
</g>
<!-- Node1&#45;&gt;Node3 -->
<g id="edge2" class="edge"><title>Node1&#45;&gt;Node3</title>
<path fill="none" stroke="midnightblue" d="M120.283,-78.871C128.654,-77.8644 137.34,-76.8199 145.932,-75.7867"/>
<polygon fill="midnightblue" stroke="midnightblue" points="146.44,-79.2509 155.95,-74.5819 145.604,-72.301 146.44,-79.2509"/>
</g>
<!-- Node4 -->
<g id="node4" class="node"><title>Node4</title>
<g id="a_node4"><a xlink:href="../../d9/d1b/classcommand_1_1_command_factory.html#a0fca3b89ecf4ce07546cd4dc0f3820ea" target="_top" xlink:title="command.CommandFactory.initialize\lLoopVariables">
<polygon fill="white" stroke="black" points="320.5,-82 320.5,-112 513.5,-112 513.5,-82 320.5,-82"/>
<text text-anchor="start" x="328.5" y="-100" font-family="Helvetica,sans-Serif" font-size="10.00">command.CommandFactory.initialize</text>
<text text-anchor="middle" x="417" y="-89" font-family="Helvetica,sans-Serif" font-size="10.00">LoopVariables</text>
</a>
</g>
</g>
<!-- Node3&#45;&gt;Node4 -->
<g id="edge3" class="edge"><title>Node3&#45;&gt;Node4</title>
<path fill="none" stroke="midnightblue" d="M282.967,-76.5334C291.73,-77.8816 300.937,-79.298 310.245,-80.73"/>
<polygon fill="midnightblue" stroke="midnightblue" points="309.952,-84.2261 320.368,-82.2874 311.017,-77.3075 309.952,-84.2261"/>
</g>
<!-- Node8 -->
<g id="node8" class="node"><title>Node8</title>
<g id="a_node8"><a xlink:href="../../d9/d1b/classcommand_1_1_command_factory.html#a87bf7e648425bb22124367cabedb3327" target="_top" xlink:title="command.CommandFactory.get\lNumParameters">
<polygon fill="white" stroke="black" points="332,-22 332,-52 502,-52 502,-22 332,-22"/>
<text text-anchor="start" x="340" y="-40" font-family="Helvetica,sans-Serif" font-size="10.00">command.CommandFactory.get</text>
<text text-anchor="middle" x="417" y="-29" font-family="Helvetica,sans-Serif" font-size="10.00">NumParameters</text>
</a>
</g>
</g>
<!-- Node3&#45;&gt;Node8 -->
<g id="edge7" class="edge"><title>Node3&#45;&gt;Node8</title>
<path fill="none" stroke="midnightblue" d="M282.967,-57.4666C295.32,-55.5662 308.554,-53.5301 321.71,-51.5061"/>
<polygon fill="midnightblue" stroke="midnightblue" points="322.388,-54.9431 331.74,-49.9631 321.324,-48.0245 322.388,-54.9431"/>
</g>
<!-- Node5 -->
<g id="node5" class="node"><title>Node5</title>
<g id="a_node5"><a xlink:href="../../d9/d1b/classcommand_1_1_command_factory.html#a8227888e11d7f80629e7d855aa7894a8" target="_top" xlink:title="command.CommandFactory.check\lDotimes">
<polygon fill="white" stroke="black" points="558,-137 558,-167 740,-167 740,-137 558,-137"/>
<text text-anchor="start" x="566" y="-155" font-family="Helvetica,sans-Serif" font-size="10.00">command.CommandFactory.check</text>
<text text-anchor="middle" x="649" y="-144" font-family="Helvetica,sans-Serif" font-size="10.00">Dotimes</text>
</a>
</g>
</g>
<!-- Node4&#45;&gt;Node5 -->
<g id="edge4" class="edge"><title>Node4&#45;&gt;Node5</title>
<path fill="none" stroke="midnightblue" d="M480.849,-112.029C510.006,-119.001 544.838,-127.331 575.14,-134.577"/>
<polygon fill="midnightblue" stroke="midnightblue" points="574.688,-138.067 585.227,-136.989 576.316,-131.259 574.688,-138.067"/>
</g>
<!-- Node6 -->
<g id="node6" class="node"><title>Node6</title>
<g id="a_node6"><a xlink:href="../../d9/d1b/classcommand_1_1_command_factory.html#a5f698c7496a9d533d6350fac6c3ee567" target="_top" xlink:title="command.CommandFactory.checkFor">
<polygon fill="white" stroke="black" points="550.5,-98.5 550.5,-117.5 747.5,-117.5 747.5,-98.5 550.5,-98.5"/>
<text text-anchor="middle" x="649" y="-105.5" font-family="Helvetica,sans-Serif" font-size="10.00">command.CommandFactory.checkFor</text>
</a>
</g>
</g>
<!-- Node4&#45;&gt;Node6 -->
<g id="edge5" class="edge"><title>Node4&#45;&gt;Node6</title>
<path fill="none" stroke="midnightblue" d="M513.543,-101.569C522.331,-101.99 531.275,-102.417 540.162,-102.843"/>
<polygon fill="midnightblue" stroke="midnightblue" points="540.004,-106.339 550.16,-103.321 540.338,-99.3469 540.004,-106.339"/>
</g>
<!-- Node7 -->
<g id="node7" class="node"><title>Node7</title>
<g id="a_node7"><a xlink:href="../../d9/d1b/classcommand_1_1_command_factory.html#afb06a581338dad8003d851d2d490fc5e" target="_top" xlink:title="command.CommandFactory.check\lRepeat">
<polygon fill="white" stroke="black" points="558,-49 558,-79 740,-79 740,-49 558,-49"/>
<text text-anchor="start" x="566" y="-67" font-family="Helvetica,sans-Serif" font-size="10.00">command.CommandFactory.check</text>
<text text-anchor="middle" x="649" y="-56" font-family="Helvetica,sans-Serif" font-size="10.00">Repeat</text>
</a>
</g>
</g>
<!-- Node4&#45;&gt;Node7 -->
<g id="edge6" class="edge"><title>Node4&#45;&gt;Node7</title>
<path fill="none" stroke="midnightblue" d="M513.543,-83.2917C524.902,-81.6619 536.523,-79.9946 547.943,-78.356"/>
<polygon fill="midnightblue" stroke="midnightblue" points="548.515,-81.8099 557.917,-76.925 547.521,-74.8808 548.515,-81.8099"/>
</g>
<!-- Node9 -->
<g id="node9" class="node"><title>Node9</title>
<g id="a_node9"><a xlink:href="../../d9/d1b/classcommand_1_1_command_factory.html#a947fdc151e857ea74564d0d1fe268246" target="_top" xlink:title="command.CommandFactory.translate\lCommand">
<polygon fill="white" stroke="black" points="550.5,-0 550.5,-30 747.5,-30 747.5,-0 550.5,-0"/>
<text text-anchor="start" x="558.5" y="-18" font-family="Helvetica,sans-Serif" font-size="10.00">command.CommandFactory.translate</text>
<text text-anchor="middle" x="649" y="-7" font-family="Helvetica,sans-Serif" font-size="10.00">Command</text>
</a>
</g>
</g>
<!-- Node8&#45;&gt;Node9 -->
<g id="edge8" class="edge"><title>Node8&#45;&gt;Node9</title>
<path fill="none" stroke="midnightblue" d="M502.012,-28.9641C514.365,-27.7825 527.234,-26.5516 539.988,-25.3316"/>
<polygon fill="midnightblue" stroke="midnightblue" points="540.558,-28.7931 550.179,-24.3568 539.891,-21.8249 540.558,-28.7931"/>
</g>
</g>
</svg>
        <g id="navigator" transform="translate(0 0)" fill="#404254">
                <rect fill="#f2f5e9" fill-opacity="0.5" stroke="#606060" stroke-width=".5" x="0" y="0" width="60" height="60"/>
                <use id="zoomplus" xlink:href="#zoomPlus" x="17" y="9" onmousedown="handleZoom(evt,'in')"/>
                <use id="zoomminus" xlink:href="#zoomMin" x="42" y="9" onmousedown="handleZoom(evt,'out')"/>
                <use id="reset" xlink:href="#resetDef" x="30" y="36" onmousedown="handleReset()"/>
                <g id="arrowUp" xlink:href="#dirArrow" transform="translate(30 24)" onmousedown="handlePan(0,-1)">
                  <use xlink:href="#rim" fill="#404040">
                        <set attributeName="fill" to="#808080" begin="arrowUp.mouseover" end="arrowUp.mouseout"/>
                  </use>
                  <path fill="none" stroke="white" stroke-width="1.5" d="M0,-3.0v7 M-2.5,-0.5L0,-3.0L2.5,-0.5"/>
                </g>
                <g id="arrowRight" xlink:href="#dirArrow" transform="rotate(90) translate(36 -43)" onmousedown="handlePan(1,0)">
                  <use xlink:href="#rim" fill="#404040">
                        <set attributeName="fill" to="#808080" begin="arrowRight.mouseover" end="arrowRight.mouseout"/>
                  </use>
                  <path fill="none" stroke="white" stroke-width="1.5" d="M0,-3.0v7 M-2.5,-0.5L0,-3.0L2.5,-0.5"/>
                </g>
                <g id="arrowDown" xlink:href="#dirArrow" transform="rotate(180) translate(-30 -48)" onmousedown="handlePan(0,1)">
                  <use xlink:href="#rim" fill="#404040">
                        <set attributeName="fill" to="#808080" begin="arrowDown.mouseover" end="arrowDown.mouseout"/>
                  </use>
                  <path fill="none" stroke="white" stroke-width="1.5" d="M0,-3.0v7 M-2.5,-0.5L0,-3.0L2.5,-0.5"/>
                </g>
                <g id="arrowLeft" xlink:href="#dirArrow" transform="rotate(270) translate(-36 17)" onmousedown="handlePan(-1,0)">
                  <use xlink:href="#rim" fill="#404040">
                        <set attributeName="fill" to="#808080" begin="arrowLeft.mouseover" end="arrowLeft.mouseout"/>
                  </use>
                  <path fill="none" stroke="white" stroke-width="1.5" d="M0,-3.0v7 M-2.5,-0.5L0,-3.0L2.5,-0.5"/>
                </g>
        </g>
        <svg viewBox="0 0 15 15" width="100%" height="30px" preserveAspectRatio="xMaxYMin meet">
         <g id="arrow_out" transform="scale(0.3 0.3)">
          <a xlink:href="classparser_1_1_parser_a240c75608624a9c67402a296855c4d1d_cgraph_org.svg" target="_base">
           <rect id="button" ry="5" rx="5" y="6" x="6" height="38" width="38"
                fill="#f2f5e9" fill-opacity="0.5" stroke="#606060" stroke-width="1.0"/>
           <path id="arrow"
             d="M 11.500037,31.436501 C 11.940474,20.09759 22.043105,11.32322 32.158766,21.979434 L 37.068811,17.246167 C 37.068811,17.246167 37.088388,32 37.088388,32 L 22.160133,31.978069 C 22.160133,31.978069 26.997745,27.140456 26.997745,27.140456 C 18.528582,18.264221 13.291696,25.230495 11.500037,31.436501 z"
             style="fill:#404040;"/>
          </a>
         </g>
        </svg>
</svg>
