<?xml version="1.0" encoding="UTF-8" standalone="no"?>
<!DOCTYPE svg PUBLIC "-//W3C//DTD SVG 1.1//EN"
 "http://www.w3.org/Graphics/SVG/1.1/DTD/svg11.dtd">
<!-- Generated by graphviz version 2.36.0 (20140111.2315)
 -->
<!-- Title: parser.Parser.main Pages: 1 -->
<svg width="658pt" height="284pt"
 viewBox="0.00 0.00 658.00 284.00" xmlns="http://www.w3.org/2000/svg" xmlns:xlink="http://www.w3.org/1999/xlink">
<g id="graph0" class="graph" transform="scale(1 1) rotate(0) translate(4 280)">
<title>parser.Parser.main</title>
<polygon fill="white" stroke="none" points="-4,4 -4,-280 654,-280 654,4 -4,4"/>
<!-- Node1 -->
<g id="node1" class="node"><title>Node1</title>
<polygon fill="#bfbfbf" stroke="black" points="0,-44.5 0,-63.5 106,-63.5 106,-44.5 0,-44.5"/>
<text text-anchor="middle" x="53" y="-51.5" font-family="Helvetica,sans-Serif" font-size="10.00">parser.Parser.main</text>
</g>
<!-- Node2 -->
<g id="node2" class="node"><title>Node2</title>
<g id="a_node2"><a xlink:href="../../d6/d95/classparser_1_1_parser.html#a240c75608624a9c67402a296855c4d1d" target="_top" xlink:title="parser.Parser.initialize\lCommands">
<polygon fill="white" stroke="black" points="142,-39 142,-69 262,-69 262,-39 142,-39"/>
<text text-anchor="start" x="150" y="-57" font-family="Helvetica,sans-Serif" font-size="10.00">parser.Parser.initialize</text>
<text text-anchor="middle" x="202" y="-46" font-family="Helvetica,sans-Serif" font-size="10.00">Commands</text>
</a>
</g>
</g>
<!-- Node1&#45;&gt;Node2 -->
<g id="edge1" class="edge"><title>Node1&#45;&gt;Node2</title>
<path fill="none" stroke="midnightblue" d="M106.241,-54C114.545,-54 123.245,-54 131.864,-54"/>
<polygon fill="midnightblue" stroke="midnightblue" points="131.918,-57.5001 141.918,-54 131.918,-50.5001 131.918,-57.5001"/>
</g>
<!-- Node5 -->
<g id="node5" class="node"><title>Node5</title>
<g id="a_node5"><a xlink:href="../../d6/d95/classparser_1_1_parser.html#a4ecbffc246c3add017c4720eed4c6da9" target="_top" xlink:title="parser.Parser.parse">
<polygon fill="white" stroke="black" points="147.5,-107.5 147.5,-126.5 256.5,-126.5 256.5,-107.5 147.5,-107.5"/>
<text text-anchor="middle" x="202" y="-114.5" font-family="Helvetica,sans-Serif" font-size="10.00">parser.Parser.parse</text>
</a>
</g>
</g>
<!-- Node1&#45;&gt;Node5 -->
<g id="edge4" class="edge"><title>Node1&#45;&gt;Node5</title>
<path fill="none" stroke="midnightblue" d="M76.3261,-63.5683C101.041,-74.1606 141.083,-91.3211 169.1,-103.329"/>
<polygon fill="midnightblue" stroke="midnightblue" points="167.894,-106.619 178.464,-107.342 170.651,-100.185 167.894,-106.619"/>
</g>
<!-- Node15 -->
<g id="node15" class="node"><title>Node15</title>
<g id="a_node15"><a xlink:href="../../d6/d95/classparser_1_1_parser.html#a4811b7bbe9944e2eb2440a1926568f3f" target="_top" xlink:title="parser.Parser.Parser">
<polygon fill="white" stroke="black" points="146,-0.5 146,-19.5 258,-19.5 258,-0.5 146,-0.5"/>
<text text-anchor="middle" x="202" y="-7.5" font-family="Helvetica,sans-Serif" font-size="10.00">parser.Parser.Parser</text>
</a>
</g>
</g>
<!-- Node1&#45;&gt;Node15 -->
<g id="edge23" class="edge"><title>Node1&#45;&gt;Node15</title>
<path fill="none" stroke="midnightblue" d="M85.8968,-44.4527C107.472,-37.9949 136.177,-29.4028 159.524,-22.4146"/>
<polygon fill="midnightblue" stroke="midnightblue" points="160.589,-25.7493 169.165,-19.5287 158.582,-19.0433 160.589,-25.7493"/>
</g>
<!-- Node3 -->
<g id="node3" class="node"><title>Node3</title>
<g id="a_node3"><a xlink:href="../../d3/dcc/classparser_1_1_node.html#a9c12e8d4375a7517eae0a35724b253c4" target="_top" xlink:title="parser.Node.getValue">
<polygon fill="white" stroke="black" points="520,-66.5 520,-85.5 640,-85.5 640,-66.5 520,-66.5"/>
<text text-anchor="middle" x="580" y="-73.5" font-family="Helvetica,sans-Serif" font-size="10.00">parser.Node.getValue</text>
</a>
</g>
</g>
<!-- Node2&#45;&gt;Node3 -->
<g id="edge2" class="edge"><title>Node2&#45;&gt;Node3</title>
<path fill="none" stroke="midnightblue" d="M262.02,-40.3222C273.872,-38.1065 286.284,-36.1602 298,-35 375.842,-27.2922 397.129,-20.5241 474,-35 501.394,-40.1586 530.81,-52.27 551.518,-61.9998"/>
<polygon fill="midnightblue" stroke="midnightblue" points="550.131,-65.2164 560.658,-66.4063 553.17,-58.9109 550.131,-65.2164"/>
</g>
<!-- Node4 -->
<g id="node4" class="node"><title>Node4</title>
<g id="a_node4"><a xlink:href="../../d6/d95/classparser_1_1_parser.html#a4f582c65390bddc57219c0b5c31ef5e7" target="_top" xlink:title="parser.Parser.makeTree">
<polygon fill="white" stroke="black" points="322,-44.5 322,-63.5 450,-63.5 450,-44.5 322,-44.5"/>
<text text-anchor="middle" x="386" y="-51.5" font-family="Helvetica,sans-Serif" font-size="10.00">parser.Parser.makeTree</text>
</a>
</g>
</g>
<!-- Node2&#45;&gt;Node4 -->
<g id="edge3" class="edge"><title>Node2&#45;&gt;Node4</title>
<path fill="none" stroke="midnightblue" d="M262.09,-54C277.906,-54 295.194,-54 311.677,-54"/>
<polygon fill="midnightblue" stroke="midnightblue" points="311.816,-57.5001 321.816,-54 311.816,-50.5001 311.816,-57.5001"/>
</g>
<!-- Node5&#45;&gt;Node4 -->
<g id="edge10" class="edge"><title>Node5&#45;&gt;Node4</title>
<path fill="none" stroke="midnightblue" d="M220.73,-107.355C239.461,-97.5119 270.09,-82.3848 298,-73 305.899,-70.3438 314.33,-67.9638 322.717,-65.8614"/>
<polygon fill="midnightblue" stroke="midnightblue" points="323.596,-69.2499 332.509,-63.521 321.969,-62.4416 323.596,-69.2499"/>
</g>
<!-- Node6 -->
<g id="node6" class="node"><title>Node6</title>
<g id="a_node6"><a xlink:href="../../d6/d95/classparser_1_1_parser.html#a447c473b62ba23b7c144df9bb38a9a41" target="_top" xlink:title="parser.Parser.getNodeFor\lCommand">
<polygon fill="white" stroke="black" points="317,-170 317,-200 455,-200 455,-170 317,-170"/>
<text text-anchor="start" x="325" y="-188" font-family="Helvetica,sans-Serif" font-size="10.00">parser.Parser.getNodeFor</text>
<text text-anchor="middle" x="386" y="-177" font-family="Helvetica,sans-Serif" font-size="10.00">Command</text>
</a>
</g>
</g>
<!-- Node5&#45;&gt;Node6 -->
<g id="edge5" class="edge"><title>Node5&#45;&gt;Node6</title>
<path fill="none" stroke="midnightblue" d="M221.945,-126.563C240.88,-135.883 270.984,-150.064 298,-160 304.441,-162.369 311.217,-164.657 318.025,-166.824"/>
<polygon fill="midnightblue" stroke="midnightblue" points="317.401,-170.294 327.988,-169.905 319.469,-163.606 317.401,-170.294"/>
</g>
<!-- Node11 -->
<g id="node11" class="node"><title>Node11</title>
<g id="a_node11"><a xlink:href="../../d6/d95/classparser_1_1_parser.html#a3efcd1192e76101919526b4a5e0046f4" target="_top" xlink:title="parser.Parser.getNodeBefore\lToReplace">
<polygon fill="white" stroke="black" points="308.5,-219 308.5,-249 463.5,-249 463.5,-219 308.5,-219"/>
<text text-anchor="start" x="316.5" y="-237" font-family="Helvetica,sans-Serif" font-size="10.00">parser.Parser.getNodeBefore</text>
<text text-anchor="middle" x="386" y="-226" font-family="Helvetica,sans-Serif" font-size="10.00">ToReplace</text>
</a>
</g>
</g>
<!-- Node5&#45;&gt;Node11 -->
<g id="edge11" class="edge"><title>Node5&#45;&gt;Node11</title>
<path fill="none" stroke="midnightblue" d="M210.234,-126.649C224.77,-145.36 259.448,-186.691 298,-209 301.853,-211.23 305.919,-213.272 310.103,-215.141"/>
<polygon fill="midnightblue" stroke="midnightblue" points="308.835,-218.404 319.415,-218.962 311.492,-211.928 308.835,-218.404"/>
</g>
<!-- Node12 -->
<g id="node12" class="node"><title>Node12</title>
<g id="a_node12"><a xlink:href="../../d3/dcc/classparser_1_1_node.html#a066da2b478008f39a02440d7afceb9ee" target="_top" xlink:title="parser.Node.insertChild">
<polygon fill="white" stroke="black" points="322,-82.5 322,-101.5 450,-101.5 450,-82.5 322,-82.5"/>
<text text-anchor="middle" x="386" y="-89.5" font-family="Helvetica,sans-Serif" font-size="10.00">parser.Node.insertChild</text>
</a>
</g>
</g>
<!-- Node5&#45;&gt;Node12 -->
<g id="edge16" class="edge"><title>Node5&#45;&gt;Node12</title>
<path fill="none" stroke="midnightblue" d="M256.622,-109.634C273.873,-107.265 293.295,-104.597 311.709,-102.067"/>
<polygon fill="midnightblue" stroke="midnightblue" points="312.385,-105.507 321.816,-100.679 311.433,-98.5726 312.385,-105.507"/>
</g>
<!-- Node13 -->
<g id="node13" class="node"><title>Node13</title>
<g id="a_node13"><a xlink:href="../../d6/d95/classparser_1_1_parser.html#aac1cff62f68138c7e977a67d39671701" target="_top" xlink:title="parser.Parser.generateCommand\lInput">
<polygon fill="white" stroke="black" points="298,-121 298,-151 474,-151 474,-121 298,-121"/>
<text text-anchor="start" x="306" y="-139" font-family="Helvetica,sans-Serif" font-size="10.00">parser.Parser.generateCommand</text>
<text text-anchor="middle" x="386" y="-128" font-family="Helvetica,sans-Serif" font-size="10.00">Input</text>
</a>
</g>
</g>
<!-- Node5&#45;&gt;Node13 -->
<g id="edge18" class="edge"><title>Node5&#45;&gt;Node13</title>
<path fill="none" stroke="midnightblue" d="M256.622,-122.598C266.475,-123.626 277.035,-124.729 287.712,-125.844"/>
<polygon fill="midnightblue" stroke="midnightblue" points="287.655,-129.357 297.965,-126.914 288.382,-122.394 287.655,-129.357"/>
</g>
<!-- Node7 -->
<g id="node7" class="node"><title>Node7</title>
<g id="a_node7"><a xlink:href="../../d3/dcc/classparser_1_1_node.html#aa67bc0d39227232943abec9b95b23235" target="_top" xlink:title="parser.Node.getChild1">
<polygon fill="white" stroke="black" points="518.5,-180.5 518.5,-199.5 641.5,-199.5 641.5,-180.5 518.5,-180.5"/>
<text text-anchor="middle" x="580" y="-187.5" font-family="Helvetica,sans-Serif" font-size="10.00">parser.Node.getChild1</text>
</a>
</g>
</g>
<!-- Node6&#45;&gt;Node7 -->
<g id="edge6" class="edge"><title>Node6&#45;&gt;Node7</title>
<path fill="none" stroke="midnightblue" d="M455.233,-186.777C472.442,-187.225 490.954,-187.707 508.283,-188.158"/>
<polygon fill="midnightblue" stroke="midnightblue" points="508.243,-191.658 518.33,-188.42 508.425,-184.661 508.243,-191.658"/>
</g>
<!-- Node8 -->
<g id="node8" class="node"><title>Node8</title>
<g id="a_node8"><a xlink:href="../../d3/dcc/classparser_1_1_node.html#a0f13775acc62af77cdde90dbeaf26bbc" target="_top" xlink:title="parser.Node.getChild2">
<polygon fill="white" stroke="black" points="518.5,-142.5 518.5,-161.5 641.5,-161.5 641.5,-142.5 518.5,-142.5"/>
<text text-anchor="middle" x="580" y="-149.5" font-family="Helvetica,sans-Serif" font-size="10.00">parser.Node.getChild2</text>
</a>
</g>
</g>
<!-- Node6&#45;&gt;Node8 -->
<g id="edge7" class="edge"><title>Node6&#45;&gt;Node8</title>
<path fill="none" stroke="midnightblue" d="M455.233,-173.273C474.237,-170.006 494.829,-166.467 513.662,-163.23"/>
<polygon fill="midnightblue" stroke="midnightblue" points="514.364,-166.661 523.627,-161.517 513.178,-159.762 514.364,-166.661"/>
</g>
<!-- Node9 -->
<g id="node9" class="node"><title>Node9</title>
<g id="a_node9"><a xlink:href="../../d3/dcc/classparser_1_1_node.html#ab14db24c0724dec4387e29d513008e2e" target="_top" xlink:title="parser.Node.hasChildren">
<polygon fill="white" stroke="black" points="513,-256.5 513,-275.5 647,-275.5 647,-256.5 513,-256.5"/>
<text text-anchor="middle" x="580" y="-263.5" font-family="Helvetica,sans-Serif" font-size="10.00">parser.Node.hasChildren</text>
</a>
</g>
</g>
<!-- Node6&#45;&gt;Node9 -->
<g id="edge8" class="edge"><title>Node6&#45;&gt;Node9</title>
<path fill="none" stroke="midnightblue" d="M453.153,-200.019C460.424,-202.825 467.528,-206.125 474,-210 493.686,-221.786 490.249,-235.324 510,-247 513.67,-249.17 517.596,-251.099 521.643,-252.813"/>
<polygon fill="midnightblue" stroke="midnightblue" points="520.651,-256.18 531.243,-256.436 523.122,-249.631 520.651,-256.18"/>
</g>
<!-- Node10 -->
<g id="node10" class="node"><title>Node10</title>
<g id="a_node10"><a xlink:href="../../d3/dcc/classparser_1_1_node.html#aa92667a825777b3d757bc3b1a247ac20" target="_top" xlink:title="parser.Node.isLeaf">
<polygon fill="white" stroke="black" points="527,-218.5 527,-237.5 633,-237.5 633,-218.5 527,-218.5"/>
<text text-anchor="middle" x="580" y="-225.5" font-family="Helvetica,sans-Serif" font-size="10.00">parser.Node.isLeaf</text>
</a>
</g>
</g>
<!-- Node6&#45;&gt;Node10 -->
<g id="edge9" class="edge"><title>Node6&#45;&gt;Node10</title>
<path fill="none" stroke="midnightblue" d="M454.152,-200.039C477.878,-205.353 504.195,-211.247 526.526,-216.248"/>
<polygon fill="midnightblue" stroke="midnightblue" points="525.959,-219.708 536.482,-218.478 527.489,-212.877 525.959,-219.708"/>
</g>
<!-- Node11&#45;&gt;Node7 -->
<g id="edge12" class="edge"><title>Node11&#45;&gt;Node7</title>
<path fill="none" stroke="midnightblue" d="M452.539,-218.981C477.048,-213.364 504.513,-207.07 527.569,-201.786"/>
<polygon fill="midnightblue" stroke="midnightblue" points="528.526,-205.158 537.491,-199.512 526.962,-198.335 528.526,-205.158"/>
</g>
<!-- Node11&#45;&gt;Node8 -->
<g id="edge13" class="edge"><title>Node11&#45;&gt;Node8</title>
<path fill="none" stroke="midnightblue" d="M453.658,-218.889C460.761,-216.106 467.688,-212.836 474,-209 493.881,-196.917 490.053,-182.972 510,-171 513.596,-168.842 517.442,-166.923 521.412,-165.217"/>
<polygon fill="midnightblue" stroke="midnightblue" points="522.746,-168.454 530.835,-161.612 520.244,-161.916 522.746,-168.454"/>
</g>
<!-- Node11&#45;&gt;Node9 -->
<g id="edge14" class="edge"><title>Node11&#45;&gt;Node9</title>
<path fill="none" stroke="midnightblue" d="M463.711,-246.785C479.648,-249.441 496.325,-252.221 511.886,-254.814"/>
<polygon fill="midnightblue" stroke="midnightblue" points="511.491,-258.297 521.931,-256.488 512.642,-251.392 511.491,-258.297"/>
</g>
<!-- Node11&#45;&gt;Node10 -->
<g id="edge15" class="edge"><title>Node11&#45;&gt;Node10</title>
<path fill="none" stroke="midnightblue" d="M463.711,-231.603C481.271,-231.054 499.728,-230.477 516.601,-229.95"/>
<polygon fill="midnightblue" stroke="midnightblue" points="516.994,-233.44 526.879,-229.629 516.775,-226.443 516.994,-233.44"/>
</g>
<!-- Node12&#45;&gt;Node3 -->
<g id="edge17" class="edge"><title>Node12&#45;&gt;Node3</title>
<path fill="none" stroke="midnightblue" d="M450.134,-86.7388C469.214,-85.1488 490.264,-83.3947 509.723,-81.7731"/>
<polygon fill="midnightblue" stroke="midnightblue" points="510.06,-85.2573 519.734,-80.9388 509.478,-78.2814 510.06,-85.2573"/>
</g>
<!-- Node13&#45;&gt;Node3 -->
<g id="edge21" class="edge"><title>Node13&#45;&gt;Node3</title>
<path fill="none" stroke="midnightblue" d="M443.527,-120.99C453.749,-117.927 464.253,-114.547 474,-111 490.453,-105.012 493.514,-100.896 510,-95 516.524,-92.6667 523.48,-90.4483 530.37,-88.4056"/>
<polygon fill="midnightblue" stroke="midnightblue" points="531.71,-91.6628 540.36,-85.5454 529.783,-84.9332 531.71,-91.6628"/>
</g>
<!-- Node13&#45;&gt;Node7 -->
<g id="edge19" class="edge"><title>Node13&#45;&gt;Node7</title>
<path fill="none" stroke="midnightblue" d="M442.293,-151.008C452.835,-153.939 463.769,-157.026 474,-160 490.065,-164.669 493.933,-166.334 510,-171 517.635,-173.217 525.763,-175.513 533.662,-177.709"/>
<polygon fill="midnightblue" stroke="midnightblue" points="532.919,-181.135 543.49,-180.425 534.783,-174.388 532.919,-181.135"/>
</g>
<!-- Node13&#45;&gt;Node8 -->
<g id="edge20" class="edge"><title>Node13&#45;&gt;Node8</title>
<path fill="none" stroke="midnightblue" d="M474.012,-143.251C485.483,-144.207 497.126,-145.177 508.279,-146.107"/>
<polygon fill="midnightblue" stroke="midnightblue" points="508.109,-149.604 518.365,-146.947 508.691,-142.629 508.109,-149.604"/>
</g>
<!-- Node14 -->
<g id="node14" class="node"><title>Node14</title>
<g id="a_node14"><a xlink:href="../../d3/dcc/classparser_1_1_node.html#a6bbc0c61aaa261077eb87cfc4e2b45dc" target="_top" xlink:title="parser.Node.numChildren">
<polygon fill="white" stroke="black" points="510.5,-104.5 510.5,-123.5 649.5,-123.5 649.5,-104.5 510.5,-104.5"/>
<text text-anchor="middle" x="580" y="-111.5" font-family="Helvetica,sans-Serif" font-size="10.00">parser.Node.numChildren</text>
</a>
</g>
</g>
<!-- Node13&#45;&gt;Node14 -->
<g id="edge22" class="edge"><title>Node13&#45;&gt;Node14</title>
<path fill="none" stroke="midnightblue" d="M474.012,-126.03C482.783,-125.025 491.656,-124.008 500.333,-123.014"/>
<polygon fill="midnightblue" stroke="midnightblue" points="500.876,-126.475 510.412,-121.859 500.079,-119.52 500.876,-126.475"/>
</g>
</g>
</svg>
