<?xml version="1.0" encoding="UTF-8" standalone="no"?>
<!DOCTYPE svg PUBLIC "-//W3C//DTD SVG 1.1//EN"
 "http://www.w3.org/Graphics/SVG/1.1/DTD/svg11.dtd">
<!-- Generated by graphviz version 2.36.0 (20140111.2315)
 -->
<!-- Title: parser.Parser.parse Pages: 1 -->
<svg width="986pt" height="659pt"
 viewBox="0.00 0.00 986.00 659.00" xmlns="http://www.w3.org/2000/svg" xmlns:xlink="http://www.w3.org/1999/xlink">
<g id="graph0" class="graph" transform="scale(1 1) rotate(0) translate(4 655)">
<title>parser.Parser.parse</title>
<polygon fill="white" stroke="none" points="-4,4 -4,-655 982,-655 982,4 -4,4"/>
<!-- Node1 -->
<g id="node1" class="node"><title>Node1</title>
<polygon fill="#bfbfbf" stroke="black" points="0.5,-138.5 0.5,-157.5 109.5,-157.5 109.5,-138.5 0.5,-138.5"/>
<text text-anchor="middle" x="55" y="-145.5" font-family="Helvetica,sans-Serif" font-size="10.00">parser.Parser.parse</text>
</g>
<!-- Node2 -->
<g id="node2" class="node"><title>Node2</title>
<g id="a_node2"><a xlink:href="../../d5/d9c/classfactories_1_1_command_factory.html#aadbfb6cc65ea4fa4257bdae2c6b8e097" target="_top" xlink:title="factories.CommandFactory.create\lCommand">
<polygon fill="white" stroke="black" points="146,-366 146,-396 324,-396 324,-366 146,-366"/>
<text text-anchor="start" x="154" y="-384" font-family="Helvetica,sans-Serif" font-size="10.00">factories.CommandFactory.create</text>
<text text-anchor="middle" x="235" y="-373" font-family="Helvetica,sans-Serif" font-size="10.00">Command</text>
</a>
</g>
</g>
<!-- Node1&#45;&gt;Node2 -->
<g id="edge1" class="edge"><title>Node1&#45;&gt;Node2</title>
<path fill="none" stroke="midnightblue" d="M63.4218,-157.715C89.6073,-191.992 178.147,-307.889 216.284,-357.81"/>
<polygon fill="midnightblue" stroke="midnightblue" points="213.523,-359.961 222.375,-365.783 219.086,-355.712 213.523,-359.961"/>
</g>
<!-- Node16 -->
<g id="node16" class="node"><title>Node16</title>
<g id="a_node16"><a xlink:href="../../d6/d95/classparser_1_1_parser.html#aac1cff62f68138c7e977a67d39671701" target="_top" xlink:title="parser.Parser.generateCommand\lInput">
<polygon fill="white" stroke="black" points="147,-60 147,-90 323,-90 323,-60 147,-60"/>
<text text-anchor="start" x="155" y="-78" font-family="Helvetica,sans-Serif" font-size="10.00">parser.Parser.generateCommand</text>
<text text-anchor="middle" x="235" y="-67" font-family="Helvetica,sans-Serif" font-size="10.00">Input</text>
</a>
</g>
</g>
<!-- Node1&#45;&gt;Node16 -->
<g id="edge15" class="edge"><title>Node1&#45;&gt;Node16</title>
<path fill="none" stroke="midnightblue" d="M71.0753,-138.371C88.5344,-127.561 118.436,-110.087 146,-99 151.05,-96.9687 156.331,-95.0502 161.689,-93.2508"/>
<polygon fill="midnightblue" stroke="midnightblue" points="162.931,-96.5283 171.385,-90.1419 160.793,-89.8626 162.931,-96.5283"/>
</g>
<!-- Node21 -->
<g id="node21" class="node"><title>Node21</title>
<g id="a_node21"><a xlink:href="../../d6/d95/classparser_1_1_parser.html#a3efcd1192e76101919526b4a5e0046f4" target="_top" xlink:title="parser.Parser.getNodeBefore\lToReplace">
<polygon fill="white" stroke="black" points="157.5,-158 157.5,-188 312.5,-188 312.5,-158 157.5,-158"/>
<text text-anchor="start" x="165.5" y="-176" font-family="Helvetica,sans-Serif" font-size="10.00">parser.Parser.getNodeBefore</text>
<text text-anchor="middle" x="235" y="-165" font-family="Helvetica,sans-Serif" font-size="10.00">ToReplace</text>
</a>
</g>
</g>
<!-- Node1&#45;&gt;Node21 -->
<g id="edge20" class="edge"><title>Node1&#45;&gt;Node21</title>
<path fill="none" stroke="midnightblue" d="M109.889,-155.569C121.677,-157.224 134.444,-159.017 147.152,-160.802"/>
<polygon fill="midnightblue" stroke="midnightblue" points="146.922,-164.304 157.311,-162.229 147.895,-157.372 146.922,-164.304"/>
</g>
<!-- Node24 -->
<g id="node24" class="node"><title>Node24</title>
<g id="a_node24"><a xlink:href="../../d6/d95/classparser_1_1_parser.html#a447c473b62ba23b7c144df9bb38a9a41" target="_top" xlink:title="parser.Parser.getNodeFor\lCommand">
<polygon fill="white" stroke="black" points="166,-109 166,-139 304,-139 304,-109 166,-109"/>
<text text-anchor="start" x="174" y="-127" font-family="Helvetica,sans-Serif" font-size="10.00">parser.Parser.getNodeFor</text>
<text text-anchor="middle" x="235" y="-116" font-family="Helvetica,sans-Serif" font-size="10.00">Command</text>
</a>
</g>
</g>
<!-- Node1&#45;&gt;Node24 -->
<g id="edge25" class="edge"><title>Node1&#45;&gt;Node24</title>
<path fill="none" stroke="midnightblue" d="M109.889,-140.734C124.326,-138.787 140.232,-136.643 155.699,-134.557"/>
<polygon fill="midnightblue" stroke="midnightblue" points="156.338,-138.003 165.781,-133.198 155.403,-131.066 156.338,-138.003"/>
</g>
<!-- Node25 -->
<g id="node25" class="node"><title>Node25</title>
<g id="a_node25"><a xlink:href="../../d3/dcc/classparser_1_1_node.html#a066da2b478008f39a02440d7afceb9ee" target="_top" xlink:title="parser.Node.insertChild">
<polygon fill="white" stroke="black" points="171,-11.5 171,-30.5 299,-30.5 299,-11.5 171,-11.5"/>
<text text-anchor="middle" x="235" y="-18.5" font-family="Helvetica,sans-Serif" font-size="10.00">parser.Node.insertChild</text>
</a>
</g>
</g>
<!-- Node1&#45;&gt;Node25 -->
<g id="edge30" class="edge"><title>Node1&#45;&gt;Node25</title>
<path fill="none" stroke="midnightblue" d="M62.2451,-138.42C75.4118,-118.954 107.959,-74.5517 146,-50 156.558,-43.1859 168.867,-37.8301 180.874,-33.6771"/>
<polygon fill="midnightblue" stroke="midnightblue" points="181.961,-37.0043 190.4,-30.5995 179.809,-30.3433 181.961,-37.0043"/>
</g>
<!-- Node26 -->
<g id="node26" class="node"><title>Node26</title>
<g id="a_node26"><a xlink:href="../../d6/d95/classparser_1_1_parser.html#a4f582c65390bddc57219c0b5c31ef5e7" target="_top" xlink:title="parser.Parser.makeTree">
<polygon fill="white" stroke="black" points="171,-234.5 171,-253.5 299,-253.5 299,-234.5 171,-234.5"/>
<text text-anchor="middle" x="235" y="-241.5" font-family="Helvetica,sans-Serif" font-size="10.00">parser.Parser.makeTree</text>
</a>
</g>
</g>
<!-- Node1&#45;&gt;Node26 -->
<g id="edge32" class="edge"><title>Node1&#45;&gt;Node26</title>
<path fill="none" stroke="midnightblue" d="M73.5678,-157.619C91.6917,-167.529 120.789,-183.405 146,-197 166.323,-207.96 189.344,-220.25 206.741,-229.514"/>
<polygon fill="midnightblue" stroke="midnightblue" points="205.303,-232.713 215.775,-234.321 208.591,-226.533 205.303,-232.713"/>
</g>
<!-- Node3 -->
<g id="node3" class="node"><title>Node3</title>
<g id="a_node3"><a xlink:href="../../d5/d9c/classfactories_1_1_command_factory.html#ac28395af261dafe524b4498bd587782e" target="_top" xlink:title="factories.CommandFactory.add\lVariable">
<polygon fill="white" stroke="black" points="370.5,-498 370.5,-528 535.5,-528 535.5,-498 370.5,-498"/>
<text text-anchor="start" x="378.5" y="-516" font-family="Helvetica,sans-Serif" font-size="10.00">factories.CommandFactory.add</text>
<text text-anchor="middle" x="453" y="-505" font-family="Helvetica,sans-Serif" font-size="10.00">Variable</text>
</a>
</g>
</g>
<!-- Node2&#45;&gt;Node3 -->
<g id="edge2" class="edge"><title>Node2&#45;&gt;Node3</title>
<path fill="none" stroke="midnightblue" d="M249.29,-396.181C270.432,-419.392 314.054,-463.574 360,-488 364.252,-490.26 368.726,-492.33 373.316,-494.223"/>
<polygon fill="midnightblue" stroke="midnightblue" points="372.277,-497.572 382.868,-497.865 374.771,-491.032 372.277,-497.572"/>
</g>
<!-- Node4 -->
<g id="node4" class="node"><title>Node4</title>
<g id="a_node4"><a xlink:href="../../d5/d9c/classfactories_1_1_command_factory.html#a4c6d0dd68adc65612918d5629f87e046" target="_top" xlink:title="factories.CommandFactory.make\lCommandMap">
<polygon fill="white" stroke="black" points="366,-449 366,-479 540,-479 540,-449 366,-449"/>
<text text-anchor="start" x="374" y="-467" font-family="Helvetica,sans-Serif" font-size="10.00">factories.CommandFactory.make</text>
<text text-anchor="middle" x="453" y="-456" font-family="Helvetica,sans-Serif" font-size="10.00">CommandMap</text>
</a>
</g>
</g>
<!-- Node2&#45;&gt;Node4 -->
<g id="edge3" class="edge"><title>Node2&#45;&gt;Node4</title>
<path fill="none" stroke="midnightblue" d="M275.116,-396.031C311.092,-409.855 364.57,-430.404 403.301,-445.287"/>
<polygon fill="midnightblue" stroke="midnightblue" points="402.221,-448.621 412.811,-448.941 404.732,-442.087 402.221,-448.621"/>
</g>
<!-- Node11 -->
<g id="node11" class="node"><title>Node11</title>
<g id="a_node11"><a xlink:href="../../d5/d9c/classfactories_1_1_command_factory.html#a1125546e0f8a72a5fa2207a7c71eec6b" target="_top" xlink:title="factories.CommandFactory.make\lParams">
<polygon fill="white" stroke="black" points="366,-366 366,-396 540,-396 540,-366 366,-366"/>
<text text-anchor="start" x="374" y="-384" font-family="Helvetica,sans-Serif" font-size="10.00">factories.CommandFactory.make</text>
<text text-anchor="middle" x="453" y="-373" font-family="Helvetica,sans-Serif" font-size="10.00">Params</text>
</a>
</g>
</g>
<!-- Node2&#45;&gt;Node11 -->
<g id="edge10" class="edge"><title>Node2&#45;&gt;Node11</title>
<path fill="none" stroke="midnightblue" d="M324.167,-381C334.598,-381 345.285,-381 355.82,-381"/>
<polygon fill="midnightblue" stroke="midnightblue" points="355.861,-384.5 365.861,-381 355.861,-377.5 355.861,-384.5"/>
</g>
<!-- Node15 -->
<g id="node15" class="node"><title>Node15</title>
<g id="a_node15"><a xlink:href="../../d5/d9c/classfactories_1_1_command_factory.html#af5d8310dede46dd315ab81a9c8e56d16" target="_top" xlink:title="factories.CommandFactory.translate\lCommand">
<polygon fill="white" stroke="black" points="582,-278 582,-308 772,-308 772,-278 582,-278"/>
<text text-anchor="start" x="590" y="-296" font-family="Helvetica,sans-Serif" font-size="10.00">factories.CommandFactory.translate</text>
<text text-anchor="middle" x="677" y="-285" font-family="Helvetica,sans-Serif" font-size="10.00">Command</text>
</a>
</g>
</g>
<!-- Node2&#45;&gt;Node15 -->
<g id="edge14" class="edge"><title>Node2&#45;&gt;Node15</title>
<path fill="none" stroke="midnightblue" d="M310.417,-365.969C326.752,-362.678 343.958,-359.216 360,-356 437.966,-340.369 526.775,-322.673 590.349,-310.024"/>
<polygon fill="midnightblue" stroke="midnightblue" points="591.205,-313.422 600.33,-308.038 589.839,-306.557 591.205,-313.422"/>
</g>
<!-- Node5 -->
<g id="node5" class="node"><title>Node5</title>
<g id="a_node5"><a xlink:href="../../d5/d9c/classfactories_1_1_command_factory.html#a5292b29f4ad537c83565665f3d0d925e" target="_top" xlink:title="factories.CommandFactory.boolean\lCommands">
<polygon fill="white" stroke="black" points="584.5,-621 584.5,-651 769.5,-651 769.5,-621 584.5,-621"/>
<text text-anchor="start" x="592.5" y="-639" font-family="Helvetica,sans-Serif" font-size="10.00">factories.CommandFactory.boolean</text>
<text text-anchor="middle" x="677" y="-628" font-family="Helvetica,sans-Serif" font-size="10.00">Commands</text>
</a>
</g>
</g>
<!-- Node4&#45;&gt;Node5 -->
<g id="edge4" class="edge"><title>Node4&#45;&gt;Node5</title>
<path fill="none" stroke="midnightblue" d="M532.921,-479.164C537.67,-481.929 542.096,-485.18 546,-489 586.405,-528.541 541.489,-571.568 582,-611 583.497,-612.458 585.07,-613.833 586.706,-615.13"/>
<polygon fill="midnightblue" stroke="midnightblue" points="585.128,-618.288 595.374,-620.987 589.048,-612.488 585.128,-618.288"/>
</g>
<!-- Node6 -->
<g id="node6" class="node"><title>Node6</title>
<g id="a_node6"><a xlink:href="../../d5/d9c/classfactories_1_1_command_factory.html#a46dbbfd0b30737af25939e97752d5136" target="_top" xlink:title="factories.CommandFactory.if\lCommands">
<polygon fill="white" stroke="black" points="601,-572 601,-602 753,-602 753,-572 601,-572"/>
<text text-anchor="start" x="609" y="-590" font-family="Helvetica,sans-Serif" font-size="10.00">factories.CommandFactory.if</text>
<text text-anchor="middle" x="677" y="-579" font-family="Helvetica,sans-Serif" font-size="10.00">Commands</text>
</a>
</g>
</g>
<!-- Node4&#45;&gt;Node6 -->
<g id="edge5" class="edge"><title>Node4&#45;&gt;Node6</title>
<path fill="none" stroke="midnightblue" d="M530.412,-479.036C535.99,-481.816 541.273,-485.107 546,-489 573.923,-511.999 554.015,-539.077 582,-562 585.072,-564.516 588.373,-566.781 591.834,-568.82"/>
<polygon fill="midnightblue" stroke="midnightblue" points="590.243,-571.937 600.732,-573.435 593.466,-565.724 590.243,-571.937"/>
</g>
<!-- Node7 -->
<g id="node7" class="node"><title>Node7</title>
<g id="a_node7"><a xlink:href="../../d5/d9c/classfactories_1_1_command_factory.html#ac1cc33f40758c92aff1b989f99454795" target="_top" xlink:title="factories.CommandFactory.loop\lCommands">
<polygon fill="white" stroke="black" points="593.5,-523 593.5,-553 760.5,-553 760.5,-523 593.5,-523"/>
<text text-anchor="start" x="601.5" y="-541" font-family="Helvetica,sans-Serif" font-size="10.00">factories.CommandFactory.loop</text>
<text text-anchor="middle" x="677" y="-530" font-family="Helvetica,sans-Serif" font-size="10.00">Commands</text>
</a>
</g>
</g>
<!-- Node4&#45;&gt;Node7 -->
<g id="edge6" class="edge"><title>Node4&#45;&gt;Node7</title>
<path fill="none" stroke="midnightblue" d="M519.759,-479.067C528.74,-481.93 537.713,-485.233 546,-489 563.506,-496.958 564.473,-505.089 582,-513 587.374,-515.425 593.03,-517.654 598.792,-519.695"/>
<polygon fill="midnightblue" stroke="midnightblue" points="597.964,-523.108 608.558,-522.954 600.18,-516.468 597.964,-523.108"/>
</g>
<!-- Node8 -->
<g id="node8" class="node"><title>Node8</title>
<g id="a_node8"><a xlink:href="../../d5/d9c/classfactories_1_1_command_factory.html#a883fd5deb5ebfdbc8ac9d4e920bbfb10" target="_top" xlink:title="factories.CommandFactory.math\lCommands">
<polygon fill="white" stroke="black" points="590.5,-474 590.5,-504 763.5,-504 763.5,-474 590.5,-474"/>
<text text-anchor="start" x="598.5" y="-492" font-family="Helvetica,sans-Serif" font-size="10.00">factories.CommandFactory.math</text>
<text text-anchor="middle" x="677" y="-481" font-family="Helvetica,sans-Serif" font-size="10.00">Commands</text>
</a>
</g>
</g>
<!-- Node4&#45;&gt;Node8 -->
<g id="edge7" class="edge"><title>Node4&#45;&gt;Node8</title>
<path fill="none" stroke="midnightblue" d="M540.149,-473.701C553.26,-475.178 566.86,-476.709 580.163,-478.208"/>
<polygon fill="midnightblue" stroke="midnightblue" points="579.936,-481.704 590.265,-479.345 580.72,-474.748 579.936,-481.704"/>
</g>
<!-- Node9 -->
<g id="node9" class="node"><title>Node9</title>
<g id="a_node9"><a xlink:href="../../d5/d9c/classfactories_1_1_command_factory.html#a1c1a978ea4c51cbfadb12ca3140b6b3a" target="_top" xlink:title="factories.CommandFactory.query\lCommands">
<polygon fill="white" stroke="black" points="590,-425 590,-455 764,-455 764,-425 590,-425"/>
<text text-anchor="start" x="598" y="-443" font-family="Helvetica,sans-Serif" font-size="10.00">factories.CommandFactory.query</text>
<text text-anchor="middle" x="677" y="-432" font-family="Helvetica,sans-Serif" font-size="10.00">Commands</text>
</a>
</g>
</g>
<!-- Node4&#45;&gt;Node9 -->
<g id="edge8" class="edge"><title>Node4&#45;&gt;Node9</title>
<path fill="none" stroke="midnightblue" d="M540.149,-454.687C553.163,-453.28 566.658,-451.821 579.867,-450.393"/>
<polygon fill="midnightblue" stroke="midnightblue" points="580.334,-453.863 589.9,-449.308 579.581,-446.903 580.334,-453.863"/>
</g>
<!-- Node10 -->
<g id="node10" class="node"><title>Node10</title>
<g id="a_node10"><a xlink:href="../../d5/d9c/classfactories_1_1_command_factory.html#aa6426cc26d8396d9f75538d61f189e84" target="_top" xlink:title="factories.CommandFactory.turtle\lCommands">
<polygon fill="white" stroke="black" points="590.5,-376 590.5,-406 763.5,-406 763.5,-376 590.5,-376"/>
<text text-anchor="start" x="598.5" y="-394" font-family="Helvetica,sans-Serif" font-size="10.00">factories.CommandFactory.turtle</text>
<text text-anchor="middle" x="677" y="-383" font-family="Helvetica,sans-Serif" font-size="10.00">Commands</text>
</a>
</g>
</g>
<!-- Node4&#45;&gt;Node10 -->
<g id="edge9" class="edge"><title>Node4&#45;&gt;Node10</title>
<path fill="none" stroke="midnightblue" d="M491.184,-448.944C516.548,-438.95 551.029,-425.899 582,-416 589.719,-413.533 597.847,-411.112 605.96,-408.807"/>
<polygon fill="midnightblue" stroke="midnightblue" points="607.127,-412.115 615.819,-406.058 605.247,-405.373 607.127,-412.115"/>
</g>
<!-- Node12 -->
<g id="node12" class="node"><title>Node12</title>
<g id="a_node12"><a xlink:href="../../d5/d9c/classfactories_1_1_command_factory.html#ab7f7ba1a35c043e109b56bc23dfb32d0" target="_top" xlink:title="factories.CommandFactory.add\lParam">
<polygon fill="white" stroke="black" points="594.5,-327 594.5,-357 759.5,-357 759.5,-327 594.5,-327"/>
<text text-anchor="start" x="602.5" y="-345" font-family="Helvetica,sans-Serif" font-size="10.00">factories.CommandFactory.add</text>
<text text-anchor="middle" x="677" y="-334" font-family="Helvetica,sans-Serif" font-size="10.00">Param</text>
</a>
</g>
</g>
<!-- Node11&#45;&gt;Node12 -->
<g id="edge11" class="edge"><title>Node11&#45;&gt;Node12</title>
<path fill="none" stroke="midnightblue" d="M539.513,-365.977C554.102,-363.414 569.312,-360.743 584.059,-358.152"/>
<polygon fill="midnightblue" stroke="midnightblue" points="584.937,-361.551 594.181,-356.374 583.726,-354.657 584.937,-361.551"/>
</g>
<!-- Node13 -->
<g id="node13" class="node"><title>Node13</title>
<g id="a_node13"><a xlink:href="../../d5/d9c/classfactories_1_1_command_factory.html#a53b4255ecbbdd516b99b1647cf9e5359" target="_top" xlink:title="factories.CommandFactory.is\lVariable">
<polygon fill="white" stroke="black" points="815.5,-352 815.5,-382 970.5,-382 970.5,-352 815.5,-352"/>
<text text-anchor="start" x="823.5" y="-370" font-family="Helvetica,sans-Serif" font-size="10.00">factories.CommandFactory.is</text>
<text text-anchor="middle" x="893" y="-359" font-family="Helvetica,sans-Serif" font-size="10.00">Variable</text>
</a>
</g>
</g>
<!-- Node12&#45;&gt;Node13 -->
<g id="edge12" class="edge"><title>Node12&#45;&gt;Node13</title>
<path fill="none" stroke="midnightblue" d="M759.515,-351.523C774.39,-353.261 789.963,-355.08 804.991,-356.835"/>
<polygon fill="midnightblue" stroke="midnightblue" points="804.954,-360.355 815.292,-358.039 805.766,-353.402 804.954,-360.355"/>
</g>
<!-- Node14 -->
<g id="node14" class="node"><title>Node14</title>
<g id="a_node14"><a xlink:href="../../d5/d9c/classfactories_1_1_command_factory.html#ac75dced2e30745174958ba6189ed4d59" target="_top" xlink:title="factories.CommandFactory.read\lVariable">
<polygon fill="white" stroke="black" points="808.5,-303 808.5,-333 977.5,-333 977.5,-303 808.5,-303"/>
<text text-anchor="start" x="816.5" y="-321" font-family="Helvetica,sans-Serif" font-size="10.00">factories.CommandFactory.read</text>
<text text-anchor="middle" x="893" y="-310" font-family="Helvetica,sans-Serif" font-size="10.00">Variable</text>
</a>
</g>
</g>
<!-- Node12&#45;&gt;Node14 -->
<g id="edge13" class="edge"><title>Node12&#45;&gt;Node14</title>
<path fill="none" stroke="midnightblue" d="M759.515,-332.858C772.097,-331.447 785.179,-329.98 798.007,-328.541"/>
<polygon fill="midnightblue" stroke="midnightblue" points="798.679,-331.988 808.226,-327.395 797.899,-325.032 798.679,-331.988"/>
</g>
<!-- Node17 -->
<g id="node17" class="node"><title>Node17</title>
<g id="a_node17"><a xlink:href="../../d3/dcc/classparser_1_1_node.html#aa67bc0d39227232943abec9b95b23235" target="_top" xlink:title="parser.Node.getChild1">
<polygon fill="white" stroke="black" points="391.5,-114.5 391.5,-133.5 514.5,-133.5 514.5,-114.5 391.5,-114.5"/>
<text text-anchor="middle" x="453" y="-121.5" font-family="Helvetica,sans-Serif" font-size="10.00">parser.Node.getChild1</text>
</a>
</g>
</g>
<!-- Node16&#45;&gt;Node17 -->
<g id="edge16" class="edge"><title>Node16&#45;&gt;Node17</title>
<path fill="none" stroke="midnightblue" d="M296.452,-90.0575C316.627,-94.9676 339.252,-100.349 360,-105 371.078,-107.483 382.933,-110.021 394.325,-112.4"/>
<polygon fill="midnightblue" stroke="midnightblue" points="393.682,-115.841 404.185,-114.444 395.103,-108.986 393.682,-115.841"/>
</g>
<!-- Node18 -->
<g id="node18" class="node"><title>Node18</title>
<g id="a_node18"><a xlink:href="../../d3/dcc/classparser_1_1_node.html#a0f13775acc62af77cdde90dbeaf26bbc" target="_top" xlink:title="parser.Node.getChild2">
<polygon fill="white" stroke="black" points="391.5,-76.5 391.5,-95.5 514.5,-95.5 514.5,-76.5 391.5,-76.5"/>
<text text-anchor="middle" x="453" y="-83.5" font-family="Helvetica,sans-Serif" font-size="10.00">parser.Node.getChild2</text>
</a>
</g>
</g>
<!-- Node16&#45;&gt;Node18 -->
<g id="edge17" class="edge"><title>Node16&#45;&gt;Node18</title>
<path fill="none" stroke="midnightblue" d="M323.233,-79.4424C342.497,-80.4235 362.678,-81.4512 381.196,-82.3942"/>
<polygon fill="midnightblue" stroke="midnightblue" points="381.131,-85.8954 391.296,-82.9086 381.487,-78.9045 381.131,-85.8954"/>
</g>
<!-- Node19 -->
<g id="node19" class="node"><title>Node19</title>
<g id="a_node19"><a xlink:href="../../d3/dcc/classparser_1_1_node.html#a9c12e8d4375a7517eae0a35724b253c4" target="_top" xlink:title="parser.Node.getValue">
<polygon fill="white" stroke="black" points="393,-0.5 393,-19.5 513,-19.5 513,-0.5 393,-0.5"/>
<text text-anchor="middle" x="453" y="-7.5" font-family="Helvetica,sans-Serif" font-size="10.00">parser.Node.getValue</text>
</a>
</g>
</g>
<!-- Node16&#45;&gt;Node19 -->
<g id="edge18" class="edge"><title>Node16&#45;&gt;Node19</title>
<path fill="none" stroke="midnightblue" d="M272.14,-59.9388C296.62,-50.1489 329.874,-37.6449 360,-29 369.192,-26.3624 378.999,-23.9364 388.658,-21.7633"/>
<polygon fill="midnightblue" stroke="midnightblue" points="389.61,-25.1381 398.637,-19.592 388.122,-18.2981 389.61,-25.1381"/>
</g>
<!-- Node20 -->
<g id="node20" class="node"><title>Node20</title>
<g id="a_node20"><a xlink:href="../../d3/dcc/classparser_1_1_node.html#a6bbc0c61aaa261077eb87cfc4e2b45dc" target="_top" xlink:title="parser.Node.numChildren">
<polygon fill="white" stroke="black" points="383.5,-38.5 383.5,-57.5 522.5,-57.5 522.5,-38.5 383.5,-38.5"/>
<text text-anchor="middle" x="453" y="-45.5" font-family="Helvetica,sans-Serif" font-size="10.00">parser.Node.numChildren</text>
</a>
</g>
</g>
<!-- Node16&#45;&gt;Node20 -->
<g id="edge19" class="edge"><title>Node16&#45;&gt;Node20</title>
<path fill="none" stroke="midnightblue" d="M323.233,-64.0959C339.813,-62.0233 357.072,-59.866 373.366,-57.8292"/>
<polygon fill="midnightblue" stroke="midnightblue" points="373.884,-61.2919 383.372,-56.5785 373.015,-54.3459 373.884,-61.2919"/>
</g>
<!-- Node21&#45;&gt;Node17 -->
<g id="edge21" class="edge"><title>Node21&#45;&gt;Node17</title>
<path fill="none" stroke="midnightblue" d="M296.452,-157.942C316.627,-153.032 339.252,-147.651 360,-143 371.078,-140.517 382.933,-137.979 394.325,-135.6"/>
<polygon fill="midnightblue" stroke="midnightblue" points="395.103,-139.014 404.185,-133.556 393.682,-132.159 395.103,-139.014"/>
</g>
<!-- Node21&#45;&gt;Node18 -->
<g id="edge22" class="edge"><title>Node21&#45;&gt;Node18</title>
<path fill="none" stroke="midnightblue" d="M304.577,-157.971C311.396,-155.182 318.003,-151.889 324,-148 344.913,-134.439 338.606,-117.787 360,-105 366.693,-100.999 374.096,-97.8304 381.709,-95.322"/>
<polygon fill="midnightblue" stroke="midnightblue" points="382.809,-98.6471 391.427,-92.4849 380.847,-91.9275 382.809,-98.6471"/>
</g>
<!-- Node22 -->
<g id="node22" class="node"><title>Node22</title>
<g id="a_node22"><a xlink:href="../../d3/dcc/classparser_1_1_node.html#ab14db24c0724dec4387e29d513008e2e" target="_top" xlink:title="parser.Node.hasChildren">
<polygon fill="white" stroke="black" points="386,-190.5 386,-209.5 520,-209.5 520,-190.5 386,-190.5"/>
<text text-anchor="middle" x="453" y="-197.5" font-family="Helvetica,sans-Serif" font-size="10.00">parser.Node.hasChildren</text>
</a>
</g>
</g>
<!-- Node21&#45;&gt;Node22 -->
<g id="edge23" class="edge"><title>Node21&#45;&gt;Node22</title>
<path fill="none" stroke="midnightblue" d="M312.762,-182.595C333.197,-185.15 355.265,-187.908 375.677,-190.46"/>
<polygon fill="midnightblue" stroke="midnightblue" points="375.508,-193.966 385.865,-191.733 376.377,-187.02 375.508,-193.966"/>
</g>
<!-- Node23 -->
<g id="node23" class="node"><title>Node23</title>
<g id="a_node23"><a xlink:href="../../d3/dcc/classparser_1_1_node.html#aa92667a825777b3d757bc3b1a247ac20" target="_top" xlink:title="parser.Node.isLeaf">
<polygon fill="white" stroke="black" points="400,-152.5 400,-171.5 506,-171.5 506,-152.5 400,-152.5"/>
<text text-anchor="middle" x="453" y="-159.5" font-family="Helvetica,sans-Serif" font-size="10.00">parser.Node.isLeaf</text>
</a>
</g>
</g>
<!-- Node21&#45;&gt;Node23 -->
<g id="edge24" class="edge"><title>Node21&#45;&gt;Node23</title>
<path fill="none" stroke="midnightblue" d="M312.762,-169.091C338.014,-167.805 365.759,-166.392 389.792,-165.168"/>
<polygon fill="midnightblue" stroke="midnightblue" points="390.037,-168.66 399.846,-164.656 389.681,-161.669 390.037,-168.66"/>
</g>
<!-- Node24&#45;&gt;Node17 -->
<g id="edge26" class="edge"><title>Node24&#45;&gt;Node17</title>
<path fill="none" stroke="midnightblue" d="M304.047,-124C328.61,-124 356.383,-124 381.178,-124"/>
<polygon fill="midnightblue" stroke="midnightblue" points="381.24,-127.5 391.24,-124 381.24,-120.5 381.24,-127.5"/>
</g>
<!-- Node24&#45;&gt;Node18 -->
<g id="edge27" class="edge"><title>Node24&#45;&gt;Node18</title>
<path fill="none" stroke="midnightblue" d="M304.047,-112.029C330.912,-107.303 361.616,-101.901 388.064,-97.2479"/>
<polygon fill="midnightblue" stroke="midnightblue" points="388.733,-100.684 397.976,-95.5043 387.521,-93.7899 388.733,-100.684"/>
</g>
<!-- Node24&#45;&gt;Node22 -->
<g id="edge28" class="edge"><title>Node24&#45;&gt;Node22</title>
<path fill="none" stroke="midnightblue" d="M304.082,-139.021C310.995,-141.584 317.76,-144.558 324,-148 343.005,-158.484 340.676,-171.116 360,-181 364.991,-183.553 370.301,-185.763 375.753,-187.676"/>
<polygon fill="midnightblue" stroke="midnightblue" points="375.095,-191.138 385.684,-190.809 377.201,-184.462 375.095,-191.138"/>
</g>
<!-- Node24&#45;&gt;Node23 -->
<g id="edge29" class="edge"><title>Node24&#45;&gt;Node23</title>
<path fill="none" stroke="midnightblue" d="M304.047,-135.971C331.46,-140.794 362.871,-146.32 389.678,-151.036"/>
<polygon fill="midnightblue" stroke="midnightblue" points="389.254,-154.515 399.709,-152.801 390.467,-147.621 389.254,-154.515"/>
</g>
<!-- Node25&#45;&gt;Node19 -->
<g id="edge31" class="edge"><title>Node25&#45;&gt;Node19</title>
<path fill="none" stroke="midnightblue" d="M299.057,-17.7888C325.336,-16.4505 355.936,-14.8922 382.83,-13.5226"/>
<polygon fill="midnightblue" stroke="midnightblue" points="383.13,-17.0119 392.939,-13.0077 382.774,-10.021 383.13,-17.0119"/>
</g>
<!-- Node27 -->
<g id="node27" class="node"><title>Node27</title>
<g id="a_node27"><a xlink:href="../../d5/d9c/classfactories_1_1_command_factory.html#a2f5048d1319359ac215a1ff51e792d3f" target="_top" xlink:title="factories.CommandFactory.get\lNumParameters">
<polygon fill="white" stroke="black" points="371.5,-278 371.5,-308 534.5,-308 534.5,-278 371.5,-278"/>
<text text-anchor="start" x="379.5" y="-296" font-family="Helvetica,sans-Serif" font-size="10.00">factories.CommandFactory.get</text>
<text text-anchor="middle" x="453" y="-285" font-family="Helvetica,sans-Serif" font-size="10.00">NumParameters</text>
</a>
</g>
</g>
<!-- Node26&#45;&gt;Node27 -->
<g id="edge33" class="edge"><title>Node26&#45;&gt;Node27</title>
<path fill="none" stroke="midnightblue" d="M277.903,-253.506C305.587,-259.786 342.687,-268.202 375.524,-275.651"/>
<polygon fill="midnightblue" stroke="midnightblue" points="375.037,-279.13 385.563,-277.929 376.585,-272.303 375.037,-279.13"/>
</g>
<!-- Node28 -->
<g id="node28" class="node"><title>Node28</title>
<g id="a_node28"><a xlink:href="../../d5/d9c/classfactories_1_1_command_factory.html#acdd23506779ffbeb0b30a9cb4f473857" target="_top" xlink:title="factories.CommandFactory.initialize\lLoopVariables">
<polygon fill="white" stroke="black" points="360.5,-229 360.5,-259 545.5,-259 545.5,-229 360.5,-229"/>
<text text-anchor="start" x="368.5" y="-247" font-family="Helvetica,sans-Serif" font-size="10.00">factories.CommandFactory.initialize</text>
<text text-anchor="middle" x="453" y="-236" font-family="Helvetica,sans-Serif" font-size="10.00">LoopVariables</text>
</a>
</g>
</g>
<!-- Node26&#45;&gt;Node28 -->
<g id="edge35" class="edge"><title>Node26&#45;&gt;Node28</title>
<path fill="none" stroke="midnightblue" d="M299.057,-244C315.087,-244 332.725,-244 350.149,-244"/>
<polygon fill="midnightblue" stroke="midnightblue" points="350.37,-247.5 360.37,-244 350.37,-240.5 350.37,-247.5"/>
</g>
<!-- Node27&#45;&gt;Node15 -->
<g id="edge34" class="edge"><title>Node27&#45;&gt;Node15</title>
<path fill="none" stroke="midnightblue" d="M534.775,-293C546.688,-293 559.104,-293 571.415,-293"/>
<polygon fill="midnightblue" stroke="midnightblue" points="571.718,-296.5 581.717,-293 571.717,-289.5 571.718,-296.5"/>
</g>
</g>
</svg>
