<?xml version="1.0" encoding="UTF-8" standalone="no"?>
<!DOCTYPE svg PUBLIC "-//W3C//DTD SVG 1.1//EN"
 "http://www.w3.org/Graphics/SVG/1.1/DTD/svg11.dtd">
<!-- Generated by graphviz version 2.36.0 (20140111.2315)
 -->
<!-- Title: parser.Parser.main Pages: 1 -->
<!--zoomable 343 -->
<svg id="main" version="1.1" xmlns="http://www.w3.org/2000/svg" xmlns:xlink="http://www.w3.org/1999/xlink" xml:space="preserve" onload="init(evt)">
<style type="text/css"><![CDATA[
.edge:hover path { stroke: red; }
.edge:hover polygon { stroke: red; fill: red; }
]]></style>
<script type="text/javascript"><![CDATA[
var edges = document.getElementsByTagName('g');
if (edges && edges.length) {
  for (var i=0;i<edges.length;i++) {
    if (edges[i].id.substr(0,4)=='edge') {
      edges[i].setAttribute('class','edge');
    }
  }
}
]]></script>
        <defs>
                <circle id="rim" cx="0" cy="0" r="7"/>
                <circle id="rim2" cx="0" cy="0" r="3.5"/>
                <g id="zoomPlus">
                        <use xlink:href="#rim" fill="#404040">
                                <set attributeName="fill" to="#808080" begin="zoomplus.mouseover" end="zoomplus.mouseout"/>
                        </use>
                        <path d="M-4,0h8M0,-4v8" fill="none" stroke="white" stroke-width="1.5" pointer-events="none"/>
                </g>
                <g id="zoomMin">
                        <use xlink:href="#rim" fill="#404040">
                                <set attributeName="fill" to="#808080" begin="zoomminus.mouseover" end="zoomminus.mouseout"/>
                        </use>
                        <path d="M-4,0h8" fill="none" stroke="white" stroke-width="1.5" pointer-events="none"/>
                </g>
                <g id="dirArrow">
                        <path fill="none" stroke="white" stroke-width="1.5" d="M0,-3.0v7 M-2.5,-0.5L0,-3.0L2.5,-0.5"/>
                </g>
               <g id="resetDef">
                       <use xlink:href="#rim2" fill="#404040">
                               <set attributeName="fill" to="#808080" begin="reset.mouseover" end="reset.mouseout"/>
                       </use>
               </g>
        </defs>

<script type="text/javascript">
var viewWidth = 970;
var viewHeight = 343;
var sectionId = 'dynsection-10';
</script>
<script xlink:href="../../svgpan.js"/>
<svg id="graph" class="graph">
<g id="viewport">
<title>parser.Parser.main</title>
<polygon fill="white" stroke="none" points="-4,4 -4,-339 966,-339 966,4 -4,4"/>
<!-- Node1 -->
<g id="node1" class="node"><title>Node1</title>
<polygon fill="#bfbfbf" stroke="black" points="0,-201.5 0,-220.5 106,-220.5 106,-201.5 0,-201.5"/>
<text text-anchor="middle" x="53" y="-208.5" font-family="Helvetica,sans-Serif" font-size="10.00">parser.Parser.main</text>
</g>
<!-- Node2 -->
<g id="node2" class="node"><title>Node2</title>
<g id="a_node2"><a xlink:href="../../d6/d95/classparser_1_1_parser.html#a240c75608624a9c67402a296855c4d1d" target="_top" xlink:title="parser.Parser.initialize\lCommands">
<polygon fill="white" stroke="black" points="142,-281 142,-311 262,-311 262,-281 142,-281"/>
<text text-anchor="start" x="150" y="-299" font-family="Helvetica,sans-Serif" font-size="10.00">parser.Parser.initialize</text>
<text text-anchor="middle" x="202" y="-288" font-family="Helvetica,sans-Serif" font-size="10.00">Commands</text>
</a>
</g>
</g>
<!-- Node1&#45;&gt;Node2 -->
<g id="edge1" class="edge"><title>Node1&#45;&gt;Node2</title>
<path fill="none" stroke="midnightblue" d="M70.577,-220.585C93.5769,-233.885 135.738,-258.264 165.901,-275.705"/>
<polygon fill="midnightblue" stroke="midnightblue" points="164.433,-278.899 174.842,-280.875 167.938,-272.839 164.433,-278.899"/>
</g>
<!-- Node6 -->
<g id="node6" class="node"><title>Node6</title>
<g id="a_node6"><a xlink:href="../../d6/d95/classparser_1_1_parser.html#a4ecbffc246c3add017c4720eed4c6da9" target="_top" xlink:title="parser.Parser.parse">
<polygon fill="white" stroke="black" points="147.5,-201.5 147.5,-220.5 256.5,-220.5 256.5,-201.5 147.5,-201.5"/>
<text text-anchor="middle" x="202" y="-208.5" font-family="Helvetica,sans-Serif" font-size="10.00">parser.Parser.parse</text>
</a>
</g>
</g>
<!-- Node1&#45;&gt;Node6 -->
<g id="edge5" class="edge"><title>Node1&#45;&gt;Node6</title>
<path fill="none" stroke="midnightblue" d="M106.241,-211C116.267,-211 126.871,-211 137.214,-211"/>
<polygon fill="midnightblue" stroke="midnightblue" points="137.439,-214.5 147.439,-211 137.439,-207.5 137.439,-214.5"/>
</g>
<!-- Node19 -->
<g id="node19" class="node"><title>Node19</title>
<g id="a_node19"><a xlink:href="../../d6/d95/classparser_1_1_parser.html#a4811b7bbe9944e2eb2440a1926568f3f" target="_top" xlink:title="parser.Parser.Parser">
<polygon fill="white" stroke="black" points="146,-163.5 146,-182.5 258,-182.5 258,-163.5 146,-163.5"/>
<text text-anchor="middle" x="202" y="-170.5" font-family="Helvetica,sans-Serif" font-size="10.00">parser.Parser.Parser</text>
</a>
</g>
</g>
<!-- Node1&#45;&gt;Node19 -->
<g id="edge29" class="edge"><title>Node1&#45;&gt;Node19</title>
<path fill="none" stroke="midnightblue" d="M91.0943,-201.411C110.318,-196.442 133.986,-190.323 154.429,-185.039"/>
<polygon fill="midnightblue" stroke="midnightblue" points="155.367,-188.412 164.172,-182.52 153.615,-181.634 155.367,-188.412"/>
</g>
<!-- Node3 -->
<g id="node3" class="node"><title>Node3</title>
<g id="a_node3"><a xlink:href="../../d6/d95/classparser_1_1_parser.html#a4f582c65390bddc57219c0b5c31ef5e7" target="_top" xlink:title="parser.Parser.makeTree">
<polygon fill="white" stroke="black" points="327,-308.5 327,-327.5 455,-327.5 455,-308.5 327,-308.5"/>
<text text-anchor="middle" x="391" y="-315.5" font-family="Helvetica,sans-Serif" font-size="10.00">parser.Parser.makeTree</text>
</a>
</g>
</g>
<!-- Node2&#45;&gt;Node3 -->
<g id="edge2" class="edge"><title>Node2&#45;&gt;Node3</title>
<path fill="none" stroke="midnightblue" d="M262.168,-302.961C279.422,-304.991 298.488,-307.234 316.512,-309.354"/>
<polygon fill="midnightblue" stroke="midnightblue" points="316.35,-312.859 326.69,-310.552 317.168,-305.907 316.35,-312.859"/>
</g>
<!-- Node4 -->
<g id="node4" class="node"><title>Node4</title>
<g id="a_node4"><a xlink:href="../../d9/d1b/classcommand_1_1_command_factory.html#a87bf7e648425bb22124367cabedb3327" target="_top" xlink:title="command.CommandFactory.get\lNumParameters">
<polygon fill="white" stroke="black" points="539,-305 539,-335 709,-335 709,-305 539,-305"/>
<text text-anchor="start" x="547" y="-323" font-family="Helvetica,sans-Serif" font-size="10.00">command.CommandFactory.get</text>
<text text-anchor="middle" x="624" y="-312" font-family="Helvetica,sans-Serif" font-size="10.00">NumParameters</text>
</a>
</g>
</g>
<!-- Node3&#45;&gt;Node4 -->
<g id="edge3" class="edge"><title>Node3&#45;&gt;Node4</title>
<path fill="none" stroke="midnightblue" d="M455.122,-318.547C477.781,-318.743 503.853,-318.968 528.59,-319.183"/>
<polygon fill="midnightblue" stroke="midnightblue" points="528.695,-322.684 538.725,-319.27 528.756,-315.684 528.695,-322.684"/>
</g>
<!-- Node5 -->
<g id="node5" class="node"><title>Node5</title>
<g id="a_node5"><a xlink:href="../../d9/d1b/classcommand_1_1_command_factory.html#a947fdc151e857ea74564d0d1fe268246" target="_top" xlink:title="command.CommandFactory.translate\lCommand">
<polygon fill="white" stroke="black" points="764.5,-283 764.5,-313 961.5,-313 961.5,-283 764.5,-283"/>
<text text-anchor="start" x="772.5" y="-301" font-family="Helvetica,sans-Serif" font-size="10.00">command.CommandFactory.translate</text>
<text text-anchor="middle" x="863" y="-290" font-family="Helvetica,sans-Serif" font-size="10.00">Command</text>
</a>
</g>
</g>
<!-- Node4&#45;&gt;Node5 -->
<g id="edge4" class="edge"><title>Node4&#45;&gt;Node5</title>
<path fill="none" stroke="midnightblue" d="M709.225,-312.182C723.71,-310.837 738.944,-309.423 753.951,-308.03"/>
<polygon fill="midnightblue" stroke="midnightblue" points="754.66,-311.479 764.294,-307.07 754.013,-304.509 754.66,-311.479"/>
</g>
<!-- Node6&#45;&gt;Node3 -->
<g id="edge12" class="edge"><title>Node6&#45;&gt;Node3</title>
<path fill="none" stroke="midnightblue" d="M212.392,-220.806C232.261,-241.343 278.339,-287.82 298,-298 303.949,-301.08 310.351,-303.687 316.909,-305.892"/>
<polygon fill="midnightblue" stroke="midnightblue" points="316.007,-309.276 326.593,-308.845 318.049,-302.581 316.007,-309.276"/>
</g>
<!-- Node7 -->
<g id="node7" class="node"><title>Node7</title>
<g id="a_node7"><a xlink:href="../../d3/dcc/classparser_1_1_node.html#a9c12e8d4375a7517eae0a35724b253c4" target="_top" xlink:title="parser.Node.getValue">
<polygon fill="white" stroke="black" points="564,-190.5 564,-209.5 684,-209.5 684,-190.5 564,-190.5"/>
<text text-anchor="middle" x="624" y="-197.5" font-family="Helvetica,sans-Serif" font-size="10.00">parser.Node.getValue</text>
</a>
</g>
</g>
<!-- Node6&#45;&gt;Node7 -->
<g id="edge6" class="edge"><title>Node6&#45;&gt;Node7</title>
<path fill="none" stroke="midnightblue" d="M256.62,-209.596C332.302,-207.614 470.499,-203.994 553.827,-201.812"/>
<polygon fill="midnightblue" stroke="midnightblue" points="554.054,-205.307 563.959,-201.546 553.871,-198.309 554.054,-205.307"/>
</g>
<!-- Node8 -->
<g id="node8" class="node"><title>Node8</title>
<g id="a_node8"><a xlink:href="../../d6/d95/classparser_1_1_parser.html#a447c473b62ba23b7c144df9bb38a9a41" target="_top" xlink:title="parser.Parser.getNodeFor\lCommand">
<polygon fill="white" stroke="black" points="322,-35 322,-65 460,-65 460,-35 322,-35"/>
<text text-anchor="start" x="330" y="-53" font-family="Helvetica,sans-Serif" font-size="10.00">parser.Parser.getNodeFor</text>
<text text-anchor="middle" x="391" y="-42" font-family="Helvetica,sans-Serif" font-size="10.00">Command</text>
</a>
</g>
</g>
<!-- Node6&#45;&gt;Node8 -->
<g id="edge7" class="edge"><title>Node6&#45;&gt;Node8</title>
<path fill="none" stroke="midnightblue" d="M248.5,-201.485C253.491,-199.017 258.149,-195.911 262,-192 300.471,-152.931 258.443,-111.97 298,-74 302.348,-69.826 307.328,-66.3544 312.671,-63.4699"/>
<polygon fill="midnightblue" stroke="midnightblue" points="314.367,-66.5411 321.957,-59.1491 311.414,-60.1945 314.367,-66.5411"/>
</g>
<!-- Node13 -->
<g id="node13" class="node"><title>Node13</title>
<g id="a_node13"><a xlink:href="../../d6/d95/classparser_1_1_parser.html#a3efcd1192e76101919526b4a5e0046f4" target="_top" xlink:title="parser.Parser.getNodeBefore\lToReplace">
<polygon fill="white" stroke="black" points="313.5,-84 313.5,-114 468.5,-114 468.5,-84 313.5,-84"/>
<text text-anchor="start" x="321.5" y="-102" font-family="Helvetica,sans-Serif" font-size="10.00">parser.Parser.getNodeBefore</text>
<text text-anchor="middle" x="391" y="-91" font-family="Helvetica,sans-Serif" font-size="10.00">ToReplace</text>
</a>
</g>
</g>
<!-- Node6&#45;&gt;Node13 -->
<g id="edge13" class="edge"><title>Node6&#45;&gt;Node13</title>
<path fill="none" stroke="midnightblue" d="M246.331,-201.444C251.979,-198.98 257.394,-195.886 262,-192 288.439,-169.697 270.943,-144.549 298,-123 300.034,-121.38 302.165,-119.869 304.375,-118.459"/>
<polygon fill="midnightblue" stroke="midnightblue" points="306.22,-121.438 313.245,-113.508 302.808,-115.326 306.22,-121.438"/>
</g>
<!-- Node14 -->
<g id="node14" class="node"><title>Node14</title>
<g id="a_node14"><a xlink:href="../../d3/dcc/classparser_1_1_node.html#a066da2b478008f39a02440d7afceb9ee" target="_top" xlink:title="parser.Node.insertChild">
<polygon fill="white" stroke="black" points="327,-220.5 327,-239.5 455,-239.5 455,-220.5 327,-220.5"/>
<text text-anchor="middle" x="391" y="-227.5" font-family="Helvetica,sans-Serif" font-size="10.00">parser.Node.insertChild</text>
</a>
</g>
</g>
<!-- Node6&#45;&gt;Node14 -->
<g id="edge19" class="edge"><title>Node6&#45;&gt;Node14</title>
<path fill="none" stroke="midnightblue" d="M256.587,-216.445C275.329,-218.349 296.706,-220.521 316.773,-222.56"/>
<polygon fill="midnightblue" stroke="midnightblue" points="316.511,-226.051 326.814,-223.58 317.219,-219.087 316.511,-226.051"/>
</g>
<!-- Node15 -->
<g id="node15" class="node"><title>Node15</title>
<g id="a_node15"><a xlink:href="../../d6/d95/classparser_1_1_parser.html#aac1cff62f68138c7e977a67d39671701" target="_top" xlink:title="parser.Parser.generateCommand\lInput">
<polygon fill="white" stroke="black" points="303,-133 303,-163 479,-163 479,-133 303,-133"/>
<text text-anchor="start" x="311" y="-151" font-family="Helvetica,sans-Serif" font-size="10.00">parser.Parser.generateCommand</text>
<text text-anchor="middle" x="391" y="-140" font-family="Helvetica,sans-Serif" font-size="10.00">Input</text>
</a>
</g>
</g>
<!-- Node6&#45;&gt;Node15 -->
<g id="edge21" class="edge"><title>Node6&#45;&gt;Node15</title>
<path fill="none" stroke="midnightblue" d="M233.738,-201.482C242.872,-198.551 252.873,-195.241 262,-192 278.178,-186.255 281.833,-183.774 298,-178 309.124,-174.027 321.078,-169.973 332.566,-166.183"/>
<polygon fill="midnightblue" stroke="midnightblue" points="333.664,-169.506 342.079,-163.068 331.486,-162.853 333.664,-169.506"/>
</g>
<!-- Node17 -->
<g id="node17" class="node"><title>Node17</title>
<g id="a_node17"><a xlink:href="../../d9/d1b/classcommand_1_1_command_factory.html#ab25bb047b051661d31adf73b2dae5649" target="_top" xlink:title="command.CommandFactory.create\lCommand">
<polygon fill="white" stroke="black" points="298.5,-259 298.5,-289 483.5,-289 483.5,-259 298.5,-259"/>
<text text-anchor="start" x="306.5" y="-277" font-family="Helvetica,sans-Serif" font-size="10.00">command.CommandFactory.create</text>
<text text-anchor="middle" x="391" y="-266" font-family="Helvetica,sans-Serif" font-size="10.00">Command</text>
</a>
</g>
</g>
<!-- Node6&#45;&gt;Node17 -->
<g id="edge26" class="edge"><title>Node6&#45;&gt;Node17</title>
<path fill="none" stroke="midnightblue" d="M224.998,-220.638C244.082,-228.797 272.563,-240.488 298,-249 305.394,-251.474 313.183,-253.885 320.97,-256.171"/>
<polygon fill="midnightblue" stroke="midnightblue" points="320.225,-259.598 330.803,-258.995 322.158,-252.87 320.225,-259.598"/>
</g>
<!-- Node9 -->
<g id="node9" class="node"><title>Node9</title>
<g id="a_node9"><a xlink:href="../../d3/dcc/classparser_1_1_node.html#aa67bc0d39227232943abec9b95b23235" target="_top" xlink:title="parser.Node.getChild1">
<polygon fill="white" stroke="black" points="562.5,-76.5 562.5,-95.5 685.5,-95.5 685.5,-76.5 562.5,-76.5"/>
<text text-anchor="middle" x="624" y="-83.5" font-family="Helvetica,sans-Serif" font-size="10.00">parser.Node.getChild1</text>
</a>
</g>
</g>
<!-- Node8&#45;&gt;Node9 -->
<g id="edge8" class="edge"><title>Node8&#45;&gt;Node9</title>
<path fill="none" stroke="midnightblue" d="M460.058,-60.6065C489.106,-65.1334 522.999,-70.4155 552.328,-74.9862"/>
<polygon fill="midnightblue" stroke="midnightblue" points="552.076,-78.4891 562.496,-76.5708 553.154,-71.5726 552.076,-78.4891"/>
</g>
<!-- Node10 -->
<g id="node10" class="node"><title>Node10</title>
<g id="a_node10"><a xlink:href="../../d3/dcc/classparser_1_1_node.html#a0f13775acc62af77cdde90dbeaf26bbc" target="_top" xlink:title="parser.Node.getChild2">
<polygon fill="white" stroke="black" points="562.5,-114.5 562.5,-133.5 685.5,-133.5 685.5,-114.5 562.5,-114.5"/>
<text text-anchor="middle" x="624" y="-121.5" font-family="Helvetica,sans-Serif" font-size="10.00">parser.Node.getChild2</text>
</a>
</g>
</g>
<!-- Node8&#45;&gt;Node10 -->
<g id="edge9" class="edge"><title>Node8&#45;&gt;Node10</title>
<path fill="none" stroke="midnightblue" d="M460.159,-63.9997C468.409,-66.7851 476.545,-70.0898 484,-74 502.699,-83.8073 500.957,-95.8794 520,-105 530.147,-109.86 541.407,-113.481 552.647,-116.177"/>
<polygon fill="midnightblue" stroke="midnightblue" points="551.977,-119.613 562.493,-118.317 553.464,-112.773 551.977,-119.613"/>
</g>
<!-- Node11 -->
<g id="node11" class="node"><title>Node11</title>
<g id="a_node11"><a xlink:href="../../d3/dcc/classparser_1_1_node.html#ab14db24c0724dec4387e29d513008e2e" target="_top" xlink:title="parser.Node.hasChildren">
<polygon fill="white" stroke="black" points="557,-0.5 557,-19.5 691,-19.5 691,-0.5 557,-0.5"/>
<text text-anchor="middle" x="624" y="-7.5" font-family="Helvetica,sans-Serif" font-size="10.00">parser.Node.hasChildren</text>
</a>
</g>
</g>
<!-- Node8&#45;&gt;Node11 -->
<g id="edge10" class="edge"><title>Node8&#45;&gt;Node11</title>
<path fill="none" stroke="midnightblue" d="M460.058,-38.215C490.907,-32.8733 527.22,-26.5852 557.728,-21.3026"/>
<polygon fill="midnightblue" stroke="midnightblue" points="558.579,-24.7074 567.835,-19.5524 557.384,-17.81 558.579,-24.7074"/>
</g>
<!-- Node12 -->
<g id="node12" class="node"><title>Node12</title>
<g id="a_node12"><a xlink:href="../../d3/dcc/classparser_1_1_node.html#aa92667a825777b3d757bc3b1a247ac20" target="_top" xlink:title="parser.Node.isLeaf">
<polygon fill="white" stroke="black" points="571,-38.5 571,-57.5 677,-57.5 677,-38.5 571,-38.5"/>
<text text-anchor="middle" x="624" y="-45.5" font-family="Helvetica,sans-Serif" font-size="10.00">parser.Node.isLeaf</text>
</a>
</g>
</g>
<!-- Node8&#45;&gt;Node12 -->
<g id="edge11" class="edge"><title>Node8&#45;&gt;Node12</title>
<path fill="none" stroke="midnightblue" d="M460.058,-49.4108C491.863,-49.1354 529.478,-48.8097 560.549,-48.5407"/>
<polygon fill="midnightblue" stroke="midnightblue" points="560.848,-52.0383 570.817,-48.4518 560.787,-45.0386 560.848,-52.0383"/>
</g>
<!-- Node13&#45;&gt;Node7 -->
<g id="edge16" class="edge"><title>Node13&#45;&gt;Node7</title>
<path fill="none" stroke="midnightblue" d="M468.914,-114.112C474.251,-116.633 479.35,-119.572 484,-123 508.421,-141.003 494.94,-163.898 520,-181 530.032,-187.847 541.842,-192.414 553.818,-195.425"/>
<polygon fill="midnightblue" stroke="midnightblue" points="553.367,-198.909 563.882,-197.605 554.849,-192.067 553.367,-198.909"/>
</g>
<!-- Node13&#45;&gt;Node9 -->
<g id="edge14" class="edge"><title>Node13&#45;&gt;Node9</title>
<path fill="none" stroke="midnightblue" d="M468.599,-94.6892C495.497,-93.1755 525.583,-91.4824 552.001,-89.9956"/>
<polygon fill="midnightblue" stroke="midnightblue" points="552.525,-93.4718 562.312,-89.4153 552.131,-86.4828 552.525,-93.4718"/>
</g>
<!-- Node13&#45;&gt;Node10 -->
<g id="edge15" class="edge"><title>Node13&#45;&gt;Node10</title>
<path fill="none" stroke="midnightblue" d="M468.599,-107.29C495.616,-110.214 525.849,-113.486 552.352,-116.354"/>
<polygon fill="midnightblue" stroke="midnightblue" points="551.994,-119.836 562.312,-117.432 552.747,-112.876 551.994,-119.836"/>
</g>
<!-- Node13&#45;&gt;Node11 -->
<g id="edge17" class="edge"><title>Node13&#45;&gt;Node11</title>
<path fill="none" stroke="midnightblue" d="M464.727,-83.988C471.502,-81.2026 478.05,-77.9045 484,-74 505.414,-59.9489 498.022,-42.1515 520,-29 528.222,-24.0799 537.424,-20.3802 546.853,-17.6071"/>
<polygon fill="midnightblue" stroke="midnightblue" points="547.932,-20.943 556.73,-15.0403 546.171,-14.1681 547.932,-20.943"/>
</g>
<!-- Node13&#45;&gt;Node12 -->
<g id="edge18" class="edge"><title>Node13&#45;&gt;Node12</title>
<path fill="none" stroke="midnightblue" d="M448.849,-83.9769C470.984,-78.3406 496.608,-72.0764 520,-67 533.098,-64.1575 547.193,-61.3767 560.625,-58.8577"/>
<polygon fill="midnightblue" stroke="midnightblue" points="561.543,-62.2473 570.739,-56.9858 560.269,-55.3642 561.543,-62.2473"/>
</g>
<!-- Node14&#45;&gt;Node7 -->
<g id="edge20" class="edge"><title>Node14&#45;&gt;Node7</title>
<path fill="none" stroke="midnightblue" d="M455.122,-221.802C485.739,-217.826 522.585,-213.041 553.949,-208.968"/>
<polygon fill="midnightblue" stroke="midnightblue" points="554.458,-212.431 563.924,-207.672 553.557,-205.489 554.458,-212.431"/>
</g>
<!-- Node15&#45;&gt;Node7 -->
<g id="edge24" class="edge"><title>Node15&#45;&gt;Node7</title>
<path fill="none" stroke="midnightblue" d="M446.926,-163.059C469.482,-169.009 495.91,-175.68 520,-181 532.049,-183.661 544.947,-186.246 557.398,-188.609"/>
<polygon fill="midnightblue" stroke="midnightblue" points="556.79,-192.056 567.263,-190.454 558.077,-185.175 556.79,-192.056"/>
</g>
<!-- Node15&#45;&gt;Node9 -->
<g id="edge22" class="edge"><title>Node15&#45;&gt;Node9</title>
<path fill="none" stroke="midnightblue" d="M453.907,-132.991C464.072,-130.011 474.412,-126.658 484,-123 500.713,-116.623 503.037,-110.679 520,-105 530.297,-101.553 541.396,-98.6801 552.36,-96.3012"/>
<polygon fill="midnightblue" stroke="midnightblue" points="553.271,-99.6875 562.366,-94.2531 551.867,-92.8297 553.271,-99.6875"/>
</g>
<!-- Node15&#45;&gt;Node10 -->
<g id="edge23" class="edge"><title>Node15&#45;&gt;Node10</title>
<path fill="none" stroke="midnightblue" d="M479.002,-138.961C503.177,-136.449 529.13,-133.753 552.251,-131.351"/>
<polygon fill="midnightblue" stroke="midnightblue" points="552.73,-134.82 562.315,-130.305 552.007,-127.857 552.73,-134.82"/>
</g>
<!-- Node16 -->
<g id="node16" class="node"><title>Node16</title>
<g id="a_node16"><a xlink:href="../../d3/dcc/classparser_1_1_node.html#a6bbc0c61aaa261077eb87cfc4e2b45dc" target="_top" xlink:title="parser.Node.numChildren">
<polygon fill="white" stroke="black" points="554.5,-152.5 554.5,-171.5 693.5,-171.5 693.5,-152.5 554.5,-152.5"/>
<text text-anchor="middle" x="624" y="-159.5" font-family="Helvetica,sans-Serif" font-size="10.00">parser.Node.numChildren</text>
</a>
</g>
</g>
<!-- Node15&#45;&gt;Node16 -->
<g id="edge25" class="edge"><title>Node15&#45;&gt;Node16</title>
<path fill="none" stroke="midnightblue" d="M479.002,-153.273C500.434,-154.572 523.263,-155.955 544.278,-157.229"/>
<polygon fill="midnightblue" stroke="midnightblue" points="544.241,-160.733 554.434,-157.845 544.664,-153.746 544.241,-160.733"/>
</g>
<!-- Node17&#45;&gt;Node5 -->
<g id="edge28" class="edge"><title>Node17&#45;&gt;Node5</title>
<path fill="none" stroke="midnightblue" d="M483.736,-278.684C561.233,-282.642 672.344,-288.315 754.099,-292.49"/>
<polygon fill="midnightblue" stroke="midnightblue" points="754.257,-296.003 764.423,-293.017 754.614,-289.012 754.257,-296.003"/>
</g>
<!-- Node18 -->
<g id="node18" class="node"><title>Node18</title>
<g id="a_node18"><a xlink:href="../../d9/d1b/classcommand_1_1_command_factory.html#abd97ea3e22afc09e07ed1d4fd039d11f" target="_top" xlink:title="command.CommandFactory.reflectCMD">
<polygon fill="white" stroke="black" points="520.5,-228.5 520.5,-247.5 727.5,-247.5 727.5,-228.5 520.5,-228.5"/>
<text text-anchor="middle" x="624" y="-235.5" font-family="Helvetica,sans-Serif" font-size="10.00">command.CommandFactory.reflectCMD</text>
</a>
</g>
</g>
<!-- Node17&#45;&gt;Node18 -->
<g id="edge27" class="edge"><title>Node17&#45;&gt;Node18</title>
<path fill="none" stroke="midnightblue" d="M483.629,-259.72C506.356,-256.178 530.373,-252.435 551.948,-249.073"/>
<polygon fill="midnightblue" stroke="midnightblue" points="552.658,-252.505 562,-247.506 551.58,-245.588 552.658,-252.505"/>
</g>
</g>
</svg>
        <g id="navigator" transform="translate(0 0)" fill="#404254">
                <rect fill="#f2f5e9" fill-opacity="0.5" stroke="#606060" stroke-width=".5" x="0" y="0" width="60" height="60"/>
                <use id="zoomplus" xlink:href="#zoomPlus" x="17" y="9" onmousedown="handleZoom(evt,'in')"/>
                <use id="zoomminus" xlink:href="#zoomMin" x="42" y="9" onmousedown="handleZoom(evt,'out')"/>
                <use id="reset" xlink:href="#resetDef" x="30" y="36" onmousedown="handleReset()"/>
                <g id="arrowUp" xlink:href="#dirArrow" transform="translate(30 24)" onmousedown="handlePan(0,-1)">
                  <use xlink:href="#rim" fill="#404040">
                        <set attributeName="fill" to="#808080" begin="arrowUp.mouseover" end="arrowUp.mouseout"/>
                  </use>
                  <path fill="none" stroke="white" stroke-width="1.5" d="M0,-3.0v7 M-2.5,-0.5L0,-3.0L2.5,-0.5"/>
                </g>
                <g id="arrowRight" xlink:href="#dirArrow" transform="rotate(90) translate(36 -43)" onmousedown="handlePan(1,0)">
                  <use xlink:href="#rim" fill="#404040">
                        <set attributeName="fill" to="#808080" begin="arrowRight.mouseover" end="arrowRight.mouseout"/>
                  </use>
                  <path fill="none" stroke="white" stroke-width="1.5" d="M0,-3.0v7 M-2.5,-0.5L0,-3.0L2.5,-0.5"/>
                </g>
                <g id="arrowDown" xlink:href="#dirArrow" transform="rotate(180) translate(-30 -48)" onmousedown="handlePan(0,1)">
                  <use xlink:href="#rim" fill="#404040">
                        <set attributeName="fill" to="#808080" begin="arrowDown.mouseover" end="arrowDown.mouseout"/>
                  </use>
                  <path fill="none" stroke="white" stroke-width="1.5" d="M0,-3.0v7 M-2.5,-0.5L0,-3.0L2.5,-0.5"/>
                </g>
                <g id="arrowLeft" xlink:href="#dirArrow" transform="rotate(270) translate(-36 17)" onmousedown="handlePan(-1,0)">
                  <use xlink:href="#rim" fill="#404040">
                        <set attributeName="fill" to="#808080" begin="arrowLeft.mouseover" end="arrowLeft.mouseout"/>
                  </use>
                  <path fill="none" stroke="white" stroke-width="1.5" d="M0,-3.0v7 M-2.5,-0.5L0,-3.0L2.5,-0.5"/>
                </g>
        </g>
        <svg viewBox="0 0 15 15" width="100%" height="30px" preserveAspectRatio="xMaxYMin meet">
         <g id="arrow_out" transform="scale(0.3 0.3)">
          <a xlink:href="classparser_1_1_parser_a6b2d7b2b182d99537ce332ed0dfd3e03_cgraph_org.svg" target="_base">
           <rect id="button" ry="5" rx="5" y="6" x="6" height="38" width="38"
                fill="#f2f5e9" fill-opacity="0.5" stroke="#606060" stroke-width="1.0"/>
           <path id="arrow"
             d="M 11.500037,31.436501 C 11.940474,20.09759 22.043105,11.32322 32.158766,21.979434 L 37.068811,17.246167 C 37.068811,17.246167 37.088388,32 37.088388,32 L 22.160133,31.978069 C 22.160133,31.978069 26.997745,27.140456 26.997745,27.140456 C 18.528582,18.264221 13.291696,25.230495 11.500037,31.436501 z"
             style="fill:#404040;"/>
          </a>
         </g>
        </svg>
</svg>
