<?xml version="1.0" encoding="UTF-8" standalone="no"?>
<!DOCTYPE svg PUBLIC "-//W3C//DTD SVG 1.1//EN"
 "http://www.w3.org/Graphics/SVG/1.1/DTD/svg11.dtd">
<!-- Generated by graphviz version 2.36.0 (20140111.2315)
 -->
<!-- Title: parser.Parser.main Pages: 1 -->
<!--zoomable 371 -->
<svg id="main" version="1.1" xmlns="http://www.w3.org/2000/svg" xmlns:xlink="http://www.w3.org/1999/xlink" xml:space="preserve" onload="init(evt)">
<style type="text/css"><![CDATA[
.edge:hover path { stroke: red; }
.edge:hover polygon { stroke: red; fill: red; }
]]></style>
<script type="text/javascript"><![CDATA[
var edges = document.getElementsByTagName('g');
if (edges && edges.length) {
  for (var i=0;i<edges.length;i++) {
    if (edges[i].id.substr(0,4)=='edge') {
      edges[i].setAttribute('class','edge');
    }
  }
}
]]></script>
        <defs>
                <circle id="rim" cx="0" cy="0" r="7"/>
                <circle id="rim2" cx="0" cy="0" r="3.5"/>
                <g id="zoomPlus">
                        <use xlink:href="#rim" fill="#404040">
                                <set attributeName="fill" to="#808080" begin="zoomplus.mouseover" end="zoomplus.mouseout"/>
                        </use>
                        <path d="M-4,0h8M0,-4v8" fill="none" stroke="white" stroke-width="1.5" pointer-events="none"/>
                </g>
                <g id="zoomMin">
                        <use xlink:href="#rim" fill="#404040">
                                <set attributeName="fill" to="#808080" begin="zoomminus.mouseover" end="zoomminus.mouseout"/>
                        </use>
                        <path d="M-4,0h8" fill="none" stroke="white" stroke-width="1.5" pointer-events="none"/>
                </g>
                <g id="dirArrow">
                        <path fill="none" stroke="white" stroke-width="1.5" d="M0,-3.0v7 M-2.5,-0.5L0,-3.0L2.5,-0.5"/>
                </g>
               <g id="resetDef">
                       <use xlink:href="#rim2" fill="#404040">
                               <set attributeName="fill" to="#808080" begin="reset.mouseover" end="reset.mouseout"/>
                       </use>
               </g>
        </defs>

<script type="text/javascript">
var viewWidth = 970;
var viewHeight = 371;
var sectionId = 'dynsection-10';
</script>
<script xlink:href="../../svgpan.js"/>
<svg id="graph" class="graph">
<g id="viewport">
<title>parser.Parser.main</title>
<polygon fill="white" stroke="none" points="-4,4 -4,-367 966,-367 966,4 -4,4"/>
<!-- Node1 -->
<g id="node1" class="node"><title>Node1</title>
<polygon fill="#bfbfbf" stroke="black" points="0,-156.5 0,-175.5 106,-175.5 106,-156.5 0,-156.5"/>
<text text-anchor="middle" x="53" y="-163.5" font-family="Helvetica,sans-Serif" font-size="10.00">parser.Parser.main</text>
</g>
<!-- Node2 -->
<g id="node2" class="node"><title>Node2</title>
<g id="a_node2"><a xlink:href="../../d6/d95/classparser_1_1_parser.html#a240c75608624a9c67402a296855c4d1d" target="_top" xlink:title="parser.Parser.initialize\lCommands">
<polygon fill="white" stroke="black" points="142,-245 142,-275 262,-275 262,-245 142,-245"/>
<text text-anchor="start" x="150" y="-263" font-family="Helvetica,sans-Serif" font-size="10.00">parser.Parser.initialize</text>
<text text-anchor="middle" x="202" y="-252" font-family="Helvetica,sans-Serif" font-size="10.00">Commands</text>
</a>
</g>
</g>
<!-- Node1&#45;&gt;Node2 -->
<g id="edge1" class="edge"><title>Node1&#45;&gt;Node2</title>
<path fill="none" stroke="midnightblue" d="M68.9041,-175.531C92.1559,-190.399 137.609,-219.464 168.636,-239.305"/>
<polygon fill="midnightblue" stroke="midnightblue" points="167.058,-242.45 177.368,-244.888 170.829,-236.552 167.058,-242.45"/>
</g>
<!-- Node6 -->
<g id="node6" class="node"><title>Node6</title>
<g id="a_node6"><a xlink:href="../../d6/d95/classparser_1_1_parser.html#a4ecbffc246c3add017c4720eed4c6da9" target="_top" xlink:title="parser.Parser.parse">
<polygon fill="white" stroke="black" points="147.5,-156.5 147.5,-175.5 256.5,-175.5 256.5,-156.5 147.5,-156.5"/>
<text text-anchor="middle" x="202" y="-163.5" font-family="Helvetica,sans-Serif" font-size="10.00">parser.Parser.parse</text>
</a>
</g>
</g>
<!-- Node1&#45;&gt;Node6 -->
<g id="edge5" class="edge"><title>Node1&#45;&gt;Node6</title>
<path fill="none" stroke="midnightblue" d="M106.241,-166C116.267,-166 126.871,-166 137.214,-166"/>
<polygon fill="midnightblue" stroke="midnightblue" points="137.439,-169.5 147.439,-166 137.439,-162.5 137.439,-169.5"/>
</g>
<!-- Node19 -->
<g id="node19" class="node"><title>Node19</title>
<g id="a_node19"><a xlink:href="../../d6/d95/classparser_1_1_parser.html#a4811b7bbe9944e2eb2440a1926568f3f" target="_top" xlink:title="parser.Parser.Parser">
<polygon fill="white" stroke="black" points="146,-118.5 146,-137.5 258,-137.5 258,-118.5 146,-118.5"/>
<text text-anchor="middle" x="202" y="-125.5" font-family="Helvetica,sans-Serif" font-size="10.00">parser.Parser.Parser</text>
</a>
</g>
</g>
<!-- Node1&#45;&gt;Node19 -->
<g id="edge29" class="edge"><title>Node1&#45;&gt;Node19</title>
<path fill="none" stroke="midnightblue" d="M91.0943,-156.411C110.318,-151.442 133.986,-145.323 154.429,-140.039"/>
<polygon fill="midnightblue" stroke="midnightblue" points="155.367,-143.412 164.172,-137.52 153.615,-136.634 155.367,-143.412"/>
</g>
<!-- Node3 -->
<g id="node3" class="node"><title>Node3</title>
<g id="a_node3"><a xlink:href="../../d6/d95/classparser_1_1_parser.html#a4f582c65390bddc57219c0b5c31ef5e7" target="_top" xlink:title="parser.Parser.makeTree">
<polygon fill="white" stroke="black" points="327,-325.5 327,-344.5 455,-344.5 455,-325.5 327,-325.5"/>
<text text-anchor="middle" x="391" y="-332.5" font-family="Helvetica,sans-Serif" font-size="10.00">parser.Parser.makeTree</text>
</a>
</g>
</g>
<!-- Node2&#45;&gt;Node3 -->
<g id="edge2" class="edge"><title>Node2&#45;&gt;Node3</title>
<path fill="none" stroke="midnightblue" d="M235.727,-275.164C253.929,-283.422 277.07,-293.632 298,-302 315.484,-308.99 335.097,-316.121 351.708,-321.957"/>
<polygon fill="midnightblue" stroke="midnightblue" points="351.022,-325.424 361.617,-325.41 353.326,-318.814 351.022,-325.424"/>
</g>
<!-- Node4 -->
<g id="node4" class="node"><title>Node4</title>
<g id="a_node4"><a xlink:href="../../d9/d1b/classcommand_1_1_command_factory.html#a87bf7e648425bb22124367cabedb3327" target="_top" xlink:title="command.CommandFactory.get\lNumParameters">
<polygon fill="white" stroke="black" points="539,-333 539,-363 709,-363 709,-333 539,-333"/>
<text text-anchor="start" x="547" y="-351" font-family="Helvetica,sans-Serif" font-size="10.00">command.CommandFactory.get</text>
<text text-anchor="middle" x="624" y="-340" font-family="Helvetica,sans-Serif" font-size="10.00">NumParameters</text>
</a>
</g>
</g>
<!-- Node3&#45;&gt;Node4 -->
<g id="edge3" class="edge"><title>Node3&#45;&gt;Node4</title>
<path fill="none" stroke="midnightblue" d="M455.122,-338.552C477.781,-339.828 503.853,-341.295 528.59,-342.687"/>
<polygon fill="midnightblue" stroke="midnightblue" points="528.544,-346.19 538.725,-343.257 528.938,-339.201 528.544,-346.19"/>
</g>
<!-- Node5 -->
<g id="node5" class="node"><title>Node5</title>
<g id="a_node5"><a xlink:href="../../d9/d1b/classcommand_1_1_command_factory.html#a947fdc151e857ea74564d0d1fe268246" target="_top" xlink:title="command.CommandFactory.translate\lCommand">
<polygon fill="white" stroke="black" points="764.5,-311 764.5,-341 961.5,-341 961.5,-311 764.5,-311"/>
<text text-anchor="start" x="772.5" y="-329" font-family="Helvetica,sans-Serif" font-size="10.00">command.CommandFactory.translate</text>
<text text-anchor="middle" x="863" y="-318" font-family="Helvetica,sans-Serif" font-size="10.00">Command</text>
</a>
</g>
</g>
<!-- Node4&#45;&gt;Node5 -->
<g id="edge4" class="edge"><title>Node4&#45;&gt;Node5</title>
<path fill="none" stroke="midnightblue" d="M709.225,-340.182C723.71,-338.837 738.944,-337.423 753.951,-336.03"/>
<polygon fill="midnightblue" stroke="midnightblue" points="754.66,-339.479 764.294,-335.07 754.013,-332.509 754.66,-339.479"/>
</g>
<!-- Node7 -->
<g id="node7" class="node"><title>Node7</title>
<g id="a_node7"><a xlink:href="../../d6/d95/classparser_1_1_parser.html#a447c473b62ba23b7c144df9bb38a9a41" target="_top" xlink:title="parser.Parser.getNodeFor\lCommand">
<polygon fill="white" stroke="black" points="322,-175 322,-205 460,-205 460,-175 322,-175"/>
<text text-anchor="start" x="330" y="-193" font-family="Helvetica,sans-Serif" font-size="10.00">parser.Parser.getNodeFor</text>
<text text-anchor="middle" x="391" y="-182" font-family="Helvetica,sans-Serif" font-size="10.00">Command</text>
</a>
</g>
</g>
<!-- Node6&#45;&gt;Node7 -->
<g id="edge6" class="edge"><title>Node6&#45;&gt;Node7</title>
<path fill="none" stroke="midnightblue" d="M256.587,-172.877C273.786,-175.085 293.203,-177.577 311.791,-179.963"/>
<polygon fill="midnightblue" stroke="midnightblue" points="311.351,-183.435 321.716,-181.236 312.243,-176.492 311.351,-183.435"/>
</g>
<!-- Node11 -->
<g id="node11" class="node"><title>Node11</title>
<g id="a_node11"><a xlink:href="../../d3/dcc/classparser_1_1_node.html#aa92667a825777b3d757bc3b1a247ac20" target="_top" xlink:title="parser.Node.isLeaf">
<polygon fill="white" stroke="black" points="571,-218.5 571,-237.5 677,-237.5 677,-218.5 571,-218.5"/>
<text text-anchor="middle" x="624" y="-225.5" font-family="Helvetica,sans-Serif" font-size="10.00">parser.Node.isLeaf</text>
</a>
</g>
</g>
<!-- Node6&#45;&gt;Node11 -->
<g id="edge11" class="edge"><title>Node6&#45;&gt;Node11</title>
<path fill="none" stroke="midnightblue" d="M217.04,-175.518C234.934,-187.062 267.248,-205.969 298,-214 386.954,-237.231 494.197,-236.578 560.498,-233.023"/>
<polygon fill="midnightblue" stroke="midnightblue" points="560.996,-236.5 570.778,-232.43 560.594,-229.511 560.996,-236.5"/>
</g>
<!-- Node12 -->
<g id="node12" class="node"><title>Node12</title>
<g id="a_node12"><a xlink:href="../../d6/d95/classparser_1_1_parser.html#a3efcd1192e76101919526b4a5e0046f4" target="_top" xlink:title="parser.Parser.getNodeBefore\lToReplace">
<polygon fill="white" stroke="black" points="313.5,-126 313.5,-156 468.5,-156 468.5,-126 313.5,-126"/>
<text text-anchor="start" x="321.5" y="-144" font-family="Helvetica,sans-Serif" font-size="10.00">parser.Parser.getNodeBefore</text>
<text text-anchor="middle" x="391" y="-133" font-family="Helvetica,sans-Serif" font-size="10.00">ToReplace</text>
</a>
</g>
</g>
<!-- Node6&#45;&gt;Node12 -->
<g id="edge12" class="edge"><title>Node6&#45;&gt;Node12</title>
<path fill="none" stroke="midnightblue" d="M256.587,-158.836C271.106,-156.895 287.206,-154.742 303.054,-152.624"/>
<polygon fill="midnightblue" stroke="midnightblue" points="303.965,-156.033 313.413,-151.239 303.037,-149.095 303.965,-156.033"/>
</g>
<!-- Node13 -->
<g id="node13" class="node"><title>Node13</title>
<g id="a_node13"><a xlink:href="../../d3/dcc/classparser_1_1_node.html#a9c12e8d4375a7517eae0a35724b253c4" target="_top" xlink:title="parser.Node.getValue">
<polygon fill="white" stroke="black" points="564,-28.5 564,-47.5 684,-47.5 684,-28.5 564,-28.5"/>
<text text-anchor="middle" x="624" y="-35.5" font-family="Helvetica,sans-Serif" font-size="10.00">parser.Node.getValue</text>
</a>
</g>
</g>
<!-- Node6&#45;&gt;Node13 -->
<g id="edge20" class="edge"><title>Node6&#45;&gt;Node13</title>
<path fill="none" stroke="midnightblue" d="M247.142,-156.416C252.54,-153.959 257.669,-150.874 262,-147 291.061,-121.006 266.232,-89.6058 298,-67 337.655,-38.7818 470.501,-35.3793 553.568,-36.1923"/>
<polygon fill="midnightblue" stroke="midnightblue" points="553.65,-39.6934 563.691,-36.3145 553.734,-32.6939 553.65,-39.6934"/>
</g>
<!-- Node14 -->
<g id="node14" class="node"><title>Node14</title>
<g id="a_node14"><a xlink:href="../../d3/dcc/classparser_1_1_node.html#a066da2b478008f39a02440d7afceb9ee" target="_top" xlink:title="parser.Node.insertChild">
<polygon fill="white" stroke="black" points="327,-0.5 327,-19.5 455,-19.5 455,-0.5 327,-0.5"/>
<text text-anchor="middle" x="391" y="-7.5" font-family="Helvetica,sans-Serif" font-size="10.00">parser.Node.insertChild</text>
</a>
</g>
</g>
<!-- Node6&#45;&gt;Node14 -->
<g id="edge18" class="edge"><title>Node6&#45;&gt;Node14</title>
<path fill="none" stroke="midnightblue" d="M248.454,-156.439C253.453,-153.979 258.125,-150.887 262,-147 299.213,-109.671 259.75,-70.266 298,-34 303.518,-28.7686 310.028,-24.6427 316.996,-21.394"/>
<polygon fill="midnightblue" stroke="midnightblue" points="318.754,-24.4598 326.73,-17.4861 316.146,-17.9637 318.754,-24.4598"/>
</g>
<!-- Node15 -->
<g id="node15" class="node"><title>Node15</title>
<g id="a_node15"><a xlink:href="../../d6/d95/classparser_1_1_parser.html#aac1cff62f68138c7e977a67d39671701" target="_top" xlink:title="parser.Parser.generateCommand\lInput">
<polygon fill="white" stroke="black" points="303,-77 303,-107 479,-107 479,-77 303,-77"/>
<text text-anchor="start" x="311" y="-95" font-family="Helvetica,sans-Serif" font-size="10.00">parser.Parser.generateCommand</text>
<text text-anchor="middle" x="391" y="-84" font-family="Helvetica,sans-Serif" font-size="10.00">Input</text>
</a>
</g>
</g>
<!-- Node6&#45;&gt;Node15 -->
<g id="edge21" class="edge"><title>Node6&#45;&gt;Node15</title>
<path fill="none" stroke="midnightblue" d="M240.463,-156.43C247.831,-153.864 255.336,-150.738 262,-147 280.415,-136.67 279.301,-125.807 298,-116 301.7,-114.059 305.568,-112.268 309.534,-110.615"/>
<polygon fill="midnightblue" stroke="midnightblue" points="310.855,-113.857 318.935,-107.005 308.345,-107.322 310.855,-113.857"/>
</g>
<!-- Node17 -->
<g id="node17" class="node"><title>Node17</title>
<g id="a_node17"><a xlink:href="../../d9/d1b/classcommand_1_1_command_factory.html#ab25bb047b051661d31adf73b2dae5649" target="_top" xlink:title="command.CommandFactory.create\lCommand">
<polygon fill="white" stroke="black" points="298.5,-263 298.5,-293 483.5,-293 483.5,-263 298.5,-263"/>
<text text-anchor="start" x="306.5" y="-281" font-family="Helvetica,sans-Serif" font-size="10.00">command.CommandFactory.create</text>
<text text-anchor="middle" x="391" y="-270" font-family="Helvetica,sans-Serif" font-size="10.00">Command</text>
</a>
</g>
</g>
<!-- Node6&#45;&gt;Node17 -->
<g id="edge26" class="edge"><title>Node6&#45;&gt;Node17</title>
<path fill="none" stroke="midnightblue" d="M211.746,-175.752C227.447,-192.714 262.136,-227.767 298,-248 305.654,-252.318 314.022,-256.124 322.492,-259.447"/>
<polygon fill="midnightblue" stroke="midnightblue" points="321.473,-262.802 332.066,-262.996 323.905,-256.239 321.473,-262.802"/>
</g>
<!-- Node8 -->
<g id="node8" class="node"><title>Node8</title>
<g id="a_node8"><a xlink:href="../../d3/dcc/classparser_1_1_node.html#aa67bc0d39227232943abec9b95b23235" target="_top" xlink:title="parser.Node.getChild1">
<polygon fill="white" stroke="black" points="562.5,-104.5 562.5,-123.5 685.5,-123.5 685.5,-104.5 562.5,-104.5"/>
<text text-anchor="middle" x="624" y="-111.5" font-family="Helvetica,sans-Serif" font-size="10.00">parser.Node.getChild1</text>
</a>
</g>
</g>
<!-- Node7&#45;&gt;Node8 -->
<g id="edge7" class="edge"><title>Node7&#45;&gt;Node8</title>
<path fill="none" stroke="midnightblue" d="M460.219,-175.309C468.459,-172.426 476.576,-169.017 484,-165 502.828,-154.812 500.766,-142.399 520,-133 530.109,-128.06 541.348,-124.399 552.581,-121.685"/>
<polygon fill="midnightblue" stroke="midnightblue" points="553.398,-125.089 562.422,-119.537 551.906,-118.251 553.398,-125.089"/>
</g>
<!-- Node9 -->
<g id="node9" class="node"><title>Node9</title>
<g id="a_node9"><a xlink:href="../../d3/dcc/classparser_1_1_node.html#a0f13775acc62af77cdde90dbeaf26bbc" target="_top" xlink:title="parser.Node.getChild2">
<polygon fill="white" stroke="black" points="562.5,-142.5 562.5,-161.5 685.5,-161.5 685.5,-142.5 562.5,-142.5"/>
<text text-anchor="middle" x="624" y="-149.5" font-family="Helvetica,sans-Serif" font-size="10.00">parser.Node.getChild2</text>
</a>
</g>
</g>
<!-- Node7&#45;&gt;Node9 -->
<g id="edge8" class="edge"><title>Node7&#45;&gt;Node9</title>
<path fill="none" stroke="midnightblue" d="M460.058,-178.804C490.07,-173.867 525.254,-168.079 555.232,-163.148"/>
<polygon fill="midnightblue" stroke="midnightblue" points="555.885,-166.588 565.184,-161.511 554.748,-159.681 555.885,-166.588"/>
</g>
<!-- Node10 -->
<g id="node10" class="node"><title>Node10</title>
<g id="a_node10"><a xlink:href="../../d3/dcc/classparser_1_1_node.html#ab14db24c0724dec4387e29d513008e2e" target="_top" xlink:title="parser.Node.hasChildren">
<polygon fill="white" stroke="black" points="557,-180.5 557,-199.5 691,-199.5 691,-180.5 557,-180.5"/>
<text text-anchor="middle" x="624" y="-187.5" font-family="Helvetica,sans-Serif" font-size="10.00">parser.Node.hasChildren</text>
</a>
</g>
</g>
<!-- Node7&#45;&gt;Node10 -->
<g id="edge9" class="edge"><title>Node7&#45;&gt;Node10</title>
<path fill="none" stroke="midnightblue" d="M460.058,-190C487.201,-190 518.575,-190 546.502,-190"/>
<polygon fill="midnightblue" stroke="midnightblue" points="546.621,-193.5 556.621,-190 546.621,-186.5 546.621,-193.5"/>
</g>
<!-- Node7&#45;&gt;Node11 -->
<g id="edge10" class="edge"><title>Node7&#45;&gt;Node11</title>
<path fill="none" stroke="midnightblue" d="M460.058,-201.196C491.863,-206.428 529.478,-212.615 560.549,-217.727"/>
<polygon fill="midnightblue" stroke="midnightblue" points="560.381,-221.246 570.817,-219.416 561.518,-214.339 560.381,-221.246"/>
</g>
<!-- Node12&#45;&gt;Node8 -->
<g id="edge13" class="edge"><title>Node12&#45;&gt;Node8</title>
<path fill="none" stroke="midnightblue" d="M468.599,-132.047C495.616,-128.889 525.849,-125.355 552.352,-122.258"/>
<polygon fill="midnightblue" stroke="midnightblue" points="552.786,-125.731 562.312,-121.093 551.973,-118.778 552.786,-125.731"/>
</g>
<!-- Node12&#45;&gt;Node9 -->
<g id="edge14" class="edge"><title>Node12&#45;&gt;Node9</title>
<path fill="none" stroke="midnightblue" d="M468.599,-144.648C495.497,-145.928 525.583,-147.361 552.001,-148.619"/>
<polygon fill="midnightblue" stroke="midnightblue" points="552.157,-152.13 562.312,-149.11 552.49,-145.138 552.157,-152.13"/>
</g>
<!-- Node12&#45;&gt;Node10 -->
<g id="edge16" class="edge"><title>Node12&#45;&gt;Node10</title>
<path fill="none" stroke="midnightblue" d="M453.393,-156.017C474.461,-161.003 498.218,-166.441 520,-171 532.429,-173.601 545.741,-176.197 558.53,-178.597"/>
<polygon fill="midnightblue" stroke="midnightblue" points="558.176,-182.091 568.647,-180.476 559.455,-175.209 558.176,-182.091"/>
</g>
<!-- Node12&#45;&gt;Node11 -->
<g id="edge17" class="edge"><title>Node12&#45;&gt;Node11</title>
<path fill="none" stroke="midnightblue" d="M466.563,-156.009C472.677,-158.552 478.581,-161.525 484,-165 505.271,-178.638 498.247,-196.145 520,-209 532.282,-216.258 546.71,-220.852 560.815,-223.733"/>
<polygon fill="midnightblue" stroke="midnightblue" points="560.536,-227.238 570.994,-225.542 561.76,-220.346 560.536,-227.238"/>
</g>
<!-- Node12&#45;&gt;Node13 -->
<g id="edge15" class="edge"><title>Node12&#45;&gt;Node13</title>
<path fill="none" stroke="midnightblue" d="M467.119,-125.919C473.114,-123.152 478.838,-119.876 484,-116 508.563,-97.5536 494.694,-74.4125 520,-57 530.006,-50.115 541.803,-45.5294 553.775,-42.512"/>
<polygon fill="midnightblue" stroke="midnightblue" points="554.806,-45.8699 563.837,-40.3301 553.323,-39.0288 554.806,-45.8699"/>
</g>
<!-- Node14&#45;&gt;Node13 -->
<g id="edge19" class="edge"><title>Node14&#45;&gt;Node13</title>
<path fill="none" stroke="midnightblue" d="M455.122,-17.6511C485.739,-21.3622 522.585,-25.8285 553.949,-29.6301"/>
<polygon fill="midnightblue" stroke="midnightblue" points="553.576,-33.1105 563.924,-30.8393 554.418,-26.1613 553.576,-33.1105"/>
</g>
<!-- Node15&#45;&gt;Node8 -->
<g id="edge22" class="edge"><title>Node15&#45;&gt;Node8</title>
<path fill="none" stroke="midnightblue" d="M479.002,-100.286C503.177,-102.588 529.13,-105.06 552.251,-107.262"/>
<polygon fill="midnightblue" stroke="midnightblue" points="552.028,-110.757 562.315,-108.22 552.692,-103.788 552.028,-110.757"/>
</g>
<!-- Node15&#45;&gt;Node9 -->
<g id="edge23" class="edge"><title>Node15&#45;&gt;Node9</title>
<path fill="none" stroke="midnightblue" d="M455.822,-107C465.357,-109.715 475.001,-112.733 484,-116 500.633,-122.037 503.159,-127.572 520,-133 530.335,-136.331 541.454,-139.142 552.428,-141.494"/>
<polygon fill="midnightblue" stroke="midnightblue" points="551.942,-144.967 562.438,-143.527 553.335,-138.107 551.942,-144.967"/>
</g>
<!-- Node15&#45;&gt;Node13 -->
<g id="edge24" class="edge"><title>Node15&#45;&gt;Node13</title>
<path fill="none" stroke="midnightblue" d="M443.133,-76.9539C466.461,-70.365 494.509,-62.8253 520,-57 531.702,-54.3258 544.219,-51.7673 556.351,-49.4427"/>
<polygon fill="midnightblue" stroke="midnightblue" points="557.245,-52.836 566.425,-47.5476 555.951,-45.9566 557.245,-52.836"/>
</g>
<!-- Node16 -->
<g id="node16" class="node"><title>Node16</title>
<g id="a_node16"><a xlink:href="../../d3/dcc/classparser_1_1_node.html#a6bbc0c61aaa261077eb87cfc4e2b45dc" target="_top" xlink:title="parser.Node.numChildren">
<polygon fill="white" stroke="black" points="554.5,-66.5 554.5,-85.5 693.5,-85.5 693.5,-66.5 554.5,-66.5"/>
<text text-anchor="middle" x="624" y="-73.5" font-family="Helvetica,sans-Serif" font-size="10.00">parser.Node.numChildren</text>
</a>
</g>
</g>
<!-- Node15&#45;&gt;Node16 -->
<g id="edge25" class="edge"><title>Node15&#45;&gt;Node16</title>
<path fill="none" stroke="midnightblue" d="M479.002,-85.9739C500.434,-84.4894 523.263,-82.9082 544.278,-81.4526"/>
<polygon fill="midnightblue" stroke="midnightblue" points="544.7,-84.9318 554.434,-80.7491 544.216,-77.9486 544.7,-84.9318"/>
</g>
<!-- Node17&#45;&gt;Node5 -->
<g id="edge28" class="edge"><title>Node17&#45;&gt;Node5</title>
<path fill="none" stroke="midnightblue" d="M483.736,-287.369C561.233,-295.283 672.344,-306.631 754.099,-314.98"/>
<polygon fill="midnightblue" stroke="midnightblue" points="754.119,-318.5 764.423,-316.035 754.83,-311.537 754.119,-318.5"/>
</g>
<!-- Node18 -->
<g id="node18" class="node"><title>Node18</title>
<g id="a_node18"><a xlink:href="../../d9/d1b/classcommand_1_1_command_factory.html#abd97ea3e22afc09e07ed1d4fd039d11f" target="_top" xlink:title="command.CommandFactory.reflectCMD">
<polygon fill="white" stroke="black" points="520.5,-256.5 520.5,-275.5 727.5,-275.5 727.5,-256.5 520.5,-256.5"/>
<text text-anchor="middle" x="624" y="-263.5" font-family="Helvetica,sans-Serif" font-size="10.00">command.CommandFactory.reflectCMD</text>
</a>
</g>
</g>
<!-- Node17&#45;&gt;Node18 -->
<g id="edge27" class="edge"><title>Node17&#45;&gt;Node18</title>
<path fill="none" stroke="midnightblue" d="M483.629,-273.24C492.415,-272.784 501.394,-272.317 510.35,-271.852"/>
<polygon fill="midnightblue" stroke="midnightblue" points="510.635,-275.342 520.44,-271.328 510.272,-268.351 510.635,-275.342"/>
</g>
</g>
</svg>
        <g id="navigator" transform="translate(0 0)" fill="#404254">
                <rect fill="#f2f5e9" fill-opacity="0.5" stroke="#606060" stroke-width=".5" x="0" y="0" width="60" height="60"/>
                <use id="zoomplus" xlink:href="#zoomPlus" x="17" y="9" onmousedown="handleZoom(evt,'in')"/>
                <use id="zoomminus" xlink:href="#zoomMin" x="42" y="9" onmousedown="handleZoom(evt,'out')"/>
                <use id="reset" xlink:href="#resetDef" x="30" y="36" onmousedown="handleReset()"/>
                <g id="arrowUp" xlink:href="#dirArrow" transform="translate(30 24)" onmousedown="handlePan(0,-1)">
                  <use xlink:href="#rim" fill="#404040">
                        <set attributeName="fill" to="#808080" begin="arrowUp.mouseover" end="arrowUp.mouseout"/>
                  </use>
                  <path fill="none" stroke="white" stroke-width="1.5" d="M0,-3.0v7 M-2.5,-0.5L0,-3.0L2.5,-0.5"/>
                </g>
                <g id="arrowRight" xlink:href="#dirArrow" transform="rotate(90) translate(36 -43)" onmousedown="handlePan(1,0)">
                  <use xlink:href="#rim" fill="#404040">
                        <set attributeName="fill" to="#808080" begin="arrowRight.mouseover" end="arrowRight.mouseout"/>
                  </use>
                  <path fill="none" stroke="white" stroke-width="1.5" d="M0,-3.0v7 M-2.5,-0.5L0,-3.0L2.5,-0.5"/>
                </g>
                <g id="arrowDown" xlink:href="#dirArrow" transform="rotate(180) translate(-30 -48)" onmousedown="handlePan(0,1)">
                  <use xlink:href="#rim" fill="#404040">
                        <set attributeName="fill" to="#808080" begin="arrowDown.mouseover" end="arrowDown.mouseout"/>
                  </use>
                  <path fill="none" stroke="white" stroke-width="1.5" d="M0,-3.0v7 M-2.5,-0.5L0,-3.0L2.5,-0.5"/>
                </g>
                <g id="arrowLeft" xlink:href="#dirArrow" transform="rotate(270) translate(-36 17)" onmousedown="handlePan(-1,0)">
                  <use xlink:href="#rim" fill="#404040">
                        <set attributeName="fill" to="#808080" begin="arrowLeft.mouseover" end="arrowLeft.mouseout"/>
                  </use>
                  <path fill="none" stroke="white" stroke-width="1.5" d="M0,-3.0v7 M-2.5,-0.5L0,-3.0L2.5,-0.5"/>
                </g>
        </g>
        <svg viewBox="0 0 15 15" width="100%" height="30px" preserveAspectRatio="xMaxYMin meet">
         <g id="arrow_out" transform="scale(0.3 0.3)">
          <a xlink:href="classparser_1_1_parser_a6b2d7b2b182d99537ce332ed0dfd3e03_cgraph_org.svg" target="_base">
           <rect id="button" ry="5" rx="5" y="6" x="6" height="38" width="38"
                fill="#f2f5e9" fill-opacity="0.5" stroke="#606060" stroke-width="1.0"/>
           <path id="arrow"
             d="M 11.500037,31.436501 C 11.940474,20.09759 22.043105,11.32322 32.158766,21.979434 L 37.068811,17.246167 C 37.068811,17.246167 37.088388,32 37.088388,32 L 22.160133,31.978069 C 22.160133,31.978069 26.997745,27.140456 26.997745,27.140456 C 18.528582,18.264221 13.291696,25.230495 11.500037,31.436501 z"
             style="fill:#404040;"/>
          </a>
         </g>
        </svg>
</svg>
