<?xml version="1.0" encoding="UTF-8" standalone="no"?>
<!DOCTYPE svg PUBLIC "-//W3C//DTD SVG 1.1//EN"
 "http://www.w3.org/Graphics/SVG/1.1/DTD/svg11.dtd">
<!-- Generated by graphviz version 2.36.0 (20140111.2315)
 -->
<!-- Title: parser.Parser.main Pages: 1 -->
<svg width="1138pt" height="623pt"
 viewBox="0.00 0.00 1138.00 623.00" xmlns="http://www.w3.org/2000/svg" xmlns:xlink="http://www.w3.org/1999/xlink">
<g id="graph0" class="graph" transform="scale(1 1) rotate(0) translate(4 619)">
<title>parser.Parser.main</title>
<polygon fill="white" stroke="none" points="-4,4 -4,-619 1134,-619 1134,4 -4,4"/>
<!-- Node1 -->
<g id="node1" class="node"><title>Node1</title>
<polygon fill="#bfbfbf" stroke="black" points="0,-396.5 0,-415.5 106,-415.5 106,-396.5 0,-396.5"/>
<text text-anchor="middle" x="53" y="-403.5" font-family="Helvetica,sans-Serif" font-size="10.00">parser.Parser.main</text>
</g>
<!-- Node2 -->
<g id="node2" class="node"><title>Node2</title>
<g id="a_node2"><a xlink:href="../../d6/d95/classparser_1_1_parser.html#a240c75608624a9c67402a296855c4d1d" target="_top" xlink:title="parser.Parser.initialize\lCommands">
<polygon fill="white" stroke="black" points="142,-435 142,-465 262,-465 262,-435 142,-435"/>
<text text-anchor="start" x="150" y="-453" font-family="Helvetica,sans-Serif" font-size="10.00">parser.Parser.initialize</text>
<text text-anchor="middle" x="202" y="-442" font-family="Helvetica,sans-Serif" font-size="10.00">Commands</text>
</a>
</g>
</g>
<!-- Node1&#45;&gt;Node2 -->
<g id="edge1" class="edge"><title>Node1&#45;&gt;Node2</title>
<path fill="none" stroke="midnightblue" d="M85.8968,-415.547C102.004,-420.369 122.086,-426.379 140.945,-432.024"/>
<polygon fill="midnightblue" stroke="midnightblue" points="140.084,-435.42 150.668,-434.935 142.092,-428.714 140.084,-435.42"/>
</g>
<!-- Node8 -->
<g id="node8" class="node"><title>Node8</title>
<g id="a_node8"><a xlink:href="../../d6/d95/classparser_1_1_parser.html#a4ecbffc246c3add017c4720eed4c6da9" target="_top" xlink:title="parser.Parser.parse">
<polygon fill="white" stroke="black" points="147.5,-396.5 147.5,-415.5 256.5,-415.5 256.5,-396.5 147.5,-396.5"/>
<text text-anchor="middle" x="202" y="-403.5" font-family="Helvetica,sans-Serif" font-size="10.00">parser.Parser.parse</text>
</a>
</g>
</g>
<!-- Node1&#45;&gt;Node8 -->
<g id="edge7" class="edge"><title>Node1&#45;&gt;Node8</title>
<path fill="none" stroke="midnightblue" d="M106.241,-406C116.267,-406 126.871,-406 137.214,-406"/>
<polygon fill="midnightblue" stroke="midnightblue" points="137.439,-409.5 147.439,-406 137.439,-402.5 137.439,-409.5"/>
</g>
<!-- Node31 -->
<g id="node31" class="node"><title>Node31</title>
<g id="a_node31"><a xlink:href="../../d6/d95/classparser_1_1_parser.html#a4811b7bbe9944e2eb2440a1926568f3f" target="_top" xlink:title="parser.Parser.Parser">
<polygon fill="white" stroke="black" points="146,-358.5 146,-377.5 258,-377.5 258,-358.5 146,-358.5"/>
<text text-anchor="middle" x="202" y="-365.5" font-family="Helvetica,sans-Serif" font-size="10.00">parser.Parser.Parser</text>
</a>
</g>
</g>
<!-- Node1&#45;&gt;Node31 -->
<g id="edge40" class="edge"><title>Node1&#45;&gt;Node31</title>
<path fill="none" stroke="midnightblue" d="M91.0943,-396.411C110.318,-391.442 133.986,-385.323 154.429,-380.039"/>
<polygon fill="midnightblue" stroke="midnightblue" points="155.367,-383.412 164.172,-377.52 153.615,-376.634 155.367,-383.412"/>
</g>
<!-- Node3 -->
<g id="node3" class="node"><title>Node3</title>
<g id="a_node3"><a xlink:href="../../d3/dcc/classparser_1_1_node.html#a9c12e8d4375a7517eae0a35724b253c4" target="_top" xlink:title="parser.Node.getValue">
<polygon fill="white" stroke="black" points="545,-307.5 545,-326.5 665,-326.5 665,-307.5 545,-307.5"/>
<text text-anchor="middle" x="605" y="-314.5" font-family="Helvetica,sans-Serif" font-size="10.00">parser.Node.getValue</text>
</a>
</g>
</g>
<!-- Node2&#45;&gt;Node3 -->
<g id="edge2" class="edge"><title>Node2&#45;&gt;Node3</title>
<path fill="none" stroke="midnightblue" d="M247.865,-434.96C252.963,-432.135 257.819,-428.835 262,-425 287.199,-401.883 269.911,-376.504 298,-357 335.116,-331.228 456.168,-322.052 534.433,-318.791"/>
<polygon fill="midnightblue" stroke="midnightblue" points="534.85,-322.278 544.704,-318.387 534.574,-315.283 534.85,-322.278"/>
</g>
<!-- Node4 -->
<g id="node4" class="node"><title>Node4</title>
<g id="a_node4"><a xlink:href="../../d6/d95/classparser_1_1_parser.html#a4f582c65390bddc57219c0b5c31ef5e7" target="_top" xlink:title="parser.Parser.makeTree">
<polygon fill="white" stroke="black" points="323,-527.5 323,-546.5 451,-546.5 451,-527.5 323,-527.5"/>
<text text-anchor="middle" x="387" y="-534.5" font-family="Helvetica,sans-Serif" font-size="10.00">parser.Parser.makeTree</text>
</a>
</g>
</g>
<!-- Node2&#45;&gt;Node4 -->
<g id="edge3" class="edge"><title>Node2&#45;&gt;Node4</title>
<path fill="none" stroke="midnightblue" d="M227.041,-465.075C245.918,-476.562 273.086,-492.337 298,-504 313.759,-511.377 331.659,-518.335 347.182,-523.942"/>
<polygon fill="midnightblue" stroke="midnightblue" points="346.398,-527.377 356.993,-527.422 348.738,-520.78 346.398,-527.377"/>
</g>
<!-- Node5 -->
<g id="node5" class="node"><title>Node5</title>
<g id="a_node5"><a xlink:href="../../d5/d9c/classfactories_1_1_command_factory.html#acdd23506779ffbeb0b30a9cb4f473857" target="_top" xlink:title="factories.CommandFactory.initialize\lLoopVariables">
<polygon fill="white" stroke="black" points="512.5,-585 512.5,-615 697.5,-615 697.5,-585 512.5,-585"/>
<text text-anchor="start" x="520.5" y="-603" font-family="Helvetica,sans-Serif" font-size="10.00">factories.CommandFactory.initialize</text>
<text text-anchor="middle" x="605" y="-592" font-family="Helvetica,sans-Serif" font-size="10.00">LoopVariables</text>
</a>
</g>
</g>
<!-- Node4&#45;&gt;Node5 -->
<g id="edge4" class="edge"><title>Node4&#45;&gt;Node5</title>
<path fill="none" stroke="midnightblue" d="M418.24,-546.564C443.298,-554.417 479.878,-565.716 512,-575 520.318,-577.404 529.078,-579.869 537.753,-582.271"/>
<polygon fill="midnightblue" stroke="midnightblue" points="536.911,-585.669 547.481,-584.948 538.769,-578.92 536.911,-585.669"/>
</g>
<!-- Node6 -->
<g id="node6" class="node"><title>Node6</title>
<g id="a_node6"><a xlink:href="../../d5/d9c/classfactories_1_1_command_factory.html#a2f5048d1319359ac215a1ff51e792d3f" target="_top" xlink:title="factories.CommandFactory.get\lNumParameters">
<polygon fill="white" stroke="black" points="523.5,-536 523.5,-566 686.5,-566 686.5,-536 523.5,-536"/>
<text text-anchor="start" x="531.5" y="-554" font-family="Helvetica,sans-Serif" font-size="10.00">factories.CommandFactory.get</text>
<text text-anchor="middle" x="605" y="-543" font-family="Helvetica,sans-Serif" font-size="10.00">NumParameters</text>
</a>
</g>
</g>
<!-- Node4&#45;&gt;Node6 -->
<g id="edge5" class="edge"><title>Node4&#45;&gt;Node6</title>
<path fill="none" stroke="midnightblue" d="M451.057,-541.087C470.426,-542.342 492.142,-543.75 512.992,-545.101"/>
<polygon fill="midnightblue" stroke="midnightblue" points="512.938,-548.605 523.144,-545.759 513.391,-541.62 512.938,-548.605"/>
</g>
<!-- Node7 -->
<g id="node7" class="node"><title>Node7</title>
<g id="a_node7"><a xlink:href="../../d5/d9c/classfactories_1_1_command_factory.html#af5d8310dede46dd315ab81a9c8e56d16" target="_top" xlink:title="factories.CommandFactory.translate\lCommand">
<polygon fill="white" stroke="black" points="734,-451 734,-481 924,-481 924,-451 734,-451"/>
<text text-anchor="start" x="742" y="-469" font-family="Helvetica,sans-Serif" font-size="10.00">factories.CommandFactory.translate</text>
<text text-anchor="middle" x="829" y="-458" font-family="Helvetica,sans-Serif" font-size="10.00">Command</text>
</a>
</g>
</g>
<!-- Node6&#45;&gt;Node7 -->
<g id="edge6" class="edge"><title>Node6&#45;&gt;Node7</title>
<path fill="none" stroke="midnightblue" d="M667.318,-535.875C677.653,-532.889 688.201,-529.564 698,-526 729.832,-514.421 764.609,-498.169 790.177,-485.499"/>
<polygon fill="midnightblue" stroke="midnightblue" points="791.779,-488.612 799.158,-481.009 788.648,-482.351 791.779,-488.612"/>
</g>
<!-- Node8&#45;&gt;Node4 -->
<g id="edge13" class="edge"><title>Node8&#45;&gt;Node4</title>
<path fill="none" stroke="midnightblue" d="M247.125,-415.603C252.525,-418.057 257.66,-421.136 262,-425 290.82,-450.656 269.794,-477.671 298,-504 307.318,-512.698 319.143,-519.16 331.077,-523.941"/>
<polygon fill="midnightblue" stroke="midnightblue" points="330.033,-527.286 340.627,-527.426 332.432,-520.71 330.033,-527.286"/>
</g>
<!-- Node9 -->
<g id="node9" class="node"><title>Node9</title>
<g id="a_node9"><a xlink:href="../../d6/d95/classparser_1_1_parser.html#a447c473b62ba23b7c144df9bb38a9a41" target="_top" xlink:title="parser.Parser.getNodeFor\lCommand">
<polygon fill="white" stroke="black" points="318,-416 318,-446 456,-446 456,-416 318,-416"/>
<text text-anchor="start" x="326" y="-434" font-family="Helvetica,sans-Serif" font-size="10.00">parser.Parser.getNodeFor</text>
<text text-anchor="middle" x="387" y="-423" font-family="Helvetica,sans-Serif" font-size="10.00">Command</text>
</a>
</g>
</g>
<!-- Node8&#45;&gt;Node9 -->
<g id="edge8" class="edge"><title>Node8&#45;&gt;Node9</title>
<path fill="none" stroke="midnightblue" d="M256.916,-413.366C272.868,-415.545 290.665,-417.976 307.823,-420.32"/>
<polygon fill="midnightblue" stroke="midnightblue" points="307.451,-423.802 317.833,-421.688 308.399,-416.866 307.451,-423.802"/>
</g>
<!-- Node14 -->
<g id="node14" class="node"><title>Node14</title>
<g id="a_node14"><a xlink:href="../../d6/d95/classparser_1_1_parser.html#a3efcd1192e76101919526b4a5e0046f4" target="_top" xlink:title="parser.Parser.getNodeBefore\lToReplace">
<polygon fill="white" stroke="black" points="309.5,-465 309.5,-495 464.5,-495 464.5,-465 309.5,-465"/>
<text text-anchor="start" x="317.5" y="-483" font-family="Helvetica,sans-Serif" font-size="10.00">parser.Parser.getNodeBefore</text>
<text text-anchor="middle" x="387" y="-472" font-family="Helvetica,sans-Serif" font-size="10.00">ToReplace</text>
</a>
</g>
</g>
<!-- Node8&#45;&gt;Node14 -->
<g id="edge14" class="edge"><title>Node8&#45;&gt;Node14</title>
<path fill="none" stroke="midnightblue" d="M240.104,-415.547C247.576,-418.127 255.212,-421.264 262,-425 280.246,-435.043 279.582,-445.276 298,-455 302.253,-457.245 306.731,-459.309 311.322,-461.204"/>
<polygon fill="midnightblue" stroke="midnightblue" points="310.275,-464.551 320.866,-464.856 312.778,-458.013 310.275,-464.551"/>
</g>
<!-- Node15 -->
<g id="node15" class="node"><title>Node15</title>
<g id="a_node15"><a xlink:href="../../d3/dcc/classparser_1_1_node.html#a066da2b478008f39a02440d7afceb9ee" target="_top" xlink:title="parser.Node.insertChild">
<polygon fill="white" stroke="black" points="323,-290.5 323,-309.5 451,-309.5 451,-290.5 323,-290.5"/>
<text text-anchor="middle" x="387" y="-297.5" font-family="Helvetica,sans-Serif" font-size="10.00">parser.Node.insertChild</text>
</a>
</g>
</g>
<!-- Node8&#45;&gt;Node15 -->
<g id="edge19" class="edge"><title>Node8&#45;&gt;Node15</title>
<path fill="none" stroke="midnightblue" d="M245.893,-396.412C251.67,-393.95 257.237,-390.865 262,-387 287.044,-366.682 272.503,-343.746 298,-324 303.468,-319.766 309.631,-316.277 316.093,-313.404"/>
<polygon fill="midnightblue" stroke="midnightblue" points="317.701,-316.533 325.729,-309.619 315.142,-310.018 317.701,-316.533"/>
</g>
<!-- Node16 -->
<g id="node16" class="node"><title>Node16</title>
<g id="a_node16"><a xlink:href="../../d6/d95/classparser_1_1_parser.html#aac1cff62f68138c7e977a67d39671701" target="_top" xlink:title="parser.Parser.generateCommand\lInput">
<polygon fill="white" stroke="black" points="299,-367 299,-397 475,-397 475,-367 299,-367"/>
<text text-anchor="start" x="307" y="-385" font-family="Helvetica,sans-Serif" font-size="10.00">parser.Parser.generateCommand</text>
<text text-anchor="middle" x="387" y="-374" font-family="Helvetica,sans-Serif" font-size="10.00">Input</text>
</a>
</g>
</g>
<!-- Node8&#45;&gt;Node16 -->
<g id="edge21" class="edge"><title>Node8&#45;&gt;Node16</title>
<path fill="none" stroke="midnightblue" d="M256.916,-398.929C267.006,-397.606 277.834,-396.186 288.772,-394.751"/>
<polygon fill="midnightblue" stroke="midnightblue" points="289.37,-398.203 298.83,-393.432 288.459,-391.262 289.37,-398.203"/>
</g>
<!-- Node18 -->
<g id="node18" class="node"><title>Node18</title>
<g id="a_node18"><a xlink:href="../../d5/d9c/classfactories_1_1_command_factory.html#aadbfb6cc65ea4fa4257bdae2c6b8e097" target="_top" xlink:title="factories.CommandFactory.create\lCommand">
<polygon fill="white" stroke="black" points="298,-220 298,-250 476,-250 476,-220 298,-220"/>
<text text-anchor="start" x="306" y="-238" font-family="Helvetica,sans-Serif" font-size="10.00">factories.CommandFactory.create</text>
<text text-anchor="middle" x="387" y="-227" font-family="Helvetica,sans-Serif" font-size="10.00">Command</text>
</a>
</g>
</g>
<!-- Node8&#45;&gt;Node18 -->
<g id="edge26" class="edge"><title>Node8&#45;&gt;Node18</title>
<path fill="none" stroke="midnightblue" d="M248.384,-396.368C253.394,-393.92 258.089,-390.85 262,-387 297.459,-352.099 265.634,-318.788 298,-281 307.295,-270.148 319.795,-261.501 332.451,-254.769"/>
<polygon fill="midnightblue" stroke="midnightblue" points="334.251,-257.784 341.651,-250.202 331.138,-251.514 334.251,-257.784"/>
</g>
<!-- Node10 -->
<g id="node10" class="node"><title>Node10</title>
<g id="a_node10"><a xlink:href="../../d3/dcc/classparser_1_1_node.html#aa67bc0d39227232943abec9b95b23235" target="_top" xlink:title="parser.Node.getChild1">
<polygon fill="white" stroke="black" points="543.5,-421.5 543.5,-440.5 666.5,-440.5 666.5,-421.5 543.5,-421.5"/>
<text text-anchor="middle" x="605" y="-428.5" font-family="Helvetica,sans-Serif" font-size="10.00">parser.Node.getChild1</text>
</a>
</g>
</g>
<!-- Node9&#45;&gt;Node10 -->
<g id="edge9" class="edge"><title>Node9&#45;&gt;Node10</title>
<path fill="none" stroke="midnightblue" d="M456.047,-431C480.61,-431 508.383,-431 533.178,-431"/>
<polygon fill="midnightblue" stroke="midnightblue" points="533.24,-434.5 543.24,-431 533.24,-427.5 533.24,-434.5"/>
</g>
<!-- Node11 -->
<g id="node11" class="node"><title>Node11</title>
<g id="a_node11"><a xlink:href="../../d3/dcc/classparser_1_1_node.html#a0f13775acc62af77cdde90dbeaf26bbc" target="_top" xlink:title="parser.Node.getChild2">
<polygon fill="white" stroke="black" points="543.5,-383.5 543.5,-402.5 666.5,-402.5 666.5,-383.5 543.5,-383.5"/>
<text text-anchor="middle" x="605" y="-390.5" font-family="Helvetica,sans-Serif" font-size="10.00">parser.Node.getChild2</text>
</a>
</g>
</g>
<!-- Node9&#45;&gt;Node11 -->
<g id="edge10" class="edge"><title>Node9&#45;&gt;Node11</title>
<path fill="none" stroke="midnightblue" d="M456.047,-419.029C482.912,-414.303 513.616,-408.901 540.064,-404.248"/>
<polygon fill="midnightblue" stroke="midnightblue" points="540.733,-407.684 549.976,-402.504 539.521,-400.79 540.733,-407.684"/>
</g>
<!-- Node12 -->
<g id="node12" class="node"><title>Node12</title>
<g id="a_node12"><a xlink:href="../../d3/dcc/classparser_1_1_node.html#ab14db24c0724dec4387e29d513008e2e" target="_top" xlink:title="parser.Node.hasChildren">
<polygon fill="white" stroke="black" points="538,-497.5 538,-516.5 672,-516.5 672,-497.5 538,-497.5"/>
<text text-anchor="middle" x="605" y="-504.5" font-family="Helvetica,sans-Serif" font-size="10.00">parser.Node.hasChildren</text>
</a>
</g>
</g>
<!-- Node9&#45;&gt;Node12 -->
<g id="edge11" class="edge"><title>Node9&#45;&gt;Node12</title>
<path fill="none" stroke="midnightblue" d="M456.082,-446.021C462.995,-448.584 469.76,-451.558 476,-455 495.005,-465.484 492.676,-478.116 512,-488 516.991,-490.553 522.301,-492.763 527.753,-494.676"/>
<polygon fill="midnightblue" stroke="midnightblue" points="527.095,-498.138 537.684,-497.809 529.201,-491.462 527.095,-498.138"/>
</g>
<!-- Node13 -->
<g id="node13" class="node"><title>Node13</title>
<g id="a_node13"><a xlink:href="../../d3/dcc/classparser_1_1_node.html#aa92667a825777b3d757bc3b1a247ac20" target="_top" xlink:title="parser.Node.isLeaf">
<polygon fill="white" stroke="black" points="552,-459.5 552,-478.5 658,-478.5 658,-459.5 552,-459.5"/>
<text text-anchor="middle" x="605" y="-466.5" font-family="Helvetica,sans-Serif" font-size="10.00">parser.Node.isLeaf</text>
</a>
</g>
</g>
<!-- Node9&#45;&gt;Node13 -->
<g id="edge12" class="edge"><title>Node9&#45;&gt;Node13</title>
<path fill="none" stroke="midnightblue" d="M456.047,-442.971C483.46,-447.794 514.871,-453.32 541.678,-458.036"/>
<polygon fill="midnightblue" stroke="midnightblue" points="541.254,-461.515 551.709,-459.801 542.467,-454.621 541.254,-461.515"/>
</g>
<!-- Node14&#45;&gt;Node10 -->
<g id="edge15" class="edge"><title>Node14&#45;&gt;Node10</title>
<path fill="none" stroke="midnightblue" d="M448.452,-464.942C468.627,-460.032 491.252,-454.651 512,-450 523.078,-447.517 534.933,-444.979 546.325,-442.6"/>
<polygon fill="midnightblue" stroke="midnightblue" points="547.103,-446.014 556.185,-440.556 545.682,-439.159 547.103,-446.014"/>
</g>
<!-- Node14&#45;&gt;Node11 -->
<g id="edge16" class="edge"><title>Node14&#45;&gt;Node11</title>
<path fill="none" stroke="midnightblue" d="M456.577,-464.971C463.396,-462.182 470.003,-458.889 476,-455 496.913,-441.439 490.606,-424.787 512,-412 518.693,-407.999 526.096,-404.83 533.709,-402.322"/>
<polygon fill="midnightblue" stroke="midnightblue" points="534.809,-405.647 543.427,-399.485 532.847,-398.928 534.809,-405.647"/>
</g>
<!-- Node14&#45;&gt;Node12 -->
<g id="edge17" class="edge"><title>Node14&#45;&gt;Node12</title>
<path fill="none" stroke="midnightblue" d="M464.762,-489.595C485.197,-492.15 507.265,-494.908 527.677,-497.46"/>
<polygon fill="midnightblue" stroke="midnightblue" points="527.508,-500.966 537.865,-498.733 528.377,-494.02 527.508,-500.966"/>
</g>
<!-- Node14&#45;&gt;Node13 -->
<g id="edge18" class="edge"><title>Node14&#45;&gt;Node13</title>
<path fill="none" stroke="midnightblue" d="M464.762,-476.091C490.014,-474.805 517.759,-473.392 541.792,-472.168"/>
<polygon fill="midnightblue" stroke="midnightblue" points="542.037,-475.66 551.846,-471.656 541.681,-468.669 542.037,-475.66"/>
</g>
<!-- Node15&#45;&gt;Node3 -->
<g id="edge20" class="edge"><title>Node15&#45;&gt;Node3</title>
<path fill="none" stroke="midnightblue" d="M451.057,-304.963C477.336,-307.031 507.936,-309.439 534.83,-311.556"/>
<polygon fill="midnightblue" stroke="midnightblue" points="534.695,-315.056 544.939,-312.352 535.245,-308.078 534.695,-315.056"/>
</g>
<!-- Node16&#45;&gt;Node3 -->
<g id="edge24" class="edge"><title>Node16&#45;&gt;Node3</title>
<path fill="none" stroke="midnightblue" d="M434.866,-366.892C448.243,-362.345 462.774,-357.181 476,-352 492.303,-345.613 495.331,-341.357 512,-336 520.348,-333.317 529.248,-330.923 538.099,-328.815"/>
<polygon fill="midnightblue" stroke="midnightblue" points="539.064,-332.185 548.04,-326.556 537.513,-325.359 539.064,-332.185"/>
</g>
<!-- Node16&#45;&gt;Node10 -->
<g id="edge22" class="edge"><title>Node16&#45;&gt;Node10</title>
<path fill="none" stroke="midnightblue" d="M448.452,-397.058C468.627,-401.968 491.252,-407.349 512,-412 523.078,-414.483 534.933,-417.021 546.325,-419.4"/>
<polygon fill="midnightblue" stroke="midnightblue" points="545.682,-422.841 556.185,-421.444 547.103,-415.986 545.682,-422.841"/>
</g>
<!-- Node16&#45;&gt;Node11 -->
<g id="edge23" class="edge"><title>Node16&#45;&gt;Node11</title>
<path fill="none" stroke="midnightblue" d="M475.233,-386.442C494.497,-387.423 514.678,-388.451 533.196,-389.394"/>
<polygon fill="midnightblue" stroke="midnightblue" points="533.131,-392.895 543.296,-389.909 533.487,-385.904 533.131,-392.895"/>
</g>
<!-- Node17 -->
<g id="node17" class="node"><title>Node17</title>
<g id="a_node17"><a xlink:href="../../d3/dcc/classparser_1_1_node.html#a6bbc0c61aaa261077eb87cfc4e2b45dc" target="_top" xlink:title="parser.Node.numChildren">
<polygon fill="white" stroke="black" points="535.5,-345.5 535.5,-364.5 674.5,-364.5 674.5,-345.5 535.5,-345.5"/>
<text text-anchor="middle" x="605" y="-352.5" font-family="Helvetica,sans-Serif" font-size="10.00">parser.Node.numChildren</text>
</a>
</g>
</g>
<!-- Node16&#45;&gt;Node17 -->
<g id="edge25" class="edge"><title>Node16&#45;&gt;Node17</title>
<path fill="none" stroke="midnightblue" d="M475.233,-371.096C491.813,-369.023 509.072,-366.866 525.366,-364.829"/>
<polygon fill="midnightblue" stroke="midnightblue" points="525.884,-368.292 535.372,-363.578 525.015,-361.346 525.884,-368.292"/>
</g>
<!-- Node18&#45;&gt;Node7 -->
<g id="edge39" class="edge"><title>Node18&#45;&gt;Node7</title>
<path fill="none" stroke="midnightblue" d="M465.848,-250.032C556.093,-267.573 693.188,-294.624 698,-298 723.148,-315.641 715.909,-332.174 734,-357 756.938,-388.476 786.788,-422.028 806.632,-443.461"/>
<polygon fill="midnightblue" stroke="midnightblue" points="804.079,-445.856 813.458,-450.783 809.199,-441.082 804.079,-445.856"/>
</g>
<!-- Node19 -->
<g id="node19" class="node"><title>Node19</title>
<g id="a_node19"><a xlink:href="../../d5/d9c/classfactories_1_1_command_factory.html#ac28395af261dafe524b4498bd587782e" target="_top" xlink:title="factories.CommandFactory.add\lVariable">
<polygon fill="white" stroke="black" points="522.5,-220 522.5,-250 687.5,-250 687.5,-220 522.5,-220"/>
<text text-anchor="start" x="530.5" y="-238" font-family="Helvetica,sans-Serif" font-size="10.00">factories.CommandFactory.add</text>
<text text-anchor="middle" x="605" y="-227" font-family="Helvetica,sans-Serif" font-size="10.00">Variable</text>
</a>
</g>
</g>
<!-- Node18&#45;&gt;Node19 -->
<g id="edge27" class="edge"><title>Node18&#45;&gt;Node19</title>
<path fill="none" stroke="midnightblue" d="M476.167,-235C487.986,-235 500.134,-235 512.017,-235"/>
<polygon fill="midnightblue" stroke="midnightblue" points="512.376,-238.5 522.376,-235 512.376,-231.5 512.376,-238.5"/>
</g>
<!-- Node20 -->
<g id="node20" class="node"><title>Node20</title>
<g id="a_node20"><a xlink:href="../../d5/d9c/classfactories_1_1_command_factory.html#a4c6d0dd68adc65612918d5629f87e046" target="_top" xlink:title="factories.CommandFactory.make\lCommandMap">
<polygon fill="white" stroke="black" points="518,-171 518,-201 692,-201 692,-171 518,-171"/>
<text text-anchor="start" x="526" y="-189" font-family="Helvetica,sans-Serif" font-size="10.00">factories.CommandFactory.make</text>
<text text-anchor="middle" x="605" y="-178" font-family="Helvetica,sans-Serif" font-size="10.00">CommandMap</text>
</a>
</g>
</g>
<!-- Node18&#45;&gt;Node20 -->
<g id="edge28" class="edge"><title>Node18&#45;&gt;Node20</title>
<path fill="none" stroke="midnightblue" d="M454.275,-219.965C477.6,-214.674 503.993,-208.687 528.053,-203.229"/>
<polygon fill="midnightblue" stroke="midnightblue" points="528.872,-206.632 537.85,-201.006 527.324,-199.805 528.872,-206.632"/>
</g>
<!-- Node27 -->
<g id="node27" class="node"><title>Node27</title>
<g id="a_node27"><a xlink:href="../../d5/d9c/classfactories_1_1_command_factory.html#a1125546e0f8a72a5fa2207a7c71eec6b" target="_top" xlink:title="factories.CommandFactory.make\lParams">
<polygon fill="white" stroke="black" points="518,-73 518,-103 692,-103 692,-73 518,-73"/>
<text text-anchor="start" x="526" y="-91" font-family="Helvetica,sans-Serif" font-size="10.00">factories.CommandFactory.make</text>
<text text-anchor="middle" x="605" y="-80" font-family="Helvetica,sans-Serif" font-size="10.00">Params</text>
</a>
</g>
</g>
<!-- Node18&#45;&gt;Node27 -->
<g id="edge35" class="edge"><title>Node18&#45;&gt;Node27</title>
<path fill="none" stroke="midnightblue" d="M410.302,-219.822C449.207,-193.345 529.52,-138.688 573.525,-108.74"/>
<polygon fill="midnightblue" stroke="midnightblue" points="575.521,-111.615 581.819,-103.095 571.583,-105.828 575.521,-111.615"/>
</g>
<!-- Node21 -->
<g id="node21" class="node"><title>Node21</title>
<g id="a_node21"><a xlink:href="../../d5/d9c/classfactories_1_1_command_factory.html#a5292b29f4ad537c83565665f3d0d925e" target="_top" xlink:title="factories.CommandFactory.boolean\lCommands">
<polygon fill="white" stroke="black" points="736.5,-122 736.5,-152 921.5,-152 921.5,-122 736.5,-122"/>
<text text-anchor="start" x="744.5" y="-140" font-family="Helvetica,sans-Serif" font-size="10.00">factories.CommandFactory.boolean</text>
<text text-anchor="middle" x="829" y="-129" font-family="Helvetica,sans-Serif" font-size="10.00">Commands</text>
</a>
</g>
</g>
<!-- Node20&#45;&gt;Node21 -->
<g id="edge29" class="edge"><title>Node20&#45;&gt;Node21</title>
<path fill="none" stroke="midnightblue" d="M674.116,-170.965C698.089,-165.674 725.215,-159.687 749.943,-154.229"/>
<polygon fill="midnightblue" stroke="midnightblue" points="751.002,-157.579 760.013,-152.006 749.493,-150.744 751.002,-157.579"/>
</g>
<!-- Node22 -->
<g id="node22" class="node"><title>Node22</title>
<g id="a_node22"><a xlink:href="../../d5/d9c/classfactories_1_1_command_factory.html#a46dbbfd0b30737af25939e97752d5136" target="_top" xlink:title="factories.CommandFactory.if\lCommands">
<polygon fill="white" stroke="black" points="753,-73 753,-103 905,-103 905,-73 753,-73"/>
<text text-anchor="start" x="761" y="-91" font-family="Helvetica,sans-Serif" font-size="10.00">factories.CommandFactory.if</text>
<text text-anchor="middle" x="829" y="-80" font-family="Helvetica,sans-Serif" font-size="10.00">Commands</text>
</a>
</g>
</g>
<!-- Node20&#45;&gt;Node22 -->
<g id="edge30" class="edge"><title>Node20&#45;&gt;Node22</title>
<path fill="none" stroke="midnightblue" d="M627.707,-170.957C652.436,-154.424 694.543,-128.085 734,-112 739.118,-109.914 744.468,-107.968 749.907,-106.161"/>
<polygon fill="midnightblue" stroke="midnightblue" points="751.274,-109.4 759.761,-103.058 749.172,-102.723 751.274,-109.4"/>
</g>
<!-- Node23 -->
<g id="node23" class="node"><title>Node23</title>
<g id="a_node23"><a xlink:href="../../d5/d9c/classfactories_1_1_command_factory.html#ac1cc33f40758c92aff1b989f99454795" target="_top" xlink:title="factories.CommandFactory.loop\lCommands">
<polygon fill="white" stroke="black" points="745.5,-318 745.5,-348 912.5,-348 912.5,-318 745.5,-318"/>
<text text-anchor="start" x="753.5" y="-336" font-family="Helvetica,sans-Serif" font-size="10.00">factories.CommandFactory.loop</text>
<text text-anchor="middle" x="829" y="-325" font-family="Helvetica,sans-Serif" font-size="10.00">Commands</text>
</a>
</g>
</g>
<!-- Node20&#45;&gt;Node23 -->
<g id="edge31" class="edge"><title>Node20&#45;&gt;Node23</title>
<path fill="none" stroke="midnightblue" d="M685.498,-201.06C689.99,-203.603 694.211,-206.561 698,-210 732.361,-241.184 699.714,-276.735 734,-308 735.723,-309.572 737.535,-311.046 739.419,-312.43"/>
<polygon fill="midnightblue" stroke="midnightblue" points="737.784,-315.538 748.105,-317.934 741.531,-309.625 737.784,-315.538"/>
</g>
<!-- Node24 -->
<g id="node24" class="node"><title>Node24</title>
<g id="a_node24"><a xlink:href="../../d5/d9c/classfactories_1_1_command_factory.html#a883fd5deb5ebfdbc8ac9d4e920bbfb10" target="_top" xlink:title="factories.CommandFactory.math\lCommands">
<polygon fill="white" stroke="black" points="742.5,-269 742.5,-299 915.5,-299 915.5,-269 742.5,-269"/>
<text text-anchor="start" x="750.5" y="-287" font-family="Helvetica,sans-Serif" font-size="10.00">factories.CommandFactory.math</text>
<text text-anchor="middle" x="829" y="-276" font-family="Helvetica,sans-Serif" font-size="10.00">Commands</text>
</a>
</g>
</g>
<!-- Node20&#45;&gt;Node24 -->
<g id="edge32" class="edge"><title>Node20&#45;&gt;Node24</title>
<path fill="none" stroke="midnightblue" d="M681.694,-201.112C687.431,-203.631 692.946,-206.571 698,-210 720.362,-225.173 711.674,-243.774 734,-259 736.949,-261.011 740.053,-262.861 743.264,-264.562"/>
<polygon fill="midnightblue" stroke="midnightblue" points="742.029,-267.85 752.564,-268.973 745.029,-261.525 742.029,-267.85"/>
</g>
<!-- Node25 -->
<g id="node25" class="node"><title>Node25</title>
<g id="a_node25"><a xlink:href="../../d5/d9c/classfactories_1_1_command_factory.html#a1c1a978ea4c51cbfadb12ca3140b6b3a" target="_top" xlink:title="factories.CommandFactory.query\lCommands">
<polygon fill="white" stroke="black" points="742,-220 742,-250 916,-250 916,-220 742,-220"/>
<text text-anchor="start" x="750" y="-238" font-family="Helvetica,sans-Serif" font-size="10.00">factories.CommandFactory.query</text>
<text text-anchor="middle" x="829" y="-227" font-family="Helvetica,sans-Serif" font-size="10.00">Commands</text>
</a>
</g>
</g>
<!-- Node20&#45;&gt;Node25 -->
<g id="edge33" class="edge"><title>Node20&#45;&gt;Node25</title>
<path fill="none" stroke="midnightblue" d="M674.116,-201.035C698.089,-206.326 725.215,-212.313 749.943,-217.771"/>
<polygon fill="midnightblue" stroke="midnightblue" points="749.493,-221.256 760.013,-219.994 751.002,-214.421 749.493,-221.256"/>
</g>
<!-- Node26 -->
<g id="node26" class="node"><title>Node26</title>
<g id="a_node26"><a xlink:href="../../d5/d9c/classfactories_1_1_command_factory.html#aa6426cc26d8396d9f75538d61f189e84" target="_top" xlink:title="factories.CommandFactory.turtle\lCommands">
<polygon fill="white" stroke="black" points="742.5,-171 742.5,-201 915.5,-201 915.5,-171 742.5,-171"/>
<text text-anchor="start" x="750.5" y="-189" font-family="Helvetica,sans-Serif" font-size="10.00">factories.CommandFactory.turtle</text>
<text text-anchor="middle" x="829" y="-178" font-family="Helvetica,sans-Serif" font-size="10.00">Commands</text>
</a>
</g>
</g>
<!-- Node20&#45;&gt;Node26 -->
<g id="edge34" class="edge"><title>Node20&#45;&gt;Node26</title>
<path fill="none" stroke="midnightblue" d="M692.149,-186C705.26,-186 718.86,-186 732.163,-186"/>
<polygon fill="midnightblue" stroke="midnightblue" points="732.265,-189.5 742.265,-186 732.265,-182.5 732.265,-189.5"/>
</g>
<!-- Node28 -->
<g id="node28" class="node"><title>Node28</title>
<g id="a_node28"><a xlink:href="../../d5/d9c/classfactories_1_1_command_factory.html#ab7f7ba1a35c043e109b56bc23dfb32d0" target="_top" xlink:title="factories.CommandFactory.add\lParam">
<polygon fill="white" stroke="black" points="746.5,-24 746.5,-54 911.5,-54 911.5,-24 746.5,-24"/>
<text text-anchor="start" x="754.5" y="-42" font-family="Helvetica,sans-Serif" font-size="10.00">factories.CommandFactory.add</text>
<text text-anchor="middle" x="829" y="-31" font-family="Helvetica,sans-Serif" font-size="10.00">Param</text>
</a>
</g>
</g>
<!-- Node27&#45;&gt;Node28 -->
<g id="edge36" class="edge"><title>Node27&#45;&gt;Node28</title>
<path fill="none" stroke="midnightblue" d="M674.116,-72.9654C698.089,-67.6741 725.215,-61.6867 749.943,-56.2288"/>
<polygon fill="midnightblue" stroke="midnightblue" points="751.002,-59.5793 760.013,-54.0062 749.493,-52.7439 751.002,-59.5793"/>
</g>
<!-- Node29 -->
<g id="node29" class="node"><title>Node29</title>
<g id="a_node29"><a xlink:href="../../d5/d9c/classfactories_1_1_command_factory.html#a53b4255ecbbdd516b99b1647cf9e5359" target="_top" xlink:title="factories.CommandFactory.is\lVariable">
<polygon fill="white" stroke="black" points="967.5,-49 967.5,-79 1122.5,-79 1122.5,-49 967.5,-49"/>
<text text-anchor="start" x="975.5" y="-67" font-family="Helvetica,sans-Serif" font-size="10.00">factories.CommandFactory.is</text>
<text text-anchor="middle" x="1045" y="-56" font-family="Helvetica,sans-Serif" font-size="10.00">Variable</text>
</a>
</g>
</g>
<!-- Node28&#45;&gt;Node29 -->
<g id="edge37" class="edge"><title>Node28&#45;&gt;Node29</title>
<path fill="none" stroke="midnightblue" d="M911.515,-48.5227C926.39,-50.2605 941.963,-52.0798 956.991,-53.8354"/>
<polygon fill="midnightblue" stroke="midnightblue" points="956.954,-57.3548 967.292,-55.0388 957.766,-50.4021 956.954,-57.3548"/>
</g>
<!-- Node30 -->
<g id="node30" class="node"><title>Node30</title>
<g id="a_node30"><a xlink:href="../../d5/d9c/classfactories_1_1_command_factory.html#ac75dced2e30745174958ba6189ed4d59" target="_top" xlink:title="factories.CommandFactory.read\lVariable">
<polygon fill="white" stroke="black" points="960.5,-0 960.5,-30 1129.5,-30 1129.5,-0 960.5,-0"/>
<text text-anchor="start" x="968.5" y="-18" font-family="Helvetica,sans-Serif" font-size="10.00">factories.CommandFactory.read</text>
<text text-anchor="middle" x="1045" y="-7" font-family="Helvetica,sans-Serif" font-size="10.00">Variable</text>
</a>
</g>
</g>
<!-- Node28&#45;&gt;Node30 -->
<g id="edge38" class="edge"><title>Node28&#45;&gt;Node30</title>
<path fill="none" stroke="midnightblue" d="M911.515,-29.8582C924.097,-28.4471 937.179,-26.98 950.007,-25.5413"/>
<polygon fill="midnightblue" stroke="midnightblue" points="950.679,-28.988 960.226,-24.3952 949.899,-22.0316 950.679,-28.988"/>
</g>
</g>
</svg>
