<?xml version="1.0" encoding="UTF-8" standalone="no"?>
<!DOCTYPE svg PUBLIC "-//W3C//DTD SVG 1.1//EN"
 "http://www.w3.org/Graphics/SVG/1.1/DTD/svg11.dtd">
<!-- Generated by graphviz version 2.36.0 (20140111.2315)
 -->
<!-- Title: parser.Parser.resetRepcount Pages: 1 -->
<!--zoomable 87 -->
<svg id="main" version="1.1" xmlns="http://www.w3.org/2000/svg" xmlns:xlink="http://www.w3.org/1999/xlink" xml:space="preserve" onload="init(evt)">
<style type="text/css"><![CDATA[
.edge:hover path { stroke: red; }
.edge:hover polygon { stroke: red; fill: red; }
]]></style>
<script type="text/javascript"><![CDATA[
var edges = document.getElementsByTagName('g');
if (edges && edges.length) {
  for (var i=0;i<edges.length;i++) {
    if (edges[i].id.substr(0,4)=='edge') {
      edges[i].setAttribute('class','edge');
    }
  }
}
]]></script>
        <defs>
                <circle id="rim" cx="0" cy="0" r="7"/>
                <circle id="rim2" cx="0" cy="0" r="3.5"/>
                <g id="zoomPlus">
                        <use xlink:href="#rim" fill="#404040">
                                <set attributeName="fill" to="#808080" begin="zoomplus.mouseover" end="zoomplus.mouseout"/>
                        </use>
                        <path d="M-4,0h8M0,-4v8" fill="none" stroke="white" stroke-width="1.5" pointer-events="none"/>
                </g>
                <g id="zoomMin">
                        <use xlink:href="#rim" fill="#404040">
                                <set attributeName="fill" to="#808080" begin="zoomminus.mouseover" end="zoomminus.mouseout"/>
                        </use>
                        <path d="M-4,0h8" fill="none" stroke="white" stroke-width="1.5" pointer-events="none"/>
                </g>
                <g id="dirArrow">
                        <path fill="none" stroke="white" stroke-width="1.5" d="M0,-3.0v7 M-2.5,-0.5L0,-3.0L2.5,-0.5"/>
                </g>
               <g id="resetDef">
                       <use xlink:href="#rim2" fill="#404040">
                               <set attributeName="fill" to="#808080" begin="reset.mouseover" end="reset.mouseout"/>
                       </use>
               </g>
        </defs>

<script type="text/javascript">
var viewWidth = 1344;
var viewHeight = 87;
var sectionId = 'dynsection-16';
</script>
<script xlink:href="../../svgpan.js"/>
<svg id="graph" class="graph">
<g id="viewport">
<title>parser.Parser.resetRepcount</title>
<polygon fill="white" stroke="none" points="-4,4 -4,-83 1340,-83 1340,4 -4,4"/>
<!-- Node1 -->
<g id="node1" class="node"><title>Node1</title>
<polygon fill="#bfbfbf" stroke="black" points="0.5,-29.5 0.5,-48.5 151.5,-48.5 151.5,-29.5 0.5,-29.5"/>
<text text-anchor="middle" x="76" y="-36.5" font-family="Helvetica,sans-Serif" font-size="10.00">parser.Parser.resetRepcount</text>
</g>
<!-- Node2 -->
<g id="node2" class="node"><title>Node2</title>
<g id="a_node2"><a xlink:href="../../d9/dd0/classworld_1_1_world.html#ae370733f7784c42741a6ba66c7d2ecf5" target="_top" xlink:title="world.World.listen">
<polygon fill="white" stroke="black" points="188,-29.5 188,-48.5 286,-48.5 286,-29.5 188,-29.5"/>
<text text-anchor="middle" x="237" y="-36.5" font-family="Helvetica,sans-Serif" font-size="10.00">world.World.listen</text>
</a>
</g>
</g>
<!-- Node1&#45;&gt;Node2 -->
<g id="edge1" class="edge"><title>Node1&#45;&gt;Node2</title>
<path fill="none" stroke="midnightblue" d="M161.897,-39C170.787,-39 179.587,-39 187.85,-39"/>
<polygon fill="midnightblue" stroke="midnightblue" points="161.844,-35.5001 151.844,-39 161.844,-42.5001 161.844,-35.5001"/>
</g>
<!-- Node3 -->
<g id="node3" class="node"><title>Node3</title>
<g id="a_node3"><a xlink:href="../../d8/d08/classworld_controller_1_1_world_controller.html#a178425d68e3e669c386706153ce44999" target="_top" xlink:title="worldController.WorldController.update">
<polygon fill="white" stroke="black" points="322,-29.5 322,-48.5 520,-48.5 520,-29.5 322,-29.5"/>
<text text-anchor="middle" x="421" y="-36.5" font-family="Helvetica,sans-Serif" font-size="10.00">worldController.WorldController.update</text>
</a>
</g>
</g>
<!-- Node2&#45;&gt;Node3 -->
<g id="edge2" class="edge"><title>Node2&#45;&gt;Node3</title>
<path fill="none" stroke="midnightblue" d="M296.407,-39C304.579,-39 313.156,-39 321.82,-39"/>
<polygon fill="midnightblue" stroke="midnightblue" points="296.295,-35.5001 286.295,-39 296.295,-42.5001 296.295,-35.5001"/>
</g>
<!-- Node4 -->
<g id="node4" class="node"><title>Node4</title>
<g id="a_node4"><a xlink:href="../../dd/d8e/classuser_interface_1_1_user_interface.html#a95e324c85888faea808be269e44ed5b8" target="_top" xlink:title="userInterface.UserInterface.run\lCommand">
<polygon fill="white" stroke="black" points="556,-24 556,-54 722,-54 722,-24 556,-24"/>
<text text-anchor="start" x="564" y="-42" font-family="Helvetica,sans-Serif" font-size="10.00">userInterface.UserInterface.run</text>
<text text-anchor="middle" x="639" y="-31" font-family="Helvetica,sans-Serif" font-size="10.00">Command</text>
</a>
</g>
</g>
<!-- Node3&#45;&gt;Node4 -->
<g id="edge3" class="edge"><title>Node3&#45;&gt;Node4</title>
<path fill="none" stroke="midnightblue" d="M530.29,-39C538.892,-39 547.492,-39 555.871,-39"/>
<polygon fill="midnightblue" stroke="midnightblue" points="530.203,-35.5001 520.203,-39 530.203,-42.5001 530.203,-35.5001"/>
</g>
<!-- Node5 -->
<g id="node5" class="node"><title>Node5</title>
<g id="a_node5"><a xlink:href="../../dd/d8e/classuser_interface_1_1_user_interface.html#a560c36977fddeee87002333870c54ed6" target="_top" xlink:title="userInterface.UserInterface.set\lUpResponses">
<polygon fill="white" stroke="black" points="978.5,-49 978.5,-79 1143.5,-79 1143.5,-49 978.5,-49"/>
<text text-anchor="start" x="986.5" y="-67" font-family="Helvetica,sans-Serif" font-size="10.00">userInterface.UserInterface.set</text>
<text text-anchor="middle" x="1061" y="-56" font-family="Helvetica,sans-Serif" font-size="10.00">UpResponses</text>
</a>
</g>
</g>
<!-- Node4&#45;&gt;Node5 -->
<g id="edge4" class="edge"><title>Node4&#45;&gt;Node5</title>
<path fill="none" stroke="midnightblue" d="M732.405,-44.5003C805.911,-48.8757 907.786,-54.9396 978.328,-59.1386"/>
<polygon fill="midnightblue" stroke="midnightblue" points="732.418,-40.9949 722.227,-43.8945 732.002,-47.9826 732.418,-40.9949"/>
</g>
<!-- Node7 -->
<g id="node7" class="node"><title>Node7</title>
<g id="a_node7"><a xlink:href="../../dd/d8e/classuser_interface_1_1_user_interface.html#a4316649a1f81fcc1dcaf93c812bf6f3a" target="_top" xlink:title="userInterface.UserInterface.make\lRunButton">
<polygon fill="white" stroke="black" points="758.5,-2 758.5,-32 935.5,-32 935.5,-2 758.5,-2"/>
<text text-anchor="start" x="766.5" y="-20" font-family="Helvetica,sans-Serif" font-size="10.00">userInterface.UserInterface.make</text>
<text text-anchor="middle" x="847" y="-9" font-family="Helvetica,sans-Serif" font-size="10.00">RunButton</text>
</a>
</g>
</g>
<!-- Node4&#45;&gt;Node7 -->
<g id="edge6" class="edge"><title>Node4&#45;&gt;Node7</title>
<path fill="none" stroke="midnightblue" d="M732.121,-29.1618C740.789,-28.2361 749.561,-27.2994 758.187,-26.3781"/>
<polygon fill="midnightblue" stroke="midnightblue" points="731.58,-25.6996 722.009,-30.2418 732.324,-32.66 731.58,-25.6996"/>
</g>
<!-- Node6 -->
<g id="node6" class="node"><title>Node6</title>
<g id="a_node6"><a xlink:href="../../dd/d8e/classuser_interface_1_1_user_interface.html#af296b064499e62c4fbfbf73da6456532" target="_top" xlink:title="userInterface.UserInterface.\lUserInterface">
<polygon fill="white" stroke="black" points="1186,-24 1186,-54 1336,-54 1336,-24 1186,-24"/>
<text text-anchor="start" x="1194" y="-42" font-family="Helvetica,sans-Serif" font-size="10.00">userInterface.UserInterface.</text>
<text text-anchor="middle" x="1261" y="-31" font-family="Helvetica,sans-Serif" font-size="10.00">UserInterface</text>
</a>
</g>
</g>
<!-- Node5&#45;&gt;Node6 -->
<g id="edge5" class="edge"><title>Node5&#45;&gt;Node6</title>
<path fill="none" stroke="midnightblue" d="M1153.88,-52.3986C1164.58,-51.0478 1175.39,-49.683 1185.81,-48.3677"/>
<polygon fill="midnightblue" stroke="midnightblue" points="1153.16,-48.962 1143.68,-53.6872 1154.04,-55.9069 1153.16,-48.962"/>
</g>
<!-- Node8 -->
<g id="node8" class="node"><title>Node8</title>
<g id="a_node8"><a xlink:href="../../dd/d8e/classuser_interface_1_1_user_interface.html#a6d39ee7d7ae35fc0539bb714bce6221a" target="_top" xlink:title="userInterface.UserInterface.make\lFunctionButtons">
<polygon fill="white" stroke="black" points="972.5,-0 972.5,-30 1149.5,-30 1149.5,-0 972.5,-0"/>
<text text-anchor="start" x="980.5" y="-18" font-family="Helvetica,sans-Serif" font-size="10.00">userInterface.UserInterface.make</text>
<text text-anchor="middle" x="1061" y="-7" font-family="Helvetica,sans-Serif" font-size="10.00">FunctionButtons</text>
</a>
</g>
</g>
<!-- Node7&#45;&gt;Node8 -->
<g id="edge7" class="edge"><title>Node7&#45;&gt;Node8</title>
<path fill="none" stroke="midnightblue" d="M946.01,-16.0754C954.783,-15.9926 963.629,-15.9092 972.307,-15.8273"/>
<polygon fill="midnightblue" stroke="midnightblue" points="945.725,-12.5778 935.759,-16.1721 945.791,-19.5775 945.725,-12.5778"/>
</g>
<!-- Node8&#45;&gt;Node6 -->
<g id="edge8" class="edge"><title>Node8&#45;&gt;Node6</title>
<path fill="none" stroke="midnightblue" d="M1159.67,-26.8393C1168.52,-27.9113 1177.38,-28.985 1185.97,-30.0262"/>
<polygon fill="midnightblue" stroke="midnightblue" points="1160.06,-23.3604 1149.71,-25.6316 1159.22,-30.3095 1160.06,-23.3604"/>
</g>
</g>
</svg>
        <g id="navigator" transform="translate(0 0)" fill="#404254">
                <rect fill="#f2f5e9" fill-opacity="0.5" stroke="#606060" stroke-width=".5" x="0" y="0" width="60" height="60"/>
                <use id="zoomplus" xlink:href="#zoomPlus" x="17" y="9" onmousedown="handleZoom(evt,'in')"/>
                <use id="zoomminus" xlink:href="#zoomMin" x="42" y="9" onmousedown="handleZoom(evt,'out')"/>
                <use id="reset" xlink:href="#resetDef" x="30" y="36" onmousedown="handleReset()"/>
                <g id="arrowUp" xlink:href="#dirArrow" transform="translate(30 24)" onmousedown="handlePan(0,-1)">
                  <use xlink:href="#rim" fill="#404040">
                        <set attributeName="fill" to="#808080" begin="arrowUp.mouseover" end="arrowUp.mouseout"/>
                  </use>
                  <path fill="none" stroke="white" stroke-width="1.5" d="M0,-3.0v7 M-2.5,-0.5L0,-3.0L2.5,-0.5"/>
                </g>
                <g id="arrowRight" xlink:href="#dirArrow" transform="rotate(90) translate(36 -43)" onmousedown="handlePan(1,0)">
                  <use xlink:href="#rim" fill="#404040">
                        <set attributeName="fill" to="#808080" begin="arrowRight.mouseover" end="arrowRight.mouseout"/>
                  </use>
                  <path fill="none" stroke="white" stroke-width="1.5" d="M0,-3.0v7 M-2.5,-0.5L0,-3.0L2.5,-0.5"/>
                </g>
                <g id="arrowDown" xlink:href="#dirArrow" transform="rotate(180) translate(-30 -48)" onmousedown="handlePan(0,1)">
                  <use xlink:href="#rim" fill="#404040">
                        <set attributeName="fill" to="#808080" begin="arrowDown.mouseover" end="arrowDown.mouseout"/>
                  </use>
                  <path fill="none" stroke="white" stroke-width="1.5" d="M0,-3.0v7 M-2.5,-0.5L0,-3.0L2.5,-0.5"/>
                </g>
                <g id="arrowLeft" xlink:href="#dirArrow" transform="rotate(270) translate(-36 17)" onmousedown="handlePan(-1,0)">
                  <use xlink:href="#rim" fill="#404040">
                        <set attributeName="fill" to="#808080" begin="arrowLeft.mouseover" end="arrowLeft.mouseout"/>
                  </use>
                  <path fill="none" stroke="white" stroke-width="1.5" d="M0,-3.0v7 M-2.5,-0.5L0,-3.0L2.5,-0.5"/>
                </g>
        </g>
        <svg viewBox="0 0 15 15" width="100%" height="30px" preserveAspectRatio="xMaxYMin meet">
         <g id="arrow_out" transform="scale(0.3 0.3)">
          <a xlink:href="classparser_1_1_parser_acebafe1593fc1f09ac31c7104438e4b1_icgraph_org.svg" target="_base">
           <rect id="button" ry="5" rx="5" y="6" x="6" height="38" width="38"
                fill="#f2f5e9" fill-opacity="0.5" stroke="#606060" stroke-width="1.0"/>
           <path id="arrow"
             d="M 11.500037,31.436501 C 11.940474,20.09759 22.043105,11.32322 32.158766,21.979434 L 37.068811,17.246167 C 37.068811,17.246167 37.088388,32 37.088388,32 L 22.160133,31.978069 C 22.160133,31.978069 26.997745,27.140456 26.997745,27.140456 C 18.528582,18.264221 13.291696,25.230495 11.500037,31.436501 z"
             style="fill:#404040;"/>
          </a>
         </g>
        </svg>
</svg>
