<?xml version="1.0" encoding="UTF-8" standalone="no"?>
<!DOCTYPE svg PUBLIC "-//W3C//DTD SVG 1.1//EN"
 "http://www.w3.org/Graphics/SVG/1.1/DTD/svg11.dtd">
<!-- Generated by graphviz version 2.36.0 (20140111.2315)
 -->
<!-- Title: parser.Parser.getNodeForCommand Pages: 1 -->
<svg width="1564pt" height="71pt"
 viewBox="0.00 0.00 1564.00 71.00" xmlns="http://www.w3.org/2000/svg" xmlns:xlink="http://www.w3.org/1999/xlink">
<g id="graph0" class="graph" transform="scale(1 1) rotate(0) translate(4 67)">
<title>parser.Parser.getNodeForCommand</title>
<polygon fill="white" stroke="none" points="-4,4 -4,-67 1560,-67 1560,4 -4,4"/>
<!-- Node1 -->
<g id="node1" class="node"><title>Node1</title>
<polygon fill="#bfbfbf" stroke="black" points="0,-19 0,-49 138,-49 138,-19 0,-19"/>
<text text-anchor="start" x="8" y="-37" font-family="Helvetica,sans-Serif" font-size="10.00">parser.Parser.getNodeFor</text>
<text text-anchor="middle" x="69" y="-26" font-family="Helvetica,sans-Serif" font-size="10.00">Command</text>
</g>
<!-- Node2 -->
<g id="node2" class="node"><title>Node2</title>
<g id="a_node2"><a xlink:href="../../d6/d95/classparser_1_1_parser.html#a4ecbffc246c3add017c4720eed4c6da9" target="_top" xlink:title="parser.Parser.parse">
<polygon fill="white" stroke="black" points="174.5,-24.5 174.5,-43.5 283.5,-43.5 283.5,-24.5 174.5,-24.5"/>
<text text-anchor="middle" x="229" y="-31.5" font-family="Helvetica,sans-Serif" font-size="10.00">parser.Parser.parse</text>
</a>
</g>
</g>
<!-- Node1&#45;&gt;Node2 -->
<g id="edge1" class="edge"><title>Node1&#45;&gt;Node2</title>
<path fill="none" stroke="midnightblue" d="M148.569,-34C157.271,-34 165.98,-34 174.274,-34"/>
<polygon fill="midnightblue" stroke="midnightblue" points="148.382,-30.5001 138.382,-34 148.382,-37.5001 148.382,-30.5001"/>
</g>
<!-- Node3 -->
<g id="node3" class="node"><title>Node3</title>
<g id="a_node3"><a xlink:href="../../d6/d95/classparser_1_1_parser.html#a6b2d7b2b182d99537ce332ed0dfd3e03" target="_top" xlink:title="parser.Parser.main">
<polygon fill="white" stroke="black" points="320,-43.5 320,-62.5 426,-62.5 426,-43.5 320,-43.5"/>
<text text-anchor="middle" x="373" y="-50.5" font-family="Helvetica,sans-Serif" font-size="10.00">parser.Parser.main</text>
</a>
</g>
</g>
<!-- Node2&#45;&gt;Node3 -->
<g id="edge2" class="edge"><title>Node2&#45;&gt;Node3</title>
<path fill="none" stroke="midnightblue" d="M293.754,-42.5304C302.415,-43.6893 311.222,-44.8677 319.651,-45.9955"/>
<polygon fill="midnightblue" stroke="midnightblue" points="294.06,-39.0403 283.684,-41.1831 293.132,-45.9785 294.06,-39.0403"/>
</g>
<!-- Node4 -->
<g id="node4" class="node"><title>Node4</title>
<g id="a_node4"><a xlink:href="../../d9/dd0/classworld_1_1_world.html#ae370733f7784c42741a6ba66c7d2ecf5" target="_top" xlink:title="world.World.listen">
<polygon fill="white" stroke="black" points="324,-5.5 324,-24.5 422,-24.5 422,-5.5 324,-5.5"/>
<text text-anchor="middle" x="373" y="-12.5" font-family="Helvetica,sans-Serif" font-size="10.00">world.World.listen</text>
</a>
</g>
</g>
<!-- Node2&#45;&gt;Node4 -->
<g id="edge3" class="edge"><title>Node2&#45;&gt;Node4</title>
<path fill="none" stroke="midnightblue" d="M293.708,-25.4756C303.83,-24.1213 314.152,-22.7402 323.839,-21.4441"/>
<polygon fill="midnightblue" stroke="midnightblue" points="293.132,-22.0215 283.684,-26.8169 294.06,-28.9597 293.132,-22.0215"/>
</g>
<!-- Node5 -->
<g id="node5" class="node"><title>Node5</title>
<g id="a_node5"><a xlink:href="../../d8/d08/classworld_controller_1_1_world_controller.html#a178425d68e3e669c386706153ce44999" target="_top" xlink:title="worldController.WorldController.update">
<polygon fill="white" stroke="black" points="462,-5.5 462,-24.5 660,-24.5 660,-5.5 462,-5.5"/>
<text text-anchor="middle" x="561" y="-12.5" font-family="Helvetica,sans-Serif" font-size="10.00">worldController.WorldController.update</text>
</a>
</g>
</g>
<!-- Node4&#45;&gt;Node5 -->
<g id="edge4" class="edge"><title>Node4&#45;&gt;Node5</title>
<path fill="none" stroke="midnightblue" d="M432.637,-15C441.94,-15 451.777,-15 461.695,-15"/>
<polygon fill="midnightblue" stroke="midnightblue" points="432.384,-11.5001 422.384,-15 432.384,-18.5001 432.384,-11.5001"/>
</g>
<!-- Node6 -->
<g id="node6" class="node"><title>Node6</title>
<g id="a_node6"><a xlink:href="../../d0/d7c/classuser_interface_1_1_u_i.html#ab17592b00ba0b808f524b4fc223303ec" target="_top" xlink:title="userInterface.UI.runCommand">
<polygon fill="white" stroke="black" points="696.5,-5.5 696.5,-24.5 857.5,-24.5 857.5,-5.5 696.5,-5.5"/>
<text text-anchor="middle" x="777" y="-12.5" font-family="Helvetica,sans-Serif" font-size="10.00">userInterface.UI.runCommand</text>
</a>
</g>
</g>
<!-- Node5&#45;&gt;Node6 -->
<g id="edge5" class="edge"><title>Node5&#45;&gt;Node6</title>
<path fill="none" stroke="midnightblue" d="M670.451,-15C679.164,-15 687.863,-15 696.319,-15"/>
<polygon fill="midnightblue" stroke="midnightblue" points="670.231,-11.5001 660.231,-15 670.231,-18.5001 670.231,-11.5001"/>
</g>
<!-- Node7 -->
<g id="node7" class="node"><title>Node7</title>
<g id="a_node7"><a xlink:href="../../d0/d7c/classuser_interface_1_1_u_i.html#a02bd34909b5d6037ea8ebe812879b90a" target="_top" xlink:title="userInterface.UI.makeRun\lButton">
<polygon fill="white" stroke="black" points="894,-0 894,-30 1034,-30 1034,-0 894,-0"/>
<text text-anchor="start" x="902" y="-18" font-family="Helvetica,sans-Serif" font-size="10.00">userInterface.UI.makeRun</text>
<text text-anchor="middle" x="964" y="-7" font-family="Helvetica,sans-Serif" font-size="10.00">Button</text>
</a>
</g>
</g>
<!-- Node6&#45;&gt;Node7 -->
<g id="edge6" class="edge"><title>Node6&#45;&gt;Node7</title>
<path fill="none" stroke="midnightblue" d="M867.746,-15C876.477,-15 885.241,-15 893.726,-15"/>
<polygon fill="midnightblue" stroke="midnightblue" points="867.53,-11.5001 857.53,-15 867.53,-18.5001 867.53,-11.5001"/>
</g>
<!-- Node8 -->
<g id="node8" class="node"><title>Node8</title>
<g id="a_node8"><a xlink:href="../../d0/d7c/classuser_interface_1_1_u_i.html#a9f7eaa121e1405b45e262f03859f9ff0" target="_top" xlink:title="userInterface.UI.setUpCommand\lField">
<polygon fill="white" stroke="black" points="1070,-0 1070,-30 1244,-30 1244,-0 1070,-0"/>
<text text-anchor="start" x="1078" y="-18" font-family="Helvetica,sans-Serif" font-size="10.00">userInterface.UI.setUpCommand</text>
<text text-anchor="middle" x="1157" y="-7" font-family="Helvetica,sans-Serif" font-size="10.00">Field</text>
</a>
</g>
</g>
<!-- Node7&#45;&gt;Node8 -->
<g id="edge7" class="edge"><title>Node7&#45;&gt;Node8</title>
<path fill="none" stroke="midnightblue" d="M1044.34,-15C1052.73,-15 1061.28,-15 1069.73,-15"/>
<polygon fill="midnightblue" stroke="midnightblue" points="1044.23,-11.5001 1034.23,-15 1044.23,-18.5001 1044.23,-11.5001"/>
</g>
<!-- Node9 -->
<g id="node9" class="node"><title>Node9</title>
<g id="a_node9"><a xlink:href="../../d0/d7c/classuser_interface_1_1_u_i.html#a3bbaba49b5a758cdab6fb4182e5dec4c" target="_top" xlink:title="userInterface.UI.initialize">
<polygon fill="white" stroke="black" points="1280,-5.5 1280,-24.5 1414,-24.5 1414,-5.5 1280,-5.5"/>
<text text-anchor="middle" x="1347" y="-12.5" font-family="Helvetica,sans-Serif" font-size="10.00">userInterface.UI.initialize</text>
</a>
</g>
</g>
<!-- Node8&#45;&gt;Node9 -->
<g id="edge8" class="edge"><title>Node8&#45;&gt;Node9</title>
<path fill="none" stroke="midnightblue" d="M1254.16,-15C1262.8,-15 1271.42,-15 1279.72,-15"/>
<polygon fill="midnightblue" stroke="midnightblue" points="1254.02,-11.5001 1244.02,-15 1254.02,-18.5001 1254.02,-11.5001"/>
</g>
<!-- Node10 -->
<g id="node10" class="node"><title>Node10</title>
<g id="a_node10"><a xlink:href="../../d0/d7c/classuser_interface_1_1_u_i.html#aad82f35446d97cd94d5003a2b995e264" target="_top" xlink:title="userInterface.UI.UI">
<polygon fill="white" stroke="black" points="1450.5,-5.5 1450.5,-24.5 1555.5,-24.5 1555.5,-5.5 1450.5,-5.5"/>
<text text-anchor="middle" x="1503" y="-12.5" font-family="Helvetica,sans-Serif" font-size="10.00">userInterface.UI.UI</text>
</a>
</g>
</g>
<!-- Node9&#45;&gt;Node10 -->
<g id="edge9" class="edge"><title>Node9&#45;&gt;Node10</title>
<path fill="none" stroke="midnightblue" d="M1424.44,-15C1433.19,-15 1441.95,-15 1450.27,-15"/>
<polygon fill="midnightblue" stroke="midnightblue" points="1424.2,-11.5001 1414.2,-15 1424.2,-18.5001 1424.2,-11.5001"/>
</g>
</g>
</svg>
