<?xml version="1.0" encoding="UTF-8" standalone="no"?>
<!DOCTYPE svg PUBLIC "-//W3C//DTD SVG 1.1//EN"
 "http://www.w3.org/Graphics/SVG/1.1/DTD/svg11.dtd">
<!-- Generated by graphviz version 2.36.0 (20140111.2315)
 -->
<!-- Title: parser.Parser.parse Pages: 1 -->
<!--zoomable 333 -->
<svg id="main" version="1.1" xmlns="http://www.w3.org/2000/svg" xmlns:xlink="http://www.w3.org/1999/xlink" xml:space="preserve" onload="init(evt)">
<style type="text/css"><![CDATA[
.edge:hover path { stroke: red; }
.edge:hover polygon { stroke: red; fill: red; }
]]></style>
<script type="text/javascript"><![CDATA[
var edges = document.getElementsByTagName('g');
if (edges && edges.length) {
  for (var i=0;i<edges.length;i++) {
    if (edges[i].id.substr(0,4)=='edge') {
      edges[i].setAttribute('class','edge');
    }
  }
}
]]></script>
        <defs>
                <circle id="rim" cx="0" cy="0" r="7"/>
                <circle id="rim2" cx="0" cy="0" r="3.5"/>
                <g id="zoomPlus">
                        <use xlink:href="#rim" fill="#404040">
                                <set attributeName="fill" to="#808080" begin="zoomplus.mouseover" end="zoomplus.mouseout"/>
                        </use>
                        <path d="M-4,0h8M0,-4v8" fill="none" stroke="white" stroke-width="1.5" pointer-events="none"/>
                </g>
                <g id="zoomMin">
                        <use xlink:href="#rim" fill="#404040">
                                <set attributeName="fill" to="#808080" begin="zoomminus.mouseover" end="zoomminus.mouseout"/>
                        </use>
                        <path d="M-4,0h8" fill="none" stroke="white" stroke-width="1.5" pointer-events="none"/>
                </g>
                <g id="dirArrow">
                        <path fill="none" stroke="white" stroke-width="1.5" d="M0,-3.0v7 M-2.5,-0.5L0,-3.0L2.5,-0.5"/>
                </g>
               <g id="resetDef">
                       <use xlink:href="#rim2" fill="#404040">
                               <set attributeName="fill" to="#808080" begin="reset.mouseover" end="reset.mouseout"/>
                       </use>
               </g>
        </defs>

<script type="text/javascript">
var viewWidth = 584;
var viewHeight = 333;
var sectionId = 'dynsection-13';
</script>
<script xlink:href="../../svgpan.js"/>
<svg id="graph" class="graph">
<g id="viewport">
<title>parser.Parser.parse</title>
<polygon fill="white" stroke="none" points="-4,4 -4,-328.815 580,-328.815 580,4 -4,4"/>
<!-- Node1 -->
<g id="node1" class="node"><title>Node1</title>
<polygon fill="#bfbfbf" stroke="black" points="0.5,-149.315 0.5,-168.315 109.5,-168.315 109.5,-149.315 0.5,-149.315"/>
<text text-anchor="middle" x="55" y="-156.315" font-family="Helvetica,sans-Serif" font-size="10.00">parser.Parser.parse</text>
</g>
<!-- Node2 -->
<g id="node2" class="node"><title>Node2</title>
<g id="a_node2"><a xlink:href="../../d9/d1b/classcommand_1_1_command_factory.html#ab25bb047b051661d31adf73b2dae5649" target="_top" xlink:title="command.CommandFactory.create\lCommand">
<polygon fill="white" stroke="black" points="146.5,-269.815 146.5,-299.815 331.5,-299.815 331.5,-269.815 146.5,-269.815"/>
<text text-anchor="start" x="154.5" y="-287.815" font-family="Helvetica,sans-Serif" font-size="10.00">command.CommandFactory.create</text>
<text text-anchor="middle" x="239" y="-276.815" font-family="Helvetica,sans-Serif" font-size="10.00">Command</text>
</a>
</g>
</g>
<!-- Node1&#45;&gt;Node2 -->
<g id="edge1" class="edge"><title>Node1&#45;&gt;Node2</title>
<path fill="none" stroke="midnightblue" d="M61.8684,-168.557C74.5686,-188.783 106.656,-235.468 146,-259.815 149.387,-261.91 152.95,-263.833 156.626,-265.597"/>
<polygon fill="midnightblue" stroke="midnightblue" points="155.394,-268.878 165.96,-269.661 158.189,-262.46 155.394,-268.878"/>
</g>
<!-- Node5 -->
<g id="node5" class="node"><title>Node5</title>
<g id="a_node5"><a xlink:href="../../d6/d95/classparser_1_1_parser.html#aac1cff62f68138c7e977a67d39671701" target="_top" xlink:title="parser.Parser.generateCommand\lInput">
<polygon fill="white" stroke="black" points="151,-143.815 151,-173.815 327,-173.815 327,-143.815 151,-143.815"/>
<text text-anchor="start" x="159" y="-161.815" font-family="Helvetica,sans-Serif" font-size="10.00">parser.Parser.generateCommand</text>
<text text-anchor="middle" x="239" y="-150.815" font-family="Helvetica,sans-Serif" font-size="10.00">Input</text>
</a>
</g>
</g>
<!-- Node1&#45;&gt;Node5 -->
<g id="edge4" class="edge"><title>Node1&#45;&gt;Node5</title>
<path fill="none" stroke="midnightblue" d="M109.622,-158.815C119.475,-158.815 130.035,-158.815 140.712,-158.815"/>
<polygon fill="midnightblue" stroke="midnightblue" points="140.965,-162.315 150.965,-158.815 140.965,-155.315 140.965,-162.315"/>
</g>
<!-- Node8 -->
<g id="node8" class="node"><title>Node8</title>
<g id="a_node8"><a xlink:href="../../d3/dcc/classparser_1_1_node.html#a9c12e8d4375a7517eae0a35724b253c4" target="_top" xlink:title="parser.Node.getValue">
<polygon fill="white" stroke="black" points="412,-200.315 412,-219.315 532,-219.315 532,-200.315 412,-200.315"/>
<text text-anchor="middle" x="472" y="-207.315" font-family="Helvetica,sans-Serif" font-size="10.00">parser.Node.getValue</text>
</a>
</g>
</g>
<!-- Node1&#45;&gt;Node8 -->
<g id="edge20" class="edge"><title>Node1&#45;&gt;Node8</title>
<path fill="none" stroke="midnightblue" d="M86.5236,-168.402C103.808,-173.464 125.924,-179.333 146,-182.815 233.371,-197.97 335.482,-204.687 401.595,-207.619"/>
<polygon fill="midnightblue" stroke="midnightblue" points="401.749,-211.128 411.889,-208.057 402.047,-204.135 401.749,-211.128"/>
</g>
<!-- Node10 -->
<g id="node10" class="node"><title>Node10</title>
<g id="a_node10"><a xlink:href="../../d6/d95/classparser_1_1_parser.html#a3efcd1192e76101919526b4a5e0046f4" target="_top" xlink:title="parser.Parser.getNodeBefore\lToReplace">
<polygon fill="white" stroke="black" points="161.5,-94.8148 161.5,-124.815 316.5,-124.815 316.5,-94.8148 161.5,-94.8148"/>
<text text-anchor="start" x="169.5" y="-112.815" font-family="Helvetica,sans-Serif" font-size="10.00">parser.Parser.getNodeBefore</text>
<text text-anchor="middle" x="239" y="-101.815" font-family="Helvetica,sans-Serif" font-size="10.00">ToReplace</text>
</a>
</g>
</g>
<!-- Node1&#45;&gt;Node10 -->
<g id="edge9" class="edge"><title>Node1&#45;&gt;Node10</title>
<path fill="none" stroke="midnightblue" d="M89.7285,-149.31C106.609,-144.588 127.366,-138.833 146,-133.815 153.705,-131.74 161.782,-129.592 169.813,-127.474"/>
<polygon fill="midnightblue" stroke="midnightblue" points="170.779,-130.839 179.561,-124.912 169,-124.069 170.779,-130.839"/>
</g>
<!-- Node12 -->
<g id="node12" class="node"><title>Node12</title>
<g id="a_node12"><a xlink:href="../../d3/dcc/classparser_1_1_node.html#aa92667a825777b3d757bc3b1a247ac20" target="_top" xlink:title="parser.Node.isLeaf">
<polygon fill="white" stroke="black" points="419,-10.3148 419,-29.3148 525,-29.3148 525,-10.3148 419,-10.3148"/>
<text text-anchor="middle" x="472" y="-17.3148" font-family="Helvetica,sans-Serif" font-size="10.00">parser.Node.isLeaf</text>
</a>
</g>
</g>
<!-- Node1&#45;&gt;Node12 -->
<g id="edge23" class="edge"><title>Node1&#45;&gt;Node12</title>
<path fill="none" stroke="midnightblue" d="M59.6068,-149.178C69.2603,-124.939 98.2456,-61.5414 146,-35.8148 230.677,9.80312 346.477,1.81941 414.547,-8.64555"/>
<polygon fill="midnightblue" stroke="midnightblue" points="414.213,-12.1367 424.642,-10.2699 415.325,-5.22564 414.213,-12.1367"/>
</g>
<!-- Node13 -->
<g id="node13" class="node"><title>Node13</title>
<g id="a_node13"><a xlink:href="../../d6/d95/classparser_1_1_parser.html#a447c473b62ba23b7c144df9bb38a9a41" target="_top" xlink:title="parser.Parser.getNodeFor\lCommand">
<polygon fill="white" stroke="black" points="170,-45.8148 170,-75.8148 308,-75.8148 308,-45.8148 170,-45.8148"/>
<text text-anchor="start" x="178" y="-63.8148" font-family="Helvetica,sans-Serif" font-size="10.00">parser.Parser.getNodeFor</text>
<text text-anchor="middle" x="239" y="-52.8148" font-family="Helvetica,sans-Serif" font-size="10.00">Command</text>
</a>
</g>
</g>
<!-- Node1&#45;&gt;Node13 -->
<g id="edge15" class="edge"><title>Node1&#45;&gt;Node13</title>
<path fill="none" stroke="midnightblue" d="M64.9894,-149.077C80.1601,-133.228 112.483,-101.91 146,-84.8148 150.57,-82.4839 155.386,-80.3652 160.321,-78.4416"/>
<polygon fill="midnightblue" stroke="midnightblue" points="161.706,-81.663 169.926,-74.9783 159.331,-75.078 161.706,-81.663"/>
</g>
<!-- Node14 -->
<g id="node14" class="node"><title>Node14</title>
<g id="a_node14"><a xlink:href="../../d3/dcc/classparser_1_1_node.html#a066da2b478008f39a02440d7afceb9ee" target="_top" xlink:title="parser.Node.insertChild">
<polygon fill="white" stroke="black" points="175,-231.315 175,-250.315 303,-250.315 303,-231.315 175,-231.315"/>
<text text-anchor="middle" x="239" y="-238.315" font-family="Helvetica,sans-Serif" font-size="10.00">parser.Node.insertChild</text>
</a>
</g>
</g>
<!-- Node1&#45;&gt;Node14 -->
<g id="edge21" class="edge"><title>Node1&#45;&gt;Node14</title>
<path fill="none" stroke="midnightblue" d="M68.0983,-168.413C84.7395,-181.179 116.046,-203.659 146,-216.815 156.637,-221.486 168.38,-225.403 179.815,-228.628"/>
<polygon fill="midnightblue" stroke="midnightblue" points="179.186,-232.082 189.75,-231.284 180.994,-225.32 179.186,-232.082"/>
</g>
<!-- Node3 -->
<g id="node3" class="node"><title>Node3</title>
<g id="a_node3"><a xlink:href="../../d9/d1b/classcommand_1_1_command_factory.html#abd97ea3e22afc09e07ed1d4fd039d11f" target="_top" xlink:title="command.CommandFactory.reflectCMD">
<polygon fill="white" stroke="black" points="368.5,-305.315 368.5,-324.315 575.5,-324.315 575.5,-305.315 368.5,-305.315"/>
<text text-anchor="middle" x="472" y="-312.315" font-family="Helvetica,sans-Serif" font-size="10.00">command.CommandFactory.reflectCMD</text>
</a>
</g>
</g>
<!-- Node2&#45;&gt;Node3 -->
<g id="edge2" class="edge"><title>Node2&#45;&gt;Node3</title>
<path fill="none" stroke="midnightblue" d="M331.629,-296.715C350.122,-299.116 369.469,-301.629 387.66,-303.991"/>
<polygon fill="midnightblue" stroke="midnightblue" points="387.266,-307.47 397.634,-305.287 388.168,-300.528 387.266,-307.47"/>
</g>
<!-- Node4 -->
<g id="node4" class="node"><title>Node4</title>
<g id="a_node4"><a xlink:href="../../d9/d1b/classcommand_1_1_command_factory.html#a947fdc151e857ea74564d0d1fe268246" target="_top" xlink:title="command.CommandFactory.translate\lCommand">
<polygon fill="white" stroke="black" points="373.5,-255.815 373.5,-285.815 570.5,-285.815 570.5,-255.815 373.5,-255.815"/>
<text text-anchor="start" x="381.5" y="-273.815" font-family="Helvetica,sans-Serif" font-size="10.00">command.CommandFactory.translate</text>
<text text-anchor="middle" x="472" y="-262.815" font-family="Helvetica,sans-Serif" font-size="10.00">Command</text>
</a>
</g>
</g>
<!-- Node2&#45;&gt;Node4 -->
<g id="edge3" class="edge"><title>Node2&#45;&gt;Node4</title>
<path fill="none" stroke="midnightblue" d="M331.629,-279.262C342.034,-278.631 352.709,-277.984 363.296,-277.342"/>
<polygon fill="midnightblue" stroke="midnightblue" points="363.639,-280.828 373.409,-276.729 363.215,-273.841 363.639,-280.828"/>
</g>
<!-- Node6 -->
<g id="node6" class="node"><title>Node6</title>
<g id="a_node6"><a xlink:href="../../d3/dcc/classparser_1_1_node.html#aa67bc0d39227232943abec9b95b23235" target="_top" xlink:title="parser.Node.getChild1">
<polygon fill="white" stroke="black" points="410.5,-86.3148 410.5,-105.315 533.5,-105.315 533.5,-86.3148 410.5,-86.3148"/>
<text text-anchor="middle" x="472" y="-93.3148" font-family="Helvetica,sans-Serif" font-size="10.00">parser.Node.getChild1</text>
</a>
</g>
</g>
<!-- Node5&#45;&gt;Node6 -->
<g id="edge5" class="edge"><title>Node5&#45;&gt;Node6</title>
<path fill="none" stroke="midnightblue" d="M302.961,-143.695C312.799,-140.765 322.761,-137.457 332,-133.815 348.831,-127.18 350.908,-120.746 368,-114.815 378.259,-111.255 389.337,-108.322 400.293,-105.917"/>
<polygon fill="midnightblue" stroke="midnightblue" points="401.206,-109.302 410.293,-103.854 399.792,-102.446 401.206,-109.302"/>
</g>
<!-- Node7 -->
<g id="node7" class="node"><title>Node7</title>
<g id="a_node7"><a xlink:href="../../d3/dcc/classparser_1_1_node.html#a0f13775acc62af77cdde90dbeaf26bbc" target="_top" xlink:title="parser.Node.getChild2">
<polygon fill="white" stroke="black" points="410.5,-124.315 410.5,-143.315 533.5,-143.315 533.5,-124.315 410.5,-124.315"/>
<text text-anchor="middle" x="472" y="-131.315" font-family="Helvetica,sans-Serif" font-size="10.00">parser.Node.getChild2</text>
</a>
</g>
</g>
<!-- Node5&#45;&gt;Node7 -->
<g id="edge6" class="edge"><title>Node5&#45;&gt;Node7</title>
<path fill="none" stroke="midnightblue" d="M327.002,-149.399C351.177,-146.783 377.13,-143.974 400.251,-141.472"/>
<polygon fill="midnightblue" stroke="midnightblue" points="400.75,-144.938 410.315,-140.382 399.997,-137.979 400.75,-144.938"/>
</g>
<!-- Node5&#45;&gt;Node8 -->
<g id="edge7" class="edge"><title>Node5&#45;&gt;Node8</title>
<path fill="none" stroke="midnightblue" d="M296.849,-173.838C318.984,-179.474 344.608,-185.738 368,-190.815 380.199,-193.462 393.262,-196.056 405.848,-198.434"/>
<polygon fill="midnightblue" stroke="midnightblue" points="405.343,-201.9 415.815,-200.293 406.626,-195.019 405.343,-201.9"/>
</g>
<!-- Node9 -->
<g id="node9" class="node"><title>Node9</title>
<g id="a_node9"><a xlink:href="../../d3/dcc/classparser_1_1_node.html#a6bbc0c61aaa261077eb87cfc4e2b45dc" target="_top" xlink:title="parser.Node.numChildren">
<polygon fill="white" stroke="black" points="402.5,-162.315 402.5,-181.315 541.5,-181.315 541.5,-162.315 402.5,-162.315"/>
<text text-anchor="middle" x="472" y="-169.315" font-family="Helvetica,sans-Serif" font-size="10.00">parser.Node.numChildren</text>
</a>
</g>
</g>
<!-- Node5&#45;&gt;Node9 -->
<g id="edge8" class="edge"><title>Node5&#45;&gt;Node9</title>
<path fill="none" stroke="midnightblue" d="M327.002,-163.711C348.434,-164.917 371.263,-166.202 392.278,-167.385"/>
<polygon fill="midnightblue" stroke="midnightblue" points="392.253,-170.889 402.434,-167.956 392.647,-163.9 392.253,-170.889"/>
</g>
<!-- Node10&#45;&gt;Node6 -->
<g id="edge10" class="edge"><title>Node10&#45;&gt;Node6</title>
<path fill="none" stroke="midnightblue" d="M316.599,-105.172C343.497,-103.542 373.583,-101.719 400.001,-100.118"/>
<polygon fill="midnightblue" stroke="midnightblue" points="400.542,-103.591 410.312,-99.4928 400.119,-96.6043 400.542,-103.591"/>
</g>
<!-- Node10&#45;&gt;Node7 -->
<g id="edge11" class="edge"><title>Node10&#45;&gt;Node7</title>
<path fill="none" stroke="midnightblue" d="M316.599,-117.773C343.616,-120.58 373.849,-123.721 400.352,-126.475"/>
<polygon fill="midnightblue" stroke="midnightblue" points="400.004,-129.957 410.312,-127.51 400.727,-122.995 400.004,-129.957"/>
</g>
<!-- Node10&#45;&gt;Node8 -->
<g id="edge12" class="edge"><title>Node10&#45;&gt;Node8</title>
<path fill="none" stroke="midnightblue" d="M316.884,-124.968C322.228,-127.479 327.336,-130.405 332,-133.815 356.187,-151.5 343.185,-174.022 368,-190.815 378.059,-197.622 389.881,-202.171 401.862,-205.176"/>
<polygon fill="midnightblue" stroke="midnightblue" points="401.413,-208.66 411.927,-207.353 402.893,-201.818 401.413,-208.66"/>
</g>
<!-- Node11 -->
<g id="node11" class="node"><title>Node11</title>
<g id="a_node11"><a xlink:href="../../d3/dcc/classparser_1_1_node.html#ab14db24c0724dec4387e29d513008e2e" target="_top" xlink:title="parser.Node.hasChildren">
<polygon fill="white" stroke="black" points="405,-48.3148 405,-67.3148 539,-67.3148 539,-48.3148 405,-48.3148"/>
<text text-anchor="middle" x="472" y="-55.3148" font-family="Helvetica,sans-Serif" font-size="10.00">parser.Node.hasChildren</text>
</a>
</g>
</g>
<!-- Node10&#45;&gt;Node11 -->
<g id="edge13" class="edge"><title>Node10&#45;&gt;Node11</title>
<path fill="none" stroke="midnightblue" d="M294.926,-94.7555C317.482,-88.8062 343.91,-82.1351 368,-76.8148 380.049,-74.1537 392.947,-71.5684 405.398,-69.2056"/>
<polygon fill="midnightblue" stroke="midnightblue" points="406.077,-72.6395 415.263,-67.3612 404.79,-65.7587 406.077,-72.6395"/>
</g>
<!-- Node10&#45;&gt;Node12 -->
<g id="edge14" class="edge"><title>Node10&#45;&gt;Node12</title>
<path fill="none" stroke="midnightblue" d="M313.242,-94.6727C319.841,-91.9156 326.208,-88.6595 332,-84.8148 353.629,-70.4566 345.794,-52.2642 368,-38.8148 380.203,-31.4239 394.6,-26.7787 408.701,-23.8903"/>
<polygon fill="midnightblue" stroke="midnightblue" points="409.646,-27.2774 418.88,-22.0835 408.423,-20.3851 409.646,-27.2774"/>
</g>
<!-- Node13&#45;&gt;Node6 -->
<g id="edge16" class="edge"><title>Node13&#45;&gt;Node6</title>
<path fill="none" stroke="midnightblue" d="M308.058,-71.1266C337.106,-75.5278 370.999,-80.6632 400.328,-85.1069"/>
<polygon fill="midnightblue" stroke="midnightblue" points="400.085,-88.6099 410.496,-86.6475 401.133,-81.6889 400.085,-88.6099"/>
</g>
<!-- Node13&#45;&gt;Node7 -->
<g id="edge17" class="edge"><title>Node13&#45;&gt;Node7</title>
<path fill="none" stroke="midnightblue" d="M308.099,-74.9307C316.358,-77.6966 324.513,-80.965 332,-84.8148 350.522,-94.3392 349.144,-105.97 368,-114.815 378.123,-119.563 389.325,-123.126 400.504,-125.8"/>
<polygon fill="midnightblue" stroke="midnightblue" points="399.779,-129.224 410.294,-127.928 401.266,-122.384 399.779,-129.224"/>
</g>
<!-- Node13&#45;&gt;Node11 -->
<g id="edge18" class="edge"><title>Node13&#45;&gt;Node11</title>
<path fill="none" stroke="midnightblue" d="M308.058,-59.9309C335.201,-59.5784 366.575,-59.1709 394.502,-58.8083"/>
<polygon fill="midnightblue" stroke="midnightblue" points="394.667,-62.3065 404.621,-58.6768 394.576,-55.3071 394.667,-62.3065"/>
</g>
<!-- Node13&#45;&gt;Node12 -->
<g id="edge19" class="edge"><title>Node13&#45;&gt;Node12</title>
<path fill="none" stroke="midnightblue" d="M308.058,-48.7352C340.002,-43.0656 377.805,-36.3559 408.953,-30.8274"/>
<polygon fill="midnightblue" stroke="midnightblue" points="409.583,-34.2705 418.817,-29.0767 408.359,-27.3782 409.583,-34.2705"/>
</g>
<!-- Node14&#45;&gt;Node8 -->
<g id="edge22" class="edge"><title>Node14&#45;&gt;Node8</title>
<path fill="none" stroke="midnightblue" d="M303.122,-232.344C333.739,-228.235 370.585,-223.29 401.949,-219.081"/>
<polygon fill="midnightblue" stroke="midnightblue" points="402.479,-222.542 411.924,-217.743 401.547,-215.604 402.479,-222.542"/>
</g>
</g>
</svg>
        <g id="navigator" transform="translate(0 0)" fill="#404254">
                <rect fill="#f2f5e9" fill-opacity="0.5" stroke="#606060" stroke-width=".5" x="0" y="0" width="60" height="60"/>
                <use id="zoomplus" xlink:href="#zoomPlus" x="17" y="9" onmousedown="handleZoom(evt,'in')"/>
                <use id="zoomminus" xlink:href="#zoomMin" x="42" y="9" onmousedown="handleZoom(evt,'out')"/>
                <use id="reset" xlink:href="#resetDef" x="30" y="36" onmousedown="handleReset()"/>
                <g id="arrowUp" xlink:href="#dirArrow" transform="translate(30 24)" onmousedown="handlePan(0,-1)">
                  <use xlink:href="#rim" fill="#404040">
                        <set attributeName="fill" to="#808080" begin="arrowUp.mouseover" end="arrowUp.mouseout"/>
                  </use>
                  <path fill="none" stroke="white" stroke-width="1.5" d="M0,-3.0v7 M-2.5,-0.5L0,-3.0L2.5,-0.5"/>
                </g>
                <g id="arrowRight" xlink:href="#dirArrow" transform="rotate(90) translate(36 -43)" onmousedown="handlePan(1,0)">
                  <use xlink:href="#rim" fill="#404040">
                        <set attributeName="fill" to="#808080" begin="arrowRight.mouseover" end="arrowRight.mouseout"/>
                  </use>
                  <path fill="none" stroke="white" stroke-width="1.5" d="M0,-3.0v7 M-2.5,-0.5L0,-3.0L2.5,-0.5"/>
                </g>
                <g id="arrowDown" xlink:href="#dirArrow" transform="rotate(180) translate(-30 -48)" onmousedown="handlePan(0,1)">
                  <use xlink:href="#rim" fill="#404040">
                        <set attributeName="fill" to="#808080" begin="arrowDown.mouseover" end="arrowDown.mouseout"/>
                  </use>
                  <path fill="none" stroke="white" stroke-width="1.5" d="M0,-3.0v7 M-2.5,-0.5L0,-3.0L2.5,-0.5"/>
                </g>
                <g id="arrowLeft" xlink:href="#dirArrow" transform="rotate(270) translate(-36 17)" onmousedown="handlePan(-1,0)">
                  <use xlink:href="#rim" fill="#404040">
                        <set attributeName="fill" to="#808080" begin="arrowLeft.mouseover" end="arrowLeft.mouseout"/>
                  </use>
                  <path fill="none" stroke="white" stroke-width="1.5" d="M0,-3.0v7 M-2.5,-0.5L0,-3.0L2.5,-0.5"/>
                </g>
        </g>
        <svg viewBox="0 0 15 15" width="100%" height="30px" preserveAspectRatio="xMaxYMin meet">
         <g id="arrow_out" transform="scale(0.3 0.3)">
          <a xlink:href="classparser_1_1_parser_a4ecbffc246c3add017c4720eed4c6da9_cgraph_org.svg" target="_base">
           <rect id="button" ry="5" rx="5" y="6" x="6" height="38" width="38"
                fill="#f2f5e9" fill-opacity="0.5" stroke="#606060" stroke-width="1.0"/>
           <path id="arrow"
             d="M 11.500037,31.436501 C 11.940474,20.09759 22.043105,11.32322 32.158766,21.979434 L 37.068811,17.246167 C 37.068811,17.246167 37.088388,32 37.088388,32 L 22.160133,31.978069 C 22.160133,31.978069 26.997745,27.140456 26.997745,27.140456 C 18.528582,18.264221 13.291696,25.230495 11.500037,31.436501 z"
             style="fill:#404040;"/>
          </a>
         </g>
        </svg>
</svg>
