<?xml version="1.0" encoding="UTF-8" standalone="no"?>
<!DOCTYPE svg PUBLIC "-//W3C//DTD SVG 1.1//EN"
 "http://www.w3.org/Graphics/SVG/1.1/DTD/svg11.dtd">
<!-- Generated by graphviz version 2.36.0 (20140111.2315)
 -->
<!-- Title: command.ForwardCommand.run Pages: 1 -->
<svg width="468pt" height="28pt"
 viewBox="0.00 0.00 468.00 28.00" xmlns="http://www.w3.org/2000/svg" xmlns:xlink="http://www.w3.org/1999/xlink">
<g id="graph0" class="graph" transform="scale(1 1) rotate(0) translate(4 24)">
<title>command.ForwardCommand.run</title>
<polygon fill="white" stroke="none" points="-4,4 -4,-24 464,-24 464,4 -4,4"/>
<!-- Node1 -->
<g id="node1" class="node"><title>Node1</title>
<polygon fill="#bfbfbf" stroke="black" points="0.5,-0.5 0.5,-19.5 175.5,-19.5 175.5,-0.5 0.5,-0.5"/>
<text text-anchor="middle" x="88" y="-7.5" font-family="Helvetica,sans-Serif" font-size="10.00">command.ForwardCommand.run</text>
</g>
<!-- Node2 -->
<g id="node2" class="node"><title>Node2</title>
<g id="a_node2"><a xlink:href="../../df/dcb/classturtle_1_1_turtle.html#a5384ad2c4daaf999e4b91b90c5d3a8f0" target="_top" xlink:title="turtle.Turtle.move">
<polygon fill="white" stroke="black" points="212.5,-0.5 212.5,-19.5 313.5,-19.5 313.5,-0.5 212.5,-0.5"/>
<text text-anchor="middle" x="263" y="-7.5" font-family="Helvetica,sans-Serif" font-size="10.00">turtle.Turtle.move</text>
</a>
</g>
</g>
<!-- Node1&#45;&gt;Node2 -->
<g id="edge1" class="edge"><title>Node1&#45;&gt;Node2</title>
<path fill="none" stroke="midnightblue" d="M175.753,-10C184.624,-10 193.491,-10 201.982,-10"/>
<polygon fill="midnightblue" stroke="midnightblue" points="202.126,-13.5001 212.126,-10 202.126,-6.5001 202.126,-13.5001"/>
</g>
<!-- Node3 -->
<g id="node3" class="node"><title>Node3</title>
<g id="a_node3"><a xlink:href="../../df/dcb/classturtle_1_1_turtle.html#a837c1417ab4483a1c77103074a4d3f6a" target="_top" xlink:title="turtle.Turtle.radians">
<polygon fill="white" stroke="black" points="350.5,-0.5 350.5,-19.5 459.5,-19.5 459.5,-0.5 350.5,-0.5"/>
<text text-anchor="middle" x="405" y="-7.5" font-family="Helvetica,sans-Serif" font-size="10.00">turtle.Turtle.radians</text>
</a>
</g>
</g>
<!-- Node2&#45;&gt;Node3 -->
<g id="edge2" class="edge"><title>Node2&#45;&gt;Node3</title>
<path fill="none" stroke="midnightblue" d="M313.753,-10C322.226,-10 331.133,-10 339.914,-10"/>
<polygon fill="midnightblue" stroke="midnightblue" points="340.132,-13.5001 350.132,-10 340.132,-6.5001 340.132,-13.5001"/>
</g>
</g>
</svg>
