<?xml version="1.0" encoding="UTF-8" standalone="no"?>
<!DOCTYPE svg PUBLIC "-//W3C//DTD SVG 1.1//EN"
 "http://www.w3.org/Graphics/SVG/1.1/DTD/svg11.dtd">
<!-- Generated by graphviz version 2.36.0 (20140111.2315)
 -->
<!-- Title: userInterface.CommandSaver Pages: 1 -->
<svg width="375pt" height="96pt"
 viewBox="0.00 0.00 375.00 96.00" xmlns="http://www.w3.org/2000/svg" xmlns:xlink="http://www.w3.org/1999/xlink">
<g id="graph0" class="graph" transform="scale(1 1) rotate(0) translate(4 92)">
<title>userInterface.CommandSaver</title>
<polygon fill="white" stroke="none" points="-4,4 -4,-92 371,-92 371,4 -4,4"/>
<!-- Node1 -->
<g id="node1" class="node"><title>Node1</title>
<polygon fill="#bfbfbf" stroke="black" points="103.5,-0.5 103.5,-19.5 264.5,-19.5 264.5,-0.5 103.5,-0.5"/>
<text text-anchor="middle" x="184" y="-7.5" font-family="Helvetica,sans-Serif" font-size="10.00">userInterface.CommandSaver</text>
</g>
<!-- Node2 -->
<g id="node2" class="node"><title>Node2</title>
<polygon fill="white" stroke="#bfbfbf" points="-0.5,-68.5 -0.5,-87.5 40.5,-87.5 40.5,-68.5 -0.5,-68.5"/>
<text text-anchor="middle" x="20" y="-75.5" font-family="Helvetica,sans-Serif" font-size="10.00">VBox</text>
</g>
<!-- Node2&#45;&gt;Node1 -->
<g id="edge1" class="edge"><title>Node2&#45;&gt;Node1</title>
<path fill="none" stroke="#9a32cd" stroke-dasharray="5,2" d="M25.7948,-58.8414C29.0957,-51.2955 34.0029,-43.1203 41,-38 52.0101,-29.9431 79.1813,-23.8788 106.918,-19.5598"/>
<polygon fill="#9a32cd" stroke="#9a32cd" points="22.4471,-57.8024 22.2438,-68.3953 29.0085,-60.2412 22.4471,-57.8024"/>
<text text-anchor="middle" x="97" y="-41.5" font-family="Helvetica,sans-Serif" font-size="10.00"> saveCommandWindow</text>
</g>
<!-- Node3 -->
<g id="node3" class="node"><title>Node3</title>
<polygon fill="white" stroke="#bfbfbf" points="129.5,-68.5 129.5,-87.5 174.5,-87.5 174.5,-68.5 129.5,-68.5"/>
<text text-anchor="middle" x="152" y="-75.5" font-family="Helvetica,sans-Serif" font-size="10.00">Stage</text>
</g>
<!-- Node3&#45;&gt;Node1 -->
<g id="edge2" class="edge"><title>Node3&#45;&gt;Node1</title>
<path fill="none" stroke="#9a32cd" stroke-dasharray="5,2" d="M154.476,-58.1062C155.823,-51.5069 157.879,-44.2034 161,-38 164.432,-31.1793 169.936,-24.6314 174.699,-19.6923"/>
<polygon fill="#9a32cd" stroke="#9a32cd" points="150.981,-57.7945 152.817,-68.2291 157.888,-58.927 150.981,-57.7945"/>
<text text-anchor="middle" x="176.5" y="-41.5" font-family="Helvetica,sans-Serif" font-size="10.00"> stage</text>
</g>
<!-- Node4 -->
<g id="node4" class="node"><title>Node4</title>
<polygon fill="white" stroke="#bfbfbf" points="192.5,-68.5 192.5,-87.5 241.5,-87.5 241.5,-68.5 192.5,-68.5"/>
<text text-anchor="middle" x="217" y="-75.5" font-family="Helvetica,sans-Serif" font-size="10.00">Button</text>
</g>
<!-- Node4&#45;&gt;Node1 -->
<g id="edge3" class="edge"><title>Node4&#45;&gt;Node1</title>
<path fill="none" stroke="#9a32cd" stroke-dasharray="5,2" d="M208.093,-59.1859C201.726,-46.4523 193.43,-29.8607 188.421,-19.8411"/>
<polygon fill="#9a32cd" stroke="#9a32cd" points="205.083,-60.9926 212.686,-68.3717 211.344,-57.8621 205.083,-60.9926"/>
<text text-anchor="middle" x="233" y="-41.5" font-family="Helvetica,sans-Serif" font-size="10.00"> saveButton</text>
</g>
<!-- Node5 -->
<g id="node5" class="node"><title>Node5</title>
<polygon fill="white" stroke="#bfbfbf" points="266,-68.5 266,-87.5 324,-87.5 324,-68.5 266,-68.5"/>
<text text-anchor="middle" x="295" y="-75.5" font-family="Helvetica,sans-Serif" font-size="10.00">TextArea</text>
</g>
<!-- Node5&#45;&gt;Node1 -->
<g id="edge4" class="edge"><title>Node5&#45;&gt;Node1</title>
<path fill="none" stroke="#9a32cd" stroke-dasharray="5,2" d="M285.483,-59.7385C280.542,-52.1471 273.882,-43.6838 266,-38 254.329,-29.5843 239.88,-23.6835 226.378,-19.5949"/>
<polygon fill="#9a32cd" stroke="#9a32cd" points="282.484,-61.5417 290.626,-68.3206 288.488,-57.9436 282.484,-61.5417"/>
<text text-anchor="middle" x="323" y="-41.5" font-family="Helvetica,sans-Serif" font-size="10.00"> commandWindow</text>
</g>
</g>
</svg>
