<?xml version="1.0" encoding="UTF-8" standalone="no"?>
<!DOCTYPE svg PUBLIC "-//W3C//DTD SVG 1.1//EN"
 "http://www.w3.org/Graphics/SVG/1.1/DTD/svg11.dtd">
<!-- Generated by graphviz version 2.36.0 (20140111.2315)
 -->
<!-- Title: worldController.WorldController Pages: 1 -->
<!--zoomable 752 -->
<svg id="main" version="1.1" xmlns="http://www.w3.org/2000/svg" xmlns:xlink="http://www.w3.org/1999/xlink" xml:space="preserve" onload="init(evt)">
<style type="text/css"><![CDATA[
.edge:hover path { stroke: red; }
.edge:hover polygon { stroke: red; fill: red; }
]]></style>
<script type="text/javascript"><![CDATA[
var edges = document.getElementsByTagName('g');
if (edges && edges.length) {
  for (var i=0;i<edges.length;i++) {
    if (edges[i].id.substr(0,4)=='edge') {
      edges[i].setAttribute('class','edge');
    }
  }
}
]]></script>
        <defs>
                <circle id="rim" cx="0" cy="0" r="7"/>
                <circle id="rim2" cx="0" cy="0" r="3.5"/>
                <g id="zoomPlus">
                        <use xlink:href="#rim" fill="#404040">
                                <set attributeName="fill" to="#808080" begin="zoomplus.mouseover" end="zoomplus.mouseout"/>
                        </use>
                        <path d="M-4,0h8M0,-4v8" fill="none" stroke="white" stroke-width="1.5" pointer-events="none"/>
                </g>
                <g id="zoomMin">
                        <use xlink:href="#rim" fill="#404040">
                                <set attributeName="fill" to="#808080" begin="zoomminus.mouseover" end="zoomminus.mouseout"/>
                        </use>
                        <path d="M-4,0h8" fill="none" stroke="white" stroke-width="1.5" pointer-events="none"/>
                </g>
                <g id="dirArrow">
                        <path fill="none" stroke="white" stroke-width="1.5" d="M0,-3.0v7 M-2.5,-0.5L0,-3.0L2.5,-0.5"/>
                </g>
               <g id="resetDef">
                       <use xlink:href="#rim2" fill="#404040">
                               <set attributeName="fill" to="#808080" begin="reset.mouseover" end="reset.mouseout"/>
                       </use>
               </g>
        </defs>

<script type="text/javascript">
var viewWidth = 1472;
var viewHeight = 752;
var sectionId = 'dynsection-0';
</script>
<script xlink:href="../../svgpan.js"/>
<svg id="graph" class="graph">
<g id="viewport">
<title>worldController.WorldController</title>
<polygon fill="white" stroke="none" points="-4,4 -4,-748 1468,-748 1468,4 -4,4"/>
<!-- Node1 -->
<g id="node1" class="node"><title>Node1</title>
<polygon fill="#bfbfbf" stroke="black" points="1006,-513.5 1006,-532.5 1168,-532.5 1168,-513.5 1006,-513.5"/>
<text text-anchor="middle" x="1087" y="-520.5" font-family="Helvetica,sans-Serif" font-size="10.00">worldController.WorldController</text>
</g>
<!-- Node3 -->
<g id="node3" class="node"><title>Node3</title>
<g id="a_node3"><a xlink:href="../../dd/d8e/classuser_interface_1_1_user_interface.html" target="_top" xlink:title="userInterface.UserInterface">
<polygon fill="white" stroke="black" points="1316.5,-380.5 1316.5,-399.5 1463.5,-399.5 1463.5,-380.5 1316.5,-380.5"/>
<text text-anchor="middle" x="1390" y="-387.5" font-family="Helvetica,sans-Serif" font-size="10.00">userInterface.UserInterface</text>
</a>
</g>
</g>
<!-- Node1&#45;&gt;Node3 -->
<g id="edge18" class="edge"><title>Node1&#45;&gt;Node3</title>
<path fill="none" stroke="#9a32cd" stroke-dasharray="5,2" d="M1178.47,-520.808C1217.17,-516.696 1261.7,-507.539 1298,-488 1338.28,-466.321 1370.45,-419.974 1383.15,-399.762"/>
<polygon fill="#9a32cd" stroke="#9a32cd" points="1177.86,-517.351 1168.24,-521.794 1178.53,-524.318 1177.86,-517.351"/>
<text text-anchor="middle" x="1242" y="-523" font-family="Helvetica,sans-Serif" font-size="10.00"> myController</text>
</g>
<!-- Node2 -->
<g id="node2" class="node"><title>Node2</title>
<polygon fill="white" stroke="#bfbfbf" points="795,-708.5 795,-727.5 851,-727.5 851,-708.5 795,-708.5"/>
<text text-anchor="middle" x="823" y="-715.5" font-family="Helvetica,sans-Serif" font-size="10.00">Timeline</text>
</g>
<!-- Node2&#45;&gt;Node1 -->
<g id="edge1" class="edge"><title>Node2&#45;&gt;Node1</title>
<path fill="none" stroke="#9a32cd" stroke-dasharray="5,2" d="M855.871,-704.136C865.158,-699.689 875.175,-694.483 884,-689 964.581,-638.931 1048.23,-559.973 1076.22,-532.668"/>
<polygon fill="#9a32cd" stroke="#9a32cd" points="854.13,-701.085 846.538,-708.476 857.082,-707.433 854.13,-701.085"/>
<text text-anchor="middle" x="945" y="-677" font-family="Helvetica,sans-Serif" font-size="10.00"> myAnimation</text>
</g>
<!-- Node2&#45;&gt;Node3 -->
<g id="edge3" class="edge"><title>Node2&#45;&gt;Node3</title>
<path fill="none" stroke="#9a32cd" stroke-dasharray="5,2" d="M861.146,-724.236C951.288,-737.013 1182.67,-755.274 1298,-630 1363.8,-558.532 1383.52,-434.745 1387.93,-399.57"/>
<polygon fill="#9a32cd" stroke="#9a32cd" points="861.524,-720.753 851.12,-722.753 860.5,-727.678 861.524,-720.753"/>
<text text-anchor="middle" x="1087" y="-736" font-family="Helvetica,sans-Serif" font-size="10.00"> myAnimation</text>
</g>
<!-- Node3&#45;&gt;Node1 -->
<g id="edge2" class="edge"><title>Node3&#45;&gt;Node1</title>
<path fill="none" stroke="#9a32cd" stroke-dasharray="5,2" d="M1369.06,-406.101C1351.37,-419.643 1324.31,-438.573 1298,-450 1251.03,-470.398 1234.31,-460.035 1186,-477 1156.92,-487.213 1124.88,-503.219 1105.61,-513.404"/>
<polygon fill="#9a32cd" stroke="#9a32cd" points="1371.68,-408.494 1377.41,-399.579 1367.37,-402.978 1371.68,-408.494"/>
<text text-anchor="middle" x="1242" y="-480" font-family="Helvetica,sans-Serif" font-size="10.00"> UI</text>
</g>
<!-- Node4 -->
<g id="node4" class="node"><title>Node4</title>
<polygon fill="white" stroke="#bfbfbf" points="775,-660.5 775,-679.5 871,-679.5 871,-660.5 775,-660.5"/>
<text text-anchor="middle" x="823" y="-667.5" font-family="Helvetica,sans-Serif" font-size="10.00">GraphicsContext</text>
</g>
<!-- Node4&#45;&gt;Node1 -->
<g id="edge24" class="edge"><title>Node4&#45;&gt;Node1</title>
<path fill="none" stroke="#9a32cd" stroke-dasharray="5,2" d="M861.993,-656.12C870.004,-651.877 877.874,-646.552 884,-640 898.149,-624.866 886.395,-610.627 902,-597 931.802,-570.975 951.12,-588.329 988,-574 1018.21,-562.261 1051.24,-543.795 1070.21,-532.6"/>
<polygon fill="#9a32cd" stroke="#9a32cd" points="860.469,-652.969 852.975,-660.459 863.503,-659.277 860.469,-652.969"/>
<text text-anchor="middle" x="945" y="-600" font-family="Helvetica,sans-Serif" font-size="10.00"> myGC</text>
</g>
<!-- Node4&#45;&gt;Node3 -->
<g id="edge4" class="edge"><title>Node4&#45;&gt;Node3</title>
<path fill="none" stroke="#9a32cd" stroke-dasharray="5,2" d="M881.512,-675.097C950.851,-679.484 1070.26,-681.387 1168,-654 1231.39,-636.238 1252.85,-630.911 1298,-583 1352.12,-525.576 1379.18,-430.1 1386.74,-399.646"/>
<polygon fill="#9a32cd" stroke="#9a32cd" points="881.451,-671.585 871.238,-674.405 880.981,-678.569 881.451,-671.585"/>
<text text-anchor="middle" x="1087" y="-680" font-family="Helvetica,sans-Serif" font-size="10.00"> myGC</text>
</g>
<!-- Node5 -->
<g id="node5" class="node"><title>Node5</title>
<polygon fill="white" stroke="#bfbfbf" points="17.5,-416.5 17.5,-435.5 110.5,-435.5 110.5,-416.5 17.5,-416.5"/>
<text text-anchor="middle" x="64" y="-423.5" font-family="Helvetica,sans-Serif" font-size="10.00">ResourceBundle</text>
</g>
<!-- Node5&#45;&gt;Node3 -->
<g id="edge5" class="edge"><title>Node5&#45;&gt;Node3</title>
<path fill="none" stroke="#9a32cd" stroke-dasharray="5,2" d="M115.234,-414.327C164.922,-403.813 243.281,-390 312,-390 312,-390 312,-390 1088,-390 1165.99,-390 1255.35,-390 1316.32,-390"/>
<polygon fill="#9a32cd" stroke="#9a32cd" points="114.424,-410.921 105.385,-416.447 115.897,-417.764 114.424,-410.921"/>
<text text-anchor="middle" x="701" y="-393" font-family="Helvetica,sans-Serif" font-size="10.00"> myMenuNames</text>
</g>
<!-- Node29 -->
<g id="node29" class="node"><title>Node29</title>
<g id="a_node29"><a xlink:href="../../d6/d95/classparser_1_1_parser.html" target="_top" xlink:title="parser.Parser">
<polygon fill="white" stroke="black" points="545,-457.5 545,-476.5 625,-476.5 625,-457.5 545,-457.5"/>
<text text-anchor="middle" x="585" y="-464.5" font-family="Helvetica,sans-Serif" font-size="10.00">parser.Parser</text>
</a>
</g>
</g>
<!-- Node5&#45;&gt;Node29 -->
<g id="edge39" class="edge"><title>Node5&#45;&gt;Node29</title>
<path fill="none" stroke="#9a32cd" stroke-dasharray="5,2" d="M91.3408,-440.078C106.792,-447.556 126.964,-456.008 146,-460 290.399,-490.28 467.478,-478.687 544.781,-471.295"/>
<polygon fill="#9a32cd" stroke="#9a32cd" points="92.8915,-436.94 82.3822,-435.596 89.7596,-443.2 92.8915,-436.94"/>
<text text-anchor="middle" x="313" y="-483" font-family="Helvetica,sans-Serif" font-size="10.00"> myResources</text>
</g>
<!-- Node30 -->
<g id="node30" class="node"><title>Node30</title>
<g id="a_node30"><a xlink:href="../../d9/d1b/classcommand_1_1_command_factory.html" target="_top" xlink:title="command.CommandFactory">
<polygon fill="white" stroke="black" points="236.5,-418.5 236.5,-437.5 389.5,-437.5 389.5,-418.5 236.5,-418.5"/>
<text text-anchor="middle" x="313" y="-425.5" font-family="Helvetica,sans-Serif" font-size="10.00">command.CommandFactory</text>
</a>
</g>
</g>
<!-- Node5&#45;&gt;Node30 -->
<g id="edge37" class="edge"><title>Node5&#45;&gt;Node30</title>
<path fill="none" stroke="#9a32cd" stroke-dasharray="5,2" d="M120.866,-426.31C149.847,-426.485 185.827,-426.724 218,-427 223.957,-427.051 230.126,-427.108 236.325,-427.168"/>
<polygon fill="#9a32cd" stroke="#9a32cd" points="120.546,-422.808 110.525,-426.249 120.504,-429.808 120.546,-422.808"/>
<text text-anchor="middle" x="182" y="-452" font-family="Helvetica,sans-Serif" font-size="10.00"> syntax</text>
<text text-anchor="middle" x="182" y="-441" font-family="Helvetica,sans-Serif" font-size="10.00">paramMap</text>
<text text-anchor="middle" x="182" y="-430" font-family="Helvetica,sans-Serif" font-size="10.00">translationMap</text>
</g>
<!-- Node6 -->
<g id="node6" class="node"><title>Node6</title>
<g id="a_node6"><a xlink:href="../../d9/d3d/classuser_interface_1_1_topbar.html" target="_top" xlink:title="userInterface.Topbar">
<polygon fill="white" stroke="black" points="1030,-228.5 1030,-247.5 1144,-247.5 1144,-228.5 1030,-228.5"/>
<text text-anchor="middle" x="1087" y="-235.5" font-family="Helvetica,sans-Serif" font-size="10.00">userInterface.Topbar</text>
</a>
</g>
</g>
<!-- Node6&#45;&gt;Node3 -->
<g id="edge6" class="edge"><title>Node6&#45;&gt;Node3</title>
<path fill="none" stroke="#9a32cd" stroke-dasharray="5,2" d="M1154.31,-232.162C1197.98,-231.4 1254.85,-236.527 1298,-262 1346.13,-290.415 1375.53,-355.402 1385.34,-380.167"/>
<polygon fill="#9a32cd" stroke="#9a32cd" points="1153.97,-228.67 1144.07,-232.451 1154.17,-235.667 1153.97,-228.67"/>
<text text-anchor="middle" x="1242" y="-265" font-family="Helvetica,sans-Serif" font-size="10.00"> myTopbar</text>
</g>
<!-- Node7 -->
<g id="node7" class="node"><title>Node7</title>
<polygon fill="white" stroke="#bfbfbf" points="763,-185.5 763,-204.5 883,-204.5 883,-185.5 763,-185.5"/>
<text text-anchor="middle" x="823" y="-192.5" font-family="Helvetica,sans-Serif" font-size="10.00">ComboBox&lt; String &gt;</text>
</g>
<!-- Node7&#45;&gt;Node6 -->
<g id="edge7" class="edge"><title>Node7&#45;&gt;Node6</title>
<path fill="none" stroke="#9a32cd" stroke-dasharray="5,2" d="M892.2,-206.193C934.999,-213.217 989.512,-222.164 1029.81,-228.779"/>
<polygon fill="#9a32cd" stroke="#9a32cd" points="892.581,-202.709 882.146,-204.543 891.447,-209.617 892.581,-202.709"/>
<text text-anchor="middle" x="945" y="-225" font-family="Helvetica,sans-Serif" font-size="10.00"> languageChoices</text>
</g>
<!-- Node11 -->
<g id="node11" class="node"><title>Node11</title>
<g id="a_node11"><a xlink:href="../../d1/d68/classuser_interface_1_1_sidebar.html" target="_top" xlink:title="userInterface.Sidebar">
<polygon fill="white" stroke="black" points="1027.5,-110.5 1027.5,-129.5 1146.5,-129.5 1146.5,-110.5 1027.5,-110.5"/>
<text text-anchor="middle" x="1087" y="-117.5" font-family="Helvetica,sans-Serif" font-size="10.00">userInterface.Sidebar</text>
</a>
</g>
</g>
<!-- Node7&#45;&gt;Node11 -->
<g id="edge14" class="edge"><title>Node7&#45;&gt;Node11</title>
<path fill="none" stroke="#9a32cd" stroke-dasharray="5,2" d="M852.587,-180.965C867.125,-174.236 885.225,-166.469 902,-161 944.162,-147.254 993.24,-136.573 1030.1,-129.564"/>
<polygon fill="#9a32cd" stroke="#9a32cd" points="850.702,-177.985 843.152,-185.418 853.689,-184.316 850.702,-177.985"/>
<text text-anchor="middle" x="945" y="-197" font-family="Helvetica,sans-Serif" font-size="10.00"> previous</text>
<text text-anchor="middle" x="945" y="-186" font-family="Helvetica,sans-Serif" font-size="10.00">edits</text>
<text text-anchor="middle" x="945" y="-175" font-family="Helvetica,sans-Serif" font-size="10.00">turtles</text>
<text text-anchor="middle" x="945" y="-164" font-family="Helvetica,sans-Serif" font-size="10.00">saved</text>
</g>
<!-- Node8 -->
<g id="node8" class="node"><title>Node8</title>
<polygon fill="white" stroke="#bfbfbf" points="792.5,-319.5 792.5,-338.5 853.5,-338.5 853.5,-319.5 792.5,-319.5"/>
<text text-anchor="middle" x="823" y="-326.5" font-family="Helvetica,sans-Serif" font-size="10.00">Hyperlink</text>
</g>
<!-- Node8&#45;&gt;Node6 -->
<g id="edge8" class="edge"><title>Node8&#45;&gt;Node6</title>
<path fill="none" stroke="#9a32cd" stroke-dasharray="5,2" d="M863.859,-331.032C899.953,-330.786 952.724,-324.966 988,-297 1003.28,-284.889 990.972,-269.418 1006,-257 1012.93,-251.271 1021.3,-247.212 1029.97,-244.346"/>
<polygon fill="#9a32cd" stroke="#9a32cd" points="863.716,-327.531 853.691,-330.958 863.665,-334.531 863.716,-327.531"/>
<text text-anchor="middle" x="945" y="-332" font-family="Helvetica,sans-Serif" font-size="10.00"> myLink</text>
</g>
<!-- Node9 -->
<g id="node9" class="node"><title>Node9</title>
<polygon fill="white" stroke="#bfbfbf" points="788,-281.5 788,-300.5 858,-300.5 858,-281.5 788,-281.5"/>
<text text-anchor="middle" x="823" y="-288.5" font-family="Helvetica,sans-Serif" font-size="10.00">ColorPicker</text>
</g>
<!-- Node9&#45;&gt;Node6 -->
<g id="edge9" class="edge"><title>Node9&#45;&gt;Node6</title>
<path fill="none" stroke="#9a32cd" stroke-dasharray="5,2" d="M868.373,-286.228C901.677,-282.039 948.193,-274.89 988,-264 996.279,-261.735 997.805,-259.553 1006,-257 1017.18,-253.518 1029.4,-250.317 1040.85,-247.575"/>
<polygon fill="#9a32cd" stroke="#9a32cd" points="867.552,-282.802 858.049,-287.486 868.399,-289.751 867.552,-282.802"/>
<text text-anchor="middle" x="945" y="-285" font-family="Helvetica,sans-Serif" font-size="10.00"> myColorChoices</text>
</g>
<!-- Node10 -->
<g id="node10" class="node"><title>Node10</title>
<polygon fill="white" stroke="#bfbfbf" points="802,-243.5 802,-262.5 844,-262.5 844,-243.5 802,-243.5"/>
<text text-anchor="middle" x="823" y="-250.5" font-family="Helvetica,sans-Serif" font-size="10.00">HBox</text>
</g>
<!-- Node10&#45;&gt;Node6 -->
<g id="edge10" class="edge"><title>Node10&#45;&gt;Node6</title>
<path fill="none" stroke="#9a32cd" stroke-dasharray="5,2" d="M854.193,-251.271C897.027,-248.819 976.195,-244.287 1029.97,-241.208"/>
<polygon fill="#9a32cd" stroke="#9a32cd" points="853.907,-247.782 844.124,-251.848 854.307,-254.77 853.907,-247.782"/>
<text text-anchor="middle" x="945" y="-252" font-family="Helvetica,sans-Serif" font-size="10.00"> myHBox</text>
</g>
<!-- Node11&#45;&gt;Node3 -->
<g id="edge11" class="edge"><title>Node11&#45;&gt;Node3</title>
<path fill="none" stroke="#9a32cd" stroke-dasharray="5,2" d="M1135.37,-132.475C1181.59,-146.679 1251.56,-173.825 1298,-218 1349.65,-267.128 1377.98,-352.117 1386.34,-380.479"/>
<polygon fill="#9a32cd" stroke="#9a32cd" points="1136.18,-129.064 1125.59,-129.555 1134.17,-135.771 1136.18,-129.064"/>
<text text-anchor="middle" x="1242" y="-221" font-family="Helvetica,sans-Serif" font-size="10.00"> mySidebar</text>
</g>
<!-- Node12 -->
<g id="node12" class="node"><title>Node12</title>
<polygon fill="white" stroke="#bfbfbf" points="802.5,-76.5 802.5,-95.5 843.5,-95.5 843.5,-76.5 802.5,-76.5"/>
<text text-anchor="middle" x="823" y="-83.5" font-family="Helvetica,sans-Serif" font-size="10.00">VBox</text>
</g>
<!-- Node12&#45;&gt;Node11 -->
<g id="edge12" class="edge"><title>Node12&#45;&gt;Node11</title>
<path fill="none" stroke="#9a32cd" stroke-dasharray="5,2" d="M854.036,-88.819C886.967,-92.021 941.339,-97.6347 988,-104 1001.92,-105.899 1016.91,-108.211 1030.88,-110.479"/>
<polygon fill="#9a32cd" stroke="#9a32cd" points="854.021,-85.3015 843.732,-87.8279 853.351,-92.2693 854.021,-85.3015"/>
<text text-anchor="middle" x="945" y="-107" font-family="Helvetica,sans-Serif" font-size="10.00"> mySidebar</text>
</g>
<!-- Node13 -->
<g id="node13" class="node"><title>Node13</title>
<polygon fill="white" stroke="#bfbfbf" points="790,-38.5 790,-57.5 856,-57.5 856,-38.5 790,-38.5"/>
<text text-anchor="middle" x="823" y="-45.5" font-family="Helvetica,sans-Serif" font-size="10.00">ScrollPane</text>
</g>
<!-- Node13&#45;&gt;Node11 -->
<g id="edge13" class="edge"><title>Node13&#45;&gt;Node11</title>
<path fill="none" stroke="#9a32cd" stroke-dasharray="5,2" d="M866.492,-48.1619C901.36,-50.061 950.859,-56.9411 988,-79 998.862,-85.4513 995.29,-94.2987 1006,-101 1012.53,-105.089 1019.87,-108.298 1027.38,-110.817"/>
<polygon fill="#9a32cd" stroke="#9a32cd" points="866.31,-44.6511 856.17,-47.7212 866.011,-51.6447 866.31,-44.6511"/>
<text text-anchor="middle" x="945" y="-82" font-family="Helvetica,sans-Serif" font-size="10.00"> myResultBox</text>
</g>
<!-- Node14 -->
<g id="node14" class="node"><title>Node14</title>
<polygon fill="white" stroke="#bfbfbf" points="805.5,-0.5 805.5,-19.5 840.5,-19.5 840.5,-0.5 805.5,-0.5"/>
<text text-anchor="middle" x="823" y="-7.5" font-family="Helvetica,sans-Serif" font-size="10.00">Text</text>
</g>
<!-- Node14&#45;&gt;Node11 -->
<g id="edge15" class="edge"><title>Node14&#45;&gt;Node11</title>
<path fill="none" stroke="#9a32cd" stroke-dasharray="5,2" d="M850.787,-6.35604C886.638,-3.0734 950.095,-3.08526 988,-37 1010.02,-56.7025 984.683,-80.5389 1006,-101 1011.97,-106.733 1019.35,-110.844 1027.18,-113.773"/>
<polygon fill="#9a32cd" stroke="#9a32cd" points="850.176,-2.90138 840.605,-7.44667 850.921,-9.86156 850.176,-2.90138"/>
<text text-anchor="middle" x="945" y="-40" font-family="Helvetica,sans-Serif" font-size="10.00"> myResults</text>
</g>
<!-- Node15 -->
<g id="node15" class="node"><title>Node15</title>
<polygon fill="white" stroke="#bfbfbf" points="762,-115 762,-145 884,-145 884,-115 762,-115"/>
<text text-anchor="start" x="770" y="-133" font-family="Helvetica,sans-Serif" font-size="10.00">ArrayList&lt; ComboBox</text>
<text text-anchor="middle" x="823" y="-122" font-family="Helvetica,sans-Serif" font-size="10.00">&lt; String &gt; &gt;</text>
</g>
<!-- Node15&#45;&gt;Node11 -->
<g id="edge16" class="edge"><title>Node15&#45;&gt;Node11</title>
<path fill="none" stroke="#9a32cd" stroke-dasharray="5,2" d="M894.389,-121.522C896.957,-121.326 899.5,-121.151 902,-121 943.772,-118.484 990.975,-118.281 1027.11,-118.683"/>
<polygon fill="#9a32cd" stroke="#9a32cd" points="894.078,-118.035 884.41,-122.369 894.67,-125.01 894.078,-118.035"/>
<text text-anchor="middle" x="945" y="-124" font-family="Helvetica,sans-Serif" font-size="10.00"> boxes</text>
</g>
<!-- Node16 -->
<g id="node16" class="node"><title>Node16</title>
<polygon fill="white" stroke="#bfbfbf" points="1062.5,-342.5 1062.5,-361.5 1111.5,-361.5 1111.5,-342.5 1062.5,-342.5"/>
<text text-anchor="middle" x="1087" y="-349.5" font-family="Helvetica,sans-Serif" font-size="10.00">Button</text>
</g>
<!-- Node16&#45;&gt;Node3 -->
<g id="edge17" class="edge"><title>Node16&#45;&gt;Node3</title>
<path fill="none" stroke="#9a32cd" stroke-dasharray="5,2" d="M1121.96,-351.958C1163.69,-352.398 1236.51,-354.764 1298,-365 1319.17,-368.525 1342.5,-374.988 1360.24,-380.46"/>
<polygon fill="#9a32cd" stroke="#9a32cd" points="1121.83,-348.457 1111.8,-351.883 1121.77,-355.457 1121.83,-348.457"/>
<text text-anchor="middle" x="1242" y="-368" font-family="Helvetica,sans-Serif" font-size="10.00"> commandSaverButton</text>
</g>
<!-- Node17 -->
<g id="node17" class="node"><title>Node17</title>
<polygon fill="white" stroke="#bfbfbf" points="1063.5,-304.5 1063.5,-323.5 1110.5,-323.5 1110.5,-304.5 1063.5,-304.5"/>
<text text-anchor="middle" x="1087" y="-311.5" font-family="Helvetica,sans-Serif" font-size="10.00">Scene</text>
</g>
<!-- Node17&#45;&gt;Node3 -->
<g id="edge19" class="edge"><title>Node17&#45;&gt;Node3</title>
<path fill="none" stroke="#9a32cd" stroke-dasharray="5,2" d="M1120.88,-314.261C1162.93,-315.448 1237.55,-320.449 1298,-340 1327.5,-349.541 1358.44,-368.832 1375.57,-380.465"/>
<polygon fill="#9a32cd" stroke="#9a32cd" points="1120.75,-310.757 1110.67,-314.03 1120.59,-317.755 1120.75,-310.757"/>
<text text-anchor="middle" x="1242" y="-343" font-family="Helvetica,sans-Serif" font-size="10.00"> myScene</text>
</g>
<!-- Node18 -->
<g id="node18" class="node"><title>Node18</title>
<polygon fill="white" stroke="#bfbfbf" points="1058,-266.5 1058,-285.5 1116,-285.5 1116,-266.5 1058,-266.5"/>
<text text-anchor="middle" x="1087" y="-273.5" font-family="Helvetica,sans-Serif" font-size="10.00">TextArea</text>
</g>
<!-- Node18&#45;&gt;Node3 -->
<g id="edge20" class="edge"><title>Node18&#45;&gt;Node3</title>
<path fill="none" stroke="#9a32cd" stroke-dasharray="5,2" d="M1126.23,-274.217C1169.9,-273.696 1242.48,-277.534 1298,-304 1335.87,-322.054 1368.36,-361.766 1382.06,-380.219"/>
<polygon fill="#9a32cd" stroke="#9a32cd" points="1125.96,-270.722 1116.04,-274.425 1126.11,-277.72 1125.96,-270.722"/>
<text text-anchor="middle" x="1242" y="-307" font-family="Helvetica,sans-Serif" font-size="10.00"> myCommandWindow</text>
</g>
<!-- Node19 -->
<g id="node19" class="node"><title>Node19</title>
<polygon fill="white" stroke="#bfbfbf" points="789.5,-611.5 789.5,-630.5 856.5,-630.5 856.5,-611.5 789.5,-611.5"/>
<text text-anchor="middle" x="823" y="-618.5" font-family="Helvetica,sans-Serif" font-size="10.00">StackPane</text>
</g>
<!-- Node19&#45;&gt;Node1 -->
<g id="edge31" class="edge"><title>Node19&#45;&gt;Node1</title>
<path fill="none" stroke="#9a32cd" stroke-dasharray="5,2" d="M843.65,-604.881C862.464,-589.731 889.744,-568.572 902,-563 924.468,-552.785 984.447,-540.704 1029.87,-532.512"/>
<polygon fill="#9a32cd" stroke="#9a32cd" points="841.246,-602.324 835.685,-611.342 845.656,-607.76 841.246,-602.324"/>
<text text-anchor="middle" x="945" y="-566" font-family="Helvetica,sans-Serif" font-size="10.00"> myPane</text>
</g>
<!-- Node19&#45;&gt;Node3 -->
<g id="edge21" class="edge"><title>Node19&#45;&gt;Node3</title>
<path fill="none" stroke="#9a32cd" stroke-dasharray="5,2" d="M861.887,-633.345C874.504,-636.877 888.726,-640.244 902,-642 939.892,-647.012 950.304,-648.323 988,-642 1131.75,-617.89 1183.88,-625.665 1298,-535 1346.17,-496.731 1375.94,-425.546 1385.57,-399.697"/>
<polygon fill="#9a32cd" stroke="#9a32cd" points="862.742,-629.948 852.162,-630.504 860.779,-636.668 862.742,-629.948"/>
<text text-anchor="middle" x="1087" y="-642" font-family="Helvetica,sans-Serif" font-size="10.00"> canvasPane</text>
</g>
<!-- Node20 -->
<g id="node20" class="node"><title>Node20</title>
<polygon fill="white" stroke="#bfbfbf" points="797,-440.5 797,-459.5 849,-459.5 849,-440.5 797,-440.5"/>
<text text-anchor="middle" x="823" y="-447.5" font-family="Helvetica,sans-Serif" font-size="10.00">Canvas</text>
</g>
<!-- Node20&#45;&gt;Node1 -->
<g id="edge32" class="edge"><title>Node20&#45;&gt;Node1</title>
<path fill="none" stroke="#9a32cd" stroke-dasharray="5,2" d="M859.243,-455.839C892.734,-461.782 944.325,-471.963 988,-485 1014.75,-492.986 1044.53,-505 1064.17,-513.374"/>
<polygon fill="#9a32cd" stroke="#9a32cd" points="859.491,-452.33 849.039,-454.06 858.289,-459.226 859.491,-452.33"/>
<text text-anchor="middle" x="945" y="-488" font-family="Helvetica,sans-Serif" font-size="10.00"> myCanvas</text>
</g>
<!-- Node20&#45;&gt;Node3 -->
<g id="edge22" class="edge"><title>Node20&#45;&gt;Node3</title>
<path fill="none" stroke="#9a32cd" stroke-dasharray="5,2" d="M859.593,-447.23C938.618,-440.931 1134.64,-424.477 1298,-404 1308.47,-402.688 1319.59,-401.122 1330.33,-399.52"/>
<polygon fill="#9a32cd" stroke="#9a32cd" points="858.926,-443.772 849.234,-448.051 859.48,-450.75 858.926,-443.772"/>
<text text-anchor="middle" x="1087" y="-438" font-family="Helvetica,sans-Serif" font-size="10.00"> myCanvas</text>
</g>
<!-- Node21 -->
<g id="node21" class="node"><title>Node21</title>
<polygon fill="white" stroke="#bfbfbf" points="1051,-72.5 1051,-91.5 1123,-91.5 1123,-72.5 1051,-72.5"/>
<text text-anchor="middle" x="1087" y="-79.5" font-family="Helvetica,sans-Serif" font-size="10.00">BorderPane</text>
</g>
<!-- Node21&#45;&gt;Node3 -->
<g id="edge23" class="edge"><title>Node21&#45;&gt;Node3</title>
<path fill="none" stroke="#9a32cd" stroke-dasharray="5,2" d="M1133.41,-81.7455C1180.36,-83.9256 1252.97,-94.4823 1298,-136 1373.76,-205.858 1386.51,-343.233 1388.6,-380.488"/>
<polygon fill="#9a32cd" stroke="#9a32cd" points="1133.34,-78.2409 1123.22,-81.3848 1133.09,-85.2365 1133.34,-78.2409"/>
<text text-anchor="middle" x="1242" y="-139" font-family="Helvetica,sans-Serif" font-size="10.00"> myRoot</text>
</g>
<!-- Node22 -->
<g id="node22" class="node"><title>Node22</title>
<g id="a_node22"><a xlink:href="../../df/dcb/classturtle_1_1_turtle.html" target="_top" xlink:title="turtle.Turtle">
<polygon fill="white" stroke="black" points="549.5,-598.5 549.5,-617.5 620.5,-617.5 620.5,-598.5 549.5,-598.5"/>
<text text-anchor="middle" x="585" y="-605.5" font-family="Helvetica,sans-Serif" font-size="10.00">turtle.Turtle</text>
</a>
</g>
</g>
<!-- Node22&#45;&gt;Node1 -->
<g id="edge25" class="edge"><title>Node22&#45;&gt;Node1</title>
<path fill="none" stroke="#9a32cd" stroke-dasharray="5,2" d="M630.939,-597.358C691.994,-583.22 804.708,-558.259 902,-543 935.808,-537.698 973.331,-533.346 1005.63,-530.071"/>
<polygon fill="#9a32cd" stroke="#9a32cd" points="629.821,-594.024 620.874,-599.699 631.407,-600.842 629.821,-594.024"/>
<text text-anchor="middle" x="823" y="-571" font-family="Helvetica,sans-Serif" font-size="10.00"> myTurtle</text>
</g>
<!-- Node28 -->
<g id="node28" class="node"><title>Node28</title>
<g id="a_node28"><a xlink:href="../../d9/dd0/classworld_1_1_world.html" target="_top" xlink:title="world.World">
<polygon fill="white" stroke="black" points="788,-491.5 788,-510.5 858,-510.5 858,-491.5 788,-491.5"/>
<text text-anchor="middle" x="823" y="-498.5" font-family="Helvetica,sans-Serif" font-size="10.00">world.World</text>
</a>
</g>
</g>
<!-- Node22&#45;&gt;Node28 -->
<g id="edge34" class="edge"><title>Node22&#45;&gt;Node28</title>
<path fill="none" stroke="#9a32cd" stroke-dasharray="5,2" d="M599.05,-589.951C612.077,-573.311 633.625,-549.248 658,-536 679.998,-524.044 746.469,-512.354 787.721,-505.97"/>
<polygon fill="#9a32cd" stroke="#9a32cd" points="595.965,-588.228 592.726,-598.316 601.549,-592.45 595.965,-588.228"/>
<text text-anchor="middle" x="701" y="-550" font-family="Helvetica,sans-Serif" font-size="10.00"> myTurtle</text>
<text text-anchor="middle" x="701" y="-539" font-family="Helvetica,sans-Serif" font-size="10.00">activeTurtle</text>
</g>
<!-- Node23 -->
<g id="node23" class="node"><title>Node23</title>
<polygon fill="white" stroke="#bfbfbf" points="279,-663.5 279,-682.5 347,-682.5 347,-663.5 279,-663.5"/>
<text text-anchor="middle" x="313" y="-670.5" font-family="Helvetica,sans-Serif" font-size="10.00">ImageView</text>
</g>
<!-- Node23&#45;&gt;Node22 -->
<g id="edge26" class="edge"><title>Node23&#45;&gt;Node22</title>
<path fill="none" stroke="midnightblue" d="M357.557,-676.533C398.619,-678.347 461.255,-677.147 512,-659 537.097,-650.025 561.34,-629.69 574.296,-617.583"/>
<polygon fill="midnightblue" stroke="midnightblue" points="357.515,-673.027 347.346,-676 357.15,-680.017 357.515,-673.027"/>
</g>
<!-- Node24 -->
<g id="node24" class="node"><title>Node24</title>
<g id="a_node24"><a xlink:href="../../de/d57/classturtle_1_1_pen.html" target="_top" xlink:title="turtle.Pen">
<polygon fill="white" stroke="black" points="281.5,-581.5 281.5,-600.5 344.5,-600.5 344.5,-581.5 281.5,-581.5"/>
<text text-anchor="middle" x="313" y="-588.5" font-family="Helvetica,sans-Serif" font-size="10.00">turtle.Pen</text>
</a>
</g>
</g>
<!-- Node24&#45;&gt;Node22 -->
<g id="edge27" class="edge"><title>Node24&#45;&gt;Node22</title>
<path fill="none" stroke="#9a32cd" stroke-dasharray="5,2" d="M354.838,-588.673C394.976,-586.982 457.907,-585.924 512,-592 524.343,-593.386 537.67,-596.019 549.462,-598.755"/>
<polygon fill="#9a32cd" stroke="#9a32cd" points="354.476,-585.186 344.646,-589.137 354.794,-592.179 354.476,-585.186"/>
<text text-anchor="middle" x="460" y="-595" font-family="Helvetica,sans-Serif" font-size="10.00"> myPen</text>
</g>
<!-- Node25 -->
<g id="node25" class="node"><title>Node25</title>
<polygon fill="white" stroke="#bfbfbf" points="44,-581.5 44,-600.5 84,-600.5 84,-581.5 44,-581.5"/>
<text text-anchor="middle" x="64" y="-588.5" font-family="Helvetica,sans-Serif" font-size="10.00">Paint</text>
</g>
<!-- Node25&#45;&gt;Node24 -->
<g id="edge28" class="edge"><title>Node25&#45;&gt;Node24</title>
<path fill="none" stroke="#9a32cd" stroke-dasharray="5,2" d="M94.5495,-591C141.721,-591 233.58,-591 281.403,-591"/>
<polygon fill="#9a32cd" stroke="#9a32cd" points="94.3817,-587.5 84.3817,-591 94.3816,-594.5 94.3817,-587.5"/>
<text text-anchor="middle" x="182" y="-594" font-family="Helvetica,sans-Serif" font-size="10.00"> myPenColor</text>
</g>
<!-- Node26 -->
<g id="node26" class="node"><title>Node26</title>
<polygon fill="white" stroke="#bfbfbf" points="286,-619.5 286,-638.5 340,-638.5 340,-619.5 286,-619.5"/>
<text text-anchor="middle" x="313" y="-626.5" font-family="Helvetica,sans-Serif" font-size="10.00">Point2D</text>
</g>
<!-- Node26&#45;&gt;Node22 -->
<g id="edge29" class="edge"><title>Node26&#45;&gt;Node22</title>
<path fill="none" stroke="#9a32cd" stroke-dasharray="5,2" d="M350.517,-626.16C402.662,-622.104 497.802,-614.704 549.062,-610.717"/>
<polygon fill="#9a32cd" stroke="#9a32cd" points="350.079,-622.683 340.38,-626.948 350.622,-629.662 350.079,-622.683"/>
<text text-anchor="middle" x="460" y="-647" font-family="Helvetica,sans-Serif" font-size="10.00"> goal</text>
<text text-anchor="middle" x="460" y="-636" font-family="Helvetica,sans-Serif" font-size="10.00">next</text>
<text text-anchor="middle" x="460" y="-625" font-family="Helvetica,sans-Serif" font-size="10.00">current</text>
</g>
<!-- Node27 -->
<g id="node27" class="node"><title>Node27</title>
<polygon fill="white" stroke="#bfbfbf" points="289.5,-701.5 289.5,-720.5 336.5,-720.5 336.5,-701.5 289.5,-701.5"/>
<text text-anchor="middle" x="313" y="-708.5" font-family="Helvetica,sans-Serif" font-size="10.00">Image</text>
</g>
<!-- Node27&#45;&gt;Node22 -->
<g id="edge30" class="edge"><title>Node27&#45;&gt;Node22</title>
<path fill="none" stroke="#9a32cd" stroke-dasharray="5,2" d="M347.018,-712.465C387.978,-712.915 458.89,-709.129 512,-682 542.01,-666.67 566.773,-633.947 577.811,-617.645"/>
<polygon fill="#9a32cd" stroke="#9a32cd" points="346.859,-708.961 336.789,-712.256 346.716,-715.96 346.859,-708.961"/>
<text text-anchor="middle" x="460" y="-712" font-family="Helvetica,sans-Serif" font-size="10.00"> DEFAULT_IMAGE</text>
</g>
<!-- Node28&#45;&gt;Node1 -->
<g id="edge33" class="edge"><title>Node28&#45;&gt;Node1</title>
<path fill="none" stroke="#9a32cd" stroke-dasharray="5,2" d="M868.279,-499.741C901.354,-499.302 947.623,-499.749 988,-504 1006.96,-505.996 1027.72,-509.785 1045.23,-513.457"/>
<polygon fill="#9a32cd" stroke="#9a32cd" points="867.968,-496.246 858.028,-499.911 868.084,-503.245 867.968,-496.246"/>
<text text-anchor="middle" x="945" y="-507" font-family="Helvetica,sans-Serif" font-size="10.00"> myWorld</text>
</g>
<!-- Node29&#45;&gt;Node28 -->
<g id="edge35" class="edge"><title>Node29&#45;&gt;Node28</title>
<path fill="none" stroke="#9a32cd" stroke-dasharray="5,2" d="M635.252,-472.022C666.485,-475.429 707.703,-480.335 744,-486 758.442,-488.254 774.298,-491.213 787.919,-493.907"/>
<polygon fill="#9a32cd" stroke="#9a32cd" points="635.381,-468.515 625.064,-470.925 634.632,-475.475 635.381,-468.515"/>
<text text-anchor="middle" x="701" y="-489" font-family="Helvetica,sans-Serif" font-size="10.00"> myParser</text>
</g>
<!-- Node30&#45;&gt;Node29 -->
<g id="edge36" class="edge"><title>Node30&#45;&gt;Node29</title>
<path fill="none" stroke="#9a32cd" stroke-dasharray="5,2" d="M399.742,-434.467C434.712,-437.786 475.444,-442.524 512,-449 524.433,-451.202 537.899,-454.356 549.784,-457.411"/>
<polygon fill="#9a32cd" stroke="#9a32cd" points="399.844,-430.962 389.564,-433.526 399.199,-437.932 399.844,-430.962"/>
<text text-anchor="middle" x="460" y="-452" font-family="Helvetica,sans-Serif" font-size="10.00"> myCommandFactory</text>
</g>
<!-- Node31 -->
<g id="node31" class="node"><title>Node31</title>
<polygon fill="white" stroke="#bfbfbf" points="0,-354.5 0,-373.5 128,-373.5 128,-354.5 0,-354.5"/>
<text text-anchor="middle" x="64" y="-361.5" font-family="Helvetica,sans-Serif" font-size="10.00">Map&lt; String, Double &gt;</text>
</g>
<!-- Node31&#45;&gt;Node30 -->
<g id="edge38" class="edge"><title>Node31&#45;&gt;Node30</title>
<path fill="none" stroke="#9a32cd" stroke-dasharray="5,2" d="M111.424,-376.029C158.824,-388.311 231.461,-407.132 275.087,-418.435"/>
<polygon fill="#9a32cd" stroke="#9a32cd" points="112.27,-372.633 101.712,-373.512 110.514,-379.409 112.27,-372.633"/>
<text text-anchor="middle" x="182" y="-407" font-family="Helvetica,sans-Serif" font-size="10.00"> variables</text>
</g>
<!-- Node32 -->
<g id="node32" class="node"><title>Node32</title>
<g id="a_node32"><a xlink:href="../../d3/dcc/classparser_1_1_node.html" target="_top" xlink:title="parser.Node">
<polygon fill="white" stroke="black" points="275.5,-503.5 275.5,-522.5 350.5,-522.5 350.5,-503.5 275.5,-503.5"/>
<text text-anchor="middle" x="313" y="-510.5" font-family="Helvetica,sans-Serif" font-size="10.00">parser.Node</text>
</a>
</g>
</g>
<!-- Node32&#45;&gt;Node29 -->
<g id="edge40" class="edge"><title>Node32&#45;&gt;Node29</title>
<path fill="none" stroke="#9a32cd" stroke-dasharray="5,2" d="M360.857,-509.19C401.196,-505.41 460.819,-498.625 512,-488 526.406,-485.009 542.123,-480.567 555.186,-476.538"/>
<polygon fill="#9a32cd" stroke="#9a32cd" points="360.42,-505.715 350.779,-510.11 361.056,-512.686 360.42,-505.715"/>
<text text-anchor="middle" x="460" y="-518" font-family="Helvetica,sans-Serif" font-size="10.00"> myTree</text>
<text text-anchor="middle" x="460" y="-507" font-family="Helvetica,sans-Serif" font-size="10.00">myListTree</text>
</g>
<!-- Node32&#45;&gt;Node32 -->
<g id="edge41" class="edge"><title>Node32&#45;&gt;Node32</title>
<path fill="none" stroke="#9a32cd" stroke-dasharray="5,2" d="M288.819,-532.029C290.138,-537.128 298.198,-541 313,-541 336.105,-541 342.784,-531.565 333.037,-522.757"/>
<polygon fill="#9a32cd" stroke="#9a32cd" points="292.078,-533.315 292.963,-522.757 285.687,-530.458 292.078,-533.315"/>
<text text-anchor="middle" x="313" y="-555" font-family="Helvetica,sans-Serif" font-size="10.00"> myChild1</text>
<text text-anchor="middle" x="313" y="-544" font-family="Helvetica,sans-Serif" font-size="10.00">myChild2</text>
</g>
<!-- Node33 -->
<g id="node33" class="node"><title>Node33</title>
<polygon fill="white" stroke="#bfbfbf" points="530,-495.5 530,-514.5 640,-514.5 640,-495.5 530,-495.5"/>
<text text-anchor="middle" x="585" y="-502.5" font-family="Helvetica,sans-Serif" font-size="10.00">List&lt; turtle.Turtle &gt;</text>
</g>
<!-- Node33&#45;&gt;Node28 -->
<g id="edge42" class="edge"><title>Node33&#45;&gt;Node28</title>
<path fill="none" stroke="#9a32cd" stroke-dasharray="5,2" d="M650.324,-502.206C652.917,-502.129 655.483,-502.06 658,-502 702.832,-500.93 754.576,-500.798 787.757,-500.855"/>
<polygon fill="#9a32cd" stroke="#9a32cd" points="650.128,-498.71 640.247,-502.533 650.355,-505.707 650.128,-498.71"/>
<text text-anchor="middle" x="701" y="-505" font-family="Helvetica,sans-Serif" font-size="10.00"> myTurtles</text>
</g>
<!-- Node34 -->
<g id="node34" class="node"><title>Node34</title>
<polygon fill="white" stroke="#bfbfbf" points="564.5,-419.5 564.5,-438.5 605.5,-438.5 605.5,-419.5 564.5,-419.5"/>
<text text-anchor="middle" x="585" y="-426.5" font-family="Helvetica,sans-Serif" font-size="10.00">Color</text>
</g>
<!-- Node34&#45;&gt;Node28 -->
<g id="edge43" class="edge"><title>Node34&#45;&gt;Node28</title>
<path fill="none" stroke="#9a32cd" stroke-dasharray="5,2" d="M616.085,-432.266C648.391,-436.375 700.891,-444.807 744,-460 747.138,-461.106 782.044,-479.65 804.084,-491.415"/>
<polygon fill="#9a32cd" stroke="#9a32cd" points="616.295,-428.765 605.946,-431.034 615.451,-435.714 616.295,-428.765"/>
<text text-anchor="middle" x="701" y="-463" font-family="Helvetica,sans-Serif" font-size="10.00"> TURTLE_DEFAULT</text>
</g>
</g>
</svg>
        <g id="navigator" transform="translate(0 0)" fill="#404254">
                <rect fill="#f2f5e9" fill-opacity="0.5" stroke="#606060" stroke-width=".5" x="0" y="0" width="60" height="60"/>
                <use id="zoomplus" xlink:href="#zoomPlus" x="17" y="9" onmousedown="handleZoom(evt,'in')"/>
                <use id="zoomminus" xlink:href="#zoomMin" x="42" y="9" onmousedown="handleZoom(evt,'out')"/>
                <use id="reset" xlink:href="#resetDef" x="30" y="36" onmousedown="handleReset()"/>
                <g id="arrowUp" xlink:href="#dirArrow" transform="translate(30 24)" onmousedown="handlePan(0,-1)">
                  <use xlink:href="#rim" fill="#404040">
                        <set attributeName="fill" to="#808080" begin="arrowUp.mouseover" end="arrowUp.mouseout"/>
                  </use>
                  <path fill="none" stroke="white" stroke-width="1.5" d="M0,-3.0v7 M-2.5,-0.5L0,-3.0L2.5,-0.5"/>
                </g>
                <g id="arrowRight" xlink:href="#dirArrow" transform="rotate(90) translate(36 -43)" onmousedown="handlePan(1,0)">
                  <use xlink:href="#rim" fill="#404040">
                        <set attributeName="fill" to="#808080" begin="arrowRight.mouseover" end="arrowRight.mouseout"/>
                  </use>
                  <path fill="none" stroke="white" stroke-width="1.5" d="M0,-3.0v7 M-2.5,-0.5L0,-3.0L2.5,-0.5"/>
                </g>
                <g id="arrowDown" xlink:href="#dirArrow" transform="rotate(180) translate(-30 -48)" onmousedown="handlePan(0,1)">
                  <use xlink:href="#rim" fill="#404040">
                        <set attributeName="fill" to="#808080" begin="arrowDown.mouseover" end="arrowDown.mouseout"/>
                  </use>
                  <path fill="none" stroke="white" stroke-width="1.5" d="M0,-3.0v7 M-2.5,-0.5L0,-3.0L2.5,-0.5"/>
                </g>
                <g id="arrowLeft" xlink:href="#dirArrow" transform="rotate(270) translate(-36 17)" onmousedown="handlePan(-1,0)">
                  <use xlink:href="#rim" fill="#404040">
                        <set attributeName="fill" to="#808080" begin="arrowLeft.mouseover" end="arrowLeft.mouseout"/>
                  </use>
                  <path fill="none" stroke="white" stroke-width="1.5" d="M0,-3.0v7 M-2.5,-0.5L0,-3.0L2.5,-0.5"/>
                </g>
        </g>
        <svg viewBox="0 0 15 15" width="100%" height="30px" preserveAspectRatio="xMaxYMin meet">
         <g id="arrow_out" transform="scale(0.3 0.3)">
          <a xlink:href="classworld_controller_1_1_world_controller__coll__graph_org.svg" target="_base">
           <rect id="button" ry="5" rx="5" y="6" x="6" height="38" width="38"
                fill="#f2f5e9" fill-opacity="0.5" stroke="#606060" stroke-width="1.0"/>
           <path id="arrow"
             d="M 11.500037,31.436501 C 11.940474,20.09759 22.043105,11.32322 32.158766,21.979434 L 37.068811,17.246167 C 37.068811,17.246167 37.088388,32 37.088388,32 L 22.160133,31.978069 C 22.160133,31.978069 26.997745,27.140456 26.997745,27.140456 C 18.528582,18.264221 13.291696,25.230495 11.500037,31.436501 z"
             style="fill:#404040;"/>
          </a>
         </g>
        </svg>
</svg>
