<?xml version="1.0" encoding="UTF-8" standalone="no"?>
<!DOCTYPE svg PUBLIC "-//W3C//DTD SVG 1.1//EN"
 "http://www.w3.org/Graphics/SVG/1.1/DTD/svg11.dtd">
<!-- Generated by graphviz version 2.36.0 (20140111.2315)
 -->
<!-- Title: worldController.WorldController Pages: 1 -->
<!--zoomable 752 -->
<svg id="main" version="1.1" xmlns="http://www.w3.org/2000/svg" xmlns:xlink="http://www.w3.org/1999/xlink" xml:space="preserve" onload="init(evt)">
<style type="text/css"><![CDATA[
.edge:hover path { stroke: red; }
.edge:hover polygon { stroke: red; fill: red; }
]]></style>
<script type="text/javascript"><![CDATA[
var edges = document.getElementsByTagName('g');
if (edges && edges.length) {
  for (var i=0;i<edges.length;i++) {
    if (edges[i].id.substr(0,4)=='edge') {
      edges[i].setAttribute('class','edge');
    }
  }
}
]]></script>
        <defs>
                <circle id="rim" cx="0" cy="0" r="7"/>
                <circle id="rim2" cx="0" cy="0" r="3.5"/>
                <g id="zoomPlus">
                        <use xlink:href="#rim" fill="#404040">
                                <set attributeName="fill" to="#808080" begin="zoomplus.mouseover" end="zoomplus.mouseout"/>
                        </use>
                        <path d="M-4,0h8M0,-4v8" fill="none" stroke="white" stroke-width="1.5" pointer-events="none"/>
                </g>
                <g id="zoomMin">
                        <use xlink:href="#rim" fill="#404040">
                                <set attributeName="fill" to="#808080" begin="zoomminus.mouseover" end="zoomminus.mouseout"/>
                        </use>
                        <path d="M-4,0h8" fill="none" stroke="white" stroke-width="1.5" pointer-events="none"/>
                </g>
                <g id="dirArrow">
                        <path fill="none" stroke="white" stroke-width="1.5" d="M0,-3.0v7 M-2.5,-0.5L0,-3.0L2.5,-0.5"/>
                </g>
               <g id="resetDef">
                       <use xlink:href="#rim2" fill="#404040">
                               <set attributeName="fill" to="#808080" begin="reset.mouseover" end="reset.mouseout"/>
                       </use>
               </g>
        </defs>

<script type="text/javascript">
var viewWidth = 1464;
var viewHeight = 752;
var sectionId = 'dynsection-0';
</script>
<script xlink:href="../../svgpan.js"/>
<svg id="graph" class="graph">
<g id="viewport">
<title>worldController.WorldController</title>
<polygon fill="white" stroke="none" points="-4,4 -4,-748 1460,-748 1460,4 -4,4"/>
<!-- Node1 -->
<g id="node1" class="node"><title>Node1</title>
<polygon fill="#bfbfbf" stroke="black" points="998,-516.5 998,-535.5 1160,-535.5 1160,-516.5 998,-516.5"/>
<text text-anchor="middle" x="1079" y="-523.5" font-family="Helvetica,sans-Serif" font-size="10.00">worldController.WorldController</text>
</g>
<!-- Node3 -->
<g id="node3" class="node"><title>Node3</title>
<g id="a_node3"><a xlink:href="../../dd/d8e/classuser_interface_1_1_user_interface.html" target="_top" xlink:title="userInterface.UserInterface">
<polygon fill="white" stroke="black" points="1308.5,-380.5 1308.5,-399.5 1455.5,-399.5 1455.5,-380.5 1308.5,-380.5"/>
<text text-anchor="middle" x="1382" y="-387.5" font-family="Helvetica,sans-Serif" font-size="10.00">userInterface.UserInterface</text>
</a>
</g>
</g>
<!-- Node1&#45;&gt;Node3 -->
<g id="edge18" class="edge"><title>Node1&#45;&gt;Node3</title>
<path fill="none" stroke="#9a32cd" stroke-dasharray="5,2" d="M1170.37,-524.093C1209.15,-520.04 1253.77,-510.851 1290,-491 1330.98,-468.542 1363.01,-420.405 1375.41,-399.746"/>
<polygon fill="#9a32cd" stroke="#9a32cd" points="1169.75,-520.636 1160.13,-525.061 1170.41,-527.605 1169.75,-520.636"/>
<text text-anchor="middle" x="1234" y="-526" font-family="Helvetica,sans-Serif" font-size="10.00"> myController</text>
</g>
<!-- Node2 -->
<g id="node2" class="node"><title>Node2</title>
<polygon fill="white" stroke="#bfbfbf" points="787,-707.5 787,-726.5 843,-726.5 843,-707.5 787,-707.5"/>
<text text-anchor="middle" x="815" y="-714.5" font-family="Helvetica,sans-Serif" font-size="10.00">Timeline</text>
</g>
<!-- Node2&#45;&gt;Node1 -->
<g id="edge1" class="edge"><title>Node2&#45;&gt;Node1</title>
<path fill="none" stroke="#9a32cd" stroke-dasharray="5,2" d="M847.85,-703.102C857.136,-698.654 867.158,-693.457 876,-688 955.57,-638.89 1039.19,-562.639 1067.75,-535.771"/>
<polygon fill="#9a32cd" stroke="#9a32cd" points="846.108,-700.052 838.52,-707.446 849.063,-706.398 846.108,-700.052"/>
<text text-anchor="middle" x="937" y="-676" font-family="Helvetica,sans-Serif" font-size="10.00"> myAnimation</text>
</g>
<!-- Node2&#45;&gt;Node3 -->
<g id="edge3" class="edge"><title>Node2&#45;&gt;Node3</title>
<path fill="none" stroke="#9a32cd" stroke-dasharray="5,2" d="M853.035,-723.427C942.925,-736.675 1173.79,-756.195 1290,-632 1356.86,-560.551 1375.84,-435.3 1380,-399.691"/>
<polygon fill="#9a32cd" stroke="#9a32cd" points="853.452,-719.95 843.036,-721.892 852.389,-726.869 853.452,-719.95"/>
<text text-anchor="middle" x="1079" y="-736" font-family="Helvetica,sans-Serif" font-size="10.00"> myAnimation</text>
</g>
<!-- Node3&#45;&gt;Node1 -->
<g id="edge2" class="edge"><title>Node3&#45;&gt;Node1</title>
<path fill="none" stroke="#9a32cd" stroke-dasharray="5,2" d="M1360.69,-406.163C1342.94,-419.586 1316.02,-438.309 1290,-450 1242.99,-471.122 1226.4,-462.316 1178,-480 1149.22,-490.513 1117.36,-506.287 1098.01,-516.361"/>
<polygon fill="#9a32cd" stroke="#9a32cd" points="1363.3,-408.571 1369.08,-399.693 1359.02,-403.028 1363.3,-408.571"/>
<text text-anchor="middle" x="1234" y="-483" font-family="Helvetica,sans-Serif" font-size="10.00"> UI</text>
</g>
<!-- Node4 -->
<g id="node4" class="node"><title>Node4</title>
<polygon fill="white" stroke="#bfbfbf" points="767,-659.5 767,-678.5 863,-678.5 863,-659.5 767,-659.5"/>
<text text-anchor="middle" x="815" y="-666.5" font-family="Helvetica,sans-Serif" font-size="10.00">GraphicsContext</text>
</g>
<!-- Node4&#45;&gt;Node1 -->
<g id="edge24" class="edge"><title>Node4&#45;&gt;Node1</title>
<path fill="none" stroke="#9a32cd" stroke-dasharray="5,2" d="M853.953,-655.082C861.965,-650.84 869.847,-645.526 876,-639 889.932,-624.224 878.647,-610.294 894,-597 923.912,-571.102 942.948,-587.878 980,-574 1009.45,-562.969 1041.91,-546.061 1061.1,-535.536"/>
<polygon fill="#9a32cd" stroke="#9a32cd" points="852.428,-651.931 844.935,-659.422 855.464,-658.239 852.428,-651.931"/>
<text text-anchor="middle" x="937" y="-600" font-family="Helvetica,sans-Serif" font-size="10.00"> myGC</text>
</g>
<!-- Node4&#45;&gt;Node3 -->
<g id="edge4" class="edge"><title>Node4&#45;&gt;Node3</title>
<path fill="none" stroke="#9a32cd" stroke-dasharray="5,2" d="M873.439,-674.327C942.707,-679.016 1062.04,-681.512 1160,-655 1223.14,-637.911 1245,-633.469 1290,-586 1344.98,-528.01 1371.47,-430.833 1378.81,-399.824"/>
<polygon fill="#9a32cd" stroke="#9a32cd" points="873.401,-670.815 863.177,-673.591 872.901,-677.798 873.401,-670.815"/>
<text text-anchor="middle" x="1079" y="-679" font-family="Helvetica,sans-Serif" font-size="10.00"> myGC</text>
</g>
<!-- Node5 -->
<g id="node5" class="node"><title>Node5</title>
<polygon fill="white" stroke="#bfbfbf" points="17.5,-426.5 17.5,-445.5 110.5,-445.5 110.5,-426.5 17.5,-426.5"/>
<text text-anchor="middle" x="64" y="-433.5" font-family="Helvetica,sans-Serif" font-size="10.00">ResourceBundle</text>
</g>
<!-- Node5&#45;&gt;Node3 -->
<g id="edge5" class="edge"><title>Node5&#45;&gt;Node3</title>
<path fill="none" stroke="#9a32cd" stroke-dasharray="5,2" d="M104.994,-423.668C152.798,-410.042 235.445,-390 308,-390 308,-390 308,-390 1080,-390 1157.99,-390 1247.35,-390 1308.32,-390"/>
<polygon fill="#9a32cd" stroke="#9a32cd" points="103.968,-420.322 95.3386,-426.469 105.918,-427.044 103.968,-420.322"/>
<text text-anchor="middle" x="693" y="-393" font-family="Helvetica,sans-Serif" font-size="10.00"> myMenuNames</text>
</g>
<!-- Node29 -->
<g id="node29" class="node"><title>Node29</title>
<g id="a_node29"><a xlink:href="../../d6/d95/classparser_1_1_parser.html" target="_top" xlink:title="parser.Parser">
<polygon fill="white" stroke="black" points="537,-494.5 537,-513.5 617,-513.5 617,-494.5 537,-494.5"/>
<text text-anchor="middle" x="577" y="-501.5" font-family="Helvetica,sans-Serif" font-size="10.00">parser.Parser</text>
</a>
</g>
</g>
<!-- Node5&#45;&gt;Node29 -->
<g id="edge36" class="edge"><title>Node5&#45;&gt;Node29</title>
<path fill="none" stroke="#9a32cd" stroke-dasharray="5,2" d="M120.795,-437.859C184.294,-440.481 291,-446.429 382,-459 436.828,-466.574 450.192,-471.03 504,-484 516.99,-487.131 531.183,-490.98 543.508,-494.463"/>
<polygon fill="#9a32cd" stroke="#9a32cd" points="120.734,-434.354 110.602,-437.451 120.454,-441.348 120.734,-434.354"/>
<text text-anchor="middle" x="309" y="-462" font-family="Helvetica,sans-Serif" font-size="10.00"> myResources</text>
</g>
<!-- Node30 -->
<g id="node30" class="node"><title>Node30</title>
<g id="a_node30"><a xlink:href="../../d5/d9c/classfactories_1_1_command_factory.html" target="_top" xlink:title="factories.CommandFactory">
<polygon fill="white" stroke="black" points="236,-479.5 236,-498.5 382,-498.5 382,-479.5 236,-479.5"/>
<text text-anchor="middle" x="309" y="-486.5" font-family="Helvetica,sans-Serif" font-size="10.00">factories.CommandFactory</text>
</a>
</g>
</g>
<!-- Node5&#45;&gt;Node30 -->
<g id="edge38" class="edge"><title>Node5&#45;&gt;Node30</title>
<path fill="none" stroke="#9a32cd" stroke-dasharray="5,2" d="M120.643,-446.126C149.733,-451.618 185.877,-458.752 218,-466 236.091,-470.082 256.091,-475.138 272.633,-479.469"/>
<polygon fill="#9a32cd" stroke="#9a32cd" points="121.14,-442.658 110.666,-444.255 119.849,-449.538 121.14,-442.658"/>
<text text-anchor="middle" x="182" y="-491" font-family="Helvetica,sans-Serif" font-size="10.00"> syntax</text>
<text text-anchor="middle" x="182" y="-480" font-family="Helvetica,sans-Serif" font-size="10.00">paramMap</text>
<text text-anchor="middle" x="182" y="-469" font-family="Helvetica,sans-Serif" font-size="10.00">translationMap</text>
</g>
<!-- Node6 -->
<g id="node6" class="node"><title>Node6</title>
<g id="a_node6"><a xlink:href="../../d9/d3d/classuser_interface_1_1_topbar.html" target="_top" xlink:title="userInterface.Topbar">
<polygon fill="white" stroke="black" points="1022,-228.5 1022,-247.5 1136,-247.5 1136,-228.5 1022,-228.5"/>
<text text-anchor="middle" x="1079" y="-235.5" font-family="Helvetica,sans-Serif" font-size="10.00">userInterface.Topbar</text>
</a>
</g>
</g>
<!-- Node6&#45;&gt;Node3 -->
<g id="edge6" class="edge"><title>Node6&#45;&gt;Node3</title>
<path fill="none" stroke="#9a32cd" stroke-dasharray="5,2" d="M1146.31,-232.162C1189.98,-231.4 1246.85,-236.527 1290,-262 1338.13,-290.415 1367.53,-355.402 1377.34,-380.167"/>
<polygon fill="#9a32cd" stroke="#9a32cd" points="1145.97,-228.67 1136.07,-232.451 1146.17,-235.667 1145.97,-228.67"/>
<text text-anchor="middle" x="1234" y="-265" font-family="Helvetica,sans-Serif" font-size="10.00"> myTopbar</text>
</g>
<!-- Node7 -->
<g id="node7" class="node"><title>Node7</title>
<polygon fill="white" stroke="#bfbfbf" points="755,-185.5 755,-204.5 875,-204.5 875,-185.5 755,-185.5"/>
<text text-anchor="middle" x="815" y="-192.5" font-family="Helvetica,sans-Serif" font-size="10.00">ComboBox&lt; String &gt;</text>
</g>
<!-- Node7&#45;&gt;Node6 -->
<g id="edge7" class="edge"><title>Node7&#45;&gt;Node6</title>
<path fill="none" stroke="#9a32cd" stroke-dasharray="5,2" d="M884.2,-206.193C926.999,-213.217 981.512,-222.164 1021.81,-228.779"/>
<polygon fill="#9a32cd" stroke="#9a32cd" points="884.581,-202.709 874.146,-204.543 883.447,-209.617 884.581,-202.709"/>
<text text-anchor="middle" x="937" y="-225" font-family="Helvetica,sans-Serif" font-size="10.00"> languageChoices</text>
</g>
<!-- Node11 -->
<g id="node11" class="node"><title>Node11</title>
<g id="a_node11"><a xlink:href="../../d1/d68/classuser_interface_1_1_sidebar.html" target="_top" xlink:title="userInterface.Sidebar">
<polygon fill="white" stroke="black" points="1019.5,-110.5 1019.5,-129.5 1138.5,-129.5 1138.5,-110.5 1019.5,-110.5"/>
<text text-anchor="middle" x="1079" y="-117.5" font-family="Helvetica,sans-Serif" font-size="10.00">userInterface.Sidebar</text>
</a>
</g>
</g>
<!-- Node7&#45;&gt;Node11 -->
<g id="edge14" class="edge"><title>Node7&#45;&gt;Node11</title>
<path fill="none" stroke="#9a32cd" stroke-dasharray="5,2" d="M844.587,-180.965C859.125,-174.236 877.225,-166.469 894,-161 936.162,-147.254 985.24,-136.573 1022.1,-129.564"/>
<polygon fill="#9a32cd" stroke="#9a32cd" points="842.702,-177.985 835.152,-185.418 845.689,-184.316 842.702,-177.985"/>
<text text-anchor="middle" x="937" y="-197" font-family="Helvetica,sans-Serif" font-size="10.00"> previous</text>
<text text-anchor="middle" x="937" y="-186" font-family="Helvetica,sans-Serif" font-size="10.00">edits</text>
<text text-anchor="middle" x="937" y="-175" font-family="Helvetica,sans-Serif" font-size="10.00">turtles</text>
<text text-anchor="middle" x="937" y="-164" font-family="Helvetica,sans-Serif" font-size="10.00">saved</text>
</g>
<!-- Node8 -->
<g id="node8" class="node"><title>Node8</title>
<polygon fill="white" stroke="#bfbfbf" points="784.5,-319.5 784.5,-338.5 845.5,-338.5 845.5,-319.5 784.5,-319.5"/>
<text text-anchor="middle" x="815" y="-326.5" font-family="Helvetica,sans-Serif" font-size="10.00">Hyperlink</text>
</g>
<!-- Node8&#45;&gt;Node6 -->
<g id="edge8" class="edge"><title>Node8&#45;&gt;Node6</title>
<path fill="none" stroke="#9a32cd" stroke-dasharray="5,2" d="M855.859,-331.032C891.953,-330.786 944.724,-324.966 980,-297 995.277,-284.889 982.972,-269.418 998,-257 1004.93,-251.271 1013.3,-247.212 1021.97,-244.346"/>
<polygon fill="#9a32cd" stroke="#9a32cd" points="855.716,-327.531 845.691,-330.958 855.665,-334.531 855.716,-327.531"/>
<text text-anchor="middle" x="937" y="-332" font-family="Helvetica,sans-Serif" font-size="10.00"> myLink</text>
</g>
<!-- Node9 -->
<g id="node9" class="node"><title>Node9</title>
<polygon fill="white" stroke="#bfbfbf" points="780,-281.5 780,-300.5 850,-300.5 850,-281.5 780,-281.5"/>
<text text-anchor="middle" x="815" y="-288.5" font-family="Helvetica,sans-Serif" font-size="10.00">ColorPicker</text>
</g>
<!-- Node9&#45;&gt;Node6 -->
<g id="edge9" class="edge"><title>Node9&#45;&gt;Node6</title>
<path fill="none" stroke="#9a32cd" stroke-dasharray="5,2" d="M860.373,-286.228C893.677,-282.039 940.193,-274.89 980,-264 988.279,-261.735 989.805,-259.553 998,-257 1009.18,-253.518 1021.4,-250.317 1032.85,-247.575"/>
<polygon fill="#9a32cd" stroke="#9a32cd" points="859.552,-282.802 850.049,-287.486 860.399,-289.751 859.552,-282.802"/>
<text text-anchor="middle" x="937" y="-285" font-family="Helvetica,sans-Serif" font-size="10.00"> myColorChoices</text>
</g>
<!-- Node10 -->
<g id="node10" class="node"><title>Node10</title>
<polygon fill="white" stroke="#bfbfbf" points="794,-243.5 794,-262.5 836,-262.5 836,-243.5 794,-243.5"/>
<text text-anchor="middle" x="815" y="-250.5" font-family="Helvetica,sans-Serif" font-size="10.00">HBox</text>
</g>
<!-- Node10&#45;&gt;Node6 -->
<g id="edge10" class="edge"><title>Node10&#45;&gt;Node6</title>
<path fill="none" stroke="#9a32cd" stroke-dasharray="5,2" d="M846.193,-251.271C889.027,-248.819 968.195,-244.287 1021.97,-241.208"/>
<polygon fill="#9a32cd" stroke="#9a32cd" points="845.907,-247.782 836.124,-251.848 846.307,-254.77 845.907,-247.782"/>
<text text-anchor="middle" x="937" y="-252" font-family="Helvetica,sans-Serif" font-size="10.00"> myHBox</text>
</g>
<!-- Node11&#45;&gt;Node3 -->
<g id="edge11" class="edge"><title>Node11&#45;&gt;Node3</title>
<path fill="none" stroke="#9a32cd" stroke-dasharray="5,2" d="M1127.37,-132.475C1173.59,-146.679 1243.56,-173.825 1290,-218 1341.65,-267.128 1369.98,-352.117 1378.34,-380.479"/>
<polygon fill="#9a32cd" stroke="#9a32cd" points="1128.18,-129.064 1117.59,-129.555 1126.17,-135.771 1128.18,-129.064"/>
<text text-anchor="middle" x="1234" y="-221" font-family="Helvetica,sans-Serif" font-size="10.00"> mySidebar</text>
</g>
<!-- Node12 -->
<g id="node12" class="node"><title>Node12</title>
<polygon fill="white" stroke="#bfbfbf" points="794.5,-76.5 794.5,-95.5 835.5,-95.5 835.5,-76.5 794.5,-76.5"/>
<text text-anchor="middle" x="815" y="-83.5" font-family="Helvetica,sans-Serif" font-size="10.00">VBox</text>
</g>
<!-- Node12&#45;&gt;Node11 -->
<g id="edge12" class="edge"><title>Node12&#45;&gt;Node11</title>
<path fill="none" stroke="#9a32cd" stroke-dasharray="5,2" d="M846.036,-88.819C878.967,-92.021 933.339,-97.6347 980,-104 993.921,-105.899 1008.91,-108.211 1022.88,-110.479"/>
<polygon fill="#9a32cd" stroke="#9a32cd" points="846.021,-85.3015 835.732,-87.8279 845.351,-92.2693 846.021,-85.3015"/>
<text text-anchor="middle" x="937" y="-107" font-family="Helvetica,sans-Serif" font-size="10.00"> mySidebar</text>
</g>
<!-- Node13 -->
<g id="node13" class="node"><title>Node13</title>
<polygon fill="white" stroke="#bfbfbf" points="782,-38.5 782,-57.5 848,-57.5 848,-38.5 782,-38.5"/>
<text text-anchor="middle" x="815" y="-45.5" font-family="Helvetica,sans-Serif" font-size="10.00">ScrollPane</text>
</g>
<!-- Node13&#45;&gt;Node11 -->
<g id="edge13" class="edge"><title>Node13&#45;&gt;Node11</title>
<path fill="none" stroke="#9a32cd" stroke-dasharray="5,2" d="M858.492,-48.1619C893.36,-50.061 942.859,-56.9411 980,-79 990.862,-85.4513 987.29,-94.2987 998,-101 1004.53,-105.089 1011.87,-108.298 1019.38,-110.817"/>
<polygon fill="#9a32cd" stroke="#9a32cd" points="858.31,-44.6511 848.17,-47.7212 858.011,-51.6447 858.31,-44.6511"/>
<text text-anchor="middle" x="937" y="-82" font-family="Helvetica,sans-Serif" font-size="10.00"> myResultBox</text>
</g>
<!-- Node14 -->
<g id="node14" class="node"><title>Node14</title>
<polygon fill="white" stroke="#bfbfbf" points="797.5,-0.5 797.5,-19.5 832.5,-19.5 832.5,-0.5 797.5,-0.5"/>
<text text-anchor="middle" x="815" y="-7.5" font-family="Helvetica,sans-Serif" font-size="10.00">Text</text>
</g>
<!-- Node14&#45;&gt;Node11 -->
<g id="edge15" class="edge"><title>Node14&#45;&gt;Node11</title>
<path fill="none" stroke="#9a32cd" stroke-dasharray="5,2" d="M842.787,-6.35604C878.638,-3.0734 942.095,-3.08526 980,-37 1002.02,-56.7025 976.683,-80.5389 998,-101 1003.97,-106.733 1011.35,-110.844 1019.18,-113.773"/>
<polygon fill="#9a32cd" stroke="#9a32cd" points="842.176,-2.90138 832.605,-7.44667 842.921,-9.86156 842.176,-2.90138"/>
<text text-anchor="middle" x="937" y="-40" font-family="Helvetica,sans-Serif" font-size="10.00"> myResults</text>
</g>
<!-- Node15 -->
<g id="node15" class="node"><title>Node15</title>
<polygon fill="white" stroke="#bfbfbf" points="754,-115 754,-145 876,-145 876,-115 754,-115"/>
<text text-anchor="start" x="762" y="-133" font-family="Helvetica,sans-Serif" font-size="10.00">ArrayList&lt; ComboBox</text>
<text text-anchor="middle" x="815" y="-122" font-family="Helvetica,sans-Serif" font-size="10.00">&lt; String &gt; &gt;</text>
</g>
<!-- Node15&#45;&gt;Node11 -->
<g id="edge16" class="edge"><title>Node15&#45;&gt;Node11</title>
<path fill="none" stroke="#9a32cd" stroke-dasharray="5,2" d="M886.389,-121.522C888.957,-121.326 891.5,-121.151 894,-121 935.772,-118.484 982.975,-118.281 1019.11,-118.683"/>
<polygon fill="#9a32cd" stroke="#9a32cd" points="886.078,-118.035 876.41,-122.369 886.67,-125.01 886.078,-118.035"/>
<text text-anchor="middle" x="937" y="-124" font-family="Helvetica,sans-Serif" font-size="10.00"> boxes</text>
</g>
<!-- Node16 -->
<g id="node16" class="node"><title>Node16</title>
<polygon fill="white" stroke="#bfbfbf" points="1054.5,-342.5 1054.5,-361.5 1103.5,-361.5 1103.5,-342.5 1054.5,-342.5"/>
<text text-anchor="middle" x="1079" y="-349.5" font-family="Helvetica,sans-Serif" font-size="10.00">Button</text>
</g>
<!-- Node16&#45;&gt;Node3 -->
<g id="edge17" class="edge"><title>Node16&#45;&gt;Node3</title>
<path fill="none" stroke="#9a32cd" stroke-dasharray="5,2" d="M1113.96,-351.958C1155.69,-352.398 1228.51,-354.764 1290,-365 1311.17,-368.525 1334.5,-374.988 1352.24,-380.46"/>
<polygon fill="#9a32cd" stroke="#9a32cd" points="1113.83,-348.457 1103.8,-351.883 1113.77,-355.457 1113.83,-348.457"/>
<text text-anchor="middle" x="1234" y="-368" font-family="Helvetica,sans-Serif" font-size="10.00"> commandSaverButton</text>
</g>
<!-- Node17 -->
<g id="node17" class="node"><title>Node17</title>
<polygon fill="white" stroke="#bfbfbf" points="1055.5,-304.5 1055.5,-323.5 1102.5,-323.5 1102.5,-304.5 1055.5,-304.5"/>
<text text-anchor="middle" x="1079" y="-311.5" font-family="Helvetica,sans-Serif" font-size="10.00">Scene</text>
</g>
<!-- Node17&#45;&gt;Node3 -->
<g id="edge19" class="edge"><title>Node17&#45;&gt;Node3</title>
<path fill="none" stroke="#9a32cd" stroke-dasharray="5,2" d="M1112.88,-314.261C1154.93,-315.448 1229.55,-320.449 1290,-340 1319.5,-349.541 1350.44,-368.832 1367.57,-380.465"/>
<polygon fill="#9a32cd" stroke="#9a32cd" points="1112.75,-310.757 1102.67,-314.03 1112.59,-317.755 1112.75,-310.757"/>
<text text-anchor="middle" x="1234" y="-343" font-family="Helvetica,sans-Serif" font-size="10.00"> myScene</text>
</g>
<!-- Node18 -->
<g id="node18" class="node"><title>Node18</title>
<polygon fill="white" stroke="#bfbfbf" points="1050,-266.5 1050,-285.5 1108,-285.5 1108,-266.5 1050,-266.5"/>
<text text-anchor="middle" x="1079" y="-273.5" font-family="Helvetica,sans-Serif" font-size="10.00">TextArea</text>
</g>
<!-- Node18&#45;&gt;Node3 -->
<g id="edge20" class="edge"><title>Node18&#45;&gt;Node3</title>
<path fill="none" stroke="#9a32cd" stroke-dasharray="5,2" d="M1118.23,-274.217C1161.9,-273.696 1234.48,-277.534 1290,-304 1327.87,-322.054 1360.36,-361.766 1374.06,-380.219"/>
<polygon fill="#9a32cd" stroke="#9a32cd" points="1117.96,-270.722 1108.04,-274.425 1118.11,-277.72 1117.96,-270.722"/>
<text text-anchor="middle" x="1234" y="-307" font-family="Helvetica,sans-Serif" font-size="10.00"> myCommandWindow</text>
</g>
<!-- Node19 -->
<g id="node19" class="node"><title>Node19</title>
<polygon fill="white" stroke="#bfbfbf" points="781.5,-610.5 781.5,-629.5 848.5,-629.5 848.5,-610.5 781.5,-610.5"/>
<text text-anchor="middle" x="815" y="-617.5" font-family="Helvetica,sans-Serif" font-size="10.00">StackPane</text>
</g>
<!-- Node19&#45;&gt;Node1 -->
<g id="edge31" class="edge"><title>Node19&#45;&gt;Node1</title>
<path fill="none" stroke="#9a32cd" stroke-dasharray="5,2" d="M835.654,-604.123C854.471,-589.207 881.754,-568.392 894,-563 915.546,-553.513 971.392,-542.948 1015.95,-535.544"/>
<polygon fill="#9a32cd" stroke="#9a32cd" points="833.317,-601.51 827.688,-610.485 837.686,-606.979 833.317,-601.51"/>
<text text-anchor="middle" x="937" y="-566" font-family="Helvetica,sans-Serif" font-size="10.00"> myPane</text>
</g>
<!-- Node19&#45;&gt;Node3 -->
<g id="edge21" class="edge"><title>Node19&#45;&gt;Node3</title>
<path fill="none" stroke="#9a32cd" stroke-dasharray="5,2" d="M852.913,-632.656C865.756,-636.456 880.363,-640.114 894,-642 931.862,-647.237 942.277,-648.159 980,-642 1123.43,-618.583 1176.24,-628.427 1290,-538 1339.11,-498.961 1368.49,-425.657 1377.78,-399.541"/>
<polygon fill="#9a32cd" stroke="#9a32cd" points="853.631,-629.214 843.043,-629.609 851.566,-635.903 853.631,-629.214"/>
<text text-anchor="middle" x="1079" y="-643" font-family="Helvetica,sans-Serif" font-size="10.00"> canvasPane</text>
</g>
<!-- Node20 -->
<g id="node20" class="node"><title>Node20</title>
<polygon fill="white" stroke="#bfbfbf" points="789,-439.5 789,-458.5 841,-458.5 841,-439.5 789,-439.5"/>
<text text-anchor="middle" x="815" y="-446.5" font-family="Helvetica,sans-Serif" font-size="10.00">Canvas</text>
</g>
<!-- Node20&#45;&gt;Node1 -->
<g id="edge32" class="edge"><title>Node20&#45;&gt;Node1</title>
<path fill="none" stroke="#9a32cd" stroke-dasharray="5,2" d="M851.35,-454.494C884.917,-460.19 936.56,-470.201 980,-484 1008.23,-492.966 1039.45,-507.131 1058.9,-516.494"/>
<polygon fill="#9a32cd" stroke="#9a32cd" points="851.558,-450.981 841.12,-452.797 850.412,-457.887 851.558,-450.981"/>
<text text-anchor="middle" x="937" y="-487" font-family="Helvetica,sans-Serif" font-size="10.00"> myCanvas</text>
</g>
<!-- Node20&#45;&gt;Node3 -->
<g id="edge22" class="edge"><title>Node20&#45;&gt;Node3</title>
<path fill="none" stroke="#9a32cd" stroke-dasharray="5,2" d="M851.595,-446.33C930.623,-440.248 1126.65,-424.302 1290,-404 1300.47,-402.699 1311.59,-401.138 1322.33,-399.538"/>
<polygon fill="#9a32cd" stroke="#9a32cd" points="850.939,-442.87 841.235,-447.123 851.473,-449.85 850.939,-442.87"/>
<text text-anchor="middle" x="1079" y="-438" font-family="Helvetica,sans-Serif" font-size="10.00"> myCanvas</text>
</g>
<!-- Node21 -->
<g id="node21" class="node"><title>Node21</title>
<polygon fill="white" stroke="#bfbfbf" points="1043,-72.5 1043,-91.5 1115,-91.5 1115,-72.5 1043,-72.5"/>
<text text-anchor="middle" x="1079" y="-79.5" font-family="Helvetica,sans-Serif" font-size="10.00">BorderPane</text>
</g>
<!-- Node21&#45;&gt;Node3 -->
<g id="edge23" class="edge"><title>Node21&#45;&gt;Node3</title>
<path fill="none" stroke="#9a32cd" stroke-dasharray="5,2" d="M1125.41,-81.7455C1172.36,-83.9256 1244.97,-94.4823 1290,-136 1365.76,-205.858 1378.51,-343.233 1380.6,-380.488"/>
<polygon fill="#9a32cd" stroke="#9a32cd" points="1125.34,-78.2409 1115.22,-81.3848 1125.09,-85.2365 1125.34,-78.2409"/>
<text text-anchor="middle" x="1234" y="-139" font-family="Helvetica,sans-Serif" font-size="10.00"> myRoot</text>
</g>
<!-- Node22 -->
<g id="node22" class="node"><title>Node22</title>
<g id="a_node22"><a xlink:href="../../df/dcb/classturtle_1_1_turtle.html" target="_top" xlink:title="turtle.Turtle">
<polygon fill="white" stroke="black" points="541.5,-616.5 541.5,-635.5 612.5,-635.5 612.5,-616.5 541.5,-616.5"/>
<text text-anchor="middle" x="577" y="-623.5" font-family="Helvetica,sans-Serif" font-size="10.00">turtle.Turtle</text>
</a>
</g>
</g>
<!-- Node22&#45;&gt;Node1 -->
<g id="edge25" class="edge"><title>Node22&#45;&gt;Node1</title>
<path fill="none" stroke="#9a32cd" stroke-dasharray="5,2" d="M617.414,-613.4C676.756,-594.945 792.877,-560.827 894,-543 927.805,-537.041 965.495,-533.093 997.918,-530.517"/>
<polygon fill="#9a32cd" stroke="#9a32cd" points="616.198,-610.113 607.699,-616.44 618.288,-616.794 616.198,-610.113"/>
<text text-anchor="middle" x="815" y="-577" font-family="Helvetica,sans-Serif" font-size="10.00"> myTurtle</text>
</g>
<!-- Node28 -->
<g id="node28" class="node"><title>Node28</title>
<g id="a_node28"><a xlink:href="../../d9/dd0/classworld_1_1_world.html" target="_top" xlink:title="world.World">
<polygon fill="white" stroke="black" points="780,-490.5 780,-509.5 850,-509.5 850,-490.5 780,-490.5"/>
<text text-anchor="middle" x="815" y="-497.5" font-family="Helvetica,sans-Serif" font-size="10.00">world.World</text>
</a>
</g>
</g>
<!-- Node22&#45;&gt;Node28 -->
<g id="edge34" class="edge"><title>Node22&#45;&gt;Node28</title>
<path fill="none" stroke="#9a32cd" stroke-dasharray="5,2" d="M587.412,-607.592C599.138,-586.604 621.192,-552.895 650,-535 660.943,-528.202 735.153,-514.073 779.912,-506"/>
<polygon fill="#9a32cd" stroke="#9a32cd" points="584.279,-606.027 582.632,-616.493 590.447,-609.339 584.279,-606.027"/>
<text text-anchor="middle" x="693" y="-549" font-family="Helvetica,sans-Serif" font-size="10.00"> myTurtle</text>
<text text-anchor="middle" x="693" y="-538" font-family="Helvetica,sans-Serif" font-size="10.00">activeTurtle</text>
</g>
<!-- Node23 -->
<g id="node23" class="node"><title>Node23</title>
<polygon fill="white" stroke="#bfbfbf" points="275,-671.5 275,-690.5 343,-690.5 343,-671.5 275,-671.5"/>
<text text-anchor="middle" x="309" y="-678.5" font-family="Helvetica,sans-Serif" font-size="10.00">ImageView</text>
</g>
<!-- Node23&#45;&gt;Node22 -->
<g id="edge26" class="edge"><title>Node23&#45;&gt;Node22</title>
<path fill="none" stroke="midnightblue" d="M353.539,-682.064C393.468,-681.905 453.836,-678.779 504,-664 525.422,-657.689 547.827,-644.693 561.842,-635.668"/>
<polygon fill="midnightblue" stroke="midnightblue" points="353.354,-678.564 343.347,-682.042 353.339,-685.564 353.354,-678.564"/>
</g>
<!-- Node24 -->
<g id="node24" class="node"><title>Node24</title>
<g id="a_node24"><a xlink:href="../../de/d57/classturtle_1_1_pen.html" target="_top" xlink:title="turtle.Pen">
<polygon fill="white" stroke="black" points="277.5,-595.5 277.5,-614.5 340.5,-614.5 340.5,-595.5 277.5,-595.5"/>
<text text-anchor="middle" x="309" y="-602.5" font-family="Helvetica,sans-Serif" font-size="10.00">turtle.Pen</text>
</a>
</g>
</g>
<!-- Node24&#45;&gt;Node22 -->
<g id="edge27" class="edge"><title>Node24&#45;&gt;Node22</title>
<path fill="none" stroke="#9a32cd" stroke-dasharray="5,2" d="M350.86,-606.783C390.16,-608.674 451.217,-612.073 504,-617 516.166,-618.136 529.45,-619.703 541.258,-621.211"/>
<polygon fill="#9a32cd" stroke="#9a32cd" points="350.776,-603.276 340.622,-606.301 350.447,-610.268 350.776,-603.276"/>
<text text-anchor="middle" x="452" y="-620" font-family="Helvetica,sans-Serif" font-size="10.00"> myPen</text>
</g>
<!-- Node25 -->
<g id="node25" class="node"><title>Node25</title>
<polygon fill="white" stroke="#bfbfbf" points="44,-609.5 44,-628.5 84,-628.5 84,-609.5 44,-609.5"/>
<text text-anchor="middle" x="64" y="-616.5" font-family="Helvetica,sans-Serif" font-size="10.00">Paint</text>
</g>
<!-- Node25&#45;&gt;Node24 -->
<g id="edge28" class="edge"><title>Node25&#45;&gt;Node24</title>
<path fill="none" stroke="#9a32cd" stroke-dasharray="5,2" d="M94.3349,-617.31C140.687,-614.639 230.421,-609.47 277.493,-606.758"/>
<polygon fill="#9a32cd" stroke="#9a32cd" points="93.8499,-613.832 84.0678,-617.901 94.2526,-620.82 93.8499,-613.832"/>
<text text-anchor="middle" x="182" y="-618" font-family="Helvetica,sans-Serif" font-size="10.00"> myPenColor</text>
</g>
<!-- Node26 -->
<g id="node26" class="node"><title>Node26</title>
<polygon fill="white" stroke="#bfbfbf" points="282,-633.5 282,-652.5 336,-652.5 336,-633.5 282,-633.5"/>
<text text-anchor="middle" x="309" y="-640.5" font-family="Helvetica,sans-Serif" font-size="10.00">Point2D</text>
</g>
<!-- Node26&#45;&gt;Node22 -->
<g id="edge29" class="edge"><title>Node26&#45;&gt;Node22</title>
<path fill="none" stroke="#9a32cd" stroke-dasharray="5,2" d="M346.476,-640.669C397.857,-637.385 490.889,-631.439 541.293,-628.218"/>
<polygon fill="#9a32cd" stroke="#9a32cd" points="346.234,-637.177 336.478,-641.308 346.68,-644.163 346.234,-637.177"/>
<text text-anchor="middle" x="452" y="-652" font-family="Helvetica,sans-Serif" font-size="10.00"> next</text>
<text text-anchor="middle" x="452" y="-641" font-family="Helvetica,sans-Serif" font-size="10.00">current</text>
</g>
<!-- Node27 -->
<g id="node27" class="node"><title>Node27</title>
<polygon fill="white" stroke="#bfbfbf" points="285.5,-709.5 285.5,-728.5 332.5,-728.5 332.5,-709.5 285.5,-709.5"/>
<text text-anchor="middle" x="309" y="-716.5" font-family="Helvetica,sans-Serif" font-size="10.00">Image</text>
</g>
<!-- Node27&#45;&gt;Node22 -->
<g id="edge30" class="edge"><title>Node27&#45;&gt;Node22</title>
<path fill="none" stroke="#9a32cd" stroke-dasharray="5,2" d="M342.872,-718.848C382.758,-717.505 451.212,-711.413 504,-687 530.766,-674.622 555.488,-649.493 567.808,-635.664"/>
<polygon fill="#9a32cd" stroke="#9a32cd" points="342.564,-715.355 332.656,-719.109 342.742,-722.353 342.564,-715.355"/>
<text text-anchor="middle" x="452" y="-717" font-family="Helvetica,sans-Serif" font-size="10.00"> DEFAULT_IMAGE</text>
</g>
<!-- Node28&#45;&gt;Node1 -->
<g id="edge33" class="edge"><title>Node28&#45;&gt;Node1</title>
<path fill="none" stroke="#9a32cd" stroke-dasharray="5,2" d="M860.324,-498.735C893.422,-498.359 939.7,-499.034 980,-504 1001.29,-506.623 1024.74,-511.804 1043.37,-516.48"/>
<polygon fill="#9a32cd" stroke="#9a32cd" points="860.011,-495.239 850.065,-498.89 860.117,-502.239 860.011,-495.239"/>
<text text-anchor="middle" x="937" y="-507" font-family="Helvetica,sans-Serif" font-size="10.00"> myWorld</text>
</g>
<!-- Node29&#45;&gt;Node28 -->
<g id="edge35" class="edge"><title>Node29&#45;&gt;Node28</title>
<path fill="none" stroke="#9a32cd" stroke-dasharray="5,2" d="M627.399,-501.709C634.967,-501.426 642.691,-501.174 650,-501 694.832,-499.93 746.576,-499.798 779.757,-499.855"/>
<polygon fill="#9a32cd" stroke="#9a32cd" points="627.081,-498.219 617.228,-502.112 627.359,-505.214 627.081,-498.219"/>
<text text-anchor="middle" x="693" y="-504" font-family="Helvetica,sans-Serif" font-size="10.00"> myParser</text>
</g>
<!-- Node30&#45;&gt;Node29 -->
<g id="edge37" class="edge"><title>Node30&#45;&gt;Node29</title>
<path fill="none" stroke="#9a32cd" stroke-dasharray="5,2" d="M392.493,-487.557C427.011,-487.658 467.513,-488.696 504,-492 514.728,-492.971 526.269,-494.621 536.901,-496.391"/>
<polygon fill="#9a32cd" stroke="#9a32cd" points="392.457,-484.057 382.455,-487.553 392.454,-491.057 392.457,-484.057"/>
<text text-anchor="middle" x="452" y="-495" font-family="Helvetica,sans-Serif" font-size="10.00"> myCommandFactory</text>
</g>
<!-- Node31 -->
<g id="node31" class="node"><title>Node31</title>
<polygon fill="white" stroke="#bfbfbf" points="19.5,-515.5 19.5,-534.5 108.5,-534.5 108.5,-515.5 19.5,-515.5"/>
<text text-anchor="middle" x="64" y="-522.5" font-family="Helvetica,sans-Serif" font-size="10.00">List&lt; Double &gt;</text>
</g>
<!-- Node31&#45;&gt;Node30 -->
<g id="edge39" class="edge"><title>Node31&#45;&gt;Node30</title>
<path fill="none" stroke="#9a32cd" stroke-dasharray="5,2" d="M118.595,-517.447C147.963,-513.27 185,-507.939 218,-503 227.54,-501.572 237.643,-500.03 247.5,-498.509"/>
<polygon fill="#9a32cd" stroke="#9a32cd" points="117.955,-514.003 108.546,-518.874 118.939,-520.934 117.955,-514.003"/>
<text text-anchor="middle" x="182" y="-539" font-family="Helvetica,sans-Serif" font-size="10.00"> trueParams</text>
<text text-anchor="middle" x="182" y="-528" font-family="Helvetica,sans-Serif" font-size="10.00">homeParams</text>
<text text-anchor="middle" x="182" y="-517" font-family="Helvetica,sans-Serif" font-size="10.00">falseParams</text>
</g>
<!-- Node32 -->
<g id="node32" class="node"><title>Node32</title>
<polygon fill="white" stroke="#bfbfbf" points="0,-571.5 0,-590.5 128,-590.5 128,-571.5 0,-571.5"/>
<text text-anchor="middle" x="64" y="-578.5" font-family="Helvetica,sans-Serif" font-size="10.00">Map&lt; String, Double &gt;</text>
</g>
<!-- Node32&#45;&gt;Node30 -->
<g id="edge40" class="edge"><title>Node32&#45;&gt;Node30</title>
<path fill="none" stroke="#9a32cd" stroke-dasharray="5,2" d="M138.136,-580.843C165.717,-577.388 195.765,-569.128 218,-551 234.058,-537.909 220.372,-521.602 236,-508 240.388,-504.181 245.459,-501.117 250.835,-498.661"/>
<polygon fill="#9a32cd" stroke="#9a32cd" points="137.68,-577.372 128.105,-581.908 138.419,-584.333 137.68,-577.372"/>
<text text-anchor="middle" x="182" y="-583" font-family="Helvetica,sans-Serif" font-size="10.00"> variables</text>
</g>
<!-- Node33 -->
<g id="node33" class="node"><title>Node33</title>
<g id="a_node33"><a xlink:href="../../d3/dcc/classparser_1_1_node.html" target="_top" xlink:title="parser.Node">
<polygon fill="white" stroke="black" points="271.5,-517.5 271.5,-536.5 346.5,-536.5 346.5,-517.5 271.5,-517.5"/>
<text text-anchor="middle" x="309" y="-524.5" font-family="Helvetica,sans-Serif" font-size="10.00">parser.Node</text>
</a>
</g>
</g>
<!-- Node33&#45;&gt;Node29 -->
<g id="edge41" class="edge"><title>Node33&#45;&gt;Node29</title>
<path fill="none" stroke="#9a32cd" stroke-dasharray="5,2" d="M356.817,-522.952C407.884,-518.536 488.723,-511.546 536.642,-507.403"/>
<polygon fill="#9a32cd" stroke="#9a32cd" points="356.368,-519.478 346.707,-523.826 356.971,-526.452 356.368,-519.478"/>
<text text-anchor="middle" x="452" y="-533" font-family="Helvetica,sans-Serif" font-size="10.00"> myTree</text>
<text text-anchor="middle" x="452" y="-522" font-family="Helvetica,sans-Serif" font-size="10.00">myListTree</text>
</g>
<!-- Node33&#45;&gt;Node33 -->
<g id="edge42" class="edge"><title>Node33&#45;&gt;Node33</title>
<path fill="none" stroke="#9a32cd" stroke-dasharray="5,2" d="M285.563,-546.029C286.841,-551.128 294.654,-555 309,-555 331.395,-555 337.868,-545.565 328.42,-536.757"/>
<polygon fill="#9a32cd" stroke="#9a32cd" points="288.816,-547.324 289.58,-536.757 282.393,-544.541 288.816,-547.324"/>
<text text-anchor="middle" x="309" y="-569" font-family="Helvetica,sans-Serif" font-size="10.00"> myChild1</text>
<text text-anchor="middle" x="309" y="-558" font-family="Helvetica,sans-Serif" font-size="10.00">myChild2</text>
</g>
<!-- Node34 -->
<g id="node34" class="node"><title>Node34</title>
<polygon fill="white" stroke="#bfbfbf" points="522,-456.5 522,-475.5 632,-475.5 632,-456.5 522,-456.5"/>
<text text-anchor="middle" x="577" y="-463.5" font-family="Helvetica,sans-Serif" font-size="10.00">List&lt; turtle.Turtle &gt;</text>
</g>
<!-- Node34&#45;&gt;Node28 -->
<g id="edge43" class="edge"><title>Node34&#45;&gt;Node28</title>
<path fill="none" stroke="#9a32cd" stroke-dasharray="5,2" d="M642.547,-472.723C671.23,-475.978 705.367,-480.219 736,-485 750.442,-487.254 766.298,-490.213 779.919,-492.907"/>
<polygon fill="#9a32cd" stroke="#9a32cd" points="642.57,-469.204 632.243,-471.569 641.791,-476.161 642.57,-469.204"/>
<text text-anchor="middle" x="693" y="-488" font-family="Helvetica,sans-Serif" font-size="10.00"> myTurtles</text>
</g>
<!-- Node35 -->
<g id="node35" class="node"><title>Node35</title>
<polygon fill="white" stroke="#bfbfbf" points="556.5,-418.5 556.5,-437.5 597.5,-437.5 597.5,-418.5 556.5,-418.5"/>
<text text-anchor="middle" x="577" y="-425.5" font-family="Helvetica,sans-Serif" font-size="10.00">Color</text>
</g>
<!-- Node35&#45;&gt;Node28 -->
<g id="edge44" class="edge"><title>Node35&#45;&gt;Node28</title>
<path fill="none" stroke="#9a32cd" stroke-dasharray="5,2" d="M608.085,-431.266C640.391,-435.375 692.891,-443.807 736,-459 739.138,-460.106 774.044,-478.65 796.084,-490.415"/>
<polygon fill="#9a32cd" stroke="#9a32cd" points="608.295,-427.765 597.946,-430.034 607.451,-434.714 608.295,-427.765"/>
<text text-anchor="middle" x="693" y="-462" font-family="Helvetica,sans-Serif" font-size="10.00"> TURTLE_DEFAULT</text>
</g>
</g>
</svg>
        <g id="navigator" transform="translate(0 0)" fill="#404254">
                <rect fill="#f2f5e9" fill-opacity="0.5" stroke="#606060" stroke-width=".5" x="0" y="0" width="60" height="60"/>
                <use id="zoomplus" xlink:href="#zoomPlus" x="17" y="9" onmousedown="handleZoom(evt,'in')"/>
                <use id="zoomminus" xlink:href="#zoomMin" x="42" y="9" onmousedown="handleZoom(evt,'out')"/>
                <use id="reset" xlink:href="#resetDef" x="30" y="36" onmousedown="handleReset()"/>
                <g id="arrowUp" xlink:href="#dirArrow" transform="translate(30 24)" onmousedown="handlePan(0,-1)">
                  <use xlink:href="#rim" fill="#404040">
                        <set attributeName="fill" to="#808080" begin="arrowUp.mouseover" end="arrowUp.mouseout"/>
                  </use>
                  <path fill="none" stroke="white" stroke-width="1.5" d="M0,-3.0v7 M-2.5,-0.5L0,-3.0L2.5,-0.5"/>
                </g>
                <g id="arrowRight" xlink:href="#dirArrow" transform="rotate(90) translate(36 -43)" onmousedown="handlePan(1,0)">
                  <use xlink:href="#rim" fill="#404040">
                        <set attributeName="fill" to="#808080" begin="arrowRight.mouseover" end="arrowRight.mouseout"/>
                  </use>
                  <path fill="none" stroke="white" stroke-width="1.5" d="M0,-3.0v7 M-2.5,-0.5L0,-3.0L2.5,-0.5"/>
                </g>
                <g id="arrowDown" xlink:href="#dirArrow" transform="rotate(180) translate(-30 -48)" onmousedown="handlePan(0,1)">
                  <use xlink:href="#rim" fill="#404040">
                        <set attributeName="fill" to="#808080" begin="arrowDown.mouseover" end="arrowDown.mouseout"/>
                  </use>
                  <path fill="none" stroke="white" stroke-width="1.5" d="M0,-3.0v7 M-2.5,-0.5L0,-3.0L2.5,-0.5"/>
                </g>
                <g id="arrowLeft" xlink:href="#dirArrow" transform="rotate(270) translate(-36 17)" onmousedown="handlePan(-1,0)">
                  <use xlink:href="#rim" fill="#404040">
                        <set attributeName="fill" to="#808080" begin="arrowLeft.mouseover" end="arrowLeft.mouseout"/>
                  </use>
                  <path fill="none" stroke="white" stroke-width="1.5" d="M0,-3.0v7 M-2.5,-0.5L0,-3.0L2.5,-0.5"/>
                </g>
        </g>
        <svg viewBox="0 0 15 15" width="100%" height="30px" preserveAspectRatio="xMaxYMin meet">
         <g id="arrow_out" transform="scale(0.3 0.3)">
          <a xlink:href="classworld_controller_1_1_world_controller__coll__graph_org.svg" target="_base">
           <rect id="button" ry="5" rx="5" y="6" x="6" height="38" width="38"
                fill="#f2f5e9" fill-opacity="0.5" stroke="#606060" stroke-width="1.0"/>
           <path id="arrow"
             d="M 11.500037,31.436501 C 11.940474,20.09759 22.043105,11.32322 32.158766,21.979434 L 37.068811,17.246167 C 37.068811,17.246167 37.088388,32 37.088388,32 L 22.160133,31.978069 C 22.160133,31.978069 26.997745,27.140456 26.997745,27.140456 C 18.528582,18.264221 13.291696,25.230495 11.500037,31.436501 z"
             style="fill:#404040;"/>
          </a>
         </g>
        </svg>
</svg>
