<?xml version="1.0" encoding="UTF-8" standalone="no"?>
<!DOCTYPE svg PUBLIC "-//W3C//DTD SVG 1.1//EN"
 "http://www.w3.org/Graphics/SVG/1.1/DTD/svg11.dtd">
<!-- Generated by graphviz version 2.36.0 (20140111.2315)
 -->
<!-- Title: worldController.WorldController Pages: 1 -->
<svg width="1466pt" height="933pt"
 viewBox="0.00 0.00 1466.00 933.00" xmlns="http://www.w3.org/2000/svg" xmlns:xlink="http://www.w3.org/1999/xlink">
<g id="graph0" class="graph" transform="scale(1 1) rotate(0) translate(4 929)">
<title>worldController.WorldController</title>
<polygon fill="white" stroke="none" points="-4,4 -4,-929 1462,-929 1462,4 -4,4"/>
<!-- Node1 -->
<g id="node1" class="node"><title>Node1</title>
<polygon fill="#bfbfbf" stroke="black" points="1078,-727.5 1078,-746.5 1240,-746.5 1240,-727.5 1078,-727.5"/>
<text text-anchor="middle" x="1159" y="-734.5" font-family="Helvetica,sans-Serif" font-size="10.00">worldController.WorldController</text>
</g>
<!-- Node4 -->
<g id="node4" class="node"><title>Node4</title>
<g id="a_node4"><a xlink:href="../../d0/d7c/classuser_interface_1_1_u_i.html" target="_top" xlink:title="userInterface.UI">
<polygon fill="white" stroke="black" points="1366,-603.5 1366,-622.5 1458,-622.5 1458,-603.5 1366,-603.5"/>
<text text-anchor="middle" x="1412" y="-610.5" font-family="Helvetica,sans-Serif" font-size="10.00">userInterface.UI</text>
</a>
</g>
</g>
<!-- Node1&#45;&gt;Node4 -->
<g id="edge21" class="edge"><title>Node1&#45;&gt;Node4</title>
<path fill="none" stroke="#9a32cd" stroke-dasharray="5,2" d="M1190.52,-723.372C1209.67,-715.116 1235.01,-704.723 1258,-697 1297.24,-683.818 1311.89,-693.239 1348,-673 1371.45,-659.856 1392.75,-635.983 1403.55,-622.655"/>
<polygon fill="#9a32cd" stroke="#9a32cd" points="1188.89,-720.267 1181.12,-727.47 1191.68,-726.684 1188.89,-720.267"/>
<text text-anchor="middle" x="1303" y="-700" font-family="Helvetica,sans-Serif" font-size="10.00"> myController</text>
</g>
<!-- Node2 -->
<g id="node2" class="node"><title>Node2</title>
<polygon fill="white" stroke="#bfbfbf" points="898,-695.5 898,-714.5 954,-714.5 954,-695.5 898,-695.5"/>
<text text-anchor="middle" x="926" y="-702.5" font-family="Helvetica,sans-Serif" font-size="10.00">Timeline</text>
</g>
<!-- Node2&#45;&gt;Node1 -->
<g id="edge1" class="edge"><title>Node2&#45;&gt;Node1</title>
<path fill="none" stroke="#9a32cd" stroke-dasharray="5,2" d="M964.712,-710.224C998.334,-714.882 1048.39,-721.815 1089.13,-727.46"/>
<polygon fill="#9a32cd" stroke="#9a32cd" points="964.792,-706.702 954.406,-708.796 963.831,-713.636 964.792,-706.702"/>
<text text-anchor="middle" x="1026" y="-726" font-family="Helvetica,sans-Serif" font-size="10.00"> myAnimation</text>
</g>
<!-- Node3 -->
<g id="node3" class="node"><title>Node3</title>
<polygon fill="white" stroke="#bfbfbf" points="878,-879.5 878,-898.5 974,-898.5 974,-879.5 878,-879.5"/>
<text text-anchor="middle" x="926" y="-886.5" font-family="Helvetica,sans-Serif" font-size="10.00">GraphicsContext</text>
</g>
<!-- Node3&#45;&gt;Node1 -->
<g id="edge2" class="edge"><title>Node3&#45;&gt;Node1</title>
<path fill="none" stroke="#9a32cd" stroke-dasharray="5,2" d="M957.166,-875.051C984.784,-861.785 1026.35,-840.554 1060,-818 1094.1,-795.14 1130.38,-762.739 1147.67,-746.729"/>
<polygon fill="#9a32cd" stroke="#9a32cd" points="955.544,-871.947 948.015,-879.4 958.549,-878.269 955.544,-871.947"/>
<text text-anchor="middle" x="1026" y="-861" font-family="Helvetica,sans-Serif" font-size="10.00"> myGC</text>
</g>
<!-- Node3&#45;&gt;Node4 -->
<g id="edge13" class="edge"><title>Node3&#45;&gt;Node4</title>
<path fill="none" stroke="#9a32cd" stroke-dasharray="5,2" d="M984.537,-896.156C1048.79,-901.955 1154.93,-904.911 1240,-875 1296.1,-855.273 1312.7,-843.864 1348,-796 1390.08,-738.939 1405.59,-651.621 1409.74,-622.686"/>
<polygon fill="#9a32cd" stroke="#9a32cd" points="984.494,-892.636 974.206,-895.166 983.827,-899.604 984.494,-892.636"/>
<text text-anchor="middle" x="1159" y="-903" font-family="Helvetica,sans-Serif" font-size="10.00"> myGC</text>
</g>
<!-- Node4&#45;&gt;Node1 -->
<g id="edge3" class="edge"><title>Node4&#45;&gt;Node1</title>
<path fill="none" stroke="#9a32cd" stroke-dasharray="5,2" d="M1404.6,-632.012C1395.76,-655.069 1377.49,-693.178 1348,-712 1316.36,-732.197 1275.62,-739.363 1240.16,-741.1"/>
<polygon fill="#9a32cd" stroke="#9a32cd" points="1407.89,-633.195 1408,-622.6 1401.31,-630.814 1407.89,-633.195"/>
<text text-anchor="middle" x="1303" y="-743" font-family="Helvetica,sans-Serif" font-size="10.00"> UI</text>
</g>
<!-- Node5 -->
<g id="node5" class="node"><title>Node5</title>
<g id="a_node5"><a xlink:href="../../dc/d1b/classuser_interface_1_1_left_panel.html" target="_top" xlink:title="userInterface.LeftPanel">
<polygon fill="white" stroke="black" points="322,-361.5 322,-380.5 448,-380.5 448,-361.5 322,-361.5"/>
<text text-anchor="middle" x="385" y="-368.5" font-family="Helvetica,sans-Serif" font-size="10.00">userInterface.LeftPanel</text>
</a>
</g>
</g>
<!-- Node5&#45;&gt;Node4 -->
<g id="edge4" class="edge"><title>Node5&#45;&gt;Node4</title>
<path fill="none" stroke="#9a32cd" stroke-dasharray="5,2" d="M393.608,-389.95C406.563,-419.57 435.865,-476.308 480,-504 555.57,-551.415 588.786,-537 678,-537 678,-537 678,-537 1160,-537 1245.07,-537 1268.91,-541.646 1348,-573 1367.03,-580.544 1386.57,-594.013 1398.74,-603.219"/>
<polygon fill="#9a32cd" stroke="#9a32cd" points="396.818,-388.553 389.71,-380.696 390.367,-391.271 396.818,-388.553"/>
<text text-anchor="middle" x="926" y="-540" font-family="Helvetica,sans-Serif" font-size="10.00"> myLeftPanel</text>
</g>
<!-- Node6 -->
<g id="node6" class="node"><title>Node6</title>
<polygon fill="white" stroke="#bfbfbf" points="58.5,-191.5 58.5,-210.5 99.5,-210.5 99.5,-191.5 58.5,-191.5"/>
<text text-anchor="middle" x="79" y="-198.5" font-family="Helvetica,sans-Serif" font-size="10.00">VBox</text>
</g>
<!-- Node6&#45;&gt;Node5 -->
<g id="edge5" class="edge"><title>Node6&#45;&gt;Node5</title>
<path fill="none" stroke="#9a32cd" stroke-dasharray="5,2" d="M109.493,-204.24C159.972,-210.216 260.362,-224.112 290,-243 337.664,-273.375 369.269,-337.183 379.969,-361.4"/>
<polygon fill="#9a32cd" stroke="#9a32cd" points="109.858,-200.759 99.5219,-203.085 109.053,-207.712 109.858,-200.759"/>
<text text-anchor="middle" x="233" y="-246" font-family="Helvetica,sans-Serif" font-size="10.00"> myLeftPanel</text>
</g>
<!-- Node14 -->
<g id="node14" class="node"><title>Node14</title>
<g id="a_node14"><a xlink:href="../../de/df4/classuser_interface_1_1_right_panel.html" target="_top" xlink:title="userInterface.RightPanel">
<polygon fill="white" stroke="black" points="319,-102.5 319,-121.5 451,-121.5 451,-102.5 319,-102.5"/>
<text text-anchor="middle" x="385" y="-109.5" font-family="Helvetica,sans-Serif" font-size="10.00">userInterface.RightPanel</text>
</a>
</g>
</g>
<!-- Node6&#45;&gt;Node14 -->
<g id="edge15" class="edge"><title>Node6&#45;&gt;Node14</title>
<path fill="none" stroke="#9a32cd" stroke-dasharray="5,2" d="M109.717,-199.873C151.218,-197.515 228.372,-190.257 290,-168 321.445,-156.644 354.083,-134.433 371.411,-121.661"/>
<polygon fill="#9a32cd" stroke="#9a32cd" points="109.531,-196.378 99.7228,-200.384 109.889,-203.368 109.531,-196.378"/>
<text text-anchor="middle" x="233" y="-197" font-family="Helvetica,sans-Serif" font-size="10.00"> myRightPanel</text>
</g>
<!-- Node7 -->
<g id="node7" class="node"><title>Node7</title>
<polygon fill="white" stroke="#bfbfbf" points="2.5,-322 2.5,-352 155.5,-352 155.5,-322 2.5,-322"/>
<text text-anchor="start" x="10.5" y="-340" font-family="Helvetica,sans-Serif" font-size="10.00">TableColumn&lt; Map.Entry</text>
<text text-anchor="middle" x="79" y="-329" font-family="Helvetica,sans-Serif" font-size="10.00">&lt; String, Double &gt;, String &gt;</text>
</g>
<!-- Node7&#45;&gt;Node5 -->
<g id="edge6" class="edge"><title>Node7&#45;&gt;Node5</title>
<path fill="none" stroke="#9a32cd" stroke-dasharray="5,2" d="M166.005,-342.75C204.077,-345.713 249.35,-349.807 290,-355 303.793,-356.762 318.656,-359.09 332.4,-361.424"/>
<polygon fill="#9a32cd" stroke="#9a32cd" points="166.217,-339.256 155.979,-341.983 165.683,-346.236 166.217,-339.256"/>
<text text-anchor="middle" x="233" y="-358" font-family="Helvetica,sans-Serif" font-size="10.00"> variables</text>
</g>
<!-- Node8 -->
<g id="node8" class="node"><title>Node8</title>
<polygon fill="white" stroke="#bfbfbf" points="48,-283.5 48,-302.5 110,-302.5 110,-283.5 48,-283.5"/>
<text text-anchor="middle" x="79" y="-290.5" font-family="Helvetica,sans-Serif" font-size="10.00">TableView</text>
</g>
<!-- Node8&#45;&gt;Node5 -->
<g id="edge7" class="edge"><title>Node8&#45;&gt;Node5</title>
<path fill="none" stroke="#9a32cd" stroke-dasharray="5,2" d="M120.123,-296.856C162.901,-301.663 232.291,-311.465 290,-329 317.535,-337.366 347.615,-351.821 366.149,-361.398"/>
<polygon fill="#9a32cd" stroke="#9a32cd" points="120.425,-293.368 110.105,-295.768 119.669,-300.327 120.425,-293.368"/>
<text text-anchor="middle" x="233" y="-332" font-family="Helvetica,sans-Serif" font-size="10.00"> turtleTable</text>
</g>
<!-- Node9 -->
<g id="node9" class="node"><title>Node9</title>
<polygon fill="white" stroke="#bfbfbf" points="0,-234 0,-264 158,-264 158,-234 0,-234"/>
<text text-anchor="start" x="8" y="-252" font-family="Helvetica,sans-Serif" font-size="10.00">TableColumn&lt; Map.Entry</text>
<text text-anchor="middle" x="79" y="-241" font-family="Helvetica,sans-Serif" font-size="10.00">&lt; String, Double &gt;, Double &gt;</text>
</g>
<!-- Node9&#45;&gt;Node5 -->
<g id="edge8" class="edge"><title>Node9&#45;&gt;Node5</title>
<path fill="none" stroke="#9a32cd" stroke-dasharray="5,2" d="M168.593,-256.006C207.339,-261.627 252.424,-271.754 290,-290 327.013,-307.972 361.122,-344.216 376.056,-361.462"/>
<polygon fill="#9a32cd" stroke="#9a32cd" points="168.75,-252.495 158.368,-254.605 167.8,-259.43 168.75,-252.495"/>
<text text-anchor="middle" x="233" y="-293" font-family="Helvetica,sans-Serif" font-size="10.00"> values</text>
</g>
<!-- Node10 -->
<g id="node10" class="node"><title>Node10</title>
<polygon fill="white" stroke="#bfbfbf" points="18,-410 18,-440 140,-440 140,-410 18,-410"/>
<text text-anchor="start" x="26" y="-428" font-family="Helvetica,sans-Serif" font-size="10.00">TableView&lt; Map.Entry</text>
<text text-anchor="middle" x="79" y="-417" font-family="Helvetica,sans-Serif" font-size="10.00">&lt; String, Double &gt; &gt;</text>
</g>
<!-- Node10&#45;&gt;Node5 -->
<g id="edge9" class="edge"><title>Node10&#45;&gt;Node5</title>
<path fill="none" stroke="#9a32cd" stroke-dasharray="5,2" d="M150.587,-416.254C191.469,-410.771 243.822,-403.037 290,-394 309.456,-390.192 330.947,-385.008 348.464,-380.526"/>
<polygon fill="#9a32cd" stroke="#9a32cd" points="149.904,-412.814 140.451,-417.599 150.825,-419.753 149.904,-412.814"/>
<text text-anchor="middle" x="233" y="-416" font-family="Helvetica,sans-Serif" font-size="10.00"> variableTable</text>
</g>
<!-- Node11 -->
<g id="node11" class="node"><title>Node11</title>
<polygon fill="white" stroke="#bfbfbf" points="15,-531.5 15,-550.5 143,-550.5 143,-531.5 15,-531.5"/>
<text text-anchor="middle" x="79" y="-538.5" font-family="Helvetica,sans-Serif" font-size="10.00">Map&lt; String, Double &gt;</text>
</g>
<!-- Node11&#45;&gt;Node5 -->
<g id="edge10" class="edge"><title>Node11&#45;&gt;Node5</title>
<path fill="none" stroke="#9a32cd" stroke-dasharray="5,2" d="M108.315,-526.675C123.224,-518.993 141.738,-509.23 158,-500 166.154,-495.372 167.33,-492.569 176,-489 224.148,-469.178 244.327,-487.003 290,-462 328.652,-440.841 362.704,-399.491 376.931,-380.704"/>
<polygon fill="#9a32cd" stroke="#9a32cd" points="106.403,-523.722 99.0988,-531.397 109.595,-529.952 106.403,-523.722"/>
<text text-anchor="middle" x="233" y="-492" font-family="Helvetica,sans-Serif" font-size="10.00"> myVariables</text>
</g>
<!-- Node33 -->
<g id="node33" class="node"><title>Node33</title>
<g id="a_node33"><a xlink:href="../../d9/d1b/classcommand_1_1_command_factory.html" target="_top" xlink:title="command.CommandFactory">
<polygon fill="white" stroke="black" points="308.5,-550.5 308.5,-569.5 461.5,-569.5 461.5,-550.5 308.5,-550.5"/>
<text text-anchor="middle" x="385" y="-557.5" font-family="Helvetica,sans-Serif" font-size="10.00">command.CommandFactory</text>
</a>
</g>
</g>
<!-- Node11&#45;&gt;Node33 -->
<g id="edge41" class="edge"><title>Node11&#45;&gt;Node33</title>
<path fill="none" stroke="#9a32cd" stroke-dasharray="5,2" d="M153.44,-544.886C193.763,-547.097 244.651,-550.016 290,-553 295.96,-553.392 302.132,-553.815 308.333,-554.251"/>
<polygon fill="#9a32cd" stroke="#9a32cd" points="153.602,-541.389 143.426,-544.339 153.22,-548.379 153.602,-541.389"/>
<text text-anchor="middle" x="233" y="-556" font-family="Helvetica,sans-Serif" font-size="10.00"> variables</text>
</g>
<!-- Node12 -->
<g id="node12" class="node"><title>Node12</title>
<polygon fill="white" stroke="#bfbfbf" points="18,-471.5 18,-490.5 140,-490.5 140,-471.5 18,-471.5"/>
<text text-anchor="middle" x="79" y="-478.5" font-family="Helvetica,sans-Serif" font-size="10.00">Map&lt; String, String &gt;</text>
</g>
<!-- Node12&#45;&gt;Node5 -->
<g id="edge11" class="edge"><title>Node12&#45;&gt;Node5</title>
<path fill="none" stroke="#9a32cd" stroke-dasharray="5,2" d="M117.804,-468.19C135.377,-462.493 156.629,-455.967 176,-451 226.068,-438.163 241.849,-446.792 290,-428 321.292,-415.788 353.987,-393.426 371.366,-380.642"/>
<polygon fill="#9a32cd" stroke="#9a32cd" points="116.336,-464.988 107.924,-471.431 118.517,-471.64 116.336,-464.988"/>
<text text-anchor="middle" x="233" y="-454" font-family="Helvetica,sans-Serif" font-size="10.00"> myTurtles</text>
</g>
<!-- Node12&#45;&gt;Node33 -->
<g id="edge40" class="edge"><title>Node12&#45;&gt;Node33</title>
<path fill="none" stroke="#9a32cd" stroke-dasharray="5,2" d="M131.861,-492.814C174.479,-502.71 236.35,-517.505 290,-532 311.206,-537.729 334.909,-544.794 353.208,-550.394"/>
<polygon fill="#9a32cd" stroke="#9a32cd" points="132.529,-489.376 121.997,-490.531 130.951,-496.196 132.529,-489.376"/>
<text text-anchor="middle" x="233" y="-535" font-family="Helvetica,sans-Serif" font-size="10.00"> functions</text>
</g>
<!-- Node13 -->
<g id="node13" class="node"><title>Node13</title>
<polygon fill="white" stroke="#bfbfbf" points="40.5,-371.5 40.5,-390.5 117.5,-390.5 117.5,-371.5 40.5,-371.5"/>
<text text-anchor="middle" x="79" y="-378.5" font-family="Helvetica,sans-Serif" font-size="10.00">TableColumn</text>
</g>
<!-- Node13&#45;&gt;Node5 -->
<g id="edge12" class="edge"><title>Node13&#45;&gt;Node5</title>
<path fill="none" stroke="#9a32cd" stroke-dasharray="5,2" d="M128.07,-375.651C143.37,-374.175 160.378,-372.768 176,-372 224.872,-369.596 280.281,-369.457 321.615,-369.858"/>
<polygon fill="#9a32cd" stroke="#9a32cd" points="127.392,-372.201 117.789,-376.677 128.087,-379.167 127.392,-372.201"/>
<text text-anchor="middle" x="233" y="-386" font-family="Helvetica,sans-Serif" font-size="10.00"> turtleIDs</text>
<text text-anchor="middle" x="233" y="-375" font-family="Helvetica,sans-Serif" font-size="10.00">turtles</text>
</g>
<!-- Node14&#45;&gt;Node4 -->
<g id="edge14" class="edge"><title>Node14&#45;&gt;Node4</title>
<path fill="none" stroke="#9a32cd" stroke-dasharray="5,2" d="M390.699,-131.634C410.543,-209.189 495.027,-490 678,-490 678,-490 678,-490 1160,-490 1246.46,-490 1274.72,-494.12 1348,-540 1374.39,-556.523 1395.69,-587.572 1405.36,-603.317"/>
<polygon fill="#9a32cd" stroke="#9a32cd" points="394.045,-130.584 388.237,-121.724 387.252,-132.273 394.045,-130.584"/>
<text text-anchor="middle" x="926" y="-493" font-family="Helvetica,sans-Serif" font-size="10.00"> myRightPanel</text>
</g>
<!-- Node15 -->
<g id="node15" class="node"><title>Node15</title>
<polygon fill="white" stroke="#bfbfbf" points="37,-76.5 37,-95.5 121,-95.5 121,-76.5 37,-76.5"/>
<text text-anchor="middle" x="79" y="-83.5" font-family="Helvetica,sans-Serif" font-size="10.00">List&lt; String &gt;</text>
</g>
<!-- Node15&#45;&gt;Node14 -->
<g id="edge16" class="edge"><title>Node15&#45;&gt;Node14</title>
<path fill="none" stroke="#9a32cd" stroke-dasharray="5,2" d="M131.426,-81.6392C174.113,-79.003 236.302,-77.4409 290,-85 313.539,-88.3136 339.445,-96.0779 358.089,-102.434"/>
<polygon fill="#9a32cd" stroke="#9a32cd" points="131.029,-78.1577 121.281,-82.3087 131.489,-85.1426 131.029,-78.1577"/>
<text text-anchor="middle" x="233" y="-110" font-family="Helvetica,sans-Serif" font-size="10.00"> results</text>
<text text-anchor="middle" x="233" y="-99" font-family="Helvetica,sans-Serif" font-size="10.00">previousCommands</text>
<text text-anchor="middle" x="233" y="-88" font-family="Helvetica,sans-Serif" font-size="10.00">savedCommands</text>
</g>
<!-- Node16 -->
<g id="node16" class="node"><title>Node16</title>
<polygon fill="white" stroke="#bfbfbf" points="46,-38.5 46,-57.5 112,-57.5 112,-38.5 46,-38.5"/>
<text text-anchor="middle" x="79" y="-45.5" font-family="Helvetica,sans-Serif" font-size="10.00">ScrollPane</text>
</g>
<!-- Node16&#45;&gt;Node14 -->
<g id="edge17" class="edge"><title>Node16&#45;&gt;Node14</title>
<path fill="none" stroke="#9a32cd" stroke-dasharray="5,2" d="M122.436,-46.7417C165.45,-46.5486 233.531,-49.2371 290,-65 319.876,-73.3395 351.525,-91.3291 369.417,-102.475"/>
<polygon fill="#9a32cd" stroke="#9a32cd" points="122.292,-43.2429 112.327,-46.8426 122.362,-50.2425 122.292,-43.2429"/>
<text text-anchor="middle" x="233" y="-68" font-family="Helvetica,sans-Serif" font-size="10.00"> myResultView</text>
</g>
<!-- Node17 -->
<g id="node17" class="node"><title>Node17</title>
<polygon fill="white" stroke="#bfbfbf" points="61.5,-0.5 61.5,-19.5 96.5,-19.5 96.5,-0.5 61.5,-0.5"/>
<text text-anchor="middle" x="79" y="-7.5" font-family="Helvetica,sans-Serif" font-size="10.00">Text</text>
</g>
<!-- Node17&#45;&gt;Node14 -->
<g id="edge18" class="edge"><title>Node17&#45;&gt;Node14</title>
<path fill="none" stroke="#9a32cd" stroke-dasharray="5,2" d="M106.64,-8.30537C147.749,-6.71195 228.342,-7.69722 290,-34 327.06,-49.8096 360.888,-85.1175 375.868,-102.272"/>
<polygon fill="#9a32cd" stroke="#9a32cd" points="106.431,-4.81124 96.6069,-8.77809 106.761,-11.8035 106.431,-4.81124"/>
<text text-anchor="middle" x="233" y="-37" font-family="Helvetica,sans-Serif" font-size="10.00"> myResults</text>
</g>
<!-- Node18 -->
<g id="node18" class="node"><title>Node18</title>
<polygon fill="white" stroke="#bfbfbf" points="26,-130.5 26,-149.5 132,-149.5 132,-130.5 26,-130.5"/>
<text text-anchor="middle" x="79" y="-137.5" font-family="Helvetica,sans-Serif" font-size="10.00">ListView&lt; String &gt;</text>
</g>
<!-- Node18&#45;&gt;Node14 -->
<g id="edge19" class="edge"><title>Node18&#45;&gt;Node14</title>
<path fill="none" stroke="#9a32cd" stroke-dasharray="5,2" d="M142.262,-134.265C193.766,-129.522 266.683,-122.805 318.942,-117.992"/>
<polygon fill="#9a32cd" stroke="#9a32cd" points="141.896,-130.784 132.259,-135.187 142.538,-137.755 141.896,-130.784"/>
<text text-anchor="middle" x="233" y="-156" font-family="Helvetica,sans-Serif" font-size="10.00"> resultsView</text>
<text text-anchor="middle" x="233" y="-145" font-family="Helvetica,sans-Serif" font-size="10.00">savedCommandView</text>
<text text-anchor="middle" x="233" y="-134" font-family="Helvetica,sans-Serif" font-size="10.00">previousCommandView</text>
</g>
<!-- Node19 -->
<g id="node19" class="node"><title>Node19</title>
<polygon fill="white" stroke="#bfbfbf" points="32.5,-624.5 32.5,-643.5 125.5,-643.5 125.5,-624.5 32.5,-624.5"/>
<text text-anchor="middle" x="79" y="-631.5" font-family="Helvetica,sans-Serif" font-size="10.00">ResourceBundle</text>
</g>
<!-- Node19&#45;&gt;Node4 -->
<g id="edge20" class="edge"><title>Node19&#45;&gt;Node4</title>
<path fill="none" stroke="#9a32cd" stroke-dasharray="5,2" d="M135.869,-630.728C241.643,-624.825 478.437,-613 678,-613 678,-613 678,-613 1160,-613 1231.9,-613 1315.39,-613 1365.66,-613"/>
<polygon fill="#9a32cd" stroke="#9a32cd" points="135.532,-627.242 125.745,-631.298 135.925,-634.231 135.532,-627.242"/>
<text text-anchor="middle" x="817" y="-616" font-family="Helvetica,sans-Serif" font-size="10.00"> myLanguage</text>
</g>
<!-- Node32 -->
<g id="node32" class="node"><title>Node32</title>
<g id="a_node32"><a xlink:href="../../d6/d95/classparser_1_1_parser.html" target="_top" xlink:title="parser.Parser">
<polygon fill="white" stroke="black" points="639,-698.5 639,-717.5 719,-717.5 719,-698.5 639,-698.5"/>
<text text-anchor="middle" x="679" y="-705.5" font-family="Helvetica,sans-Serif" font-size="10.00">parser.Parser</text>
</a>
</g>
</g>
<!-- Node19&#45;&gt;Node32 -->
<g id="edge42" class="edge"><title>Node19&#45;&gt;Node32</title>
<path fill="none" stroke="#9a32cd" stroke-dasharray="5,2" d="M136.141,-642.475C149.213,-644.369 163.085,-646.314 176,-648 302.877,-664.568 334.96,-665.731 462,-681 523.911,-688.441 595.746,-697.506 638.993,-703.011"/>
<polygon fill="#9a32cd" stroke="#9a32cd" points="136.263,-638.956 125.862,-640.974 135.251,-645.882 136.263,-638.956"/>
<text text-anchor="middle" x="385" y="-684" font-family="Helvetica,sans-Serif" font-size="10.00"> myResources</text>
</g>
<!-- Node19&#45;&gt;Node33 -->
<g id="edge39" class="edge"><title>Node19&#45;&gt;Node33</title>
<path fill="none" stroke="#9a32cd" stroke-dasharray="5,2" d="M104.464,-619.24C123.34,-608.552 150.461,-594.682 176,-587 218.717,-574.151 268.179,-567.417 308.151,-563.887"/>
<polygon fill="#9a32cd" stroke="#9a32cd" points="102.552,-616.303 95.6493,-624.34 106.058,-622.362 102.552,-616.303"/>
<text text-anchor="middle" x="233" y="-612" font-family="Helvetica,sans-Serif" font-size="10.00"> syntax</text>
<text text-anchor="middle" x="233" y="-601" font-family="Helvetica,sans-Serif" font-size="10.00">paramMap</text>
<text text-anchor="middle" x="233" y="-590" font-family="Helvetica,sans-Serif" font-size="10.00">translationMap</text>
</g>
<!-- Node20 -->
<g id="node20" class="node"><title>Node20</title>
<polygon fill="white" stroke="#bfbfbf" points="1130,-565.5 1130,-584.5 1188,-584.5 1188,-565.5 1130,-565.5"/>
<text text-anchor="middle" x="1159" y="-572.5" font-family="Helvetica,sans-Serif" font-size="10.00">TextArea</text>
</g>
<!-- Node20&#45;&gt;Node4 -->
<g id="edge22" class="edge"><title>Node20&#45;&gt;Node4</title>
<path fill="none" stroke="#9a32cd" stroke-dasharray="5,2" d="M1198.31,-574.221C1236.65,-574.237 1297.11,-576.439 1348,-588 1363.03,-591.415 1379.18,-597.882 1391.36,-603.382"/>
<polygon fill="#9a32cd" stroke="#9a32cd" points="1198.09,-570.722 1188.1,-574.268 1198.12,-577.722 1198.09,-570.722"/>
<text text-anchor="middle" x="1303" y="-591" font-family="Helvetica,sans-Serif" font-size="10.00"> myInput</text>
</g>
<!-- Node21 -->
<g id="node21" class="node"><title>Node21</title>
<polygon fill="white" stroke="#bfbfbf" points="892.5,-771.5 892.5,-790.5 959.5,-790.5 959.5,-771.5 892.5,-771.5"/>
<text text-anchor="middle" x="926" y="-778.5" font-family="Helvetica,sans-Serif" font-size="10.00">StackPane</text>
</g>
<!-- Node21&#45;&gt;Node1 -->
<g id="edge33" class="edge"><title>Node21&#45;&gt;Node1</title>
<path fill="none" stroke="#9a32cd" stroke-dasharray="5,2" d="M969.515,-773.582C995.646,-768.96 1029.79,-762.807 1060,-757 1077.05,-753.722 1095.74,-749.953 1112.17,-746.577"/>
<polygon fill="#9a32cd" stroke="#9a32cd" points="968.801,-770.154 959.56,-775.338 970.016,-777.048 968.801,-770.154"/>
<text text-anchor="middle" x="1026" y="-773" font-family="Helvetica,sans-Serif" font-size="10.00"> myPane</text>
</g>
<!-- Node21&#45;&gt;Node4 -->
<g id="edge23" class="edge"><title>Node21&#45;&gt;Node4</title>
<path fill="none" stroke="#9a32cd" stroke-dasharray="5,2" d="M964.032,-795.6C967.693,-798.034 971.114,-800.822 974,-804 989.316,-820.868 973.273,-839.022 992,-852 1039.58,-884.973 1262.56,-832.869 1348,-755 1389.06,-717.577 1404.83,-648.433 1409.43,-622.852"/>
<polygon fill="#9a32cd" stroke="#9a32cd" points="965.611,-792.471 955.193,-790.545 962.136,-798.548 965.611,-792.471"/>
<text text-anchor="middle" x="1159" y="-863" font-family="Helvetica,sans-Serif" font-size="10.00"> canvasPane</text>
</g>
<!-- Node22 -->
<g id="node22" class="node"><title>Node22</title>
<polygon fill="white" stroke="#bfbfbf" points="900,-649.5 900,-668.5 952,-668.5 952,-649.5 900,-649.5"/>
<text text-anchor="middle" x="926" y="-656.5" font-family="Helvetica,sans-Serif" font-size="10.00">Canvas</text>
</g>
<!-- Node22&#45;&gt;Node1 -->
<g id="edge34" class="edge"><title>Node22&#45;&gt;Node1</title>
<path fill="none" stroke="#9a32cd" stroke-dasharray="5,2" d="M961.895,-669.113C988.834,-677.076 1026.96,-688.683 1060,-700 1085.46,-708.722 1114.24,-719.726 1133.99,-727.458"/>
<polygon fill="#9a32cd" stroke="#9a32cd" points="962.734,-665.712 952.153,-666.248 960.759,-672.427 962.734,-665.712"/>
<text text-anchor="middle" x="1026" y="-703" font-family="Helvetica,sans-Serif" font-size="10.00"> myCanvas</text>
</g>
<!-- Node22&#45;&gt;Node4 -->
<g id="edge24" class="edge"><title>Node22&#45;&gt;Node4</title>
<path fill="none" stroke="#9a32cd" stroke-dasharray="5,2" d="M962.713,-658.005C1035.53,-655.598 1206.27,-648.024 1348,-627 1355.87,-625.833 1364.22,-624.236 1372.18,-622.538"/>
<polygon fill="#9a32cd" stroke="#9a32cd" points="962.174,-654.52 952.29,-658.336 962.396,-661.517 962.174,-654.52"/>
<text text-anchor="middle" x="1159" y="-656" font-family="Helvetica,sans-Serif" font-size="10.00"> myCanvas</text>
</g>
<!-- Node23 -->
<g id="node23" class="node"><title>Node23</title>
<polygon fill="white" stroke="#bfbfbf" points="1138,-442.5 1138,-461.5 1180,-461.5 1180,-442.5 1138,-442.5"/>
<text text-anchor="middle" x="1159" y="-449.5" font-family="Helvetica,sans-Serif" font-size="10.00">HBox</text>
</g>
<!-- Node23&#45;&gt;Node4 -->
<g id="edge25" class="edge"><title>Node23&#45;&gt;Node4</title>
<path fill="none" stroke="#9a32cd" stroke-dasharray="5,2" d="M1190,-445.205C1229.99,-437.968 1301.15,-431.644 1348,-465 1395.55,-498.85 1407.45,-576.074 1410.22,-603.289"/>
<polygon fill="#9a32cd" stroke="#9a32cd" points="1189.22,-441.793 1180.07,-447.14 1190.55,-448.664 1189.22,-441.793"/>
<text text-anchor="middle" x="1303" y="-468" font-family="Helvetica,sans-Serif" font-size="10.00"> myCommandField</text>
</g>
<!-- Node24 -->
<g id="node24" class="node"><title>Node24</title>
<polygon fill="white" stroke="#bfbfbf" points="1123,-401.5 1123,-420.5 1195,-420.5 1195,-401.5 1123,-401.5"/>
<text text-anchor="middle" x="1159" y="-408.5" font-family="Helvetica,sans-Serif" font-size="10.00">BorderPane</text>
</g>
<!-- Node24&#45;&gt;Node4 -->
<g id="edge26" class="edge"><title>Node24&#45;&gt;Node4</title>
<path fill="none" stroke="#9a32cd" stroke-dasharray="5,2" d="M1200.52,-399.083C1241.83,-389.575 1305.67,-382.48 1348,-414 1410.78,-460.75 1412.47,-570.28 1411.46,-603.367"/>
<polygon fill="#9a32cd" stroke="#9a32cd" points="1199.67,-395.688 1190.79,-401.464 1201.34,-402.487 1199.67,-395.688"/>
<text text-anchor="middle" x="1303" y="-428" font-family="Helvetica,sans-Serif" font-size="10.00"> myCenterView</text>
<text text-anchor="middle" x="1303" y="-417" font-family="Helvetica,sans-Serif" font-size="10.00">myView</text>
</g>
<!-- Node25 -->
<g id="node25" class="node"><title>Node25</title>
<g id="a_node25"><a xlink:href="../../df/dcb/classturtle_1_1_turtle.html" target="_top" xlink:title="turtle.Turtle">
<polygon fill="white" stroke="black" points="643.5,-817.5 643.5,-836.5 714.5,-836.5 714.5,-817.5 643.5,-817.5"/>
<text text-anchor="middle" x="679" y="-824.5" font-family="Helvetica,sans-Serif" font-size="10.00">turtle.Turtle</text>
</a>
</g>
</g>
<!-- Node25&#45;&gt;Node1 -->
<g id="edge27" class="edge"><title>Node25&#45;&gt;Node1</title>
<path fill="none" stroke="#9a32cd" stroke-dasharray="5,2" d="M724.636,-827.854C796.921,-827.97 943.274,-822.915 1060,-785 1090.27,-775.167 1123.02,-757.568 1141.95,-746.631"/>
<polygon fill="#9a32cd" stroke="#9a32cd" points="724.538,-824.353 714.52,-827.803 724.503,-831.353 724.538,-824.353"/>
<text text-anchor="middle" x="926" y="-824" font-family="Helvetica,sans-Serif" font-size="10.00"> myTurtle</text>
</g>
<!-- Node31 -->
<g id="node31" class="node"><title>Node31</title>
<g id="a_node31"><a xlink:href="../../d9/dd0/classworld_1_1_world.html" target="_top" xlink:title="world.World">
<polygon fill="white" stroke="black" points="891,-733.5 891,-752.5 961,-752.5 961,-733.5 891,-733.5"/>
<text text-anchor="middle" x="926" y="-740.5" font-family="Helvetica,sans-Serif" font-size="10.00">world.World</text>
</a>
</g>
</g>
<!-- Node25&#45;&gt;Node31 -->
<g id="edge36" class="edge"><title>Node25&#45;&gt;Node31</title>
<path fill="none" stroke="#9a32cd" stroke-dasharray="5,2" d="M713.243,-813.729C731.152,-806.717 753.682,-798.113 774,-791 814.762,-776.729 862.32,-761.909 893.007,-752.581"/>
<polygon fill="#9a32cd" stroke="#9a32cd" points="711.836,-810.522 703.813,-817.442 714.4,-817.035 711.836,-810.522"/>
<text text-anchor="middle" x="817" y="-805" font-family="Helvetica,sans-Serif" font-size="10.00"> myTurtle</text>
<text text-anchor="middle" x="817" y="-794" font-family="Helvetica,sans-Serif" font-size="10.00">activeTurtle</text>
</g>
<!-- Node26 -->
<g id="node26" class="node"><title>Node26</title>
<polygon fill="white" stroke="#bfbfbf" points="351,-779.5 351,-798.5 419,-798.5 419,-779.5 351,-779.5"/>
<text text-anchor="middle" x="385" y="-786.5" font-family="Helvetica,sans-Serif" font-size="10.00">ImageView</text>
</g>
<!-- Node26&#45;&gt;Node25 -->
<g id="edge28" class="edge"><title>Node26&#45;&gt;Node25</title>
<path fill="none" stroke="midnightblue" d="M429.206,-794.623C487.462,-802.204 590.041,-815.553 643.464,-822.506"/>
<polygon fill="midnightblue" stroke="midnightblue" points="429.58,-791.142 419.212,-793.322 428.677,-798.083 429.58,-791.142"/>
</g>
<!-- Node27 -->
<g id="node27" class="node"><title>Node27</title>
<g id="a_node27"><a xlink:href="../../de/d57/classturtle_1_1_pen.html" target="_top" xlink:title="turtle.Pen">
<polygon fill="white" stroke="black" points="353.5,-855.5 353.5,-874.5 416.5,-874.5 416.5,-855.5 353.5,-855.5"/>
<text text-anchor="middle" x="385" y="-862.5" font-family="Helvetica,sans-Serif" font-size="10.00">turtle.Pen</text>
</a>
</g>
</g>
<!-- Node27&#45;&gt;Node25 -->
<g id="edge29" class="edge"><title>Node27&#45;&gt;Node25</title>
<path fill="none" stroke="#9a32cd" stroke-dasharray="5,2" d="M426.731,-860.391C466.79,-855.781 529.662,-848.338 584,-841 603.621,-838.35 625.502,-835.108 643.212,-832.412"/>
<polygon fill="#9a32cd" stroke="#9a32cd" points="426.097,-856.941 416.561,-861.557 426.894,-863.895 426.097,-856.941"/>
<text text-anchor="middle" x="532" y="-857" font-family="Helvetica,sans-Serif" font-size="10.00"> myPen</text>
</g>
<!-- Node28 -->
<g id="node28" class="node"><title>Node28</title>
<polygon fill="white" stroke="#bfbfbf" points="59,-855.5 59,-874.5 99,-874.5 99,-855.5 59,-855.5"/>
<text text-anchor="middle" x="79" y="-862.5" font-family="Helvetica,sans-Serif" font-size="10.00">Paint</text>
</g>
<!-- Node28&#45;&gt;Node27 -->
<g id="edge30" class="edge"><title>Node28&#45;&gt;Node27</title>
<path fill="none" stroke="#9a32cd" stroke-dasharray="5,2" d="M109.243,-865C166.837,-865 294.458,-865 353.251,-865"/>
<polygon fill="#9a32cd" stroke="#9a32cd" points="109.017,-861.5 99.0166,-865 109.017,-868.5 109.017,-861.5"/>
<text text-anchor="middle" x="233" y="-868" font-family="Helvetica,sans-Serif" font-size="10.00"> myPenColor</text>
</g>
<!-- Node29 -->
<g id="node29" class="node"><title>Node29</title>
<polygon fill="white" stroke="#bfbfbf" points="358,-893.5 358,-912.5 412,-912.5 412,-893.5 358,-893.5"/>
<text text-anchor="middle" x="385" y="-900.5" font-family="Helvetica,sans-Serif" font-size="10.00">Point2D</text>
</g>
<!-- Node29&#45;&gt;Node25 -->
<g id="edge31" class="edge"><title>Node29&#45;&gt;Node25</title>
<path fill="none" stroke="#9a32cd" stroke-dasharray="5,2" d="M422.227,-899.53C462.413,-895.051 528.861,-885.763 584,-869 611.534,-860.63 641.614,-846.176 660.148,-836.601"/>
<polygon fill="#9a32cd" stroke="#9a32cd" points="421.678,-896.069 412.109,-900.618 422.426,-903.029 421.678,-896.069"/>
<text text-anchor="middle" x="532" y="-917" font-family="Helvetica,sans-Serif" font-size="10.00"> goal</text>
<text text-anchor="middle" x="532" y="-906" font-family="Helvetica,sans-Serif" font-size="10.00">next</text>
<text text-anchor="middle" x="532" y="-895" font-family="Helvetica,sans-Serif" font-size="10.00">current</text>
</g>
<!-- Node30 -->
<g id="node30" class="node"><title>Node30</title>
<polygon fill="white" stroke="#bfbfbf" points="361.5,-817.5 361.5,-836.5 408.5,-836.5 408.5,-817.5 361.5,-817.5"/>
<text text-anchor="middle" x="385" y="-824.5" font-family="Helvetica,sans-Serif" font-size="10.00">Image</text>
</g>
<!-- Node30&#45;&gt;Node25 -->
<g id="edge32" class="edge"><title>Node30&#45;&gt;Node25</title>
<path fill="none" stroke="#9a32cd" stroke-dasharray="5,2" d="M418.93,-827C474.529,-827 586.491,-827 643.276,-827"/>
<polygon fill="#9a32cd" stroke="#9a32cd" points="418.913,-823.5 408.913,-827 418.913,-830.5 418.913,-823.5"/>
<text text-anchor="middle" x="532" y="-830" font-family="Helvetica,sans-Serif" font-size="10.00"> DEFAULT_IMAGE</text>
</g>
<!-- Node31&#45;&gt;Node1 -->
<g id="edge35" class="edge"><title>Node31&#45;&gt;Node1</title>
<path fill="none" stroke="#9a32cd" stroke-dasharray="5,2" d="M971.267,-741.85C1001.37,-741.068 1042.08,-740.011 1077.79,-739.083"/>
<polygon fill="#9a32cd" stroke="#9a32cd" points="970.991,-738.356 961.085,-742.115 971.172,-745.354 970.991,-738.356"/>
<text text-anchor="middle" x="1026" y="-745" font-family="Helvetica,sans-Serif" font-size="10.00"> myWorld</text>
</g>
<!-- Node32&#45;&gt;Node31 -->
<g id="edge37" class="edge"><title>Node32&#45;&gt;Node31</title>
<path fill="none" stroke="#9a32cd" stroke-dasharray="5,2" d="M729.434,-712.477C765.698,-716.074 816.071,-721.724 860,-729 870.022,-730.66 880.834,-732.833 890.71,-734.97"/>
<polygon fill="#9a32cd" stroke="#9a32cd" points="729.419,-708.959 719.127,-711.472 728.74,-715.926 729.419,-708.959"/>
<text text-anchor="middle" x="817" y="-732" font-family="Helvetica,sans-Serif" font-size="10.00"> myParser</text>
</g>
<!-- Node33&#45;&gt;Node32 -->
<g id="edge38" class="edge"><title>Node33&#45;&gt;Node32</title>
<path fill="none" stroke="#9a32cd" stroke-dasharray="5,2" d="M440.714,-572.203C484.465,-584.482 544.77,-607.411 584,-647 598.295,-661.426 586.538,-675.832 602,-689 612.251,-697.73 625.939,-702.549 638.873,-705.177"/>
<polygon fill="#9a32cd" stroke="#9a32cd" points="441.376,-568.757 430.809,-569.525 439.549,-575.514 441.376,-568.757"/>
<text text-anchor="middle" x="532" y="-650" font-family="Helvetica,sans-Serif" font-size="10.00"> myCommandFactory</text>
</g>
<!-- Node34 -->
<g id="node34" class="node"><title>Node34</title>
<g id="a_node34"><a xlink:href="../../d3/dcc/classparser_1_1_node.html" target="_top" xlink:title="parser.Node">
<polygon fill="white" stroke="black" points="347.5,-701.5 347.5,-720.5 422.5,-720.5 422.5,-701.5 347.5,-701.5"/>
<text text-anchor="middle" x="385" y="-708.5" font-family="Helvetica,sans-Serif" font-size="10.00">parser.Node</text>
</a>
</g>
</g>
<!-- Node34&#45;&gt;Node32 -->
<g id="edge43" class="edge"><title>Node34&#45;&gt;Node32</title>
<path fill="none" stroke="#9a32cd" stroke-dasharray="5,2" d="M432.891,-710.518C490.035,-709.931 585.549,-708.95 638.907,-708.402"/>
<polygon fill="#9a32cd" stroke="#9a32cd" points="432.65,-707.02 422.686,-710.623 432.722,-714.02 432.65,-707.02"/>
<text text-anchor="middle" x="532" y="-725" font-family="Helvetica,sans-Serif" font-size="10.00"> myTree</text>
<text text-anchor="middle" x="532" y="-714" font-family="Helvetica,sans-Serif" font-size="10.00">myListTree</text>
</g>
<!-- Node34&#45;&gt;Node34 -->
<g id="edge44" class="edge"><title>Node34&#45;&gt;Node34</title>
<path fill="none" stroke="#9a32cd" stroke-dasharray="5,2" d="M357.747,-729.654C358.887,-734.937 367.971,-739 385,-739 410.949,-739 418.45,-729.565 407.503,-720.757"/>
<polygon fill="#9a32cd" stroke="#9a32cd" points="360.875,-731.227 362.497,-720.757 354.7,-727.93 360.875,-731.227"/>
<text text-anchor="middle" x="385" y="-753" font-family="Helvetica,sans-Serif" font-size="10.00"> myChild1</text>
<text text-anchor="middle" x="385" y="-742" font-family="Helvetica,sans-Serif" font-size="10.00">myChild2</text>
</g>
<!-- Node35 -->
<g id="node35" class="node"><title>Node35</title>
<polygon fill="white" stroke="#bfbfbf" points="602.5,-660.5 602.5,-679.5 755.5,-679.5 755.5,-660.5 602.5,-660.5"/>
<text text-anchor="middle" x="679" y="-667.5" font-family="Helvetica,sans-Serif" font-size="10.00">Map&lt; Integer, turtle.Turtle &gt;</text>
</g>
<!-- Node35&#45;&gt;Node31 -->
<g id="edge45" class="edge"><title>Node35&#45;&gt;Node31</title>
<path fill="none" stroke="#9a32cd" stroke-dasharray="5,2" d="M765.752,-673.813C797.04,-678.185 831.667,-686.712 860,-703 870.657,-709.127 868.018,-716.826 878,-724 883.146,-727.698 889.115,-730.819 895.037,-733.395"/>
<polygon fill="#9a32cd" stroke="#9a32cd" points="766.086,-670.327 755.724,-672.534 765.201,-677.271 766.086,-670.327"/>
<text text-anchor="middle" x="817" y="-706" font-family="Helvetica,sans-Serif" font-size="10.00"> myTurtles</text>
</g>
<!-- Node36 -->
<g id="node36" class="node"><title>Node36</title>
<polygon fill="white" stroke="#bfbfbf" points="658.5,-736.5 658.5,-755.5 699.5,-755.5 699.5,-736.5 658.5,-736.5"/>
<text text-anchor="middle" x="679" y="-743.5" font-family="Helvetica,sans-Serif" font-size="10.00">Color</text>
</g>
<!-- Node36&#45;&gt;Node31 -->
<g id="edge46" class="edge"><title>Node36&#45;&gt;Node31</title>
<path fill="none" stroke="#9a32cd" stroke-dasharray="5,2" d="M709.769,-745.635C755.389,-745.077 842.367,-744.012 890.613,-743.421"/>
<polygon fill="#9a32cd" stroke="#9a32cd" points="709.592,-742.137 699.635,-745.76 709.677,-749.137 709.592,-742.137"/>
<text text-anchor="middle" x="817" y="-748" font-family="Helvetica,sans-Serif" font-size="10.00"> TURTLE_DEFAULT</text>
</g>
</g>
</svg>
