<?xml version="1.0" encoding="UTF-8" standalone="no"?>
<!DOCTYPE svg PUBLIC "-//W3C//DTD SVG 1.1//EN"
 "http://www.w3.org/Graphics/SVG/1.1/DTD/svg11.dtd">
<!-- Generated by graphviz version 2.36.0 (20140111.2315)
 -->
<!-- Title: userInterface.LeftPanel Pages: 1 -->
<svg width="394pt" height="334pt"
 viewBox="0.00 0.00 394.00 334.00" xmlns="http://www.w3.org/2000/svg" xmlns:xlink="http://www.w3.org/1999/xlink">
<g id="graph0" class="graph" transform="scale(1 1) rotate(0) translate(4 330)">
<title>userInterface.LeftPanel</title>
<polygon fill="white" stroke="none" points="-4,4 -4,-330 390,-330 390,4 -4,4"/>
<!-- Node1 -->
<g id="node1" class="node"><title>Node1</title>
<polygon fill="#bfbfbf" stroke="black" points="260,-149.5 260,-168.5 386,-168.5 386,-149.5 260,-149.5"/>
<text text-anchor="middle" x="323" y="-156.5" font-family="Helvetica,sans-Serif" font-size="10.00">userInterface.LeftPanel</text>
</g>
<!-- Node2 -->
<g id="node2" class="node"><title>Node2</title>
<polygon fill="white" stroke="#bfbfbf" points="58.5,-306.5 58.5,-325.5 99.5,-325.5 99.5,-306.5 58.5,-306.5"/>
<text text-anchor="middle" x="79" y="-313.5" font-family="Helvetica,sans-Serif" font-size="10.00">VBox</text>
</g>
<!-- Node2&#45;&gt;Node1 -->
<g id="edge1" class="edge"><title>Node2&#45;&gt;Node1</title>
<path fill="none" stroke="#9a32cd" stroke-dasharray="5,2" d="M109.554,-312.212C144.22,-306.528 202.025,-293.058 242,-263 277.868,-236.031 305.907,-188.982 316.926,-168.728"/>
<polygon fill="#9a32cd" stroke="#9a32cd" points="108.94,-308.765 99.5836,-313.736 109.998,-315.685 108.94,-308.765"/>
<text text-anchor="middle" x="209" y="-297" font-family="Helvetica,sans-Serif" font-size="10.00"> myLeftPanel</text>
</g>
<!-- Node3 -->
<g id="node3" class="node"><title>Node3</title>
<polygon fill="white" stroke="#bfbfbf" points="2.5,-257 2.5,-287 155.5,-287 155.5,-257 2.5,-257"/>
<text text-anchor="start" x="10.5" y="-275" font-family="Helvetica,sans-Serif" font-size="10.00">TableColumn&lt; Map.Entry</text>
<text text-anchor="middle" x="79" y="-264" font-family="Helvetica,sans-Serif" font-size="10.00">&lt; String, Double &gt;, String &gt;</text>
</g>
<!-- Node3&#45;&gt;Node1 -->
<g id="edge2" class="edge"><title>Node3&#45;&gt;Node1</title>
<path fill="none" stroke="#9a32cd" stroke-dasharray="5,2" d="M155.7,-254.184C183.691,-246.061 215.126,-235.065 242,-221 269.712,-206.497 297.564,-182.188 311.963,-168.721"/>
<polygon fill="#9a32cd" stroke="#9a32cd" points="154.627,-250.85 145.956,-256.938 156.531,-257.586 154.627,-250.85"/>
<text text-anchor="middle" x="209" y="-251" font-family="Helvetica,sans-Serif" font-size="10.00"> variables</text>
</g>
<!-- Node4 -->
<g id="node4" class="node"><title>Node4</title>
<polygon fill="white" stroke="#bfbfbf" points="48,-218.5 48,-237.5 110,-237.5 110,-218.5 48,-218.5"/>
<text text-anchor="middle" x="79" y="-225.5" font-family="Helvetica,sans-Serif" font-size="10.00">TableView</text>
</g>
<!-- Node4&#45;&gt;Node1 -->
<g id="edge3" class="edge"><title>Node4&#45;&gt;Node1</title>
<path fill="none" stroke="#9a32cd" stroke-dasharray="5,2" d="M120.325,-219.732C153.328,-212.622 201.071,-201.549 242,-189 261.429,-183.043 282.974,-174.87 298.806,-168.559"/>
<polygon fill="#9a32cd" stroke="#9a32cd" points="119.206,-216.392 110.155,-221.898 120.665,-223.238 119.206,-216.392"/>
<text text-anchor="middle" x="209" y="-209" font-family="Helvetica,sans-Serif" font-size="10.00"> turtleTable</text>
</g>
<!-- Node5 -->
<g id="node5" class="node"><title>Node5</title>
<polygon fill="white" stroke="#bfbfbf" points="0,-169 0,-199 158,-199 158,-169 0,-169"/>
<text text-anchor="start" x="8" y="-187" font-family="Helvetica,sans-Serif" font-size="10.00">TableColumn&lt; Map.Entry</text>
<text text-anchor="middle" x="79" y="-176" font-family="Helvetica,sans-Serif" font-size="10.00">&lt; String, Double &gt;, Double &gt;</text>
</g>
<!-- Node5&#45;&gt;Node1 -->
<g id="edge4" class="edge"><title>Node5&#45;&gt;Node1</title>
<path fill="none" stroke="#9a32cd" stroke-dasharray="5,2" d="M168.388,-174.869C198.69,-171.739 231.941,-168.304 259.734,-165.432"/>
<polygon fill="#9a32cd" stroke="#9a32cd" points="167.824,-171.409 158.236,-175.918 168.543,-178.372 167.824,-171.409"/>
<text text-anchor="middle" x="209" y="-177" font-family="Helvetica,sans-Serif" font-size="10.00"> values</text>
</g>
<!-- Node6 -->
<g id="node6" class="node"><title>Node6</title>
<polygon fill="white" stroke="#bfbfbf" points="18,-120 18,-150 140,-150 140,-120 18,-120"/>
<text text-anchor="start" x="26" y="-138" font-family="Helvetica,sans-Serif" font-size="10.00">TableView&lt; Map.Entry</text>
<text text-anchor="middle" x="79" y="-127" font-family="Helvetica,sans-Serif" font-size="10.00">&lt; String, Double &gt; &gt;</text>
</g>
<!-- Node6&#45;&gt;Node1 -->
<g id="edge5" class="edge"><title>Node6&#45;&gt;Node1</title>
<path fill="none" stroke="#9a32cd" stroke-dasharray="5,2" d="M150.273,-141.922C178.748,-144.731 211.943,-148.013 242,-151 247.834,-151.58 253.907,-152.185 259.983,-152.791"/>
<polygon fill="#9a32cd" stroke="#9a32cd" points="150.305,-138.408 140.01,-140.909 149.618,-145.374 150.305,-138.408"/>
<text text-anchor="middle" x="209" y="-154" font-family="Helvetica,sans-Serif" font-size="10.00"> variableTable</text>
</g>
<!-- Node7 -->
<g id="node7" class="node"><title>Node7</title>
<polygon fill="white" stroke="#bfbfbf" points="15,-81.5 15,-100.5 143,-100.5 143,-81.5 15,-81.5"/>
<text text-anchor="middle" x="79" y="-88.5" font-family="Helvetica,sans-Serif" font-size="10.00">Map&lt; String, Double &gt;</text>
</g>
<!-- Node7&#45;&gt;Node1 -->
<g id="edge6" class="edge"><title>Node7&#45;&gt;Node1</title>
<path fill="none" stroke="#9a32cd" stroke-dasharray="5,2" d="M135.312,-102.709C166.811,-109.777 206.877,-119.442 242,-130 260.958,-135.699 281.988,-143.377 297.727,-149.402"/>
<polygon fill="#9a32cd" stroke="#9a32cd" points="135.924,-99.2595 125.403,-100.508 134.406,-106.093 135.924,-99.2595"/>
<text text-anchor="middle" x="209" y="-133" font-family="Helvetica,sans-Serif" font-size="10.00"> myVariables</text>
</g>
<!-- Node8 -->
<g id="node8" class="node"><title>Node8</title>
<polygon fill="white" stroke="#bfbfbf" points="18,-43.5 18,-62.5 140,-62.5 140,-43.5 18,-43.5"/>
<text text-anchor="middle" x="79" y="-50.5" font-family="Helvetica,sans-Serif" font-size="10.00">Map&lt; String, String &gt;</text>
</g>
<!-- Node8&#45;&gt;Node1 -->
<g id="edge7" class="edge"><title>Node8&#45;&gt;Node1</title>
<path fill="none" stroke="#9a32cd" stroke-dasharray="5,2" d="M143.243,-64.7538C174.131,-72.019 211.184,-83.0647 242,-99 269.141,-113.035 296.776,-136.131 311.397,-149.196"/>
<polygon fill="#9a32cd" stroke="#9a32cd" points="143.974,-61.3307 133.447,-62.5264 142.422,-68.1565 143.974,-61.3307"/>
<text text-anchor="middle" x="209" y="-102" font-family="Helvetica,sans-Serif" font-size="10.00"> myTurtles</text>
</g>
<!-- Node9 -->
<g id="node9" class="node"><title>Node9</title>
<polygon fill="white" stroke="#bfbfbf" points="40.5,-0.5 40.5,-19.5 117.5,-19.5 117.5,-0.5 40.5,-0.5"/>
<text text-anchor="middle" x="79" y="-7.5" font-family="Helvetica,sans-Serif" font-size="10.00">TableColumn</text>
</g>
<!-- Node9&#45;&gt;Node1 -->
<g id="edge8" class="edge"><title>Node9&#45;&gt;Node1</title>
<path fill="none" stroke="#9a32cd" stroke-dasharray="5,2" d="M127.917,-12.4001C162.17,-16.1131 208.026,-25.3337 242,-48 281.52,-74.3668 308.118,-127.284 317.864,-149.174"/>
<polygon fill="#9a32cd" stroke="#9a32cd" points="127.974,-8.88959 117.685,-11.4159 127.304,-15.8574 127.974,-8.88959"/>
<text text-anchor="middle" x="209" y="-62" font-family="Helvetica,sans-Serif" font-size="10.00"> turtleIDs</text>
<text text-anchor="middle" x="209" y="-51" font-family="Helvetica,sans-Serif" font-size="10.00">turtles</text>
</g>
</g>
</svg>
