<?xml version="1.0" encoding="UTF-8" standalone="no"?>
<!DOCTYPE svg PUBLIC "-//W3C//DTD SVG 1.1//EN"
 "http://www.w3.org/Graphics/SVG/1.1/DTD/svg11.dtd">
<!-- Generated by graphviz version 2.36.0 (20140111.2315)
 -->
<!-- Title: command.MakeVariableCommand Pages: 1 -->
<!--zoomable 222 -->
<svg id="main" version="1.1" xmlns="http://www.w3.org/2000/svg" xmlns:xlink="http://www.w3.org/1999/xlink" xml:space="preserve" onload="init(evt)">
<style type="text/css"><![CDATA[
.edge:hover path { stroke: red; }
.edge:hover polygon { stroke: red; fill: red; }
]]></style>
<script type="text/javascript"><![CDATA[
var edges = document.getElementsByTagName('g');
if (edges && edges.length) {
  for (var i=0;i<edges.length;i++) {
    if (edges[i].id.substr(0,4)=='edge') {
      edges[i].setAttribute('class','edge');
    }
  }
}
]]></script>
        <defs>
                <circle id="rim" cx="0" cy="0" r="7"/>
                <circle id="rim2" cx="0" cy="0" r="3.5"/>
                <g id="zoomPlus">
                        <use xlink:href="#rim" fill="#404040">
                                <set attributeName="fill" to="#808080" begin="zoomplus.mouseover" end="zoomplus.mouseout"/>
                        </use>
                        <path d="M-4,0h8M0,-4v8" fill="none" stroke="white" stroke-width="1.5" pointer-events="none"/>
                </g>
                <g id="zoomMin">
                        <use xlink:href="#rim" fill="#404040">
                                <set attributeName="fill" to="#808080" begin="zoomminus.mouseover" end="zoomminus.mouseout"/>
                        </use>
                        <path d="M-4,0h8" fill="none" stroke="white" stroke-width="1.5" pointer-events="none"/>
                </g>
                <g id="dirArrow">
                        <path fill="none" stroke="white" stroke-width="1.5" d="M0,-3.0v7 M-2.5,-0.5L0,-3.0L2.5,-0.5"/>
                </g>
               <g id="resetDef">
                       <use xlink:href="#rim2" fill="#404040">
                               <set attributeName="fill" to="#808080" begin="reset.mouseover" end="reset.mouseout"/>
                       </use>
               </g>
        </defs>

<script type="text/javascript">
var viewWidth = 602;
var viewHeight = 222;
var sectionId = 'dynsection-1';
</script>
<script xlink:href="../../svgpan.js"/>
<svg id="graph" class="graph">
<g id="viewport">
<title>command.MakeVariableCommand</title>
<polygon fill="white" stroke="none" points="-4,4 -4,-218 598,-218 598,4 -4,4"/>
<!-- Node1 -->
<g id="node1" class="node"><title>Node1</title>
<polygon fill="#bfbfbf" stroke="black" points="382,-0.5 382,-19.5 564,-19.5 564,-0.5 382,-0.5"/>
<text text-anchor="middle" x="473" y="-7.5" font-family="Helvetica,sans-Serif" font-size="10.00">command.MakeVariableCommand</text>
</g>
<!-- Node2 -->
<g id="node2" class="node"><title>Node2</title>
<g id="a_node2"><a xlink:href="../../d3/d0c/classcommand_1_1_loop_command.html" target="_top" xlink:title="command.LoopCommand">
<polygon fill="white" stroke="black" points="402,-58.5 402,-77.5 544,-77.5 544,-58.5 402,-58.5"/>
<text text-anchor="middle" x="473" y="-65.5" font-family="Helvetica,sans-Serif" font-size="10.00">command.LoopCommand</text>
</a>
</g>
</g>
<!-- Node2&#45;&gt;Node1 -->
<g id="edge1" class="edge"><title>Node2&#45;&gt;Node1</title>
<path fill="none" stroke="midnightblue" d="M473,-47.953C473,-38.2875 473,-27.0312 473,-19.5052"/>
<polygon fill="midnightblue" stroke="midnightblue" points="469.5,-48.25 473,-58.25 476.5,-48.25 469.5,-48.25"/>
</g>
<!-- Node3 -->
<g id="node3" class="node"><title>Node3</title>
<g id="a_node3"><a xlink:href="../../d7/d35/classcommand_1_1_command.html" target="_top" xlink:title="command.Command">
<polygon fill="white" stroke="black" points="274.5,-116.5 274.5,-135.5 393.5,-135.5 393.5,-116.5 274.5,-116.5"/>
<text text-anchor="middle" x="334" y="-123.5" font-family="Helvetica,sans-Serif" font-size="10.00">command.Command</text>
</a>
</g>
</g>
<!-- Node3&#45;&gt;Node2 -->
<g id="edge2" class="edge"><title>Node3&#45;&gt;Node2</title>
<path fill="none" stroke="midnightblue" d="M364.634,-112.658C391.028,-102.025 428.443,-86.951 451.69,-77.5852"/>
<polygon fill="midnightblue" stroke="midnightblue" points="363.079,-109.511 355.111,-116.495 365.695,-116.004 363.079,-109.511"/>
</g>
<!-- Node4 -->
<g id="node4" class="node"><title>Node4</title>
<polygon fill="white" stroke="#bfbfbf" points="106.5,-194.5 106.5,-213.5 199.5,-213.5 199.5,-194.5 106.5,-194.5"/>
<text text-anchor="middle" x="153" y="-201.5" font-family="Helvetica,sans-Serif" font-size="10.00">ResourceBundle</text>
</g>
<!-- Node4&#45;&gt;Node3 -->
<g id="edge3" class="edge"><title>Node4&#45;&gt;Node3</title>
<path fill="none" stroke="#9a32cd" stroke-dasharray="5,2" d="M174.482,-188.819C191.444,-178.107 216.005,-163.652 239,-154 257.182,-146.369 278.199,-140.145 295.835,-135.604"/>
<polygon fill="#9a32cd" stroke="#9a32cd" points="172.422,-185.982 165.899,-194.33 176.205,-191.872 172.422,-185.982"/>
<text text-anchor="middle" x="256.5" y="-162.5" font-family="Helvetica,sans-Serif" font-size="10.00"> syntax</text>
</g>
<!-- Node5 -->
<g id="node5" class="node"><title>Node5</title>
<polygon fill="white" stroke="#bfbfbf" points="-0.5,-194.5 -0.5,-213.5 88.5,-213.5 88.5,-194.5 -0.5,-194.5"/>
<text text-anchor="middle" x="44" y="-201.5" font-family="Helvetica,sans-Serif" font-size="10.00">List&lt; Double &gt;</text>
</g>
<!-- Node5&#45;&gt;Node3 -->
<g id="edge4" class="edge"><title>Node5&#45;&gt;Node3</title>
<path fill="none" stroke="#9a32cd" stroke-dasharray="5,2" d="M64.9997,-188.684C82.6291,-177.391 108.892,-162.22 134,-154 179.619,-139.066 233.689,-132.383 274.101,-129.397"/>
<polygon fill="#9a32cd" stroke="#9a32cd" points="62.5949,-186.076 56.156,-194.489 66.4364,-191.927 62.5949,-186.076"/>
<text text-anchor="middle" x="164" y="-162.5" font-family="Helvetica,sans-Serif" font-size="10.00"> parameters</text>
</g>
<!-- Node6 -->
<g id="node6" class="node"><title>Node6</title>
<polygon fill="white" stroke="#bfbfbf" points="504,-194.5 504,-213.5 588,-213.5 588,-194.5 504,-194.5"/>
<text text-anchor="middle" x="546" y="-201.5" font-family="Helvetica,sans-Serif" font-size="10.00">List&lt; String &gt;</text>
</g>
<!-- Node6&#45;&gt;Node2 -->
<g id="edge8" class="edge"><title>Node6&#45;&gt;Node2</title>
<path fill="none" stroke="#9a32cd" stroke-dasharray="5,2" d="M542.237,-184.505C539.949,-175.102 536.575,-163.654 532,-154 517.692,-123.806 493.03,-92.617 480.612,-77.8178"/>
<polygon fill="#9a32cd" stroke="#9a32cd" points="538.844,-185.37 544.431,-194.372 545.677,-183.851 538.844,-185.37"/>
<text text-anchor="middle" x="558" y="-123.5" font-family="Helvetica,sans-Serif" font-size="10.00"> strParameters</text>
</g>
<!-- Node6&#45;&gt;Node3 -->
<g id="edge5" class="edge"><title>Node6&#45;&gt;Node3</title>
<path fill="none" stroke="#9a32cd" stroke-dasharray="5,2" d="M495.803,-191.478C483.615,-187.553 470.95,-182.47 460,-176 447.822,-168.804 449.347,-160.903 437,-154 421.752,-145.475 403.726,-139.565 387.051,-135.501"/>
<polygon fill="#9a32cd" stroke="#9a32cd" points="494.848,-194.846 505.433,-194.382 496.869,-188.144 494.848,-194.846"/>
<text text-anchor="middle" x="496" y="-162.5" font-family="Helvetica,sans-Serif" font-size="10.00"> strParameters</text>
</g>
<!-- Node7 -->
<g id="node7" class="node"><title>Node7</title>
<polygon fill="white" stroke="#bfbfbf" points="218,-194.5 218,-213.5 340,-213.5 340,-194.5 218,-194.5"/>
<text text-anchor="middle" x="279" y="-201.5" font-family="Helvetica,sans-Serif" font-size="10.00">Map&lt; String, String &gt;</text>
</g>
<!-- Node7&#45;&gt;Node3 -->
<g id="edge6" class="edge"><title>Node7&#45;&gt;Node3</title>
<path fill="none" stroke="#9a32cd" stroke-dasharray="5,2" d="M276.915,-183.955C276.796,-174.247 278.198,-162.69 284,-154 289.533,-145.713 298.482,-139.763 307.292,-135.594"/>
<polygon fill="#9a32cd" stroke="#9a32cd" points="273.441,-184.467 277.581,-194.219 280.426,-184.013 273.441,-184.467"/>
<text text-anchor="middle" x="326" y="-168" font-family="Helvetica,sans-Serif" font-size="10.00"> commandValues</text>
<text text-anchor="middle" x="326" y="-157" font-family="Helvetica,sans-Serif" font-size="10.00">functions</text>
</g>
<!-- Node8 -->
<g id="node8" class="node"><title>Node8</title>
<polygon fill="white" stroke="#bfbfbf" points="358,-194.5 358,-213.5 486,-213.5 486,-194.5 358,-194.5"/>
<text text-anchor="middle" x="422" y="-201.5" font-family="Helvetica,sans-Serif" font-size="10.00">Map&lt; String, Double &gt;</text>
</g>
<!-- Node8&#45;&gt;Node3 -->
<g id="edge7" class="edge"><title>Node8&#45;&gt;Node3</title>
<path fill="none" stroke="#9a32cd" stroke-dasharray="5,2" d="M404.042,-187.609C399.736,-183.85 395.176,-179.812 391,-176 380.553,-166.463 378.661,-163.297 368,-154 360.615,-147.56 351.963,-140.698 345.234,-135.503"/>
<polygon fill="#9a32cd" stroke="#9a32cd" points="401.992,-190.464 411.843,-194.362 406.573,-185.171 401.992,-190.464"/>
<text text-anchor="middle" x="414" y="-162.5" font-family="Helvetica,sans-Serif" font-size="10.00"> variables</text>
</g>
</g>
</svg>
        <g id="navigator" transform="translate(0 0)" fill="#404254">
                <rect fill="#f2f5e9" fill-opacity="0.5" stroke="#606060" stroke-width=".5" x="0" y="0" width="60" height="60"/>
                <use id="zoomplus" xlink:href="#zoomPlus" x="17" y="9" onmousedown="handleZoom(evt,'in')"/>
                <use id="zoomminus" xlink:href="#zoomMin" x="42" y="9" onmousedown="handleZoom(evt,'out')"/>
                <use id="reset" xlink:href="#resetDef" x="30" y="36" onmousedown="handleReset()"/>
                <g id="arrowUp" xlink:href="#dirArrow" transform="translate(30 24)" onmousedown="handlePan(0,-1)">
                  <use xlink:href="#rim" fill="#404040">
                        <set attributeName="fill" to="#808080" begin="arrowUp.mouseover" end="arrowUp.mouseout"/>
                  </use>
                  <path fill="none" stroke="white" stroke-width="1.5" d="M0,-3.0v7 M-2.5,-0.5L0,-3.0L2.5,-0.5"/>
                </g>
                <g id="arrowRight" xlink:href="#dirArrow" transform="rotate(90) translate(36 -43)" onmousedown="handlePan(1,0)">
                  <use xlink:href="#rim" fill="#404040">
                        <set attributeName="fill" to="#808080" begin="arrowRight.mouseover" end="arrowRight.mouseout"/>
                  </use>
                  <path fill="none" stroke="white" stroke-width="1.5" d="M0,-3.0v7 M-2.5,-0.5L0,-3.0L2.5,-0.5"/>
                </g>
                <g id="arrowDown" xlink:href="#dirArrow" transform="rotate(180) translate(-30 -48)" onmousedown="handlePan(0,1)">
                  <use xlink:href="#rim" fill="#404040">
                        <set attributeName="fill" to="#808080" begin="arrowDown.mouseover" end="arrowDown.mouseout"/>
                  </use>
                  <path fill="none" stroke="white" stroke-width="1.5" d="M0,-3.0v7 M-2.5,-0.5L0,-3.0L2.5,-0.5"/>
                </g>
                <g id="arrowLeft" xlink:href="#dirArrow" transform="rotate(270) translate(-36 17)" onmousedown="handlePan(-1,0)">
                  <use xlink:href="#rim" fill="#404040">
                        <set attributeName="fill" to="#808080" begin="arrowLeft.mouseover" end="arrowLeft.mouseout"/>
                  </use>
                  <path fill="none" stroke="white" stroke-width="1.5" d="M0,-3.0v7 M-2.5,-0.5L0,-3.0L2.5,-0.5"/>
                </g>
        </g>
        <svg viewBox="0 0 15 15" width="100%" height="30px" preserveAspectRatio="xMaxYMin meet">
         <g id="arrow_out" transform="scale(0.3 0.3)">
          <a xlink:href="classcommand_1_1_make_variable_command__coll__graph_org.svg" target="_base">
           <rect id="button" ry="5" rx="5" y="6" x="6" height="38" width="38"
                fill="#f2f5e9" fill-opacity="0.5" stroke="#606060" stroke-width="1.0"/>
           <path id="arrow"
             d="M 11.500037,31.436501 C 11.940474,20.09759 22.043105,11.32322 32.158766,21.979434 L 37.068811,17.246167 C 37.068811,17.246167 37.088388,32 37.088388,32 L 22.160133,31.978069 C 22.160133,31.978069 26.997745,27.140456 26.997745,27.140456 C 18.528582,18.264221 13.291696,25.230495 11.500037,31.436501 z"
             style="fill:#404040;"/>
          </a>
         </g>
        </svg>
</svg>
