<?xml version="1.0" encoding="UTF-8" standalone="no"?>
<!DOCTYPE svg PUBLIC "-//W3C//DTD SVG 1.1//EN"
 "http://www.w3.org/Graphics/SVG/1.1/DTD/svg11.dtd">
<!-- Generated by graphviz version 2.36.0 (20140111.2315)
 -->
<!-- Title: command.VisibleQueryCommand Pages: 1 -->
<svg width="184pt" height="154pt"
 viewBox="0.00 0.00 184.00 154.00" xmlns="http://www.w3.org/2000/svg" xmlns:xlink="http://www.w3.org/1999/xlink">
<g id="graph0" class="graph" transform="scale(1 1) rotate(0) translate(4 150)">
<title>command.VisibleQueryCommand</title>
<polygon fill="white" stroke="none" points="-4,4 -4,-150 180,-150 180,4 -4,4"/>
<!-- Node1 -->
<g id="node1" class="node"><title>Node1</title>
<polygon fill="#bfbfbf" stroke="black" points="-1,-0.5 -1,-19.5 177,-19.5 177,-0.5 -1,-0.5"/>
<text text-anchor="middle" x="88" y="-7.5" font-family="Helvetica,sans-Serif" font-size="10.00">command.VisibleQueryCommand</text>
</g>
<!-- Node2 -->
<g id="node2" class="node"><title>Node2</title>
<g id="a_node2"><a xlink:href="../../d7/d35/classcommand_1_1_command.html" target="_top" xlink:title="command.Command">
<polygon fill="white" stroke="black" points="28.5,-58.5 28.5,-77.5 147.5,-77.5 147.5,-58.5 28.5,-58.5"/>
<text text-anchor="middle" x="88" y="-65.5" font-family="Helvetica,sans-Serif" font-size="10.00">command.Command</text>
</a>
</g>
</g>
<!-- Node2&#45;&gt;Node1 -->
<g id="edge1" class="edge"><title>Node2&#45;&gt;Node1</title>
<path fill="none" stroke="midnightblue" d="M88,-47.953C88,-38.2875 88,-27.0312 88,-19.5052"/>
<polygon fill="midnightblue" stroke="midnightblue" points="84.5001,-48.25 88,-58.25 91.5001,-48.25 84.5001,-48.25"/>
</g>
<!-- Node3 -->
<g id="node3" class="node"><title>Node3</title>
<polygon fill="white" stroke="#bfbfbf" points="43.5,-126.5 43.5,-145.5 132.5,-145.5 132.5,-126.5 43.5,-126.5"/>
<text text-anchor="middle" x="88" y="-133.5" font-family="Helvetica,sans-Serif" font-size="10.00">List&lt; Double &gt;</text>
</g>
<!-- Node3&#45;&gt;Node2 -->
<g id="edge2" class="edge"><title>Node3&#45;&gt;Node2</title>
<path fill="none" stroke="#9a32cd" stroke-dasharray="5,2" d="M88,-116.041C88,-103.472 88,-87.5631 88,-77.8411"/>
<polygon fill="#9a32cd" stroke="#9a32cd" points="84.5001,-116.372 88,-126.372 91.5001,-116.372 84.5001,-116.372"/>
<text text-anchor="middle" x="118" y="-99.5" font-family="Helvetica,sans-Serif" font-size="10.00"> parameters</text>
</g>
</g>
</svg>
