<?xml version="1.0" encoding="UTF-8" standalone="no"?>
<!DOCTYPE svg PUBLIC "-//W3C//DTD SVG 1.1//EN"
 "http://www.w3.org/Graphics/SVG/1.1/DTD/svg11.dtd">
<!-- Generated by graphviz version 2.36.0 (20140111.2315)
 -->
<!-- Title: world.BoundedWorld Pages: 1 -->
<svg width="693pt" height="312pt"
 viewBox="0.00 0.00 693.00 312.00" xmlns="http://www.w3.org/2000/svg" xmlns:xlink="http://www.w3.org/1999/xlink">
<g id="graph0" class="graph" transform="scale(1 1) rotate(0) translate(4 308)">
<title>world.BoundedWorld</title>
<polygon fill="white" stroke="none" points="-4,4 -4,-308 689,-308 689,4 -4,4"/>
<!-- Node1 -->
<g id="node1" class="node"><title>Node1</title>
<polygon fill="#bfbfbf" stroke="black" points="429.5,-0.5 429.5,-19.5 542.5,-19.5 542.5,-0.5 429.5,-0.5"/>
<text text-anchor="middle" x="486" y="-7.5" font-family="Helvetica,sans-Serif" font-size="10.00">world.BoundedWorld</text>
</g>
<!-- Node2 -->
<g id="node2" class="node"><title>Node2</title>
<g id="a_node2"><a xlink:href="../../d9/dd0/classworld_1_1_world.html" target="_top" xlink:title="world.World">
<polygon fill="white" stroke="black" points="451,-58.5 451,-77.5 521,-77.5 521,-58.5 451,-58.5"/>
<text text-anchor="middle" x="486" y="-65.5" font-family="Helvetica,sans-Serif" font-size="10.00">world.World</text>
</a>
</g>
</g>
<!-- Node2&#45;&gt;Node1 -->
<g id="edge1" class="edge"><title>Node2&#45;&gt;Node1</title>
<path fill="none" stroke="midnightblue" d="M486,-47.953C486,-38.2875 486,-27.0312 486,-19.5052"/>
<polygon fill="midnightblue" stroke="midnightblue" points="482.5,-48.25 486,-58.25 489.5,-48.25 482.5,-48.25"/>
</g>
<!-- Node3 -->
<g id="node3" class="node"><title>Node3</title>
<g id="a_node3"><a xlink:href="../../df/dcb/classturtle_1_1_turtle.html" target="_top" xlink:title="turtle.Turtle">
<polygon fill="white" stroke="black" points="159.5,-136.5 159.5,-155.5 230.5,-155.5 230.5,-136.5 159.5,-136.5"/>
<text text-anchor="middle" x="195" y="-143.5" font-family="Helvetica,sans-Serif" font-size="10.00">turtle.Turtle</text>
</a>
</g>
</g>
<!-- Node3&#45;&gt;Node2 -->
<g id="edge2" class="edge"><title>Node3&#45;&gt;Node2</title>
<path fill="none" stroke="#9a32cd" stroke-dasharray="5,2" d="M233.917,-133.569C269.293,-123.306 322.989,-108.046 370,-96 397.041,-89.071 427.82,-81.9414 450.876,-76.7498"/>
<polygon fill="#9a32cd" stroke="#9a32cd" points="232.625,-130.3 224.001,-136.455 234.58,-137.022 232.625,-130.3"/>
<text text-anchor="middle" x="397.5" y="-110" font-family="Helvetica,sans-Serif" font-size="10.00"> myTurtle</text>
<text text-anchor="middle" x="397.5" y="-99" font-family="Helvetica,sans-Serif" font-size="10.00">activeTurtle</text>
</g>
<!-- Node4 -->
<g id="node4" class="node"><title>Node4</title>
<polygon fill="white" stroke="#bfbfbf" points="0,-215.5 0,-234.5 68,-234.5 68,-215.5 0,-215.5"/>
<text text-anchor="middle" x="34" y="-222.5" font-family="Helvetica,sans-Serif" font-size="10.00">ImageView</text>
</g>
<!-- Node4&#45;&gt;Node3 -->
<g id="edge3" class="edge"><title>Node4&#45;&gt;Node3</title>
<path fill="none" stroke="midnightblue" d="M59.0566,-210.631C78.7225,-200.281 106.882,-185.774 132,-174 145.899,-167.485 161.788,-160.68 174.131,-155.531"/>
<polygon fill="midnightblue" stroke="midnightblue" points="57.3399,-207.58 50.1353,-215.348 60.6117,-213.768 57.3399,-207.58"/>
</g>
<!-- Node5 -->
<g id="node5" class="node"><title>Node5</title>
<g id="a_node5"><a xlink:href="../../de/d57/classturtle_1_1_pen.html" target="_top" xlink:title="turtle.Pen">
<polygon fill="white" stroke="black" points="86.5,-215.5 86.5,-234.5 149.5,-234.5 149.5,-215.5 86.5,-215.5"/>
<text text-anchor="middle" x="118" y="-222.5" font-family="Helvetica,sans-Serif" font-size="10.00">turtle.Pen</text>
</a>
</g>
</g>
<!-- Node5&#45;&gt;Node3 -->
<g id="edge4" class="edge"><title>Node5&#45;&gt;Node3</title>
<path fill="none" stroke="#9a32cd" stroke-dasharray="5,2" d="M128.233,-206.662C134.79,-196.436 143.938,-183.651 154,-174 161.504,-166.802 171.167,-160.333 179.228,-155.532"/>
<polygon fill="#9a32cd" stroke="#9a32cd" points="125.057,-205.146 122.796,-215.496 131.018,-208.815 125.057,-205.146"/>
<text text-anchor="middle" x="172.5" y="-182.5" font-family="Helvetica,sans-Serif" font-size="10.00"> myPen</text>
</g>
<!-- Node6 -->
<g id="node6" class="node"><title>Node6</title>
<polygon fill="white" stroke="#bfbfbf" points="98,-284.5 98,-303.5 138,-303.5 138,-284.5 98,-284.5"/>
<text text-anchor="middle" x="118" y="-291.5" font-family="Helvetica,sans-Serif" font-size="10.00">Paint</text>
</g>
<!-- Node6&#45;&gt;Node5 -->
<g id="edge5" class="edge"><title>Node6&#45;&gt;Node5</title>
<path fill="none" stroke="#9a32cd" stroke-dasharray="5,2" d="M118,-274.018C118,-261.034 118,-244.442 118,-234.549"/>
<polygon fill="#9a32cd" stroke="#9a32cd" points="114.5,-274.241 118,-284.241 121.5,-274.241 114.5,-274.241"/>
<text text-anchor="middle" x="148.5" y="-257.5" font-family="Helvetica,sans-Serif" font-size="10.00"> myPenColor</text>
</g>
<!-- Node7 -->
<g id="node7" class="node"><title>Node7</title>
<polygon fill="white" stroke="#bfbfbf" points="168,-215.5 168,-234.5 222,-234.5 222,-215.5 168,-215.5"/>
<text text-anchor="middle" x="195" y="-222.5" font-family="Helvetica,sans-Serif" font-size="10.00">Point2D</text>
</g>
<!-- Node7&#45;&gt;Node3 -->
<g id="edge6" class="edge"><title>Node7&#45;&gt;Node3</title>
<path fill="none" stroke="#9a32cd" stroke-dasharray="5,2" d="M195,-205.315C195,-189.592 195,-167.808 195,-155.809"/>
<polygon fill="#9a32cd" stroke="#9a32cd" points="191.5,-205.465 195,-215.465 198.5,-205.465 191.5,-205.465"/>
<text text-anchor="middle" x="212.5" y="-188" font-family="Helvetica,sans-Serif" font-size="10.00"> next</text>
<text text-anchor="middle" x="212.5" y="-177" font-family="Helvetica,sans-Serif" font-size="10.00">current</text>
</g>
<!-- Node8 -->
<g id="node8" class="node"><title>Node8</title>
<polygon fill="white" stroke="#bfbfbf" points="240.5,-215.5 240.5,-234.5 287.5,-234.5 287.5,-215.5 240.5,-215.5"/>
<text text-anchor="middle" x="264" y="-222.5" font-family="Helvetica,sans-Serif" font-size="10.00">Image</text>
</g>
<!-- Node8&#45;&gt;Node3 -->
<g id="edge7" class="edge"><title>Node8&#45;&gt;Node3</title>
<path fill="none" stroke="#9a32cd" stroke-dasharray="5,2" d="M255.768,-206.329C250.476,-196.151 242.929,-183.53 234,-174 227.243,-166.788 218.252,-160.405 210.605,-155.658"/>
<polygon fill="#9a32cd" stroke="#9a32cd" points="252.719,-208.06 260.275,-215.487 259,-204.969 252.719,-208.06"/>
<text text-anchor="middle" x="290.5" y="-182.5" font-family="Helvetica,sans-Serif" font-size="10.00"> DEFAULT_IMAGE</text>
</g>
<!-- Node9 -->
<g id="node9" class="node"><title>Node9</title>
<g id="a_node9"><a xlink:href="../../d6/d95/classparser_1_1_parser.html" target="_top" xlink:title="parser.Parser">
<polygon fill="white" stroke="black" points="370,-136.5 370,-155.5 450,-155.5 450,-136.5 370,-136.5"/>
<text text-anchor="middle" x="410" y="-143.5" font-family="Helvetica,sans-Serif" font-size="10.00">parser.Parser</text>
</a>
</g>
</g>
<!-- Node9&#45;&gt;Node2 -->
<g id="edge8" class="edge"><title>Node9&#45;&gt;Node2</title>
<path fill="none" stroke="#9a32cd" stroke-dasharray="5,2" d="M421.189,-128.15C428.235,-118.201 437.887,-105.698 448,-96 455.243,-89.0541 464.385,-82.5023 471.887,-77.5925"/>
<polygon fill="#9a32cd" stroke="#9a32cd" points="418.289,-126.19 415.512,-136.414 424.059,-130.153 418.289,-126.19"/>
<text text-anchor="middle" x="472.5" y="-104.5" font-family="Helvetica,sans-Serif" font-size="10.00"> myParser</text>
</g>
<!-- Node10 -->
<g id="node10" class="node"><title>Node10</title>
<polygon fill="white" stroke="#bfbfbf" points="310.5,-215.5 310.5,-234.5 403.5,-234.5 403.5,-215.5 310.5,-215.5"/>
<text text-anchor="middle" x="357" y="-222.5" font-family="Helvetica,sans-Serif" font-size="10.00">ResourceBundle</text>
</g>
<!-- Node10&#45;&gt;Node9 -->
<g id="edge9" class="edge"><title>Node10&#45;&gt;Node9</title>
<path fill="none" stroke="#9a32cd" stroke-dasharray="5,2" d="M356.774,-205.266C357.491,-195.232 359.783,-183.102 366,-174 371.459,-166.007 380.144,-159.953 388.36,-155.624"/>
<polygon fill="#9a32cd" stroke="#9a32cd" points="353.271,-205.341 356.507,-215.429 360.268,-205.524 353.271,-205.341"/>
<text text-anchor="middle" x="399.5" y="-182.5" font-family="Helvetica,sans-Serif" font-size="10.00"> myResources</text>
</g>
<!-- Node11 -->
<g id="node11" class="node"><title>Node11</title>
<polygon fill="white" stroke="#bfbfbf" points="421.5,-215.5 421.5,-234.5 522.5,-234.5 522.5,-215.5 421.5,-215.5"/>
<text text-anchor="middle" x="472" y="-222.5" font-family="Helvetica,sans-Serif" font-size="10.00">CommandFactory</text>
</g>
<!-- Node11&#45;&gt;Node9 -->
<g id="edge10" class="edge"><title>Node11&#45;&gt;Node9</title>
<path fill="none" stroke="#9a32cd" stroke-dasharray="5,2" d="M459.288,-207.334C451.75,-197.544 441.948,-184.975 433,-174 428.019,-167.891 422.269,-161.141 417.765,-155.918"/>
<polygon fill="#9a32cd" stroke="#9a32cd" points="456.624,-209.612 465.486,-215.419 462.18,-205.353 456.624,-209.612"/>
<text text-anchor="middle" x="502.5" y="-182.5" font-family="Helvetica,sans-Serif" font-size="10.00"> myCommandFactory</text>
</g>
<!-- Node12 -->
<g id="node12" class="node"><title>Node12</title>
<g id="a_node12"><a xlink:href="../../d3/dcc/classparser_1_1_node.html" target="_top" xlink:title="parser.Node">
<polygon fill="white" stroke="black" points="543.5,-215.5 543.5,-234.5 618.5,-234.5 618.5,-215.5 543.5,-215.5"/>
<text text-anchor="middle" x="581" y="-222.5" font-family="Helvetica,sans-Serif" font-size="10.00">parser.Node</text>
</a>
</g>
</g>
<!-- Node12&#45;&gt;Node9 -->
<g id="edge11" class="edge"><title>Node12&#45;&gt;Node9</title>
<path fill="none" stroke="#9a32cd" stroke-dasharray="5,2" d="M577.053,-205.613C573.769,-194.782 567.966,-181.73 558,-174 522.664,-146.589 502.993,-164.039 459,-156 456.107,-155.471 453.118,-154.924 450.11,-154.373"/>
<polygon fill="#9a32cd" stroke="#9a32cd" points="573.693,-206.6 579.558,-215.423 580.475,-204.868 573.693,-206.6"/>
<text text-anchor="middle" x="600" y="-188" font-family="Helvetica,sans-Serif" font-size="10.00"> myTree</text>
<text text-anchor="middle" x="600" y="-177" font-family="Helvetica,sans-Serif" font-size="10.00">myListTree</text>
</g>
<!-- Node12&#45;&gt;Node12 -->
<g id="edge12" class="edge"><title>Node12&#45;&gt;Node12</title>
<path fill="none" stroke="#9a32cd" stroke-dasharray="5,2" d="M628.771,-230.097C633.204,-229.046 636,-227.347 636,-225 636,-221.148 628.472,-219.042 618.532,-218.681"/>
<polygon fill="#9a32cd" stroke="#9a32cd" points="628.046,-226.658 618.532,-231.319 628.876,-233.609 628.046,-226.658"/>
<text text-anchor="middle" x="660" y="-228" font-family="Helvetica,sans-Serif" font-size="10.00"> myChild1</text>
<text text-anchor="middle" x="660" y="-217" font-family="Helvetica,sans-Serif" font-size="10.00">myChild2</text>
</g>
<!-- Node13 -->
<g id="node13" class="node"><title>Node13</title>
<polygon fill="white" stroke="#bfbfbf" points="468,-136.5 468,-155.5 578,-155.5 578,-136.5 468,-136.5"/>
<text text-anchor="middle" x="523" y="-143.5" font-family="Helvetica,sans-Serif" font-size="10.00">List&lt; turtle.Turtle &gt;</text>
</g>
<!-- Node13&#45;&gt;Node2 -->
<g id="edge13" class="edge"><title>Node13&#45;&gt;Node2</title>
<path fill="none" stroke="#9a32cd" stroke-dasharray="5,2" d="M514.296,-127.122C506.705,-111.53 496.022,-89.5862 490.195,-77.6165"/>
<polygon fill="#9a32cd" stroke="#9a32cd" points="511.231,-128.823 518.756,-136.282 517.525,-125.759 511.231,-128.823"/>
<text text-anchor="middle" x="533.5" y="-104.5" font-family="Helvetica,sans-Serif" font-size="10.00"> myTurtles</text>
</g>
<!-- Node14 -->
<g id="node14" class="node"><title>Node14</title>
<polygon fill="white" stroke="#bfbfbf" points="596.5,-136.5 596.5,-155.5 637.5,-155.5 637.5,-136.5 596.5,-136.5"/>
<text text-anchor="middle" x="617" y="-143.5" font-family="Helvetica,sans-Serif" font-size="10.00">Color</text>
</g>
<!-- Node14&#45;&gt;Node2 -->
<g id="edge14" class="edge"><title>Node14&#45;&gt;Node2</title>
<path fill="none" stroke="#9a32cd" stroke-dasharray="5,2" d="M602.183,-128.88C591.781,-118.344 577.083,-104.93 562,-96 548.626,-88.0816 532.561,-81.9538 518.654,-77.5526"/>
<polygon fill="#9a32cd" stroke="#9a32cd" points="599.794,-131.446 609.235,-136.255 604.853,-126.609 599.794,-131.446"/>
<text text-anchor="middle" x="633.5" y="-104.5" font-family="Helvetica,sans-Serif" font-size="10.00"> TURTLE_DEFAULT</text>
</g>
</g>
</svg>
