<?xml version="1.0" encoding="UTF-8" standalone="no"?>
<!DOCTYPE svg PUBLIC "-//W3C//DTD SVG 1.1//EN"
 "http://www.w3.org/Graphics/SVG/1.1/DTD/svg11.dtd">
<!-- Generated by graphviz version 2.36.0 (20140111.2315)
 -->
<!-- Title: world.BoundedWorld Pages: 1 -->
<svg width="760pt" height="346pt"
 viewBox="0.00 0.00 760.00 346.00" xmlns="http://www.w3.org/2000/svg" xmlns:xlink="http://www.w3.org/1999/xlink">
<g id="graph0" class="graph" transform="scale(1 1) rotate(0) translate(4 342)">
<title>world.BoundedWorld</title>
<polygon fill="white" stroke="none" points="-4,4 -4,-342 756,-342 756,4 -4,4"/>
<!-- Node1 -->
<g id="node1" class="node"><title>Node1</title>
<polygon fill="#bfbfbf" stroke="black" points="389.5,-0.5 389.5,-19.5 502.5,-19.5 502.5,-0.5 389.5,-0.5"/>
<text text-anchor="middle" x="446" y="-7.5" font-family="Helvetica,sans-Serif" font-size="10.00">world.BoundedWorld</text>
</g>
<!-- Node2 -->
<g id="node2" class="node"><title>Node2</title>
<g id="a_node2"><a xlink:href="../../d9/dd0/classworld_1_1_world.html" target="_top" xlink:title="world.World">
<polygon fill="white" stroke="black" points="411,-58.5 411,-77.5 481,-77.5 481,-58.5 411,-58.5"/>
<text text-anchor="middle" x="446" y="-65.5" font-family="Helvetica,sans-Serif" font-size="10.00">world.World</text>
</a>
</g>
</g>
<!-- Node2&#45;&gt;Node1 -->
<g id="edge1" class="edge"><title>Node2&#45;&gt;Node1</title>
<path fill="none" stroke="midnightblue" d="M446,-47.953C446,-38.2875 446,-27.0312 446,-19.5052"/>
<polygon fill="midnightblue" stroke="midnightblue" points="442.5,-48.25 446,-58.25 449.5,-48.25 442.5,-48.25"/>
</g>
<!-- Node3 -->
<g id="node3" class="node"><title>Node3</title>
<g id="a_node3"><a xlink:href="../../df/dcb/classturtle_1_1_turtle.html" target="_top" xlink:title="turtle.Turtle">
<polygon fill="white" stroke="black" points="159.5,-136.5 159.5,-155.5 230.5,-155.5 230.5,-136.5 159.5,-136.5"/>
<text text-anchor="middle" x="195" y="-143.5" font-family="Helvetica,sans-Serif" font-size="10.00">turtle.Turtle</text>
</a>
</g>
</g>
<!-- Node3&#45;&gt;Node2 -->
<g id="edge2" class="edge"><title>Node3&#45;&gt;Node2</title>
<path fill="none" stroke="#9a32cd" stroke-dasharray="5,2" d="M225.59,-132.71C252.727,-122.093 293.596,-106.801 330,-96 356.86,-88.0304 387.784,-80.9332 410.945,-76.0176"/>
<polygon fill="#9a32cd" stroke="#9a32cd" points="224.267,-129.469 216.247,-136.392 226.834,-135.981 224.267,-129.469"/>
<text text-anchor="middle" x="357.5" y="-110" font-family="Helvetica,sans-Serif" font-size="10.00"> myTurtle</text>
<text text-anchor="middle" x="357.5" y="-99" font-family="Helvetica,sans-Serif" font-size="10.00">activeTurtle</text>
</g>
<!-- Node4 -->
<g id="node4" class="node"><title>Node4</title>
<polygon fill="white" stroke="#bfbfbf" points="0,-227.5 0,-246.5 68,-246.5 68,-227.5 0,-227.5"/>
<text text-anchor="middle" x="34" y="-234.5" font-family="Helvetica,sans-Serif" font-size="10.00">ImageView</text>
</g>
<!-- Node4&#45;&gt;Node3 -->
<g id="edge3" class="edge"><title>Node4&#45;&gt;Node3</title>
<path fill="none" stroke="midnightblue" d="M53.6228,-221.377C72.1631,-207.975 101.071,-188.125 128,-174 141.549,-166.893 157.401,-160.428 170.283,-155.607"/>
<polygon fill="midnightblue" stroke="midnightblue" points="51.4133,-218.657 45.4082,-227.386 55.5459,-224.307 51.4133,-218.657"/>
</g>
<!-- Node5 -->
<g id="node5" class="node"><title>Node5</title>
<g id="a_node5"><a xlink:href="../../de/d57/classturtle_1_1_pen.html" target="_top" xlink:title="turtle.Pen">
<polygon fill="white" stroke="black" points="86.5,-227.5 86.5,-246.5 149.5,-246.5 149.5,-227.5 86.5,-227.5"/>
<text text-anchor="middle" x="118" y="-234.5" font-family="Helvetica,sans-Serif" font-size="10.00">turtle.Pen</text>
</a>
</g>
</g>
<!-- Node5&#45;&gt;Node3 -->
<g id="edge4" class="edge"><title>Node5&#45;&gt;Node3</title>
<path fill="none" stroke="#9a32cd" stroke-dasharray="5,2" d="M125.832,-217.716C132.106,-204.523 141.856,-186.847 154,-174 160.908,-166.691 170.159,-160.384 178.125,-155.707"/>
<polygon fill="#9a32cd" stroke="#9a32cd" points="122.494,-216.602 121.565,-227.156 128.873,-219.485 122.494,-216.602"/>
<text text-anchor="middle" x="172.5" y="-188.5" font-family="Helvetica,sans-Serif" font-size="10.00"> myPen</text>
</g>
<!-- Node6 -->
<g id="node6" class="node"><title>Node6</title>
<polygon fill="white" stroke="#bfbfbf" points="98,-318.5 98,-337.5 138,-337.5 138,-318.5 98,-318.5"/>
<text text-anchor="middle" x="118" y="-325.5" font-family="Helvetica,sans-Serif" font-size="10.00">Paint</text>
</g>
<!-- Node6&#45;&gt;Node5 -->
<g id="edge5" class="edge"><title>Node6&#45;&gt;Node5</title>
<path fill="none" stroke="#9a32cd" stroke-dasharray="5,2" d="M118,-308.349C118,-289.383 118,-260.828 118,-246.639"/>
<polygon fill="#9a32cd" stroke="#9a32cd" points="114.5,-308.466 118,-318.466 121.5,-308.466 114.5,-308.466"/>
<text text-anchor="middle" x="148.5" y="-280.5" font-family="Helvetica,sans-Serif" font-size="10.00"> myPenColor</text>
</g>
<!-- Node7 -->
<g id="node7" class="node"><title>Node7</title>
<polygon fill="white" stroke="#bfbfbf" points="168,-227.5 168,-246.5 222,-246.5 222,-227.5 168,-227.5"/>
<text text-anchor="middle" x="195" y="-234.5" font-family="Helvetica,sans-Serif" font-size="10.00">Point2D</text>
</g>
<!-- Node7&#45;&gt;Node3 -->
<g id="edge6" class="edge"><title>Node7&#45;&gt;Node3</title>
<path fill="none" stroke="#9a32cd" stroke-dasharray="5,2" d="M195,-217.349C195,-198.383 195,-169.828 195,-155.639"/>
<polygon fill="#9a32cd" stroke="#9a32cd" points="191.5,-217.466 195,-227.466 198.5,-217.466 191.5,-217.466"/>
<text text-anchor="middle" x="212.5" y="-199.5" font-family="Helvetica,sans-Serif" font-size="10.00"> goal</text>
<text text-anchor="middle" x="212.5" y="-188.5" font-family="Helvetica,sans-Serif" font-size="10.00">next</text>
<text text-anchor="middle" x="212.5" y="-177.5" font-family="Helvetica,sans-Serif" font-size="10.00">current</text>
</g>
<!-- Node8 -->
<g id="node8" class="node"><title>Node8</title>
<polygon fill="white" stroke="#bfbfbf" points="240.5,-227.5 240.5,-246.5 287.5,-246.5 287.5,-227.5 240.5,-227.5"/>
<text text-anchor="middle" x="264" y="-234.5" font-family="Helvetica,sans-Serif" font-size="10.00">Image</text>
</g>
<!-- Node8&#45;&gt;Node3 -->
<g id="edge7" class="edge"><title>Node8&#45;&gt;Node3</title>
<path fill="none" stroke="#9a32cd" stroke-dasharray="5,2" d="M257.875,-217.356C252.909,-204.223 244.935,-186.775 234,-174 227.681,-166.618 218.901,-160.305 211.272,-155.643"/>
<polygon fill="#9a32cd" stroke="#9a32cd" points="254.711,-218.908 261.339,-227.175 261.313,-216.58 254.711,-218.908"/>
<text text-anchor="middle" x="294.5" y="-188.5" font-family="Helvetica,sans-Serif" font-size="10.00"> DEFAULT_IMAGE</text>
</g>
<!-- Node9 -->
<g id="node9" class="node"><title>Node9</title>
<g id="a_node9"><a xlink:href="../../d6/d95/classparser_1_1_parser.html" target="_top" xlink:title="parser.Parser">
<polygon fill="white" stroke="black" points="330,-136.5 330,-155.5 410,-155.5 410,-136.5 330,-136.5"/>
<text text-anchor="middle" x="370" y="-143.5" font-family="Helvetica,sans-Serif" font-size="10.00">parser.Parser</text>
</a>
</g>
</g>
<!-- Node9&#45;&gt;Node2 -->
<g id="edge8" class="edge"><title>Node9&#45;&gt;Node2</title>
<path fill="none" stroke="#9a32cd" stroke-dasharray="5,2" d="M381.189,-128.15C388.235,-118.201 397.887,-105.698 408,-96 415.243,-89.0541 424.385,-82.5023 431.887,-77.5925"/>
<polygon fill="#9a32cd" stroke="#9a32cd" points="378.289,-126.19 375.512,-136.414 384.059,-130.153 378.289,-126.19"/>
<text text-anchor="middle" x="432.5" y="-104.5" font-family="Helvetica,sans-Serif" font-size="10.00"> myParser</text>
</g>
<!-- Node10 -->
<g id="node10" class="node"><title>Node10</title>
<g id="a_node10"><a xlink:href="../../d9/d1b/classcommand_1_1_command_factory.html" target="_top" xlink:title="command.CommandFactory">
<polygon fill="white" stroke="black" points="439.5,-227.5 439.5,-246.5 592.5,-246.5 592.5,-227.5 439.5,-227.5"/>
<text text-anchor="middle" x="516" y="-234.5" font-family="Helvetica,sans-Serif" font-size="10.00">command.CommandFactory</text>
</a>
</g>
</g>
<!-- Node10&#45;&gt;Node9 -->
<g id="edge9" class="edge"><title>Node10&#45;&gt;Node9</title>
<path fill="none" stroke="#9a32cd" stroke-dasharray="5,2" d="M493.327,-222.179C462.836,-203.592 409.524,-171.093 384.171,-155.639"/>
<polygon fill="#9a32cd" stroke="#9a32cd" points="491.641,-225.25 502.001,-227.466 495.284,-219.273 491.641,-225.25"/>
<text text-anchor="middle" x="520.5" y="-188.5" font-family="Helvetica,sans-Serif" font-size="10.00"> myCommandFactory</text>
</g>
<!-- Node11 -->
<g id="node11" class="node"><title>Node11</title>
<polygon fill="white" stroke="#bfbfbf" points="321.5,-318.5 321.5,-337.5 414.5,-337.5 414.5,-318.5 321.5,-318.5"/>
<text text-anchor="middle" x="368" y="-325.5" font-family="Helvetica,sans-Serif" font-size="10.00">ResourceBundle</text>
</g>
<!-- Node11&#45;&gt;Node9 -->
<g id="edge13" class="edge"><title>Node11&#45;&gt;Node9</title>
<path fill="none" stroke="#9a32cd" stroke-dasharray="5,2" d="M366.026,-308.302C364.131,-288.031 361.73,-254.724 363,-226 364.131,-200.415 367.314,-170.304 368.97,-155.751"/>
<polygon fill="#9a32cd" stroke="#9a32cd" points="362.553,-308.75 367.026,-318.355 369.519,-308.057 362.553,-308.75"/>
<text text-anchor="middle" x="396.5" y="-234.5" font-family="Helvetica,sans-Serif" font-size="10.00"> myResources</text>
</g>
<!-- Node11&#45;&gt;Node10 -->
<g id="edge10" class="edge"><title>Node11&#45;&gt;Node10</title>
<path fill="none" stroke="#9a32cd" stroke-dasharray="5,2" d="M382.057,-310.644C394.509,-297.048 413.8,-278.041 434,-266 448.343,-257.45 465.664,-251.05 480.684,-246.544"/>
<polygon fill="#9a32cd" stroke="#9a32cd" points="379.277,-308.504 375.242,-318.301 384.505,-313.159 379.277,-308.504"/>
<text text-anchor="middle" x="470" y="-291.5" font-family="Helvetica,sans-Serif" font-size="10.00"> syntax</text>
<text text-anchor="middle" x="470" y="-280.5" font-family="Helvetica,sans-Serif" font-size="10.00">paramMap</text>
<text text-anchor="middle" x="470" y="-269.5" font-family="Helvetica,sans-Serif" font-size="10.00">translationMap</text>
</g>
<!-- Node12 -->
<g id="node12" class="node"><title>Node12</title>
<polygon fill="white" stroke="#bfbfbf" points="446,-318.5 446,-337.5 568,-337.5 568,-318.5 446,-318.5"/>
<text text-anchor="middle" x="507" y="-325.5" font-family="Helvetica,sans-Serif" font-size="10.00">Map&lt; String, String &gt;</text>
</g>
<!-- Node12&#45;&gt;Node10 -->
<g id="edge11" class="edge"><title>Node12&#45;&gt;Node10</title>
<path fill="none" stroke="#9a32cd" stroke-dasharray="5,2" d="M508.886,-308.349C510.804,-289.383 513.692,-260.828 515.126,-246.639"/>
<polygon fill="#9a32cd" stroke="#9a32cd" points="505.387,-308.165 507.863,-318.466 512.351,-308.869 505.387,-308.165"/>
<text text-anchor="middle" x="537.5" y="-280.5" font-family="Helvetica,sans-Serif" font-size="10.00"> functions</text>
</g>
<!-- Node13 -->
<g id="node13" class="node"><title>Node13</title>
<polygon fill="white" stroke="#bfbfbf" points="586,-318.5 586,-337.5 714,-337.5 714,-318.5 586,-318.5"/>
<text text-anchor="middle" x="650" y="-325.5" font-family="Helvetica,sans-Serif" font-size="10.00">Map&lt; String, Double &gt;</text>
</g>
<!-- Node13&#45;&gt;Node10 -->
<g id="edge12" class="edge"><title>Node13&#45;&gt;Node10</title>
<path fill="none" stroke="#9a32cd" stroke-dasharray="5,2" d="M630.674,-312.257C613.7,-299.521 588.167,-280.876 565,-266 554.282,-259.118 541.814,-252.005 532.137,-246.67"/>
<polygon fill="#9a32cd" stroke="#9a32cd" points="628.623,-315.094 638.713,-318.327 632.841,-309.508 628.623,-315.094"/>
<text text-anchor="middle" x="637" y="-280.5" font-family="Helvetica,sans-Serif" font-size="10.00"> variables</text>
</g>
<!-- Node14 -->
<g id="node14" class="node"><title>Node14</title>
<g id="a_node14"><a xlink:href="../../d3/dcc/classparser_1_1_node.html" target="_top" xlink:title="parser.Node">
<polygon fill="white" stroke="black" points="610.5,-227.5 610.5,-246.5 685.5,-246.5 685.5,-227.5 610.5,-227.5"/>
<text text-anchor="middle" x="648" y="-234.5" font-family="Helvetica,sans-Serif" font-size="10.00">parser.Node</text>
</a>
</g>
</g>
<!-- Node14&#45;&gt;Node9 -->
<g id="edge14" class="edge"><title>Node14&#45;&gt;Node9</title>
<path fill="none" stroke="#9a32cd" stroke-dasharray="5,2" d="M634.284,-219.587C621.011,-204.946 599.497,-184.283 576,-174 511.657,-145.841 488.468,-166.35 419,-156 416.091,-155.567 413.091,-155.09 410.075,-154.588"/>
<polygon fill="#9a32cd" stroke="#9a32cd" points="631.884,-222.159 641.099,-227.387 637.155,-217.554 631.884,-222.159"/>
<text text-anchor="middle" x="648" y="-194" font-family="Helvetica,sans-Serif" font-size="10.00"> myTree</text>
<text text-anchor="middle" x="648" y="-183" font-family="Helvetica,sans-Serif" font-size="10.00">myListTree</text>
</g>
<!-- Node14&#45;&gt;Node14 -->
<g id="edge15" class="edge"><title>Node14&#45;&gt;Node14</title>
<path fill="none" stroke="#9a32cd" stroke-dasharray="5,2" d="M695.427,-244.003C700.059,-242.591 703,-240.257 703,-237 703,-231.789 695.472,-228.939 685.532,-228.451"/>
<polygon fill="#9a32cd" stroke="#9a32cd" points="694.872,-240.548 685.532,-245.549 695.952,-247.464 694.872,-240.548"/>
<text text-anchor="middle" x="727" y="-240" font-family="Helvetica,sans-Serif" font-size="10.00"> myChild1</text>
<text text-anchor="middle" x="727" y="-229" font-family="Helvetica,sans-Serif" font-size="10.00">myChild2</text>
</g>
<!-- Node15 -->
<g id="node15" class="node"><title>Node15</title>
<polygon fill="white" stroke="#bfbfbf" points="428,-136.5 428,-155.5 538,-155.5 538,-136.5 428,-136.5"/>
<text text-anchor="middle" x="483" y="-143.5" font-family="Helvetica,sans-Serif" font-size="10.00">List&lt; turtle.Turtle &gt;</text>
</g>
<!-- Node15&#45;&gt;Node2 -->
<g id="edge16" class="edge"><title>Node15&#45;&gt;Node2</title>
<path fill="none" stroke="#9a32cd" stroke-dasharray="5,2" d="M474.296,-127.122C466.705,-111.53 456.022,-89.5862 450.195,-77.6165"/>
<polygon fill="#9a32cd" stroke="#9a32cd" points="471.231,-128.823 478.756,-136.282 477.525,-125.759 471.231,-128.823"/>
<text text-anchor="middle" x="493.5" y="-104.5" font-family="Helvetica,sans-Serif" font-size="10.00"> myTurtles</text>
</g>
<!-- Node16 -->
<g id="node16" class="node"><title>Node16</title>
<polygon fill="white" stroke="#bfbfbf" points="556.5,-136.5 556.5,-155.5 597.5,-155.5 597.5,-136.5 556.5,-136.5"/>
<text text-anchor="middle" x="577" y="-143.5" font-family="Helvetica,sans-Serif" font-size="10.00">Color</text>
</g>
<!-- Node16&#45;&gt;Node2 -->
<g id="edge17" class="edge"><title>Node16&#45;&gt;Node2</title>
<path fill="none" stroke="#9a32cd" stroke-dasharray="5,2" d="M562.183,-128.88C551.781,-118.344 537.083,-104.93 522,-96 508.626,-88.0816 492.561,-81.9538 478.654,-77.5526"/>
<polygon fill="#9a32cd" stroke="#9a32cd" points="559.794,-131.446 569.235,-136.255 564.853,-126.609 559.794,-131.446"/>
<text text-anchor="middle" x="593.5" y="-104.5" font-family="Helvetica,sans-Serif" font-size="10.00"> TURTLE_DEFAULT</text>
</g>
</g>
</svg>
