<?xml version="1.0" encoding="UTF-8" standalone="no"?>
<!DOCTYPE svg PUBLIC "-//W3C//DTD SVG 1.1//EN"
 "http://www.w3.org/Graphics/SVG/1.1/DTD/svg11.dtd">
<!-- Generated by graphviz version 2.36.0 (20140111.2315)
 -->
<!-- Title: userInterface.RightPanel.RightPanel Pages: 1 -->
<svg width="644pt" height="38pt"
 viewBox="0.00 0.00 644.00 38.00" xmlns="http://www.w3.org/2000/svg" xmlns:xlink="http://www.w3.org/1999/xlink">
<g id="graph0" class="graph" transform="scale(1 1) rotate(0) translate(4 34)">
<title>userInterface.RightPanel.RightPanel</title>
<polygon fill="white" stroke="none" points="-4,4 -4,-34 640,-34 640,4 -4,4"/>
<!-- Node1 -->
<g id="node1" class="node"><title>Node1</title>
<polygon fill="#bfbfbf" stroke="black" points="0.5,-0 0.5,-30 135.5,-30 135.5,-0 0.5,-0"/>
<text text-anchor="start" x="8.5" y="-18" font-family="Helvetica,sans-Serif" font-size="10.00">userInterface.RightPanel.</text>
<text text-anchor="middle" x="68" y="-7" font-family="Helvetica,sans-Serif" font-size="10.00">RightPanel</text>
</g>
<!-- Node2 -->
<g id="node2" class="node"><title>Node2</title>
<g id="a_node2"><a xlink:href="../../de/df4/classuser_interface_1_1_right_panel.html#a458f970045d0dde26df4c9c4c1085fb7" target="_top" xlink:title="userInterface.RightPanel.get\lInstance">
<polygon fill="white" stroke="black" points="172.5,-0 172.5,-30 323.5,-30 323.5,-0 172.5,-0"/>
<text text-anchor="start" x="180.5" y="-18" font-family="Helvetica,sans-Serif" font-size="10.00">userInterface.RightPanel.get</text>
<text text-anchor="middle" x="248" y="-7" font-family="Helvetica,sans-Serif" font-size="10.00">Instance</text>
</a>
</g>
</g>
<!-- Node1&#45;&gt;Node2 -->
<g id="edge1" class="edge"><title>Node1&#45;&gt;Node2</title>
<path fill="none" stroke="midnightblue" d="M145.816,-15C154.658,-15 163.663,-15 172.474,-15"/>
<polygon fill="midnightblue" stroke="midnightblue" points="145.534,-11.5001 135.534,-15 145.534,-18.5001 145.534,-11.5001"/>
</g>
<!-- Node3 -->
<g id="node3" class="node"><title>Node3</title>
<g id="a_node3"><a xlink:href="../../d0/d7c/classuser_interface_1_1_u_i.html#a3bbaba49b5a758cdab6fb4182e5dec4c" target="_top" xlink:title="userInterface.UI.initialize">
<polygon fill="white" stroke="black" points="360,-5.5 360,-24.5 494,-24.5 494,-5.5 360,-5.5"/>
<text text-anchor="middle" x="427" y="-12.5" font-family="Helvetica,sans-Serif" font-size="10.00">userInterface.UI.initialize</text>
</a>
</g>
</g>
<!-- Node2&#45;&gt;Node3 -->
<g id="edge2" class="edge"><title>Node2&#45;&gt;Node3</title>
<path fill="none" stroke="midnightblue" d="M333.818,-15C342.601,-15 351.433,-15 359.966,-15"/>
<polygon fill="midnightblue" stroke="midnightblue" points="333.551,-11.5001 323.551,-15 333.551,-18.5001 333.551,-11.5001"/>
</g>
<!-- Node4 -->
<g id="node4" class="node"><title>Node4</title>
<g id="a_node4"><a xlink:href="../../d0/d7c/classuser_interface_1_1_u_i.html#aad82f35446d97cd94d5003a2b995e264" target="_top" xlink:title="userInterface.UI.UI">
<polygon fill="white" stroke="black" points="530.5,-5.5 530.5,-24.5 635.5,-24.5 635.5,-5.5 530.5,-5.5"/>
<text text-anchor="middle" x="583" y="-12.5" font-family="Helvetica,sans-Serif" font-size="10.00">userInterface.UI.UI</text>
</a>
</g>
</g>
<!-- Node3&#45;&gt;Node4 -->
<g id="edge3" class="edge"><title>Node3&#45;&gt;Node4</title>
<path fill="none" stroke="midnightblue" d="M504.442,-15C513.191,-15 521.949,-15 530.265,-15"/>
<polygon fill="midnightblue" stroke="midnightblue" points="504.204,-11.5001 494.204,-15 504.204,-18.5001 504.204,-11.5001"/>
</g>
</g>
</svg>
