<?xml version="1.0" encoding="UTF-8" standalone="no"?>
<!DOCTYPE svg PUBLIC "-//W3C//DTD SVG 1.1//EN"
 "http://www.w3.org/Graphics/SVG/1.1/DTD/svg11.dtd">
<!-- Generated by graphviz version 2.36.0 (20140111.2315)
 -->
<!-- Title: userInterface.RightPanel.RightPanel Pages: 1 -->
<svg width="552pt" height="38pt"
 viewBox="0.00 0.00 552.00 38.00" xmlns="http://www.w3.org/2000/svg" xmlns:xlink="http://www.w3.org/1999/xlink">
<g id="graph0" class="graph" transform="scale(1 1) rotate(0) translate(4 34)">
<title>userInterface.RightPanel.RightPanel</title>
<polygon fill="white" stroke="none" points="-4,4 -4,-34 548,-34 548,4 -4,4"/>
<!-- Node1 -->
<g id="node1" class="node"><title>Node1</title>
<polygon fill="#bfbfbf" stroke="black" points="0.5,-0 0.5,-30 135.5,-30 135.5,-0 0.5,-0"/>
<text text-anchor="start" x="8.5" y="-18" font-family="Helvetica,sans-Serif" font-size="10.00">userInterface.RightPanel.</text>
<text text-anchor="middle" x="68" y="-7" font-family="Helvetica,sans-Serif" font-size="10.00">RightPanel</text>
</g>
<!-- Node2 -->
<g id="node2" class="node"><title>Node2</title>
<g id="a_node2"><a xlink:href="../../de/df4/classuser_interface_1_1_right_panel.html#a60556fbfc70fee15309852eaed15b536" target="_top" xlink:title="userInterface.RightPanel.initialize">
<polygon fill="white" stroke="black" points="172.5,-5.5 172.5,-24.5 345.5,-24.5 345.5,-5.5 172.5,-5.5"/>
<text text-anchor="middle" x="259" y="-12.5" font-family="Helvetica,sans-Serif" font-size="10.00">userInterface.RightPanel.initialize</text>
</a>
</g>
</g>
<!-- Node1&#45;&gt;Node2 -->
<g id="edge1" class="edge"><title>Node1&#45;&gt;Node2</title>
<path fill="none" stroke="midnightblue" d="M135.634,-15C144.283,-15 153.273,-15 162.278,-15"/>
<polygon fill="midnightblue" stroke="midnightblue" points="162.434,-18.5001 172.434,-15 162.434,-11.5001 162.434,-18.5001"/>
</g>
<!-- Node3 -->
<g id="node3" class="node"><title>Node3</title>
<g id="a_node3"><a xlink:href="../../de/df4/classuser_interface_1_1_right_panel.html#a1dff8a338d9b837b114d32825ca4ef0c" target="_top" xlink:title="userInterface.RightPanel.make\lListView">
<polygon fill="white" stroke="black" points="382,-0 382,-30 544,-30 544,-0 382,-0"/>
<text text-anchor="start" x="390" y="-18" font-family="Helvetica,sans-Serif" font-size="10.00">userInterface.RightPanel.make</text>
<text text-anchor="middle" x="463" y="-7" font-family="Helvetica,sans-Serif" font-size="10.00">ListView</text>
</a>
</g>
</g>
<!-- Node2&#45;&gt;Node3 -->
<g id="edge2" class="edge"><title>Node2&#45;&gt;Node3</title>
<path fill="none" stroke="midnightblue" d="M345.666,-15C354.322,-15 363.132,-15 371.834,-15"/>
<polygon fill="midnightblue" stroke="midnightblue" points="371.983,-18.5001 381.983,-15 371.983,-11.5001 371.983,-18.5001"/>
</g>
</g>
</svg>
