<?xml version="1.0" encoding="UTF-8" standalone="no"?>
<!DOCTYPE svg PUBLIC "-//W3C//DTD SVG 1.1//EN"
 "http://www.w3.org/Graphics/SVG/1.1/DTD/svg11.dtd">
<!-- Generated by graphviz version 2.36.0 (20140111.2315)
 -->
<!-- Title: userInterface.RightPanel.RightPanel Pages: 1 -->
<svg width="674pt" height="77pt"
 viewBox="0.00 0.00 674.00 77.00" xmlns="http://www.w3.org/2000/svg" xmlns:xlink="http://www.w3.org/1999/xlink">
<g id="graph0" class="graph" transform="scale(1 1) rotate(0) translate(4 73)">
<title>userInterface.RightPanel.RightPanel</title>
<polygon fill="white" stroke="none" points="-4,4 -4,-73 670,-73 670,4 -4,4"/>
<!-- Node1 -->
<g id="node1" class="node"><title>Node1</title>
<polygon fill="#bfbfbf" stroke="black" points="0.5,-22 0.5,-52 135.5,-52 135.5,-22 0.5,-22"/>
<text text-anchor="start" x="8.5" y="-40" font-family="Helvetica,sans-Serif" font-size="10.00">userInterface.RightPanel.</text>
<text text-anchor="middle" x="68" y="-29" font-family="Helvetica,sans-Serif" font-size="10.00">RightPanel</text>
</g>
<!-- Node2 -->
<g id="node2" class="node"><title>Node2</title>
<g id="a_node2"><a xlink:href="../../de/df4/classuser_interface_1_1_right_panel.html#a458f970045d0dde26df4c9c4c1085fb7" target="_top" xlink:title="userInterface.RightPanel.get\lInstance">
<polygon fill="white" stroke="black" points="172.5,-22 172.5,-52 323.5,-52 323.5,-22 172.5,-22"/>
<text text-anchor="start" x="180.5" y="-40" font-family="Helvetica,sans-Serif" font-size="10.00">userInterface.RightPanel.get</text>
<text text-anchor="middle" x="248" y="-29" font-family="Helvetica,sans-Serif" font-size="10.00">Instance</text>
</a>
</g>
</g>
<!-- Node1&#45;&gt;Node2 -->
<g id="edge1" class="edge"><title>Node1&#45;&gt;Node2</title>
<path fill="none" stroke="midnightblue" d="M145.816,-37C154.658,-37 163.663,-37 172.474,-37"/>
<polygon fill="midnightblue" stroke="midnightblue" points="145.534,-33.5001 135.534,-37 145.534,-40.5001 145.534,-33.5001"/>
</g>
<!-- Node3 -->
<g id="node3" class="node"><title>Node3</title>
<g id="a_node3"><a xlink:href="../../d0/d7c/classuser_interface_1_1_u_i.html#a3bbaba49b5a758cdab6fb4182e5dec4c" target="_top" xlink:title="userInterface.UI.initialize">
<polygon fill="white" stroke="black" points="375,-49.5 375,-68.5 509,-68.5 509,-49.5 375,-49.5"/>
<text text-anchor="middle" x="442" y="-56.5" font-family="Helvetica,sans-Serif" font-size="10.00">userInterface.UI.initialize</text>
</a>
</g>
</g>
<!-- Node2&#45;&gt;Node3 -->
<g id="edge2" class="edge"><title>Node2&#45;&gt;Node3</title>
<path fill="none" stroke="midnightblue" d="M333.542,-46.6871C347.426,-48.2779 361.633,-49.9059 374.982,-51.4354"/>
<polygon fill="midnightblue" stroke="midnightblue" points="333.84,-43.1985 323.507,-45.5373 333.044,-50.153 333.84,-43.1985"/>
</g>
<!-- Node5 -->
<g id="node5" class="node"><title>Node5</title>
<g id="a_node5"><a xlink:href="../../d8/d08/classworld_controller_1_1_world_controller.html#a2f1f4f6fa731a84b45d6e92813d8c941" target="_top" xlink:title="worldController.WorldController.\lWorldController">
<polygon fill="white" stroke="black" points="360,-0 360,-30 524,-30 524,-0 360,-0"/>
<text text-anchor="start" x="368" y="-18" font-family="Helvetica,sans-Serif" font-size="10.00">worldController.WorldController.</text>
<text text-anchor="middle" x="442" y="-7" font-family="Helvetica,sans-Serif" font-size="10.00">WorldController</text>
</a>
</g>
</g>
<!-- Node2&#45;&gt;Node5 -->
<g id="edge4" class="edge"><title>Node2&#45;&gt;Node5</title>
<path fill="none" stroke="midnightblue" d="M333.65,-27.3005C342.355,-26.3031 351.186,-25.2912 359.851,-24.2983"/>
<polygon fill="midnightblue" stroke="midnightblue" points="333.044,-23.847 323.507,-28.4627 333.84,-30.8015 333.044,-23.847"/>
</g>
<!-- Node4 -->
<g id="node4" class="node"><title>Node4</title>
<g id="a_node4"><a xlink:href="../../d0/d7c/classuser_interface_1_1_u_i.html#aad82f35446d97cd94d5003a2b995e264" target="_top" xlink:title="userInterface.UI.UI">
<polygon fill="white" stroke="black" points="560.5,-49.5 560.5,-68.5 665.5,-68.5 665.5,-49.5 560.5,-49.5"/>
<text text-anchor="middle" x="613" y="-56.5" font-family="Helvetica,sans-Serif" font-size="10.00">userInterface.UI.UI</text>
</a>
</g>
</g>
<!-- Node3&#45;&gt;Node4 -->
<g id="edge3" class="edge"><title>Node3&#45;&gt;Node4</title>
<path fill="none" stroke="midnightblue" d="M519.319,-59C533.169,-59 547.315,-59 560.249,-59"/>
<polygon fill="midnightblue" stroke="midnightblue" points="519.308,-55.5001 509.308,-59 519.308,-62.5001 519.308,-55.5001"/>
</g>
</g>
</svg>
